<svg xmlns="http://www.w3.org/2000/svg" viewBox="0 0 523 379" color-interpolation-filters="sRGB" fill="none" fill-rule="evenodd" font-size="12" overflow="visible" stroke-linecap="square" stroke-miterlimit="3"><g transform="translate(.36 -.36)"><path fill="#1f64ff" stroke="#000" stroke-linecap="round" stroke-linejoin="round" stroke-width=".72" d="M0 .72h522v378H0z"/><g transform="matrix(1 0 0 -1 13.723 397.44)"><path d="M138.88 372.44C76.11 359.89 26.15 315.43 6.8 254.75 1.05 236.97 0 229.38.26 202.97c.26-33.22 4.45-52.31 17-77.16 23.02-45.24 68.79-79.77 118.48-89.44 25.63-4.97 68.52-2.1 92.32 6.27l19.62 6.8 19.61-7.06c17.79-6.54 22.76-7.32 54.93-7.32 29.03 0 38.44 1.04 53.61 5.75 72.45 22.76 123.45 97.56 118.22 173.4-6.28 87.36-72.45 153.26-161.37 161.37-19.36 1.57-50.48-3.66-72.45-12.55l-13.86-5.49-13.6 5.49c-31.39 12.55-62.25 15.69-93.89 9.41zm55.97-38.97c23.27-4.44 40.01-12.55 60.15-29.03 12.55-10.2 30.6-31.64 30.6-36.35 0-.79-3.14-1.57-7.06-1.57-16.48-.26-19.09-8.37-19.09-59.63 0-42.63 2.35-59.89 8.37-63.55 1.83-1.31 26.41-2.36 54.66-2.36 45.77 0 52.04.52 57.27 4.71 5.76 4.71 5.76 5.75 5.5 58.06-.53 64.86.78 62.77-33.22 62.77h-21.97l-6.8 13.86c-7.84 15.17-16.48 27.72-28.24 40.28-4.19 4.71-7.07 9.15-6.54 9.94 3.66 3.4 31.64 6.54 46.81 4.97 55.45-5.5 102.26-45.77 116.39-99.65 17.52-66.69-20.66-135.22-88.14-157.97-20.92-6.8-58.32-6.8-81.34.26-28.51 8.89-59.63 33.22-71.4 55.71-3.66 6.8-3.66 7.06 3.66 7.06 3.92 0 9.68 1.57 12.56 3.66 4.7 3.4 4.96 7.85 5.75 57.28 1.05 70.35 6.54 64.6-62.25 64.6-42.1 0-52.04-.78-57.01-4.18-5.76-3.93-5.76-5.24-5.76-57.54 0-66.17-1.3-63.82 34-63.82 16.48 0 23.54-1.04 23.54-3.14 0-5.49 20.93-38.44 31.65-49.69 5.49-6.01 9.41-11.51 8.63-12.29-.79-.79-14.12-1.83-29.55-2.36-39.24-1.56-58.07 4.45-88.4 27.2-30.08 22.5-50.48 64.08-50.48 103.05 0 56.75 41.84 112.46 95.46 126.59 30.34 7.84 35.57 8.1 62.25 3.13zm-2.36-110.37c2.36-6.01 1.83-35.83-.78-39.75-1.31-2.35-7.85-3.14-22.76-2.61l-20.66.78-.78 19.35c-.53 10.73-.26 20.93.52 23.02 2.09 5.49 42.37 4.71 44.46-.79zm152.74-19.87l.79-23.02h-22.5c-12.29 0-22.49.79-22.49 2.09-1.83 8.9-1.05 39.24 1.05 41.85 1.83 2.35 8.63 3.14 22.49 2.62l19.88-.79.78-22.75z" fill="#fff" stroke="#1f64ff" stroke-linecap="butt" stroke-width=".262"/></g></g></svg>