<svg id="Layer_1" data-name="Layer 1" xmlns="http://www.w3.org/2000/svg" xmlns:xlink="http://www.w3.org/1999/xlink" viewBox="0 0 152 152"><defs><style>.cls-1{fill:#1d2741;}.cls-2{fill:#47a025;}.cls-3{fill:url(#linear-gradient);}.cls-4{fill:url(#linear-gradient-2);}.cls-5{fill:url(#linear-gradient-3);}</style><linearGradient id="linear-gradient" x1="77.79" y1="155.88" x2="77.79" y2="114" gradientTransform="matrix(1, 0, 0, -1, 0, 266)" gradientUnits="userSpaceOnUse"><stop offset="0" stop-color="#8cd73f"/><stop offset="0.23" stop-color="#7ac838"/><stop offset="0.7" stop-color="#4aa226"/><stop offset="0.72" stop-color="#47a025"/></linearGradient><linearGradient id="linear-gradient-2" x1="108.9" y1="200.11" x2="138.47" y2="228.61" gradientTransform="matrix(1, 0, 0, -1, 0, 266)" gradientUnits="userSpaceOnUse"><stop offset="0" stop-color="#8cd73f"/><stop offset="0.28" stop-color="#77c637"/><stop offset="0.8" stop-color="#47a025"/></linearGradient><linearGradient id="linear-gradient-3" x1="21.52" y1="227.56" x2="47.36" y2="196.74" gradientTransform="matrix(1, 0, 0, -1, 0, 266)" gradientUnits="userSpaceOnUse"><stop offset="0" stop-color="#47a025"/><stop offset="0.19" stop-color="#4aa226"/><stop offset="0.3" stop-color="#52a929"/><stop offset="0.4" stop-color="#60b42f"/><stop offset="0.48" stop-color="#74c436"/><stop offset="0.55" stop-color="#8cd73f"/></linearGradient></defs><path class="cls-1" d="M88.91,76.37a11.4,11.4,0,1,0-11.1,13,10.56,10.56,0,0,0,4.11-.8,11.4,11.4,0,0,0,7.14-10.45A8.62,8.62,0,0,0,88.91,76.37Zm-11.1-2.31a4.07,4.07,0,1,1-4.06,4.06v0a4,4,0,0,1,4-4Z"/><path class="cls-2" d="M88.91,76.37,81.31,72a7,7,0,1,0-7,12.2l7.6,4.37,35.91,20.6a14.37,14.37,0,0,1,7-12.16Zm-11.1,5.78a4.07,4.07,0,1,1,4.07-4.07h0A4.07,4.07,0,0,1,77.81,82.15Z"/><path class="cls-2" d="M34,44.68l-7,4.07V98.8a14.49,14.49,0,0,0-14.07,0V44.68c0-.34,0-.68,0-1V43h0a2.6,2.6,0,0,1,.23-.68h0a5.34,5.34,0,0,1,.38-.8,4.61,4.61,0,0,1,.5-.72l.34-.46.87-.8a6.82,6.82,0,0,1,1.1-.84h0L63.33,11.39a14.51,14.51,0,0,0,7,12.2Z"/><path class="cls-2" d="M141.81,48.21l-.27.46-.26.3a3.24,3.24,0,0,1-.65.73,5.44,5.44,0,0,1-.42.41l-.45.35-.54.3a6.89,6.89,0,0,1-7,0h0l-10.64-6.08-36.41-21a14.48,14.48,0,0,0,7.15-12.27l46.93,27.13.65.42.42.34.22.23.35.34a.71.71,0,0,1,.19.23l.22.27.38.57h0v.19a2.69,2.69,0,0,1,.31.61h0c0,.26.19.49.26.76s0,.3,0,.45a1.78,1.78,0,0,1,0,.65v1a1.57,1.57,0,0,1,0,.61,1,1,0,0,1,0,.49h0v.49h0l-.22.69A6,6,0,0,1,141.81,48.21Z"/><path class="cls-2" d="M128.89,123.57,81.42,151l-.64.34-.5.19a6.76,6.76,0,0,1-5.17-.11,3.83,3.83,0,0,1-.79-.38L27.38,124a14.38,14.38,0,0,0,7-12.16l43.4,25,7-4.07,33.33-19.23a14.42,14.42,0,0,0,6.65,8.44A13.57,13.57,0,0,0,128.89,123.57Z"/><path class="cls-3" d="M77.81,110.2a7,7,0,0,0-7,7v27.82a7,7,0,0,0,3.54,6.08l.79.38h0a1.85,1.85,0,0,0,.65.22h.53a1.78,1.78,0,0,0,.65,0,3.17,3.17,0,0,0,.87,0,6.41,6.41,0,0,0,1.9-.26h.61l.42-.19.68-.34h0a7,7,0,0,0,3.38-6V117.15A7,7,0,0,0,77.81,110.2Zm0,3a4.07,4.07,0,1,1-4.06,4.07h0a4.05,4.05,0,0,1,4-4.14h.07Z"/><path class="cls-4" d="M142.72,44v-.19h0V43.5h0a.86.86,0,0,0,0-.45.81.81,0,0,0,0-.38,6,6,0,0,0-.3-.84,4.25,4.25,0,0,0-.27-.46.41.41,0,0,0,0-.22,1.59,1.59,0,0,0-.3-.46l-.27-.34a1.38,1.38,0,0,0-.34-.38h0a2.87,2.87,0,0,0-.53-.46h0l-.5-.3H140a6.92,6.92,0,0,0-6.88,0l-11.48,5.47L108,52.51a7,7,0,0,0-2.54,9.61h0A6.83,6.83,0,0,0,108,64.67a7,7,0,0,0,7.07,0l24.1-13.91a2.6,2.6,0,0,0,.64-.46l.38-.26a1.37,1.37,0,0,0,.34-.34h.19a1.84,1.84,0,0,0,.46-.54h0l.23-.34.23-.34h0a5.21,5.21,0,0,0,.26-.53h0a1,1,0,0,0,0-.34,2.34,2.34,0,0,0,.19-.5v-.19a1.19,1.19,0,0,0,0-.53h0a1,1,0,0,0,0-.34,6.46,6.46,0,0,0,0-.88h0C142.76,44.38,142.72,44.19,142.72,44ZM113.65,62.08a4,4,0,1,1,1.48-5.51,3.8,3.8,0,0,1-1.06,5.27A4.49,4.49,0,0,1,113.65,62.08Z"/><path class="cls-5" d="M47.52,52.51,34,44.68,23.43,38.6a7,7,0,0,0-7.18,0l-.57.38h0l-.5.65-.34.38-.34.38h0a4.61,4.61,0,0,0-.5.72l-.38.76h0v.38h0a1.21,1.21,0,0,0,0,.38h0c0,.21,0,.43,0,.64a2.94,2.94,0,0,0,0,.42v.61a6.93,6.93,0,0,0,3.5,6.08L27,57l13.53,7.6a7,7,0,1,0,7.58-11.84,6.05,6.05,0,0,0-.55-.32Zm0,8.09a4.07,4.07,0,0,1-7-4A4.11,4.11,0,0,1,46,55.05a4.07,4.07,0,0,1,1.61,5.52,1.59,1.59,0,0,1-.13.22Z"/><ellipse class="cls-1" cx="132.04" cy="109.47" rx="11.17" ry="11.29" transform="translate(-38.74 125.31) rotate(-44.96)"/><circle class="cls-1" cx="77.83" cy="11.25" r="11.25"/><ellipse class="cls-1" cx="19.96" cy="111.55" rx="11.17" ry="11.29" transform="translate(-73.08 46.85) rotate(-45.04)"/></svg>