<svg id="Layer_1" data-name="Layer 1" xmlns="http://www.w3.org/2000/svg" xmlns:xlink="http://www.w3.org/1999/xlink" viewBox="0 0 192 192"><defs><style>.cls-1{fill:#1d2741;}.cls-2{fill:#47a025;}.cls-3{fill:url(#linear-gradient);}.cls-4{fill:url(#linear-gradient-2);}.cls-5{fill:url(#linear-gradient-3);}</style><linearGradient id="linear-gradient" x1="98.26" y1="108.5" x2="98.26" y2="55.6" gradientTransform="matrix(1, 0, 0, -1, 0, 247.6)" gradientUnits="userSpaceOnUse"><stop offset="0" stop-color="#8cd73f"/><stop offset="0.23" stop-color="#7ac838"/><stop offset="0.7" stop-color="#4aa226"/><stop offset="0.72" stop-color="#47a025"/></linearGradient><linearGradient id="linear-gradient-2" x1="137.56" y1="164.37" x2="174.91" y2="200.37" gradientTransform="matrix(1, 0, 0, -1, 0, 247.6)" gradientUnits="userSpaceOnUse"><stop offset="0" stop-color="#8cd73f"/><stop offset="0.28" stop-color="#77c637"/><stop offset="0.8" stop-color="#47a025"/></linearGradient><linearGradient id="linear-gradient-3" x1="27.18" y1="199.04" x2="59.83" y2="160.11" gradientTransform="matrix(1, 0, 0, -1, 0, 247.6)" gradientUnits="userSpaceOnUse"><stop offset="0" stop-color="#47a025"/><stop offset="0.19" stop-color="#4aa226"/><stop offset="0.3" stop-color="#52a929"/><stop offset="0.4" stop-color="#60b42f"/><stop offset="0.48" stop-color="#74c436"/><stop offset="0.55" stop-color="#8cd73f"/></linearGradient></defs><path class="cls-1" d="M112.31,96.47a14.4,14.4,0,1,0-14,16.42,13.32,13.32,0,0,0,5.18-1,14.41,14.41,0,0,0,9-13.2A11.71,11.71,0,0,0,112.31,96.47Zm-14-2.93a5.14,5.14,0,1,1-5.14,5.14v-.05a5.09,5.09,0,0,1,5.09-5.09Z"/><path class="cls-2" d="M112.31,96.47,102.7,91a8.89,8.89,0,0,0-8.88,15.41l9.6,5.52,45.37,26a18.13,18.13,0,0,1,8.88-15.36Zm-14,7.3a5.14,5.14,0,1,1,5.13-5.14h0A5.13,5.13,0,0,1,98.29,103.77Z"/><path class="cls-2" d="M42.89,56.44,34,61.57v63.22a18.33,18.33,0,0,0-17.76,0V56.44c0-.43,0-.87,0-1.3v-.86h0a3.07,3.07,0,0,1,.29-.87h0a6.65,6.65,0,0,1,.48-1,7,7,0,0,1,.62-.91l.43-.57,1.11-1a7.52,7.52,0,0,1,1.39-1.06h0L80,14.39A18.29,18.29,0,0,0,88.88,29.8Z"/><path class="cls-2" d="M179.13,60.9l-.34.58-.34.38a3.36,3.36,0,0,1-.81.91,5.3,5.3,0,0,1-.53.53l-.58.43-.67.39a8.68,8.68,0,0,1-8.83,0h0l-13.44-7.68-46-26.55a17.52,17.52,0,0,0,3.55-2.74,18.21,18.21,0,0,0,5.48-12.76l59.28,34.27.82.53.52.43.29.29.43.43a.62.62,0,0,1,.24.29l.29.33.48.72h0v.24a4,4,0,0,1,.39.77h0c0,.34.24.63.33,1s0,.39,0,.58a2.26,2.26,0,0,1,0,.82v1.2a1.94,1.94,0,0,1,0,.76,1.34,1.34,0,0,1,0,.63h0v.62h0l-.29.87A7.1,7.1,0,0,1,179.13,60.9Z"/><path class="cls-2" d="M162.81,156.09l-60,34.66-.82.43-.62.24a8.34,8.34,0,0,1-3.12.58,8.16,8.16,0,0,1-3.41-.72,4.91,4.91,0,0,1-1-.48L34.59,156.57a18.21,18.21,0,0,0,8.88-15.36L98.29,172.8l8.88-5.14,42.1-24.29a18.21,18.21,0,0,0,8.4,10.66A17.26,17.26,0,0,0,162.81,156.09Z"/><path class="cls-3" d="M98.29,139.2a8.87,8.87,0,0,0-8.88,8.88v35.14a8.85,8.85,0,0,0,4.46,7.68l1,.48h0a2.35,2.35,0,0,0,.82.28h.67a2.21,2.21,0,0,0,.81,0,4.13,4.13,0,0,0,1.11,0,8.13,8.13,0,0,0,2.4-.33h.77l.52-.24.87-.43h0a8.8,8.8,0,0,0,4.27-7.59V148A8.87,8.87,0,0,0,98.29,139.2Zm0,3.74a5.14,5.14,0,1,1-5.14,5.14h0a5.15,5.15,0,0,1,5-5.24h.1Z"/><path class="cls-4" d="M180.28,55.53v-.24h0V55h0a1.42,1.42,0,0,0,0-.58,1,1,0,0,0,0-.48,6.63,6.63,0,0,0-.39-1,3,3,0,0,0-.33-.58.71.71,0,0,0,0-.29,1.81,1.81,0,0,0-.39-.57l-.33-.44a2.18,2.18,0,0,0-.43-.48h0a3.74,3.74,0,0,0-.68-.57h0l-.62-.39h-.34a8.78,8.78,0,0,0-8.68,0l-14.5,6.92-17.14,9.89a8.88,8.88,0,0,0-3.22,12.14h0a8.63,8.63,0,0,0,3.21,3.22,8.91,8.91,0,0,0,8.93,0l30.43-17.57a3,3,0,0,0,.82-.58l.48-.33a1.8,1.8,0,0,0,.43-.44.49.49,0,0,0,.24,0,2.34,2.34,0,0,0,.58-.67h0l.29-.43.28-.43h0s.24-.43.34-.67h0a1.62,1.62,0,0,0,0-.44,3.61,3.61,0,0,0,.24-.62v-.24a1.52,1.52,0,0,0,0-.67h0a1.55,1.55,0,0,0,0-.43,10.27,10.27,0,0,0,0-1.11h0C180.33,56.05,180.28,55.81,180.28,55.53ZM143.56,78.42a5.09,5.09,0,1,1,1.87-7,4.81,4.81,0,0,1-1.34,6.66A5.54,5.54,0,0,1,143.56,78.42Z"/><path class="cls-5" d="M60,66.33,42.89,56.44,29.6,48.76a8.9,8.9,0,0,0-9.08,0l-.72.48h0l-.62.81-.43.48-.44.48h0a7,7,0,0,0-.62.91l-.48,1h0v.48h0a1.29,1.29,0,0,0,0,.48h0a5.61,5.61,0,0,0,0,.82,2.35,2.35,0,0,0,0,.53V56a8.74,8.74,0,0,0,4.42,7.68L34.06,72l17.09,9.6a8.88,8.88,0,1,0,9.57-15,7.76,7.76,0,0,0-.69-.4Zm0,10.22a3.64,3.64,0,1,1,.16,0c0,.09-.1.18-.16.27Z"/><ellipse class="cls-1" cx="166.79" cy="138.28" rx="14.11" ry="14.26" transform="translate(-48.94 158.29) rotate(-44.96)"/><circle class="cls-1" cx="98.31" cy="14.21" r="14.21"/><ellipse class="cls-1" cx="25.21" cy="140.91" rx="14.11" ry="14.26" transform="translate(-92.31 59.18) rotate(-45.04)"/></svg>