<svg id="Layer_1" data-name="Layer 1" xmlns="http://www.w3.org/2000/svg" xmlns:xlink="http://www.w3.org/1999/xlink" viewBox="0 0 32 32"><defs><style>.cls-1{fill:#1d2741;}.cls-2{fill:#47a025;}.cls-3{fill:url(#linear-gradient);}.cls-4{fill:url(#linear-gradient-2);}.cls-5{fill:url(#linear-gradient-3);}</style><linearGradient id="linear-gradient" x1="16.38" y1="349.82" x2="16.38" y2="341" gradientTransform="matrix(1, 0, 0, -1, 0, 373)" gradientUnits="userSpaceOnUse"><stop offset="0" stop-color="#8cd73f"/><stop offset="0.23" stop-color="#7ac838"/><stop offset="0.7" stop-color="#4aa226"/><stop offset="0.72" stop-color="#47a025"/></linearGradient><linearGradient id="linear-gradient-2" x1="22.93" y1="359.13" x2="29.15" y2="365.13" gradientTransform="matrix(1, 0, 0, -1, 0, 373)" gradientUnits="userSpaceOnUse"><stop offset="0" stop-color="#8cd73f"/><stop offset="0.28" stop-color="#77c637"/><stop offset="0.8" stop-color="#47a025"/></linearGradient><linearGradient id="linear-gradient-3" x1="4.53" y1="364.91" x2="9.97" y2="358.42" gradientTransform="matrix(1, 0, 0, -1, 0, 373)" gradientUnits="userSpaceOnUse"><stop offset="0" stop-color="#47a025"/><stop offset="0.19" stop-color="#4aa226"/><stop offset="0.3" stop-color="#52a929"/><stop offset="0.4" stop-color="#60b42f"/><stop offset="0.48" stop-color="#74c436"/><stop offset="0.55" stop-color="#8cd73f"/></linearGradient></defs><path class="cls-1" d="M18.72,16.08a2.4,2.4,0,1,0-2.34,2.73,2.17,2.17,0,0,0,.87-.16,2.4,2.4,0,0,0,1.5-2.2A2.22,2.22,0,0,0,18.72,16.08Zm-2.34-.49a.86.86,0,1,1,0,1.71.85.85,0,0,1-.85-.85h0a.85.85,0,0,1,.84-.85Z"/><path class="cls-2" d="M18.72,16.08l-1.6-.92a1.48,1.48,0,1,0-1.48,2.57l1.6.92L24.8,23a3,3,0,0,1,1.48-2.56Zm-2.34,1.21a.85.85,0,0,1-.85-.85.86.86,0,1,1,1.71,0h0A.86.86,0,0,1,16.38,17.29Z"/><path class="cls-2" d="M7.15,9.41l-1.48.85V20.8a3.05,3.05,0,0,0-3,0V9.41a.81.81,0,0,1,0-.22V9.05h0a.44.44,0,0,1,0-.15h0a.65.65,0,0,1,.08-.17l.1-.15L3,8.49l.19-.17a1,1,0,0,1,.23-.18h0l9.9-5.74A3.09,3.09,0,0,0,14.81,5Z"/><path class="cls-2" d="M29.85,10.15l-.05.1-.06.06a.47.47,0,0,1-.13.15l-.09.09-.1.07-.11.07a1.48,1.48,0,0,1-1.47,0h0L25.6,9.41,17.93,5a2.94,2.94,0,0,0,.6-.45,3.07,3.07,0,0,0,.91-2.13l9.88,5.71.13.09.09.07.05.05.07.07a.1.1,0,0,1,0,0l.05.05.08.12h0v0a.38.38,0,0,1,.06.13h0a.44.44,0,0,0,.06.16C30,9,30,9,30,9a.29.29,0,0,1,0,.13v.2a.28.28,0,0,1,0,.13.21.21,0,0,1,0,.11h0v.1h0l-.05.14A1,1,0,0,1,29.85,10.15Z"/><path class="cls-2" d="M27.13,26l-10,5.77-.13.07-.11,0a1.3,1.3,0,0,1-.52.1,1.42,1.42,0,0,1-.57-.12.8.8,0,0,1-.16-.08L5.76,26.1a3,3,0,0,0,1.48-2.56l9.14,5.26,1.48-.86,7-4a3,3,0,0,0,1.4,1.77A2.88,2.88,0,0,0,27.13,26Z"/><path class="cls-3" d="M16.38,23.2a1.48,1.48,0,0,0-1.48,1.48v5.86a1.49,1.49,0,0,0,.75,1.28l.16.08h0a.37.37,0,0,0,.14,0h.43a1.07,1.07,0,0,0,.4-.05h.13l.09,0,.14-.07h0a1.45,1.45,0,0,0,.71-1.27V24.66A1.48,1.48,0,0,0,16.38,23.2Zm0,.62a.86.86,0,1,1-.85.86h0a.85.85,0,0,1,.84-.87h0Z"/><path class="cls-4" d="M30.05,9.25v0h0V9.16h0V9A.87.87,0,0,0,30,8.81a.31.31,0,0,0-.05-.1V8.66a.31.31,0,0,0-.07-.09l-.05-.08-.08-.08h0l-.11-.09h0l-.1-.07h-.06a1.5,1.5,0,0,0-1.45,0L25.6,9.41l-2.86,1.64a1.48,1.48,0,0,0-.53,2h0a1.35,1.35,0,0,0,.53.53,1.47,1.47,0,0,0,1.49,0l5.07-2.92a.71.71,0,0,0,.14-.1l.08-.06a.23.23,0,0,0,.07-.07h0a.52.52,0,0,0,.1-.11h0l0-.07.05-.07h0l.06-.12h0V10a.42.42,0,0,0,0-.1v0a.2.2,0,0,0,0-.11h0V9.51h0C30.05,9.34,30.05,9.3,30.05,9.25Zm-6.12,3.82a.85.85,0,1,1,.31-1.16A.81.81,0,0,1,24,13Z"/><path class="cls-5" d="M10,11.05,7.15,9.41,4.93,8.13a1.46,1.46,0,0,0-1.51,0l-.12.08h0l-.1.13-.08.08-.07.08h0L3,8.65l-.08.16h0v.08h0a.11.11,0,0,0,0,.08h0a.33.33,0,0,0,0,.14v.22a1.46,1.46,0,0,0,.73,1.28L5.68,12l2.84,1.6a1.48,1.48,0,0,0,1.6-2.5L10,11Zm0,1.71a.86.86,0,0,1-1.48-.85.86.86,0,0,1,1.17-.32A.85.85,0,0,1,10,12.75l0,.05Z"/><ellipse class="cls-1" cx="27.8" cy="23.05" rx="2.35" ry="2.38" transform="translate(-8.16 26.38) rotate(-44.96)"/><circle class="cls-1" cx="16.38" cy="2.37" r="2.37"/><ellipse class="cls-1" cx="4.2" cy="23.48" rx="2.35" ry="2.38" transform="translate(-15.38 9.86) rotate(-45.04)"/></svg>