<svg id="Layer_1" data-name="Layer 1" xmlns="http://www.w3.org/2000/svg" xmlns:xlink="http://www.w3.org/1999/xlink" viewBox="0 0 57 57"><defs><style>.cls-1{fill:#1d2741;}.cls-2{fill:#47a025;}.cls-3{fill:url(#linear-gradient);}.cls-4{fill:url(#linear-gradient-2);}.cls-5{fill:url(#linear-gradient-3);}</style><linearGradient id="linear-gradient" x1="29.17" y1="459.7" x2="29.17" y2="444" gradientTransform="matrix(1, 0, 0, -1, 0, 501)" gradientUnits="userSpaceOnUse"><stop offset="0" stop-color="#8cd73f"/><stop offset="0.23" stop-color="#7ac838"/><stop offset="0.7" stop-color="#4aa226"/><stop offset="0.72" stop-color="#47a025"/></linearGradient><linearGradient id="linear-gradient-2" x1="40.84" y1="476.29" x2="51.93" y2="486.98" gradientTransform="matrix(1, 0, 0, -1, 0, 501)" gradientUnits="userSpaceOnUse"><stop offset="0" stop-color="#8cd73f"/><stop offset="0.28" stop-color="#77c637"/><stop offset="0.8" stop-color="#47a025"/></linearGradient><linearGradient id="linear-gradient-3" x1="8.07" y1="486.58" x2="17.76" y2="475.03" gradientTransform="matrix(1, 0, 0, -1, 0, 501)" gradientUnits="userSpaceOnUse"><stop offset="0" stop-color="#47a025"/><stop offset="0.19" stop-color="#4aa226"/><stop offset="0.3" stop-color="#52a929"/><stop offset="0.4" stop-color="#60b42f"/><stop offset="0.48" stop-color="#74c436"/><stop offset="0.55" stop-color="#8cd73f"/></linearGradient></defs><path class="cls-1" d="M33.34,28.64a4.28,4.28,0,1,0-4.16,4.87,3.71,3.71,0,0,0,1.54-.3A4.27,4.27,0,0,0,33.4,29.3,3.68,3.68,0,0,0,33.34,28.64Zm-4.16-.87a1.53,1.53,0,1,1-1.53,1.53v0a1.52,1.52,0,0,1,1.52-1.51Z"/><path class="cls-2" d="M33.34,28.64,30.49,27a2.64,2.64,0,1,0-2.64,4.58l2.85,1.63,13.47,7.73a5.4,5.4,0,0,1,2.64-4.56Zm-4.16,2.17a1.53,1.53,0,1,1,0-3,1.52,1.52,0,0,1,1.52,1.52h0A1.53,1.53,0,0,1,29.18,30.81Z"/><path class="cls-2" d="M12.73,16.75,10.1,18.28V37.05a5.45,5.45,0,0,0-5.28,0V16.11h0a1.06,1.06,0,0,1,.09-.25h0a2.09,2.09,0,0,1,.14-.3,1.85,1.85,0,0,1,.19-.27l.13-.17.32-.3a2.59,2.59,0,0,1,.42-.32h0L23.75,4.27a5.45,5.45,0,0,0,2.64,4.58Z"/><path class="cls-2" d="M53.18,18.08l-.1.17-.1.12a1.55,1.55,0,0,1-.24.27l-.16.15-.17.13-.2.11a2.56,2.56,0,0,1-2.62,0h0l-4-2.28L31.94,8.87A4.89,4.89,0,0,0,33,8.06a5.41,5.41,0,0,0,1.62-3.79l17.6,10.18.25.15.15.13.09.09.13.12.07.09.08.1.15.21h0v.08a1.51,1.51,0,0,1,.11.22h0a1.11,1.11,0,0,0,.1.29c0,.1,0,.11,0,.17a1,1,0,0,1,0,.24v.36a.88.88,0,0,1,0,.23.54.54,0,0,1,0,.18h0v.19h0l-.09.25A1.89,1.89,0,0,1,53.18,18.08Z"/><path class="cls-2" d="M48.33,46.34,30.53,56.63l-.24.13-.18.07a2.69,2.69,0,0,1-.93.17,2.5,2.5,0,0,1-1-.21,1.4,1.4,0,0,1-.3-.15L10.27,46.48a5.37,5.37,0,0,0,2.63-4.56L29.18,51.3l2.64-1.53,12.49-7.21a5.46,5.46,0,0,0,2.5,3.17A5.27,5.27,0,0,0,48.33,46.34Z"/><path class="cls-3" d="M29.18,41.32A2.64,2.64,0,0,0,26.54,44V54.39a2.61,2.61,0,0,0,1.33,2.28l.3.14h0a.5.5,0,0,0,.24.09h.77a2.44,2.44,0,0,0,.71-.1h.23l.16-.07.25-.13h0a2.6,2.6,0,0,0,1.27-2.25V43.93A2.63,2.63,0,0,0,29.18,41.32Zm0,1.12a1.53,1.53,0,0,1,0,3.05A1.54,1.54,0,0,1,27.65,44h0a1.53,1.53,0,0,1,1.5-1.55h0Z"/><path class="cls-4" d="M53.52,16.48v-.07h0v-.1h0a.48.48,0,0,0,0-.17.33.33,0,0,0,0-.14,2.83,2.83,0,0,0-.11-.31,1.62,1.62,0,0,0-.1-.18v-.08a.66.66,0,0,0-.12-.17l-.1-.13A.57.57,0,0,0,53,15h0a.77.77,0,0,0-.19-.17h0l-.19-.12h-.1a2.63,2.63,0,0,0-2.58,0l-4.3,2.05-5.09,2.94a2.64,2.64,0,0,0-1,3.6h0a2.65,2.65,0,0,0,1,.95,2.62,2.62,0,0,0,2.65,0l9-5.22a.85.85,0,0,0,.25-.17l.14-.1a.49.49,0,0,0,.13-.12h.07a.79.79,0,0,0,.17-.2h0l.09-.13.08-.13h0l.1-.2h0a.29.29,0,0,0,0-.13,1.34,1.34,0,0,0,.07-.18V17.6a.34.34,0,0,0,0-.2h0a.28.28,0,0,0,0-.13,1.82,1.82,0,0,0,0-.33h0C53.53,16.64,53.52,16.57,53.52,16.48Zm-10.9,6.8a1.51,1.51,0,1,1,.55-2.06,1.42,1.42,0,0,1-.39,2Z"/><path class="cls-5" d="M17.82,19.69l-5.09-2.94L8.79,14.47a2.66,2.66,0,0,0-2.7,0l-.21.15h0l-.19.24L5.57,15l-.13.14h0a2.75,2.75,0,0,0-.19.28l-.14.28h0v.14h0a.38.38,0,0,0,0,.15h0a1,1,0,0,0,0,.24.38.38,0,0,0,0,.15v.23a2.58,2.58,0,0,0,1.31,2.28l3.69,2.48,5.07,2.85A2.64,2.64,0,1,0,18,19.78l-.21-.12Zm0,3a1.53,1.53,0,0,1-2.64-1.51,1.54,1.54,0,0,1,2.69,1.5.56.56,0,0,0-.05.08Z"/><ellipse class="cls-1" cx="49.52" cy="41.05" rx="4.19" ry="4.23" transform="translate(-14.53 46.99) rotate(-44.96)"/><circle class="cls-1" cx="29.18" cy="4.22" r="4.22"/><ellipse class="cls-1" cx="7.48" cy="41.83" rx="4.19" ry="4.23" transform="translate(-27.4 17.57) rotate(-45.04)"/></svg>