<svg id="Layer_1" data-name="Layer 1" xmlns="http://www.w3.org/2000/svg" xmlns:xlink="http://www.w3.org/1999/xlink" viewBox="0 0 60 60"><defs><style>.cls-1{fill:#1d2741;}.cls-2{fill:#47a025;}.cls-3{fill:url(#linear-gradient);}.cls-4{fill:url(#linear-gradient-2);}.cls-5{fill:url(#linear-gradient-3);}</style><linearGradient id="linear-gradient" x1="30.71" y1="457.53" x2="30.71" y2="441" gradientTransform="matrix(1, 0, 0, -1, 0, 501)" gradientUnits="userSpaceOnUse"><stop offset="0" stop-color="#8cd73f"/><stop offset="0.23" stop-color="#7ac838"/><stop offset="0.7" stop-color="#4aa226"/><stop offset="0.72" stop-color="#47a025"/></linearGradient><linearGradient id="linear-gradient-2" x1="42.99" y1="474.99" x2="54.66" y2="486.24" gradientTransform="matrix(1, 0, 0, -1, 0, 501)" gradientUnits="userSpaceOnUse"><stop offset="0" stop-color="#8cd73f"/><stop offset="0.28" stop-color="#77c637"/><stop offset="0.8" stop-color="#47a025"/></linearGradient><linearGradient id="linear-gradient-3" x1="8.49" y1="485.83" x2="18.7" y2="473.66" gradientTransform="matrix(1, 0, 0, -1, 0, 501)" gradientUnits="userSpaceOnUse"><stop offset="0" stop-color="#47a025"/><stop offset="0.19" stop-color="#4aa226"/><stop offset="0.3" stop-color="#52a929"/><stop offset="0.4" stop-color="#60b42f"/><stop offset="0.48" stop-color="#74c436"/><stop offset="0.55" stop-color="#8cd73f"/></linearGradient></defs><path class="cls-1" d="M35.1,30.15a4.5,4.5,0,1,0-4.38,5.13A4.33,4.33,0,0,0,32.34,35a4.5,4.5,0,0,0,2.82-4.12A4,4,0,0,0,35.1,30.15Zm-4.38-.92a1.61,1.61,0,1,1-1.61,1.61v0a1.59,1.59,0,0,1,1.59-1.59Z"/><path class="cls-2" d="M35.1,30.15l-3-1.73a2.78,2.78,0,1,0-2.78,4.82l3,1.72L46.5,43.09a5.65,5.65,0,0,1,2.77-4.8Zm-4.38,2.28a1.61,1.61,0,1,1,1.6-1.61h0A1.61,1.61,0,0,1,30.72,32.43Z"/><path class="cls-2" d="M13.4,17.64l-2.77,1.6V39a5.71,5.71,0,0,0-5.55,0V17.64a2.81,2.81,0,0,1,0-.41V17h0a.72.72,0,0,1,.09-.27h0a1.77,1.77,0,0,1,.15-.31,1.81,1.81,0,0,1,.19-.29l.14-.18L6,15.6a2.3,2.3,0,0,1,.44-.33h0L25,4.5a5.73,5.73,0,0,0,2.77,4.81Z"/><path class="cls-2" d="M56,19l-.11.18-.1.12a5.65,5.65,0,0,1-.42.45l-.18.14L55,20a2.73,2.73,0,0,1-2.76,0h0L48,17.64,33.63,9.34a6.06,6.06,0,0,0,1.11-.85,5.77,5.77,0,0,0,1.71-4L55,15.21l.26.16.16.14.09.09.14.13a.2.2,0,0,1,.07.09l.09.11.15.22h0v.08a.9.9,0,0,1,.12.24h0c0,.1.08.19.11.3s0,.12,0,.18a1,1,0,0,1,0,.25v.38a1,1,0,0,1,0,.24.61.61,0,0,1,0,.19h0v.2h0l-.09.27A2.63,2.63,0,0,1,56,19Z"/><path class="cls-2" d="M50.88,48.78,32.14,59.61l-.25.13-.2.08a2.69,2.69,0,0,1-1,.18,2.45,2.45,0,0,1-1.07-.23.89.89,0,0,1-.31-.15L10.81,48.93a5.7,5.7,0,0,0,2.77-4.8L30.72,54l2.77-1.61L46.65,44.8a5.66,5.66,0,0,0,2.62,3.33A5.5,5.5,0,0,0,50.88,48.78Z"/><path class="cls-3" d="M30.72,43.5a2.77,2.77,0,0,0-2.78,2.77v11a2.74,2.74,0,0,0,1.4,2.4l.31.15h0a.62.62,0,0,0,.26.09h.21a.53.53,0,0,0,.25,0,1,1,0,0,0,.35,0,2.42,2.42,0,0,0,.75-.1h.24l.16-.08.27-.13h0a2.77,2.77,0,0,0,1.34-2.37v-11A2.78,2.78,0,0,0,30.72,43.5Zm0,1.17a1.61,1.61,0,1,1-1.61,1.6h0a1.6,1.6,0,0,1,1.57-1.63h0Z"/><path class="cls-4" d="M56.34,17.35v-.07h0v-.11h0a.54.54,0,0,0,0-.18.38.38,0,0,0,0-.15,2.19,2.19,0,0,0-.12-.33,1.74,1.74,0,0,0-.11-.18.14.14,0,0,0,0-.09.71.71,0,0,0-.12-.18l-.1-.13a.5.5,0,0,0-.14-.15h0a.91.91,0,0,0-.21-.18h0l-.19-.12h-.11a2.73,2.73,0,0,0-2.71,0L48,17.64l-5.36,3.09a2.77,2.77,0,0,0-1,3.79h0a2.69,2.69,0,0,0,1,1,2.78,2.78,0,0,0,2.79,0L54.94,20a1.2,1.2,0,0,0,.26-.18l.15-.11a.53.53,0,0,0,.13-.13h.08a.91.91,0,0,0,.18-.21h0l.09-.14.09-.13h0l.1-.21h0a.33.33,0,0,0,0-.14,1.54,1.54,0,0,0,.08-.19v-.08a.74.74,0,0,0,0-.21h0v-.48h0C56.35,17.52,56.34,17.44,56.34,17.35ZM44.86,24.51a1.59,1.59,0,1,1,.59-2.18A1.51,1.51,0,0,1,45,24.41Z"/><path class="cls-5" d="M18.76,20.73,13.4,17.64l-4.15-2.4a2.78,2.78,0,0,0-2.84,0l-.22.15h0l-.2.25-.13.15-.14.15h0a1.81,1.81,0,0,0-.19.29l-.15.3h0v.15h0a.38.38,0,0,0,0,.15h0a1,1,0,0,0,0,.25.49.49,0,0,0,0,.17v.24a2.73,2.73,0,0,0,1.38,2.4l3.88,2.61,5.34,3a2.78,2.78,0,1,0,3-4.68l-.21-.12Zm0,3.19A1.61,1.61,0,0,1,16,22.33a1.63,1.63,0,0,1,2.19-.6,1.6,1.6,0,0,1,.64,2.18l0,.09Z"/><ellipse class="cls-1" cx="52.12" cy="43.21" rx="4.41" ry="4.46" transform="translate(-15.29 49.47) rotate(-44.96)"/><circle class="cls-1" cx="30.72" cy="4.44" r="4.44"/><ellipse class="cls-1" cx="7.88" cy="44.03" rx="4.41" ry="4.46" transform="translate(-28.85 18.49) rotate(-45.04)"/></svg>