<svg id="Layer_1" data-name="Layer 1" xmlns="http://www.w3.org/2000/svg" xmlns:xlink="http://www.w3.org/1999/xlink" viewBox="0 0 76 76"><defs><style>.cls-1{fill:#1d2741;}.cls-2{fill:#47a025;}.cls-3{fill:url(#linear-gradient);}.cls-4{fill:url(#linear-gradient-2);}.cls-5{fill:url(#linear-gradient-3);}</style><linearGradient id="linear-gradient" x1="38.9" y1="445.94" x2="38.9" y2="425" gradientTransform="matrix(1, 0, 0, -1, 0, 501)" gradientUnits="userSpaceOnUse"><stop offset="0" stop-color="#8cd73f"/><stop offset="0.23" stop-color="#7ac838"/><stop offset="0.7" stop-color="#4aa226"/><stop offset="0.72" stop-color="#47a025"/></linearGradient><linearGradient id="linear-gradient-2" x1="54.45" y1="468.06" x2="69.23" y2="482.31" gradientTransform="matrix(1, 0, 0, -1, 0, 501)" gradientUnits="userSpaceOnUse"><stop offset="0" stop-color="#8cd73f"/><stop offset="0.28" stop-color="#77c637"/><stop offset="0.8" stop-color="#47a025"/></linearGradient><linearGradient id="linear-gradient-3" x1="10.76" y1="481.78" x2="23.68" y2="466.37" gradientTransform="matrix(1, 0, 0, -1, 0, 501)" gradientUnits="userSpaceOnUse"><stop offset="0" stop-color="#47a025"/><stop offset="0.19" stop-color="#4aa226"/><stop offset="0.3" stop-color="#52a929"/><stop offset="0.4" stop-color="#60b42f"/><stop offset="0.48" stop-color="#74c436"/><stop offset="0.55" stop-color="#8cd73f"/></linearGradient></defs><path class="cls-1" d="M44.45,38.19a5.7,5.7,0,1,0-5.54,6.5,5.54,5.54,0,0,0,2.05-.4,5.71,5.71,0,0,0,3.57-5.23A4.27,4.27,0,0,0,44.45,38.19ZM38.91,37a2,2,0,1,1-2,2v0a2,2,0,0,1,2-2Z"/><path class="cls-2" d="M44.45,38.19,40.65,36a3.52,3.52,0,0,0-3.51,6.1l3.8,2.19,18,10.3a7.18,7.18,0,0,1,3.51-6.09Zm-5.54,2.89a2,2,0,1,1,2-2h0A2,2,0,0,1,38.91,41.08Z"/><path class="cls-2" d="M17,22.34l-3.52,2v25a7.21,7.21,0,0,0-7,0V22.34a4.34,4.34,0,0,1,0-.51v-.35h0a1.16,1.16,0,0,1,.12-.34h0a2.09,2.09,0,0,1,.19-.4A3.75,3.75,0,0,1,7,20.38l.17-.23.44-.39a3.2,3.2,0,0,1,.55-.42h0L31.67,5.69a7.2,7.2,0,0,0,3.51,6.1Z"/><path class="cls-2" d="M70.9,24.11l-.13.22-.13.16a1.83,1.83,0,0,1-.32.36l-.21.21-.23.17-.27.15a3.41,3.41,0,0,1-3.49,0h0l-5.32-3L42.59,11.83A7,7,0,0,0,44,10.75a7.18,7.18,0,0,0,2.16-5.06L69.63,19.26l.32.21.21.17.12.12.17.17a.24.24,0,0,1,.09.11l.12.13.19.29h0v.09a1.77,1.77,0,0,1,.15.31h0a1.56,1.56,0,0,0,.13.38c0,.13,0,.15,0,.23a.86.86,0,0,1,0,.32v.47a.81.81,0,0,1,0,.31.49.49,0,0,1,0,.24h0v.25h0L71,23.4A2.85,2.85,0,0,1,70.9,24.11Z"/><path class="cls-2" d="M64.44,61.79,40.71,75.51l-.32.17-.25.09a3.24,3.24,0,0,1-1.23.23,3.12,3.12,0,0,1-1.35-.29,1.47,1.47,0,0,1-.4-.19L13.69,62a7.21,7.21,0,0,0,3.52-6.08l21.7,12.5,3.51-2,16.67-9.62A7.21,7.21,0,0,0,62.41,61,6.87,6.87,0,0,0,64.44,61.79Z"/><path class="cls-3" d="M38.91,55.1a3.51,3.51,0,0,0-3.52,3.51V72.52a3.48,3.48,0,0,0,1.77,3l.4.19h0a1,1,0,0,0,.32.12h.27a.86.86,0,0,0,.32,0,1.62,1.62,0,0,0,.44,0,3.08,3.08,0,0,0,1-.14h.3l.21-.09.34-.17h0a3.46,3.46,0,0,0,1.69-3V58.58A3.51,3.51,0,0,0,38.91,55.1Zm0,1.48a2,2,0,1,1-2,2h0a2,2,0,0,1,2-2.07h0Z"/><path class="cls-4" d="M71.36,22v-.1h0v-.13h0a.45.45,0,0,0,0-.23.31.31,0,0,0,0-.19,3.52,3.52,0,0,0-.15-.42,1.59,1.59,0,0,0-.13-.22v-.12a.87.87,0,0,0-.16-.23l-.13-.17a1,1,0,0,0-.17-.19h0a1.44,1.44,0,0,0-.27-.22h0l-.24-.16H70a3.51,3.51,0,0,0-3.44,0L60.8,22.34,54,26.25a3.51,3.51,0,0,0-1.27,4.81h0A3.37,3.37,0,0,0,54,32.33a3.5,3.5,0,0,0,3.54,0l12-6.95a1.5,1.5,0,0,0,.33-.23l.19-.13a1.37,1.37,0,0,0,.17-.17h.09a1.18,1.18,0,0,0,.23-.27h0l.11-.17.12-.17h0s.09-.17.13-.27h0a.48.48,0,0,0,0-.17,2.44,2.44,0,0,0,.1-.24v-.1a.62.62,0,0,0,0-.27h0a.48.48,0,0,0,0-.17v-.43h0C71.38,22.19,71.36,22.09,71.36,22ZM56.82,31a2,2,0,1,1,.75-2.75A1.89,1.89,0,0,1,57,30.92.72.72,0,0,1,56.82,31Z"/><path class="cls-5" d="M23.76,26.25,17,22.34l-5.27-3a3.5,3.5,0,0,0-3.59,0l-.28.19h0l-.25.32L7.42,20l-.17.19h0a3.9,3.9,0,0,0-.25.36l-.19.38h0v.19h0a.6.6,0,0,0,0,.19h0a1.82,1.82,0,0,0,0,.33.74.74,0,0,0,0,.21v.3a3.46,3.46,0,0,0,1.75,3l4.92,3.31,6.77,3.8A3.52,3.52,0,0,0,24,26.37l-.27-.15Zm0,4.05a1.45,1.45,0,1,1,.07,0l-.07.11Z"/><ellipse class="cls-1" cx="66.02" cy="54.74" rx="5.59" ry="5.64" transform="translate(-19.37 62.66) rotate(-44.96)"/><circle class="cls-1" cx="38.91" cy="5.63" r="5.62"/><ellipse class="cls-1" cx="9.98" cy="55.78" rx="5.59" ry="5.64" transform="translate(-36.54 23.42) rotate(-45.04)"/></svg>