<svg id="Layer_1" data-name="Layer 1" xmlns="http://www.w3.org/2000/svg" xmlns:xlink="http://www.w3.org/1999/xlink" viewBox="0 0 96 96"><defs><style>.cls-1{fill:#1d2741;}.cls-2{fill:#47a025;}.cls-3{fill:url(#linear-gradient);}.cls-4{fill:url(#linear-gradient-2);}.cls-5{fill:url(#linear-gradient-3);}</style><linearGradient id="linear-gradient" x1="49.13" y1="431.4" x2="49.13" y2="404.94" gradientTransform="matrix(1, 0, 0, -1, 0, 501)" gradientUnits="userSpaceOnUse"><stop offset="0" stop-color="#8cd73f"/><stop offset="0.23" stop-color="#7ac838"/><stop offset="0.7" stop-color="#4aa226"/><stop offset="0.72" stop-color="#47a025"/></linearGradient><linearGradient id="linear-gradient-2" x1="68.79" y1="459.36" x2="87.48" y2="477.37" gradientTransform="matrix(1, 0, 0, -1, 0, 501)" gradientUnits="userSpaceOnUse"><stop offset="0" stop-color="#8cd73f"/><stop offset="0.28" stop-color="#77c637"/><stop offset="0.8" stop-color="#47a025"/></linearGradient><linearGradient id="linear-gradient-3" x1="13.57" y1="476.71" x2="29.9" y2="457.23" gradientTransform="matrix(1, 0, 0, -1, 0, 501)" gradientUnits="userSpaceOnUse"><stop offset="0" stop-color="#47a025"/><stop offset="0.19" stop-color="#4aa226"/><stop offset="0.3" stop-color="#52a929"/><stop offset="0.4" stop-color="#60b42f"/><stop offset="0.48" stop-color="#74c436"/><stop offset="0.55" stop-color="#8cd73f"/></linearGradient></defs><path class="cls-1" d="M56.16,48.27a7.21,7.21,0,1,0-7,8.21,6.6,6.6,0,0,0,2.59-.5,7.21,7.21,0,0,0,4.51-6.61A5.06,5.06,0,0,0,56.16,48.27Zm-7-1.47a2.57,2.57,0,1,1-2.57,2.57v0a2.54,2.54,0,0,1,2.54-2.55Z"/><path class="cls-2" d="M56.16,48.27l-4.81-2.76a4.45,4.45,0,0,0-4.44,7.71L51.71,56l22.7,13a9.08,9.08,0,0,1,4.45-7.69Zm-7,3.65a2.57,2.57,0,1,1,2.56-2.57h0A2.57,2.57,0,0,1,49.15,51.92Z"/><path class="cls-2" d="M21.43,28.24,17,30.81V62.44a9.13,9.13,0,0,0-8.89,0V28.24c0-.22,0-.44,0-.65v-.43h0a1.41,1.41,0,0,1,.14-.44h0a3.82,3.82,0,0,1,.55-1L9,25.48,9.56,25a4,4,0,0,1,.7-.53h0L40,7.2a9.16,9.16,0,0,0,4.45,7.71Z"/><path class="cls-2" d="M89.59,30.47l-.17.29-.17.19a1.6,1.6,0,0,1-.4.46,3.31,3.31,0,0,1-.27.26l-.29.22-.33.19a4.37,4.37,0,0,1-4.42,0h0l-6.73-3.84L53.8,15a8.79,8.79,0,0,0,1.78-1.37A9.12,9.12,0,0,0,58.32,7.2L88,24.35l.41.26.26.22.15.14.21.22a.24.24,0,0,1,.12.14l.15.17.24.36h0V26a1.93,1.93,0,0,1,.19.38h0a1.72,1.72,0,0,0,.17.48c.05.17,0,.2,0,.29a1.41,1.41,0,0,1,0,.41v.6a1.27,1.27,0,0,1,0,.39.81.81,0,0,1,0,.31h0v.31h0l-.14.43A3.85,3.85,0,0,1,89.59,30.47Z"/><path class="cls-2" d="M81.43,78.1l-30,17.34-.41.22-.31.12a4.18,4.18,0,0,1-1.56.28,4,4,0,0,1-1.71-.36,2.1,2.1,0,0,1-.5-.24L17.27,78.34a9.11,9.11,0,0,0,4.45-7.69L49.15,86.46l4.44-2.57L74.65,71.73a9.13,9.13,0,0,0,4.21,5.34A8.71,8.71,0,0,0,81.43,78.1Z"/><path class="cls-3" d="M49.15,69.64a4.45,4.45,0,0,0-4.45,4.45V91.67a4.4,4.4,0,0,0,2.24,3.84l.5.24h0a1.44,1.44,0,0,0,.41.15h.33a1.41,1.41,0,0,0,.41,0,2.62,2.62,0,0,0,.56,0,4.46,4.46,0,0,0,1.2-.17h.38l.26-.12.44-.22h0a4.39,4.39,0,0,0,2.13-3.79V74A4.44,4.44,0,0,0,49.15,69.64Zm0,1.88a2.57,2.57,0,1,1-2.57,2.57h0a2.57,2.57,0,0,1,2.52-2.62h0Z"/><path class="cls-4" d="M90.17,27.78v-.12h0v-.17h0a.71.71,0,0,0,0-.29.49.49,0,0,0,0-.24,4.6,4.6,0,0,0-.19-.52,2.75,2.75,0,0,0-.17-.29.38.38,0,0,0,0-.15,1.07,1.07,0,0,0-.19-.28l-.17-.22a1,1,0,0,0-.22-.24h0a1.58,1.58,0,0,0-.34-.29h0l-.31-.19h-.17a4.37,4.37,0,0,0-4.34,0l-7.26,3.46-8.57,4.95a4.44,4.44,0,0,0-1.61,6.07h0a4.29,4.29,0,0,0,1.61,1.61,4.46,4.46,0,0,0,4.47,0l15.22-8.79a1.46,1.46,0,0,0,.41-.29l.24-.17a.88.88,0,0,0,.22-.21.24.24,0,0,0,.12,0,1.58,1.58,0,0,0,.29-.34h0l.14-.21.15-.22h0a3,3,0,0,0,.16-.34h0a.74.74,0,0,0,0-.21,1.75,1.75,0,0,0,.12-.32v-.12a.62.62,0,0,0,0-.33h0a.81.81,0,0,0,0-.22,5,5,0,0,0,0-.55h0C90.19,28.05,90.17,27.93,90.17,27.78ZM71.79,39.24a2.55,2.55,0,1,1,.94-3.48,2.4,2.4,0,0,1-.67,3.32Z"/><path class="cls-5" d="M30,33.19l-8.57-4.95-6.65-3.85a4.45,4.45,0,0,0-4.54,0l-.36.24h0L9.56,25l-.21.24-.22.24h0a3.37,3.37,0,0,0-.31.46l-.24.48h0v.24h0a.49.49,0,0,0,0,.24h0a2.81,2.81,0,0,0,0,.41,1.13,1.13,0,0,0,0,.26V28a4.36,4.36,0,0,0,2.21,3.84L17,36l8.55,4.8a4.44,4.44,0,1,0,4.79-7.48,2.43,2.43,0,0,0-.35-.2Zm0,5.11a2.57,2.57,0,0,1-4.44-2.54,2.59,2.59,0,0,1,4.52,2.52.64.64,0,0,1-.08.14Z"/><ellipse class="cls-1" cx="83.42" cy="69.19" rx="7.06" ry="7.13" transform="translate(-24.5 79.18) rotate(-44.96)"/><circle class="cls-1" cx="49.15" cy="7.11" r="7.11"/><ellipse class="cls-1" cx="12.58" cy="70.5" rx="7.06" ry="7.13" transform="translate(-46.2 29.59) rotate(-45.04)"/></svg>