<svg xmlns="http://www.w3.org/2000/svg" viewBox="0 0 549 549" color-interpolation-filters="sRGB" fill="none" fill-rule="evenodd" font-size="12" overflow="visible" stroke-linecap="square" stroke-miterlimit="3"><style>.st1{fill:#000;stroke:none;stroke-linecap:butt;stroke-width:4.87416}</style><g id="group5-1" transform="translate(4.876 -4.874)"><g id="shape1-2" transform="translate(89.887)"><path d="M174.04 485.97l-59.56-59.56 74.81-74.77-19.64-53.97L0 467.32l19.64 53.97 58.06-58.06 77.91 77.87a25.842 25.842-180 0036.65 0l176.59-176.59-53.71-19.64-141.1 141.1z" class="st1"/></g><g id="shape2-4" transform="translate(0 -94.02)"><path d="M242.78 345.61l-7.4-20.51-113.15 113.11-59.69-59.53 140.97-140.92-2.93-8.06-1.3-3.61-15.41-42.38L14.21 353.44l-6.63 6.85-.43.48a26.057 26.057-180 00.43 36.3l77.87 78.09-19.77 19.77 19.43 53.53.25.26L255.02 379.2l-12.24-33.59z" class="st1"/></g><g id="shape3-6" transform="translate(208.932 -209.318)"><path d="M305.06 219.07H65.68l-9.13 1.76a25.842 25.842-180 00-9.17 5.86L0 274.07l19.64 53.92 56.85-56.85h201.4v201.18l-56.81 56.76 53.96 19.64 47.38-47.37a25.583 25.583-180 005.99-9.22 26.531 26.531-180 001.63-9.13V243.62a25.842 25.842-180 00-24.68-24.55h-.3z" class="st1"/></g><g id="shape4-8" transform="translate(355.886 -355.066)"><circle cx="27.306" cy="521.416" class="st1" r="27.306"/></g></g></svg>