<?xml version="1.0" encoding="UTF-8" standalone="no"?>
<!DOCTYPE svg PUBLIC "-//W3C//DTD SVG 1.1//EN" "http://www.w3.org/Graphics/SVG/1.1/DTD/svg11.dtd">
<!-- Generated by Microsoft Visio, SVG Export onto_logo_text_black_glyph_green_background_transparent_w480_h76.svg svg26 -->
<svg xmlns="http://www.w3.org/2000/svg" xmlns:xlink="http://www.w3.org/1999/xlink" xmlns:ev="http://www.w3.org/2001/xml-events"
		xmlns:v="http://schemas.microsoft.com/visio/2003/SVGExtensions/" width="5in" height="0.791667in" viewBox="0 0 360 57"
		xml:space="preserve" color-interpolation-filters="sRGB" class="st3">
	<v:documentProperties v:langID="1033">
		<v:userDefs>
			<v:ud v:nameU="msvConvertTheme"/>
		</v:userDefs>
	</v:documentProperties>

	<style type="text/css">
	<![CDATA[
		.st1 {fill:#000000;stroke:none;stroke-width:1.22143}
		.st2 {fill:#00a05a;stroke:none;stroke-width:1.22143}
		.st3 {fill:none;fill-rule:evenodd;font-size:12px;overflow:visible;stroke-linecap:square;stroke-miterlimit:3}
	]]>
	</style>

	<g v:mID="0" v:index="1" v:groupContext="foregroundPage">
		<title>svg26</title>
		<v:pageProperties v:drawingScale="1" v:pageScale="1" v:drawingUnits="19" v:shadowOffsetX="9" v:shadowOffsetY="-9"/>
		<g id="shape1-1" v:mID="1" v:groupContext="shape" transform="translate(39.0632,-8.4486)">
			<title>path15</title>
			<path d="M217.75 17.56 C216.45 17.56 215.42 18.01 214.64 18.89 C213.87 19.74 213.48 20.81 213.48 22.1 C213.48 23.4 213.87
						 24.51 214.64 25.43 C215.42 26.31 216.43 26.76 217.69 26.76 C218.98 26.76 220.02 26.31 220.79 25.43 C221.57
						 24.51 221.95 23.4 221.95 22.1 C221.95 20.81 221.57 19.74 220.79 18.89 C220.02 18.01 219 17.56 217.75 17.56
						 ZM63.9 21.94 L63.9 45.59 C63.9 47.32 64.16 48.86 64.67 50.19 C65.19 51.52 65.91 52.64 66.83 53.57 C67.8
						 54.46 68.92 55.14 70.22 55.62 C71.54 56.1 73 56.34 74.59 56.34 C75.47 56.34 76.31 56.28 77.08 56.17 C77.86
						 56.06 78.47 55.91 78.91 55.73 L78.91 49.36 C78.39 49.54 77.86 49.69 77.31 49.8 C76.79 49.91 76.14 49.97
						 75.36 49.97 C74.11 49.97 73.13 49.56 72.43 48.75 C71.76 47.9 71.43 46.85 71.43 45.59 L71.43 35.67 L78.08
						 35.67 L78.08 29.86 L71.43 29.86 L71.43 21.94 L63.9 21.94 ZM194.48 21.94 L194.48 45.59 C194.48 47.32 194.74
						 48.86 195.26 50.19 C195.78 51.52 196.49 52.64 197.42 53.57 C198.38 54.46 199.5 55.14 200.8 55.62 C202.13
						 56.1 203.59 56.34 205.18 56.34 C206.06 56.34 206.89 56.28 207.67 56.17 C208.44 56.06 209.05 55.91 209.49
						 55.73 L209.49 49.36 C208.98 49.54 208.45 49.69 207.89 49.8 C207.37 49.91 206.72 49.97 205.95 49.97 C204.69
						 49.97 203.71 49.56 203.02 48.75 C202.35 47.9 202.02 46.85 202.02 45.59 L202.02 35.67 L208.66 35.67 L208.66
						 29.86 L202.02 29.86 L202.02 21.94 L194.48 21.94 ZM13.9 29.2 C11.91 29.2 10.06 29.55 8.36 30.25 C6.67 30.91
						 5.19 31.87 3.93 33.13 C2.71 34.35 1.76 35.8 1.05 37.51 C0.35 39.2 0 41.07 0 43.1 C0 45.13 0.35 47 1.05 48.69
						 C1.76 50.39 2.71 51.87 3.93 53.12 C5.19 54.35 6.67 55.3 8.36 56.01 C10.06 56.67 11.91 57 13.9 57 C15.9 57
						 17.74 56.67 19.44 56.01 C21.14 55.3 22.6 54.35 23.82 53.12 C25.07 51.87 26.05 50.39 26.75 48.69 C27.46 47
						 27.81 45.13 27.81 43.1 C27.81 41.07 27.46 39.2 26.75 37.51 C26.05 35.8 25.07 34.35 23.82 33.13 C22.6 31.87
						 21.14 30.91 19.44 30.25 C17.74 29.55 15.9 29.2 13.9 29.2 ZM45.58 29.2 C41.81 29.2 38.84 29.99 36.66 31.58
						 C34.48 33.13 33.39 35.56 33.39 38.89 L33.39 56.34 L40.82 56.34 L40.82 39.67 C40.82 37.96 41.19 36.77 41.92
						 36.06 C42.66 35.32 43.86 34.96 45.53 34.96 C47.19 34.96 48.39 35.32 49.12 36.06 C49.86 36.77 50.23 37.96
						 50.23 39.67 L50.23 56.34 L57.77 56.34 L57.77 38.89 C57.77 35.56 56.68 33.13 54.5 31.58 C52.32 29.99 49.35
						 29.2 45.58 29.2 ZM127.21 29.2 C123.48 29.2 120.54 29.99 118.4 31.58 C116.26 33.13 115.19 35.56 115.19 38.89
						 L115.19 56.34 L122.56 56.34 L122.56 39.67 C122.56 37.96 122.91 36.77 123.61 36.06 C124.31 35.32 125.49 34.96
						 127.15 34.96 C128.81 34.96 130 35.32 130.7 36.06 C131.44 36.77 131.81 37.96 131.81 39.67 L131.81 56.34 L138.9
						 56.34 L138.9 39.17 C138.97 37.65 139.38 36.58 140.12 35.95 C140.85 35.29 142 34.96 143.55 34.96 C145.21
						 34.96 146.39 35.32 147.1 36.06 C147.8 36.77 148.15 37.96 148.15 39.67 L148.15 56.34 L155.62 56.34 L155.62
						 38.89 C155.62 35.56 154.54 33.13 152.36 31.58 C150.22 29.99 147.3 29.2 143.6 29.2 C141.83 29.2 140.28 29.45
						 138.95 29.97 C137.62 30.49 136.48 31.13 135.52 31.91 C134.56 31.1 133.39 30.45 132.03 29.97 C130.66 29.45
						 129.05 29.2 127.21 29.2 ZM173.89 29.2 C172.01 29.2 170.29 29.51 168.74 30.14 C167.23 30.73 165.91 31.6 164.81
						 32.74 C163.7 33.85 162.83 35.21 162.2 36.84 C161.61 38.43 161.31 40.22 161.31 42.21 C161.31 44.32 161.61
						 46.27 162.2 48.08 C162.83 49.89 163.72 51.46 164.86 52.79 C166.04 54.09 167.48 55.12 169.18 55.89 C170.88
						 56.64 172.8 57 174.94 57 C176.97 57 178.8 56.73 180.42 56.17 C182.09 55.58 183.49 54.71 184.63 53.57 C185.82
						 52.42 186.72 50.98 187.35 49.25 C187.98 47.51 188.29 45.48 188.29 43.15 L188.29 29.86 L181.65 29.86 L181.65
						 32.47 C180.87 31.58 179.85 30.82 178.6 30.19 C177.34 29.53 175.77 29.2 173.89 29.2 L173.89 29.2 ZM244.47
						 29.2 C242.03 29.2 239.78 29.49 237.71 30.08 C235.68 30.67 233.93 31.58 232.45 32.79 C230.97 34.01 229.81
						 35.54 228.96 37.39 C228.15 39.2 227.74 41.34 227.74 43.82 C227.74 46.18 228.15 48.21 228.96 49.91 C229.77
						 51.57 230.92 52.94 232.4 54.01 C233.91 55.04 235.68 55.8 237.71 56.28 C239.78 56.76 242.07 57 244.58 57
						 C245.65 57 246.67 56.95 247.63 56.84 C248.62 56.76 249.51 56.67 250.28 56.56 L250.28 50.63 C249.66 50.78
						 248.94 50.89 248.13 50.96 C247.31 51.04 246.37 51.08 245.3 51.08 C242.02 51.08 239.52 50.5 237.82 49.36
						 C236.12 48.18 235.27 46.26 235.27 43.6 C235.27 40.6 236.11 38.44 237.77 37.12 C239.47 35.79 241.94 35.12
						 245.19 35.12 C246.3 35.12 247.22 35.16 247.96 35.23 C248.74 35.3 249.46 35.41 250.12 35.56 L250.12 29.64
						 C249.35 29.53 248.48 29.44 247.51 29.36 C246.56 29.25 245.54 29.2 244.47 29.2 L244.47 29.2 ZM267.47 29.2
						 C265.59 29.2 263.87 29.51 262.32 30.14 C260.81 30.73 259.49 31.6 258.39 32.74 C257.28 33.85 256.41 35.21
						 255.78 36.84 C255.19 38.43 254.9 40.22 254.9 42.21 C254.9 44.32 255.19 46.27 255.78 48.08 C256.41 49.89
						 257.3 51.46 258.44 52.79 C259.62 54.09 261.07 55.12 262.76 55.89 C264.46 56.64 266.38 57 268.53 57 C270.56
						 57 272.38 56.73 274.01 56.17 C275.67 55.58 277.07 54.71 278.22 53.57 C279.4 52.42 280.31 50.98 280.93 49.25
						 C281.56 47.51 281.87 45.48 281.87 43.15 L281.87 29.86 L275.23 29.86 L275.23 32.47 C274.45 31.58 273.44 30.82
						 272.18 30.19 C270.93 29.53 269.35 29.2 267.47 29.2 ZM213.87 29.86 L213.87 56.34 L221.4 56.34 L221.4 29.86
						 L213.87 29.86 ZM13.91 35.12 C15.86 35.12 17.41 35.79 18.56 37.12 C19.7 38.44 20.28 40.44 20.28 43.1 C20.28
						 45.76 19.7 47.75 18.56 49.08 C17.41 50.41 15.86 51.08 13.91 51.08 C11.95 51.08 10.4 50.41 9.25 49.08 C8.11
						 47.75 7.53 45.76 7.53 43.1 C7.53 40.44 8.11 38.44 9.25 37.12 C10.4 35.79 11.95 35.12 13.91 35.12 ZM175 35.12
						 C176.88 35.12 178.38 35.79 179.48 37.12 C180.59 38.44 181.15 40.44 181.15 43.1 C181.15 45.76 180.59 47.75
						 179.48 49.08 C178.38 50.41 176.88 51.08 175 51.08 C173.11 51.08 171.62 50.41 170.51 49.08 C169.4 47.75 168.85
						 45.76 168.85 43.1 C168.85 40.44 169.4 38.44 170.51 37.12 C171.62 35.79 173.11 35.12 175 35.12 ZM268.58 35.12
						 C270.46 35.12 271.96 35.79 273.07 37.12 C274.17 38.44 274.73 40.44 274.73 43.1 C274.73 45.76 274.17 47.75
						 273.07 49.08 C271.96 50.41 270.46 51.08 268.58 51.08 C266.69 51.08 265.2 50.41 264.09 49.08 C262.98 47.75
						 262.43 45.76 262.43 43.1 C262.43 40.44 262.98 38.44 264.09 37.12 C265.2 35.79 266.69 35.12 268.58 35.12
						 Z" class="st1"/>
		</g>
		<g id="shape2-3" v:mID="2" v:groupContext="shape" transform="translate(120.739,-9.11273)">
			<title>path20</title>
			<path d="M14.13 17.56 C12.1 17.56 10.21 17.93 8.47 18.67 C6.74 19.37 5.24 20.37 3.99 21.66 C2.73 22.92 1.76 24.41 1.05
						 26.15 C0.35 27.89 0 29.79 0 31.85 C0 33.92 0.35 35.82 1.05 37.56 C1.76 39.3 2.73 40.81 3.99 42.1 C5.24 43.36
						 6.74 44.36 8.47 45.09 C10.21 45.79 12.1 46.15 14.13 46.15 C16.16 46.15 18.04 45.79 19.77 45.09 C21.51 44.36
						 23.01 43.36 24.26 42.1 C25.52 40.81 26.5 39.3 27.2 37.56 C27.9 35.82 28.25 33.92 28.25 31.85 C28.25 29.79
						 27.9 27.89 27.2 26.15 C26.5 24.41 25.52 22.92 24.26 21.66 C23.01 20.37 21.51 19.37 19.77 18.67 C18.04 17.93
						 16.16 17.56 14.13 17.56 ZM14.13 23.88 C15.08 23.88 15.95 24.08 16.73 24.49 C17.5 24.89 18.15 25.45 18.67
						 26.15 C19.22 26.85 19.64 27.7 19.94 28.7 C20.24 29.66 20.38 30.71 20.38 31.85 C20.38 33 20.24 34.07 19.94
						 35.07 C19.64 36.03 19.22 36.86 18.67 37.56 C18.15 38.26 17.5 38.81 16.73 39.22 C15.95 39.63 15.08 39.83
						 14.13 39.83 C13.16 39.83 12.29 39.63 11.52 39.22 C10.75 38.81 10.08 38.26 9.53 37.56 C9.01 36.86 8.6 36.03
						 8.31 35.07 C8.01 34.07 7.86 33 7.86 31.85 C7.86 30.71 8.01 29.66 8.31 28.7 C8.6 27.7 9.01 26.85 9.53 26.15
						 C10.08 25.45 10.75 24.89 11.52 24.49 C12.29 24.08 13.16 23.88 14.13 23.88 ZM1.83 50.41 L1.83 57 L26.42 57
						 L26.42 50.41 L1.83 50.41 Z" class="st2"/>
		</g>
	</g>
</svg>
