<svg xmlns="http://www.w3.org/2000/svg" viewBox="0 0 649 235" color-interpolation-filters="sRGB" fill="none" fill-rule="evenodd" font-size="12" overflow="visible" stroke-linecap="square" stroke-miterlimit="3"><style>.st2{fill:#fff;stroke:none;stroke-linecap:butt;stroke-width:1.18019}</style><g id="group21-1" transform="translate(.36 -.36)"><g id="shape1-2"><path fill="#000" stroke="#000" stroke-linecap="round" stroke-linejoin="round" stroke-width=".72" d="M0 .72h648v234H0z"/></g><g id="shape2-4" transform="translate(201.231 -127.545)"><path d="M13.08 222.2h27.99v12.52H0v-66.43h40.6v12.53H13.08v14.16h25.15v12.31H13.08v14.91z" class="st2"/></g><g id="shape3-6" transform="translate(250.94 -127.545)"><path class="st2" d="M0 168.287h12.25v66.433H0z"/></g><g id="shape4-8" transform="translate(271.959 -126.212)"><path d="M12.77 214.67c1.64 5.95 6.1 8.92 13.38 8.92 4.72 0 8.26-1.57 10.62-4.72l9.88 5.69c-4.72 6.77-11.61 10.16-20.69 10.16-7.86 0-14.16-2.36-18.88-7.08A24.324 24.324 0 010 209.7a24.572 24.572 0 017.08-17.89c4.72-4.79 10.73-7.17 18.03-7.17a22.648 22.648 0 0117.24 7.22 25.09 25.09 0 016.78 17.84 29.505 29.505 0 01-.47 5.03l-35.89-.06zm-.19-9.44h24.19a11.472 11.472-180 00-4.3-7.21 12.404 12.404-180 00-7.46-2.36 12.852 12.852-180 00-8.16 2.49 11.99 11.99-180 00-4.27 7.08z" class="st2"/></g><g id="shape5-10" transform="translate(326.673 -126.2)"><path d="M25.06 234.72A24.56 24.56 0 010 209.66a24.56 24.56 0 0125.06-25.05 24.701 24.701 0 0112.62 3.32 22.258 22.258 0 018.64 8.92l-10.54 6.17a10.728 10.728-180 00-4.26-4.66 12.51 12.51-180 00-6.5-1.71 12.25 12.25-180 00-9.11 3.66 12.71 12.71-180 00-3.6 9.34 12.604 12.604-180 003.6 9.26 12.286 12.286-180 009.11 3.64 12.982 12.982-180 006.6-1.65 10.421 10.421-180 004.32-4.6l10.62 6.06a23.757 23.757 0 01-8.83 8.97 24.3 24.3 0 01-12.67 3.39z" class="st2"/></g><g id="shape6-12" transform="translate(375.521 -126.058)"><path d="M31.25 197.56H20.54v19.73a4.72 4.72-180 001.18 3.61 5.7 5.7-180 003.61 1.27 52.33 52.33-180 005.9 0v11.11c-8.42.96-14.35.17-17.79-2.36-3.44-2.53-5.16-7.06-5.18-13.57v-19.79H0v-11.81h8.26v-9.56l12.28-3.69v13.28h10.71v11.78z" class="st2"/></g><g id="shape7-14" transform="translate(416.167 -127.545)"><path d="M12.25 195.43a12.805 12.805 0 015.64-6.83 17.207 17.207 0 018.78-2.28v13.67a14.445 14.445-180 00-10.01 2.27c-2.95 1.96-4.42 5.22-4.41 9.78v22.68H0v-47.46h12.25v8.17z" class="st2"/></g><g id="shape8-16" transform="translate(445.684 -127.951)"><path d="M42.9 229.2A25.08 25.08 0 010 211.4a25.103 25.103 0 1150.21 0 24.111 24.111 0 01-7.31 17.8zm-27-8.4a12.333 12.333-180 009.16 3.7 12.498 12.498-180 009.2-3.7 12.723 12.723-180 003.71-9.44 12.723 12.723-180 00-3.71-9.45 12.498 12.498-180 00-9.2-3.7 12.333 12.333-180 00-9.16 3.7 12.817 12.817-180 00-3.65 9.45 12.817 12.817-180 003.65 9.44z" class="st2"/></g><g id="shape9-18" transform="translate(504.54 -127.545)"><path d="M26.37 185.94a17.172 17.172 0 0112.86 5.28c3.39 3.48 5.08 8.29 5.07 14.43v29.07H32.07V207.1a9.701 9.701-180 00-2.57-7.25 9.347 9.347-180 00-6.83-2.52 10.067 10.067-180 00-7.59 2.94c-1.9 1.96-2.85 4.91-2.85 8.83v25.62H0v-47.46h12.24v5.33c2.96-4.42 7.67-6.64 14.13-6.65z" class="st2"/></g><g id="shape10-20" transform="translate(557.861 -127.545)"><path d="M7.51 183.38a7.211 7.211 0 01-5.28-2.23A7.211 7.211 0 010 175.88a7.364 7.364 0 012.23-5.32 7.164 7.164 0 015.28-2.27 7.27 7.27 0 015.35 2.27 7.364 7.364 0 012.27 5.32 7.211 7.211 0 01-2.23 5.27 7.317 7.317 0 01-5.39 2.23zm-6.08 51.34v-45.65h12.24v45.65H1.43z" class="st2"/></g><g id="shape11-22" transform="translate(580.261 -126.2)"><path d="M25.06 234.72A24.56 24.56 0 010 209.66a24.56 24.56 0 0125.06-25.05 24.63 24.63 0 0112.61 3.32 22.105 22.105 0 018.64 8.92l-10.53 6.17a10.799 10.799-180 00-4.32-4.65 12.51 12.51-180 00-6.5-1.71 12.25 12.25-180 00-9.11 3.66 12.723 12.723-180 00-3.61 9.34 12.616 12.616-180 003.61 9.26 12.286 12.286-180 009.11 3.64 12.982 12.982-180 006.6-1.65 10.622 10.622-180 004.32-4.6l10.62 6.07a23.675 23.675 0 01-8.83 8.96 24.218 24.218 0 01-12.61 3.38z" class="st2"/></g><g id="shape12-24" transform="translate(201.231 -47.587)"><path d="M13.08 222.2h25.34v12.52H0v-66.39h13.1l-.02 53.87z" class="st2"/></g><g id="shape13-26" transform="translate(241.168 -46.207)"><path d="M38.53 185.93h12.24v47.46H38.53v-5.6c-3.67 4.61-8.83 6.92-15.47 6.93a21.503 21.503 0 01-16.27-7.26A25.055 25.055 0 010 209.66a25.055 25.055 0 016.79-17.79 21.503 21.503 0 0116.27-7.26c6.64 0 11.8 2.31 15.47 6.93v-5.61zm-22.59 33.36a12.628 12.628-180 009.45 3.76 12.793 12.793-180 009.44-3.76 14.233 14.233-180 000-19.26 12.793 12.793-180 00-9.44-3.75 12.628 12.628-180 00-9.45 3.75 14.363 14.363-180 000 19.26z" class="st2"/></g><g id="shape14-28" transform="translate(303.046 -46.207)"><path d="M27.62 184.61a21.61 21.61 0 0116.37 7.26 25.114 25.114 0 016.78 17.79 25.114 25.114 0 01-6.78 17.8 21.61 21.61 0 01-16.37 7.26c-6.64 0-11.76-2.31-15.35-6.93v5.6H0v-66.44h12.24v24.59c3.61-4.61 8.74-6.92 15.38-6.93zm-11.68 34.68a12.628 12.628-180 009.45 3.76 12.793 12.793-180 009.44-3.76 14.233 14.233-180 000-19.26 12.793 12.793-180 00-9.44-3.75 12.628 12.628-180 00-9.45 3.75 14.363 14.363-180 000 19.26z" class="st2"/></g><g id="shape15-30" transform="translate(360.013 -46.183)"><path d="M12.78 214.67c1.65 5.95 6.11 8.92 13.38 8.92 4.73 0 8.27-1.57 10.63-4.72l9.86 5.69c-4.72 6.77-11.61 10.16-20.69 10.16-7.86 0-14.16-2.36-18.88-7.08A24.324 24.324 0 010 209.7a24.524 24.524 0 017.08-17.89c4.72-4.79 10.73-7.17 18.03-7.17a22.636 22.636 0 0117.22 7.22 25.032 25.032 0 016.79 17.84 28.395 28.395 0 01-.47 5.03l-35.87-.06zm-.19-9.44H36.8a11.483 11.483-180 00-4.32-7.21 12.368 12.368-180 00-7.45-2.36 12.888 12.888-180 00-8.17 2.51 12.05 12.05-180 00-4.27 7.01v.05z" class="st2"/></g><g id="shape16-32" transform="translate(416.167 -47.54)"><path class="st2" d="M0 168.287h12.25v66.433H0z"/></g><g id="shape17-34" transform="translate(39.45 -46.573)"><path d="M47.69 217.52l-16.32-16.31 20.5-20.48-5.38-14.8L0 212.43l5.38 14.77 15.96-15.89 21.3 21.32a7.081 7.081-180 0010.04 0l48.39-48.39-14.72-5.37-38.66 38.65z" class="st2"/></g><g id="shape18-36" transform="translate(14.76 -72.324)"><path d="M66.59 179.05l-2.03-5.61-31.01 31.01-16.34-16.34 38.61-38.61-.8-2.21-.35-.99-4.22-11.6-46.5 46.5-1.87 1.87-.12.13a7.14 7.14-180 00.12 9.95l21.39 21.4-5.41 5.42 5.34 14.68.07.07 46.47-46.46-3.35-9.21z" class="st2"/></g><g id="shape19-38" transform="translate(72.07 -103.918)"><path d="M83.59 144.38H18l-2.5.48a7.081 7.081-180 00-2.52 1.61L0 159.45l5.38 14.79 15.58-15.6h55.19v55.13l-15.57 15.57 14.79 5.38 12.98-12.98a7.235 7.235-180 001.64-2.54 7.813 7.813-180 00.45-2.5v-65.63a7.081 7.081-180 00-6.78-6.73l-.07.04z" class="st2"/></g><g id="shape20-40" transform="translate(112.339 -143.867)"><circle cx="7.482" cy="227.238" class="st2" r="7.482"/></g></g></svg>