<svg fill="none" fill-rule="evenodd" stroke="black" stroke-width="0.501" stroke-linejoin="bevel" stroke-miterlimit="10" xmlns="http://www.w3.org/2000/svg" version="1.1" overflow="visible" viewBox="0 -305.637 223.456 305.637">
<g id="Layer 1" transform="scale(1 -1)">
<rect x="0.043" y="45.131" width="223.37" height="223.369" stroke="none" fill="#ffffff" stroke-linejoin="miter"/>
<g id="Group" stroke-linejoin="miter" stroke-linecap="round" stroke="none" stroke-width="0.25">
<path d="M 111.728,57.58 C 135.658,57.58 157.838,65.115 176.023,77.94 C 171.279,109.355 167.997,123.432 158.177,131.643 C 152.738,136.268 145.332,138.577 134.373,141.767 C 131.521,142.596 126.711,143.982 124.277,144.51 L 124.278,157.903 C 132.054,162.221 138.002,170.432 140.407,180.443 C 145.044,180.721 147.083,182.158 149.096,185.514 C 150.676,188.148 151.954,192.542 150.754,195.8 C 149.682,198.711 147.022,201.832 143.663,201.832 C 142.799,201.832 141.959,201.638 141.183,201.288 C 138.882,218.286 126.521,231.276 111.728,231.276 C 96.935,231.276 84.574,218.286 82.273,201.288 C 81.497,201.638 80.657,201.832 79.793,201.832 C 76.434,201.832 73.774,198.711 72.702,195.8 C 71.502,192.542 72.78,188.148 74.36,185.514 C 76.373,182.158 78.412,180.721 83.049,180.443 C 85.454,170.432 91.402,162.221 99.178,157.903 L 99.179,144.51 C 96.745,143.982 91.935,142.596 89.083,141.767 C 78.124,138.577 70.718,136.268 65.279,131.643 C 55.459,123.432 52.177,109.355 47.433,77.94 C 65.618,65.115 87.798,57.58 111.728,57.58 Z" fill="#f1c9a5" marker-start="none" marker-end="none"/>
<path d="M 111.728,57.58 C 135.658,57.58 157.838,65.115 176.023,77.94 C 171.279,109.355 167.997,123.432 158.177,131.643 C 152.738,136.268 145.332,138.577 134.373,141.767 C 131.521,142.596 126.711,143.982 124.277,144.51 L 124.278,157.903 C 132.054,162.221 138.002,170.432 140.407,180.443 C 145.044,180.721 147.083,182.158 149.096,185.514 C 150.676,188.148 151.954,192.542 150.754,195.8 C 149.682,198.711 147.022,201.832 143.663,201.832 C 142.799,201.832 141.959,201.638 141.183,201.288 C 138.882,218.286 126.521,231.276 111.728,231.276 L 111.728,57.58 Z" fill="#e4b992" marker-start="none" marker-end="none"/>
</g>
<path d="M 47.433,77.94 C 52.177,109.355 55.459,123.432 65.279,131.643 C 70.718,136.268 78.124,138.577 89.083,141.767 C 93.538,134.261 102.013,129.188 111.728,129.188 C 121.442,129.188 129.917,134.261 134.372,141.767 C 145.331,138.577 152.737,136.268 158.177,131.643 C 167.996,123.432 171.276,109.354 176.022,77.94 C 157.837,65.115 135.657,57.58 111.728,57.58 C 87.798,57.58 65.618,65.115 47.433,77.94 Z" fill="#f70092" stroke-linejoin="miter" stroke-linecap="round" stroke="none" stroke-width="0.5" marker-start="none" marker-end="none"/>
<g id="Group_1" stroke-linejoin="round" stroke="none" stroke-width="0.652">
<ellipse rx="4.961" ry="4.961" transform="translate(78.068 181.294) rotate(-90)" fill="#f70092"/>
<ellipse rx="2.126" ry="2.126" transform="translate(78.068 181.294) rotate(-90)" fill="#f1c9a5"/>
<path d="M 104.577,213.003 C 103.043,208.978 103.235,202.239 107.771,194.104 C 97.276,203.017 97.167,216.112 103.13,228.612 C 84.53,219.312 86.171,197.254 91.871,180.304 C 88.505,183.224 85.471,189.239 84.125,193.048 C 83.85,195.619 83.261,198.349 82.273,201.288 C 81.497,201.638 80.657,201.832 79.793,201.832 C 78.143,201.832 76.663,201.079 75.456,199.969 C 73.588,206.462 74.738,212.787 76.271,218.854 C 73.303,216.927 71.051,213.14 69.089,208.6 C 70.238,219.278 70.846,223.391 78.143,231.534 C 72.023,229.441 69.527,227.137 67.92,225.566 C 74.274,240.254 83.858,247.878 98.937,249.363 C 93.938,250.318 88.686,250.256 83.136,249.004 C 87.897,252.531 95.689,253.667 101.428,252.961 C 100.36,255.23 99.151,257.261 95.789,258.487 C 99.937,258.557 102.235,256.662 104.114,254.324 C 105.939,257.311 107.414,258.18 109.589,259.013 C 107.863,256.925 107.364,255.554 106.787,254.142 C 110.577,256.323 114.177,255.814 117.754,255.018 C 114.654,254.85 112.351,253.759 110.394,252.637 C 140.369,255.317 154.83,232.902 155.134,215.589 C 155.201,209.534 153.701,205.878 154.834,200.814 C 153.709,201.244 152.584,202.762 151.459,205.089 C 151.141,200.029 151.999,198.494 152.675,196.416 C 150.351,197.224 148.004,199.554 145.72,202.654 C 145.929,197.331 147.421,193.035 149.62,189.304 L 144.276,190.037 C 146.384,187.226 149.552,184.333 153.088,181.412 C 146.838,181.381 140.588,184.6 134.338,189.1 C 138.852,181.517 145.675,175.912 157.177,174.318 C 139.963,172.037 112.999,184.556 104.577,213.003 Z" fill="#191919" marker-start="none" marker-end="none"/>
<path d="M 111.728,225.287 C 113.164,214.068 118.492,206.463 126.838,201.662 C 124.705,204.185 123.354,206.475 122.713,208.412 C 128.229,204.293 133.747,200.029 139.263,199.034 C 130.209,203.718 121.782,213.094 117.888,221.066 C 117.522,218.971 117.579,217.163 117.896,215.403 C 115.46,216.797 113.514,220.645 111.728,225.287 Z" fill="#f70092" marker-start="none" marker-end="none"/>
</g>
<g id="Group_2" fill="#00ffff" stroke-linejoin="miter" stroke-linecap="round" stroke="none" stroke-width="0.456">
<path d="M 136.044,137.736 C 134.724,136.737 132.841,136.996 131.841,138.315 C 130.842,139.635 131.101,141.518 132.42,142.518 C 133.74,143.517 135.623,143.258 136.623,141.939 C 137.622,140.619 137.363,138.736 136.044,137.736 Z" marker-start="none" marker-end="none"/>
<path d="M 133.087,131.751 C 131.654,130.924 129.817,131.415 128.989,132.849 C 128.162,134.282 128.653,136.119 130.087,136.947 C 131.52,137.774 133.357,137.283 134.185,135.849 C 135.012,134.416 134.521,132.579 133.087,131.751 Z" marker-start="none" marker-end="none"/>
<path d="M 129.111,126.235 C 127.556,125.668 125.832,126.47 125.265,128.025 C 124.698,129.58 125.5,131.304 127.055,131.871 C 128.61,132.438 130.334,131.636 130.901,130.081 C 131.468,128.526 130.666,126.802 129.111,126.235 Z" marker-start="none" marker-end="none"/>
<path d="M 123.912,121.6 C 122.267,121.418 120.782,122.605 120.599,124.251 C 120.417,125.896 121.604,127.381 123.25,127.564 C 124.895,127.746 126.38,126.559 126.563,124.913 C 126.745,123.268 125.558,121.783 123.912,121.6 Z" marker-start="none" marker-end="none"/>
<path d="M 117.432,118.529 C 115.815,118.88 114.786,120.479 115.136,122.097 C 115.487,123.714 117.086,124.743 118.704,124.393 C 120.321,124.042 121.35,122.443 121,120.825 C 120.649,119.208 119.05,118.179 117.432,118.529 Z" marker-start="none" marker-end="none"/>
<path d="M 110.327,117.719 C 108.901,118.559 108.424,120.4 109.264,121.826 C 110.104,123.252 111.945,123.729 113.371,122.889 C 114.797,122.049 115.274,120.208 114.434,118.782 C 113.594,117.356 111.753,116.879 110.327,117.719 Z" marker-start="none" marker-end="none"/>
<path d="M 103.287,119.489 C 102.245,120.774 102.441,122.665 103.727,123.709 C 105.012,124.751 106.903,124.555 107.947,123.269 C 108.989,121.984 108.793,120.093 107.507,119.049 C 106.222,118.007 104.331,118.203 103.287,119.489 Z" marker-start="none" marker-end="none"/>
<path d="M 97.275,123.335 C 96.67,124.875 97.429,126.618 98.97,127.224 C 100.51,127.829 102.253,127.07 102.859,125.529 C 103.464,123.989 102.705,122.246 101.164,121.64 C 99.624,121.035 97.881,121.794 97.275,123.335 Z" marker-start="none" marker-end="none"/>
<path d="M 92.553,128.451 C 92.327,130.091 93.475,131.606 95.115,131.833 C 96.755,132.059 98.27,130.911 98.497,129.271 C 98.723,127.631 97.575,126.116 95.935,125.889 C 94.295,125.663 92.78,126.811 92.553,128.451 Z" marker-start="none" marker-end="none"/>
<path d="M 88.987,134.258 C 89.056,135.911 90.455,137.199 92.109,137.13 C 93.762,137.061 95.05,135.662 94.981,134.008 C 94.912,132.355 93.513,131.067 91.859,131.136 C 90.206,131.205 88.918,132.604 88.987,134.258 Z" marker-start="none" marker-end="none"/>
<path d="M 86.362,140.442 C 86.663,142.069 88.229,143.148 89.857,142.847 C 91.484,142.546 92.563,140.98 92.262,139.352 C 91.961,137.725 90.395,136.646 88.767,136.947 C 87.14,137.248 86.061,138.814 86.362,140.442 Z" marker-start="none" marker-end="none"/>
</g>
</g>
</svg>
