<svg fill="none" fill-rule="evenodd" stroke="black" stroke-width="0.501" stroke-linejoin="bevel" stroke-miterlimit="10" xmlns="http://www.w3.org/2000/svg" version="1.1" overflow="visible" viewBox="0 -305.637 223.456 305.637">
<g id="Layer 1" transform="scale(1 -1)">
<rect x="0.043" y="45.131" width="223.37" height="223.369" stroke="none" fill="#ffffff" stroke-linejoin="miter"/>
<g id="Group" stroke-linejoin="miter" stroke-linecap="round" stroke="none" stroke-width="0.25">
<path d="M 111.728,57.58 C 135.658,57.58 157.838,65.115 176.023,77.94 C 171.279,109.355 167.997,123.432 158.177,131.643 C 152.738,136.268 145.332,138.577 134.373,141.767 C 131.521,142.596 126.711,143.982 124.277,144.51 L 124.278,157.903 C 132.054,162.221 138.002,170.432 140.407,180.443 C 145.044,180.721 147.083,182.158 149.096,185.514 C 150.676,188.148 151.954,192.542 150.754,195.8 C 149.682,198.711 147.022,201.832 143.663,201.832 C 142.799,201.832 141.959,201.638 141.183,201.288 C 138.882,218.286 126.521,231.276 111.728,231.276 C 96.935,231.276 84.574,218.286 82.273,201.288 C 81.497,201.638 80.657,201.832 79.793,201.832 C 76.434,201.832 73.774,198.711 72.702,195.8 C 71.502,192.542 72.78,188.148 74.36,185.514 C 76.373,182.158 78.412,180.721 83.049,180.443 C 85.454,170.432 91.402,162.221 99.178,157.903 L 99.179,144.51 C 96.745,143.982 91.935,142.596 89.083,141.767 C 78.124,138.577 70.718,136.268 65.279,131.643 C 55.459,123.432 52.177,109.355 47.433,77.94 C 65.618,65.115 87.798,57.58 111.728,57.58 Z" fill="#f1c9a5" marker-start="none" marker-end="none"/>
<path d="M 111.728,57.58 C 135.658,57.58 157.838,65.115 176.023,77.94 C 171.279,109.355 167.997,123.432 158.177,131.643 C 152.738,136.268 145.332,138.577 134.373,141.767 C 131.521,142.596 126.711,143.982 124.277,144.51 L 124.278,157.903 C 132.054,162.221 138.002,170.432 140.407,180.443 C 145.044,180.721 147.083,182.158 149.096,185.514 C 150.676,188.148 151.954,192.542 150.754,195.8 C 149.682,198.711 147.022,201.832 143.663,201.832 C 142.799,201.832 141.959,201.638 141.183,201.288 C 138.882,218.286 126.521,231.276 111.728,231.276 L 111.728,57.58 Z" fill="#e4b992" marker-start="none" marker-end="none"/>
</g>
<g id="Group_1" stroke-linejoin="miter" stroke-linecap="round" stroke="none" stroke-width="0.5" fill="#10303f">
<path d="M 111.728,174.663 C 104.886,170.671 99.907,169.899 96.537,171.903 L 96.177,170.583 C 101.36,168.505 106.545,169.23 111.728,170.223 C 116.911,169.23 122.096,168.505 127.279,170.583 L 126.919,171.903 C 123.549,169.899 118.57,170.671 111.728,174.663 Z" marker-start="none" marker-end="none"/>
<path d="M 79.793,201.832 C 79.11,201.832 78.457,201.703 77.84,201.473 L 77.536,209.034 C 77.536,228.019 92.855,243.429 111.726,243.429 L 111.728,243.43 L 111.729,243.429 C 130.6,243.429 145.92,228.019 145.92,209.034 L 145.616,201.473 C 144.999,201.703 144.346,201.832 143.663,201.832 C 142.799,201.832 141.959,201.638 141.183,201.288 C 139.346,213.189 130.25,223.584 124.646,224.739 C 118.903,225.922 116.952,222.421 111.728,222.421 C 106.504,222.421 104.553,225.922 98.81,224.739 C 93.206,223.584 84.11,213.189 82.273,201.288 C 81.497,201.638 80.657,201.832 79.793,201.832 Z" marker-start="none" marker-end="none"/>
</g>
<g id="Group_2" stroke-linejoin="miter" stroke-linecap="round" stroke="none" stroke-width="0.5">
<path d="M 72.535,64.655 C 63.631,67.995 55.266,72.437 47.607,77.818 C 54.129,119.507 58.896,129.854 72.535,136.141 C 78.399,138.844 85.974,140.826 96.123,143.82 C 97.499,136.455 103.966,130.875 111.728,130.875 C 119.489,130.875 125.956,136.455 127.332,143.82 C 137.48,140.826 145.055,138.844 150.919,136.142 C 164.558,129.855 169.325,119.509 175.848,77.818 C 168.188,72.437 159.823,67.995 150.919,64.655 C 138.723,60.081 125.516,57.58 111.728,57.58 C 97.939,57.58 84.732,60.081 72.535,64.655 Z" fill="#cccccc" marker-start="none" marker-end="none"/>
<path d="M 97.079,144.386 C 99.537,135.275 102.942,136.277 111.728,130.601 C 106.31,125.328 103.606,119.86 100.055,118.37 C 94.76,123.003 87.547,134.115 88.31,141.694 L 97.079,144.386 Z" fill="#999999" marker-start="none" marker-end="none"/>
<path d="M 126.377,144.386 C 123.919,135.275 120.514,136.277 111.728,130.601 C 117.146,125.328 119.85,119.86 123.401,118.37 C 128.696,123.003 135.909,134.115 135.146,141.694 L 126.377,144.386 Z" fill="#999999" marker-start="none" marker-end="none"/>
<path d="M 127.296,105.945 L 127.296,85.208 L 138.656,79.624 L 150.545,85.208 L 150.545,105.945 L 127.296,105.945 Z" fill="#999999" marker-start="none" marker-end="none"/>
</g>
</g>
</svg>
