<svg fill="none" fill-rule="evenodd" stroke="black" stroke-width="0.501" stroke-linejoin="bevel" stroke-miterlimit="10" xmlns="http://www.w3.org/2000/svg" version="1.1" overflow="visible" viewBox="0 -305.637 223.456 305.637">
<g id="Layer 1" transform="scale(1 -1)">
<rect x="0.043" y="45.131" width="223.37" height="223.369" stroke="none" fill="#ffffff" stroke-linejoin="miter"/>
<g id="Group" stroke-linejoin="miter" stroke-linecap="round" stroke="none" stroke-width="0.25">
<path d="M 111.728,57.58 C 135.658,57.58 157.838,65.115 176.023,77.94 C 171.279,109.355 167.997,123.432 158.177,131.643 C 152.738,136.268 145.332,138.577 134.373,141.767 C 131.521,142.596 126.711,143.982 124.277,144.51 L 124.278,157.903 C 132.054,162.221 138.002,170.432 140.407,180.443 C 145.044,180.721 147.083,182.158 149.096,185.514 C 150.676,188.148 151.954,192.542 150.754,195.8 C 149.682,198.711 147.022,201.832 143.663,201.832 C 142.799,201.832 141.959,201.638 141.183,201.288 C 138.882,218.286 126.521,231.276 111.728,231.276 C 96.935,231.276 84.574,218.286 82.273,201.288 C 81.497,201.638 80.657,201.832 79.793,201.832 C 76.434,201.832 73.774,198.711 72.702,195.8 C 71.502,192.542 72.78,188.148 74.36,185.514 C 76.373,182.158 78.412,180.721 83.049,180.443 C 85.454,170.432 91.402,162.221 99.178,157.903 L 99.179,144.51 C 96.745,143.982 91.935,142.596 89.083,141.767 C 78.124,138.577 70.718,136.268 65.279,131.643 C 55.459,123.432 52.177,109.355 47.433,77.94 C 65.618,65.115 87.798,57.58 111.728,57.58 Z" fill="#f1c9a5" marker-start="none" marker-end="none"/>
<path d="M 111.728,57.58 C 135.658,57.58 157.838,65.115 176.023,77.94 C 171.279,109.355 167.997,123.432 158.177,131.643 C 152.738,136.268 145.332,138.577 134.373,141.767 C 131.521,142.596 126.711,143.982 124.277,144.51 L 124.278,157.903 C 132.054,162.221 138.002,170.432 140.407,180.443 C 145.044,180.721 147.083,182.158 149.096,185.514 C 150.676,188.148 151.954,192.542 150.754,195.8 C 149.682,198.711 147.022,201.832 143.663,201.832 C 142.799,201.832 141.959,201.638 141.183,201.288 C 138.882,218.286 126.521,231.276 111.728,231.276 L 111.728,57.58 Z" fill="#e4b992" marker-start="none" marker-end="none"/>
</g>
<path d="M 111.728,93.482 L 99.179,93.486 L 89.083,141.767 C 78.124,138.577 70.718,136.268 65.279,131.643 C 55.459,123.432 52.177,109.355 47.433,77.94 C 65.618,65.115 87.798,57.58 111.728,57.58 C 135.658,57.58 157.838,65.115 176.023,77.94 C 171.279,109.355 167.997,123.432 158.177,131.643 C 152.738,136.268 145.332,138.577 134.373,141.767 L 124.277,93.486 L 111.728,93.482 Z" fill="#7f007e" stroke="none" stroke-linecap="round" stroke-linejoin="miter" stroke-width="1" marker-start="none" marker-end="none"/>
<g id="Group_1" stroke-linejoin="miter" stroke="none" stroke-width="0.652">
<path d="M 90.831,148.688 L 68.061,181.967 L 77.494,181.967 C 78.873,181.06 80.598,180.589 83.049,180.443 C 85.454,170.432 91.402,162.221 99.178,157.903 L 99.178,148.688 L 90.831,148.688 Z M 124.277,148.688 L 124.278,157.903 C 132.054,162.221 138.002,170.432 140.407,180.443 C 142.857,180.589 144.582,181.06 145.961,181.967 L 154.44,181.967 L 131.633,148.688 L 124.277,148.688 Z" fill="#bf6200" marker-start="none" marker-end="none"/>
<path d="M 90.833,148.688 C 78.113,176.527 79.043,209.024 98.483,226.784 C 106.403,204.944 158.032,215.407 131.632,148.688 C 154.908,161.792 158.09,185.661 156.704,216.975 C 155.886,235.456 151.94,258.759 116.84,261.159 C 110.514,261.591 103.981,259.861 97.341,256.659 C 94.415,257.958 91.314,258.056 88.341,257.859 C 67.264,256.456 63.082,233.185 61.665,216.975 C 59.509,192.318 65.672,157.792 90.833,148.688 Z" fill="#ff8200" marker-start="none" marker-end="none"/>
</g>
</g>
</svg>
