<svg fill="none" fill-rule="evenodd" stroke="black" stroke-width="0.501" stroke-linejoin="bevel" stroke-miterlimit="10" xmlns="http://www.w3.org/2000/svg" version="1.1" overflow="visible" viewBox="0 -305.637 223.456 305.637">
<g id="Layer 1" transform="scale(1 -1)">
<rect x="0.043" y="45.131" width="223.37" height="223.369" stroke="none" fill="#ffffff" stroke-linejoin="miter"/>
<g id="Group" stroke-linejoin="miter" stroke-linecap="round" stroke="none" stroke-width="0.25">
<path d="M 111.728,57.58 C 135.658,57.58 157.838,65.115 176.023,77.94 C 171.279,109.355 167.997,123.432 158.177,131.643 C 152.738,136.268 145.332,138.577 134.373,141.767 C 131.521,142.596 126.711,143.982 124.277,144.51 L 124.278,157.903 C 132.054,162.221 138.002,170.432 140.407,180.443 C 145.044,180.721 147.083,182.158 149.096,185.514 C 150.676,188.148 151.954,192.542 150.754,195.8 C 149.682,198.711 147.022,201.832 143.663,201.832 C 142.799,201.832 141.959,201.638 141.183,201.288 C 138.882,218.286 126.521,231.276 111.728,231.276 C 96.935,231.276 84.574,218.286 82.273,201.288 C 81.497,201.638 80.657,201.832 79.793,201.832 C 76.434,201.832 73.774,198.711 72.702,195.8 C 71.502,192.542 72.78,188.148 74.36,185.514 C 76.373,182.158 78.412,180.721 83.049,180.443 C 85.454,170.432 91.402,162.221 99.178,157.903 L 99.179,144.51 C 96.745,143.982 91.935,142.596 89.083,141.767 C 78.124,138.577 70.718,136.268 65.279,131.643 C 55.459,123.432 52.177,109.355 47.433,77.94 C 65.618,65.115 87.798,57.58 111.728,57.58 Z" fill="#f1c9a5" marker-start="none" marker-end="none"/>
<path d="M 111.728,57.58 C 135.658,57.58 157.838,65.115 176.023,77.94 C 171.279,109.355 167.997,123.432 158.177,131.643 C 152.738,136.268 145.332,138.577 134.373,141.767 C 131.521,142.596 126.711,143.982 124.277,144.51 L 124.278,157.903 C 132.054,162.221 138.002,170.432 140.407,180.443 C 145.044,180.721 147.083,182.158 149.096,185.514 C 150.676,188.148 151.954,192.542 150.754,195.8 C 149.682,198.711 147.022,201.832 143.663,201.832 C 142.799,201.832 141.959,201.638 141.183,201.288 C 138.882,218.286 126.521,231.276 111.728,231.276 L 111.728,57.58 Z" fill="#e4b992" marker-start="none" marker-end="none"/>
</g>
<path d="M 82.407,183.918 C 81.982,200.682 87.008,216.301 98.483,226.784 C 106.403,204.944 151.57,206.374 125.17,139.655 C 148.57,157.804 158.09,185.661 156.704,216.975 C 155.886,235.456 141.239,260.793 104.721,255.696 C 98.711,254.857 92.759,250.441 89.241,245.409 C 85.703,246.025 81.527,245.305 78.29,242.232 C 71.812,236.083 68.787,226.499 69.089,217.037 C 69.497,204.254 76.027,192.287 82.407,183.918 Z" fill="#bf6200" stroke="none" stroke-width="0.652" stroke-linejoin="miter" marker-start="none" marker-end="none"/>
<path d="M 64.478,68.044 C 68.61,86.428 71.09,108.78 71.657,135.725 C 74.992,137.353 78.9,138.705 83.554,140.127 L 86.339,111.918 C 93.986,99.721 130.161,100.048 137.116,111.918 L 139.901,140.127 C 144.555,138.705 148.463,137.353 151.798,135.725 C 152.365,108.781 154.847,86.43 158.978,68.044 C 144.626,61.331 128.613,57.58 111.728,57.58 C 94.843,57.58 78.83,61.331 64.478,68.044 Z" fill="#ff8200" stroke-width="0.5" stroke="none" stroke-linecap="round" stroke-linejoin="miter" marker-start="none" marker-end="none"/>
<ellipse rx="4.961" ry="4.961" transform="translate(78.068 181.294) rotate(-90)" fill="#ff9100" stroke-linejoin="miter" stroke="none" stroke-linecap="round" stroke-width="0.5"/>
<g id="Group_1" stroke-linejoin="miter" stroke-linecap="round" stroke="none" stroke-width="0.456">
<path d="M 136.044,137.736 C 134.724,136.737 132.841,136.996 131.841,138.315 C 130.842,139.635 131.101,141.518 132.42,142.518 C 133.74,143.517 135.623,143.258 136.623,141.939 C 137.622,140.619 137.363,138.736 136.044,137.736 Z" fill="#fffe7f" marker-start="none" marker-end="none"/>
<path d="M 133.087,131.751 C 131.654,130.924 129.817,131.415 128.989,132.849 C 128.162,134.282 128.653,136.119 130.087,136.947 C 131.52,137.774 133.357,137.283 134.185,135.849 C 135.012,134.416 134.521,132.579 133.087,131.751 Z" fill="#fffe7f" marker-start="none" marker-end="none"/>
<path d="M 129.111,126.235 C 127.556,125.668 125.832,126.47 125.265,128.025 C 124.698,129.58 125.5,131.304 127.055,131.871 C 128.61,132.438 130.334,131.636 130.901,130.081 C 131.468,128.526 130.666,126.802 129.111,126.235 Z" fill="#fffe7f" marker-start="none" marker-end="none"/>
<path d="M 123.912,121.6 C 122.267,121.418 120.782,122.605 120.599,124.251 C 120.417,125.896 121.604,127.381 123.25,127.564 C 124.895,127.746 126.38,126.559 126.563,124.913 C 126.745,123.268 125.558,121.783 123.912,121.6 Z" fill="#fffe7f" marker-start="none" marker-end="none"/>
<path d="M 107.463,112.852 C 103.353,115.273 101.978,120.583 104.397,124.69 C 106.818,128.8 112.128,130.175 116.235,127.756 C 120.345,125.335 121.72,120.025 119.301,115.918 C 116.88,111.808 111.57,110.433 107.463,112.852 Z" fill="#fffc00" marker-start="none" marker-end="none"/>
<path d="M 97.275,123.335 C 96.67,124.875 97.429,126.618 98.97,127.224 C 100.51,127.829 102.253,127.07 102.859,125.529 C 103.464,123.989 102.705,122.246 101.164,121.64 C 99.624,121.035 97.881,121.794 97.275,123.335 Z" fill="#fffe7f" marker-start="none" marker-end="none"/>
<path d="M 92.553,128.451 C 92.327,130.091 93.475,131.606 95.115,131.833 C 96.755,132.059 98.27,130.911 98.497,129.271 C 98.723,127.631 97.575,126.116 95.935,125.889 C 94.295,125.663 92.78,126.811 92.553,128.451 Z" fill="#fffe7f" marker-start="none" marker-end="none"/>
<path d="M 88.987,134.258 C 89.056,135.911 90.455,137.199 92.109,137.13 C 93.762,137.061 95.05,135.662 94.981,134.008 C 94.912,132.355 93.513,131.067 91.859,131.136 C 90.206,131.205 88.918,132.604 88.987,134.258 Z" fill="#fffe7f" marker-start="none" marker-end="none"/>
<path d="M 86.362,140.442 C 86.663,142.069 88.229,143.148 89.857,142.847 C 91.484,142.546 92.563,140.98 92.262,139.352 C 91.961,137.725 90.395,136.646 88.767,136.947 C 87.14,137.248 86.061,138.814 86.362,140.442 Z" fill="#fffe7f" marker-start="none" marker-end="none"/>
</g>
</g>
</svg>
