<svg version="1.1" id="Layer_1" xmlns="http://www.w3.org/2000/svg" x="0" y="0" viewBox="0 0 1018 300" xml:space="preserve">
<style>
.st2{fill:#043458}
.st3{fill:#c13a3a}
.st4{fill:#fff}
.st6{fill:#436c91}
.st7{fill:#939393}
.st10{fill:#78dfea}
.st11{fill:#606060}
</style>
<path class="st10" d="M219.1 166.5c0 43.6-35.4 79-79 79s-79-35.4-79-79 35.4-79 79-79 79 35.3 79 79"/>
<path class="st6" d="M243.7 168.8h-14.8c-2.7 0-4.8-2.1-4.9-4.8-1.3-45.6-38.2-81.4-83.9-81.4-46.3 0-83.9 37.6-83.9 83.9 0 1.3-1 2.3-2.3 2.3-1.3 0-2.3-1-2.3-2.3 0-48.8 39.7-88.6 88.6-88.6 48.2 0 87.1 37.8 88.5 85.9 0 .1.1.3.2.3h14.8c1.3 0 2.3 1 2.3 2.3 0 1.4-1 2.4-2.3 2.4M610.2 168.8h-14.8c-2.7 0-4.8-2.1-4.9-4.8-1.3-45.6-38.2-81.4-83.9-81.4-38.6 0-72 26.1-81.4 63.4-.3 1.3-1.6 2-2.8 1.7-1.3-.3-2-1.6-1.7-2.8 9.9-39.4 45.2-67 85.9-67 48.2 0 87.1 37.8 88.5 85.9 0 .1.1.3.2.3h14.8c1.3 0 2.3 1 2.3 2.3.1 1.4-.9 2.4-2.2 2.4"/><path class="st3" d="M422.1 168.8h-9.6c-.8 0-1.6-.2-2.3-.6-1.1-.6-1.6-2-.9-3.2.6-1.1 2-1.6 3.2-.9h9.7c1.3 0 2.3 1 2.3 2.3-.1 1.4-1.1 2.4-2.4 2.4m-12.9-10.7c-1.2 0-2.2-.9-2.3-2.1-.4-3.5-1.1-7-2-10.4-.3-1.3.4-2.5 1.7-2.8 1.3-.3 2.5.4 2.8 1.7.9 3.6 1.6 7.3 2.1 11 .2 1.3-.8 2.4-2 2.6h-.3M243 138.2c-.3 0-.6 0-.8-.2-1.2-.5-1.8-1.8-1.4-3 1.3-3.5 2.9-6.9 4.6-10.2.6-1.1 2-1.6 3.2-1 1.1.6 1.6 2 1 3.2-1.7 3.1-3.1 6.4-4.4 9.7-.3.9-1.2 1.5-2.2 1.5m160.9-1.1c-.9 0-1.8-.6-2.2-1.5-1.3-3.3-2.8-6.5-4.5-9.6-.6-1.1-.2-2.6.9-3.2 1.1-.6 2.5-.2 3.2.9 1.8 3.3 3.4 6.7 4.8 10.1.5 1.2-.1 2.6-1.3 3-.3.2-.6.3-.9.3M253.3 119c-.5 0-.9-.1-1.3-.4-1.1-.7-1.3-2.2-.6-3.3 2.2-3 4.5-6 7-8.7.9-1 2.4-1 3.3-.1 1 .9 1 2.3.1 3.3-2.4 2.6-4.6 5.4-6.7 8.2-.4.7-1.1 1-1.8 1m140.1-1c-.7 0-1.4-.3-1.9-1-2.1-2.8-4.4-5.6-6.8-8.2-.9-.9-.8-2.4.1-3.3.9-.9 2.4-.8 3.3.1 2.5 2.7 5 5.6 7.1 8.6.8 1 .5 2.5-.5 3.3-.4.4-.8.5-1.3.5M268 103c-.7 0-1.3-.3-1.8-.8-.8-1-.7-2.5.3-3.3 2.8-2.4 5.9-4.7 9-6.7 1.1-.7 2.5-.4 3.2.7.7 1.1.4 2.5-.7 3.2-2.9 1.9-5.8 4-8.5 6.3-.5.4-1 .6-1.5.6m110.5-.8c-.5 0-1-.2-1.5-.5-2.7-2.2-5.6-4.3-8.6-6.2-1.1-.7-1.4-2.1-.7-3.2s2.1-1.4 3.2-.7c3.1 2 6.2 4.2 9.1 6.6 1 .8 1.1 2.3.3 3.3-.5.4-1.2.7-1.8.7m-92.3-11.1c-.9 0-1.7-.5-2.1-1.3-.6-1.2-.1-2.6 1.1-3.1 3.3-1.6 6.8-3 10.4-4.2 1.2-.4 2.6.2 3 1.5.4 1.2-.2 2.5-1.5 3-3.3 1.1-6.6 2.5-9.8 4-.4.1-.7.1-1.1.1m73.9-.5c-.3 0-.7-.1-1-.2-3.2-1.5-6.5-2.8-9.9-3.9-1.2-.4-1.9-1.7-1.5-2.9.4-1.2 1.7-1.9 2.9-1.5 3.5 1.1 7.1 2.5 10.4 4.1 1.2.5 1.7 1.9 1.1 3.1-.3.8-1.2 1.3-2 1.3m-53.3-6.4c-1.1 0-2.1-.8-2.3-1.9-.3-1.3.6-2.5 1.8-2.7 3.6-.7 7.4-1.2 11.1-1.5 1.3-.1 2.4.9 2.5 2.2.1 1.3-.9 2.4-2.2 2.5-3.5.2-7.1.7-10.5 1.4h-.4m32.5-.2h-.4c-3.5-.6-7-1.1-10.5-1.3-1.3-.1-2.3-1.2-2.2-2.5.1-1.3 1.2-2.3 2.5-2.2 3.7.2 7.5.7 11.1 1.3 1.3.2 2.1 1.5 1.9 2.7-.3 1.2-1.3 2-2.4 2M137.5 255c-3.8-.1-7.5-.5-11.2-1-1.3-.2-2.1-1.4-1.9-2.7.2-1.3 1.4-2.1 2.7-2 3.5.5 7 .9 10.6 1 1.3 0 2.3 1.1 2.3 2.4-.2 1.3-1.3 2.3-2.5 2.3m10.9-.3c-1.2 0-2.2-.9-2.3-2.1-.1-1.3.8-2.4 2.1-2.5 3.5-.3 7-.9 10.5-1.7 1.3-.3 2.5.5 2.8 1.8.3 1.3-.5 2.5-1.8 2.8-3.6.8-7.3 1.4-11.1 1.8-.1-.2-.2-.1-.2-.1m-32.4-3.1c-.2 0-.4 0-.7-.1-3.6-1-7.1-2.3-10.5-3.8-1.2-.5-1.7-1.9-1.2-3.1.5-1.2 1.9-1.7 3.1-1.2 3.2 1.4 6.6 2.6 10 3.6 1.2.4 2 1.7 1.6 2.9-.4 1.1-1.3 1.7-2.3 1.7m53.6-1.7c-1 0-1.9-.6-2.2-1.5-.4-1.2.2-2.6 1.4-3 3.3-1.2 6.6-2.6 9.7-4.2 1.2-.6 2.6-.1 3.1 1 .6 1.1.1 2.6-1 3.1-3.3 1.7-6.8 3.2-10.2 4.5-.3 0-.6.1-.8.1M96 243c-.4 0-.8-.1-1.2-.3-3.2-1.9-6.3-4-9.2-6.3-1-.8-1.2-2.3-.4-3.3.8-1 2.3-1.2 3.3-.4 2.8 2.2 5.7 4.2 8.8 6 1.1.7 1.5 2.1.8 3.2-.5.6-1.3 1.1-2.1 1.1m92.9-3.1c-.7 0-1.5-.4-1.9-1-.7-1.1-.5-2.5.6-3.2 2.9-2 5.7-4.2 8.3-6.5 1-.9 2.4-.8 3.3.2.9 1 .8 2.4-.2 3.3-2.8 2.5-5.7 4.8-8.8 6.9-.4.2-.8.3-1.3.3m-110-10.3c-.6 0-1.2-.2-1.7-.7-2.6-2.6-5.1-5.5-7.4-8.4-.8-1-.6-2.5.4-3.3 1-.8 2.5-.6 3.3.4 2.2 2.8 4.5 5.5 7 8 .9.9.9 2.4 0 3.3-.4.4-1 .7-1.6.7m126.2-4.2c-.5 0-1.1-.2-1.5-.6-1-.8-1.1-2.3-.2-3.3 2.3-2.7 4.5-5.5 6.5-8.4.7-1.1 2.2-1.4 3.2-.6 1.1.7 1.4 2.2.6 3.2-2.1 3.1-4.4 6.1-6.8 8.9-.5.6-1.1.8-1.8.8M65.6 212.3c-.8 0-1.6-.4-2-1.2-1.9-3.2-3.6-6.6-5-10-.5-1.2 0-2.6 1.2-3.1s2.6 0 3.1 1.2c1.4 3.2 3 6.4 4.8 9.5.7 1.1.3 2.5-.8 3.2-.5.3-.9.4-1.3.4m151.6-4.9c-.4 0-.7-.1-1-.2-1.2-.6-1.6-2-1-3.1 1.6-3.2 3-6.5 4.1-9.8.4-1.2 1.8-1.9 3-1.4 1.2.4 1.9 1.8 1.4 3-1.2 3.5-2.7 7-4.4 10.3-.4.7-1.2 1.2-2.1 1.2M57.1 192.3c-1 0-2-.7-2.2-1.7-1-3.6-1.8-7.3-2.4-10.9-.2-1.3.7-2.5 2-2.7 1.3-.2 2.5.7 2.7 2 .5 3.5 1.3 7 2.2 10.4.3 1.2-.4 2.5-1.6 2.9h-.7m167.3-5.5c-.2 0-.3 0-.5-.1-1.3-.3-2.1-1.5-1.8-2.8.7-3.4 1.2-7 1.5-10.5.1-1.3 1.2-2.2 2.5-2.1 1.3.1 2.2 1.2 2.1 2.5-.3 3.7-.9 7.4-1.6 11.1-.1 1.2-1.1 1.9-2.2 1.9"/><path class="st6" d="M323.9 255c-40.8 0-76.1-27.6-86-67.1-.3-1.3.4-2.5 1.7-2.8 1.2-.3 2.5.4 2.8 1.7 9.3 37.4 42.8 63.6 81.4 63.6 43.3 0 80-33.8 83.6-76.8.1-1.3 1.3-2.2 2.5-2.1 1.3.1 2.2 1.2 2.1 2.5-3.6 45.4-42.4 81-88.1 81M235.5 155v22.2c0 2.3 2.9 3.5 4.6 1.9l12.1-11.1c1.1-1 1.1-2.8 0-3.8L240.1 153c-1.7-1.6-4.6-.4-4.6 2"/><path class="st6" d="M240 188.9c-.6 0-1.2-.2-1.7-.7-.9-.9-.8-2.4.1-3.3l19-17.9c.3-.3.4-.7.4-.9 0-.2-.1-.6-.4-.9l-18.9-17.4c-1-.9-1-2.4-.1-3.3.9-1 2.4-1 3.3-.1l18.9 17.4c1.2 1.1 1.9 2.7 1.9 4.3 0 1.6-.7 3.2-1.8 4.3l-19 17.9c-.6.4-1.1.6-1.7.6"/><path class="st3" d="M501.5 254.9h-.1c-3.7-.2-7.5-.7-11.1-1.4-1.3-.2-2.1-1.5-1.9-2.7.2-1.3 1.5-2.1 2.7-1.9 3.4.7 7 1.1 10.5 1.3 1.3.1 2.3 1.2 2.2 2.5 0 1.2-1.1 2.2-2.3 2.2m10.9 0c-1.2 0-2.3-1-2.3-2.2-.1-1.3.9-2.4 2.2-2.5 3.5-.2 7.1-.7 10.5-1.3 1.3-.3 2.5.6 2.7 1.9.2 1.3-.6 2.5-1.9 2.7-3.6.7-7.4 1.2-11.1 1.4h-.1m-32.3-4.1c-.2 0-.5 0-.7-.1-3.5-1.2-7-2.5-10.4-4.1-1.2-.6-1.7-1.9-1.1-3.1.6-1.2 2-1.7 3.1-1.1 3.2 1.5 6.5 2.8 9.9 3.9 1.2.4 1.9 1.7 1.5 2.9-.4 1-1.3 1.6-2.3 1.6m53.7 0c-1 0-1.9-.6-2.2-1.6-.4-1.2.3-2.5 1.5-3 3.3-1.1 6.7-2.4 9.8-3.9 1.2-.6 2.6-.1 3.1 1.1.6 1.2.1 2.6-1.1 3.1-3.4 1.6-6.9 3-10.4 4.2-.3 0-.5.1-.7.1m-73.3-9.3c-.4 0-.9-.1-1.3-.4-3.1-2-6.2-4.2-9-6.6-1-.8-1.1-2.3-.3-3.3s2.3-1.1 3.3-.3c2.7 2.3 5.6 4.4 8.6 6.3 1.1.7 1.4 2.1.7 3.2-.5.7-1.3 1.1-2 1.1m92.9-.1c-.8 0-1.5-.4-2-1.1-.7-1.1-.4-2.5.7-3.2 3-1.9 5.8-4 8.5-6.3 1-.8 2.5-.7 3.3.3.8 1 .7 2.5-.3 3.3-2.9 2.4-5.9 4.6-9 6.6-.3.3-.8.4-1.2.4m-109.6-13.8c-.6 0-1.3-.2-1.7-.7-2.5-2.7-4.9-5.6-7.1-8.6-.8-1-.5-2.5.5-3.3 1.1-.8 2.5-.5 3.3.5 2.1 2.9 4.3 5.6 6.7 8.2.9.9.8 2.4-.1 3.3-.5.4-1.1.6-1.6.6m126.3-.1c-.6 0-1.1-.2-1.6-.6-.9-.9-1-2.4-.1-3.3 2.4-2.6 4.7-5.3 6.7-8.2.8-1 2.2-1.3 3.3-.5 1 .8 1.3 2.2.5 3.3-2.2 3-4.6 5.9-7.1 8.7-.5.3-1.1.6-1.7.6m-139-17.6c-.8 0-1.6-.4-2.1-1.2-1.8-3.3-3.4-6.7-4.7-10.2-.5-1.2.1-2.6 1.3-3 1.2-.5 2.6.1 3 1.3 1.3 3.3 2.8 6.5 4.5 9.6.6 1.1.2 2.6-.9 3.2-.4.3-.8.3-1.1.3m151.7-.1c-.4 0-.8-.1-1.1-.3-1.1-.6-1.6-2-.9-3.2 1.7-3.1 3.2-6.3 4.4-9.6.5-1.2 1.8-1.8 3-1.3s1.8 1.8 1.3 3c-1.3 3.5-2.9 6.9-4.7 10.2-.4.8-1.2 1.2-2 1.2m7.8-20.3c-.2 0-.4 0-.6-.1-1.3-.3-2-1.6-1.7-2.8.8-3.4 1.5-6.9 1.9-10.4.1-1.3 1.3-2.2 2.6-2.1 1.3.1 2.2 1.3 2.1 2.6-.4 3.7-1.1 7.4-2 11-.3 1.1-1.2 1.8-2.3 1.8M868 254.9h-.1c-3.7-.2-7.5-.7-11.1-1.4-1.3-.2-2.1-1.5-1.9-2.7.2-1.3 1.5-2.1 2.7-1.9 3.4.7 7 1.1 10.5 1.3 1.3.1 2.3 1.2 2.2 2.5-.1 1.3-1.1 2.2-2.3 2.2m10.9 0c-1.2 0-2.3-1-2.3-2.2-.1-1.3.9-2.4 2.2-2.5 3.5-.2 7.1-.7 10.5-1.3 1.3-.3 2.5.6 2.7 1.9.2 1.3-.6 2.5-1.9 2.7-3.6.7-7.4 1.2-11.1 1.4h-.1m-32.3-4c-.2 0-.5 0-.7-.1-3.5-1.2-7-2.5-10.4-4.1-1.2-.6-1.7-1.9-1.1-3.1.6-1.2 2-1.7 3.1-1.1 3.2 1.5 6.5 2.8 9.9 3.9 1.2.4 1.9 1.7 1.5 2.9-.4.9-1.3 1.6-2.3 1.6m53.6-.1c-1 0-1.9-.6-2.2-1.6-.4-1.2.3-2.5 1.5-3 3.3-1.1 6.7-2.4 9.8-3.9 1.2-.6 2.6-.1 3.1 1.1.6 1.2.1 2.6-1.1 3.1-3.4 1.6-6.9 3-10.4 4.2-.2.1-.4.1-.7.1m-73.3-9.3c-.4 0-.9-.1-1.3-.4-3.1-2-6.2-4.2-9-6.6-1-.8-1.1-2.3-.3-3.3s2.3-1.1 3.3-.3c2.7 2.3 5.6 4.4 8.6 6.3 1.1.7 1.4 2.1.7 3.2-.5.8-1.2 1.1-2 1.1m93 0c-.8 0-1.5-.4-2-1.1-.7-1.1-.4-2.5.7-3.2 3-1.9 5.8-4 8.5-6.3 1-.8 2.5-.7 3.3.3.8 1 .7 2.5-.3 3.3-2.9 2.4-5.9 4.6-9 6.6-.4.2-.8.4-1.2.4m-109.7-13.9c-.6 0-1.3-.2-1.7-.7-2.5-2.7-4.9-5.6-7.1-8.6-.8-1-.5-2.5.5-3.3 1.1-.8 2.5-.5 3.3.5 2.1 2.9 4.3 5.6 6.7 8.2.9.9.8 2.4-.1 3.3-.4.4-1 .6-1.6.6m126.3-.1c-.6 0-1.1-.2-1.6-.6-.9-.9-1-2.4-.1-3.3 2.4-2.6 4.7-5.3 6.7-8.2.8-1 2.2-1.3 3.3-.5 1 .8 1.3 2.2.5 3.3-2.2 3-4.6 5.9-7.1 8.7-.4.4-1.1.6-1.7.6m-139-17.5c-.8 0-1.6-.4-2.1-1.2-1.8-3.3-3.4-6.7-4.7-10.1-.5-1.2.1-2.6 1.3-3 1.2-.5 2.6.1 3 1.3 1.3 3.3 2.8 6.5 4.5 9.6.6 1.1.2 2.6-.9 3.2-.3.1-.7.2-1.1.2m151.7-.2c-.4 0-.8-.1-1.1-.3-1.1-.6-1.6-2-.9-3.2 1.7-3.1 3.2-6.3 4.4-9.6.5-1.2 1.8-1.8 3-1.3s1.8 1.8 1.3 3c-1.3 3.5-2.9 6.9-4.7 10.2-.4.8-1.2 1.2-2 1.2m7.9-20.3c-.2 0-.4 0-.6-.1-1.3-.3-2-1.6-1.7-2.8.8-3.4 1.5-6.9 1.9-10.4.1-1.3 1.3-2.2 2.6-2.1 1.3.1 2.2 1.3 2.1 2.6-.4 3.7-1.1 7.4-2 11-.3 1.1-1.3 1.8-2.3 1.8M788.6 168.8H779c-.8 0-1.6-.2-2.3-.6-1.1-.6-1.6-2-.9-3.2.6-1.1 2-1.6 3.2-.9h9.7c1.3 0 2.3 1 2.3 2.3-.1 1.4-1.1 2.4-2.4 2.4m-12.9-10.7c-1.2 0-2.2-.9-2.3-2.1-.4-3.5-1.1-7-2-10.4-.3-1.3.4-2.5 1.7-2.8 1.3-.3 2.5.4 2.8 1.7.9 3.6 1.6 7.3 2.1 11 .2 1.3-.8 2.4-2 2.6h-.3m-166.2-19.9c-.3 0-.6 0-.8-.2-1.2-.5-1.8-1.8-1.4-3 1.3-3.5 2.9-6.9 4.6-10.2.6-1.1 2-1.6 3.2-1 1.1.6 1.6 2 1 3.2-1.7 3.1-3.1 6.4-4.4 9.7-.4.9-1.3 1.5-2.2 1.5m160.8-1.1c-.9 0-1.8-.6-2.2-1.5-1.3-3.3-2.8-6.5-4.5-9.6-.6-1.1-.2-2.6.9-3.2 1.1-.6 2.6-.2 3.2.9 1.8 3.3 3.4 6.7 4.8 10.1.5 1.2-.1 2.6-1.3 3-.3.2-.6.3-.9.3M619.7 119c-.5 0-.9-.1-1.3-.4-1.1-.7-1.3-2.2-.6-3.3 2.2-3 4.5-6 7-8.7.9-1 2.4-1 3.3-.1 1 .9 1 2.3.1 3.3-2.4 2.6-4.6 5.4-6.7 8.2-.3.7-1 1-1.8 1m140.2-1c-.7 0-1.4-.3-1.9-1-2.1-2.8-4.4-5.6-6.8-8.2-.9-.9-.8-2.4.1-3.3.9-.9 2.4-.8 3.3.1 2.5 2.7 5 5.6 7.1 8.6.8 1 .5 2.5-.5 3.3-.4.4-.9.5-1.3.5m-125.5-15c-.7 0-1.3-.3-1.8-.8-.8-1-.7-2.5.3-3.3 2.8-2.4 5.9-4.7 9-6.7 1.1-.7 2.5-.4 3.2.7.7 1.1.4 2.5-.7 3.2-2.9 1.9-5.8 4-8.5 6.3-.4.4-.9.6-1.5.6m110.5-.8c-.5 0-1-.2-1.5-.5-2.7-2.2-5.6-4.3-8.6-6.2-1.1-.7-1.4-2.1-.7-3.2s2.1-1.4 3.2-.7c3.1 2 6.2 4.2 9.1 6.6 1 .8 1.1 2.3.3 3.3-.4.4-1.1.7-1.8.7m-92.2-11.1c-.9 0-1.7-.5-2.1-1.3-.6-1.2-.1-2.6 1.1-3.1 3.3-1.6 6.8-3 10.4-4.2 1.2-.4 2.6.3 3 1.5.4 1.2-.2 2.5-1.5 3-3.3 1.1-6.6 2.5-9.8 4-.4.1-.8.1-1.1.1m73.8-.5c-.3 0-.7-.1-1-.2-3.2-1.5-6.5-2.8-9.9-3.9-1.2-.4-1.9-1.7-1.5-2.9.4-1.2 1.7-1.9 2.9-1.5 3.5 1.1 7.1 2.5 10.4 4.1 1.2.5 1.7 1.9 1.1 3.1-.3.8-1.1 1.3-2 1.3m-53.2-6.4c-1.1 0-2.1-.8-2.3-1.9-.3-1.3.6-2.5 1.8-2.7 3.6-.7 7.4-1.2 11.1-1.5 1.2-.1 2.4.9 2.5 2.2.1 1.3-.9 2.4-2.2 2.5-3.5.2-7.1.7-10.5 1.4h-.4m32.5-.2h-.4c-3.5-.6-7-1.1-10.5-1.3-1.3-.1-2.3-1.2-2.2-2.5.1-1.3 1.2-2.3 2.5-2.2 3.7.2 7.5.7 11.1 1.3 1.3.2 2.1 1.5 1.9 2.7-.3 1.2-1.3 2-2.4 2"/><path class="st6" d="M690.4 255c-40.8 0-76.1-27.6-86-67.1-.3-1.3.4-2.5 1.7-2.8 1.2-.3 2.5.4 2.8 1.7 9.3 37.4 42.8 63.6 81.4 63.6 43.3 0 80-33.8 83.6-76.8.1-1.3 1.3-2.2 2.5-2.1 1.3.1 2.2 1.2 2.1 2.5-3.6 45.4-42.4 81-88.1 81"/><path class="st6" d="M606.5 188.9c-.6 0-1.2-.2-1.7-.7-.9-.9-.8-2.4.1-3.3l19-17.9c.3-.3.4-.7.4-.9 0-.2-.1-.6-.4-.9L605 147.8c-.9-.9-1-2.4-.1-3.3.9-1 2.4-1 3.3-.1l18.9 17.4c1.2 1.1 1.9 2.7 1.9 4.3 0 1.6-.7 3.2-1.8 4.3l-19 17.9c-.6.4-1.2.6-1.7.6"/><path class="st6" d="M601.4 155.1v22.2c0 2.3 2.9 3.5 4.6 1.9l12.1-11.2c1.1-1 1.1-2.8 0-3.8l-12.1-11c-1.7-1.6-4.6-.4-4.6 1.9M423 189.1c-.6 0-1.2-.2-1.7-.7-.9-.9-.8-2.4.1-3.3l18.9-17.9c.3-.3.4-.7.4-.9 0-.2-.1-.6-.4-.9L421.4 148c-.9-.9-1-2.4-.1-3.3.9-.9 2.4-1 3.3-.1l18.9 17.4c1.2 1.1 1.9 2.7 1.9 4.3 0 1.6-.7 3.2-1.8 4.3l-18.9 17.9c-.6.4-1.1.6-1.7.6"/><path class="st3" d="M418.4 155v22.2c0 2.3 2.9 3.5 4.6 1.9l12.1-11.1c1.1-1 1.1-2.8 0-3.8l-12-11.2c-1.8-1.6-4.7-.4-4.7 2"/><path class="st10" d="M873.3 87.5c-36.1 0-66.6 24.2-76 57.3l15.2 13.9c2.1 1.9 3.2 4.6 3.2 7.3 0 2.8-1.2 5.5-3.2 7.3l-15.4 14.1c9.2 33.4 39.8 57.9 76.1 57.9 43.6 0 79-35.4 79-79S917 87.5 873.3 87.5M689.9 87.5c-36.1 0-66.6 24.2-76 57.3l15.2 13.9c2.1 1.9 3.2 4.6 3.2 7.3 0 2.8-1.2 5.5-3.2 7.3l-15.4 14.1c9.2 33.4 39.8 57.9 76.1 57.9 43.6 0 79-35.4 79-79s-35.3-78.8-78.9-78.8M505.4 87.6c-36.1 0-66.6 24.2-76 57.3l15.2 13.9c2.1 1.9 3.2 4.6 3.2 7.3 0 2.8-1.2 5.5-3.2 7.3l-15.4 14.1c9.2 33.4 39.8 57.9 76.1 57.9 43.6 0 79-35.4 79-79S549 87.6 505.4 87.6M323.6 87.5c-36.1 0-66.6 24.2-76 57.3l15.2 13.9c2.1 1.9 3.2 4.6 3.2 7.3 0 2.8-1.2 5.5-3.2 7.3l-15.4 14.1c9.2 33.4 39.8 57.9 76.1 57.9 43.6 0 79-35.4 79-79s-35.3-78.8-78.9-78.8"/><path class="st6" d="M873.4 77.3c-40.8 0-76.1 27.6-86 67.1-.3 1.3.4 2.5 1.7 2.8 1.2.3 2.5-.4 2.8-1.7 9.3-37.4 42.8-63.6 81.4-63.6 22.7 0 44.7 9 60.4 24.8 15.1 15.2 23.3 35.8 23.2 58.1 0 1.3 1 2.3 2.3 2.4 1.3 0 2.3-1 2.3-2.3.2-23.5-8.6-45.3-24.6-61.4-16.3-16.7-39.5-26.2-63.5-26.2"/><path class="st6" d="M789.5 143.4c-.6 0-1.2.2-1.7.7-.9.9-.8 2.4.1 3.3l19 17.9c.3.3.4.7.4.9 0 .2-.1.6-.4.9L788 184.6c-.9.9-1 2.4-.1 3.3.9.9 2.4 1 3.3.1l18.9-17.4c1.2-1.1 1.9-2.7 1.9-4.3 0-1.6-.7-3.2-1.9-4.3l-19-17.9c-.5-.5-1-.7-1.6-.7"/><path class="st3" d="M784.9 155v22.2c0 2.3 2.9 3.5 4.6 1.9l12.1-11.1c1.1-1 1.1-2.8 0-3.8L789.5 153c-1.7-1.6-4.6-.4-4.6 2M113.3 38.7h-8.5v8.8h-4.5V25.9h14.1v3.6h-9.6v5.6h8.5v3.6zM116.9 47.5V25.9h6.7c1.9 0 3.6.4 5.1 1.3 1.5.9 2.7 2.1 3.5 3.6.8 1.6 1.3 3.4 1.3 5.4v1c0 2-.4 3.8-1.2 5.4-.8 1.6-2 2.8-3.5 3.6-1.5.9-3.2 1.3-5.1 1.3h-6.8zm4.5-18v14.4h2.1c1.7 0 3.1-.6 4-1.7.9-1.1 1.4-2.8 1.4-4.9v-1.1c0-2.2-.5-3.9-1.4-5-.9-1.1-2.2-1.7-4-1.7h-2.1zM148.9 43.1h-7.8l-1.5 4.4h-4.7l8.1-21.6h4.1l8.1 21.6h-4.7l-1.6-4.4zm-6.6-3.6h5.4l-2.7-8.1-2.7 8.1z"/><path class="st2" d="M180.8 40.3c-.2 2.3-1 4.1-2.6 5.5-1.5 1.3-3.6 2-6.1 2-2.8 0-4.9-.9-6.5-2.8-1.6-1.9-2.4-4.4-2.4-7.7V36c0-2.1.4-3.9 1.1-5.5.7-1.6 1.8-2.8 3.1-3.6 1.4-.8 2.9-1.3 4.7-1.3 2.5 0 4.5.7 6 2s2.4 3.2 2.6 5.6h-4.4c-.1-1.4-.5-2.4-1.2-3s-1.7-.9-3.1-.9c-1.5 0-2.6.5-3.3 1.6s-1.1 2.7-1.1 5v1.6c0 2.3.4 4 1.1 5.1.7 1.1 1.8 1.6 3.4 1.6 1.4 0 2.4-.3 3.1-.9.7-.6 1.1-1.6 1.2-2.9h4.4zM182.8 39.3c0-1.6.3-3 .9-4.3.6-1.2 1.5-2.2 2.6-2.9 1.2-.7 2.5-1 4-1 2.2 0 3.9.7 5.3 2s2.1 3.1 2.3 5.4v1.1c0 2.5-.7 4.4-2.1 5.9-1.4 1.5-3.2 2.2-5.5 2.2s-4.2-.7-5.5-2.2-2.1-3.5-2.1-6v-.2zm4.3.3c0 1.5.3 2.7.9 3.5.6.8 1.4 1.2 2.5 1.2 1 0 1.8-.4 2.4-1.2s.9-2.1.9-3.8c0-1.5-.3-2.7-.9-3.5-.6-.8-1.4-1.2-2.5-1.2-1 0-1.9.4-2.4 1.2-.6.9-.9 2.1-.9 3.8zM204.6 31.5l.1 1.8c1.1-1.4 2.7-2.1 4.6-2.1 2.1 0 3.5.8 4.3 2.5 1.1-1.6 2.7-2.5 4.8-2.5 1.7 0 3 .5 3.9 1.5.8 1 1.3 2.5 1.3 4.6v10.2h-4.3V37.3c0-.9-.2-1.6-.5-2-.4-.4-1-.6-1.9-.6-1.3 0-2.2.6-2.7 1.8v11H210V37.3c0-.9-.2-1.6-.6-2-.4-.4-1-.6-1.9-.6-1.2 0-2.1.5-2.6 1.5v11.3h-4.3v-16h4zM241.4 39.6c0 2.5-.6 4.5-1.7 5.9-1.1 1.5-2.6 2.2-4.5 2.2-1.6 0-2.9-.6-3.9-1.7v7.6H227V31.5h4l.1 1.6c1-1.3 2.4-1.9 4.1-1.9 2 0 3.5.7 4.6 2.2 1.1 1.5 1.6 3.5 1.6 6.1v.1zm-4.3-.3c0-1.5-.3-2.6-.8-3.5-.5-.8-1.3-1.2-2.3-1.2-1.3 0-2.3.5-2.8 1.5v6.6c.5 1.1 1.5 1.6 2.8 1.6 2.1.1 3.1-1.6 3.1-5zM248.6 47.5h-4.3V24.7h4.3v22.8zM252.1 27.3c0-.6.2-1.2.6-1.6s1-.6 1.8-.6c.7 0 1.3.2 1.8.6.4.4.6.9.6 1.6 0 .7-.2 1.2-.7 1.6s-1 .6-1.7.6-1.3-.2-1.7-.6c-.5-.4-.7-.9-.7-1.6zm4.5 20.2h-4.3v-16h4.3v16zM269.4 47.5c-.2-.4-.3-.9-.4-1.4-1 1.2-2.4 1.7-4 1.7s-2.9-.5-3.9-1.4-1.5-2.1-1.5-3.4c0-1.7.6-3 1.9-3.9 1.3-.9 3.1-1.4 5.5-1.4h2v-.9c0-.7-.2-1.3-.6-1.8-.4-.4-1-.7-1.8-.7-.7 0-1.3.2-1.7.5-.4.3-.6.8-.6 1.4H260c0-.9.3-1.8.9-2.6.6-.8 1.4-1.4 2.4-1.9s2.2-.7 3.5-.7c2 0 3.5.5 4.7 1.5 1.2 1 1.7 2.4 1.7 4.2v6.9c0 1.5.2 2.7.6 3.5v.3h-4.4zm-3.5-3c.6 0 1.2-.1 1.8-.4.5-.3.9-.7 1.2-1.1v-2.8h-1.6c-2.1 0-3.3.7-3.4 2.2v.3c0 .5.2 1 .6 1.3.2.4.7.5 1.4.5zM280.4 31.5l.1 1.9c1.2-1.4 2.7-2.2 4.6-2.2 1.7 0 3 .5 3.8 1.5.8 1 1.3 2.5 1.3 4.5v10.4h-4.3V37.2c0-.9-.2-1.6-.6-2-.4-.4-1.1-.6-2-.6-1.2 0-2.1.5-2.7 1.5v11.3h-4.3V31.5h4.1zM298.6 27.5v3.9h2.7v3.1h-2.7v8c0 .6.1 1 .3 1.3.2.3.7.4 1.3.4.5 0 .9 0 1.3-.1v3.2c-.8.3-1.7.4-2.6.4-3 0-4.5-1.5-4.6-4.5v-8.7H292v-3.1h2.3v-3.9h4.3zM327.7 40.3c-.2 2.3-1 4.1-2.6 5.5-1.5 1.3-3.6 2-6.1 2-2.8 0-4.9-.9-6.5-2.8-1.6-1.9-2.4-4.4-2.4-7.7V36c0-2.1.4-3.9 1.1-5.5.7-1.6 1.8-2.8 3.1-3.6 1.4-.8 2.9-1.3 4.7-1.3 2.5 0 4.5.7 6 2s2.4 3.2 2.6 5.6h-4.4c-.1-1.4-.5-2.4-1.2-3-.7-.6-1.7-.9-3.1-.9-1.5 0-2.6.5-3.3 1.6s-1.1 2.7-1.1 5v1.6c0 2.3.4 4 1.1 5.1s1.8 1.6 3.4 1.6c1.4 0 2.4-.3 3.1-.9.7-.6 1.1-1.6 1.2-2.9h4.4zM329.6 39.3c0-1.6.3-3 .9-4.3.6-1.2 1.5-2.2 2.6-2.9 1.2-.7 2.5-1 4-1 2.2 0 3.9.7 5.3 2s2.1 3.1 2.3 5.4v1.1c0 2.5-.7 4.4-2.1 5.9-1.4 1.5-3.2 2.2-5.5 2.2s-4.2-.7-5.5-2.2-2.1-3.5-2.1-6v-.2zm4.3.3c0 1.5.3 2.7.9 3.5.6.8 1.4 1.2 2.5 1.2 1 0 1.8-.4 2.4-1.2s.9-2.1.9-3.8c0-1.5-.3-2.7-.9-3.5-.6-.8-1.4-1.2-2.5-1.2-1 0-1.9.4-2.4 1.2-.6.9-.9 2.1-.9 3.8zM356.2 43.1c0-.5-.3-.9-.8-1.2-.5-.3-1.4-.6-2.5-.8-3.8-.8-5.7-2.4-5.7-4.9 0-1.4.6-2.6 1.8-3.6 1.2-1 2.7-1.4 4.6-1.4 2 0 3.7.5 4.9 1.4 1.2 1 1.8 2.2 1.8 3.7H356c0-.6-.2-1.1-.6-1.5-.4-.4-1-.6-1.8-.6-.7 0-1.3.2-1.7.5-.4.3-.6.7-.6 1.3 0 .5.2.9.7 1.2.5.3 1.2.5 2.3.8 1.1.2 2 .4 2.7.7 2.3.8 3.4 2.3 3.4 4.3 0 1.5-.6 2.6-1.9 3.5-1.3.9-2.9 1.4-4.9 1.4-1.3 0-2.5-.2-3.6-.7-1-.5-1.9-1.1-2.5-2-.6-.8-.9-1.7-.9-2.7h4.1c0 .8.3 1.3.9 1.7.5.4 1.2.6 2.1.6.8 0 1.4-.2 1.9-.5s.6-.7.6-1.2zM367.1 31.5l.1 1.8c1.1-1.4 2.7-2.1 4.6-2.1 2.1 0 3.5.8 4.3 2.5 1.1-1.6 2.7-2.5 4.8-2.5 1.7 0 3 .5 3.9 1.5.8 1 1.3 2.5 1.3 4.6v10.2h-4.3V37.3c0-.9-.2-1.6-.5-2-.4-.4-1-.6-1.9-.6-1.3 0-2.2.6-2.7 1.8v11h-4.3V37.3c0-.9-.2-1.6-.6-2-.4-.4-1-.6-1.9-.6-1.2 0-2.1.5-2.6 1.5v11.3H363v-16h4.1zM396.8 47.8c-2.4 0-4.3-.7-5.7-2.2-1.5-1.4-2.2-3.4-2.2-5.8v-.4c0-1.6.3-3.1.9-4.3.6-1.3 1.5-2.2 2.6-2.9 1.1-.7 2.4-1 3.9-1 2.2 0 3.9.7 5.2 2.1 1.3 1.4 1.9 3.3 1.9 5.9V41h-10.2c.1 1 .6 1.9 1.3 2.5.7.6 1.6.9 2.6.9 1.7 0 2.9-.6 3.9-1.8l2.1 2.4c-.6.9-1.5 1.6-2.6 2.1-1.2.5-2.4.7-3.7.7zm-.5-13.2c-.8 0-1.5.3-2.1.9-.5.6-.9 1.4-1 2.5h6v-.3c0-1-.3-1.7-.8-2.2-.5-.6-1.2-.9-2.1-.9zM411 27.5v3.9h2.7v3.1H411v8c0 .6.1 1 .3 1.3.2.3.7.4 1.3.4.5 0 .9 0 1.3-.1v3.2c-.8.3-1.7.4-2.6.4-3 0-4.5-1.5-4.6-4.5v-8.7h-2.3v-3.1h2.3v-3.9h4.3zM416.1 27.3c0-.6.2-1.2.6-1.6s1-.6 1.8-.6c.7 0 1.3.2 1.8.6s.6.9.6 1.6c0 .7-.2 1.2-.7 1.6-.4.4-1 .6-1.7.6s-1.3-.2-1.7-.6-.7-.9-.7-1.6zm4.5 20.2h-4.3v-16h4.3v16zM430.8 44.4c.8 0 1.4-.2 1.9-.6s.7-1 .8-1.7h4c0 1.1-.3 2.1-.9 3s-1.4 1.6-2.4 2.1-2.1.7-3.4.7c-2.3 0-4.1-.7-5.4-2.2-1.3-1.5-2-3.5-2-6v-.3c0-2.5.7-4.4 2-5.9s3.1-2.2 5.4-2.2c2 0 3.6.6 4.8 1.7s1.8 2.7 1.8 4.6h-4c0-.8-.3-1.5-.8-2s-1.1-.8-2-.8c-1 0-1.8.4-2.3 1.1s-.8 1.9-.8 3.5v.4c0 1.6.3 2.8.8 3.6.7.6 1.5 1 2.5 1zM448.7 43.1c0-.5-.3-.9-.8-1.2-.5-.3-1.4-.6-2.5-.8-3.8-.8-5.7-2.4-5.7-4.9 0-1.4.6-2.6 1.8-3.6 1.2-1 2.7-1.4 4.6-1.4 2 0 3.7.5 4.9 1.4 1.2 1 1.8 2.2 1.8 3.7h-4.3c0-.6-.2-1.1-.6-1.5-.4-.4-1-.6-1.8-.6-.7 0-1.3.2-1.7.5-.4.3-.6.7-.6 1.3 0 .5.2.9.7 1.2.5.3 1.2.5 2.3.8 1.1.2 2 .4 2.7.7 2.3.8 3.4 2.3 3.4 4.3 0 1.5-.6 2.6-1.9 3.5-1.3.9-2.9 1.4-4.9 1.4-1.3 0-2.5-.2-3.6-.7-1-.5-1.9-1.1-2.5-2-.6-.8-.9-1.7-.9-2.7h4.1c0 .8.3 1.3.9 1.7.5.4 1.2.6 2.1.6.8 0 1.4-.2 1.9-.5s.6-.7.6-1.2zM467.1 43.9h9.4v3.6h-13.9V25.9h4.5v18zM488.1 47.5c-.2-.4-.3-.9-.4-1.4-1 1.2-2.4 1.7-4 1.7s-2.9-.5-3.9-1.4-1.5-2.1-1.5-3.4c0-1.7.6-3 1.9-3.9 1.3-.9 3.1-1.4 5.5-1.4h2v-.9c0-.7-.2-1.3-.6-1.8-.4-.4-1-.7-1.8-.7-.7 0-1.3.2-1.7.5-.4.3-.6.8-.6 1.4h-4.3c0-.9.3-1.8.9-2.6.6-.8 1.4-1.4 2.4-1.9s2.2-.7 3.5-.7c2 0 3.5.5 4.7 1.5 1.2 1 1.7 2.4 1.7 4.2v6.9c0 1.5.2 2.7.6 3.5v.3h-4.4zm-3.6-3c.6 0 1.2-.1 1.8-.4.5-.3.9-.7 1.2-1.1v-2.8h-1.6c-2.1 0-3.3.7-3.4 2.2v.3c0 .5.2 1 .6 1.3.3.4.8.5 1.4.5zM509.5 39.6c0 2.6-.5 4.6-1.6 6s-2.6 2.2-4.6 2.2c-1.7 0-3.1-.7-4.2-2l-.2 1.7H495V24.7h4.3v8.2c1-1.2 2.3-1.7 3.9-1.7 2 0 3.5.7 4.6 2.2 1.1 1.4 1.7 3.5 1.7 6.1v.1zm-4.2-.3c0-1.6-.3-2.8-.8-3.6-.5-.7-1.3-1.1-2.3-1.1-1.4 0-2.3.6-2.8 1.7v6.3c.5 1.1 1.5 1.7 2.9 1.7s2.3-.7 2.7-2c.2-.6.3-1.6.3-3zM519.6 47.8c-2.4 0-4.3-.7-5.7-2.2-1.5-1.4-2.2-3.4-2.2-5.8v-.4c0-1.6.3-3.1.9-4.3.6-1.3 1.5-2.2 2.6-2.9 1.1-.7 2.4-1 3.9-1 2.2 0 3.9.7 5.2 2.1s1.9 3.3 1.9 5.9V41H516c.1 1 .6 1.9 1.3 2.5.7.6 1.6.9 2.6.9 1.7 0 2.9-.6 3.9-1.8l2.1 2.4c-.6.9-1.5 1.6-2.6 2.1-1.2.5-2.4.7-3.7.7zm-.5-13.2c-.8 0-1.5.3-2.1.9-.5.6-.9 1.4-1 2.5h6v-.3c0-1-.3-1.7-.8-2.2-.5-.6-1.2-.9-2.1-.9zM533.1 47.5h-4.3V24.7h4.3v22.8zM536.6 27.3c0-.6.2-1.2.6-1.6s1-.6 1.8-.6c.7 0 1.3.2 1.8.6.4.4.6.9.6 1.6 0 .7-.2 1.2-.7 1.6s-1 .6-1.7.6-1.3-.2-1.7-.6c-.5-.4-.7-.9-.7-1.6zm4.6 20.2h-4.3v-16h4.3v16zM548.6 31.5l.1 1.9c1.2-1.4 2.7-2.2 4.6-2.2 1.7 0 3 .5 3.8 1.5.8 1 1.3 2.5 1.3 4.5v10.4h-4.3V37.2c0-.9-.2-1.6-.6-2-.4-.4-1.1-.6-2-.6-1.2 0-2.1.5-2.7 1.5v11.3h-4.3V31.5h4.1zM561.1 39.4c0-2.5.6-4.4 1.8-5.9 1.2-1.5 2.7-2.3 4.7-2.3 1.8 0 3.1.6 4.1 1.8l.2-1.5h3.9V47c0 1.4-.3 2.6-1 3.7-.6 1-1.5 1.8-2.7 2.4-1.2.5-2.5.8-4.1.8-1.2 0-2.3-.2-3.4-.7-1.1-.5-2-1.1-2.5-1.8l1.9-2.6c1.1 1.2 2.4 1.8 3.9 1.8 1.1 0 2-.3 2.7-.9s1-1.5 1-2.6v-.9c-1 1.1-2.3 1.7-3.9 1.7-1.9 0-3.5-.8-4.7-2.3-1.2-1.5-1.8-3.5-1.8-6v-.2zm4.3.3c0 1.5.3 2.6.9 3.4.6.8 1.4 1.2 2.4 1.2 1.3 0 2.2-.5 2.8-1.5V36c-.6-1-1.5-1.5-2.8-1.5-1 0-1.8.4-2.4 1.3s-.9 2.2-.9 3.9zM594.1 39.6h-3.5v7.9h-4.5V25.9h8c2.6 0 4.5.6 5.9 1.7 1.4 1.1 2.1 2.7 2.1 4.8 0 1.5-.3 2.7-1 3.7-.6 1-1.6 1.8-2.9 2.4l4.7 8.8v.2h-4.8l-4-7.9zm-3.6-3.6h3.6c1.1 0 2-.3 2.6-.9.6-.6.9-1.4.9-2.4s-.3-1.8-.9-2.4-1.5-.9-2.7-.9h-3.6V36zM612.6 47.8c-2.4 0-4.3-.7-5.7-2.2-1.5-1.4-2.2-3.4-2.2-5.8v-.4c0-1.6.3-3.1.9-4.3.6-1.3 1.5-2.2 2.6-2.9 1.1-.7 2.4-1 3.9-1 2.2 0 3.9.7 5.2 2.1 1.3 1.4 1.9 3.3 1.9 5.9V41H609c.1 1 .6 1.9 1.3 2.5.7.6 1.6.9 2.6.9 1.7 0 2.9-.6 3.9-1.8l2.1 2.4c-.6.9-1.5 1.6-2.6 2.1-1.2.5-2.4.7-3.7.7zm-.5-13.2c-.8 0-1.5.3-2.1.9-.5.6-.9 1.4-1 2.5h6v-.3c0-1-.3-1.7-.8-2.2-.5-.6-1.2-.9-2.1-.9zM620.9 39.3c0-2.5.6-4.5 1.7-6s2.7-2.2 4.6-2.2c1.7 0 3.1.7 4.1 2l.3-1.7h3.8v22.2h-4.3V46c-1 1.1-2.3 1.7-3.9 1.7-1.9 0-3.4-.7-4.6-2.2s-1.7-3.5-1.7-6.2zm4.3.3c0 1.5.3 2.7.8 3.5.5.8 1.3 1.2 2.3 1.2 1.3 0 2.2-.5 2.8-1.6v-6.6c-.5-1-1.5-1.5-2.8-1.5-1 0-1.8.4-2.3 1.2-.5.8-.8 2.1-.8 3.8zM648.4 45.9c-1.1 1.3-2.5 1.9-4.4 1.9-1.7 0-3-.5-3.9-1.5-.9-1-1.4-2.4-1.4-4.3V31.5h4.3v10.4c0 1.7.8 2.5 2.3 2.5 1.5 0 2.5-.5 3-1.5V31.5h4.3v16.1h-4l-.2-1.7zM655.7 27.3c0-.6.2-1.2.6-1.6s1-.6 1.8-.6c.7 0 1.3.2 1.8.6.4.4.6.9.6 1.6 0 .7-.2 1.2-.7 1.6-.4.4-1 .6-1.7.6s-1.3-.2-1.7-.6-.7-.9-.7-1.6zm4.6 20.2H656v-16h4.3v16zM672.8 35.5c-.6-.1-1.1-.1-1.5-.1-1.6 0-2.7.5-3.2 1.6v10.5h-4.3v-16h4.1l.1 1.9c.9-1.5 2-2.2 3.6-2.2.5 0 .9.1 1.3.2l-.1 4.1zM682.3 47.8c-2.4 0-4.3-.7-5.7-2.2-1.5-1.4-2.2-3.4-2.2-5.8v-.4c0-1.6.3-3.1.9-4.3.6-1.3 1.5-2.2 2.6-2.9 1.1-.7 2.4-1 3.9-1 2.2 0 3.9.7 5.2 2.1 1.3 1.4 1.9 3.3 1.9 5.9V41h-10.2c.1 1 .6 1.9 1.3 2.5.7.6 1.6.9 2.6.9 1.7 0 2.9-.6 3.9-1.8l2.1 2.4c-.6.9-1.5 1.6-2.6 2.1-1.2.5-2.4.7-3.7.7zm-.5-13.2c-.8 0-1.5.3-2.1.9-.5.6-.9 1.4-1 2.5h6v-.3c0-1-.3-1.7-.8-2.2-.5-.6-1.2-.9-2.1-.9zM695.3 31.5l.1 1.8c1.1-1.4 2.7-2.1 4.6-2.1 2.1 0 3.5.8 4.3 2.5 1.1-1.6 2.7-2.5 4.8-2.5 1.7 0 3 .5 3.9 1.5.8 1 1.3 2.5 1.3 4.6v10.2H710V37.3c0-.9-.2-1.6-.5-2-.4-.4-1-.6-1.9-.6-1.3 0-2.2.6-2.7 1.8v11h-4.3V37.3c0-.9-.2-1.6-.6-2-.4-.4-1-.6-1.9-.6-1.2 0-2.1.5-2.6 1.5v11.3h-4.3v-16h4.1zM725 47.8c-2.4 0-4.3-.7-5.7-2.2-1.5-1.4-2.2-3.4-2.2-5.8v-.4c0-1.6.3-3.1.9-4.3.6-1.3 1.5-2.2 2.6-2.9 1.1-.7 2.4-1 3.9-1 2.2 0 3.9.7 5.2 2.1 1.3 1.4 1.9 3.3 1.9 5.9V41h-10.2c.1 1 .6 1.9 1.3 2.5.7.6 1.6.9 2.6.9 1.7 0 2.9-.6 3.9-1.8l2.1 2.4c-.6.9-1.5 1.6-2.6 2.1-1.2.5-2.4.7-3.7.7zm-.5-13.2c-.8 0-1.5.3-2.1.9-.5.6-.9 1.4-1 2.5h6v-.3c0-1-.3-1.7-.8-2.2-.5-.6-1.2-.9-2.1-.9zM738 31.5l.1 1.9c1.2-1.4 2.7-2.2 4.6-2.2 1.7 0 3 .5 3.8 1.5.8 1 1.3 2.5 1.3 4.5v10.4h-4.3V37.2c0-.9-.2-1.6-.6-2-.4-.4-1.1-.6-2-.6-1.2 0-2.1.5-2.7 1.5v11.3h-4.3V31.5h4.1zM756.2 27.5v3.9h2.7v3.1h-2.7v8c0 .6.1 1 .3 1.3s.7.4 1.3.4c.5 0 .9 0 1.3-.1v3.2c-.8.3-1.7.4-2.6.4-3 0-4.5-1.5-4.6-4.5v-8.7h-2.3v-3.1h2.3v-3.9h4.3zM770 43.1c0-.5-.3-.9-.8-1.2-.5-.3-1.4-.6-2.5-.8-3.8-.8-5.7-2.4-5.7-4.9 0-1.4.6-2.6 1.8-3.6 1.2-1 2.7-1.4 4.6-1.4 2 0 3.7.5 4.9 1.4 1.2 1 1.8 2.2 1.8 3.7h-4.3c0-.6-.2-1.1-.6-1.5-.4-.4-1-.6-1.8-.6-.7 0-1.3.2-1.7.5s-.6.7-.6 1.3c0 .5.2.9.7 1.2.5.3 1.2.5 2.3.8s2 .4 2.7.7c2.3.8 3.4 2.3 3.4 4.3 0 1.5-.6 2.6-1.9 3.5-1.3.9-2.9 1.4-4.9 1.4-1.3 0-2.5-.2-3.6-.7-1-.5-1.9-1.1-2.5-2-.6-.8-.9-1.7-.9-2.7h4.1c0 .8.3 1.3.9 1.7.5.4 1.2.6 2.1.6.8 0 1.4-.2 1.9-.5s.6-.7.6-1.2zM795.1 41.9c0-.8-.3-1.5-.9-1.9-.6-.4-1.7-.9-3.2-1.4s-2.8-1-3.7-1.5c-2.5-1.3-3.7-3.1-3.7-5.4 0-1.2.3-2.2 1-3.1.7-.9 1.6-1.6 2.8-2.1s2.6-.8 4.1-.8c1.5 0 2.9.3 4.1.8 1.2.6 2.1 1.3 2.8 2.4s1 2.2 1 3.5H795c0-1-.3-1.8-.9-2.3-.6-.5-1.5-.8-2.6-.8s-1.9.2-2.5.7-.9 1.1-.9 1.8.4 1.3 1.1 1.8c.7.5 1.8.9 3.1 1.3 2.5.8 4.4 1.7 5.5 2.8 1.2 1.1 1.7 2.5 1.7 4.2 0 1.9-.7 3.3-2.1 4.4-1.4 1.1-3.3 1.6-5.7 1.6-1.7 0-3.2-.3-4.5-.9s-2.4-1.4-3.1-2.5-1.1-2.3-1.1-3.7h4.5c0 2.4 1.4 3.6 4.3 3.6 1.1 0 1.9-.2 2.5-.6.5-.6.8-1.2.8-1.9zM802.3 27.3c0-.6.2-1.2.6-1.6s1-.6 1.8-.6c.7 0 1.3.2 1.8.6.4.4.6.9.6 1.6 0 .7-.2 1.2-.7 1.6-.4.4-1 .6-1.7.6s-1.3-.2-1.7-.6-.7-.9-.7-1.6zm4.6 20.2h-4.3v-16h4.3v16zM814.4 31.5l.1 1.8c1.1-1.4 2.7-2.1 4.6-2.1 2.1 0 3.5.8 4.3 2.5 1.1-1.6 2.7-2.5 4.8-2.5 1.7 0 3 .5 3.9 1.5.8 1 1.3 2.5 1.3 4.6v10.2h-4.3V37.3c0-.9-.2-1.6-.5-2-.4-.4-1-.6-1.9-.6-1.3 0-2.2.6-2.7 1.8v11h-4.3V37.3c0-.9-.2-1.6-.6-2-.4-.4-1-.6-1.9-.6-1.2 0-2.1.5-2.6 1.5v11.3h-4.3v-16h4.1zM851.1 39.6c0 2.5-.6 4.5-1.7 5.9-1.1 1.5-2.6 2.2-4.5 2.2-1.6 0-2.9-.6-3.9-1.7v7.6h-4.3V31.5h4l.1 1.6c1-1.3 2.4-1.9 4.1-1.9 2 0 3.5.7 4.6 2.2 1.1 1.5 1.6 3.5 1.6 6.1v.1zm-4.3-.3c0-1.5-.3-2.6-.8-3.5s-1.3-1.2-2.3-1.2c-1.3 0-2.3.5-2.8 1.5v6.6c.5 1.1 1.5 1.6 2.8 1.6 2.1.1 3.1-1.6 3.1-5zM858.3 47.5H854V24.7h4.3v22.8zM861.8 27.3c0-.6.2-1.2.6-1.6s1-.6 1.8-.6c.7 0 1.3.2 1.8.6.4.4.6.9.6 1.6 0 .7-.2 1.2-.7 1.6-.4.4-1 .6-1.7.6s-1.3-.2-1.7-.6-.7-.9-.7-1.6zm4.6 20.2h-4.3v-16h4.3v16zM871.1 47.5V34.6h-2.4v-3.1h2.4v-1.4c0-1.8.5-3.2 1.5-4.2s2.5-1.5 4.3-1.5c.6 0 1.3.1 2.2.3V28c-.4-.1-.8-.1-1.3-.1-1.6 0-2.4.8-2.4 2.3v1.3h3.2v3.1h-3.2v12.9h-4.3zM880.7 27.3c0-.6.2-1.2.6-1.6s1-.6 1.8-.6c.7 0 1.3.2 1.8.6.4.4.6.9.6 1.6 0 .7-.2 1.2-.7 1.6-.4.4-1 .6-1.7.6s-1.3-.2-1.7-.6-.7-.9-.7-1.6zm4.6 20.2H881v-16h4.3v16zM896.2 47.8c-2.4 0-4.3-.7-5.7-2.2-1.5-1.4-2.2-3.4-2.2-5.8v-.4c0-1.6.3-3.1.9-4.3.6-1.3 1.5-2.2 2.6-2.9 1.1-.7 2.4-1 3.9-1 2.2 0 3.9.7 5.2 2.1 1.3 1.4 1.9 3.3 1.9 5.9V41h-10.2c.1 1 .6 1.9 1.3 2.5.7.6 1.6.9 2.6.9 1.7 0 2.9-.6 3.9-1.8l2.1 2.4c-.6.9-1.5 1.6-2.6 2.1s-2.3.7-3.7.7zm-.5-13.2c-.8 0-1.5.3-2.1.9-.5.6-.9 1.4-1 2.5h6v-.3c0-1-.3-1.7-.8-2.2-.5-.6-1.2-.9-2.1-.9zM904.6 39.4c0-2.5.6-4.5 1.7-6s2.7-2.2 4.6-2.2c1.6 0 2.9.6 3.9 1.8v-8.2h4.3v22.8h-3.9l-.2-1.7c-1.1 1.3-2.4 2-4.1 2-1.9 0-3.4-.7-4.5-2.2-1.2-1.6-1.8-3.7-1.8-6.3zm4.3.3c0 1.5.3 2.7.8 3.5.5.8 1.3 1.2 2.3 1.2 1.3 0 2.3-.6 2.8-1.7v-6.3c-.5-1.1-1.5-1.7-2.8-1.7-2.1 0-3.1 1.6-3.1 5z"/>
<g><path class="st2" d="M80.5 178.7v3h-1.8v-8.6h3.4c.6 0 1.2.1 1.7.4s.9.6 1.1 1c.3.4.4.9.4 1.5 0 .8-.3 1.5-.9 2-.6.5-1.4.7-2.4.7h-1.5zm0-1.5h1.6c.5 0 .8-.1 1.1-.3.2-.2.4-.5.4-.9s-.1-.8-.4-1c-.2-.3-.6-.4-1-.4h-1.6v2.6zM90 176.9h-.6c-.6 0-1.1.2-1.3.7v4.2h-1.7v-6.4H88v.8c.3-.6.8-.9 1.4-.9.2 0 .4 0 .5.1l.1 1.5zM90.8 173.7c0-.3.1-.5.3-.6.2-.2.4-.2.7-.2.3 0 .5.1.7.2.2.2.3.4.3.6 0 .3-.1.5-.3.6-.2.2-.4.3-.7.3-.3 0-.5-.1-.7-.3-.2-.2-.3-.4-.3-.6zm1.8 8h-1.7v-6.4h1.7v6.4zM95.6 175.3l.1.7c.5-.6 1.1-.9 1.8-.9s1.2.2 1.5.6c.3.4.5 1 .5 1.8v4.1h-1.7v-4.1c0-.4-.1-.6-.2-.8s-.4-.2-.8-.2c-.5 0-.8.2-1.1.6v4.5H94v-6.4h1.6zM103.5 180.5c.3 0 .6-.1.8-.3s.3-.4.3-.7h1.6c0 .4-.1.8-.4 1.2-.2.4-.6.6-1 .8-.4.2-.9.3-1.3.3-.9 0-1.6-.3-2.2-.9-.5-.6-.8-1.4-.8-2.4v-.1c0-1 .3-1.8.8-2.4.5-.6 1.2-.9 2.2-.9.8 0 1.4.2 1.9.7.5.5.7 1.1.7 1.8h-1.6c0-.3-.1-.6-.3-.8s-.5-.3-.8-.3c-.4 0-.7.1-.9.4s-.3.8-.3 1.4v.2c0 .7.1 1.1.3 1.4.3.4.6.6 1 .6zM107.2 173.7c0-.3.1-.5.3-.6.2-.2.4-.2.7-.2.3 0 .5.1.7.2.2.2.3.4.3.6 0 .3-.1.5-.3.6-.2.2-.4.3-.7.3-.3 0-.5-.1-.7-.3-.3-.2-.3-.4-.3-.6zm1.8 8h-1.7v-6.4h1.7v6.4zM116.1 178.6c0 1-.2 1.8-.7 2.4-.4.6-1.1.9-1.8.9-.6 0-1.2-.2-1.6-.7v3h-1.7v-8.9h1.6l.1.6c.4-.5 1-.7 1.6-.7.8 0 1.4.3 1.8.9.5.6.7 1.4.7 2.5zm-1.7-.1c0-.6-.1-1.1-.3-1.4-.2-.3-.5-.5-.9-.5-.5 0-.9.2-1.1.6v2.6c.2.4.6.6 1.1.6.8.1 1.2-.6 1.2-1.9zM120.9 181.7c-.1-.2-.1-.3-.2-.6-.4.5-1 .7-1.6.7-.6 0-1.2-.2-1.6-.5-.4-.4-.6-.8-.6-1.4 0-.7.3-1.2.8-1.6.5-.4 1.2-.5 2.2-.5h.8v-.4c0-.3-.1-.5-.2-.7-.2-.2-.4-.3-.7-.3-.3 0-.5.1-.7.2s-.2.3-.2.6h-1.7c0-.4.1-.7.3-1 .2-.3.6-.6 1-.7.4-.2.9-.3 1.4-.3.8 0 1.4.2 1.9.6.5.4.7 1 .7 1.7v2.8c0 .6.1 1.1.3 1.4v.1h-1.9zm-1.4-1.2c.3 0 .5-.1.7-.2s.4-.3.5-.5v-1.1h-.7c-.9 0-1.3.3-1.4.9v.1c0 .2.1.4.2.5.2.3.4.3.7.3zM125.5 181.7h-1.7v-9.1h1.7v9.1zM129.3 178.5c0-1 .2-1.8.7-2.4s1.1-.9 1.8-.9c.6 0 1.1.2 1.5.7v-3.3h1.7v9.1h-1.5l-.1-.7c-.4.5-1 .8-1.6.8-.8 0-1.4-.3-1.8-.9-.4-.5-.7-1.4-.7-2.4zm1.8.1c0 .6.1 1.1.3 1.4.2.3.5.5.9.5.5 0 .9-.2 1.1-.7v-2.5c-.2-.4-.6-.7-1.1-.7-.8 0-1.2.7-1.2 2zM136.4 173.7c0-.3.1-.5.3-.6.2-.2.4-.2.7-.2.3 0 .5.1.7.2.2.2.3.4.3.6 0 .3-.1.5-.3.6-.2.2-.4.3-.7.3s-.5-.1-.7-.3c-.2-.2-.3-.4-.3-.6zm1.8 8h-1.7v-6.4h1.7v6.4zM143.1 179.9c0-.2-.1-.4-.3-.5-.2-.1-.5-.2-1-.3-1.5-.3-2.3-1-2.3-1.9 0-.6.2-1 .7-1.4.5-.4 1.1-.6 1.9-.6.8 0 1.5.2 1.9.6.5.4.7.9.7 1.5H143c0-.2-.1-.5-.2-.6-.2-.2-.4-.2-.7-.2-.3 0-.5.1-.7.2-.2.1-.2.3-.2.5s.1.3.3.5c.2.1.5.2.9.3.4.1.8.2 1.1.3.9.3 1.4.9 1.4 1.7 0 .6-.3 1.1-.8 1.4-.5.4-1.1.5-1.9.5-.5 0-1-.1-1.4-.3-.4-.2-.7-.5-1-.8s-.4-.7-.4-1.1h1.6c0 .3.1.5.3.7.2.2.5.2.8.2.3 0 .6-.1.7-.2s.3-.2.3-.5zM151.6 178.6c0 1-.2 1.8-.7 2.4-.4.6-1.1.9-1.8.9-.6 0-1.2-.2-1.6-.7v3h-1.7v-8.9h1.6l.1.6c.4-.5 1-.7 1.6-.7.8 0 1.4.3 1.8.9.5.6.7 1.4.7 2.5zm-1.7-.1c0-.6-.1-1.1-.3-1.4-.2-.3-.5-.5-.9-.5-.5 0-.9.2-1.1.6v2.6c.2.4.6.6 1.1.6.8.1 1.2-.6 1.2-1.9zM154.5 181.7h-1.7v-9.1h1.7v9.1zM159.6 181.7c-.1-.2-.1-.3-.2-.6-.4.5-1 .7-1.6.7-.6 0-1.2-.2-1.6-.5-.4-.4-.6-.8-.6-1.4 0-.7.3-1.2.8-1.6.5-.4 1.2-.5 2.2-.5h.8v-.4c0-.3-.1-.5-.2-.7-.2-.2-.4-.3-.7-.3-.3 0-.5.1-.7.2s-.2.3-.2.6h-1.7c0-.4.1-.7.3-1 .2-.3.6-.6 1-.7.4-.2.9-.3 1.4-.3.8 0 1.4.2 1.9.6.5.4.7 1 .7 1.7v2.8c0 .6.1 1.1.3 1.4v.1h-1.9zm-1.4-1.2c.3 0 .5-.1.7-.2s.4-.3.5-.5v-1.1h-.6c-.9 0-1.3.3-1.4.9v.1c0 .2.1.4.2.5.2.3.4.3.6.3zM164.8 179.3l1.2-4h1.8l-2.6 7.4-.1.3c-.4.8-1 1.3-1.9 1.3-.2 0-.5 0-.8-.1v-1.3h.3c.3 0 .6 0 .7-.1.2-.1.3-.3.4-.5l.2-.5-2.2-6.4h1.8l1.2 3.9zM177 178.6c0 1-.2 1.8-.7 2.4-.4.6-1.1.9-1.8.9-.6 0-1.2-.2-1.6-.7v3h-1.7v-8.9h1.6l.1.6c.4-.5 1-.7 1.6-.7.8 0 1.4.3 1.8.9.4.6.7 1.4.7 2.5zm-1.7-.1c0-.6-.1-1.1-.3-1.4-.2-.3-.5-.5-.9-.5-.5 0-.9.2-1.1.6v2.6c.2.4.6.6 1.1.6.7.1 1.2-.6 1.2-1.9zM181.7 181.7c-.1-.2-.1-.3-.2-.6-.4.5-1 .7-1.6.7-.6 0-1.1-.2-1.6-.5-.4-.4-.6-.8-.6-1.4 0-.7.3-1.2.8-1.6.5-.4 1.2-.5 2.2-.5h.8v-.4c0-.3-.1-.5-.2-.7s-.4-.3-.7-.3c-.3 0-.5.1-.7.2-.2.1-.2.3-.2.6H178c0-.4.1-.7.3-1 .2-.3.6-.6 1-.7.4-.2.9-.3 1.4-.3.8 0 1.4.2 1.9.6.5.4.7 1 .7 1.7v2.8c0 .6.1 1.1.3 1.4v.1h-1.9zm-1.4-1.2c.3 0 .5-.1.7-.2s.4-.3.5-.5v-1.1h-.6c-.9 0-1.3.3-1.4.9v.1c0 .2.1.4.2.5.2.3.4.3.6.3zM186.1 175.3l.1.7c.5-.6 1.1-.9 1.8-.9s1.2.2 1.5.6c.3.4.5 1 .5 1.8v4.1h-1.7v-4.1c0-.4-.1-.6-.2-.8s-.4-.2-.8-.2c-.5 0-.8.2-1.1.6v4.5h-1.7v-6.4h1.6zM194.3 181.8c-.9 0-1.7-.3-2.3-.9s-.9-1.3-.9-2.3v-.2c0-.6.1-1.2.4-1.7.3-.5.6-.9 1.1-1.2.5-.3 1-.4 1.6-.4.9 0 1.6.3 2.1.8.5.6.8 1.3.8 2.3v.7H193c.1.4.2.8.5 1s.6.4 1.1.4c.7 0 1.2-.2 1.5-.7l.8.9c-.3.4-.6.6-1 .9-.6.3-1.1.4-1.6.4zm-.2-5.2c-.3 0-.6.1-.8.3-.2.2-.3.6-.4 1h2.4v-.1c0-.4-.1-.7-.3-.9s-.6-.3-.9-.3zM199.7 181.7H198v-9.1h1.7v9.1z"/></g>
<g><path class="st2" d="M86.5 192v3.2H85v-8.6h3.3c1 0 1.7.3 2.3.8.6.5.8 1.2.8 2s-.3 1.5-.8 2c-.6.5-1.3.7-2.3.7h-1.8zm0-1.2h1.8c.5 0 .9-.1 1.2-.4.3-.2.4-.6.4-1.1 0-.5-.1-.8-.4-1.1-.3-.3-.7-.4-1.2-.4h-1.8v3zM92.7 195.2v-8.6h2.5c.8 0 1.4.2 2 .5.6.3 1 .8 1.4 1.4.3.6.5 1.3.5 2.1v.4c0 .8-.2 1.5-.5 2.2s-.8 1.1-1.4 1.4-1.3.5-2.1.5h-2.4zm1.5-7.4v6.2h1c.8 0 1.4-.2 1.8-.7.4-.5.6-1.2.6-2.1v-.5c0-.9-.2-1.7-.6-2.1-.4-.5-1-.7-1.8-.7h-1zM102.1 192v3.2h-1.5v-8.6h3.3c1 0 1.7.3 2.3.8.6.5.8 1.2.8 2s-.3 1.5-.8 2c-.6.5-1.3.7-2.3.7h-1.8zm0-1.2h1.8c.5 0 .9-.1 1.2-.4.3-.2.4-.6.4-1.1 0-.5-.1-.8-.4-1.1-.3-.3-.7-.4-1.2-.4h-1.8v3zM114.2 187.8l-.2.2-.3.3c-.1.1-.2.2-.3.4-.1.1-.2.3-.3.4-.1.2-.2.3-.3.5l-.3.6c-.1.2-.2.5-.2.7-.1.3-.1.5-.1.8 0 .3 0 .7.1 1 .1.3.2.7.4 1s.4.7.7 1c.3.3.6.7.9 1l-.8.9c-.9-.8-1.5-1.6-1.9-2.4-.4-.8-.6-1.7-.6-2.5v-.1c0-.3 0-.6.1-.9s.1-.6.3-.9c.1-.3.2-.6.4-.8s.3-.5.5-.8c.2-.2.4-.5.6-.7s.4-.5.7-.7l.6 1zM116.6 189.5v.7c.4-.5 1-.8 1.7-.8 1.2 0 1.8.7 1.8 2v3.8h-1.3v-3.7c0-.4-.1-.6-.2-.8s-.4-.3-.8-.3c-.5 0-.9.2-1.2.7v4.1h-1.3v-5.7h1.3zM124.8 195.2c-.1-.1-.1-.3-.1-.5-.4.4-.9.6-1.5.6s-1-.2-1.4-.5c-.4-.3-.5-.7-.5-1.2 0-.6.2-1.1.7-1.4.5-.3 1.1-.5 1.9-.5h.8v-.4c0-.3-.1-.5-.2-.7-.2-.2-.4-.3-.8-.3-.3 0-.5.1-.7.2-.2.1-.3.3-.3.6h-1.3c0-.3.1-.6.3-.9.2-.3.5-.5.8-.6.4-.2.8-.2 1.2-.2.7 0 1.2.2 1.6.5.4.3.6.8.6 1.4v2.6c0 .5.1.9.2 1.2v.1h-1.3zm-1.4-1c.3 0 .5-.1.7-.2.2-.1.4-.3.5-.5v-1.1h-.7c-.5 0-.8.1-1.1.2-.2.2-.4.4-.4.7 0 .2.1.4.2.6.3.3.5.3.8.3zM128.4 189.5v.6c.4-.5.9-.7 1.6-.7.8 0 1.3.3 1.6.9.4-.6 1-.9 1.7-.9.6 0 1.1.2 1.4.5s.5.9.5 1.5v3.7H134v-3.7c0-.4-.1-.6-.2-.8-.2-.2-.4-.3-.8-.3-.3 0-.5.1-.7.2-.2.2-.3.4-.4.6v3.9h-1.3v-3.7c0-.7-.4-1-1-1-.5 0-.9.2-1.1.6v4.1h-1.3v-5.7h1.2zM139.1 195.3c-.8 0-1.5-.3-2-.8s-.8-1.2-.8-2v-.2c0-.6.1-1.1.3-1.5.2-.4.5-.8.9-1 .4-.2.8-.4 1.3-.4.8 0 1.4.2 1.8.7.4.5.6 1.2.6 2.1v.5h-3.7c0 .5.2.8.5 1.1s.6.4 1 .4c.6 0 1.1-.2 1.4-.7l.7.7c-.2.3-.5.6-.9.8-.2.2-.6.3-1.1.3zm-.1-4.9c-.4 0-.6.1-.8.4-.2.2-.4.6-.4 1h2.4v-.1c0-.4-.1-.8-.3-1-.3-.2-.6-.3-.9-.3zM142.6 196.9l-.7-.4c.2-.3.3-.6.4-.8.1-.2.1-.5.1-.7v-1h1.2v.9c0 .4-.1.7-.3 1.1-.2.3-.4.6-.7.9zM149.9 194.2c.3 0 .6-.1.8-.3s.3-.4.3-.7h1.2c0 .4-.1.7-.3 1-.2.3-.5.5-.8.7-.4.2-.7.3-1.1.3-.8 0-1.4-.3-1.9-.8s-.7-1.2-.7-2.1v-.1c0-.9.2-1.6.7-2.1.5-.5 1.1-.8 1.9-.8.7 0 1.2.2 1.7.6.4.4.6.9.7 1.6h-1.2c0-.3-.1-.6-.3-.8s-.5-.3-.8-.3c-.4 0-.7.2-1 .5s-.3.8-.3 1.4v.2c0 .6.1 1.1.3 1.4.1.2.4.3.8.3zM153 192.3c0-.6.1-1.1.3-1.5.2-.4.5-.8.9-1 .4-.2.9-.4 1.4-.4.8 0 1.4.2 1.9.7s.7 1.1.8 2v.3c0 .6-.1 1.1-.3 1.5-.2.4-.5.8-.9 1-.4.2-.9.4-1.4.4-.8 0-1.4-.3-1.9-.8-.6-.6-.8-1.3-.8-2.2zm1.3.1c0 .6.1 1 .4 1.4.2.3.6.5 1 .5s.8-.2 1-.5.4-.8.4-1.5c0-.6-.1-1-.4-1.4-.2-.3-.6-.5-1-.5s-.7.2-1 .5-.4.8-.4 1.5zM162.6 193.6c0-.2-.1-.4-.3-.5-.2-.1-.5-.2-.9-.3-.4-.1-.8-.2-1.1-.3-.6-.3-1-.8-1-1.3s.2-.9.6-1.2.9-.5 1.6-.5c.7 0 1.2.2 1.7.5s.6.8.6 1.3h-1.3c0-.2-.1-.5-.3-.6-.2-.2-.4-.2-.7-.2-.3 0-.5.1-.7.2-.2.1-.3.3-.3.5s.1.3.2.5c.2.1.5.2 1 .3.5.1.9.2 1.2.4.3.2.5.3.6.6.1.2.2.5.2.8 0 .5-.2.9-.6 1.2-.4.3-1 .5-1.7.5-.5 0-.9-.1-1.2-.3s-.6-.4-.9-.7c-.2-.3-.3-.6-.3-1h1.2c0 .3.1.5.3.7.2.2.5.2.8.2.3 0 .6-.1.8-.2.4-.2.5-.4.5-.6zM166.1 189.5v.6c.4-.5.9-.7 1.6-.7.8 0 1.3.3 1.6.9.4-.6 1-.9 1.7-.9.6 0 1.1.2 1.4.5s.5.9.5 1.5v3.7h-1.3v-3.7c0-.4-.1-.6-.2-.8-.2-.2-.4-.3-.8-.3-.3 0-.5.1-.7.2-.2.2-.3.4-.4.6v3.9h-1.3v-3.7c0-.7-.4-1-1-1-.5 0-.9.2-1.1.6v4.1h-1.3v-5.7h1.3zM176.8 195.3c-.8 0-1.5-.3-2-.8s-.8-1.2-.8-2v-.2c0-.6.1-1.1.3-1.5.2-.4.5-.8.9-1 .4-.2.8-.4 1.3-.4.8 0 1.4.2 1.8.7.4.5.6 1.2.6 2.1v.5h-3.7c0 .5.2.8.5 1.1s.6.4 1 .4c.6 0 1.1-.2 1.4-.7l.7.7c-.2.3-.5.6-.9.8-.2.2-.6.3-1.1.3zm-.1-4.9c-.4 0-.6.1-.9.4-.2.2-.4.6-.4 1h2.4v-.1c0-.4-.1-.8-.3-1-.2-.2-.5-.3-.8-.3zM181.7 188.1v1.4h1v.9h-1v3.2c0 .2 0 .4.1.5.1.1.2.1.5.1.1 0 .3 0 .4-.1v1c-.3.1-.6.1-.8.1-1 0-1.5-.5-1.5-1.6v-3.2h-.9v-.9h.9v-1.4h1.3zM183.7 188c0-.2.1-.4.2-.5s.3-.2.5-.2.4.1.5.2c.1.1.2.3.2.5s-.1.4-.2.5c-.1.1-.3.2-.5.2s-.4-.1-.5-.2c-.2-.2-.2-.3-.2-.5zm1.3 7.2h-1.3v-5.7h1.3v5.7zM188.8 194.2c.3 0 .6-.1.8-.3s.3-.4.3-.7h1.2c0 .4-.1.7-.3 1-.2.3-.5.5-.8.7-.4.2-.7.3-1.1.3-.8 0-1.4-.3-1.9-.8s-.7-1.2-.7-2.1v-.1c0-.9.2-1.6.7-2.1.5-.5 1.1-.8 1.9-.8.7 0 1.2.2 1.7.6.4.4.6.9.7 1.6h-1.2c0-.3-.1-.6-.3-.8s-.5-.3-.8-.3c-.4 0-.7.2-1 .5s-.3.8-.3 1.4v.2c0 .6.1 1.1.3 1.4 0 .2.4.3.8.3zM100.8 200c0-.2.1-.4.2-.5s.3-.2.5-.2.4.1.5.2c.1.1.2.3.2.5s-.1.4-.2.5c-.1.1-.3.2-.5.2s-.4-.1-.5-.2c-.1-.2-.2-.3-.2-.5zm1.4 7.2h-1.3v-5.7h1.3v5.7zM103.3 204.3c0-.9.2-1.6.6-2.1.4-.5 1-.8 1.6-.8.6 0 1.1.2 1.5.6v-2.9h1.3v8.1h-1.2l-.1-.6c-.4.5-.9.7-1.5.7-.7 0-1.2-.3-1.6-.8-.4-.6-.6-1.3-.6-2.2zm1.3.1c0 .6.1 1 .3 1.4.2.3.5.5.9.5.5 0 .9-.2 1.1-.7v-2.4c-.2-.5-.6-.7-1.1-.7-.4 0-.7.2-1 .5-.1.2-.2.7-.2 1.4zM112.2 207.3c-.8 0-1.5-.3-2-.8s-.8-1.2-.8-2v-.2c0-.6.1-1.1.3-1.5.2-.4.5-.8.9-1 .4-.2.8-.4 1.3-.4.8 0 1.4.2 1.8.7.4.5.6 1.2.6 2.1v.5h-3.7c0 .5.2.8.5 1.1s.6.4 1 .4c.6 0 1.1-.2 1.4-.7l.7.7c-.2.3-.5.6-.9.8-.2.2-.7.3-1.1.3zm-.2-4.9c-.4 0-.6.1-.9.4-.2.2-.4.6-.4 1h2.4v-.1c0-.4-.1-.8-.3-1-.1-.2-.4-.3-.8-.3zM116.6 201.5v.7c.4-.5 1-.8 1.7-.8 1.2 0 1.8.7 1.8 2v3.8h-1.3v-3.7c0-.4-.1-.6-.2-.8s-.4-.3-.8-.3c-.5 0-.9.2-1.2.7v4.1h-1.3v-5.7h1.3zM123 200.1v1.4h1v.9h-1v3.2c0 .2 0 .4.1.5.1.1.2.1.5.1.1 0 .3 0 .4-.1v1c-.3.1-.6.1-.8.1-1 0-1.5-.5-1.5-1.6v-3.2h-.9v-.9h.9v-1.4h1.3zM125 200c0-.2.1-.4.2-.5s.3-.2.5-.2.4.1.5.2c.1.1.2.3.2.5s-.1.4-.2.5c-.1.1-.3.2-.5.2s-.4-.1-.5-.2c-.1-.2-.2-.3-.2-.5zm1.4 7.2h-1.3v-5.7h1.3v5.7zM129.4 200.1v1.4h1v.9h-1v3.2c0 .2 0 .4.1.5.1.1.2.1.5.1.1 0 .3 0 .4-.1v1c-.3.1-.6.1-.8.1-1 0-1.5-.5-1.5-1.6v-3.2h-.9v-.9h.9v-1.4h1.3zM133.4 205.3l1.2-3.9h1.4l-2.3 6.6c-.3 1-.9 1.4-1.8 1.4-.2 0-.4 0-.6-.1v-1h.2c.3 0 .6-.1.7-.2.2-.1.3-.3.4-.6l.2-.5-2-5.7h1.4l1.2 4zM136.8 208.9l-.7-.4c.2-.3.3-.6.4-.8.1-.2.1-.5.1-.7v-1h1.2v.9c0 .4-.1.7-.3 1.1-.2.3-.4.6-.7.9zM143 201.5v.7c.4-.5 1-.8 1.7-.8 1.2 0 1.8.7 1.8 2v3.8h-1.3v-3.7c0-.4-.1-.6-.2-.8-.2-.2-.4-.3-.8-.3-.5 0-.9.2-1.2.7v4.1h-1.3v-5.7h1.3zM150.3 207.3c-.8 0-1.5-.3-2-.8s-.8-1.2-.8-2v-.2c0-.6.1-1.1.3-1.5.2-.4.5-.8.9-1 .4-.2.8-.4 1.3-.4.8 0 1.4.2 1.8.7.4.5.6 1.2.6 2.1v.5h-3.7c0 .5.2.8.5 1.1s.6.4 1 .4c.6 0 1.1-.2 1.4-.7l.7.7c-.2.3-.5.6-.9.8-.2.2-.6.3-1.1.3zm-.1-4.9c-.4 0-.6.1-.8.4-.2.2-.4.6-.4 1h2.4v-.1c0-.4-.1-.8-.3-1-.3-.2-.6-.3-.9-.3zM155.2 200.1v1.4h1v.9h-1v3.2c0 .2 0 .4.1.5.1.1.2.1.5.1.1 0 .3 0 .4-.1v1c-.3.1-.6.1-.8.1-1 0-1.5-.5-1.5-1.6v-3.2h-.9v-.9h.9v-1.4h1.3zM165 205.4l.9-3.9h1.2l-1.6 5.7h-1.1l-1.2-3.9-1.2 3.9h-1.1l-1.6-5.7h1.2l.9 3.9 1.2-3.9h1l1.4 3.9zM169.6 200.1v1.4h1v.9h-1v3.2c0 .2 0 .4.1.5.1.1.2.1.5.1.1 0 .3 0 .4-.1v1c-.3.1-.6.1-.8.1-1 0-1.5-.5-1.5-1.6v-3.2h-.9v-.9h.9v-1.4h1.3zM172.4 205.8c.2 0 .4.1.6.2.1.1.2.3.2.5s-.1.4-.2.5c-.1.1-.3.2-.6.2-.2 0-.4-.1-.5-.2-.1-.1-.2-.3-.2-.5s.1-.4.2-.5c.1-.1.2-.2.5-.2zM175.3 198.8c.3.2.5.5.7.7s.4.5.5.7c.2.3.3.5.5.8.1.3.3.6.4.8.1.3.2.6.2.9.1.3.1.6.1.9v.1c0 .9-.2 1.7-.6 2.5s-1 1.6-1.9 2.4l-.8-.9c.3-.3.7-.7.9-1s.5-.7.7-1c.2-.3.3-.7.4-1s.1-.7.1-1c0-.3-.1-.5-.1-.8s-.1-.5-.2-.7l-.3-.6c-.1-.2-.2-.4-.3-.5-.1-.1-.2-.3-.3-.4-.1-.1-.2-.2-.3-.4s-.2-.2-.3-.3l-.2-.2.8-1z"/></g>
<g><path class="st2" d="M279.3 181.7h-1.8V178H274v3.7h-1.8v-8.6h1.8v3.5h3.5v-3.5h1.8v8.6zM283.7 181.8c-.9 0-1.7-.3-2.3-.9s-.9-1.3-.9-2.3v-.2c0-.6.1-1.2.4-1.7.3-.5.6-.9 1.1-1.2.5-.3 1-.4 1.6-.4.9 0 1.6.3 2.1.8.5.6.8 1.3.8 2.3v.7h-4.1c.1.4.2.8.5 1s.6.4 1.1.4c.7 0 1.2-.2 1.5-.7l.8.9c-.3.4-.6.6-1 .9-.6.3-1.1.4-1.6.4zm-.2-5.2c-.3 0-.6.1-.8.3s-.3.6-.4 1h2.4v-.1c0-.4-.1-.7-.3-.9s-.5-.3-.9-.3zM291 181.7c-.1-.2-.1-.3-.2-.6-.4.5-1 .7-1.6.7-.6 0-1.2-.2-1.6-.5-.4-.4-.6-.8-.6-1.4 0-.7.3-1.2.8-1.6.5-.4 1.2-.5 2.2-.5h.8v-.4c0-.3-.1-.5-.2-.7s-.4-.3-.7-.3c-.3 0-.5.1-.7.2s-.2.3-.2.6h-1.7c0-.4.1-.7.3-1 .2-.3.6-.6 1-.7.4-.2.9-.3 1.4-.3.8 0 1.4.2 1.9.6.5.4.7 1 .7 1.7v2.8c0 .6.1 1.1.3 1.4v.1H291zm-1.4-1.2c.3 0 .5-.1.7-.2s.4-.3.5-.5v-1.1h-.6c-.9 0-1.3.3-1.4.9v.1c0 .2.1.4.2.5s.3.3.6.3zM295.6 181.7h-1.7v-9.1h1.7v9.1zM299.1 173.7v1.6h1.1v1.3h-1.1v3.2c0 .2 0 .4.1.5s.3.2.5.2h.5v1.3c-.3.1-.7.2-1 .2-1.2 0-1.8-.6-1.8-1.8v-3.5h-.9v-1.3h.9v-1.6h1.7zM302.8 176c.5-.5 1-.8 1.7-.8 1.4 0 2.1.8 2.1 2.4v4.1h-1.7v-4.1c0-.4-.1-.6-.2-.8s-.4-.3-.8-.3c-.5 0-.9.2-1.1.6v4.6h-1.7v-9.1h1.7v3.4zM313.3 180.5c.3 0 .6-.1.8-.3s.3-.4.3-.7h1.6c0 .4-.1.8-.4 1.2-.2.4-.6.6-1 .8-.4.2-.9.3-1.3.3-.9 0-1.6-.3-2.2-.9-.5-.6-.8-1.4-.8-2.4v-.1c0-1 .3-1.8.8-2.4.5-.6 1.2-.9 2.2-.9.8 0 1.4.2 1.9.7.5.5.7 1.1.7 1.8h-1.6c0-.3-.1-.6-.3-.8s-.5-.3-.8-.3c-.4 0-.7.1-.9.4-.2.3-.3.8-.3 1.4v.2c0 .7.1 1.1.3 1.4.2.4.5.6 1 .6zM318.7 181.7H317v-9.1h1.7v9.1zM323.8 181.7c-.1-.2-.1-.3-.2-.6-.4.5-1 .7-1.6.7-.6 0-1.1-.2-1.6-.5-.4-.4-.6-.8-.6-1.4 0-.7.3-1.2.8-1.6.5-.4 1.2-.5 2.2-.5h.8v-.4c0-.3-.1-.5-.2-.7-.2-.2-.4-.3-.7-.3-.3 0-.5.1-.7.2-.2.1-.2.3-.2.6H320c0-.4.1-.7.3-1 .2-.3.6-.6 1-.7.4-.2.9-.3 1.4-.3.8 0 1.4.2 1.9.6.5.4.7 1 .7 1.7v2.8c0 .6.1 1.1.3 1.4v.1h-1.8zm-1.4-1.2c.3 0 .5-.1.7-.2s.4-.3.5-.5v-1.1h-.6c-.9 0-1.3.3-1.4.9v.1c0 .2.1.4.2.5s.4.3.6.3zM326.6 173.7c0-.3.1-.5.3-.6.2-.2.4-.2.7-.2.3 0 .5.1.7.2.2.2.3.4.3.6 0 .3-.1.5-.3.6-.2.2-.4.3-.7.3s-.5-.1-.7-.3c-.2-.2-.3-.4-.3-.6zm1.8 8h-1.7v-6.4h1.7v6.4zM331.4 175.3l.1.7c.5-.6 1.1-.8 1.8-.8.8 0 1.4.3 1.7 1 .4-.7 1.1-1 1.9-1 .7 0 1.2.2 1.6.6.3.4.5 1 .5 1.8v4.1h-1.7v-4.1c0-.4-.1-.6-.2-.8-.1-.2-.4-.2-.8-.2-.5 0-.9.2-1.1.7v4.4h-1.7v-4.1c0-.4-.1-.6-.2-.8-.1-.2-.4-.2-.7-.2-.5 0-.8.2-1.1.6v4.5h-1.7v-6.4h1.6zM346.6 176.9h-.6c-.6 0-1.1.2-1.3.7v4.2H343v-6.4h1.6v.8c.3-.6.8-.9 1.4-.9.2 0 .4 0 .5.1l.1 1.5zM350.4 181.8c-.9 0-1.7-.3-2.3-.9s-.9-1.3-.9-2.3v-.2c0-.6.1-1.2.4-1.7s.6-.9 1.1-1.2c.5-.3 1-.4 1.6-.4.9 0 1.6.3 2.1.8.5.6.8 1.3.8 2.3v.7H349c.1.4.2.8.5 1 .3.3.6.4 1.1.4.7 0 1.2-.2 1.5-.7l.8.9c-.3.4-.6.6-1 .9-.5.3-1 .4-1.5.4zm-.2-5.2c-.3 0-.6.1-.8.3s-.3.6-.4 1h2.4v-.1c0-.4-.1-.7-.3-.9s-.5-.3-.9-.3zM356.4 179.6l1.2-4.3h1.8l-2.2 6.4h-1.6l-2.2-6.4h1.8l1.2 4.3zM360.1 173.7c0-.3.1-.5.3-.6.2-.2.4-.2.7-.2.3 0 .5.1.7.2.2.2.3.4.3.6 0 .3-.1.5-.3.6-.2.2-.4.3-.7.3-.3 0-.5-.1-.7-.3-.2-.2-.3-.4-.3-.6zm1.8 8h-1.7v-6.4h1.7v6.4zM366.3 181.8c-.9 0-1.7-.3-2.3-.9s-.9-1.3-.9-2.3v-.2c0-.6.1-1.2.4-1.7s.6-.9 1.1-1.2c.5-.3 1-.4 1.6-.4.9 0 1.6.3 2.1.8.5.6.8 1.3.8 2.3v.7H365c.1.4.2.8.5 1 .3.3.6.4 1.1.4.7 0 1.2-.2 1.5-.7l.8.9c-.3.4-.6.6-1 .9-.6.3-1.1.4-1.6.4zm-.2-5.2c-.3 0-.6.1-.8.3s-.3.6-.4 1h2.4v-.1c0-.4-.1-.7-.3-.9s-.5-.3-.9-.3zM375.5 179.4l.8-4.1h1.7l-1.6 6.4H375l-1.2-4-1.2 4H371l-1.6-6.4h1.7l.8 4.1 1.2-4.1h1.2l1.2 4.1z"/></g>
<g><path class="st2" d="M281.1 187.8l-.2.2-.3.3c-.1.1-.2.2-.3.4-.1.1-.2.3-.3.4-.1.2-.2.3-.3.5l-.3.6c-.1.2-.2.5-.2.7-.1.3-.1.5-.1.8 0 .3 0 .7.1 1 .1.3.2.7.4 1s.4.7.7 1c.3.3.6.7.9 1l-.8.9c-.9-.8-1.5-1.6-1.9-2.4-.4-.8-.6-1.7-.6-2.5v-.1c0-.3 0-.6.1-.9s.1-.6.3-.9c.1-.3.2-.6.4-.8s.3-.5.5-.8c.2-.2.4-.5.6-.7s.4-.5.7-.7l.6 1zM284.3 193.5l1.2-4.1h1.3l-2 5.7h-1.1l-2-5.7h1.3l1.3 4.1zM291 195.2c-.1-.1-.1-.3-.1-.5-.4.4-.9.6-1.5.6s-1-.2-1.4-.5c-.4-.3-.5-.7-.5-1.2 0-.6.2-1.1.7-1.4.5-.3 1.1-.5 1.9-.5h.8v-.4c0-.3-.1-.5-.2-.7s-.4-.3-.8-.3c-.3 0-.5.1-.7.2-.2.1-.3.3-.3.6h-1.3c0-.3.1-.6.3-.9.2-.3.5-.5.8-.6.4-.2.8-.2 1.2-.2.7 0 1.2.2 1.6.5s.6.8.6 1.4v2.6c0 .5.1.9.2 1.2v.1H291zm-1.4-1c.3 0 .5-.1.7-.2.2-.1.4-.3.5-.5v-1.1h-.7c-.5 0-.8.1-1.1.2-.2.2-.4.4-.4.7 0 .2.1.4.2.6.3.3.6.3.8.3zM294.8 195.2h-1.3v-8.1h1.3v8.1zM296.2 188c0-.2.1-.4.2-.5.1-.1.3-.2.5-.2s.4.1.5.2.2.3.2.5-.1.4-.2.5c-.1.1-.3.2-.5.2s-.4-.1-.5-.2c-.1-.2-.2-.3-.2-.5zm1.4 7.2h-1.3v-5.7h1.3v5.7zM298.7 192.3c0-.9.2-1.6.6-2.1.4-.5 1-.8 1.6-.8.6 0 1.1.2 1.5.6v-2.9h1.3v8.1h-1.2l-.1-.6c-.4.5-.9.7-1.5.7-.7 0-1.2-.3-1.6-.8-.4-.6-.6-1.3-.6-2.2zm1.3.1c0 .6.1 1 .3 1.4.2.3.5.5.9.5.5 0 .9-.2 1.1-.7v-2.4c-.2-.5-.6-.7-1.1-.7-.4 0-.7.2-1 .5-.1.2-.2.7-.2 1.4zM308.4 195.2c-.1-.1-.1-.3-.1-.5-.4.4-.9.6-1.5.6s-1-.2-1.4-.5c-.4-.3-.5-.7-.5-1.2 0-.6.2-1.1.7-1.4.5-.3 1.1-.5 1.9-.5h.8v-.4c0-.3-.1-.5-.2-.7s-.4-.3-.8-.3c-.3 0-.5.1-.7.2-.2.1-.3.3-.3.6H305c0-.3.1-.6.3-.9.2-.3.5-.5.8-.6.4-.2.8-.2 1.2-.2.7 0 1.2.2 1.6.5s.6.8.6 1.4v2.6c0 .5.1.9.2 1.2v.1h-1.3zm-1.4-1c.3 0 .5-.1.7-.2.2-.1.4-.3.5-.5v-1.1h-.7c-.5 0-.8.1-1.1.2-.2.2-.4.4-.4.7 0 .2.1.4.2.6.4.3.6.3.8.3zM312.5 188.1v1.4h1v.9h-1v3.2c0 .2 0 .4.1.5.1.1.2.1.5.1.1 0 .3 0 .4-.1v1c-.3.1-.6.1-.8.1-1 0-1.5-.5-1.5-1.6v-3.2h-.9v-.9h.9v-1.4h1.3zM314.5 188c0-.2.1-.4.2-.5.1-.1.3-.2.5-.2s.4.1.5.2.2.3.2.5-.1.4-.2.5c-.1.1-.3.2-.5.2s-.4-.1-.5-.2c-.2-.2-.2-.3-.2-.5zm1.3 7.2h-1.3v-5.7h1.3v5.7zM317 192.3c0-.6.1-1.1.3-1.5.2-.4.5-.8.9-1 .4-.2.9-.4 1.4-.4.8 0 1.4.2 1.9.7s.7 1.1.8 2v.3c0 .6-.1 1.1-.3 1.5-.2.4-.5.8-.9 1-.4.2-.9.4-1.4.4-.8 0-1.4-.3-1.9-.8-.6-.6-.8-1.3-.8-2.2zm1.3.1c0 .6.1 1 .4 1.4.2.3.6.5 1 .5s.8-.2 1-.5.4-.8.4-1.5c0-.6-.1-1-.4-1.4s-.6-.5-1-.5-.7.2-1 .5-.4.8-.4 1.5zM324.5 189.5v.7c.4-.5 1-.8 1.7-.8 1.2 0 1.8.7 1.8 2v3.8h-1.3v-3.7c0-.4-.1-.6-.2-.8-.2-.2-.4-.3-.8-.3-.5 0-.9.2-1.2.7v4.1h-1.3v-5.7h1.3zM337.2 193.4l.9-3.9h1.2l-1.6 5.7h-1.1l-1.2-3.9-1.2 3.9h-1.1l-1.6-5.7h1.2l.9 3.9 1.2-3.9h1l1.4 3.9zM340.2 188c0-.2.1-.4.2-.5s.3-.2.5-.2.4.1.5.2c.1.1.2.3.2.5s-.1.4-.2.5c-.1.1-.3.2-.5.2s-.4-.1-.5-.2c-.2-.2-.2-.3-.2-.5zm1.3 7.2h-1.3v-5.7h1.3v5.7zM344.5 188.1v1.4h1v.9h-1v3.2c0 .2 0 .4.1.5.1.1.2.1.5.1.1 0 .3 0 .4-.1v1c-.3.1-.6.1-.8.1-1 0-1.5-.5-1.5-1.6v-3.2h-.9v-.9h.9v-1.4h1.3zM347.8 190.1c.4-.5.9-.7 1.6-.7 1.2 0 1.8.7 1.8 2.1v3.7h-1.3v-3.7c0-.4-.1-.7-.3-.8s-.4-.2-.7-.2c-.5 0-.9.2-1.1.7v4.1h-1.3v-8.1h1.3v2.9zM359.9 191.9h-3.1v3.2h-1.3v-7.7h4.9v1.1h-3.5v2.3h3.1v1.1zM361.4 195.2v-7.7h2.3c.7 0 1.3.2 1.8.5s.9.7 1.2 1.3c.3.6.4 1.2.4 1.9v.4c0 .7-.1 1.4-.4 1.9s-.7 1-1.2 1.3c-.5.3-1.1.4-1.8.4h-2.3zm1.3-6.6v5.5h.9c.7 0 1.2-.2 1.6-.7s.6-1.1.6-1.9v-.4c0-.8-.2-1.5-.5-1.9-.4-.4-.9-.7-1.6-.7h-1zM372.7 193.4h-3l-.6 1.8h-1.4l2.9-7.7h1.2l2.9 7.7h-1.4l-.6-1.8zm-2.6-1.1h2.2l-1.1-3.2-1.1 3.2zM297.5 204.3c0-.9.2-1.6.6-2.1.4-.5 1-.8 1.6-.8.6 0 1.1.2 1.5.6v-2.9h1.3v8.1h-1.2l-.1-.6c-.4.5-.9.7-1.5.7-.7 0-1.2-.3-1.6-.8-.4-.6-.6-1.3-.6-2.2zm1.3.1c0 .6.1 1 .3 1.4.2.3.5.5.9.5.5 0 .9-.2 1.1-.7v-2.4c-.2-.5-.6-.7-1.1-.7-.4 0-.7.2-1 .5-.1.2-.2.7-.2 1.4zM306.3 207.3c-.8 0-1.5-.3-2-.8s-.8-1.2-.8-2v-.2c0-.6.1-1.1.3-1.5.2-.4.5-.8.9-1 .4-.2.8-.4 1.3-.4.8 0 1.4.2 1.8.7.4.5.6 1.2.6 2.1v.5h-3.7c0 .5.2.8.5 1.1s.6.4 1 .4c.6 0 1.1-.2 1.4-.7l.7.7c-.2.3-.5.6-.9.8-.2.2-.6.3-1.1.3zm-.2-4.9c-.4 0-.6.1-.8.4-.2.2-.4.6-.4 1h2.4v-.1c0-.4-.1-.8-.3-1-.2-.2-.5-.3-.9-.3zM310 207.2v-4.7h-.9v-.9h.9v-.5c0-.6.2-1.1.5-1.5s.8-.5 1.5-.5c.2 0 .5 0 .7.1v1h-.5c-.6 0-.9.3-.9.9v.5h1.2v.9h-1.2v4.7H310zM313.4 200c0-.2.1-.4.2-.5.1-.1.3-.2.5-.2s.4.1.5.2.2.3.2.5-.1.4-.2.5c-.1.1-.3.2-.5.2s-.4-.1-.5-.2c-.1-.2-.2-.3-.2-.5zm1.4 7.2h-1.3v-5.7h1.3v5.7zM317.3 201.5v.7c.4-.5 1-.8 1.7-.8 1.2 0 1.8.7 1.8 2v3.8h-1.3v-3.7c0-.4-.1-.6-.2-.8-.2-.2-.4-.3-.8-.3-.5 0-.9.2-1.2.7v4.1H316v-5.7h1.3zM322.1 200c0-.2.1-.4.2-.5.1-.1.3-.2.5-.2s.4.1.5.2.2.3.2.5-.1.4-.2.5c-.1.1-.3.2-.5.2s-.4-.1-.5-.2c-.1-.2-.2-.3-.2-.5zm1.4 7.2h-1.3v-5.7h1.3v5.7zM326.5 200.1v1.4h1v.9h-1v3.2c0 .2 0 .4.1.5.1.1.2.1.5.1.1 0 .3 0 .4-.1v1c-.3.1-.6.1-.8.1-1 0-1.5-.5-1.5-1.6v-3.2h-.9v-.9h.9v-1.4h1.3zM328.5 200c0-.2.1-.4.2-.5s.3-.2.5-.2.4.1.5.2c.1.1.2.3.2.5s-.1.4-.2.5c-.1.1-.3.2-.5.2s-.4-.1-.5-.2c-.2-.2-.2-.3-.2-.5zm1.3 7.2h-1.3v-5.7h1.3v5.7zM331 204.3c0-.6.1-1.1.3-1.5.2-.4.5-.8.9-1 .4-.2.9-.4 1.4-.4.8 0 1.4.2 1.9.7s.7 1.1.8 2v.3c0 .6-.1 1.1-.3 1.5-.2.4-.5.8-.9 1-.4.2-.9.4-1.4.4-.8 0-1.4-.3-1.9-.8-.6-.6-.8-1.3-.8-2.2zm1.3.1c0 .6.1 1 .4 1.4.2.3.6.5 1 .5s.8-.2 1-.5.4-.8.4-1.5c0-.6-.1-1-.4-1.4s-.6-.5-1-.5-.7.2-1 .5-.4.8-.4 1.5zM338.6 201.5v.7c.4-.5 1-.8 1.7-.8 1.2 0 1.8.7 1.8 2v3.8h-1.3v-3.7c0-.4-.1-.6-.2-.8s-.4-.3-.8-.3c-.5 0-.9.2-1.2.7v4.1h-1.3v-5.7h1.3zM346.6 205.6c0-.2-.1-.4-.3-.5-.2-.1-.5-.2-.9-.3-.4-.1-.8-.2-1.1-.3-.6-.3-1-.8-1-1.3s.2-.9.6-1.2.9-.5 1.6-.5c.7 0 1.2.2 1.7.5s.6.8.6 1.3h-1.3c0-.2-.1-.5-.3-.6-.2-.2-.4-.2-.7-.2-.3 0-.5.1-.7.2-.2.1-.3.3-.3.5s.1.3.2.5c.2.1.5.2 1 .3.5.1.9.2 1.2.4.3.2.5.3.6.6.1.2.2.5.2.8 0 .5-.2.9-.6 1.2-.4.3-1 .5-1.7.5-.5 0-.9-.1-1.2-.3s-.6-.4-.9-.7c-.2-.3-.3-.6-.3-1h1.2c0 .3.1.5.3.7.2.2.5.2.8.2.3 0 .6-.1.8-.2.4-.2.5-.4.5-.6zM349.6 198.8c.3.2.5.5.7.7.2.2.4.5.5.7.2.3.3.5.5.8.1.3.3.6.4.8.1.3.2.6.2.9s.1.6.1.9v.1c0 .9-.2 1.7-.6 2.5-.4.8-1 1.6-1.9 2.4l-.8-.9c.3-.3.7-.7.9-1s.5-.7.7-1c.2-.3.3-.7.4-1 .1-.3.1-.7.1-1 0-.3-.1-.5-.1-.8s-.1-.5-.2-.7l-.3-.6c-.1-.2-.2-.4-.3-.5-.1-.1-.2-.3-.3-.4-.1-.1-.2-.2-.3-.4s-.2-.2-.3-.3l-.2-.2.8-1z"/></g>
<g><path class="st2" d="M460.2 178.7v3h-1.8v-8.6h3.4c.6 0 1.2.1 1.7.4s.9.6 1.1 1c.3.4.4.9.4 1.5 0 .8-.3 1.5-.9 2-.6.5-1.4.7-2.4.7h-1.5zm0-1.5h1.6c.5 0 .8-.1 1.1-.3.2-.2.4-.5.4-.9s-.1-.8-.4-1c-.2-.3-.6-.4-1-.4h-1.6v2.6zM469.8 176.9h-.6c-.6 0-1.1.2-1.3.7v4.2h-1.7v-6.4h1.6v.8c.3-.6.8-.9 1.4-.9.2 0 .4 0 .5.1l.1 1.5zM470.3 178.5c0-.6.1-1.2.4-1.7s.6-.9 1.1-1.2c.5-.3 1-.4 1.6-.4.9 0 1.6.3 2.1.8s.8 1.2.9 2.2v.4c0 1-.3 1.8-.8 2.4-.5.6-1.3.9-2.2.9s-1.7-.3-2.2-.9c-.6-.6-.9-1.4-.9-2.5zm1.7.1c0 .6.1 1.1.3 1.4.2.3.6.5 1 .5s.7-.2 1-.5c.2-.3.3-.8.3-1.5 0-.6-.1-1.1-.3-1.4-.2-.3-.6-.5-1-.5s-.7.2-1 .5c-.2.3-.3.8-.3 1.5zM477.2 178.5c0-1 .2-1.8.7-2.4s1.1-.9 1.8-.9c.6 0 1.1.2 1.5.7v-3.3h1.7v9.1h-1.5l-.1-.7c-.4.5-1 .8-1.6.8-.8 0-1.4-.3-1.8-.9-.5-.5-.7-1.4-.7-2.4zm1.7.1c0 .6.1 1.1.3 1.4s.5.5.9.5c.5 0 .9-.2 1.1-.7v-2.5c-.2-.4-.6-.7-1.1-.7-.8 0-1.2.7-1.2 2zM488.1 181.1c-.4.5-1 .8-1.8.8-.7 0-1.2-.2-1.6-.6-.4-.4-.5-1-.6-1.7v-4.2h1.7v4.1c0 .7.3 1 .9 1 .6 0 1-.2 1.2-.6v-4.5h1.7v6.4H488l.1-.7zM493.7 180.5c.3 0 .6-.1.8-.3s.3-.4.3-.7h1.6c0 .4-.1.8-.4 1.2-.2.4-.6.6-1 .8-.4.2-.9.3-1.3.3-.9 0-1.6-.3-2.2-.9s-.8-1.4-.8-2.4v-.1c0-1 .3-1.8.8-2.4.5-.6 1.2-.9 2.2-.9.8 0 1.4.2 1.9.7s.7 1.1.7 1.8h-1.6c0-.3-.1-.6-.3-.8s-.5-.3-.8-.3c-.4 0-.7.1-.9.4s-.3.8-.3 1.4v.2c0 .7.1 1.1.3 1.4.3.4.6.6 1 .6zM499.4 173.7v1.6h1.1v1.3h-1.1v3.2c0 .2 0 .4.1.5.1.1.3.2.5.2h.5v1.3c-.3.1-.7.2-1 .2-1.2 0-1.8-.6-1.8-1.8v-3.5h-.9v-1.3h.9v-1.6h1.7zM503.9 178.5c0-1 .2-1.8.7-2.4s1.1-.9 1.8-.9c.6 0 1.1.2 1.5.7v-3.3h1.7v9.1h-1.5l-.1-.7c-.4.5-1 .8-1.6.8-.8 0-1.4-.3-1.8-.9-.5-.5-.7-1.4-.7-2.4zm1.7.1c0 .6.1 1.1.3 1.4s.5.5.9.5c.5 0 .9-.2 1.1-.7v-2.5c-.2-.4-.6-.7-1.1-.7-.8 0-1.2.7-1.2 2zM511 173.7c0-.3.1-.5.3-.6.2-.2.4-.2.7-.2.3 0 .5.1.7.2.2.2.3.4.3.6 0 .3-.1.5-.3.6-.2.2-.4.3-.7.3s-.5-.1-.7-.3c-.2-.2-.3-.4-.3-.6zm1.8 8h-1.7v-6.4h1.7v6.4zM517.8 176.9h-.6c-.6 0-1.1.2-1.3.7v4.2h-1.7v-6.4h1.6v.8c.3-.6.8-.9 1.4-.9.2 0 .4 0 .5.1l.1 1.5zM521.6 181.8c-.9 0-1.7-.3-2.3-.9s-.9-1.3-.9-2.3v-.2c0-.6.1-1.2.4-1.7s.6-.9 1.1-1.2c.5-.3 1-.4 1.6-.4.9 0 1.6.3 2.1.8.5.6.8 1.3.8 2.3v.7h-4.1c.1.4.2.8.5 1 .3.3.6.4 1.1.4.7 0 1.2-.2 1.5-.7l.8.9c-.3.4-.6.6-1 .9s-1.1.4-1.6.4zm-.2-5.2c-.3 0-.6.1-.8.3-.2.2-.3.6-.4 1h2.4v-.1c0-.4-.1-.7-.3-.9s-.5-.3-.9-.3zM527.9 180.5c.3 0 .6-.1.8-.3s.3-.4.3-.7h1.6c0 .4-.1.8-.4 1.2-.2.4-.6.6-1 .8-.4.2-.9.3-1.3.3-.9 0-1.6-.3-2.2-.9s-.8-1.4-.8-2.4v-.1c0-1 .3-1.8.8-2.4.5-.6 1.2-.9 2.2-.9.8 0 1.4.2 1.9.7s.7 1.1.7 1.8h-1.6c0-.3-.1-.6-.3-.8s-.5-.3-.8-.3c-.4 0-.7.1-.9.4s-.3.8-.3 1.4v.2c0 .7.1 1.1.3 1.4.2.4.5.6 1 .6zM533.6 173.7v1.6h1.1v1.3h-1.1v3.2c0 .2 0 .4.1.5s.3.2.5.2h.5v1.3c-.3.1-.7.2-1 .2-1.2 0-1.8-.6-1.8-1.8v-3.5h-.9v-1.3h.9v-1.6h1.7zM535.6 173.7c0-.3.1-.5.3-.6.2-.2.4-.2.7-.2.3 0 .5.1.7.2.2.2.3.4.3.6 0 .3-.1.5-.3.6-.2.2-.4.3-.7.3-.3 0-.5-.1-.7-.3-.2-.2-.3-.4-.3-.6zm1.8 8h-1.7v-6.4h1.7v6.4zM538.6 178.5c0-.6.1-1.2.4-1.7.2-.5.6-.9 1.1-1.2s1-.4 1.6-.4c.9 0 1.6.3 2.1.8s.8 1.2.9 2.2v.4c0 1-.3 1.8-.8 2.4-.5.6-1.3.9-2.2.9-.9 0-1.7-.3-2.2-.9s-.9-1.4-.9-2.5zm1.7.1c0 .6.1 1.1.3 1.4.2.3.6.5 1 .5s.7-.2 1-.5c.2-.3.3-.8.3-1.5 0-.6-.1-1.1-.3-1.4-.2-.3-.6-.5-1-.5s-.7.2-1 .5c-.2.3-.3.8-.3 1.5zM547.2 175.3l.1.7c.5-.6 1.1-.9 1.8-.9s1.2.2 1.5.6.5 1 .5 1.8v4.1h-1.7v-4.1c0-.4-.1-.6-.2-.8s-.4-.2-.8-.2c-.5 0-.8.2-1.1.6v4.5h-1.7v-6.4h1.6zM554.9 179.4c0-.4.1-.8.3-1.1.2-.3.6-.7 1.2-1.1-.3-.3-.5-.7-.6-1-.1-.3-.2-.6-.2-.9 0-.7.2-1.2.6-1.6.4-.4 1-.6 1.7-.6.6 0 1.2.2 1.6.6.4.4.6.9.6 1.4 0 .7-.3 1.3-1 1.8l-.7.5 1.5 1.7c.2-.5.4-1 .4-1.5h1.5c0 1.1-.3 2-.8 2.7l1.3 1.5h-1.9l-.4-.5c-.6.4-1.4.6-2.2.6-.9 0-1.5-.2-2-.7-.6-.5-.9-1.1-.9-1.8zm2.9 1.1c.4 0 .8-.1 1.2-.3l-1.7-2-.1.1c-.4.3-.5.7-.5 1.1 0 .3.1.6.3.8.2.2.5.3.8.3zm-.6-5.3c0 .3.2.7.5 1.1l.5-.3c.2-.1.4-.3.5-.4.1-.1.1-.3.1-.5s-.1-.4-.2-.5c-.1-.1-.3-.2-.6-.2-.2 0-.4.1-.6.2-.1.2-.2.4-.2.6zM491.4 192.9l.8-4.1h1.7l-1.6 6.4h-1.4l-1.2-4-1.2 4H487l-1.6-6.4h1.7l.8 4.1 1.2-4.1h1.2l1.1 4.1zM498.5 195.2c-.1-.2-.1-.3-.2-.6-.4.5-1 .7-1.6.7-.6 0-1.1-.2-1.6-.5-.4-.4-.6-.8-.6-1.4 0-.7.3-1.2.8-1.6.5-.4 1.2-.5 2.2-.5h.8v-.4c0-.3-.1-.5-.2-.7s-.4-.3-.7-.3c-.3 0-.5.1-.7.2-.2.1-.2.3-.2.6h-1.7c0-.4.1-.7.3-1 .2-.3.6-.6 1-.7.4-.2.9-.3 1.4-.3.8 0 1.4.2 1.9.6.5.4.7 1 .7 1.7v2.8c0 .6.1 1.1.3 1.4v.1h-1.9zm-1.4-1.2c.3 0 .5-.1.7-.2s.4-.3.5-.5v-1.1h-.6c-.9 0-1.3.3-1.4.9v.1c0 .2.1.4.2.5.1.3.3.3.6.3zM504.9 190.4h-.6c-.6 0-1.1.2-1.3.7v4.2h-1.7v-6.4h1.6v.8c.3-.6.8-.9 1.4-.9.2 0 .4 0 .5.1l.1 1.5zM507.2 188.8l.1.7c.5-.6 1.1-.9 1.8-.9s1.2.2 1.5.6c.3.4.5 1 .5 1.8v4.1h-1.7V191c0-.4-.1-.6-.2-.8s-.4-.2-.8-.2c-.5 0-.8.2-1.1.6v4.5h-1.7v-6.4h1.6zM512.4 187.2c0-.3.1-.5.3-.6.2-.2.4-.2.7-.2.3 0 .5.1.7.2.2.2.3.4.3.6 0 .3-.1.5-.3.6-.2.2-.4.3-.7.3-.3 0-.5-.1-.7-.3-.2-.2-.3-.4-.3-.6zm1.9 8h-1.7v-6.4h1.7v6.4zM517.2 188.8l.1.7c.5-.6 1.1-.9 1.8-.9s1.2.2 1.5.6c.3.4.5 1 .5 1.8v4.1h-1.7V191c0-.4-.1-.6-.2-.8s-.4-.2-.8-.2c-.5 0-.8.2-1.1.6v4.5h-1.7v-6.4h1.6zM522.2 192c0-1 .2-1.8.7-2.4.5-.6 1.1-.9 1.9-.9.7 0 1.2.2 1.6.7l.1-.6h1.5v6.2c0 .6-.1 1-.4 1.5-.3.4-.6.7-1.1.9s-1 .3-1.6.3c-.5 0-.9-.1-1.4-.3s-.8-.4-1-.7l.8-1c.4.5.9.7 1.6.7.5 0 .8-.1 1.1-.4.3-.2.4-.6.4-1v-.3c-.4.4-.9.7-1.6.7-.8 0-1.4-.3-1.9-.9s-.7-1.5-.7-2.5zm1.7.1c0 .6.1 1 .3 1.4s.6.5 1 .5c.5 0 .9-.2 1.1-.6v-2.7c-.2-.4-.6-.6-1.1-.6-.4 0-.7.2-1 .5-.2.3-.3.8-.3 1.5zM532.9 193.4c0-.2-.1-.4-.3-.5-.2-.1-.5-.2-1-.3-1.5-.3-2.3-1-2.3-1.9 0-.6.2-1 .7-1.4.5-.4 1.1-.6 1.9-.6.8 0 1.5.2 1.9.6.5.4.7.9.7 1.5h-1.7c0-.2-.1-.5-.2-.6-.2-.2-.4-.2-.7-.2-.3 0-.5.1-.7.2-.2.1-.2.3-.2.5s.1.3.3.5c.2.1.5.2.9.3s.8.2 1.1.3c.9.3 1.4.9 1.4 1.7 0 .6-.3 1.1-.8 1.4s-1.1.5-1.9.5c-.5 0-1-.1-1.4-.3-.4-.2-.7-.5-1-.8s-.4-.7-.4-1.1h1.6c0 .3.1.5.3.7.2.2.5.2.8.2.3 0 .6-.1.7-.2s.3-.3.3-.5z"/></g>
<g><path class="st2" d="M639.2 178.2h-3.4v3.5H634v-8.6h5.6v1.4h-3.8v2.2h3.4v1.5zM640.3 178.5c0-.6.1-1.2.4-1.7.2-.5.6-.9 1.1-1.2s1-.4 1.6-.4c.9 0 1.6.3 2.1.8s.8 1.2.9 2.2v.4c0 1-.3 1.8-.8 2.4-.5.6-1.3.9-2.2.9-.9 0-1.7-.3-2.2-.9s-.9-1.4-.9-2.5zm1.7.1c0 .6.1 1.1.3 1.4.2.3.6.5 1 .5s.7-.2 1-.5c.2-.3.3-.8.3-1.5 0-.6-.1-1.1-.3-1.4-.2-.3-.6-.5-1-.5s-.7.2-1 .5c-.2.3-.3.8-.3 1.5zM651 176.9h-.6c-.6 0-1.1.2-1.3.7v4.2h-1.7v-6.4h1.6v.8c.3-.6.8-.9 1.4-.9.2 0 .4 0 .5.1l.1 1.5zM653.4 175.3l.1.7c.5-.6 1.1-.8 1.8-.8.8 0 1.4.3 1.7 1 .5-.7 1.1-1 1.9-1 .7 0 1.2.2 1.5.6.3.4.5 1 .5 1.8v4.1h-1.7v-4.1c0-.4-.1-.6-.2-.8-.1-.2-.4-.2-.8-.2-.5 0-.9.2-1.1.7v4.4h-1.7v-4.1c0-.4-.1-.6-.2-.8-.1-.2-.4-.2-.7-.2-.5 0-.8.2-1.1.6v4.5h-1.7v-6.4h1.7zM666.2 181.1c-.4.5-1 .8-1.8.8-.7 0-1.2-.2-1.6-.6-.4-.4-.5-1-.6-1.7v-4.2h1.7v4.1c0 .7.3 1 .9 1 .6 0 1-.2 1.2-.6v-4.5h1.7v6.4h-1.6l.1-.7zM670.9 181.7h-1.7v-9.1h1.7v9.1zM676 181.7c-.1-.2-.1-.3-.2-.6-.4.5-1 .7-1.6.7-.6 0-1.2-.2-1.6-.5-.4-.4-.6-.8-.6-1.4 0-.7.3-1.2.8-1.6.5-.4 1.2-.5 2.2-.5h.8v-.4c0-.3-.1-.5-.2-.7-.2-.2-.4-.3-.7-.3-.3 0-.5.1-.7.2-.2.1-.2.3-.2.6h-1.7c0-.4.1-.7.3-1 .2-.3.6-.6 1-.7.4-.2.9-.3 1.4-.3.8 0 1.4.2 1.9.6.5.4.7 1 .7 1.7v2.8c0 .6.1 1.1.3 1.4v.1H676zm-1.4-1.2c.3 0 .5-.1.7-.2s.4-.3.5-.5v-1.1h-.6c-.9 0-1.3.3-1.4.9v.1c0 .2.1.4.2.5.2.3.4.3.6.3zM682.4 176.9h-.6c-.6 0-1.1.2-1.3.7v4.2h-1.7v-6.4h1.6v.8c.3-.6.8-.9 1.4-.9.2 0 .4 0 .5.1l.1 1.5zM685.6 179.3l1.2-4h1.8l-2.6 7.4-.1.3c-.4.8-1 1.3-1.9 1.3-.2 0-.5 0-.8-.1v-1.3h.3c.3 0 .6 0 .7-.1.2-.1.3-.3.4-.5l.2-.5-2.2-6.4h1.8l1.2 3.9zM694.4 179.6l1.2-4.3h1.8l-2.2 6.4h-1.6l-2.2-6.4h1.8l1.2 4.3zM701.9 181.7c-.1-.2-.1-.3-.2-.6-.4.5-1 .7-1.6.7-.6 0-1.2-.2-1.6-.5-.4-.4-.6-.8-.6-1.4 0-.7.3-1.2.8-1.6.5-.4 1.2-.5 2.2-.5h.8v-.4c0-.3-.1-.5-.2-.7-.2-.2-.4-.3-.7-.3-.3 0-.5.1-.7.2-.2.1-.2.3-.2.6H698c0-.4.1-.7.3-1 .2-.3.6-.6 1-.7.4-.2.9-.3 1.4-.3.8 0 1.4.2 1.9.6.5.4.7 1 .7 1.7v2.8c0 .6.1 1.1.3 1.4v.1h-1.7zm-1.5-1.2c.3 0 .5-.1.7-.2s.4-.3.5-.5v-1.1h-.6c-.9 0-1.3.3-1.4.9v.1c0 .2.1.4.2.5.2.3.4.3.6.3zM706.5 181.7h-1.7v-9.1h1.7v9.1zM707.9 173.7c0-.3.1-.5.3-.6.2-.2.4-.2.7-.2.3 0 .5.1.7.2.2.2.3.4.3.6 0 .3-.1.5-.3.6-.2.2-.4.3-.7.3-.3 0-.5-.1-.7-.3-.3-.2-.3-.4-.3-.6zm1.8 8H708v-6.4h1.7v6.4zM710.8 178.5c0-1 .2-1.8.7-2.4s1.1-.9 1.8-.9c.6 0 1.1.2 1.5.7v-3.3h1.7v9.1H715v-.7c-.4.5-1 .8-1.6.8-.8 0-1.4-.3-1.8-.9-.6-.5-.8-1.4-.8-2.4zm1.7.1c0 .6.1 1.1.3 1.4.2.3.5.5.9.5.5 0 .9-.2 1.1-.7v-2.5c-.2-.4-.6-.7-1.1-.7-.8 0-1.2.7-1.2 2zM721.6 181.7c-.1-.2-.1-.3-.2-.6-.4.5-1 .7-1.6.7-.6 0-1.2-.2-1.6-.5-.4-.4-.6-.8-.6-1.4 0-.7.3-1.2.8-1.6.5-.4 1.2-.5 2.2-.5h.8v-.4c0-.3-.1-.5-.2-.7-.2-.2-.4-.3-.7-.3-.3 0-.5.1-.7.2-.2.1-.2.3-.2.6h-1.7c0-.4.1-.7.3-1 .2-.3.6-.6 1-.7.4-.2.9-.3 1.4-.3.8 0 1.4.2 1.9.6.5.4.7 1 .7 1.7v2.8c0 .6.1 1.1.3 1.4v.1h-1.9zm-1.4-1.2c.3 0 .5-.1.7-.2s.4-.3.5-.5v-1.1h-.6c-.9 0-1.3.3-1.4.9v.1c0 .2.1.4.2.5.1.3.3.3.6.3zM726.5 173.7v1.6h1.1v1.3h-1.1v3.2c0 .2 0 .4.1.5.1.1.3.2.5.2h.5v1.3c-.3.1-.7.2-1 .2-1.2 0-1.8-.6-1.8-1.8v-3.5h-.9v-1.3h.9v-1.6h1.7zM728.5 173.7c0-.3.1-.5.3-.6.2-.2.4-.2.7-.2.3 0 .5.1.7.2.2.2.3.4.3.6 0 .3-.1.5-.3.6-.2.2-.4.3-.7.3-.3 0-.5-.1-.7-.3-.2-.2-.3-.4-.3-.6zm1.8 8h-1.7v-6.4h1.7v6.4zM731.5 178.5c0-.6.1-1.2.4-1.7.2-.5.6-.9 1.1-1.2s1-.4 1.6-.4c.9 0 1.6.3 2.1.8s.8 1.2.9 2.2v.4c0 1-.3 1.8-.8 2.4-.5.6-1.3.9-2.2.9-.9 0-1.7-.3-2.2-.9s-.9-1.4-.9-2.5zm1.7.1c0 .6.1 1.1.3 1.4.2.3.6.5 1 .5s.7-.2 1-.5c.2-.3.3-.8.3-1.5 0-.6-.1-1.1-.3-1.4-.2-.3-.6-.5-1-.5s-.7.2-1 .5c-.2.3-.3.8-.3 1.5zM740.1 175.3l.1.7c.5-.6 1.1-.9 1.8-.9s1.2.2 1.5.6.5 1 .5 1.8v4.1h-1.7v-4.1c0-.4-.1-.6-.2-.8s-.4-.2-.8-.2c-.5 0-.8.2-1.1.6v4.5h-1.7v-6.4h1.6zM745.9 183.9l-.9-.5.2-.4c.3-.5.4-1 .4-1.4v-1.3h1.4v1.2c0 .4-.1.9-.3 1.3s-.4.8-.8 1.1zm-.5-7.1c0-.3.1-.5.3-.7.2-.2.4-.3.7-.3.3 0 .5.1.7.3.2.2.3.4.3.7 0 .3-.1.5-.3.7s-.4.3-.7.3c-.3 0-.5-.1-.7-.3-.2-.2-.3-.5-.3-.7z"/></g>
<g><path class="st2" d="M637.1 192.3c-.1.9-.4 1.7-1 2.2-.6.5-1.4.8-2.4.8-1.1 0-2-.4-2.6-1.1-.6-.7-1-1.8-1-3.1v-.5c0-.8.1-1.6.4-2.2.3-.6.7-1.1 1.3-1.5.5-.3 1.2-.5 1.9-.5 1 0 1.8.3 2.4.8s1 1.3 1.1 2.2h-1.8c0-.6-.2-1-.5-1.2s-.7-.4-1.2-.4c-.6 0-1 .2-1.3.6-.3.4-.4 1.1-.5 2v.7c0 .9.1 1.6.4 2 .3.4.7.6 1.3.6.5 0 1-.1 1.2-.4s.4-.6.5-1.2h1.8zM642.9 193.4h-3.1l-.6 1.8h-1.9l3.2-8.6h1.6l3.2 8.6h-1.9l-.5-1.8zm-2.7-1.4h2.2l-1.1-3.2-1.1 3.2zM650.4 193c0-.3-.1-.6-.4-.8-.2-.2-.7-.4-1.3-.6s-1.1-.4-1.5-.6c-1-.5-1.5-1.2-1.5-2.1 0-.5.1-.9.4-1.2s.6-.7 1.1-.9c.5-.2 1-.3 1.7-.3.6 0 1.2.1 1.6.3.5.2.9.5 1.1.9s.4.9.4 1.4h-1.8c0-.4-.1-.7-.4-.9s-.6-.3-1-.3-.8.1-1 .3-.4.4-.4.7c0 .3.1.5.4.7.3.2.7.4 1.2.5 1 .3 1.7.7 2.2 1.1.5.4.7 1 .7 1.7s-.3 1.3-.8 1.8-1.3.6-2.3.6c-.7 0-1.3-.1-1.8-.4-.5-.2-1-.6-1.2-1-.3-.4-.4-.9-.4-1.5h1.8c0 .9.6 1.4 1.7 1.4.4 0 .7-.1 1-.3s.5-.2.5-.5zM656.4 192.8h-1.1l-.4 2.4h-1.1l.4-2.4h-1.3v-1h1.5l.3-1.7h-1.4v-1h1.6l.4-2.5h1.1l-.4 2.5h1.1l.4-2.5h1.1l-.4 2.5h1.3v1H658l-.3 1.7h1.3v1h-1.5l-.4 2.4H656l.4-2.4zm-1-1h1.1l.3-1.7h-1.1l-.3 1.7zM665.3 194c.3 0 .6-.1.8-.3s.3-.4.3-.7h1.6c0 .4-.1.8-.4 1.2-.2.4-.6.6-1 .8-.4.2-.9.3-1.3.3-.9 0-1.6-.3-2.2-.9s-.8-1.4-.8-2.4v-.1c0-1 .3-1.8.8-2.4.5-.6 1.2-.9 2.2-.9.8 0 1.4.2 1.9.7.5.5.7 1.1.7 1.8h-1.6c0-.3-.1-.6-.3-.8s-.5-.3-.8-.3c-.4 0-.7.1-.9.4s-.3.8-.3 1.4v.2c0 .7.1 1.1.3 1.4.3.4.6.6 1 .6zM672.3 190.4h-.6c-.6 0-1.1.2-1.3.7v4.2h-1.7v-6.4h1.6v.8c.3-.6.8-.9 1.4-.9.2 0 .4 0 .5.1l.1 1.5zM672.7 192c0-.6.1-1.2.4-1.7.2-.5.6-.9 1.1-1.2s1-.4 1.6-.4c.9 0 1.6.3 2.1.8s.8 1.2.9 2.2v.4c0 1-.3 1.8-.8 2.4-.5.6-1.3.9-2.2.9-.9 0-1.7-.3-2.2-.9s-.9-1.4-.9-2.5zm1.7.1c0 .6.1 1.1.3 1.4.2.3.6.5 1 .5s.7-.2 1-.5c.2-.3.3-.8.3-1.5 0-.6-.1-1.1-.3-1.4-.2-.3-.6-.5-1-.5s-.7.2-1 .5c-.2.3-.3.8-.3 1.5zM683.1 193.4c0-.2-.1-.4-.3-.5-.2-.1-.5-.2-1-.3-1.5-.3-2.3-1-2.3-1.9 0-.6.2-1 .7-1.4.5-.4 1.1-.6 1.9-.6.8 0 1.5.2 1.9.6.5.4.7.9.7 1.5H683c0-.2-.1-.5-.2-.6-.2-.2-.4-.2-.7-.2-.3 0-.5.1-.7.2-.2.1-.2.3-.2.5s.1.3.3.5c.2.1.5.2.9.3.4.1.8.2 1.1.3.9.3 1.4.9 1.4 1.7 0 .6-.3 1.1-.8 1.4s-1.1.5-1.9.5c-.5 0-1-.1-1.4-.3s-.7-.5-1-.8c-.2-.3-.4-.7-.4-1.1h1.6c0 .3.1.5.3.7.2.2.5.2.8.2.3 0 .6-.1.7-.2.2-.1.3-.3.3-.5zM689.1 193.4c0-.2-.1-.4-.3-.5-.2-.1-.5-.2-1-.3-1.5-.3-2.3-1-2.3-1.9 0-.6.2-1 .7-1.4.5-.4 1.1-.6 1.9-.6.8 0 1.5.2 1.9.6.5.4.7.9.7 1.5H689c0-.2-.1-.5-.2-.6-.2-.2-.4-.2-.7-.2-.3 0-.5.1-.7.2-.2.1-.2.3-.2.5s.1.3.3.5c.2.1.5.2.9.3.4.1.8.2 1.1.3.9.3 1.4.9 1.4 1.7 0 .6-.3 1.1-.8 1.4s-1.1.5-1.9.5c-.5 0-1-.1-1.4-.3s-.7-.5-1-.8c-.2-.3-.4-.7-.4-1.1h1.6c0 .3.1.5.3.7.2.2.5.2.8.2.3 0 .6-.1.7-.2.2-.1.3-.3.3-.5zM695 192.2h-3.3v-1.4h3.3v1.4zM698.8 194c.3 0 .6-.1.8-.3s.3-.4.3-.7h1.6c0 .4-.1.8-.4 1.2-.2.4-.6.6-1 .8-.4.2-.9.3-1.3.3-.9 0-1.6-.3-2.2-.9s-.8-1.4-.8-2.4v-.1c0-1 .3-1.8.8-2.4.5-.6 1.2-.9 2.2-.9.8 0 1.4.2 1.9.7.5.5.7 1.1.7 1.8h-1.6c0-.3-.1-.6-.3-.8s-.5-.3-.8-.3c-.4 0-.7.1-.9.4s-.3.8-.3 1.4v.2c0 .7.1 1.1.3 1.4.3.4.6.6 1 .6zM704 189.5c.5-.5 1-.8 1.7-.8 1.4 0 2.1.8 2.1 2.4v4.1h-1.7v-4.1c0-.4-.1-.6-.2-.8s-.4-.3-.8-.3c-.5 0-.9.2-1.1.6v4.6h-1.7v-9.1h1.7v3.4zM711.8 195.3c-.9 0-1.7-.3-2.3-.9s-.9-1.3-.9-2.3v-.1c0-.6.1-1.2.4-1.7.2-.5.6-.9 1.1-1.2.5-.3 1-.4 1.6-.4.9 0 1.6.3 2.1.8.5.6.8 1.3.8 2.3v.7h-4.1c.1.4.2.8.5 1s.6.4 1.1.4c.7 0 1.2-.2 1.5-.7l.8.9c-.3.4-.6.6-1 .9-.6.2-1 .3-1.6.3zm-.2-5.2c-.3 0-.6.1-.8.3-.2.2-.3.6-.4 1h2.4v-.1c0-.4-.1-.7-.3-.9s-.5-.3-.9-.3zM717.9 194c.3 0 .6-.1.8-.3s.3-.4.3-.7h1.6c0 .4-.1.8-.4 1.2-.2.4-.6.6-1 .8-.4.2-.9.3-1.3.3-.9 0-1.6-.3-2.2-.9s-.8-1.4-.8-2.4v-.1c0-1 .3-1.8.8-2.4.5-.6 1.2-.9 2.2-.9.8 0 1.4.2 1.9.7.5.5.7 1.1.7 1.8H719c0-.3-.1-.6-.3-.8s-.5-.3-.8-.3c-.4 0-.7.1-.9.4s-.3.8-.3 1.4v.2c0 .7.1 1.1.3 1.4.2.4.5.6.9.6zM723.7 192.6l-.6.6v2h-1.7v-9.1h1.7v5l.3-.4 1.6-1.9h2.1l-2.3 2.7 2.5 3.7h-2l-1.6-2.6zM735.7 192.9l.8-4.1h1.7l-1.6 6.4h-1.4l-1.2-4-1.2 4h-1.4l-1.6-6.4h1.7l.8 4.1 1.2-4.1h1.2l1 4.1zM738.8 187.2c0-.3.1-.5.3-.6.2-.2.4-.2.7-.2.3 0 .5.1.7.2.2.2.3.4.3.6 0 .3-.1.5-.3.6-.2.2-.4.3-.7.3-.3 0-.5-.1-.7-.3-.2-.2-.3-.4-.3-.6zm1.8 8h-1.7v-6.4h1.7v6.4zM743.9 187.2v1.6h1.1v1.3h-1.1v3.2c0 .2 0 .4.1.5.1.1.3.2.5.2h.5v1.3c-.3.1-.7.2-1 .2-1.2 0-1.8-.6-1.8-1.8v-3.5h-.9v-1.3h.9v-1.6h1.7zM747.4 189.5c.5-.5 1-.8 1.7-.8 1.4 0 2.1.8 2.1 2.4v4.1h-1.7v-4.1c0-.4-.1-.6-.2-.8s-.4-.3-.8-.3c-.5 0-.9.2-1.1.6v4.6h-1.7v-9.1h1.7v3.4z"/></g>
<g><path class="st2" d="M639.8 205.2h-3.4v3.5h-1.8v-8.6h5.6v1.4h-3.8v2.2h3.4v1.5zM641 208.7v-8.6h2.7c.8 0 1.4.2 2 .5.6.3 1.1.8 1.4 1.5.3.6.5 1.3.5 2.1v.4c0 .8-.2 1.5-.5 2.1-.3.6-.8 1.1-1.4 1.5-.6.3-1.3.5-2 .5H641zm1.8-7.2v5.8h.9c.7 0 1.2-.2 1.6-.7.4-.5.6-1.1.6-1.9v-.5c0-.9-.2-1.5-.5-2-.4-.5-.9-.7-1.6-.7h-1zM653.6 206.9h-3.1l-.6 1.8H648l3.2-8.6h1.6l3.2 8.6h-1.9l-.5-1.8zm-2.6-1.4h2.2l-1.1-3.2-1.1 3.2zM661.7 207.5c.3 0 .6-.1.8-.3s.3-.4.3-.7h1.6c0 .4-.1.8-.4 1.2-.2.4-.6.6-1 .8-.4.2-.9.3-1.3.3-.9 0-1.6-.3-2.2-.9s-.8-1.4-.8-2.4v-.1c0-1 .3-1.8.8-2.4.5-.6 1.2-.9 2.2-.9.8 0 1.4.2 1.9.7.5.5.7 1.1.7 1.8h-1.6c0-.3-.1-.6-.3-.8s-.5-.3-.8-.3c-.4 0-.7.1-.9.4s-.3.8-.3 1.4v.2c0 .7.1 1.1.3 1.4.3.4.6.6 1 .6zM664.9 205.5c0-.6.1-1.2.4-1.7.2-.5.6-.9 1.1-1.2s1-.4 1.6-.4c.9 0 1.6.3 2.1.8s.8 1.2.9 2.2v.4c0 1-.3 1.8-.8 2.4-.5.6-1.3.9-2.2.9-.9 0-1.7-.3-2.2-.9s-.9-1.5-.9-2.5zm1.7.1c0 .6.1 1.1.3 1.4.2.3.6.5 1 .5s.7-.2 1-.5c.2-.3.3-.8.3-1.5 0-.6-.1-1.1-.3-1.4-.2-.3-.6-.5-1-.5s-.7.2-1 .5c-.2.3-.3.8-.3 1.5zM675.3 206.9c0-.2-.1-.4-.3-.5-.2-.1-.5-.2-1-.3-1.5-.3-2.3-1-2.3-1.9 0-.6.2-1 .7-1.4.5-.4 1.1-.6 1.9-.6.8 0 1.5.2 1.9.6.5.4.7.9.7 1.5h-1.7c0-.2-.1-.5-.2-.6-.2-.2-.4-.2-.7-.2-.3 0-.5.1-.7.2-.2.1-.2.3-.2.5s.1.3.3.5c.2.1.5.2.9.3.4.1.8.2 1.1.3.9.3 1.4.9 1.4 1.7 0 .6-.3 1.1-.8 1.4s-1.1.5-1.9.5c-.5 0-1-.1-1.4-.3s-.7-.5-1-.8c-.2-.3-.4-.7-.4-1.1h1.6c0 .3.1.5.3.7.2.2.5.2.8.2.3 0 .6-.1.7-.2.2-.1.3-.3.3-.5zM679.5 202.3l.1.7c.5-.6 1.1-.8 1.8-.8.8 0 1.4.3 1.7 1 .5-.7 1.1-1 1.9-1 .7 0 1.2.2 1.5.6.3.4.5 1 .5 1.8v4.1h-1.7v-4.1c0-.4-.1-.6-.2-.8-.1-.2-.4-.2-.8-.2-.5 0-.9.2-1.1.7v4.4h-1.7v-4.1c0-.4-.1-.6-.2-.8-.1-.2-.4-.2-.7-.2-.5 0-.8.2-1.1.6v4.5h-1.7v-6.4h1.7zM691.1 208.8c-.9 0-1.7-.3-2.3-.9s-.9-1.3-.9-2.3v-.2c0-.6.1-1.2.4-1.7.2-.5.6-.9 1.1-1.2.5-.3 1-.4 1.6-.4.9 0 1.6.3 2.1.8.5.6.8 1.3.8 2.3v.7h-4.1c.1.4.2.8.5 1s.6.4 1.1.4c.7 0 1.2-.2 1.5-.7l.8.9c-.3.4-.6.6-1 .9-.6.3-1.1.4-1.6.4zm-.2-5.2c-.3 0-.6.1-.8.3-.2.2-.3.6-.4 1h2.4v-.1c0-.4-.1-.7-.3-.9s-.5-.3-.9-.3zM696.6 200.7v1.6h1.1v1.3h-1.1v3.2c0 .2 0 .4.1.5.1.1.3.2.5.2h.5v1.3c-.3.1-.7.2-1 .2-1.2 0-1.8-.6-1.8-1.8v-3.5h-.9v-1.3h.9v-1.6h1.7zM698.4 200.6c0-.3.1-.5.3-.6.2-.2.4-.2.7-.2.3 0 .5.1.7.2.2.2.3.4.3.6 0 .3-.1.5-.3.6-.2.2-.4.3-.7.3-.3 0-.5-.1-.7-.3-.2-.1-.3-.3-.3-.6zm1.8 8.1h-1.7v-6.4h1.7v6.4zM704.1 207.5c.3 0 .6-.1.8-.3s.3-.4.3-.7h1.6c0 .4-.1.8-.4 1.2-.2.4-.6.6-1 .8-.4.2-.9.3-1.3.3-.9 0-1.6-.3-2.2-.9s-.8-1.4-.8-2.4v-.1c0-1 .3-1.8.8-2.4.5-.6 1.2-.9 2.2-.9.8 0 1.4.2 1.9.7.5.5.7 1.1.7 1.8h-1.6c0-.3-.1-.6-.3-.8s-.5-.3-.8-.3c-.4 0-.7.1-.9.4s-.3.8-.3 1.4v.2c0 .7.1 1.1.3 1.4.3.4.6.6 1 .6zM713.6 203.9h-.6c-.6 0-1.1.2-1.3.7v4.2H710v-6.4h1.6v.8c.3-.6.8-.9 1.4-.9.2 0 .4 0 .5.1l.1 1.5zM717.2 208.8c-.9 0-1.7-.3-2.3-.9s-.9-1.3-.9-2.3v-.2c0-.6.1-1.2.4-1.7.2-.5.6-.9 1.1-1.2.5-.3 1-.4 1.6-.4.9 0 1.6.3 2.1.8.5.6.8 1.3.8 2.3v.7h-4.1c.1.4.2.8.5 1s.6.4 1.1.4c.7 0 1.2-.2 1.5-.7l.8.9c-.3.4-.6.6-1 .9-.6.3-1.1.4-1.6.4zm-.2-5.2c-.3 0-.6.1-.8.3-.2.2-.3.6-.4 1h2.4v-.1c0-.4-.1-.7-.3-.9s-.5-.3-.9-.3zM720.3 205.5c0-1 .2-1.8.7-2.4.5-.6 1.1-.9 1.9-.9.7 0 1.2.2 1.6.7l.1-.6h1.6v6.2c0 .6-.1 1-.4 1.5-.3.4-.6.7-1.1.9s-1 .3-1.6.3c-.5 0-.9-.1-1.4-.3-.4-.2-.8-.4-1-.7l.8-1c.4.5.9.7 1.6.7.5 0 .8-.1 1.1-.4.3-.2.4-.6.4-1v-.3c-.4.4-.9.7-1.6.7-.8 0-1.4-.3-1.9-.9-.5-.7-.8-1.5-.8-2.5zm1.7.1c0 .6.1 1 .3 1.4.2.3.6.5 1 .5.5 0 .9-.2 1.1-.6v-2.7c-.2-.4-.6-.6-1.1-.6-.4 0-.7.2-1 .5-.1.3-.3.8-.3 1.5zM727.3 200.6c0-.3.1-.5.3-.6.2-.2.4-.2.7-.2.3 0 .5.1.7.2.2.2.3.4.3.6 0 .3-.1.5-.3.6-.2.2-.4.3-.7.3-.3 0-.5-.1-.7-.3-.2-.1-.3-.3-.3-.6zm1.8 8.1h-1.7v-6.4h1.7v6.4zM733.8 206.9c0-.2-.1-.4-.3-.5-.2-.1-.5-.2-1-.3-1.5-.3-2.3-1-2.3-1.9 0-.6.2-1 .7-1.4.5-.4 1.1-.6 1.9-.6.8 0 1.5.2 1.9.6.5.4.7.9.7 1.5h-1.7c0-.2-.1-.5-.2-.6-.2-.2-.4-.2-.7-.2-.3 0-.5.1-.7.2-.2.1-.2.3-.2.5s.1.3.3.5c.2.1.5.2.9.3.4.1.8.2 1.1.3.9.3 1.4.9 1.4 1.7 0 .6-.3 1.1-.8 1.4s-1.1.5-1.9.5c-.5 0-1-.1-1.4-.3s-.7-.5-1-.8c-.2-.3-.4-.7-.4-1.1h1.6c0 .3.1.5.3.7.2.2.5.2.8.2.3 0 .6-.1.7-.2.2-.1.3-.3.3-.5zM738.4 200.7v1.6h1.1v1.3h-1.1v3.2c0 .2 0 .4.1.5.1.1.3.2.5.2h.5v1.3c-.3.1-.7.2-1 .2-1.2 0-1.8-.6-1.8-1.8v-3.5h-.9v-1.3h.9v-1.6h1.7zM743.8 203.9h-.6c-.6 0-1.1.2-1.3.7v4.2h-1.7v-6.4h1.6v.8c.3-.6.8-.9 1.4-.9.2 0 .4 0 .5.1l.1 1.5zM746.8 206.3l1.2-4h1.8l-2.6 7.4-.1.3c-.4.8-1 1.3-1.9 1.3-.2 0-.5 0-.8-.1v-1.3h.3c.3 0 .6 0 .7-.1.2-.1.3-.3.4-.5l.2-.5-2.2-6.4h1.8l1.2 3.9z"/></g>
<g><path class="st2" d="M469.2 200.5l-.2.2-.3.3c-.1.1-.2.2-.3.4-.1.1-.2.3-.3.4-.1.2-.2.3-.3.5l-.3.6c-.1.2-.2.5-.2.7-.1.3-.1.5-.1.8 0 .3 0 .7.1 1 .1.3.2.7.4 1s.4.7.7 1c.3.3.6.7.9 1l-.8.9c-.9-.8-1.5-1.6-1.9-2.4-.4-.8-.6-1.7-.6-2.5v-.1c0-.3 0-.6.1-.9.1-.3.1-.6.3-.9.1-.3.2-.6.4-.8.1-.3.3-.5.5-.8.2-.2.4-.5.6-.7.2-.2.4-.5.7-.7l.6 1zM473.4 203.4h-.5c-.6 0-1 .2-1.2.7v3.9h-1.3v-5.7h1.2v.6c.3-.5.7-.7 1.3-.7.2 0 .3 0 .5.1v1.1zM476.7 208c-.8 0-1.5-.3-2-.8s-.8-1.2-.8-2v-.2c0-.6.1-1.1.3-1.5.2-.4.5-.8.9-1 .4-.2.8-.4 1.3-.4.8 0 1.4.2 1.8.7.4.5.6 1.2.6 2.1v.5h-3.7c0 .5.2.8.5 1.1s.6.4 1 .4c.6 0 1.1-.2 1.4-.7l.7.7c-.2.3-.5.6-.9.8-.2.2-.6.3-1.1.3zm-.1-4.9c-.4 0-.6.1-.8.4-.2.2-.4.6-.4 1h2.4v-.1c0-.4-.1-.8-.3-1-.3-.2-.6-.3-.9-.3zM479.8 205c0-.9.2-1.6.6-2.1.4-.5 1-.8 1.7-.8.6 0 1.1.2 1.5.7l.1-.6h1.1v7.9h-1.3v-2.7c-.4.4-.9.6-1.5.6-.7 0-1.2-.3-1.6-.8-.4-.5-.6-1.3-.6-2.2zm1.2.1c0 .6.1 1 .3 1.4.2.3.5.5 1 .5s.9-.2 1.1-.6v-2.6c-.2-.4-.6-.6-1.1-.6-.4 0-.7.2-1 .5s-.3.7-.3 1.4zM489.6 207.3c-.4.4-.9.7-1.6.7-.6 0-1.1-.2-1.4-.5-.3-.4-.5-.9-.5-1.6v-3.7h1.3v3.7c0 .7.3 1.1.9 1.1.6 0 1-.2 1.3-.7v-4.1h1.3v5.7h-1.2l-.1-.6zM492.1 200.7c0-.2.1-.4.2-.5.1-.1.3-.2.5-.2s.4.1.5.2.2.3.2.5-.1.4-.2.5c-.1.1-.3.2-.5.2s-.4-.1-.5-.2c-.1-.1-.2-.3-.2-.5zm1.4 7.2h-1.3v-5.7h1.3v5.7zM497.8 203.4h-.5c-.6 0-1 .2-1.2.7v3.9h-1.3v-5.7h1.2v.6c.3-.5.7-.7 1.3-.7.2 0 .3 0 .5.1v1.1zM501.2 208c-.8 0-1.5-.3-2-.8s-.8-1.2-.8-2v-.2c0-.6.1-1.1.3-1.5.2-.4.5-.8.9-1 .4-.2.8-.4 1.3-.4.8 0 1.4.2 1.8.7.4.5.6 1.2.6 2.1v.5h-3.7c0 .5.2.8.5 1.1s.6.4 1 .4c.6 0 1.1-.2 1.4-.7l.7.7c-.2.3-.5.6-.9.8-.2.2-.7.3-1.1.3zm-.2-4.9c-.4 0-.6.1-.8.4-.2.2-.4.6-.4 1h2.4v-.1c0-.4-.1-.8-.3-1-.3-.2-.5-.3-.9-.3zM504.2 205c0-.9.2-1.6.6-2.1.4-.5 1-.8 1.6-.8.6 0 1.1.2 1.5.6v-2.9h1.3v8.1H508l-.1-.6c-.4.5-.9.7-1.5.7-.7 0-1.2-.3-1.6-.8-.4-.5-.6-1.3-.6-2.2zm1.3.1c0 .6.1 1 .3 1.4.2.3.5.5.9.5.5 0 .9-.2 1.1-.7v-2.4c-.2-.5-.6-.7-1.1-.7-.4 0-.7.2-1 .5-.1.3-.2.8-.2 1.4zM513.8 207.9v-4.7h-.9v-.9h.9v-.5c0-.6.2-1.1.5-1.5.4-.3.8-.5 1.5-.5.2 0 .5 0 .7.1v1h-.5c-.6 0-.9.3-.9.9v.5h1.2v.9h-1.2v4.7h-1.3zM516.9 205c0-.6.1-1.1.3-1.5.2-.4.5-.8.9-1 .4-.2.9-.4 1.4-.4.8 0 1.4.2 1.9.7.5.5.7 1.1.8 2v.3c0 .6-.1 1.1-.3 1.5-.2.4-.5.8-.9 1-.4.2-.9.4-1.4.4-.8 0-1.4-.3-1.9-.8s-.8-1.2-.8-2.2zm1.3.1c0 .6.1 1 .4 1.4.2.3.6.5 1 .5s.8-.2 1-.5.4-.8.4-1.5c0-.6-.1-1-.4-1.4-.2-.3-.6-.5-1-.5s-.7.2-1 .5c-.3.4-.4.9-.4 1.5zM526.3 203.4h-.5c-.6 0-1 .2-1.2.7v3.9h-1.3v-5.7h1.2v.6c.3-.5.7-.7 1.3-.7.2 0 .3 0 .5.1v1.1zM528.3 202.2v.6c.4-.5.9-.7 1.6-.7.8 0 1.3.3 1.6.9.4-.6 1-.9 1.7-.9.6 0 1.1.2 1.4.5s.5.9.5 1.5v3.7h-1.3v-3.7c0-.4-.1-.6-.2-.8-.2-.2-.4-.3-.8-.3-.3 0-.5.1-.7.2-.2.2-.3.4-.4.6v3.9h-1.3V204c0-.7-.4-1-1-1-.5 0-.9.2-1.1.6v4.1H527V202h1.3zM539.9 207.9c-.1-.1-.1-.3-.1-.5-.4.4-.9.6-1.5.6s-1-.2-1.4-.5c-.4-.3-.5-.7-.5-1.2 0-.6.2-1.1.7-1.4.5-.3 1.1-.5 1.9-.5h.8v-.4c0-.3-.1-.5-.2-.7-.2-.2-.4-.3-.8-.3-.3 0-.5.1-.7.2-.2.1-.3.3-.3.6h-1.3c0-.3.1-.6.3-.9.2-.3.5-.5.8-.6s.8-.2 1.2-.2c.7 0 1.2.2 1.6.5s.6.8.6 1.4v2.6c0 .5.1.9.2 1.2v.1h-1.3zm-1.4-.9c.3 0 .5-.1.7-.2s.4-.3.5-.5v-1.1h-.7c-.5 0-.8.1-1.1.2-.2.2-.4.4-.4.7 0 .2.1.4.2.6.3.2.5.3.8.3zM543.9 200.8v1.4h1v.9h-1v3.2c0 .2 0 .4.1.5.1.1.2.1.5.1.1 0 .3 0 .4-.1v1c-.3.1-.6.1-.8.1-1 0-1.5-.5-1.5-1.6v-3.2h-.9v-.9h.9v-1.4h1.3zM546.1 209.6l-.7-.4c.2-.3.3-.6.4-.8.1-.2.1-.5.1-.7v-1h1.2v.9c0 .4-.1.7-.3 1.1-.2.4-.5.7-.7.9zM485.3 212.8v1.4h1v.9h-1v3.2c0 .2 0 .4.1.5.1.1.2.1.5.1.1 0 .3 0 .4-.1v1c-.3.1-.6.1-.8.1-1 0-1.5-.5-1.5-1.6v-3.2h-.9v-.9h.9v-1.4h1.3zM489.2 218.1l1.2-3.9h1.4l-2.3 6.6c-.3 1-.9 1.4-1.8 1.4-.2 0-.4 0-.6-.1v-1h.2c.3 0 .6-.1.7-.2.2-.1.3-.3.4-.6l.2-.5-2-5.7h1.4l1.2 4zM497.5 217.1c0 .9-.2 1.6-.6 2.1-.4.5-.9.8-1.6.8-.6 0-1.1-.2-1.5-.6v2.7h-1.3v-7.9h1.2l.1.6c.4-.5.9-.7 1.5-.7.7 0 1.2.3 1.6.8s.6 1.2.6 2.2zm-1.3-.1c0-.6-.1-1-.3-1.4-.2-.3-.6-.5-1-.5-.5 0-.9.2-1.1.6v2.5c.2.4.6.7 1.1.7.4 0 .7-.2 1-.5.2-.2.3-.7.3-1.4zM501.1 220c-.8 0-1.5-.3-2-.8s-.8-1.2-.8-2v-.2c0-.6.1-1.1.3-1.5.2-.4.5-.8.9-1 .4-.2.8-.4 1.3-.4.8 0 1.4.2 1.8.7.4.5.6 1.2.6 2.1v.5h-3.7c0 .5.2.8.5 1.1s.6.4 1 .4c.6 0 1.1-.2 1.4-.7l.7.7c-.2.3-.5.6-.9.8-.2.2-.6.3-1.1.3zm-.2-4.9c-.4 0-.6.1-.8.4-.2.2-.4.6-.4 1h2.4v-.1c0-.4-.1-.8-.3-1-.2-.2-.5-.3-.9-.3zM510.4 218.4c0-.2-.1-.4-.3-.5-.2-.1-.5-.2-.9-.3-.4-.1-.8-.2-1.1-.3-.6-.3-1-.8-1-1.3s.2-.9.6-1.2c.4-.3.9-.5 1.6-.5.7 0 1.2.2 1.7.5.4.3.6.8.6 1.3h-1.3c0-.2-.1-.5-.3-.6-.2-.2-.4-.2-.7-.2-.3 0-.5.1-.7.2-.2.1-.3.3-.3.5s.1.3.2.5c.2.1.5.2 1 .3.5.1.9.2 1.2.4.3.2.5.3.6.6.1.2.2.5.2.8 0 .5-.2.9-.6 1.2-.4.3-1 .5-1.7.5-.5 0-.9-.1-1.2-.3s-.6-.4-.9-.7c-.2-.3-.3-.6-.3-1h1.2c0 .3.1.5.3.7.2.2.5.2.8.2.3 0 .6-.1.8-.2.4-.3.5-.4.5-.6zM512.7 212.7c0-.2.1-.4.2-.5.1-.1.3-.2.5-.2s.4.1.5.2.2.3.2.5-.1.4-.2.5c-.1.1-.3.2-.5.2s-.4-.1-.5-.2c-.1-.1-.2-.3-.2-.5zm1.4 7.2h-1.3v-5.7h1.3v5.7zM516.9 218.9h3v1h-4.6v-.8l2.9-3.8h-2.8v-1h4.5v.8l-3 3.8zM523.4 220c-.8 0-1.5-.3-2-.8s-.8-1.2-.8-2v-.2c0-.6.1-1.1.3-1.5.2-.4.5-.8.9-1 .4-.2.8-.4 1.3-.4.8 0 1.4.2 1.8.7.4.5.6 1.2.6 2.1v.5H522c0 .5.2.8.5 1.1s.6.4 1 .4c.6 0 1.1-.2 1.4-.7l.7.7c-.2.3-.5.6-.9.8-.4.2-.8.3-1.3.3zm-.1-4.9c-.4 0-.6.1-.8.4-.2.2-.4.6-.4 1h2.4v-.1c0-.4-.1-.8-.3-1-.3-.2-.6-.3-.9-.3zM527.4 211.6c.3.2.5.5.7.7s.4.5.5.7c.2.3.3.5.5.8.1.3.3.6.4.8.1.3.2.6.2.9.1.3.1.6.1.9v.1c0 .9-.2 1.7-.6 2.5s-1 1.6-1.9 2.4l-.8-.9c.3-.3.7-.7.9-1 .3-.3.5-.7.7-1s.3-.7.4-1c.1-.3.1-.7.1-1 0-.3-.1-.5-.1-.8s-.1-.5-.2-.7l-.3-.6c-.1-.2-.2-.4-.3-.5-.1-.1-.2-.3-.3-.4-.1-.1-.2-.2-.3-.4s-.2-.2-.3-.3l-.2-.2.8-1z"/></g>
<g><path class="st2" d="M823.3 181.7h-1.8v-8.6h1.8v8.6zM826.4 175.3l.1.7c.5-.6 1.1-.9 1.8-.9s1.2.2 1.5.6.5 1 .5 1.8v4.1h-1.7v-4.1c0-.4-.1-.6-.2-.8s-.4-.2-.8-.2c-.5 0-.8.2-1.1.6v4.5h-1.7v-6.4h1.6zM831.3 178.5c0-1 .2-1.8.7-2.4.5-.6 1.1-.9 1.9-.9.7 0 1.2.2 1.6.7l.1-.6h1.6v6.2c0 .6-.1 1-.4 1.5-.3.4-.6.7-1.1.9s-1 .3-1.6.3c-.5 0-.9-.1-1.4-.3-.4-.2-.8-.4-1-.7l.8-1c.4.5.9.7 1.6.7.5 0 .8-.1 1.1-.4.3-.2.4-.6.4-1v-.3c-.4.4-.9.7-1.6.7-.8 0-1.4-.3-1.9-.9-.5-.7-.8-1.5-.8-2.5zm1.8.1c0 .6.1 1 .3 1.4.2.3.6.5 1 .5.5 0 .9-.2 1.1-.6v-2.7c-.2-.4-.6-.6-1.1-.6-.4 0-.7.2-1 .5-.2.3-.3.8-.3 1.5zM842.1 176.9h-.6c-.6 0-1.1.2-1.3.7v4.2h-1.7v-6.4h1.6v.8c.3-.6.8-.9 1.4-.9.2 0 .4 0 .5.1l.1 1.5zM845.9 181.8c-.9 0-1.7-.3-2.3-.9s-.9-1.3-.9-2.3v-.2c0-.6.1-1.2.4-1.7.2-.5.6-.9 1.1-1.2.5-.3 1-.4 1.6-.4.9 0 1.6.3 2.1.8.5.6.8 1.3.8 2.3v.7h-4.1c.1.4.2.8.5 1s.6.4 1.1.4c.7 0 1.2-.2 1.5-.7l.8.9c-.3.4-.6.6-1 .9-.6.3-1.1.4-1.6.4zm-.2-5.2c-.3 0-.6.1-.8.3-.2.2-.3.6-.4 1h2.4v-.1c0-.4-.1-.7-.3-.9s-.6-.3-.9-.3zM849.2 178.5c0-1 .2-1.8.7-2.4s1.1-.9 1.8-.9c.6 0 1.1.2 1.5.7v-3.3h1.7v9.1h-1.5l-.1-.7c-.4.5-1 .8-1.6.8-.8 0-1.4-.3-1.8-.9-.5-.5-.7-1.4-.7-2.4zm1.7.1c0 .6.1 1.1.3 1.4.2.3.5.5.9.5.5 0 .9-.2 1.1-.7v-2.5c-.2-.4-.6-.7-1.1-.7-.8 0-1.2.7-1.2 2zM856.3 173.7c0-.3.1-.5.3-.6.2-.2.4-.2.7-.2.3 0 .5.1.7.2.2.2.3.4.3.6 0 .3-.1.5-.3.6-.2.2-.4.3-.7.3-.3 0-.5-.1-.7-.3-.2-.2-.3-.4-.3-.6zm1.8 8h-1.7v-6.4h1.7v6.4zM862.5 181.8c-.9 0-1.7-.3-2.3-.9s-.9-1.3-.9-2.3v-.2c0-.6.1-1.2.4-1.7.2-.5.6-.9 1.1-1.2.5-.3 1-.4 1.6-.4.9 0 1.6.3 2.1.8.5.6.8 1.3.8 2.3v.7H861c.1.4.2.8.5 1s.6.4 1.1.4c.7 0 1.2-.2 1.5-.7l.8.9c-.3.4-.6.6-1 .9-.4.3-.9.4-1.4.4zm-.2-5.2c-.3 0-.6.1-.8.3-.2.2-.3.6-.4 1h2.4v-.1c0-.4-.1-.7-.3-.9s-.6-.3-.9-.3zM867.7 175.3l.1.7c.5-.6 1.1-.9 1.8-.9s1.2.2 1.5.6.5 1 .5 1.8v4.1h-1.7v-4.1c0-.4-.1-.6-.2-.8s-.4-.2-.8-.2c-.5 0-.8.2-1.1.6v4.5H866v-6.4h1.7zM874.9 173.7v1.6h1.1v1.3h-1.1v3.2c0 .2 0 .4.1.5.1.1.3.2.5.2h.5v1.3c-.3.1-.7.2-1 .2-1.2 0-1.8-.6-1.8-1.8v-3.5h-.9v-1.3h.9v-1.6h1.7zM883.1 179.9c0-.2-.1-.4-.3-.5-.2-.1-.5-.2-1-.3-1.5-.3-2.3-1-2.3-1.9 0-.6.2-1 .7-1.4.5-.4 1.1-.6 1.9-.6.8 0 1.5.2 1.9.6.5.4.7.9.7 1.5H883c0-.2-.1-.5-.2-.6-.2-.2-.4-.2-.7-.2-.3 0-.5.1-.7.2-.2.1-.2.3-.2.5s.1.3.3.5c.2.1.5.2.9.3.4.1.8.2 1.1.3.9.3 1.4.9 1.4 1.7 0 .6-.3 1.1-.8 1.4s-1.1.5-1.9.5c-.5 0-1-.1-1.4-.3s-.7-.5-1-.8c-.2-.3-.4-.7-.4-1.1h1.6c0 .3.1.5.3.7.2.2.5.2.8.2.3 0 .6-.1.7-.2.2-.1.3-.2.3-.5zM887.9 173.7v1.6h1.1v1.3h-1.1v3.2c0 .2 0 .4.1.5.1.1.3.2.5.2h.5v1.3c-.3.1-.7.2-1 .2-1.2 0-1.8-.6-1.8-1.8v-3.5h-.9v-1.3h.9v-1.6h1.7zM893.7 181.7c-.1-.2-.1-.3-.2-.6-.4.5-1 .7-1.6.7-.6 0-1.2-.2-1.6-.5-.4-.4-.6-.8-.6-1.4 0-.7.3-1.2.8-1.6.5-.4 1.2-.5 2.2-.5h.8v-.4c0-.3-.1-.5-.2-.7-.2-.2-.4-.3-.7-.3-.3 0-.5.1-.7.2-.2.1-.2.3-.2.6H890c0-.4.1-.7.3-1 .2-.3.6-.6 1-.7.4-.2.9-.3 1.4-.3.8 0 1.4.2 1.9.6.5.4.7 1 .7 1.7v2.8c0 .6.1 1.1.3 1.4v.1h-1.9zm-1.4-1.2c.3 0 .5-.1.7-.2s.4-.3.5-.5v-1.1h-.6c-.9 0-1.3.3-1.4.9v.1c0 .2.1.4.2.5.1.3.3.3.6.3zM898.5 173.7v1.6h1.1v1.3h-1.1v3.2c0 .2 0 .4.1.5.1.1.3.2.5.2h.5v1.3c-.3.1-.7.2-1 .2-1.2 0-1.8-.6-1.8-1.8v-3.5h-.9v-1.3h.9v-1.6h1.7zM903.5 181.8c-.9 0-1.7-.3-2.3-.9s-.9-1.3-.9-2.3v-.2c0-.6.1-1.2.4-1.7.2-.5.6-.9 1.1-1.2.5-.3 1-.4 1.6-.4.9 0 1.6.3 2.1.8.5.6.8 1.3.8 2.3v.7h-4.1c.1.4.2.8.5 1s.6.4 1.1.4c.7 0 1.2-.2 1.5-.7l.8.9c-.3.4-.6.6-1 .9-.5.3-1 .4-1.6.4zm-.2-5.2c-.3 0-.6.1-.8.3-.2.2-.3.6-.4 1h2.4v-.1c0-.4-.1-.7-.3-.9s-.5-.3-.9-.3zM908.7 175.3l.1.7c.5-.6 1.1-.8 1.8-.8.8 0 1.4.3 1.7 1 .5-.7 1.1-1 1.9-1 .7 0 1.2.2 1.5.6.3.4.5 1 .5 1.8v4.1h-1.7v-4.1c0-.4-.1-.6-.2-.8-.1-.2-.4-.2-.8-.2-.5 0-.9.2-1.1.7v4.4h-1.7v-4.1c0-.4-.1-.6-.2-.8-.1-.2-.4-.2-.7-.2-.5 0-.8.2-1.1.6v4.5H907v-6.4h1.7zM920.6 181.8c-.9 0-1.7-.3-2.3-.9s-.9-1.3-.9-2.3v-.2c0-.6.1-1.2.4-1.7.2-.5.6-.9 1.1-1.2.5-.3 1-.4 1.6-.4.9 0 1.6.3 2.1.8.5.6.8 1.3.8 2.3v.7h-4.1c.1.4.2.8.5 1s.6.4 1.1.4c.7 0 1.2-.2 1.5-.7l.8.9c-.3.4-.6.6-1 .9-.6.3-1.1.4-1.6.4zm-.2-5.2c-.3 0-.6.1-.8.3-.2.2-.3.6-.4 1h2.4v-.1c0-.4-.1-.7-.3-.9s-.6-.3-.9-.3zM925.8 175.3l.1.7c.5-.6 1.1-.9 1.8-.9s1.2.2 1.5.6.5 1 .5 1.8v4.1H928v-4.1c0-.4-.1-.6-.2-.8s-.4-.2-.8-.2c-.5 0-.8.2-1.1.6v4.5h-1.7v-6.4h1.6zM933 173.7v1.6h1.1v1.3H933v3.2c0 .2 0 .4.1.5.1.1.3.2.5.2h.5v1.3c-.3.1-.7.2-1 .2-1.2 0-1.8-.6-1.8-1.8v-3.5h-.9v-1.3h.9v-1.6h1.7z"/></g>
<g><path class="st2" d="M810.2 187.8l-.2.2-.3.3c-.1.1-.2.2-.3.4-.1.1-.2.3-.3.4-.1.2-.2.3-.3.5l-.3.6c-.1.2-.2.5-.2.7-.1.3-.1.5-.1.8 0 .3 0 .7.1 1 .1.3.2.7.4 1s.4.7.7 1c.3.3.6.7.9 1l-.8.9c-.9-.8-1.5-1.6-1.9-2.4-.4-.8-.6-1.7-.6-2.5v-.1c0-.3 0-.6.1-.9.1-.3.1-.6.3-.9.1-.3.2-.6.4-.8.1-.3.3-.5.5-.8.2-.2.4-.5.6-.7.2-.2.4-.5.7-.7l.6 1zM813.8 194.2c.3 0 .6-.1.8-.3s.3-.4.3-.7h1.2c0 .4-.1.7-.3 1s-.5.5-.8.7c-.4.2-.7.3-1.2.3-.8 0-1.4-.3-1.9-.8s-.7-1.2-.7-2.1v-.1c0-.9.2-1.6.7-2.1.5-.5 1.1-.8 1.9-.8.7 0 1.2.2 1.7.6.4.4.6.9.7 1.6H815c0-.3-.1-.6-.3-.8-.2-.2-.5-.3-.8-.3-.4 0-.7.2-1 .5s-.3.8-.3 1.4v.2c0 .6.1 1.1.3 1.4.2.2.5.3.9.3zM818.4 190.1c.4-.5.9-.7 1.6-.7 1.2 0 1.8.7 1.8 2.1v3.7h-1.3v-3.7c0-.4-.1-.7-.3-.8-.2-.2-.4-.2-.7-.2-.5 0-.9.2-1.1.7v4.1h-1.3v-8.1h1.3v2.9zM826.5 195.2c-.1-.1-.1-.3-.1-.5-.4.4-.9.6-1.5.6s-1-.2-1.4-.5c-.4-.3-.5-.7-.5-1.2 0-.6.2-1.1.7-1.4.5-.3 1.1-.5 1.9-.5h.8v-.4c0-.3-.1-.5-.2-.7-.2-.2-.4-.3-.8-.3-.3 0-.5.1-.7.2-.2.1-.3.3-.3.6H823c0-.3.1-.6.3-.9.2-.3.5-.5.8-.6s.8-.2 1.2-.2c.7 0 1.2.2 1.6.5s.6.8.6 1.4v2.6c0 .5.1.9.2 1.2v.1h-1.2zm-1.4-1c.3 0 .5-.1.7-.2s.4-.3.5-.5v-1.1h-.7c-.5 0-.8.1-1.1.2-.2.2-.4.4-.4.7 0 .2.1.4.2.6.3.3.5.3.8.3zM830.1 189.5v.7c.4-.5 1-.8 1.7-.8 1.2 0 1.8.7 1.8 2v3.8h-1.3v-3.7c0-.4-.1-.6-.2-.8s-.4-.3-.8-.3c-.5 0-.9.2-1.2.7v4.1h-1.3v-5.7h1.3zM834.7 192.3c0-.9.2-1.6.6-2.1s1-.8 1.7-.8c.6 0 1.2.2 1.5.7l.1-.6h1.2v5.5c0 .7-.2 1.3-.7 1.8-.5.4-1.1.6-1.9.6-.4 0-.8-.1-1.2-.3-.4-.2-.7-.4-.9-.7l.6-.8c.4.5.9.7 1.5.7.4 0 .8-.1 1-.3.2-.2.4-.6.4-1v-.4c-.4.4-.9.6-1.5.6-.7 0-1.2-.3-1.6-.8-.6-.5-.8-1.2-.8-2.1zm1.3.1c0 .6.1 1 .4 1.3s.6.5 1 .5c.5 0 .9-.2 1.1-.7V191c-.2-.4-.6-.6-1.1-.6-.4 0-.7.2-1 .5-.3.3-.4.8-.4 1.5zM843.5 195.3c-.8 0-1.5-.3-2-.8s-.8-1.2-.8-2v-.2c0-.6.1-1.1.3-1.5.2-.4.5-.8.9-1 .4-.2.8-.4 1.3-.4.8 0 1.4.2 1.8.7.4.5.6 1.2.6 2.1v.5h-3.7c0 .5.2.8.5 1.1s.6.4 1 .4c.6 0 1.1-.2 1.4-.7l.7.7c-.2.3-.5.6-.9.8-.2.2-.6.3-1.1.3zm-.1-4.9c-.4 0-.6.1-.8.4-.2.2-.4.6-.4 1h2.4v-.1c0-.4-.1-.8-.3-1-.3-.2-.6-.3-.9-.3zM850 193.6c0-.2-.1-.4-.3-.5-.2-.1-.5-.2-.9-.3-.4-.1-.8-.2-1.1-.3-.6-.3-1-.8-1-1.3s.2-.9.6-1.2c.4-.3.9-.5 1.6-.5.7 0 1.2.2 1.7.5.4.3.6.8.6 1.3h-1.3c0-.2-.1-.5-.3-.6-.2-.2-.4-.2-.7-.2-.3 0-.5.1-.7.2-.2.1-.3.3-.3.5s.1.3.2.5c.2.1.5.2 1 .3.5.1.9.2 1.2.4.3.2.5.3.6.6.1.2.2.5.2.8 0 .5-.2.9-.6 1.2-.4.3-1 .5-1.7.5-.5 0-.9-.1-1.2-.3s-.6-.4-.9-.7c-.2-.3-.3-.6-.3-1h1.2c0 .3.1.5.3.7.2.2.5.2.8.2.3 0 .6-.1.8-.2.4-.2.5-.4.5-.6zM856.8 188.1v1.4h1v.9h-1v3.2c0 .2 0 .4.1.5.1.1.2.1.5.1.1 0 .3 0 .4-.1v1c-.3.1-.6.1-.8.1-1 0-1.5-.5-1.5-1.6v-3.2h-.9v-.9h.9v-1.4h1.3zM858.5 192.3c0-.6.1-1.1.3-1.5.2-.4.5-.8.9-1 .4-.2.9-.4 1.4-.4.8 0 1.4.2 1.9.7.5.5.7 1.1.8 2v.3c0 .6-.1 1.1-.3 1.5-.2.4-.5.8-.9 1-.4.2-.9.4-1.4.4-.8 0-1.4-.3-1.9-.8-.5-.6-.8-1.3-.8-2.2zm1.3.1c0 .6.1 1 .4 1.4.2.3.6.5 1 .5s.8-.2 1-.5.4-.8.4-1.5c0-.6-.1-1-.4-1.4-.2-.3-.6-.5-1-.5s-.7.2-1 .5c-.3.3-.4.8-.4 1.5zM869.3 188.1v1.4h1v.9h-1v3.2c0 .2 0 .4.1.5.1.1.2.1.5.1.1 0 .3 0 .4-.1v1c-.3.1-.6.1-.8.1-1 0-1.5-.5-1.5-1.6v-3.2h-.9v-.9h.9v-1.4h1.3zM872.6 190.1c.4-.5.9-.7 1.6-.7 1.2 0 1.8.7 1.8 2.1v3.7h-1.3v-3.7c0-.4-.1-.7-.3-.8-.2-.2-.4-.2-.7-.2-.5 0-.9.2-1.1.7v4.1h-1.3v-8.1h1.3v2.9zM879.8 195.3c-.8 0-1.5-.3-2-.8s-.8-1.2-.8-2v-.2c0-.6.1-1.1.3-1.5.2-.4.5-.8.9-1 .4-.2.8-.4 1.3-.4.8 0 1.4.2 1.8.7.4.5.6 1.2.6 2.1v.5h-3.7c0 .5.2.8.5 1.1s.6.4 1 .4c.6 0 1.1-.2 1.4-.7l.7.7c-.2.3-.5.6-.9.8-.2.2-.6.3-1.1.3zm-.1-4.9c-.4 0-.6.1-.8.4-.2.2-.4.6-.4 1h2.4v-.1c0-.4-.1-.8-.3-1-.3-.2-.6-.3-.9-.3zM885.7 192.3c0-.6.1-1.1.3-1.5.2-.4.5-.8.9-1 .4-.2.9-.4 1.4-.4.8 0 1.4.2 1.9.7.5.5.7 1.1.8 2v.3c0 .6-.1 1.1-.3 1.5-.2.4-.5.8-.9 1-.4.2-.9.4-1.4.4-.8 0-1.4-.3-1.9-.8-.6-.6-.8-1.3-.8-2.2zm1.3.1c0 .6.1 1 .4 1.4.2.3.6.5 1 .5s.8-.2 1-.5.4-.8.4-1.5c0-.6-.1-1-.4-1.4-.2-.3-.6-.5-1-.5s-.7.2-1 .5c-.3.3-.4.8-.4 1.5zM895 190.6h-.5c-.6 0-1 .2-1.2.7v3.9H892v-5.7h1.2v.6c.3-.5.7-.7 1.3-.7.2 0 .3 0 .5.1v1.1zM895.6 192.3c0-.9.2-1.6.6-2.1.4-.5 1-.8 1.6-.8.6 0 1.1.2 1.5.6v-2.9h1.3v8.1h-1.2l-.1-.6c-.4.5-.9.7-1.5.7-.7 0-1.2-.3-1.6-.8-.4-.6-.6-1.3-.6-2.2zm1.3.1c0 .6.1 1 .3 1.4.2.3.5.5.9.5.5 0 .9-.2 1.1-.7v-2.4c-.2-.5-.6-.7-1.1-.7-.4 0-.7.2-1 .5-.1.2-.2.7-.2 1.4zM904.4 195.3c-.8 0-1.5-.3-2-.8s-.8-1.2-.8-2v-.2c0-.6.1-1.1.3-1.5.2-.4.5-.8.9-1 .4-.2.8-.4 1.3-.4.8 0 1.4.2 1.8.7.4.5.6 1.2.6 2.1v.5H903c0 .5.2.8.5 1.1s.6.4 1 .4c.6 0 1.1-.2 1.4-.7l.7.7c-.2.3-.5.6-.9.8-.4.2-.8.3-1.3.3zm-.1-4.9c-.4 0-.6.1-.8.4-.2.2-.4.6-.4 1h2.4v-.1c0-.4-.1-.8-.3-1-.3-.2-.6-.3-.9-.3zM910.7 190.6h-.5c-.6 0-1 .2-1.2.7v3.9h-1.3v-5.7h1.2v.6c.3-.5.7-.7 1.3-.7.2 0 .3 0 .5.1v1.1zM914.1 192.3c0-.6.1-1.1.3-1.5.2-.4.5-.8.9-1 .4-.2.9-.4 1.4-.4.8 0 1.4.2 1.9.7.5.5.7 1.1.8 2v.3c0 .6-.1 1.1-.3 1.5-.2.4-.5.8-.9 1-.4.2-.9.4-1.4.4-.8 0-1.4-.3-1.9-.8-.6-.6-.8-1.3-.8-2.2zm1.3.1c0 .6.1 1 .4 1.4.2.3.6.5 1 .5s.8-.2 1-.5.4-.8.4-1.5c0-.6-.1-1-.4-1.4-.2-.3-.6-.5-1-.5s-.7.2-1 .5c-.3.3-.4.8-.4 1.5zM923.4 190.6h-.5c-.6 0-1 .2-1.2.7v3.9h-1.3v-5.7h1.2v.6c.3-.5.7-.7 1.3-.7.2 0 .3 0 .5.1v1.1zM928.7 188.1v1.4h1v.9h-1v3.2c0 .2 0 .4.1.5.1.1.2.1.5.1.1 0 .3 0 .4-.1v1c-.3.1-.6.1-.8.1-1 0-1.5-.5-1.5-1.6v-3.2h-.9v-.9h.9v-1.4h1.3zM931.9 190.1c.4-.5.9-.7 1.6-.7 1.2 0 1.8.7 1.8 2.1v3.7H934v-3.7c0-.4-.1-.7-.3-.8-.2-.2-.4-.2-.7-.2-.5 0-.9.2-1.1.7v4.1h-1.3v-8.1h1.3v2.9zM939.2 195.3c-.8 0-1.5-.3-2-.8s-.8-1.2-.8-2v-.2c0-.6.1-1.1.3-1.5.2-.4.5-.8.9-1 .4-.2.8-.4 1.3-.4.8 0 1.4.2 1.8.7.4.5.6 1.2.6 2.1v.5h-3.7c0 .5.2.8.5 1.1s.6.4 1 .4c.6 0 1.1-.2 1.4-.7l.7.7c-.2.3-.5.6-.9.8-.2.2-.7.3-1.1.3zm-.2-4.9c-.4 0-.6.1-.8.4-.2.2-.4.6-.4 1h2.4v-.1c0-.4-.1-.8-.3-1-.3-.2-.5-.3-.9-.3zM840.7 201.5v.7c.4-.5 1-.8 1.7-.8 1.2 0 1.8.7 1.8 2v3.8h-1.3v-3.7c0-.4-.1-.6-.2-.8s-.4-.3-.8-.3c-.5 0-.9.2-1.2.7v4.1h-1.3v-5.7h1.3zM845.2 204.3c0-.6.1-1.1.3-1.5.2-.4.5-.8.9-1 .4-.2.9-.4 1.4-.4.8 0 1.4.2 1.9.7.5.5.7 1.1.8 2v.3c0 .6-.1 1.1-.3 1.5-.2.4-.5.8-.9 1-.4.2-.9.4-1.4.4-.8 0-1.4-.3-1.9-.8-.5-.6-.8-1.3-.8-2.2zm1.3.1c0 .6.1 1 .4 1.4.2.3.6.5 1 .5s.8-.2 1-.5.4-.8.4-1.5c0-.6-.1-1-.4-1.4-.2-.3-.6-.5-1-.5s-.7.2-1 .5c-.3.3-.4.8-.4 1.5zM852.8 201.5v.6c.4-.5.9-.7 1.6-.7.8 0 1.3.3 1.6.9.4-.6 1-.9 1.7-.9.6 0 1.1.2 1.4.5s.5.9.5 1.5v3.7h-1.3v-3.7c0-.4-.1-.6-.2-.8-.2-.2-.4-.3-.8-.3-.3 0-.5.1-.7.2-.2.2-.3.4-.4.6v3.9H855v-3.7c0-.7-.4-1-1-1-.5 0-.9.2-1.1.6v4.1h-1.3v-5.7h1.2zM863.5 207.3c-.8 0-1.5-.3-2-.8s-.8-1.2-.8-2v-.2c0-.6.1-1.1.3-1.5.2-.4.5-.8.9-1 .4-.2.8-.4 1.3-.4.8 0 1.4.2 1.8.7.4.5.6 1.2.6 2.1v.5h-3.7c0 .5.2.8.5 1.1s.6.4 1 .4c.6 0 1.1-.2 1.4-.7l.7.7c-.2.3-.5.6-.9.8-.2.2-.6.3-1.1.3zm-.2-4.9c-.4 0-.6.1-.8.4-.2.2-.4.6-.4 1h2.4v-.1c0-.4-.1-.8-.3-1-.2-.2-.5-.3-.9-.3zM868 201.5v.7c.4-.5 1-.8 1.7-.8 1.2 0 1.8.7 1.8 2v3.8h-1.3v-3.7c0-.4-.1-.6-.2-.8s-.4-.3-.8-.3c-.5 0-.9.2-1.2.7v4.1h-1.3v-5.7h1.3zM875.1 206.2c.3 0 .6-.1.8-.3s.3-.4.3-.7h1.2c0 .4-.1.7-.3 1s-.5.5-.8.7c-.4.2-.7.3-1.2.3-.8 0-1.4-.3-1.9-.8s-.7-1.2-.7-2.1v-.1c0-.9.2-1.6.7-2.1.5-.5 1.1-.8 1.9-.8.7 0 1.2.2 1.7.6.4.4.6.9.7 1.6h-1.2c0-.3-.1-.6-.3-.8-.2-.2-.5-.3-.8-.3-.4 0-.7.2-1 .5s-.3.8-.3 1.4v.2c0 .6.1 1.1.3 1.4.2.2.5.3.9.3zM879.8 207.2h-1.3v-8.1h1.3v8.1zM884.6 207.2c-.1-.1-.1-.3-.1-.5-.4.4-.9.6-1.5.6s-1-.2-1.4-.5c-.4-.3-.5-.7-.5-1.2 0-.6.2-1.1.7-1.4.5-.3 1.1-.5 1.9-.5h.8v-.4c0-.3-.1-.5-.2-.7-.2-.2-.4-.3-.8-.3-.3 0-.5.1-.7.2-.2.1-.3.3-.3.6h-1.3c0-.3.1-.6.3-.9.2-.3.5-.5.8-.6s.8-.2 1.2-.2c.7 0 1.2.2 1.6.5s.6.8.6 1.4v2.6c0 .5.1.9.2 1.2v.1h-1.3zm-1.4-1c.3 0 .5-.1.7-.2s.4-.3.5-.5v-1.1h-.7c-.5 0-.8.1-1.1.2-.2.2-.4.4-.4.7 0 .2.1.4.2.6.3.3.5.3.8.3zM888.6 200.1v1.4h1v.9h-1v3.2c0 .2 0 .4.1.5.1.1.2.1.5.1.1 0 .3 0 .4-.1v1c-.3.1-.6.1-.8.1-1 0-1.5-.5-1.5-1.6v-3.2h-.9v-.9h.9v-1.4h1.3zM894 206.6c-.4.4-.9.7-1.6.7-.6 0-1.1-.2-1.4-.5-.3-.4-.5-.9-.5-1.6v-3.7h1.3v3.7c0 .7.3 1.1.9 1.1.6 0 1-.2 1.3-.7v-4.1h1.3v5.7H894v-.6zM899.5 202.6h-.5c-.6 0-1 .2-1.2.7v3.9h-1.3v-5.7h1.2v.6c.3-.5.7-.7 1.3-.7.2 0 .3 0 .5.1v1.1zM902.9 207.3c-.8 0-1.5-.3-2-.8s-.8-1.2-.8-2v-.2c0-.6.1-1.1.3-1.5.2-.4.5-.8.9-1 .4-.2.8-.4 1.3-.4.8 0 1.4.2 1.8.7.4.5.6 1.2.6 2.1v.5h-3.7c0 .5.2.8.5 1.1s.6.4 1 .4c.6 0 1.1-.2 1.4-.7l.7.7c-.2.3-.5.6-.9.8-.2.2-.7.3-1.1.3zm-.2-4.9c-.4 0-.6.1-.8.4-.2.2-.4.6-.4 1h2.4v-.1c0-.4-.1-.8-.3-1-.3-.2-.5-.3-.9-.3zM906.8 198.8c.3.2.5.5.7.7s.4.5.5.7c.2.3.3.5.5.8.1.3.3.6.4.8.1.3.2.6.2.9.1.3.1.6.1.9v.1c0 .9-.2 1.7-.6 2.5s-1 1.6-1.9 2.4l-.8-.9c.3-.3.7-.7.9-1 .3-.3.5-.7.7-1s.3-.7.4-1c.1-.3.1-.7.1-1 0-.3-.1-.5-.1-.8s-.1-.5-.2-.7l-.3-.6c-.1-.2-.2-.4-.3-.5-.1-.1-.2-.3-.3-.4-.1-.1-.2-.2-.3-.4s-.2-.2-.3-.3l-.2-.2.8-1z"/></g>

<g><path class="st2" d="M662.2 155.8h2.1v-29.1h1.5v2.8h5.3v-9.1c-.3 0-.5 0-.8-.1v-2h11.3v2c-.3 0-.5 0-.8.1v9.7h5.1v-9.7c-.3 0-.5 0-.8-.1v-2h11.3v2c-.3 0-.5 0-.8.1v9.7h5.1v-9.7c-.3 0-.5 0-.8-.1v-2h11.3v2c-.3 0-.5 0-.8.1v9.2h5.2v-2.9h1.5v29.1h2.2v8.8h-57c-.1-1.6-.1-7.1-.1-8.8zm48-24.6v19c0 .9-.1 1.8-.6 2.6-1.1 1.9-3.3 2.8-5.5 2.2-2.2-.6-3.5-2.3-3.5-4.6v-17.8-.7h-5.1v18.5c0 1.5-.5 2.7-1.6 3.6-1.6 1.3-3.4 1.5-5.3.7-1.8-.8-2.7-2.3-2.7-4.3v-17.6-.8h-5.1v18.3c0 1.2-.3 2.2-1 3.1-1.3 1.6-3.5 2.2-5.5 1.5-1.9-.7-3.1-2.4-3.1-4.5v-18.1-1H666v24.6h49.6v-24.6c-1.9-.1-3.6-.1-5.4-.1zm-30.8 2v-13.6h-7v13.6h7zm14.8 0v-13.6h-7v13.6h7zm7.7-13.6v13.6h7v-13.6h-7z"/><path class="st10" d="M682.5 161.1c-.1.6-.3 1.1-.7 1.5s-.9.5-1.6.5c-.5 0-.9-.1-1.3-.3-.4-.2-.6-.5-.8-1-.2-.4-.3-.9-.3-1.4v-.6c0-.6.1-1.1.3-1.5.2-.4.5-.8.9-1 .4-.2.8-.3 1.3-.3.7 0 1.2.2 1.6.5.4.4.6.9.7 1.5h-1c0-.4-.2-.7-.4-.9-.2-.2-.5-.3-.9-.3s-.8.2-1 .5-.4.8-.4 1.4v.5c0 .6.1 1.1.3 1.5.2.3.6.5 1 .5s.7-.1.9-.3c.2-.2.3-.5.4-.9h1zM688.4 161.6h-2.3l-.5 1.4h-1.1l2.2-5.9h.9l2.2 5.9h-1.1l-.3-1.4zm-2-.8h1.7l-.9-2.5-.8 2.5zM695.4 161.5c0-.3-.1-.5-.3-.6-.2-.1-.5-.3-1-.4-.5-.1-.9-.3-1.1-.5-.5-.3-.8-.8-.8-1.3s.2-.9.6-1.2c.4-.3.9-.5 1.5-.5.4 0 .8.1 1.1.2s.6.4.8.7c.2.3.3.6.3.9h-1c0-.3-.1-.6-.3-.7-.2-.2-.5-.3-.8-.3-.3 0-.6.1-.8.2-.2.1-.3.3-.3.6 0 .2.1.4.3.5.2.1.5.3 1 .4.5.1.8.3 1.1.5.3.2.5.4.6.6s.2.5.2.8c0 .5-.2.9-.6 1.2-.4.3-.9.4-1.5.4-.4 0-.8-.1-1.2-.2-.4-.2-.6-.4-.8-.7-.2-.3-.3-.6-.3-1h1c0 .3.1.6.3.8.2.2.5.3 1 .3.4 0 .6-.1.8-.2.1-.1.2-.3.2-.5zM701.3 161.4h-.9l-.3 1.7h-.7l.3-1.7h-.9v-.6h1.1l.2-1.3h-1v-.7h1.1l.3-1.7h.7l-.3 1.7h.9l.3-1.7h.7l-.3 1.7h.8v.7h-1l-.2 1.3h.9v.6h-1l-.3 1.7h-.7l.3-1.7zm-.8-.7h.9l.2-1.3h-.9l-.2 1.3z"/></g>

<g><path class="st2" d="M137.5 131.1c-.6 0-.9.2-.8.6 0 .4.3.6.9.6h6.5c0-.4-.7-.6-.7-1.3h-5.5c-.2.1-.3.1-.4.1zM138 133.8c-.5 0-.8.2-.8.6 0 .4.3.6.8.6h7.2v-1.3c-2.6.1-6.9.1-7.2.1zM138.6 136.5h-.5c-.3 0-.5.2-.5.5s.1.6.4.6c.2.1.4.1.5.1h7l.5-1.3c-2.3.1-6.6.1-7.4.1zM139.1 139h-.5c-.3 0-.5.2-.5.5s.1.6.4.6c.2.1.4.1.5.1h6.4l.2-1.3c-2.2.1-5.7.1-6.5.1zM132.2 128.8l2.2 18.2 1.2.5-2.2-19.2z"/>

<g><path class="st2" d="M130.1 146c4.5 3.2 10.9 2.2 14.1-2.4 3.2-4.5 2.2-10.9-2.4-14.1-4.5-3.2-10.9-2.2-14.1 2.4-3.2 4.5-2.2 10.8 2.4 14.1zm-1.8-13.8c3-4.2 9-5.2 13.2-2.2 4.2 3 5.2 9 2.2 13.2-3 4.2-9 5.2-13.2 2.2-4.3-3-5.3-8.9-2.2-13.2z"/><path class="st2" d="M114.4 165.3l2.4 1.7c1 .7 2.3.5 3-.5l9.1-12.8c.5-.7.5-1.7 0-2.4l.3-.3 1.3-1.8s0-.1.1-.1c5.4 2.5 12 .9 15.5-4.1 4-5.6 2.7-13.5-2.9-17.5s-13.5-2.7-17.5 2.9c-3.6 5-2.9 11.7 1.1 16l-.1.1-1.3 1.8c-.1.1-.1.3-.2.4-.8-.2-1.7.1-2.3.8l-9.1 12.8c-.6 1-.4 2.3.6 3zm15-18.4c-5.1-3.6-6.2-10.7-2.6-15.7 3.6-5.1 10.7-6.2 15.7-2.6 5.1 3.6 6.2 10.7 2.6 15.7s-10.6 6.2-15.7 2.6zm-1 3.2l-1.7-1.2 1-1.4 1.7 1.2-1 1.4zm-13.5 13l9.1-12.8c.3-.4.8-.5 1.2-.2l2.4 1.7c.4.3.5.8.2 1.2l-9.1 12.8c-.3.4-.8.5-1.2.2l-2.4-1.7c-.3-.3-.4-.8-.2-1.2z"/></g></g>

<g><path class="st2" d="M133.2 128.4l-.9.3c.8 6.3 1.5 12.6 2.3 18.8h.9c-.8-6.3-1.6-12.7-2.3-19.1z"/><path class="st2" d="M149.1 156.8c-.1-.6-.3-1-.7-1.5h.5c1.5-12.7 3-25.4 4.6-38h-22.6c.4 3 .7 6.1 1.1 9.1h.9c-.2-1.9-.5-3.8-.7-5.7h20c-.1.5-.1 1-.2 1.6-.3 2.2-.5 4.5-.8 6.7-.3 2.2-.5 4.4-.8 6.7-.2 2.1-.5 4.1-.7 6.2-.2 2.1-.5 4.2-.8 6.2-.2 2-.5 4.1-.7 6.1 0 .2-.1.3-.3.3h-11.6l-.6-4.8h-.9c.2 1.9.5 3.8.7 5.7h.7c-.6.9-.7 1.2-.7 2.3v3.6c0 1.6 1.2 2.8 2.8 2.8h8.2c1.4 0 2.6-1 2.7-2.3 0-1.8-.1-3.4-.1-5zm-17-37.1c-.1-.5-.1-1-.2-1.6h20.6c-.1.5-.1 1-.2 1.6h-20.2zM140 163c-.1-.9 1-2 2.1-2 1.2-.1 2.4.9 2.4 2H140zm8.3-2c0 1.2-.8 2-2 2h-.8c-.5-1.9-1.6-2.9-3.2-2.9s-2.7 1-3.2 2.9c-.5 0-1 .1-1.5-.1-.7-.3-1.2-1-1.2-1.8v-4c0-1 .8-1.9 1.9-1.9h8c1.2 0 2 .8 2 2v3.8z"/><path class="st2" d="M152.5 118.1c-.1.5-.1 1-.2 1.6h-20.2c-.1-.5-.1-1-.2-1.6h20.6zM144.5 163h-4.4c-.1-.9 1-2 2.1-2 1.1-.1 2.3.9 2.3 2zM137.6 146.1l-2.1-18.3-.9.2c.7 6.3 1.4 12.7 2.1 19h2.3l1.6-.9h-3z"/><path class="st2" d="M134.4 125.5c0 .3.1.6.1.9h14.8c-.9 6.6-1.8 13.1-2.7 19.6h-2.2l-1.1.9h4.1c1-7.2 2-14.3 2.9-21.4h-15.9z"/></g>

<g><path class="st2" d="M160.3 150.4h.5c.1 0 .2.1.2.2v1.2c0 .2-.1.2-.2.2v12.1h-8.4v-.3-11.6c0-.1 0-.3-.1-.4v-.2-1.1c0-.3 0-.3.3-.3h.1v-.3-9.1c0-.3 0-.3.3-.3v-4c1.1-.2 1.9-.8 2.6-1.6 1.2-1.3 2.2-2.7 3-4.2.2-.3.3-.6.4-.9l.9 2.4v8.2c.3.1.3.1.3.4v9.1c.1.3.1.4.1.5zm-7.3 0h7V141h-7v9.4zm-.5.3v1.1h8.2v-1.1h-8.2z"/><path class="st2" d="M153 136.3c.1-.4.2-.7.3-1.1.3-.7.7-1.4 1.2-2 1-1.3 2.1-2.5 3.4-3.4.2-.2.4-.3.7-.4h.1v.4c-.1.3-.2.5-.3.8-.9 1.7-2 3.2-3.3 4.6-.4.5-1 .9-1.6 1.1-.1 0-.3.1-.5 0 .1.1.1.1 0 0z"/></g>

<g><path class="st2" d="M343.1 130.4c-.3.8-.7 1.5-1.2 2.2-.5.8-.7 1.7 0 2.3.5.4 1.3.6 1.9.5.5-.1.9-.7 1.3-1.2.6-.9 1-1.7 1.4-2.7-1.1-.3-2.3-.8-3.4-1.1z"/><path class="st2" d="M344.7 119.2c-3.3-5.1-9.5-7.6-15.4-6.1-2.2.6-4.1 1.6-5.8 3h-.2c-.3-.2-.6-.5-.9-.7-3.3-2.4-7-3.3-11-2.5-5.5 1.1-9.3 4.4-11 9.8-1.6 5.4-.3 10.2 3.7 14.3 2.7 2.8 5.5 5.5 8.3 8.2 3.2 3.2 6.5 6.4 9.7 9.7.8.8 1.5 1 2.2.3 1.4-1.4 2.8-2.7 4.2-4.1.6-.6.5-1.4 0-1.9-.5-.6-1.3-.6-2 0-.3.2-.5.5-.7.7-.8.8-1.5 1.7-2.2 2.5-.3-.2-.4-.2-.4-.3-5.8-5.8-11.7-11.5-17.4-17.4-3.2-3.3-3.9-7.3-2.4-11.6 2.7-7.8 12.7-10.1 18.7-4.4 1.1 1 1.6 1.1 2.6.1 2.7-2.6 6-3.7 9.7-3.2 6 .7 10.6 6.8 9.6 12.8-.1.6-.2 1.2-.4 1.8 1 0 2 .1 2.7.6 1.2-3.8.7-8.1-1.6-11.6z"/><path class="st2" d="M332.5 145.2H328c-.8 0-1.1-.3-1.1-1.1v-3.4c0-.8.3-1.1 1.1-1.1h4.4v-4.2c0-1.2.1-1.3 1.2-1.3h3.3c.7 0 1 .3 1 1v4.5h4.2c1.2 0 1.3.1 1.3 1.3v3c0 .9-.3 1.2-1.2 1.2-1.4-.1-2.8 0-4.4 0v3.7c0 1.9 0 1.9-1.8 1.9h-2.7c-.7 0-1.1-.3-1-1 .2-1.5.2-2.9.2-4.5z"/><path class="st2" d="M344.8 140.4c0-1.4-.1-1.5-1.5-1.5h-4.9v-5.3c0-.8-.3-1.2-1.1-1.1h-3.8c-1.3 0-1.4.1-1.4 1.5v4.9h-2l4.4 7.6 4.1 1.4v-2.7h5.1c1 0 1.4-.4 1.3-1.4-.2-1.1-.2-2.2-.2-3.4z"/>

<g><path class="st10" d="M339.5 127.5c-6 0-10.8 4.9-10.8 10.8 0 6 4.9 10.8 10.8 10.8 6 0 10.8-4.9 10.8-10.8 0-6-4.9-10.8-10.8-10.8zm.1 19.8c-5 0-9-4-9-9s4-9 9-9 9 4 9 9c0 4.9-4 9-9 9z"/><path class="st2" d="M347 132.9c-3-4.1-8.7-5.1-12.8-2.1-4.1 3-5.1 8.7-2.1 12.8 3 4.1 8.7 5.1 12.8 2.1 4.1-2.9 5-8.6 2.1-12.8zm-2.5 12.4c-3.9 2.8-9.2 1.9-12-2-2.8-3.9-1.9-9.2 2-12 3.9-2.8 9.2-1.9 12 2 2.7 3.8 1.8 9.2-2 12z"/><path class="st2" d="M359.5 160.6l-8.3-11.6c-.5-.7-1.3-.9-2.1-.7 0-.1-.1-.3-.2-.4l-1.2-1.7-.1-.1c3.7-3.9 4.3-10 1-14.5-3.7-5.1-10.8-6.3-15.9-2.6-5.1 3.7-6.3 10.8-2.6 15.9 3.2 4.5 9.2 6 14.1 3.7 0 0 0 .1.1.1l1.2 1.7.3.3c-.4.6-.5 1.5 0 2.2l8.3 11.6c.6.9 1.8 1.1 2.7.4l2.2-1.6c.9-.6 1.1-1.8.5-2.7zm-28.4-16.4c-3.3-4.6-2.2-11 2.4-14.3 4.6-3.3 11-2.2 14.3 2.4 3.3 4.6 2.2 11-2.4 14.3-4.6 3.3-11 2.2-14.3-2.4zm14.3 4l1.6-1.1.9 1.3-1.6 1.1-.9-1.3zm13 14.2l-2.2 1.6c-.3.2-.8.2-1.1-.2l-8.3-11.6c-.2-.3-.2-.8.2-1.1l2.2-1.6c.3-.2.8-.2 1.1.2l8.3 11.6c.2.4.1.8-.2 1.1z"/></g></g>

<g><path class="st2" d="M896.2 150.3c.2.3.1.5.1.7v6c0 2.5-1.9 4.4-4.5 4.4H862c-2.5 0-4.4-1.9-4.4-4.4v-38.8c0-2.5 1.9-4.3 4.3-4.4h3.5c.4 0 .5.1.5.5 0 .7 0 1.3.1 2 0 .4-.1.5-.5.5h-3.4c-1.1 0-1.5.5-1.5 1.5v38.4c0 1.2.5 1.6 1.6 1.6h29.4c1.1 0 1.6-.5 1.6-1.6v-3c0-.2 0-.4.1-.6 1-.9 1.9-1.8 2.9-2.8z"/><path class="st2" d="M877 118h-8c-1.1 0-1.5-.4-1.6-1.5v-2.7c0-.9.5-1.4 1.4-1.4h.1c1.5.3 2.2-.4 2.8-1.7.9-1.8.6-1.6 2.7-1.6h6.1c.6 0 1 .2 1.2.7.4.7.8 1.3 1.2 2 .2.4.4.5.9.5h1.6c.8 0 1.3.5 1.3 1.3v2.9c0 .9-.5 1.3-1.4 1.3-2.9.2-5.6.2-8.3.2zM903.9 140.3c0 .2-.1.2-.2.3l-13.1 13.1c-.2.2-.3.2-.6 0-1.1-1.1-2.1-2.2-3.2-3.2-.2-.2-.2-.4 0-.6l13.1-13.1c.2-.2.3-.3.6 0 1.1 1.1 2.1 2.2 3.2 3.2.1.2.2.3.2.3zM893.3 141.2c-.1-.2-.1-.4-.1-.6v-22.1c0-1.4-.4-1.7-1.7-1.7h-3c-.4 0-.6-.1-.5-.5v-2.1c0-.3.1-.5.4-.5 1.4 0 2.7-.1 4.1 0 2.1.1 3.9 2.1 3.9 4.3v19.8c0 .3-.1.6-.3.8-.8.7-1.5 1.5-2.3 2.3-.2.2-.3.4-.5.3zM880.3 146.4h-6.1c-.5 0-.9-.2-1-.7-.1-.5 0-.9.4-1.2.2-.2.5-.2.7-.2h12.2c.7 0 1.2.4 1.2 1s-.5 1.1-1.2 1.1h-6.2zM865.3 143c.3 0 .5.1.7.3l1.3 1.3c.2.3.4.3.7 0 1.3-1.3 2.6-2.7 3.9-4 .2-.2.4-.4.7-.4.4 0 .7.1.9.4.2.4.2.7-.1 1.1-.4.4-.8.9-1.2 1.3-1.2 1.2-2.4 2.4-3.6 3.7-.6.6-1 .6-1.6 0-.7-.7-1.4-1.5-2.1-2.2-.3-.3-.4-.6-.2-1-.1-.4.2-.5.6-.5zM870.4 151.5c0 1.4-1.1 2.5-2.5 2.5-1.3 0-2.5-1.1-2.5-2.5s1.1-2.5 2.5-2.5 2.5 1.1 2.5 2.5zM880.7 150.4h3.4c.7 0 .7 0 .5.7-.5 1.8-.1 1.4-1.9 1.4h-5.5c-.7 0-1.2-.3-1.2-.9-.1-.7.4-1.2 1.2-1.2h3.5zM886.2 150.8l3.6 3.6c-1.4.4-2.9.8-4.4 1.2-.3.1-.5-.1-.4-.4.4-1.5.8-3 1.2-4.4zM905.9 138.2c0 .3-.8 1.3-1.1 1.4-.1 0-.2-.1-.3-.2l-3.3-3.3c-.1-.1-.2-.2-.1-.4l.9-.9c.3-.2.6-.2.9.1l2.8 2.8c.1.1.2.3.2.5z"/></g>
<g><circle class="st2" cx="869.2" cy="128.9" r="1"/><circle class="st2" cx="872.5" cy="131.3" r="1"/><circle class="st2" cx="876.3" cy="129.4" r="1"/><circle class="st2" cx="876.5" cy="125.3" r="1"/><circle class="st2" cx="873.4" cy="122.6" r="1"/><circle class="st2" cx="880.3" cy="123.5" r="1"/><circle class="st2" cx="883.8" cy="125.9" r="1"/><circle class="st2" cx="887.4" cy="123.9" r="1"/><circle class="st2" cx="879.7" cy="131.8" r="1"/><circle class="st2" cx="883.5" cy="130" r="1"/><circle class="st2" cx="879.4" cy="136" r="1"/><circle class="st2" cx="882.8" cy="138.4" r="1"/><circle class="st2" cx="872.2" cy="135.5" r="1"/><path transform="rotate(-53.848 870.838 130.102)" class="st2" d="M870.4 129.2h.8v1.8h-.8z"/><path transform="rotate(-53.848 875.007 123.994)" class="st2" d="M874.5 123.1h.8v1.8h-.8z"/><path transform="scale(-1) rotate(63.007 212.743 -1426.618)" class="st2" d="M874 129.5h.8v1.8h-.8z"/><path transform="scale(-1) rotate(63.007 203.683 -1444.886)" class="st2" d="M885.2 123.9h.8v1.8h-.8z"/><path transform="scale(-1) rotate(63.007 203.013 -1433.149)" class="st2" d="M878 123.5h.8v1.8h-.8z"/><path transform="scale(-1) rotate(63.007 213.62 -1438.356)" class="st2" d="M881.2 130h.8v1.8h-.8z"/><path transform="rotate(-53.848 878.011 130.655)" class="st2" d="M877.5 129.7h.8v1.8h-.8z"/><path transform="rotate(-53.848 881.162 137.217)" class="st2" d="M880.7 136.3h.8v1.8h-.8z"/><path transform="rotate(-53.848 882.067 124.658)" class="st2" d="M881.6 123.7h.8v1.8h-.8z"/><path transform="rotate(-176.639 872.365 133.42) scale(1.00002)" class="st2" d="M872 132.5h.8v1.8h-.8z"/><path transform="rotate(-176.639 876.407 127.4) scale(1.00002)" class="st2" d="M876 126.5h.8v1.8h-.8z"/><path transform="rotate(-176.639 883.597 127.871) scale(1.00002)" class="st2" d="M883.2 126.9h.8v1.8h-.8z"/><path transform="rotate(-176.639 879.58 133.88) scale(1.00002)" class="st2" d="M879.2 133h.8v1.8h-.8z"/></g>

<g><path class="st2" d="M871.4 126.5h-.6v-1.3h-1.2v1.3h-.6v-3.1h.6v1.2h1.2v-1.2h.6v3.1z"/></g>

<g><path class="st2" d="M870 133.7c0 .3-.1.6-.2.8-.1.2-.3.4-.5.5s-.4.2-.7.2c-.3 0-.5-.1-.7-.2-.2-.1-.4-.3-.5-.5s-.2-.5-.2-.8v-.2c0-.3.1-.6.2-.8.1-.2.3-.4.5-.5.2-.1.4-.2.7-.2s.5.1.7.2c.2.1.4.3.5.5.1.2.2.5.2.8v.2zm-.7-.1c0-.3-.1-.6-.2-.7-.1-.2-.3-.3-.5-.3s-.4.1-.5.2c-.1.2-.2.4-.2.7v.1c0 .3.1.6.2.7.1.2.3.3.5.3s.4-.1.5-.2c.1-.2.2-.4.2-.7v-.1z"/></g>

<g><path class="st2" d="M887.8 132.2c-.2.3-.3.4-.6.6s-.4.2-.7.2c-.2 0-.5-.1-.7-.2-.2-.1-.4-.3-.5-.5-.1-.2-.1-.4-.1-.7 0-.3.1-.5.3-.8l.1-.1c.2-.3.3-.4.6-.6.2-.1.4-.2.7-.2s.5.1.7.2c.2.1.4.3.5.5.1.2.1.4.1.7 0 .3-.1.5-.3.8l-.1.1zm-.5-.4c.2-.3.3-.5.2-.7 0-.2-.1-.4-.3-.5s-.4-.1-.5-.1-.4.3-.5.5l-.1.1c-.2.3-.3.5-.2.7 0 .2.1.4.3.5.2.1.4.1.5.1.2-.1.4-.3.5-.5l.1-.1zM889.5 135.1l-.5-.3.7-1.1-1-.7-.7 1.1-.5-.3 1.6-2.6.5.3-.7 1 1 .7.7-1 .5.3-1.6 2.6z"/></g>

<g><path class="st2" d="M882.4 120.8c0 .3-.1.6-.4.8-.2.2-.5.3-.9.3s-.7-.1-.9-.4c-.2-.3-.3-.6-.3-1.1v-.2c0-.3.1-.6.2-.8.1-.2.3-.4.4-.5.2-.1.4-.2.7-.2.4 0 .6.1.9.3.2.2.3.5.4.8h-.6c0-.2-.1-.3-.2-.4s-.2-.1-.4-.1-.4.1-.5.2c-.1.2-.2.4-.2.7v.2c0 .3 0 .6.2.7.1.2.3.2.5.2s.3 0 .4-.1c.1-.1.2-.2.2-.4h.5z"/></g>

<g><path class="st2" d="M531.9 138.4c-.6 0-1.1.1-1.6.4-.4-1.3-1.3-2.1-2.4-2.4v-25.2c0-3.1-2.5-5.5-5.5-5.5h-38.5c-3.1 0-5.5 2.5-5.5 5.5v3.1c0 1.5 1.2 2.7 2.7 2.7h1.1v44c0 1.5 1.2 2.7 2.7 2.7h31c2.1 1.3 4.3 2 6.6 2 1.3 0 2.5-.2 3.8-.7 2.7-.9 5.2-2.9 6.9-5.6 1.8-2.8 2.7-6.3 2.7-10v-7.2c-.3-2.5-2.2-3.8-4-3.8zM484.3 161v-44H495c.6 0 1.2-.5 1.2-1.2s-.5-1.2-1.2-1.2h-14.2c-.2 0-.3-.1-.3-.3v-3.1c0-1.8 1.4-3.2 3.2-3.2h34c-.6.9-1 2-1 3.2v3.1c0 .2-.1.3-.3.3h-10.8c-.6 0-1.2.5-1.2 1.2s.5 1.2 1.2 1.2h10.8c1.5 0 2.7-1.2 2.7-2.7v-3.1c0-1.8 1.4-3.2 3.2-3.2 1.8 0 3.2 1.4 3.2 3.2v25.2c-.2 0-.3.1-.5.2-.5-1.7-2.1-2.6-3.6-2.6-.5 0-1 .1-1.4.3v-6.6c0-2.6-1.9-3.9-3.8-3.9s-3.8 1.3-3.8 3.9v18.4l-2.7-2.9c-1.6-1.7-3.9-1.9-5.6-.4-1.7 1.4-2.4 4.2-.6 6.6l8.1 10.4c.4.5.8 1 1.2 1.4h-28.2c-.1.1-.3-.1-.3-.2zm49-11.5c0 6.4-3.1 11.6-8 13.3-4.1 1.4-8.5-.2-11.8-4.3l-8.1-10.4c-1-1.2-.6-2.7.2-3.4.2-.2.6-.4 1.1-.4.4 0 .8.2 1.3.7l2.9 3.1c.8.9 1.8 1.9 2.9 1.5.9-.4 1-1.4 1-1.7v-1.7V127.9c0-1.5 1.2-1.6 1.4-1.6.2 0 1.4.1 1.4 1.6v16.8c0 .6.5 1.2 1.2 1.2s1.2-.5 1.2-1.2v-6.5c0-1.5 1.2-1.6 1.4-1.6.4 0 .7.1 1 .4.3.3.4.7.4 1.2v6.5c0 .6.5 1.2 1.2 1.2.6 0 1.2-.5 1.2-1.2v-4.3c0-1.5 1.2-1.6 1.4-1.6.4 0 .7.1 1 .4.3.3.4.7.4 1.2v4.3c0 .6.5 1.2 1.2 1.2.6 0 1.2-.5 1.2-1.2v-2.1c0-1.5 1.2-1.6 1.4-1.6.4 0 .7.1 1 .4.3.3.4.7.4 1.2l.1 6.9z"/><path class="st2" d="M490.1 143.6h9.7c.6 0 1.2-.5 1.2-1.2s-.5-1.2-1.2-1.2h-9.7c-.6 0-1.2.5-1.2 1.2s.5 1.2 1.2 1.2zM490.1 138h19.1c.6 0 1.2-.5 1.2-1.2s-.5-1.2-1.2-1.2h-19.1c-.6 0-1.2.5-1.2 1.2s.5 1.2 1.2 1.2zM490.1 150.4h8.5c.6 0 1.2-.5 1.2-1.2s-.5-1.2-1.2-1.2h-8.5c-.6 0-1.2.5-1.2 1.2s.5 1.2 1.2 1.2zM504.8 154.7H490c-.6 0-1.2.5-1.2 1.2s.5 1.2 1.2 1.2h14.8c.6 0 1.2-.5 1.2-1.2s-.5-1.2-1.2-1.2zM500 133h-10.6c-.6-.1-.9-.7-.6-1.3l3.9-6.9c2.2-3.8 4.3-7.6 6.5-11.4.1-.1.1-.2.2-.4.2-.3.4-.5.7-.5.3 0 .6.2.8.5 1.5 2.7 3 5.4 4.6 8.1l5.7 10.2.3.6c.1.5-.3.9-.8.9h-9.2c-.6.2-1.1.2-1.5.2zm-.5-17.3l-8.7 15.3c-.3.5.1 1 .6 1h17.3c.5 0 .9-.6.6-1-2.9-5.1-5.7-10.2-8.6-15.3-.3-.5-1-.5-1.2 0z"/><path class="st2" d="M498.8 120.9c0-.8.6-1.3 1.3-1.3.7 0 1.2.7 1.1 1.4-.1 1.2-.3 2.5-.4 3.7-.1.7-.1 1.4-.2 2.1 0 .4-.3.6-.6.6s-.6-.3-.6-.6c-.2-1.9-.4-3.7-.6-5.6v-.3zM500 128.1c.5 0 1 .4 1 1 0 .5-.4 1-1 1-.5 0-1-.4-1-1s.5-1 1-1z"/></g>

</svg>