<svg fill="none" fill-rule="evenodd" stroke="black" stroke-width="0.501" stroke-linejoin="bevel" stroke-miterlimit="10" xmlns="http://www.w3.org/2000/svg" version="1.1" overflow="visible" viewBox="0 -305.637 223.456 305.637">
<g id="Layer 1" transform="scale(1 -1)">
<rect x="0.043" y="45.131" width="223.37" height="223.369" stroke="none" fill="#ffffff" stroke-linejoin="miter"/>
<g id="Group" stroke-linejoin="miter" stroke-linecap="round" stroke="none" stroke-width="0.25">
<path d="M 111.728,57.58 C 135.658,57.58 157.838,65.115 176.023,77.94 C 171.279,109.355 167.997,123.432 158.177,131.643 C 152.738,136.268 145.332,138.577 134.373,141.767 C 131.521,142.596 126.711,143.982 124.277,144.51 L 124.278,157.903 C 132.054,162.221 138.002,170.432 140.407,180.443 C 145.044,180.721 147.083,182.158 149.096,185.514 C 150.676,188.148 151.954,192.542 150.754,195.8 C 149.682,198.711 147.022,201.832 143.663,201.832 C 142.799,201.832 141.959,201.638 141.183,201.288 C 138.882,218.286 126.521,231.276 111.728,231.276 C 96.935,231.276 84.574,218.286 82.273,201.288 C 81.497,201.638 80.657,201.832 79.793,201.832 C 76.434,201.832 73.774,198.711 72.702,195.8 C 71.502,192.542 72.78,188.148 74.36,185.514 C 76.373,182.158 78.412,180.721 83.049,180.443 C 85.454,170.432 91.402,162.221 99.178,157.903 L 99.179,144.51 C 96.745,143.982 91.935,142.596 89.083,141.767 C 78.124,138.577 70.718,136.268 65.279,131.643 C 55.459,123.432 52.177,109.355 47.433,77.94 C 65.618,65.115 87.798,57.58 111.728,57.58 Z" fill="#f1c9a5" marker-start="none" marker-end="none"/>
<path d="M 111.728,57.58 C 135.658,57.58 157.838,65.115 176.023,77.94 C 171.279,109.355 167.997,123.432 158.177,131.643 C 152.738,136.268 145.332,138.577 134.373,141.767 C 131.521,142.596 126.711,143.982 124.277,144.51 L 124.278,157.903 C 132.054,162.221 138.002,170.432 140.407,180.443 C 145.044,180.721 147.083,182.158 149.096,185.514 C 150.676,188.148 151.954,192.542 150.754,195.8 C 149.682,198.711 147.022,201.832 143.663,201.832 C 142.799,201.832 141.959,201.638 141.183,201.288 C 138.882,218.286 126.521,231.276 111.728,231.276 L 111.728,57.58 Z" fill="#e4b992" marker-start="none" marker-end="none"/>
</g>
<path d="M 111.728,93.827 C 94.893,119.446 79.073,105.728 65.388,131.582 C 55.956,123.665 52.258,109.871 47.469,77.915 C 65.646,65.106 87.813,57.58 111.728,57.58 C 135.643,57.58 157.81,65.106 175.987,77.915 C 171.198,109.871 167.5,123.665 158.068,131.582 C 144.383,105.728 128.563,119.446 111.728,93.827 Z" fill="#007f7f" stroke="none" stroke-width="1.543" stroke-linejoin="miter" marker-start="none" marker-end="none"/>
<g id="Group_1" stroke-linejoin="miter" stroke-linecap="round">
<ellipse cx="81.263" cy="169.444" rx="3.6" ry="3.6" fill="#00bfbf" stroke="none" stroke-width="0.5"/>
<ellipse cx="142.193" cy="169.444" rx="3.6" ry="3.6" fill="#00bfbf" stroke="none" stroke-width="0.5"/>
<path d="M 81.263,182.854 L 81.263,169.444" fill="none" stroke="#333333" stroke-width="2"/>
<path d="M 142.193,182.854 L 142.193,169.444" fill="none" stroke="#333333" stroke-width="2"/>
</g>
<path d="M 104.577,213.003 C 103.043,208.978 103.235,202.239 107.771,194.104 C 97.276,203.017 97.167,216.112 103.13,228.612 C 84.53,219.312 86.171,197.254 91.871,180.304 C 88.505,183.224 85.471,189.239 84.125,193.048 C 83.85,195.619 83.261,198.349 82.273,201.288 C 81.497,201.638 80.657,201.832 79.793,201.832 C 78.143,201.832 76.663,201.079 75.456,199.969 C 73.588,206.462 74.738,212.787 76.271,218.854 C 73.303,216.927 71.051,213.14 69.089,208.6 C 70.238,219.278 70.846,223.391 78.143,231.534 C 72.023,229.441 69.527,227.137 67.92,225.566 C 74.274,240.254 83.858,247.878 98.937,249.363 C 93.938,250.318 88.686,250.256 83.136,249.004 C 87.897,252.531 95.689,253.667 101.428,252.961 C 100.36,255.23 99.151,257.261 95.789,258.487 C 99.937,258.557 102.235,256.662 104.114,254.324 C 105.939,257.311 107.414,258.18 109.589,259.013 C 107.863,256.925 107.364,255.554 106.787,254.142 C 110.577,256.323 114.177,255.814 117.754,255.018 C 114.654,254.85 112.351,253.759 110.394,252.637 C 140.369,255.317 154.83,232.902 155.134,215.589 C 155.201,209.534 153.701,205.878 154.834,200.814 C 153.709,201.244 152.584,202.762 151.459,205.089 C 151.141,200.029 151.999,198.494 152.675,196.416 C 150.351,197.224 148.004,199.554 145.72,202.654 C 145.929,197.331 147.421,193.035 149.62,189.304 L 144.276,190.037 C 146.384,187.226 149.552,184.333 153.088,181.412 C 146.838,181.381 140.588,184.6 134.338,189.1 C 138.852,181.517 145.675,175.912 157.177,174.318 C 139.963,172.037 112.999,184.556 104.577,213.003 Z" fill="#7f4100" stroke="none" stroke-width="0.652" stroke-linejoin="round" marker-start="none" marker-end="none"/>
<g id="Group_2" stroke-linejoin="miter" stroke-linecap="round" stroke="none" stroke-width="0.456">
<path d="M 136.044,137.736 C 134.724,136.737 132.841,136.996 131.841,138.315 C 130.842,139.635 131.101,141.518 132.42,142.518 C 133.74,143.517 135.623,143.258 136.623,141.939 C 137.622,140.619 137.363,138.736 136.044,137.736 Z" fill="#007f7f" marker-start="none" marker-end="none"/>
<path d="M 133.087,131.751 C 131.654,130.924 129.817,131.415 128.989,132.849 C 128.162,134.282 128.653,136.119 130.087,136.947 C 131.52,137.774 133.357,137.283 134.185,135.849 C 135.012,134.416 134.521,132.579 133.087,131.751 Z" fill="#007f7f" marker-start="none" marker-end="none"/>
<path d="M 129.111,126.235 C 127.556,125.668 125.832,126.47 125.265,128.025 C 124.698,129.58 125.5,131.304 127.055,131.871 C 128.61,132.438 130.334,131.636 130.901,130.081 C 131.468,128.526 130.666,126.802 129.111,126.235 Z" fill="#007f7f" marker-start="none" marker-end="none"/>
<path d="M 123.912,121.6 C 122.267,121.418 120.782,122.605 120.599,124.251 C 120.417,125.896 121.604,127.381 123.25,127.564 C 124.895,127.746 126.38,126.559 126.563,124.913 C 126.745,123.268 125.558,121.783 123.912,121.6 Z" fill="#007f7f" marker-start="none" marker-end="none"/>
<path d="M 117.432,118.529 C 115.815,118.88 114.786,120.479 115.136,122.097 C 115.487,123.714 117.086,124.743 118.704,124.393 C 120.321,124.042 121.35,122.443 121,120.825 C 120.649,119.208 119.05,118.179 117.432,118.529 Z" fill="#007f7f" marker-start="none" marker-end="none"/>
<path d="M 110.327,117.719 C 108.901,118.559 108.424,120.4 109.264,121.826 C 110.104,123.252 111.945,123.729 113.371,122.889 C 114.797,122.049 115.274,120.208 114.434,118.782 C 113.594,117.356 111.753,116.879 110.327,117.719 Z" fill="#007f7f" marker-start="none" marker-end="none"/>
<path d="M 103.287,119.489 C 102.245,120.774 102.441,122.665 103.727,123.709 C 105.012,124.751 106.903,124.555 107.947,123.269 C 108.989,121.984 108.793,120.093 107.507,119.049 C 106.222,118.007 104.331,118.203 103.287,119.489 Z" fill="#007f7f" marker-start="none" marker-end="none"/>
<path d="M 97.275,123.335 C 96.67,124.875 97.429,126.618 98.97,127.224 C 100.51,127.829 102.253,127.07 102.859,125.529 C 103.464,123.989 102.705,122.246 101.164,121.64 C 99.624,121.035 97.881,121.794 97.275,123.335 Z" fill="#007f7f" marker-start="none" marker-end="none"/>
<path d="M 92.553,128.451 C 92.327,130.091 93.475,131.606 95.115,131.833 C 96.755,132.059 98.27,130.911 98.497,129.271 C 98.723,127.631 97.575,126.116 95.935,125.889 C 94.295,125.663 92.78,126.811 92.553,128.451 Z" fill="#007f7f" marker-start="none" marker-end="none"/>
<path d="M 88.987,134.258 C 89.056,135.911 90.455,137.199 92.109,137.13 C 93.762,137.061 95.05,135.662 94.981,134.008 C 94.912,132.355 93.513,131.067 91.859,131.136 C 90.206,131.205 88.918,132.604 88.987,134.258 Z" fill="#007f7f" marker-start="none" marker-end="none"/>
<path d="M 86.362,140.442 C 86.663,142.069 88.229,143.148 89.857,142.847 C 91.484,142.546 92.563,140.98 92.262,139.352 C 91.961,137.725 90.395,136.646 88.767,136.947 C 87.14,137.248 86.061,138.814 86.362,140.442 Z" fill="#007f7f" marker-start="none" marker-end="none"/>
<path d="M 135.174,138.884 C 134.488,138.365 133.509,138.499 132.989,139.185 C 132.47,139.871 132.604,140.85 133.29,141.37 C 133.976,141.889 134.955,141.755 135.475,141.069 C 135.994,140.383 135.86,139.404 135.174,138.884 Z" fill="#00bfbf" marker-start="none" marker-end="none"/>
<path d="M 132.367,132.999 C 131.622,132.569 130.667,132.824 130.237,133.569 C 129.807,134.314 130.062,135.269 130.807,135.699 C 131.552,136.129 132.507,135.874 132.937,135.129 C 133.367,134.384 133.112,133.429 132.367,132.999 Z" fill="#00bfbf" marker-start="none" marker-end="none"/>
<path d="M 128.617,127.589 C 127.809,127.294 126.913,127.711 126.619,128.519 C 126.324,129.327 126.741,130.223 127.549,130.517 C 128.357,130.812 129.253,130.395 129.547,129.587 C 129.842,128.779 129.425,127.883 128.617,127.589 Z" fill="#00bfbf" marker-start="none" marker-end="none"/>
<path d="M 123.753,123.032 C 122.898,122.938 122.126,123.555 122.031,124.41 C 121.937,125.265 122.554,126.037 123.409,126.132 C 124.264,126.226 125.036,125.609 125.131,124.754 C 125.225,123.899 124.608,123.127 123.753,123.032 Z" fill="#00bfbf" marker-start="none" marker-end="none"/>
<path d="M 117.737,119.937 C 116.897,120.12 116.362,120.951 116.544,121.792 C 116.727,122.632 117.558,123.167 118.399,122.985 C 119.239,122.802 119.774,121.971 119.592,121.13 C 119.409,120.29 118.578,119.755 117.737,119.937 Z" fill="#00bfbf" marker-start="none" marker-end="none"/>
<path d="M 111.058,118.961 C 110.317,119.397 110.069,120.354 110.506,121.095 C 110.942,121.836 111.899,122.084 112.64,121.647 C 113.381,121.211 113.629,120.254 113.192,119.513 C 112.756,118.772 111.799,118.524 111.058,118.961 Z" fill="#00bfbf" marker-start="none" marker-end="none"/>
<path d="M 104.406,120.397 C 103.864,121.064 103.966,122.048 104.635,122.59 C 105.302,123.132 106.286,123.03 106.828,122.361 C 107.37,121.694 107.268,120.71 106.599,120.168 C 105.932,119.626 104.948,119.728 104.406,120.397 Z" fill="#00bfbf" marker-start="none" marker-end="none"/>
<path d="M 98.616,123.862 C 98.302,124.662 98.696,125.568 99.497,125.883 C 100.297,126.197 101.203,125.803 101.518,125.002 C 101.832,124.202 101.438,123.296 100.637,122.981 C 99.837,122.667 98.931,123.061 98.616,123.862 Z" fill="#00bfbf" marker-start="none" marker-end="none"/>
<path d="M 93.981,128.648 C 93.863,129.5 94.46,130.287 95.312,130.405 C 96.164,130.523 96.951,129.926 97.069,129.074 C 97.187,128.222 96.59,127.435 95.738,127.317 C 94.886,127.199 94.099,127.796 93.981,128.648 Z" fill="#00bfbf" marker-start="none" marker-end="none"/>
<path d="M 90.427,134.198 C 90.462,135.057 91.189,135.726 92.049,135.69 C 92.908,135.655 93.577,134.928 93.541,134.068 C 93.506,133.209 92.779,132.54 91.919,132.576 C 91.06,132.611 90.391,133.338 90.427,134.198 Z" fill="#00bfbf" marker-start="none" marker-end="none"/>
<path d="M 87.779,140.18 C 87.935,141.026 88.749,141.586 89.595,141.43 C 90.441,141.274 91.001,140.46 90.845,139.614 C 90.689,138.768 89.875,138.208 89.029,138.364 C 88.183,138.52 87.623,139.334 87.779,140.18 Z" fill="#00bfbf" marker-start="none" marker-end="none"/>
</g>
</g>
</svg>
