<svg fill="none" fill-rule="evenodd" stroke="black" stroke-width="0.501" stroke-linejoin="bevel" stroke-miterlimit="10" xmlns="http://www.w3.org/2000/svg" version="1.1" overflow="visible" viewBox="0 -305.637 223.456 305.637">
<g id="Layer 1" transform="scale(1 -1)">
<rect x="0.043" y="45.131" width="223.37" height="223.369" stroke="none" fill="#ffffff" stroke-linejoin="miter"/>
<g id="Group" stroke-linejoin="miter" stroke-linecap="round" stroke="none" stroke-width="0.25">
<path d="M 111.728,57.58 C 135.658,57.58 157.838,65.115 176.023,77.94 C 171.279,109.355 167.997,123.432 158.177,131.643 C 152.738,136.268 145.332,138.577 134.373,141.767 C 131.521,142.596 126.711,143.982 124.277,144.51 L 124.278,157.903 C 132.054,162.221 138.002,170.432 140.407,180.443 C 145.044,180.721 147.083,182.158 149.096,185.514 C 150.676,188.148 151.954,192.542 150.754,195.8 C 149.682,198.711 147.022,201.832 143.663,201.832 C 142.799,201.832 141.959,201.638 141.183,201.288 C 138.882,218.286 126.521,231.276 111.728,231.276 C 96.935,231.276 84.574,218.286 82.273,201.288 C 81.497,201.638 80.657,201.832 79.793,201.832 C 76.434,201.832 73.774,198.711 72.702,195.8 C 71.502,192.542 72.78,188.148 74.36,185.514 C 76.373,182.158 78.412,180.721 83.049,180.443 C 85.454,170.432 91.402,162.221 99.178,157.903 L 99.179,144.51 C 96.745,143.982 91.935,142.596 89.083,141.767 C 78.124,138.577 70.718,136.268 65.279,131.643 C 55.459,123.432 52.177,109.355 47.433,77.94 C 65.618,65.115 87.798,57.58 111.728,57.58 Z" fill="#f1c9a5" marker-start="none" marker-end="none"/>
<path d="M 111.728,57.58 C 135.658,57.58 157.838,65.115 176.023,77.94 C 171.279,109.355 167.997,123.432 158.177,131.643 C 152.738,136.268 145.332,138.577 134.373,141.767 C 131.521,142.596 126.711,143.982 124.277,144.51 L 124.278,157.903 C 132.054,162.221 138.002,170.432 140.407,180.443 C 145.044,180.721 147.083,182.158 149.096,185.514 C 150.676,188.148 151.954,192.542 150.754,195.8 C 149.682,198.711 147.022,201.832 143.663,201.832 C 142.799,201.832 141.959,201.638 141.183,201.288 C 138.882,218.286 126.521,231.276 111.728,231.276 L 111.728,57.58 Z" fill="#e4b992" marker-start="none" marker-end="none"/>
</g>
<g id="Group_1" fill="#303030" stroke="none" stroke-width="0.5">
<path d="M 90.161,156.349 C 85.435,163.675 82.941,174.155 83.181,181.559 C 84.485,178.496 86.921,174.361 89.995,170.331 C 96.502,181.561 103.85,182.944 111.728,181.302 C 119.606,182.944 126.954,181.561 133.46,170.331 C 136.535,174.361 138.971,178.496 140.274,181.559 C 140.517,174.155 138.021,163.675 133.295,156.349 C 129.481,150.433 124.64,143.787 117.076,142.824 L 106.38,142.824 C 98.816,143.787 93.974,150.433 90.161,156.349 Z M 111.728,161.893 C 114.764,154.198 121.844,158.723 125.307,161.618 C 127.665,163.588 129.927,165.96 131.968,168.444 C 128.896,171.482 123.903,171.668 119.566,171.239 C 116.998,170.985 113.04,172.761 111.728,174.861 C 110.416,172.761 106.458,170.985 103.89,171.239 C 99.553,171.668 94.559,171.482 91.489,168.444 C 93.531,165.96 95.791,163.588 98.149,161.618 C 101.612,158.723 108.692,154.198 111.728,161.893 Z" stroke-linejoin="miter" marker-start="none" marker-end="none"/>
<path d="M 80.688,201.762 C 77.94,221.012 86.911,230.046 101.369,229.552 L 101.415,229.074 L 101.413,229.071 L 101.41,229.065 L 101.413,229.071 C 91.486,224.676 84.01,214.125 82.273,201.288 C 81.768,201.515 81.236,201.677 80.688,201.762 Z M 122.042,229.071 L 122.046,229.065 L 122.042,229.071 L 122.041,229.074 L 122.087,229.552 C 136.545,230.046 145.516,221.012 142.768,201.762 C 142.22,201.677 141.688,201.515 141.183,201.288 C 139.446,214.125 131.97,224.676 122.042,229.071 Z" stroke-linecap="round" stroke-linejoin="round" marker-start="none" marker-end="none"/>
</g>
<g id="Group_2" stroke-linejoin="miter" stroke-linecap="round" stroke="none" stroke-width="0.5">
<path d="M 72.535,64.655 C 63.631,67.995 55.266,72.437 47.607,77.818 C 54.129,119.507 58.896,129.854 72.535,136.141 C 78.399,138.844 85.974,140.826 96.123,143.82 C 97.499,136.455 103.966,130.875 111.728,130.875 C 119.489,130.875 125.956,136.455 127.332,143.82 C 137.48,140.826 145.055,138.844 150.919,136.142 C 164.558,129.855 169.325,119.509 175.848,77.818 C 168.188,72.437 159.823,67.995 150.919,64.655 C 138.723,60.081 125.516,57.58 111.728,57.58 C 97.939,57.58 84.732,60.081 72.535,64.655 Z" fill="#ffffff" marker-start="none" marker-end="none"/>
<path d="M 111.728,85.607 C 94.964,117.476 97.5,136.455 96.124,143.82 C 85.976,140.826 78.401,138.844 72.537,136.142 C 58.897,129.855 54.13,119.509 47.607,77.818 C 55.267,72.437 63.632,67.995 72.537,64.655 L 72.537,64.674 C 84.732,60.1 97.94,57.58 111.728,57.58 C 125.516,57.58 138.724,60.1 150.919,64.674 L 150.919,64.655 C 159.824,67.995 168.189,72.437 175.849,77.818 C 169.326,119.509 164.559,129.855 150.919,136.142 C 145.055,138.844 137.48,140.826 127.332,143.82 C 125.956,136.455 128.492,117.476 111.728,85.607 Z" fill="#333333" marker-start="none" marker-end="none"/>
</g>
</g>
</svg>
