<svg id="Layer_1" data-name="Layer 1" xmlns="http://www.w3.org/2000/svg" viewBox="0 0 651 98.44"><defs><style>.cls-1{fill:#fff;}.cls-2{fill:#1f64ff;}</style></defs><path class="cls-1" d="M105,53.66A53.1,53.1,0,0,1,.13,53.84a11.35,11.35,0,0,0,7.6,2.91h0a11.37,11.37,0,0,0,8.07-3.34A37.5,37.5,0,0,0,23,68.6c.21.26.42.53.64.79a37.7,37.7,0,0,0,6.19,5.92,37.58,37.58,0,0,0,51.66-6c.24-.28.48-.57.71-.86a37.62,37.62,0,0,0,7.06-14.95,11.32,11.32,0,0,0,7.91,3.21h0A11.36,11.36,0,0,0,105,53.66Z"/><path class="cls-2" d="M104.94,45.35a7.75,7.75,0,0,1-7.75,7.75h0a7.75,7.75,0,0,1-6.08-3A7.67,7.67,0,0,1,90,48.32h0a7.65,7.65,0,0,1,0-5.94h0a7.74,7.74,0,0,1,13.24-1.81A7.71,7.71,0,0,1,104.94,45.35Z"/><path class="cls-2" d="M15.49,45.35A7.5,7.5,0,0,1,15,48h0A7.74,7.74,0,0,1,7.75,53.1h0A7.75,7.75,0,1,1,15,42.73h0A7.59,7.59,0,0,1,15.49,45.35Z"/><path class="cls-1" d="M21.91,11.94l-.06-.1h0Z"/><path class="cls-1" d="M78.7,19,63.61,42.49a11.39,11.39,0,0,0-9.08-8.38h0a11.17,11.17,0,0,0-1.93-.16,10.8,10.8,0,0,0-1.72.13l-.25,0a11.39,11.39,0,0,0-9.08,8.38L26.43,19a8.54,8.54,0,0,0,1.25.15q.36,0,.72,0h0c.34,0,.66,0,1,0a11.47,11.47,0,0,0,10.06-8.48l13.1,20.41,13.09-20.4A11.38,11.38,0,0,0,76,19.13q.36,0,.72,0h0c.34,0,.66,0,1,0S78.37,19,78.7,19Z"/><path class="cls-2" d="M84.44,7.75a7.46,7.46,0,0,1-.09,1.16,7.71,7.71,0,0,1-1.07,2.92c-.16.25-.32.48-.5.71a7.72,7.72,0,0,1-5.42,2.92c-.22,0-.44,0-.67,0h-.5a7.73,7.73,0,0,1-7.13-6.42A7,7,0,0,1,69,7.75c0-.23,0-.45,0-.67a8.08,8.08,0,0,1,.86-2.94,7.79,7.79,0,0,1,5.7-4A7.46,7.46,0,0,1,76.69,0,8.2,8.2,0,0,1,78,.11a7.76,7.76,0,0,1,6.41,7.13C84.43,7.41,84.44,7.58,84.44,7.75Z"/><path class="cls-2" d="M36.17,7.75a7.46,7.46,0,0,1-.09,1.16,7.73,7.73,0,0,1-7,6.55c-.22,0-.44,0-.67,0h-.5a7.77,7.77,0,0,1-5.59-2.94c-.14-.19-.28-.38-.41-.58v0l-.06-.1a7.62,7.62,0,0,1-1.06-2.78,7,7,0,0,1-.11-1.31c0-.23,0-.45,0-.67a7.72,7.72,0,0,1,6.55-7A7.46,7.46,0,0,1,28.42,0a8.2,8.2,0,0,1,1.32.11A7.7,7.7,0,0,1,34.51,3a7.48,7.48,0,0,1,.75,1.14,7.56,7.56,0,0,1,.89,3.14C36.16,7.41,36.17,7.58,36.17,7.75Z"/><path class="cls-1" d="M21.91,11.94l-.06-.1h0Z"/><path class="cls-1" d="M60.31,45.35a7.27,7.27,0,0,1-.09,1.16,7.62,7.62,0,0,1-1.16,3.07c-.13.19-.26.38-.4.56a7.78,7.78,0,0,1-5.43,2.93q-.33,0-.66,0h0l-.49,0a7.72,7.72,0,0,1-5.58-2.94c-.15-.18-.28-.37-.41-.56a7.82,7.82,0,0,1-1.14-2.92,8,8,0,0,1-.11-1.31c0-.23,0-.45,0-.67a7.52,7.52,0,0,1,.81-2.84,1.14,1.14,0,0,1,.1-.19h0l.59-.93h0l.12-.16a7.74,7.74,0,0,1,4.92-2.87,7.49,7.49,0,0,1,1.17-.09,8.17,8.17,0,0,1,1.31.11,7.8,7.8,0,0,1,4.78,2.85l.12.17.58.91a1.28,1.28,0,0,1,.11.2,7.62,7.62,0,0,1,.83,3C60.31,45,60.31,45.18,60.31,45.35Z"/><path class="cls-1" d="M25.86,18.86h0c-.78.78-1.52,1.59-2.22,2.44-.33.4-.65.79-1,1.2a37.3,37.3,0,0,0-6.86,14.78A11.4,11.4,0,0,0,.13,36.86,53,53,0,0,1,11.65,11.49a53.72,53.72,0,0,1,5.54-5.75h0a11.05,11.05,0,0,0-.18,2A11.4,11.4,0,0,0,23.64,18.1,10.58,10.58,0,0,0,25.86,18.86Z"/><path class="cls-1" d="M105,37a11.38,11.38,0,0,0-15.74.12,37.29,37.29,0,0,0-6.75-14.53c-.33-.44-.67-.87-1-1.28-.71-.86-1.46-1.69-2.24-2.48h0a12.4,12.4,0,0,0,2-.65l.24-.11a5.08,5.08,0,0,0,.47-.23l.23-.12.5-.29.06,0,.19-.12.24-.16a11.38,11.38,0,0,0,5-9.4,11.88,11.88,0,0,0-.17-2A53.24,53.24,0,0,1,105,37Z"/><path class="cls-1" d="M174.68,89.28H159.77V57q0-6.91-2.45-10.09a8.07,8.07,0,0,0-6.78-3.18,13.59,13.59,0,0,0-6.07,1.52A19,19,0,0,0,139,49.47a16.41,16.41,0,0,0-3.56,6.14V89.28H120.49V31.53H134V42.3A21.58,21.58,0,0,1,139.63,36a25.27,25.27,0,0,1,8-4,32.26,32.26,0,0,1,9.51-1.38,18.44,18.44,0,0,1,9,1.93,13.37,13.37,0,0,1,5.34,5.17A23.11,23.11,0,0,1,174,45.05a47.38,47.38,0,0,1,.72,8.25Z"/><path class="cls-1" d="M222.3,86.38c-1.26.52-2.78,1.12-4.56,1.78A36.87,36.87,0,0,1,212,89.78a32.05,32.05,0,0,1-6.18.61A19.62,19.62,0,0,1,198.27,89a11.91,11.91,0,0,1-5.51-4.58,14.75,14.75,0,0,1-2.06-8.21V43H183V31.53h7.68V12.62h14.91V31.53h12.24V43H205.61V71.1a5.61,5.61,0,0,0,1.67,4.29,5.82,5.82,0,0,0,3.89,1.32,13.76,13.76,0,0,0,4.57-.78c1.48-.52,2.67-1,3.56-1.34Z"/><path class="cls-1" d="M256.24,90.39A32.92,32.92,0,0,1,243.44,88a27.55,27.55,0,0,1-9.62-6.54,29.39,29.39,0,0,1-6.07-9.58,30.72,30.72,0,0,1-2.11-11.33,31,31,0,0,1,2.11-11.44,29.39,29.39,0,0,1,6.07-9.58A27.82,27.82,0,0,1,243.44,33a32.92,32.92,0,0,1,12.8-2.37A32.55,32.55,0,0,1,269,33a28.28,28.28,0,0,1,15.69,16.12,31.83,31.83,0,0,1,2.05,11.44,31.52,31.52,0,0,1-2.05,11.33,28.9,28.9,0,0,1-6,9.58A27.59,27.59,0,0,1,269,88,32.91,32.91,0,0,1,256.24,90.39ZM241,60.57a19.07,19.07,0,0,0,2,8.9,15.24,15.24,0,0,0,5.45,6,14.21,14.21,0,0,0,7.79,2.19,13.82,13.82,0,0,0,7.67-2.24,16.15,16.15,0,0,0,5.51-6.11,18.73,18.73,0,0,0,2.06-8.9,18.8,18.8,0,0,0-2.06-8.84,15.57,15.57,0,0,0-5.51-6.11,14.65,14.65,0,0,0-15.46.05A15.68,15.68,0,0,0,243,51.67,19.07,19.07,0,0,0,241,60.57Z"/><path class="cls-1" d="M387.31,89.28H372.4V57q0-6.8-2.4-10a7.76,7.76,0,0,0-6.62-3.24,12.74,12.74,0,0,0-8.29,3.34,18.26,18.26,0,0,0-5.61,8.72V89.28H334.57V57q0-6.91-2.4-10.09a7.81,7.81,0,0,0-6.62-3.18A12.9,12.9,0,0,0,317.26,47a17.65,17.65,0,0,0-5.61,8.58V89.28H296.74V31.53H310.2V42.3a22.9,22.9,0,0,1,8.9-8.63,26.32,26.32,0,0,1,12.8-3q7.23,0,11.29,3.52a15.57,15.57,0,0,1,5.17,8.69,25,25,0,0,1,9.07-9.07,24.64,24.64,0,0,1,12.41-3.14,17.74,17.74,0,0,1,8.84,1.93A13.91,13.91,0,0,1,384,37.74a22,22,0,0,1,2.61,7.31,47.39,47.39,0,0,1,.73,8.25Z"/><path class="cls-1" d="M396.32,72.25a16,16,0,0,1,3.17-9.84,20.25,20.25,0,0,1,8.85-6.54,34.28,34.28,0,0,1,13-2.31,51.35,51.35,0,0,1,7.46.56,25.29,25.29,0,0,1,6.56,1.78V52.8q0-5.46-3.28-8.42t-9.74-3a25.22,25.22,0,0,0-9.12,1.67,46.69,46.69,0,0,0-9.12,4.9l-4.79-9.79a47.62,47.62,0,0,1,11.85-5.68,42.56,42.56,0,0,1,12.74-1.89q12.46,0,19.42,6.15t6.95,17.54V72.65a5.06,5.06,0,0,0,.84,3.29,4,4,0,0,0,2.72,1.21V89.28c-1.33.22-2.54.4-3.61.55a20.52,20.52,0,0,1-2.73.23q-4.46,0-6.73-2a8.47,8.47,0,0,1-2.84-4.89l-.33-3a25.45,25.45,0,0,1-9.46,7.57,26.91,26.91,0,0,1-11.57,2.67A22.52,22.52,0,0,1,406.17,88a18.24,18.24,0,0,1-7.24-6.49A17,17,0,0,1,396.32,72.25Zm36.27,2.9a15.15,15.15,0,0,0,2-2.61,4.69,4.69,0,0,0,.78-2.38V64.41a29.7,29.7,0,0,0-5.78-1.68,31.32,31.32,0,0,0-5.9-.6,17,17,0,0,0-9.51,2.44A7.41,7.41,0,0,0,410.45,71a7.7,7.7,0,0,0,1.22,4.13,8.83,8.83,0,0,0,3.56,3.14,12,12,0,0,0,5.57,1.2,18.1,18.1,0,0,0,6.56-1.25A16.23,16.23,0,0,0,432.59,75.15Z"/><path class="cls-1" d="M498.57,86.38c-1.26.52-2.78,1.12-4.56,1.78a36.87,36.87,0,0,1-5.73,1.62,32.05,32.05,0,0,1-6.18.61A19.62,19.62,0,0,1,474.54,89,11.91,11.91,0,0,1,469,84.38,14.75,14.75,0,0,1,467,76.17V43H459.3V31.53H467V12.62h14.91V31.53h12.24V43H481.88V71.1a5.61,5.61,0,0,0,1.67,4.29,5.83,5.83,0,0,0,3.9,1.32,13.75,13.75,0,0,0,4.56-.78c1.48-.52,2.67-1,3.56-1.34Z"/><path class="cls-1" d="M506.36,22.85V8.05h14.91v14.8Zm0,66.43V31h14.91V89.28Z"/><path class="cls-1" d="M561.88,90.39A33,33,0,0,1,549.08,88a27.77,27.77,0,0,1-9.68-6.6,31,31,0,0,1-4.61-35.87,28.26,28.26,0,0,1,10.62-10.84,31.65,31.65,0,0,1,16.36-4.07A30.67,30.67,0,0,1,578,34.76a26.17,26.17,0,0,1,10.13,10.79L573.56,50a13.08,13.08,0,0,0-5-5,14,14,0,0,0-6.89-1.72,14.57,14.57,0,0,0-13.24,8.13,19.26,19.26,0,0,0-2,9,18.73,18.73,0,0,0,2.06,8.9A16.15,16.15,0,0,0,554,75.47a13.83,13.83,0,0,0,7.68,2.24,14.48,14.48,0,0,0,5.06-.89A15,15,0,0,0,571,74.37a9.75,9.75,0,0,0,2.78-3.56l14.58,4.45a23.86,23.86,0,0,1-5.84,7.79,28,28,0,0,1-9,5.39A32.8,32.8,0,0,1,561.88,90.39Z"/><path class="cls-1" d="M593.48,72.25a15.92,15.92,0,0,1,3.17-9.84,20.28,20.28,0,0,1,8.84-6.54,34.36,34.36,0,0,1,13-2.31,51.46,51.46,0,0,1,7.46.56,25.29,25.29,0,0,1,6.56,1.78V52.8q0-5.46-3.28-8.42t-9.74-3a25.22,25.22,0,0,0-9.12,1.67,46.41,46.41,0,0,0-9.12,4.9l-4.79-9.79a47.62,47.62,0,0,1,11.85-5.68,42.56,42.56,0,0,1,12.74-1.89q12.46,0,19.42,6.15t7,17.54V72.65a5.06,5.06,0,0,0,.84,3.29A4,4,0,0,0,651,77.15V89.28c-1.33.22-2.54.4-3.61.55a20.52,20.52,0,0,1-2.73.23q-4.45,0-6.73-2a8.47,8.47,0,0,1-2.84-4.89l-.33-3a25.53,25.53,0,0,1-9.46,7.57,26.91,26.91,0,0,1-11.57,2.67A22.59,22.59,0,0,1,603.32,88a18.21,18.21,0,0,1-7.23-6.49A17,17,0,0,1,593.48,72.25Zm36.27,2.9a15.15,15.15,0,0,0,2-2.61,4.69,4.69,0,0,0,.78-2.38V64.41a29.7,29.7,0,0,0-5.78-1.68,31.32,31.32,0,0,0-5.9-.6,17,17,0,0,0-9.51,2.44A7.41,7.41,0,0,0,607.61,71a7.7,7.7,0,0,0,1.22,4.13,8.83,8.83,0,0,0,3.56,3.14,12,12,0,0,0,5.57,1.2,18.1,18.1,0,0,0,6.56-1.25A16.23,16.23,0,0,0,629.75,75.15Z"/></svg>