<svg id="Layer_1" data-name="Layer 1" xmlns="http://www.w3.org/2000/svg" viewBox="0 0 651.84 98.44"><defs><style>.cls-1{fill:#4d4d4d;}</style></defs><path class="cls-1" d="M105.42,53.66A53.1,53.1,0,0,1,.55,53.84a11.35,11.35,0,0,0,7.6,2.91h0a11.33,11.33,0,0,0,8.06-3.34A37.52,37.52,0,0,0,23.42,68.6c.2.26.42.53.64.79a37.7,37.7,0,0,0,6.19,5.92,37.58,37.58,0,0,0,51.66-6c.24-.28.48-.57.7-.86a37.64,37.64,0,0,0,7.07-14.95,11.3,11.3,0,0,0,7.91,3.21h0A11.36,11.36,0,0,0,105.42,53.66Z"/><path class="cls-1" d="M105.36,45.35a7.75,7.75,0,0,1-7.75,7.75h0a7.75,7.75,0,0,1-6.08-3,7.67,7.67,0,0,1-1.06-1.82h0a7.65,7.65,0,0,1,0-5.94h0a7.74,7.74,0,0,1,13.24-1.81A7.71,7.71,0,0,1,105.36,45.35Z"/><path class="cls-1" d="M15.91,45.35A7.73,7.73,0,0,1,15.46,48h0A7.74,7.74,0,0,1,8.17,53.1h0a7.75,7.75,0,1,1,7.31-10.37h0A7.84,7.84,0,0,1,15.91,45.35Z"/><path class="cls-1" d="M22.33,11.94l-.07-.1h0Z"/><path class="cls-1" d="M79.12,19,64,42.49A11.39,11.39,0,0,0,55,34.11h0A11.21,11.21,0,0,0,53,33.94a10.76,10.76,0,0,0-1.71.13l-.25,0a11.39,11.39,0,0,0-9.08,8.38L26.85,19a8.57,8.57,0,0,0,1.24.15c.24,0,.49,0,.73,0h0c.33,0,.66,0,1,0a11.42,11.42,0,0,0,8-4.32,11.22,11.22,0,0,0,2.07-4.16L53,31.05l13.1-20.4a11.38,11.38,0,0,0,10.28,8.48c.24,0,.49,0,.73,0h0c.33,0,.66,0,1,0S78.79,19,79.12,19Z"/><path class="cls-1" d="M84.86,7.75a7.46,7.46,0,0,1-.09,1.16,7.56,7.56,0,0,1-1.08,2.92,6.89,6.89,0,0,1-.49.71,7.72,7.72,0,0,1-5.42,2.92c-.22,0-.44,0-.67,0H76.6a7.73,7.73,0,0,1-7.12-6.42,7,7,0,0,1-.11-1.31c0-.23,0-.45,0-.67a7.89,7.89,0,0,1,.86-2.94,7.79,7.79,0,0,1,5.7-4A7.46,7.46,0,0,1,77.11,0a8.2,8.2,0,0,1,1.32.11,7.76,7.76,0,0,1,6.41,7.13C84.85,7.41,84.86,7.58,84.86,7.75Z"/><path class="cls-1" d="M36.59,7.75a7.46,7.46,0,0,1-.09,1.16,7.73,7.73,0,0,1-7,6.55c-.22,0-.44,0-.67,0h-.51a7.77,7.77,0,0,1-5.58-2.94c-.14-.19-.28-.38-.41-.58v0l-.06-.1a7.44,7.44,0,0,1-1.06-2.78,7,7,0,0,1-.11-1.31c0-.23,0-.45,0-.67A7.82,7.82,0,0,1,22.75,3,7.74,7.74,0,0,1,27.68.09,7.46,7.46,0,0,1,28.84,0a8.2,8.2,0,0,1,1.32.11A7.7,7.7,0,0,1,34.93,3a7.48,7.48,0,0,1,.75,1.14,7.56,7.56,0,0,1,.89,3.14C36.58,7.41,36.59,7.58,36.59,7.75Z"/><path class="cls-1" d="M22.33,11.94l-.07-.1h0Z"/><path class="cls-1" d="M60.73,45.35a7.27,7.27,0,0,1-.09,1.16,7.62,7.62,0,0,1-1.16,3.07c-.13.19-.26.38-.41.56a7.76,7.76,0,0,1-5.42,2.93c-.22,0-.44,0-.67,0h0l-.49,0a7.76,7.76,0,0,1-5.59-2.94c-.14-.18-.27-.37-.4-.56a7.82,7.82,0,0,1-1.14-2.92,8,8,0,0,1-.11-1.31c0-.23,0-.45,0-.67a7.52,7.52,0,0,1,.81-2.84,1.14,1.14,0,0,1,.1-.19h0l.59-.93h0l.12-.16a7.79,7.79,0,0,1,4.93-2.87A7.46,7.46,0,0,1,53,37.6a8.2,8.2,0,0,1,1.32.11,7.75,7.75,0,0,1,4.77,2.85,1.09,1.09,0,0,1,.13.17l.58.91a1.28,1.28,0,0,1,.11.2,7.45,7.45,0,0,1,.82,3A4.35,4.35,0,0,1,60.73,45.35Z"/><path class="cls-1" d="M26.28,18.86h0c-.78.78-1.52,1.59-2.22,2.44-.33.4-.65.79-1,1.2a37.45,37.45,0,0,0-6.87,14.78A11.39,11.39,0,0,0,.55,36.86,52.85,52.85,0,0,1,12.07,11.49a53.72,53.72,0,0,1,5.54-5.75h0a12,12,0,0,0-.17,2A11.4,11.4,0,0,0,24.06,18.1,10.58,10.58,0,0,0,26.28,18.86Z"/><path class="cls-1" d="M105.42,37a11.38,11.38,0,0,0-15.74.12,37.43,37.43,0,0,0-6.75-14.53c-.33-.44-.67-.87-1-1.28-.71-.86-1.46-1.69-2.24-2.48h0a11.77,11.77,0,0,0,2-.65l.25-.11c.15-.07.31-.14.47-.23l.23-.12.5-.29.06,0,.19-.12.24-.16a11.38,11.38,0,0,0,5-9.4,11.88,11.88,0,0,0-.17-2A53.24,53.24,0,0,1,105.42,37Z"/><path class="cls-1" d="M175.1,89.28H160.19V57q0-6.91-2.45-10.09A8.08,8.08,0,0,0,151,43.77a13.58,13.58,0,0,0-6.06,1.52,19,19,0,0,0-5.51,4.18,16.41,16.41,0,0,0-3.56,6.14V89.28H120.91V31.53h13.47V42.3A21.58,21.58,0,0,1,140.05,36a25.27,25.27,0,0,1,8-4,32.26,32.26,0,0,1,9.51-1.38,18.44,18.44,0,0,1,9,1.93,13.37,13.37,0,0,1,5.34,5.17,23.11,23.11,0,0,1,2.56,7.31,47.38,47.38,0,0,1,.72,8.25Z"/><path class="cls-1" d="M222.72,86.38c-1.26.52-2.78,1.12-4.56,1.78a36.87,36.87,0,0,1-5.73,1.62,32.05,32.05,0,0,1-6.18.61A19.58,19.58,0,0,1,198.69,89a11.91,11.91,0,0,1-5.51-4.58,14.75,14.75,0,0,1-2.06-8.21V43h-7.68V31.53h7.68V12.62H206V31.53h12.24V43H206V71.1a5.61,5.61,0,0,0,1.67,4.29,5.82,5.82,0,0,0,3.89,1.32,13.76,13.76,0,0,0,4.57-.78c1.48-.52,2.67-1,3.56-1.34Z"/><path class="cls-1" d="M256.66,90.39A32.92,32.92,0,0,1,243.86,88a27.55,27.55,0,0,1-9.62-6.54,29.39,29.39,0,0,1-6.07-9.58,30.72,30.72,0,0,1-2.11-11.33,31,31,0,0,1,2.11-11.44,29.39,29.39,0,0,1,6.07-9.58A27.82,27.82,0,0,1,243.86,33a32.92,32.92,0,0,1,12.8-2.37A32.55,32.55,0,0,1,269.4,33,28.59,28.59,0,0,1,279,39.55a28.25,28.25,0,0,1,6.06,9.58,31.63,31.63,0,0,1,2.06,11.44,31.31,31.31,0,0,1-2.06,11.33,28.72,28.72,0,0,1-6,9.58A27.68,27.68,0,0,1,269.45,88,32.91,32.91,0,0,1,256.66,90.39ZM241.41,60.57a19.07,19.07,0,0,0,2,8.9,15.24,15.24,0,0,0,5.45,6,14.21,14.21,0,0,0,7.79,2.19,13.82,13.82,0,0,0,7.67-2.24,16.15,16.15,0,0,0,5.51-6.11,18.73,18.73,0,0,0,2.06-8.9,18.8,18.8,0,0,0-2.06-8.84,15.57,15.57,0,0,0-5.51-6.11,14.65,14.65,0,0,0-15.46.05,15.68,15.68,0,0,0-5.45,6.11A19.07,19.07,0,0,0,241.41,60.57Z"/><path class="cls-1" d="M387.73,89.28H372.82V57q0-6.8-2.4-10a7.76,7.76,0,0,0-6.62-3.24,12.74,12.74,0,0,0-8.29,3.34,18.26,18.26,0,0,0-5.61,8.72V89.28H335V57q0-6.91-2.4-10.09A7.81,7.81,0,0,0,326,43.77,12.9,12.9,0,0,0,317.68,47a17.74,17.74,0,0,0-5.62,8.58V89.28H297.15V31.53h13.47V42.3a22.9,22.9,0,0,1,8.9-8.63,26.32,26.32,0,0,1,12.8-3q7.23,0,11.29,3.52a15.57,15.57,0,0,1,5.17,8.69,25,25,0,0,1,9.07-9.07,24.64,24.64,0,0,1,12.41-3.14,17.74,17.74,0,0,1,8.84,1.93,14,14,0,0,1,5.29,5.17A22,22,0,0,1,387,45.05a47.39,47.39,0,0,1,.73,8.25Z"/><path class="cls-1" d="M396.74,72.25a15.92,15.92,0,0,1,3.17-9.84,20.28,20.28,0,0,1,8.84-6.54,34.36,34.36,0,0,1,13-2.31,51.46,51.46,0,0,1,7.46.56,25.29,25.29,0,0,1,6.56,1.78V52.8q0-5.46-3.28-8.42t-9.74-3a25.22,25.22,0,0,0-9.12,1.67,46.41,46.41,0,0,0-9.12,4.9l-4.79-9.79a47.62,47.62,0,0,1,11.85-5.68,42.56,42.56,0,0,1,12.74-1.89q12.46,0,19.42,6.15t6.95,17.54V72.65a5.06,5.06,0,0,0,.84,3.29,4,4,0,0,0,2.72,1.21V89.28c-1.33.22-2.54.4-3.61.55a20.52,20.52,0,0,1-2.73.23q-4.46,0-6.73-2a8.47,8.47,0,0,1-2.84-4.89l-.33-3a25.53,25.53,0,0,1-9.46,7.57A26.91,26.91,0,0,1,417,90.39,22.59,22.59,0,0,1,406.58,88a18.21,18.21,0,0,1-7.23-6.49A17,17,0,0,1,396.74,72.25ZM433,75.15a15.15,15.15,0,0,0,2-2.61,4.69,4.69,0,0,0,.78-2.38V64.41A29.7,29.7,0,0,0,430,62.73a31.32,31.32,0,0,0-5.9-.6,17,17,0,0,0-9.51,2.44A7.41,7.41,0,0,0,410.87,71a7.61,7.61,0,0,0,1.22,4.13,8.77,8.77,0,0,0,3.56,3.14,12,12,0,0,0,5.57,1.2,18.1,18.1,0,0,0,6.56-1.25A16.34,16.34,0,0,0,433,75.15Z"/><path class="cls-1" d="M499,86.38c-1.26.52-2.78,1.12-4.56,1.78a36.87,36.87,0,0,1-5.73,1.62,32.05,32.05,0,0,1-6.18.61A19.62,19.62,0,0,1,475,89a11.91,11.91,0,0,1-5.51-4.58,14.75,14.75,0,0,1-2.06-8.21V43h-7.68V31.53h7.68V12.62H482.3V31.53h12.24V43H482.3V71.1A5.61,5.61,0,0,0,484,75.39a5.82,5.82,0,0,0,3.89,1.32,13.76,13.76,0,0,0,4.57-.78c1.48-.52,2.67-1,3.56-1.34Z"/><path class="cls-1" d="M506.78,22.85V8.05h14.91v14.8Zm0,66.43V31h14.91V89.28Z"/><path class="cls-1" d="M562.3,90.39A33,33,0,0,1,549.5,88a27.77,27.77,0,0,1-9.68-6.6,31,31,0,0,1-4.62-35.87,28.36,28.36,0,0,1,10.63-10.84,31.65,31.65,0,0,1,16.36-4.07,30.67,30.67,0,0,1,16.24,4.12,26.17,26.17,0,0,1,10.13,10.79L574,50a13.08,13.08,0,0,0-5-5,14,14,0,0,0-6.89-1.72,14.63,14.63,0,0,0-7.74,2.12,14.86,14.86,0,0,0-5.51,6,19.38,19.38,0,0,0-2,9,18.73,18.73,0,0,0,2.06,8.9,16.15,16.15,0,0,0,5.51,6.11,13.83,13.83,0,0,0,7.68,2.24,14.48,14.48,0,0,0,5.06-.89,15,15,0,0,0,4.28-2.45,9.75,9.75,0,0,0,2.78-3.56l14.58,4.45a24,24,0,0,1-5.84,7.79,28.11,28.11,0,0,1-9,5.39A32.8,32.8,0,0,1,562.3,90.39Z"/><path class="cls-1" d="M593.9,72.25a15.92,15.92,0,0,1,3.17-9.84,20.28,20.28,0,0,1,8.84-6.54,34.36,34.36,0,0,1,13-2.31,51.46,51.46,0,0,1,7.46.56A25.29,25.29,0,0,1,633,55.9V52.8q0-5.46-3.28-8.42t-9.74-3a25.22,25.22,0,0,0-9.12,1.67,46.41,46.41,0,0,0-9.12,4.9l-4.79-9.79a47.62,47.62,0,0,1,11.85-5.68,42.56,42.56,0,0,1,12.74-1.89q12.46,0,19.42,6.15t7,17.54V72.65a5.13,5.13,0,0,0,.83,3.29,4.06,4.06,0,0,0,2.73,1.21V89.28c-1.33.22-2.54.4-3.62.55a20.26,20.26,0,0,1-2.72.23q-4.46,0-6.73-2a8.47,8.47,0,0,1-2.84-4.89l-.33-3a25.53,25.53,0,0,1-9.46,7.57,26.91,26.91,0,0,1-11.57,2.67A22.59,22.59,0,0,1,603.74,88a18.15,18.15,0,0,1-7.23-6.49A17,17,0,0,1,593.9,72.25Zm36.27,2.9a15.67,15.67,0,0,0,2-2.61,4.69,4.69,0,0,0,.78-2.38V64.41a29.6,29.6,0,0,0-5.79-1.68,31.14,31.14,0,0,0-5.89-.6,17.06,17.06,0,0,0-9.52,2.44A7.42,7.42,0,0,0,608,71a7.61,7.61,0,0,0,1.22,4.13,8.77,8.77,0,0,0,3.56,3.14,12,12,0,0,0,5.56,1.2,18.11,18.11,0,0,0,6.57-1.25A16.34,16.34,0,0,0,630.17,75.15Z"/></svg>