<?xml version="1.0" encoding="UTF-8"?>
<svg version="1.1" viewBox="0 0 700 700" xmlns="http://www.w3.org/2000/svg" xmlns:xlink="http://www.w3.org/1999/xlink">
 <g>
  <path d="m168 393.12s94.641-28.559 293.44 80.641l30.801-54.879s-173.04-117.04-308.56-97.441l-20.719 50.961s-94.078-33.602-73.359-117.04c20.715-83.441 88.473-64.965 88.473-64.965s-5.6016-53.199 71.68-69.441c0 0 29.68-12.32 80.641 24.078 0 0 29.121-39.199 87.359-31.359 58.238 7.8398 61.039 70.559 61.039 70.559s46.48-19.602 80.078 22.398c33.602 42 0 80.641 0 80.641s50.398 11.199 58.801 56c8.3984 44.801-31.359 80.641-31.359 80.641 0.003906 0.007813-64.395 36.965-73.918 35.285 0 0 90.16-52.078 77.281-108.64-12.879-56.559-47.602-50.398-47.602-50.398s8.3984-56-14-80.641-70.559-11.199-70.559-11.199-6.7188-53.199-56-61.602c-49.281-8.3984-76.16 34.16-76.16 34.16s-36.961-50.398-89.039-20.719c-52.078 29.68-40.879 64.398-40.879 64.398s-63.84-15.68-76.16 47.043c-12.32 62.719 31.359 77.84 31.359 77.84l16.801-39.199s-22.961-18.48-15.68-39.199l25.762 25.762s30.801-8.3984 61.602-3.9219c0 0 4.4805-42.559 12.879-49.84 0 0 6.7188 50.961 11.199 56 0 0 28.559 1.1211 62.16 12.32 0 0 15.68-50.961 26.879-53.199 0 0-11.199 58.801 0 61.602 0 0 30.801 12.32 36.398 16.801 0 0 36.398-44.801 53.762-43.121 0 0-35.281 48.719-31.359 54.32l53.762 25.762s28.559-26.879 48.16-25.199c0 0-38.078 31.359-33.602 36.961l48.16 25.199s-63.281 73.359-63.281 91.281c1.1172-0.007812-159.6-103.05-296.24-108.65z"/>
 </g>
</svg>
