<svg version="1.1" viewBox="0 0 700 700" xmlns="http://www.w3.org/2000/svg" xmlns:xlink="http://www.w3.org/1999/xlink">
 <g>
  <path d="m360.14 431.54h-3.3594c-52.922-3.6406-93.406-22.902-120.34-57.289-51.129-65.129-35.336-160.33-34.664-164.3v0.003906c0.37891-2.1016 1.6719-3.9258 3.5273-4.9844 1.8594-1.0195 4.0742-1.1641 6.0469-0.39453 29.961 11.93 113.51-27.215 143.19-43.289v0.003906c1.7266-0.91797 3.7539-1.082 5.6016-0.44922 1.8477-0.63281 3.875-0.46875 5.5977 0.44922 29.625 15.902 113.07 54.992 143.14 43.117 1.9766-0.76953 4.1914-0.625 6.0508 0.39453 1.8516 1.0586 3.1445 2.8828 3.5273 4.9844 0.67188 4.0312 16.406 99.176-34.664 164.3-26.992 34.383-67.199 53.648-120.4 57.289h-2.8008zm2.8008-7.168m-148.23-204.57c-2.5195 23.465-6.4414 95.648 32.871 145.6 24.359 31.078 61.602 48.496 110.15 51.855h4.7031c48.777-3.3594 85.848-20.832 110.27-51.91 39.199-50.398 35.391-122.19 32.871-145.6-42.504 7-124.49-34.551-143.64-44.801h0.003907c-1.2148 0.30859-2.4844 0.30859-3.6992 0-19.094 10.301-101.02 51.855-143.53 44.855z"/>
  <path d="m360.08 267.73h-3.9766 0.003907c-36.711-0.25391-73.312-4.0039-109.31-11.199-1.8359-0.37109-3.4453-1.457-4.4805-3.0156-1.0352-1.5586-1.4062-3.4648-1.0352-5.3008 0.77344-3.8164 4.4961-6.2891 8.3164-5.5156 35.039 7.0039 70.664 10.66 106.4 10.922 38.406 0.25781 76.742-3.3984 114.41-10.922 3.8203-0.77344 7.543 1.6992 8.3164 5.5156 0.77344 3.8203-1.6953 7.543-5.5156 8.3164-37.246 7.4297-75.137 11.184-113.12 11.199z"/>
  <path d="m360.08 314.66h-3.9766 0.003907c-36.711-0.25391-73.316-4.0039-109.31-11.199-1.8359-0.37109-3.4453-1.457-4.4805-3.0156-1.0352-1.5586-1.4062-3.4688-1.0352-5.3008 0.77344-3.8203 4.4961-6.2891 8.3164-5.5156 35.035 7.0742 70.656 10.824 106.4 11.199 38.422 0.22656 76.762-3.5273 114.41-11.199 3.8203-0.77344 7.543 1.6953 8.3164 5.5156 0.77344 3.8203-1.6953 7.543-5.5156 8.3164-37.246 7.4297-75.137 11.18-113.12 11.199z"/>
  <path d="m360.08 361.54h-3.9766 0.003907c-36.711-0.28125-73.309-4.0312-109.31-11.199-1.8555-0.35156-3.4922-1.4336-4.5469-3-1.0508-1.5703-1.4336-3.4922-1.0547-5.3438 0.32422-1.8594 1.3906-3.5078 2.9531-4.5625 1.5625-1.0547 3.4883-1.4297 5.3359-1.0391 35.043 6.9766 70.668 10.633 106.4 10.922 38.406 0.23047 76.738-3.4258 114.41-10.922 1.8438-0.39062 3.7695-0.015625 5.332 1.0391 1.5664 1.0547 2.6328 2.7031 2.9531 4.5625 0.37891 1.8516 0 3.7734-1.0547 5.3438-1.0508 1.5664-2.6875 2.6484-4.543 3-37.18 7.3906-74.992 11.141-112.9 11.199z"/>
  <path d="m242.82 377.83c-1.2188-0.019531-2.4141-0.34766-3.4727-0.95312-4.0898-2.2969-99.848-56.785-98.84-110.49 0.89453-44.801 44.801-60.367 67.594-62.441v0.003906c3.8789-0.35547 7.3164 2.5 7.6719 6.3828 0.35547 3.8828-2.5039 7.3164-6.3867 7.6719-2.1836 0-53.93 5.6016-54.77 48.664-0.61328 37.633 65.914 83.441 91.617 97.945 2.8008 1.5625 4.1953 4.8203 3.3906 7.9258-0.80078 3.1055-3.5977 5.2773-6.8047 5.2891z"/>
  <path d="m476.95 378.39c-3.2344 0.10156-6.1172-2.0078-7.0039-5.1172-0.88672-3.1094 0.45312-6.4219 3.25-8.043 25.594-14.617 91.84-60.762 91.113-98.391-0.61719-42.84-52.305-48.441-54.543-48.441-3.8594-0.38281-6.6875-3.8086-6.3281-7.6719 0.38281-3.8398 3.7617-6.6758 7.6133-6.3828 23.016 2.0703 66.695 17.809 67.594 62.441 0.95312 53.48-94.25 108.41-98.223 110.71-1.0625 0.58984-2.2578 0.89844-3.4727 0.89453z"/>
 </g>
</svg>
