<svg id="Layer_1" data-name="Layer 1" xmlns="http://www.w3.org/2000/svg" viewBox="0 0 120 120"><defs><style>.cls-1{fill:#f77f00;}.cls-2{fill:#035e7b;}</style></defs><path class="cls-1" d="M42.84,0S60.59,2.05,57.37,19.52C57.37,19.52,40.34,18.64,42.84,0Z"/><path class="cls-1" d="M77.2.17S59.44,2.23,62.67,19.69C62.67,19.69,79.69,18.81,77.2.17Z"/><path class="cls-1" d="M42.84,19.69s17.75,2,14.53,19.52C57.37,39.21,40.34,38.33,42.84,19.69Z"/><path class="cls-1" d="M77.2,19.86S59.44,21.92,62.67,39.38C62.67,39.38,79.69,38.5,77.2,19.86Z"/><path class="cls-1" d="M42.84,120s17.75-2,14.53-19.52C57.37,100.48,40.34,101.36,42.84,120Z"/><path class="cls-1" d="M77.2,119.83s-17.76-2.06-14.53-19.52C62.67,100.31,79.69,101.19,77.2,119.83Z"/><path class="cls-1" d="M42.84,100.31s17.75-2,14.53-19.52C57.37,80.79,40.34,81.67,42.84,100.31Z"/><path class="cls-1" d="M77.2,100.14S59.44,98.08,62.67,80.62C62.67,80.62,79.69,81.5,77.2,100.14Z"/><path class="cls-1" d="M120,77.18s-2.06-17.76-19.52-14.53C100.48,62.65,101.36,79.68,120,77.18Z"/><path class="cls-1" d="M119.83,42.82s-2.06,17.76-19.52,14.53C100.31,57.35,101.19,40.32,119.83,42.82Z"/><path class="cls-1" d="M100.31,77.18S98.25,59.42,80.79,62.65C80.79,62.65,81.67,79.68,100.31,77.18Z"/><path class="cls-1" d="M100.14,42.82S98.08,60.58,80.62,57.35C80.62,57.35,81.5,40.32,100.14,42.82Z"/><path class="cls-1" d="M0,77.18S2.06,59.42,19.52,62.65C19.52,62.65,18.64,79.68,0,77.18Z"/><path class="cls-1" d="M.17,42.82S2.23,60.58,19.69,57.35C19.69,57.35,18.81,40.32.17,42.82Z"/><path class="cls-1" d="M19.69,77.18s2.06-17.76,19.52-14.53C39.21,62.65,38.33,79.68,19.69,77.18Z"/><path class="cls-1" d="M19.86,42.82s2.06,17.76,19.52,14.53C39.38,57.35,38.5,40.32,19.86,42.82Z"/><path class="cls-2" d="M80.62,21.23V36.5l-7,7a7.57,7.57,0,1,0,2.89,2.88l7-7H98.76V21.23ZM69.86,53.66a3.51,3.51,0,1,1,3.51-3.51A3.51,3.51,0,0,1,69.86,53.66ZM94.69,35.3h-10v-10h10Z"/><path class="cls-2" d="M76.47,73.57a7.62,7.62,0,1,0-2.89,2.88l7,7V98.77H98.76V80.62H83.5Zm-6.61-.22a3.51,3.51,0,1,1,3.51-3.5A3.51,3.51,0,0,1,69.86,73.35ZM84.69,84.7h10v10h-10Z"/><path class="cls-2" d="M50.17,42.57a7.56,7.56,0,0,0-3.72,1l-7-7V21.23H21.27V39.38H36.53l7,7a7.58,7.58,0,1,0,6.6-3.86ZM35.34,35.3h-10v-10h10ZM50.17,53.66a3.51,3.51,0,1,1,3.51-3.51A3.51,3.51,0,0,1,50.17,53.66Z"/><path class="cls-2" d="M50.17,62.26a7.58,7.58,0,0,0-6.6,11.31l-7,7.05H21.27V98.77H39.42V83.5l7-7a7.58,7.58,0,1,0,3.72-14.19ZM35.34,94.69h-10v-10h10ZM50.17,73.35a3.51,3.51,0,1,1,3.51-3.5A3.51,3.51,0,0,1,50.17,73.35Z"/></svg>