<svg id="Layer_1" data-name="Layer 1" xmlns="http://www.w3.org/2000/svg" viewBox="0 0 192 192"><defs><style>.cls-1{fill:#f77f00;}.cls-2{fill:#035e7b;}</style></defs><path class="cls-1" d="M68.54,0S97,3.29,91.78,31.23C91.78,31.23,64.55,29.82,68.54,0Z"/><path class="cls-1" d="M123.52.27S95.1,3.56,100.27,31.5C100.27,31.5,127.51,30.1,123.52.27Z"/><path class="cls-1" d="M68.54,31.5S97,34.79,91.78,62.73C91.78,62.73,64.55,61.33,68.54,31.5Z"/><path class="cls-1" d="M123.52,31.78S95.1,35.07,100.27,63C100.27,63,127.51,61.6,123.52,31.78Z"/><path class="cls-1" d="M68.54,192S97,188.71,91.78,160.77C91.78,160.77,64.55,162.18,68.54,192Z"/><path class="cls-1" d="M123.52,191.73s-28.42-3.29-23.25-31.23C100.27,160.5,127.51,161.9,123.52,191.73Z"/><path class="cls-1" d="M68.54,160.5S97,157.21,91.78,129.27C91.78,129.27,64.55,130.67,68.54,160.5Z"/><path class="cls-1" d="M123.52,160.22S95.1,156.93,100.27,129C100.27,129,127.51,130.4,123.52,160.22Z"/><path class="cls-1" d="M192,123.49s-3.29-28.41-31.23-23.25C160.77,100.24,162.18,127.48,192,123.49Z"/><path class="cls-1" d="M191.72,68.51s-3.28,28.41-31.23,23.25C160.49,91.76,161.9,64.52,191.72,68.51Z"/><path class="cls-1" d="M160.49,123.49s-3.29-28.41-31.23-23.25C129.26,100.24,130.67,127.48,160.49,123.49Z"/><path class="cls-1" d="M160.22,68.51S156.93,96.92,129,91.76C129,91.76,130.4,64.52,160.22,68.51Z"/><path class="cls-1" d="M0,123.49s3.29-28.41,31.23-23.25C31.23,100.24,29.82,127.48,0,123.49Z"/><path class="cls-1" d="M.28,68.51S3.56,96.92,31.51,91.76C31.51,91.76,30.1,64.52.28,68.51Z"/><path class="cls-1" d="M31.51,123.49s3.29-28.41,31.23-23.25C62.74,100.24,61.33,127.48,31.51,123.49Z"/><path class="cls-1" d="M31.78,68.51S35.07,96.92,63,91.76C63,91.76,61.6,64.52,31.78,68.51Z"/><path class="cls-2" d="M129,34V58.4L117.73,69.68a12,12,0,0,0-6-1.57,12.16,12.16,0,1,0,10.57,6.18L133.6,63H158V34ZM111.78,85.86a5.62,5.62,0,1,1,5.61-5.61A5.61,5.61,0,0,1,111.78,85.86ZM151.5,56.49h-16v-16h16Z"/><path class="cls-2" d="M122.35,117.71a12.14,12.14,0,1,0-10.57,6.18,12,12,0,0,0,6-1.57L129,133.6V158h29V129H133.6Zm-10.57-.34a5.62,5.62,0,1,1,5.61-5.62A5.62,5.62,0,0,1,111.78,117.37Zm23.73,18.14h16v16h-16Z"/><path class="cls-2" d="M80.28,68.11a12,12,0,0,0-6,1.57L63.07,58.4V34H34V63H58.45L69.71,74.29a12.13,12.13,0,1,0,10.57-6.18ZM56.54,56.49h-16v-16h16ZM80.28,85.86a5.62,5.62,0,1,1,5.61-5.61A5.62,5.62,0,0,1,80.28,85.86Z"/><path class="cls-2" d="M80.28,99.62a12.12,12.12,0,0,0-10.57,18.09L58.45,129H34v29h29V133.6l11.25-11.28a12.13,12.13,0,1,0,6-22.7ZM56.54,151.5h-16v-16h16Zm23.74-34.13a5.62,5.62,0,1,1,5.61-5.62A5.62,5.62,0,0,1,80.28,117.37Z"/></svg>