<svg id="Layer_1" data-name="Layer 1" xmlns="http://www.w3.org/2000/svg" viewBox="0 0 76 76"><defs><style>.cls-1{fill:#f77f00;}.cls-2{fill:#035e7b;}</style></defs><path class="cls-1" d="M27.13,0s11.25,1.3,9.2,12.36C36.33,12.36,25.55,11.8,27.13,0Z"/><path class="cls-1" d="M48.89.11s-11.24,1.3-9.2,12.36C39.69,12.47,50.47,11.91,48.89.11Z"/><path class="cls-1" d="M27.13,12.47s11.25,1.3,9.2,12.36C36.33,24.83,25.55,24.27,27.13,12.47Z"/><path class="cls-1" d="M48.89,12.58s-11.24,1.3-9.2,12.36C39.69,24.94,50.47,24.38,48.89,12.58Z"/><path class="cls-1" d="M27.13,76s11.25-1.3,9.2-12.36C36.33,63.64,25.55,64.2,27.13,76Z"/><path class="cls-1" d="M48.89,75.89s-11.24-1.3-9.2-12.36C39.69,63.53,50.47,64.09,48.89,75.89Z"/><path class="cls-1" d="M27.13,63.53s11.25-1.3,9.2-12.36C36.33,51.17,25.55,51.73,27.13,63.53Z"/><path class="cls-1" d="M48.89,63.42s-11.24-1.3-9.2-12.36C39.69,51.06,50.47,51.62,48.89,63.42Z"/><path class="cls-1" d="M76,48.88s-1.3-11.25-12.36-9.2C63.64,39.68,64.19,50.46,76,48.88Z"/><path class="cls-1" d="M75.89,27.12s-1.3,11.25-12.36,9.2C63.53,36.32,64.09,25.54,75.89,27.12Z"/><path class="cls-1" d="M63.53,48.88s-1.3-11.25-12.36-9.2C51.17,39.68,51.72,50.46,63.53,48.88Z"/><path class="cls-1" d="M63.42,27.12s-1.3,11.25-12.36,9.2C51.06,36.32,51.62,25.54,63.42,27.12Z"/><path class="cls-1" d="M0,48.88s1.3-11.25,12.36-9.2C12.36,39.68,11.81,50.46,0,48.88Z"/><path class="cls-1" d="M.11,27.12s1.3,11.25,12.36,9.2C12.47,36.32,11.91,25.54.11,27.12Z"/><path class="cls-1" d="M12.47,48.88s1.3-11.25,12.36-9.2C24.83,39.68,24.28,50.46,12.47,48.88Z"/><path class="cls-1" d="M12.58,27.12s1.3,11.25,12.36,9.2C24.94,36.32,24.38,25.54,12.58,27.12Z"/><path class="cls-2" d="M51.06,13.45v9.67L46.6,27.58a4.81,4.81,0,1,0,1.83,1.83l4.45-4.47h9.67V13.45ZM44.25,34a2.23,2.23,0,1,1,2.22-2.23A2.23,2.23,0,0,1,44.25,34ZM60,22.36H53.64V16H60Z"/><path class="cls-2" d="M48.43,46.59a4.81,4.81,0,1,0-1.83,1.83l4.46,4.46v9.67H62.55V51.06H52.88Zm-4.18-.13a2.23,2.23,0,1,1,2.22-2.22A2.23,2.23,0,0,1,44.25,46.46Zm9.39,7.18H60V60H53.64Z"/><path class="cls-2" d="M31.78,27a4.83,4.83,0,0,0-2.36.62L25,23.12V13.45H13.47V24.94h9.67l4.45,4.47A4.8,4.8,0,1,0,31.78,27Zm-9.4-4.6H16.05V16h6.33ZM31.78,34A2.23,2.23,0,1,1,34,31.76,2.23,2.23,0,0,1,31.78,34Z"/><path class="cls-2" d="M31.78,39.43a4.8,4.8,0,0,0-4.19,7.16l-4.45,4.47H13.47V62.55H25V52.88l4.46-4.46a4.8,4.8,0,1,0,2.36-9ZM22.38,60H16.05V53.64h6.33Zm9.4-13.51A2.23,2.23,0,1,1,34,44.24,2.23,2.23,0,0,1,31.78,46.46Z"/></svg>