<svg id="Layer_1" data-name="Layer 1" xmlns="http://www.w3.org/2000/svg" viewBox="0 0 96 96"><defs><style>.cls-1{fill:#f77f00;}.cls-2{fill:#035e7b;}</style></defs><path class="cls-1" d="M34.27,0S48.48,1.64,45.89,15.62C45.89,15.62,32.27,14.91,34.27,0Z"/><path class="cls-1" d="M61.76.14S47.55,1.78,50.14,15.75C50.14,15.75,63.75,15.05,61.76.14Z"/><path class="cls-1" d="M34.27,15.75S48.48,17.4,45.89,31.37C45.89,31.37,32.27,30.66,34.27,15.75Z"/><path class="cls-1" d="M61.76,15.89S47.55,17.53,50.14,31.5C50.14,31.5,63.75,30.8,61.76,15.89Z"/><path class="cls-1" d="M34.27,96s14.21-1.64,11.62-15.62C45.89,80.38,32.27,81.09,34.27,96Z"/><path class="cls-1" d="M61.76,95.86S47.55,94.22,50.14,80.25C50.14,80.25,63.75,81,61.76,95.86Z"/><path class="cls-1" d="M34.27,80.25S48.48,78.6,45.89,64.63C45.89,64.63,32.27,65.34,34.27,80.25Z"/><path class="cls-1" d="M61.76,80.11S47.55,78.47,50.14,64.5C50.14,64.5,63.75,65.2,61.76,80.11Z"/><path class="cls-1" d="M96,61.74s-1.65-14.2-15.62-11.62C80.38,50.12,81.09,63.74,96,61.74Z"/><path class="cls-1" d="M95.86,34.26s-1.64,14.2-15.61,11.62C80.25,45.88,81,32.26,95.86,34.26Z"/><path class="cls-1" d="M80.25,61.74S78.6,47.54,64.63,50.12C64.63,50.12,65.34,63.74,80.25,61.74Z"/><path class="cls-1" d="M80.11,34.26s-1.64,14.2-15.62,11.62C64.49,45.88,65.2,32.26,80.11,34.26Z"/><path class="cls-1" d="M0,61.74s1.65-14.2,15.62-11.62C15.62,50.12,14.91,63.74,0,61.74Z"/><path class="cls-1" d="M.14,34.26s1.64,14.2,15.61,11.62C15.75,45.88,15.05,32.26.14,34.26Z"/><path class="cls-1" d="M15.75,61.74s1.65-14.2,15.62-11.62C31.37,50.12,30.66,63.74,15.75,61.74Z"/><path class="cls-1" d="M15.89,34.26s1.64,14.2,15.62,11.62C31.51,45.88,30.8,32.26,15.89,34.26Z"/><path class="cls-2" d="M64.49,17V29.2l-5.62,5.64a6.09,6.09,0,1,0,2.3,2.3L66.8,31.5H79V17Zm-8.6,25.94a2.81,2.81,0,1,1,2.81-2.81A2.81,2.81,0,0,1,55.89,42.93ZM75.75,28.24h-8v-8h8Z"/><path class="cls-2" d="M61.17,58.86a6.05,6.05,0,1,0-2.3,2.3l5.62,5.64V79H79V64.5H66.8Zm-5.28-.18a2.81,2.81,0,1,1,2.81-2.8A2.81,2.81,0,0,1,55.89,58.68Zm11.87,9.08h8v8h-8Z"/><path class="cls-2" d="M40.14,34.06a6,6,0,0,0-3,.78L31.53,29.2V17H17V31.5H29.23l5.62,5.64a6.15,6.15,0,0,0-.78,3,6.07,6.07,0,1,0,6.07-6.06ZM28.27,28.24h-8v-8h8ZM40.14,42.93A2.81,2.81,0,1,1,43,40.12,2.81,2.81,0,0,1,40.14,42.93Z"/><path class="cls-2" d="M40.14,49.81a6.07,6.07,0,0,0-6.07,6.07,6.15,6.15,0,0,0,.78,3L29.23,64.5H17V79H31.53V66.8l5.63-5.64a6.07,6.07,0,1,0,3-11.35ZM28.27,75.75h-8v-8h8ZM40.14,58.68A2.81,2.81,0,1,1,43,55.88,2.81,2.81,0,0,1,40.14,58.68Z"/></svg>