<svg id="Layer_1" data-name="Layer 1" xmlns="http://www.w3.org/2000/svg" viewBox="0 0 137.39 43.12"><defs><style>.cls-1{fill:#bb9155;}.cls-2{fill:#0e3e3e;}</style></defs><rect class="cls-1" x="15.73" y="18.17" width="1.28" height="1.27"/><rect class="cls-1" x="19.62" y="9.37" width="1.28" height="1.28"/><polygon class="cls-1" points="21.08 16.12 23.77 17.93 23.77 21.18 21.08 19.34 21.08 16.12"/><polygon class="cls-1" points="21.08 21.22 23.77 23.06 23.77 26.48 21.08 24.64 21.08 21.22"/><rect class="cls-1" x="23.91" y="32.47" width="1.28" height="1.28"/><polygon class="cls-1" points="25.32 17.94 27.86 16.31 27.86 19.45 25.32 21.18 25.32 17.94"/><polygon class="cls-1" points="25.32 23.06 27.86 21.32 27.86 24.87 25.32 26.52 25.32 23.06"/><rect class="cls-1" x="32.08" y="12.01" width="1.28" height="1.28"/><path class="cls-1" d="M37.54,3.14h-26A1.54,1.54,0,0,0,10,4.69V25.43a14.55,14.55,0,1,0,29.09,0V4.69A1.54,1.54,0,0,0,37.54,3.14ZM34.9,14.84H33.49v2.63l-4.09,2.8v5.44l-4.08,2.66v2.55h1.41v4.37H22.36V30.92h1.41V28.36L15.6,22.79V21H14.19V16.62h4.37V21H17.15v1l2.39,1.63V12.2H18.07V7.83h4.37V12.2H21.08v2.05l3.48,2.34,4.84-3.11v4.91l2.54-1.73V14.84H30.53V10.47H34.9Z"/><path class="cls-2" d="M58.78,23.58l-2-4.43H50l-2,4.43H45.06L53.4,5.68l8.33,17.9ZM51,16.82h4.8l-1.77-3.93c-.1-.25-.21-.54-.32-.87s-.22-.68-.33-1.08q-.14.56-.3,1.05c-.1.32-.21.62-.32.9Z"/><path class="cls-2" d="M67.5,23.58V5.68h10V8.15H70.41v4.46h7.08v2.56H70.41v8.41Z"/><path class="cls-2" d="M84.37,23.58V5.68h3.92a25.56,25.56,0,0,1,5.39.38,7.32,7.32,0,0,1,5.09,4.34,10.69,10.69,0,0,1,.8,4.24,10.6,10.6,0,0,1-.8,4.23,7.6,7.6,0,0,1-2.35,3,7.49,7.49,0,0,1-2.68,1.29,20.29,20.29,0,0,1-4.66.38H84.37ZM87.28,21h2.44a13.23,13.23,0,0,0,3-.26,4.55,4.55,0,0,0,1.76-.91A5.48,5.48,0,0,0,96,17.62a8.13,8.13,0,0,0,.51-3,8.22,8.22,0,0,0-.51-3,5.37,5.37,0,0,0-1.52-2.15,4.46,4.46,0,0,0-1.82-.91,14.68,14.68,0,0,0-3.31-.27h-2.1Z"/><path class="cls-2" d="M105.88,19.71l2.21-1a3.06,3.06,0,0,0,1.16,1.74,3.59,3.59,0,0,0,2.14.6,2.75,2.75,0,0,0,2-.69,2.43,2.43,0,0,0,.73-1.84c0-1-.84-1.9-2.5-2.68l-.54-.26a11.86,11.86,0,0,1-3.76-2.49,4.1,4.1,0,0,1-.93-2.72A4.37,4.37,0,0,1,107.77,7a5.31,5.31,0,0,1,3.72-1.29,6.37,6.37,0,0,1,3.16.72,3.91,3.91,0,0,1,1.76,2.1l-2.17,1.12a3.57,3.57,0,0,0-1.13-1.18,2.62,2.62,0,0,0-1.4-.37,2.58,2.58,0,0,0-1.78.58,2,2,0,0,0-.66,1.56c0,1,1,2,2.89,2.87l.35.16A10.36,10.36,0,0,1,116,15.52a4.14,4.14,0,0,1,.94,2.78,5,5,0,0,1-1.53,3.86,5.8,5.8,0,0,1-4.12,1.42,6,6,0,0,1-3.58-1A4.68,4.68,0,0,1,105.88,19.71Z"/><path class="cls-2" d="M124.48,23.58V5.68h2.91v17.9Z"/></svg>