<svg id="Layer_1" data-name="Layer 1" xmlns="http://www.w3.org/2000/svg" viewBox="0 0 239.84 192.94">
<path style="fill:#fd1e43" d="M117.34,122.21V103a.52.52,0,0,0-.75-.46l-19.3,9.65a.52.52,0,0,0-.29.47v19.18a.52.52,0,0,0,.75.46l19.31-9.65A.53.53,0,0,0,117.34,122.21Z"/><path style="fill:#fd1e43" d="M143.08,113.25,123.26,102.6a.51.51,0,0,0-.76.45v19.17a.52.52,0,0,0,.27.45l19.82,10.66a.52.52,0,0,0,.76-.46V113.7A.52.52,0,0,0,143.08,113.25Z"/><path style="fill:#fd1e43" d="M137.78,137l-17.63-8.78a.53.53,0,0,0-.46,0L102.07,137a.52.52,0,0,0,0,.92l17.63,9a.55.55,0,0,0,.47,0l17.62-9A.51.51,0,0,0,137.78,137Z"/><path style="fill:#fd1e43" d="M193.1,87.89l-19.31,9.65a.54.54,0,0,0-.29.46v46.11a.52.52,0,0,0,.75.46l19.31-9.65a.53.53,0,0,0,.28-.47V88.35A.51.51,0,0,0,193.1,87.89Z"/><path style="fill:#fd1e43" d="M168.06,97.54l-19.31-9.65a.52.52,0,0,0-.75.46v46.1a.52.52,0,0,0,.29.47l19.31,9.65a.51.51,0,0,0,.74-.46V98A.53.53,0,0,0,168.06,97.54Z"/><path style="fill:#fd1e43" d="M193.1,60.62l-19.31,9.66a.51.51,0,0,0-.29.46V89.92a.52.52,0,0,0,.75.46l19.31-9.65a.53.53,0,0,0,.28-.46V61.08A.51.51,0,0,0,193.1,60.62Z"/><path style="fill:#fd1e43" d="M168.06,70.28l-19.31-9.66a.52.52,0,0,0-.75.46V80.27a.52.52,0,0,0,.29.46l19.31,9.65a.51.51,0,0,0,.74-.46V70.74A.5.5,0,0,0,168.06,70.28Z"/><path style="fill:#fd1e43" d="M188.78,55l-17.62-9a.49.49,0,0,0-.47,0l-17.63,9a.52.52,0,0,0,0,.92l17.62,8.78a.53.53,0,0,0,.46,0L188.78,56A.51.51,0,0,0,188.78,55Z"/><path style="fill:#fd1e43" d="M91.09,60.62l-19.3,9.66a.5.5,0,0,0-.29.46v46.45a.52.52,0,0,0,.75.46L91.55,108a.5.5,0,0,0,.29-.46V61.08A.52.52,0,0,0,91.09,60.62Z"/><path style="fill:#fd1e43" d="M66.05,70.28l-19.3-9.66a.52.52,0,0,0-.75.46v46.45a.5.5,0,0,0,.29.46l19.3,9.66a.52.52,0,0,0,.75-.46V70.74A.5.5,0,0,0,66.05,70.28Z"/><path style="fill:#fd1e43" d="M86.78,55l-17.63-9a.47.47,0,0,0-.46,0L51.06,55a.51.51,0,0,0,0,.92l17.62,8.78a.53.53,0,0,0,.46,0L86.77,56A.51.51,0,0,0,86.78,55Z"/><path style="fill:#fd1e43" d="M91.09,114.81l-19.3,9.65a.52.52,0,0,0-.29.46v19.19a.52.52,0,0,0,.75.46l19.3-9.65a.52.52,0,0,0,.29-.47V115.27A.52.52,0,0,0,91.09,114.81Z"/><path style="fill:#fd1e43" d="M66.05,124.46l-19.3-9.65a.52.52,0,0,0-.75.46v19.18a.52.52,0,0,0,.29.47l19.3,9.65a.52.52,0,0,0,.75-.46V124.92A.52.52,0,0,0,66.05,124.46Z"/></svg>