<svg xmlns="http://www.w3.org/2000/svg" viewBox="0 0 392 564" color-interpolation-filters="sRGB" fill="none" fill-rule="evenodd" font-size="12" overflow="visible" stroke-linecap="square" stroke-miterlimit="3"><style>.st3{fill:none;stroke:none;stroke-linecap:round;stroke-linejoin:round;stroke-width:.72}.st4{fill:#000;font-family:Raleway ExtraBold;font-size:6em}</style><g id="group6-1" transform="translate(6.12 -6.12)"><g id="shape2-2"><path d="M359.24 63.03h-239.9l195.23-34.89c4.89-.61 9.18 0 12.24 3.06 2.45 1.84 3.67 4.9 3.67 7.96v14.07h15.91V38.55c0-7.96-3.06-14.69-9.18-19.59-6.73-5.51-15.91-7.95-25.7-6.12L29.38 63.64h-8.57C9.18 63.64 0 72.82 0 84.45v458.38c0 11.63 9.18 20.81 20.81 20.81h338.43c11.63 0 20.81-9.18 20.81-20.81v-459c0-11.62-9.18-20.8-20.81-20.8zm4.9 478.58c0 2.45-2.45 4.9-4.9 4.9H21.42c-2.45 0-4.9-2.45-4.9-4.9V83.83c0-2.44 2.45-4.89 4.9-4.89h338.44c2.44 0 4.89 2.45 4.89 4.89v457.78h-.61z" fill="#000" stroke-linecap="butt" stroke-width="6.12"/></g><g id="shape3-4" transform="translate(78.948 -139.536)"><path d="M111.38 340.26C49.57 340.26 0 390.45 0 451.65s49.57 111.99 111.38 111.99c61.82 0 111.39-50.18 111.39-111.38 0-61.2-49.57-112-111.39-112zm73.44 50.8c-9.18 2.45-18.97 4.28-28.15 6.12-3.67-14.08-8.57-25.71-14.69-35.5 17.14 5.51 31.83 15.91 42.84 29.38zm-73.44 156.67c-10.4 0-22.03-15.91-28.76-41.62 20.2-2.44 39.17-2.44 58.14-.61-7.34 26.32-18.36 42.23-29.38 42.23zm0-191.56c11.02 0 22.04 16.53 29.38 42.23-18.97 1.84-38.56 1.23-58.14-.61 6.73-25.09 18.36-41.62 28.76-41.62zM75.89 444.3c.61-11.01 1.22-21.42 3.06-30.6 12.85 1.23 25.09 2.45 37.33 2.45 9.79 0 18.97-.61 28.15-1.22 1.84 9.18 2.45 18.97 3.06 29.98h-71.6v-.61zm70.99 15.91c-.61 10.41-1.22 20.81-3.06 29.99-20.81-1.83-42.84-1.83-65.48 1.23-1.84-9.18-3.06-19.59-3.06-30.6h71.6v-.62zm-86.9-15.91H16.52c1.23-14.69 5.51-28.15 12.86-40.39a380.22 380.22 0 0034.27 7.34c-2.45 10.41-3.67 21.42-3.67 33.05zm0 15.91c.61 11.63 1.22 22.65 3.06 33.05a384.778 384.778 0 00-34.28 7.35c-7.34-12.24-11.62-25.71-12.85-40.4h44.07zm102.81 0h43.45c-1.22 14.08-5.5 27.54-12.24 39.17-11.62-3.67-22.64-6.12-34.27-7.95 1.84-9.18 3.06-20.2 3.06-31.22zm0-15.91c-.61-11.01-1.22-22.03-3.06-31.82 11.63-1.84 23.26-4.29 34.27-7.96 6.74 11.63 11.02 25.09 12.24 39.17h-43.45v.61zm-82.62-82.62c-5.51 9.18-10.4 20.81-14.07 34.27-9.18-1.22-18.36-3.67-27.54-5.5 11.01-13.47 25.7-23.26 41.61-28.77zm-41.61 153c9.18-2.45 18.36-4.28 27.54-5.51 3.67 13.47 8.56 25.1 14.07 34.28-15.91-6.12-30.6-16.53-41.61-28.77zm104.04 28.15c6.12-9.18 11.01-21.42 14.68-35.49 9.8 1.22 18.98 3.06 28.16 6.12-11.63 13.46-26.32 23.25-42.84 29.37z" fill="#548bd4" stroke-linecap="butt" stroke-width="6.12"/></g><g id="shape4-6" transform="translate(29.026 -365.701)"><path class="st3" d="M0 491.643h324v72H0z"/><text x="22.1" y="549.24" class="st4">Product</text></g><g id="shape5-9" transform="translate(29.026 -77.701)"><path class="st3" d="M0 491.643h324v72H0z"/><text x="8.82" y="549.24" class="st4">Passport</text></g></g></svg>