<svg xmlns="http://www.w3.org/2000/svg" version="1.1" viewBox="0 0 62 72" x="0" y="0" xml:space="preserve"><path d="M32.34 10.429c-2.06-1.02-3.65.1-3.65.1l-7.07 4.2-10.02 5.78s-1.6 1.07-1.6 3.52v25.29c0 4.89 3.47 4.74 3.47 4.74h18.3v7.86l13.3-7.86h2.79c3.92 0 3.83-4.72 3.83-4.72v-6.71l.08-18.48s.29-1.88-1.36-3.44l-10.53-5.98-7.54-4.3zm-6.04 37.04l-9.41-7.25c-7.57-5.8 1.32-11.55 1.32-11.55l9.97-7.64v4.58s-2.07 1.71-7.12 5.56c-4.95 3.77-.71 7.03-.71 7.03l5.92 4.58 13.74-10.53c3.04 2.33-.31 4.89-.31 4.89l-13.4 10.33zm-3.17-9.15l12.39-9.46 3.03 2.32-12.39 9.46-3.03-2.32zm20.43 2.56l-9.96 7.64v-4.58s2.09-1.7 7.12-5.56c4.98-3.82.71-7.02.71-7.02l-5.92-4.58-13.74 10.53c-3.03-2.33.31-4.89.31-4.89l13.41-10.33 9.41 7.25c7.55 5.8-1.34 11.54-1.34 11.54z" id="path23" fill="#f99d1c"/></svg>