<svg fill="none" fill-rule="evenodd" stroke="#000" stroke-width=".501" stroke-linejoin="bevel" stroke-miterlimit="10" font-family="Times New Roman" font-size="16" style="font-variant-ligatures:none" xmlns="http://www.w3.org/2000/svg" overflow="visible" width="500" height="500" viewBox="0 0 375 375" transform="scale(1 -1)"><g stroke="none" stroke-width=".5"><path d="M.376 51.449L.375 323.547c0 27.354 22.203 49.56 49.559 49.56 27.353 0 49.559-22.206 49.559-49.56l.001-272.098c0-27.357-22.206-49.56-49.559-49.56C22.579 1.889.376 24.092.376 51.449z" fill="#a91a1a"/><path d="M275.506 51.449l-.001 272.098c0 27.354 22.203 49.56 49.559 49.56 27.353 0 49.559-22.206 49.559-49.56l.001-272.098c0-27.357-22.206-49.56-49.559-49.56-27.356 0-49.559 22.203-49.559 49.56z" fill="#ffc200"/><path d="M290.033 16.41L152.35 154.144c-19.342 19.342-19.345 50.744-.002 70.087 19.343 19.341 50.747 19.342 70.088-.001L360.118 86.496c19.345-19.342 19.344-50.745.003-70.087-19.344-19.343-50.745-19.344-70.088.001z" fill="#47a025" fill-opacity=".8"/><path d="M84.967 16.41L222.65 154.144c19.342 19.342 19.345 50.744.002 70.087-19.343 19.341-50.747 19.342-70.088-.001L14.882 86.496c-19.345-19.342-19.344-50.745-.003-70.087 19.344-19.343 50.745-19.344 70.088.001z" fill="#0f5fdf" fill-opacity=".8"/><g fill="#fff"><circle transform="rotate(-120.001 39.824 11.318)" r="20.999"/><circle transform="rotate(-120.001 118.361 147.35)" r="20.999"/><circle transform="rotate(-119.998 177.39 -68.11)" r="20.999"/><circle transform="rotate(-120.001 255.926 67.93)" r="20.999"/><circle transform="rotate(-120.001 148.361 40.466)" r="20.999"/></g></g></svg>