<svg width="161" height="114" version="1.1" viewBox="0 0 161 114" xmlns="http://www.w3.org/2000/svg" xmlns:cc="http://creativecommons.org/ns#" xmlns:dc="http://purl.org/dc/elements/1.1/" xmlns:rdf="http://www.w3.org/1999/02/22-rdf-syntax-ns#" xmlns:xlink="http://www.w3.org/1999/xlink">
 <metadata>
  <rdf:RDF>
   <cc:Work rdf:about="">
    <dc:format>image/svg+xml</dc:format>
    <dc:type rdf:resource="http://purl.org/dc/dcmitype/StillImage"/>
    <dc:title/>
   </cc:Work>
  </rdf:RDF>
 </metadata>
 <defs>
  <linearGradient id="linearGradient830">
   <stop stop-color="#fff" offset="0"/>
   <stop stop-color="#054ea2" stop-opacity="0" offset="1"/>
  </linearGradient>
  <radialGradient id="radialGradient832" cx="-2.806" cy="45.453" r="10.422" gradientTransform="matrix(.90714 0 0 .90714 36.045 5.0332)" gradientUnits="userSpaceOnUse" xlink:href="#linearGradient830"/>
  <radialGradient id="radialGradient838" cx="-2.806" cy="45.453" r="10.422" gradientTransform="matrix(.90714 0 0 .90714 130.05 5.0332)" gradientUnits="userSpaceOnUse" xlink:href="#linearGradient830"/>
  <radialGradient id="radialGradient852" cx="-2.806" cy="45.453" r="10.422" gradientTransform="matrix(.90714 0 0 .90714 36.045 26.118)" gradientUnits="userSpaceOnUse" xlink:href="#linearGradient830"/>
  <radialGradient id="radialGradient854" cx="-2.806" cy="45.453" r="10.422" gradientTransform="matrix(.90714 0 0 .90714 130.05 26.118)" gradientUnits="userSpaceOnUse" xlink:href="#linearGradient830"/>
  <radialGradient id="radialGradient860" cx="-2.806" cy="45.453" r="10.422" gradientTransform="matrix(.90714 0 0 .90714 52.245 40.131)" gradientUnits="userSpaceOnUse" xlink:href="#linearGradient830"/>
  <radialGradient id="radialGradient866" cx="-2.806" cy="45.453" r="10.422" gradientTransform="matrix(.90714 0 0 .90714 113.7 40.131)" gradientUnits="userSpaceOnUse" xlink:href="#linearGradient830"/>
  <radialGradient id="radialGradient876" cx="-2.806" cy="45.453" r="10.422" gradientTransform="matrix(.90714 0 0 .90714 52.245 -8.2322)" gradientUnits="userSpaceOnUse" xlink:href="#linearGradient830"/>
  <radialGradient id="radialGradient878" cx="-2.806" cy="45.453" r="10.422" gradientTransform="matrix(.90714 0 0 .90714 113.7 -8.2322)" gradientUnits="userSpaceOnUse" xlink:href="#linearGradient830"/>
  <radialGradient id="radialGradient884" cx="-2.806" cy="45.453" r="10.422" gradientTransform="matrix(.90714 0 0 .90714 72.254 -14.778)" gradientUnits="userSpaceOnUse" xlink:href="#linearGradient830"/>
  <radialGradient id="radialGradient890" cx="-2.806" cy="45.453" r="10.422" gradientTransform="matrix(.90714 0 0 .90714 93.21 -14.778)" gradientUnits="userSpaceOnUse" xlink:href="#linearGradient830"/>
  <radialGradient id="radialGradient900" cx="-2.806" cy="45.453" r="10.422" gradientTransform="matrix(.90714 0 0 .90714 72.254 46.313)" gradientUnits="userSpaceOnUse" xlink:href="#linearGradient830"/>
  <radialGradient id="radialGradient902" cx="-2.806" cy="45.453" r="10.422" gradientTransform="matrix(.90714 0 0 .90714 93.21 46.313)" gradientUnits="userSpaceOnUse" xlink:href="#linearGradient830"/>
 </defs>
 <g>
  <path d="m86.345 34.248-2.6984 8.485 1.7275 0.54924 2.7002-8.485zm-13.324 0.09745-1.708 0.61126 3.0864 8.6143 1.708-0.61126zm29.425 2.8206-8.1005 6.6848 1.1552 1.3997 8.1005-6.6848zm-45.345 0.36498-1.1339 1.4174 8.9704 7.1721 1.1322-1.4156zm-15.161 9.7447-0.48546 1.7487 11.571 3.214 0.48546-1.747zm76.455 0.2445-11.185 2.3139 0.36676 1.7753 11.185-2.3139zm-65.312 14.142-11.699 2.4415 0.3703 1.7771 11.699-2.4433zm53.755 0.13465-0.43054 1.7629 12.085 2.9571 0.43054-1.7629zm-42.561 5.8255-8.485 6.6848 1.1233 1.4263 8.485-6.6866zm31.231 0.27462-1.1676 1.3891 8.8712 7.4573 1.1658-1.3891zm-21.766 1.8444-2.7002 8.8712 1.7363 0.52798 2.7002-8.8694zm11.102 0.07264-1.6973 0.64138 3.6002 9.5143 1.6973-0.64138z" color="#000000" color-rendering="auto" dominant-baseline="auto" fill="#4d6cb3" image-rendering="auto" shape-rendering="auto" solid-color="#000000" style="font-feature-settings:normal;font-variant-alternates:normal;font-variant-caps:normal;font-variant-ligatures:normal;font-variant-numeric:normal;font-variant-position:normal;isolation:auto;mix-blend-mode:normal;shape-padding:0;text-decoration-color:#000000;text-decoration-line:none;text-decoration-style:solid;text-indent:0;text-orientation:mixed;text-transform:none;white-space:normal"/>
  <path d="m42.955 46.265a9.4545 9.4545 0 0 1-9.4545 9.4545 9.4545 9.4545 0 0 1-9.4545-9.4545 9.4545 9.4545 0 0 1 9.4545-9.4545 9.4545 9.4545 0 0 1 9.4545 9.4545z" fill="#4f6db3"/>
  <path d="m42.955 46.265a9.4545 9.4545 0 0 1-9.4545 9.4545 9.4545 9.4545 0 0 1-9.4545-9.4545 9.4545 9.4545 0 0 1 9.4545-9.4545 9.4545 9.4545 0 0 1 9.4545 9.4545z" fill="url(#radialGradient832)"/>
  <path d="m136.95 46.265a9.4545 9.4545 0 0 1-9.4546 9.4545 9.4545 9.4545 0 0 1-9.4545-9.4545 9.4545 9.4545 0 0 1 9.4545-9.4545 9.4545 9.4545 0 0 1 9.4546 9.4545z" fill="#4f6db3"/>
  <path d="m136.95 46.265a9.4545 9.4545 0 0 1-9.4546 9.4545 9.4545 9.4545 0 0 1-9.4545-9.4545 9.4545 9.4545 0 0 1 9.4545-9.4545 9.4545 9.4545 0 0 1 9.4546 9.4545z" fill="url(#radialGradient838)"/>
  <path d="m42.955 67.35a9.4545 9.4545 0 0 1-9.4545 9.4545 9.4545 9.4545 0 0 1-9.4545-9.4545 9.4545 9.4545 0 0 1 9.4545-9.4545 9.4545 9.4545 0 0 1 9.4545 9.4545z" fill="#4f6db3"/>
  <path d="m42.955 67.35a9.4545 9.4545 0 0 1-9.4545 9.4545 9.4545 9.4545 0 0 1-9.4545-9.4545 9.4545 9.4545 0 0 1 9.4545-9.4545 9.4545 9.4545 0 0 1 9.4545 9.4545z" fill="url(#radialGradient852)"/>
  <path d="m136.95 67.35a9.4545 9.4545 0 0 1-9.4546 9.4545 9.4545 9.4545 0 0 1-9.4545-9.4545 9.4545 9.4545 0 0 1 9.4545-9.4545 9.4545 9.4545 0 0 1 9.4546 9.4545z" fill="#4f6db3"/>
  <path d="m136.95 67.35a9.4545 9.4545 0 0 1-9.4546 9.4545 9.4545 9.4545 0 0 1-9.4545-9.4545 9.4545 9.4545 0 0 1 9.4545-9.4545 9.4545 9.4545 0 0 1 9.4546 9.4545z" fill="url(#radialGradient854)"/>
  <path d="m59.154 81.364a9.4545 9.4545 0 0 1-9.4545 9.4545 9.4545 9.4545 0 0 1-9.4545-9.4545 9.4545 9.4545 0 0 1 9.4545-9.4545 9.4545 9.4545 0 0 1 9.4545 9.4545z" fill="#4f6db3"/>
  <path d="m59.154 81.364a9.4545 9.4545 0 0 1-9.4545 9.4545 9.4545 9.4545 0 0 1-9.4545-9.4545 9.4545 9.4545 0 0 1 9.4545-9.4545 9.4545 9.4545 0 0 1 9.4545 9.4545z" fill="url(#radialGradient860)"/>
  <path d="m120.61 81.364a9.4545 9.4545 0 0 1-9.4546 9.4545 9.4545 9.4545 0 0 1-9.4545-9.4545 9.4545 9.4545 0 0 1 9.4545-9.4545 9.4545 9.4545 0 0 1 9.4546 9.4545z" fill="#4f6db3"/>
  <path d="m120.61 81.364a9.4545 9.4545 0 0 1-9.4546 9.4545 9.4545 9.4545 0 0 1-9.4545-9.4545 9.4545 9.4545 0 0 1 9.4545-9.4545 9.4545 9.4545 0 0 1 9.4546 9.4545z" fill="url(#radialGradient866)"/>
  <path d="m59.154 33a9.4545 9.4545 0 0 1-9.4545 9.4545 9.4545 9.4545 0 0 1-9.4545-9.4545 9.4545 9.4545 0 0 1 9.4545-9.4545 9.4545 9.4545 0 0 1 9.4545 9.4545z" fill="#4f6db3"/>
  <path d="m59.154 33a9.4545 9.4545 0 0 1-9.4545 9.4545 9.4545 9.4545 0 0 1-9.4545-9.4545 9.4545 9.4545 0 0 1 9.4545-9.4545 9.4545 9.4545 0 0 1 9.4545 9.4545z" fill="url(#radialGradient876)"/>
  <path d="m120.61 33a9.4545 9.4545 0 0 1-9.4546 9.4545 9.4545 9.4545 0 0 1-9.4545-9.4545 9.4545 9.4545 0 0 1 9.4545-9.4545 9.4545 9.4545 0 0 1 9.4546 9.4545z" fill="#4f6db3"/>
  <path d="m120.61 33a9.4545 9.4545 0 0 1-9.4546 9.4545 9.4545 9.4545 0 0 1-9.4545-9.4545 9.4545 9.4545 0 0 1 9.4545-9.4545 9.4545 9.4545 0 0 1 9.4546 9.4545z" fill="url(#radialGradient878)"/>
  <path d="m79.163 26.455a9.4545 9.4545 0 0 1-9.4545 9.4545 9.4545 9.4545 0 0 1-9.4545-9.4545 9.4545 9.4545 0 0 1 9.4545-9.4545 9.4545 9.4545 0 0 1 9.4545 9.4545z" fill="#4f6db3"/>
  <path d="m79.163 26.455a9.4545 9.4545 0 0 1-9.4545 9.4545 9.4545 9.4545 0 0 1-9.4545-9.4545 9.4545 9.4545 0 0 1 9.4545-9.4545 9.4545 9.4545 0 0 1 9.4545 9.4545z" fill="url(#radialGradient884)"/>
  <path d="m100.12 26.455a9.4545 9.4545 0 0 1-9.4545 9.4545 9.4545 9.4545 0 0 1-9.4545-9.4545 9.4545 9.4545 0 0 1 9.4545-9.4545 9.4545 9.4545 0 0 1 9.4545 9.4545z" fill="#4f6db3"/>
  <path d="m100.12 26.455a9.4545 9.4545 0 0 1-9.4546 9.4545 9.4545 9.4545 0 0 1-9.4545-9.4545 9.4545 9.4545 0 0 1 9.4545-9.4545 9.4545 9.4545 0 0 1 9.4546 9.4545z" fill="url(#radialGradient890)"/>
  <path d="m79.163 87.545a9.4545 9.4545 0 0 1-9.4545 9.4545 9.4545 9.4545 0 0 1-9.4545-9.4545 9.4545 9.4545 0 0 1 9.4545-9.4545 9.4545 9.4545 0 0 1 9.4545 9.4545z" fill="#4f6db3"/>
  <path d="m79.163 87.545a9.4545 9.4545 0 0 1-9.4545 9.4545 9.4545 9.4545 0 0 1-9.4545-9.4545 9.4545 9.4545 0 0 1 9.4545-9.4545 9.4545 9.4545 0 0 1 9.4545 9.4545z" fill="url(#radialGradient900)"/>
  <path d="m100.12 87.545a9.4545 9.4545 0 0 1-9.4545 9.4545 9.4545 9.4545 0 0 1-9.4545-9.4545 9.4545 9.4545 0 0 1 9.4545-9.4545 9.4545 9.4545 0 0 1 9.4545 9.4545z" fill="#4f6db3"/>
  <path d="m100.12 87.545a9.4545 9.4545 0 0 1-9.4545 9.4545 9.4545 9.4545 0 0 1-9.4545-9.4545 9.4545 9.4545 0 0 1 9.4545-9.4545 9.4545 9.4545 0 0 1 9.4545 9.4545z" fill="url(#radialGradient902)"/>
  <path d="m102.4 53.459c-0.43599 1e-6 -0.83241 0.07241-1.1888 0.2197-0.35645 0.14729-0.62765 0.36449-0.81324 0.65024-0.18558 0.2828-0.27817 0.58724-0.27817 0.91423 0 0.29753 0.0747 0.56814 0.22502 0.8097 0.15318 0.23861 0.38344 0.4386 0.69276 0.60063 0.2386 0.12667 0.65579 0.26139 1.2509 0.40573 0.59506 0.1414 0.97961 0.24585 1.1534 0.3136 0.27102 0.1031 0.46508 0.23129 0.58291 0.38447 0.11783 0.15024 0.17718 0.32649 0.17718 0.52976 0 0.20032-0.0623 0.38725-0.18604 0.5581-0.12078 0.16791-0.30593 0.29966-0.55633 0.39687-0.25039 0.09721-0.53941 0.14528-0.86639 0.14528-0.36823 0-0.69937-0.06291-0.99396-0.18958-0.29457-0.12962-0.51237-0.29697-0.65377-0.50318-0.13847-0.20915-0.22749-0.47502-0.26577-0.79906l-0.80793 0.0691c0.01179 0.43304 0.13048 0.82293 0.35436 1.1676 0.22683 0.34172 0.5372 0.59808 0.93194 0.76894 0.39769 0.17086 0.88965 0.25513 1.4759 0.25513 0.4625 0 0.87732-0.08367 1.2456-0.25159 0.37118-0.17086 0.65484-0.40705 0.85222-0.71048 0.19736-0.30637 0.29588-0.63158 0.29588-0.97624 0-0.34761-0.0896-0.65442-0.26931-0.91954-0.1797-0.26807-0.45743-0.48883-0.8345-0.66264-0.25923-0.11783-0.73873-0.25492-1.4369-0.41105-0.69522-0.15908-1.1249-0.31396-1.2898-0.4642-0.16792-0.15024-0.25158-0.34133-0.25158-0.57405 0-0.26807 0.11868-0.49714 0.35434-0.68567 0.23862-0.19148 0.61724-0.28702 1.1357-0.28702 0.49784 0 0.87172 0.10445 1.1251 0.3136 0.25627 0.20916 0.40759 0.51893 0.4518 0.9284l0.8221-0.06201c-0.0147-0.38001-0.12155-0.72006-0.31892-1.0205-0.19738-0.30048-0.48044-0.52717-0.84867-0.68036-0.36529-0.15613-0.78664-0.23387-1.2668-0.23387zm-47.06 0.10985v6.4776h4.0467v-0.76363h-3.1909v-5.7139zm5.2178 0v6.4776h0.85753v-6.4776zm2.3635 0v6.4776h0.85753v-2.6328h1.6619c0.91616 0 1.5488-0.19049 1.8993-0.57051 0.35055-0.38296 0.52621-0.85059 0.52621-1.4015 0-0.3211-0.06588-0.61426-0.19844-0.88234-0.12962-0.26807-0.30231-0.47637-0.51735-0.62366-0.21505-0.15024-0.48091-0.25172-0.79906-0.30474-0.22683-0.04125-0.55678-0.06201-0.98687-0.06201zm6.1905 0v6.4776h0.85753v-6.4776zm2.3653 0v6.4776h2.337c0.3918 0 0.73778-0.0362 1.0383-0.10985 0.30342-0.07364 0.56039-0.18106 0.77249-0.32246 0.21505-0.14435 0.41384-0.34077 0.59354-0.58822 0.1797-0.2504 0.32628-0.5661 0.44117-0.94612 0.11489-0.38001 0.17186-0.8156 0.17186-1.3076 0-0.57738-0.08427-1.0901-0.25513-1.5379-0.16791-0.45071-0.42368-0.82043-0.7654-1.1091-0.26218-0.22388-0.57849-0.37877-0.94966-0.4642-0.26513-0.06187-0.64968-0.09213-1.1534-0.09213zm9.0218 0v6.4776h0.82741v-5.5137l1.8728 5.5137h0.77426l1.8816-5.4216v5.4216h0.82564v-6.4776h-1.1534l-1.5503 4.5074c-0.15613 0.45661-0.27007 0.80258-0.34372 1.0383-0.06481-0.2121-0.16866-0.53138-0.31006-0.95852l-1.5326-4.5871zm9.3513 0-2.4893 6.4776h0.91068l0.71225-1.9613h2.709l0.75477 1.9613h0.97624l-2.6506-6.4776zm4.2682 0v6.4776h0.85753v-2.6328h1.6601c0.91616 0 1.5505-0.19049 1.9011-0.57051 0.35056-0.38296 0.52621-0.85059 0.52621-1.4015 0-0.3211-0.06767-0.61426-0.20021-0.88234-0.12961-0.26807-0.30054-0.47637-0.51558-0.62366-0.21505-0.15024-0.48269-0.25172-0.80084-0.30474-0.22683-0.04125-0.55501-0.06201-0.9851-0.06201zm-3.827 0.68036c0.10016 0.35056 0.25268 0.79801 0.45889 1.343l0.67681 1.7948h-2.197l0.71225-1.9011c0.15024-0.40947 0.26656-0.82133 0.34904-1.2367zm-26.513 0.08327h1.6566c0.38885 0 0.65649 0.02018 0.80084 0.05847 0.22388 0.06187 0.40311 0.19005 0.53861 0.38447 0.13846 0.19148 0.2073 0.42174 0.2073 0.69276 0 0.37412-0.11631 0.6655-0.34904 0.87171-0.23272 0.20621-0.62618 0.30829-1.18 0.30829h-1.6743zm8.5541 0h1.3625c0.50963 0 0.87935 0.04451 1.1091 0.13288 0.31815 0.12372 0.58698 0.36822 0.80792 0.73351 0.22388 0.36234 0.33663 0.88338 0.33663 1.5609 0 0.48901-0.05875 0.90443-0.17363 1.2491-0.11194 0.34172-0.2698 0.61529-0.47306 0.81855-0.14434 0.14435-0.3384 0.25533-0.58291 0.33486-0.24156 0.07954-0.57567 0.12048-1.0028 0.12048h-1.3837zm22.643 0h1.6566c0.38885 0 0.65472 0.02018 0.79906 0.05847 0.22388 0.06187 0.40488 0.19005 0.54039 0.38447 0.13845 0.19148 0.2073 0.42174 0.2073 0.69276 0 0.37412-0.11632 0.6655-0.34904 0.87171-0.23272 0.20621-0.62618 0.30829-1.18 0.30829h-1.6743z" fill="#496db2" style="font-feature-settings:normal;font-variant-caps:normal;font-variant-ligatures:normal;font-variant-numeric:normal"/>
  <path d="m80.186 42.402c-8.2424 1e-6 -15.709 1.5203-21.196 4.0361-2.7434 1.2579-4.9965 2.7642-6.598 4.5003s-2.5549 3.7387-2.5549 5.8698 0.95339 4.1337 2.5549 5.8698c1.6015 1.7361 3.8547 3.2424 6.598 4.5003 5.4867 2.5158 12.953 4.0361 21.196 4.0361 8.2424 1e-6 15.711-1.5203 21.197-4.0361 2.7434-1.2579 4.9965-2.7642 6.598-4.5003 1.6015-1.7361 2.5531-3.7387 2.5531-5.8698s-0.95162-4.1337-2.5531-5.8698-3.8547-3.2424-6.598-4.5003c-5.4867-2.5158-12.955-4.0361-21.197-4.0361zm0 1.8143c8.0176 0 15.272 1.5013 20.441 3.8713 2.5845 1.185 4.6423 2.5882 6.0204 4.0821 1.3781 1.494 2.073 3.0419 2.073 4.6385 0 1.5966-0.69483 3.1463-2.073 4.6402-1.3781 1.494-3.436 2.8953-6.0204 4.0804-5.1689 2.37-12.423 3.8713-20.441 3.8713-8.0176 0-15.27-1.5013-20.439-3.8713-2.5845-1.185-4.6441-2.5864-6.0222-4.0804-1.3781-1.494-2.073-3.0437-2.073-4.6402 0-1.5966 0.69482-3.1445 2.073-4.6385 1.3781-1.494 3.4377-2.8971 6.0222-4.0821 5.1689-2.37 12.421-3.8713 20.439-3.8713z" color="#000000" color-rendering="auto" dominant-baseline="auto" fill="#4a6bb2" image-rendering="auto" shape-rendering="auto" solid-color="#000000" style="font-feature-settings:normal;font-variant-alternates:normal;font-variant-caps:normal;font-variant-ligatures:normal;font-variant-numeric:normal;font-variant-position:normal;isolation:auto;mix-blend-mode:normal;shape-padding:0;text-decoration-color:#000000;text-decoration-line:none;text-decoration-style:solid;text-indent:0;text-orientation:mixed;text-transform:none;white-space:normal"/>
 </g>
</svg>