<svg width="200" height="114" enable-background="new -10.488 -8.234 591.98 720" version="1.1" viewBox="-10.488 -8.234 199.99 114" xml:space="preserve" xmlns="http://www.w3.org/2000/svg" xmlns:cc="http://creativecommons.org/ns#" xmlns:dc="http://purl.org/dc/elements/1.1/" xmlns:rdf="http://www.w3.org/1999/02/22-rdf-syntax-ns#"><metadata><rdf:RDF><cc:Work rdf:about=""><dc:format>image/svg+xml</dc:format><dc:type rdf:resource="http://purl.org/dc/dcmitype/StillImage"/><dc:title/></cc:Work></rdf:RDF></metadata><path d="m123.53 34.533c-0.15543 0-0.25177 0.1708-0.43852 0.62072l-3.899 9.7619c-0.27597 0.69162-0.54272 1.1857-1.1004 1.3537-0.29592-0.06965-0.86302-0.2642-1.6045-1.0249-0.91668-0.96472-1.9899-2.3492-3.3742-4.0917 1.57-1.2756 2.0519-2.3293 2.0519-3.4788 0-1.0451-0.62075-1.8356-1.0552-2.1284-0.84136-0.57384-1.8809-0.67172-2.8609-0.67172-0.48073 0-1.6649 0.04827-2.1923 0.04827-0.32268 0-1.3025-0.04827-2.1284-0.04827-0.23182 0-0.3423 0.03267-0.3423 0.14006 0 0.10877 0.0947 0.14039 0.2631 0.14039 0.21774 0 0.48214 0.01526 0.60816 0.04657 0.51326 0.10877 0.63648 0.35671 0.6676 0.88823 0.034 0.49517 0.0338 0.93215 0.0338 3.294l-3e-3 2e-3 3e-3 2.7323c0 1.4303 1.8e-4 2.6564-0.0792 3.3141-0.0619 0.44696-0.13834 0.78907-0.45109 0.85118-0.14134 0.03411-0.3268 0.06392-0.56157 0.06392-0.1852 0-0.24714 0.04547-0.24714 0.12169 0 0.11033 0.10882 0.15501 0.30967 0.15501 0.62501 0 1.605-0.04488 1.8966-0.04488 0.23477 0 1.3843 0.04488 2.2867 0.04488 0.20067 0 0.30865-0.04467 0.30865-0.15501 0-0.07606-0.0629-0.12169-0.18458-0.12169-0.18798 0-0.53031-0.02981-0.76215-0.06392-0.46663-0.0623-0.56122-0.40442-0.60509-0.85118-0.078-0.65772-0.0778-1.8837-0.0778-3.3276v-0.2196c0-0.09172 0.0452-0.12441 0.12168-0.12441l1.356 0.03262c0.10476 0 0.19921 0.01413 0.27875 0.10742 0.20207 0.23218 0.91651 1.2898 1.5375 2.1454 0.87113 1.1994 1.4609 1.9281 2.127 2.2844 0.40886 0.21773 0.79478 0.29404 1.6647 0.29404h0.4137c2e-3 1e-5 3e-3 3.47e-4 8e-3 3.47e-4 0.0104 0 0.0202-3.47e-4 0.0302-3.47e-4h1.0242c0.0845 0 0.15039-0.0077 0.2009-0.02515 0.26577-0.0094 0.50634-0.01904 0.57891-0.01904 0.4835 0 1.1514 0.04454 1.649 0.04454 0.1683 0 0.25869-0.02847 0.25869-0.15535 0-0.09328-0.0437-0.12169-0.22911-0.12169h-0.23456c-0.48227 0-0.62072-0.20648-0.62072-0.48339 0-0.18675 0.0791-0.55962 0.23456-0.94743l0.83862-2.2236c0.0297-0.09329 0.0623-0.12306 0.14007-0.12306v0.0014l3.4668-0.0017c0.0747 0 0.12419 0.02983 0.15399 0.10605l1.2419 3.2967c0.0794 0.18693-0.0288 0.32697-0.14039 0.35794-0.15264 0.01705-0.21757 0.0454-0.21757 0.1387 0 0.11034 0.18826 0.11026 0.46674 0.1268 1.2448 0.02837 2.3788 0.02855 2.9374 0.02855 0.57575 0 0.71861-0.02847 0.71861-0.15535 0-0.10617-0.0798-0.12169-0.20702-0.12169-0.18555 0-0.41407-0.01692-0.65202-0.06392-0.3239-0.08024-0.77463-0.29525-1.3658-1.6939-0.99571-2.3605-3.4808-8.705-3.8528-9.5579-0.15576-0.3575-0.25016-0.49766-0.38887-0.49766zm39.631 0.1251c-4.66 0-6.4194 3.4352-6.4194 6.0941l-3.4e-4 -2e-3c0 2.7481 1.8032 6.0899 6.2657 6.0916 3.9458 0 6.4315-2.8097 6.4315-6.3712 0-3.5611-2.4063-5.8126-6.2776-5.8126zm16.244 0.09315c-0.0791 0-0.15826 0.06239-0.25189 0.09076-0.15577 0.04944-0.34224 0.0496-0.63605 0.06526-0.35697 0.01549-3.5133 0.0153-4.1047 0.0153-0.45095 0-1.4307-0.04794-2.2372-0.04794-0.23202 0-0.35966 0.03244-0.35966 0.15671 0 0.09189 0.11173 0.12306 0.26855 0.12306 0.21529 0 0.47683 0.01557 0.60407 0.04691 0.51379 0.10877 0.63808 0.35814 0.66628 0.88691 0.0326 0.49656 0.0326 0.93317 0.0326 3.295v2.7351c0 1.4936 1.2e-4 2.6564-0.0771 3.3141-0.0614 0.44696-0.14059 0.78907-0.45075 0.85118-0.13976 0.03411-0.32752 0.0639-0.55953 0.0639-0.16864 0-0.23047 0.04703-0.23047 0.12169 0 0.12706 0.10605 0.15535 0.32361 0.15535 0.58811 0 1.5684-0.04488 1.9743-0.04488 0.40466 0 1.382 0.04488 2.3621 0.04488 0.23305 0 0.34469-0.04483 0.34469-0.15535 0-0.07448-0.065-0.12169-0.26856-0.12169-0.21545 0-0.55706-0.0298-0.77811-0.0639-0.4654-0.0623-0.55611-0.40442-0.60101-0.85118-0.0806-0.65772-0.0806-1.8202-0.0806-3.3141l3e-3 -3.48e-4h-3e-3v-1.2594c0-0.10599 0.0345-0.13836 0.1108-0.13836 0.2595 0 1.91 3.48e-4 2.2976 0.04692 0.48385 0.0623 0.71278 0.339 0.79446 0.55988 0.0625 0.18536 0.0952 0.37331 0.0952 0.47932 0 0.11208 0.0253 0.22062 0.12004 0.22062 0.15543 0 0.15535-0.15652 0.15535-0.2954 0-0.11018 0.0309-0.82303 0.0625-1.1385 0.0464-0.47933 0.12714-0.86841 0.12714-0.96136 0-0.09381-0.0317-0.13767-0.0979-0.13767-0.0918 0-0.11855 0.06104-0.20056 0.15434-0.1523 0.20224-0.37343 0.26311-0.67033 0.27739-0.21216 0.01827-0.43286 0.01837-0.69586 0.01837l-1.988 0.01258c-0.0936 0-0.1108-0.0454-0.1108-0.1387v-3.8851c0-0.1697 0.0469-0.21926 0.14039-0.21926l2.3945 0.04963c0.58671 0.01688 0.91897 0.2459 1.0222 0.46504 0.0949 0.21651 0.0949 0.46568 0.0949 0.58979 0.0143 0.17004 0.0497 0.25053 0.15569 0.25053 0.11184 0 0.1383-0.09498 0.15536-0.21926 0.0299-0.18519 0.0622-1.103 0.0792-1.2588 0.0439-0.4045 0.12343-0.59134 0.12343-0.6989 0-0.07815-0.0423-0.14039-0.10604-0.14039zm-84.318 0.12203c-0.23045 0-0.34367 0.03267-0.34367 0.14004 0 0.10877 0.09199 0.14039 0.26445 0.14039 0.21634 0 0.48513 0.01526 0.60679 0.04657 0.51483 0.10877 0.63802 0.35814 0.669 0.88691 0.03112 0.49656 0.03092 0.93355 0.03092 3.2954l3.48e-4 -0.0014v2.7362c0 1.4303-1.8e-5 2.6559-0.07919 3.3137-0.06096 0.44695-0.13739 0.78907-0.44702 0.85118-0.13871 0.03411-0.32654 0.06392-0.5643 0.06392-0.18362 0-0.24611 0.04703-0.24611 0.12169 0 0.11052 0.10917 0.15535 0.31002 0.15535 0.62084 0 1.5978-0.04487 1.96-0.04487 0.46802 0 1.8795 0.0945 2.2528 0.0945 2.8582 0 4.1523-1.7282 4.1523-3.3898 0-1.8163-1.5559-2.9225-2.8299-3.3593 0.85262-0.68472 1.5868-1.4426 1.5868-2.7168 0-0.82462-0.50061-2.3336-3.3123-2.3336-0.52614 0-1.1354 0.04827-1.8979 0.04827-0.31399 0-1.2914-0.04827-2.113-0.04827zm35.86 0c-0.23393 0-0.344 0.03267-0.344 0.14004 0 0.10877 0.0978 0.14039 0.26616 0.14039 0.22068 0 0.48201 0.01526 0.60542 0.04657 0.51292 0.10877 0.63764 0.35671 0.67103 0.88824 0.0314 0.49516 0.0316 0.93215 0.0316 3.294l2e-3 2e-3h-2e-3v2.7323c0 1.4303-7e-5 2.6564-0.0764 3.3141-0.0676 0.44696-0.14562 0.78907-0.45245 0.85118-0.14151 0.03411-0.32651 0.0639-0.55852 0.0639-0.18797 0-0.24917 0.04547-0.24917 0.12169 0 0.11033 0.10662 0.15501 0.30729 0.15501 0.625 0 1.6006-0.04488 1.8975-0.04488 0.23045 0 1.3866 0.04488 2.2839 0.04488 0.20104 0 0.31139-0.04467 0.31139-0.15501 0-0.07606-0.0638-0.12169-0.18662-0.12169-0.18571 0-0.53031-0.0298-0.76247-0.0639-0.46506-0.0623-0.55841-0.40442-0.60644-0.85118-0.0782-0.65772-0.0782-1.8837-0.0782-3.3276v-0.21958c0-0.09172 0.0483-0.12441 0.12646-0.12441l1.3529 0.03264c0.10929 0 0.20397 0.01414 0.27638 0.10742 0.2031 0.23218 0.91763 1.2898 1.5426 2.1454 0.86658 1.1994 1.4621 1.9281 2.124 2.2844 0.40779 0.21773 0.79471 0.29404 1.666 0.29404h1.4735c0.1899 0 0.29881-0.02881 0.29881-0.1557 0-0.07606-0.0595-0.12169-0.18662-0.12169-0.12343 0-0.26759-0.01696-0.43851-0.04794-0.23079-0.04543-0.86879-0.1585-1.7358-1.0538-0.91777-0.96472-1.9892-2.3492-3.3757-4.0917 1.5741-1.2756 2.0505-2.3293 2.0505-3.4788 0-1.0451-0.61783-1.8356-1.0535-2.1284-0.84027-0.57384-1.8795-0.67172-2.86-0.67172-0.48351 0-1.6632 0.04827-2.1909 0.04827-0.32913 0-1.3051-0.04827-2.131-0.04827zm-43.817 3.48e-4c-0.24732 0-0.37495 0.03251-0.37495 0.12441 0 0.12428 0.09353 0.1557 0.25053 0.1557 0.1824 0 0.38912 0.01535 0.56022 0.06358 0.34079 0.07918 0.49622 0.33971 0.52894 0.87126 0.02966 0.49516 0.02953 0.93215 0.02953 3.294l3.49e-4 6.97e-4v2.7344c0 1.5109-1.3e-5 2.7339-0.07921 3.3875-0.04834 0.45078-0.13869 0.71545-0.45109 0.7778-0.1375 0.03393-0.32267 0.06357-0.55886 0.06357-0.18676 0-0.24884 0.04703-0.24884 0.12169 0 0.11069 0.11019 0.15535 0.31104 0.15535 0.62065 0 1.6007-0.04454 1.96-0.04454 0.41702 0 1.3972 0.04454 2.4227 0.04454 0.17248 0 0.29574-0.04467 0.29574-0.15535 0-0.07448-0.07954-0.12169-0.24646-0.12169-0.23304 0-0.57554-0.02962-0.79174-0.06357-0.46818-0.06231-0.57979-0.34066-0.62242-0.75942-0.06349-0.67166-0.06355-1.8952-0.06355-3.4057v-2.7351c0-2.3618-5e-5 -2.7982 0.03092-3.2936 0.03257-0.54337 0.15588-0.81062 0.57586-0.88825 0.18519-0.03133 0.30964-0.04691 0.46368-0.04691 0.157 0 0.25053-0.03142 0.25053-0.1557 0-0.09189-0.12341-0.12441-0.32566-0.12441-0.59263 0-1.5071 0.04828-1.8961 0.04828-0.45286 0-1.4329-0.04828-2.0212-0.04828zm54.308 0c-0.18693 0-0.29881 0.04816-0.29881 0.14004 0 0.10878 0.11208 0.14039 0.23525 0.14039 0.1838 0 0.45362 0.09329 0.65062 0.20329 0.2952 0.17004 0.68883 0.55882 1.0748 1.133 0.54408 0.80928 2.6273 4.2291 2.7364 4.4749 0.20082 0.45542 0.35928 0.79478 0.35932 1.6331h-3.3e-4v1.2745c-2e-5 0.2501 1.2e-4 0.90092-0.0497 1.5586-0.0269 0.44696-0.17123 0.78907-0.48068 0.85187-0.13749 0.03341-0.32931 0.06323-0.5432 0.06323-0.1711 0-0.24748 0.04547-0.24748 0.12169 0 0.12706 0.12444 0.15535 0.34063 0.15535 0.57573 0 1.5529-0.04488 1.9424-0.04488 0.41892 0 1.4026 0.04488 2.3772 0.04488 0.20051 0 0.32702-0.04467 0.32702-0.15535 0-0.07605-0.0795-0.12169-0.24917-0.12169-0.21773 0-0.56003-0.02982-0.77811-0.06323-0.46384-0.063-0.60655-0.4051-0.6377-0.85187-0.0469-0.65772-0.0469-1.3083-0.0469-1.5586v-1.2745c0-0.50945-6e-5 -0.99279 0.23489-1.5515 0.28301-0.67166 2.4595-4.3233 2.9701-4.944 0.33783-0.41858 0.51388-0.60566 0.83761-0.76246 0.23479-0.12322 0.53011-0.18663 0.68326-0.18663 0.17128 0 0.29642-0.04692 0.29642-0.1557 0-0.09189-0.10859-0.12441-0.27842-0.12441-0.29708 0-1.3196 0.04827-1.6643 0.04827-0.44696 0-0.94963-0.04827-1.4629-0.04827-0.18675 0-0.2631 0.03267-0.2631 0.14004 0 0.09329 0.14019 0.1228 0.27908 0.15535 0.26577 0.06249 0.32668 0.23192 0.32668 0.38787 0 0.2052-0.061 0.4682-0.21246 0.81176-0.21911 0.47968-2.1794 3.898-2.3364 4.2726-0.24714-0.43424-2.424-4.1783-2.6388-4.6477-0.11045-0.21495-0.18797-0.40398-0.18797-0.5286 0-0.12428 0.0774-0.24773 0.21756-0.2801 0.22939-0.06249 0.33789-0.07803 0.33789-0.17134 0-0.09207-0.0737-0.14004-0.22878-0.14004-0.70194 0-1.3383 0.04827-1.6634 0.04827-0.51342 0-1.6774-0.04827-1.9586-0.04827zm-64.391 6.97e-4c-0.23635 0-0.34198 0.03267-0.34198 0.14006 0 0.10877 0.09033 0.14039 0.26141 0.14039 0.20085 0 0.38488 0.01543 0.51228 0.04657 0.51622 0.10877 0.6363 0.35814 0.66868 0.88691 0.03269 0.49656 0.03264 0.93317 0.03264 3.295v2.7355c0 1.43 8.8e-5 2.6559-0.07614 3.3137-0.06229 0.44696-0.14147 0.78889-0.4511 0.85118-0.14151 0.03394-0.3326 0.0639-0.55886 0.0639-0.18676 0-0.25324 0.04703-0.25324 0.12169 0 0.11069 0.11173 0.15535 0.31239 0.15535 0.62379 0 1.604-0.04488 1.9577-0.04488 1.2602 0 2.2882 0.0945 4.5256 0.0945 0.8032 0 0.88127-0.07816 0.97593-0.42016 0.12741-0.45131 0.23592-1.6179 0.23592-1.7891 0-0.18396-0.01831-0.26481-0.12306-0.26481-0.12723 0-0.16134 0.09516-0.17405 0.23388-0.03396 0.29396-0.21489 0.72793-0.40147 0.93178-0.39058 0.4191-0.99438 0.43716-1.8177 0.43716-1.2164 0-1.6193-0.11062-1.8839-0.34367-0.32668-0.28004-0.32668-1.352-0.32668-3.3409h3.48e-4v-2.7351c0-2.3618-1.96e-4 -2.7985 0.0296-3.295 0.03238-0.54199 0.15706-0.80928 0.57721-0.88691 0.18832-0.03115 0.43557-0.04657 0.60508-0.04657 0.18954 0 0.28044-0.03162 0.28044-0.14039 0-0.10756-0.10623-0.14006-0.32397-0.14006-0.6109 0-1.7424 0.04794-2.1158 0.04794-0.41735 0-1.3976-0.04794-2.1273-0.04794zm85.669 0.52622c2.5471 0 4.5507 2.1611 4.5507 5.6457l-5.9e-4 6.96e-4c0 4.4904-2.5183 5.0162-3.6043 5.0162-2.9824 0-4.7686-2.5645-4.7686-5.7959 0-3.872 2.0353-4.8665 3.8229-4.8665zm-63.687 0.2009c1.3278 0 1.929 1.3616 1.929 2.3915 0 0.75708-0.23195 1.3118-0.63396 1.6408-0.26247 0.23026-0.60081 0.28929-1.1096 0.28929-0.35401 0-0.58612-0.01229-0.7278-0.04488-0.06191-0.01428-0.1054-0.04678-0.1054-0.16861l-0.0013 6.97e-4 0.0013-3.815c0-0.16987 0.03086-0.23031 0.13904-0.25972 0.15142-0.03394 0.2922-0.03401 0.50853-0.03401zm11.931 2e-3c0.91935 0 2.3788 0.64315 2.3788 2.848 0 1.2727-0.45398 1.9867-0.91816 2.3292-0.27846 0.20243-0.48073 0.26719-1.1014 0.26719-0.39317 0-0.85541-0.04633-1.1822-0.15841-0.10917-0.04664-0.13869-0.10871-0.13869-0.27841l-3.4e-4 -0.0014v-4.7254c0-0.12132 0.0297-0.1849 0.13869-0.21484 0.15421-0.0496 0.43571-0.06593 0.82335-0.06593zm24.015 0c0.91498 0 2.3758 0.64315 2.3758 2.848 0 1.2727-0.45246 1.9867-0.91644 2.3292-0.28023 0.20243-0.48206 0.26719-1.1048 0.26719-0.38866 0-0.85219-0.04633-1.181-0.15841-0.10963-0.04664-0.14141-0.10871-0.14141-0.27841l3.5e-4 -0.0014v-4.7254c0-0.12132 0.0312-0.1849 0.14109-0.21484 0.15454-0.0496 0.43598-0.06593 0.82639-0.06593zm-11.832 2.1164c0.0478 0 0.062 0.07629 0.0762 0.14277l1.4018 3.837c0.0153 0.0464-3.3e-4 0.09333-0.0764 0.09348h-2.8609c-0.0609 0-0.077-0.04699-0.0611-0.10877l1.4297-3.8215c0.0129-0.06665 0.0437-0.14277 0.0907-0.14277zm-24.87 2.7811c0.23201 0 0.39189-1.75e-4 0.67033 0.0153 0.60377 0.03115 0.96586 0.14158 1.288 0.37359l-5.8e-4 6.96e-4c1.1835 0.825 1.5073 2.1285 1.509 3.0944 0 1.6139-1.1794 1.9876-1.8768 1.9876-0.36063 0-0.71576-0.01586-1.1343-0.18765-0.50212-0.20121-0.54559-0.46567-0.54559-1.4897v-3.6843c0-0.07918 0.03117-0.11014 0.09048-0.11014zm8.9559 10.263c-0.15143 0-0.1982 0.21928-0.1982 0.53064l-0.14312 9.2012c-0.0169 1.3521-0.0732 1.8047-0.48202 1.929-0.21948 0.06213-0.49823 0.07614-0.69891 0.07614-0.15561 0-0.24883 0.03133-0.24883 0.1234 0 0.14272 0.14037 0.15399 0.34401 0.15399 0.80599 0 1.5357-0.04352 1.6799-0.04352 0.29414 0 0.91638 0.04352 1.9279 0.04352 0.21199 0 0.35626-0.02972 0.35626-0.15399 0-0.09207-0.095-0.1234-0.26177-0.1234-0.25009 0-0.5488-0.01413-0.81042-0.10742-0.31103-0.11192-0.51186-0.51637-0.54457-1.7268l5e-3 6.97e-4 -0.17777-6.5303h0.0469c0.28125 0.29431 2.0084 2.2405 3.6958 3.9177 1.6194 1.5992 3.6119 3.6373 4.5892 4.5695 0.1683 0.16988 0.35643 0.34231 0.5303 0.34231 0.14009 0 0.19953-0.13869 0.19953-0.47965l0.17269-9.8107c0.0155-0.86904 0.13956-1.1966 0.57381-1.3199 0.18554-0.04351 0.31117-0.04351 0.46537-0.04351 0.18814 0 0.2801-0.04995 0.2801-0.14481 0-0.12602-0.15711-0.13699-0.35795-0.13699-0.75916 0-1.3493 0.04828-1.5202 0.04828-0.32685 0-1.0751-0.04828-1.884-0.04828-0.23322 0-0.40317 0.01114-0.40317 0.13699 0 0.09503 0.0621 0.14481 0.2502 0.14481 0.21529 0 0.58989-5e-5 0.82469 0.08905 0.3721 0.1556 0.50777 0.45374 0.52621 1.3999l0.15536 6.9783h-0.0792c-0.26312-0.24798-2.3589-2.4885-3.4184-3.5461-2.2668-2.2516-4.6314-4.7857-4.8168-4.9851-0.26281-0.28299-0.40575-0.4851-0.57822-0.4851zm-10.726 0.04521c-4.6629 0-6.4181 3.4355-6.4181 6.098l5.83e-4 2e-3c0 2.7465 1.8004 6.0916 6.2627 6.0899 3.9461 0 6.4333-2.8165 6.4333-6.3687 0-3.5654-2.4099-5.8211-6.2792-5.8211zm68.794 0c-2.1629 0-3.5898 1.2345-3.5898 2.9405 0 1.26 0.58708 2.3466 2.2981 3.6857l0.71728 0.55546c1.2929 0.9959 1.5212 1.7277 1.5212 2.4897 0 0.82292-0.68579 1.7738-2.0797 1.7738-0.967 0-1.8837-0.42162-2.2246-1.5702-0.081-0.26594-0.13732-0.59111-0.13732-0.7961 0-0.12618-0.0154-0.2621-0.15434-0.2621-0.12724 0-0.17278 0.1705-0.19105 0.4018-0.0143 0.25063-0.0775 1.1812-0.0775 2.0373 0 0.34184 0.0478 0.42229 0.29404 0.5269l-3.4e-4 6.97e-4c0.67007 0.29762 1.3681 0.40725 2.2731 0.40725 0.82292 0 1.6911-0.14202 2.4689-0.6384 1.1188-0.73205 1.4624-1.8061 1.4624-2.7069 0-1.4764-0.6858-2.5175-2.5514-3.9599l-0.43239-0.32668c-1.2929-0.98285-1.6507-1.523-1.6507-2.2401 0-0.935 0.70309-1.5984 1.8527-1.5984 1.0082 0 1.4582 0.46687 1.6916 0.75841 0.33033 0.40553 0.40452 0.88495 0.40452 1.0252 0 0.18919 0.0471 0.27942 0.15705 0.27942 0.12293 0 0.16997-0.11974 0.16997-0.46469 0-1.2095 0.0646-1.6605 0.0646-1.8642 0-0.10896-0.0788-0.15709-0.21894-0.18425-0.40395-0.11139-1.0592-0.2699-2.0674-0.2699zm10.523 0c-2.1665 0-3.5908 1.2345-3.5908 2.9405 0 1.26 0.58953 2.3466 2.2983 3.6857l0.71285 0.55546c1.292 0.9959 1.5274 1.7277 1.5274 2.4897 0 0.82292-0.68439 1.7738-2.0862 1.7738-0.96004 0-1.8806-0.42162-2.2217-1.5702-0.0779-0.26594-0.14005-0.59111-0.14005-0.7961 0-0.12618-0.0128-0.2621-0.15435-0.2621-0.1243 0-0.17122 0.1705-0.18969 0.4018-0.0167 0.25063-0.0734 1.1812-0.0734 2.0373 0 0.34184 0.0423 0.42229 0.29574 0.5269l3e-3 6.97e-4c0.66836 0.29762 1.3662 0.40725 2.2643 0.40725 0.82412 0 1.6915-0.14202 2.4697-0.6384 1.1212-0.73205 1.4621-1.8061 1.4621-2.7069 0-1.4764-0.68269-2.5175-2.5489-3.9599l-0.43507-0.32666c-1.2927-0.98285-1.6476-1.523-1.6476-2.2401 0-0.935 0.69998-1.5984 1.8512-1.5984 1.0055 0 1.4596 0.46687 1.6925 0.75841 0.32496 0.40553 0.40488 0.88494 0.40488 1.0252 0 0.18919 0.0454 0.27942 0.15534 0.27942 0.12206 0 0.17032-0.11974 0.17032-0.46469 0-1.2095 0.0632-1.6605 0.0632-1.8642 0-0.10896-0.0784-0.15709-0.21756-0.18425-0.40607-0.11139-1.056-0.2699-2.0664-0.2699zm-47.547 3.48e-4c-1.3052 0-2.6858 0.11181-4.1778 1.0123-1.4156 0.85459-2.7052 2.5967-2.7052 5.0854 0 4.288 3.3715 6.092 7.1818 6.092 1.2094 0 2.7337-0.17154 3.7424-0.6989 0.1893-0.11186 0.20465-0.14167 0.20465-0.56123h3e-3l-3e-3 -3.48e-4v-1.7113c0-0.77767 1.6e-4 -1.3969 0.0132-1.8626 0.0157-0.54163 0.17265-0.80751 0.59523-0.88825 0.18396-0.02994 0.29251-0.04623 0.41609-0.04623 0.11045 0 0.20361-0.03167 0.20361-0.1234 0-0.12305-0.10929-0.15705-0.31274-0.15705-0.51065 0-1.3335 0.04692-1.8176 0.04692-0.46349 0-1.4436-0.04692-2.2538-0.04692-0.21635 0-0.32975 0.03382-0.32975 0.15705 0 0.09172 0.0957 0.1234 0.23592 0.1234 0.21774 0 0.4822 0.0163 0.60544 0.04623 0.51622 0.11036 0.65246 0.36106 0.6693 0.88825 0.0143 0.46576 0.0143 1.0567 0.0143 1.8346v1.4593c0 0.26263-0.0583 0.46809-0.29166 0.57721-0.37595 0.16987-0.9193 0.16997-1.321 0.16997-3.2784 0-5.4125-2.5048-5.4125-5.847 0-1.9094 0.56284-3.0762 1.4297-3.8088 1.089-0.89826 2.2262-0.96035 3.08-0.96035 1.7522 0 3.0012 0.71671 3.4664 1.2118 0.40013 0.43582 0.48073 0.93063 0.52893 1.2912 0.0116 0.12322 0.0453 0.19954 0.15536 0.19954 0.12056 0 0.17167-0.07608 0.17167-0.32532 0-1.9433 0.10604-2.3772 0.10604-2.5485 0-0.10566-0.029-0.16971-0.21688-0.18798-0.35767-0.0141-0.90485-0.10505-1.2257-0.16997-0.31138-0.06213-1.6816-0.25155-2.7552-0.25155zm-45.061 2e-3c-2.3153 0-3.7931 0.62442-4.9102 1.649-1.4935 1.3673-1.8201 3.2019-1.8201 4.2594 0 1.5079 0.40575 3.2489 1.9275 4.5838v-1e-3c1.4157 1.2287 3.2019 1.6953 5.3313 1.697 0.9959 0 2.1752-0.1107 2.796-0.36237 0.26595-0.10443 0.33101-0.18225 0.40725-0.44838 0.15281-0.52753 0.33824-1.8796 0.33824-2.0692 0-0.11992-0.02706-0.23183-0.13598-0.23183-0.12584 0-0.15544 0.0651-0.20225 0.31138-0.06197 0.28125-0.26697 0.72913-0.52995 1.0276-0.621 0.71481-1.4596 0.87157-2.8442 0.87157-2.0817 0-4.8961-1.836-4.8961-5.5328 0-1.5078 0.30002-2.9869 1.4297-4.0309 0.68294-0.61647 1.5673-0.95997 2.9234-0.95997 1.4296 0 2.6402 0.42131 3.1549 0.95997 0.3862 0.40762 0.5901 0.95052 0.60576 1.4328 0 0.2179 0.03092 0.34402 0.15671 0.34402 0.13871 0 0.1696-0.12593 0.18527-0.35898 0.03251-0.3112 0.01717-1.1645 0.04695-1.6776 0.03251-0.54477 0.07919-0.73136 0.07919-0.85599 0-0.09329-0.06782-0.16954-0.23455-0.18798-0.46818-0.04794-0.96295-0.18818-1.5542-0.26285-0.7157-0.09484-1.2899-0.1567-2.2543-0.1567zm73.832 0.09791c-0.0766 0-0.17263 0.04383-0.24747 0.05948-0.12481 0.03115-0.37195 0.06321-0.66628 0.09314-0.29988 0.01845-3.3897 0.0187-3.8851 0.0187-0.43772 0-1.4169-0.04861-2.2384-0.04861-0.2348 0-0.34673 0.03013-0.34673 0.13733 0 0.10913 0.0965 0.14448 0.26617 0.14448 0.21738 0 0.48355 0.0124 0.60644 0.04352 0.51378 0.11052 0.6396 0.35645 0.66761 0.88419 0.03 0.49778 0.0302 0.93202 0.0302 3.2993l3e-3 3.5e-4h-3e-3v2.7321c0 1.4286 1.8e-4 2.6564-0.0738 3.3137-0.0647 0.44992-0.14582 0.79054-0.45111 0.85459-0.14167 0.02802-0.32834 0.06052-0.5619 0.06052-0.18745 3e-6 -0.24713 0.04561-0.24713 0.1234 0 0.11036 0.11034 0.15364 0.30968 0.15364 0.62238 0 1.6012-0.04352 1.96-0.04352 0.91529 0 1.9578 0.09349 4.3043 0.09349 0.59089 0 0.73066 1.06e-4 0.83964-0.40316 0.0791-0.3112 0.20023-1.3691 0.20023-1.7282 0-0.15577-3e-5 -0.27874-0.12131-0.27874-0.10755-4e-6 -0.1398 0.06235-0.17234 0.23082-0.10929 0.6391-0.29462 0.96687-0.6979 1.1507-0.40988 0.18815-1.0589 0.18832-1.4587 0.18832-1.5897 0-1.8389-0.23169-1.8698-1.304-0.0157-0.45391 0-1.8823 0-2.4112v-1.2271c0-0.09519 0.0165-0.15501 0.0918-0.15501 0.3742 0 1.912 0.01718 2.2092 0.04555 0.57243 0.06074 0.79033 0.29442 0.87125 0.60508 0.0446 0.20381 0.0446 0.4035 0.0619 0.56328 0 0.07328 0.0295 0.14006 0.13835 0.14006 0.14028 0 0.14039-0.17434 0.14039-0.29982 0-0.10774 0.0309-0.72698 0.0622-1.0368 0.0452-0.79193 0.12306-1.0449 0.12306-1.134 0-0.09486-0.045-0.12747-0.10778-0.12747-0.0778 0-0.14386 0.08042-0.24985 0.20225-0.13854 0.157-0.37317 0.19925-0.74649 0.2332-0.35367 0.03393-2.1406 0.034-2.4856 0.034-0.0919 3e-6 -0.10836-0.0678-0.10836-0.17676v-3.9307c0-0.10721 0.0309-0.15263 0.10836-0.15263 0.31015 0 1.9447 0.0309 2.2048 0.06187 0.7776 0.09051 0.93538 0.27623 1.0412 0.5575 0.0811 0.18501 0.0921 0.45112 0.0921 0.55851 0 0.13838 0.0348 0.21789 0.14377 0.21789 0.10755 0 0.14139-0.08866 0.15705-0.17099 0.0297-0.18501 0.061-0.86733 0.0748-1.0269 0.0479-0.71393 0.12714-0.89907 0.12714-1.011 0-0.07466-0.0164-0.13428-0.0958-0.13428zm-20.251 0.12272c-0.23305 0-0.34028 0.03013-0.34028 0.13733 0 0.10913 0.094 0.14448 0.26277 0.14448 0.21738 0 0.48356 0.01229 0.60645 0.04488 0.51536 0.10913 0.63617 0.35668 0.66766 0.88279 0.034 0.49778 0.034 0.93202 0.034 3.2993l-3e-3 3.49e-4h3e-3v2.7323c0 1.4286-5e-5 2.6558-0.0775 3.312-0.0653 0.45148-0.14194 0.79085-0.45279 0.85599-0.13838 0.02819-0.3256 0.06085-0.56022 0.06085-0.18503 0-0.24577 0.04525-0.24577 0.12306 0 0.11052 0.10615 0.15399 0.30798 0.15399 0.62101 0 1.6012-0.04351 1.8958-0.04351 0.23306 0 1.3826 0.04351 2.2853 0.04351 0.2019-3e-6 0.308-0.04365 0.308-0.15399 0-0.0778-0.0579-0.12306-0.18393-0.12306-0.18623 0-0.52874-0.03265-0.76176-0.06085-0.46245-0.06509-0.55772-0.40449-0.60577-0.85599-0.0762-0.65614-0.0762-1.8837-0.0762-3.3304v-0.2161c0-0.09189 0.0442-0.12 0.12443-0.12l1.3493 0.02823c0.10616 0 0.2063 0.0165 0.27975 0.11047 0.20294 0.23444 0.9198 1.285 1.5389 2.1423 0.87145 1.1963 1.4587 1.928 2.1314 2.2881 0.40293 0.21651 0.79205 0.29133 1.662 0.29133h1.4777c0.18797 0 0.29133-0.02939 0.29133-0.15364 0-0.07798-0.0578-0.1234-0.1822-0.1234-0.12344 0-0.26704-0.01419-0.43308-0.04657-0.23426-0.04839-0.87259-0.15436-1.7439-1.0596-0.91937-0.96422-1.9868-2.3466-3.3757-4.0844 1.574-1.2746 2.0532-2.3337 2.0532-3.4834 0-1.0397-0.62054-1.8315-1.0562-2.127-0.83876-0.57453-1.8809-0.6697-2.8596-0.6697-0.48071 0-1.6607 0.04861-2.1923 0.04861-0.32546 0-1.3057-0.04861-2.1287-0.04861zm-40.741 0.52668c2.546 0 4.5528 2.1613 4.5528 5.6429l5.7e-4 -0.0014c0 4.494-2.5131 5.0249-3.6061 5.0266-2.9842 0-4.7719-2.5698-4.7719-5.8003 0-3.8731 2.0368-4.8679 3.8242-4.8679zm44.77 0.20396c0.912 0 2.3741 0.63617 2.3741 2.8415 0 1.2742-0.44972 1.991-0.91479 2.332-0.28161 0.19928-0.47962 0.26277-1.1044 0.26277-0.3876 0-0.85852-0.04504-1.1755-0.15399-0.11428-0.04816-0.14386-0.10864-0.14414-0.2767v-4.7254c0-0.12479 0.0291-0.18667 0.14414-0.22062 0.14968-0.04385 0.42883-0.05948 0.82063-0.05948z" stroke-width=".17405"/><path d="m61.441 37.741c-3.4116 0-6.9764-1.1323-6.9764-1.1323s-5.08-1.5746-8.793-1.5746c-5.5892 0-9.4128 4.6102-9.4128 4.6102v-3.7404s3.665-4.3335 9.3989-4.3335c2.0828 0 4.7454 0.11336 9.1618 1.4472 4.4174 1.3358 6.7179 1.1705 6.7179 1.1705 5.0058 0 9.8874-1.7157 11.225-2.2257v-5.1287c-1.4273 0.4499-6.8129 2.0573-11.323 2.0573-3.4116 0-6.9764-1.1323-6.9764-1.1323s-5.0802-1.5737-8.793-1.5737c-5.5892 0-9.4128 4.6092-9.4128 4.6092v-3.7408s3.665-4.3325 9.3989-4.3325c2.0828 0 4.7454 0.11122 9.1618 1.4471 4.4174 1.3349 6.7179 1.1705 6.7179 1.1705 5.0059 0 9.8874-1.7167 11.225-2.2269v-5.6652s-6.1013 2.5084-11.408 2.5084c-5.3074 0-8.5435-2.5355-14.486-2.5355-5.9411 0-10.61 4.0138-10.61 4.0138s-4.6714-4.0138-10.612-4.0138c-5.9428 0-9.179 2.5355-14.484 2.5355-5.3047 0-11.41-2.5084-11.41-2.5084v58.826s5.517 2.3038 11.036 2.3038c4.4558 0 10.228-3.2442 14.251-2.9835 3.585 0.23451 5.6985 1.8751 7.3059 3.9337 0.3578 0.64441 1.0855 0.67864 1.0855 0.67864h5.6583s0.71735-0.0341 1.0842-0.67864c1.6077-2.0585 3.7202-3.699 7.304-3.9337 4.0239-0.26055 9.1492 2.9254 14.253 2.9835 5.6734 0.06517 11.033-2.3038 11.033-2.3038v-5.1934c-1.4273 0.45204-6.8129 2.0565-11.323 2.0565-3.4115 0-6.9764-1.1306-6.9764-1.1306s-5.08-1.5755-8.793-1.5755c-5.5892 0-9.4128 4.6104-9.4128 4.6104v-3.7402s3.665-4.3348 9.3989-4.3348c2.0828 0 4.7454 0.11349 9.1618 1.4485 4.4174 1.3358 6.7179 1.1705 6.7179 1.1705 5.0058 0 9.8874-1.7167 11.225-2.2269v-5.1306c-1.4273 0.45305-6.8129 2.0596-11.323 2.0596-3.4115 0-6.9764-1.1317-6.9764-1.1317s-5.08-1.5754-8.793-1.5754c-5.5892 0-9.4128 4.6089-9.4128 4.6089v-3.7402s3.665-4.3314 9.3989-4.3314c2.0828 0 4.7454 0.11222 9.1618 1.448 4.4174 1.3332 6.7179 1.1676 6.7179 1.1676 5.0059 0 9.8874-1.7147 11.225-2.2249v-5.1292c-1.4273 0.45204-6.8129 2.0575-11.323 2.0575-3.4115 0-6.9764-1.1294-6.9764-1.1294s-5.08-1.5765-8.793-1.5765c-5.5892 0-9.4128 4.6111-9.4128 4.6111v-3.742s3.665-4.3314 9.3989-4.3314c2.0828 0 4.7454 0.11323 9.1618 1.448 4.4174 1.3339 6.7179 1.1686 6.7179 1.1686 5.0059 0 9.8874-1.7176 11.225-2.2258v-5.1283c-1.4273 0.45104-6.8129 2.0586-11.323 2.0586-3.4115 0-6.9764-1.1336-6.9764-1.1336s-5.08-1.5746-8.793-1.5746c-5.5892 0-9.4128 4.6111-9.4128 4.6111v-3.742s3.665-4.3325 9.3989-4.3325c2.0828 0 4.7454 0.11323 9.1618 1.448 4.4174 1.3349 6.7179 1.1716 6.7179 1.1716 5.0058 0 9.8874-1.7188 11.225-2.227v-5.1289c-1.428 0.45166-6.8129 2.0596-11.323 2.0596" stroke-width=".12581"/><path d="m61.441 37.741c-3.4116 0-6.9764-1.1323-6.9764-1.1323s-5.08-1.5746-8.793-1.5746c-5.5892 0-9.4128 4.6102-9.4128 4.6102v-3.7404s3.665-4.3335 9.3989-4.3335c2.0828 0 4.7454 0.11336 9.1618 1.4472 4.4174 1.3358 6.7179 1.1705 6.7179 1.1705 5.0058 0 9.8874-1.7157 11.225-2.2257v-5.1287c-1.4273 0.4499-6.8129 2.0573-11.323 2.0573-3.4116 0-6.9764-1.1323-6.9764-1.1323s-5.0802-1.5737-8.793-1.5737c-5.5892 0-9.4128 4.6092-9.4128 4.6092v-3.7408s3.665-4.3325 9.3989-4.3325c2.0828 0 4.7454 0.11122 9.1618 1.4471 4.4174 1.3349 6.7179 1.1705 6.7179 1.1705 5.0059 0 9.8874-1.7167 11.225-2.2269v-5.6652s-6.1013 2.5084-11.408 2.5084c-5.3074 0-8.5435-2.5355-14.486-2.5355-5.9411 0-10.61 4.0138-10.61 4.0138s-4.6714-4.0138-10.612-4.0138c-5.9428 0-9.179 2.5355-14.484 2.5355-5.3047 0-11.41-2.5084-11.41-2.5084v58.826s5.517 2.3038 11.036 2.3038c4.4558 0 10.228-3.2442 14.251-2.9835 3.585 0.23451 5.6985 1.8751 7.3059 3.9337 0.3578 0.64441 1.0855 0.67864 1.0855 0.67864h5.6583s0.71735-0.0341 1.0842-0.67864c1.6077-2.0585 3.7202-3.699 7.304-3.9337 4.0239-0.26055 9.1492 2.9254 14.253 2.9835 5.6734 0.06517 11.033-2.3038 11.033-2.3038v-5.1934c-1.4273 0.45204-6.8129 2.0565-11.323 2.0565-3.4115 0-6.9764-1.1306-6.9764-1.1306s-5.08-1.5755-8.793-1.5755c-5.5892 0-9.4128 4.6104-9.4128 4.6104v-3.7402s3.665-4.3348 9.3989-4.3348c2.0828 0 4.7454 0.11349 9.1618 1.4485 4.4174 1.3358 6.7179 1.1705 6.7179 1.1705 5.0058 0 9.8874-1.7167 11.225-2.2269v-5.1306c-1.4273 0.45305-6.8129 2.0596-11.323 2.0596-3.4115 0-6.9764-1.1317-6.9764-1.1317s-5.08-1.5754-8.793-1.5754c-5.5892 0-9.4128 4.6089-9.4128 4.6089v-3.7402s3.665-4.3314 9.3989-4.3314c2.0828 0 4.7454 0.11222 9.1618 1.448 4.4174 1.3332 6.7179 1.1676 6.7179 1.1676 5.0059 0 9.8874-1.7147 11.225-2.2249v-5.1292c-1.4273 0.45204-6.8129 2.0575-11.323 2.0575-3.4115 0-6.9764-1.1294-6.9764-1.1294s-5.08-1.5765-8.793-1.5765c-5.5892 0-9.4128 4.6111-9.4128 4.6111v-3.742s3.665-4.3314 9.3989-4.3314c2.0828 0 4.7454 0.11323 9.1618 1.448 4.4174 1.3339 6.7179 1.1686 6.7179 1.1686 5.0059 0 9.8874-1.7176 11.225-2.2258v-5.1283c-1.4273 0.45104-6.8129 2.0586-11.323 2.0586-3.4115 0-6.9764-1.1336-6.9764-1.1336s-5.08-1.5746-8.793-1.5746c-5.5892 0-9.4128 4.6111-9.4128 4.6111v-3.742s3.665-4.3325 9.3989-4.3325c2.0828 0 4.7454 0.11323 9.1618 1.448 4.4174 1.3349 6.7179 1.1716 6.7179 1.1716 5.0058 0 9.8874-1.7188 11.225-2.227v-5.1289c-1.428 0.45166-6.8129 2.0596-11.323 2.0596z" fill="#006eab" stroke="#fff" stroke-width=".48583"/></svg>