<svg xmlns="http://www.w3.org/2000/svg" width="654" height="224" viewBox="0 0 654 224" style="background-color:#FFFACD;"><text x="29.617" y="95.255" style="-inkscape-font-specification:Serif" font-size="25" font-weight="400" font-family="Serif"><tspan x="29.617" y="95.255">F</tspan></text><text x="74.043" y="31.487" style="-inkscape-font-specification:Serif" font-size="25" font-weight="400" font-family="Serif"><tspan x="74.043" y="31.487">0.1</tspan></text><text x="126.025" y="86.189" style="-inkscape-font-specification:Serif" font-size="25" font-weight="400" font-family="Serif"><tspan x="126.025" y="86.189">0.2</tspan></text><text x="271.392" y="168.694" style="-inkscape-font-specification:Serif" font-size="25" font-weight="400" font-family="Serif"><tspan x="271.392" y="168.694">0.5</tspan></text><text x="493.22" y="140.89" style="-inkscape-font-specification:Serif" font-size="25" font-weight="400" font-family="Serif"><tspan x="493.22" y="140.89">0.3</tspan></text><text x="553.664" y="196.498" style="-inkscape-font-specification:Serif" font-size="25" font-weight="400" font-family="Serif"><tspan x="553.664" y="196.498">0.4</tspan></text><path d="M118 39.5H57.613l-.113 138h303.65" style="marker:none;-inkscape-font-specification:Serif" font-weight="400" color="#000" fill="none" stroke="#000" overflow="visible" font-family="Serif"/><path d="M57.723 94.5h121.191" style="marker:none;-inkscape-font-specification:Serif" font-weight="400" color="#000" fill="none" stroke="#000" stroke-width=".999" overflow="visible" font-family="Serif"/><path d="M542.18 149.5H362v55h241.832" style="marker:none;-inkscape-font-specification:Serif" font-weight="400" color="#000" fill="none" stroke="#000" overflow="visible" font-family="Serif"/><path d="M124 39a6 6 0 11-12 0 6 6 0 1112 0zM185 94a6 6 0 11-12 0 6 6 0 1112 0zM368 177a6 6 0 11-12 0 6 6 0 1112 0zM551 149a6 6 0 11-12 0 6 6 0 1112 0zM612 204a6 6 0 11-12 0 6 6 0 1112 0z" style="-inkscape-font-specification:Serif" font-weight="400" font-family="Serif"/><text x="129.803" y="48.26" style="-inkscape-font-specification:Serif" font-size="25" font-weight="400" font-family="Serif"><tspan x="129.803" y="48.26">A</tspan></text><text x="189.189" y="103.113" style="-inkscape-font-specification:Serif" font-size="25" font-weight="400" font-family="Serif"><tspan x="189.189" y="103.113">B</tspan></text><text x="335.16" y="168.694" style="-inkscape-font-specification:Serif" font-size="25" font-weight="400" font-family="Serif"><tspan x="335.16" y="168.694">E</tspan></text><text x="555.779" y="157.814" style="-inkscape-font-specification:Serif" font-size="25" font-weight="400" font-family="Serif"><tspan x="555.779" y="157.814">C</tspan></text><text x="616.676" y="212.818" style="-inkscape-font-specification:Serif" font-size="25" font-weight="400" font-family="Serif"><tspan x="616.676" y="212.818">D</tspan></text></svg>