<svg xmlns="http://www.w3.org/2000/svg" viewBox="0 0 11 16">
<defs>
<style>
@import url('https://fonts.googleapis.com/css2?family=Asap');
@import url('https://fonts.googleapis.com/css2?family=Nunito:wght@700');
</style>
</defs>
<g fill-rule="evenodd"><path d="M6.925 8.504a2 2 0 103.464-.01C9.526 7 9.526 5 10.39 3.506a2 2 0 10-3.464-.01c.87 1.504.87 3.504 0 5.008z" fill="#ffd42a"/><path d="M4.72 6.764a4.315 4.315 0 00-.214.33c-.07.12-.154.233-.246.34.786.149 1.803.735 2.326 1.343.045-.13.097-.256.165-.373a4.4 4.4 0 00.185-.362c-.755-.164-1.697-.708-2.215-1.278z" fill="#00f"/><path d="M6.495 2.12C5.554 3.27 4.076 4 2.593 4a2 2 0 101.741 2.994c.619-1.072 1.687-1.888 2.878-2.264a4.843 4.843 0 00-.193-.584 4.491 4.491 0 00-.268-.55 2.157 2.157 0 01-.29-1.076L6.46 2.5a2.031 2.031 0 01.033-.364l.002-.016z" fill="#f60"/></g><g style="line-height:1000%;-inkscape-font-specification:'Nunito Extra-Bold'"><text transform="translate(-159.97 -141.1) scale(1.175)" y="133.256" x="136.79" style="line-height:1000%;-inkscape-font-specification:'Helvetica Bold'" font-weight="700" font-size="1.764" font-family="Helvetica" fill="#ffd42a" stroke-width=".265" aria-label="SHEX" letter-spacing="0" word-spacing="0"><tspan style="-inkscape-font-specification:'Asap Bold'" y="133.256" x="136.79" font-size="4.233" font-family="Asap"><tspan fill="#f60">S</tspan><tspan font-size="2.822" fill="#666">H</tspan>E<tspan font-size="2.822" fill="#666">X</tspan></tspan></text></g></svg>