<svg xmlns="http://www.w3.org/2000/svg" viewBox="0 0 300 300">
<defs><clipPath id="a" clipPathUnits="userSpaceOnUse"><path d="M44.022 644.528h60.709v59.882H44.022v-59.882z"/></clipPath></defs>
<g clip-path="url(#a)" transform="matrix(6.32668 0 0 -6.32668 -322.097 4409.795)">
<path d="M90.29 657.528c-.069-.064-.135-.131-.135-.131-3.406-3.32-7.888-5.512-12.62-6.173 0 0-.265-.03-.492-.058l.522.342a24.492 24.492 0 015.9 5.988l.022.032h6.802zm-8.178 0l-.09-.121a25.05 25.05 0 00-5.65-5.454s-.907-.597-1.228-.806v6.38h6.968zm-8.012 0v-6.381l-1.228.806a25.07 25.07 0 00-5.649 5.454l-.09.12H74.1zm-8.343 0l.023-.032c1.53-2.228 3.517-4.251 5.903-6.012.002 0 .233-.15.434-.278l-.457.062a22.112 22.112 0 00-12.57 6.129s-.067.067-.134.13h6.801zm29.63 7.777a22.228 22.228 0 00-4.021-6.631l-.023-.026h-7.135l.067.115a20.963 20.963 0 012.542 6.542h8.57zm-9.71 0c-.012-.045-.022-.092-.022-.092-.496-2.281-1.42-4.477-2.747-6.531l-.022-.034h-7.742v6.657h10.532zm-11.577 0v-6.657h-7.742c-.01.018-.022.034-.022.034-1.326 2.054-2.25 4.25-2.746 6.53l-.02.093H74.1zm-11.673 0a20.938 20.938 0 012.542-6.542l.068-.115h-7.135c-.01.013-.023.026-.023.026a22.186 22.186 0 00-3.98 6.528l-.042.103h8.57zm33.361 14.923a22.338 22.338 0 001.105-6.917 22.291 22.291 0 00-1.1-6.9l-.016-.052H53.464l-.017.053a22.32 22.32 0 00-1.099 6.899 22.347 22.347 0 001.105 6.917h42.335zm-4.445 7.778l.023-.026a22.206 22.206 0 003.981-6.527l.04-.104h-8.57l-.013.06a20.968 20.968 0 01-2.529 6.482l-.067.115h7.135zm-8.457 0l.022-.035c1.327-2.052 2.251-4.25 2.747-6.53l.021-.092H75.144v6.657h7.742zm-8.786 0v-6.657H63.57l.02.092c.496 2.28 1.42 4.478 2.746 6.53l.022.035H74.1zm-9.063 0a20.943 20.943 0 01-2.597-6.597l-.013-.06h-8.57l.041.104a22.206 22.206 0 004.004 6.553h7.135zm18.428 1.152c-1.53 2.228-3.516 4.25-5.903 6.012-.003 0-.234.149-.434.278l.457-.062a22.092 22.092 0 0012.57-6.13l.134-.13h-6.802l-.022.032m-8.32 6.348l1.23-.806a25.101 25.101 0 005.647-5.453l.09-.121h-6.968v6.38zm-7.922-6.26a25.123 25.123 0 005.65 5.456l1.227.804v-6.38h-6.968l.091.12m-8.134.01c3.406 3.32 7.888 5.513 12.62 6.173l.493.059-.52-.341a24.485 24.485 0 01-5.902-5.99l-.023-.031h-6.8l.132.13m15.378 7.444c-12.815-.083-23.24-10.576-23.24-23.39 0-12.898 10.494-23.395 23.393-23.396 12.898 0 23.393 10.498 23.393 23.397 0 12.813-10.425 23.306-23.24 23.389h-.306z" fill="blue"/><path d="M79.114 678.073c-.479-.157-.608-.75-.92-1.775l-1.704-5.911c-.329-1.178-.322-1.528-.13-1.781l.001-.116h-2.85v.116c.448.222.54.54.891 1.7l1.704 5.888c.324 1.15.403 1.572.158 1.875v.115h2.848l.002-.111zM54.885 670.959c.175-1.381.91-2.068 2.494-1.973 1.108.066 1.67.856 1.674 1.696.005.693-.423 1.278-1.205 1.834l-.46.304c-.968.679-1.834 1.398-1.826 2.622.011 1.74 1.432 2.836 3.328 2.92a6.508 6.508 0 001.781-.189c.278-.072.653-.196.807-.247l-.447-1.698-.127-.002c-.243 1.04-.689 1.622-2.124 1.506-1.009-.082-1.485-.892-1.489-1.585-.005-.722.424-1.175 1.237-1.699l.461-.289c1.06-.69 1.966-1.419 1.958-2.708-.013-1.93-1.526-3.143-3.749-3.145-1.28 0-2.466.43-2.91.824.02.178.265 1 .476 1.823l.121.006zM87.472 678.185c-.131-.383-.366-1.12-.554-1.704h-.115c-.454 1.18-1.55 1.025-2.326 1.025l-.082.002c-.537 0-.685-.123-.822-.624l-.865-3.142h.29c1.318 0 2.238-.12 2.614.394h.116l-.503-1.775h-.114c-.247.788-1.175.703-2.333.705h-.275l-.777-2.674c-.285-.998-.38-1.51-.132-1.778v-.126l-2.852-.005v.12c.497.193.598.64.929 1.756l1.713 5.94c.313 1.08.373 1.462.132 1.771l-.003.115h5.959zM95.283 678.185c-.19-.551-.355-1.094-.564-1.704H94.6c-.438 1.167-1.618 1.027-2.132 1.027h-.124l-2.055-7.13c-.274-1.056-.386-1.5-.126-1.77l-.002-.12h-2.787l-.003.12c.485.23.597.715.909 1.787l2.063 7.113h-.204c-.67 0-1.731.103-2.51-1.027h-.13c.177.494.369 1.096.58 1.704h7.203zM74.893 678.066c-.413-.292-.652-.778-1.152-1.711-.844-1.572-3.806-7.438-4.03-7.87h-1.069l-.59 6.112h-.048l-3.314-6.112h-.884l-.815 7.807c-.1.916-.153 1.514-.457 1.783l.003.11h2.758v-.11c-.336-.361-.419-.752-.34-1.665l.461-4.642h.03l3.458 6.332h.777l.6-6.345h.038a624.221 624.221 0 012.462 4.775c.577 1.133.352 1.39.275 1.536v.122l1.84-.004-.003-.118z" fill="blue"/>
</g>
</svg>