<svg xmlns="http://www.w3.org/2000/svg" version="1.0" viewBox="0 0 36 14"><path d="M35.998 14l-1.003-.979-.02-12.026 1.023-.987V14z" fill="#803300" fill-rule="evenodd"/><path fill="#f60" d="M.987.995h34.008v12.03H.987z"/><path d="M0 0l36.001.004-1.018.987-33.984.012L0 0z" fill="#fca" fill-rule="evenodd"/><path d="M.004 14l35.997.004-1.007-.987H.987L.004 14z" fill="#520" fill-rule="evenodd"/><path d="M.995 13.009l-.995.99V0l.991.991.004 12.018z" fill="#f95" fill-rule="evenodd"/><g font-size="12" font-weight="800" font-family="Arial Black"><path d="M4.817 3.867h2.924L9.264 6.51l1.477-2.643h2.894l-2.672 4.16 2.924 4.43h-2.982l-1.693-2.76-1.7 2.76H4.547l2.965-4.476-2.695-4.114zm9.89 0H18.2l1.347 5.227 1.342-5.227h3.48v8.59h-2.167v-6.55l-1.682 6.55h-1.963l-1.676-6.55v6.55h-2.173v-8.59zm11.35 0h2.655v6.475h4.142v2.115h-6.797v-8.59z" style="text-align:start;line-height:125%" fill="#803300"/><path d="M4.242 2.94h2.924L8.69 5.581l1.476-2.643h2.895L10.389 7.1l2.924 4.43H10.33L8.637 8.77l-1.7 2.76H3.974l2.965-4.476-2.696-4.114zm9.891 0h3.492l1.348 5.226 1.342-5.227h3.48v8.59h-2.168V4.98l-1.681 6.55h-1.963l-1.676-6.55v6.55h-2.174V2.94zm11.35 0h2.654v6.474h4.143v2.115h-6.797V2.94z" style="text-align:start;line-height:125%" fill="#fff"/></g></svg>