<svg id="Layer_1" data-name="Layer 1" xmlns="http://www.w3.org/2000/svg" viewBox="0 0 144 144"><defs><style>.cls-1{fill:#31e981;}.cls-2{fill:#35605a;}</style></defs><path class="cls-1" d="M65.45,134.87a6.1,6.1,0,0,1-3.27-11.25c1-.63,22.92-15.28,6.76-48C48.42,34,69.67,12.08,70.59,11.17a6.1,6.1,0,1,1,8.62,8.62c-.61.64-15.8,17.08.66,50.43C101,113.11,69,133.74,68.67,133.94A6.06,6.06,0,0,1,65.45,134.87Z"/><path class="cls-1" d="M100.7,85.11q-.74,0-1.47,0a6.09,6.09,0,1,1,.42-12.18,31.09,31.09,0,0,0,32.08-33.31,6.1,6.1,0,1,1,12.16-.87A43.28,43.28,0,0,1,100.7,85.11Z"/><path class="cls-1" d="M127,71.51a3.38,3.38,0,0,1-2.4-1L98.93,44.82A3.39,3.39,0,1,1,103.72,40l25.69,25.7A3.39,3.39,0,0,1,127,71.51Z"/><path class="cls-2" d="M94.34,54a13.52,13.52,0,0,1,2.49-24.36h0a4.59,4.59,0,0,0,1.66-2A4.45,4.45,0,0,0,97,22.17h0a7.56,7.56,0,1,1,9.38.31h0a4.2,4.2,0,0,0-1.57,1.83,4.53,4.53,0,0,0,1.44,5.52h0a13.18,13.18,0,0,1,2.07,1A13.53,13.53,0,1,1,94.34,54Z"/><path class="cls-1" d="M6.18,111.45a6.1,6.1,0,0,1-6.07-5.66A43.29,43.29,0,0,1,44.77,59.42a6.1,6.1,0,0,1-.42,12.19,30.72,30.72,0,0,0-23,9.08,31,31,0,0,0-9,24.22,6.1,6.1,0,0,1-5.64,6.52Z"/><path class="cls-1" d="M42.18,105a3.38,3.38,0,0,1-2.4-1L14.59,78.78A3.39,3.39,0,1,1,19.38,74L44.57,99.18A3.39,3.39,0,0,1,42.18,105Z"/><path class="cls-2" d="M35.21,90a13.53,13.53,0,0,0,2.48,24.36h0a4.68,4.68,0,0,1,1.67,2,4.46,4.46,0,0,1-1.54,5.52h0a7.56,7.56,0,1,0,9.38-.31h0a4.27,4.27,0,0,1-1.57-1.83,4.52,4.52,0,0,1,1.45-5.52h0A13.53,13.53,0,1,0,35.21,90Z"/></svg>