<svg id="Layer_1" data-name="Layer 1" xmlns="http://www.w3.org/2000/svg" viewBox="0 0 16 16"><defs><style>.cls-1{fill:#31e981;}.cls-2{fill:#35605a;}</style></defs><path class="cls-1" d="M7.27,15a.69.69,0,0,1-.57-.32.67.67,0,0,1,.21-.93C7,13.67,9.46,12,7.66,8.4c-2.28-4.62.08-7.06.18-7.16a.69.69,0,0,1,1,0,.67.67,0,0,1,0,1c-.07.07-1.75,1.9.07,5.6,2.36,4.77-1.2,7.06-1.24,7.08A.69.69,0,0,1,7.27,15Z"/><path class="cls-1" d="M11.19,9.46H11a.67.67,0,0,1-.66-.7.69.69,0,0,1,.7-.65,3.47,3.47,0,0,0,3.57-3.7.68.68,0,0,1,.62-.73A.69.69,0,0,1,16,4.3a4.82,4.82,0,0,1-4.8,5.16Z"/><path class="cls-1" d="M14.11,8a.38.38,0,0,1-.26-.11L11,5a.37.37,0,1,1,.53-.53L14.38,7.3a.38.38,0,0,1,0,.54A.39.39,0,0,1,14.11,8Z"/><path class="cls-2" d="M10.48,6a1.5,1.5,0,0,1,.28-2.7h0a.49.49,0,0,0,.18-.22.5.5,0,0,0-.17-.62h0A.84.84,0,1,1,12,2.26a1,1,0,0,1-.21.24h0a.44.44,0,0,0-.18.2.49.49,0,0,0,.16.61h0a1,1,0,0,1,.23.11A1.5,1.5,0,1,1,10.48,6Z"/><path class="cls-1" d="M.69,12.38A.69.69,0,0,1,0,11.75,4.8,4.8,0,0,1,1.41,8,4.85,4.85,0,0,1,5,6.6.68.68,0,0,1,4.93,8,3.36,3.36,0,0,0,2.37,9a3.45,3.45,0,0,0-1,2.69.67.67,0,0,1-.62.72Z"/><path class="cls-1" d="M4.69,11.66a.35.35,0,0,1-.27-.11l-2.8-2.8a.37.37,0,1,1,.53-.53L5,11a.37.37,0,0,1,0,.53A.34.34,0,0,1,4.69,11.66Z"/><path class="cls-2" d="M3.91,10a1.5,1.5,0,0,0,.28,2.7h0a.49.49,0,0,1,.18.22.5.5,0,0,1-.17.62h0a.84.84,0,1,0,1.26.2,1,1,0,0,0-.22-.24h0a.48.48,0,0,1-.17-.2.49.49,0,0,1,.16-.61h0a1,1,0,0,0,.23-.11A1.5,1.5,0,1,0,3.91,10Z"/></svg>