<svg id="Layer_1" data-name="Layer 1" xmlns="http://www.w3.org/2000/svg" viewBox="0 0 57 57"><defs><style>.cls-1{fill:#31e981;}.cls-2{fill:#35605a;}</style></defs><path class="cls-1" d="M25.91,53.39a2.42,2.42,0,0,1-1.3-4.46c.4-.25,9.07-6,2.68-19-8.12-16.45.29-25.15.65-25.51a2.41,2.41,0,1,1,3.41,3.41c-.24.26-6.25,6.77.27,20C40,44.77,27.31,52.94,27.18,53A2.39,2.39,0,0,1,25.91,53.39Z"/><path class="cls-1" d="M39.86,33.69h-.58a2.41,2.41,0,1,1,.17-4.82A12.31,12.31,0,0,0,52.14,15.67,2.42,2.42,0,0,1,57,15.33a17.14,17.14,0,0,1-17.1,18.36Z"/><path class="cls-1" d="M50.28,28.31a1.34,1.34,0,0,1-1-.4L39.16,17.74a1.34,1.34,0,0,1,0-1.89,1.32,1.32,0,0,1,1.89,0L51.22,26a1.32,1.32,0,0,1,0,1.89A1.34,1.34,0,0,1,50.28,28.31Z"/><path class="cls-2" d="M37.34,21.39a5.35,5.35,0,0,1,1-9.64h0A1.9,1.9,0,0,0,39,11a1.76,1.76,0,0,0-.61-2.18h0A3,3,0,1,1,42.87,8a3.06,3.06,0,0,1-.78.86h0a1.74,1.74,0,0,0-.62.72A1.81,1.81,0,0,0,42,11.81h0a5.18,5.18,0,0,1,.82.4,5.36,5.36,0,0,1-5.52,9.18Z"/><path class="cls-1" d="M2.45,44.11A2.42,2.42,0,0,1,0,41.87,17.14,17.14,0,0,1,17.72,23.52a2.41,2.41,0,1,1-.17,4.82A12.31,12.31,0,0,0,4.86,41.53a2.42,2.42,0,0,1-2.24,2.58Z"/><path class="cls-1" d="M16.69,41.55a1.3,1.3,0,0,1-.94-.4l-10-10a1.34,1.34,0,1,1,1.89-1.89l10,10a1.32,1.32,0,0,1,0,1.89A1.3,1.3,0,0,1,16.69,41.55Z"/><path class="cls-2" d="M13.94,35.61a5.35,5.35,0,0,0,1,9.64h0a1.9,1.9,0,0,1,.66.79A1.75,1.75,0,0,1,15,48.22h0a3,3,0,1,0,4.49.73,3.06,3.06,0,0,0-.78-.86h0a1.74,1.74,0,0,1-.62-.72,1.81,1.81,0,0,1,.57-2.19h0a5.18,5.18,0,0,0,.82-.4,5.35,5.35,0,1,0-5.51-9.18Z"/></svg>