<svg id="Layer_1" data-name="Layer 1" xmlns="http://www.w3.org/2000/svg" viewBox="0 0 76 76"><defs><style>.cls-1{fill:#31e981;}.cls-2{fill:#35605a;}</style></defs><path class="cls-1" d="M34.54,71.18a3.22,3.22,0,0,1-1.72-5.94c.52-.33,12.09-8.06,3.57-25.33-10.83-21.94.38-33.53.87-34a3.21,3.21,0,0,1,4.54,4.55c-.32.34-8.33,9,.36,26.62,11.17,22.63-5.75,33.53-5.92,33.63A3.21,3.21,0,0,1,34.54,71.18Z"/><path class="cls-1" d="M53.15,44.92l-.78,0a3.22,3.22,0,0,1,.22-6.43,16.23,16.23,0,0,0,12.17-4.79,16.41,16.41,0,0,0,4.76-12.79,3.22,3.22,0,0,1,6.42-.46A22.84,22.84,0,0,1,53.15,44.92Z"/><path class="cls-1" d="M67,37.74a1.79,1.79,0,0,1-1.27-.52L52.21,23.66a1.79,1.79,0,0,1,2.53-2.53L68.3,34.69A1.79,1.79,0,0,1,67,37.74Z"/><path class="cls-2" d="M49.79,28.52a7.14,7.14,0,0,1,1.32-12.86h0A2.38,2.38,0,0,0,52,14.61a2.34,2.34,0,0,0-.81-2.91h0a4,4,0,1,1,6-1,3.93,3.93,0,0,1-1,1.14h0a2.23,2.23,0,0,0-.83,1,2.38,2.38,0,0,0,.77,2.91h0a7.82,7.82,0,0,1,1.09.53,7.14,7.14,0,0,1-7.36,12.24Z"/><path class="cls-1" d="M3.26,58.82a3.21,3.21,0,0,1-3.2-3A22.84,22.84,0,0,1,23.63,31.36a3.22,3.22,0,0,1-.22,6.43A16.41,16.41,0,0,0,6.48,55.37a3.23,3.23,0,0,1-3,3.44Z"/><path class="cls-1" d="M22.26,55.4A1.76,1.76,0,0,1,21,54.87L7.7,41.58a1.79,1.79,0,0,1,2.53-2.53L23.52,52.34a1.8,1.8,0,0,1-1.26,3.06Z"/><path class="cls-2" d="M18.58,47.48a7.15,7.15,0,0,0,1.31,12.86h0a2.46,2.46,0,0,1,.88,1A2.34,2.34,0,0,1,20,64.3h0a4,4,0,1,0,6,1,3.93,3.93,0,0,0-1-1.14h0a2.23,2.23,0,0,1-.83-1,2.38,2.38,0,0,1,.77-2.91h0a8.4,8.4,0,0,0,1.09-.53,7.14,7.14,0,0,0-7.36-12.24Z"/></svg>