<svg id="Layer_1" data-name="Layer 1" xmlns="http://www.w3.org/2000/svg" viewBox="0 0 96 96"><defs><style>.cls-1{fill:#31e981;}.cls-2{fill:#35605a;}</style></defs><path class="cls-1" d="M43.63,89.91a4.06,4.06,0,0,1-2.17-7.5c.65-.42,15.27-10.18,4.5-32-13.68-27.71.49-42.35,1.1-43a4.06,4.06,0,0,1,5.75,5.74c-.41.43-10.53,11.39.44,33.62C67.36,75.4,46,89.16,45.78,89.3A4.1,4.1,0,0,1,43.63,89.91Z"/><path class="cls-1" d="M67.13,56.74l-1,0a4.06,4.06,0,1,1,.27-8.12A20.49,20.49,0,0,0,81.8,42.54a20.71,20.71,0,0,0,6-16.15,4.07,4.07,0,0,1,8.11-.58,28.86,28.86,0,0,1-28.8,30.93Z"/><path class="cls-1" d="M84.68,47.67a2.26,2.26,0,0,1-1.6-.66L66,29.88a2.26,2.26,0,0,1,3.19-3.19L86.27,43.82a2.26,2.26,0,0,1-1.59,3.85Z"/><path class="cls-2" d="M62.9,36a9,9,0,0,1,1.65-16.24h0a3.07,3.07,0,0,0,1.11-1.32,3,3,0,0,0-1-3.68h0a5,5,0,1,1,7.56-1.23A4.9,4.9,0,0,1,70.89,15h0a2.83,2.83,0,0,0-1,1.22,3,3,0,0,0,1,3.68h0a9.67,9.67,0,0,1,1.38.66A9,9,0,0,1,62.9,36Z"/><path class="cls-1" d="M4.12,74.3a4.08,4.08,0,0,1-4-3.77A28.87,28.87,0,0,1,29.84,39.61a4.07,4.07,0,1,1-.27,8.13A20.72,20.72,0,0,0,8.18,69.94a4.07,4.07,0,0,1-3.76,4.35Z"/><path class="cls-1" d="M28.12,70a2.26,2.26,0,0,1-1.6-.66L9.73,52.52a2.26,2.26,0,1,1,3.19-3.19L29.71,66.12A2.26,2.26,0,0,1,28.12,70Z"/><path class="cls-2" d="M23.47,60a9,9,0,0,0,1.66,16.24h0a3.07,3.07,0,0,1,1.11,1.32,3,3,0,0,1-1,3.68h0A5,5,0,1,0,31.47,81h0a2.85,2.85,0,0,1-1-1.22,3,3,0,0,1,1-3.68h0a9.18,9.18,0,0,0,1.38-.66A9,9,0,0,0,23.47,60Z"/></svg>