<svg xmlns="http://www.w3.org/2000/svg" viewBox="0 0 735 180" color-interpolation-filters="sRGB" fill="none" fill-rule="evenodd" font-size="12" overflow="visible" stroke-linecap="square" stroke-miterlimit="3"><style>.st7{font-size:1em}</style><g id="group7-1" transform="translate(6.12 -6.106)"><g id="group1-2"><g id="shape2-3" transform="translate(29.64 -8.881)"><path fill="#1f64ff" stroke="#000" stroke-linecap="round" stroke-linejoin="round" stroke-width=".72" d="M0 160.916h22.498v19.189H0z"/></g><g id="shape3-5" transform="translate(26.993 -50.569)"><path fill="#f9c499" stroke="#000" stroke-linecap="round" stroke-linejoin="round" stroke-width=".72" d="M0 76.88h103.226v103.226H0z"/></g><g id="shape4-7"><path d="M19.68 167.33h5.1v9.54c0 1.11.6 2.14 1.57 2.69.97.55 2.16.53 3.12-.06l11.9-7.24 12.1 7.38a3.117 3.117 0 003.12.06c.97-.55 1.57-1.58 1.57-2.69v-9.68h60.25c10.86 0 19.69-8.83 19.69-19.68V37.79c0-10.85-8.83-19.68-19.69-19.68H19.68C8.83 18.11 0 26.94 0 37.79v109.86c0 10.85 8.83 19.68 19.68 19.68zm32.31 4.18l-9.01-5.49c-.98-.6-2.22-.61-3.21-.01l-8.83 5.38v-18.61h21.05v18.73zm66.42-12.4H58.16v-6.33h61.35c3.75 0 7.24-1.13 10.16-3.05-.98 5.33-5.65 9.38-11.26 9.38zM27.86 26.33h90.55c6.32 0 11.46 5.14 11.46 11.46v79.63c0 5.71-4.65 10.36-10.36 10.36H27.86V26.33zM8.23 37.79c0-6.3 5.11-11.43 11.41-11.46v101.45h-1.05c-3.84 0-7.4 1.16-10.36 3.16V37.79zm0 108.57c0-5.71 4.64-10.36 10.36-10.36h100.92c3.83 0 7.4-1.17 10.36-3.16v1.35c0 5.72-4.65 10.36-10.36 10.36H18.59a4.12 4.12 0 00-4.12 4.12c0 2.27 1.85 4.11 4.12 4.11h6.19v6.33h-5.1c-6.31 0-11.45-5.14-11.45-11.46v-1.29z" fill="#000" stroke-linecap="butt" stroke-width="6.12"/></g><g id="shape5-9" transform="translate(30.963 -56.392)"><path d="M12.18 119.53c0 2.44 1.52 3.35 3.04 3.05 2.13 0 4.57-1.22 6.7-3.05-.61-2.43-1.22-5.78-1.22-9.74-4.87 2.44-8.52 5.79-8.52 9.74zm11.26-10.35c0 3.35.3 6.09.91 8.53 2.74-2.44 4.87-5.79 6.39-9.44-.61 0-3.95 0-7.3.91zm37.44 37.44h9.13l1.82 6.09h7.31l-9.44-30.44h-8.82l-9.13 30.44h7l2.13-6.09zm2.43-12.48c.61-1.82 1.22-3.95 1.83-5.78.61 1.83 1.22 3.96 2.13 5.78l2.43 6.4h-9.13l2.74-6.4zm-11.56-21V85.75H0v48.7h15.22v18.26l21.31-18.26h3.04v27.39h18.26l18.27 18.27v-18.27h15.22v-48.7H51.75zm-12.18 12.18c-2.74 1.52-6.39 2.43-10.96 2.74-.3-.61-.91-1.83-1.22-2.44 5.48-.61 9.44-1.83 12.18-3.65v3.35zm1.83-12.18c-1.22-2.43-3.96-3.96-7.61-4.56-1.83 4.56-5.18 8.82-8.83 12.17.3.91.61 1.52 1.22 2.13l-2.74 1.52c-.31-.61-.61-1.21-.92-2.13-3.65 2.44-6.39 3.05-8.21 3.05-3.66 0-5.48-2.44-5.48-5.48 0-5.79 4.87-10.05 11.26-12.48v-7h-9.74v-2.74h9.74c0-1.83 0-4.26.3-6.09l4.27.3c0 .31-.61.61-1.22.92 0 1.52-.31 3.35-.31 4.87 4.87 0 13.09-.61 17.66-1.83l.3 2.74c-4.56 1.22-13.09 1.52-18.26 1.52v6.09c3.04-.91 5.78-.91 6.7-.91h1.82c.31-.61.31-1.22.31-1.83l3.04.61c0 .61-.3 1.22-.3 1.52 5.78.91 8.82 3.65 10.04 7H41.4v.61zm43.83 42.61H70.01v9.14l-9.74-9.14H45.66v-36.52h39.57v36.52z" fill="#000" stroke-linecap="butt" stroke-width="15.3"/></g></g><g id="shape6-11" transform="translate(153 -9)"><path stroke-linecap="round" stroke-linejoin="round" stroke-width=".72" d="M0 18.106h576v162H0z"/><text x="4" y="57.11" fill="#000" font-family="Raleway ExtraBold" font-size="3.333em">Vocal<tspan x="4" dy="1.4em" class="st7">Vocabularium Alimentarum</tspan><tspan x="4" dy="1.4em" class="st7">Vocabulary of Foods</tspan></text></g></g></svg>