<svg id="Layer_1" data-name="Layer 1" xmlns="http://www.w3.org/2000/svg" viewBox="0 0 130.17 139.42">
<defs><style>.cls-1{fill:#ffc200;}.cls-2{fill:#1c1c28;}</style></defs>
<path class="cls-1" d="M75.39,60.2a6.52,6.52,0,0,1-6.46,5.73,6.91,6.91,0,0,1-.78,0,6.5,6.5,0,0,1-5.69-7.23,6.42,6.42,0,0,1,1.61-3.58A6.52,6.52,0,0,1,75.39,60.2Z"/><path class="cls-2" d="M110.17,59.48A38.93,38.93,0,0,1,71.92,98H70.45A28.27,28.27,0,0,1,61.36,43.2a17.92,17.92,0,1,0,8.69-1.73H70a38.35,38.35,0,0,0-5.18.5,39,39,0,0,0,6.39,77.45H24.84A4.84,4.84,0,0,1,20,114.58V24.84A4.84,4.84,0,0,1,24.84,20H70.46C92.17,20,110.43,37.77,110.17,59.48Z"/></svg>