<?xml version="1.0" encoding="UTF-8" standalone="no"?>
<!DOCTYPE svg PUBLIC "-//W3C//DTD SVG 1.1//EN" "http://www.w3.org/Graphics/SVG/1.1/DTD/svg11.dtd">
<!-- Generated by Microsoft Visio, SVG Export onto_logo_text_white_background_transparent_w1083_h157.svg svg23 -->
<svg xmlns="http://www.w3.org/2000/svg" xmlns:xlink="http://www.w3.org/1999/xlink" xmlns:ev="http://www.w3.org/2001/xml-events"
		xmlns:v="http://schemas.microsoft.com/visio/2003/SVGExtensions/" width="11.2813in" height="1.63542in"
		viewBox="0 0 812.25 117.75" xml:space="preserve" color-interpolation-filters="sRGB" class="st2">
	<v:documentProperties v:langID="1033">
		<v:userDefs>
			<v:ud v:nameU="msvConvertTheme"/>
		</v:userDefs>
	</v:documentProperties>

	<style type="text/css">
	<![CDATA[
		.st1 {fill:#ffffff;stroke:none;stroke-width:3.249}
		.st2 {fill:none;fill-rule:evenodd;font-size:12px;overflow:visible;stroke-linecap:square;stroke-miterlimit:3}
	]]>
	</style>

	<g v:mID="0" v:index="1" v:groupContext="foregroundPage">
		<title>svg23</title>
		<v:pageProperties v:drawingScale="1" v:pageScale="1" v:drawingUnits="19" v:shadowOffsetX="9" v:shadowOffsetY="-9"/>
		<g id="shape1-1" v:mID="1" v:groupContext="shape" transform="translate(33.1596,-5.54542)">
			<title>path13</title>
			<path d="M579.22 12.83 C575.78 12.83 573.02 14.03 570.96 16.38 C568.9 18.66 567.84 21.47 567.84 24.91 C567.84 28.38 568.9
						 31.33 570.96 33.76 C573.02 36.12 575.72 37.31 579.05 37.31 C582.49 37.31 585.25 36.12 587.31 33.76 C589.37
						 31.33 590.4 28.38 590.4 24.91 C590.4 21.47 589.37 18.66 587.31 16.38 C585.25 14.03 582.55 12.83 579.22 12.83
						 ZM169.98 24.48 L169.98 87.4 C169.98 92 170.65 96.09 172.03 99.64 C173.42 103.16 175.31 106.16 177.77 108.63
						 C180.35 110.98 183.32 112.8 186.76 114.07 C190.31 115.34 194.18 115.99 198.41 115.99 C200.76 115.99 202.98
						 115.83 205.04 115.56 C207.1 115.26 208.72 114.85 209.89 114.37 L209.89 97.42 C208.53 97.9 207.1 98.31 205.63
						 98.61 C204.25 98.91 202.52 99.04 200.46 99.04 C197.13 99.04 194.53 97.96 192.67 95.79 C190.88 93.54 190.01
						 90.73 190.01 87.4 L190.01 61.03 L207.69 61.03 L207.69 45.57 L190.01 45.57 L190.01 24.48 L169.98 24.48 ZM517.32
						 24.48 L517.32 87.4 C517.32 92 518.03 96.09 519.38 99.64 C520.76 103.16 522.68 106.16 525.12 108.63 C527.69
						 110.98 530.67 112.8 534.14 114.07 C537.66 115.34 541.53 115.99 545.78 115.99 C548.11 115.99 550.33 115.83
						 552.38 115.56 C554.44 115.26 556.09 114.85 557.26 114.37 L557.26 97.42 C555.88 97.9 554.47 98.31 552.98
						 98.61 C551.6 98.91 549.89 99.04 547.84 99.04 C544.48 99.04 541.88 97.96 540.01 95.79 C538.25 93.54 537.36
						 90.73 537.36 87.4 L537.36 61.03 L555.04 61.03 L555.04 45.57 L537.36 45.57 L537.36 24.48 L517.32 24.48 ZM36.98
						 43.81 C31.68 43.81 26.78 44.73 22.26 46.57 C17.73 48.36 13.81 50.9 10.45 54.26 C7.23 57.48 4.68 61.38 2.79
						 65.9 C0.92 70.4 0 75.38 0 80.77 C0 86.18 0.92 91.14 2.79 95.66 C4.68 100.18 7.23 104.1 10.45 107.43 C13.81
						 110.68 17.73 113.23 22.26 115.1 C26.78 116.88 31.68 117.75 36.98 117.75 C42.29 117.75 47.19 116.88 51.71
						 115.1 C56.23 113.23 60.11 110.68 63.36 107.43 C66.69 104.1 69.28 100.18 71.18 95.66 C73.05 91.14 73.97 86.18
						 73.97 80.77 C73.97 75.38 73.05 70.4 71.18 65.9 C69.28 61.38 66.69 57.48 63.36 54.26 C60.11 50.9 56.23 48.36
						 51.71 46.57 C47.19 44.73 42.29 43.81 36.98 43.81 ZM121.24 43.81 C111.22 43.81 103.32 45.89 97.52 50.12 C91.73
						 54.26 88.83 60.73 88.83 69.58 L88.83 115.99 L108.57 115.99 L108.57 71.64 C108.57 67.12 109.55 63.92 111.52
						 62.06 C113.47 60.08 116.67 59.11 121.11 59.11 C125.52 59.11 128.71 60.08 130.66 62.06 C132.64 63.92 133.62
						 67.12 133.62 71.64 L133.62 115.99 L153.65 115.99 L153.65 69.58 C153.65 60.73 150.75 54.26 144.96 50.12 C139.17
						 45.89 131.26 43.81 121.24 43.81 ZM338.38 43.81 C328.45 43.81 320.65 45.89 314.94 50.12 C309.25 54.26 306.41
						 60.73 306.41 69.58 L306.41 115.99 L326.01 115.99 L326.01 71.64 C326.01 67.12 326.93 63.92 328.8 62.06 C330.67
						 60.08 333.81 59.11 338.22 59.11 C342.63 59.11 345.8 60.08 347.67 62.06 C349.62 63.92 350.62 67.12 350.62
						 71.64 L350.62 115.99 L369.47 115.99 L369.47 70.31 C369.65 66.28 370.74 63.44 372.71 61.76 C374.66 60 377.72
						 59.11 381.84 59.11 C386.25 59.11 389.39 60.08 391.29 62.06 C393.13 63.92 394.08 67.12 394.08 71.64 L394.08
						 115.99 L413.95 115.99 L413.95 69.58 C413.95 60.73 411.08 54.26 405.26 50.12 C399.57 45.89 391.8 43.81 381.97
						 43.81 C377.26 43.81 373.15 44.49 369.63 45.84 C366.08 47.22 363.02 48.95 360.48 51.01 C357.93 48.84 354.82
						 47.14 351.19 45.84 C347.56 44.49 343.28 43.81 338.38 43.81 ZM462.55 43.81 C457.54 43.81 452.96 44.62 448.85
						 46.3 C444.82 47.87 441.32 50.17 438.37 53.23 C435.45 56.15 433.12 59.81 431.44 64.11 C429.9 68.34 429.08
						 73.1 429.08 78.41 C429.08 84.01 429.9 89.21 431.44 94.03 C433.12 98.85 435.5 103.02 438.53 106.57 C441.67
						 110.01 445.52 112.74 450.01 114.8 C454.54 116.78 459.65 117.75 465.34 117.75 C470.75 117.75 475.6 117.02
						 479.93 115.56 C484.34 113.96 488.08 111.66 491.11 108.63 C494.28 105.57 496.66 101.75 498.34 97.12 C500.02
						 92.52 500.86 87.1 500.86 80.93 L500.86 45.57 L483.18 45.57 L483.18 52.5 C481.1 50.12 478.42 48.11 475.06
						 46.43 C471.73 44.67 467.56 43.81 462.55 43.81 ZM650.29 43.81 C643.79 43.81 637.81 44.57 632.31 46.14 C626.92
						 47.73 622.24 50.12 618.31 53.37 C614.39 56.61 611.3 60.68 609.03 65.58 C606.89 70.4 605.78 76.11 605.78
						 82.69 C605.78 88.97 606.89 94.38 609.03 98.88 C611.19 103.32 614.25 106.95 618.18 109.79 C622.18 112.55
						 626.92 114.56 632.31 115.83 C637.81 117.1 643.9 117.75 650.59 117.75 C653.43 117.75 656.14 117.61 658.68
						 117.32 C661.33 117.1 663.69 116.88 665.75 116.59 L665.75 100.8 C664.1 101.21 662.17 101.5 660.03 101.69
						 C657.87 101.88 655.35 101.99 652.51 101.99 C643.76 101.99 637.13 100.48 632.61 97.42 C628.09 94.28 625.84
						 89.19 625.84 82.09 C625.84 74.13 628.06 68.39 632.47 64.85 C636.97 61.33 643.57 59.54 652.21 59.54 C655.16
						 59.54 657.6 59.65 659.57 59.86 C661.63 60.05 663.55 60.32 665.31 60.73 L665.31 44.97 C663.26 44.67 660.95
						 44.43 658.38 44.24 C655.84 43.94 653.16 43.81 650.29 43.81 ZM711.48 43.81 C706.47 43.81 701.89 44.62 697.78
						 46.3 C693.74 47.87 690.25 50.17 687.3 53.23 C684.37 56.15 682.05 59.81 680.37 64.11 C678.82 68.34 678.04
						 73.1 678.04 78.41 C678.04 84.01 678.82 89.21 680.37 94.03 C682.05 98.85 684.43 103.02 687.46 106.57 C690.6
						 110.01 694.45 112.74 698.94 114.8 C703.46 116.78 708.58 117.75 714.29 117.75 C719.68 117.75 724.53 117.02
						 728.86 115.56 C733.3 113.96 737.01 111.66 740.07 108.63 C743.21 105.57 745.62 101.75 747.27 97.12 C748.95
						 92.52 749.79 87.1 749.79 80.93 L749.79 45.57 L732.11 45.57 L732.11 52.5 C730.05 50.12 727.34 48.11 723.99
						 46.43 C720.66 44.67 716.49 43.81 711.48 43.81 ZM568.9 45.57 L568.9 115.99 L588.94 115.99 L588.94 45.57 L568.9
						 45.57 ZM36.98 59.54 C42.18 59.54 46.33 61.33 49.36 64.85 C52.42 68.39 53.93 73.7 53.93 80.77 C53.93 87.86
						 52.42 93.17 49.36 96.69 C46.33 100.21 42.18 101.99 36.98 101.99 C31.79 101.99 27.67 100.21 24.61 96.69 C21.58
						 93.17 20.04 87.86 20.04 80.77 C20.04 73.7 21.58 68.39 24.61 64.85 C27.67 61.33 31.79 59.54 36.98 59.54 ZM465.5
						 59.54 C470.51 59.54 474.49 61.33 477.44 64.85 C480.36 68.39 481.85 73.7 481.85 80.77 C481.85 87.86 480.36
						 93.17 477.44 96.69 C474.49 100.21 470.51 101.99 465.5 101.99 C460.49 101.99 456.51 100.21 453.56 96.69 C450.61
						 93.17 449.12 87.86 449.12 80.77 C449.12 73.7 450.61 68.39 453.56 64.85 C456.51 61.33 460.49 59.54 465.5
						 59.54 ZM714.43 59.54 C719.44 59.54 723.42 61.33 726.37 64.85 C729.29 68.39 730.78 73.7 730.78 80.77 C730.78
						 87.86 729.29 93.17 726.37 96.69 C723.42 100.21 719.44 101.99 714.43 101.99 C709.42 101.99 705.44 100.21
						 702.49 96.69 C699.54 93.17 698.05 87.86 698.05 80.77 C698.05 73.7 699.54 68.39 702.49 64.85 C705.44 61.33
						 709.42 59.54 714.43 59.54 Z" class="st1"/>
		</g>
		<g id="shape2-3" v:mID="2" v:groupContext="shape" transform="translate(250.417,-7.31073)">
			<title>path18</title>
			<path d="M37.58 12.83 C32.17 12.83 27.16 13.84 22.53 15.79 C17.92 17.65 13.94 20.31 10.61 23.75 C7.28 27.08 4.68 31.06
						 2.79 35.69 C0.92 40.32 0 45.35 0 50.85 C0 56.37 0.92 61.43 2.79 66.04 C4.68 70.67 7.28 74.67 10.61 78.11
						 C13.94 81.47 17.92 84.12 22.53 86.07 C27.16 87.94 32.17 88.89 37.58 88.89 C42.97 88.89 47.98 87.94 52.61
						 86.07 C57.21 84.12 61.19 81.47 64.52 78.11 C67.88 74.67 70.48 70.67 72.34 66.04 C74.21 61.43 75.16 56.37
						 75.16 50.85 C75.16 45.35 74.21 40.32 72.34 35.69 C70.48 31.06 67.88 27.08 64.52 23.75 C61.19 20.31 57.21
						 17.65 52.61 15.79 C47.98 13.84 42.97 12.83 37.58 12.83 ZM37.58 29.65 C40.13 29.65 42.43 30.19 44.51 31.27
						 C46.57 32.33 48.27 33.82 49.66 35.69 C51.12 37.55 52.25 39.8 53.04 42.45 C53.83 45.03 54.23 47.82 54.23
						 50.85 C54.23 53.91 53.83 56.75 53.04 59.4 C52.25 61.98 51.12 64.17 49.66 66.04 C48.27 67.9 46.57 69.37 44.51
						 70.45 C42.43 71.53 40.13 72.07 37.58 72.07 C35.01 72.07 32.71 71.53 30.65 70.45 C28.59 69.37 26.83 67.9
						 25.34 66.04 C23.96 64.17 22.88 61.98 22.09 59.4 C21.31 56.75 20.93 53.91 20.93 50.85 C20.93 47.82 21.31
						 45.03 22.09 42.45 C22.88 39.8 23.96 37.55 25.34 35.69 C26.83 33.82 28.59 32.33 30.65 31.27 C32.71 30.19
						 35.01 29.65 37.58 29.65 ZM4.85 100.21 L4.85 117.75 L70.29 117.75 L70.29 100.21 L4.85 100.21 Z" class="st1"/>
		</g>
	</g>
</svg>
