<?xml version="1.0" encoding="UTF-8" standalone="no"?>
<!DOCTYPE svg PUBLIC "-//W3C//DTD SVG 1.1//EN" "http://www.w3.org/Graphics/SVG/1.1/DTD/svg11.dtd">
<!-- Generated by Microsoft Visio, SVG Export onto_logo_text_black_glyph_green_background_clear_w300_h56.svg svg26 -->
<svg xmlns="http://www.w3.org/2000/svg" xmlns:xlink="http://www.w3.org/1999/xlink" xmlns:ev="http://www.w3.org/2001/xml-events"
		xmlns:v="http://schemas.microsoft.com/visio/2003/SVGExtensions/" width="3.125in" height="0.583333in" viewBox="0 0 225 42"
		xml:space="preserve" color-interpolation-filters="sRGB" class="st3">
	<v:documentProperties v:langID="1033">
		<v:userDefs>
			<v:ud v:nameU="msvConvertTheme"/>
		</v:userDefs>
	</v:documentProperties>

	<style type="text/css">
	<![CDATA[
		.st1 {fill:#000000;stroke:none;stroke-width:0.9}
		.st2 {fill:#00a05a;stroke:none;stroke-width:0.9}
		.st3 {fill:none;fill-rule:evenodd;font-size:12px;overflow:visible;stroke-linecap:square;stroke-miterlimit:3}
	]]>
	</style>

	<g v:mID="0" v:index="1" v:groupContext="foregroundPage">
		<title>svg26</title>
		<v:pageProperties v:drawingScale="1" v:pageScale="1" v:drawingUnits="19" v:shadowOffsetX="9" v:shadowOffsetY="-9"/>
		<g id="shape1-1" v:mID="1" v:groupContext="shape" transform="translate(8.65183,-6.22529)">
			<title>path15</title>
			<path d="M160.44 12.94 C159.49 12.94 158.73 13.27 158.16 13.92 C157.59 14.55 157.3 15.33 157.3 16.29 C157.3 17.24 157.59
						 18.06 158.16 18.74 C158.73 19.39 159.48 19.72 160.4 19.72 C161.36 19.72 162.12 19.39 162.69 18.74 C163.26
						 18.06 163.54 17.24 163.54 16.29 C163.54 15.33 163.26 14.55 162.69 13.92 C162.12 13.27 161.37 12.94 160.44
						 12.94 ZM47.08 16.16 L47.08 33.6 C47.08 34.87 47.27 36 47.65 36.98 C48.04 37.96 48.56 38.79 49.24 39.47 C49.95
						 40.12 50.79 40.63 51.74 40.98 C52.72 41.33 53.79 41.51 54.96 41.51 C55.61 41.51 56.23 41.47 56.8 41.39 C57.37
						 41.31 57.82 41.2 58.14 41.06 L58.14 36.37 C57.76 36.5 57.37 36.61 56.96 36.69 C56.58 36.78 56.1 36.82 55.53
						 36.82 C54.61 36.82 53.88 36.52 53.37 35.92 C52.88 35.29 52.63 34.52 52.63 33.6 L52.63 26.29 L57.53 26.29
						 L57.53 22 L52.63 22 L52.63 16.16 L47.08 16.16 ZM143.3 16.16 L143.3 33.6 C143.3 34.87 143.5 36 143.87 36.98
						 C144.26 37.96 144.79 38.79 145.47 39.47 C146.18 40.12 147 40.63 147.96 40.98 C148.94 41.33 150.01 41.51
						 151.18 41.51 C151.83 41.51 152.45 41.47 153.02 41.39 C153.59 41.31 154.04 41.2 154.36 41.06 L154.36 36.37
						 C153.98 36.5 153.59 36.61 153.18 36.69 C152.8 36.78 152.32 36.82 151.75 36.82 C150.83 36.82 150.11 36.52
						 149.59 35.92 C149.1 35.29 148.86 34.52 148.86 33.6 L148.86 26.29 L153.75 26.29 L153.75 22 L148.86 22 L148.86
						 16.16 L143.3 16.16 ZM10.24 21.51 C8.78 21.51 7.42 21.77 6.16 22.29 C4.91 22.78 3.82 23.48 2.9 24.41 C2 25.31
						 1.29 26.38 0.78 27.64 C0.26 28.89 0 30.26 0 31.76 C0 33.25 0.26 34.63 0.78 35.88 C1.29 37.13 2 38.22 2.9
						 39.14 C3.82 40.04 4.91 40.75 6.16 41.27 C7.42 41.76 8.78 42 10.24 42 C11.71 42 13.07 41.76 14.33 41.27 C15.58
						 40.75 16.65 40.04 17.55 39.14 C18.48 38.22 19.2 37.13 19.71 35.88 C20.23 34.63 20.49 33.25 20.49 31.76 C20.49
						 30.26 20.23 28.89 19.71 27.64 C19.2 26.38 18.48 25.31 17.55 24.41 C16.65 23.48 15.58 22.78 14.33 22.29 C13.07
						 21.77 11.71 21.51 10.24 21.51 ZM33.59 21.51 C30.81 21.51 28.62 22.1 27.02 23.27 C25.41 24.41 24.6 26.21
						 24.6 28.65 L24.6 41.51 L30.07 41.51 L30.07 29.23 C30.07 27.97 30.35 27.09 30.89 26.57 C31.44 26.03 32.32
						 25.76 33.55 25.76 C34.77 25.76 35.65 26.03 36.2 26.57 C36.74 27.09 37.01 27.97 37.01 29.23 L37.01 41.51
						 L42.56 41.51 L42.56 28.65 C42.56 26.21 41.76 24.41 40.16 23.27 C38.55 22.1 36.36 21.51 33.59 21.51 ZM93.73
						 21.51 C90.99 21.51 88.82 22.1 87.24 23.27 C85.67 24.41 84.87 26.21 84.87 28.65 L84.87 41.51 L90.31 41.51
						 L90.31 29.23 C90.31 27.97 90.56 27.09 91.08 26.57 C91.6 26.03 92.47 25.76 93.69 25.76 C94.92 25.76 95.79
						 26.03 96.31 26.57 C96.85 27.09 97.12 27.97 97.12 29.23 L97.12 41.51 L102.35 41.51 L102.35 28.86 C102.4 27.74
						 102.7 26.96 103.24 26.49 C103.79 26 104.63 25.76 105.77 25.76 C107 25.76 107.87 26.03 108.39 26.57 C108.9
						 27.09 109.16 27.97 109.16 29.23 L109.16 41.51 L114.67 41.51 L114.67 28.65 C114.67 26.21 113.87 24.41 112.26
						 23.27 C110.68 22.1 108.53 21.51 105.81 21.51 C104.51 21.51 103.36 21.7 102.39 22.08 C101.41 22.47 100.56
						 22.94 99.86 23.51 C99.15 22.91 98.29 22.44 97.28 22.08 C96.28 21.7 95.09 21.51 93.73 21.51 ZM128.13 21.51
						 C126.74 21.51 125.48 21.74 124.33 22.21 C123.22 22.64 122.25 23.28 121.44 24.12 C120.62 24.94 119.98 25.95
						 119.52 27.14 C119.08 28.32 118.86 29.64 118.86 31.1 C118.86 32.65 119.08 34.1 119.52 35.43 C119.98 36.76
						 120.63 37.92 121.48 38.9 C122.35 39.85 123.41 40.61 124.66 41.18 C125.91 41.73 127.33 42 128.9 42 C130.4
						 42 131.75 41.8 132.94 41.39 C134.17 40.95 135.2 40.32 136.05 39.47 C136.92 38.63 137.58 37.57 138.05 36.29
						 C138.51 35.01 138.74 33.51 138.74 31.8 L138.74 22 L133.84 22 L133.84 23.92 C133.27 23.27 132.52 22.71 131.6
						 22.25 C130.67 21.76 129.52 21.51 128.13 21.51 L128.13 21.51 ZM180.14 21.51 C178.34 21.51 176.68 21.73 175.16
						 22.16 C173.66 22.6 172.37 23.27 171.28 24.16 C170.19 25.06 169.33 26.19 168.71 27.55 C168.11 28.89 167.81
						 30.46 167.81 32.29 C167.81 34.03 168.11 35.53 168.71 36.78 C169.3 38 170.15 39.01 171.24 39.8 C172.35 40.56
						 173.66 41.12 175.16 41.47 C176.68 41.82 178.37 42 180.22 42 C181.01 42 181.75 41.96 182.46 41.88 C183.2
						 41.82 183.85 41.76 184.42 41.68 L184.42 37.31 C183.96 37.42 183.43 37.5 182.83 37.55 C182.23 37.61 181.54
						 37.64 180.75 37.64 C178.33 37.64 176.49 37.21 175.24 36.37 C173.99 35.5 173.36 34.08 173.36 32.12 C173.36
						 29.92 173.97 28.33 175.2 27.35 C176.45 26.37 178.27 25.88 180.67 25.88 C181.48 25.88 182.16 25.91 182.71
						 25.96 C183.28 26.01 183.81 26.09 184.3 26.21 L184.3 21.84 C183.73 21.76 183.09 21.69 182.38 21.64 C181.67
						 21.55 180.93 21.51 180.14 21.51 L180.14 21.51 ZM197.09 21.51 C195.7 21.51 194.43 21.74 193.29 22.21 C192.17
						 22.64 191.21 23.28 190.39 24.12 C189.57 24.94 188.93 25.95 188.47 27.14 C188.04 28.32 187.82 29.64 187.82
						 31.1 C187.82 32.65 188.04 34.1 188.47 35.43 C188.93 36.76 189.59 37.92 190.43 38.9 C191.3 39.85 192.36 40.61
						 193.61 41.18 C194.87 41.73 196.28 42 197.86 42 C199.36 42 200.7 41.8 201.9 41.39 C203.13 40.95 204.16 40.32
						 205 39.47 C205.87 38.63 206.54 37.57 207 36.29 C207.46 35.01 207.7 33.51 207.7 31.8 L207.7 22 L202.8 22
						 L202.8 23.92 C202.23 23.27 201.48 22.71 200.55 22.25 C199.63 21.76 198.47 21.51 197.09 21.51 ZM157.59 22
						 L157.59 41.51 L163.14 41.51 L163.14 22 L157.59 22 ZM10.25 25.88 C11.69 25.88 12.83 26.37 13.67 27.35 C14.52
						 28.33 14.94 29.8 14.94 31.76 C14.94 33.72 14.52 35.19 13.67 36.17 C12.83 37.14 11.69 37.64 10.25 37.64 C8.81
						 37.64 7.66 37.14 6.82 36.17 C5.97 35.19 5.55 33.72 5.55 31.76 C5.55 29.8 5.97 28.33 6.82 27.35 C7.66 26.37
						 8.81 25.88 10.25 25.88 ZM128.95 25.88 C130.33 25.88 131.44 26.37 132.25 27.35 C133.07 28.33 133.48 29.8
						 133.48 31.76 C133.48 33.72 133.07 35.19 132.25 36.17 C131.44 37.14 130.33 37.64 128.95 37.64 C127.56 37.64
						 126.45 37.14 125.64 36.17 C124.82 35.19 124.41 33.72 124.41 31.76 C124.41 29.8 124.82 28.33 125.64 27.35
						 C126.45 26.37 127.56 25.88 128.95 25.88 ZM197.9 25.88 C199.29 25.88 200.39 26.37 201.21 27.35 C202.02 28.33
						 202.43 29.8 202.43 31.76 C202.43 33.72 202.02 35.19 201.21 36.17 C200.39 37.14 199.29 37.64 197.9 37.64
						 C196.51 37.64 195.41 37.14 194.59 36.17 C193.78 35.19 193.37 33.72 193.37 31.76 C193.37 29.8 193.78 28.33
						 194.59 27.35 C195.41 26.37 196.51 25.88 197.9 25.88 Z" class="st1"/>
		</g>
		<g id="shape2-3" v:mID="2" v:groupContext="shape" transform="translate(68.834,-6.71465)">
			<title>path20</title>
			<path d="M10.41 12.94 C8.91 12.94 7.52 13.21 6.24 13.76 C4.97 14.27 3.86 15.01 2.94 15.96 C2.01 16.88 1.29 17.99 0.78
						 19.27 C0.26 20.55 0 21.95 0 23.47 C0 25 0.26 26.4 0.78 27.68 C1.29 28.96 2.01 30.07 2.94 31.02 C3.86 31.95
						 4.97 32.68 6.24 33.23 C7.52 33.74 8.91 34 10.41 34 C11.9 34 13.29 33.74 14.57 33.23 C15.85 32.68 16.95 31.95
						 17.88 31.02 C18.8 30.07 19.52 28.96 20.04 27.68 C20.56 26.4 20.82 25 20.82 23.47 C20.82 21.95 20.56 20.55
						 20.04 19.27 C19.52 17.99 18.8 16.88 17.88 15.96 C16.95 15.01 15.85 14.27 14.57 13.76 C13.29 13.21 11.9 12.94
						 10.41 12.94 ZM10.41 17.59 C11.11 17.59 11.75 17.74 12.33 18.04 C12.9 18.34 13.38 18.75 13.75 19.27 C14.16
						 19.78 14.47 20.41 14.7 21.15 C14.91 21.85 15.02 22.63 15.02 23.47 C15.02 24.32 14.91 25.1 14.7 25.84 C14.47
						 26.55 14.16 27.16 13.75 27.68 C13.38 28.19 12.9 28.6 12.33 28.9 C11.75 29.2 11.11 29.35 10.41 29.35 C9.7
						 29.35 9.06 29.2 8.49 28.9 C7.92 28.6 7.43 28.19 7.02 27.68 C6.64 27.16 6.34 26.55 6.12 25.84 C5.9 25.1 5.79
						 24.32 5.79 23.47 C5.79 22.63 5.9 21.85 6.12 21.15 C6.34 20.41 6.64 19.78 7.02 19.27 C7.43 18.75 7.92 18.34
						 8.49 18.04 C9.06 17.74 9.7 17.59 10.41 17.59 ZM1.35 37.14 L1.35 42 L19.47 42 L19.47 37.14 L1.35 37.14 Z"
					class="st2"/>
		</g>
	</g>
</svg>
