<?xml version="1.0" encoding="UTF-8" standalone="no"?>
<!DOCTYPE svg PUBLIC "-//W3C//DTD SVG 1.1//EN" "http://www.w3.org/Graphics/SVG/1.1/DTD/svg11.dtd">
<!-- Generated by Microsoft Visio, SVG Export onto_logo_text_white_background_black_w300_h59.svg svg23 -->
<svg xmlns="http://www.w3.org/2000/svg" xmlns:xlink="http://www.w3.org/1999/xlink" xmlns:ev="http://www.w3.org/2001/xml-events"
		xmlns:v="http://schemas.microsoft.com/visio/2003/SVGExtensions/" width="3.125in" height="0.614583in"
		viewBox="0 0 225 44.25" xml:space="preserve" color-interpolation-filters="sRGB" class="st3">
	<v:documentProperties v:langID="1033">
		<v:userDefs>
			<v:ud v:nameU="msvConvertTheme"/>
		</v:userDefs>
	</v:documentProperties>

	<style type="text/css">
	<![CDATA[
		.st1 {fill:#000000;stroke:none;stroke-width:0.353291}
		.st2 {fill:#ffffff;stroke:none;stroke-width:0.9}
		.st3 {fill:none;fill-rule:evenodd;font-size:12px;overflow:visible;stroke-linecap:square;stroke-miterlimit:3}
	]]>
	</style>

	<g v:mID="0" v:index="1" v:groupContext="foregroundPage">
		<title>svg23</title>
		<v:pageProperties v:drawingScale="1" v:pageScale="1" v:drawingUnits="19" v:shadowOffsetX="9" v:shadowOffsetY="-9"/>
		<g id="shape1-1" v:mID="1" v:groupContext="shape" transform="translate(-1.797E-06,2.44711E-08)">
			<title>rect8</title>
			<rect x="0" y="5.66667E-07" width="225" height="44.25" class="st1"/>
		</g>
		<g id="shape2-3" v:mID="2" v:groupContext="shape" transform="translate(9.18547,-7.35225)">
			<title>path13</title>
			<path d="M160.45 15.19 C159.49 15.19 158.73 15.52 158.16 16.17 C157.59 16.8 157.3 17.58 157.3 18.53 C157.3 19.49 157.59
						 20.31 158.16 20.99 C158.73 21.64 159.48 21.97 160.4 21.97 C161.35 21.97 162.12 21.64 162.69 20.99 C163.26
						 20.31 163.54 19.49 163.54 18.53 C163.54 17.58 163.26 16.8 162.69 16.17 C162.12 15.52 161.37 15.19 160.45
						 15.19 ZM47.08 18.41 L47.08 35.84 C47.08 37.12 47.27 38.25 47.66 39.23 C48.04 40.21 48.56 41.04 49.25 41.72
						 C49.96 42.37 50.78 42.88 51.74 43.23 C52.72 43.58 53.79 43.76 54.96 43.76 C55.61 43.76 56.23 43.72 56.8
						 43.64 C57.37 43.56 57.82 43.45 58.14 43.31 L58.14 38.62 C57.76 38.75 57.37 38.86 56.96 38.95 C56.58 39.03
						 56.1 39.07 55.53 39.07 C54.61 39.07 53.89 38.77 53.37 38.17 C52.87 37.54 52.63 36.76 52.63 35.84 L52.63
						 28.54 L57.53 28.54 L57.53 24.25 L52.63 24.25 L52.63 18.41 L47.08 18.41 ZM143.3 18.41 L143.3 35.84 C143.3
						 37.12 143.5 38.25 143.87 39.23 C144.25 40.21 144.79 41.04 145.46 41.72 C146.17 42.37 147 42.88 147.96 43.23
						 C148.93 43.58 150.01 43.76 151.19 43.76 C151.83 43.76 152.45 43.72 153.02 43.64 C153.59 43.56 154.04 43.45
						 154.37 43.31 L154.37 38.62 C153.98 38.75 153.59 38.86 153.18 38.95 C152.8 39.03 152.33 39.07 151.76 39.07
						 C150.82 39.07 150.1 38.77 149.59 38.17 C149.1 37.54 148.85 36.76 148.85 35.84 L148.85 28.54 L153.75 28.54
						 L153.75 24.25 L148.85 24.25 L148.85 18.41 L143.3 18.41 ZM10.24 23.77 C8.77 23.77 7.42 24.02 6.16 24.53 C4.91
						 25.03 3.82 25.73 2.9 26.66 C2 27.55 1.3 28.63 0.77 29.89 C0.26 31.13 0 32.51 0 34.01 C0 35.51 0.26 36.88
						 0.77 38.13 C1.3 39.38 2 40.47 2.9 41.39 C3.82 42.29 4.91 43 6.16 43.51 C7.42 44.01 8.77 44.25 10.24 44.25
						 C11.71 44.25 13.07 44.01 14.32 43.51 C15.58 43 16.65 42.29 17.55 41.39 C18.47 40.47 19.19 39.38 19.72 38.13
						 C20.24 36.88 20.49 35.51 20.49 34.01 C20.49 32.51 20.24 31.13 19.72 29.89 C19.19 28.63 18.47 27.55 17.55
						 26.66 C16.65 25.73 15.58 25.03 14.32 24.53 C13.07 24.02 11.71 23.77 10.24 23.77 ZM33.58 23.77 C30.81 23.77
						 28.62 24.34 27.01 25.51 C25.41 26.66 24.61 28.45 24.61 30.91 L24.61 43.76 L30.07 43.76 L30.07 31.48 C30.07
						 30.22 30.34 29.34 30.89 28.82 C31.43 28.27 32.32 28 33.55 28 C34.77 28 35.65 28.27 36.19 28.82 C36.74 29.34
						 37.01 30.22 37.01 31.48 L37.01 43.76 L42.56 43.76 L42.56 30.91 C42.56 28.45 41.76 26.66 40.15 25.51 C38.55
						 24.34 36.36 23.77 33.58 23.77 ZM93.73 23.77 C90.98 23.77 88.82 24.34 87.24 25.51 C85.67 26.66 84.88 28.45
						 84.88 30.91 L84.88 43.76 L90.31 43.76 L90.31 31.48 C90.31 30.22 90.56 29.34 91.08 28.82 C91.6 28.27 92.47
						 28 93.69 28 C94.91 28 95.79 28.27 96.31 28.82 C96.85 29.34 97.12 30.22 97.12 31.48 L97.12 43.76 L102.35
						 43.76 L102.35 31.11 C102.4 29.99 102.7 29.2 103.25 28.74 C103.79 28.25 104.63 28 105.77 28 C106.99 28 107.86
						 28.27 108.39 28.82 C108.9 29.34 109.16 30.22 109.16 31.48 L109.16 43.76 L114.67 43.76 L114.67 30.91 C114.67
						 28.45 113.87 26.66 112.26 25.51 C110.68 24.34 108.53 23.77 105.81 23.77 C104.5 23.77 103.37 23.95 102.39
						 24.33 C101.41 24.71 100.56 25.19 99.86 25.76 C99.15 25.16 98.29 24.69 97.28 24.33 C96.28 23.95 95.09 23.77
						 93.73 23.77 ZM128.13 23.77 C126.74 23.77 125.48 23.99 124.33 24.46 C123.22 24.89 122.25 25.53 121.43 26.38
						 C120.62 27.19 119.98 28.2 119.51 29.39 C119.08 30.56 118.86 31.88 118.86 33.35 C118.86 34.91 119.08 36.35
						 119.51 37.68 C119.98 39.01 120.64 40.17 121.48 41.15 C122.35 42.1 123.41 42.86 124.66 43.43 C125.91 43.98
						 127.33 44.25 128.9 44.25 C130.4 44.25 131.74 44.05 132.94 43.64 C134.17 43.2 135.2 42.56 136.04 41.72 C136.92
						 40.87 137.58 39.82 138.05 38.53 C138.51 37.26 138.74 35.76 138.74 34.05 L138.74 24.25 L133.84 24.25 L133.84
						 26.17 C133.27 25.51 132.52 24.96 131.59 24.49 C130.67 24.01 129.52 23.77 128.13 23.77 ZM180.14 23.77 C178.34
						 23.77 176.68 23.98 175.15 24.41 C173.66 24.85 172.36 25.51 171.28 26.41 C170.19 27.31 169.34 28.44 168.71
						 29.8 C168.11 31.13 167.81 32.72 167.81 34.54 C167.81 36.28 168.11 37.78 168.71 39.02 C169.31 40.25 170.15
						 41.26 171.24 42.04 C172.35 42.81 173.66 43.36 175.15 43.72 C176.68 44.07 178.37 44.25 180.22 44.25 C181.01
						 44.25 181.76 44.21 182.46 44.13 C183.19 44.07 183.85 44.01 184.42 43.93 L184.42 39.55 C183.96 39.67 183.43
						 39.75 182.84 39.8 C182.24 39.85 181.54 39.88 180.75 39.88 C178.33 39.88 176.49 39.46 175.24 38.62 C173.98
						 37.75 173.36 36.34 173.36 34.37 C173.36 32.17 173.98 30.58 175.2 29.59 C176.44 28.62 178.28 28.12 180.67
						 28.12 C181.49 28.12 182.16 28.15 182.71 28.21 C183.28 28.27 183.81 28.34 184.3 28.45 L184.3 24.09 C183.73
						 24.01 183.09 23.94 182.38 23.89 C181.67 23.8 180.93 23.77 180.14 23.77 ZM197.08 23.77 C195.7 23.77 194.43
						 23.99 193.29 24.46 C192.17 24.89 191.21 25.53 190.39 26.38 C189.58 27.19 188.93 28.2 188.47 29.39 C188.04
						 30.56 187.82 31.88 187.82 33.35 C187.82 34.91 188.04 36.35 188.47 37.68 C188.93 39.01 189.59 40.17 190.43
						 41.15 C191.3 42.1 192.37 42.86 193.61 43.43 C194.87 43.98 196.28 44.25 197.86 44.25 C199.36 44.25 200.7
						 44.05 201.9 43.64 C203.13 43.2 204.16 42.56 205.01 41.72 C205.88 40.87 206.54 39.82 207 38.53 C207.47 37.26
						 207.7 35.76 207.7 34.05 L207.7 24.25 L202.8 24.25 L202.8 26.17 C202.23 25.51 201.48 24.96 200.55 24.49 C199.63
						 24.01 198.47 23.77 197.08 23.77 ZM157.59 24.25 L157.59 43.76 L163.14 43.76 L163.14 24.25 L157.59 24.25 ZM10.24
						 28.12 C11.68 28.12 12.83 28.62 13.67 29.59 C14.52 30.58 14.94 32.05 14.94 34.01 C14.94 35.97 14.52 37.44
						 13.67 38.41 C12.83 39.39 11.68 39.88 10.24 39.88 C8.8 39.88 7.66 39.39 6.82 38.41 C5.98 37.44 5.55 35.97
						 5.55 34.01 C5.55 32.05 5.98 30.58 6.82 29.59 C7.66 28.62 8.8 28.12 10.24 28.12 ZM128.95 28.12 C130.33 28.12
						 131.44 28.62 132.25 29.59 C133.06 30.58 133.48 32.05 133.48 34.01 C133.48 35.97 133.06 37.44 132.25 38.41
						 C131.44 39.39 130.33 39.88 128.95 39.88 C127.56 39.88 126.46 39.39 125.64 38.41 C124.82 37.44 124.41 35.97
						 124.41 34.01 C124.41 32.05 124.82 30.58 125.64 29.59 C126.46 28.62 127.56 28.12 128.95 28.12 ZM197.9 28.12
						 C199.29 28.12 200.39 28.62 201.21 29.59 C202.02 30.58 202.43 32.05 202.43 34.01 C202.43 35.97 202.02 37.44
						 201.21 38.41 C200.39 39.39 199.29 39.88 197.9 39.88 C196.51 39.88 195.41 39.39 194.6 38.41 C193.78 37.44
						 193.37 35.97 193.37 34.01 C193.37 32.05 193.78 30.58 194.6 29.59 C195.41 28.62 196.51 28.12 197.9 28.12
						 Z" class="st2"/>
		</g>
		<g id="shape3-5" v:mID="3" v:groupContext="shape" transform="translate(69.3676,-7.84125)">
			<title>path18</title>
			<path d="M10.41 15.19 C8.91 15.19 7.52 15.46 6.24 16 C4.97 16.52 3.86 17.26 2.94 18.21 C2.02 19.13 1.3 20.24 0.77 21.52
						 C0.26 22.8 0 24.2 0 25.72 C0 27.25 0.26 28.65 0.77 29.92 C1.3 31.21 2.02 32.32 2.94 33.27 C3.86 34.2 4.97
						 34.94 6.24 35.48 C7.52 35.99 8.91 36.26 10.41 36.26 C11.9 36.26 13.29 35.99 14.57 35.48 C15.85 34.94 16.95
						 34.2 17.87 33.27 C18.8 32.32 19.52 31.21 20.04 29.92 C20.56 28.65 20.82 27.25 20.82 25.72 C20.82 24.2 20.56
						 22.8 20.04 21.52 C19.52 20.24 18.8 19.13 17.87 18.21 C16.95 17.26 15.85 16.52 14.57 16 C13.29 15.46 11.9
						 15.19 10.41 15.19 ZM10.41 19.85 C11.11 19.85 11.75 20 12.33 20.3 C12.9 20.59 13.37 21 13.76 21.52 C14.16
						 22.04 14.48 22.66 14.69 23.39 C14.91 24.11 15.02 24.88 15.02 25.72 C15.02 26.56 14.91 27.35 14.69 28.09
						 C14.48 28.8 14.16 29.41 13.76 29.92 C13.37 30.44 12.9 30.85 12.33 31.15 C11.75 31.45 11.11 31.6 10.41 31.6
						 C9.7 31.6 9.06 31.45 8.49 31.15 C7.92 30.85 7.43 30.44 7.02 29.92 C6.64 29.41 6.34 28.8 6.12 28.09 C5.9
						 27.35 5.8 26.56 5.8 25.72 C5.8 24.88 5.9 24.11 6.12 23.39 C6.34 22.66 6.64 22.04 7.02 21.52 C7.43 21 7.92
						 20.59 8.49 20.3 C9.06 20 9.7 19.85 10.41 19.85 ZM1.34 39.39 L1.34 44.25 L19.47 44.25 L19.47 39.39 L1.34
						 39.39 Z" class="st2"/>
		</g>
	</g>
</svg>
