<svg xmlns="http://www.w3.org/2000/svg" viewBox="0 0 305 44" color-interpolation-filters="sRGB" fill="none" fill-rule="evenodd" font-size="12" overflow="visible" stroke-linecap="square" stroke-miterlimit="3"><style>.st1{fill:#fff;stroke:none;stroke-width:1.221}</style><g id="shape1-1" transform="translate(12.462 -2.083)"><path d="M217.67 4.82c-1.29 0-2.33.45-3.1 1.33-.77.86-1.17 1.92-1.17 3.21 0 1.3.4 2.41 1.17 3.33.77.88 1.79 1.33 3.04 1.33 1.29 0 2.33-.45 3.11-1.33.77-.92 1.16-2.03 1.16-3.33 0-1.29-.39-2.35-1.16-3.21-.78-.88-1.79-1.33-3.05-1.33zM63.88 9.2v23.64c0 1.73.25 3.27.77 4.6.52 1.33 1.23 2.46 2.16 3.38.97.89 2.08 1.57 3.38 2.05 1.33.47 2.79.72 4.37.72.89 0 1.72-.06 2.5-.16.77-.12 1.38-.27 1.82-.45v-6.37c-.51.18-1.05.33-1.6.45-.52.11-1.17.16-1.94.16-1.26 0-2.23-.41-2.93-1.22-.68-.85-1-1.9-1-3.16v-9.91h6.64v-5.81h-6.64V9.2h-7.53zm130.53 0v23.64c0 1.73.27 3.27.78 4.6.52 1.33 1.24 2.46 2.15 3.38.97.89 2.09 1.57 3.39 2.05 1.33.47 2.78.72 4.38.72.87 0 1.71-.06 2.48-.16.77-.12 1.39-.27 1.83-.45v-6.37c-.52.18-1.05.33-1.61.45-.51.11-1.16.16-1.93.16-1.26 0-2.24-.41-2.94-1.22-.66-.85-1-1.9-1-3.16v-9.91h6.65v-5.81h-6.65V9.2h-7.53zM13.9 16.46c-2 0-3.84.35-5.54 1.04-1.7.67-3.17 1.63-4.43 2.89-1.21 1.21-2.17 2.68-2.88 4.37C.35 26.45 0 28.33 0 30.35c0 2.04.35 3.9 1.05 5.6.71 1.7 1.67 3.17 2.88 4.42 1.26 1.22 2.73 2.18 4.43 2.88 1.7.67 3.54 1 5.54 1 1.99 0 3.84-.33 5.53-1 1.7-.7 3.16-1.66 4.38-2.88a13.57 13.57 0 002.94-4.42c.7-1.7 1.05-3.56 1.05-5.6 0-2.02-.35-3.9-1.05-5.59-.71-1.69-1.69-3.16-2.94-4.37-1.22-1.26-2.68-2.22-4.38-2.89-1.69-.69-3.54-1.04-5.53-1.04zm31.66 0c-3.76 0-6.73.79-8.91 2.37-2.18 1.56-3.27 3.99-3.27 7.32v17.44h7.42V26.92c0-1.7.37-2.9 1.11-3.6.73-.74 1.93-1.11 3.6-1.11 1.66 0 2.86.37 3.59 1.11.75.7 1.11 1.9 1.11 3.6v16.67h7.53V26.15c0-3.33-1.09-5.76-3.26-7.32-2.18-1.58-5.15-2.37-8.92-2.37zm81.61 0c-3.74 0-6.67.79-8.81 2.37-2.14 1.56-3.21 3.99-3.21 7.32v17.44h7.37V26.92c0-1.7.34-2.9 1.05-3.6.7-.74 1.88-1.11 3.54-1.11 1.65 0 2.85.37 3.55 1.11.73.7 1.11 1.9 1.11 3.6v16.67h7.08V26.42c.07-1.51.48-2.58 1.22-3.21.73-.66 1.88-1 3.43-1 1.66 0 2.84.37 3.55 1.11.69.7 1.05 1.9 1.05 3.6v16.67h7.47V26.15c0-3.33-1.08-5.76-3.27-7.32-2.14-1.58-5.06-2.37-8.75-2.37-1.77 0-3.32.26-4.64.77-1.33.51-2.48 1.17-3.44 1.94-.96-.82-2.13-1.46-3.49-1.94-1.36-.51-2.97-.77-4.81-.77zm46.66 0c-1.88 0-3.6.31-5.15.94-1.51.59-2.83 1.45-3.94 2.6-1.1 1.1-1.97 2.48-2.6 4.09-.58 1.59-.89 3.38-.89 5.38 0 2.1.31 4.06.89 5.87.63 1.81 1.52 3.37 2.66 4.71 1.18 1.29 2.63 2.32 4.32 3.09 1.7.74 3.62 1.11 5.76 1.11 2.03 0 3.85-.27 5.48-.82 1.66-.6 3.06-1.47 4.2-2.61 1.19-1.15 2.09-2.58 2.72-4.32.63-1.73.95-3.77.95-6.09V17.12h-6.65v2.61c-.78-.9-1.79-1.65-3.05-2.28-1.25-.66-2.82-.99-4.7-.99zm70.55 0c-2.44 0-4.69.29-6.75.88-2.03.6-3.79 1.49-5.26 2.71-1.48 1.22-2.64 2.75-3.49 4.59-.81 1.81-1.22 3.96-1.22 6.43 0 2.36.41 4.4 1.22 6.09a10.79 10.79 0 003.44 4.1c1.5 1.04 3.28 1.79 5.31 2.27 2.06.48 4.35.72 6.87.72 1.06 0 2.08-.05 3.04-.16.99-.08 1.88-.17 2.65-.28v-5.93c-.62.15-1.34.27-2.14.34-.82.07-1.76.11-2.83.11-3.29 0-5.78-.57-7.48-1.72-1.7-1.18-2.54-3.09-2.54-5.76 0-2.99.83-5.15 2.49-6.48 1.69-1.32 4.17-2 7.42-2 1.1 0 2.02.04 2.76.13.78.07 1.5.17 2.16.32V16.9c-.77-.11-1.64-.2-2.6-.28-.96-.11-1.97-.16-3.05-.16zm23 0c-1.88 0-3.6.31-5.15.94-1.52.59-2.83 1.45-3.94 2.6-1.1 1.1-1.97 2.48-2.6 4.09-.58 1.59-.88 3.38-.88 5.38 0 2.1.3 4.06.88 5.87.63 1.81 1.52 3.37 2.66 4.71 1.18 1.29 2.63 2.32 4.32 3.09 1.7.74 3.62 1.11 5.77 1.11 2.02 0 3.84-.27 5.47-.82 1.67-.6 3.06-1.47 4.21-2.61 1.18-1.15 2.09-2.58 2.71-4.32.63-1.73.95-3.77.95-6.09V17.12h-6.65v2.61c-.77-.9-1.79-1.65-3.05-2.28-1.25-.66-2.82-.99-4.7-.99zm-53.58.66v26.47h7.53V17.12h-7.53zM13.9 22.37c1.95 0 3.51.68 4.65 2 1.15 1.33 1.72 3.33 1.72 5.98 0 2.67-.57 4.66-1.72 5.98-1.14 1.33-2.7 2-4.65 2-1.95 0-3.5-.67-4.65-2-1.14-1.32-1.72-3.31-1.72-5.98 0-2.65.58-4.65 1.72-5.98 1.15-1.32 2.7-2 4.65-2zm161.04 0c1.88 0 3.38.68 4.49 2 1.09 1.33 1.65 3.33 1.65 5.98 0 2.67-.56 4.66-1.65 5.98-1.11 1.33-2.61 2-4.49 2-1.88 0-3.38-.67-4.49-2-1.11-1.32-1.67-3.31-1.67-5.98 0-2.65.56-4.65 1.67-5.98 1.11-1.32 2.61-2 4.49-2zm93.55 0c1.88 0 3.38.68 4.48 2 1.1 1.33 1.66 3.33 1.66 5.98 0 2.67-.56 4.66-1.66 5.98-1.1 1.33-2.6 2-4.48 2-1.88 0-3.38-.67-4.49-2-1.11-1.32-1.67-3.31-1.67-5.98 0-2.65.56-4.65 1.67-5.98 1.11-1.32 2.61-2 4.49-2z" class="st1"/></g><g id="shape2-3" transform="translate(94.109 -2.747)"><path d="M14.12 4.82c-2.03 0-3.91.38-5.65 1.11-1.73.7-3.23 1.7-4.48 2.99-1.25 1.25-2.23 2.75-2.94 4.49C.35 15.15 0 17.04 0 19.11c0 2.07.35 3.98 1.05 5.71.71 1.74 1.69 3.24 2.94 4.53 1.25 1.27 2.75 2.26 4.48 3 1.74.7 3.62 1.05 5.65 1.05 2.03 0 3.91-.35 5.65-1.05 1.73-.74 3.23-1.73 4.48-3 1.26-1.29 2.24-2.79 2.94-4.53.7-1.73 1.06-3.64 1.06-5.71s-.36-3.96-1.06-5.7c-.7-1.74-1.68-3.24-2.94-4.49C23 7.63 21.5 6.63 19.77 5.93c-1.74-.73-3.62-1.11-5.65-1.11zm0 6.32c.96 0 1.82.2 2.61.61.77.4 1.41.96 1.93 1.66.55.7.98 1.55 1.27 2.54.3.97.45 2.02.45 3.16 0 1.15-.15 2.22-.45 3.21-.29.97-.72 1.79-1.27 2.5-.52.7-1.16 1.25-1.93 1.65-.79.41-1.65.61-2.61.61s-1.83-.2-2.6-.61c-.78-.4-1.44-.95-2-1.65-.52-.71-.92-1.53-1.22-2.5-.29-.99-.43-2.06-.43-3.21 0-1.14.14-2.19.43-3.16.3-.99.7-1.84 1.22-2.54.56-.7 1.22-1.26 2-1.66.77-.41 1.64-.61 2.6-.61zM1.82 37.66v6.59h24.59v-6.59H1.82z" class="st1"/></g></svg>