<svg xmlns="http://www.w3.org/2000/svg" viewBox="0 70 427 73" color-interpolation-filters="sRGB" fill="none" fill-rule="evenodd" font-size="12" overflow="visible" stroke-linecap="square" stroke-miterlimit="3"><style>.st1{fill:#1f64ff;stroke:none;stroke-width:1.71}</style><g id="shape1-1" transform="translate(17.452 -8.682)"><path d="M304.85 18.28c-1.81 0-3.26.63-4.35 1.87-1.08 1.2-1.63 2.68-1.63 4.49 0 1.82.55 3.37 1.63 4.66 1.09 1.24 2.51 1.86 4.26 1.86 1.81 0 3.27-.62 4.35-1.86 1.08-1.29 1.63-2.84 1.63-4.66 0-1.81-.55-3.29-1.63-4.49-1.08-1.24-2.51-1.87-4.26-1.87zM89.46 24.41v33.12c0 2.42.36 4.57 1.08 6.44.73 1.85 1.73 3.43 3.03 4.73 1.35 1.24 2.92 2.19 4.73 2.86 1.86.67 3.9 1.01 6.12 1.01 1.24 0 2.41-.08 3.5-.22 1.08-.16 1.93-.37 2.55-.63V62.8c-.72.25-1.47.47-2.24.63-.73.15-1.64.22-2.72.22-1.76 0-3.12-.57-4.11-1.71-.94-1.18-1.39-2.66-1.39-4.41V43.65h9.3v-8.14h-9.3v-11.1H89.46zm182.81 0v33.12c0 2.42.38 4.57 1.09 6.44.72 1.85 1.74 3.43 3.02 4.73 1.35 1.24 2.92 2.19 4.74 2.86 1.86.67 3.89 1.01 6.13 1.01 1.23 0 2.4-.08 3.48-.22 1.08-.16 1.95-.37 2.56-.63V62.8c-.72.25-1.46.47-2.25.63-.72.15-1.62.22-2.71.22-1.76 0-3.13-.57-4.11-1.71-.93-1.18-1.4-2.66-1.4-4.41V43.65h9.3v-8.14h-9.3v-11.1h-10.55zM19.47 34.58c-2.8 0-5.38.49-7.76 1.46-2.38.94-4.44 2.28-6.21 4.04-1.7 1.7-3.03 3.75-4.03 6.13C.48 48.58 0 51.2 0 54.03c0 2.85.48 5.46 1.47 7.84 1 2.38 2.33 4.45 4.03 6.2 1.77 1.71 3.83 3.05 6.21 4.03 2.38.94 4.96 1.4 7.76 1.4 2.79 0 5.37-.46 7.75-1.4 2.38-.98 4.42-2.32 6.12-4.03 1.76-1.75 3.13-3.82 4.12-6.2.99-2.38 1.47-4.99 1.47-7.84 0-2.83-.48-5.45-1.47-7.82-.99-2.38-2.36-4.43-4.12-6.13-1.7-1.76-3.74-3.1-6.12-4.04-2.38-.97-4.96-1.46-7.75-1.46zm44.34 0c-5.27 0-9.43 1.1-12.48 3.32-3.05 2.18-4.58 5.59-4.58 10.25v24.42h10.39V49.23c0-2.38.52-4.06 1.56-5.04 1.02-1.04 2.7-1.56 5.04-1.56 2.32 0 4 .52 5.03 1.56 1.04.98 1.55 2.66 1.55 5.04v23.34h10.55V48.15c0-4.66-1.53-8.07-4.58-10.25-3.05-2.22-7.21-3.32-12.48-3.32zm114.29 0c-5.23 0-9.34 1.1-12.34 3.32-3 2.18-4.49 5.59-4.49 10.25v24.42h10.31V49.23c0-2.38.49-4.06 1.47-5.04.99-1.04 2.64-1.56 4.96-1.56s3.99.52 4.97 1.56c1.03.98 1.56 2.66 1.56 5.04v23.34h9.92V48.53c.1-2.12.67-3.62 1.71-4.5 1.02-.93 2.63-1.4 4.8-1.4 2.32 0 3.97.52 4.97 1.56.97.98 1.47 2.66 1.47 5.04v23.34h10.46V48.15c0-4.66-1.51-8.07-4.58-10.25-2.99-2.22-7.08-3.32-12.25-3.32-2.48 0-4.65.36-6.5 1.07-1.87.73-3.48 1.64-4.82 2.72-1.34-1.14-2.97-2.03-4.88-2.72-1.91-.71-4.16-1.07-6.74-1.07zm65.35 0c-2.64 0-5.05.43-7.21 1.31-2.13.83-3.97 2.04-5.52 3.65-1.54 1.54-2.76 3.47-3.65 5.73-.81 2.22-1.24 4.73-1.24 7.52 0 2.95.43 5.69 1.24 8.23.89 2.53 2.14 4.73 3.74 6.59 1.65 1.81 3.67 3.25 6.04 4.34 2.38 1.04 5.07 1.55 8.06 1.55 2.85 0 5.41-.38 7.69-1.15 2.32-.84 4.28-2.06 5.88-3.65 1.67-1.61 2.92-3.62 3.81-6.06.88-2.42 1.32-5.27 1.32-8.52V35.51h-9.3v3.65c-1.1-1.26-2.51-2.31-4.28-3.19-1.75-.93-3.95-1.39-6.58-1.39zm98.81 0c-3.42 0-6.57.4-9.47 1.23-2.83.84-5.3 2.09-7.36 3.8-2.07 1.71-3.69 3.85-4.89 6.43-1.13 2.54-1.71 5.54-1.71 9.01 0 3.3.58 6.15 1.71 8.52 1.14 2.33 2.75 4.24 4.82 5.74 2.1 1.45 4.6 2.51 7.43 3.18 2.9.67 6.1 1.01 9.62 1.01 1.5 0 2.92-.07 4.26-.23 1.4-.11 2.64-.23 3.72-.38v-8.31c-.87.21-1.88.37-3 .47-1.14.1-2.47.16-3.97.16-4.6 0-8.09-.8-10.47-2.41-2.38-1.65-3.56-4.33-3.56-8.07 0-4.19 1.17-7.21 3.49-9.07 2.37-1.86 5.84-2.8 10.39-2.8 1.55 0 2.83.06 3.87.17 1.09.1 2.1.25 3.03.46V35.2c-1.09-.16-2.3-.29-3.65-.39-1.34-.16-2.75-.23-4.26-.23zm32.2 0c-2.63 0-5.04.43-7.21 1.31-2.12.83-3.96 2.04-5.51 3.65-1.54 1.54-2.77 3.47-3.65 5.73-.81 2.22-1.23 4.73-1.23 7.52 0 2.95.42 5.69 1.23 8.23.88 2.53 2.14 4.73 3.73 6.59 1.65 1.81 3.68 3.25 6.04 4.34 2.38 1.04 5.08 1.55 8.08 1.55 2.84 0 5.39-.38 7.67-1.15 2.34-.84 4.29-2.06 5.9-3.65 1.65-1.61 2.92-3.62 3.79-6.06.88-2.42 1.33-5.27 1.33-8.52V35.51h-9.31v3.65c-1.08-1.26-2.51-2.31-4.27-3.19-1.76-.93-3.95-1.39-6.59-1.39zm-75.04.93v37.06h10.55V35.51h-10.55zM19.47 42.86c2.73 0 4.91.94 6.51 2.8 1.61 1.86 2.41 4.66 2.41 8.37 0 3.74-.8 6.53-2.41 8.38-1.6 1.86-3.78 2.8-6.51 2.8-2.74 0-4.91-.94-6.52-2.8-1.59-1.85-2.4-4.64-2.4-8.38 0-3.71.81-6.51 2.4-8.37 1.61-1.86 3.78-2.8 6.52-2.8zm225.53 0c2.64 0 4.73.94 6.28 2.8 1.54 1.86 2.33 4.66 2.33 8.37 0 3.74-.79 6.53-2.33 8.38-1.55 1.86-3.64 2.8-6.28 2.8s-4.73-.94-6.28-2.8c-1.56-1.85-2.34-4.64-2.34-8.38 0-3.71.78-6.51 2.34-8.37 1.55-1.86 3.64-2.8 6.28-2.8zm131.01 0c2.64 0 4.74.94 6.29 2.8 1.54 1.86 2.32 4.66 2.32 8.37 0 3.74-.78 6.53-2.32 8.38-1.55 1.86-3.65 2.8-6.29 2.8-2.63 0-4.73-.94-6.28-2.8-1.55-1.85-2.34-4.64-2.34-8.38 0-3.71.79-6.51 2.34-8.37 1.55-1.86 3.65-2.8 6.28-2.8z" class="st1"/></g><g id="shape2-3" transform="translate(131.799 -9.61)"><path d="M19.78 18.28c-2.85 0-5.49.53-7.92 1.55-2.43.99-4.52 2.38-6.27 4.19-1.76 1.76-3.12 3.85-4.12 6.29C.48 32.74 0 35.4 0 38.29c0 2.91.48 5.57 1.47 7.99 1 2.44 2.36 4.55 4.12 6.36 1.75 1.77 3.84 3.16 6.27 4.19 2.43.98 5.07 1.48 7.92 1.48 2.83 0 5.47-.5 7.91-1.48 2.42-1.03 4.52-2.42 6.27-4.19 1.76-1.81 3.13-3.92 4.12-6.36.98-2.42 1.48-5.08 1.48-7.99 0-2.89-.5-5.55-1.48-7.98-.99-2.44-2.36-4.53-4.12-6.29-1.75-1.81-3.85-3.2-6.27-4.19-2.44-1.02-5.08-1.55-7.91-1.55zm0 8.85c1.34 0 2.55.29 3.65.86 1.08.55 1.98 1.34 2.7 2.32.77.98 1.37 2.16 1.79 3.56.41 1.35.62 2.82.62 4.42 0 1.61-.21 3.1-.62 4.5-.42 1.36-1.02 2.51-1.79 3.49-.72.99-1.62 1.76-2.7 2.33-1.1.57-2.31.85-3.65.85-1.35 0-2.57-.28-3.65-.85a8.654 8.654 0 01-2.79-2.33c-.73-.98-1.3-2.13-1.71-3.49-.42-1.4-.61-2.89-.61-4.5 0-1.6.19-3.07.61-4.42.41-1.4.98-2.58 1.71-3.56.78-.98 1.71-1.77 2.79-2.32 1.08-.57 2.3-.86 3.65-.86zM2.55 64.27v9.23h34.44v-9.23H2.55z" class="st1"/></g></svg>