<svg xmlns="http://www.w3.org/2000/svg" viewBox="0 0 225 42" color-interpolation-filters="sRGB" fill="none" fill-rule="evenodd" font-size="12" overflow="visible" stroke-linecap="square" stroke-miterlimit="3"><style>.st1{fill:#000;stroke:none;stroke-width:.9}</style><g id="shape1-1" transform="translate(8.652 -6.225)"><path d="M160.44 12.94c-.95 0-1.71.33-2.28.98-.57.63-.86 1.41-.86 2.37 0 .95.29 1.77.86 2.45.57.65 1.32.98 2.24.98.96 0 1.72-.33 2.29-.98.57-.68.85-1.5.85-2.45 0-.96-.28-1.74-.85-2.37-.57-.65-1.32-.98-2.25-.98zM47.08 16.16V33.6c0 1.27.19 2.4.57 3.38.39.98.91 1.81 1.59 2.49.71.65 1.55 1.16 2.5 1.51.98.35 2.05.53 3.22.53.65 0 1.27-.04 1.84-.12.57-.08 1.02-.19 1.34-.33v-4.69c-.38.13-.77.24-1.18.32-.38.09-.86.13-1.43.13-.92 0-1.65-.3-2.16-.9-.49-.63-.74-1.4-.74-2.32v-7.31h4.9V22h-4.9v-5.84h-5.55zm96.22 0V33.6c0 1.27.2 2.4.57 3.38.39.98.92 1.81 1.6 2.49.71.65 1.53 1.16 2.49 1.51.98.35 2.05.53 3.22.53.65 0 1.27-.04 1.84-.12.57-.08 1.02-.19 1.34-.33v-4.69c-.38.13-.77.24-1.18.32-.38.09-.86.13-1.43.13-.92 0-1.64-.3-2.16-.9-.49-.63-.73-1.4-.73-2.32v-7.31h4.89V22h-4.89v-5.84h-5.56zM10.24 21.51c-1.46 0-2.82.26-4.08.78-1.25.49-2.34 1.19-3.26 2.12-.9.9-1.61 1.97-2.12 3.23C.26 28.89 0 30.26 0 31.76c0 1.49.26 2.87.78 4.12.51 1.25 1.22 2.34 2.12 3.26.92.9 2.01 1.61 3.26 2.13 1.26.49 2.62.73 4.08.73 1.47 0 2.83-.24 4.09-.73a9.835 9.835 0 003.22-2.13c.93-.92 1.65-2.01 2.16-3.26.52-1.25.78-2.63.78-4.12 0-1.5-.26-2.87-.78-4.12a9.265 9.265 0 00-2.16-3.23c-.9-.93-1.97-1.63-3.22-2.12-1.26-.52-2.62-.78-4.09-.78zm23.35 0c-2.78 0-4.97.59-6.57 1.76-1.61 1.14-2.42 2.94-2.42 5.38v12.86h5.47V29.23c0-1.26.28-2.14.82-2.66.55-.54 1.43-.81 2.66-.81 1.22 0 2.1.27 2.65.81.54.52.81 1.4.81 2.66v12.28h5.55V28.65c0-2.44-.8-4.24-2.4-5.38-1.61-1.17-3.8-1.76-6.57-1.76zm60.14 0c-2.74 0-4.91.59-6.49 1.76-1.57 1.14-2.37 2.94-2.37 5.38v12.86h5.44V29.23c0-1.26.25-2.14.77-2.66.52-.54 1.39-.81 2.61-.81 1.23 0 2.1.27 2.62.81.54.52.81 1.4.81 2.66v12.28h5.23V28.86c.05-1.12.35-1.9.89-2.37.55-.49 1.39-.73 2.53-.73 1.23 0 2.1.27 2.62.81.51.52.77 1.4.77 2.66v12.28h5.51V28.65c0-2.44-.8-4.24-2.41-5.38-1.58-1.17-3.73-1.76-6.45-1.76-1.3 0-2.45.19-3.42.57-.98.39-1.83.86-2.53 1.43-.71-.6-1.57-1.07-2.58-1.43-1-.38-2.19-.57-3.55-.57zm34.4 0c-1.39 0-2.65.23-3.8.7a7.977 7.977 0 00-2.89 1.91c-.82.82-1.46 1.83-1.92 3.02-.44 1.18-.66 2.5-.66 3.96 0 1.55.22 3 .66 4.33.46 1.33 1.11 2.49 1.96 3.47.87.95 1.93 1.71 3.18 2.28 1.25.55 2.67.82 4.24.82 1.5 0 2.85-.2 4.04-.61 1.23-.44 2.26-1.07 3.11-1.92.87-.84 1.53-1.9 2-3.18.46-1.28.69-2.78.69-4.49V22h-4.9v1.92c-.57-.65-1.32-1.21-2.24-1.67-.93-.49-2.08-.74-3.47-.74zm52.01 0c-1.8 0-3.46.22-4.98.65-1.5.44-2.79 1.11-3.88 2-1.09.9-1.95 2.03-2.57 3.39-.6 1.34-.9 2.91-.9 4.74 0 1.74.3 3.24.9 4.49a7.97 7.97 0 002.53 3.02c1.11.76 2.42 1.32 3.92 1.67 1.52.35 3.21.53 5.06.53.79 0 1.53-.04 2.24-.12.74-.06 1.39-.12 1.96-.2v-4.37c-.46.11-.99.19-1.59.24-.6.06-1.29.09-2.08.09-2.42 0-4.26-.43-5.51-1.27-1.25-.87-1.88-2.29-1.88-4.25 0-2.2.61-3.79 1.84-4.77 1.25-.98 3.07-1.47 5.47-1.47.81 0 1.49.03 2.04.08.57.05 1.1.13 1.59.25v-4.37c-.57-.08-1.21-.15-1.92-.2-.71-.09-1.45-.13-2.24-.13zm16.95 0c-1.39 0-2.66.23-3.8.7a8.016 8.016 0 00-2.9 1.91c-.82.82-1.46 1.83-1.92 3.02-.43 1.18-.65 2.5-.65 3.96 0 1.55.22 3 .65 4.33.46 1.33 1.12 2.49 1.96 3.47.87.95 1.93 1.71 3.18 2.28 1.26.55 2.67.82 4.25.82 1.5 0 2.84-.2 4.04-.61 1.23-.44 2.26-1.07 3.1-1.92.87-.84 1.54-1.9 2-3.18.46-1.28.7-2.78.7-4.49V22h-4.9v1.92c-.57-.65-1.32-1.21-2.25-1.67-.92-.49-2.08-.74-3.46-.74zm-39.5.49v19.51h5.55V22h-5.55zM10.25 25.88c1.44 0 2.58.49 3.42 1.47.85.98 1.27 2.45 1.27 4.41s-.42 3.43-1.27 4.41c-.84.97-1.98 1.47-3.42 1.47s-2.59-.5-3.43-1.47c-.85-.98-1.27-2.45-1.27-4.41s.42-3.43 1.27-4.41c.84-.98 1.99-1.47 3.43-1.47zm118.7 0c1.38 0 2.49.49 3.3 1.47.82.98 1.23 2.45 1.23 4.41s-.41 3.43-1.23 4.41c-.81.97-1.92 1.47-3.3 1.47-1.39 0-2.5-.5-3.31-1.47-.82-.98-1.23-2.45-1.23-4.41s.41-3.43 1.23-4.41c.81-.98 1.92-1.47 3.31-1.47zm68.95 0c1.39 0 2.49.49 3.31 1.47.81.98 1.22 2.45 1.22 4.41s-.41 3.43-1.22 4.41c-.82.97-1.92 1.47-3.31 1.47-1.39 0-2.49-.5-3.31-1.47-.81-.98-1.22-2.45-1.22-4.41s.41-3.43 1.22-4.41c.82-.98 1.92-1.47 3.31-1.47z" class="st1"/></g><g id="shape2-3" transform="translate(68.834 -6.715)"><path d="M10.41 12.94c-1.5 0-2.89.27-4.17.82a9.463 9.463 0 00-3.3 2.2c-.93.92-1.65 2.03-2.16 3.31-.52 1.28-.78 2.68-.78 4.2 0 1.53.26 2.93.78 4.21.51 1.28 1.23 2.39 2.16 3.34.92.93 2.03 1.66 3.3 2.21 1.28.51 2.67.77 4.17.77 1.49 0 2.88-.26 4.16-.77 1.28-.55 2.38-1.28 3.31-2.21.92-.95 1.64-2.06 2.16-3.34.52-1.28.78-2.68.78-4.21 0-1.52-.26-2.92-.78-4.2-.52-1.28-1.24-2.39-2.16-3.31a9.504 9.504 0 00-3.31-2.2c-1.28-.55-2.67-.82-4.16-.82zm0 4.65c.7 0 1.34.15 1.92.45.57.3 1.05.71 1.42 1.23.41.51.72 1.14.95 1.88.21.7.32 1.48.32 2.32 0 .85-.11 1.63-.32 2.37-.23.71-.54 1.32-.95 1.84-.37.51-.85.92-1.42 1.22-.58.3-1.22.45-1.92.45-.71 0-1.35-.15-1.92-.45a4.66 4.66 0 01-1.47-1.22 6.19 6.19 0 01-.9-1.84c-.22-.74-.33-1.52-.33-2.37 0-.84.11-1.62.33-2.32.22-.74.52-1.37.9-1.88.41-.52.9-.93 1.47-1.23.57-.3 1.21-.45 1.92-.45zM1.35 37.14V42h18.12v-4.86H1.35z" class="st1"/></g></svg>