<svg id="Layer_1" data-name="Layer 1" xmlns="http://www.w3.org/2000/svg" viewBox="0 0 114 114"><defs><style>.cls-1{fill:#31e981;}.cls-2{fill:#35605a;}</style></defs><path class="cls-1" d="M51.81,106.77a4.82,4.82,0,0,1-2.58-8.9c.78-.51,18.14-12.1,5.35-38-16.25-32.91.58-50.29,1.3-51a4.83,4.83,0,0,1,6.83,6.83c-.49.5-12.51,13.52.52,39.92,16.76,34-8.61,50.29-8.87,50.45A4.85,4.85,0,0,1,51.81,106.77Z"/><path class="cls-1" d="M79.72,67.38l-1.16,0a4.83,4.83,0,1,1,.33-9.65,24.37,24.37,0,0,0,18.25-7.19,24.63,24.63,0,0,0,7.15-19.18,4.82,4.82,0,1,1,9.62-.69A34.26,34.26,0,0,1,79.72,67.38Z"/><path class="cls-1" d="M100.55,56.61a2.64,2.64,0,0,1-1.89-.79L78.32,35.48a2.68,2.68,0,0,1,3.79-3.79L102.45,52a2.69,2.69,0,0,1-1.9,4.58Z"/><path class="cls-2" d="M74.69,42.78a10.71,10.71,0,0,1,2-19.29h0A3.56,3.56,0,0,0,78,21.92a3.53,3.53,0,0,0-1.21-4.37h0a6,6,0,1,1,9-1.47,5.83,5.83,0,0,1-1.56,1.71h0a3.4,3.4,0,0,0-1.24,1.45,3.56,3.56,0,0,0,1.15,4.36v0a10.17,10.17,0,0,1,1.63.79,10.71,10.71,0,1,1-11,18.36Z"/><path class="cls-1" d="M4.9,88.23A4.82,4.82,0,0,1,.09,83.75,34.26,34.26,0,0,1,35.44,47a4.83,4.83,0,1,1-.33,9.65A24.61,24.61,0,0,0,9.71,83.06a4.82,4.82,0,0,1-4.46,5.16Z"/><path class="cls-1" d="M33.39,83.09a2.7,2.7,0,0,1-1.9-.78l-19.94-20a2.68,2.68,0,0,1,3.79-3.79L35.28,78.52a2.68,2.68,0,0,1-1.89,4.57Z"/><path class="cls-2" d="M27.87,71.22a10.72,10.72,0,0,0,2,19.29h0a3.65,3.65,0,0,1,1.32,1.57,3.53,3.53,0,0,1-1.22,4.37h0a6,6,0,1,0,9,1.47,5.8,5.8,0,0,0-1.55-1.71h0a3.35,3.35,0,0,1-1.25-1.45,3.57,3.57,0,0,1,1.15-4.36v0a9.87,9.87,0,0,0,1.64-.79,10.71,10.71,0,1,0-11-18.36Z"/></svg>