<svg id="Layer_1" data-name="Layer 1" xmlns="http://www.w3.org/2000/svg" viewBox="0 0 152 152"><defs><style>.cls-1{fill:#31e981;}.cls-2{fill:#35605a;}</style></defs><path class="cls-1" d="M69.08,142.36a6.43,6.43,0,0,1-3.44-11.87c1-.67,24.18-16.13,7.13-50.68-21.66-43.88.78-67.06,1.74-68a6.43,6.43,0,0,1,9.1,9.1c-.64.67-16.67,18,.7,53.23,22.34,45.27-11.48,67-11.83,67.27A6.39,6.39,0,0,1,69.08,142.36Z"/><path class="cls-1" d="M106.29,89.83c-.51,0-1,0-1.54,0A6.43,6.43,0,0,1,105.19,77a32.82,32.82,0,0,0,33.86-35.16,6.43,6.43,0,1,1,12.83-.92,45.66,45.66,0,0,1-45.59,49Z"/><path class="cls-1" d="M134.07,75.48a3.58,3.58,0,0,1-2.53-1L104.42,47.31a3.57,3.57,0,1,1,5.06-5.05L136.6,69.38a3.58,3.58,0,0,1-2.53,6.1Z"/><path class="cls-2" d="M99.59,57.05a14.28,14.28,0,0,1,2.62-25.72h0A4.9,4.9,0,0,0,104,29.23a4.71,4.71,0,0,0-1.62-5.82v0a8,8,0,1,1,12-2,7.74,7.74,0,0,1-2.07,2.29h0a4.54,4.54,0,0,0-1.66,1.93,4.79,4.79,0,0,0,1.52,5.83h0a13.78,13.78,0,0,1,2.19,1.06A14.28,14.28,0,0,1,99.59,57.05Z"/><path class="cls-1" d="M6.53,117.64a6.43,6.43,0,0,1-6.41-6A45.69,45.69,0,0,1,47.25,62.72a6.43,6.43,0,1,1-.44,12.86A32.83,32.83,0,0,0,13,110.74,6.42,6.42,0,0,1,7,117.62Z"/><path class="cls-1" d="M44.52,110.79A3.56,3.56,0,0,1,42,109.74L15.4,83.15a3.57,3.57,0,0,1,5.06-5.05l26.59,26.59a3.58,3.58,0,0,1-2.53,6.1Z"/><path class="cls-2" d="M37.16,95a14.28,14.28,0,0,0,2.63,25.72h0a4.81,4.81,0,0,1,1.75,2.09,4.68,4.68,0,0,1-1.62,5.82v0a8,8,0,1,0,12,2,7.78,7.78,0,0,0-2.08-2.29h0a4.61,4.61,0,0,1-1.66-1.93,4.79,4.79,0,0,1,1.53-5.83h0a13.69,13.69,0,0,0,2.18-1.06A14.28,14.28,0,0,0,37.16,95Z"/></svg>