<svg id="Layer_1" data-name="Layer 1" xmlns="http://www.w3.org/2000/svg" viewBox="0 0 180 180"><defs><style>.cls-1{fill:#31e981;}.cls-2{fill:#35605a;}</style></defs><path class="cls-1" d="M81.81,168.59a7.63,7.63,0,0,1-4.08-14.07c1.23-.79,28.64-19.09,8.45-60-25.65-52,.91-79.42,2.06-80.56A7.62,7.62,0,0,1,99,24.74c-.76.79-19.74,21.35.83,63,26.46,53.61-13.6,79.41-14,79.66A7.57,7.57,0,0,1,81.81,168.59Z"/><path class="cls-1" d="M125.87,106.38q-.91,0-1.83,0a7.62,7.62,0,0,1,.52-15.23,38.86,38.86,0,0,0,40.1-41.63,7.62,7.62,0,1,1,15.2-1.09,54.08,54.08,0,0,1-54,58Z"/><path class="cls-1" d="M158.77,89.38a4.19,4.19,0,0,1-3-1.24L123.66,56a4.23,4.23,0,1,1,6-6l32.12,32.12a4.23,4.23,0,0,1-3,7.22Z"/><path class="cls-2" d="M117.93,67.55A16.9,16.9,0,0,1,121,37.1h0a5.81,5.81,0,0,0,2.08-2.49,5.57,5.57,0,0,0-1.92-6.89v0a9.42,9.42,0,1,1,14.18-2.32,9.3,9.3,0,0,1-2.46,2.71h0a5.37,5.37,0,0,0-2,2.29,5.66,5.66,0,0,0,1.81,6.9v0a15.71,15.71,0,0,1,2.58,1.25,16.91,16.91,0,1,1-17.42,29Z"/><path class="cls-1" d="M7.73,139.31a7.62,7.62,0,0,1-7.59-7.08A54.09,54.09,0,0,1,56,74.28a7.62,7.62,0,0,1-.52,15.23,38.86,38.86,0,0,0-40.1,41.63,7.62,7.62,0,0,1-7.06,8.15Z"/><path class="cls-1" d="M52.72,131.2a4.19,4.19,0,0,1-3-1.24L18.24,98.47a4.23,4.23,0,1,1,6-6L55.71,124a4.24,4.24,0,0,1-3,7.23Z"/><path class="cls-2" d="M44,112.45a16.9,16.9,0,0,0,3.11,30.45h0a5.72,5.72,0,0,1,2.07,2.49,5.55,5.55,0,0,1-1.91,6.89v0A9.42,9.42,0,1,0,59,151.91h0a5.37,5.37,0,0,1-2-2.29,5.66,5.66,0,0,1,1.8-6.9v0a16.2,16.2,0,0,0,2.59-1.25,16.91,16.91,0,1,0-17.42-29Z"/></svg>