<svg id="Layer_1" data-name="Layer 1" xmlns="http://www.w3.org/2000/svg" viewBox="0 0 192 192"><defs><style>.cls-1{fill:#31e981;}.cls-2{fill:#35605a;}</style></defs><path class="cls-1" d="M87.26,179.82a8.12,8.12,0,0,1-4.35-15c1.32-.85,30.55-20.38,9-64-27.36-55.43,1-84.71,2.2-85.93a8.13,8.13,0,1,1,11.49,11.5c-.81.85-21.06,22.78.89,67.23,28.22,57.19-14.51,84.7-14.94,85A8.06,8.06,0,0,1,87.26,179.82Z"/><path class="cls-1" d="M134.26,113.48c-.65,0-1.3,0-1.95,0a8.12,8.12,0,1,1,.56-16.24,41.45,41.45,0,0,0,42.77-44.41,8.13,8.13,0,1,1,16.21-1.17,57.72,57.72,0,0,1-57.59,61.86Z"/><path class="cls-1" d="M169.35,95.34A4.51,4.51,0,0,1,166.16,94L131.9,59.76a4.51,4.51,0,1,1,6.39-6.38l34.26,34.26a4.51,4.51,0,0,1-3.2,7.7Z"/><path class="cls-2" d="M125.79,72.06a18,18,0,0,1,3.32-32.49h0a6.17,6.17,0,0,0,2.22-2.65,5.93,5.93,0,0,0-2.05-7.35v0a10.06,10.06,0,1,1,12.5.42h0a5.72,5.72,0,0,0-2.09,2.43,6,6,0,0,0,1.93,7.36v0a18.44,18.44,0,0,1,2.76,1.34,18,18,0,0,1-18.59,30.93Z"/><path class="cls-1" d="M8.25,148.6a8.13,8.13,0,0,1-8.1-7.55A57.71,57.71,0,0,1,59.69,79.23a8.13,8.13,0,0,1-.56,16.25,41,41,0,0,0-30.74,12.11,41.45,41.45,0,0,0-12,32.3,8.13,8.13,0,0,1-7.52,8.68Z"/><path class="cls-1" d="M56.23,140A4.52,4.52,0,0,1,53,138.62L19.45,105a4.52,4.52,0,1,1,6.39-6.39l33.59,33.59a4.52,4.52,0,0,1-3.2,7.71Z"/><path class="cls-2" d="M46.94,119.94a18,18,0,0,0,3.32,32.49h0a6.15,6.15,0,0,1,2.21,2.65,5.91,5.91,0,0,1-2,7.35v0a10.06,10.06,0,1,0,12.5-.42h0a5.72,5.72,0,0,1-2.09-2.43,6,6,0,0,1,1.93-7.36v0a18.44,18.44,0,0,0,2.76-1.34,18,18,0,0,0-18.59-30.93Z"/></svg>