<svg id="Layer_1" data-name="Layer 1" xmlns="http://www.w3.org/2000/svg" viewBox="0 0 72 72"><defs><style>.cls-1{fill:#31e981;}.cls-2{fill:#35605a;}</style></defs><path class="cls-1" d="M32.72,67.43A3,3,0,0,1,30.14,66a3,3,0,0,1,.95-4.19c.5-.32,11.46-7.64,3.38-24C24.21,17,34.84,6,35.29,5.58A3.05,3.05,0,0,1,39.6,9.9c-.3.31-7.89,8.54.34,25.21C50.52,56.55,34.5,66.87,34.33,67A3.05,3.05,0,0,1,32.72,67.43Z"/><path class="cls-1" d="M50.35,42.55h-.73a3,3,0,1,1,.21-6.09,15.54,15.54,0,0,0,16-16.66,3,3,0,0,1,6.08-.43A21.62,21.62,0,0,1,50.35,42.55Z"/><path class="cls-1" d="M63.51,35.75a1.68,1.68,0,0,1-1.2-.49L49.46,22.41A1.69,1.69,0,1,1,51.86,20L64.7,32.86a1.69,1.69,0,0,1-1.19,2.89Z"/><path class="cls-2" d="M47.17,27a6.76,6.76,0,0,1-2.31-9.28,6.68,6.68,0,0,1,3.56-2.9h0a2.35,2.35,0,0,0,.83-1,2.22,2.22,0,0,0-.77-2.75h0a3.77,3.77,0,1,1,5.67-.93,3.81,3.81,0,0,1-1,1.09h0a2.22,2.22,0,0,0-.79.92,2.25,2.25,0,0,0,.73,2.75h0a7,7,0,0,1,1,.5,6.77,6.77,0,1,1-7,11.6Z"/><path class="cls-1" d="M3.09,55.72a3,3,0,0,1-3-2.83A21.64,21.64,0,0,1,22.38,29.71a3,3,0,0,1-.21,6.09,15.55,15.55,0,0,0-16,16.66,3.06,3.06,0,0,1-2.83,3.26Z"/><path class="cls-1" d="M21.09,52.48a1.69,1.69,0,0,1-1.2-.5L7.3,39.39A1.69,1.69,0,1,1,9.69,37l12.6,12.6a1.69,1.69,0,0,1,0,2.39A1.72,1.72,0,0,1,21.09,52.48Z"/><path class="cls-2" d="M17.6,45a6.76,6.76,0,0,0-2.31,9.28,6.68,6.68,0,0,0,3.56,2.9h0a2.35,2.35,0,0,1,.83,1,2.22,2.22,0,0,1-.77,2.75h0a3.77,3.77,0,1,0,5.67.93,3.81,3.81,0,0,0-1-1.09h0a2.22,2.22,0,0,1-.79-.92,2.26,2.26,0,0,1,.73-2.75h0a7,7,0,0,0,1-.5,6.77,6.77,0,1,0-7-11.6Z"/></svg>