<svg id="Layer_1" data-name="Layer 1" xmlns="http://www.w3.org/2000/svg" viewBox="0 0 341.75 140">
<path style="fill:#ffc200" d="M75.39,60.2a6.52,6.52,0,0,1-6.46,5.73,6.91,6.91,0,0,1-.78,0,6.5,6.5,0,0,1-5.69-7.23,6.42,6.42,0,0,1,1.61-3.58A6.52,6.52,0,0,1,75.39,60.2Z"/><path style="fill:#1c1c28" d="M110.17,59.48A38.93,38.93,0,0,1,71.92,98H70.45A28.27,28.27,0,0,1,61.36,43.2a17.92,17.92,0,1,0,8.69-1.73H70a38.35,38.35,0,0,0-5.18.5,39,39,0,0,0,6.39,77.45H24.84A4.84,4.84,0,0,1,20,114.58V24.84A4.84,4.84,0,0,1,24.84,20H70.46C92.17,20,110.43,37.77,110.17,59.48Z"/><path style="fill:#1c1c28" d="M118.66,41.56H138.8V96.79a7.34,7.34,0,0,0,1.32,4.71,4.67,4.67,0,0,0,3.87,1.65,9.84,9.84,0,0,0,2.76-.43,11.84,11.84,0,0,0,2.75-1.16l2.55,14.84a37.46,37.46,0,0,1-8.11,2.65,41.71,41.71,0,0,1-8.53,1q-8.07,0-12.41-4.19t-4.34-11.92Z"/><path style="fill:#1c1c28" d="M153.64,102.4a16.12,16.12,0,0,1,3.07-9.75A20.45,20.45,0,0,1,165.24,86a30.67,30.67,0,0,1,12.46-2.4,35,35,0,0,1,6.2.53,19.2,19.2,0,0,1,5,1.59V84.07c0-2.52-.76-4.38-2.27-5.6s-4-1.82-7.37-1.82a24.73,24.73,0,0,0-8.75,1.53A43,43,0,0,0,162,82.69l-5.83-12.51A43.58,43.58,0,0,1,168,64.83a48.64,48.64,0,0,1,13.3-1.75q13.26,0,20.51,5.85t7.26,17.32V96.81a6.59,6.59,0,0,0,.85,3.88,4.12,4.12,0,0,0,3,1.29v17c-1.63.35-3.16.62-4.61.8a33.74,33.74,0,0,1-3.87.26q-5.4,0-8.21-2a9.09,9.09,0,0,1-3.66-5.78l-.43-2a25.6,25.6,0,0,1-8.58,7.26A22.54,22.54,0,0,1,173.14,120a21.36,21.36,0,0,1-10-2.29,17.74,17.74,0,0,1-7-6.3A16.45,16.45,0,0,1,153.64,102.4Zm32.64,1.18a8.33,8.33,0,0,0,1.91-1.75,3.14,3.14,0,0,0,.74-2V96a25.83,25.83,0,0,0-3.87-1,22.1,22.1,0,0,0-3.86-.4,10.51,10.51,0,0,0-6.1,1.71,5.06,5.06,0,0,0-2.49,4.31,4.18,4.18,0,0,0,.85,2.55,5.53,5.53,0,0,0,2.33,1.8,8.27,8.27,0,0,0,3.39.66A13.89,13.89,0,0,0,183,105,11.87,11.87,0,0,0,186.28,103.58Z"/><path style="fill:#1c1c28" d="M258.68,115.76q-2.76,1.17-5.88,2.17a42.69,42.69,0,0,1-6.36,1.54,39.41,39.41,0,0,1-6.31.53,22.66,22.66,0,0,1-8.37-1.5,12.74,12.74,0,0,1-6.1-5q-2.28-3.48-2.28-9.4v-25h-6.89V63.93h6.89V46.44h20.14V63.93h10.92V79.09H243.52V96.86a4.91,4.91,0,0,0,1.17,3.73,4.5,4.5,0,0,0,3.18,1.07,12.55,12.55,0,0,0,3.39-.53,38,38,0,0,0,3.82-1.27Z"/><path style="fill:#1c1c28" d="M291.22,76.38a13.09,13.09,0,1,1-13.09,13.09,13.11,13.11,0,0,1,13.09-13.09m0-17.44a30.53,30.53,0,1,0,30.53,30.53,30.53,30.53,0,0,0-30.53-30.53Z"/><circle style="fill:#ffc200" cx="291.22" cy="89.47" r="5.94"/></svg>