<svg id="Layer_1" data-name="Layer 1" xmlns="http://www.w3.org/2000/svg" viewBox="0 0 500 500"><defs><style>.cls-1{fill:#ffc200;}.cls-2{fill:#1c1c28;}</style></defs><path class="cls-1" d="M129.75,237.66a8.21,8.21,0,0,1-8.14,7.22c-.31,0-.64,0-1,0a8.19,8.19,0,0,1-7.17-9.11,8.21,8.21,0,0,1,8.12-7.24c.33,0,.66,0,1,.06a8.24,8.24,0,0,1,7.18,9.12Z"/><path class="cls-2" d="M173.55,236.75a49,49,0,0,1-48.17,48.46l-.92,0-.92,0a35.6,35.6,0,0,1-11.45-69A22.57,22.57,0,1,0,123,214.07h-.11a48.17,48.17,0,0,0-6.51.63,49.1,49.1,0,0,0,8,97.53H66.1a6.1,6.1,0,0,1-6.1-6.09v-113a6.1,6.1,0,0,1,6.1-6.1h57.44C150.88,187,173.89,209.41,173.55,236.75Z"/><path class="cls-2" d="M184.24,214.19H209.6v69.54a9.24,9.24,0,0,0,1.67,5.94,5.89,5.89,0,0,0,4.87,2.07,12.47,12.47,0,0,0,3.47-.53,15.15,15.15,0,0,0,3.47-1.47l3.21,18.69a46.86,46.86,0,0,1-10.21,3.33A51.47,51.47,0,0,1,205.33,313q-10.14,0-15.62-5.28t-5.47-15Z"/><path class="cls-2" d="M228.29,290.8a20.29,20.29,0,0,1,3.87-12.27,25.69,25.69,0,0,1,10.75-8.33,38.68,38.68,0,0,1,15.68-3,43.19,43.19,0,0,1,7.81.67,23.4,23.4,0,0,1,6.34,2v-2.14q0-4.74-2.87-7t-9.28-2.3a31,31,0,0,0-11,1.94A53.68,53.68,0,0,0,238.84,266l-7.35-15.75a55.16,55.16,0,0,1,14.89-6.74,61.37,61.37,0,0,1,16.75-2.21q16.68,0,25.83,7.37t9.14,21.82v13.29c0,2.35.36,4,1.07,4.89a5.15,5.15,0,0,0,3.74,1.62v21.36c-2.05.44-4,.78-5.81,1a41.33,41.33,0,0,1-4.87.34q-6.81,0-10.34-2.47a11.51,11.51,0,0,1-4.61-7.28l-.53-2.53a32.34,32.34,0,0,1-10.82,9.14A28.35,28.35,0,0,1,252.85,313a27.07,27.07,0,0,1-12.55-2.89,22.29,22.29,0,0,1-8.81-7.94A20.76,20.76,0,0,1,228.29,290.8Zm41.11,1.49a10.77,10.77,0,0,0,2.41-2.21,4,4,0,0,0,.93-2.46V282.7a31.78,31.78,0,0,0-4.87-1.27,27.82,27.82,0,0,0-4.87-.5,13.28,13.28,0,0,0-7.68,2.15,6.38,6.38,0,0,0-3.14,5.42,5.32,5.32,0,0,0,1.07,3.22,7,7,0,0,0,2.94,2.27,10.46,10.46,0,0,0,4.27.82,17.64,17.64,0,0,0,4.74-.69A15.07,15.07,0,0,0,269.4,292.29Z"/><path class="cls-2" d="M360.57,307.63q-3.46,1.47-7.4,2.73a55.63,55.63,0,0,1-8,1.94,49.7,49.7,0,0,1-8,.67,28.35,28.35,0,0,1-10.54-1.9,16,16,0,0,1-7.67-6.28q-2.88-4.38-2.88-11.83V261.44h-8.67V242.35h8.67v-22h25.37v22h13.75v19.09H341.49v22.39c0,2.23.48,3.79,1.46,4.69a5.66,5.66,0,0,0,4,1.35,16.31,16.31,0,0,0,4.27-.66A50.27,50.27,0,0,0,356,287.6Z"/><path class="cls-2" d="M401.56,258a16.49,16.49,0,1,1-16.49,16.49A16.5,16.5,0,0,1,401.56,258m0-21.95A38.45,38.45,0,1,0,440,274.52a38.44,38.44,0,0,0-38.44-38.44Z"/><circle class="cls-1" cx="401.56" cy="274.52" r="7.49"/></svg>