<svg id="Layer_1" data-name="Layer 1" xmlns="http://www.w3.org/2000/svg" viewBox="0 0 500 500"><defs><style>.cls-1{fill:#ffc200;}.cls-2{fill:#1c1c28;}</style></defs><path class="cls-1" d="M278.56,223.63a18.05,18.05,0,0,1-17.91,15.9,19.73,19.73,0,0,1-2.15-.11,18,18,0,0,1-15.79-20.06,18.1,18.1,0,0,1,17.89-15.93,19.09,19.09,0,0,1,2.15.14,18.1,18.1,0,0,1,15.81,20.06Z"/><path class="cls-2" d="M375,221.63a107.94,107.94,0,0,1-106,106.7l-2,0-2,0a78.37,78.37,0,0,1-25.2-151.83,49.69,49.69,0,1,0,24.09-4.8c.38,0,.21,0-.24,0a104.27,104.27,0,0,0-14.34,1.4,108.09,108.09,0,0,0,17.72,214.72H138.43A13.43,13.43,0,0,1,125,374.39V125.61a13.43,13.43,0,0,1,13.43-13.43H264.89C325.09,112.18,375.73,161.43,375,221.63Z"/></svg>