<svg id="Layer_1" data-name="Layer 1" xmlns="http://www.w3.org/2000/svg" xmlns:xlink="http://www.w3.org/1999/xlink" viewBox="0 0 114 114"><defs><style>.cls-1{fill:#fff;}.cls-2{fill:none;}.cls-3{mask:url(#mask);}.cls-4{clip-path:url(#clip-path);}.cls-5{fill:#0043ec;}.cls-6{fill:#0044ec;}.cls-7{fill:#0045ec;}.cls-8{fill:#0046ec;}.cls-9{fill:#0047ec;}.cls-10{fill:#0048ec;}.cls-11{fill:#0049ec;}.cls-12{fill:#004aec;}.cls-13{fill:#004bec;}.cls-14{fill:#004cec;}.cls-15{fill:#004dec;}.cls-16{fill:#004eec;}.cls-17{fill:#004fec;}.cls-18{fill:#0050ec;}.cls-19{fill:#0051ec;}.cls-20{fill:#0052ec;}.cls-21{fill:#0053ec;}.cls-22{fill:#0054ec;}.cls-23{fill:#0055ec;}.cls-24{fill:#0056ec;}.cls-25{fill:#0057ec;}.cls-26{fill:#0058ec;}.cls-27{fill:#0059ec;}.cls-28{fill:#005aec;}.cls-29{fill:#005bec;}.cls-30{fill:#005cec;}.cls-31{fill:#005dec;}.cls-32{fill:#005eec;}.cls-33{fill:#005fec;}.cls-34{fill:#0060ec;}.cls-35{fill:#0061ec;}.cls-36{fill:#0062ec;}.cls-37{fill:#0063ec;}.cls-38{fill:#0064ec;}.cls-39{fill:#0065ec;}.cls-40{fill:#0066ec;}.cls-41{fill:#0067ec;}.cls-42{fill:#0068ec;}.cls-43{fill:#0069ec;}.cls-44{fill:#006aec;}.cls-45{fill:#006bec;}.cls-46{fill:#006cec;}.cls-47{fill:#006dec;}.cls-48{fill:#006eec;}.cls-49{fill:#006fec;}.cls-50{fill:#0070ec;}.cls-51{fill:#0071ec;}.cls-52{fill:#0072ec;}.cls-53{fill:#0073ec;}.cls-54{fill:#0074ec;}.cls-55{fill:#0075ec;}.cls-56{fill:#0076ec;}.cls-57{fill:#0078ec;}.cls-58{fill:#0079ec;}.cls-59{fill:#007aec;}.cls-60{fill:#007bec;}.cls-61{fill:#007cec;}.cls-62{fill:#007dec;}.cls-63{fill:#007eec;}.cls-64{fill:#007fec;}.cls-65{fill:#0080ec;}.cls-66{fill:#0081ec;}.cls-67{fill:#0082ec;}.cls-68{fill:#0083ec;}.cls-69{fill:#0084ec;}.cls-70{fill:#0085ec;}.cls-71{fill:#0086ec;}.cls-72{fill:#0087ec;}.cls-73{fill:#0088ec;}.cls-74{fill:#0089ec;}.cls-75{fill:#008aec;}.cls-76{fill:#008bec;}.cls-77{fill:#008cec;}.cls-78{fill:#008dec;}.cls-79{fill:#008eec;}.cls-80{fill:#008fec;}.cls-81{fill:#0090ec;}.cls-82{fill:#0091ec;}.cls-83{fill:#0092ec;}.cls-84{fill:#0093ec;}.cls-85{fill:#0094ec;}.cls-86{fill:#0095ec;}.cls-87{fill:#0096ec;}.cls-88{fill:#0097ec;}.cls-89{fill:#0098ec;}.cls-90{fill:#0099ec;}.cls-91{fill:#009aec;}.cls-92{fill:#009bec;}.cls-93{fill:#009cec;}.cls-94{fill:#009dec;}.cls-95{fill:#009eec;}.cls-96{fill:#009fec;}.cls-97{fill:#00a0ec;}.cls-98{fill:#00a1ec;}.cls-99{fill:#00a2ec;}.cls-100{fill:#00a3ec;}.cls-101{fill:#00a4ec;}.cls-102{fill:#00a5ec;}.cls-103{fill:#00a6ec;}.cls-104{fill:#00a7ec;}.cls-105{fill:#00a8ec;}.cls-106{fill:#00a9ec;}.cls-107{fill:#00aaec;}.cls-108{fill:#00abec;}.cls-109{fill:#00acec;}.cls-110{fill:#00adec;}.cls-111{fill:#00aeec;}.cls-112{fill:#00b0ec;}.cls-113{fill:#00b1ec;}.cls-114{fill:#00b2ec;}.cls-115{mask:url(#mask-2);}.cls-116{clip-path:url(#clip-path-2);}.cls-117{fill:#fc4f02;}.cls-118{fill:#fc5002;}.cls-119{fill:#fc5102;}.cls-120{fill:#fc5202;}.cls-121{fill:#fc5302;}.cls-122{fill:#fc5402;}.cls-123{fill:#fc5502;}.cls-124{fill:#fc5602;}.cls-125{fill:#fc5702;}.cls-126{fill:#fc5802;}.cls-127{fill:#fc5902;}.cls-128{fill:#fc5a02;}.cls-129{fill:#fc5b02;}.cls-130{fill:#fc5c02;}.cls-131{fill:#fc5d02;}.cls-132{fill:#fc5e02;}.cls-133{fill:#fc5f02;}.cls-134{fill:#fc6002;}.cls-135{fill:#fc6102;}.cls-136{fill:#fc6202;}.cls-137{fill:#fc6302;}.cls-138{fill:#fc6402;}.cls-139{fill:#fc6502;}.cls-140{fill:#fc6602;}.cls-141{fill:#fc6702;}.cls-142{fill:#fc6802;}.cls-143{fill:#fc6902;}.cls-144{fill:#fc6a02;}.cls-145{fill:#fc6b02;}.cls-146{fill:#fc6c02;}.cls-147{fill:#fc6d02;}.cls-148{fill:#fc6e02;}.cls-149{fill:#fc6f02;}.cls-150{fill:#fc7002;}.cls-151{fill:#fc7102;}.cls-152{fill:#fc7202;}.cls-153{fill:#fc7302;}.cls-154{fill:#fc7402;}.cls-155{fill:#fc7502;}.cls-156{fill:#fc7602;}.cls-157{fill:#fc7702;}.cls-158{fill:#fc7802;}.cls-159{fill:#fc7902;}.cls-160{fill:#fc7a02;}.cls-161{fill:#fc7b02;}.cls-162{fill:#fc7c02;}.cls-163{fill:#fc7d02;}.cls-164{fill:#fc7e02;}.cls-165{fill:#fc7f02;}.cls-166{fill:#fc8002;}.cls-167{fill:#fc8102;}.cls-168{fill:#fc8202;}.cls-169{fill:#fc8402;}.cls-170{fill:#fc8502;}.cls-171{fill:#fc8602;}.cls-172{fill:#fc8702;}.cls-173{fill:#fc8802;}.cls-174{fill:#fc8902;}.cls-175{fill:#fc8a02;}.cls-176{fill:#fc8b02;}.cls-177{fill:#fc8c02;}.cls-178{fill:#fc8d02;}.cls-179{fill:#fc8e02;}.cls-180{fill:#fc8f02;}.cls-181{fill:#fc9002;}.cls-182{fill:#fc9102;}.cls-183{fill:#fc9202;}.cls-184{fill:#fc9302;}.cls-185{fill:#fc9402;}.cls-186{fill:#fc9502;}.cls-187{fill:#fc9602;}.cls-188{fill:#fc9702;}.cls-189{fill:#fc9802;}.cls-190{fill:#fc9902;}.cls-191{fill:#fc9a02;}.cls-192{fill:#fc9b02;}.cls-193{fill:#fc9c02;}.cls-194{fill:#fc9d02;}.cls-195{fill:#fc9e02;}.cls-196{fill:#fc9f02;}.cls-197{fill:#fca002;}.cls-198{fill:#fca102;}.cls-199{fill:#fcb802;}</style><mask id="mask" x="-3.86" y="16.47" width="101.28" height="97.53" maskUnits="userSpaceOnUse"><path class="cls-1" d="M55.91,100.73,43.34,88.16,59.13,72.37,55,61,19.17,96.79l4.15,11.39L35.57,95.93,52,112.38a5.5,5.5,0,0,0,6,1.19,5.73,5.73,0,0,0,1.78-1.19L97.07,75.09,85.68,71Z"/><path class="cls-1" d="M51.44,51.26,49.88,47,26,70.83l-12.6-12.6L43.16,28.49l-.62-1.69v0l-.26-.72h0L39,17.11,3.21,52.91h0L1.76,54.35l-.09.1a5.48,5.48,0,0,0,.09,7.67L18.24,78.6l-4.17,4.17,4.12,11.3,0,.06L54,58.35Z"/></mask><clipPath id="clip-path"><rect class="cls-2" x="0.13" y="16.47" width="97.25" height="97.53"/></clipPath><mask id="mask-2" x="30.37" y="-11.37" width="83.54" height="89.63" maskUnits="userSpaceOnUse"><path class="cls-1" d="M108.69.21H58.16L56.24.56a5.58,5.58,0,0,0-2,1.26l-10,10,4.15,11.38,12-12H103V53.66l-12,12,11.38,4.14,10-9.94a5.39,5.39,0,0,0,1.26-2,5.58,5.58,0,0,0,.35-1.93V5.39a5.41,5.41,0,0,0-1.6-3.57A5.47,5.47,0,0,0,108.69.21Z"/><path class="cls-1" d="M85,29.38,83.9,28.32a2.73,2.73,0,0,0-2.07-.81c-6.27.33-7.82,6.45-4.64,9.64l1.07,1.06a2.7,2.7,0,0,0,2.06.81C86.6,38.69,88.15,32.57,85,29.38Z"/></mask><clipPath id="clip-path-2"><polygon class="cls-2" points="113.91 78.11 30.37 78.26 30.37 0.15 113.91 0 113.91 78.11"/></clipPath></defs><g class="cls-3"><g class="cls-4"><polygon class="cls-5" points="-3.86 76.26 97.34 113.09 97.43 114 -3.77 114 -3.86 76.26"/><polygon class="cls-5" points="-3.86 75.73 97.34 112.56 97.34 113.09 -3.86 76.26 -3.86 75.73"/><polygon class="cls-6" points="-3.86 75.21 97.34 112.04 97.34 112.56 -3.86 75.73 -3.86 75.21"/><polygon class="cls-7" points="-3.86 74.68 97.34 111.51 97.34 112.04 -3.86 75.21 -3.86 74.68"/><polygon class="cls-8" points="-3.86 74.16 97.34 110.99 97.34 111.51 -3.86 74.68 -3.86 74.16"/><polygon class="cls-9" points="-3.86 73.63 97.34 110.46 97.34 110.99 -3.86 74.16 -3.86 73.63"/><polygon class="cls-10" points="-3.86 73.1 97.34 109.94 97.34 110.46 -3.86 73.63 -3.86 73.1"/><polygon class="cls-11" points="-3.86 72.58 97.34 109.41 97.34 109.94 -3.86 73.1 -3.86 72.58"/><polygon class="cls-12" points="-3.86 72.05 97.34 108.88 97.34 109.41 -3.86 72.58 -3.86 72.05"/><polygon class="cls-13" points="-3.86 71.53 97.34 108.36 97.34 108.88 -3.86 72.05 -3.86 71.53"/><polygon class="cls-14" points="-3.86 71 97.34 107.83 97.34 108.36 -3.86 71.53 -3.86 71"/><polygon class="cls-15" points="-3.86 70.47 97.34 107.31 97.34 107.83 -3.86 71 -3.86 70.47"/><polygon class="cls-16" points="-3.86 69.95 97.34 106.78 97.34 107.31 -3.86 70.47 -3.86 69.95"/><polygon class="cls-17" points="-3.86 69.42 97.34 106.25 97.34 106.78 -3.86 69.95 -3.86 69.42"/><polygon class="cls-18" points="-3.86 68.9 97.34 105.73 97.34 106.25 -3.86 69.42 -3.86 68.9"/><polygon class="cls-19" points="-3.86 68.37 97.34 105.2 97.34 105.73 -3.86 68.9 -3.86 68.37"/><polygon class="cls-20" points="-3.86 67.84 97.34 104.68 97.34 105.2 -3.86 68.37 -3.86 67.84"/><polygon class="cls-21" points="-3.86 67.32 97.34 104.15 97.34 104.68 -3.86 67.84 -3.86 67.32"/><polygon class="cls-22" points="-3.86 66.79 97.34 103.63 97.34 104.15 -3.86 67.32 -3.86 66.79"/><polygon class="cls-23" points="-3.86 66.27 97.34 103.1 97.34 103.63 -3.86 66.79 -3.86 66.27"/><polygon class="cls-24" points="-3.86 65.74 97.34 102.57 97.34 103.1 -3.86 66.27 -3.86 65.74"/><polygon class="cls-25" points="-3.86 65.22 97.34 102.05 97.34 102.57 -3.86 65.74 -3.86 65.22"/><polygon class="cls-26" points="-3.86 64.69 97.34 101.52 97.34 102.05 -3.86 65.22 -3.86 64.69"/><polygon class="cls-27" points="-3.86 64.16 97.34 101 97.34 101.52 -3.86 64.69 -3.86 64.16"/><polygon class="cls-28" points="-3.86 63.64 97.34 100.47 97.34 101 -3.86 64.16 -3.86 63.64"/><polygon class="cls-29" points="-3.86 63.11 97.34 99.94 97.34 100.47 -3.86 63.64 -3.86 63.11"/><polygon class="cls-30" points="-3.86 62.59 97.34 99.42 97.34 99.94 -3.86 63.11 -3.86 62.59"/><polygon class="cls-31" points="-3.86 62.06 97.34 98.89 97.34 99.42 -3.86 62.59 -3.86 62.06"/><polygon class="cls-32" points="-3.86 61.53 97.34 98.37 97.34 98.89 -3.86 62.06 -3.86 61.53"/><polygon class="cls-33" points="-3.86 61.01 97.34 97.84 97.34 98.37 -3.86 61.53 -3.86 61.01"/><polygon class="cls-34" points="-3.86 60.48 97.34 97.32 97.34 97.84 -3.86 61.01 -3.86 60.48"/><polygon class="cls-35" points="-3.86 59.96 97.34 96.79 97.34 97.32 -3.86 60.48 -3.86 59.96"/><polygon class="cls-36" points="-3.86 59.43 97.34 96.26 97.34 96.79 -3.86 59.96 -3.86 59.43"/><polygon class="cls-37" points="-3.86 58.91 97.34 95.74 97.34 96.26 -3.86 59.43 -3.86 58.91"/><polygon class="cls-38" points="-3.86 58.38 97.34 95.21 97.34 95.74 -3.86 58.91 -3.86 58.38"/><polygon class="cls-39" points="-3.86 57.85 97.34 94.69 97.34 95.21 -3.86 58.38 -3.86 57.85"/><polygon class="cls-40" points="-3.86 57.33 97.34 94.16 97.34 94.69 -3.86 57.85 -3.86 57.33"/><polygon class="cls-41" points="-3.86 56.8 97.34 93.64 97.34 94.16 -3.86 57.33 -3.86 56.8"/><polygon class="cls-42" points="-3.86 56.28 97.34 93.11 97.34 93.64 -3.86 56.8 -3.86 56.28"/><polygon class="cls-43" points="-3.86 55.75 97.34 92.58 97.34 93.11 -3.86 56.28 -3.86 55.75"/><polygon class="cls-44" points="-3.86 55.23 97.34 92.06 97.34 92.58 -3.86 55.75 -3.86 55.23"/><polygon class="cls-45" points="-3.86 54.7 97.34 91.53 97.34 92.06 -3.86 55.23 -3.86 54.7"/><polygon class="cls-46" points="-3.86 54.17 97.34 91.01 97.34 91.53 -3.86 54.7 -3.86 54.17"/><polygon class="cls-47" points="-3.86 53.65 97.34 90.48 97.34 91.01 -3.86 54.17 -3.86 53.65"/><polygon class="cls-48" points="-3.86 53.12 97.34 89.95 97.34 90.48 -3.86 53.65 -3.86 53.12"/><polygon class="cls-49" points="-3.86 52.59 97.34 89.43 97.34 89.95 -3.86 53.12 -3.86 52.59"/><polygon class="cls-50" points="-3.86 52.07 97.34 88.9 97.34 89.43 -3.86 52.59 -3.86 52.07"/><polygon class="cls-51" points="-3.86 51.54 97.34 88.38 97.34 88.9 -3.86 52.07 -3.86 51.54"/><polygon class="cls-52" points="-3.86 51.02 97.34 87.85 97.34 88.38 -3.86 51.54 -3.86 51.02"/><polygon class="cls-53" points="-3.86 50.49 97.34 87.33 97.34 87.85 -3.86 51.02 -3.86 50.49"/><polygon class="cls-54" points="-3.86 49.97 97.34 86.8 97.34 87.33 -3.86 50.49 -3.86 49.97"/><polygon class="cls-55" points="-3.86 49.44 97.34 86.27 97.34 86.8 -3.86 49.97 -3.86 49.44"/><polygon class="cls-56" points="-3.86 48.91 97.34 85.75 97.34 86.27 -3.86 49.44 -3.86 48.91"/><polygon class="cls-57" points="-3.86 48.39 97.34 85.22 97.34 85.75 -3.86 48.91 -3.86 48.39"/><polygon class="cls-58" points="-3.86 47.86 97.34 84.7 97.34 85.22 -3.86 48.39 -3.86 47.86"/><polygon class="cls-59" points="-3.86 47.34 97.34 84.17 97.34 84.7 -3.86 47.86 -3.86 47.34"/><polygon class="cls-60" points="-3.86 46.81 97.34 83.64 97.34 84.17 -3.86 47.34 -3.86 46.81"/><polygon class="cls-61" points="-3.86 46.28 97.34 83.12 97.34 83.64 -3.86 46.81 -3.86 46.28"/><polygon class="cls-62" points="-3.86 45.76 97.34 82.59 97.34 83.12 -3.86 46.28 -3.86 45.76"/><polygon class="cls-63" points="-3.86 45.23 97.34 82.07 97.34 82.59 -3.86 45.76 -3.86 45.23"/><polygon class="cls-64" points="-3.86 44.71 97.34 81.54 97.34 82.07 -3.86 45.23 -3.86 44.71"/><polygon class="cls-65" points="-3.86 44.18 97.34 81.02 97.34 81.54 -3.86 44.71 -3.86 44.18"/><polygon class="cls-66" points="-3.86 43.66 97.34 80.49 97.34 81.02 -3.86 44.18 -3.86 43.66"/><polygon class="cls-67" points="-3.86 43.13 97.34 79.96 97.34 80.49 -3.86 43.66 -3.86 43.13"/><polygon class="cls-68" points="-3.86 42.6 97.34 79.44 97.34 79.96 -3.86 43.13 -3.86 42.6"/><polygon class="cls-69" points="-3.86 42.08 97.34 78.91 97.34 79.44 -3.86 42.6 -3.86 42.08"/><polygon class="cls-70" points="-3.86 41.55 97.34 78.39 97.34 78.91 -3.86 42.08 -3.86 41.55"/><polygon class="cls-71" points="-3.86 41.03 97.34 77.86 97.34 78.39 -3.86 41.55 -3.86 41.03"/><polygon class="cls-72" points="-3.86 40.5 97.34 77.33 97.34 77.86 -3.86 41.03 -3.86 40.5"/><polygon class="cls-73" points="-3.86 39.98 97.34 76.81 97.34 77.33 -3.86 40.5 -3.86 39.98"/><polygon class="cls-74" points="-3.86 39.45 97.34 76.28 97.34 76.81 -3.86 39.98 -3.86 39.45"/><polygon class="cls-75" points="-3.86 38.92 97.34 75.76 97.34 76.28 -3.86 39.45 -3.86 38.92"/><polygon class="cls-76" points="-3.86 38.4 97.34 75.23 97.34 75.76 -3.86 38.92 -3.86 38.4"/><polygon class="cls-77" points="-3.86 37.87 97.34 74.7 97.34 75.23 -3.86 38.4 -3.86 37.87"/><polygon class="cls-78" points="-3.86 37.35 97.34 74.18 97.34 74.7 -3.86 37.87 -3.86 37.35"/><polygon class="cls-79" points="-3.86 36.82 97.34 73.65 97.34 74.18 -3.86 37.35 -3.86 36.82"/><polygon class="cls-80" points="-3.86 36.29 97.34 73.13 97.34 73.65 -3.86 36.82 -3.86 36.29"/><polygon class="cls-81" points="-3.86 35.77 97.34 72.6 97.34 73.13 -3.86 36.29 -3.86 35.77"/><polygon class="cls-82" points="-3.86 35.24 97.34 72.08 97.34 72.6 -3.86 35.77 -3.86 35.24"/><polygon class="cls-83" points="-3.86 34.72 97.34 71.55 97.34 72.08 -3.86 35.24 -3.86 34.72"/><polygon class="cls-84" points="-3.86 34.19 97.34 71.02 97.34 71.55 -3.86 34.72 -3.86 34.19"/><polygon class="cls-85" points="-3.86 33.66 97.34 70.5 97.34 71.02 -3.86 34.19 -3.86 33.66"/><polygon class="cls-86" points="-3.86 33.14 97.34 69.97 97.34 70.5 -3.86 33.66 -3.86 33.14"/><polygon class="cls-87" points="-3.86 32.61 97.34 69.45 97.34 69.97 -3.86 33.14 -3.86 32.61"/><polygon class="cls-88" points="-3.86 32.09 97.34 68.92 97.34 69.45 -3.86 32.61 -3.86 32.09"/><polygon class="cls-89" points="-3.86 31.56 97.34 68.39 97.34 68.92 -3.86 32.09 -3.86 31.56"/><polygon class="cls-90" points="-3.86 31.04 97.34 67.87 97.34 68.39 -3.86 31.56 -3.86 31.04"/><polygon class="cls-91" points="-3.86 30.51 97.34 67.34 97.34 67.87 -3.86 31.04 -3.86 30.51"/><polygon class="cls-92" points="-3.86 29.98 97.34 66.82 97.34 67.34 -3.86 30.51 -3.86 29.98"/><polygon class="cls-93" points="-3.86 29.46 97.34 66.29 97.34 66.82 -3.86 29.98 -3.86 29.46"/><polygon class="cls-94" points="-3.86 28.93 97.34 65.77 97.34 66.29 -3.86 29.46 -3.86 28.93"/><polygon class="cls-95" points="-3.86 28.41 97.34 65.24 97.34 65.77 -3.86 28.93 -3.86 28.41"/><polygon class="cls-96" points="-3.86 27.88 97.34 64.71 97.34 65.24 -3.86 28.41 -3.86 27.88"/><polygon class="cls-97" points="-3.86 27.36 97.34 64.19 97.34 64.71 -3.86 27.88 -3.86 27.36"/><polygon class="cls-98" points="-3.86 26.83 97.34 63.66 97.34 64.19 -3.86 27.36 -3.86 26.83"/><polygon class="cls-99" points="-3.86 26.3 97.34 63.14 97.34 63.66 -3.86 26.83 -3.86 26.3"/><polygon class="cls-100" points="-3.86 25.78 97.34 62.61 97.34 63.14 -3.86 26.3 -3.86 25.78"/><polygon class="cls-101" points="-3.86 25.25 97.34 62.09 97.34 62.61 -3.86 25.78 -3.86 25.25"/><polygon class="cls-102" points="-3.86 24.73 97.34 61.56 97.34 62.09 -3.86 25.25 -3.86 24.73"/><polygon class="cls-103" points="-3.86 24.2 97.34 61.03 97.34 61.56 -3.86 24.73 -3.86 24.2"/><polygon class="cls-104" points="-3.86 23.67 97.34 60.51 97.34 61.03 -3.86 24.2 -3.86 23.67"/><polygon class="cls-105" points="-3.86 23.15 97.34 59.98 97.34 60.51 -3.86 23.67 -3.86 23.15"/><polygon class="cls-106" points="-3.86 22.62 97.34 59.46 97.34 59.98 -3.86 23.15 -3.86 22.62"/><polygon class="cls-107" points="-3.86 22.1 97.34 58.93 97.34 59.46 -3.86 22.62 -3.86 22.1"/><polygon class="cls-108" points="-3.86 21.57 97.34 58.4 97.34 58.93 -3.86 22.1 -3.86 21.57"/><polygon class="cls-109" points="-3.86 21.05 97.34 57.88 97.34 58.4 -3.86 21.57 -3.86 21.05"/><polygon class="cls-109" points="2.53 16.47 97.34 50.98 97.34 57.88 -3.86 21.05 -3.86 16.47 2.53 16.47"/><polygon class="cls-110" points="21.49 16.47 97.34 44.08 97.34 50.98 2.53 16.47 21.49 16.47"/><polygon class="cls-111" points="40.46 16.47 97.34 37.17 97.34 44.08 21.49 16.47 40.46 16.47"/><polygon class="cls-112" points="59.42 16.47 97.34 30.27 97.34 37.17 40.46 16.47 59.42 16.47"/><polygon class="cls-113" points="78.38 16.47 97.34 23.37 97.34 30.27 59.42 16.47 78.38 16.47"/><polygon class="cls-114" points="97.34 16.47 97.34 16.47 97.34 23.37 78.38 16.47 97.34 16.47"/></g></g><g class="cls-115"><g class="cls-116"><polygon class="cls-117" points="30.37 38.94 113.91 38.78 113.91 78.11 30.37 78.26 30.37 38.94"/><polygon class="cls-117" points="30.37 38.46 113.91 38.31 113.91 38.78 30.37 38.94 30.37 38.46"/><polygon class="cls-118" points="30.37 37.98 113.91 37.83 113.91 38.31 30.37 38.46 30.37 37.98"/><polygon class="cls-119" points="30.37 37.5 113.91 37.35 113.91 37.83 30.37 37.98 30.37 37.5"/><polygon class="cls-120" points="30.37 37.02 113.91 36.87 113.91 37.35 30.37 37.5 30.37 37.02"/><polygon class="cls-121" points="30.37 36.55 113.91 36.4 113.91 36.87 30.37 37.02 30.37 36.55"/><polygon class="cls-122" points="30.37 36.07 113.91 35.92 113.91 36.4 30.37 36.55 30.37 36.07"/><polygon class="cls-123" points="30.37 35.59 113.91 35.44 113.91 35.92 30.37 36.07 30.37 35.59"/><polygon class="cls-124" points="30.37 35.11 113.91 34.96 113.91 35.44 30.37 35.59 30.37 35.11"/><polygon class="cls-125" points="30.37 34.64 113.91 34.49 113.91 34.96 30.37 35.11 30.37 34.64"/><polygon class="cls-126" points="30.37 34.16 113.91 34.01 113.91 34.49 30.37 34.64 30.37 34.16"/><polygon class="cls-127" points="30.37 33.68 113.91 33.53 113.91 34.01 30.37 34.16 30.37 33.68"/><polygon class="cls-128" points="30.37 33.2 113.91 33.05 113.91 33.53 30.37 33.68 30.37 33.2"/><polygon class="cls-129" points="30.37 32.73 113.91 32.58 113.91 33.05 30.37 33.2 30.37 32.73"/><polygon class="cls-130" points="30.37 32.25 113.91 32.1 113.91 32.58 30.37 32.73 30.37 32.25"/><polygon class="cls-131" points="30.37 31.77 113.91 31.62 113.91 32.1 30.37 32.25 30.37 31.77"/><polygon class="cls-132" points="30.37 31.29 113.91 31.14 113.91 31.62 30.37 31.77 30.37 31.29"/><polygon class="cls-133" points="30.37 30.82 113.91 30.66 113.91 31.14 30.37 31.29 30.37 30.82"/><polygon class="cls-134" points="30.37 30.34 113.91 30.19 113.91 30.66 30.37 30.82 30.37 30.34"/><polygon class="cls-135" points="30.37 29.86 113.91 29.71 113.91 30.19 30.37 30.34 30.37 29.86"/><polygon class="cls-136" points="30.37 29.38 113.91 29.23 113.91 29.71 30.37 29.86 30.37 29.38"/><polygon class="cls-137" points="30.37 28.91 113.91 28.75 113.91 29.23 30.37 29.38 30.37 28.91"/><polygon class="cls-138" points="30.37 28.43 113.91 28.28 113.91 28.75 30.37 28.91 30.37 28.43"/><polygon class="cls-139" points="30.37 27.95 113.91 27.8 113.91 28.28 30.37 28.43 30.37 27.95"/><polygon class="cls-140" points="30.37 27.47 113.91 27.32 113.91 27.8 30.37 27.95 30.37 27.47"/><polygon class="cls-141" points="30.37 26.99 113.91 26.84 113.91 27.32 30.37 27.47 30.37 26.99"/><polygon class="cls-142" points="30.37 26.52 113.91 26.37 113.91 26.84 30.37 26.99 30.37 26.52"/><polygon class="cls-143" points="30.37 26.04 113.91 25.89 113.91 26.37 30.37 26.52 30.37 26.04"/><polygon class="cls-144" points="30.37 25.56 113.91 25.41 113.91 25.89 30.37 26.04 30.37 25.56"/><polygon class="cls-145" points="30.37 25.08 113.91 24.93 113.91 25.41 30.37 25.56 30.37 25.08"/><polygon class="cls-146" points="30.37 24.61 113.91 24.45 113.91 24.93 30.37 25.08 30.37 24.61"/><polygon class="cls-147" points="30.37 24.13 113.91 23.98 113.91 24.45 30.37 24.61 30.37 24.13"/><polygon class="cls-148" points="30.37 23.65 113.91 23.5 113.91 23.98 30.37 24.13 30.37 23.65"/><polygon class="cls-149" points="30.37 23.17 113.91 23.02 113.91 23.5 30.37 23.65 30.37 23.17"/><polygon class="cls-150" points="30.37 22.7 113.91 22.55 113.91 23.02 30.37 23.17 30.37 22.7"/><polygon class="cls-151" points="30.37 22.22 113.91 22.07 113.91 22.55 30.37 22.7 30.37 22.22"/><polygon class="cls-152" points="30.37 21.74 113.91 21.59 113.91 22.07 30.37 22.22 30.37 21.74"/><polygon class="cls-153" points="30.37 21.26 113.91 21.11 113.91 21.59 30.37 21.74 30.37 21.26"/><polygon class="cls-154" points="30.37 20.79 113.91 20.63 113.91 21.11 30.37 21.26 30.37 20.79"/><polygon class="cls-155" points="30.37 20.31 113.91 20.16 113.91 20.63 30.37 20.79 30.37 20.31"/><polygon class="cls-156" points="30.37 19.83 113.91 19.68 113.91 20.16 30.37 20.31 30.37 19.83"/><polygon class="cls-157" points="30.37 19.35 113.91 19.2 113.91 19.68 30.37 19.83 30.37 19.35"/><polygon class="cls-158" points="30.37 18.87 113.91 18.72 113.91 19.2 30.37 19.35 30.37 18.87"/><polygon class="cls-159" points="30.37 18.4 113.91 18.25 113.91 18.72 30.37 18.87 30.37 18.4"/><polygon class="cls-160" points="30.37 17.92 113.91 17.77 113.91 18.25 30.37 18.4 30.37 17.92"/><polygon class="cls-161" points="30.37 17.44 113.91 17.29 113.91 17.77 30.37 17.92 30.37 17.44"/><polygon class="cls-162" points="30.37 16.96 113.91 16.81 113.91 17.29 30.37 17.44 30.37 16.96"/><polygon class="cls-163" points="30.37 16.49 113.91 16.34 113.91 16.81 30.37 16.96 30.37 16.49"/><polygon class="cls-164" points="30.37 16.01 113.91 15.86 113.91 16.34 30.37 16.49 30.37 16.01"/><polygon class="cls-165" points="30.37 15.53 113.91 15.38 113.91 15.86 30.37 16.01 30.37 15.53"/><polygon class="cls-166" points="30.37 15.05 113.91 14.9 113.91 15.38 30.37 15.53 30.37 15.05"/><polygon class="cls-167" points="30.37 14.57 113.91 14.43 113.91 14.9 30.37 15.05 30.37 14.57"/><polygon class="cls-168" points="30.37 14.1 113.91 13.95 113.91 14.43 30.37 14.57 30.37 14.1"/><polygon class="cls-169" points="30.37 13.62 113.91 13.47 113.91 13.95 30.37 14.1 30.37 13.62"/><polygon class="cls-170" points="30.37 13.14 113.91 12.99 113.91 13.47 30.37 13.62 30.37 13.14"/><polygon class="cls-171" points="30.37 12.66 113.91 12.51 113.91 12.99 30.37 13.14 30.37 12.66"/><polygon class="cls-172" points="30.37 12.19 113.91 12.04 113.91 12.51 30.37 12.66 30.37 12.19"/><polygon class="cls-173" points="30.37 11.71 113.91 11.56 113.91 12.04 30.37 12.19 30.37 11.71"/><polygon class="cls-174" points="30.37 11.23 113.91 11.08 113.91 11.56 30.37 11.71 30.37 11.23"/><polygon class="cls-175" points="30.37 10.75 113.91 10.6 113.91 11.08 30.37 11.23 30.37 10.75"/><polygon class="cls-176" points="30.37 10.28 113.91 10.13 113.91 10.6 30.37 10.75 30.37 10.28"/><polygon class="cls-177" points="30.37 9.8 113.91 9.65 113.91 10.13 30.37 10.28 30.37 9.8"/><polygon class="cls-178" points="30.37 9.32 113.91 9.17 113.91 9.65 30.37 9.8 30.37 9.32"/><polygon class="cls-179" points="30.37 8.84 113.91 8.69 113.91 9.17 30.37 9.32 30.37 8.84"/><polygon class="cls-180" points="30.37 8.37 113.91 8.21 113.91 8.69 30.37 8.84 30.37 8.37"/><polygon class="cls-181" points="30.37 7.89 113.91 7.74 113.91 8.21 30.37 8.37 30.37 7.89"/><polygon class="cls-182" points="30.37 7.41 113.91 7.26 113.91 7.74 30.37 7.89 30.37 7.41"/><polygon class="cls-183" points="30.37 6.93 113.91 6.78 113.91 7.26 30.37 7.41 30.37 6.93"/><polygon class="cls-184" points="30.37 6.46 113.91 6.3 113.91 6.78 30.37 6.93 30.37 6.46"/><polygon class="cls-185" points="30.37 5.98 113.91 5.83 113.91 6.3 30.37 6.46 30.37 5.98"/><polygon class="cls-186" points="30.37 5.5 113.91 5.35 113.91 5.83 30.37 5.98 30.37 5.5"/><polygon class="cls-187" points="30.37 5.02 113.91 4.87 113.91 5.35 30.37 5.5 30.37 5.02"/><polygon class="cls-188" points="30.37 4.54 113.91 4.39 113.91 4.87 30.37 5.02 30.37 4.54"/><polygon class="cls-189" points="30.37 4.07 113.91 3.92 113.91 4.39 30.37 4.54 30.37 4.07"/><polygon class="cls-190" points="30.37 3.59 113.91 3.44 113.91 3.92 30.37 4.07 30.37 3.59"/><polygon class="cls-191" points="30.37 3.11 113.91 2.96 113.91 3.44 30.37 3.59 30.37 3.11"/><polygon class="cls-192" points="30.37 2.63 113.91 2.48 113.91 2.96 30.37 3.11 30.37 2.63"/><polygon class="cls-193" points="30.37 2.16 113.91 2.01 113.91 2.48 30.37 2.63 30.37 2.16"/><polygon class="cls-194" points="30.37 1.68 113.91 1.53 113.91 2.01 30.37 2.16 30.37 1.68"/><polygon class="cls-195" points="30.37 1.2 113.91 1.05 113.91 1.53 30.37 1.68 30.37 1.2"/><polygon class="cls-196" points="30.37 0.72 113.91 0.57 113.91 1.05 30.37 1.2 30.37 0.72"/><polygon class="cls-197" points="30.37 0.25 113.91 0.1 113.91 0.57 30.37 0.72 30.37 0.25"/><polygon class="cls-198" points="30.37 -0.23 113.91 -0.38 113.91 0.1 30.37 0.25 30.37 -0.23"/><polygon class="cls-199" points="113.91 -11.37 30.37 -11.22 30.37 0.15 113.91 0 113.91 -11.37"/></g></g></svg>