<?xml version="1.0" encoding="iso-8859-1"?>
<!-- Generator: Adobe Illustrator 17.1.0, SVG Export Plug-In . SVG Version: 6.00 Build 0)  -->
<!DOCTYPE svg PUBLIC "-//W3C//DTD SVG 1.1//EN" "http://www.w3.org/Graphics/SVG/1.1/DTD/svg11.dtd">
<svg xmlns="http://www.w3.org/2000/svg" xmlns:xlink="http://www.w3.org/1999/xlink" version="1.1" id="Capa_1" x="0px" y="0px" viewBox="0 0 198.24 198.24" style="enable-background:new 0 0 198.24 198.24;" xml:space="preserve" width="512px" height="512px">
<path d="M194.24,69.932h-21.521l21.035-31.852c3.95-5.981,2.298-14.062-3.684-18.012l-1.545-1.02  c-2.133-1.408-4.606-2.153-7.155-2.153c-4.384,0-8.442,2.182-10.856,5.837l-31.17,47.199H4c-2.209,0-4,1.791-4,4v24.503  c0,32.382,21.413,59.855,50.823,69.006v9.904c0,2.209,1.791,4,4,4h88.594c2.209,0,4-1.791,4-4v-9.904  c29.41-9.151,50.823-36.625,50.823-69.006V73.932C198.24,71.723,196.449,69.932,194.24,69.932z M177.189,27.141  c0.929-1.406,2.491-2.246,4.181-2.246c0.977,0,1.926,0.287,2.747,0.829l1.545,1.02c2.3,1.519,2.936,4.627,1.416,6.928l-23.946,36.26  H148.93L177.189,27.141z" fill="#FFFFFF"/>
<g>
</g>
<g>
</g>
<g>
</g>
<g>
</g>
<g>
</g>
<g>
</g>
<g>
</g>
<g>
</g>
<g>
</g>
<g>
</g>
<g>
</g>
<g>
</g>
<g>
</g>
<g>
</g>
<g>
</g>
</svg>
