<svg id="Layer_1" data-name="Layer 1" xmlns="http://www.w3.org/2000/svg" viewBox="0 0 144 144"><defs><style>.cls-1{fill:#0e1c2a;}.cls-2{fill:#1f64ff;}.cls-3{fill:#ff1036;}</style></defs><path class="cls-1" d="M144,78.09a72.8,72.8,0,0,1-32.24,49.65,71.78,71.78,0,0,1-13.13,6.77A72.85,72.85,0,0,1,.18,78.33a15.61,15.61,0,0,0,10.42,4h0a15.56,15.56,0,0,0,11.06-4.59,51.26,51.26,0,0,0,9.85,20.83c.28.37.58.73.88,1.08a51.86,51.86,0,0,0,8.49,8.13,51.63,51.63,0,0,0,57.72,3.12,51.7,51.7,0,0,0,13.13-11.29c.33-.39.65-.79,1-1.19a51.32,51.32,0,0,0,9.69-20.5,15.62,15.62,0,0,0,10.85,4.41h0A15.58,15.58,0,0,0,144,78.09Z"/><path class="cls-2" d="M143.92,66.69a10.64,10.64,0,0,1-10.63,10.62h0a10.57,10.57,0,0,1-8.33-4.06,10.12,10.12,0,0,1-1.46-2.48h0a10.68,10.68,0,0,1,0-8.16h0a10.18,10.18,0,0,1,1.46-2.49,10.63,10.63,0,0,1,19,6.57Z"/><path class="cls-2" d="M21.25,66.69a10.6,10.6,0,0,1-.62,3.58h0a10.65,10.65,0,0,1-10,7h0a10.62,10.62,0,1,1,10-14.21h0A10.66,10.66,0,0,1,21.25,66.69Z"/><path class="cls-3" d="M30.05,20.87,30,20.73h0Z"/><path class="cls-1" d="M107.93,30.53,87.24,62.76A15.65,15.65,0,0,0,74.79,51.27h0A15.57,15.57,0,0,0,72.09,51a16.81,16.81,0,0,0-2.36.17l-.34.06A15.65,15.65,0,0,0,56.94,62.76L36.25,30.53a16,16,0,0,0,1.71.21c.32,0,.66,0,1,0h0q.69,0,1.35-.06a15.6,15.6,0,0,0,11-5.92,15.4,15.4,0,0,0,2.84-5.71l18,28,18-28a15.47,15.47,0,0,0,2.84,5.69,15.63,15.63,0,0,0,11.27,5.95c.33,0,.67,0,1,0h0q.69,0,1.35-.06C107,30.67,107.47,30.61,107.93,30.53Z"/><path class="cls-2" d="M115.8,15.12a10.57,10.57,0,0,1-.12,1.6,10.69,10.69,0,0,1-1.47,4c-.21.33-.44.65-.68,1a10.59,10.59,0,0,1-7.43,4c-.3,0-.61,0-.92,0h0c-.23,0-.45,0-.68,0a10.67,10.67,0,0,1-9.93-10.6c0-.31,0-.62,0-.92a10.71,10.71,0,0,1,1.18-4,11.11,11.11,0,0,1,1.06-1.63,10.66,10.66,0,0,1,6.75-3.94,12.05,12.05,0,0,1,1.6-.11,10.61,10.61,0,0,1,10.6,9.92C115.79,14.65,115.8,14.89,115.8,15.12Z"/><path class="cls-2" d="M49.61,15.12A10.63,10.63,0,0,1,39.9,25.7c-.3,0-.61,0-.92,0h0c-.22,0-.45,0-.68,0a10.59,10.59,0,0,1-7.65-4c-.2-.26-.39-.52-.56-.79l0,0L30,20.73a10.54,10.54,0,0,1-1.6-5.61c0-.31,0-.62,0-.92a10.63,10.63,0,0,1,9-9.59A12.17,12.17,0,0,1,39,4.5a10.78,10.78,0,0,1,1.81.15,10.6,10.6,0,0,1,6.54,3.9,10,10,0,0,1,1,1.56,10.49,10.49,0,0,1,1.23,4.31C49.6,14.65,49.61,14.89,49.61,15.12Z"/><path class="cls-3" d="M30.05,20.87,30,20.73h0Z"/><path class="cls-2" d="M82.71,66.69A10.63,10.63,0,0,1,81,72.48a8.94,8.94,0,0,1-.56.77,10.6,10.6,0,0,1-7.43,4c-.3,0-.61,0-.92,0h0l-.68,0a10.57,10.57,0,0,1-7.65-4,8.94,8.94,0,0,1-.56-.77,10.54,10.54,0,0,1-1.56-4,10.66,10.66,0,0,1-.15-1.8c0-.31,0-.62,0-.92a10.33,10.33,0,0,1,1.11-3.9l.13-.25h0l.81-1.27h0l.17-.22a10.57,10.57,0,0,1,6.75-3.94,12,12,0,0,1,1.6-.12,10.71,10.71,0,0,1,8.35,4.06c.06.08.12.15.17.23l.8,1.25a1.82,1.82,0,0,1,.15.27A10.44,10.44,0,0,1,82.69,66C82.71,66.22,82.71,66.45,82.71,66.69Z"/><path class="cls-1" d="M35.47,30.36h0c-1.06,1.07-2.08,2.19-3,3.35q-.68.81-1.32,1.65a51.28,51.28,0,0,0-9.41,20.27A15.63,15.63,0,0,0,.18,55.05,72.46,72.46,0,0,1,16,20.25a73.38,73.38,0,0,1,7.59-7.88h0a15.69,15.69,0,0,0,8.84,17A14.82,14.82,0,0,0,35.47,30.36Z"/><path class="cls-1" d="M144,55.29a15.65,15.65,0,0,0-21.59.16,51.43,51.43,0,0,0-9.25-19.93c-.45-.59-.92-1.18-1.4-1.75q-1.45-1.77-3.08-3.4h0a14.58,14.58,0,0,0,2.71-.89l.34-.14.64-.32.32-.17.69-.4.08-.05.25-.16A2.7,2.7,0,0,0,114,28a15.61,15.61,0,0,0,6.8-12.9,15.2,15.2,0,0,0-.24-2.72A72.91,72.91,0,0,1,144,55.29Z"/></svg>