<svg xmlns="http://www.w3.org/2000/svg" viewBox="0 0 292 363" color-interpolation-filters="sRGB" fill="none" fill-rule="evenodd" font-size="12" overflow="visible" stroke-linecap="square" stroke-miterlimit="3">
<!--
AFDSI is SVG letters, not characters
-->
<style>
.st1,.st2{fill:#bb9155;stroke:none;stroke-linecap:butt;stroke-width:12.24}
.st2{fill:#0e3e3e;stroke-width:4.45447}
</style>
<g id="group20-1" transform="translate(4.454 -4.491)">
<g id="shape1-2" transform="translate(82.612 -236.633)">
<path class="st1" d="M0 353.995h8.568v8.568H0z"/>
</g>
<g id="shape2-4" transform="translate(108.683 -295.508)">
<path class="st1" d="M0 353.995h8.568v8.568H0z"/>
</g>
<g id="shape3-6" transform="translate(118.475 -225.128)">
<path d="M0 328.66l17.99 12.12v21.78L0 350.32v-21.66z" class="st1"/>
</g>
<g id="shape4-8" transform="translate(118.475 -189.632)">
<path d="M0 327.31l17.99 12.36v22.89L0 350.2v-22.89z" class="st1"/>
</g>
<g id="shape5-10" transform="translate(137.325 -141.039)">
<path class="st1" d="M0 353.995h8.568v8.568H0z"/>
</g>
<g id="shape6-12" transform="translate(146.75 -225.128)">
<path d="M0 340.9L17.01 330v21.06L0 362.56V340.9z" class="st1"/>
</g>
<g id="shape7-14" transform="translate(146.75 -189.387)">
<path d="M0 339.43l17.01-11.63v23.75L0 362.56v-23.13z" class="st1"/>
</g>
<g id="shape8-16" transform="translate(192.038 -277.882)">
<path class="st1" d="M0 353.995h8.568v8.568H0z"/>
</g>
<g id="shape9-18" transform="translate(44.301 -98.627)">
<path d="M184.21 115.38H10.4A10.404 10.404-180 000 125.78v139.17a97.614 97.614-180 10195.23 0V125.78a10.404 10.404-180 00-11.02-10.4zm-17.62 78.21h-9.43v17.75l-27.29 18.6v36.72l-27.42 17.75v17.26h9.42v29.25H82.74v-29.25h9.43v-17.63l-54.72-36.72v-12.24h-9.42v-29.49h29.25v29.25h-8.93v6.49l15.91 10.89v-76.26h-9.79v-29.25h29.25v29.25h-9.06v13.71l22.65 15.67 32.43-20.81v32.93l16.53-11.63v-12.24h-9.43v-29.25h29.26l.49 29.25z" class="st1"/>
</g>
<g id="shape15-20">
<path d="M61.12 362.56l-8.91-19.73h-30.2l-8.91 19.73H0l37.15-79.73 37.11 79.73H61.12zm-34.66-30.11h21.38l-7.88-17.51c-.45-1.11-.94-2.4-1.43-3.87-.49-1.47-.98-3.03-1.47-4.81-.41 1.66-.86 3.22-1.34 4.68-.44 1.42-.93 2.76-1.42 4l-7.84 17.51z" class="st2"/>
</g>
<g id="shape16-22" transform="translate(79.192)">
<path d="M0 362.56v-79.73h44.54v11H12.96v19.87H44.5v11.4H12.96v37.46H0z" class="st2"/>
</g>
<g id="shape17-24" transform="translate(132.737)">
<path d="M0 362.56v-79.73h17.46a113.856 113.856 0 0124.01 1.69 32.607 32.607 0 0122.67 19.33 47.618 47.618 0 013.57 18.89 47.217 47.217 0 01-3.57 18.84 33.854 33.854 0 01-10.46 13.37 33.364 33.364 0 01-11.94 5.74 90.381 90.381 0 01-20.76 1.7H0v.17zm12.96-11.49h10.87a58.933 58.933-180 0013.36-1.16 20.268 20.268-180 007.84-4.05 24.41 24.41-180 006.78-9.85 36.215 36.215-180 002.27-13.36 36.616 36.616-180 00-2.27-13.36 23.92 23.92-180 00-6.78-9.58 19.867 19.867-180 00-8.1-4.05 65.392 65.392-180 00-14.75-1.21h-9.35l.13 56.62z" class="st2"/>
</g>
<g id="shape18-26" transform="translate(207.104)">
<path d="M0 345.32l9.84-4.45a13.63 13.63-180 005.17 7.75 15.992 15.992-180 009.53 2.67 12.25 12.25-180 008.91-3.07 10.824 10.824-180 003.25-8.2c0-4.45-3.74-8.46-11.13-11.93l-2.41-1.16a52.83 52.83 0 01-16.75-11.09 18.263 18.263 0 01-4.14-12.12 19.466 19.466 0 016.15-15.01 23.653 23.653 0 0116.57-5.75 28.375 28.375 0 0114.08 3.21 17.417 17.417 0 017.84 9.35l-9.67 4.99a15.902 15.902-180 00-5.03-5.25 11.67 11.67-180 00-6.24-1.65 11.492 11.492-180 00-7.93 2.58 8.909 8.909-180 00-2.94 6.95c0 4.46 4.46 8.91 12.87 12.78l1.56.72a46.148 46.148 0 0115.55 10.02 18.442 18.442 0 014.19 12.38 22.272 22.272 0 01-6.82 17.2 25.836 25.836 0 01-18.35 6.32 26.727 26.727 0 01-15.95-4.45A20.847 20.847 0 010 345.32z" class="st2"/>
</g>
<g id="shape19-28" transform="translate(270.255)">
<path class="st2" d="M0 282.828h12.963v79.735H0z"/>
</g>
</g>
</svg>