<svg xmlns="http://www.w3.org/2000/svg" viewBox="0 0 482 563" color-interpolation-filters="sRGB" fill="none" fill-rule="evenodd" font-size="12" overflow="visible" stroke-linecap="square" stroke-miterlimit="3"><g transform="translate(6.12 -6.071)"><g transform="translate(100.785 -30.199)"><path fill="#1f64ff" stroke="#000" stroke-linecap="round" stroke-linejoin="round" stroke-width=".72" d="M0 497.79h76.5v65.25H0z"/></g><g transform="translate(91.785 -171.949)"><path fill="#f9c499" stroke="#000" stroke-linecap="round" stroke-linejoin="round" stroke-width=".72" d="M0 212.04h351v351H0z"/></g><path d="M66.93 519.61h17.32v32.43c0 3.78 2.05 7.28 5.35 9.14a10.48 10.48 0 0010.59-.18l40.5-24.64 41.12 25.1c1.67 1.02 3.57 1.53 5.46 1.53 1.77 0 3.54-.45 5.14-1.34 3.3-1.85 5.35-5.35 5.35-9.14v-32.9h204.88c36.9 0 66.93-30.03 66.93-66.93V79.12c0-36.9-30.03-66.93-66.93-66.93H66.93C30.02 12.19 0 42.22 0 79.12v373.55c.01 36.91 30.02 66.94 66.93 66.94zm109.86 14.21l-30.63-18.69c-3.36-2.04-7.57-2.05-10.91 0l-30.03 18.26v-63.28h71.56v63.71h.01zm225.85-42.18H197.76v-21.53h208.61c12.75 0 24.61-3.82 34.55-10.35-3.33 18.11-19.22 31.88-38.28 31.88zM94.74 40.15h307.9c21.49 0 38.97 17.48 38.97 38.97v270.75c0 19.43-15.81 35.24-35.24 35.24H94.74V40.15zM27.97 79.12c0-21.43 17.39-38.87 38.81-38.96V385.1H63.2a62.76 62.76 0 00-35.23 10.77V79.12zm0 369.18c0-19.43 15.81-35.23 35.23-35.23h343.17c13.04 0 25.16-3.97 35.24-10.76v4.61c0 19.43-15.81 35.23-35.24 35.23H63.2c-7.72 0-13.98 6.26-13.98 13.99 0 7.72 6.26 13.98 13.98 13.98h21.05v21.52H66.93c-21.48 0-38.96-17.47-38.96-38.96v-4.38z" fill="#000"/><g transform="translate(105.285 -191.749)"><path d="M41.4 357.08c0 8.28 5.17 11.38 10.35 10.35 7.24 0 15.52-4.14 22.77-10.35-2.07-8.28-4.14-19.67-4.14-33.12-16.56 8.28-28.98 19.66-28.98 33.12zm38.29-35.19c0 11.38 1.04 20.7 3.11 28.98 9.31-8.28 16.56-19.67 21.73-32.09-2.07 0-13.45 0-24.84 3.11zM207 449.19h31.05l6.21 20.7h24.84l-32.09-103.5H207l-31.05 103.5h23.8l7.25-20.7zm8.28-42.43c2.07-6.21 4.14-13.46 6.21-19.67 2.07 6.21 4.14 13.46 7.24 19.67l8.28 21.73h-31.05l9.32-21.73zm-39.33-71.42v-93.15H0v165.6h51.75v62.1l72.45-62.1h10.35v93.15h62.1l62.1 62.1v-62.1h51.75v-165.6H175.95zm-41.4 41.4c-9.32 5.18-21.74 8.28-37.26 9.32-1.04-2.07-3.11-6.21-4.14-8.28 18.63-2.07 32.08-6.21 41.4-12.42v11.38zm6.21-41.4c-4.14-8.28-13.46-13.45-25.88-15.52-6.21 15.52-17.59 30.01-30.01 41.4 1.03 3.1 2.07 5.17 4.14 7.24l-9.32 5.18c-1.03-2.07-2.07-4.14-3.1-7.25-12.42 8.28-21.74 10.35-27.95 10.35-12.42 0-18.63-8.28-18.63-18.63 0-19.66 16.56-34.15 38.3-42.43v-23.81H35.19v-9.31h33.12c0-6.21 0-14.49 1.03-20.7l14.49 1.03c0 1.04-2.07 2.07-4.14 3.11 0 5.17-1.03 11.38-1.03 16.56 16.56 0 44.5-2.07 60.03-6.21l1.03 9.31c-15.52 4.14-44.5 5.18-62.1 5.18v20.7c10.35-3.11 19.67-3.11 22.77-3.11h6.21c1.04-2.07 1.04-4.14 1.04-6.21l10.35 2.07c0 2.07-1.04 4.14-1.04 5.18 19.67 3.1 30.02 12.42 34.16 23.8h-10.35v2.07zm149.04 144.9h-51.75v31.05l-33.12-31.05h-49.68v-124.2H289.8v124.2z" fill="#000"/></g></g></svg>