<svg xmlns="http://www.w3.org/2000/svg" viewBox="0 0 200 114"><path d="M100 17c-22.055 0-40 17.944-40 40 0 22.057 17.945 40 40 40s40-17.943 40-40c0-22.056-17.945-40-40-40" fill="#fff"/><path d="M98.537 57.719c-.36.779-.756 1.654-1.167 2.585-1.451 3.289-3.059 7.29-3.646 9.854-.21.913-.341 2.045-.339 3.3 0 .496.027 1.017.069 1.548a19.145 19.145 0 006.583 1.173 19.18 19.18 0 006.026-.982 11.33 11.33 0 01-1.257-1.33c-2.569-3.276-4.002-8.076-6.27-16.148M89.053 41.445c-4.906 3.457-8.116 9.16-8.128 15.622.012 6.366 3.126 11.994 7.908 15.466 1.173-4.886 4.114-9.36 8.524-18.329-.262-.72-.56-1.507-.895-2.334-1.221-3.064-2.984-6.623-4.558-8.235-.802-.841-1.775-1.569-2.85-2.19" fill="#91dc47"/><path d="M116.685 78.988c-2.53-.317-4.62-.7-6.447-1.344a22.869 22.869 0 01-10.2 2.388c-12.683 0-22.964-10.279-22.965-22.965 0-6.883 3.032-13.054 7.83-17.262a16.856 16.856 0 00-3.989-.489c-6.738.064-13.85 3.793-16.811 13.864-.277 1.466-.211 2.574-.211 3.888 0 19.963 16.184 36.148 36.146 36.148 12.226 0 23.025-6.075 29.565-15.365-3.537.881-6.939 1.303-9.852 1.312-1.092 0-2.117-.059-3.066-.175" fill="#63b132"/><path d="M109.893 71.984c.223.11.729.291 1.433.491 4.737-3.477 7.815-9.078 7.827-15.408h-.002c-.018-10.553-8.558-19.092-19.114-19.113a19.16 19.16 0 00-6 .976c3.88 4.423 5.746 10.745 7.552 17.66 0 .003.003.006.003.008.003.006.577 1.92 1.563 4.46.978 2.538 2.373 5.678 3.893 7.967.999 1.534 2.097 2.636 2.845 2.96" fill="#90b4fe"/><path d="M100.038 20.919c-12.107 0-22.817 5.96-29.377 15.1 3.414-2.139 6.9-2.91 9.942-2.883 4.202.012 7.505 1.315 9.09 2.206.383.221.747.459 1.102.703a22.87 22.87 0 019.242-1.943c12.684.002 22.966 10.281 22.968 22.965h-.002a22.894 22.894 0 01-6.832 16.34c1.035.117 2.139.189 3.266.183 4.003.002 8.33-.881 11.574-3.61 2.116-1.782 3.888-4.39 4.87-8.302.193-1.511.303-3.047.303-4.61 0-19.963-16.182-36.149-36.146-36.149" fill="#5881d8"/></svg>