<svg viewBox="0 0 200 114" xmlns="http://www.w3.org/2000/svg"><path d="M24.107 49.436l14.107 7.263-14.107 7.264L10 56.699z" fill="#ff8000"/><path d="M10 56.7v8.772l14.204 8.201 14.025-8.16v-8.812l-14.122 7.263z" fill="#00509c"/><g fill="#006ab0"><path d="M10 65.471v-4.05l8.694 4.875v4.146z"/><path d="M18.694 66.296v-5.243l5.389 2.91v5.18zM24.083 63.963v5.18l5.036-2.735v4.385l5.018-2.965v-3.589l4.108-2.354V56.7z"/></g><path d="M29.12 66.408v4.385l-4.977 2.88v-4.53zM38.237 61.885v3.628l-4.07 2.369-.03-3.643z" fill="#4360b9"/><g><path d="M24.609 39.831l14.107 7.264-14.107 7.263-14.107-7.263z" fill="#216eb1"/><path d="M24.783 45.123l-4.958-2.727 4.784-2.564 4.77 2.586zM20.438 52.32l-4.302-2.276 8.647-4.921 3.976 2.295z" fill="#42a2d6"/><path d="M10.502 47.095v4.93l14.07 7.213 14.07-7.214.075-4.929L24.61 54.36z" fill="#216eb1"/><path d="M33.605 49.75v4.845l-4.487 2.304V51.99z" fill="#42a2d6"/></g><g><path d="M48.847 45.45c-1.172 0-2.202.19-3.09.568-.869.359-1.595.944-2.181 1.757-.567.794-1.003 1.842-1.305 3.146-.283 1.284-.425 2.843-.425 4.676 0 1.852.142 3.42.425 4.706.302 1.284.738 2.333 1.305 3.145a5.308 5.308 0 002.181 1.758c.888.359 1.918.538 3.09.538 1.171 0 2.192-.18 3.06-.538a5.082 5.082 0 002.183-1.758c.586-.812 1.02-1.86 1.304-3.145.302-1.285.454-2.854.454-4.706 0-1.833-.152-3.392-.454-4.676-.283-1.304-.718-2.352-1.304-3.146a4.822 4.822 0 00-2.182-1.757c-.87-.378-1.89-.567-3.061-.567zm0 1.276c.812 0 1.56.123 2.24.37.699.245 1.294.697 1.785 1.359.492.661.87 1.569 1.134 2.722.283 1.152.425 2.625.425 4.42s-.142 3.27-.425 4.422c-.265 1.153-.642 2.06-1.134 2.72-.49.662-1.086 1.116-1.786 1.362a6.552 6.552 0 01-2.24.368c-.83 0-1.586-.123-2.266-.368-.68-.246-1.266-.7-1.757-1.361-.492-.662-.879-1.568-1.162-2.72-.265-1.153-.397-2.628-.397-4.423s.132-3.268.397-4.42c.283-1.153.67-2.06 1.162-2.722.49-.662 1.077-1.114 1.757-1.36s1.435-.369 2.267-.369zm14.914 4.45c-.548 0-1.038.076-1.473.227a5.775 5.775 0 00-1.077.453c-.34.208-.653.435-.936.68l-.226-1.19H58.97V70.62h1.361v-6.235c.302.321.727.632 1.275.935.548.283 1.238.425 2.07.425.736 0 1.436-.103 2.097-.31.662-.209 1.246-.588 1.756-1.136s.908-1.283 1.191-2.21c.302-.944.454-2.153.454-3.627 0-1.474-.152-2.675-.454-3.6-.302-.945-.708-1.691-1.218-2.239a3.841 3.841 0 00-1.729-1.133 6.503 6.503 0 00-2.013-.312zm13.168 0c-.661 0-1.312.105-1.955.313-.623.207-1.181.585-1.672 1.133-.473.548-.86 1.294-1.163 2.238-.283.926-.425 2.127-.425 3.6 0 1.475.142 2.684.425 3.629.303.926.71 1.661 1.22 2.21s1.096.926 1.757 1.134a6.95 6.95 0 002.097.31c.699 0 1.294-.055 1.786-.168.51-.114.935-.247 1.275-.398a4.6 4.6 0 00.991-.595l-.65-1.048c-.227.189-.51.358-.85.51a5.193 5.193 0 01-1.078.34 6.722 6.722 0 01-1.474.142c-.832 0-1.512-.142-2.041-.425a3.356 3.356 0 01-1.275-1.19c-.303-.511-.52-1.125-.651-1.843a15.33 15.33 0 01-.17-2.381h8.729a19.46 19.46 0 00-.228-3.118c-.132-.926-.378-1.71-.737-2.352a3.597 3.597 0 00-1.501-1.502c-.624-.36-1.427-.538-2.41-.538zm13.954 0c-.812 0-1.615.17-2.408.51-.775.34-1.465.728-2.07 1.162l-.283-1.501h-1.078v14.17h1.361V54.266a6.879 6.879 0 011.616-1.105c.378-.208.793-.387 1.246-.538s.926-.227 1.417-.227c.454 0 .86.047 1.22.141.377.095.69.266.935.511.265.227.463.548.596.963.15.416.226.935.226 1.559v9.949h1.36v-9.722c0-1.473-.302-2.608-.907-3.401-.604-.813-1.682-1.218-3.231-1.218zm-27.207 1.219c.832 0 1.512.15 2.041.453.548.284.973.7 1.275 1.248.321.53.54 1.17.653 1.926.113.737.17 1.55.17 2.439s-.057 1.71-.17 2.466c-.114.737-.332 1.378-.653 1.926a3.24 3.24 0 01-1.275 1.248c-.529.283-1.21.425-2.04.425-.756 0-1.427-.17-2.013-.511a3.903 3.903 0 01-1.332-1.388v-8.333c.094-.17.226-.369.396-.595a3.28 3.28 0 01.709-.623c.283-.189.605-.35.964-.482a3.843 3.843 0 011.275-.2zm13.253 0c.586 0 1.087.094 1.503.283.435.17.793.453 1.076.85.284.397.502.927.653 1.588.15.643.245 1.436.283 2.38h-7.34a13.18 13.18 0 01.255-2.069c.151-.642.368-1.18.651-1.614.302-.454.69-.804 1.162-1.05.473-.245 1.058-.369 1.758-.369z" fill="#ff8000" style="font-feature-settings:normal;font-variant-caps:normal;font-variant-ligatures:normal;font-variant-numeric:normal"/><g fill="#006ab0"><path d="M106.551 65.23h-8.235V47.08h8.218v8.033l.017 2.084zm-3.168-10.117v-6.01h-1.937v6.01zm0 8.094v-6.01h-1.937v6.01zM112.181 61.184l-.017 2.084v1.963h-3.325V47.08h3.342zM122.344 65.23h-7.507V53.38h7.507zm-2.44-2.11v-8.04h-2.886v8.04zM132.473 65.23h-7.986V53.38h7.986v5.05h-2.886v-3.401h-1.746v8.535h1.746v-3.383h2.886zM140.805 60.014h-2.737v1.816l.017 1.751v1.65h-2.903V47.6h2.903v10.195h2.72v-5.084h2.625v5.05h-2.31v2.302zM163.752 65.23h-2.57V55.03h-2.831V65.23h-2.64V47.477h2.64v5.328h5.4zM174.313 65.23h-8.372v-7.34h5.429v-2.665h-5.43V52.6h8.373zm-2.977-1.7v-3.35h-3.204v3.35z" style="font-feature-settings:normal;font-variant-caps:normal;font-variant-ligatures:normal;font-variant-numeric:normal"/></g><path d="M179.824 61.83v3.4h-3.367V52.626h3.367z" fill="#24aadd" style="font-feature-settings:normal;font-variant-caps:normal;font-variant-ligatures:normal;font-variant-numeric:normal"/><path d="M190 65.23h-3.234V55.03h-1.983v6.8l.017 1.752v1.65h-3.25V52.51H190zM153.876 65.23h-7.987V53.38h7.987v5.05h-2.886v-3.401h-1.746v8.535h1.746v-3.383h2.886z" fill="#006ab0" style="font-feature-settings:normal;font-variant-caps:normal;font-variant-ligatures:normal;font-variant-numeric:normal"/><path d="M179.804 50.004h-3.35v-2.46h3.35z" fill="#4360b9" stroke="#6193c9" stroke-width=".199653" style="font-feature-settings:normal;font-variant-caps:normal;font-variant-ligatures:normal;font-variant-numeric:normal"/><path d="M141.118 60.065l2.624.05v5.167h-2.624z" fill="#24aadd"/><path d="M106.551 65.23h-8.235V55.105h8.218l.017 2.092zm-3.168-10.125h-1.937zm0 8.102v-6.01h-1.937v6.01z" fill="#24aadd" style="font-feature-settings:normal;font-variant-caps:normal;font-variant-ligatures:normal;font-variant-numeric:normal"/></g></svg>