<svg xmlns="http://www.w3.org/2000/svg" viewBox="0 0 200 114"><path d="M60 17h80v80H60z" fill="#353535"/><path d="M109.758 30.396l-10.293 25.95-11.073-25.635-.37.166 11.065 25.627-25.95-10.294-.142.378L98.93 56.882 73.31 67.947l.166.378 25.627-11.073-10.294 25.95.378.15 10.294-25.943 11.065 25.62.378-.158L99.85 57.244l25.95 10.293.15-.378L100 56.866l25.634-11.073-.165-.37-25.627 11.065 10.293-25.95z" style="line-height:normal;font-variant-ligatures:normal;font-variant-position:normal;font-variant-caps:normal;font-variant-numeric:normal;font-variant-alternates:normal;font-feature-settings:normal;text-indent:0;text-align:start;text-decoration-line:none;text-decoration-style:solid;text-decoration-color:#000;text-transform:none;text-orientation:mixed;white-space:normal;shape-padding:0;isolation:auto;mix-blend-mode:normal;solid-color:#000;solid-opacity:1" color="#000" font-weight="400" font-family="sans-serif" overflow="visible" fill="#fff"/><path d="M123.32 33.846l-23.154 23.146-22.95-22.95-.283.292 22.95 22.95L76.743 80.42l.283.284 23.139-23.138L123.5 80.902l.291-.284-23.343-23.343 23.154-23.146z" style="line-height:normal;font-variant-ligatures:normal;font-variant-position:normal;font-variant-caps:normal;font-variant-numeric:normal;font-variant-alternates:normal;font-feature-settings:normal;text-indent:0;text-align:start;text-decoration-line:none;text-decoration-style:solid;text-decoration-color:#000;text-transform:none;text-orientation:mixed;white-space:normal;shape-padding:0;isolation:auto;mix-blend-mode:normal;solid-color:#000;solid-opacity:1" color="#000" font-weight="400" font-family="sans-serif" overflow="visible" fill="#fff"/><path d="M100.244 23.111l-.236.323 9.238 6.726-9.75 2.339.095.394 10.041-2.41 6.245 8.797.331-.229-6.017-8.49 12.081 2.529.079-.402-12.506-2.615-.04-.047-.04.008zm-1.472.52l-10.695 6.994-.063-.008-.024.04-11.624 1.834.063.394 11.286-1.772-5.238 8.545.339.212 5.403-8.804 10.631 1.803.071-.394-10.254-1.748 10.325-6.757zm24.989 9.742l-.394.063 1.772 11.286-8.545-5.237-.213.338 8.805 5.403-1.803 10.632.393.07 1.749-10.253 6.757 10.324.339-.22-6.994-10.695.008-.063-.04-.024zm-48.08.52l-2.615 12.506-.047.04.008.047-6.923 9.521.323.229 6.726-9.23 2.339 9.742.394-.087-2.41-10.05 8.797-6.236-.229-.331-8.49 6.017 2.529-12.081zm48.064 22.61l-.386.095 2.402 10.041-8.789 6.246.228.33 8.482-6.017-2.52 12.081.394.08 2.622-12.507.048-.04-.008-.047 6.914-9.513-.322-.237-6.726 9.238zm-56.782.757l-.34.22 6.994 10.695-.008.063.04.024 1.835 11.624.394-.063-1.772-11.286 8.545 5.238.212-.339-8.805-5.403 1.804-10.631-.394-.071-1.748 10.254zm49.466 16.129l-5.403 8.804-10.632-1.803-.07.394 10.253 1.748-10.325 6.757.22.339 10.696-6.994.063.009.024-.04 11.624-1.835-.063-.394-11.286 1.772 5.237-8.545zm-33.062.59l-.33.229 6.016 8.482-12.08-2.52-.087.393L89.4 83.186l.031.047.048-.016L99 90.14l.228-.323-9.23-6.726 9.742-2.339-.086-.386-10.05 2.402z" style="line-height:normal;font-variant-ligatures:normal;font-variant-position:normal;font-variant-caps:normal;font-variant-numeric:normal;font-variant-alternates:normal;font-feature-settings:normal;text-indent:0;text-align:start;text-decoration-line:none;text-decoration-style:solid;text-decoration-color:#000;text-transform:none;text-orientation:mixed;white-space:normal;shape-padding:0;isolation:auto;mix-blend-mode:normal;solid-color:#000;solid-opacity:1" color="#000" font-weight="400" font-family="sans-serif" overflow="visible" fill="#fff"/><path d="M133.292 57.474H67.427M100.36 24.542v65.865" fill="none" stroke="#fff" stroke-width=".403"/><path d="M119.993 56.64A20.374 20.374 0 0199.62 77.015 20.374 20.374 0 0179.245 56.64a20.374 20.374 0 0120.374-20.374 20.374 20.374 0 0120.374 20.374z" fill="#fff"/><path d="M136.772 56.64a4.315 4.315 0 01-4.314 4.315 4.315 4.315 0 01-4.315-4.315 4.315 4.315 0 014.315-4.314 4.315 4.315 0 014.314 4.314z" fill="#b5fe16"/><path d="M100.36 93.772a4.315 4.315 0 01-4.315-4.314 4.315 4.315 0 014.315-4.315 4.315 4.315 0 014.314 4.315 4.315 4.315 0 01-4.314 4.314z" fill="#24fab3"/><path d="M63.228 57.36a4.315 4.315 0 014.314-4.315 4.315 4.315 0 014.315 4.315 4.315 4.315 0 01-4.315 4.314 4.315 4.315 0 01-4.314-4.314z" fill="#e90e7f"/><path d="M100.36 20.228a4.315 4.315 0 014.314 4.314 4.315 4.315 0 01-4.314 4.315 4.315 4.315 0 01-4.315-4.315 4.315 4.315 0 014.315-4.314z" fill="#fdc322"/><path d="M79.824 45.454a6.476 6.476 0 01-6.476 6.476 6.476 6.476 0 01-6.476-6.476 6.476 6.476 0 016.476-6.476 6.476 6.476 0 016.476 6.476z" fill="#e50d56"/><path d="M110.557 36.614a6.476 6.476 0 01-6.476-6.476 6.476 6.476 0 016.476-6.476 6.476 6.476 0 016.476 6.476 6.476 6.476 0 01-6.476 6.476z" fill="#fdeb20"/><path d="M119.397 67.348a6.476 6.476 0 016.476-6.476 6.476 6.476 0 016.476 6.476 6.476 6.476 0 01-6.476 6.476 6.476 6.476 0 01-6.476-6.476z" fill="#99fe0f"/><path d="M88.664 76.187a6.476 6.476 0 016.476 6.476 6.476 6.476 0 01-6.476 6.476 6.476 6.476 0 01-6.476-6.476 6.476 6.476 0 016.476-6.476z" fill="#29dfe4"/><path d="M78.05 63.22a6.476 6.476 0 01.24 9.155 6.476 6.476 0 01-9.154.24 6.476 6.476 0 01-.24-9.154 6.476 6.476 0 019.154-.24z" fill="#c2c2d9"/><path d="M92.791 34.84a6.476 6.476 0 01-9.155.241 6.476 6.476 0 01-.24-9.155 6.476 6.476 0 019.155-.24 6.476 6.476 0 01.24 9.155z" fill="#fa5e1b"/><path d="M121.17 49.582a6.476 6.476 0 01-.24-9.156 6.476 6.476 0 019.155-.24 6.476 6.476 0 01.24 9.155 6.476 6.476 0 01-9.154.24z" fill="#cefa29"/><path d="M106.43 77.96a6.476 6.476 0 019.155-.24 6.476 6.476 0 01.24 9.156 6.476 6.476 0 01-9.155.24 6.476 6.476 0 01-.24-9.155z" fill="#15e863"/><path d="M127.444 33.36a3.906 3.906 0 01-3.906 3.907 3.906 3.906 0 01-3.905-3.906 3.906 3.906 0 013.905-3.906 3.906 3.906 0 013.906 3.906z" fill="#eff82d"/><path d="M122.846 84.477a3.906 3.906 0 01-3.906-3.905 3.906 3.906 0 013.906-3.906 3.906 3.906 0 013.906 3.906 3.906 3.906 0 01-3.906 3.905z" fill="#58e02e"/><path d="M71.73 79.88a3.906 3.906 0 013.906-3.906 3.906 3.906 0 013.905 3.905 3.906 3.906 0 01-3.905 3.906 3.906 3.906 0 01-3.906-3.906z" fill="#24b3d4"/><path d="M76.328 28.763a3.906 3.906 0 013.905 3.906 3.906 3.906 0 01-3.905 3.906 3.906 3.906 0 01-3.906-3.906 3.906 3.906 0 013.906-3.906z" fill="#fe0418"/><path d="M118.922 39.63a2.481 2.481 0 01-2.48 2.48 2.481 2.481 0 01-2.482-2.48 2.481 2.481 0 012.481-2.482 2.481 2.481 0 012.481 2.481z" fill="#eff82d"/><path d="M125.288 58.283a2.481 2.481 0 01-3.509 0 2.481 2.481 0 010-3.508 2.481 2.481 0 013.509 0 2.481 2.481 0 010 3.508z" fill="#b5fe16"/><path d="M116.599 75.975a2.481 2.481 0 01-2.481-2.481 2.481 2.481 0 012.48-2.481 2.481 2.481 0 012.482 2.481 2.481 2.481 0 01-2.481 2.481z" fill="#58e02e"/><path d="M98.605 82.34a2.481 2.481 0 010-3.508 2.481 2.481 0 013.509 0 2.481 2.481 0 010 3.509 2.481 2.481 0 01-3.509 0z" fill="#24fab3"/><path d="M80.253 73.652a2.481 2.481 0 012.481-2.482 2.481 2.481 0 012.481 2.482 2.481 2.481 0 01-2.481 2.48 2.481 2.481 0 01-2.481-2.48z" fill="#24b3d4"/><path d="M73.887 54.997a2.481 2.481 0 013.51 0 2.481 2.481 0 010 3.51 2.481 2.481 0 01-3.51 0 2.481 2.481 0 010-3.51z" fill="#e90e7f"/><path d="M82.577 37.306a2.481 2.481 0 012.48 2.48 2.481 2.481 0 01-2.48 2.482 2.481 2.481 0 01-2.482-2.481 2.481 2.481 0 012.482-2.481z" fill="#fe0418"/><path d="M102.114 30.94a2.481 2.481 0 010 3.509 2.481 2.481 0 01-3.509 0 2.481 2.481 0 010-3.509 2.481 2.481 0 013.509 0z" fill="#fdc322"/><path d="M96.417 52.298c-1.176 0-2.13.39-2.851 1.166-.721.77-1.079 1.855-1.079 3.252 0 1.32.361 2.363 1.079 3.127.718.76 1.634 1.134 2.749 1.134.9 0 1.644-.219 2.228-.662.588-.446 1-1.123 1.253-2.04l-1.639-.527c-.14.614-.376 1.068-.7 1.354a1.69 1.69 0 01-1.158.434c-.61 0-1.107-.227-1.489-.678-.381-.45-.575-1.207-.575-2.268 0-1 .19-1.727.575-2.173.39-.447.898-.67 1.52-.67.45 0 .83.126 1.142.378.317.252.531.597.63 1.032l1.678-.402c-.191-.672-.477-1.185-.859-1.543-.64-.607-1.477-.914-2.504-.914zm-12.113.142v8.395h3.19c.626 0 1.13-.055 1.504-.173.5-.16.896-.383 1.19-.67.389-.378.687-.877.897-1.488.172-.5.26-1.089.26-1.78 0-.786-.092-1.45-.276-1.985a3.666 3.666 0 00-.803-1.362 2.813 2.813 0 00-1.268-.772c-.366-.107-.9-.165-1.599-.165zm19.374 0l-3.268 8.395h1.795l.694-1.906h3.354l.733 1.906h1.843l-3.363-8.395zm4.584 0v1.425h2.488v6.97h1.701v-6.97h2.481V52.44zm-22.264 1.425h.764c.69 0 1.157.026 1.394.079.316.069.573.2.78.394.205.194.365.464.48.81.114.348.173.848.173 1.497 0 .65-.059 1.166-.173 1.544-.115.374-.258.639-.441.803-.18.164-.41.286-.686.355-.21.053-.55.078-1.023.078h-1.268zm18.554.536l1.158 3.118h-2.292z" style="line-height:1.25;-inkscape-font-specification:'Arial, Bold';font-variant-ligatures:normal;font-variant-caps:normal;font-variant-numeric:normal;font-feature-settings:normal;text-align:start" font-weight="700" font-size="2.908" font-family="Arial" letter-spacing="0" word-spacing="0"/><path d="M99.816 56.64a.197.197 0 01-.197.198.197.197 0 01-.197-.198.197.197 0 01.197-.197.197.197 0 01.197.197z" fill="red"/></svg>