<svg xmlns="http://www.w3.org/2000/svg" viewBox="0 0 200 114" overflow="visible"><text letter-spacing="-5.286" font-size="36.558" y="72.122" x="10" font-family="Trebuchet" fill-opacity="0" stroke-width=".44">W3C</text><g image-rendering="optimizeQuality" shape-rendering="geometricPrecision" text-rendering="geometricPrecision"><g fill="#005a9c"><path d="M118.474 53.328c0 .844-.188 1.574-.562 2.19a3.69 3.69 0 01-1.571 1.417c-.672.328-1.443.492-2.312.492-.243 0-.541-.018-.894-.054-.353-.036-.821-.135-1.405-.298a10.042 10.042 0 01-1.825-.722v-3.312c.594.421 1.18.77 1.754 1.05.574.279 1.19.417 1.848.417.606 0 .998-.114 1.176-.343.178-.23.268-.444.268-.644 0-.36-.154-.666-.462-.915-.307-.248-.754-.504-1.34-.77a10.128 10.128 0 01-1.695-1.013 4.355 4.355 0 01-1.19-1.373c-.308-.55-.461-1.2-.461-1.951 0-.725.155-1.38.466-1.966.31-.585.784-1.053 1.422-1.402.639-.35 1.418-.524 2.339-.524.654 0 1.26.073 1.817.22.556.146 1.015.31 1.376.492s.61.325.745.43v3.164a9.47 9.47 0 00-1.605-1.059 4.002 4.002 0 00-1.893-.466c-.44 0-.76.096-.958.29a.962.962 0 00-.296.716c0 .265.1.494.299.688.199.193.555.429 1.068.706.9.485 1.62.92 2.16 1.307.54.387.964.834 1.27 1.34.307.507.461 1.138.461 1.893zM129.264 53.16h-6.11c.12.598.412 1.088.878 1.467.465.38.993.57 1.585.57 1.033 0 2.175-.328 3.424-.985v2.163a8.727 8.727 0 01-1.63.725c-.637.218-1.45.326-2.437.326-1.066 0-1.974-.226-2.723-.68a4.27 4.27 0 01-1.68-1.846c-.372-.777-.557-1.658-.557-2.642 0-.972.186-1.842.557-2.61a4.147 4.147 0 011.68-1.806c.75-.437 1.657-.656 2.724-.656.704 0 1.383.174 2.038.52.655.347 1.194.915 1.617 1.703.422.788.634 1.805.634 3.05v.7zm-2.89-1.735c0-.635-.139-1.143-.413-1.523-.274-.379-.67-.57-1.184-.57-.51 0-.922.194-1.236.58-.314.386-.471.89-.471 1.513zM146.113 57.261h-3.056v-5.285c0-.7-.1-1.224-.3-1.571-.201-.348-.52-.522-.954-.522-.424 0-.772.148-1.043.444a7.062 7.062 0 00-.814 1.114v5.82h-3.055v-5.285c0-.669-.094-1.184-.28-1.548-.187-.363-.518-.545-.992-.545-.226 0-.433.052-.623.156-.19.104-.343.221-.462.351-.119.13-.263.321-.432.574-.17.254-.277.413-.322.477v5.82h-3.056v-9.91h3.056v1.426c.458-.556.925-.96 1.4-1.213.474-.252 1.023-.378 1.645-.378.294 0 .574.03.84.092.265.062.527.167.784.316.257.148.49.352.7.61.209.26.376.56.5.903.492-.633 1.002-1.112 1.531-1.436.53-.324 1.138-.485 1.828-.485.69 0 1.268.159 1.735.476.466.318.811.777 1.035 1.377.223.6.335 1.327.335 2.183v6.04zM156.88 56.75c-.448.203-.86.367-1.24.49-.379.124-.834.186-1.366.186-.504 0-.854-.102-1.052-.308a1.761 1.761 0 01-.425-.749c-.327.307-.692.56-1.092.76-.401.198-.927.298-1.576.298-.627 0-1.134-.125-1.52-.374-.388-.25-.658-.563-.814-.943a3.057 3.057 0 01-.233-1.17c0-.61.134-1.113.403-1.512a3.1 3.1 0 011.08-.976c.451-.253 1.05-.515 1.795-.787l.962-.355c.217-.08.38-.143.487-.19a2.81 2.81 0 00.339-.174c0-.478-.085-.852-.254-1.124-.17-.27-.537-.407-1.102-.407-.666 0-1.285.169-1.855.505a6.624 6.624 0 00-1.567 1.302V48.54a5.416 5.416 0 011.229-.764c.44-.198.901-.346 1.382-.444.48-.097.966-.146 1.459-.146 1.249 0 2.188.277 2.818.83.63.552.945 1.313.945 2.283v3.812c0 .362.03.632.09.81.059.178.167.266.326.266.192 0 .452-.094.78-.282v1.847zm-4.252-1.9v-2.324c-.726.335-1.256.635-1.59.902-.335.267-.502.63-.502 1.086 0 .328.083.579.25.753.168.174.362.26.583.26.21 0 .418-.066.625-.198.207-.133.418-.293.634-.48zM167.3 57.261h-3.056v-5.343c0-.545-.077-1.02-.233-1.426-.155-.405-.495-.609-1.02-.609-.249 0-.469.054-.658.161a1.993 1.993 0 00-.508.413c-.15.169-.276.332-.377.487-.102.156-.207.321-.314.496v5.821h-3.056v-9.91h3.056v1.426c.48-.588.963-1 1.446-1.237a3.626 3.626 0 011.616-.355c2.07 0 3.105 1.42 3.105 4.26v5.816zM175.934 56.678c-.316.175-.753.344-1.31.505a5.738 5.738 0 01-1.6.243c-2.195 0-3.293-1.229-3.293-3.686V49.8h-1.382v-.617l4.09-4.779h.348v2.946h2.917v2.45h-2.917v3.16c0 .368.02.665.06.891.039.226.15.415.334.567.184.152.462.228.836.228.486 0 1.125-.233 1.917-.7v2.731zM180.495 57.261h-3.056v-9.91h3.056zm-.245-12.176c0 .408-.128.755-.381 1.04-.254.285-.556.428-.906.428a1.14 1.14 0 01-.648-.195 1.352 1.352 0 01-.461-.529 1.628 1.628 0 01-.17-.744c0-.402.124-.748.373-1.04.248-.291.55-.437.906-.437.35 0 .651.146.906.437.254.292.38.638.38 1.04zM190 56.795c-.255.11-.523.212-.806.306a6.644 6.644 0 01-2.112.325c-.944 0-1.74-.182-2.39-.548-.65-.366-1.15-.826-1.5-1.38a5.495 5.495 0 01-.73-1.696 6.781 6.781 0 01-.201-1.526c0-.44.068-.948.206-1.525a5.452 5.452 0 01.72-1.67c.343-.539.839-.988 1.489-1.351.649-.363 1.451-.544 2.407-.544.638 0 1.159.052 1.56.156.402.103.81.243 1.222.417v2.751c-.996-.362-1.773-.544-2.333-.544-.543 0-1.025.188-1.446.563-.421.376-.632.958-.632 1.748 0 .525.104.966.314 1.326.209.36.474.623.797.79.322.17.645.253.967.253.305 0 .653-.051 1.043-.155.39-.104.865-.253 1.425-.448zM129.302 60.037l-5.09 13.627h-2.052l-3.053-7.928-3.13 7.928h-2.07l-4.987-13.627h3.673l2.443 7.46 2.798-7.46h2.537l2.748 7.46 2.553-7.46zM138.557 69.397h-6.11c.12.598.412 1.088.878 1.467.466.38.994.57 1.585.57 1.034 0 2.175-.328 3.424-.985v2.163a8.727 8.727 0 01-1.629.726c-.638.217-1.45.326-2.437.326-1.067 0-1.975-.227-2.723-.68a4.27 4.27 0 01-1.68-1.847c-.372-.777-.558-1.658-.558-2.642 0-.972.186-1.841.558-2.61a4.147 4.147 0 011.68-1.806c.748-.437 1.656-.656 2.723-.656.704 0 1.383.174 2.038.52.655.348 1.194.915 1.617 1.703.422.788.634 1.805.634 3.05zm-2.89-1.735c0-.635-.138-1.143-.413-1.522-.274-.38-.67-.57-1.184-.57-.51 0-.922.193-1.236.579-.314.386-.47.89-.47 1.513zM149.761 68.6c0 1.15-.195 2.102-.585 2.858-.39.756-.887 1.313-1.492 1.67-.604.357-1.22.536-1.847.536-.452 0-.844-.061-1.174-.182-.33-.12-.588-.25-.771-.391a5.933 5.933 0 01-.572-.504v.91h-3.056v-13.46h3.056v4.143c.225-.2.536-.376.932-.529.395-.152.853-.228 1.373-.228.695 0 1.308.144 1.84.431.53.288.963.677 1.3 1.168.336.491.586 1.043.75 1.654.164.61.246 1.253.246 1.924zm-3.193-.077c0-.846-.168-1.49-.504-1.932-.335-.442-.732-.663-1.193-.663-.46 0-.978.21-1.551.63v3.765c.431.466.948.698 1.551.698.38 0 .76-.176 1.134-.528.375-.352.563-1.008.563-1.97z"/></g><g fill="#221b0a"><path d="M65.15 43.68l.623 3.788-2.205 4.22s-.848-1.79-2.254-2.78c-1.186-.837-1.96-1.018-3.165-.77-1.554.322-3.311 2.175-4.078 4.462-.918 2.735-.927 4.06-.96 5.276-.05 1.95.256 3.102.256 3.102s-1.34-2.478-1.326-6.107c.008-2.591.417-4.941 1.614-7.259 1.056-2.038 2.621-3.26 4.013-3.403 1.437-.151 2.575.54 3.453 1.294.92.787 1.856 2.51 1.856 2.51zM65.42 65.119s-.972 1.742-1.58 2.413c-.608.672-1.696 1.854-3.038 2.447-1.343.592-2.047.704-3.375.575-1.325-.127-2.557-.895-2.988-1.217-.432-.318-1.536-1.262-2.157-2.138-.626-.881-1.601-2.64-1.601-2.64s.543 1.762.884 2.51c.195.43.797 1.746 1.651 2.894.795 1.068 2.341 2.909 4.692 3.323 2.35.417 3.965-.638 4.364-.894.4-.255 1.241-.96 1.776-1.53.556-.596 1.083-1.357 1.372-1.81.215-.334.562-1.007.562-1.007z"/></g><g fill="#005a9c"><path d="M24.841 43.846l5.313 18.066 5.315-18.066h3.846l-8.795 29.68h-.366l-5.497-18.393-5.497 18.394h-.366L10 43.846h3.848l5.312 18.066 3.592-12.165-1.759-5.9h3.848z"/><path d="M50.238 63.999c0 2.688-.715 4.948-2.141 6.78-1.43 1.832-3.282 2.748-5.553 2.748-1.71 0-3.2-.546-4.47-1.631-1.27-1.088-2.211-2.56-2.822-4.414l3.004-1.246c.441 1.124 1.021 2.009 1.742 2.655.72.647 1.568.972 2.546.972 1.026 0 1.894-.575 2.603-1.723.708-1.148 1.062-2.527 1.062-4.14 0-1.784-.38-3.163-1.138-4.14-.878-1.147-2.259-1.724-4.139-1.724h-1.465V56.38l5.13-8.868h-6.194l-1.723 2.931h-1.098v-6.596h14.289v1.795l-5.422 9.345c1.904.61 3.346 1.722 4.323 3.335.978 1.611 1.466 3.502 1.466 5.678z"/></g><path d="M68.402 41.379c1.098 0 1.975.895 1.975 1.993a1.98 1.98 0 01-1.984 2 1.992 1.992 0 01-1.993-2c0-1.098.896-1.993 1.993-1.993zm-.017.399c-.832 0-1.505.717-1.505 1.603 0 .893.673 1.594 1.513 1.594.842.008 1.524-.7 1.524-1.594 0-.886-.682-1.603-1.524-1.603zm-.336 2.754h-.47v-2.215c.176-.025.372-.062.709-.062.38 0 .61.062.76.178.123.097.196.248.196.478 0 .266-.186.451-.425.514v.018c.194.034.319.211.352.54.046.345.09.478.126.55h-.487c-.054-.081-.09-.276-.134-.578-.034-.238-.176-.336-.415-.336h-.212v.913zm0-1.276h.22c.275 0 .487-.088.487-.319 0-.185-.133-.327-.452-.327-.115 0-.194 0-.255.009z" fill="#221b0a"/><g><path d="M90.358 43.058c10.437 4.702 12.713-3.97 12.713-3.97s-1.983 10.877-11.134 15.321c-1.864.906-3.021 1.392-3.021 1.392l-14.992-7.307 14.991-6.148s-.361-.102 1.443.712z" fill="#86ba0c"/><path fill="#ef7c00" d="M87.168 74.912L73.2 67.35V51.754l13.967 7.1z"/><path fill="#bd1789" d="M90.31 74.912l13.968-7.562V51.754l-13.968 7.1z"/></g></g></svg>