<svg xmlns="http://www.w3.org/2000/svg" viewBox="0 0 120 60"><g clip-rule="evenodd" fill="#f90" fill-rule="evenodd"><path d="M15.864 42.616v-8.847l6.036 2.056v8.956zM29.042 42.616v-8.847l-6.035 2.056v8.956zM22.593 31.388l5.664 1.826-5.664 1.923-6.109-2.03z"/></g><g clip-rule="evenodd" fill="#f90" fill-rule="evenodd"><path d="M8.678 30.257v-8.848l6.036 2.057v8.956zM21.857 30.257v-8.848l-6.036 2.057v8.956zM15.407 19.028l5.664 1.827-5.664 1.923-6.109-2.03z"/></g><g clip-rule="evenodd" fill="#f90" fill-rule="evenodd"><path d="M22.762 30.257v-8.848l6.036 2.057v8.956zM35.94 30.257v-8.848l-6.035 2.057v8.956zM29.49 19.028l5.665 1.827-5.664 1.923-6.109-2.03z"/></g><g clip-rule="evenodd" fill="#f90" fill-rule="evenodd"><path d="M29.947 17.897V9.05l6.037 2.056v8.956zM43.126 17.897V9.05l-6.035 2.056v8.956zM36.677 6.669l5.664 1.826-5.664 1.923-6.11-2.03z"/></g><g clip-rule="evenodd" fill="#f90" fill-rule="evenodd"><path d="M44.032 17.897V9.05l6.035 2.056v8.956zM57.21 17.897V9.05l-6.036 2.056v8.956zM50.76 6.669l5.665 1.826-5.664 1.923-6.109-2.03z"/></g><g stroke="#000"><path d="M46.997 39.018L44.97 46.06h-.882L42.51 40.83l-1.448 5.231h-.898l-2.107-7.043h1.09l1.534 5.249 1.461-5.25h.804l1.589 5.266 1.578-5.265h.884zM52.606 43.96l1.02.21c-.185.602-.547 1.1-1.085 1.495-.539.395-1.172.592-1.901.592-.96 0-1.738-.338-2.332-1.016-.594-.677-.891-1.564-.891-2.663 0-1.121.308-2.028.926-2.72.617-.69 1.392-1.036 2.325-1.036.92 0 1.658.318 2.218.955.56.636.845 1.588.86 2.856h-5.113c0 1.065.223 1.783.668 2.156.445.372.916.558 1.412.558.896 0 1.526-.462 1.893-1.387zm-.06-2.143a3.055 3.055 0 00-.195-1.053 1.795 1.795 0 00-.612-.784c-.288-.216-.633-.324-1.037-.324a1.85 1.85 0 00-1.381.586c-.378.39-.59.915-.637 1.575h3.862zM55.715 46.061h-.528v-9.51h1.098v3.64c.5-.912 1.19-1.369 2.072-1.369.807 0 1.482.32 2.027.957.545.638.818 1.564.818 2.778 0 1.048-.269 1.926-.804 2.635-.536.71-1.234 1.065-2.092 1.065-.956 0-1.69-.454-2.2-1.36l-.391 1.164zm.57-2.76c.05.722.272 1.247.665 1.573.392.327.807.49 1.243.49.558 0 1.007-.242 1.348-.726.342-.483.512-1.146.512-1.988 0-.907-.165-1.62-.494-2.14-.33-.517-.787-.777-1.372-.777-.46 0-.875.184-1.244.553-.37.37-.589.847-.658 1.432V43.3zM63.998 44.236l1.046-.216c.233.885.968 1.327 2.205 1.327.455 0 .841-.102 1.157-.306a.971.971 0 00.475-.863c0-.551-.403-.901-1.208-1.05l-1.483-.281c-.582-.112-1.044-.33-1.388-.656-.343-.326-.515-.756-.515-1.29 0-.59.235-1.085.704-1.482.469-.398 1.1-.597 1.895-.597 1.528 0 2.471.597 2.829 1.792l-1.004.216c-.288-.731-.88-1.098-1.776-1.098-.445 0-.811.092-1.096.275a.862.862 0 00-.429.766c0 .518.365.844 1.095.978l1.37.253c1.436.26 2.154.957 2.154 2.088 0 .647-.267 1.17-.802 1.568-.534.398-1.245.597-2.133.597-1.67 0-2.7-.674-3.096-2.02zM75.865 43.96l1.02.21c-.185.602-.547 1.1-1.086 1.495-.537.395-1.171.592-1.9.592-.96 0-1.738-.338-2.332-1.016-.594-.677-.89-1.564-.89-2.663 0-1.121.308-2.028.925-2.72.618-.69 1.393-1.036 2.326-1.036.918 0 1.658.318 2.217.955.56.636.846 1.588.86 2.856h-5.112c0 1.065.222 1.783.667 2.156.446.372.916.558 1.413.558.895 0 1.526-.462 1.892-1.387zm-.06-2.143a3.075 3.075 0 00-.195-1.053 1.794 1.794 0 00-.612-.784c-.287-.216-.633-.324-1.037-.324a1.85 1.85 0 00-1.381.586c-.378.39-.59.915-.636 1.575h3.862zM79.282 46.061h-1.097v-7.043h.961v1.642c.339-.77.68-1.268 1.02-1.495.342-.228.691-.342 1.05-.342.11 0 .255.008.43.025v1.047h-.221c-.603 0-1.104.224-1.503.672-.399.447-.612 1.036-.64 1.766v3.728zM88.463 39.018L86.03 46.06h-1.137l-2.513-7.043h1.213l1.956 5.725 1.94-5.725h.973zM90.514 36.551v1.217H89.34V36.55h1.174zm-.026 2.467v7.043h-1.097v-7.043h1.097zM96.22 43.595l.987.174c-.139.778-.448 1.387-.926 1.828-.479.44-1.075.66-1.79.66-.972 0-1.711-.358-2.22-1.075-.509-.716-.763-1.591-.763-2.625 0-1.07.268-1.96.805-2.67.536-.71 1.267-1.065 2.191-1.065.767 0 1.38.23 1.843.689.462.458.749 1.05.86 1.777l-.986.188c-.186-1.162-.747-1.744-1.685-1.744-.604 0-1.067.257-1.392.77-.325.514-.488 1.179-.488 1.996 0 .9.161 1.6.484 2.1.323.5.776.749 1.361.749.905 0 1.478-.584 1.72-1.752zM103.396 43.96l1.02.21a2.869 2.869 0 01-1.085 1.495c-.538.395-1.172.592-1.9.592-.962 0-1.74-.338-2.333-1.016-.594-.677-.891-1.564-.891-2.663 0-1.121.308-2.028.926-2.72.617-.69 1.392-1.036 2.325-1.036.92 0 1.659.318 2.218.955.56.636.846 1.588.86 2.856h-5.113c0 1.065.223 1.783.668 2.156.446.372.916.558 1.412.558.895 0 1.526-.462 1.893-1.387zm-.06-2.143a3.055 3.055 0 00-.195-1.053 1.794 1.794 0 00-.612-.784c-.288-.216-.633-.324-1.037-.324-.543 0-1.003.195-1.381.586-.379.39-.59.915-.637 1.575h3.862zM105.155 44.236l1.047-.216c.232.885.967 1.327 2.204 1.327.455 0 .841-.102 1.158-.306a.971.971 0 00.474-.863c0-.551-.403-.901-1.208-1.05l-1.483-.281c-.581-.112-1.043-.33-1.387-.656-.344-.326-.515-.756-.515-1.29 0-.59.234-1.085.703-1.482.47-.398 1.1-.597 1.895-.597 1.528 0 2.471.597 2.829 1.792l-1.004.216c-.288-.731-.88-1.098-1.775-1.098-.446 0-.812.092-1.097.275a.862.862 0 00-.429.766c0 .518.365.844 1.095.978l1.37.253c1.437.26 2.154.957 2.154 2.088 0 .647-.267 1.17-.802 1.568-.534.398-1.245.597-2.133.597-1.669 0-2.7-.674-3.096-2.02z" stroke-width=".2125"/></g><g clip-rule="evenodd" fill-rule="evenodd"><path d="M80.421 23.964v-1.692a.419.419 0 01.43-.429h7.583c.242 0 .437.176.437.427v1.45c-.002.244-.207.562-.572 1.066l-3.927 5.608c1.458-.034 3 .185 4.325.93.299.167.379.416.403.66v1.805c0 .249-.273.536-.559.387-2.334-1.223-5.431-1.357-8.012.014-.264.14-.54-.143-.54-.392v-1.716c0-.275.005-.744.283-1.163l4.55-6.529H80.86a.421.421 0 01-.439-.426zM53.283 34.531h-2.307a.435.435 0 01-.412-.39l.001-11.84c0-.237.2-.426.446-.426l2.148-.001a.435.435 0 01.42.397v1.546h.043c.56-1.495 1.615-2.192 3.036-2.192 1.443 0 2.347.697 2.994 2.192.56-1.495 1.83-2.192 3.187-2.192.969 0 2.024.399 2.67 1.296.732.996.581 2.441.581 3.712l-.002 7.472c0 .237-.199.426-.445.426H63.34a.433.433 0 01-.414-.425V27.83c0-.498.043-1.744-.065-2.218-.173-.797-.69-1.021-1.357-1.021-.56 0-1.141.373-1.378.971-.237.598-.215 1.595-.215 2.268v6.276c0 .237-.2.426-.445.426H57.16a.433.433 0 01-.414-.425l-.002-6.277c0-1.32.215-3.264-1.422-3.264-1.658 0-1.593 1.893-1.593 3.264v6.276a.435.435 0 01-.446.426zM94.441 21.625c3.397 0 5.235 2.94 5.235 6.678 0 3.612-2.03 6.478-5.235 6.478-3.332 0-5.148-2.94-5.148-6.603 0-3.688 1.837-6.553 5.148-6.553zm.022 2.721c-1.688 0-1.795 2.318-1.795 3.763 0 1.445-.021 4.23 1.774 4.23 1.773 0 1.858-2.187 1.858-3.707 0-.996-.042-2.192-.341-3.14-.257-.821-.77-1.146-1.496-1.146zM104.592 34.531h-2.299a.433.433 0 01-.413-.425l-.004-11.845a.436.436 0 01.443-.386l2.14-.001a.44.44 0 01.41.332v1.81h.043c.646-1.619 1.55-2.391 3.144-2.391 1.034 0 2.046.373 2.692 1.395.603.947.603 2.541.603 3.688v7.45a.438.438 0 01-.442.373h-2.313a.437.437 0 01-.41-.373V27.73c0-1.295.15-3.189-1.443-3.189-.56 0-1.077.374-1.336.947-.323.722-.366 1.445-.366 2.242v6.376a.441.441 0 01-.45.426zM74.638 28.877c0 .899.022 1.648-.432 2.447-.367.65-.95 1.05-1.597 1.05-.885 0-1.403-.675-1.403-1.674 0-1.965 1.763-2.322 3.432-2.322v.499zm2.326 5.625a.478.478 0 01-.545.054c-.766-.637-.904-.932-1.323-1.538-1.266 1.29-2.163 1.677-3.803 1.677-1.943 0-3.453-1.198-3.453-3.596 0-1.872 1.014-3.146 2.46-3.77 1.252-.55 3-.65 4.338-.8v-.299c0-.549.043-1.198-.28-1.673-.28-.425-.82-.6-1.295-.6-.88 0-1.663.452-1.855 1.386-.04.208-.192.414-.4.424l-2.237-.242c-.189-.042-.398-.194-.344-.482.514-2.713 2.964-3.532 5.16-3.532 1.121 0 2.59.3 3.474 1.148 1.122 1.05 1.014 2.448 1.014 3.97v3.595c0 1.081.45 1.555.871 2.138.147.21.18.46-.008.613-.47.395-1.308 1.122-1.769 1.532l-.005-.005zM44.656 28.877c0 .899.022 1.648-.431 2.447-.367.65-.95 1.05-1.597 1.05-.885 0-1.403-.675-1.403-1.674 0-1.965 1.763-2.322 3.431-2.322v.499zm2.327 5.625a.478.478 0 01-.546.054c-.766-.637-.903-.932-1.322-1.538-1.266 1.29-2.163 1.677-3.803 1.677-1.943 0-3.453-1.198-3.453-3.596 0-1.872 1.014-3.146 2.46-3.77 1.252-.55 3-.65 4.337-.8v-.299c0-.549.044-1.198-.28-1.673-.28-.425-.82-.6-1.295-.6-.88 0-1.662.452-1.854 1.386-.04.208-.192.414-.401.424l-2.236-.242c-.189-.042-.399-.194-.344-.482.514-2.713 2.963-3.532 5.159-3.532 1.122 0 2.59.3 3.475 1.148 1.122 1.05 1.014 2.448 1.014 3.97v3.595c0 1.081.449 1.555.87 2.138.148.21.181.46-.007.613a99.45 99.45 0 00-1.769 1.532l-.005-.005z"/></g></svg>