<svg xmlns="http://www.w3.org/2000/svg" viewBox="0 0 200 114"><path d="M76.938 17h3.593v3.563h3.313V17h3.594v10.781h-3.594v-3.593h-3.281v3.593h-3.626m15.25-7.187h-3.171V17h9.953v3.594H95.78v7.187h-3.594M100.547 17h3.766l2.312 3.797L108.938 17h3.765v10.781h-3.594v-5.343l-2.515 3.875-2.516-3.875v5.343h-3.531M114.484 17h3.594v7.219h5.094v3.562h-8.688"/><path d="M76.813 90.594l-5.157-57.875h56.688l-5.156 57.843L99.953 97" fill="#e44d26"/><path d="M100 92.078v-54.61h23.172l-4.422 49.376" fill="#f16529"/><path d="M82.188 44.547H100v7.094H89.969l.656 7.265H100v7.078H84.125m.313 3.563h7.124l.5 5.672L100 77.344v7.406l-14.563-4.063" fill="#ebebeb"/><path d="M117.75 44.547H99.969v7.094h17.125m-.64 7.265H99.968V66h8.75l-.828 9.219-7.922 2.125v7.375l14.531-4.031" fill="#fff"/></svg>