<svg xmlns="http://www.w3.org/2000/svg" viewBox="0 0 120 60" preserveAspectRatio="xMidYMid"><defs><linearGradient x1="104.445" y1="18.938" x2="257.218" y2="181.921" id="a" gradientTransform="scale(1.0065 .99355)" gradientUnits="userSpaceOnUse"><stop stop-color="#F9A03C" offset="0%"/><stop stop-color="#F7974E" offset="100%"/></linearGradient><linearGradient x1="-21.492" y1="48.227" x2="122.236" y2="188.405" id="b" gradientTransform="scale(.9975 1.0025)" gradientUnits="userSpaceOnUse"><stop stop-color="#F9A03C" offset="0%"/><stop stop-color="#F7974E" offset="100%"/></linearGradient><linearGradient x1="44.168" y1="98.813" x2="172.576" y2="246.033" id="c" gradientTransform="scale(1.01377 .98642)" gradientUnits="userSpaceOnUse"><stop stop-color="#F9A03C" offset="0%"/><stop stop-color="#F7974E" offset="100%"/></linearGradient><linearGradient x1="28.215" y1="-4.534" x2="205.274" y2="229.189" id="d" gradientTransform="scale(1.02815 .97262)" gradientUnits="userSpaceOnUse"><stop stop-color="#F26D58" offset="0%"/><stop stop-color="#F9A03C" offset="100%"/></linearGradient><linearGradient x1="125.828" y1="6.467" x2="300.629" y2="121.326" id="e" gradientTransform="scale(.95887 1.04289)" gradientUnits="userSpaceOnUse"><stop stop-color="#B84E51" offset="0%"/><stop stop-color="#F68E48" offset="100%"/></linearGradient><linearGradient x1="60.121" y1="236.936" x2="66.387" y2="395.51" id="f" gradientTransform="scale(1.3814 .7239)" gradientUnits="userSpaceOnUse"><stop stop-color="#F9A03C" offset="0%"/><stop stop-color="#F7974E" offset="100%"/></linearGradient></defs><path d="M255.52 175.619c.115-1.115.197-2.24.261-3.371.078-1.339-80.562-77.85-80.562-77.85h-1.928s81.736 86.215 82.229 81.22z" fill="url(#a)" transform="matrix(.11885 0 0 .11885 9.162 15.595)"/><path d="M83.472 149.077c-.107.235-.213.47-.323.704-.114.246-.232.491-.349.734-2.57 5.36 35.987 43.053 39.088 38.474.141-.202.283-.416.424-.618.157-.24.312-.47.467-.71 2.48-3.765-38.206-41.032-39.307-38.584z" fill="url(#b)" transform="matrix(.11885 0 0 .11885 9.162 15.595)"/><path d="M137.957 202.083c-.109.24-.885 1.552-1.594 2.245-.12.24 37.64 37.688 37.64 37.688h3.4c.002 0-35.446-38.35-39.446-39.933z" fill="url(#c)" transform="matrix(.11885 0 0 .11885 9.162 15.595)"/><path d="M255.835 171.568c-1.766 39.147-34.152 70.448-73.72 70.448h-5.35l-39.514-38.928c3.25-4.584 6.272-9.333 8.962-14.285h35.902c11.354 0 20.594-9.235 20.594-20.595 0-11.355-9.24-20.595-20.594-20.595h-21.246c1.619-8.557 2.504-17.381 2.504-26.408 0-9.165-.901-18.114-2.578-26.808h13.197l81.61 80.414c.097-1.078.174-2.155.233-3.243zM21.467 0H0v53.213h21.467c37.493 0 68 30.499 68 67.992 0 10.2-2.275 19.883-6.318 28.576l39.163 38.59c12.859-19.24 20.376-42.339 20.376-67.166C142.688 54.373 88.307 0 21.467 0z" fill="url(#d)" transform="matrix(.11885 0 0 .11885 9.162 15.595)"/><path d="M182.115 0H95.187C116.419 12.963 134 31.344 145.979 53.213h36.136c11.354 0 20.594 9.235 20.594 20.595 0 11.357-9.24 20.592-20.594 20.592h-8.12l81.61 80.413c.192-2.181.312-4.376.312-6.605 0-17.939-6.437-34.395-17.125-47.203 10.688-12.802 17.125-29.261 17.125-47.197C255.917 33.112 222.813 0 182.115 0z" fill="url(#e)" transform="matrix(.11885 0 0 .11885 9.162 15.595)"/><path d="M176.765 242.016H95.808c16.296-10.064 30.384-23.35 41.443-38.928zm-54.453-53.645l-39.16-38.59c-10.819 23.251-34.395 39.422-61.685 39.422H0v53.208h21.467c42.01 0 79.09-21.488 100.845-54.04z" fill="url(#f)" transform="matrix(.11885 0 0 .11885 9.162 15.595)"/><g font-weight="400" font-family="sans-serif" letter-spacing="0" word-spacing="0" fill="#4f4f4f" stroke-width=".226"><path d="M55.253 24.062q0 1.037-.454 1.88-.45.843-1.2 1.308-.522.321-1.166.464-.638.143-1.685.143h-1.921v-7.606h1.9q1.114 0 1.768.163.659.159 1.113.44.777.485 1.211 1.292.434.807.434 1.916zm-1.057-.015q0-.894-.312-1.507-.311-.613-.93-.966-.449-.255-.955-.352-.505-.103-1.21-.103h-.95v5.87h.95q.73 0 1.272-.107.546-.108 1-.399.568-.362.849-.955.286-.593.286-1.481zM61.256 27.857H60.3v-.607q-.127.086-.347.245-.215.153-.419.245-.24.117-.552.194-.311.082-.73.082-.771 0-1.308-.511-.536-.51-.536-1.303 0-.648.276-1.047.28-.403.797-.633.52-.23 1.251-.312.73-.082 1.568-.123v-.148q0-.327-.117-.541-.113-.215-.327-.337-.204-.118-.49-.159-.287-.04-.598-.04-.378 0-.843.102-.465.097-.96.286h-.051v-.976q.28-.077.812-.169.531-.092 1.047-.092.603 0 1.047.103.45.097.777.337.321.235.49.608.169.373.169.924zm-.956-1.404v-1.59q-.439.026-1.037.078-.592.05-.94.148-.413.117-.669.367-.255.246-.255.68 0 .49.296.74.296.246.904.246.506 0 .925-.194.419-.2.776-.475zM66.078 27.806q-.27.072-.593.118-.316.046-.567.046-.873 0-1.328-.47-.454-.47-.454-1.507v-3.035h-.65v-.807h.65v-1.64h.96v1.64h1.982v.807h-1.982v2.6q0 .45.02.706.02.25.143.47.113.204.307.301.2.092.603.092.235 0 .49-.066.255-.072.368-.118h.051zM71.677 27.857h-.956v-.607q-.127.086-.347.245-.214.153-.419.245-.24.117-.551.194-.312.082-.731.082-.771 0-1.308-.511-.536-.51-.536-1.303 0-.648.276-1.047.28-.403.797-.633.52-.23 1.251-.312.73-.082 1.568-.123v-.148q0-.327-.117-.541-.112-.215-.327-.337-.204-.118-.49-.159-.286-.04-.598-.04-.378 0-.843.102-.465.097-.96.286h-.051v-.976q.28-.077.812-.169.531-.092 1.047-.092.603 0 1.047.103.45.097.777.337.322.235.49.608.169.373.169.924zm-.956-1.404v-1.59q-.439.026-1.037.078-.592.05-.94.148-.413.117-.669.367-.255.246-.255.68 0 .49.296.74.296.246.904.246.506 0 .925-.194.419-.2.776-.475zM76.56 24.992h-3.187v-.925h3.187zM84.8 24.062q0 1.037-.454 1.88-.45.843-1.2 1.308-.522.321-1.166.464-.638.143-1.685.143h-1.921v-7.606h1.9q1.114 0 1.768.163.659.159 1.113.44.777.485 1.211 1.292.434.807.434 1.916zm-1.057-.015q0-.894-.312-1.507-.311-.613-.93-.966-.45-.255-.955-.352-.506-.103-1.21-.103h-.95v5.87h.95q.73 0 1.271-.107.547-.108 1.002-.399.567-.362.848-.955.286-.593.286-1.481zM89.929 23.199h-.051q-.215-.052-.419-.072-.2-.025-.475-.025-.444 0-.858.199-.414.194-.797.505v4.051h-.96v-5.706h.96v.843q.572-.46 1.006-.649.44-.194.894-.194.25 0 .363.016.112.01.337.046zM91.875 21.196h-1.083V20.2h1.083zm-.061 6.661h-.96v-5.706h.96zM98.66 22.151l-2.31 5.706h-.965l-2.294-5.706h1.042l1.768 4.542 1.752-4.542zM104.61 25.104h-4.204q0 .526.159.92.158.388.434.638.266.245.628.368.368.122.807.122.583 0 1.17-.23.593-.234.843-.46h.051v1.048q-.485.204-.99.342-.507.138-1.063.138-1.42 0-2.217-.766-.797-.771-.797-2.186 0-1.4.76-2.223.767-.822 2.013-.822 1.155 0 1.778.674.629.675.629 1.916zm-.934-.736q-.005-.756-.383-1.17-.373-.413-1.14-.413-.771 0-1.23.454-.455.455-.517 1.13zM110.838 27.857h-.96v-3.249q0-.393-.047-.735-.046-.347-.168-.542-.128-.214-.368-.316-.24-.108-.623-.108-.394 0-.823.195-.429.194-.822.495v4.26h-.96v-5.706h.96v.634q.45-.373.93-.583.48-.209.985-.209.925 0 1.41.557.486.557.486 1.604z" style="line-height:1.25"/><g><path d="M55.253 35.846q0 1.037-.454 1.88-.45.843-1.2 1.308-.522.322-1.166.465-.638.143-1.685.143h-1.921v-7.607h1.9q1.114 0 1.768.164.659.158 1.113.44.777.484 1.211 1.292.434.807.434 1.915zm-1.057-.015q0-.894-.312-1.507-.311-.613-.93-.966-.449-.255-.955-.352-.505-.102-1.21-.102h-.95v5.87h.95q.73 0 1.272-.108.546-.107 1-.398.568-.363.849-.956.286-.592.286-1.481zM61.685 36.791q0 1.395-.715 2.202-.716.807-1.916.807-1.21 0-1.926-.807-.71-.807-.71-2.202 0-1.394.71-2.201.715-.813 1.926-.813 1.2 0 1.916.813.715.807.715 2.201zm-.991 0q0-1.108-.434-1.645-.435-.541-1.206-.541-.782 0-1.216.541-.429.537-.429 1.645 0 1.073.434 1.63.434.552 1.21.552.767 0 1.201-.547.44-.552.44-1.635zM67.396 39.284q-.48.23-.914.358-.43.127-.915.127-.618 0-1.134-.178-.516-.184-.884-.552-.373-.368-.577-.93-.204-.562-.204-1.313 0-1.4.766-2.196.771-.797 2.033-.797.49 0 .96.138.476.138.869.337v1.068h-.051q-.44-.343-.91-.527-.464-.184-.909-.184-.817 0-1.292.552-.47.547-.47 1.61 0 1.031.46 1.588.464.552 1.302.552.291 0 .593-.077.301-.077.541-.2.21-.106.394-.224.184-.122.29-.21h.052zM73.363 39.642h-.96v-.634q-.486.383-.93.588-.445.204-.981.204-.9 0-1.4-.547-.5-.551-.5-1.614v-3.703h.96v3.249q0 .434.04.745.041.307.174.527.138.224.358.326.22.103.638.103.373 0 .813-.194.444-.195.827-.496v-4.26h.96zM83.58 39.642h-.961v-3.25q0-.367-.036-.71-.03-.342-.138-.546-.117-.22-.337-.332-.22-.112-.633-.112-.404 0-.807.204-.404.2-.808.51.016.118.026.277.01.153.01.306v3.653h-.96v-3.25q0-.377-.036-.714-.03-.343-.138-.547-.117-.22-.337-.327-.22-.112-.633-.112-.394 0-.792.194-.393.194-.787.495v4.26h-.96v-5.705h.96v.633q.45-.373.894-.582.45-.21.956-.21.582 0 .985.245.41.246.608.68.583-.49 1.063-.705.48-.22 1.027-.22.94 0 1.384.572.45.567.45 1.59zM90.205 36.888H86q0 .526.158.92.158.388.434.638.266.246.629.368.367.123.807.123.582 0 1.17-.23.592-.235.842-.46h.052v1.047q-.486.205-.992.343-.505.138-1.062.138-1.42 0-2.217-.767-.797-.771-.797-2.186 0-1.4.761-2.222.766-.823 2.013-.823 1.154 0 1.778.675.628.674.628 1.915zm-.935-.735q-.005-.756-.383-1.17-.373-.414-1.14-.414-.77 0-1.23.455-.455.454-.516 1.129zM96.432 39.642h-.96v-3.25q0-.393-.046-.735-.046-.347-.169-.541-.128-.215-.368-.317-.24-.107-.623-.107-.393 0-.822.194-.43.194-.823.495v4.26h-.96v-5.705h.96v.633q.45-.373.93-.582.48-.21.986-.21.924 0 1.41.557.485.557.485 1.604zM101.244 39.59q-.27.072-.592.118-.317.046-.567.046-.874 0-1.329-.47-.454-.47-.454-1.507v-3.034h-.65v-.807h.65v-1.64h.96v1.64h1.982v.807h-1.982v2.6q0 .45.02.705.021.25.144.47.112.204.306.301.2.092.603.092.235 0 .49-.066.256-.072.368-.118h.051zM106.485 37.997q0 .781-.648 1.282-.644.5-1.763.5-.633 0-1.165-.148-.526-.153-.883-.332v-1.077h.05q.455.342 1.012.546.557.2 1.068.2.633 0 .99-.205.359-.204.359-.644 0-.337-.195-.51-.194-.174-.745-.297-.205-.046-.537-.107-.327-.061-.597-.133-.751-.199-1.068-.582-.312-.388-.312-.95 0-.353.143-.664.148-.312.445-.557.286-.24.725-.378.445-.143.991-.143.511 0 1.032.127.526.123.874.302v1.027h-.052q-.367-.271-.893-.455-.527-.19-1.032-.19-.527 0-.89.205-.362.2-.362.598 0 .352.22.531.214.179.694.291.266.062.593.123.332.061.552.112.669.154 1.032.527.362.378.362 1z" style="line-height:1.25"/></g></g></svg>