<svg xmlns="http://www.w3.org/2000/svg" viewBox="0 0 200 114"><path d="M30.72 41.43v24.765h2.909V53.293a12.693 12.693 0 012.491-1.5c.866-.392 1.696-.588 2.49-.588.774 0 1.402.108 1.887.324.485.207.856.527 1.114.96.248.392.418.938.51 1.64.093.69.14 1.433.14 2.227v9.839h2.91V54.98c0-2.115-.492-3.733-1.471-4.857-.98-1.125-2.403-1.687-4.27-1.687-1.021 0-2.016.21-2.985.634-.97.423-1.909 1.01-2.816 1.763v-9.402zm39.04.694v24.071h2.91v-24.07zM10 43.161v23.034h3.263v-9.198h3.262c1.756-.066 3.212-.195 4.365-.587a8.333 8.333 0 003-1.796 6.704 6.704 0 001.582-2.258c.384-.877.576-1.212.576-2.233 0-1.341-.258-2.45-.775-3.327-.505-.877-1.224-1.608-2.158-2.196-.79-.495-1.696-.857-2.718-1.084-1.021-.237-2.268-.355-3.74-.355zm3.263 2.63h3.229c1.032 0 1.884.071 2.554.216a5.525 5.525 0 011.813.681c.604.372 1.053.851 1.35 1.439.296.588.445 1.278.445 2.072 0 .681-.11 1.294-.33 1.84-.208.548-.57.456-1.087.95-.516.486-1.186.841-2.01 1.068-.824.217-1.894.325-3.213.325h-2.75zm72.571 2.645c-2.444 0-4.388.82-5.832 2.46-1.433 1.63-2.15 3.851-2.15 6.667 0 2.815.717 5.039 2.15 6.668 1.444 1.63 3.388 2.444 5.832 2.444 2.424 0 4.357-.814 5.801-2.444s2.167-3.853 2.167-6.668c0-2.816-.723-5.038-2.167-6.667-1.444-1.64-3.377-2.46-5.8-2.46zm-37.12.48L55.6 65.36l-3.218 7.21h3.11l10.087-23.654H62.53l-5.353 12.81-5.306-12.81zm37.12 2.026c1.557 0 2.775.547 3.652 1.64.877 1.083 1.314 2.743 1.314 4.98 0 2.187-.443 3.838-1.33 4.952-.877 1.104-2.089 1.655-3.636 1.655-1.568 0-2.79-.557-3.666-1.67-.877-1.125-1.314-2.77-1.314-4.936 0-2.238.433-3.898 1.3-4.98.876-1.094 2.102-1.641 3.68-1.641z" style="line-height:1.25;-inkscape-font-specification:'sans-serif, Normal';font-variant-ligatures:normal;font-variant-caps:normal;font-variant-numeric:normal;font-feature-settings:normal;text-align:start" font-weight="400" font-family="sans-serif" letter-spacing="0" word-spacing="0" fill="#17365d"/><path d="M96.416 43.122v2.722h8.229v20.313h3.063V45.844h8.23v-2.722zm41.537 5.275c-2.517 0-4.55.83-6.096 2.491-1.537 1.66-2.305 3.904-2.305 6.73 0 2.857.805 5.063 2.414 6.62 1.609 1.548 3.846 2.321 6.713 2.321 1.124 0 2.197-.14 3.218-.418a23.993 23.993 0 003.001-1.037v-3.17h-.155c-.505.454-1.356.918-2.553 1.392-1.186.464-2.366.696-3.541.696-.887 0-1.703-.123-2.446-.37a5.241 5.241 0 01-1.902-1.115c-.557-.505-.995-1.15-1.314-1.934-.32-.795-.48-1.723-.48-2.785h12.732V56.24c0-2.506-.634-4.44-1.903-5.801-1.258-1.362-3.053-2.042-5.383-2.042zm18.873 0c-2.517 0-4.55.83-6.096 2.491-1.537 1.66-2.305 3.904-2.305 6.73 0 2.857.805 5.063 2.414 6.62 1.608 1.548 3.846 2.321 6.713 2.321 1.124 0 2.197-.14 3.218-.418a23.993 23.993 0 003.001-1.037v-3.17h-.154c-.505.454-1.356.918-2.552 1.392-1.186.464-2.368.696-3.543.696-.887 0-1.702-.123-2.444-.37a5.241 5.241 0 01-1.903-1.115c-.557-.505-.996-1.15-1.315-1.934-.32-.795-.48-1.723-.48-2.785h12.732V56.24c0-2.506-.634-4.44-1.903-5.801-1.258-1.362-3.053-2.042-5.383-2.042zm-38.12.48v17.28h2.91V53.89c.774-.629 1.578-1.14 2.414-1.531a5.923 5.923 0 012.599-.604c.556 0 1.036.026 1.438.077.413.041.835.114 1.268.218h.155v-2.987a16.834 16.834 0 00-1.021-.139 9.104 9.104 0 00-1.098-.046 6.64 6.64 0 00-2.708.587c-.876.382-1.892 1.037-3.047 1.965v-2.552zm19.091 1.919c1.547 0 2.698.417 3.45 1.253.764.835 1.15 2.015 1.16 3.541h-9.9c.123-1.361.644-2.5 1.562-3.418.928-.918 2.171-1.376 3.728-1.376zm18.873 0c1.547 0 2.698.417 3.45 1.253.764.835 1.15 2.015 1.16 3.541h-9.9c.123-1.361.645-2.5 1.563-3.418.928-.918 2.17-1.376 3.727-1.376z" style="line-height:1.25;-inkscape-font-specification:'sans-serif, Normal';font-variant-ligatures:normal;font-variant-caps:normal;font-variant-numeric:normal;font-feature-settings:normal;text-align:start" font-weight="400" font-size="42.667" font-family="sans-serif" letter-spacing="0" word-spacing="0" fill="#0070c0"/><path d="M185.823 54.108l-.625 2.676h-1.059l-.284 1.267h1.059l-1.159 5.003c-.045.222-.081.422-.109.6a4.103 4.103 0 00-.033.525c0 .728.21 1.262.626 1.601.423.334 1.017.5 1.784.5.273 0 .584-.025.934-.075.356-.05.69-.113 1.001-.191l.292-1.352h-.085a5.674 5.674 0 01-.64.184 3.404 3.404 0 01-.81.116c-.556 0-.937-.097-1.143-.291-.205-.2-.307-.504-.307-.91 0-.166.022-.387.067-.665.044-.284.093-.535.149-.752l1-4.293h3.236l.283-1.267h-3.236l.627-2.676zm-12.748 2.418c-.55 0-1.075.113-1.575.34-.495.228-1.035.546-1.619.952l.242-1.034h-1.567l-2.151 9.312h1.568l1.608-6.952c.684-.45 1.232-.759 1.643-.926.412-.172.783-.26 1.117-.26.472 0 .848.096 1.125.285.278.183.418.528.418 1.034 0 .228-.022.452-.067.674-.044.217-.103.498-.175.843l-1.226 5.302h1.568l1.375-5.96c.033-.14.062-.298.084-.476.028-.178.047-.337.058-.476.484-.328.97-.614 1.46-.858.488-.245.952-.367 1.392-.367.594 0 .998.114 1.21.342.21.228.315.554.315.976 0 .217-.022.45-.066.7-.04.25-.092.522-.159.817l-1.225 5.302h1.568l1.4-6.045c.05-.21.086-.419.108-.625.028-.205.042-.4.042-.583 0-.733-.206-1.304-.618-1.71-.411-.405-1.025-.607-1.842-.607a4.53 4.53 0 00-1.726.358c-.583.233-1.241.616-1.975 1.15a1.889 1.889 0 00-.784-1.108c-.39-.267-.898-.4-1.526-.4z" style="line-height:1.25;-inkscape-font-specification:'sans-serif, Italic';font-variant-ligatures:normal;font-variant-caps:normal;font-variant-numeric:normal;font-feature-settings:normal;text-align:start" font-style="italic" font-weight="400" font-family="sans-serif" letter-spacing="0" word-spacing="0" fill="#f60"/></svg>