<svg xmlns="http://www.w3.org/2000/svg" viewBox="0 0 200 114"><path d="M87.03 47.724c0 8.525-6.67 14.807-14.854 14.807s-14.853-6.282-14.853-14.807c0-8.584 6.669-14.806 14.853-14.806 8.184 0 14.853 6.222 14.853 14.806zm-6.503 0c0-5.327-3.865-8.972-8.35-8.972-4.487 0-8.352 3.645-8.352 8.972 0 5.274 3.865 8.972 8.351 8.972 4.486 0 8.351-3.705 8.351-8.972z" fill="#ea4335"/><path d="M119.072 47.724c0 8.525-6.669 14.807-14.853 14.807-8.184 0-14.853-6.282-14.853-14.807 0-8.578 6.669-14.806 14.853-14.806 8.184 0 14.853 6.222 14.853 14.806zm-6.502 0c0-5.327-3.865-8.972-8.351-8.972-4.486 0-8.351 3.645-8.351 8.972 0 5.274 3.865 8.972 8.351 8.972 4.486 0 8.351-3.705 8.351-8.972z" fill="#fbbc05"/><path d="M149.78 33.812v26.583c0 10.934-6.449 15.4-14.072 15.4-7.177 0-11.496-4.8-13.125-8.725l5.661-2.356c1.008 2.41 3.478 5.253 7.457 5.253 4.88 0 7.904-3.01 7.904-8.678v-2.13h-.227c-1.455 1.796-4.26 3.365-7.797 3.365-7.403 0-14.186-6.449-14.186-14.746 0-8.358 6.783-14.86 14.186-14.86 3.531 0 6.335 1.569 7.797 3.311h.227v-2.41h6.175zm-5.715 13.966c0-5.214-3.478-9.026-7.903-9.026-4.486 0-8.245 3.812-8.245 9.026 0 5.16 3.759 8.918 8.245 8.918 4.425 0 7.903-3.758 7.903-8.918z" fill="#4285f4"/><path d="M159.96 18.232v43.39h-6.342v-43.39z" fill="#34a853"/><path d="M184.673 52.597l5.047 3.365c-1.63 2.41-5.554 6.562-12.337 6.562-8.411 0-14.693-6.502-14.693-14.806 0-8.805 6.335-14.807 13.966-14.807 7.683 0 11.441 6.115 12.67 9.42l.674 1.682-19.793 8.197c1.515 2.97 3.872 4.486 7.176 4.486 3.311 0 5.608-1.629 7.29-4.099zm-15.534-5.327l13.23-5.494c-.727-1.849-2.916-3.137-5.493-3.137-3.305 0-7.904 2.917-7.737 8.631z" fill="#ea4335"/><path d="M33.318 43.873V37.59h21.168c.207 1.095.314 2.39.314 3.792 0 4.712-1.289 10.54-5.44 14.692-4.04 4.206-9.2 6.449-16.036 6.449-12.67 0-23.324-10.32-23.324-22.99 0-12.67 10.654-22.991 23.324-22.991 7.01 0 12.003 2.75 15.755 6.335l-4.433 4.432c-2.69-2.523-6.335-4.486-11.328-4.486-9.253 0-16.489 7.457-16.489 16.71 0 9.252 7.236 16.708 16.489 16.708 6.001 0 9.419-2.41 11.609-4.6 1.775-1.775 2.943-4.312 3.404-7.776z" fill="#4285f4"/><text y="93.492" x="9.349" style="line-height:1.25;-inkscape-font-specification:Arial;font-variant-ligatures:normal;font-variant-caps:normal;font-variant-numeric:normal;font-feature-settings:normal;text-align:start" font-weight="400" font-size="14.496" font-family="Arial" letter-spacing="0" word-spacing="0" stroke-width=".362"><tspan y="93.492" x="9.349">Structured Data Testing Tool</tspan></text></svg>