<svg xmlns="http://www.w3.org/2000/svg" viewBox="0 0 200 114"><defs><filter height="1.072" y="-.036" width="1.072" x="-.036" id="a" color-interpolation-filters="sRGB"><feGaussianBlur stdDeviation=".604"/></filter></defs><circle r=".56" cy="26.743" cx="159.037" fill="none"/><path d="M42.476 17l-3.362 3.05c-14.485 13.142-15.087 35.877-1.71 50.62L61.292 97H78.24L46.7 62.235c-9.01-9.931-8.463-24.44.849-32.888L61.159 17zm89.692 0l14.306 15.768c9.01 9.931 8.472 24.44-.84 32.89L111.088 97h18.682l24.298-22.045c14.486-13.142 15.079-35.878 1.702-50.622L149.118 17zm-33.75.227L84.395 29.95c-2.856 2.591-4.88 5.887-5.413 9.43-.533 3.542.405 6.862 1.781 9.572 2.75 5.42 7.161 9.446 11.087 13.396 3.926 3.95 7.32 7.806 8.362 10.174.52 1.184.542 1.766.43 2.3-.11.534-.433 1.386-1.998 2.806l-12.92 11.72L92.668 97h3.305l11.107-10.076c2.98-2.704 5.1-5.958 5.847-9.518.748-3.56.043-7.064-1.221-9.94-2.53-5.754-6.958-9.949-10.95-13.966-3.992-4.017-7.596-7.87-8.793-10.23-.6-1.18-.615-1.728-.57-2.024.045-.296.126-.81 1.437-2l14.023-12.722zm-29.73 3.277a8.423 8.423 0 00-5.948 2.182l.006.001a8.423 8.423 0 00-.579 11.896 8.423 8.423 0 0011.896.579 8.423 8.423 0 00.579-11.9 8.423 8.423 0 00-5.953-2.758zm56.427 3.636l-20.341 18.455 6.326 6.973 13.369-12.13 5.556 6.125c1.972 2.173 2.183 3.406 2.074 4.639-.11 1.233-.875 2.868-2.413 4.713-3.074 3.69-8.655 7.381-12.545 10.91l6.326 6.972c2.717-2.465 8.966-6.47 13.456-11.86 2.245-2.693 4.197-5.94 4.55-9.898.353-3.957-1.22-8.214-4.476-11.802z" style="line-height:normal;font-variant-ligatures:normal;font-variant-position:normal;font-variant-caps:normal;font-variant-numeric:normal;font-variant-alternates:normal;font-feature-settings:normal;text-indent:0;text-align:start;text-decoration-line:none;text-decoration-style:solid;text-decoration-color:#000;text-transform:none;text-orientation:mixed;white-space:normal;shape-padding:0;isolation:auto;mix-blend-mode:normal;solid-color:#000;solid-opacity:1" color="#000" font-weight="400" font-family="sans-serif" overflow="visible" fill="#677178" enable-background="accumulate"/><rect transform="matrix(.55046 0 0 .55046 -507.26 34.248)" ry="9.894" rx="9.894" y="-22.31" x="1192.662" height="40.26" width="40.26" fill="#fff" filter="url(#a)"/><path d="M156.224 22.19c-3.43 0-6.188 2.883-6.188 6.375v14.32l6.19-.014h8.46c3.431 0 6.187-2.883 6.187-6.375v-7.931c0-3.492-2.756-6.374-6.187-6.374zm0 2.202h8.462c2.206 0 3.986 1.82 3.986 4.173v7.931c0 2.352-1.78 4.174-3.986 4.174h-8.464l-3.984.008V28.565c0-2.352 1.78-4.173 3.986-4.173zm2.759.926a1.477 1.477 0 00-1.477 1.477 1.477 1.477 0 001.477 1.478 1.477 1.477 0 001.478-1.478 1.477 1.477 0 00-1.478-1.477zm1.956 3.495c-.676 0-1.328.19-1.814.587-.487.398-.756.94-.897 1.454-.281 1.028-.183 2.07-.139 3.047.045.976.031 1.876-.113 2.307-.071.215-.137.293-.215.35-.077.055-.22.128-.59.128h-3.06v2.202h3.06c.706 0 1.365-.173 1.882-.547.516-.374.838-.913 1.012-1.435.35-1.046.27-2.113.224-3.105-.045-.993-.06-1.918.063-2.366.062-.223.124-.296.165-.33.04-.033.112-.09.422-.09h3.321v-2.202zm1.157 4.045v1.651h3.167v1.45c0 .515-.118.7-.278.848-.16.147-.451.27-.869.328-.834.117-1.994-.062-2.915-.062v1.652c.643 0 1.927.216 3.146.045.609-.085 1.245-.277 1.757-.75.513-.472.81-1.21.81-2.06v-3.102z" style="line-height:normal;font-variant-ligatures:normal;font-variant-position:normal;font-variant-caps:normal;font-variant-numeric:normal;font-variant-alternates:normal;font-feature-settings:normal;text-indent:0;text-align:start;text-decoration-line:none;text-decoration-style:solid;text-decoration-color:#000;text-transform:none;text-orientation:mixed;white-space:normal;shape-padding:0;isolation:auto;mix-blend-mode:normal;solid-color:#000;solid-opacity:1" color="#000" font-weight="400" font-family="sans-serif" overflow="visible" fill="#333" enable-background="accumulate"/></svg>