<svg xmlns="http://www.w3.org/2000/svg" overflow="visible" viewBox="0 0 200 114"><path d="M130.31 45.784l.655-21.727-13.945 5.646-.539-8.994c-5.74-4.439-14.523-4.127-21.496-2.647l-.385 7.475h-.038l-15.217-1.051c-.115 3.115-.193 6.23-.347 9.345l-.732-.118-.847-15.34-16.333.818-.462 14.951-7.396 1.285-.039 9.267-5.355-.388L50.03 70.47l1.117-.117-2.08-24.842 5.24.428.076-9.539 6.24-1.09-.385 12.888 5.008 1.402v-.039l.192-16.237-3.66.584.424-13.666 14.177-.662.847 15.185 2.85.312.386-9.384c0-.038.038.038.077 0l14.023 1.012-.925 19.819c1.772.039 3.583.039 5.355.078l-.925-20.793c-.77-.038-1.541-.116-2.311-.194l.308-6.62c6.318-1.285 14.099-1.44 19.338 2.337l.54 8.839-2.774 1.168v.038l-.346 11.487 5.007.857-.693-12.811 12.674-5.14v.078l-.655 21.532 5.74-1.869-1.195 25.115 1.117.078 1.157-23.673.076-3.155zM64.284 34.688l-.155 13.394-2.735-.74.347-12.148v-.078c.847-.156 1.695-.272 2.543-.428zM96.989 26.9l.808 18.534-2.966-.039.887-18.612c.461 0 .847.117 1.27.117zm19.646 15.458l-2.658-.467.308-9.774 1.657-.7.693 10.863z" fill="#514b47" stroke="#514b47" stroke-width=".14911613999999998"/><g fill="#cc5200"><path d="M89.22 97c-1.821 0-3.164-.683-4.53-2.118-.934-.978-1.685-2.869-1.685-4.962 0-2.46 1.047-4.646 2.868-6.012 1.07-.797 2.3-1.23 3.575-1.23 1.298 0 2.505.342 3.734 1.071l-1.002 2.96c-.91-.479-1.73-.73-2.595-.73-1.799 0-3.051 1.504-3.051 3.917 0 2.39 1.343 3.961 3.142 3.961 1.024 0 1.935-.363 2.983-1.092l.66 2.823c-1.207.956-2.506 1.412-4.1 1.412zM108.437 92.834c0 2.482-1.89 4.166-4.873 4.166-2.026 0-3.597-.934-4.234-2.437l2.14-1.933c.706 1.046 1.457 1.57 2.254 1.57.911 0 1.457-.5 1.457-1.275 0-.842-.615-.979-1.48-1.32l-.91-.364c-2.026-.798-3.143-2.39-3.143-4.395 0-2.368 1.845-4.053 4.6-4.053 1.753 0 3.074.66 3.847 1.138l-1.07 2.96c-1.07-.706-2.004-1.07-2.778-1.07-1.002 0-1.525.364-1.525 1.001 0 .592.455.866 1.343 1.184l.934.342c2.322.843 3.438 2.323 3.438 4.486zM117.868 93.949l-.933 2.732h-3.438l4.986-13.684h2.892l4.986 13.684h-3.438l-.933-2.732zm3.347-2.254l-.364-1.115c-.091-.273-.41-1.389-.934-3.302-.5 1.935-.797 3.051-.888 3.324l-.387 1.093zM132.9 96.681V82.998h3.3v13.683zM144.345 96.681V82.998h3.348v10.951h4.554v2.732z"/></g><path d="M134.872 69.657l-9.481 1.292 1.733-19.001h-.039l-15.332.584.694 9.812a38.642 38.642 0 00-5.2 0v-.078l-.27-14.523-7.82.389-1.04 4.244-8.013.35-4.122 14.524-3.582-.04.462-24.023v-2.609l-12.25 2.609.616 13.94c-4.005-.468-7.897.233-11.287 1.673l-.694 10.67-9.31-.075.093 1.076 9.14.166-.538 8.723h.077l23.46-.78v-.038l.193-10.163h4.468l4.16-14.6 8.013-.313 1.078-4.244 5.779-.311.27 13.55c-4.893.622-9.439 1.985-13.56 4.4-2.273 1.44-5.47 3.505-5.509 6.54h20.455l-.192-9.928c1.694-.116 3.505-.156 5.2.039l.424 5.88 8.629-.858c-.231-1.402-.5-2.764-.462-4.282-2.388-.896-4.93-1.48-7.55-1.83l-.578-8.8 12.943-.468-1.771 19.157 10.659-1.607zM61.02 59.618v-.077c3.12-1.09 6.664-1.752 10.286-1.247l.462 9.969 3.12.078.077 1.402-14.561-.273zm11.44-1.09c.657.117 1.234.311 1.85.545l.5 8.022c-.577.077-1.309.037-1.925.037zm8.591 18.963l-21.11.739h-.076c.115-2.532.308-5.062.462-7.593l15.833.312-.116-2.609 5.2.039zm.193-10.28l-5.278-.039-.54-8.838c-.923-.506-1.925-.78-2.966-1.013l-.115-.817-.578-12.382 9.9-2.103.04 2.18zm7.166 5.024c1.348-2.532 4.005-4.012 6.317-5.258 3.544-1.75 7.358-2.841 11.44-3.348l.155 8.606zm31.549-7.165l.308 2.492-6.24.584-.347-4.517c2.195.234 4.276.74 6.279 1.441z" fill="#cc5200"/></svg>