<svg xmlns="http://www.w3.org/2000/svg" xmlns:xlink="http://www.w3.org/1999/xlink" viewBox="0 0 200 114" version="1.0"><defs><linearGradient id="c"><stop offset="0" stop-color="#b8b8b8" stop-opacity=".498"/><stop offset="1" stop-color="#7f7f7f" stop-opacity="0"/></linearGradient><linearGradient id="a"><stop offset="0" stop-color="#ffd43b"/><stop offset="1" stop-color="#ffe873"/></linearGradient><linearGradient id="b"><stop offset="0" stop-color="#5a9fd4"/><stop offset="1" stop-color="#306998"/></linearGradient><linearGradient gradientTransform="matrix(.1971 0 0 .199 11.566 29.856)" gradientUnits="userSpaceOnUse" xlink:href="#a" id="e" y2="137.273" x2="112.031" y1="192.352" x1="150.961"/><linearGradient gradientTransform="matrix(.1971 0 0 .199 11.566 29.856)" gradientUnits="userSpaceOnUse" xlink:href="#b" id="d" y2="114.398" x2="135.665" y1="20.604" x1="26.649"/><radialGradient gradientTransform="matrix(0 -.08407 .36954 0 -12.509 83.873)" gradientUnits="userSpaceOnUse" xlink:href="#c" id="f" fy="132.286" fx="61.519" r="29.037" cy="132.286" cx="61.519"/></defs><path d="M79.545 53.414c0-5.102-1.455-7.722-4.364-7.865a8.2 8.2 0 00-3.388.556c-.878.315-1.469.625-1.78.94v12.178c1.862 1.168 3.515 1.711 4.956 1.626 3.05-.202 4.576-2.678 4.576-7.435zm3.59.212c0 2.592-.608 4.743-1.831 6.454-1.363 1.937-3.251 2.934-5.666 2.989-1.82.058-3.695-.512-5.625-1.708V72.43l-3.121-1.113v-24.57c.512-.628 1.171-1.168 1.97-1.625 1.858-1.083 4.116-1.64 6.773-1.667l.044.045c2.428-.031 4.3.966 5.615 2.988 1.226 1.854 1.84 4.231 1.84 7.138zM102.212 60.89c0 3.477-.348 5.884-1.045 7.223-.7 1.339-2.032 2.408-4 3.204-1.594.628-3.319.97-5.17 1.028l-.516-1.968c1.882-.256 3.207-.512 3.976-.768 1.513-.512 2.55-1.298 3.121-2.35.458-.857.683-2.493.683-4.914v-.813a16.038 16.038 0 01-6.71 1.451c-1.537 0-2.893-.481-4.061-1.451-1.312-1.055-1.967-2.394-1.967-4.016V44.524l3.121-1.069v13.077c0 1.397.45 2.473 1.352 3.227.902.755 2.07 1.117 3.501 1.09 1.431-.03 2.964-.584 4.594-1.667V43.926h3.121zM114.398 62.898c-.373.03-.714.044-1.028.044-1.766 0-3.142-.42-4.126-1.263-.98-.844-1.472-2.008-1.472-3.494V45.89h-2.138v-1.964h2.138v-5.215l3.118-1.11v6.325h3.508v1.964h-3.508V58.1c0 1.171.314 2.001.943 2.486.54.4 1.397.628 2.565.686zM133.297 62.642h-3.121V50.593c0-1.226-.287-2.281-.857-3.163-.66-.997-1.575-1.495-2.75-1.495-1.43 0-3.22.754-5.368 2.264v14.443h-3.122v-28.8l3.122-.984v13.118c1.994-1.452 4.173-2.18 6.54-2.18 1.653 0 2.992.557 4.016 1.667 1.028 1.11 1.54 2.493 1.54 4.146zM149.889 52.922c0-1.96-.373-3.579-1.114-4.86-.88-1.56-2.25-2.384-4.101-2.469-3.423.198-5.13 2.65-5.13 7.35 0 2.155.355 3.954 1.072 5.4.916 1.84 2.288 2.748 4.119 2.718 3.436-.028 5.154-2.74 5.154-8.139zm3.418.02c0 2.79-.714 5.113-2.138 6.968-1.567 2.076-3.733 3.118-6.495 3.118-2.74 0-4.874-1.042-6.414-3.118-1.397-1.855-2.094-4.177-2.094-6.967 0-2.623.755-4.83 2.265-6.626 1.594-1.906 3.691-2.862 6.284-2.862 2.592 0 4.702.956 6.328 2.862 1.51 1.797 2.264 4.003 2.264 6.626zM171.203 62.642h-3.121V49.91c0-1.397-.42-2.486-1.26-3.272-.84-.782-1.961-1.161-3.358-1.13-1.482.027-2.893.512-4.231 1.451v15.683h-3.122V46.573c1.797-1.308 3.45-2.162 4.96-2.561 1.423-.372 2.68-.557 3.763-.557.74 0 1.437.072 2.093.215 1.226.284 2.223.81 2.992 1.582.857.853 1.284 1.878 1.284 3.077z" fill="#646464"/><path d="M36.061 33.957a26.83 26.83 0 00-4.489.383c-3.975.702-4.697 2.172-4.697 4.883v3.58h9.394v1.194H23.35c-2.73 0-5.121 1.641-5.869 4.763-.863 3.579-.9 5.812 0 9.548.668 2.782 2.263 4.763 4.993 4.763h3.23V58.78c0-3.1 2.683-5.836 5.87-5.836h9.383c2.612 0 4.697-2.15 4.697-4.774v-8.946c0-2.546-2.148-4.458-4.697-4.883a29.302 29.302 0 00-4.895-.383zm-5.08 2.88c.97 0 1.763.805 1.763 1.795 0 .987-.793 1.785-1.763 1.785a1.773 1.773 0 01-1.763-1.785c0-.99.789-1.796 1.763-1.796z" fill="url(#d)"/><path d="M46.825 43.997v4.172c0 3.234-2.742 5.957-5.87 5.957h-9.383c-2.57 0-4.697 2.2-4.697 4.774v8.945c0 2.546 2.214 4.044 4.697 4.774 2.974.875 5.826 1.033 9.384 0 2.365-.684 4.697-2.063 4.697-4.774v-3.58H36.27V63.07H50.35c2.73 0 3.748-1.904 4.698-4.763.98-2.942.939-5.773 0-9.548-.675-2.718-1.964-4.763-4.698-4.763zm-5.278 22.655c.974 0 1.763.798 1.763 1.785 0 .99-.789 1.795-1.763 1.795-.97 0-1.763-.805-1.763-1.795 0-.987.793-1.785 1.763-1.785z" fill="url(#e)"/><path style="line-height:125%" d="M177.282 41.144h.547V37.71h1.296v-.41h-3.14v.41h1.297v3.433m2.329 0h.467v-3.135l1.015 3.134h.52l1.058-3.124v3.125h.51v-3.842h-.675l-1.155 3.291-.986-3.291h-.754v3.842" font-weight="400" font-size="15.164" font-family="Bitstream Vera Sans" fill="#646464"/><path d="M48.966 78.7a12.59 2.441 0 11-25.18 0 12.59 2.441 0 1125.18 0z" opacity=".444" fill="url(#f)"/></svg>