<svg xmlns="http://www.w3.org/2000/svg" viewBox="0 0 200 114"><path d="M132.339 49.428c0 15.847-11.53 29.002-26.66 31.533 7.17-8.945-7.925-32.894-28.364-9.377-5.525-5.747-8.922-13.555-8.922-22.156 0-17.658 14.315-31.973 31.973-31.973s31.973 14.315 31.973 31.973z" fill="none" stroke="#3e3d3f" stroke-width=".91" stroke-opacity=".992"/><path d="M89.32 62.812c4.944-4.65 5.748-8.358 5.785-14.267-4.57.796-9.002-2.34-10.09-8.097 1.57 1.305 3.796 1.302 6.353.635-4.3-2.11-4.892-6.11-.265-12.707-.127 3.954-1.55 7.947 2.594 10.166-.03-2.376-.077-4.752 2.648-6.99.938 10.872 11.52 6.406 15.672 7.519 3.756 1.006 5.186 4.33 5.295 8.79-7.432 1.992-8.384 9.526-5.494 11.604l-5.438 10.09c-4.713-7.493-11.568-9.728-17.06-6.743z" fill="#527fff" stroke="#3d3c3e" stroke-width=".608" stroke-opacity=".992"/><path d="M95.105 48.545l3.57-.526" fill="none" stroke="#3d3c3e" stroke-width=".608" stroke-opacity=".992"/><path d="M111.818 59.465c3.408.335 5.306-.988 6.73-2.835-1.71-1.913-4.239-3.693-7.43-3.634-1.4 2.343-1.392 4.525.7 6.469z" fill="#fff" stroke="#3d3c3e" stroke-width=".608" stroke-opacity=".992"/><path d="M111.117 52.996c3.05.3 6.922 1.787 9.19 6.433 1.34-3.856 2.947-7.712-2.995-11.569-2.707.966-5.522 2.625-6.195 5.136z" fill="#fff" stroke="#3d3c3f" stroke-width=".608"/><path d="M126.68 86.237c-.075 0-.14.004-.193.013a.292.292 0 00-.119.033.137.137 0 00-.066.053.192.192 0 00-.014.073v8.349a.2.2 0 00.014.073c.013.022.035.04.066.053.031.013.07.024.12.033.053.01.117.013.192.013.08 0 .144-.004.193-.013a.44.44 0 00.12-.033.137.137 0 00.066-.053.14.14 0 00.02-.073v-8.349a.14.14 0 00-.02-.073.137.137 0 00-.067-.053.255.255 0 00-.119-.033 1.131 1.131 0 00-.193-.013zm2.05 0c-.075 0-.14.004-.193.013a.292.292 0 00-.119.033.137.137 0 00-.066.053.192.192 0 00-.014.073v8.349a.2.2 0 00.014.073c.013.022.035.04.066.053.031.013.07.024.12.033.053.01.117.013.192.013.08 0 .144-.004.193-.013a.438.438 0 00.12-.033.137.137 0 00.066-.053.14.14 0 00.02-.073v-8.349a.14.14 0 00-.02-.073.137.137 0 00-.067-.053.255.255 0 00-.119-.033 1.131 1.131 0 00-.193-.013zm-15.855.057a.618.618 0 00-.311.092c-.107.058-.16.166-.16.326v8.046c0 .026.009.05.025.073.017.022.045.04.084.053a.87.87 0 00.16.033c.067.01.15.013.245.013.1 0 .182-.004.243-.013a.88.88 0 00.16-.033.172.172 0 00.085-.053.118.118 0 00.025-.073v-3.29h1.415c.651 0 1.207-.065 1.667-.198.46-.133.85-.32 1.17-.558.32-.24.565-.526.733-.858.174-.332.261-.697.261-1.096a2.1 2.1 0 00-.168-.85 2.048 2.048 0 00-.463-.691 2.575 2.575 0 00-.741-.512 3.123 3.123 0 00-.851-.286 5.846 5.846 0 00-.724-.1 7.541 7.541 0 00-.64-.025zm-45.094.204l-3.21 8.243h1.765l.68-1.873h3.295l.72 1.873h1.81l-3.3-8.243zm45.65.52h1.55c.258 0 .53.017.816.053.292.03.57.11.834.239.27.124.497.317.682.578.185.257.278.571.278.943 0 .28-.06.538-.177.778a1.66 1.66 0 01-.497.604 2.518 2.518 0 01-.808.399c-.32.093-.719.14-1.196.14h-1.482zM68.64 88.42l1.136 3.059h-2.249zm53.58.078c-.493 0-.922.082-1.29.246a2.522 2.522 0 00-.923.69c-.244.293-.428.641-.552 1.044-.12.403-.179.844-.179 1.322 0 .496.058.941.173 1.336.12.394.297.73.531 1.01.24.274.534.487.884.637.354.147.766.22 1.236.22.487 0 .914-.082 1.282-.246.368-.169.673-.401.917-.698.248-.297.434-.647.558-1.05.124-.403.186-.843.186-1.322 0-.491-.06-.935-.18-1.329a2.748 2.748 0 00-.531-1.003 2.26 2.26 0 00-.883-.637c-.35-.147-.76-.22-1.23-.22zm8.133.073c-.093 0-.169.005-.226.014a.213.213 0 00-.12.04.126.126 0 00-.033.093c0 .035.01.084.033.146l2 5.151c.463.801-.032 2.477-1.587 2.234-.034 0-.052.676.033.676 1.235.209 2.124.1 2.697-2.035l2.245-6.026a.411.411 0 00.033-.14.115.115 0 00-.04-.093.26.26 0 00-.126-.046 1.62 1.62 0 00-.431 0 .369.369 0 00-.153.04c-.036.017-.064.057-.086.12l-1.848 5.247h-.026l-1.88-5.248a.343.343 0 00-.047-.08c-.013-.022-.038-.04-.073-.053a.43.43 0 00-.133-.026 1.604 1.604 0 00-.232-.014zm-53.436.063c-.72 0-1.34.316-1.862.95v-.815H73.6v5.97h1.58v-2.9c0-.574.041-.984.124-1.232.086-.247.227-.436.422-.567a1.15 1.15 0 01.657-.197c.203 0 .362.041.478.124a.71.71 0 01.264.376c.057.168.085.544.085 1.125v3.271h1.58v-2.867c0-.562.043-.972.13-1.23.085-.263.226-.462.421-.597.195-.135.402-.202.624-.202.303 0 .528.112.674.337.109.173.163.555.163 1.147v3.412h1.58v-3.817c0-.57-.054-.982-.163-1.237a1.62 1.62 0 00-.68-.781c-.303-.18-.675-.27-1.113-.27-.345 0-.67.079-.973.236a2.758 2.758 0 00-.849.714 1.813 1.813 0 00-.691-.714 2.004 2.004 0 00-.995-.236zm9.366 0c-.775 0-1.36.138-1.754.416-.393.277-.67.705-.832 1.282l1.434.258c.098-.277.225-.47.382-.579.158-.112.377-.168.658-.168.416 0 .699.065.849.197.15.127.225.343.225.646v.158c-.285.12-.796.249-1.535.388-.547.105-.967.228-1.26.37-.288.14-.513.341-.674.607a1.686 1.686 0 00-.242.9c0 .51.176.932.528 1.266.357.333.842.5 1.457.5.348 0 .677-.066.984-.197.307-.131.596-.328.866-.59.01.03.03.091.056.185.06.206.11.362.152.466h1.563a3.506 3.506 0 01-.287-.798c-.05-.25-.073-.639-.073-1.164l.017-1.844c0-.686-.071-1.156-.214-1.41-.138-.26-.38-.471-.725-.636-.345-.169-.87-.253-1.575-.253zm12.544 0c-.585 0-1.115.13-1.59.388a2.667 2.667 0 00-1.097 1.124 3.23 3.23 0 00-.389 1.524c0 .686.13 1.269.389 1.749.258.476.635.838 1.13 1.085.498.247 1.02.37 1.568.37.885 0 1.617-.295 2.198-.887.585-.596.878-1.347.878-2.25 0-.896-.289-1.635-.866-2.22-.577-.589-1.318-.883-2.221-.883zm7.753 0c-.79 0-1.446.337-1.967 1.012v-.877h-1.468v5.97h1.58v-2.703c0-.668.04-1.125.118-1.372.082-.248.232-.447.45-.597.217-.15.463-.224.737-.224.213 0 .395.052.545.157a.872.872 0 01.331.444c.068.188.101.604.101 1.249v3.046h1.58v-3.71c0-.46-.03-.815-.09-1.062a1.69 1.69 0 00-.309-.664c-.146-.195-.363-.354-.652-.478a2.34 2.34 0 00-.956-.191zm-16.636.135v1.31l2.108-.012c.3-.003.542-.01.726-.022-.177.176-.448.474-.816.894l-2.238 2.57v1.23h5.33v-1.388H92.61c-.105 0-.377.013-.816.04l.804-.872 2.283-2.631v-1.12zm32.229.42c.39 0 .715.071.976.213.262.137.47.325.625.565.155.234.265.507.332.817.066.31.1.635.1.976 0 .363-.04.7-.12 1.01a2.28 2.28 0 01-.372.804 1.7 1.7 0 01-.638.532 2.089 2.089 0 01-.93.192c-.39 0-.715-.069-.977-.206a1.656 1.656 0 01-.624-.558 2.366 2.366 0 01-.332-.817 4.785 4.785 0 01-.1-.99c0-.359.04-.693.12-1.003.08-.31.201-.578.365-.804.168-.23.383-.41.644-.538.262-.129.572-.193.93-.193zm-23.34.732c.412 0 .757.158 1.034.473.281.315.422.764.422 1.35 0 .599-.14 1.056-.422 1.37a1.322 1.322 0 01-1.034.473 1.34 1.34 0 01-1.04-.472c-.281-.315-.422-.768-.422-1.36 0-.593.14-1.046.422-1.361a1.34 1.34 0 011.04-.473zm-11.588 1.951v.315c0 .38-.02.636-.062.77a.99.99 0 01-.377.523c-.258.188-.53.282-.815.282a.864.864 0 01-.63-.242.774.774 0 01-.247-.574c0-.225.103-.41.309-.556.135-.09.422-.182.86-.276.439-.094.76-.174.962-.242z" style="line-height:1.25;-inkscape-font-specification:'Arial, Bold';font-variant-ligatures:normal;font-variant-caps:normal;font-variant-numeric:normal;font-feature-settings:normal;text-align:start" font-weight="700" font-size="37.903" font-family="Arial" letter-spacing="0" word-spacing="0" fill="#413f42" fill-opacity=".992"/></svg>