<svg xmlns="http://www.w3.org/2000/svg" viewBox="0 0 200 114" overflow="visible"><text letter-spacing="-26.237" font-size="26.237" y="66.292" x="18.366" font-family="Trebuchet" fill-opacity="0" stroke-width="2.186">W3C</text><text letter-spacing="-26.237" font-size="24.051" y="66.292" x="103.636" font-family="Trebuchet" fill-opacity="0" stroke-width="2.186">RDF</text><g image-rendering="optimizeQuality" shape-rendering="geometricPrecision" text-rendering="geometricPrecision"><path fill="#fff" d="M14.54 40.602h90.736v33.07H14.539z"/><path fill="#005b9d" d="M99.263 40.602h90.19v33.07h-90.19z"/><g fill="#fff"><path d="M115.85 48.711h10.746c5.083 0 7.265 2.31 7.265 5.116 0 1.887-1.025 3.306-3.041 4.146 1.353.55 2.07 1.784 3.094 3.91l2.237 4.722h-6.492l-1.19-2.65c-1.379-3.07-2.428-4.828-4.226-4.828h-1.795v7.478h-6.603V48.711zm8.398 7.661c2.13 0 3.371-.841 3.371-2.413 0-1.572-1.16-2.362-3.234-2.362h-1.935v4.778h1.798zM138.306 48.711h9.446c7.294 0 10.221 5.038 10.221 9.181 0 4.067-2.623 8.71-9.034 8.71h-10.633zm8.344 13.641c3.205 0 4.722-1.495 4.722-4.694 0-2.361-1.134-4.696-4.694-4.696h-1.769v9.393h1.74zM161.26 48.711h13.756v3.778h-7.154v3.254h6.713v3.778h-6.713v7.084h-6.603z"/></g><path fill="none" stroke="#005b9d" stroke-width="1.09321" d="M14.54 40.602h174.913v32.796H14.54z"/><path d="M66.272 43.626c.886 0 1.594.719 1.594 1.607 0 .9-.706 1.613-1.6 1.613a1.605 1.605 0 01-1.605-1.613c0-.888.722-1.607 1.605-1.607zm-.013.321c-.673 0-1.215.577-1.215 1.294 0 .722.542 1.286 1.22 1.286.68.007 1.23-.564 1.23-1.286 0-.717-.55-1.294-1.23-1.294zm-.27 2.221h-.381v-1.786a3.05 3.05 0 01.573-.05c.306 0 .494.05.612.142.1.079.157.199.157.387 0 .214-.148.363-.34.413v.016c.154.028.255.168.283.435.038.277.072.387.1.441H66.6c-.043-.063-.072-.223-.107-.465-.03-.193-.142-.27-.336-.27h-.169zm0-1.03h.176c.223 0 .394-.072.394-.255 0-.149-.107-.265-.365-.265-.092 0-.156 0-.206.007z" fill="#241e12"/><g fill="#241e12"><path d="M63.649 45.48l.5 3.059-1.777 3.406s-.685-1.443-1.82-2.243c-.957-.676-1.582-.822-2.555-.623-1.25.26-2.67 1.755-3.289 3.603-.74 2.208-.75 3.277-.774 4.255-.041 1.576.208 2.503.208 2.503s-1.08-1.998-1.071-4.926c.009-2.088.336-3.988 1.303-5.86.855-1.644 2.116-2.632 3.238-2.746 1.159-.122 2.077.435 2.785 1.043.744.636 1.5 2.03 1.5 2.03zM63.867 62.783s-.782 1.406-1.274 1.95c-.492.543-1.37 1.498-2.451 1.973-1.085.48-1.653.57-2.725.463-1.069-.098-2.064-.72-2.413-.98-.346-.255-1.238-1.016-1.74-1.727-.506-.71-1.293-2.13-1.293-2.13s.437 1.422.713 2.028c.157.345.645 1.41 1.331 2.332.643.864 1.892 2.349 3.787 2.685 1.896.337 3.201-.518 3.52-.721.322-.206 1.002-.774 1.432-1.235.449-.482.875-1.094 1.109-1.461.173-.269.453-.811.453-.811z"/></g><g fill="#005b9d"><path d="M31.12 45.617l4.287 14.577 4.287-14.577H42.8l-7.097 23.95h-.295l-4.437-14.84-4.436 14.84h-.295l-7.1-23.95h3.105l4.288 14.577 2.9-9.817-1.42-4.76z"/><path d="M51.612 61.878c0 2.167-.577 3.992-1.727 5.47-1.152 1.48-2.648 2.22-4.482 2.22-1.38 0-2.58-.44-3.605-1.317-1.028-.876-1.785-2.064-2.277-3.564l2.423-1.003c.354.905.824 1.62 1.406 2.14a2.95 2.95 0 002.053.785c.829 0 1.528-.461 2.101-1.39.573-.925.86-2.042.86-3.341 0-1.439-.309-2.552-.919-3.339-.708-.929-1.823-1.393-3.339-1.393h-1.182V55.73l4.138-7.156h-4.996l-1.392 2.365h-.884v-5.322h11.53v1.446l-4.378 7.543c1.54.492 2.703 1.388 3.49 2.687.787 1.303 1.18 2.831 1.18 4.585z"/></g><g><path d="M82.727 45.939c7.703 3.474 9.382-2.928 9.382-2.928s-1.465 8.029-8.216 11.308c-1.378.667-2.233 1.026-2.233 1.026L70.597 49.95l11.063-4.535s-.266-.076 1.067.523z" fill="#87bb40"/><path fill="#ed7d22" d="M80.37 57.6v11.852L70.066 63.87V52.36z"/><path fill="#bd1b89" d="M82.692 57.6v11.852l10.305-5.582V52.36z"/></g></g></svg>