<svg xmlns="http://www.w3.org/2000/svg" viewBox="0 0 200 114"><path d="M22.041 44.42c-.803 0-1.49.139-2.06.418-.565.279-1.126.748-1.684 1.408v-1.582H14.42v10.834h4.162v-5.53c0-.822.153-1.414.459-1.775.306-.36.698-.54 1.174-.54.292 0 .548.085.765.255.218.163.371.38.46.653.054.17.081.494.081.97v5.967h4.163v-5.59c0-.782.15-1.35.449-1.703.3-.354.692-.531 1.181-.531.415 0 .763.186 1.041.56.19.238.288.602.288 1.092v6.172h4.162v-6.805c0-1.469-.328-2.547-.98-3.234-.654-.694-1.56-1.04-2.723-1.04-.79 0-1.453.13-1.99.388-.538.251-1.133.732-1.786 1.44-.32-.606-.73-1.062-1.234-1.368-.504-.306-1.187-.46-2.051-.46zm12.04.244l4.548 10.834c-.21.578-.47.98-.775 1.205-.3.225-.694.336-1.184.336-.735 0-1.4-.095-1.998-.285l.326 2.896c1.251.164 2.175.246 2.773.246 1.476 0 2.576-.327 3.297-.98.51-.462 1.009-1.352 1.498-2.672l4.297-11.58h-4.092l-2.07 7.213-2.234-7.213H34.08zm25.005.47c-2.87 0-5.154.405-6.852 1.214-2.175 1.048-3.827 2.585-4.955 4.613-1.127 2.016-1.691 4.391-1.691 7.125 0 2.597.512 4.9 1.537 6.904 1.037 2.005 2.49 3.514 4.357 4.528 1.88 1.013 4.307 1.521 7.28 1.521 2.415 0 4.5-.28 6.254-.838 1.765-.57 3.794-1.635 6.084-3.195v-10.68H59.139v5.213h5.175v2.357c-1.013.604-1.913 1.031-2.699 1.282a8.1 8.1 0 01-2.476.375c-1.823 0-3.247-.58-4.272-1.742-1.014-1.162-1.521-3.098-1.521-5.809 0-2.552.501-4.415 1.504-5.588 1.013-1.185 2.369-1.777 4.066-1.777 1.14 0 2.074.25 2.803.752.74.5 1.264 1.224 1.572 2.17l7.467-1.332c-.456-1.618-1.14-2.95-2.051-3.998-.9-1.06-2.04-1.841-3.418-2.342-1.367-.501-3.435-.752-6.203-.752zm31.953.428v4.733h6.955v-4.733H91.04zm23.512 0v8.68a6.682 6.682 0 00-2.358-1.64c-.877-.365-1.857-.547-2.94-.547-2.22 0-4.054.797-5.501 2.392-1.435 1.595-2.152 3.895-2.152 6.903 0 2.688.648 4.972 1.947 6.851 1.31 1.88 3.2 2.82 5.672 2.82 1.23 0 2.347-.26 3.35-.785.751-.398 1.582-1.167 2.493-2.306v2.681h6.512V45.562h-7.023zm-28.297 6.493c-.98 0-1.805.244-2.477.734-.66.478-1.305 1.361-1.931 2.648v-2.972h-6.51V70.61h6.988V64.53c0-2.904.359-4.888 1.076-5.947.502-.752 1.208-1.127 2.12-1.127.478 0 1.129.17 1.949.512l2.152-4.955c-1.219-.638-2.342-.957-3.367-.957zm4.785.41V70.61h6.955V52.465H91.04zm20.367 4.785c.923 0 1.688.352 2.291 1.059.604.694.905 1.753.905 3.177 0 1.572-.297 2.706-.89 3.4-.591.696-1.331 1.044-2.22 1.044-.831 0-1.532-.342-2.101-1.026-.559-.695-.838-1.783-.838-3.263 0-1.584.273-2.711.82-3.383.547-.672 1.224-1.008 2.033-1.008z" style="line-height:1.25;-inkscape-font-specification:'Arial, Heavy';font-variant-ligatures:normal;font-variant-caps:normal;font-variant-numeric:normal;font-feature-settings:normal;text-align:start" font-weight="900" font-size="34.994" font-family="Arial" letter-spacing="0" word-spacing="0" fill="#f5c22d"/><path d="M137.82 51.511l-.03 10.855-9.697 6.143.03-11.165z" fill="#5e5e5e" stroke="#c7c7c7" stroke-width=".6" stroke-opacity=".988"/><path d="M137.761 51.511l.03 10.855 10.216 6.454V57.225zM137.85 62.677l-.03 10.855-9.697 6.143.03-11.166z" fill="#fff" stroke="#c7c7c7" stroke-width=".6" stroke-opacity=".988"/><path d="M137.79 62.677l.03 10.855 9.698 6.143.49-10.855z" fill="#5e5e5e" stroke="#c7c7c7" stroke-width=".6" stroke-opacity=".988"/><path d="M178.876 86.15L168.69 80.27V68.506l10.186-5.88 10.187 5.88V80.27z" fill="#f5c22d" stroke="#c7c7c7" stroke-width=".6" stroke-opacity=".988"/><path d="M157.94 62.385l10.75 6.121-10.482 6.496-10.72-6.493z" fill="#fff" stroke="#c7c7c7" stroke-width=".6" stroke-opacity=".988"/><path d="M158.223 85.857V75.002l-10.734-6.493.03 11.166z" fill="#fff" stroke="#c7c7c7" stroke-width=".6" stroke-opacity=".988"/><path d="M158.193 85.857V75.002l10.497-6.496V80.27z" fill="#fff" stroke="#c7c7c7" stroke-width=".6" stroke-opacity=".988"/><path d="M137.82 51.511l-10.186-5.88V33.867l10.187-5.882 10.186 5.882V45.63z" fill="#a89ca6" stroke="#c7c7c7" stroke-width=".6" stroke-opacity=".988"/><path d="M157.94 50.834l10.507 5.775-10.507 5.776-10.506-5.776z" fill="#fff" stroke="#c7c7c7" stroke-width=".566" stroke-opacity=".988"/><path d="M157.705 28.035l-.03 10.855-9.698 6.143.03-11.165z" fill="#5e5e5e" stroke="#c7c7c7" stroke-width=".6" stroke-opacity=".988"/><path d="M157.645 28.035l.03 10.855 10.772 6.124-.046-11.146z" fill="#a89ca6" stroke="#c7c7c7" stroke-width=".6" stroke-opacity=".988"/><path d="M137.82 73.521l9.698 6.154-9.697 6.205-9.698-6.205z" fill="#a89ca6" stroke="#c7c7c7" stroke-width=".538" stroke-opacity=".988"/><path d="M148.007 45.63v11.595l-9.432-5.797zM148.123 45.386l-.116 11.84 9.682-6.318z" fill="#fff" stroke="#c7c7c7" stroke-width=".538" stroke-opacity=".988"/><path d="M168.447 56.61v11.594l-10.507-5.82z" fill="none" stroke="#c7c7c7" stroke-width=".538" stroke-opacity=".988"/><path d="M168.447 56.61v11.594l10.43-5.579z" fill="#fff" stroke="#c7c7c7" stroke-width=".538" stroke-opacity=".988"/><path d="M148.007 57.225V68.82l9.933-6.435z" fill="none" stroke="#c7c7c7" stroke-width=".538" stroke-opacity=".988"/><path d="M168.447 45.014V56.61l-10.758-5.7z" fill="#fff" stroke="#c7c7c7" stroke-width=".538" stroke-opacity=".988"/><path d="M157.94 39.235v11.596l10.507-5.817zM157.41 39.235v11.596l-9.287-5.445z" fill="#5e5e5e" stroke="#c7c7c7" stroke-width=".538" stroke-opacity=".988"/><path d="M187.799 43.323v12.88l-10.169-5.327.471-11.47z" fill="#a89ca6" stroke="#c7c7c7" stroke-width=".6" stroke-opacity=".988"/><path d="M168.447 56.61l9.183-5.734.471-11.47-9.654 5.608z" fill="#fff" stroke="#c7c7c7" stroke-width=".6" stroke-opacity=".988"/><path d="M168.447 56.61l9.183-5.734 10.169 5.327-8.923 6.422z" fill="#fff" stroke="#c7c7c7" stroke-width=".6" stroke-opacity=".988"/><g fill="none" stroke="#c7c7c7" stroke-width=".6" stroke-opacity=".988"><path d="M137.82 41.698l-2.89-1.95v-3.897l2.89-1.95 2.89 1.95v3.898z"/><path d="M137.82 45.596l-2.89-1.949V39.75l2.89-1.95 2.89 1.95v3.898z"/></g><path d="M178.876 76.337l-2.89-1.95V70.49l2.89-1.949 2.89 1.95v3.898z" fill="none" stroke="#fff" stroke-width=".6" stroke-opacity=".988"/><path d="M178.876 80.235l-2.89-1.95v-3.897l2.89-1.95 2.89 1.95v3.898z" fill="none" stroke="#fff" stroke-width=".6" stroke-opacity=".988"/></svg>