<svg xmlns="http://www.w3.org/2000/svg" viewBox="0 0 200 114"><path fill="none" d="M60 17h80v80H60z"/><path d="M108.68 60.206c-1.21-6.48-7.497-12.095-14.112-12.095" stroke-miterlimit="10" fill="none" stroke="#1b80c4" stroke-width=".741"/><path d="M108.889 62.432c.28-1.086.807-2.453 1.425-3.33l-1.686.815-1.818-.452c.785.732 1.583 1.961 2.079 2.967z" fill="#1b80c4"/><path d="M76.79 30.333c30.39 0 40.445 12.312 40.966 38.753" stroke-miterlimit="10" fill="none" stroke="#1b80c4" stroke-width=".741"/><path d="M117.778 71.321c-.415-1.042-1.11-2.332-1.834-3.124l1.776.596 1.745-.678c-.686.825-1.322 2.146-1.687 3.206z" fill="#1b80c4"/><path d="M104.444 57c23.109 0 31.112 16.562 31.112 31.111" stroke-miterlimit="10" fill="none" stroke="#fff" stroke-width="1.975"/><circle r="2.222" cy="21.444" cx="64.444" stroke-miterlimit="10" fill="#abd5ee" stroke="#000" stroke-width=".247"/><circle r="2.222" cy="30.333" cx="73.333" stroke-miterlimit="10" fill="#abd5ee" stroke="#000" stroke-width=".247"/><circle r="2.222" cy="39.222" cx="82.222" stroke-miterlimit="10" fill="#abd5ee" stroke="#000" stroke-width=".247"/><circle r="2.222" cy="48.111" cx="91.111" stroke-miterlimit="10" fill="#abd5ee" stroke="#000" stroke-width=".247"/><circle r="2.222" cy="57" cx="100" stroke-miterlimit="10" fill="#abd5ee" stroke="#000" stroke-width=".247"/><circle r="2.222" cy="65.889" cx="108.889" stroke-miterlimit="10" fill="#abd5ee" stroke="#000" stroke-width=".247"/><circle r="2.222" cy="74.778" cx="117.778" stroke-miterlimit="10" fill="#abd5ee" stroke="#000" stroke-width=".247"/><circle r="2.222" cy="83.667" cx="126.667" stroke-miterlimit="10" fill="#abd5ee" stroke="#000" stroke-width=".247"/><circle r="2.222" cy="92.556" cx="135.556" stroke-miterlimit="10" fill="#abd5ee" stroke="#000" stroke-width=".247"/><path stroke-miterlimit="10" fill="none" stroke="#1b80c4" stroke-width=".741" d="M66.667 23.667l2.864 2.864"/><path d="M71.111 28.111c-1.02-.468-2.413-.92-3.484-.993l1.696-.795.795-1.696c.073 1.071.525 2.465.993 3.484z" fill="#1b80c4"/><path stroke-miterlimit="10" fill="none" stroke="#1b80c4" stroke-width=".741" d="M75.556 32.556l2.864 2.864"/><path d="M80 37c-1.02-.468-2.413-.92-3.484-.993l1.696-.795.795-1.696c.073 1.071.525 2.465.993 3.484z" fill="#1b80c4"/><path stroke-miterlimit="10" fill="none" stroke="#1b80c4" stroke-width=".741" d="M93.333 50.333l2.864 2.864"/><path d="M97.778 54.778c-1.02-.468-2.414-.92-3.484-.993l1.696-.795.795-1.696c.073 1.07.525 2.465.993 3.484z" fill="#1b80c4"/><path stroke-miterlimit="10" fill="none" stroke="#1b80c4" stroke-width=".741" d="M111.111 68.111l2.864 2.864"/><path d="M115.556 72.556c-1.02-.468-2.414-.92-3.484-.993l1.696-.795.794-1.696c.074 1.07.526 2.464.994 3.484z" fill="#1b80c4"/><path stroke-miterlimit="10" fill="none" stroke="#1b80c4" stroke-width=".741" d="M120 77l2.864 2.864"/><path d="M124.444 81.444c-1.02-.467-2.413-.92-3.484-.992l1.697-.795.794-1.696c.074 1.07.526 2.464.993 3.483z" fill="#1b80c4"/><path d="M85.42 48.048C70.91 47.206 64.443 38.046 64.443 24.9" stroke-miterlimit="10" fill="none" stroke="#1b80c4" stroke-width=".741"/><path d="M87.654 48.111c-1.038-.425-2.32-1.135-3.104-1.867l.577 1.782-.696 1.739c.832-.678 2.16-1.3 3.223-1.654z" fill="#1b80c4"/><path d="M120.974 83.61C104.597 82.74 100 72.211 100 60.456" stroke-miterlimit="10" fill="none" stroke="#1b80c4" stroke-width=".741"/><path d="M123.21 83.667c-1.04-.424-2.322-1.13-3.109-1.861l.582 1.78-.693 1.74c.831-.679 2.156-1.303 3.22-1.66z" fill="#1b80c4"/><path d="M103.457 57c22.1 0 31.287 13.643 32.047 29.864" stroke-miterlimit="10" fill="none" stroke="#1b80c4" stroke-width=".741"/><path d="M135.556 89.099c-.426-1.039-1.135-2.32-1.867-3.105l1.782.578 1.739-.696c-.678.832-1.3 2.159-1.654 3.223z" fill="#1b80c4"/><path d="M129.863 92.54c-35.027-.52-38.752-13.506-38.752-40.972" stroke-miterlimit="10" fill="none" stroke="#1b80c4" stroke-width=".741"/><path d="M132.099 92.556c-1.048-.402-2.345-1.083-3.146-1.797l.617 1.768-.656 1.754c.816-.696 2.129-1.347 3.185-1.725z" fill="#1b80c4"/></svg>