<svg xmlns="http://www.w3.org/2000/svg" viewBox="0 0 200 114" overflow="visible"><path fill="#fff" image-rendering="optimizeQuality" shape-rendering="geometricPrecision" text-rendering="geometricPrecision" d="M10.559 40.23h92.795v33.82H10.559z"/><path fill="#0c60ad" image-rendering="optimizeQuality" shape-rendering="geometricPrecision" text-rendering="geometricPrecision" d="M97.205 40.23h92.236v33.82H97.205z"/><g image-rendering="optimizeQuality" shape-rendering="geometricPrecision" text-rendering="geometricPrecision" fill="#fff"><path d="M105.97 48.523h10.787c5.102 0 7.294 2.361 7.294 5.233 0 1.93-1.029 3.38-3.05 4.239 1.355.564 2.077 1.825 3.103 3.998l2.25 4.83h-6.516l-1.194-2.71c-1.386-3.14-2.44-4.937-4.24-4.937H112.6v7.647h-6.63zm8.43 7.835c2.135 0 3.383-.86 3.383-2.468s-1.165-2.415-3.244-2.415h-1.941v4.885h1.802zM128.512 48.523h9.483c7.32 0 10.26 5.152 10.26 9.39 0 4.158-2.636 8.908-9.07 8.908h-10.673zm8.376 13.95c3.215 0 4.738-1.529 4.738-4.8 0-2.415-1.136-4.803-4.711-4.803h-1.776v9.606h1.749zM151.554 48.523h13.81v3.864h-7.183v3.327h6.74v3.864h-6.74v7.245h-6.627z"/></g><path fill="none" stroke="#0c60ad" stroke-width="1.118" image-rendering="optimizeQuality" shape-rendering="geometricPrecision" text-rendering="geometricPrecision" d="M10.559 40.23h178.882v33.54H10.559z"/><g image-rendering="optimizeQuality" shape-rendering="geometricPrecision" text-rendering="geometricPrecision"><path d="M63.466 43.322c.905 0 1.63.736 1.63 1.644a1.63 1.63 0 01-1.637 1.65 1.641 1.641 0 01-1.641-1.65c0-.908.738-1.644 1.64-1.644zm-.014.329c-.689 0-1.243.59-1.243 1.324 0 .738.554 1.314 1.248 1.314.695.007 1.259-.576 1.259-1.314 0-.734-.564-1.324-1.26-1.324zm-.277 2.272h-.39v-1.827a3.12 3.12 0 01.587-.052c.313 0 .505.052.626.146.103.08.16.203.16.396 0 .219-.151.37-.348.422v.016c.159.029.262.172.29.445.039.284.074.396.103.451h-.402c-.045-.064-.074-.228-.11-.476-.03-.197-.145-.275-.344-.275h-.172zm0-1.053h.181c.228 0 .403-.074.403-.262 0-.152-.11-.27-.374-.27-.094 0-.159 0-.21.006z" fill="#1b1b1f"/><g fill="#1b1b1f"><path d="M60.782 45.218l.512 3.129-1.817 3.483s-.7-1.475-1.86-2.294c-.98-.69-1.62-.84-2.615-.637-1.279.266-2.73 1.795-3.363 3.685-.758 2.258-.767 3.352-.791 4.351-.043 1.612.212 2.56.212 2.56s-1.104-2.043-1.096-5.037c.01-2.136.345-4.079 1.333-5.993.874-1.681 2.165-2.692 3.312-2.808 1.185-.126 2.124.445 2.848 1.066.76.65 1.534 2.075 1.534 2.075zM61.006 62.914s-.8 1.438-1.304 1.995c-.503.554-1.4 1.531-2.506 2.017-1.11.492-1.69.583-2.786.474-1.094-.1-2.111-.736-2.469-1.002-.353-.262-1.265-1.04-1.78-1.766-.516-.727-1.321-2.178-1.321-2.178s.447 1.453.729 2.072c.16.354.66 1.443 1.361 2.386.658.884 1.935 2.402 3.873 2.746 1.939.344 3.274-.53 3.6-.738.329-.21 1.024-.791 1.465-1.263.458-.492.894-1.118 1.133-1.494.177-.275.463-.83.463-.83z"/></g><g fill="#0c60ad"><path d="M27.515 45.36L31.9 60.266l4.384-14.908h3.176L32.2 69.853H31.9l-4.537-15.178-4.537 15.178h-.302l-7.26-24.494h3.175l4.385 14.908 2.965-10.04-1.452-4.868z"/><path d="M48.473 61.989c0 2.215-.59 4.083-1.766 5.594-1.179 1.514-2.708 2.27-4.584 2.27-1.411 0-2.639-.45-3.687-1.346-1.051-.897-1.825-2.111-2.328-3.645l2.477-1.026c.363.925.843 1.656 1.438 2.189a3.016 3.016 0 002.1.802c.847 0 1.563-.471 2.149-1.422.585-.946.878-2.088.878-3.416 0-1.472-.315-2.61-.939-3.415-.724-.95-1.865-1.424-3.414-1.424h-1.21V55.7l4.233-7.318h-5.11l-1.424 2.42h-.903v-5.443h11.79v1.478l-4.476 7.715c1.574.503 2.764 1.42 3.569 2.748.805 1.332 1.207 2.895 1.207 4.689z"/></g><g><path d="M80.294 45.688c7.877 3.553 9.595-2.994 9.595-2.994s-1.498 8.21-8.403 11.565c-1.409.682-2.283 1.048-2.283 1.048l-11.315-5.516 11.315-4.637s-.273-.079 1.09.534z" fill="#98c03c"/><path fill="#ee8522" d="M77.883 57.613v12.121l-10.538-5.708v-11.77z"/><path fill="#ad2085" d="M80.258 57.613v12.121l10.539-5.708v-11.77z"/></g></g><path d="M181.476 66.215c-.617.27-1.19.49-1.717.657-.523.166-1.156.248-1.894.248-.698 0-1.183-.138-1.456-.413a2.336 2.336 0 01-.588-1.007 6.38 6.38 0 01-1.525 1.02c-.559.266-1.288.4-2.193.4-.874 0-1.579-.167-2.118-.505-.539-.338-.914-.763-1.133-1.275a4.057 4.057 0 01-.325-1.58c0-.823.188-1.505.562-2.042.373-.539.876-.98 1.505-1.321.628-.34 1.462-.696 2.502-1.063.59-.21 1.035-.37 1.339-.48.304-.11.528-.195.68-.255.147-.06.306-.141.472-.237 0-.646-.119-1.154-.354-1.52-.234-.37-.747-.553-1.536-.553-.928 0-1.789.228-2.582.682a9.142 9.142 0 00-2.185 1.755v-3.618a7.605 7.605 0 011.708-1.03 9.369 9.369 0 011.919-.598 10.439 10.439 0 012.026-.196c1.735 0 3.04.373 3.915 1.122.879.75 1.315 1.778 1.315 3.09v5.159c0 .49.042.856.125 1.096.08.239.232.36.452.36.268 0 .628-.128 1.084-.38v2.484zm-5.89-2.563v-3.168c-1.006.456-1.739.865-2.204 1.23-.463.362-.696.856-.696 1.478 0 .447.117.789.347 1.024.233.237.5.355.807.355.29 0 .58-.09.868-.268.286-.179.579-.398.879-.65z" fill="#fff" image-rendering="optimizeQuality" shape-rendering="geometricPrecision" text-rendering="geometricPrecision"/></svg>