<svg xmlns="http://www.w3.org/2000/svg" viewBox="0 0 200 114"><path d="M41.91 81.65h3.827V66.535l5.925 13.176c.7 1.595 1.657 2.16 3.533 2.16 1.877 0 2.798-.565 3.497-2.16l5.925-13.176V81.65h3.828V66.56c0-1.472-.589-2.184-1.803-2.552-2.908-.908-4.859-.123-5.742 1.84l-5.815 13.004-5.631-13.004c-.846-1.963-2.834-2.748-5.741-1.84-1.215.368-1.804 1.08-1.804 2.552v15.09zM71.628 69.347h3.826v8.327c-.036.453.145 1.514 2.242 1.547 1.07.017 8.256 0 8.323 0v-9.914h3.836c.017 0-.004 13.52-.004 13.578.021 3.335-4.138 4.059-6.054 4.115H71.71v-2.575c.02 0 12.077.002 12.107 0 2.464-.26 2.173-1.485 2.172-1.897v-1.004h-8.135c-3.785-.035-6.195-1.687-6.225-3.587-.003-.176.081-8.507-.002-8.59z" fill="#00618a" stroke-width=".871"/><path d="M92.804 81.65h11.005c1.288 0 2.54-.27 3.533-.737 1.656-.76 2.466-1.79 2.466-3.14v-2.797c0-1.104-.92-2.135-2.724-2.822-.957-.368-2.134-.564-3.275-.564H99.17c-1.545 0-2.281-.467-2.465-1.497-.037-.123-.037-.221-.037-.344v-1.741c0-.099 0-.197.037-.32.184-.785.589-1.006 1.95-1.128.11 0 .258-.025.368-.025h10.931v-2.551H99.208c-1.546 0-2.355.098-3.091.318-2.282.712-3.276 1.84-3.276 3.804v2.232c0 1.718 1.95 3.19 5.226 3.534.369.024.736.048 1.104.048h3.975c.148 0 .295 0 .405.025 1.215.099 1.73.32 2.098.76.22.221.294.443.294.688v2.233c0 .27-.184.613-.551.907-.332.295-.884.491-1.62.54-.147 0-.258.025-.405.025H92.804v2.552zM133.686 77.209c0 2.625 1.95 4.097 5.888 4.392.368.024.737.049 1.104.049h9.975v-2.552h-10.048c-2.245 0-3.092-.565-3.092-1.914v-13.2h-3.827v13.225zM112.25 77.342v-9.097c0-2.311 1.624-3.713 4.832-4.155a7.341 7.341 0 011.033-.074h7.265c.369 0 .701.025 1.07.074 3.208.442 4.831 1.844 4.831 4.155v9.097c0 1.875-.69 2.879-2.277 3.533l3.77 3.403h-4.444l-3.05-2.753-3.071.194h-4.094c-.701 0-1.438-.098-2.25-.32-2.434-.663-3.614-1.942-3.614-4.057zm4.132-.22c0 .122.037.245.074.393.22 1.057 1.217 1.647 2.729 1.647h3.477l-3.194-2.884h4.444l2.786 2.515c.513-.273.851-.692.97-1.23.036-.122.036-.245.036-.368v-8.728c0-.099 0-.222-.037-.345-.221-.983-1.217-1.549-2.692-1.549h-5.79c-1.696 0-2.803.738-2.803 1.894v8.654z" fill="#e48e00" stroke-width=".871"/><path d="M154.02 59.75c-2.353-.063-4.15.155-5.687.803-.436.185-1.133.19-1.204.737.24.251.277.627.468.936.367.594.986 1.39 1.539 1.807.604.455 1.226.943 1.874 1.338 1.151.702 2.437 1.103 3.545 1.806.654.415 1.303.937 1.94 1.405.315.231.527.59.937.736v-.067c-.215-.274-.27-.65-.468-.937l-.87-.87c-.85-1.128-1.93-2.12-3.078-2.943-.915-.657-2.963-1.544-3.345-2.61l-.067-.066c.65-.073 1.409-.308 2.008-.469 1.006-.27 1.905-.2 2.943-.468l1.405-.401v-.268c-.525-.539-.9-1.252-1.472-1.74-1.498-1.275-3.133-2.55-4.817-3.612-.933-.59-2.088-.973-3.077-1.472-.333-.168-.918-.256-1.138-.536-.52-.662-.803-1.502-1.204-2.274a85.979 85.979 0 01-2.408-5.085c-.508-1.16-.84-2.304-1.472-3.345-3.038-4.995-6.308-8.01-11.373-10.972-1.078-.63-2.376-.88-3.747-1.205l-2.208-.134c-.449-.187-.916-.737-1.338-1.003-1.678-1.06-5.982-3.366-7.225-.335-.785 1.914 1.173 3.781 1.873 4.75.492.68 1.12 1.444 1.472 2.208.23.503.27 1.007.468 1.54.487 1.31.91 2.735 1.539 3.947.318.612.669 1.258 1.07 1.806.247.336.67.484.736 1.004-.413.578-.436 1.475-.669 2.207-1.045 3.297-.65 7.395.87 9.835.467.75 1.566 2.356 3.078 1.74 1.322-.539 1.026-2.208 1.405-3.68.085-.334.033-.58.2-.803v.067l1.205 2.408c.89 1.436 2.473 2.936 3.813 3.948.695.525 1.242 1.433 2.14 1.74v-.068h-.066c-.174-.271-.447-.383-.669-.602a15.332 15.332 0 01-1.539-1.74c-1.219-1.654-2.296-3.466-3.278-5.351-.469-.9-.876-1.894-1.271-2.81-.153-.354-.15-.888-.468-1.07-.433.67-1.07 1.213-1.405 2.006-.536 1.268-.605 2.813-.803 4.416-.117.042-.065.013-.134.067-.932-.225-1.26-1.184-1.606-2.007-.875-2.081-1.038-5.432-.267-7.828.199-.62 1.1-2.572.735-3.144-.174-.572-.748-.902-1.07-1.339-.398-.54-.795-1.25-1.07-1.873-.717-1.623-1.052-3.444-1.807-5.084-.36-.785-.97-1.578-1.472-2.275-.554-.772-1.175-1.341-1.605-2.275-.153-.332-.36-.863-.134-1.204.072-.23.174-.327.402-.402.388-.299 1.468.1 1.872.268 1.073.445 1.969.87 2.878 1.472.436.29.877.849 1.404 1.003h.602c.942.217 1.997.068 2.877.335 1.556.473 2.95 1.208 4.215 2.007 3.856 2.435 7.01 5.9 9.166 10.036.347.665.497 1.3.803 2.007.616 1.424 1.393 2.889 2.006 4.281.613 1.39 1.21 2.792 2.074 3.948.456.608 2.213.934 3.011 1.271.56.237 1.477.483 2.007.803 1.013.61 1.994 1.338 2.944 2.007.475.334 1.934 1.068 2.007 1.672z" fill="#00618a" stroke-width=".871"/><path d="M124.115 34.26a4.786 4.786 0 00-1.205.134v.067h.067c.234.48.648.79.937 1.204l.67 1.405.066-.067c.414-.292.604-.759.602-1.472-.166-.174-.19-.393-.334-.602-.192-.278-.562-.435-.803-.669z" fill="#00618a" fill-rule="evenodd" stroke-width=".871"/><path d="M152.45 79.025c0 1.685 1.33 2.821 2.82 2.821 1.49 0 2.82-1.136 2.82-2.82 0-1.686-1.33-2.821-2.82-2.821-1.49 0-2.82 1.135-2.82 2.82zm5.009 0c0 1.279-.978 2.234-2.189 2.234-1.226 0-2.189-.955-2.189-2.234 0-1.278.963-2.234 2.189-2.234 1.211 0 2.189.956 2.189 2.234zm-1.429 1.61h.632l-.925-1.414c.496-.053.872-.294.872-.88 0-.655-.414-.925-1.21-.925h-1.257v3.219h.541v-1.392h.504l.843 1.392zm-1.347-1.843v-.925h.625c.323 0 .714.06.714.436 0 .451-.353.49-.76.49h-.579z" fill="#e48e00" fill-rule="evenodd"/></svg>