<svg xmlns="http://www.w3.org/2000/svg" viewBox="0 0 200 114"><path d="M151.665 39.26l-7.521 4.432 1.594 2.291 7.67-3.387zm36.591 0l-7.521 4.432 1.594 2.291L190 42.596zm-53.729 2.703l-3.445.759a63.543 63.543 0 00-1.172 4.271h-2.135l-.449 2.343h2.102L127.292 59.5c-.207.93-.241 1.62-.241 2.446 0 1.792 1.137 2.86 3.307 2.86a8.033 8.033 0 003.376-.724v-1.964c-.551.207-1.102.345-1.791.345-1.172 0-1.688-.413-1.688-1.585 0-.482.103-1.068.241-1.791l2.067-9.75h3.549l1.206-2.343h-4.204c.31-1.55.93-3.687 1.413-5.03zM81.88 46.477l-2.962 1.308c.172.551.24 1.103.24 1.724 0 .689-.102 1.515-.309 2.514L74.68 71.557l3.274-.69 1.48-6.992c1 .551 2.274.826 3.928.826 2.274 0 4.616-1.102 6.27-2.997 1.895-2.17 3.135-6.373 3.135-9.474 0-3.376-1.515-5.58-4.513-5.58-1.963 0-4.34 1.101-6.063 3.271.103-.482.137-.895.137-1.308 0-.861-.207-1.585-.448-2.136zm19.412 0l-2.962 1.308c.172.517.24 1.069.24 1.689 0 .792-.137 1.79-.413 3.169l-2.48 11.645h3.135l2.308-10.955c1.585-2.343 3.17-3.515 4.582-3.515.517 0 .827.07 1.171.207l1.379-3.239c-.414-.138-.724-.206-1.379-.206-1.619 0-3.754 1.412-5.374 3.686.104-.585.173-1.136.173-1.653 0-.827-.138-1.55-.38-2.136zm63.747.034c-2.584 0-4.72.896-6.546 2.584-2.308 2.136-3.962 6.029-3.962 9.68 0 3.79 1.757 5.858 4.892 5.858 2.24 0 3.927-.69 5.478-2.584-.07.138-.482 1.93-.69 2.86-.723 2.997-2.308 3.96-5.512 3.96-1.998 0-3.548-.412-5.202-1.377l-1.137 2.411c2.033 1.068 3.928 1.551 6.064 1.551 4.789 0 7.82-1.757 9.026-6.753.275-1.102.585-3.238 1.033-5.306l1.688-8.095c.276-1.275.758-2.86.93-3.342-1.791-1.034-3.375-1.447-6.062-1.447zm-47.395.035c-5.616 0-9.716 5.201-9.716 11.954 0 3.927 2.136 6.201 5.926 6.201 5.96 0 9.75-5.443 9.75-11.989 0-3.755-1.998-6.166-5.96-6.166zm29.138 0c-2.136 0-4.03.757-5.753 2.41-2.412 2.344-3.825 6.064-3.825 9.475 0 3.996 2.447 6.27 5.892 6.27 3.204 0 5.133-.792 6.994-2.515l-1.137-1.964c-1.62 1.378-2.998 1.93-4.996 1.93-1.86 0-3.307-1.172-3.307-3.48 0-.585.104-1.412.242-1.998.55 0 1.342.103 2.135.103 3.652 0 5.926-.689 7.373-2.067 1-.93 1.585-2.204 1.585-3.617 0-2.894-1.896-4.547-5.203-4.547zm36.941 0c-2.136 0-4.03.757-5.753 2.41-2.412 2.344-3.824 6.064-3.824 9.475 0 3.996 2.446 6.27 5.891 6.27 3.204 0 5.134-.792 6.994-2.515l-1.137-1.964c-1.62 1.378-2.998 1.93-4.996 1.93-1.86 0-3.307-1.172-3.307-3.48 0-.585.103-1.412.24-1.998.552 0 1.345.103 2.137.103 3.652 0 5.926-.689 7.373-2.067 1-.93 1.585-2.204 1.585-3.617 0-2.894-1.895-4.547-5.203-4.547zm-37.388 2.445c1.791 0 2.445 1 2.445 2.24 0 .792-.31 1.412-.827 1.93-.86.86-2.239 1.239-4.892 1.239-.55 0-1.274-.034-1.653-.068.861-3.41 2.86-5.34 4.927-5.34zm36.94 0c1.792 0 2.446 1 2.446 2.24 0 .792-.31 1.412-.826 1.93-.862.86-2.24 1.239-4.892 1.239-.552 0-1.275-.034-1.654-.068.861-3.41 2.86-5.34 4.927-5.34zm-66.183.07c1.688 0 3.032.895 3.032 3.41 0 4.824-1.964 9.715-5.685 9.715-1.929 0-3.066-.999-3.066-3.445 0-4.823 2.067-9.68 5.719-9.68zm47.705.172c1.103 0 1.93.137 2.618.482l-1.86 8.612c-1.447 2.515-3.307 3.687-5.064 3.687-1.619 0-2.55-1-2.55-3.342 0-2.411 1.24-6.167 2.79-7.751 1.138-1.172 2.585-1.688 4.066-1.688zm-77.783.207c1.55 0 2.308.826 2.308 2.962 0 2.343-.896 5.788-2.17 7.649-.793 1.137-2.309 2.1-3.893 2.1-1.31 0-2.516-.344-3.24-.964l1.759-8.234c1.688-2.308 3.685-3.513 5.236-3.513z" style="line-height:1.25;-inkscape-font-specification:'MetaPro, Medium Italic';font-variant-ligatures:normal;font-variant-caps:normal;font-variant-numeric:normal;font-feature-settings:normal;text-align:start" font-style="italic" font-weight="500" font-family="MetaPro" letter-spacing="0" word-spacing="0"/><path d="M43.146 39.666c-3.044-.183-6.368.158-9.882 1.18-6.078 1.632-14.008 5.97-21.508 11.102L10 53.149l1.978.784c7.057 2.8 14.46 4.85 22.004 6.568l.008.002h.004c10.324 2.473 17.285 2.18 21.642.208 2.179-.987 3.706-2.436 4.51-4.152.805-1.715.866-3.647.338-5.507-1.586-5.58-8.195-10.837-17.338-11.386zm-.144 2.291c8.33.555 14.085 5.425 15.304 9.713.406 1.43.34 2.757-.209 3.93-.55 1.171-1.603 2.237-3.395 3.049-3.585 1.623-10.131 2.062-20.192-.349l-.007-.001-.006-.002C27.766 56.764 21.2 54.94 14.915 52.6c6.815-4.486 13.844-8.205 18.946-9.572l.012-.003.012-.003c3.277-.956 6.34-1.25 9.117-1.066z" style="line-height:normal;font-variant-ligatures:normal;font-variant-position:normal;font-variant-caps:normal;font-variant-numeric:normal;font-variant-alternates:normal;font-feature-settings:normal;text-indent:0;text-align:start;text-decoration-line:none;text-decoration-style:solid;text-decoration-color:#000;text-transform:none;text-orientation:mixed;white-space:normal;shape-padding:0;isolation:auto;mix-blend-mode:normal;solid-color:#000;solid-opacity:1" color="#000" font-weight="400" font-family="sans-serif" overflow="visible" fill="#b05911"/><path style="line-height:normal;font-variant-ligatures:normal;font-variant-position:normal;font-variant-caps:normal;font-variant-numeric:normal;font-variant-alternates:normal;font-feature-settings:normal;text-indent:0;text-align:start;text-decoration-line:none;text-decoration-style:solid;text-decoration-color:#000;text-transform:none;text-orientation:mixed;white-space:normal;shape-padding:0;isolation:auto;mix-blend-mode:normal;solid-color:#000;solid-opacity:1" d="M61.936 59.368c1.896-2.389 3.524-5.307 4.702-8.772 2.15-5.915 3.145-14.898 3.243-23.986l.023-2.127-1.777 1.17c-6.341 4.175-12.266 9.064-18.001 14.257l-.006.006-.003.003c-7.947 7.04-11.7 12.909-12.583 17.609-.441 2.351-.13 4.433.813 6.076.944 1.643 2.492 2.802 4.319 3.435 5.48 1.901 13.577-.497 19.27-7.67zm-1.794-1.432C54.91 64.442 47.621 66.362 43.41 64.9c-1.404-.487-2.455-1.303-3.1-2.425-.644-1.122-.913-2.596-.55-4.53.726-3.868 4.121-9.482 11.867-16.34l.005-.005.005-.004c5.117-4.635 10.375-8.968 15.898-12.774-.234 8.156-1.22 16.047-3.027 21.01l-.004.012-.004.012c-1.097 3.232-2.612 5.91-4.357 8.079z" color="#000" font-weight="400" font-family="sans-serif" overflow="visible" fill="#347caa"/><path d="M44.456 69.062c1.505 2.652 3.601 5.255 6.373 7.645 4.678 4.21 12.635 8.497 21.024 11.992l1.964.818-.42-2.086c-1.496-7.443-3.808-14.768-6.476-22.03l-.002-.008-.002-.004c-3.55-10.005-7.586-15.684-11.613-18.263-2.015-1.29-4.062-1.782-5.939-1.522-1.877.26-3.53 1.26-4.802 2.717-3.816 4.368-4.626 12.775-.107 20.74zm2-1.127c-4.072-7.289-3.122-14.767-.189-18.125.978-1.119 2.127-1.787 3.41-1.965 1.281-.177 2.749.126 4.406 1.187 3.314 2.123 7.247 7.373 10.705 17.124l.002.007.002.006c2.38 6.48 4.428 12.98 5.888 19.525-7.474-3.272-14.42-7.142-18.347-10.677l-.008-.008-.01-.008c-2.586-2.228-4.502-4.636-5.859-7.066z" style="line-height:normal;font-variant-ligatures:normal;font-variant-position:normal;font-variant-caps:normal;font-variant-numeric:normal;font-variant-alternates:normal;font-feature-settings:normal;text-indent:0;text-align:start;text-decoration-line:none;text-decoration-style:solid;text-decoration-color:#000;text-transform:none;text-orientation:mixed;white-space:normal;shape-padding:0;isolation:auto;mix-blend-mode:normal;solid-color:#000;solid-opacity:1" color="#000" font-weight="400" font-family="sans-serif" overflow="visible" fill="#6d148a"/></svg>