<svg xmlns="http://www.w3.org/2000/svg" viewBox="0 0 200 114" overflow="visible"><text letter-spacing="-26.237" font-size="26.237" y="66.292" x="18.366" font-family="Trebuchet" fill-opacity="0" stroke-width="2.186">W3C</text><text letter-spacing="-26.237" font-size="24.051" y="66.292" x="103.636" font-family="Trebuchet" fill-opacity="0" stroke-width="2.186">OWL</text><g image-rendering="optimizeQuality" shape-rendering="geometricPrecision" text-rendering="geometricPrecision"><path fill="#fff" d="M14.54 40.602h90.736v33.07H14.539z"/><path fill="#005b9d" d="M99.902 40.602h89.551v33.07H99.902z"/><g fill="#fff"><path d="M123.528 48.475c7.102 0 10.25 4.565 10.25 9.183 0 4.565-3.065 9.183-10.25 9.183-6.793 0-10.247-4.226-10.247-9.183 0-4.749 3.231-9.183 10.247-9.183zm0 13.119c2.237 0 3.647-1.522 3.647-3.936 0-2.414-1.41-3.935-3.647-3.935-2.263 0-3.644 1.52-3.644 3.935 0 2.412 1.381 3.936 3.644 3.936zM134.137 48.711h6.187l2.182 8.029h.055l2.346-8.029h4.78l2.488 8.029h.055l2.044-8.029h6.187l-6.38 17.894h-3.95l-2.764-8.868h-.055l-2.597 8.868h-3.951zM162.838 48.711h6.603v13.407h7.403v4.487H162.84V48.711z"/></g><path fill="none" stroke="#005b9d" stroke-width="1.09321" d="M14.54 40.602h174.913v32.796H14.54z"/><path d="M67 43.077c.886 0 1.594.72 1.594 1.607 0 .9-.708 1.613-1.6 1.613a1.605 1.605 0 01-1.607-1.613c0-.888.721-1.607 1.607-1.607zm-.013.321c-.67 0-1.213.577-1.213 1.295 0 .721.542 1.285 1.22 1.285.68.007 1.23-.564 1.23-1.285 0-.718-.55-1.295-1.23-1.295zm-.27 2.222h-.381v-1.784c.142-.025.3-.05.573-.05.306 0 .494.05.614.141.098.08.157.2.157.387 0 .215-.15.363-.343.414v.015c.155.028.256.168.284.435.038.278.073.387.101.442h-.394c-.043-.064-.072-.223-.107-.466-.028-.192-.142-.269-.336-.269h-.17v.735zm0-1.03h.176c.223 0 .394-.072.394-.256 0-.149-.107-.265-.365-.265-.092 0-.158 0-.206.007z" fill="#241e12"/><g fill="#241e12"><path d="M64.377 44.93l.503 3.058-1.78 3.408s-.684-1.443-1.82-2.243c-.957-.676-1.58-.822-2.553-.623-1.253.26-2.672 1.755-3.29 3.603-.74 2.208-.748 3.277-.775 4.255-.041 1.576.208 2.503.208 2.503s-1.082-1.998-1.071-4.926c.006-2.088.337-3.988 1.303-5.86.853-1.644 2.114-2.632 3.238-2.746 1.161-.122 2.08.436 2.786 1.043.743.637 1.5 2.03 1.5 2.03zM64.595 62.234s-.785 1.406-1.274 1.95c-.49.543-1.367 1.498-2.451 1.973-1.085.48-1.651.57-2.722.463-1.072-.098-2.067-.72-2.414-.98-.348-.255-1.24-1.016-1.74-1.727-.506-.71-1.293-2.13-1.293-2.13s.438 1.422.713 2.028c.157.345.643 1.41 1.332 2.333.642.863 1.89 2.348 3.786 2.685 1.896.336 3.201-.519 3.52-.722.322-.205 1.002-.774 1.435-1.235.448-.481.874-1.094 1.106-1.46.173-.27.453-.812.453-.812z"/></g><g fill="#005b9d"><path d="M31.847 45.069l4.286 14.577 4.29-14.577h3.102l-7.1 23.95h-.295l-4.432-14.842-4.436 14.842h-.295l-7.097-23.95h3.105l4.287 14.577 2.9-9.817-1.422-4.76z"/><path d="M52.343 61.33c0 2.166-.578 3.992-1.73 5.47-1.152 1.48-2.648 2.219-4.482 2.219-1.38 0-2.58-.44-3.605-1.316-1.026-.877-1.784-2.064-2.276-3.564l2.424-1.004c.355.905.822 1.62 1.404 2.14a2.959 2.959 0 002.055.786c.829 0 1.53-.462 2.101-1.391.573-.925.857-2.042.857-3.34 0-1.44-.306-2.552-.916-3.34-.71-.929-1.823-1.392-3.34-1.392h-1.183V55.18l4.14-7.156h-4.997l-1.391 2.365h-.89V45.07h11.531v1.445l-4.375 7.543c1.54.492 2.7 1.388 3.49 2.687.787 1.303 1.183 2.832 1.183 4.585z"/></g><g><path d="M83.453 45.39c7.703 3.474 9.382-2.928 9.382-2.928s-1.462 8.029-8.216 11.309c-1.376.667-2.23 1.025-2.23 1.025l-11.064-5.394 11.064-4.534s-.267-.077 1.064.522z" fill="#87bb40"/><path fill="#ed7d22" d="M81.099 57.05v11.853L70.792 63.32v-11.51z"/><path fill="#bd1b89" d="M83.418 57.05v11.853l10.307-5.582v-11.51z"/></g></g></svg>