<svg xmlns="http://www.w3.org/2000/svg" viewBox="0 0 200 114"><path d="M0 0h200v114H0z" fill="#1a2d6f"/><path d="M7.988 11.599h184.024v44.7H7.988z" fill="#fff"/><path d="M67.83 33.949a26.589 16.433 0 01-26.59 16.433 26.589 16.433 0 01-26.588-16.433A26.589 16.433 0 0141.24 17.516 26.589 16.433 0 0167.83 33.95zM185.348 33.949a26.589 16.433 0 01-26.588 16.433 26.589 16.433 0 01-26.59-16.433 26.589 16.433 0 0126.59-16.433 26.589 16.433 0 0126.588 16.433z" fill="#fff" stroke="#162a69" stroke-width=".981"/><path d="M8.478 70.155h62.246v34.359H8.478zM148.388 77.417h43.134v19.835h-43.134z" fill="#1a2d6f" stroke="#fff" stroke-width=".981"/><text y="36.656" x="23.581" style="line-height:1.25;-inkscape-font-specification:'Arial, Normal';font-variant-ligatures:normal;font-variant-caps:normal;font-variant-numeric:normal;font-feature-settings:normal;text-align:start" font-weight="400" font-size="10.462" font-family="Arial" letter-spacing="0" word-spacing="0" stroke-width=".181"><tspan style="-inkscape-font-specification:'Arial, Normal';font-variant-ligatures:normal;font-variant-caps:normal;font-variant-numeric:normal;font-feature-settings:normal;text-align:start" y="36.656" x="23.581">Subject</tspan></text><text style="line-height:1.25;-inkscape-font-specification:'Arial, Normal';font-variant-ligatures:normal;font-variant-caps:normal;font-variant-numeric:normal;font-feature-settings:normal;text-align:start" x="143.422" y="36.659" font-weight="400" font-size="10.462" font-family="Arial" letter-spacing="0" word-spacing="0" stroke-width=".181"><tspan y="36.659" x="143.422">Object</tspan></text><path d="M67.83 33.949h64.628M122.942 28.64l9.586 5.309-9.586 5.308" fill="none" stroke="#1a2d6f" stroke-width=".981"/><text style="line-height:1.25;-inkscape-font-specification:'Arial, Normal';font-variant-ligatures:normal;font-variant-caps:normal;font-variant-numeric:normal;font-feature-settings:normal;text-align:start" x="16.475" y="90.047" font-weight="400" font-size="10.462" font-family="Arial" letter-spacing="0" word-spacing="0" fill="#fff" stroke-width=".181"><tspan y="90.047" x="16.475">resources</tspan></text><text y="91.017" x="157.593" style="line-height:1.25;-inkscape-font-specification:'Arial, Normal';font-variant-ligatures:normal;font-variant-caps:normal;font-variant-numeric:normal;font-feature-settings:normal;text-align:start" font-weight="400" font-size="10.462" font-family="Arial" letter-spacing="0" word-spacing="0" fill="#fff" stroke-width=".181"><tspan y="91.017" x="157.593">value</tspan></text><path d="M70.822 87.334h77.833" fill="none" stroke="#fff" stroke-width=".981"/><text y="83.356" x="90.232" style="line-height:1.25;-inkscape-font-specification:'Arial, Normal';font-variant-ligatures:normal;font-variant-caps:normal;font-variant-numeric:normal;font-feature-settings:normal;text-align:start" font-weight="400" font-size="10.462" font-family="Arial" letter-spacing="0" word-spacing="0" fill="#fff" stroke-width=".181"><tspan y="83.356" x="90.232">property</tspan></text><text style="line-height:1.25;-inkscape-font-specification:'Arial, Normal';font-variant-ligatures:normal;font-variant-caps:normal;font-variant-numeric:normal;font-feature-settings:normal;text-align:start" x="78.482" y="30.438" font-weight="400" font-size="10.462" font-family="Arial" letter-spacing="0" word-spacing="0" stroke-width=".181"><tspan y="30.438" x="78.482">predicate</tspan></text><path d="M144.21 84.297v6.074l4.445-3.037z" fill="#fff"/></svg>