<svg xmlns="http://www.w3.org/2000/svg" viewBox="0 0 120 60" preserveAspectRatio="xMidYMid"><g fill="#83cd29"><path d="M106.784 25.334c-.271 0-.535.056-.768.188l-7.386 4.265a1.556 1.556 0 00-.768 1.35v8.514c0 .553.29 1.072.768 1.349l1.929 1.113c.937.462 1.283.455 1.71.455 1.387 0 2.179-.842 2.179-2.305v-8.406c0-.118-.103-.203-.22-.203h-.925c-.118 0-.22.085-.22.203v8.406c0 .648-.675 1.3-1.771.752l-2.008-1.176c-.07-.038-.125-.107-.125-.188v-8.515c0-.08.054-.163.125-.204l7.37-4.25a.217.217 0 01.22 0l7.37 4.25a.25.25 0 01.126.204v8.515c0 .081-.041.165-.11.204l-7.386 4.25a.227.227 0 01-.22 0l-1.897-1.13a.197.197 0 00-.188 0c-.524.297-.622.332-1.113.502-.121.042-.305.108.062.314l2.478 1.458c.236.137.499.204.768.204.274 0 .533-.067.769-.204l7.386-4.25a1.56 1.56 0 00.768-1.348v-8.515c0-.553-.29-1.072-.768-1.349l-7.386-4.265a1.54 1.54 0 00-.769-.188z"/><path d="M108.76 31.418c-2.103 0-3.356.895-3.356 2.384 0 1.615 1.244 2.058 3.262 2.258 2.415.236 2.603.591 2.603 1.066 0 .825-.657 1.176-2.21 1.176-1.953 0-2.382-.487-2.526-1.458-.017-.104-.097-.188-.203-.188h-.957a.224.224 0 00-.22.22c0 1.242.677 2.712 3.905 2.712 2.337 0 3.685-.917 3.685-2.524 0-1.594-1.089-2.021-3.356-2.321-2.29-.303-2.509-.452-2.509-.988 0-.443.185-1.035 1.882-1.035 1.516 0 2.076.327 2.305 1.349.02.096.105.172.204.172h.957c.059 0 .116-.036.157-.078.04-.046.068-.096.062-.157-.148-1.76-1.321-2.588-3.685-2.588z"/></g><path d="M63.363 14.169a.475.475 0 00-.47.47v11.997a.318.318 0 01-.157.282.327.327 0 01-.33 0l-1.96-1.13a.94.94 0 00-.94 0l-7.826 4.517a.963.963 0 00-.47.831v9.032c0 .338.178.647.47.816l7.825 4.516a.937.937 0 00.941 0l7.825-4.516a.939.939 0 00.47-.816V17.65a.956.956 0 00-.486-.83l-4.657-2.604a.46.46 0 00-.235-.047zM13.026 25.444a.885.885 0 00-.423.11L4.778 30.07a.937.937 0 00-.47.815l.015 12.122c0 .168.087.325.235.408a.457.457 0 00.47 0l4.642-2.666a.958.958 0 00.486-.816v-5.66c0-.338.178-.648.47-.816l1.977-1.145a.926.926 0 01.47-.125c.161 0 .327.04.47.125l1.976 1.145c.293.168.47.478.47.815v5.661a.96.96 0 00.487.816l4.642 2.666a.472.472 0 00.706-.408l.015-12.122a.933.933 0 00-.47-.815l-7.825-4.516a.878.878 0 00-.424-.11h-.094zm70.315.11a.935.935 0 00-.47.125l-7.826 4.516a.938.938 0 00-.47.816v9.032c0 .34.191.648.486.815l7.762 4.423a.941.941 0 00.926.015l4.704-2.619a.463.463 0 00.016-.815l-7.872-4.516a.506.506 0 01-.251-.424V34.1c0-.17.104-.324.25-.408l2.447-1.411a.47.47 0 01.47 0l2.447 1.411a.469.469 0 01.235.408v2.226a.469.469 0 00.705.408l4.69-2.728a.943.943 0 00.47-.816v-2.18a.941.941 0 00-.47-.815l-7.779-4.516a.933.933 0 00-.47-.126zm-23.397 6.742c.041 0 .09.01.126.032l2.681 1.552c.073.042.126.12.126.204v3.105a.242.242 0 01-.126.204l-2.681 1.552a.237.237 0 01-.235 0l-2.682-1.552a.242.242 0 01-.125-.204v-3.105c0-.084.052-.162.125-.204l2.682-1.552a.207.207 0 01.11-.031z" fill="#404137"/><path d="M36.532 25.506a.937.937 0 00-.47.126l-7.825 4.5a.963.963 0 00-.47.832v9.032c0 .338.178.646.47.815l7.825 4.517a.937.937 0 00.94 0l7.826-4.517a.939.939 0 00.47-.815v-9.032a.963.963 0 00-.47-.832l-7.825-4.5a.937.937 0 00-.47-.126zM83.325 33.567c-.031 0-.066 0-.094.015l-1.505.878a.183.183 0 00-.094.157v1.725c0 .065.037.125.094.157l1.505.862a.164.164 0 00.173 0l1.505-.862a.184.184 0 00.094-.157v-1.725a.184.184 0 00-.094-.157l-1.505-.878c-.028-.016-.048-.015-.079-.015z" fill="#83cd29"/></svg>