<svg xmlns="http://www.w3.org/2000/svg" viewBox="0 0 200 114"><path d="M0 0h200v114H0z" fill="#55842c"/><path d="M14.902 50.53c-.939 0-1.742.141-2.41.425-.66.283-1.169.697-1.525 1.242a3.14 3.14 0 00-.525 1.742c0 .968.375 1.787 1.125 2.46.534.478 1.462.88 2.785 1.209 1.028.256 1.687.433 1.976.533.423.15.717.328.884.534.172.2.258.445.258.734 0 .45-.202.845-.608 1.184-.4.333-.998.5-1.793.5-.75 0-1.348-.189-1.792-.567-.44-.378-.731-.97-.876-1.776L10 58.983c.161 1.368.656 2.41 1.484 3.127.828.711 2.015 1.067 3.56 1.067 1.062 0 1.948-.147 2.66-.442.711-.3 1.262-.756 1.65-1.367.39-.612.584-1.267.584-1.967 0-.773-.164-1.421-.492-1.944a3.357 3.357 0 00-1.35-1.242c-.573-.306-1.46-.6-2.66-.883-1.2-.284-1.957-.556-2.268-.817-.244-.206-.367-.454-.367-.743a.89.89 0 01.393-.758c.405-.295.967-.442 1.684-.442.694 0 1.214.139 1.559.416.35.273.578.723.683 1.351l2.468-.108c-.038-1.123-.447-2.02-1.225-2.693-.773-.673-1.926-1.009-3.46-1.009zm77.457.207v4.403c-.723-.823-1.58-1.234-2.569-1.234-1.078 0-1.97.392-2.676 1.175-.706.779-1.059 1.918-1.059 3.419 0 1.467.362 2.612 1.084 3.435.729.817 1.601 1.225 2.618 1.225.5 0 .995-.122 1.484-.366.495-.25.923-.628 1.285-1.134v1.3h2.176V50.737h-2.343zm9.404 0V62.96h4.644c.912 0 1.64-.086 2.185-.258.728-.233 1.306-.559 1.734-.976.567-.55 1.003-1.27 1.309-2.16.25-.727.375-1.594.375-2.6 0-1.146-.133-2.107-.4-2.885-.267-.784-.656-1.445-1.167-1.984a4.088 4.088 0 00-1.843-1.126c-.534-.156-1.309-.234-2.326-.234h-4.51zm52.219 0v2.168h2.342v-2.168h-2.342zm-10.356.1V62.96h8.605v-2.059h-6.137V50.838h-2.468zm-119.152.142l-2.351 1.368v1.759h-1.076v1.867h1.076v3.861c0 .828.025 1.378.075 1.65.061.384.17.69.325.918.161.222.411.406.75.55.34.14.72.208 1.143.208.689 0 1.306-.116 1.85-.35l-.2-1.817c-.41.15-.725.225-.941.225a.681.681 0 01-.4-.117.542.542 0 01-.21-.292c-.027-.122-.041-.544-.041-1.267v-3.569h1.6v-1.867h-1.6v-3.127zm32.283 0l-2.351 1.368v1.759h-1.075v1.867h1.075v3.861c0 .828.025 1.378.075 1.65.061.384.17.69.325.918.161.222.411.406.75.55.34.14.72.208 1.143.208.69 0 1.306-.116 1.85-.35l-.2-1.817c-.41.15-.725.225-.942.225a.68.68 0 01-.4-.117.543.543 0 01-.208-.292c-.028-.122-.042-.544-.042-1.267v-3.569h1.601v-1.867h-1.6v-3.127zm69.302 0l-2.35 1.368v1.759h-1.077v1.867h1.076v3.861c0 .828.025 1.378.075 1.65.061.384.17.69.325.918.161.222.411.406.75.55.34.14.72.208 1.143.208.689 0 1.306-.116 1.85-.35l-.2-1.817c-.41.15-.725.225-.941.225a.681.681 0 01-.4-.117.541.541 0 01-.21-.292c-.027-.122-.041-.544-.041-1.267v-3.569h1.6v-1.867h-1.6v-3.127zm45.557 0l-2.351 1.368v1.759h-1.076v1.867h1.076v3.861c0 .828.025 1.378.075 1.65.06.384.169.69.325.918.16.222.41.406.75.55.339.14.72.208 1.142.208.69 0 1.306-.116 1.851-.35l-.2-1.817c-.411.15-.725.225-.942.225a.68.68 0 01-.4-.117.542.542 0 01-.209-.292c-.028-.122-.041-.544-.041-1.267v-3.569h1.6v-1.867h-1.6v-3.127zm-67.385 1.826h1.11c1.005 0 1.68.039 2.025.117.461.1.842.292 1.143.576.3.283.533.678.7 1.183.167.506.25 1.232.25 2.177 0 .944-.083 1.692-.25 2.242-.167.545-.383.937-.65 1.176a2.247 2.247 0 01-.992.508c-.306.078-.804.117-1.493.117h-1.843v-8.096zm-72.42 1.1c-.378 0-.717.095-1.017.284-.295.19-.628.581-1 1.176v-1.26h-2.177v8.855h2.343v-2.734c0-1.507.064-2.496.192-2.969.134-.472.314-.797.542-.975.228-.184.506-.275.834-.275.339 0 .705.128 1.1.383l.726-2.042a2.974 2.974 0 00-1.543-.442zm16.759 0c-1.318 0-2.362.41-3.135 1.227-.773.811-1.16 1.948-1.16 3.41 0 1.445.384 2.576 1.151 3.393.773.817 1.807 1.225 3.102 1.225 1.14 0 2.048-.27 2.726-.808.678-.54 1.137-1.337 1.376-2.393l-2.301-.392c-.117.617-.317 1.053-.6 1.309-.284.25-.648.375-1.093.375-.594 0-1.07-.216-1.425-.65-.35-.434-.525-1.176-.525-2.226 0-.945.172-1.618.516-2.018.35-.405.818-.608 1.401-.608.44 0 .795.116 1.067.35.278.233.456.58.534 1.042l2.31-.417c-.279-.95-.737-1.657-1.377-2.118-.633-.467-1.489-.7-2.567-.7zm25.963 0c-.378 0-.717.095-1.017.284-.295.19-.629.581-1.001 1.176v-1.26h-2.176v8.855h2.343v-2.734c0-1.507.064-2.496.192-2.969.133-.472.314-.797.542-.975.228-.184.505-.275.833-.275.34 0 .706.128 1.1.383l.726-2.042a2.974 2.974 0 00-1.542-.442zm5.92 0c-1.173 0-2.143.418-2.91 1.251-.768.829-1.15 1.977-1.15 3.444 0 1.228.291 2.246.875 3.052.739 1.006 1.878 1.508 3.418 1.508.973 0 1.781-.222 2.426-.667.65-.45 1.126-1.103 1.426-1.959l-2.335-.392c-.128.445-.317.767-.567.967-.25.2-.558.3-.925.3-.54 0-.99-.19-1.35-.574-.362-.39-.551-.932-.568-1.627h5.87c.033-1.795-.33-3.126-1.092-3.993-.762-.873-1.801-1.31-3.119-1.31zm37.102 0c-1.151 0-2.018.206-2.601.618-.584.411-.995 1.045-1.234 1.9l2.126.384c.144-.41.333-.697.567-.858.233-.167.558-.25.975-.25.617 0 1.037.097 1.259.291.222.19.333.509.333.959v.234c-.422.177-1.18.37-2.275.575-.812.155-1.435.339-1.868.55a2.312 2.312 0 00-1 .9c-.24.39-.36.834-.36 1.335 0 .755.262 1.38.784 1.875.528.495 1.248.742 2.16.742.517 0 1.003-.097 1.46-.291a4.222 4.222 0 001.283-.876c.016.045.045.137.084.276.088.305.163.536.224.691h2.318a5.198 5.198 0 01-.425-1.183c-.072-.373-.108-.948-.108-1.726l.024-2.735c0-1.017-.105-1.715-.316-2.093-.206-.384-.564-.698-1.076-.942-.511-.25-1.29-.375-2.334-.375zm15.207 0c-1.15 0-2.017.206-2.601.618-.584.411-.995 1.045-1.234 1.9l2.126.384c.145-.41.334-.697.567-.858.234-.167.559-.25.976-.25.617 0 1.037.097 1.259.291.222.19.333.509.333.959v.234c-.422.177-1.181.37-2.276.575-.812.155-1.434.339-1.868.55a2.312 2.312 0 00-1 .9c-.24.39-.358.834-.358 1.335 0 .755.26 1.38.783 1.875.528.495 1.248.742 2.16.742.517 0 1.003-.097 1.458-.291a4.224 4.224 0 001.285-.876c.016.045.044.137.083.276.089.305.164.536.225.691h2.318a5.195 5.195 0 01-.425-1.183c-.072-.373-.108-.948-.108-1.726l.024-2.735c0-1.017-.105-1.715-.316-2.093-.206-.384-.564-.698-1.076-.942-.511-.25-1.29-.375-2.335-.375zm31.033 0c-1.173 0-2.145.5-2.918 1.501v-1.3h-2.176v8.854h2.342v-4.01c0-.99.059-1.667.176-2.034.122-.367.344-.662.667-.884a1.878 1.878 0 011.092-.334c.316 0 .587.078.809.234.228.156.391.375.491.658.1.278.15.895.15 1.851v4.52h2.344v-5.504c0-.683-.045-1.208-.134-1.575a2.502 2.502 0 00-.458-.984c-.217-.29-.54-.525-.968-.709a3.469 3.469 0 00-1.417-.283zm14.44 0c-1.172 0-2.142.418-2.91 1.251-.766.829-1.15 1.977-1.15 3.444 0 1.228.292 2.246.876 3.052.74 1.006 1.879 1.508 3.418 1.508.973 0 1.782-.222 2.426-.667.65-.45 1.126-1.103 1.426-1.959l-2.335-.392c-.127.445-.316.767-.566.967-.25.2-.56.3-.926.3-.54 0-.989-.19-1.35-.574-.362-.39-.551-.932-.568-1.627h5.87c.034-1.795-.33-3.126-1.092-3.993-.762-.873-1.801-1.31-3.118-1.31zm10.223 0a1.87 1.87 0 00-1.018.284c-.294.19-.628.581-1 1.176v-1.26h-2.176v8.855h2.343v-2.734c0-1.507.064-2.496.191-2.969.134-.472.315-.797.542-.975.228-.184.506-.275.834-.275.34 0 .706.128 1.1.383l.726-2.042a2.972 2.972 0 00-1.542-.442zm-154.154.2v5.604c0 .834.105 1.487.317 1.96.21.472.553.839 1.025 1.1a3.253 3.253 0 001.601.391c.584 0 1.137-.135 1.66-.408a3.405 3.405 0 001.275-1.117v1.325h2.176v-8.854h-2.343v3.735c0 1.267-.058 2.065-.175 2.393a1.7 1.7 0 01-.65.817 1.86 1.86 0 01-1.076.325c-.35 0-.639-.08-.867-.242a1.29 1.29 0 01-.475-.666c-.083-.284-.125-1.048-.125-2.293v-4.07h-2.343zm25.646 0v5.604c0 .834.106 1.487.317 1.96.211.472.553.839 1.026 1.1a3.253 3.253 0 001.6.391c.584 0 1.137-.135 1.66-.408a3.405 3.405 0 001.276-1.117v1.325h2.176v-8.854h-2.343v3.735c0 1.267-.059 2.065-.176 2.393a1.7 1.7 0 01-.65.817 1.86 1.86 0 01-1.075.325c-.35 0-.64-.08-.867-.242a1.29 1.29 0 01-.476-.666c-.083-.284-.125-1.048-.125-2.293v-4.07H59.95zm94.032 0v8.855h2.342v-8.854h-2.342zm-73.388 1.593c.478 0 .884.178 1.218.534.333.35.508.864.525 1.542h-3.502c-.006-.639.158-1.145.492-1.517a1.627 1.627 0 011.267-.559zm9.813 0c.573 0 1.043.226 1.41.676.366.444.55 1.175.55 2.192 0 .912-.189 1.598-.567 2.06-.378.456-.836.683-1.376.683-.678 0-1.206-.305-1.584-.916-.261-.423-.392-1.106-.392-2.051 0-.879.187-1.537.559-1.976.378-.445.845-.668 1.4-.668zm87.97 0c.478 0 .884.178 1.218.534.333.35.508.864.525 1.542h-3.502c-.005-.639.159-1.145.492-1.517a1.627 1.627 0 011.267-.559zm-59.397 3.01v.467c0 .562-.03.942-.091 1.142a1.468 1.468 0 01-.559.776c-.383.278-.787.417-1.209.417-.378 0-.69-.12-.934-.359a1.15 1.15 0 01-.367-.85c0-.334.153-.609.46-.826.2-.133.624-.27 1.275-.408.65-.14 1.125-.259 1.425-.359zm15.208 0v.467c0 .562-.03.942-.091 1.142a1.468 1.468 0 01-.559.776c-.383.278-.787.417-1.21.417-.377 0-.688-.12-.933-.359a1.15 1.15 0 01-.367-.85c0-.334.153-.609.46-.826.2-.133.624-.27 1.274-.408.65-.14 1.126-.259 1.426-.359z" style="line-height:1.25;-inkscape-font-specification:'Arial, Bold';font-variant-ligatures:normal;font-variant-caps:normal;font-variant-numeric:normal;font-feature-settings:normal;text-align:start" font-weight="700" font-size="17.075" font-family="Arial" letter-spacing="0" word-spacing="0" fill="#fff"/></svg>