<svg xmlns="http://www.w3.org/2000/svg" viewBox="0 0 200 114"><g transform="matrix(3.16076 0 0 3.16076 1289.804 1891.59)"><path d="M-374.96-580.666a3.157 3.157 0 10-2.263 0l-2.127 5.541a9.093 9.093 0 116.517 0z" text-anchor="middle" fill="#3fa652" stroke="#21552a" stroke-width=".758" stroke-linejoin="round"/><path d="M-385.597-572.399q0 .487-.244.768-.245.281-.656.281-.414 0-.658-.281-.243-.281-.243-.768 0-.486.243-.767.244-.283.658-.283.41 0 .656.283.244.281.244.767zm-.339 0q0-.386-.148-.573-.149-.189-.413-.189-.267 0-.415.189-.147.187-.147.573 0 .374.148.568.149.193.414.193.262 0 .41-.19.151-.193.151-.57zM-383.37-572.424q0 .243-.068.444-.068.2-.192.338-.115.132-.272.205-.156.071-.33.071-.152 0-.276-.033-.123-.034-.25-.106v.834h-.329v-2.723h.329v.208q.13-.112.293-.187.164-.076.35-.076.353 0 .548.272.198.27.198.753zm-.338.01q0-.36-.12-.538-.121-.179-.371-.179-.142 0-.285.063-.143.062-.274.164v1.127q.14.064.239.087.101.023.229.023.274 0 .428-.188.154-.19.154-.56zM-381.224-572.365h-1.438q0 .184.054.32.055.136.149.223.09.086.215.129.126.042.276.042.199 0 .4-.08.202-.082.288-.16h.018v.365q-.166.071-.34.12-.172.047-.363.047-.485 0-.758-.267-.272-.269-.272-.762 0-.488.26-.775.262-.286.688-.286.395 0 .608.235.215.235.215.668zm-.32-.256q-.002-.264-.13-.408-.128-.144-.39-.144-.264 0-.421.158-.156.159-.177.394zM-379.094-571.405h-.329v-1.133q0-.137-.016-.256-.015-.121-.057-.189-.044-.075-.126-.11-.082-.038-.213-.038-.135 0-.281.068-.147.068-.282.173v1.485h-.328v-1.99h.328v.222q.154-.13.318-.203.165-.073.338-.073.316 0 .482.194.166.194.166.559zM-375.4-572.044q0 .273-.223.448-.22.174-.602.174-.217 0-.399-.052-.18-.053-.302-.115v-.376h.017q.156.12.346.19.19.07.366.07.216 0 .338-.071.123-.071.123-.225 0-.117-.067-.178-.066-.06-.255-.103-.07-.016-.183-.037-.112-.022-.205-.047-.256-.07-.365-.203-.106-.135-.106-.331 0-.123.049-.232.05-.108.152-.194.097-.083.248-.132.152-.05.339-.05.174 0 .353.045.18.043.298.105v.358h-.017q-.126-.094-.306-.158-.18-.066-.353-.066-.18 0-.304.07t-.124.21q0 .122.075.185.074.062.238.101.09.021.202.043.114.021.19.039.228.053.352.183.124.132.124.35zM-373.266-572.464q0 .486-.245.768-.244.281-.655.281-.414 0-.658-.281-.243-.282-.243-.768 0-.486.243-.767.244-.284.658-.284.41 0 .655.284.245.28.245.767zm-.339 0q0-.386-.148-.573-.149-.19-.413-.19-.267 0-.416.19-.146.187-.146.573 0 .374.148.568.149.193.414.193.262 0 .41-.19.151-.193.151-.57zM-371.138-571.47h-.329v-.22q-.165.133-.317.204-.152.071-.336.071-.307 0-.479-.19-.17-.193-.17-.563v-1.291h.328v1.132q0 .152.014.26.014.107.059.184.047.078.122.114.075.035.219.035.127 0 .277-.067.152-.068.283-.173v-1.486h.329zM-369.274-573.094h-.017q-.074-.018-.144-.025-.068-.01-.162-.01-.152 0-.294.07-.141.068-.272.177v1.412h-.329v-1.99h.329v.294q.195-.16.344-.226.15-.067.306-.067.085 0 .124.005.038.004.115.016zM-367.518-571.595q-.164.08-.313.125-.147.044-.313.044-.211 0-.388-.062-.176-.064-.302-.192-.127-.128-.197-.324t-.07-.458q0-.488.262-.766.264-.278.695-.278.168 0 .329.048.162.048.297.118v.372h-.018q-.15-.12-.31-.183-.16-.064-.312-.064-.28 0-.442.192-.16.19-.16.561 0 .36.157.554.159.192.445.192.1 0 .203-.026.103-.027.185-.07.072-.037.135-.078.063-.043.1-.073h.017zM-365.462-572.43h-1.438q0 .183.054.32.055.136.149.223.09.086.215.128.126.043.276.043.199 0 .4-.08.203-.082.288-.16h.018v.365q-.166.071-.34.12-.172.047-.363.047-.485 0-.758-.267-.272-.269-.272-.762 0-.488.26-.775.262-.287.688-.287.395 0 .608.235.215.236.215.668zm-.32-.256q-.002-.264-.13-.408-.128-.145-.39-.145-.264 0-.421.159-.156.158-.177.394zM-383.42-570.15h-.37v-.347h.37zm-.02 2.322h-.329v-1.989h.329zM-381.155-567.828h-.329v-1.132q0-.138-.015-.257-.016-.12-.058-.189-.044-.074-.126-.11-.082-.037-.213-.037-.135 0-.281.067-.147.068-.282.173v1.485h-.328v-1.989h.328v.22q.154-.13.318-.202.165-.073.338-.073.316 0 .482.194.166.194.166.56zM-380.17-570.15h-.37v-.347h.37zm-.021 2.322h-.328v-1.989h.328zM-378.524-567.845q-.093.024-.203.04-.108.017-.194.017-.299 0-.454-.164-.156-.164-.156-.526v-1.058h-.221v-.281h.221v-.572h.329v.572h.678v.281h-.678v.907q0 .157.007.246.007.087.049.164.038.07.105.105.068.032.206.032.08 0 .167-.023.088-.025.126-.041h.018zM-377.773-570.15h-.37v-.347h.37zm-.021 2.322h-.329v-1.989h.329zM-375.624-567.828h-.327v-.212q-.044.03-.119.086-.073.053-.143.085-.082.041-.189.068-.106.029-.25.029-.263 0-.447-.178-.183-.179-.183-.455 0-.226.094-.365.096-.14.273-.22.178-.08.428-.11.25-.028.536-.042v-.052q0-.114-.04-.188-.039-.075-.112-.118-.07-.04-.168-.055-.097-.014-.204-.014-.13 0-.288.035-.16.034-.329.1h-.017v-.34q.096-.027.278-.06.181-.031.358-.031.206 0 .358.035.154.034.265.118.11.082.168.212.058.13.058.322zm-.327-.49v-.553q-.15.009-.355.026-.202.018-.321.052-.142.041-.229.128-.087.086-.087.237 0 .171.101.258.101.086.31.086.172 0 .316-.068.143-.07.265-.165zM-373.975-567.845q-.093.024-.203.04-.108.017-.194.017-.298 0-.454-.164-.155-.164-.155-.526v-1.058h-.222v-.281h.222v-.572h.328v.572h.678v.281h-.678v.907q0 .157.007.246.007.087.05.164.037.07.104.105.068.032.206.032.08 0 .168-.023.087-.025.126-.041h.017zM-373.224-570.15h-.37v-.347h.37zm-.02 2.322h-.33v-1.989h.33zM-370.904-569.817l-.79 1.99h-.33l-.784-1.99h.356l.605 1.583.6-1.583zM-368.868-568.788h-1.438q0 .184.054.321.054.135.148.223.091.085.215.128.126.043.276.043.2 0 .4-.08.203-.083.289-.16h.017v.364q-.166.071-.339.12-.173.048-.363.048-.486 0-.758-.268-.273-.268-.273-.762 0-.488.26-.775.263-.286.689-.286.395 0 .608.235.215.235.215.668zm-.32-.256q-.002-.264-.131-.408-.128-.144-.39-.144-.264 0-.42.158-.156.159-.177.394z" style="line-height:1.25;-inkscape-font-specification:Sans" font-weight="400" font-size="35.155" font-family="OpenSymbol" letter-spacing="0" word-spacing="0"/><ellipse ry=".82" rx=".821" cy="-575.55" cx="-367.638" fill="none" stroke="#000" stroke-width=".232"/><text y="-575.125" x="-368.125" style="line-height:0%;-inkscape-font-specification:'OpenSymbol Bold'" font-weight="700" font-size="1.233" font-family="OpenSymbol" letter-spacing="0" word-spacing="0" stroke-width=".103"><tspan y="-575.125" x="-368.125" style="line-height:1.25" font-size="1.3">R</tspan></text></g></svg>