<svg xmlns="http://www.w3.org/2000/svg" viewBox="0 0 200 114"><path d="M0 0h200v114H0z" fill="#f7df1e"/><path d="M108.998 67.659c2.296 3.75 5.284 6.505 10.567 6.505 4.44 0 7.275-2.218 7.275-5.284 0-3.673-2.914-4.974-7.8-7.111l-2.677-1.149c-7.73-3.293-12.866-7.42-12.866-16.141 0-8.034 6.122-14.15 15.688-14.15 6.812 0 11.708 2.37 15.237 8.577l-8.342 5.356c-1.837-3.293-3.818-4.59-6.895-4.59-3.137 0-5.126 1.99-5.126 4.59 0 3.214 1.99 4.515 6.587 6.505l2.678 1.147c9.102 3.903 14.24 7.883 14.24 16.829 0 9.645-7.576 14.928-17.75 14.928-9.95 0-16.377-4.74-19.522-10.954zm-37.843.928c1.683 2.986 3.214 5.51 6.895 5.51 3.52 0 5.74-1.377 5.74-6.731V30.94h10.712v36.57c0 11.093-6.504 16.142-15.996 16.142-8.578 0-13.545-4.44-16.07-9.785z"/></svg>