<svg xmlns="http://www.w3.org/2000/svg" viewBox="0 0 200 114"><path image-rendering="optimizeQuality" shape-rendering="geometricPrecision" text-rendering="geometricPrecision" d="M60 17h80v80H60z"/><path fill="#fff" image-rendering="optimizeQuality" shape-rendering="geometricPrecision" text-rendering="geometricPrecision" d="M61.564 18.705h76.59v54.423h-76.59z"/><path d="M113.579 51.623a6.978 6.978 0 00-.713-.323l.172-.014s-1.528-.677-1.661-5.587 1.456-5.747 1.456-5.747l-.228.01a6.797 6.797 0 002.913-2.872 6.848 6.848 0 00-12.094-6.425 6.803 6.803 0 00-.707 4.3l-.078-.12s.402 1.78-3.775 4.374c-4.176 2.594-6.06 1.302-6.06 1.302l.12.177c-.12-.074-.235-.15-.36-.214a6.847 6.847 0 10-6.426 12.095 6.847 6.847 0 007.494-.705l-.044.088s1.52-1.252 5.902 1.101c3.46 1.856 3.973 3.676 4.039 4.36a6.841 6.841 0 003.623 6.295 6.847 6.847 0 009.26-2.834 6.847 6.847 0 00-2.833-9.26zm-7.722.9c-.554.196-2.135.413-5.464-1.372-3.605-1.936-4.14-3.553-4.218-4.038a6.746 6.746 0 00-.082-1.75l.022.033s-.293-1.573 3.832-4.135c3.692-2.291 5.37-1.835 5.682-1.716a6.794 6.794 0 001.906.902c.508.484 1.442 1.857 1.54 5.466.099 3.637-.97 5.04-1.552 5.535-.6.272-1.162.635-1.666 1.075z" fill="#0c479c" image-rendering="optimizeQuality" shape-rendering="geometricPrecision" text-rendering="geometricPrecision"/><path d="M105.405 30.009c-1.992 2.18-2.035 5.386-.114 7.2-.95-.914-.929-2.816.03-4.635.123-.164.48-.549 1.003-.373a.258.258 0 00.107.019c.118.026.24.04.364.035a1.436 1.436 0 001.371-1.5 1.416 1.416 0 00-.392-.913c1.84-1.206 3.953-1.344 4.818-.553l.033.002c-1.977-1.806-5.209-1.483-7.22.718zM85.31 50.155c-.016-.018-.033-.038-.051-.055.011.011.022.025.035.037zM85.374 42.9c-1.993 2.18-2.034 5.385-.115 7.2-.949-.914-.928-2.816.03-4.636.124-.163.482-.548 1.004-.373a.256.256 0 00.107.02c.118.025.24.04.364.034a1.436 1.436 0 001.37-1.5 1.42 1.42 0 00-.39-.912c1.84-1.206 3.952-1.345 4.817-.554l.033.003c-1.976-1.806-5.21-1.484-7.22.718zM106.516 61.069l-.052-.055c.01.011.022.026.035.037zM106.579 53.813c-1.993 2.18-2.035 5.386-.115 7.2-.95-.913-.929-2.815.03-4.635.124-.163.48-.548 1.003-.372a.261.261 0 00.108.019c.117.025.24.04.364.035a1.437 1.437 0 001.37-1.501 1.42 1.42 0 00-.391-.913c1.84-1.205 3.952-1.344 4.818-.553l.032.003c-1.976-1.806-5.209-1.484-7.22.717z" fill="#fff" image-rendering="optimizeQuality" shape-rendering="geometricPrecision" text-rendering="geometricPrecision"/><path d="M133.687 47.833h-1.068q-3.58 0-5.317 2.534-1.737 2.508-1.737 6.97v3.932q0 4.963-2.344 7.576-2.324 2.64-6.07 2.64h-3.14v-3.643h2.386q2.846 0 4.123-1.663 1.298-1.663 1.298-5.358V56.2q0-3.669 1.612-6.15 1.612-2.508 4.48-3.96v-.633q-2.868-1.452-4.48-3.934-1.612-2.507-1.612-6.177v-4.62q0-3.695-1.298-5.358-1.277-1.663-4.123-1.663h-2.387v-3.643h3.14q3.747 0 6.07 2.64 2.345 2.613 2.345 7.576v3.933q0 4.461 1.737 6.996 1.738 2.507 5.317 2.507h1.068zM66.03 47.833h1.068q3.58 0 5.317 2.534 1.737 2.508 1.737 6.97v3.932q0 4.963 2.344 7.576 2.324 2.64 6.07 2.64h3.14v-3.643H83.32q-2.847 0-4.123-1.663-1.298-1.663-1.298-5.358V56.2q0-3.669-1.612-6.15-1.612-2.508-4.48-3.96v-.633q2.868-1.452 4.48-3.934 1.612-2.507 1.612-6.177v-4.62q0-3.695 1.298-5.358 1.276-1.663 4.123-1.663h2.386v-3.643h-3.14q-3.746 0-6.07 2.64-2.344 2.613-2.344 7.576v3.933q0 4.461-1.737 6.996-1.738 2.507-5.317 2.507H66.03z" style="line-height:1.25;-inkscape-font-specification:'sans-serif, Normal';font-variant-ligatures:normal;font-variant-caps:normal;font-variant-numeric:normal;font-feature-settings:normal;text-align:start" font-weight="400" font-family="sans-serif" letter-spacing="0" word-spacing="0"/><path d="M88.806 80.023c-1.744 0-3.11.51-4.1 1.525-.992 1.01-1.48 2.39-1.48 4.135 0 1.73.488 3.103 1.48 4.123.99 1.016 2.356 1.525 4.1 1.525 1.749 0 3.12-.51 4.112-1.525.99-1.02 1.49-2.394 1.49-4.123 0-1.744-.494-3.125-1.49-4.135-.996-1.016-2.373-1.525-4.112-1.525zm-11.227.035c-1.424 0-2.592.317-3.5.959-.904.636-1.363 1.46-1.363 2.471 0 .753.202 1.385.6 1.895.404.505 1.062.905 1.976 1.2.398.132.83.237 1.282.324.456.083.885.18 1.293.277.39.093.68.218.878.393.204.17.312.374.312.612 0 .258-.078.458-.22.59a1.608 1.608 0 01-.52.323 2.698 2.698 0 01-.68.15 6.87 6.87 0 01-.67.046c-.661 0-1.349-.133-2.068-.38a6.501 6.501 0 01-1.94-1.064h-.3v2.61a12.4 12.4 0 001.87.601c.67.156 1.458.231 2.357.231 1.554 0 2.78-.327 3.684-.993.909-.67 1.363-1.542 1.363-2.61 0-.748-.202-1.359-.6-1.825-.394-.472-1.006-.837-1.837-1.11-.423-.135-.82-.245-1.19-.323-.364-.077-.745-.16-1.143-.242-.607-.126-1.017-.265-1.236-.416-.219-.155-.323-.372-.323-.658 0-.19.06-.363.196-.509.136-.15.307-.262.497-.335.213-.087.43-.144.658-.173.233-.034.471-.046.705-.046.66 0 1.297.109 1.929.347.636.233 1.18.528 1.617.877h.3v-2.495a9.69 9.69 0 00-1.814-.52 10.61 10.61 0 00-2.113-.207zm-9.772.196V86.572c-.001.442.015.8 0 1.086a2.104 2.104 0 01-.196.785c-.117.243-.313.43-.59.566-.272.136-.667.208-1.178.208-.393 0-.706-.042-.958-.115-.253-.078-.506-.155-.74-.243h-.254v2.195c.336.068.725.128 1.167.162.442.039.909.058 1.41.058.738 0 1.358-.09 1.859-.255.5-.17.927-.41 1.282-.716.335-.286.592-.638.762-1.05.17-.419.254-.865.254-1.34v-7.659zm28.726 0V91.1h2.564v-7.45l4.609 7.45h2.691V80.254h-2.564v6.214l-3.95-6.214zm19.82 0V91.1h7.832v-2.102h-5.036v-8.744zm9.507 0V91.1h3.823c.865 0 1.61-.058 2.24-.185a5.378 5.378 0 001.745-.67c.704-.427 1.294-1.04 1.756-1.836.461-.802.693-1.716.693-2.726 0-1.05-.226-1.954-.659-2.726a4.863 4.863 0 00-1.755-1.848c-.438-.272-.976-.49-1.617-.635-.642-.151-1.403-.22-2.287-.22zm-37.043 1.814c.35 0 .685.065 1.005.196.326.131.619.344.867.635.242.282.438.652.589 1.11.15.456.22 1.011.22 1.662 0 .608-.066 1.143-.197 1.594a3.244 3.244 0 01-.6 1.167c-.244.291-.53.506-.856.647a2.634 2.634 0 01-1.028.196c-.36 0-.702-.06-1.028-.196a2.253 2.253 0 01-.854-.636c-.243-.286-.439-.657-.59-1.108-.145-.457-.219-1.006-.219-1.652 0-.632.08-1.187.231-1.663.156-.481.358-.86.6-1.132.263-.292.545-.498.856-.624.315-.126.65-.196 1.004-.196zm39.838.208h.705c.602 0 1.055.027 1.351.08a3.1 3.1 0 01.878.29c.563.286.978.679 1.236 1.189.262.505.393 1.11.393 1.825 0 .719-.12 1.334-.358 1.825-.239.486-.61.863-1.12 1.155-.297.16-.602.283-.913.346-.311.059-.802.081-1.467.081h-.705zm-20.052 2.956v2.091h5.556v-2.09z" style="line-height:1.25;-inkscape-font-specification:'sans-serif, Bold';font-variant-ligatures:normal;font-variant-caps:normal;font-variant-numeric:normal;font-feature-settings:normal;text-align:start" font-weight="700" font-size="3.349" font-family="sans-serif" letter-spacing="0" word-spacing="0" fill="#fff"/></svg>