<svg xmlns="http://www.w3.org/2000/svg" version="1.2" viewBox="0 0 200 114"><text x="100.241" y="66.87" font-size="24.211" letter-spacing="-26.412" font-family="Trebuchet" fill-opacity="0" stroke-width="2.201" image-rendering="optimizeQuality" shape-rendering="geometricPrecision" text-rendering="geometricPrecision">RIF</text><path fill="#fff" image-rendering="optimizeQuality" shape-rendering="geometricPrecision" text-rendering="geometricPrecision" d="M10 40.458h102.897v33.083H10z"/><path fill="#005b9d" image-rendering="optimizeQuality" shape-rendering="geometricPrecision" text-rendering="geometricPrecision" d="M106.934 40.458H190v32.98h-83.066z"/><path d="M10 73.469v-33.01h176.09v33.01H10zm1.098-1.059h173.899V41.521H11.098z" fill="#005b9d" image-rendering="optimizeQuality" shape-rendering="geometricPrecision" text-rendering="geometricPrecision"/><path d="M67.759 43.04a1.61 1.61 0 011.604 1.618c0 .907-.71 1.626-1.611 1.626-.89 0-1.616-.72-1.616-1.626 0-.894.727-1.618 1.616-1.618zm-.014.324c-.678 0-1.223.58-1.223 1.3 0 .727.545 1.295 1.228 1.295.684.006 1.239-.568 1.239-1.294 0-.72-.555-1.301-1.24-1.301zm-.273 2.236h-.383v-1.798c.144-.022.304-.05.577-.05.308 0 .498.05.616.142.102.08.159.2.159.39 0 .215-.15.365-.344.416v.015c.157.029.258.172.287.438.037.28.072.388.1.447h-.395c-.044-.064-.073-.225-.108-.469-.029-.194-.143-.27-.34-.27h-.169zm0-1.037h.179c.224 0 .396-.072.396-.26 0-.15-.108-.266-.368-.266-.092 0-.156 0-.207.007zM65.117 44.907l.504 3.077-1.789 3.429s-.689-1.453-1.831-2.258c-.964-.68-1.594-.828-2.573-.628-1.26.262-2.688 1.768-3.31 3.625-.747 2.223-.755 3.302-.78 4.286-.041 1.587.21 2.52.21 2.52S54.46 56.946 54.467 54c.01-2.104.34-4.014 1.313-5.899.86-1.655 2.13-2.65 3.26-2.764 1.166-.121 2.09.44 2.803 1.05.749.64 1.51 2.042 1.51 2.042zM65.337 62.325s-.788 1.416-1.283 1.964c-.495.545-1.378 1.507-2.467 1.985-1.092.484-1.664.574-2.742.467-1.077-.1-2.078-.725-2.43-.987-.348-.257-1.246-1.023-1.752-1.738-.509-.716-1.301-2.144-1.301-2.144s.44 1.43.717 2.04c.159.348.65 1.42 1.34 2.349.648.87 1.905 2.364 3.813 2.703 1.908.338 3.222-.522 3.543-.727.324-.207 1.009-.779 1.442-1.243.451-.485.88-1.1 1.116-1.47.174-.271.456-.817.456-.817z" fill="#1b1b1f" image-rendering="optimizeQuality" shape-rendering="geometricPrecision" text-rendering="geometricPrecision"/><path d="M32.37 45.043l4.317 14.674 4.316-14.674h3.126l-7.145 24.112h-.297l-4.466-14.94-4.466 14.942h-.297l-7.144-24.114h3.125l4.316 14.674 2.919-9.882-1.43-4.792z" fill="#0c60ad" image-rendering="optimizeQuality" shape-rendering="geometricPrecision" text-rendering="geometricPrecision"/><path d="M53 61.414c0 2.181-.58 4.02-1.738 5.507-1.16 1.49-2.665 2.234-4.512 2.234-1.389 0-2.597-.442-3.63-1.325-1.034-.883-1.795-2.078-2.29-3.588l2.438-1.01c.357.911.83 1.631 1.415 2.155a2.97 2.97 0 002.067.79c.834 0 1.539-.464 2.115-1.4.577-.93.865-2.056.865-3.363 0-1.448-.31-2.568-.924-3.36-.713-.936-1.836-1.403-3.361-1.403h-1.19v-1.428l4.166-7.204h-5.032L41.987 50.4h-.89v-5.357h11.607V46.5l-4.407 7.594c1.55.495 2.72 1.397 3.513 2.707.795 1.312 1.19 2.848 1.19 4.613z" fill="#0c60ad" image-rendering="optimizeQuality" shape-rendering="geometricPrecision" text-rendering="geometricPrecision"/><path d="M110.16 50.142v2.273h3.984v11.157h2.713V52.415h3.975v-2.273zm12.413 0v7.165c0 1.502.09 2.639.266 3.408.122.52.376 1.017.76 1.493.385.47.908.854 1.568 1.153.665.293 1.639.44 2.921.44 1.063 0 1.924-.134 2.584-.403.66-.274 1.184-.64 1.575-1.098.397-.458.67-1.02.817-1.686.147-.666.219-1.804.219-3.417v-7.055h-2.71v7.43c0 1.063-.04 1.823-.12 2.281-.08.458-.314.846-.705 1.163-.391.312-.972.467-1.742.467-.757 0-1.356-.164-1.796-.494a2.199 2.199 0 01-.824-1.327c-.067-.342-.1-1.091-.1-2.246v-7.274zm13.587 0v13.43h2.712v-5.607h.55c.623 0 1.077.053 1.364.157.287.098.56.284.817.559.256.268.732.925 1.428 1.97l1.96 2.921h3.245l-1.642-2.618c-.647-1.045-1.163-1.772-1.548-2.181-.379-.41-.86-.786-1.446-1.128 1.179-.171 2.063-.584 2.656-1.237.592-.66.889-1.492.889-2.5 0-.794-.195-1.5-.586-2.116-.391-.617-.914-1.046-1.568-1.284-.647-.245-1.687-.366-3.123-.366zm12.588 0v2.273h3.984v11.157h2.713V52.415h3.975v-2.273zm23.903 0v13.43h10.213V61.31h-7.503v-3.654h6.743v-2.263h-6.743v-2.977h7.247v-2.273zm-11.398.11v13.32h9.455V61.31h-6.742V50.252zm-22.38 2.163h2.116c1.1 0 1.758.015 1.978.045.44.073.778.25 1.016.532.244.275.367.638.367 1.09 0 .403-.092.738-.275 1.007a1.461 1.461 0 01-.76.568c-.324.11-1.137.165-2.437.165h-2.006z" style="line-height:1.25;-inkscape-font-specification:'Arial, Bold';font-variant-ligatures:normal;font-variant-caps:normal;font-variant-numeric:normal;font-feature-settings:normal;text-align:start" font-weight="700" font-family="Arial" letter-spacing="0" word-spacing="0" fill="#fff"/><path d="M89.738 45.61c-.586-2.216-2.3-2.174-2.886 0-1.13 3.932-2.175 6.358 1.464 6.358 3.053 0 2.342-2.468 1.422-6.357z" fill="#ff0"/><path d="M88.065 53.39c-2.3 0-4.601 2.51-4.601 6.232 0 5.229 4.685 9.16 4.685 9.16s4.684-3.973 4.684-9.201c0-3.472-2.217-6.107-4.475-6.19.125 4.182 1.505 8.992 3.22 8.992-.71.711-2.551 1.087-3.388 1.087-.794 0-2.677-.334-3.346-1.003 1.673 0 3.179-4.894 3.305-9.077h-.084z" fill="#005b9d"/><path d="M80.16 69.619c-.502-.627.167-1.924 1.422-2.886 1.255-.962 2.677-1.213 3.179-.586 0 0-3.472 4.81-4.601 3.472zM96.18 69.744c.501-.627-.168-1.924-1.423-2.886-1.297-.962-2.677-1.213-3.179-.585 0 0 3.472 4.81 4.601 3.471zM80.034 53.056c1.59-.168 3.388-.084 5.396.25-1.171.252-2.175 1.674-2.76 3.89-3.096-2.258-7.446-.627-10.96 3.263-.208-3.555 2.636-6.901 8.324-7.403zM96.305 53.056c-1.59-.168-3.388-.084-5.396.25 1.171.252 2.175 1.674 2.76 3.89 3.096-2.258 7.446-.627 10.917 3.263.21-3.555-2.593-6.901-8.281-7.403z" fill="green"/></svg>