<svg xmlns="http://www.w3.org/2000/svg" viewBox="0 0 200 114" overflow="visible"><text letter-spacing="-26.237" font-size="26.237" y="66.292" x="18.366" font-family="Trebuchet" fill-opacity="0" stroke-width="2.186">W3C</text><text letter-spacing="-26.237" font-size="24.051" y="66.292" x="103.636" font-family="Trebuchet" fill-opacity="0" stroke-width="2.186">SPARQL</text><g image-rendering="optimizeQuality" shape-rendering="geometricPrecision" text-rendering="geometricPrecision"><path fill="#fff" d="M14.54 40.602h90.736v33.07H14.539z"/><path fill="#005b9d" d="M99.902 40.602h89.551v33.07H99.902z"/><path fill="none" stroke="#005b9d" stroke-width="1.09321" d="M14.54 40.602h174.913v32.796H14.54z"/><path d="M66.272 42.895c.886 0 1.594.72 1.594 1.607 0 .901-.706 1.614-1.6 1.614a1.605 1.605 0 01-1.605-1.614c0-.887.722-1.607 1.605-1.607zm-.013.322c-.673 0-1.215.577-1.215 1.294 0 .722.542 1.286 1.22 1.286.68.006 1.23-.564 1.23-1.286 0-.717-.55-1.294-1.23-1.294zm-.27 2.221h-.381v-1.784a3.05 3.05 0 01.573-.05c.306 0 .494.05.612.142.1.079.157.199.157.387 0 .214-.148.363-.34.413v.015c.154.029.255.169.283.436.038.277.072.387.1.441H66.6c-.043-.063-.072-.223-.107-.466-.03-.192-.142-.268-.336-.268h-.169zm0-1.03h.176c.223 0 .394-.072.394-.255 0-.15-.107-.265-.365-.265-.092 0-.156 0-.206.007z" fill="#241e12"/><g fill="#241e12"><path d="M63.649 44.75l.5 3.056-1.777 3.407s-.685-1.444-1.82-2.244c-.957-.675-1.582-.822-2.555-.623-1.25.26-2.67 1.756-3.289 3.603-.74 2.209-.75 3.278-.774 4.255-.041 1.577.208 2.504.208 2.504s-1.08-1.999-1.071-4.926c.009-2.088.336-3.988 1.303-5.86.855-1.644 2.116-2.632 3.238-2.746 1.159-.123 2.077.435 2.785 1.043.744.636 1.5 2.029 1.5 2.029zM63.867 62.053s-.782 1.406-1.274 1.95c-.492.542-1.37 1.498-2.451 1.972-1.085.481-1.653.57-2.725.464-1.069-.099-2.064-.72-2.413-.98-.346-.256-1.238-1.016-1.74-1.727-.506-.71-1.293-2.13-1.293-2.13s.437 1.422.713 2.027c.157.346.645 1.41 1.331 2.333.643.864 1.892 2.348 3.787 2.685 1.896.337 3.201-.518 3.52-.721.322-.206 1.002-.774 1.432-1.236.449-.48.875-1.093 1.109-1.46.173-.27.453-.811.453-.811z"/></g><g fill="#005b9d"><path d="M31.12 44.887l4.287 14.577 4.287-14.577H42.8l-7.097 23.95h-.295L30.97 53.996l-4.436 14.841h-.295l-7.1-23.95h3.105l4.288 14.577 2.9-9.817-1.42-4.76z"/><path d="M51.612 61.148c0 2.166-.577 3.992-1.727 5.47-1.152 1.48-2.648 2.22-4.482 2.22-1.38 0-2.58-.44-3.605-1.317-1.028-.877-1.785-2.064-2.277-3.564l2.423-1.003c.354.905.824 1.62 1.406 2.14a2.95 2.95 0 002.053.785c.829 0 1.528-.461 2.101-1.39.573-.925.86-2.043.86-3.341 0-1.439-.309-2.552-.919-3.339-.708-.93-1.823-1.393-3.339-1.393h-1.182V55l4.138-7.156h-4.996l-1.392 2.366h-.884v-5.322h11.53v1.445l-4.378 7.544c1.54.492 2.703 1.388 3.49 2.687.787 1.303 1.18 2.831 1.18 4.585z"/></g><g><path d="M82.727 45.209c7.703 3.474 9.382-2.928 9.382-2.928s-1.465 8.029-8.216 11.308c-1.378.667-2.233 1.026-2.233 1.026L70.597 49.22l11.063-4.535s-.266-.076 1.067.523z" fill="#87bb40"/><path fill="#ed7d22" d="M70.066 63.14V51.63L80.37 56.87V68.72z"/><path fill="#bd1b89" d="M92.997 63.14V51.63L82.692 56.87V68.72z"/></g><g fill="#fff"><path d="M105.654 60.48c1.23 1.181 2.401 1.783 3.461 1.783.82 0 1.266-.523 1.266-1.231 0-1.944-4.727-2.204-4.727-7.452 0-2.256 1.118-5.378 4.487-5.378 1.506 0 2.735.58 4.001 1.915v4.723c-1.231-1.6-2.217-2.335-3.164-2.335-.745 0-1.23.474-1.23 1.233 0 2.178 4.895 2.414 4.895 7.504 0 2.57-1.286 5.328-4.598 5.328-1.638 0-3.11-.396-4.393-1.233V60.48zM116.691 48.438h6.55c3.687 0 5.047 2.755 5.047 5.64 0 2.78-1.266 5.878-5.287 5.878h-1.862v6.376h-4.448zm5.547 8.186c1.395 0 1.955-.947 1.955-2.469 0-1.545-.54-2.387-1.972-2.387h-1.08v4.856zM132.641 48.438h4.655l5.786 17.894h-4.41l-.84-2.913h-5.729l-.84 2.913h-4.41zm4.264 11.754l-1.937-7.084-1.955 7.084zM144.664 48.438h7.242c3.424 0 4.895 2.309 4.895 5.116 0 1.887-.688 3.306-2.048 4.146.911.55 1.395 1.784 2.083 3.909l1.507 4.723h-4.373l-.8-2.65c-.932-3.07-1.638-4.828-2.85-4.828h-1.206v7.478h-4.45zm5.659 7.661c1.432 0 2.272-.842 2.272-2.414s-.783-2.361-2.178-2.361h-1.303v4.777h1.209zM171.52 71.343c-1.712-.525-5.472-2.702-7.35-4.172-3.239-2.516-4.859-5.824-4.859-9.865 0-4.327 2.03-9.104 6.997-9.104 4.876 0 7.165 4.51 7.165 9.26 0 3.307-1.098 5.876-3.275 7.663 1.506 1.102 2.754 1.836 4.226 2.44zm-5.118-9.92c1.583 0 2.624-1.574 2.624-3.988 0-2.387-1.08-3.988-2.68-3.988-1.566 0-2.59 1.6-2.59 4.043.003 2.306 1.08 3.933 2.646 3.933zM175.688 48.438h4.449v13.407h4.987v4.487h-9.436z"/></g></g></svg>