<svg xmlns="http://www.w3.org/2000/svg" viewBox="0 0 200 114"><path d="M105.409 16.91a4.068 4.068 0 00-.567 1.165c-.206.32-.327.687-.352 1.067-.56 7.273-1.162 14.69-.357 22.24l.009.082.015.082c1.062 5.823 5.075 10.823 8.566 15.577 3.491 4.753 6.36 9.203 6.36 12.874 0 .672-.253 1.235-1.125 1.998-.871.763-2.348 1.557-4.231 2.198-3.767 1.282-9.098 1.987-14.41 1.987-5.312 0-10.642-.705-14.41-1.987-1.883-.641-3.36-1.435-4.231-2.198-.872-.763-1.125-1.326-1.125-1.998 0-3.86 3.1-8.225 6.801-12.909 3.655-4.624 7.822-9.504 8.59-15.463 1.07-3.597.374-6.8.476-9.374a2.245 2.245 0 10-4.487-.178c-.133 3.367.398 6.086-.327 8.398l-.064.205-.025.214c-.471 4.155-3.957 8.696-7.685 13.414-3.73 4.718-7.77 9.67-7.77 15.693 0 2.138 1.123 4.033 2.659 5.377 1.536 1.344 3.498 2.306 5.742 3.07 4.487 1.527 10.162 2.226 15.856 2.226 5.694 0 11.369-.7 15.856-2.227 2.244-.763 4.206-1.725 5.742-3.07 1.536-1.343 2.658-3.238 2.658-5.376 0-5.756-3.698-10.722-7.231-15.532-3.513-4.783-6.96-9.47-7.752-13.651-.642-6.117-.297-12.336.174-18.663 6.154 1.684 11.768 5.251 16.356 9.833 6.663 6.652 10.404 15.757 10.404 25.163a35.436 35.436 0 01-10.404 25.078A35.55 35.55 0 01100 92.615a35.55 35.55 0 01-25.12-10.39 35.436 35.436 0 01-10.403-25.078A35.435 35.435 0 0174.88 32.07a35.5 35.5 0 016.529-5.143c0 3.58 3.603 2.394 6.47.975 8.2-2.197 4.48-5.236-.129-8.789-3.861-3.122-4.964-.946-5.584 1.925l-1.121.552c-3.4 1.827-6.76 4.325-9.54 7.1C64.004 36.18 60 46.553 60 57.147a39.919 39.919 0 0011.717 28.246A40.03 40.03 0 00100 97.09a40.031 40.031 0 0028.283-11.698A39.92 39.92 0 00140 57.147c0-10.594-4.216-20.841-11.717-28.331-5.669-5.66-12.742-9.904-20.475-11.5a2.245 2.245 0 00-1.388-.257 33.554 33.554 0 00-1.011-.15z" style="line-height:normal;font-variant-ligatures:normal;font-variant-position:normal;font-variant-caps:normal;font-variant-numeric:normal;font-variant-alternates:normal;font-feature-settings:normal;text-indent:0;text-align:start;text-decoration-line:none;text-decoration-style:solid;text-decoration-color:#000;text-transform:none;text-orientation:mixed;white-space:normal;shape-padding:0;isolation:auto;mix-blend-mode:normal;solid-color:#000;solid-opacity:1" color="#000" font-weight="400" font-family="sans-serif" overflow="visible" fill="#4d4e4c" fill-opacity=".996"/><path d="M112.213 66.389c0 3.417-6.306 4.73-13.24 4.73-6.16 0-13.067-1.913-13.067-4.73 0-3.418 2.126-7.706 13.068-7.706 9.13 0 13.24 4.888 13.24 7.706z" fill="#3999a0" fill-opacity=".996"/></svg>