<svg xmlns="http://www.w3.org/2000/svg" viewBox="0 0 200 114"><path d="M121.579 84.751c-1.1-1.387-2.632-2.105-4.45-2.105h-5.933v14.163h5.885c1.866 0 3.35-.718 4.45-2.106 1.148-1.435 1.723-3.11 1.723-4.976.047-1.914-.527-3.54-1.675-4.976zm-1.531 4.928c0 2.584-1.148 3.876-3.397 3.876h-2.201V85.9h2.2c2.25 0 3.398 1.244 3.398 3.78z" fill="#adb2b5"/><path d="M138.086 78.531h-1.675V35.47H122.92V50.3L104.019 17h18.9v14.785h13.492V17h1.675zm-47.56-21.005c0 1.866-.67 3.445-2.057 4.785-1.34 1.34-2.919 1.962-4.785 1.962-1.818 0-3.397-.622-4.784-1.962-1.34-1.292-1.962-2.919-1.962-4.785V17h13.54v40.526zm32.393 21.005H86.507c5.837-1.244 10.335-3.78 13.397-7.56 2.728-3.349 4.067-7.225 4.067-11.674V45.23zm-41.914 0H61.914V17h1.579v42.344c0 4.45 1.34 8.326 4.067 11.675 3.11 3.732 7.56 6.268 13.445 7.512z" fill="#bc4041"/><path d="M77.608 82.646h3.253v3.54h-3.253z" fill="#adb2b5"/><path d="M80.861 96.809h-3.253l-4.976-7.417v2.871c0 1.34-.575 2.44-1.675 3.397-1.053.91-2.249 1.34-3.54 1.34-1.34 0-2.537-.43-3.637-1.34-1.053-.957-1.579-2.105-1.579-3.397v-9.617h3.254v9.139c0 1.34.622 1.961 1.961 1.961 1.292 0 1.962-.622 1.962-1.961v-9.14h3.254l4.976 7.417v-3.206h3.253zm27.56-12.297c-1.435-1.435-3.11-2.201-5.072-2.201-2.01 0-3.78.718-5.215 2.201-1.435 1.435-2.105 3.158-2.105 5.167 0 2.01.717 3.78 2.105 5.216C99.569 96.33 101.34 97 103.349 97c1.962 0 3.637-.718 5.072-2.105 1.435-1.436 2.201-3.206 2.201-5.216-.048-2.01-.766-3.732-2.201-5.167zm-2.297 8.038c-.813.814-1.722 1.196-2.823 1.196-1.1 0-2.105-.382-2.87-1.196-.814-.813-1.197-1.77-1.197-2.87 0-1.053.383-2.01 1.197-2.824.813-.86 1.77-1.291 2.87-1.291 1.053 0 2.01.43 2.823 1.291.814.814 1.197 1.723 1.197 2.823 0 1.1-.383 2.106-1.197 2.871zm-10.526-.909C94.545 95.23 92.153 97 88.468 97c-1.96 0-3.683-.718-5.167-2.105-1.435-1.436-2.105-3.206-2.105-5.216 0-2.01.718-3.732 2.105-5.167 1.436-1.435 3.158-2.201 5.168-2.201 3.828 0 6.22 1.866 7.13 5.598h-3.35c-.814-1.531-2.105-2.344-3.78-2.344-1.053 0-2.01.43-2.823 1.291-.813.814-1.196 1.723-1.196 2.823 0 1.1.383 2.106 1.196 2.871.813.814 1.722 1.196 2.823 1.196 1.675 0 2.87-.717 3.636-2.105zm35.359 2.105c-.91 0-1.818-.335-2.632-1.052l9.761-4.641c-.813-3.828-3.158-5.742-7.13-5.742-2.009 0-3.779.718-5.214 2.201-1.436 1.435-2.106 3.158-2.106 5.167 0 2.01.718 3.78 2.106 5.216 1.435 1.435 3.205 2.105 5.215 2.105 3.78 0 6.172-1.77 7.13-5.359h-3.494c-.813 1.436-2.01 2.105-3.636 2.105zm-4.067-3.923c0-2.823 1.34-4.258 4.067-4.258.957 0 1.818.382 2.632 1.052z" fill="#adb2b5"/></svg>