<svg id="svg-persona-information-manager" xmlns="http://www.w3.org/2000/svg" version="1.1" viewBox="0 0 223 306" stroke-width="0.5" overflow="visible">
<defs>
<style>
:root{
--on-007f7f:#007f7f;
--on-7f4100:#7f4100;
--on-e4b992:#e4b992;
--on-f1c9a5:#f1c9a5;
}
</style>
</defs>
<g transform="matrix(1,0,0,-1,-29.786656,283.62077)">
<svg id="face">
<svg id="face-left">
<path fill="var(--on-f1c9a5)" marker-start="none" marker-end="none" d="M 111.728,57.58 C 135.658,57.58 157.838,65.115 176.023,77.94 C 171.279,109.355 167.997,123.432 158.177,131.643 C 152.738,136.268 145.332,138.577 134.373,141.767 C 131.521,142.596 126.711,143.982 124.277,144.51 L 124.278,157.903 C 132.054,162.221 138.002,170.432 140.407,180.443 C 145.044,180.721 147.083,182.158 149.096,185.514 C 150.676,188.148 151.954,192.542 150.754,195.8 C 149.682,198.711 147.022,201.832 143.663,201.832 C 142.799,201.832 141.959,201.638 141.183,201.288 C 138.882,218.286 126.521,231.276 111.728,231.276 C 96.935,231.276 84.574,218.286 82.273,201.288 C 81.497,201.638 80.657,201.832 79.793,201.832 C 76.434,201.832 73.774,198.711 72.702,195.8 C 71.502,192.542 72.78,188.148 74.36,185.514 C 76.373,182.158 78.412,180.721 83.049,180.443 C 85.454,170.432 91.402,162.221 99.178,157.903 L 99.179,144.51 C 96.745,143.982 91.935,142.596 89.083,141.767 C 78.124,138.577 70.718,136.268 65.279,131.643 C 55.459,123.432 52.177,109.355 47.433,77.94 C 65.618,65.115 87.798,57.58 111.728,57.58 Z"/>
</svg>
<svg id="face-right">
<path fill="var(--on-e4b992)" marker-start="none" marker-end="none" d="M 111.728,57.58 C 135.658,57.58 157.838,65.115 176.023,77.94 C 171.279,109.355 167.997,123.432 158.177,131.643 C 152.738,136.268 145.332,138.577 134.373,141.767 C 131.521,142.596 126.711,143.982 124.277,144.51 L 124.278,157.903 C 132.054,162.221 138.002,170.432 140.407,180.443 C 145.044,180.721 147.083,182.158 149.096,185.514 C 150.676,188.148 151.954,192.542 150.754,195.8 C 149.682,198.711 147.022,201.832 143.663,201.832 C 142.799,201.832 141.959,201.638 141.183,201.288 C 138.882,218.286 126.521,231.276 111.728,231.276 L 111.728,57.58 Z"/>
</svg>
</svg>
<svg id="female-clothing-blouse">
<path fill="var(--on-007f7f)" marker-start="none" marker-end="none" stroke="none" stroke-linejoin="miter" stroke-width="1.543" d="M 111.728,93.827 C 94.893,119.446 79.073,105.728 65.388,131.582 C 55.956,123.665 52.258,109.871 47.469,77.915 C 65.646,65.106 87.813,57.58 111.728,57.58 C 135.643,57.58 157.81,65.106 175.987,77.915 C 171.198,109.871 167.5,123.665 158.068,131.582 C 144.383,105.728 128.563,119.446 111.728,93.827 Z"/>
</svg>
<svg id="female-hair-head-full">
<path fill="var(--on-7f4100)" marker-start="none" marker-end="none" stroke="none" stroke-linejoin="miter" stroke-linecap="round" stroke-width="0.5" d="M 82.273,201.288 C 81.497,201.638 80.657,201.832 79.793,201.832 C 76.434,201.832 73.774,198.711 72.702,195.8 C 71.502,192.542 72.78,188.148 74.36,185.514 C 76.373,182.158 78.412,180.721 83.049,180.443 C 83.953,176.679 85.357,173.17 87.172,170.028 L 87.171,170.028 C 70.923,182.394 68.784,194.126 68.784,207.843 C 68.784,224.621 77.328,239.293 90.045,247.214 C 90.043,247.334 90.043,247.454 90.043,247.574 C 90.043,259.543 99.759,269.259 111.728,269.259 C 123.697,269.259 133.413,259.543 133.413,247.574 C 133.413,247.454 133.413,247.334 133.411,247.214 C 136.826,245.086 139.941,242.472 142.67,239.443 L 142.67,239.46 C 150.101,231.259 154.672,220.114 154.672,207.843 C 154.672,194.126 152.532,182.394 136.283,170.028 C 138.098,173.17 139.502,176.679 140.407,180.443 C 145.044,180.721 147.083,182.158 149.096,185.514 C 150.676,188.148 151.954,192.542 150.754,195.8 C 149.682,198.711 147.022,201.832 143.663,201.832 C 142.799,201.832 141.959,201.638 141.183,201.288 C 116.518,203.423 105.17,212.961 98.68,225.194 C 96.519,215.742 91.623,207.515 82.273,201.288 Z"/>
</svg>
</g>
</svg>