<svg id="Layer_1" data-name="Layer 1" xmlns="http://www.w3.org/2000/svg" xmlns:xlink="http://www.w3.org/1999/xlink" viewBox="0 0 120 120"><defs><style>.cls-1{fill:url(#linear-gradient);}.cls-2{fill:url(#linear-gradient-2);}.cls-3{fill:url(#linear-gradient-3);}.cls-4{fill:#fd7213;}</style><linearGradient id="linear-gradient" x1="49.27" y1="122.91" x2="69.58" y2="67.11" gradientUnits="userSpaceOnUse"><stop offset="0.39" stop-color="#0043ec"/><stop offset="0.49" stop-color="#0049ec"/><stop offset="0.61" stop-color="#0059ec"/><stop offset="0.76" stop-color="#0073ec"/><stop offset="0.91" stop-color="#0098ec"/><stop offset="1" stop-color="#00b2ec"/></linearGradient><linearGradient id="linear-gradient-2" x1="15" y1="97.57" x2="43.67" y2="18.8" gradientUnits="userSpaceOnUse"><stop offset="0.3" stop-color="#0043ec"/><stop offset="0.71" stop-color="#00acec"/><stop offset="1" stop-color="#00b2ec"/></linearGradient><linearGradient id="linear-gradient-3" x1="83.28" y1="73.39" x2="83.28" y2="0.02" gradientUnits="userSpaceOnUse"><stop offset="0.25" stop-color="#fc4f02"/><stop offset="0.43" stop-color="#fc5203"/><stop offset="0.58" stop-color="#fc5c06"/><stop offset="0.72" stop-color="#fb6d0a"/><stop offset="0.85" stop-color="#fa8511"/><stop offset="0.98" stop-color="#f9a319"/><stop offset="1" stop-color="#f9aa1b"/></linearGradient></defs><path class="cls-1" d="M58.79,106,45.54,92.76,62.18,76.11l-4.37-12L20.06,101.86l4.37,12L37.34,101l17.35,17.33A5.76,5.76,0,0,0,61,119.53a5.66,5.66,0,0,0,1.84-1.25L102.13,79,90.19,74.61Z"/><path class="cls-2" d="M54.08,53.84l-1.64-4.56L27.25,74.48,14,61.2,45.34,29.84l-.65-1.79h0l-.28-.81h0L41,17.81,3.21,55.59h0L1.69,57.11l-.1.11a5.79,5.79,0,0,0,.1,8.07L19.07,82.68l-4.4,4.4L19,99l.06,0L56.8,61.32Z"/><path class="cls-3" d="M114.44,0H61.16l-2,.39a5.8,5.8,0,0,0-2,1.31L46.55,12.26l4.37,12L63.57,11.6H108.4V56.38L95.76,69l12,4.37L118.3,62.85a5.65,5.65,0,0,0,1.34-2.06,6.11,6.11,0,0,0,.36-2V5.48A5.75,5.75,0,0,0,114.5,0Z"/><circle class="cls-4" cx="85.33" cy="34.87" r="6.08"/></svg>