<svg id="Layer_1" data-name="Layer 1" xmlns="http://www.w3.org/2000/svg" xmlns:xlink="http://www.w3.org/1999/xlink" viewBox="0 0 152 152"><defs><style>.cls-1{fill:url(#linear-gradient);}.cls-2{fill:url(#linear-gradient-2);}.cls-3{fill:url(#linear-gradient-3);}.cls-4{fill:#fd7213;}</style><linearGradient id="linear-gradient" x1="62.41" y1="155.69" x2="88.13" y2="85" gradientUnits="userSpaceOnUse"><stop offset="0.39" stop-color="#0043ec"/><stop offset="0.49" stop-color="#0049ec"/><stop offset="0.61" stop-color="#0059ec"/><stop offset="0.76" stop-color="#0073ec"/><stop offset="0.91" stop-color="#0098ec"/><stop offset="1" stop-color="#00b2ec"/></linearGradient><linearGradient id="linear-gradient-2" x1="19" y1="123.59" x2="55.32" y2="23.81" gradientUnits="userSpaceOnUse"><stop offset="0.3" stop-color="#0043ec"/><stop offset="0.71" stop-color="#00acec"/><stop offset="1" stop-color="#00b2ec"/></linearGradient><linearGradient id="linear-gradient-3" x1="105.48" y1="92.96" x2="105.48" y2="0.03" gradientUnits="userSpaceOnUse"><stop offset="0.25" stop-color="#fc4f02"/><stop offset="0.43" stop-color="#fc5203"/><stop offset="0.58" stop-color="#fc5c06"/><stop offset="0.72" stop-color="#fb6d0a"/><stop offset="0.85" stop-color="#fa8511"/><stop offset="0.98" stop-color="#f9a319"/><stop offset="1" stop-color="#f9aa1b"/></linearGradient></defs><path class="cls-1" d="M74.46,134.28,57.68,117.49,78.76,96.41,73.23,81.19,25.4,129l5.54,15.21L47.3,127.87l22,21.95a7.29,7.29,0,0,0,8,1.59,7.6,7.6,0,0,0,2.33-1.59l49.76-49.77L114.24,94.5Z"/><path class="cls-2" d="M68.51,68.2l-2.09-5.78L34.52,94.35,17.7,77.52,57.44,37.8l-.83-2.27h0l-.36-1h0L51.9,22.56,4.07,70.41h0L2.14,72.34,2,72.47a7.35,7.35,0,0,0,.12,10.24l22,22-5.57,5.58,5.5,15.09.07.08L72,77.67Z"/><path class="cls-3" d="M145,0H77.48L74.9.52a7.31,7.31,0,0,0-2.58,1.65L59,15.52,64.5,30.73l16-16H137.3V71.42l-16,16L136.5,93l13.35-13.35A7.26,7.26,0,0,0,151.54,77a7.49,7.49,0,0,0,.46-2.57V6.94A7.27,7.27,0,0,0,145,0Z"/><circle class="cls-4" cx="108.09" cy="44.17" r="7.7"/></svg>