<svg id="Layer_1" data-name="Layer 1" xmlns="http://www.w3.org/2000/svg" xmlns:xlink="http://www.w3.org/1999/xlink" viewBox="0 0 16 16"><defs><style>.cls-1{fill:url(#linear-gradient);}.cls-2{fill:url(#linear-gradient-2);}.cls-3{fill:url(#linear-gradient-3);}.cls-4{fill:#fd7213;}</style><linearGradient id="linear-gradient" x1="6.57" y1="16.39" x2="9.28" y2="8.95" gradientUnits="userSpaceOnUse"><stop offset="0.39" stop-color="#0043ec"/><stop offset="0.49" stop-color="#0049ec"/><stop offset="0.61" stop-color="#0059ec"/><stop offset="0.76" stop-color="#0073ec"/><stop offset="0.91" stop-color="#0098ec"/><stop offset="1" stop-color="#00b2ec"/></linearGradient><linearGradient id="linear-gradient-2" x1="2" y1="13.01" x2="5.82" y2="2.51" gradientUnits="userSpaceOnUse"><stop offset="0.3" stop-color="#0043ec"/><stop offset="0.71" stop-color="#00acec"/><stop offset="1" stop-color="#00b2ec"/></linearGradient><linearGradient id="linear-gradient-3" x1="11.1" y1="9.79" x2="11.1" gradientUnits="userSpaceOnUse"><stop offset="0.25" stop-color="#fc4f02"/><stop offset="0.43" stop-color="#fc5203"/><stop offset="0.58" stop-color="#fc5c06"/><stop offset="0.72" stop-color="#fb6d0a"/><stop offset="0.85" stop-color="#fa8511"/><stop offset="0.98" stop-color="#f9a319"/><stop offset="1" stop-color="#f9aa1b"/></linearGradient></defs><path class="cls-1" d="M7.84,14.13,6.07,12.37l2.22-2.22-.58-1.6-5,5,.59,1.6L5,13.46l2.31,2.31a.77.77,0,0,0,.84.17.74.74,0,0,0,.25-.17l5.24-5.24L12,10Z"/><path class="cls-2" d="M7.21,7.18,7,6.57,3.63,9.93,1.86,8.16,6.05,4,6,3.74H6l0-.11h0L5.46,2.38l-5,5h0l-.21.2v0a.78.78,0,0,0,0,1.08L2.54,11,2,11.61l.57,1.59h0l5-5Z"/><path class="cls-3" d="M15.26,0H8.16L7.88.06a.65.65,0,0,0-.27.17l-1.4,1.4.58,1.61L8.48,1.55h6v6L12.77,9.2l1.6.59,1.4-1.41A.8.8,0,0,0,16,8.11.87.87,0,0,0,16,7.83V.73A.78.78,0,0,0,15.27,0Z"/><circle class="cls-4" cx="11.38" cy="4.65" r="0.81"/></svg>