<svg id="Layer_1" data-name="Layer 1" xmlns="http://www.w3.org/2000/svg" xmlns:xlink="http://www.w3.org/1999/xlink" viewBox="0 0 192 192"><defs><style>.cls-1{fill:url(#linear-gradient);}.cls-2{fill:url(#linear-gradient-2);}.cls-3{fill:url(#linear-gradient-3);}.cls-4{fill:#fd7213;}</style><linearGradient id="linear-gradient" x1="78.83" y1="196.66" x2="111.33" y2="107.37" gradientUnits="userSpaceOnUse"><stop offset="0.39" stop-color="#0043ec"/><stop offset="0.49" stop-color="#0049ec"/><stop offset="0.61" stop-color="#0059ec"/><stop offset="0.76" stop-color="#0073ec"/><stop offset="0.91" stop-color="#0098ec"/><stop offset="1" stop-color="#00b2ec"/></linearGradient><linearGradient id="linear-gradient-2" x1="24" y1="156.12" x2="69.88" y2="30.07" gradientUnits="userSpaceOnUse"><stop offset="0.3" stop-color="#0043ec"/><stop offset="0.71" stop-color="#00acec"/><stop offset="1" stop-color="#00b2ec"/></linearGradient><linearGradient id="linear-gradient-3" x1="133.24" y1="117.43" x2="133.24" y2="0.03" gradientUnits="userSpaceOnUse"><stop offset="0.25" stop-color="#fc4f02"/><stop offset="0.43" stop-color="#fc5203"/><stop offset="0.58" stop-color="#fc5c06"/><stop offset="0.72" stop-color="#fb6d0a"/><stop offset="0.85" stop-color="#fa8511"/><stop offset="0.98" stop-color="#f9a319"/><stop offset="1" stop-color="#f9aa1b"/></linearGradient></defs><path class="cls-1" d="M94.06,169.62l-21.2-21.21,26.63-26.63-7-19.23L32.09,163l7,19.21,20.67-20.67L87.5,189.24a9.2,9.2,0,0,0,10.1,2,9,9,0,0,0,3-2l62.86-62.86-19.11-7Z"/><path class="cls-2" d="M86.53,86.15l-2.63-7.3L43.6,119.17,22.35,97.92l50.2-50.18-1-2.86h0l-.46-1.29h0L65.56,28.5,5.14,88.94h0L2.7,91.38l-.15.17a9.26,9.26,0,0,0,.15,12.92l27.81,27.81-7,7,7,19.07.09.1L90.89,98.11Z"/><path class="cls-3" d="M183.11,0H97.86L94.61.66a9.29,9.29,0,0,0-3.26,2.09L74.48,19.61l7,19.21,20.24-20.25h71.72V90.21l-20.22,20.23,19.21,7,16.87-16.87a9.29,9.29,0,0,0,2.13-3.29A9.56,9.56,0,0,0,192,94V8.77A9.2,9.2,0,0,0,183.2,0Z"/><circle class="cls-4" cx="136.53" cy="55.79" r="9.72"/></svg>