<svg id="Layer_1" data-name="Layer 1" xmlns="http://www.w3.org/2000/svg" xmlns:xlink="http://www.w3.org/1999/xlink" viewBox="0 0 60 60"><defs><style>.cls-1{fill:url(#linear-gradient);}.cls-2{fill:url(#linear-gradient-2);}.cls-3{fill:url(#linear-gradient-3);}.cls-4{fill:#fd7213;}</style><linearGradient id="linear-gradient" x1="24.63" y1="61.45" x2="34.79" y2="33.55" gradientUnits="userSpaceOnUse"><stop offset="0.39" stop-color="#0043ec"/><stop offset="0.49" stop-color="#0049ec"/><stop offset="0.61" stop-color="#0059ec"/><stop offset="0.76" stop-color="#0073ec"/><stop offset="0.91" stop-color="#0098ec"/><stop offset="1" stop-color="#00b2ec"/></linearGradient><linearGradient id="linear-gradient-2" x1="7.5" y1="48.79" x2="21.84" y2="9.4" gradientUnits="userSpaceOnUse"><stop offset="0.3" stop-color="#0043ec"/><stop offset="0.71" stop-color="#00acec"/><stop offset="1" stop-color="#00b2ec"/></linearGradient><linearGradient id="linear-gradient-3" x1="41.64" y1="36.7" x2="41.64" y2="0.01" gradientUnits="userSpaceOnUse"><stop offset="0.25" stop-color="#fc4f02"/><stop offset="0.43" stop-color="#fc5203"/><stop offset="0.58" stop-color="#fc5c06"/><stop offset="0.72" stop-color="#fb6d0a"/><stop offset="0.85" stop-color="#fa8511"/><stop offset="0.98" stop-color="#f9a319"/><stop offset="1" stop-color="#f9aa1b"/></linearGradient></defs><path class="cls-1" d="M29.39,53l-6.62-6.62,8.32-8.32-2.18-6L10,50.93l2.18,6,6.46-6.45,8.67,8.66a2.9,2.9,0,0,0,3.16.63,3,3,0,0,0,.92-.63L51.06,39.49l-6-2.19Z"/><path class="cls-2" d="M27,26.92l-.82-2.28L13.63,37.24,7,30.6,22.67,14.92l-.32-.9h0l-.15-.4h0L20.49,8.91,1.61,27.79h0l-.77.77,0,.05a2.9,2.9,0,0,0,0,4l8.69,8.69-2.19,2.2,2.17,6,0,0L28.4,30.66Z"/><path class="cls-3" d="M57.22,0H30.58l-1,.2a2.74,2.74,0,0,0-1,.65L23.28,6.13l2.18,6L31.78,5.8H54.2V28.19l-6.32,6.32,6,2.19,5.27-5.27a3,3,0,0,0,.67-1,3,3,0,0,0,.18-1V2.74A2.88,2.88,0,0,0,57.25,0Z"/><circle class="cls-4" cx="42.67" cy="17.44" r="3.04"/></svg>