<svg id="Layer_1" data-name="Layer 1" xmlns="http://www.w3.org/2000/svg" xmlns:xlink="http://www.w3.org/1999/xlink" viewBox="0 0 72 72"><defs><style>.cls-1{fill:url(#linear-gradient);}.cls-2{fill:url(#linear-gradient-2);}.cls-3{fill:url(#linear-gradient-3);}.cls-4{fill:#fd7213;}</style><linearGradient id="linear-gradient" x1="29.56" y1="73.75" x2="41.75" y2="40.26" gradientUnits="userSpaceOnUse"><stop offset="0.39" stop-color="#0043ec"/><stop offset="0.49" stop-color="#0049ec"/><stop offset="0.61" stop-color="#0059ec"/><stop offset="0.76" stop-color="#0073ec"/><stop offset="0.91" stop-color="#0098ec"/><stop offset="1" stop-color="#00b2ec"/></linearGradient><linearGradient id="linear-gradient-2" x1="9" y1="58.54" x2="26.2" y2="11.28" gradientUnits="userSpaceOnUse"><stop offset="0.3" stop-color="#0043ec"/><stop offset="0.71" stop-color="#00acec"/><stop offset="1" stop-color="#00b2ec"/></linearGradient><linearGradient id="linear-gradient-3" x1="49.97" y1="44.03" x2="49.97" y2="0.01" gradientUnits="userSpaceOnUse"><stop offset="0.25" stop-color="#fc4f02"/><stop offset="0.43" stop-color="#fc5203"/><stop offset="0.58" stop-color="#fc5c06"/><stop offset="0.72" stop-color="#fb6d0a"/><stop offset="0.85" stop-color="#fa8511"/><stop offset="0.98" stop-color="#f9a319"/><stop offset="1" stop-color="#f9aa1b"/></linearGradient></defs><path class="cls-1" d="M35.27,63.61l-8-8,10-10-2.62-7.21L12,61.12l2.63,7.2,7.75-7.75L32.81,71a3.43,3.43,0,0,0,4.89,0L61.28,47.39l-7.17-2.62Z"/><path class="cls-2" d="M32.45,32.31l-1-2.74L16.35,44.69l-8-8L27.21,17.9l-.39-1.07h0l-.18-.48h0l-2.06-5.66L1.93,33.35h0L1,34.27,1,34.33A3.49,3.49,0,0,0,1,39.18L11.44,49.61,8.8,52.25l2.61,7.15,0,0L34.08,36.79Z"/><path class="cls-3" d="M68.67,0h-32L35.48.25A3.27,3.27,0,0,0,34.26,1L27.93,7.35l2.62,7.21L38.14,7H65V33.83l-7.59,7.58L64.66,44,71,37.71a3.4,3.4,0,0,0,.8-1.24A3.59,3.59,0,0,0,72,35.26v-32A3.46,3.46,0,0,0,68.7,0Z"/><circle class="cls-4" cx="51.2" cy="20.92" r="3.65"/></svg>