<svg id="Layer_1" data-name="Layer 1" xmlns="http://www.w3.org/2000/svg" xmlns:xlink="http://www.w3.org/1999/xlink" viewBox="0 0 96 96"><defs><style>.cls-1{fill:url(#linear-gradient);}.cls-2{fill:url(#linear-gradient-2);}.cls-3{fill:url(#linear-gradient-3);}.cls-4{fill:#fd7213;}</style><linearGradient id="linear-gradient" x1="39.42" y1="98.33" x2="55.66" y2="53.69" gradientUnits="userSpaceOnUse"><stop offset="0.39" stop-color="#0043ec"/><stop offset="0.49" stop-color="#0049ec"/><stop offset="0.61" stop-color="#0059ec"/><stop offset="0.76" stop-color="#0073ec"/><stop offset="0.91" stop-color="#0098ec"/><stop offset="1" stop-color="#00b2ec"/></linearGradient><linearGradient id="linear-gradient-2" x1="12" y1="78.06" x2="34.94" y2="15.04" gradientUnits="userSpaceOnUse"><stop offset="0.3" stop-color="#0043ec"/><stop offset="0.71" stop-color="#00acec"/><stop offset="1" stop-color="#00b2ec"/></linearGradient><linearGradient id="linear-gradient-3" x1="66.62" y1="58.71" x2="66.62" y2="0.02" gradientUnits="userSpaceOnUse"><stop offset="0.25" stop-color="#fc4f02"/><stop offset="0.43" stop-color="#fc5203"/><stop offset="0.58" stop-color="#fc5c06"/><stop offset="0.72" stop-color="#fb6d0a"/><stop offset="0.85" stop-color="#fa8511"/><stop offset="0.98" stop-color="#f9a319"/><stop offset="1" stop-color="#f9aa1b"/></linearGradient></defs><path class="cls-1" d="M47,84.81l-10.6-10.6L49.74,60.89l-3.49-9.61L16.05,81.49l3.49,9.6L29.87,80.76,43.75,94.62a4.6,4.6,0,0,0,5,1,4.46,4.46,0,0,0,1.47-1L81.7,63.19l-9.55-3.5Z"/><path class="cls-2" d="M43.27,43.07,42,39.43,21.8,59.59,11.18,49l25.1-25.09-.53-1.43h0l-.23-.65h0l-2.74-7.54L2.57,44.47h0L1.35,45.69l-.08.08a4.65,4.65,0,0,0,.08,6.47l13.91,13.9-3.52,3.52,3.47,9.54,0,0L45.44,49.05Z"/><path class="cls-3" d="M91.55,0H48.93L47.31.33a4.63,4.63,0,0,0-1.64,1L37.24,9.81l3.5,9.6L50.86,9.28H86.72V45.11L76.61,55.22l9.6,3.49,8.43-8.43a4.61,4.61,0,0,0,1.07-1.65A4.73,4.73,0,0,0,96,47V4.39A4.6,4.6,0,0,0,91.6,0Z"/><circle class="cls-4" cx="68.26" cy="27.9" r="4.86"/></svg>