<svg id="Layer_1" data-name="Layer 1" xmlns="http://www.w3.org/2000/svg" xmlns:xlink="http://www.w3.org/1999/xlink" viewBox="0 0 120 46.15"><defs><style>.cls-1{font-size:16.74px;font-family:Roboto;font-weight:700;letter-spacing:-0.05em;}.cls-1,.cls-3{fill:#1d2741;}.cls-2,.cls-4{fill:#47a025;}.cls-2{letter-spacing:-0.05em;}.cls-5{fill:url(#linear-gradient);}.cls-6{fill:url(#linear-gradient-2);}.cls-7{fill:url(#linear-gradient-3);}</style>
<linearGradient id="linear-gradient" x1="21.89" y1="28.94" x2="21.89" y2="36.15" gradientUnits="userSpaceOnUse"><stop offset="0" stop-color="#8cd73f"/><stop offset="0.23" stop-color="#7ac838"/><stop offset="0.7" stop-color="#4aa226"/><stop offset="0.72" stop-color="#47a025"/></linearGradient><linearGradient id="linear-gradient-2" x1="27.24" y1="21.34" x2="32.32" y2="16.43" gradientUnits="userSpaceOnUse"><stop offset="0" stop-color="#8cd73f"/><stop offset="0.28" stop-color="#77c637"/><stop offset="0.8" stop-color="#47a025"/></linearGradient><linearGradient id="linear-gradient-3" x1="12.15" y1="16.67" x2="16.59" y2="21.97" gradientUnits="userSpaceOnUse"><stop offset="0" stop-color="#47a025"/><stop offset="0.19" stop-color="#4aa226"/><stop offset="0.3" stop-color="#52a929"/><stop offset="0.4" stop-color="#60b42f"/><stop offset="0.48" stop-color="#74c436"/><stop offset="0.55" stop-color="#8cd73f"/></linearGradient></defs><text class="cls-1" transform="translate(36.14 29.31)">Graph<tspan class="cls-2" x="46.15" y="0">Kits</tspan></text><path class="cls-3" d="M23.8,23.14a1.93,1.93,0,1,0-1.91,2.23,1.87,1.87,0,0,0,.71-.13,1.93,1.93,0,0,0,1.23-1.8A1.45,1.45,0,0,0,23.8,23.14Zm-1.91-.4a.7.7,0,1,1-.69.69A.69.69,0,0,1,21.89,22.74Z"/><path class="cls-4" d="M23.8,23.14l-1.3-.75a1.21,1.21,0,1,0-1.21,2.09l1.31.76,6.13,3.54A2.49,2.49,0,0,1,30,26.69Zm-1.91,1a.7.7,0,1,1,.7-.7A.69.69,0,0,1,21.89,24.13Z"/><path class="cls-4" d="M14.35,17.69l-1.21.69V27a2.5,2.5,0,0,0-2.41,0V17.68a1,1,0,0,1,0-.17s0-.08,0-.12a0,0,0,0,0,0,0s0-.08,0-.12a0,0,0,0,0,0,0,.91.91,0,0,1,.07-.14A.83.83,0,0,1,11,17l.06-.08.08-.08a.85.85,0,0,1,.19-.14l0,0L19.4,12a2.51,2.51,0,0,0,1.21,2.09Z"/><path class="cls-4" d="M32.9,18.29a.22.22,0,0,1,0,.08l0,.06-.11.12-.07.07-.08.06-.09.05a1.21,1.21,0,0,1-1.21,0h0l-1.81-1-6.26-3.62a2.8,2.8,0,0,0,.48-.37A2.47,2.47,0,0,0,24.39,12l8.07,4.66.11.08.08.05a.08.08,0,0,0,0,0l.05.06a.08.08,0,0,1,0,0l0,.05.06.1a0,0,0,0,1,0,0v0a.39.39,0,0,1,.06.11,0,0,0,0,0,0,0,.56.56,0,0,1,0,.12s0,.06,0,.08,0,.08,0,.11v.1h0v0a.41.41,0,0,1,0,.11.28.28,0,0,1,0,.09v0S33,18,33,18h0a.56.56,0,0,1,0,.12A.61.61,0,0,1,32.9,18.29Z"/><path class="cls-4" d="M30.68,31.26,22.51,36,22.4,36l-.08,0a1.49,1.49,0,0,1-.43.08,1.4,1.4,0,0,1-.46-.1L21.29,36l-8.07-4.66a2.47,2.47,0,0,0,1.21-2.09l7.46,4.31,1.21-.7,5.74-3.31A2.43,2.43,0,0,0,30,31,2.63,2.63,0,0,0,30.68,31.26Z"/><path class="cls-5" d="M21.89,28.94a1.21,1.21,0,0,0-1.2,1.21v4.78a1.21,1.21,0,0,0,.6,1l.14.07h0l.11,0,.09,0h.11l.15,0a1.14,1.14,0,0,0,.33,0l.1,0a.13.13,0,0,0,.08,0l.11-.05h0a1.21,1.21,0,0,0,.58-1V30.15A1.21,1.21,0,0,0,21.89,28.94Zm0,.51a.7.7,0,0,1,0,1.4.7.7,0,0,1,0-1.4Z"/><path class="cls-6" d="M33.06,17.56v0h0a.06.06,0,0,0,0,0v0a.19.19,0,0,0,0-.07.14.14,0,0,0,0-.07.88.88,0,0,0,0-.15.56.56,0,0,1-.05-.08.08.08,0,0,1,0,0s0-.05-.06-.07l0-.06-.06-.07h0s0,0,0,0h0a.34.34,0,0,0-.09-.08h0l0,0-.08-.06,0,0a1.18,1.18,0,0,0-1.18,0l-1.81,1.05L27.1,19a1.23,1.23,0,0,0-.44,1.66,1.32,1.32,0,0,0,.44.44,1.23,1.23,0,0,0,1.22,0l4.14-2.4a.41.41,0,0,0,.11-.07l.07-.05.06-.06,0,0,.08-.09s0,0,0,0l0-.05a.25.25,0,0,0,0-.07h0l0-.09h0a.14.14,0,0,0,0-.06L33,18v0a.29.29,0,0,0,0-.09h0a.13.13,0,0,0,0-.06.76.76,0,0,0,0-.15v-.13Zm-5,3.12a.69.69,0,0,1-.95-.25.7.7,0,0,1,.25-.95.69.69,0,1,1,.7,1.2Z"/><path class="cls-7" d="M16.68,19l-2.33-1.34-1.81-1.05a1.2,1.2,0,0,0-1.24,0l-.09.06h0l-.1.09a.46.46,0,0,1-.07.07L11,17h0a.83.83,0,0,0-.08.12.91.91,0,0,0-.07.14h0a.14.14,0,0,0,0,.06v0a.19.19,0,0,0,0,.07v0s0,.07,0,.11a.22.22,0,0,0,0,.08v.1a1.19,1.19,0,0,0,.6,1l1.82,1.05,2.32,1.35A1.21,1.21,0,1,0,16.68,19Zm0,1.4a.69.69,0,0,1-1.2-.7.69.69,0,1,1,1.2.7Z"/><ellipse class="cls-3" cx="31.22" cy="28.83" rx="1.92" ry="1.94" transform="translate(-11.24 30.49) rotate(-44.96)"/><circle class="cls-3" cx="21.89" cy="11.94" r="1.94"/><ellipse class="cls-3" cx="11.94" cy="29.19" rx="1.92" ry="1.94" transform="translate(-17.15 17.01) rotate(-45.04)"/></svg>