<svg id="Layer_1" data-name="Layer 1" xmlns="http://www.w3.org/2000/svg" xmlns:xlink="http://www.w3.org/1999/xlink" viewBox="0 0 50 50"><defs><style>.cls-1{fill:#f2f2f2;}.cls-2{fill:#ccc;}.cls-3{clip-path:url(#clip-path);}.cls-4{clip-path:url(#clip-path-2);}.cls-5{clip-path:url(#clip-path-3);}</style><clipPath id="clip-path"><path class="cls-1" d="M25.48,34a1.85,1.85,0,0,0-1.85,1.85v7.32a1.84,1.84,0,0,0,.93,1.6l.21.1h0a.49.49,0,0,0,.17.06l.14,0a.47.47,0,0,0,.17,0,.86.86,0,0,0,.23,0,1.68,1.68,0,0,0,.5-.07l.16,0,.11-.05.18-.09a0,0,0,0,0,0,0,1.83,1.83,0,0,0,.89-1.58V35.83A1.85,1.85,0,0,0,25.48,34Zm0,.78a1.07,1.07,0,1,1-1.07,1.07A1.07,1.07,0,0,1,25.48,34.76Z"/></clipPath><clipPath id="clip-path-2"><path class="cls-1" d="M42.56,16.57v-.05h0s0-.05,0-.07,0,0,0,0a.27.27,0,0,0,0-.12.22.22,0,0,0,0-.1,1.43,1.43,0,0,0-.08-.22.75.75,0,0,0-.07-.12.15.15,0,0,0,0-.06.42.42,0,0,0-.08-.12l-.07-.09a.41.41,0,0,0-.09-.1h0l0,0h0a.75.75,0,0,0-.14-.12h0l0,0-.13-.08-.07,0a1.83,1.83,0,0,0-1.81,0L37,16.76l-3.57,2.06a1.85,1.85,0,0,0-.67,2.53,1.8,1.8,0,0,0,.67.67,1.85,1.85,0,0,0,1.86,0l6.34-3.66a.66.66,0,0,0,.17-.12l.1-.07a.38.38,0,0,0,.09-.09.12.12,0,0,0,.05,0,.53.53,0,0,0,.12-.14l0,0,.06-.09.06-.09s0,0,0,0,.05-.09.07-.14a0,0,0,0,1,0,0,.32.32,0,0,0,0-.09.69.69,0,0,0,.05-.13v-.05a.32.32,0,0,0,0-.14h0a.29.29,0,0,0,0-.09,2,2,0,0,0,0-.23v0C42.57,16.68,42.56,16.63,42.56,16.57Zm-7.65,4.77a1.06,1.06,0,1,1,.39-1.45A1,1,0,0,1,34.91,21.34Z"/></clipPath><clipPath id="clip-path-3"><path class="cls-1" d="M17.51,18.82l-3.57-2.06-2.77-1.6a1.85,1.85,0,0,0-1.89,0l-.15.1h0L9,15.43l-.09.1-.09.1v0a1.27,1.27,0,0,0-.13.19l-.1.2a0,0,0,0,1,0,0l0,.1s0,0,0,0a.29.29,0,0,0,0,.1,0,0,0,0,0,0,0,1,1,0,0,0,0,.17.52.52,0,0,0,0,.11v.16a1.82,1.82,0,0,0,.92,1.6L12.1,20,15.66,22a1.85,1.85,0,1,0,1.85-3.2Zm0,2.13a1.07,1.07,0,0,1-1.85-1.06,1.08,1.08,0,0,1,1.46-.4A1.07,1.07,0,0,1,17.51,21Z"/></clipPath></defs><path class="cls-2" d="M28.4,25.1a3,3,0,1,0-2.92,3.42,2.81,2.81,0,0,0,1.08-.21,3,3,0,0,0,1.88-2.75A2.32,2.32,0,0,0,28.4,25.1Zm-2.92-.61a1.07,1.07,0,1,1-1.07,1.06A1.06,1.06,0,0,1,25.48,24.49Z"/><path class="cls-1" d="M28.4,25.1l-2-1.15a1.85,1.85,0,0,0-1.85,3.21l2,1.15L36,33.73a3.78,3.78,0,0,1,1.85-3.2Zm-2.92,1.52a1.07,1.07,0,1,1,1.07-1.07A1.07,1.07,0,0,1,25.48,26.62Z"/><path class="cls-1" d="M13.94,16.76l-1.85,1.07V31a3.81,3.81,0,0,0-3.7,0V16.76a2.48,2.48,0,0,1,0-.27l0-.18,0,0a.64.64,0,0,1,.06-.18v0a1.36,1.36,0,0,1,.1-.21,1.27,1.27,0,0,1,.13-.19l.09-.12L9,15.4a1.58,1.58,0,0,1,.29-.22l0,0L21.67,8a3.81,3.81,0,0,0,1.85,3.21Z"/><path class="cls-1" d="M42.32,17.69l-.07.12-.07.08a.77.77,0,0,1-.17.19,1.14,1.14,0,0,1-.11.11l-.12.09-.14.08a1.81,1.81,0,0,1-1.84,0h0L37,16.76l-9.58-5.53a3.74,3.74,0,0,0,.74-.57A3.8,3.8,0,0,0,29.3,8l12.35,7.14.17.11.11.09.06.06.09.09a.15.15,0,0,1,.05.06s0,0,.06.07l.1.15,0,0,0,.05a.8.8,0,0,1,.08.16.05.05,0,0,0,0,0c0,.07.05.13.07.2s0,.08,0,.12a.51.51,0,0,1,0,.17c0,.05,0,.1,0,.15v.1a.47.47,0,0,1,0,.16.3.3,0,0,1,0,.13v0l0,.13h0l-.06.18A1.51,1.51,0,0,1,42.32,17.69Z"/><path class="cls-1" d="M38.92,37.52,26.43,44.74l-.17.09-.13.05a1.75,1.75,0,0,1-.65.12,1.71,1.71,0,0,1-.71-.15,1,1,0,0,1-.21-.1L12.21,37.62a3.79,3.79,0,0,0,1.85-3.2L25.48,41l1.85-1.07,8.77-5.06a3.8,3.8,0,0,0,1.75,2.22A3.61,3.61,0,0,0,38.92,37.52Z"/><path class="cls-1" d="M25.48,34a1.85,1.85,0,0,0-1.85,1.85v7.32a1.84,1.84,0,0,0,.93,1.6l.21.1h0a.49.49,0,0,0,.17.06l.14,0a.47.47,0,0,0,.17,0,.86.86,0,0,0,.23,0,1.68,1.68,0,0,0,.5-.07l.16,0,.11-.05.18-.09a0,0,0,0,0,0,0,1.83,1.83,0,0,0,.89-1.58V35.83A1.85,1.85,0,0,0,25.48,34Zm0,.78a1.07,1.07,0,1,1-1.07,1.07A1.07,1.07,0,0,1,25.48,34.76Z"/><g class="cls-3"><rect class="cls-1" x="24.41" y="34.76" width="2.13" height="0.02"/><rect class="cls-1" x="24.41" y="34.79" width="2.13" height="0.12"/><rect class="cls-1" x="24.41" y="34.9" width="2.13" height="0.12"/><rect class="cls-1" x="24.41" y="35.02" width="2.13" height="0.12"/><rect class="cls-1" x="24.41" y="35.13" width="2.13" height="0.12"/><rect class="cls-1" x="24.41" y="35.25" width="2.13" height="0.12"/><rect class="cls-1" x="24.41" y="35.36" width="2.13" height="0.12"/><rect class="cls-1" x="24.41" y="35.48" width="2.13" height="0.12"/><rect class="cls-1" x="24.41" y="35.6" width="2.13" height="0.12"/><rect class="cls-1" x="24.41" y="35.71" width="2.13" height="0.12"/><rect class="cls-1" x="24.41" y="35.83" width="2.13" height="0.12"/><rect class="cls-1" x="24.41" y="35.94" width="2.13" height="0.12"/><rect class="cls-1" x="24.41" y="36.06" width="2.13" height="0.12"/><rect class="cls-1" x="24.41" y="36.17" width="2.13" height="0.12"/><rect class="cls-1" x="24.41" y="36.29" width="2.13" height="0.12"/><rect class="cls-1" x="24.41" y="36.41" width="2.13" height="0.12"/><rect class="cls-1" x="24.41" y="36.52" width="2.13" height="0.12"/><rect class="cls-1" x="24.41" y="36.64" width="2.13" height="0.12"/><rect class="cls-1" x="24.41" y="36.75" width="2.13" height="0.12"/><rect class="cls-1" x="24.41" y="36.87" width="2.13" height="0.03"/><rect class="cls-1" x="23.63" y="33.98" width="3.7" height="0.12"/><rect class="cls-1" x="23.63" y="34.09" width="3.7" height="0.12"/><rect class="cls-1" x="23.63" y="34.21" width="3.7" height="0.12"/><rect class="cls-1" x="23.63" y="34.32" width="3.7" height="0.12"/><rect class="cls-1" x="23.63" y="34.44" width="3.7" height="0.12"/><rect class="cls-1" x="23.63" y="34.55" width="3.7" height="0.12"/><rect class="cls-1" x="23.63" y="34.67" width="3.7" height="0.12"/><rect class="cls-1" x="23.63" y="34.79" width="3.7" height="0.12"/><rect class="cls-1" x="23.63" y="34.9" width="3.7" height="0.12"/><rect class="cls-1" x="23.63" y="35.02" width="3.7" height="0.12"/><rect class="cls-1" x="23.63" y="35.13" width="3.7" height="0.12"/><rect class="cls-1" x="23.63" y="35.25" width="3.7" height="0.12"/><rect class="cls-1" x="23.63" y="35.36" width="3.7" height="0.12"/><rect class="cls-1" x="23.63" y="35.48" width="3.7" height="0.12"/><rect class="cls-1" x="23.63" y="35.6" width="3.7" height="0.12"/><rect class="cls-1" x="23.63" y="35.71" width="3.7" height="0.12"/><rect class="cls-1" x="23.63" y="35.83" width="3.7" height="0.12"/><rect class="cls-1" x="23.63" y="35.94" width="3.7" height="0.12"/><rect class="cls-1" x="23.63" y="36.06" width="3.7" height="0.12"/><rect class="cls-1" x="23.63" y="36.17" width="3.7" height="0.12"/><rect class="cls-1" x="23.63" y="36.29" width="3.7" height="0.12"/><rect class="cls-1" x="23.63" y="36.41" width="3.7" height="0.12"/><rect class="cls-1" x="23.63" y="36.52" width="3.7" height="0.12"/><rect class="cls-1" x="23.63" y="36.64" width="3.7" height="0.12"/><rect class="cls-1" x="23.63" y="36.75" width="3.7" height="0.12"/><rect class="cls-1" x="23.63" y="36.87" width="3.7" height="0.12"/><rect class="cls-1" x="23.63" y="36.98" width="3.7" height="0.12"/><rect class="cls-1" x="23.63" y="37.1" width="3.7" height="0.12"/><rect class="cls-1" x="23.63" y="37.21" width="3.7" height="0.12"/><rect class="cls-1" x="23.63" y="37.33" width="3.7" height="0.12"/><rect class="cls-1" x="23.63" y="37.45" width="3.7" height="0.12"/><rect class="cls-1" x="23.63" y="37.56" width="3.7" height="0.12"/><rect class="cls-1" x="23.63" y="37.68" width="3.7" height="0.12"/><rect class="cls-1" x="23.63" y="37.79" width="3.7" height="0.12"/><rect class="cls-1" x="23.63" y="37.91" width="3.7" height="0.12"/><rect class="cls-1" x="23.63" y="38.02" width="3.7" height="0.12"/><rect class="cls-1" x="23.63" y="38.14" width="3.7" height="0.12"/><rect class="cls-1" x="23.63" y="38.26" width="3.7" height="0.12"/><rect class="cls-1" x="23.63" y="38.37" width="3.7" height="0.12"/><rect class="cls-1" x="23.63" y="38.49" width="3.7" height="0.12"/><rect class="cls-1" x="23.63" y="38.6" width="3.7" height="0.12"/><rect class="cls-1" x="23.63" y="38.72" width="3.7" height="0.12"/><rect class="cls-1" x="23.63" y="38.83" width="3.7" height="0.12"/><rect class="cls-1" x="23.63" y="38.95" width="3.7" height="0.12"/><rect class="cls-1" x="23.63" y="39.07" width="3.7" height="0.12"/><rect class="cls-1" x="23.63" y="39.18" width="3.7" height="0.12"/><rect class="cls-1" x="23.63" y="39.3" width="3.7" height="0.12"/><rect class="cls-1" x="23.63" y="39.41" width="3.7" height="0.12"/><rect class="cls-1" x="23.63" y="39.53" width="3.7" height="0.12"/><rect class="cls-1" x="23.63" y="39.64" width="3.7" height="0.12"/><rect class="cls-1" x="23.63" y="39.76" width="3.7" height="0.12"/><rect class="cls-1" x="23.63" y="39.87" width="3.7" height="0.12"/><rect class="cls-1" x="23.63" y="39.99" width="3.7" height="0.12"/><rect class="cls-1" x="23.63" y="40.11" width="3.7" height="0.12"/><rect class="cls-1" x="23.63" y="40.22" width="3.7" height="0.12"/><rect class="cls-1" x="23.63" y="40.34" width="3.7" height="0.12"/><rect class="cls-1" x="23.63" y="40.45" width="3.7" height="0.12"/><rect class="cls-1" x="23.63" y="40.57" width="3.7" height="0.12"/><rect class="cls-1" x="23.63" y="40.68" width="3.7" height="0.12"/><rect class="cls-1" x="23.63" y="40.8" width="3.7" height="0.12"/><rect class="cls-1" x="23.63" y="40.92" width="3.7" height="0.12"/><rect class="cls-1" x="23.63" y="41.03" width="3.7" height="0.12"/><rect class="cls-1" x="23.63" y="41.15" width="3.7" height="0.12"/><rect class="cls-1" x="23.63" y="41.26" width="3.7" height="0.12"/><rect class="cls-1" x="23.63" y="41.38" width="3.7" height="0.12"/><rect class="cls-1" x="23.63" y="41.49" width="3.7" height="0.12"/><rect class="cls-1" x="23.63" y="41.61" width="3.7" height="0.12"/><rect class="cls-1" x="23.63" y="41.73" width="3.7" height="0.12"/><rect class="cls-1" x="23.63" y="41.84" width="3.7" height="0.12"/><rect class="cls-1" x="23.63" y="41.96" width="3.7" height="3.04"/></g><path class="cls-1" d="M42.56,16.57v-.05h0s0-.05,0-.07,0,0,0,0a.27.27,0,0,0,0-.12.22.22,0,0,0,0-.1,1.43,1.43,0,0,0-.08-.22.75.75,0,0,0-.07-.12.15.15,0,0,0,0-.06.42.42,0,0,0-.08-.12l-.07-.09a.41.41,0,0,0-.09-.1h0l0,0h0a.75.75,0,0,0-.14-.12h0l0,0-.13-.08-.07,0a1.83,1.83,0,0,0-1.81,0L37,16.76l-3.57,2.06a1.85,1.85,0,0,0-.67,2.53,1.8,1.8,0,0,0,.67.67,1.85,1.85,0,0,0,1.86,0l6.34-3.66a.66.66,0,0,0,.17-.12l.1-.07a.38.38,0,0,0,.09-.09.12.12,0,0,0,.05,0,.53.53,0,0,0,.12-.14l0,0,.06-.09.06-.09s0,0,0,0,.05-.09.07-.14a0,0,0,0,1,0,0,.32.32,0,0,0,0-.09.69.69,0,0,0,.05-.13v-.05a.32.32,0,0,0,0-.14h0a.29.29,0,0,0,0-.09,2,2,0,0,0,0-.23v0C42.57,16.68,42.56,16.63,42.56,16.57Zm-7.65,4.77a1.06,1.06,0,1,1,.39-1.45A1,1,0,0,1,34.91,21.34Z"/><g class="cls-4"><polygon class="cls-1" points="33.16 21.46 33.33 21.64 33.16 21.64 33.16 21.46"/><polygon class="cls-1" points="33.16 21.28 33.5 21.64 33.33 21.64 33.16 21.46 33.16 21.28"/><polygon class="cls-1" points="33.16 21.1 33.68 21.64 33.5 21.64 33.16 21.28 33.16 21.1"/><polygon class="cls-1" points="33.16 20.92 33.85 21.64 33.68 21.64 33.16 21.1 33.16 20.92"/><polygon class="cls-1" points="33.16 20.74 34.03 21.64 33.85 21.64 33.16 20.92 33.16 20.74"/><polygon class="cls-1" points="33.16 20.56 34.2 21.64 34.03 21.64 33.16 20.74 33.16 20.56"/><polygon class="cls-1" points="33.16 20.38 34.38 21.64 34.2 21.64 33.16 20.56 33.16 20.38"/><polygon class="cls-1" points="33.16 20.2 34.55 21.64 34.38 21.64 33.16 20.38 33.16 20.2"/><polygon class="cls-1" points="33.16 20.02 34.72 21.64 34.55 21.64 33.16 20.2 33.16 20.02"/><polygon class="cls-1" points="33.16 19.84 34.9 21.64 34.72 21.64 33.16 20.02 33.16 19.84"/><polygon class="cls-1" points="33.16 19.66 35.07 21.64 34.9 21.64 33.16 19.84 33.16 19.66"/><polygon class="cls-1" points="33.16 19.48 35.25 21.64 35.07 21.64 33.16 19.66 33.16 19.48"/><polygon class="cls-1" points="33.16 19.3 35.42 21.64 35.25 21.64 33.16 19.48 33.16 19.3"/><polygon class="cls-1" points="33.24 19.2 35.59 21.64 35.42 21.64 33.16 19.3 33.16 19.2 33.24 19.2"/><polygon class="cls-1" points="33.41 19.2 35.6 21.46 35.6 21.64 35.59 21.64 33.24 19.2 33.41 19.2"/><polygon class="cls-1" points="33.59 19.2 35.6 21.28 35.6 21.46 33.41 19.2 33.59 19.2"/><polygon class="cls-1" points="33.76 19.2 35.6 21.1 35.6 21.28 33.59 19.2 33.76 19.2"/><polygon class="cls-1" points="33.94 19.2 35.6 20.92 35.6 21.1 33.76 19.2 33.94 19.2"/><polygon class="cls-1" points="34.11 19.2 35.6 20.74 35.6 20.92 33.94 19.2 34.11 19.2"/><polygon class="cls-1" points="34.28 19.2 35.6 20.56 35.6 20.74 34.11 19.2 34.28 19.2"/><polygon class="cls-1" points="34.46 19.2 35.6 20.38 35.6 20.56 34.28 19.2 34.46 19.2"/><polygon class="cls-1" points="34.63 19.2 35.6 20.2 35.6 20.38 34.46 19.2 34.63 19.2"/><polygon class="cls-1" points="34.81 19.2 35.6 20.02 35.6 20.2 34.63 19.2 34.81 19.2"/><polygon class="cls-1" points="34.98 19.2 35.6 19.84 35.6 20.02 34.81 19.2 34.98 19.2"/><polygon class="cls-1" points="35.16 19.2 35.6 19.66 35.6 19.84 34.98 19.2 35.16 19.2"/><polygon class="cls-1" points="35.33 19.2 35.6 19.48 35.6 19.66 35.16 19.2 35.33 19.2"/><polygon class="cls-1" points="35.5 19.2 35.6 19.3 35.6 19.48 35.33 19.2 35.5 19.2"/><polygon class="cls-1" points="35.6 19.3 35.5 19.2 35.6 19.2 35.6 19.3"/><polygon class="cls-1" points="32.27 20.9 33.69 22.37 32.27 22.37 32.27 20.9"/><polygon class="cls-1" points="32.27 20.72 33.86 22.37 33.69 22.37 32.27 20.9 32.27 20.72"/><polygon class="cls-1" points="32.27 20.54 34.03 22.37 33.86 22.37 32.27 20.72 32.27 20.54"/><polygon class="cls-1" points="32.27 20.36 34.21 22.37 34.03 22.37 32.27 20.54 32.27 20.36"/><polygon class="cls-1" points="32.27 20.18 34.38 22.37 34.21 22.37 32.27 20.36 32.27 20.18"/><polygon class="cls-1" points="32.27 20 34.56 22.37 34.38 22.37 32.27 20.18 32.27 20"/><polygon class="cls-1" points="32.27 19.82 34.73 22.37 34.56 22.37 32.27 20 32.27 19.82"/><polygon class="cls-1" points="32.27 19.63 34.91 22.37 34.73 22.37 32.27 19.82 32.27 19.63"/><polygon class="cls-1" points="32.27 19.45 35.08 22.37 34.91 22.37 32.27 19.63 32.27 19.45"/><polygon class="cls-1" points="32.27 19.27 35.25 22.37 35.08 22.37 32.27 19.45 32.27 19.27"/><polygon class="cls-1" points="32.27 19.09 35.43 22.37 35.25 22.37 32.27 19.27 32.27 19.09"/><polygon class="cls-1" points="32.27 18.91 35.6 22.37 35.43 22.37 32.27 19.09 32.27 18.91"/><polygon class="cls-1" points="32.27 18.77 32.28 18.75 35.78 22.37 35.6 22.37 32.27 18.91 32.27 18.77"/><polygon class="cls-1" points="32.28 18.75 32.37 18.66 35.95 22.37 35.78 22.37 32.28 18.75"/><polygon class="cls-1" points="32.37 18.66 32.46 18.58 36.13 22.37 35.95 22.37 32.37 18.66"/><polygon class="cls-1" points="32.46 18.58 32.55 18.49 36.3 22.37 36.13 22.37 32.46 18.58"/><polygon class="cls-1" points="32.55 18.49 32.64 18.4 36.47 22.37 36.3 22.37 32.55 18.49"/><polygon class="cls-1" points="32.64 18.4 32.73 18.32 36.65 22.37 36.47 22.37 32.64 18.4"/><polygon class="cls-1" points="32.73 18.32 32.82 18.23 36.82 22.37 36.65 22.37 32.73 18.32"/><polygon class="cls-1" points="32.82 18.23 32.91 18.14 36.99 22.37 36.82 22.37 32.82 18.23"/><polygon class="cls-1" points="32.91 18.14 33 18.05 37.17 22.37 36.99 22.37 32.91 18.14"/><polygon class="cls-1" points="33 18.05 33.09 17.97 37.34 22.37 37.17 22.37 33 18.05"/><polygon class="cls-1" points="33.09 17.97 33.18 17.88 37.52 22.37 37.34 22.37 33.09 17.97"/><polygon class="cls-1" points="33.18 17.88 33.27 17.79 37.69 22.37 37.52 22.37 33.18 17.88"/><polygon class="cls-1" points="33.27 17.79 33.36 17.7 37.87 22.37 37.69 22.37 33.27 17.79"/><polygon class="cls-1" points="33.36 17.7 33.45 17.62 38.04 22.37 37.87 22.37 33.36 17.7"/><polygon class="cls-1" points="33.45 17.62 33.54 17.53 38.21 22.37 38.04 22.37 33.45 17.62"/><polygon class="cls-1" points="33.54 17.53 33.63 17.44 38.39 22.37 38.21 22.37 33.54 17.53"/><polygon class="cls-1" points="33.63 17.44 33.72 17.36 38.52 22.32 38.47 22.37 38.39 22.37 33.63 17.44"/><rect class="cls-1" x="36.1" y="16.35" width="0.13" height="6.9" transform="translate(-3.6 30.68) rotate(-44)"/><rect class="cls-1" x="36.19" y="16.26" width="0.13" height="6.9" transform="translate(-3.52 30.72) rotate(-44)"/><rect class="cls-1" x="36.28" y="16.17" width="0.13" height="6.9" transform="translate(-3.43 30.75) rotate(-44)"/><rect class="cls-1" x="36.37" y="16.08" width="0.13" height="6.9" transform="translate(-3.34 30.79) rotate(-44)"/><rect class="cls-1" x="36.46" y="16" width="0.13" height="6.9" transform="translate(-3.26 30.83) rotate(-44)"/><rect class="cls-1" x="36.55" y="15.91" width="0.13" height="6.9" transform="translate(-3.17 30.87) rotate(-44)"/><rect class="cls-1" x="36.64" y="15.82" width="0.13" height="6.9" transform="translate(-3.09 30.91) rotate(-44)"/><rect class="cls-1" x="36.73" y="15.74" width="0.13" height="6.9" transform="translate(-3 30.95) rotate(-44)"/><rect class="cls-1" x="36.82" y="15.65" width="0.13" height="6.9" transform="translate(-2.91 30.98) rotate(-44)"/><rect class="cls-1" x="36.91" y="15.56" width="0.13" height="6.9" transform="translate(-2.83 31.02) rotate(-44)"/><rect class="cls-1" x="37" y="15.48" width="0.13" height="6.9" transform="translate(-2.74 31.06) rotate(-44)"/><rect class="cls-1" x="37.09" y="15.39" width="0.13" height="6.9" transform="translate(-2.66 31.1) rotate(-44)"/><rect class="cls-1" x="37.18" y="15.3" width="0.13" height="6.9" transform="translate(-2.57 31.14) rotate(-44)"/><rect class="cls-1" x="37.27" y="15.21" width="0.13" height="6.9" transform="translate(-2.49 31.17) rotate(-44)"/><rect class="cls-1" x="37.36" y="15.13" width="0.13" height="6.9" transform="translate(-2.4 31.21) rotate(-44)"/><rect class="cls-1" x="37.45" y="15.04" width="0.13" height="6.9" transform="translate(-2.31 31.25) rotate(-44)"/><rect class="cls-1" x="37.54" y="14.95" width="0.13" height="6.9" transform="translate(-2.23 31.29) rotate(-44)"/><rect class="cls-1" x="37.63" y="14.87" width="0.13" height="6.9" transform="translate(-2.14 31.33) rotate(-44)"/><rect class="cls-1" x="37.72" y="14.78" width="0.13" height="6.9" transform="translate(-2.06 31.37) rotate(-44)"/><rect class="cls-1" x="37.81" y="14.69" width="0.13" height="6.9" transform="translate(-1.97 31.4) rotate(-44)"/><rect class="cls-1" x="37.9" y="14.61" width="0.13" height="6.9" transform="translate(-1.89 31.44) rotate(-44)"/><rect class="cls-1" x="37.99" y="14.52" width="0.13" height="6.9" transform="translate(-1.8 31.48) rotate(-44)"/><rect class="cls-1" x="38.08" y="14.43" width="0.13" height="6.9" transform="translate(-1.71 31.52) rotate(-44)"/><rect class="cls-1" x="38.18" y="14.34" width="0.13" height="6.9" transform="translate(-1.63 31.56) rotate(-44)"/><rect class="cls-1" x="38.27" y="14.26" width="0.13" height="6.9" transform="translate(-1.54 31.59) rotate(-44)"/><rect class="cls-1" x="38.36" y="14.17" width="0.13" height="6.9" transform="translate(-1.46 31.63) rotate(-44)"/><rect class="cls-1" x="38.45" y="14.08" width="0.13" height="6.9" transform="translate(-1.37 31.67) rotate(-44)"/><rect class="cls-1" x="38.54" y="14" width="0.13" height="6.9" transform="translate(-1.29 31.71) rotate(-44)"/><rect class="cls-1" x="38.63" y="13.91" width="0.13" height="6.9" transform="translate(-1.2 31.75) rotate(-44)"/><polygon class="cls-1" points="36.34 14.83 36.35 14.82 36.5 14.82 41.22 19.71 41.13 19.8 36.34 14.83"/><polygon class="cls-1" points="36.68 14.82 41.31 19.62 41.22 19.71 36.5 14.82 36.68 14.82"/><polygon class="cls-1" points="36.85 14.82 41.4 19.54 41.31 19.62 36.68 14.82 36.85 14.82"/><polygon class="cls-1" points="37.02 14.82 41.49 19.45 41.4 19.54 36.85 14.82 37.02 14.82"/><polygon class="cls-1" points="37.2 14.82 41.58 19.36 41.49 19.45 37.02 14.82 37.2 14.82"/><polygon class="cls-1" points="37.37 14.82 41.67 19.27 41.58 19.36 37.2 14.82 37.37 14.82"/><polygon class="cls-1" points="37.55 14.82 41.76 19.19 41.67 19.27 37.37 14.82 37.55 14.82"/><polygon class="cls-1" points="37.72 14.82 41.85 19.1 41.76 19.19 37.55 14.82 37.72 14.82"/><polygon class="cls-1" points="37.9 14.82 41.94 19.01 41.85 19.1 37.72 14.82 37.9 14.82"/><polygon class="cls-1" points="38.07 14.82 42.03 18.93 41.94 19.01 37.9 14.82 38.07 14.82"/><polygon class="cls-1" points="38.24 14.82 42.12 18.84 42.03 18.93 38.07 14.82 38.24 14.82"/><polygon class="cls-1" points="38.42 14.82 42.21 18.75 42.12 18.84 38.24 14.82 38.42 14.82"/><polygon class="cls-1" points="42.57 18.41 42.21 18.75 38.42 14.82 42.57 14.82 42.57 18.41"/></g><path class="cls-1" d="M17.51,18.82l-3.57-2.06-2.77-1.6a1.85,1.85,0,0,0-1.89,0l-.15.1h0L9,15.43l-.09.1-.09.1v0a1.27,1.27,0,0,0-.13.19l-.1.2a0,0,0,0,1,0,0l0,.1s0,0,0,0a.29.29,0,0,0,0,.1,0,0,0,0,0,0,0,1,1,0,0,0,0,.17.52.52,0,0,0,0,.11v.16a1.82,1.82,0,0,0,.92,1.6L12.1,20,15.66,22a1.85,1.85,0,1,0,1.85-3.2Zm0,2.13a1.07,1.07,0,0,1-1.85-1.06,1.08,1.08,0,0,1,1.46-.4A1.07,1.07,0,0,1,17.51,21Z"/><g class="cls-5"><rect class="cls-1" x="15.37" y="19.2" width="2.44" height="2.44"/><polygon class="cls-1" points="11.04 14.81 8.4 17.02 8.4 14.81 11.04 14.81"/><polygon class="cls-1" points="11.17 14.81 8.4 17.14 8.4 17.02 11.04 14.81 11.17 14.81"/><polygon class="cls-1" points="11.3 14.81 8.4 17.25 8.4 17.14 11.17 14.81 11.3 14.81"/><polygon class="cls-1" points="11.43 14.81 8.4 17.36 8.4 17.25 11.3 14.81 11.43 14.81"/><polygon class="cls-1" points="11.56 14.81 8.4 17.46 8.4 17.36 11.43 14.81 11.56 14.81"/><polygon class="cls-1" points="11.7 14.81 8.4 17.58 8.4 17.46 11.56 14.81 11.7 14.81"/><polygon class="cls-1" points="11.83 14.81 8.4 17.69 8.4 17.58 11.7 14.81 11.83 14.81"/><polygon class="cls-1" points="11.96 14.81 8.4 17.8 8.4 17.69 11.83 14.81 11.96 14.81"/><polygon class="cls-1" points="12.09 14.81 8.4 17.91 8.4 17.8 11.96 14.81 12.09 14.81"/><polygon class="cls-1" points="12.22 14.81 8.4 18.02 8.4 17.91 12.09 14.81 12.22 14.81"/><polygon class="cls-1" points="12.35 14.81 8.4 18.13 8.4 18.02 12.22 14.81 12.35 14.81"/><polygon class="cls-1" points="12.48 14.81 8.4 18.24 8.4 18.13 12.35 14.81 12.48 14.81"/><polygon class="cls-1" points="12.61 14.81 8.4 18.35 8.4 18.24 12.48 14.81 12.61 14.81"/><polygon class="cls-1" points="12.74 14.81 8.4 18.46 8.4 18.35 12.61 14.81 12.74 14.81"/><polygon class="cls-1" points="12.88 14.81 8.4 18.57 8.4 18.46 12.74 14.81 12.88 14.81"/><polygon class="cls-1" points="13.01 14.81 8.44 18.64 8.4 18.59 8.4 18.57 12.88 14.81 13.01 14.81"/><polygon class="cls-1" points="13.14 14.81 8.49 18.7 8.44 18.64 13.01 14.81 13.14 14.81"/><polygon class="cls-1" points="13.27 14.81 8.55 18.77 8.49 18.7 13.14 14.81 13.27 14.81"/><polygon class="cls-1" points="13.4 14.81 8.6 18.83 8.55 18.77 13.27 14.81 13.4 14.81"/><polygon class="cls-1" points="13.53 14.81 8.66 18.9 8.6 18.83 13.4 14.81 13.53 14.81"/><polygon class="cls-1" points="13.66 14.81 8.71 18.96 8.66 18.9 13.53 14.81 13.66 14.81"/><polygon class="cls-1" points="13.79 14.81 8.77 19.03 8.71 18.96 13.66 14.81 13.79 14.81"/><polygon class="cls-1" points="13.93 14.81 8.82 19.09 8.77 19.03 13.79 14.81 13.93 14.81"/><polygon class="cls-1" points="14.06 14.81 8.87 19.16 8.82 19.09 13.93 14.81 14.06 14.81"/><polygon class="cls-1" points="14.19 14.81 8.93 19.22 8.87 19.16 14.06 14.81 14.19 14.81"/><polygon class="cls-1" points="14.32 14.81 8.98 19.29 8.93 19.22 14.19 14.81 14.32 14.81"/><polygon class="cls-1" points="14.45 14.81 9.04 19.35 8.98 19.29 14.32 14.81 14.45 14.81"/><polygon class="cls-1" points="14.58 14.81 9.09 19.41 9.04 19.35 14.45 14.81 14.58 14.81"/><polygon class="cls-1" points="14.71 14.81 9.14 19.48 9.09 19.41 14.58 14.81 14.71 14.81"/><polygon class="cls-1" points="14.84 14.81 9.2 19.54 9.14 19.48 14.71 14.81 14.84 14.81"/><polygon class="cls-1" points="14.98 14.81 9.25 19.61 9.2 19.54 14.84 14.81 14.98 14.81"/><polygon class="cls-1" points="15.11 14.81 9.31 19.67 9.25 19.61 14.98 14.81 15.11 14.81"/><polygon class="cls-1" points="15.24 14.81 9.36 19.74 9.31 19.67 15.11 14.81 15.24 14.81"/><polygon class="cls-1" points="15.37 14.81 9.42 19.8 9.36 19.74 15.24 14.81 15.37 14.81"/><polygon class="cls-1" points="15.4 14.81 15.44 14.85 9.47 19.87 9.42 19.8 15.37 14.81 15.4 14.81"/><rect class="cls-1" x="8.58" y="17.35" width="7.8" height="0.08" transform="translate(-8.26 12.09) rotate(-40)"/><rect class="cls-1" x="8.64" y="17.42" width="7.8" height="0.08" transform="translate(-8.29 12.14) rotate(-40)"/><rect class="cls-1" x="8.69" y="17.48" width="7.8" height="0.08" transform="translate(-8.32 12.19) rotate(-40)"/><rect class="cls-1" x="8.75" y="17.54" width="7.8" height="0.08" transform="translate(-8.35 12.24) rotate(-40)"/><rect class="cls-1" x="8.8" y="17.61" width="7.8" height="0.08" transform="translate(-8.37 12.29) rotate(-40)"/><rect class="cls-1" x="8.86" y="17.67" width="7.8" height="0.08" transform="translate(-8.4 12.34) rotate(-40)"/><rect class="cls-1" x="8.91" y="17.74" width="7.8" height="0.08" transform="translate(-8.43 12.39) rotate(-40)"/><rect class="cls-1" x="8.96" y="17.8" width="7.8" height="0.08" transform="translate(-8.46 12.44) rotate(-40)"/><rect class="cls-1" x="9.02" y="17.87" width="7.8" height="0.08" transform="translate(-8.49 12.49) rotate(-40)"/><rect class="cls-1" x="9.07" y="17.93" width="7.8" height="0.08" transform="translate(-8.52 12.54) rotate(-40)"/><rect class="cls-1" x="9.13" y="18" width="7.8" height="0.08" transform="translate(-8.55 12.59) rotate(-40)"/><rect class="cls-1" x="9.18" y="18.06" width="7.8" height="0.08" transform="translate(-8.58 12.64) rotate(-40)"/><rect class="cls-1" x="9.24" y="18.13" width="7.8" height="0.08" transform="translate(-8.61 12.69) rotate(-40)"/><rect class="cls-1" x="9.29" y="18.19" width="7.8" height="0.08" transform="translate(-8.63 12.74) rotate(-40)"/><rect class="cls-1" x="9.34" y="18.26" width="7.8" height="0.08" transform="translate(-8.66 12.79) rotate(-40)"/><rect class="cls-1" x="9.4" y="18.32" width="7.8" height="0.08" transform="translate(-8.69 12.84) rotate(-40)"/><rect class="cls-1" x="9.45" y="18.38" width="7.8" height="0.08" transform="translate(-8.72 12.89) rotate(-40)"/><rect class="cls-1" x="9.51" y="18.45" width="7.8" height="0.08" transform="translate(-8.75 12.94) rotate(-40)"/><rect class="cls-1" x="9.56" y="18.51" width="7.8" height="0.08" transform="translate(-8.78 12.99) rotate(-40)"/><rect class="cls-1" x="9.61" y="18.58" width="7.8" height="0.08" transform="translate(-8.81 13.04) rotate(-40)"/><rect class="cls-1" x="9.67" y="18.64" width="7.8" height="0.08" transform="translate(-8.84 13.09) rotate(-40)"/><rect class="cls-1" x="9.72" y="18.71" width="7.8" height="0.08" transform="translate(-8.86 13.14) rotate(-40)"/><rect class="cls-1" x="9.78" y="18.77" width="7.8" height="0.08" transform="translate(-8.89 13.19) rotate(-40)"/><rect class="cls-1" x="9.83" y="18.84" width="7.8" height="0.08" transform="translate(-8.92 13.24) rotate(-40)"/><rect class="cls-1" x="9.89" y="18.9" width="7.8" height="0.08" transform="translate(-8.95 13.29) rotate(-40)"/><rect class="cls-1" x="9.94" y="18.97" width="7.8" height="0.08" transform="translate(-8.98 13.34) rotate(-40)"/><rect class="cls-1" x="9.99" y="19.03" width="7.8" height="0.08" transform="translate(-9.01 13.39) rotate(-40)"/><rect class="cls-1" x="10.05" y="19.09" width="7.8" height="0.08" transform="translate(-9.04 13.44) rotate(-40)"/><rect class="cls-1" x="10.1" y="19.16" width="7.8" height="0.08" transform="translate(-9.07 13.49) rotate(-40)"/><rect class="cls-1" x="10.16" y="19.22" width="7.8" height="0.08" transform="translate(-9.1 13.54) rotate(-40)"/><rect class="cls-1" x="10.21" y="19.29" width="7.8" height="0.08" transform="translate(-9.12 13.59) rotate(-40)"/><rect class="cls-1" x="10.27" y="19.35" width="7.8" height="0.08" transform="translate(-9.15 13.64) rotate(-40)"/><rect class="cls-1" x="10.32" y="19.42" width="7.8" height="0.08" transform="translate(-9.18 13.69) rotate(-40)"/><rect class="cls-1" x="10.37" y="19.48" width="7.8" height="0.08" transform="translate(-9.21 13.74) rotate(-40)"/><rect class="cls-1" x="10.43" y="19.55" width="7.8" height="0.08" transform="translate(-9.24 13.79) rotate(-40)"/><polygon class="cls-1" points="17.34 17.11 18.7 18.73 18.7 22.53 11.71 22.53 11.37 22.13 17.34 17.11"/></g><ellipse class="cls-2" cx="39.75" cy="33.8" rx="2.94" ry="2.97" transform="translate(-12.26 37.98) rotate(-44.96)"/><circle class="cls-2" cx="25.48" cy="7.96" r="2.96" transform="translate(5.85 26.05) rotate(-60)"/><ellipse class="cls-2" cx="10.25" cy="34.36" rx="2.94" ry="2.97" transform="translate(-21.3 17.33) rotate(-45.04)"/></svg>