<svg id="Layer_1" data-name="Layer 1" xmlns="http://www.w3.org/2000/svg" xmlns:xlink="http://www.w3.org/1999/xlink" viewBox="0 0 120 46.15"><defs><style>.cls-1{fill:#f2f2f2;}.cls-2{fill:#ccc;}.cls-3{clip-path:url(#clip-path);}.cls-4{clip-path:url(#clip-path-2);}.cls-5{clip-path:url(#clip-path-3);}</style><clipPath id="clip-path"><path class="cls-1" d="M21.88,28.92a1.21,1.21,0,0,0-1.21,1.21v4.78a1.22,1.22,0,0,0,.61,1l.13.07h0l.11,0,.1,0a.2.2,0,0,0,.11,0l.15,0a1.13,1.13,0,0,0,.32,0l.11,0,.07,0,.12,0h0a1.21,1.21,0,0,0,.58-1V30.13A1.21,1.21,0,0,0,21.88,28.92Zm0,.51a.7.7,0,1,1-.7.7A.7.7,0,0,1,21.88,29.43Z"/></clipPath><clipPath id="clip-path-2"><path class="cls-1" d="M33,17.55v0h0a.06.06,0,0,1,0,0,0,0,0,0,0,0,0,.19.19,0,0,0,0-.07.14.14,0,0,0,0-.07.58.58,0,0,0,0-.14l-.05-.09,0,0L32.8,17l0-.06-.06-.07h0l0,0h0l-.09-.08h0l0,0-.08-.05-.05,0a1.18,1.18,0,0,0-1.18,0l-1.81,1.05L27.08,19a1.22,1.22,0,0,0-.44,1.65,1.24,1.24,0,0,0,.44.44,1.19,1.19,0,0,0,1.21,0l4.14-2.39.12-.07.06,0,.06-.06,0,0,.08-.09s0,0,0,0,0,0,0,0a.25.25,0,0,0,0-.07h0a.36.36,0,0,0,0-.09h0a.14.14,0,0,0,0-.06A.16.16,0,0,0,33,18v0a.29.29,0,0,0,0-.09h0a.13.13,0,0,0,0-.06.76.76,0,0,0,0-.15v-.13Zm-5,3.12a.7.7,0,0,1-.95-.25.69.69,0,1,1,1.2-.7A.7.7,0,0,1,28,20.67Z"/></clipPath><clipPath id="clip-path-3"><path class="cls-1" d="M16.68,19l-2.33-1.34-1.81-1.05a1.2,1.2,0,0,0-1.24,0l-.09.06h0l-.1.1-.07.07,0,.06h0l-.08.12a.91.91,0,0,0-.07.14h0a.14.14,0,0,1,0,.06v0l0,.07v0a.43.43,0,0,0,0,.11.22.22,0,0,0,0,.08s0,0,0,.05a.07.07,0,0,0,0,.05,1.2,1.2,0,0,0,.61,1l1.81,1.05,2.33,1.34a1.2,1.2,0,0,0,1.65-.44A1.22,1.22,0,0,0,16.68,19Zm0,1.4a.7.7,0,1,1-.26-1A.71.71,0,0,1,16.68,20.42Z"/></clipPath></defs><path class="cls-2" d="M42.4,29.52a5.46,5.46,0,0,1-2.89-.76,5.09,5.09,0,0,1-1.93-2.1,6.79,6.79,0,0,1-.68-3.14,6.81,6.81,0,0,1,.71-3.19,5.26,5.26,0,0,1,2-2.16,6,6,0,0,1,3.13-.78,5.62,5.62,0,0,1,3.41,1,4.5,4.5,0,0,1,1.76,2.73H45.54a2.37,2.37,0,0,0-1-1.28,3.19,3.19,0,0,0-1.8-.46A3.39,3.39,0,0,0,40,20.48a4.57,4.57,0,0,0-.95,3.06,4.37,4.37,0,0,0,.94,3,3.29,3.29,0,0,0,2.58,1.07,3.12,3.12,0,0,0,2.4-.87,3.85,3.85,0,0,0,1-2.26H43V22.87h5.13v6.44h-2L46,27.77a3.89,3.89,0,0,1-1.42,1.29A4.64,4.64,0,0,1,42.4,29.52Z"/><path class="cls-2" d="M49.34,29.31V21h1.91l.2,1.56a3.36,3.36,0,0,1,1.23-1.28,3.42,3.42,0,0,1,1.83-.48v2.26h-.6a3.33,3.33,0,0,0-1.26.22,1.65,1.65,0,0,0-.86.75,3,3,0,0,0-.31,1.49v3.78Z"/><path class="cls-2" d="M58,29.52a3.94,3.94,0,0,1-1.76-.35A2.31,2.31,0,0,1,54.88,27a2.28,2.28,0,0,1,.9-1.87,4.33,4.33,0,0,1,2.72-.72h2.1v-.2A1.56,1.56,0,0,0,60.12,23a1.82,1.82,0,0,0-1.21-.4,2,2,0,0,0-1.13.31,1.33,1.33,0,0,0-.61.91H55.08a3,3,0,0,1,.61-1.57,3.38,3.38,0,0,1,1.37-1,4.65,4.65,0,0,1,1.87-.36,4.09,4.09,0,0,1,2.8.89,3.15,3.15,0,0,1,1,2.51v5.1H60.92L60.72,28a3.09,3.09,0,0,1-1,1.1A3,3,0,0,1,58,29.52Zm.49-1.68a1.78,1.78,0,0,0,1.43-.6,2.85,2.85,0,0,0,.64-1.49H58.73a1.86,1.86,0,0,0-1.22.31.94.94,0,0,0-.37.76.87.87,0,0,0,.37.75A1.59,1.59,0,0,0,58.48,27.84Z"/><path class="cls-2" d="M64,33V21h1.91l.24,1.19a3.69,3.69,0,0,1,1.06-1,3.15,3.15,0,0,1,1.72-.42,3.88,3.88,0,0,1,2.09.57,4.14,4.14,0,0,1,1.46,1.56,5,5,0,0,1,0,4.47A4,4,0,0,1,71,29a3.88,3.88,0,0,1-2.09.57,3.51,3.51,0,0,1-1.64-.36,2.93,2.93,0,0,1-1.14-1V33Zm4.47-5.36a2.27,2.27,0,0,0,1.7-.69,2.45,2.45,0,0,0,.67-1.77,2.51,2.51,0,0,0-.67-1.79,2.25,2.25,0,0,0-1.7-.71,2.28,2.28,0,0,0-1.7.7,2.74,2.74,0,0,0,0,3.57A2.27,2.27,0,0,0,68.42,27.64Z"/><path class="cls-2" d="M74,29.31v-12h2.15v5a2.93,2.93,0,0,1,1.13-1.08,3.33,3.33,0,0,1,1.63-.39,3,3,0,0,1,2.39,1,4.25,4.25,0,0,1,.84,2.85v4.68H80V24.83a2.72,2.72,0,0,0-.42-1.64,1.59,1.59,0,0,0-1.35-.57,2,2,0,0,0-1.5.63A2.5,2.5,0,0,0,76.18,25v4.28Z"/><path class="cls-1" d="M83.43,29.31V17.59h2.14v4.74l4.34-4.74h2.64l-4.32,4.66,4.44,7.06H90l-3.35-5.42-1.12,1.22v4.2Z"/><path class="cls-1" d="M94.41,19.72a1.37,1.37,0,0,1-1-.35,1.18,1.18,0,0,1-.38-.89,1.14,1.14,0,0,1,.38-.88,1.53,1.53,0,0,1,1.92,0,1.14,1.14,0,0,1,.38.88,1.18,1.18,0,0,1-.38.89A1.37,1.37,0,0,1,94.41,19.72Zm-1.07,9.59V21h2.14v8.3Z"/><path class="cls-1" d="M100.59,29.31a3.24,3.24,0,0,1-2.09-.63,2.76,2.76,0,0,1-.79-2.26V22.8H96.29V21h1.42L98,18.78h1.89V21h2.25V22.8H99.85v3.63a1.07,1.07,0,0,0,.26.83,1.39,1.39,0,0,0,.9.23h1v1.82Z"/><path class="cls-1" d="M106.53,29.52a4.9,4.9,0,0,1-1.94-.36,3.43,3.43,0,0,1-1.34-1,3,3,0,0,1-.6-1.47h2.16a1.39,1.39,0,0,0,.54.82,1.83,1.83,0,0,0,1.15.35,1.54,1.54,0,0,0,1-.29.83.83,0,0,0,.33-.65.72.72,0,0,0-.47-.73,8.14,8.14,0,0,0-1.31-.37c-.36-.08-.72-.18-1.09-.29a4.58,4.58,0,0,1-1-.43,2.11,2.11,0,0,1-.75-.67,1.72,1.72,0,0,1-.28-1,2.34,2.34,0,0,1,.88-1.86,4.4,4.4,0,0,1,4.82-.06,2.73,2.73,0,0,1,1,1.89h-2c-.12-.62-.58-.92-1.39-.92a1.56,1.56,0,0,0-.93.23.72.72,0,0,0-.32.59c0,.24.16.44.48.58a6.86,6.86,0,0,0,1.29.4c.58.14,1.11.29,1.6.45a2.61,2.61,0,0,1,1.16.72A2,2,0,0,1,110,26.8a2.31,2.31,0,0,1-.4,1.39,2.69,2.69,0,0,1-1.21,1A4.41,4.41,0,0,1,106.53,29.52Z"/><path class="cls-2" d="M23.79,23.12a1.94,1.94,0,0,0-1.91-1.63,1.94,1.94,0,0,0,0,3.87,1.86,1.86,0,0,0,.7-.14,1.93,1.93,0,0,0,1.23-1.8C23.81,23.32,23.8,23.22,23.79,23.12Zm-1.91-.4a.7.7,0,1,1-.7.7A.7.7,0,0,1,21.88,22.72Z"/><path class="cls-1" d="M23.79,23.12l-1.31-.75a1.21,1.21,0,0,0-1.2,2.1l1.3.75,6.13,3.54a2.48,2.48,0,0,1,1.21-2.09Zm-1.91,1a.7.7,0,1,1,.7-.7A.71.71,0,0,1,21.88,24.12Z"/><path class="cls-1" d="M14.35,17.68l-1.21.69V27a2.42,2.42,0,0,0-1.21-.31,2.47,2.47,0,0,0-1.21.31V17.67a1.11,1.11,0,0,1,0-.17.5.5,0,0,1,0-.12v0a.36.36,0,0,1,0-.11v0a.91.91,0,0,1,.07-.14L11,17l.06-.07.08-.09a1.33,1.33,0,0,1,.19-.14l0,0L19.39,12a2.52,2.52,0,0,0,1.21,2.1Z"/><path class="cls-1" d="M32.87,18.28a.22.22,0,0,1,0,.08l0,.06-.11.12-.07.07-.08.06-.09,0a1.21,1.21,0,0,1-1.21,0h0l-1.81-1-6.25-3.61a2.51,2.51,0,0,0,.48-.38A2.47,2.47,0,0,0,24.37,12l8.06,4.66.12.08s.05,0,.07.06l0,0,.06.06,0,0a.1.1,0,0,1,0,.05.86.86,0,0,1,.07.1,0,0,0,0,1,0,0l0,0,0,.11v0a.5.5,0,0,1,0,.13.19.19,0,0,1,0,.07.52.52,0,0,1,0,.11.34.34,0,0,1,0,.1s0,0,0,0,0,0,0,0v.11s0,.06,0,.09v0A.29.29,0,0,0,33,18h0a.42.42,0,0,1,0,.12A.61.61,0,0,1,32.87,18.28Z"/><path class="cls-1" d="M30.66,31.23,22.5,36l-.12,0-.07,0a1.56,1.56,0,0,1-.43.08,1.52,1.52,0,0,1-.47-.1L21.28,36,13.21,31.3a2.48,2.48,0,0,0,1.21-2.1l7.46,4.31,1.21-.7,5.72-3.3A2.53,2.53,0,0,0,30,31,2.27,2.27,0,0,0,30.66,31.23Z"/><path class="cls-1" d="M21.88,28.92a1.21,1.21,0,0,0-1.21,1.21v4.78a1.22,1.22,0,0,0,.61,1l.13.07h0l.11,0,.1,0a.2.2,0,0,0,.11,0l.15,0a1.13,1.13,0,0,0,.32,0l.11,0,.07,0,.12,0h0a1.21,1.21,0,0,0,.58-1V30.13A1.21,1.21,0,0,0,21.88,28.92Zm0,.51a.7.7,0,1,1-.7.7A.7.7,0,0,1,21.88,29.43Z"/><g class="cls-3"><rect class="cls-1" x="21.18" y="29.43" width="1.39" height="0.02"/><rect class="cls-1" x="21.18" y="29.45" width="1.39" height="0.08"/><rect class="cls-1" x="21.18" y="29.52" width="1.39" height="0.08"/><rect class="cls-1" x="21.18" y="29.6" width="1.39" height="0.08"/><rect class="cls-1" x="21.18" y="29.67" width="1.39" height="0.08"/><rect class="cls-1" x="21.18" y="29.75" width="1.39" height="0.08"/><rect class="cls-1" x="21.18" y="29.82" width="1.39" height="0.08"/><rect class="cls-1" x="21.18" y="29.9" width="1.39" height="0.08"/><rect class="cls-1" x="21.18" y="29.98" width="1.39" height="0.08"/><rect class="cls-1" x="21.18" y="30.05" width="1.39" height="0.08"/><rect class="cls-1" x="21.18" y="30.13" width="1.39" height="0.08"/><rect class="cls-1" x="21.18" y="30.2" width="1.39" height="0.08"/><rect class="cls-1" x="21.18" y="30.28" width="1.39" height="0.08"/><rect class="cls-1" x="21.18" y="30.35" width="1.39" height="0.08"/><rect class="cls-1" x="21.18" y="30.43" width="1.39" height="0.08"/><rect class="cls-1" x="21.18" y="30.5" width="1.39" height="0.08"/><rect class="cls-1" x="21.18" y="30.58" width="1.39" height="0.08"/><rect class="cls-1" x="21.18" y="30.65" width="1.39" height="0.08"/><rect class="cls-1" x="21.18" y="30.73" width="1.39" height="0.08"/><rect class="cls-1" x="21.18" y="30.81" width="1.39" height="0.02"/><rect class="cls-1" x="20.67" y="28.92" width="2.41" height="0.08"/><rect class="cls-1" x="20.67" y="28.99" width="2.41" height="0.08"/><rect class="cls-1" x="20.67" y="29.07" width="2.41" height="0.08"/><rect class="cls-1" x="20.67" y="29.14" width="2.41" height="0.08"/><rect class="cls-1" x="20.67" y="29.22" width="2.41" height="0.08"/><rect class="cls-1" x="20.67" y="29.3" width="2.41" height="0.08"/><rect class="cls-1" x="20.67" y="29.37" width="2.41" height="0.08"/><rect class="cls-1" x="20.67" y="29.45" width="2.41" height="0.08"/><rect class="cls-1" x="20.67" y="29.52" width="2.41" height="0.08"/><rect class="cls-1" x="20.67" y="29.6" width="2.41" height="0.08"/><rect class="cls-1" x="20.67" y="29.67" width="2.41" height="0.08"/><rect class="cls-1" x="20.67" y="29.75" width="2.41" height="0.08"/><rect class="cls-1" x="20.67" y="29.82" width="2.41" height="0.08"/><rect class="cls-1" x="20.67" y="29.9" width="2.41" height="0.08"/><rect class="cls-1" x="20.67" y="29.98" width="2.41" height="0.08"/><rect class="cls-1" x="20.67" y="30.05" width="2.41" height="0.08"/><rect class="cls-1" x="20.67" y="30.13" width="2.41" height="0.08"/><rect class="cls-1" x="20.67" y="30.2" width="2.41" height="0.08"/><rect class="cls-1" x="20.67" y="30.28" width="2.41" height="0.08"/><rect class="cls-1" x="20.67" y="30.35" width="2.41" height="0.08"/><rect class="cls-1" x="20.67" y="30.43" width="2.41" height="0.08"/><rect class="cls-1" x="20.67" y="30.5" width="2.41" height="0.08"/><rect class="cls-1" x="20.67" y="30.58" width="2.41" height="0.08"/><rect class="cls-1" x="20.67" y="30.65" width="2.41" height="0.08"/><rect class="cls-1" x="20.67" y="30.73" width="2.41" height="0.08"/><rect class="cls-1" x="20.67" y="30.81" width="2.41" height="0.08"/><rect class="cls-1" x="20.67" y="30.88" width="2.41" height="0.08"/><rect class="cls-1" x="20.67" y="30.96" width="2.41" height="0.08"/><rect class="cls-1" x="20.67" y="31.03" width="2.41" height="0.08"/><rect class="cls-1" x="20.67" y="31.11" width="2.41" height="0.08"/><rect class="cls-1" x="20.67" y="31.18" width="2.41" height="0.08"/><rect class="cls-1" x="20.67" y="31.26" width="2.41" height="0.08"/><rect class="cls-1" x="20.67" y="31.33" width="2.41" height="0.08"/><rect class="cls-1" x="20.67" y="31.41" width="2.41" height="0.08"/><rect class="cls-1" x="20.67" y="31.49" width="2.41" height="0.08"/><rect class="cls-1" x="20.67" y="31.56" width="2.41" height="0.08"/><rect class="cls-1" x="20.67" y="31.64" width="2.41" height="0.08"/><rect class="cls-1" x="20.67" y="31.71" width="2.41" height="0.08"/><rect class="cls-1" x="20.67" y="31.79" width="2.41" height="0.08"/><rect class="cls-1" x="20.67" y="31.86" width="2.41" height="0.08"/><rect class="cls-1" x="20.67" y="31.94" width="2.41" height="0.08"/><rect class="cls-1" x="20.67" y="32.01" width="2.41" height="0.08"/><rect class="cls-1" x="20.67" y="32.09" width="2.41" height="0.08"/><rect class="cls-1" x="20.67" y="32.17" width="2.41" height="0.08"/><rect class="cls-1" x="20.67" y="32.24" width="2.41" height="0.08"/><rect class="cls-1" x="20.67" y="32.32" width="2.41" height="0.08"/><rect class="cls-1" x="20.67" y="32.39" width="2.41" height="0.08"/><rect class="cls-1" x="20.67" y="32.47" width="2.41" height="0.08"/><rect class="cls-1" x="20.67" y="32.54" width="2.41" height="0.08"/><rect class="cls-1" x="20.67" y="32.62" width="2.41" height="0.08"/><rect class="cls-1" x="20.67" y="32.69" width="2.41" height="0.08"/><rect class="cls-1" x="20.67" y="32.77" width="2.41" height="0.08"/><rect class="cls-1" x="20.67" y="32.84" width="2.41" height="0.08"/><rect class="cls-1" x="20.67" y="32.92" width="2.41" height="0.08"/><rect class="cls-1" x="20.67" y="33" width="2.41" height="0.08"/><rect class="cls-1" x="20.67" y="33.07" width="2.41" height="0.08"/><rect class="cls-1" x="20.67" y="33.15" width="2.41" height="0.08"/><rect class="cls-1" x="20.67" y="33.22" width="2.41" height="0.08"/><rect class="cls-1" x="20.67" y="33.3" width="2.41" height="0.08"/><rect class="cls-1" x="20.67" y="33.37" width="2.41" height="0.08"/><rect class="cls-1" x="20.67" y="33.45" width="2.41" height="0.08"/><rect class="cls-1" x="20.67" y="33.52" width="2.41" height="0.08"/><rect class="cls-1" x="20.67" y="33.6" width="2.41" height="0.08"/><rect class="cls-1" x="20.67" y="33.68" width="2.41" height="0.08"/><rect class="cls-1" x="20.67" y="33.75" width="2.41" height="0.08"/><rect class="cls-1" x="20.67" y="33.83" width="2.41" height="0.08"/><rect class="cls-1" x="20.67" y="33.9" width="2.41" height="0.08"/><rect class="cls-1" x="20.67" y="33.98" width="2.41" height="0.08"/><rect class="cls-1" x="20.67" y="34.05" width="2.41" height="0.08"/><rect class="cls-1" x="20.67" y="34.13" width="2.41" height="1.99"/></g><path class="cls-1" d="M33,17.55v0h0a.06.06,0,0,1,0,0,0,0,0,0,0,0,0,.19.19,0,0,0,0-.07.14.14,0,0,0,0-.07.58.58,0,0,0,0-.14l-.05-.09,0,0L32.8,17l0-.06-.06-.07h0l0,0h0l-.09-.08h0l0,0-.08-.05-.05,0a1.18,1.18,0,0,0-1.18,0l-1.81,1.05L27.08,19a1.22,1.22,0,0,0-.44,1.65,1.24,1.24,0,0,0,.44.44,1.19,1.19,0,0,0,1.21,0l4.14-2.39.12-.07.06,0,.06-.06,0,0,.08-.09s0,0,0,0,0,0,0,0a.25.25,0,0,0,0-.07h0a.36.36,0,0,0,0-.09h0a.14.14,0,0,0,0-.06A.16.16,0,0,0,33,18v0a.29.29,0,0,0,0-.09h0a.13.13,0,0,0,0-.06.76.76,0,0,0,0-.15v-.13Zm-5,3.12a.7.7,0,0,1-.95-.25.69.69,0,1,1,1.2-.7A.7.7,0,0,1,28,20.67Z"/><g class="cls-4"><polygon class="cls-1" points="26.89 20.75 27 20.86 26.89 20.86 26.89 20.75"/><polygon class="cls-1" points="26.89 20.63 27.12 20.86 27 20.86 26.89 20.75 26.89 20.63"/><polygon class="cls-1" points="26.89 20.51 27.23 20.86 27.12 20.86 26.89 20.63 26.89 20.51"/><polygon class="cls-1" points="26.89 20.4 27.34 20.86 27.23 20.86 26.89 20.51 26.89 20.4"/><polygon class="cls-1" points="26.89 20.28 27.46 20.86 27.34 20.86 26.89 20.4 26.89 20.28"/><polygon class="cls-1" points="26.89 20.16 27.57 20.86 27.46 20.86 26.89 20.28 26.89 20.16"/><polygon class="cls-1" points="26.89 20.04 27.69 20.86 27.57 20.86 26.89 20.16 26.89 20.04"/><polygon class="cls-1" points="26.89 19.93 27.8 20.86 27.69 20.86 26.89 20.04 26.89 19.93"/><polygon class="cls-1" points="26.89 19.81 27.91 20.86 27.8 20.86 26.89 19.93 26.89 19.81"/><polygon class="cls-1" points="26.89 19.69 28.03 20.86 27.91 20.86 26.89 19.81 26.89 19.69"/><polygon class="cls-1" points="26.89 19.57 28.14 20.86 28.03 20.86 26.89 19.69 26.89 19.57"/><polygon class="cls-1" points="26.89 19.45 28.25 20.86 28.14 20.86 26.89 19.57 26.89 19.45"/><polygon class="cls-1" points="26.89 19.34 28.37 20.86 28.25 20.86 26.89 19.45 26.89 19.34"/><polygon class="cls-1" points="26.94 19.27 28.48 20.86 28.37 20.86 26.89 19.34 26.89 19.27 26.94 19.27"/><polygon class="cls-1" points="27.06 19.27 28.48 20.75 28.48 20.86 28.48 20.86 26.94 19.27 27.06 19.27"/><polygon class="cls-1" points="27.17 19.27 28.48 20.63 28.48 20.75 27.06 19.27 27.17 19.27"/><polygon class="cls-1" points="27.29 19.27 28.48 20.51 28.48 20.63 27.17 19.27 27.29 19.27"/><polygon class="cls-1" points="27.4 19.27 28.48 20.39 28.48 20.51 27.29 19.27 27.4 19.27"/><polygon class="cls-1" points="27.51 19.27 28.48 20.27 28.48 20.39 27.4 19.27 27.51 19.27"/><polygon class="cls-1" points="27.63 19.27 28.48 20.16 28.48 20.27 27.51 19.27 27.63 19.27"/><polygon class="cls-1" points="27.74 19.27 28.48 20.04 28.48 20.16 27.63 19.27 27.74 19.27"/><polygon class="cls-1" points="27.85 19.27 28.48 19.92 28.48 20.04 27.74 19.27 27.85 19.27"/><polygon class="cls-1" points="27.97 19.27 28.48 19.8 28.48 19.92 27.85 19.27 27.97 19.27"/><polygon class="cls-1" points="28.08 19.27 28.48 19.69 28.48 19.8 27.97 19.27 28.08 19.27"/><polygon class="cls-1" points="28.2 19.27 28.48 19.57 28.48 19.69 28.08 19.27 28.2 19.27"/><polygon class="cls-1" points="28.31 19.27 28.48 19.45 28.48 19.57 28.2 19.27 28.31 19.27"/><polygon class="cls-1" points="28.42 19.27 28.48 19.33 28.48 19.45 28.31 19.27 28.42 19.27"/><polygon class="cls-1" points="28.48 19.33 28.42 19.27 28.48 19.27 28.48 19.33"/><polygon class="cls-1" points="26.31 20.38 27.24 21.34 26.31 21.34 26.31 20.38"/><polygon class="cls-1" points="26.31 20.26 27.35 21.34 27.24 21.34 26.31 20.38 26.31 20.26"/><polygon class="cls-1" points="26.31 20.14 27.46 21.34 27.35 21.34 26.31 20.26 26.31 20.14"/><polygon class="cls-1" points="26.31 20.02 27.58 21.34 27.46 21.34 26.31 20.14 26.31 20.02"/><polygon class="cls-1" points="26.31 19.91 27.69 21.34 27.58 21.34 26.31 20.02 26.31 19.91"/><polygon class="cls-1" points="26.31 19.79 27.8 21.34 27.69 21.34 26.31 19.91 26.31 19.79"/><polygon class="cls-1" points="26.31 19.67 27.92 21.34 27.8 21.34 26.31 19.79 26.31 19.67"/><polygon class="cls-1" points="26.31 19.55 28.03 21.34 27.92 21.34 26.31 19.67 26.31 19.55"/><polygon class="cls-1" points="26.31 19.44 28.15 21.34 28.03 21.34 26.31 19.55 26.31 19.44"/><polygon class="cls-1" points="26.31 19.32 28.26 21.34 28.15 21.34 26.31 19.44 26.31 19.32"/><polygon class="cls-1" points="26.31 19.2 28.37 21.34 28.26 21.34 26.31 19.32 26.31 19.2"/><polygon class="cls-1" points="26.31 19.08 28.49 21.34 28.37 21.34 26.31 19.2 26.31 19.08"/><polygon class="cls-1" points="26.31 18.99 26.32 18.98 28.6 21.34 28.49 21.34 26.31 19.08 26.31 18.99"/><polygon class="cls-1" points="26.32 18.98 26.38 18.92 28.71 21.34 28.6 21.34 26.32 18.98"/><polygon class="cls-1" points="26.38 18.92 26.44 18.86 28.83 21.34 28.71 21.34 26.38 18.92"/><polygon class="cls-1" points="26.44 18.86 26.5 18.81 28.94 21.34 28.83 21.34 26.44 18.86"/><polygon class="cls-1" points="26.5 18.81 26.55 18.75 29.05 21.34 28.94 21.34 26.5 18.81"/><polygon class="cls-1" points="26.55 18.75 26.61 18.69 29.17 21.34 29.05 21.34 26.55 18.75"/><polygon class="cls-1" points="26.61 18.69 26.67 18.64 29.28 21.34 29.17 21.34 26.61 18.69"/><polygon class="cls-1" points="26.67 18.64 26.73 18.58 29.4 21.34 29.28 21.34 26.67 18.64"/><polygon class="cls-1" points="26.73 18.58 26.79 18.52 29.51 21.34 29.4 21.34 26.73 18.58"/><polygon class="cls-1" points="26.79 18.52 26.85 18.47 29.62 21.34 29.51 21.34 26.79 18.52"/><polygon class="cls-1" points="26.85 18.47 26.91 18.41 29.74 21.34 29.62 21.34 26.85 18.47"/><polygon class="cls-1" points="26.91 18.41 26.97 18.35 29.85 21.34 29.74 21.34 26.91 18.41"/><polygon class="cls-1" points="26.97 18.35 27.02 18.3 29.96 21.34 29.85 21.34 26.97 18.35"/><polygon class="cls-1" points="27.02 18.3 27.08 18.24 30.08 21.34 29.96 21.34 27.02 18.3"/><polygon class="cls-1" points="27.08 18.24 27.14 18.18 30.19 21.34 30.08 21.34 27.08 18.24"/><polygon class="cls-1" points="27.14 18.18 27.2 18.13 30.31 21.34 30.19 21.34 27.14 18.18"/><polygon class="cls-1" points="27.2 18.13 27.26 18.07 30.39 21.31 30.36 21.34 30.31 21.34 27.2 18.13"/><rect class="cls-1" x="28.81" y="17.41" width="0.08" height="4.5" transform="translate(-5.56 25.56) rotate(-44)"/><rect class="cls-1" x="28.87" y="17.35" width="0.08" height="4.5" transform="translate(-5.5 25.59) rotate(-44)"/><rect class="cls-1" x="28.93" y="17.29" width="0.08" height="4.5" transform="translate(-5.45 25.61) rotate(-44)"/><rect class="cls-1" x="28.99" y="17.24" width="0.08" height="4.5" transform="translate(-5.39 25.64) rotate(-44)"/><rect class="cls-1" x="29.05" y="17.18" width="0.08" height="4.5" transform="translate(-5.33 25.66) rotate(-44)"/><rect class="cls-1" x="29.11" y="17.12" width="0.08" height="4.5" transform="translate(-5.28 25.69) rotate(-44)"/><rect class="cls-1" x="29.17" y="17.07" width="0.08" height="4.5" transform="translate(-5.22 25.71) rotate(-44)"/><rect class="cls-1" x="29.23" y="17.01" width="0.08" height="4.5" transform="translate(-5.17 25.74) rotate(-44)"/><rect class="cls-1" x="29.28" y="16.95" width="0.08" height="4.5" transform="translate(-5.11 25.76) rotate(-44)"/><rect class="cls-1" x="29.34" y="16.9" width="0.08" height="4.5" transform="translate(-5.05 25.79) rotate(-44)"/><rect class="cls-1" x="29.4" y="16.84" width="0.08" height="4.5" transform="translate(-5 25.81) rotate(-44)"/><rect class="cls-1" x="29.46" y="16.78" width="0.08" height="4.5" transform="translate(-4.94 25.84) rotate(-44)"/><rect class="cls-1" x="29.52" y="16.73" width="0.08" height="4.5" transform="translate(-4.89 25.86) rotate(-44)"/><rect class="cls-1" x="29.58" y="16.67" width="0.08" height="4.5" transform="translate(-4.83 25.89) rotate(-44)"/><rect class="cls-1" x="29.64" y="16.61" width="0.08" height="4.5" transform="translate(-4.77 25.91) rotate(-44)"/><rect class="cls-1" x="29.7" y="16.56" width="0.08" height="4.5" transform="translate(-4.72 25.94) rotate(-44)"/><rect class="cls-1" x="29.75" y="16.5" width="0.08" height="4.5" transform="translate(-4.66 25.96) rotate(-44)"/><rect class="cls-1" x="29.81" y="16.44" width="0.08" height="4.5" transform="translate(-4.61 25.99) rotate(-44)"/><rect class="cls-1" x="29.87" y="16.38" width="0.08" height="4.5" transform="translate(-4.55 26.01) rotate(-44)"/><rect class="cls-1" x="29.93" y="16.33" width="0.08" height="4.5" transform="translate(-4.49 26.04) rotate(-44)"/><rect class="cls-1" x="29.99" y="16.27" width="0.08" height="4.5" transform="translate(-4.44 26.06) rotate(-44)"/><rect class="cls-1" x="30.05" y="16.21" width="0.08" height="4.5" transform="translate(-4.38 26.09) rotate(-44)"/><rect class="cls-1" x="30.11" y="16.16" width="0.08" height="4.5" transform="translate(-4.33 26.11) rotate(-44)"/><rect class="cls-1" x="30.17" y="16.1" width="0.08" height="4.5" transform="translate(-4.27 26.13) rotate(-44)"/><rect class="cls-1" x="30.23" y="16.04" width="0.08" height="4.5" transform="translate(-4.21 26.16) rotate(-44)"/><rect class="cls-1" x="30.28" y="15.99" width="0.08" height="4.5" transform="translate(-4.16 26.18) rotate(-44)"/><rect class="cls-1" x="30.34" y="15.93" width="0.08" height="4.5" transform="translate(-4.1 26.21) rotate(-44)"/><rect class="cls-1" x="30.4" y="15.87" width="0.08" height="4.5" transform="translate(-4.05 26.23) rotate(-44)"/><rect class="cls-1" x="30.46" y="15.82" width="0.08" height="4.5" transform="translate(-3.99 26.26) rotate(-44)"/><polygon class="cls-1" points="28.97 16.42 28.97 16.41 29.07 16.41 32.15 19.6 32.1 19.66 28.97 16.42"/><polygon class="cls-1" points="29.19 16.41 32.21 19.55 32.15 19.6 29.07 16.41 29.19 16.41"/><polygon class="cls-1" points="29.3 16.41 32.27 19.49 32.21 19.55 29.19 16.41 29.3 16.41"/><polygon class="cls-1" points="29.41 16.41 32.33 19.43 32.27 19.49 29.3 16.41 29.41 16.41"/><polygon class="cls-1" points="29.53 16.41 32.39 19.38 32.33 19.43 29.41 16.41 29.53 16.41"/><polygon class="cls-1" points="29.64 16.41 32.45 19.32 32.39 19.38 29.53 16.41 29.64 16.41"/><polygon class="cls-1" points="29.76 16.41 32.51 19.26 32.45 19.32 29.64 16.41 29.76 16.41"/><polygon class="cls-1" points="29.87 16.41 32.57 19.21 32.51 19.26 29.76 16.41 29.87 16.41"/><polygon class="cls-1" points="29.98 16.41 32.63 19.15 32.57 19.21 29.87 16.41 29.98 16.41"/><polygon class="cls-1" points="30.1 16.41 32.68 19.09 32.63 19.15 29.98 16.41 30.1 16.41"/><polygon class="cls-1" points="30.21 16.41 32.74 19.04 32.68 19.09 30.1 16.41 30.21 16.41"/><polygon class="cls-1" points="30.32 16.41 32.8 18.98 32.74 19.04 30.21 16.41 30.32 16.41"/><polygon class="cls-1" points="33.03 18.75 32.8 18.98 30.32 16.41 33.03 16.41 33.03 18.75"/></g><path class="cls-1" d="M16.68,19l-2.33-1.34-1.81-1.05a1.2,1.2,0,0,0-1.24,0l-.09.06h0l-.1.1-.07.07,0,.06h0l-.08.12a.91.91,0,0,0-.07.14h0a.14.14,0,0,1,0,.06v0l0,.07v0a.43.43,0,0,0,0,.11.22.22,0,0,0,0,.08s0,0,0,.05a.07.07,0,0,0,0,.05,1.2,1.2,0,0,0,.61,1l1.81,1.05,2.33,1.34a1.2,1.2,0,0,0,1.65-.44A1.22,1.22,0,0,0,16.68,19Zm0,1.4a.7.7,0,1,1-.26-1A.71.71,0,0,1,16.68,20.42Z"/><g class="cls-5"><rect class="cls-1" x="15.28" y="19.27" width="1.59" height="1.59"/><polygon class="cls-1" points="12.45 16.4 10.72 17.85 10.72 16.4 12.45 16.4"/><polygon class="cls-1" points="12.54 16.4 10.72 17.92 10.72 17.85 12.45 16.4 12.54 16.4"/><polygon class="cls-1" points="12.62 16.4 10.72 18 10.72 17.92 12.54 16.4 12.62 16.4"/><polygon class="cls-1" points="12.71 16.4 10.72 18.07 10.72 18 12.62 16.4 12.71 16.4"/><polygon class="cls-1" points="12.79 16.4 10.72 18.14 10.72 18.07 12.71 16.4 12.79 16.4"/><polygon class="cls-1" points="12.88 16.4 10.72 18.21 10.72 18.14 12.79 16.4 12.88 16.4"/><polygon class="cls-1" points="12.96 16.4 10.72 18.28 10.72 18.21 12.88 16.4 12.96 16.4"/><polygon class="cls-1" points="13.05 16.4 10.72 18.35 10.72 18.28 12.96 16.4 13.05 16.4"/><polygon class="cls-1" points="13.14 16.4 10.72 18.43 10.72 18.35 13.05 16.4 13.14 16.4"/><polygon class="cls-1" points="13.22 16.4 10.72 18.5 10.72 18.43 13.14 16.4 13.22 16.4"/><polygon class="cls-1" points="13.31 16.4 10.72 18.57 10.72 18.5 13.22 16.4 13.31 16.4"/><polygon class="cls-1" points="13.39 16.4 10.72 18.64 10.72 18.57 13.31 16.4 13.39 16.4"/><polygon class="cls-1" points="13.48 16.4 10.72 18.71 10.72 18.64 13.39 16.4 13.48 16.4"/><polygon class="cls-1" points="13.56 16.4 10.72 18.79 10.72 18.71 13.48 16.4 13.56 16.4"/><polygon class="cls-1" points="13.65 16.4 10.72 18.86 10.72 18.79 13.56 16.4 13.65 16.4"/><polygon class="cls-1" points="13.73 16.4 10.75 18.91 10.72 18.87 10.72 18.86 13.65 16.4 13.73 16.4"/><polygon class="cls-1" points="13.82 16.4 10.79 18.95 10.75 18.91 13.73 16.4 13.82 16.4"/><polygon class="cls-1" points="13.91 16.4 10.82 18.99 10.79 18.95 13.82 16.4 13.91 16.4"/><polygon class="cls-1" points="13.99 16.4 10.86 19.03 10.82 18.99 13.91 16.4 13.99 16.4"/><polygon class="cls-1" points="14.08 16.4 10.89 19.07 10.86 19.03 13.99 16.4 14.08 16.4"/><polygon class="cls-1" points="14.16 16.4 10.93 19.12 10.89 19.07 14.08 16.4 14.16 16.4"/><polygon class="cls-1" points="14.25 16.4 10.97 19.16 10.93 19.12 14.16 16.4 14.25 16.4"/><polygon class="cls-1" points="14.34 16.4 11 19.2 10.97 19.16 14.25 16.4 14.34 16.4"/><polygon class="cls-1" points="14.42 16.4 11.04 19.24 11 19.2 14.34 16.4 14.42 16.4"/><polygon class="cls-1" points="14.51 16.4 11.07 19.29 11.04 19.24 14.42 16.4 14.51 16.4"/><polygon class="cls-1" points="14.59 16.4 11.11 19.33 11.07 19.29 14.51 16.4 14.59 16.4"/><polygon class="cls-1" points="14.68 16.4 11.14 19.37 11.11 19.33 14.59 16.4 14.68 16.4"/><polygon class="cls-1" points="14.76 16.4 11.18 19.41 11.14 19.37 14.68 16.4 14.76 16.4"/><polygon class="cls-1" points="14.85 16.4 11.21 19.45 11.18 19.41 14.76 16.4 14.85 16.4"/><polygon class="cls-1" points="14.94 16.4 11.25 19.5 11.21 19.45 14.85 16.4 14.94 16.4"/><polygon class="cls-1" points="15.02 16.4 11.28 19.54 11.25 19.5 14.94 16.4 15.02 16.4"/><polygon class="cls-1" points="15.11 16.4 11.32 19.58 11.28 19.54 15.02 16.4 15.11 16.4"/><polygon class="cls-1" points="15.19 16.4 11.36 19.62 11.32 19.58 15.11 16.4 15.19 16.4"/><polygon class="cls-1" points="15.28 16.4 11.39 19.66 11.36 19.62 15.19 16.4 15.28 16.4"/><polygon class="cls-1" points="15.3 16.4 15.33 16.43 11.43 19.71 11.39 19.66 15.28 16.4 15.3 16.4"/><rect class="cls-1" x="10.85" y="18.06" width="5.09" height="0.06" transform="translate(-8.5 12.84) rotate(-40)"/><rect class="cls-1" x="10.88" y="18.11" width="5.09" height="0.06" transform="translate(-8.51 12.87) rotate(-40)"/><rect class="cls-1" x="10.92" y="18.15" width="5.09" height="0.06" transform="translate(-8.53 12.91) rotate(-40)"/><rect class="cls-1" x="10.95" y="18.19" width="5.09" height="0.06" transform="translate(-8.55 12.94) rotate(-40)"/><rect class="cls-1" x="10.99" y="18.23" width="5.09" height="0.06" transform="translate(-8.57 12.97) rotate(-40)"/><rect class="cls-1" x="11.02" y="18.27" width="5.09" height="0.06" transform="translate(-8.59 13) rotate(-40)"/><rect class="cls-1" x="11.06" y="18.32" width="5.09" height="0.06" transform="translate(-8.61 13.04) rotate(-40)"/><rect class="cls-1" x="11.1" y="18.36" width="5.09" height="0.06" transform="translate(-8.63 13.07) rotate(-40)"/><rect class="cls-1" x="11.13" y="18.4" width="5.09" height="0.06" transform="translate(-8.65 13.1) rotate(-40)"/><rect class="cls-1" x="11.17" y="18.44" width="5.09" height="0.06" transform="translate(-8.66 13.14) rotate(-40)"/><rect class="cls-1" x="11.2" y="18.49" width="5.09" height="0.06" transform="translate(-8.68 13.17) rotate(-40)"/><rect class="cls-1" x="11.24" y="18.53" width="5.09" height="0.06" transform="translate(-8.7 13.2) rotate(-40)"/><rect class="cls-1" x="11.27" y="18.57" width="5.09" height="0.06" transform="translate(-8.72 13.23) rotate(-40)"/><rect class="cls-1" x="11.31" y="18.61" width="5.09" height="0.06" transform="translate(-8.74 13.27) rotate(-40)"/><rect class="cls-1" x="11.34" y="18.65" width="5.09" height="0.06" transform="translate(-8.76 13.3) rotate(-40)"/><rect class="cls-1" x="11.38" y="18.7" width="5.09" height="0.06" transform="translate(-8.78 13.33) rotate(-40)"/><rect class="cls-1" x="11.41" y="18.74" width="5.09" height="0.06" transform="translate(-8.8 13.36) rotate(-40)"/><rect class="cls-1" x="11.45" y="18.78" width="5.09" height="0.06" transform="translate(-8.82 13.4) rotate(-40)"/><rect class="cls-1" x="11.48" y="18.82" width="5.09" height="0.06" transform="translate(-8.83 13.43) rotate(-40)"/><rect class="cls-1" x="11.52" y="18.86" width="5.09" height="0.06" transform="translate(-8.85 13.46) rotate(-40)"/><rect class="cls-1" x="11.56" y="18.91" width="5.09" height="0.06" transform="translate(-8.87 13.49) rotate(-40)"/><rect class="cls-1" x="11.59" y="18.95" width="5.09" height="0.06" transform="translate(-8.89 13.53) rotate(-40)"/><rect class="cls-1" x="11.63" y="18.99" width="5.09" height="0.06" transform="translate(-8.91 13.56) rotate(-40)"/><rect class="cls-1" x="11.66" y="19.03" width="5.09" height="0.06" transform="translate(-8.93 13.59) rotate(-40)"/><rect class="cls-1" x="11.7" y="19.08" width="5.09" height="0.06" transform="translate(-8.95 13.62) rotate(-40)"/><rect class="cls-1" x="11.73" y="19.12" width="5.09" height="0.06" transform="translate(-8.97 13.66) rotate(-40)"/><rect class="cls-1" x="11.77" y="19.16" width="5.09" height="0.06" transform="translate(-8.98 13.69) rotate(-40)"/><rect class="cls-1" x="11.8" y="19.2" width="5.09" height="0.06" transform="translate(-9 13.72) rotate(-40)"/><rect class="cls-1" x="11.84" y="19.24" width="5.09" height="0.06" transform="translate(-9.02 13.75) rotate(-40)"/><rect class="cls-1" x="11.87" y="19.29" width="5.09" height="0.06" transform="translate(-9.04 13.79) rotate(-40)"/><rect class="cls-1" x="11.91" y="19.33" width="5.09" height="0.06" transform="translate(-9.06 13.82) rotate(-40)"/><rect class="cls-1" x="11.94" y="19.37" width="5.09" height="0.06" transform="translate(-9.08 13.85) rotate(-40)"/><rect class="cls-1" x="11.98" y="19.41" width="5.09" height="0.06" transform="translate(-9.1 13.89) rotate(-40)"/><rect class="cls-1" x="12.02" y="19.46" width="5.09" height="0.06" transform="translate(-9.12 13.92) rotate(-40)"/><rect class="cls-1" x="12.05" y="19.5" width="5.09" height="0.06" transform="translate(-9.14 13.95) rotate(-40)"/><polygon class="cls-1" points="16.57 17.91 17.45 18.96 17.45 21.45 12.89 21.45 12.66 21.18 16.57 17.91"/></g><ellipse class="cls-2" cx="31.2" cy="28.8" rx="1.92" ry="1.94" transform="translate(-11.23 30.47) rotate(-44.96)"/><circle class="cls-2" cx="21.88" cy="11.93" r="1.93"/><ellipse class="cls-2" cx="11.93" cy="29.17" rx="1.92" ry="1.94" transform="translate(-17.14 17) rotate(-45.04)"/></svg>