<svg id="Layer_1" data-name="Layer 1" xmlns="http://www.w3.org/2000/svg" viewBox="0 0 114 114"><defs><style>.cls-1{fill:#0e1c2a;}.cls-2{fill:#1f64ff;}.cls-3{fill:#ff1036;}</style></defs><path class="cls-1" d="M114,61.82A57.66,57.66,0,0,1,.14,62a12.34,12.34,0,0,0,8.25,3.17h0a12.31,12.31,0,0,0,8.76-3.64A40.58,40.58,0,0,0,25,78c.22.29.46.58.69.86a41,41,0,0,0,6.73,6.43,38.15,38.15,0,0,0,3.67,2.49,40.83,40.83,0,0,0,42,0,39,39,0,0,0,3.77-2.56,41.21,41.21,0,0,0,6.63-6.37c.26-.31.51-.63.76-1a40.61,40.61,0,0,0,7.67-16.22,12.37,12.37,0,0,0,8.59,3.49h0A12.35,12.35,0,0,0,114,61.82Z"/><path class="cls-2" d="M113.93,52.79a8.42,8.42,0,0,1-8.41,8.42h0A8.4,8.4,0,0,1,98.91,58a8.24,8.24,0,0,1-1.16-2h0a8.45,8.45,0,0,1,0-6.45h0a8.41,8.41,0,0,1,16.18,3.23Z"/><path class="cls-2" d="M16.82,52.79a8.31,8.31,0,0,1-.49,2.84h0A8.2,8.2,0,0,1,15,58a8.39,8.39,0,0,1-6.61,3.22h0A8.42,8.42,0,1,1,15,47.6,8.2,8.2,0,0,1,16.33,50h0A8.29,8.29,0,0,1,16.82,52.79Z"/><path class="cls-3" d="M23.79,16.52l-.07-.11h0Z"/><path class="cls-1" d="M85.45,24.17,69.07,49.69a12.43,12.43,0,0,0-9.86-9.1h0a13.13,13.13,0,0,0-2.1-.17,12.73,12.73,0,0,0-1.86.13l-.27.05a12.34,12.34,0,0,0-7.61,4.55,12.21,12.21,0,0,0-2.25,4.55L28.7,24.17a11.85,11.85,0,0,0,1.35.16c.26,0,.52,0,.79,0h0a9.47,9.47,0,0,0,1.07-.05,12.39,12.39,0,0,0,10.92-9.2L57.07,37.27,71.28,15.12a12.4,12.4,0,0,0,11.18,9.21c.26,0,.52,0,.79,0h0a9.58,9.58,0,0,0,1.07-.05C84.71,24.28,85.08,24.23,85.45,24.17Z"/><path class="cls-2" d="M91.68,12a7.68,7.68,0,0,1-.1,1.27,8.36,8.36,0,0,1-1.17,3.17,8,8,0,0,1-.53.76A8.41,8.41,0,0,1,84,20.35c-.23,0-.48,0-.72,0h0a4.61,4.61,0,0,1-.53,0A8.39,8.39,0,0,1,74.86,12c0-.25,0-.49,0-.73a8.15,8.15,0,0,1,.93-3.18,8.6,8.6,0,0,1,.83-1.29A8.46,8.46,0,0,1,82,3.65a8.93,8.93,0,0,1,1.27-.09,8.38,8.38,0,0,1,6.61,3.21,8.36,8.36,0,0,1,1.78,4.65C91.67,11.6,91.68,11.78,91.68,12Z"/><path class="cls-2" d="M39.27,12a8.93,8.93,0,0,1-.09,1.27,8.43,8.43,0,0,1-7.59,7.11c-.24,0-.48,0-.73,0h0a4.78,4.78,0,0,1-.54,0,8.39,8.39,0,0,1-6.06-3.19c-.16-.2-.31-.41-.45-.62v0l-.07-.11a8.26,8.26,0,0,1-1.15-3A8.45,8.45,0,0,1,22.45,12c0-.25,0-.49,0-.73a8.3,8.3,0,0,1,1.77-4.47,8.41,8.41,0,0,1,5.34-3.12,8.93,8.93,0,0,1,1.27-.09,8.38,8.38,0,0,1,6.61,3.21A7.77,7.77,0,0,1,38.28,8a8.36,8.36,0,0,1,1,3.41C39.26,11.6,39.27,11.78,39.27,12Z"/><path class="cls-3" d="M23.79,16.52l-.07-.11h0Z"/><path class="cls-2" d="M65.48,52.79a8.83,8.83,0,0,1-.09,1.27,8.48,8.48,0,0,1-1.27,3.32,6.76,6.76,0,0,1-.44.61,8.37,8.37,0,0,1-5.88,3.18,5.85,5.85,0,0,1-.73,0h0l-.54,0A8.36,8.36,0,0,1,50.46,58a6.76,6.76,0,0,1-.44-.61,8.46,8.46,0,0,1-1.24-3.16,8.36,8.36,0,0,1-.12-1.43q0-.36,0-.72A8.43,8.43,0,0,1,49.57,49l.11-.2h0l.65-1h0l.13-.17a8.35,8.35,0,0,1,5.35-3.12,8.68,8.68,0,0,1,1.26-.1,8.36,8.36,0,0,1,6.61,3.22,1.24,1.24,0,0,1,.14.18l.63,1,.12.22a8.37,8.37,0,0,1,.89,3.26A5.15,5.15,0,0,1,65.48,52.79Z"/><path class="cls-1" d="M28.08,24h0c-.84.85-1.64,1.74-2.41,2.66-.35.42-.7.86-1,1.3a40.66,40.66,0,0,0-7.45,16,12.37,12.37,0,0,0-17-.47A57.49,57.49,0,0,1,12.65,16a59.06,59.06,0,0,1,6-6.24h0A12,12,0,0,0,18.48,12a12.38,12.38,0,0,0,7.18,11.24A11.92,11.92,0,0,0,28.08,24Z"/><path class="cls-1" d="M114,43.77a12.37,12.37,0,0,0-17.09.13,40.62,40.62,0,0,0-7.33-15.78c-.35-.47-.72-.93-1.1-1.39-.77-.93-1.59-1.82-2.44-2.68h0a12.28,12.28,0,0,0,2.15-.7l.26-.12c.17-.07.34-.16.51-.24l.26-.14.54-.32.06,0,.2-.12.26-.18A12.36,12.36,0,0,0,95.66,12a12.73,12.73,0,0,0-.18-2.15,58.67,58.67,0,0,1,6.08,6.33A57.35,57.35,0,0,1,114,43.77Z"/></svg>