<svg id="Layer_1" data-name="Layer 1" xmlns="http://www.w3.org/2000/svg" viewBox="0 0 120 120"><defs><style>.cls-1{fill:#0e1c2a;}.cls-2{fill:#1f64ff;}.cls-3{fill:#ff1036;}</style></defs><path class="cls-1" d="M120,65.07A60.69,60.69,0,0,1,.15,65.28a13,13,0,0,0,8.68,3.33h0a13,13,0,0,0,9.22-3.83,42.74,42.74,0,0,0,8.2,17.36c.24.31.48.61.73.9a43.2,43.2,0,0,0,7.08,6.77,43,43,0,0,0,48.1,2.6,39.61,39.61,0,0,0,4-2.7,43,43,0,0,0,7-6.7c.27-.33.54-.66.8-1A42.77,42.77,0,0,0,102,64.94a13,13,0,0,0,9,3.67h0A13,13,0,0,0,120,65.07Z"/><path class="cls-2" d="M119.93,55.57a8.84,8.84,0,0,1-8.85,8.86h0a8.84,8.84,0,0,1-6.94-3.38A8.67,8.67,0,0,1,102.9,59h0a8.82,8.82,0,0,1,0-6.79h0a8.61,8.61,0,0,1,1.22-2.07,8.85,8.85,0,0,1,15.81,5.47Z"/><path class="cls-2" d="M17.71,55.57a8.7,8.7,0,0,1-.52,3h0a8.87,8.87,0,0,1-8.33,5.87h0a8.84,8.84,0,1,1,8.35-11.85h0A8.74,8.74,0,0,1,17.71,55.57Z"/><path class="cls-3" d="M25,17.39,25,17.28h0Z"/><path class="cls-1" d="M90,25.44,72.7,52.3a12.89,12.89,0,0,0-2.37-4.79,13.12,13.12,0,0,0-8-4.79h0a13.48,13.48,0,0,0-2.22-.19,12.74,12.74,0,0,0-2,.15l-.28,0A13,13,0,0,0,47.45,52.3L30.21,25.44a13.11,13.11,0,0,0,1.42.17c.27,0,.55,0,.83,0h0a10.49,10.49,0,0,0,1.12-.05A13,13,0,0,0,45.1,15.9l15,23.33L75,15.92a12.8,12.8,0,0,0,2.36,4.74,13,13,0,0,0,9.4,4.95c.27,0,.55,0,.83,0h0a10.68,10.68,0,0,0,1.13-.05A11.7,11.7,0,0,0,90,25.44Z"/><path class="cls-2" d="M96.5,12.6a8.33,8.33,0,0,1-.1,1.33,8.79,8.79,0,0,1-1.23,3.34,7.62,7.62,0,0,1-.56.8,8.87,8.87,0,0,1-6.2,3.35c-.25,0-.5,0-.76,0h0a5.24,5.24,0,0,1-.56,0,8.8,8.8,0,0,1-6.38-3.36,8.91,8.91,0,0,1-1.77-4,9.29,9.29,0,0,1-.12-1.5c0-.26,0-.51,0-.77a8.85,8.85,0,0,1,1-3.35,8.69,8.69,0,0,1,.88-1.35,8.81,8.81,0,0,1,5.63-3.28,8.33,8.33,0,0,1,1.33-.1,9.29,9.29,0,0,1,1.5.12A8.86,8.86,0,0,1,96.48,12,5.52,5.52,0,0,1,96.5,12.6Z"/><path class="cls-2" d="M41.34,12.6a9.68,9.68,0,0,1-.1,1.33,8.85,8.85,0,0,1-8,7.49c-.25,0-.51,0-.76,0h0a5.43,5.43,0,0,1-.57,0,8.81,8.81,0,0,1-6.38-3.36c-.16-.21-.32-.43-.46-.65l0,0L25,17.28a8.75,8.75,0,0,1-1.21-3.18,8.28,8.28,0,0,1-.13-1.5c0-.26,0-.51,0-.77a8.85,8.85,0,0,1,7.49-8,8.45,8.45,0,0,1,1.34-.1,9.29,9.29,0,0,1,1.5.12A8.89,8.89,0,0,1,40.3,8.43a8.72,8.72,0,0,1,1,3.59C41.33,12.21,41.34,12.4,41.34,12.6Z"/><path class="cls-3" d="M25,17.39,25,17.28h0Z"/><path class="cls-2" d="M68.93,55.57a9.83,9.83,0,0,1-.1,1.34A8.81,8.81,0,0,1,67.5,60.4c-.15.22-.3.44-.47.65a8.8,8.8,0,0,1-6.19,3.34,6.51,6.51,0,0,1-.77,0h0l-.57,0a8.84,8.84,0,0,1-6.37-3.36c-.17-.21-.32-.43-.47-.65a8.91,8.91,0,0,1-1.3-3.32,8.32,8.32,0,0,1-.13-1.51c0-.25,0-.51,0-.76a8.91,8.91,0,0,1,.93-3.25l.11-.21h0L53,50.28h0l.14-.18a8.82,8.82,0,0,1,5.62-3.28,8.42,8.42,0,0,1,1.33-.1,8.32,8.32,0,0,1,1.51.13A8.81,8.81,0,0,1,67,50.1l.15.19.67,1,.12.23A8.8,8.8,0,0,1,68.91,55C68.92,55.19,68.93,55.38,68.93,55.57Z"/><path class="cls-1" d="M29.56,25.3h0c-.89.89-1.73,1.82-2.54,2.79-.37.45-.74.91-1.09,1.37a42.74,42.74,0,0,0-7.84,16.89A13,13,0,0,0,.15,45.87a60.45,60.45,0,0,1,13.17-29,62.16,62.16,0,0,1,6.32-6.56h0a13.47,13.47,0,0,0-.2,2.3A13,13,0,0,0,27,24.43,12.37,12.37,0,0,0,29.56,25.3Z"/><path class="cls-1" d="M120,46.07a13,13,0,0,0-18,.14A42.86,42.86,0,0,0,94.3,29.6c-.38-.49-.76-1-1.16-1.46-.82-1-1.67-1.92-2.57-2.83h0a13.28,13.28,0,0,0,2.26-.74l.28-.12a5.28,5.28,0,0,0,.53-.27l.27-.14c.2-.1.39-.22.57-.33l.07,0,.21-.14.28-.18a13,13,0,0,0,5.46-13A61.09,61.09,0,0,1,106.9,17,60.41,60.41,0,0,1,120,46.07Z"/></svg>