<svg id="Layer_1" data-name="Layer 1" xmlns="http://www.w3.org/2000/svg" viewBox="0 0 180 180"><defs><style>.cls-1{fill:#0e1c2a;}.cls-2{fill:#1f64ff;}.cls-3{fill:#ff1036;}</style></defs><path class="cls-1" d="M180,97.61a91,91,0,0,1-179.77.3,19.47,19.47,0,0,0,13,5h0a19.43,19.43,0,0,0,13.83-5.74,64.26,64.26,0,0,0,12.31,26c.36.46.73.91,1.1,1.36a64.93,64.93,0,0,0,10.61,10.15,67.07,67.07,0,0,0,5.8,3.93,64.49,64.49,0,0,0,82.78-14.14c.4-.49.8-1,1.2-1.49A64.2,64.2,0,0,0,153,97.4a19.46,19.46,0,0,0,13.57,5.51h0A19.48,19.48,0,0,0,180,97.61Z"/><path class="cls-2" d="M179.89,83.36a13.28,13.28,0,0,1-13.28,13.28h0a13.28,13.28,0,0,1-10.42-5.07,13.08,13.08,0,0,1-1.82-3.11h0a13.26,13.26,0,0,1,0-10.2h0a13.08,13.08,0,0,1,1.82-3.11,13.28,13.28,0,0,1,23.72,8.21Z"/><path class="cls-2" d="M26.56,83.36a13.3,13.3,0,0,1-.77,4.48h0a13.33,13.33,0,0,1-12.51,8.79h0A13.26,13.26,0,1,1,25.79,78.87h0A13.3,13.3,0,0,1,26.56,83.36Z"/><path class="cls-3" d="M37.56,26.09l-.11-.17h0S37.52,26,37.56,26.09Z"/><path class="cls-1" d="M134.92,38.16,109.05,78.45A19.57,19.57,0,0,0,93.48,64.09h0A19.79,19.79,0,0,0,87.17,64l-.43.07A19.57,19.57,0,0,0,71.17,78.45L45.31,38.16a18.77,18.77,0,0,0,2.13.26c.42,0,.83,0,1.25,0h0c.57,0,1.13,0,1.69-.07A19.62,19.62,0,0,0,67.66,23.85l22.45,35,22.44-35a19.6,19.6,0,0,0,17.64,14.54c.41,0,.83,0,1.25,0h0c.56,0,1.13,0,1.68-.07S134.34,38.26,134.92,38.16Z"/><path class="cls-2" d="M144.76,18.9a13.56,13.56,0,0,1-2,7,14.32,14.32,0,0,1-.84,1.2,13.3,13.3,0,0,1-9.3,5c-.37,0-.76,0-1.14,0h0c-.28,0-.57,0-.85,0a13.25,13.25,0,0,1-12.21-11,12.81,12.81,0,0,1-.2-2.25c0-.39,0-.77,0-1.15a13.22,13.22,0,0,1,1.48-5,13,13,0,0,1,1.31-2,13.26,13.26,0,0,1,10.45-5.07,12.81,12.81,0,0,1,2.25.19,13.28,13.28,0,0,1,11,12.22C144.74,18.32,144.76,18.61,144.76,18.9Z"/><path class="cls-2" d="M62,18.9A13.27,13.27,0,0,1,49.87,32.13c-.37,0-.75,0-1.14,0h0c-.28,0-.57,0-.84,0a13.26,13.26,0,0,1-9.57-5c-.25-.32-.49-.65-.71-1l0,0c0-.06-.07-.12-.11-.17a13.12,13.12,0,0,1-1.81-4.77,12.81,12.81,0,0,1-.19-2.25c0-.39,0-.77,0-1.15A13.28,13.28,0,0,1,48.73,5.62,12.81,12.81,0,0,1,51,5.81a13.28,13.28,0,0,1,8.19,4.88,12.54,12.54,0,0,1,1.27,2A13.29,13.29,0,0,1,62,18Q62,18.47,62,18.9Z"/><path class="cls-3" d="M37.56,26.09l-.11-.17h0S37.52,26,37.56,26.09Z"/><path class="cls-2" d="M103.39,83.36a13.26,13.26,0,0,1-2.15,7.25,10.56,10.56,0,0,1-.69,1,13.24,13.24,0,0,1-9.29,5c-.38,0-.76,0-1.15,0h0c-.28,0-.57,0-.85,0a13.25,13.25,0,0,1-9.57-5q-.36-.46-.69-1a13.22,13.22,0,0,1-2-5,13.85,13.85,0,0,1-.19-2.25c0-.39,0-.77,0-1.15a13.36,13.36,0,0,1,1.39-4.87c0-.11.11-.21.17-.32h0l1-1.59h0l.2-.27a13.26,13.26,0,0,1,10.44-5.07,12.93,12.93,0,0,1,2.26.19,13.29,13.29,0,0,1,8.18,4.88,3.15,3.15,0,0,1,.22.29l1,1.55.18.35a13,13,0,0,1,1.41,5.15Q103.39,82.93,103.39,83.36Z"/><path class="cls-1" d="M44.34,38h0q-2,2-3.81,4.18c-.56.68-1.11,1.36-1.64,2.06A64.13,64.13,0,0,0,27.11,69.55,19.53,19.53,0,0,0,.23,68.81,91.06,91.06,0,0,1,29.47,15.46a0,0,0,0,1,0,0,19.61,19.61,0,0,0,11,21.2A19.79,19.79,0,0,0,44.34,38Z"/><path class="cls-1" d="M180,69.11a19.55,19.55,0,0,0-27,.21,64.08,64.08,0,0,0-11.56-24.91c-.56-.75-1.15-1.48-1.74-2.2-1.22-1.47-2.51-2.89-3.85-4.24h0a19.19,19.19,0,0,0,3.39-1.1l.42-.19c.27-.12.54-.25.8-.39l.41-.22c.29-.16.57-.32.85-.5l.11-.06.31-.2c.14-.09.28-.18.41-.28a19.52,19.52,0,0,0,8.5-16.12,19,19,0,0,0-.3-3.4,91.59,91.59,0,0,1,9.6,10A90.63,90.63,0,0,1,180,69.11Z"/></svg>