<svg id="Layer_1" data-name="Layer 1" xmlns="http://www.w3.org/2000/svg" viewBox="0 0 60 60"><defs><style>.cls-1{fill:#0e1c2a;}.cls-2{fill:#1f64ff;}.cls-3{fill:#ff1036;}</style></defs><path class="cls-1" d="M60,32.54A30.35,30.35,0,0,1,19,56.05a30,30,0,0,1-5.47-2.81A30.35,30.35,0,0,1,.08,32.64,6.48,6.48,0,0,0,4.42,34.3h0A6.5,6.5,0,0,0,9,32.39a21.37,21.37,0,0,0,4.1,8.68l.37.45A21.37,21.37,0,0,0,17,44.91c.62.47,1.27.9,1.94,1.31a21.55,21.55,0,0,0,22.12,0c.68-.42,1.35-.87,2-1.35a21.35,21.35,0,0,0,3.49-3.36c.13-.16.27-.32.4-.49a21.39,21.39,0,0,0,4-8.54,6.51,6.51,0,0,0,4.53,1.83h0A6.53,6.53,0,0,0,60,32.54Z"/><path class="cls-2" d="M60,27.79a4.41,4.41,0,0,1-4.42,4.42h0a4.4,4.4,0,0,1-3.47-1.69,4.12,4.12,0,0,1-.61-1h0a4.42,4.42,0,0,1,0-3.4h0a4,4,0,0,1,.61-1A4.42,4.42,0,0,1,60,27.79Z"/><path class="cls-2" d="M8.85,27.79a4.61,4.61,0,0,1-.25,1.49h0a4.7,4.7,0,0,1-.69,1.24,4.42,4.42,0,0,1-3.48,1.69h0A4.4,4.4,0,0,1,1,30.52a4.41,4.41,0,0,1,0-5.47,4.43,4.43,0,0,1,7,0,4.7,4.7,0,0,1,.69,1.24h0A4.63,4.63,0,0,1,8.85,27.79Z"/><path class="cls-3" d="M12.52,8.7l0-.06h0Z"/><path class="cls-1" d="M45,12.72,36.35,26.15a6.56,6.56,0,0,0-5.19-4.79h0a6.53,6.53,0,0,0-1.1-.09,6.28,6.28,0,0,0-1,.07l-.15,0a6.54,6.54,0,0,0-4,2.4,6.4,6.4,0,0,0-1.19,2.39L15.1,12.72c.24,0,.47.07.71.09h.43l.57,0A6.52,6.52,0,0,0,22.55,8L30,19.61,37.52,8a6.36,6.36,0,0,0,1.18,2.37,6.53,6.53,0,0,0,4.7,2.48h.43l.56,0Z"/><path class="cls-2" d="M48.25,6.3a4.91,4.91,0,0,1,0,.67,4.42,4.42,0,0,1-.61,1.67c-.09.13-.18.27-.28.4a4.47,4.47,0,0,1-3.1,1.67l-.38,0h-.3A4.49,4.49,0,0,1,40.34,9,4.39,4.39,0,0,1,39.4,6.3c0-.13,0-.26,0-.38a4.55,4.55,0,0,1,.5-1.68,4.34,4.34,0,0,1,.43-.68,4.47,4.47,0,0,1,2.82-1.64,4.91,4.91,0,0,1,.67,0,3.81,3.81,0,0,1,.75.07A4.39,4.39,0,0,1,48.24,6,2.81,2.81,0,0,1,48.25,6.3Z"/><path class="cls-2" d="M20.67,6.3a4.91,4.91,0,0,1-.05.67,4.43,4.43,0,0,1-4,3.74l-.38,0H16A4.49,4.49,0,0,1,12.76,9l-.23-.33h0l0-.06a4.38,4.38,0,0,1-.66-2.34c0-.13,0-.26,0-.38a4.42,4.42,0,0,1,3.75-4,4.77,4.77,0,0,1,.66,0,3.67,3.67,0,0,1,.75.07,4.41,4.41,0,0,1,2.73,1.62,4.57,4.57,0,0,1,.43.65A4.41,4.41,0,0,1,20.66,6,2.81,2.81,0,0,1,20.67,6.3Z"/><path class="cls-3" d="M12.52,8.7l0-.06h0Z"/><path class="cls-2" d="M34.46,27.79a3.6,3.6,0,0,1-.05.66,4.27,4.27,0,0,1-.66,1.75,3.71,3.71,0,0,1-.23.32,4.44,4.44,0,0,1-3.1,1.68h-.67a4.38,4.38,0,0,1-3.19-1.68,3.71,3.71,0,0,1-.23-.32,4.39,4.39,0,0,1-.66-1.66,4.74,4.74,0,0,1-.06-.75c0-.13,0-.26,0-.39a4.45,4.45,0,0,1,.46-1.62l.06-.11h0l.34-.53h0l.07-.09a4.42,4.42,0,0,1,2.81-1.64,4.91,4.91,0,0,1,.67-.05,4.65,4.65,0,0,1,.75.06,4.47,4.47,0,0,1,2.73,1.63.86.86,0,0,1,.07.1l.33.51.06.12a4.16,4.16,0,0,1,.47,1.72A2.71,2.71,0,0,1,34.46,27.79Z"/><path class="cls-1" d="M14.78,12.65h0a18.51,18.51,0,0,0-1.27,1.39c-.19.23-.37.45-.55.69A21.32,21.32,0,0,0,9,23.18a6.51,6.51,0,0,0-9-.24A30.08,30.08,0,0,1,6.66,8.44,31.67,31.67,0,0,1,9.82,5.15h0a6.23,6.23,0,0,0-.1,1.15,6.52,6.52,0,0,0,3.78,5.92A6.78,6.78,0,0,0,14.78,12.65Z"/><path class="cls-1" d="M60,23a6.51,6.51,0,0,0-9,.07,21.34,21.34,0,0,0-3.85-8.31c-.19-.25-.38-.49-.58-.73-.41-.49-.84-1-1.28-1.41h0a6,6,0,0,0,1.13-.36l.14-.07.27-.13L47,12l.28-.17,0,0,.1-.06.14-.1A6.49,6.49,0,0,0,50.35,6.3a5.94,5.94,0,0,0-.1-1.13A30.33,30.33,0,0,1,60,23Z"/></svg>