<svg fill="none" fill-rule="evenodd" stroke="black" stroke-width="0.501" stroke-linejoin="bevel" stroke-miterlimit="10" xmlns="http://www.w3.org/2000/svg" version="1.1" overflow="visible" viewBox="0 -305.637 223.456 305.637">
<g id="Layer 1" transform="scale(1 -1)">
<rect x="0.043" y="45.131" width="223.37" height="223.369" stroke="none" fill="#ffffff" stroke-linejoin="miter"/>
<g id="Group" stroke-linejoin="miter" stroke-linecap="round" stroke="none" stroke-width="0.25">
<path d="M 111.728,57.58 C 135.658,57.58 157.838,65.115 176.023,77.94 C 171.279,109.355 167.997,123.432 158.177,131.643 C 152.738,136.268 145.332,138.577 134.373,141.767 C 131.521,142.596 126.711,143.982 124.277,144.51 L 124.278,157.903 C 132.054,162.221 138.002,170.432 140.407,180.443 C 145.044,180.721 147.083,182.158 149.096,185.514 C 150.676,188.148 151.954,192.542 150.754,195.8 C 149.682,198.711 147.022,201.832 143.663,201.832 C 142.799,201.832 141.959,201.638 141.183,201.288 C 138.882,218.286 126.521,231.276 111.728,231.276 C 96.935,231.276 84.574,218.286 82.273,201.288 C 81.497,201.638 80.657,201.832 79.793,201.832 C 76.434,201.832 73.774,198.711 72.702,195.8 C 71.502,192.542 72.78,188.148 74.36,185.514 C 76.373,182.158 78.412,180.721 83.049,180.443 C 85.454,170.432 91.402,162.221 99.178,157.903 L 99.179,144.51 C 96.745,143.982 91.935,142.596 89.083,141.767 C 78.124,138.577 70.718,136.268 65.279,131.643 C 55.459,123.432 52.177,109.355 47.433,77.94 C 65.618,65.115 87.798,57.58 111.728,57.58 Z" fill="#f1c9a5" marker-start="none" marker-end="none"/>
<path d="M 111.728,57.58 C 135.658,57.58 157.838,65.115 176.023,77.94 C 171.279,109.355 167.997,123.432 158.177,131.643 C 152.738,136.268 145.332,138.577 134.373,141.767 C 131.521,142.596 126.711,143.982 124.277,144.51 L 124.278,157.903 C 132.054,162.221 138.002,170.432 140.407,180.443 C 145.044,180.721 147.083,182.158 149.096,185.514 C 150.676,188.148 151.954,192.542 150.754,195.8 C 149.682,198.711 147.022,201.832 143.663,201.832 C 142.799,201.832 141.959,201.638 141.183,201.288 C 138.882,218.286 126.521,231.276 111.728,231.276 L 111.728,57.58 Z" fill="#e4b992" marker-start="none" marker-end="none"/>
</g>
<path d="M 64.478,68.044 C 68.61,86.428 71.09,108.78 71.657,135.724 C 76.235,137.961 81.894,139.674 89.083,141.767 C 91.935,142.596 96.745,143.982 99.179,144.51 L 99.178,153.319 L 124.277,153.319 L 124.277,144.51 C 126.711,143.982 131.521,142.596 134.373,141.767 C 141.619,139.657 147.312,137.933 151.801,135.62 C 152.371,108.722 154.852,86.405 158.977,68.044 C 144.625,61.331 128.613,57.58 111.728,57.58 C 94.843,57.58 78.83,61.331 64.478,68.044 Z M 134.528,108.918 C 134.528,121.504 124.313,131.719 111.728,131.719 C 99.143,131.719 88.928,121.504 88.928,108.918 C 88.928,96.334 99.143,86.119 111.728,77.669 C 124.313,86.119 134.528,96.334 134.528,108.918 Z" fill="#333333" stroke-linecap="round" stroke="none" stroke-width="0.25" stroke-linejoin="miter" marker-start="none" marker-end="none"/>
<g id="Group_1" stroke-linejoin="miter" stroke-linecap="round">
<ellipse cx="81.263" cy="169.444" rx="3.6" ry="3.6" fill="#00bf02" stroke="none" stroke-width="0.5"/>
<ellipse cx="142.193" cy="169.444" rx="3.6" ry="3.6" fill="#00bf02" stroke="none" stroke-width="0.5"/>
<path d="M 81.263,182.854 L 81.263,169.444" fill="none" stroke="#333333" stroke-width="2"/>
<path d="M 142.193,182.854 L 142.193,169.444" fill="none" stroke="#333333" stroke-width="2"/>
</g>
<path d="M 66.752,216.975 C 67.056,234.288 83.087,255.317 113.062,252.637 C 111.105,253.759 108.802,254.85 105.702,255.018 C 109.279,255.814 112.879,256.323 116.669,254.142 C 116.092,255.554 115.593,256.925 113.867,259.013 C 116.042,258.18 117.517,257.311 119.342,254.324 C 121.221,256.662 123.519,258.557 127.667,258.487 C 124.305,257.261 123.096,255.23 122.028,252.961 C 127.767,253.667 135.559,252.531 140.32,249.004 C 151.736,240.543 154.669,226.499 154.367,217.037 C 153.959,204.254 147.429,192.287 141.049,183.918 C 142.94,201.159 138.74,221.259 120.14,230.559 C 116.151,217.131 67.049,221.198 93.922,168.944 C 74.753,175.687 66.354,194.345 66.752,216.975 Z" stroke-linejoin="round" stroke="none" stroke-width="0.652" fill="#191919" marker-start="none" marker-end="none"/>
</g>
</svg>
