<svg fill="none" fill-rule="evenodd" stroke="black" stroke-width="0.501" stroke-linejoin="bevel" stroke-miterlimit="10" xmlns="http://www.w3.org/2000/svg" version="1.1" overflow="visible" viewBox="0 -305.637 223.456 305.637">
<g id="Layer 1" transform="scale(1 -1)">
<rect x="0.043" y="45.131" width="223.37" height="223.369" stroke="none" fill="#ffffff" stroke-linejoin="miter"/>
<g id="Group" stroke-linejoin="miter" stroke-linecap="round" stroke="none" stroke-width="0.25">
<path d="M 111.728,57.58 C 135.658,57.58 157.838,65.115 176.023,77.94 C 171.279,109.355 167.997,123.432 158.177,131.643 C 152.738,136.268 145.332,138.577 134.373,141.767 C 131.521,142.596 126.711,143.982 124.277,144.51 L 124.278,157.903 C 132.054,162.221 138.002,170.432 140.407,180.443 C 145.044,180.721 147.083,182.158 149.096,185.514 C 150.676,188.148 151.954,192.542 150.754,195.8 C 149.682,198.711 147.022,201.832 143.663,201.832 C 142.799,201.832 141.959,201.638 141.183,201.288 C 138.882,218.286 126.521,231.276 111.728,231.276 C 96.935,231.276 84.574,218.286 82.273,201.288 C 81.497,201.638 80.657,201.832 79.793,201.832 C 76.434,201.832 73.774,198.711 72.702,195.8 C 71.502,192.542 72.78,188.148 74.36,185.514 C 76.373,182.158 78.412,180.721 83.049,180.443 C 85.454,170.432 91.402,162.221 99.178,157.903 L 99.179,144.51 C 96.745,143.982 91.935,142.596 89.083,141.767 C 78.124,138.577 70.718,136.268 65.279,131.643 C 55.459,123.432 52.177,109.355 47.433,77.94 C 65.618,65.115 87.798,57.58 111.728,57.58 Z" fill="#f1c9a5" marker-start="none" marker-end="none"/>
<path d="M 111.728,57.58 C 135.658,57.58 157.838,65.115 176.023,77.94 C 171.279,109.355 167.997,123.432 158.177,131.643 C 152.738,136.268 145.332,138.577 134.373,141.767 C 131.521,142.596 126.711,143.982 124.277,144.51 L 124.278,157.903 C 132.054,162.221 138.002,170.432 140.407,180.443 C 145.044,180.721 147.083,182.158 149.096,185.514 C 150.676,188.148 151.954,192.542 150.754,195.8 C 149.682,198.711 147.022,201.832 143.663,201.832 C 142.799,201.832 141.959,201.638 141.183,201.288 C 138.882,218.286 126.521,231.276 111.728,231.276 L 111.728,57.58 Z" fill="#e4b992" marker-start="none" marker-end="none"/>
</g>
<path d="M 91.005,188.025 C 89.611,190.137 88.794,193.264 88.985,195.864 C 88.154,197.476 87.102,199.013 83.559,200.053 L 83.709,200.953 C 85.192,200.64 86.667,200.296 88.884,199.272 C 92.268,201.188 97.368,201.189 101.568,200.55 C 104.469,200.109 107.227,199.276 109.668,197.1 C 109.682,197.027 109.697,196.953 109.711,196.88 C 111.072,197.416 112.416,197.41 113.745,196.882 C 113.759,196.955 113.773,197.027 113.788,197.1 C 116.229,199.276 118.987,200.109 121.888,200.55 C 126.088,201.189 131.188,201.188 134.572,199.272 C 136.789,200.296 138.264,200.64 139.747,200.953 L 139.897,200.053 C 136.354,199.013 135.302,197.476 134.471,195.864 C 134.662,193.264 133.845,190.137 132.451,188.025 C 130.539,185.128 126.947,182.888 123.571,183.105 C 119.717,183.353 116.173,185.789 114.238,189.975 C 113.582,191.393 113.388,193.097 113.485,194.793 C 112.334,195.501 111.163,195.514 109.97,194.79 C 110.067,193.095 109.873,191.392 109.218,189.975 C 107.283,185.789 103.739,183.353 99.885,183.105 C 96.509,182.888 92.917,185.128 91.005,188.025 Z M 107.656,190.123 C 108.532,191.955 108.738,194.385 108.233,195.599 C 107.53,197.288 104.655,198.615 101.099,199.187 C 96.885,199.864 91.035,199.845 90.313,195.171 C 89.966,192.92 90.85,190.262 92.045,188.452 C 93.684,185.969 96.763,184.048 99.657,184.234 C 102.961,184.446 105.918,186.488 107.656,190.123 Z M 131.411,188.452 C 132.606,190.262 133.49,192.92 133.143,195.171 C 132.421,199.845 126.571,199.864 122.357,199.187 C 118.801,198.615 115.926,197.288 115.223,195.599 C 114.718,194.385 114.924,191.955 115.8,190.123 C 117.538,186.488 120.495,184.446 123.799,184.234 C 126.693,184.048 129.772,185.969 131.411,188.452 Z" fill="#7f4100" stroke="none" stroke-linejoin="miter" marker-start="none" marker-end="none"/>
<g id="Group_1" stroke-linejoin="miter" stroke="none">
<rect x="123.466" y="87.011" width="24.202" height="9.899" fill="#7f8751"/>
<path d="M 82.121,186.199 L 81.971,198.949 L 77.304,203.014 C 75.456,214.036 77.476,218.618 82.027,226.081 C 87.272,234.682 97.76,234.008 111.728,233.907 C 125.696,234.008 136.184,234.682 141.429,226.081 C 145.98,218.618 148,214.036 146.152,203.014 L 141.485,198.949 L 141.335,186.199 C 138.55,191.397 135.211,196.245 135.647,204.526 C 136.385,218.029 127.074,231.094 111.728,231.27 C 96.382,231.094 87.071,218.029 87.809,204.526 C 88.245,196.245 84.906,191.397 82.121,186.199 Z" stroke-width="0.5" fill="#e5e5e5" marker-start="none" marker-end="none"/>
<path d="M 111.728,175.009 C 110.338,176.025 108.802,176.572 107.217,176.523 C 103.107,176.394 99.67,170.511 95.789,171.871 C 94.416,172.352 93.479,174.385 93.657,175.683 C 92.315,175.144 91.773,173.599 91.893,172.238 C 92.176,169.049 96.618,166.65 100.985,166.689 C 104.987,166.724 108.795,167.44 111.728,169.729 C 114.661,167.44 118.469,166.724 122.471,166.689 C 126.838,166.65 131.28,169.049 131.563,172.238 C 131.683,173.599 131.141,175.144 129.799,175.683 C 129.977,174.385 129.04,172.352 127.667,171.871 C 123.786,170.511 120.349,176.394 116.239,176.523 C 114.654,176.572 113.118,176.025 111.728,175.009 Z" fill="#f0f0f0" marker-start="none" marker-end="none"/>
</g>
<g id="Group_2" stroke-linejoin="miter" stroke-linecap="round" stroke="none" stroke-width="0.5">
<path d="M 72.535,64.655 C 63.631,67.995 55.266,72.437 47.607,77.818 C 54.129,119.507 58.896,129.854 72.535,136.141 C 78.399,138.844 85.974,140.826 96.123,143.82 C 97.499,136.455 103.966,130.875 111.728,130.875 C 119.489,130.875 125.956,136.455 127.332,143.82 C 137.48,140.826 145.055,138.844 150.919,136.142 C 164.558,129.855 169.325,119.509 175.848,77.818 C 168.188,72.437 159.823,67.995 150.919,64.655 C 138.723,60.081 125.516,57.58 111.728,57.58 C 97.939,57.58 84.732,60.081 72.535,64.655 Z" fill="#bbc871" marker-start="none" marker-end="none"/>
<path d="M 97.079,144.386 C 99.537,135.275 102.942,136.277 111.728,130.601 C 106.31,125.328 103.606,119.86 100.055,118.37 C 94.76,123.003 87.547,134.115 88.31,141.694 L 97.079,144.386 Z" fill="#7f8751" marker-start="none" marker-end="none"/>
<path d="M 126.377,144.386 C 123.919,135.275 120.514,136.277 111.728,130.601 C 117.146,125.328 119.85,119.86 123.401,118.37 C 128.696,123.003 135.909,134.115 135.146,141.694 L 126.377,144.386 Z" fill="#7f8751" marker-start="none" marker-end="none"/>
</g>
</g>
</svg>
