<?xml version="1.0" encoding="UTF-8" standalone="no"?>
<svg
   fill="none"
   fill-rule="evenodd"
   stroke="#000000"
   stroke-width="0.501"
   stroke-linejoin="bevel"
   stroke-miterlimit="10"
   style="font-variant-ligatures:none"
   version="1.1"
   overflow="visible"
   viewBox="0 -305.637 128.59 198.66428"
   id="svg19"
   xmlns="http://www.w3.org/2000/svg"
   xmlns:svg="http://www.w3.org/2000/svg">
  <defs
     id="defs23" />
  <path
     d="m 64.295,-106.97272 c 23.93,0 46.11,-7.535 64.295,-20.36 -4.744,-31.415 -8.026,-45.492 -17.846,-53.703 -5.439,-4.625 -12.845,-6.934 -23.804,-10.124 -2.852,-0.829 -7.662,-2.215 -10.096,-2.743 l 0.001,-13.393 c 7.776,-4.318 13.724,-12.529 16.129,-22.54 4.637,-0.278 6.676,-1.715 8.689,-5.071 1.58,-2.634 2.858,-7.028 1.658,-10.286 -1.072,-2.911 -3.732,-6.032 -7.091,-6.032 -0.864,0 -1.704,0.194 -2.48,0.544 -2.301,-16.998 -14.662,-29.988 -29.455,-29.988 -14.793,0 -27.154,12.99 -29.455,29.988 -0.776,-0.35 -1.616,-0.544 -2.48,-0.544 -3.359,0 -6.019,3.121 -7.091,6.032 -1.2,3.258 0.078,7.652 1.658,10.286 2.013,3.356 4.052,4.793 8.689,5.071 2.405,10.011 8.353,18.222 16.129,22.54 l 0.001,13.393 c -2.434,0.528 -7.244,1.914 -10.096,2.743 -10.959,3.19 -18.365,5.499 -23.804,10.124 -9.82,8.211 -13.102,22.288 -17.846,53.703 18.185,12.825 40.365,20.36 64.295,20.36 z"
     fill="#f1c9a5"
     marker-start="none"
     marker-end="none"
     id="path4"
     style="stroke:none;stroke-width:0.25;stroke-linecap:round;stroke-linejoin:miter" />
  <path
     d="m 64.295,-106.97272 c 23.93,0 46.11,-7.535 64.295,-20.36 -4.744,-31.415 -8.026,-45.492 -17.846,-53.703 -5.439,-4.625 -12.845,-6.934 -23.804,-10.124 -2.852,-0.829 -7.662,-2.215 -10.096,-2.743 l 0.001,-13.393 c 7.776,-4.318 13.724,-12.529 16.129,-22.54 4.637,-0.278 6.676,-1.715 8.689,-5.071 1.58,-2.634 2.858,-7.028 1.658,-10.286 -1.072,-2.911 -3.732,-6.032 -7.091,-6.032 -0.864,0 -1.704,0.194 -2.48,0.544 -2.301,-16.998 -14.662,-29.988 -29.455,-29.988 z"
     fill="#e4b992"
     marker-start="none"
     marker-end="none"
     id="path6"
     style="stroke:none;stroke-width:0.25;stroke-linecap:round;stroke-linejoin:miter" />
  <path
     d="m 8.631,-197.07772 c -0.943,-11.244 7.046,-15.456 7.041,-23.695 -0.005,-8.56 -8.591,-13.264 -7.349,-24.608 1.33,-12.151 10.356,-15.099 14.813,-23.079 5.327,-9.538 3.266,-21.047 14.2,-29.542 7.653,-5.946 19.433,-8.597 28.502,-6.102 5.836,-2.026 12.244,-2.149 17.588,0.262 8.269,3.731 14.779,11.587 18.312,20.136 2.653,6.421 1.861,13.921 4.287,20.449 2.752,7.405 9.58,10.037 11.469,20.742 1.781,10.091 -4.15,13.69 -2.733,20.377 2.015,9.506 9.232,14.527 8.485,22.51 -0.7,7.472 -5.139,13.79 -11.318,19.372 l -35.135,-13.659 v -13.425 c 7.27,-4.082 12.944,-11.592 15.578,-20.796 -2.516,-1.418 -4.423,-3.857 -5.287,-6.517 -2.368,-7.288 4.898,-16.253 1.225,-22.959 -5.573,-10.175 -10.914,-4.632 -16.715,-9.248 -2.96,-2.356 -4.752,-6.336 -4.491,-10.476 -2.733,6.898 -8.504,10.49 -14.099,14.794 -3.881,2.986 -12.382,5.86 -13.194,13.647 -0.693,6.651 5.069,12.828 3.746,19.219 -0.622,3.008 -2.172,5.87 -5.209,7.602 3.064,6.456 7.754,11.655 13.398,14.792 l 0.001,13.379 -35.255,13.647 c -4.974,-5.416 -7.343,-10.653 -7.86,-16.822 z"
     fill="#f47c00"
     stroke="none"
     stroke-linejoin="miter"
     stroke-linecap="round"
     stroke-width="0.5"
     marker-start="none"
     marker-end="none"
     id="path9" />
  <path
     d="m 44.601,-108.70472 v -0.036 -65.423 c 12.533,5.545 25.633,5.813 39.387,0 v 65.423 0.036 c -6.393,1.138 -12.974,1.732 -19.693,1.732 -6.72,0 -13.301,-0.594 -19.694,-1.732 z"
     fill="#ffffff"
     stroke-linejoin="miter"
     marker-start="none"
     marker-end="none"
     id="path11"
     style="stroke:none;stroke-width:0.5;stroke-linecap:round" />
  <path
     d="m 68.934,-107.08972 10.736,-86.191 c 35.717,9.798 40.714,11.448 48.884,65.973 -16.998,11.978 -37.484,19.336 -59.623,20.241 z"
     fill="#0bda9b"
     stroke-linejoin="round"
     marker-start="none"
     marker-end="none"
     id="path13"
     style="stroke:none;stroke-width:0.5;stroke-linecap:round" />
  <path
     d="m 0.035,-127.30772 c 8.17,-54.525 13.167,-56.175 48.885,-65.973 l 10.735,86.191 0.003,0.023 c -22.139,-0.905 -42.625,-8.263 -59.623,-20.241 z"
     fill="#0bda9b"
     stroke-linejoin="round"
     marker-start="none"
     marker-end="none"
     id="path15"
     style="stroke:none;stroke-width:0.5;stroke-linecap:round" />
</svg>
