<svg
   viewBox="0 0 34.02277 52.563259"
   version="1.1"
   id="svg178"
   xmlns="http://www.w3.org/2000/svg"
   xmlns:svg="http://www.w3.org/2000/svg">
  <defs
     id="defs175" />
  <g
     id="layer1"
     transform="translate(-145.82758,-77.843714)">
    <g
       id="Group"
       stroke-linejoin="miter"
       stroke-linecap="round"
       stroke="none"
       stroke-width="0.25"
       transform="matrix(0.26458333,0,0,-0.26458333,133.2776,145.64168)"
       style="font-variant-ligatures:none">
      <path
         d="m 111.728,57.58 c 23.93,0 46.11,7.535 64.295,20.36 -4.744,31.415 -8.026,45.492 -17.846,53.703 -5.439,4.625 -12.845,6.934 -23.804,10.124 -2.852,0.829 -7.662,2.215 -10.096,2.743 l 0.001,13.393 c 7.776,4.318 13.724,12.529 16.129,22.54 4.637,0.278 6.676,1.715 8.689,5.071 1.58,2.634 2.858,7.028 1.658,10.286 -1.072,2.911 -3.732,6.032 -7.091,6.032 -0.864,0 -1.704,-0.194 -2.48,-0.544 -2.301,16.998 -14.662,29.988 -29.455,29.988 -14.793,0 -27.154,-12.99 -29.455,-29.988 -0.776,0.35 -1.616,0.544 -2.48,0.544 -3.359,0 -6.019,-3.121 -7.091,-6.032 -1.2,-3.258 0.078,-7.652 1.658,-10.286 2.013,-3.356 4.052,-4.793 8.689,-5.071 2.405,-10.011 8.353,-18.222 16.129,-22.54 L 99.179,144.51 C 96.745,143.982 91.935,142.596 89.083,141.767 78.124,138.577 70.718,136.268 65.279,131.643 55.459,123.432 52.177,109.355 47.433,77.94 65.618,65.115 87.798,57.58 111.728,57.58 Z"
         fill="#f1c9a5"
         marker-start="none"
         marker-end="none"
         id="path184" />
      <path
         d="m 111.728,57.58 c 23.93,0 46.11,7.535 64.295,20.36 -4.744,31.415 -8.026,45.492 -17.846,53.703 -5.439,4.625 -12.845,6.934 -23.804,10.124 -2.852,0.829 -7.662,2.215 -10.096,2.743 l 0.001,13.393 c 7.776,4.318 13.724,12.529 16.129,22.54 4.637,0.278 6.676,1.715 8.689,5.071 1.58,2.634 2.858,7.028 1.658,10.286 -1.072,2.911 -3.732,6.032 -7.091,6.032 -0.864,0 -1.704,-0.194 -2.48,-0.544 -2.301,16.998 -14.662,29.988 -29.455,29.988 z"
         fill="#e4b992"
         marker-start="none"
         marker-end="none"
         id="path186" />
    </g>
    <path
       d="m 148.1112,106.56669 c -0.2495,-2.97497 1.86425,-4.0894 1.86293,-6.2693 -0.001,-2.264834 -2.27303,-3.509434 -1.94442,-6.510868 0.35189,-3.214952 2.74002,-3.994943 3.91927,-6.106318 1.40944,-2.523596 0.86413,-5.568686 3.75708,-7.816321 2.02486,-1.573213 5.14165,-2.274623 7.54116,-1.614488 1.54411,-0.536045 3.23956,-0.568589 4.65349,0.06932 2.18784,0.987161 3.91028,3.065727 4.84505,5.32765 0.70194,1.69889 0.49239,3.683265 1.13427,5.410465 0.72813,1.959239 2.53471,2.655623 3.0345,5.487987 0.47123,2.669911 -1.09802,3.622146 -0.7231,5.391415 0.53313,2.515128 2.44263,3.843598 2.24499,5.955768 -0.18521,1.97697 -1.3597,3.64861 -2.99456,5.12551 l -9.29613,-3.61394 v -3.55203 c 1.92352,-1.08003 3.42477,-3.06705 4.12168,-5.502279 -0.66569,-0.375179 -1.17025,-1.020498 -1.39885,-1.72429 -0.62654,-1.928283 1.29592,-4.300273 0.32411,-6.074568 -1.47452,-2.692136 -2.88766,-1.22555 -4.42251,-2.446867 -0.78317,-0.623358 -1.2573,-1.6764 -1.18824,-2.771775 -0.72311,1.825096 -2.25002,2.775479 -3.73036,3.914246 -1.02685,0.790046 -3.27607,1.550458 -3.49092,3.610768 -0.18335,1.759744 1.34118,3.394075 0.99113,5.085028 -0.16457,0.795866 -0.57467,1.553104 -1.37821,2.011362 0.81068,1.708155 2.05158,3.083715 3.54489,3.913715 l 2.6e-4,3.53986 -9.32789,3.61077 c -1.31603,-1.43298 -1.94283,-2.8186 -2.07962,-4.45082 z"
       fill="#f47c00"
       stroke="none"
       stroke-linejoin="miter"
       stroke-linecap="round"
       stroke-width="0.132292"
       marker-start="none"
       marker-end="none"
       id="path189"
       style="font-variant-ligatures:none" />
    <g
       id="Group_1"
       stroke-linecap="round"
       stroke="none"
       stroke-width="0.5"
       transform="matrix(0.26458333,0,0,-0.26458333,133.2776,145.64168)"
       style="font-variant-ligatures:none">
      <path
         d="m 92.034,59.312 v 0.036 65.423 c 12.533,-5.545 25.633,-5.813 39.387,0 V 59.348 59.312 c -6.393,-1.138 -12.974,-1.732 -19.693,-1.732 -6.72,0 -13.301,0.594 -19.694,1.732 z"
         fill="#ffffff"
         stroke-linejoin="miter"
         marker-start="none"
         marker-end="none"
         id="path191" />
      <path
         d="m 116.367,57.697 10.736,86.191 C 162.82,134.09 167.817,132.44 175.987,77.915 158.989,65.937 138.503,58.579 116.364,57.674 Z"
         fill="#0bda9b"
         stroke-linejoin="round"
         marker-start="none"
         marker-end="none"
         id="path193" />
      <path
         d="m 47.468,77.915 c 8.17,54.525 13.167,56.175 48.885,65.973 l 10.735,-86.191 0.003,-0.023 C 84.952,58.579 64.466,65.937 47.468,77.915 Z"
         fill="#0bda9b"
         stroke-linejoin="round"
         marker-start="none"
         marker-end="none"
         id="path195" />
    </g>
  </g>
</svg>
