<?xml version="1.0" encoding="UTF-8" standalone="no"?>
<!-- Created with Inkscape (http://www.inkscape.org/) -->

<svg
   width="34.02277mm"
   height="53.295792mm"
   viewBox="0 0 34.02277 53.295792"
   version="1.1"
   id="svg310"
   inkscape:version="1.2.1 (9c6d41e410, 2022-07-14)"
   sodipodi:docname="drawing.svg"
   xmlns:inkscape="http://www.inkscape.org/namespaces/inkscape"
   xmlns:sodipodi="http://sodipodi.sourceforge.net/DTD/sodipodi-0.dtd"
   xmlns="http://www.w3.org/2000/svg"
   xmlns:svg="http://www.w3.org/2000/svg">
  <sodipodi:namedview
     id="namedview312"
     pagecolor="#ffffff"
     bordercolor="#666666"
     borderopacity="1.0"
     inkscape:showpageshadow="2"
     inkscape:pageopacity="0.0"
     inkscape:pagecheckerboard="0"
     inkscape:deskcolor="#d1d1d1"
     inkscape:document-units="mm"
     showgrid="false"
     inkscape:zoom="3.3638608"
     inkscape:cx="64.211931"
     inkscape:cy="100.47978"
     inkscape:window-width="2560"
     inkscape:window-height="1400"
     inkscape:window-x="-12"
     inkscape:window-y="-12"
     inkscape:window-maximized="1"
     inkscape:current-layer="layer1" />
  <defs
     id="defs307" />
  <g
     inkscape:label="Layer 1"
     inkscape:groupmode="layer"
     id="layer1"
     transform="translate(-87.442005,-121.85212)">
    <g
       id="Group"
       stroke-linejoin="miter"
       stroke-linecap="round"
       stroke="none"
       stroke-width="0.25"
       transform="matrix(0.26458333,0,0,-0.26458333,74.892024,190.38262)">
      <path
         d="m 111.728,57.58 c 23.93,0 46.11,7.535 64.295,20.36 -4.744,31.415 -8.026,45.492 -17.846,53.703 -5.439,4.625 -12.845,6.934 -23.804,10.124 -2.852,0.829 -7.662,2.215 -10.096,2.743 l 0.001,13.393 c 7.776,4.318 13.724,12.529 16.129,22.54 4.637,0.278 6.676,1.715 8.689,5.071 1.58,2.634 2.858,7.028 1.658,10.286 -1.072,2.911 -3.732,6.032 -7.091,6.032 -0.864,0 -1.704,-0.194 -2.48,-0.544 -2.301,16.998 -14.662,29.988 -29.455,29.988 -14.793,0 -27.154,-12.99 -29.455,-29.988 -0.776,0.35 -1.616,0.544 -2.48,0.544 -3.359,0 -6.019,-3.121 -7.091,-6.032 -1.2,-3.258 0.078,-7.652 1.658,-10.286 2.013,-3.356 4.052,-4.793 8.689,-5.071 2.405,-10.011 8.353,-18.222 16.129,-22.54 L 99.179,144.51 C 96.745,143.982 91.935,142.596 89.083,141.767 78.124,138.577 70.718,136.268 65.279,131.643 55.459,123.432 52.177,109.355 47.433,77.94 65.618,65.115 87.798,57.58 111.728,57.58 Z"
         fill="#f1c9a5"
         marker-start="none"
         marker-end="none"
         id="path4" />
      <path
         d="m 111.728,57.58 c 23.93,0 46.11,7.535 64.295,20.36 -4.744,31.415 -8.026,45.492 -17.846,53.703 -5.439,4.625 -12.845,6.934 -23.804,10.124 -2.852,0.829 -7.662,2.215 -10.096,2.743 l 0.001,13.393 c 7.776,4.318 13.724,12.529 16.129,22.54 4.637,0.278 6.676,1.715 8.689,5.071 1.58,2.634 2.858,7.028 1.658,10.286 -1.072,2.911 -3.732,6.032 -7.091,6.032 -0.864,0 -1.704,-0.194 -2.48,-0.544 -2.301,16.998 -14.662,29.988 -29.455,29.988 z"
         fill="#e4b992"
         marker-start="none"
         marker-end="none"
         id="path6" />
    </g>
    <path
       d="m 104.45339,165.55756 c -4.45426,-6.77836 -8.639968,-3.14881 -12.260791,-9.98934 -2.49555,2.0947 -3.473979,5.74436 -4.741069,14.19939 4.809331,3.38905 10.67435,5.3803 17.00186,5.3803 6.32751,0 12.19253,-1.99125 17.00186,-5.3803 -1.26709,-8.45503 -2.24552,-12.10469 -4.74107,-14.19939 -3.62082,6.84053 -7.80653,3.21098 -12.26079,9.98934 z"
       fill="#007f7f"
       stroke="none"
       stroke-width="0.408252"
       stroke-linejoin="miter"
       marker-start="none"
       marker-end="none"
       id="path9" />
    <g
       id="Group_1"
       stroke-linejoin="miter"
       stroke-linecap="round"
       transform="matrix(0.26458333,0,0,-0.26458333,74.892024,190.38262)">
      <circle
         cx="81.263"
         cy="169.444"
         fill="#00bfbf"
         stroke="none"
         stroke-width="0.5"
         id="ellipse11"
         r="3.5999999" />
      <circle
         cx="142.19299"
         cy="169.444"
         fill="#00bfbf"
         stroke="none"
         stroke-width="0.5"
         id="ellipse13"
         r="3.5999999" />
      <path
         d="m 81.263,182.854 v -13.41"
         fill="none"
         stroke="#333333"
         stroke-width="2"
         id="path15" />
      <path
         d="m 142.193,182.854 v -13.41"
         fill="none"
         stroke="#333333"
         stroke-width="2"
         id="path17" />
    </g>
    <path
       d="m 102.56135,134.02558 c -0.40587,1.06494 -0.35507,2.84797 0.84508,5.00036 -2.7768,-2.35824 -2.80564,-5.82295 -1.22793,-9.13025 -4.921247,2.46063 -4.487066,8.29681 -2.978941,12.7815 -0.890587,-0.77259 -1.693333,-2.36406 -2.049462,-3.37185 -0.07276,-0.68025 -0.2286,-1.40256 -0.490009,-2.18017 -0.205316,-0.0926 -0.427566,-0.14393 -0.656166,-0.14393 -0.436563,0 -0.828146,0.19923 -1.147498,0.49291 -0.494242,-1.71793 -0.189971,-3.39142 0.215635,-4.99665 -0.785283,0.50985 -1.381125,1.51183 -1.900237,2.71304 0.304006,-2.82522 0.464873,-3.91346 2.395537,-6.06796 -1.61925,0.55378 -2.27965,1.16338 -2.704835,1.57904 1.681162,-3.8862 4.216929,-5.90339 8.206576,-6.29629 -1.322647,-0.25268 -2.712239,-0.23628 -4.180676,0.095 1.259681,-0.93318 3.321316,-1.23375 4.839756,-1.04695 -0.28257,-0.60034 -0.60245,-1.13771 -1.49198,-1.46209 1.09749,-0.0185 1.7055,0.48286 2.20265,1.10146 0.48287,-0.79031 0.87313,-1.02024 1.4486,-1.24063 -0.45667,0.55245 -0.5887,0.91519 -0.74137,1.28878 1.00277,-0.57705 1.95527,-0.44238 2.90169,-0.23177 -0.82021,0.0444 -1.42954,0.33311 -1.94733,0.62997 7.93088,-0.70908 11.75702,5.22155 11.83745,9.80228 0.0177,1.60206 -0.37914,2.56937 -0.0794,3.90922 -0.29766,-0.11377 -0.59531,-0.51541 -0.89297,-1.13109 -0.0841,1.33879 0.14288,1.74493 0.32173,2.29473 -0.61489,-0.21378 -1.23586,-0.83026 -1.84017,-1.65047 0.0553,1.40838 0.45005,2.54503 1.03187,3.53219 l -1.41393,-0.19394 c 0.55774,0.74374 1.39594,1.50918 2.33151,2.28203 -1.65365,0.008 -3.30729,-0.84349 -4.96094,-2.03412 1.19433,2.00634 2.99958,3.48933 6.04282,3.91107 -4.55454,0.60352 -11.68876,-2.7088 -13.91709,-10.2354 z"
       fill="#7f4100"
       stroke="none"
       stroke-width="0.172508"
       stroke-linejoin="round"
       marker-start="none"
       marker-end="none"
       id="path20" />
    <g
       id="Group_2"
       stroke-linejoin="miter"
       stroke-linecap="round"
       stroke="none"
       stroke-width="0.456"
       transform="matrix(0.26458333,0,0,-0.26458333,74.892024,190.38262)">
      <path
         d="m 136.044,137.736 c -1.32,-0.999 -3.203,-0.74 -4.203,0.579 -0.999,1.32 -0.74,3.203 0.579,4.203 1.32,0.999 3.203,0.74 4.203,-0.579 0.999,-1.32 0.74,-3.203 -0.579,-4.203 z"
         fill="#007f7f"
         marker-start="none"
         marker-end="none"
         id="path22" />
      <path
         d="m 133.087,131.751 c -1.433,-0.827 -3.27,-0.336 -4.098,1.098 -0.827,1.433 -0.336,3.27 1.098,4.098 1.433,0.827 3.27,0.336 4.098,-1.098 0.827,-1.433 0.336,-3.27 -1.098,-4.098 z"
         fill="#007f7f"
         marker-start="none"
         marker-end="none"
         id="path24" />
      <path
         d="m 129.111,126.235 c -1.555,-0.567 -3.279,0.235 -3.846,1.79 -0.567,1.555 0.235,3.279 1.79,3.846 1.555,0.567 3.279,-0.235 3.846,-1.79 0.567,-1.555 -0.235,-3.279 -1.79,-3.846 z"
         fill="#007f7f"
         marker-start="none"
         marker-end="none"
         id="path26" />
      <path
         d="m 123.912,121.6 c -1.645,-0.182 -3.13,1.005 -3.313,2.651 -0.182,1.645 1.005,3.13 2.651,3.313 1.645,0.182 3.13,-1.005 3.313,-2.651 0.182,-1.645 -1.005,-3.13 -2.651,-3.313 z"
         fill="#007f7f"
         marker-start="none"
         marker-end="none"
         id="path28" />
      <path
         d="m 117.432,118.529 c -1.617,0.351 -2.646,1.95 -2.296,3.568 0.351,1.617 1.95,2.646 3.568,2.296 1.617,-0.351 2.646,-1.95 2.296,-3.568 -0.351,-1.617 -1.95,-2.646 -3.568,-2.296 z"
         fill="#007f7f"
         marker-start="none"
         marker-end="none"
         id="path30" />
      <path
         d="m 110.327,117.719 c -1.426,0.84 -1.903,2.681 -1.063,4.107 0.84,1.426 2.681,1.903 4.107,1.063 1.426,-0.84 1.903,-2.681 1.063,-4.107 -0.84,-1.426 -2.681,-1.903 -4.107,-1.063 z"
         fill="#007f7f"
         marker-start="none"
         marker-end="none"
         id="path32" />
      <path
         d="m 103.287,119.489 c -1.042,1.285 -0.846,3.176 0.44,4.22 1.285,1.042 3.176,0.846 4.22,-0.44 1.042,-1.285 0.846,-3.176 -0.44,-4.22 -1.285,-1.042 -3.176,-0.846 -4.22,0.44 z"
         fill="#007f7f"
         marker-start="none"
         marker-end="none"
         id="path34" />
      <path
         d="m 97.275,123.335 c -0.605,1.54 0.154,3.283 1.695,3.889 1.54,0.605 3.283,-0.154 3.889,-1.695 0.605,-1.54 -0.154,-3.283 -1.695,-3.889 -1.54,-0.605 -3.283,0.154 -3.889,1.695 z"
         fill="#007f7f"
         marker-start="none"
         marker-end="none"
         id="path36" />
      <path
         d="m 92.553,128.451 c -0.226,1.64 0.922,3.155 2.562,3.382 1.64,0.226 3.155,-0.922 3.382,-2.562 0.226,-1.64 -0.922,-3.155 -2.562,-3.382 -1.64,-0.226 -3.155,0.922 -3.382,2.562 z"
         fill="#007f7f"
         marker-start="none"
         marker-end="none"
         id="path38" />
      <path
         d="m 88.987,134.258 c 0.069,1.653 1.468,2.941 3.122,2.872 1.653,-0.069 2.941,-1.468 2.872,-3.122 -0.069,-1.653 -1.468,-2.941 -3.122,-2.872 -1.653,0.069 -2.941,1.468 -2.872,3.122 z"
         fill="#007f7f"
         marker-start="none"
         marker-end="none"
         id="path40" />
      <path
         d="m 86.362,140.442 c 0.301,1.627 1.867,2.706 3.495,2.405 1.627,-0.301 2.706,-1.867 2.405,-3.495 -0.301,-1.627 -1.867,-2.706 -3.495,-2.405 -1.627,0.301 -2.706,1.867 -2.405,3.495 z"
         fill="#007f7f"
         marker-start="none"
         marker-end="none"
         id="path42" />
      <path
         d="m 135.174,138.884 c -0.686,-0.519 -1.665,-0.385 -2.185,0.301 -0.519,0.686 -0.385,1.665 0.301,2.185 0.686,0.519 1.665,0.385 2.185,-0.301 0.519,-0.686 0.385,-1.665 -0.301,-2.185 z"
         fill="#00bfbf"
         marker-start="none"
         marker-end="none"
         id="path44" />
      <path
         d="m 132.367,132.999 c -0.745,-0.43 -1.7,-0.175 -2.13,0.57 -0.43,0.745 -0.175,1.7 0.57,2.13 0.745,0.43 1.7,0.175 2.13,-0.57 0.43,-0.745 0.175,-1.7 -0.57,-2.13 z"
         fill="#00bfbf"
         marker-start="none"
         marker-end="none"
         id="path46" />
      <path
         d="m 128.617,127.589 c -0.808,-0.295 -1.704,0.122 -1.998,0.93 -0.295,0.808 0.122,1.704 0.93,1.998 0.808,0.295 1.704,-0.122 1.998,-0.93 0.295,-0.808 -0.122,-1.704 -0.93,-1.998 z"
         fill="#00bfbf"
         marker-start="none"
         marker-end="none"
         id="path48" />
      <path
         d="m 123.753,123.032 c -0.855,-0.094 -1.627,0.523 -1.722,1.378 -0.094,0.855 0.523,1.627 1.378,1.722 0.855,0.094 1.627,-0.523 1.722,-1.378 0.094,-0.855 -0.523,-1.627 -1.378,-1.722 z"
         fill="#00bfbf"
         marker-start="none"
         marker-end="none"
         id="path50" />
      <path
         d="m 117.737,119.937 c -0.84,0.183 -1.375,1.014 -1.193,1.855 0.183,0.84 1.014,1.375 1.855,1.193 0.84,-0.183 1.375,-1.014 1.193,-1.855 -0.183,-0.84 -1.014,-1.375 -1.855,-1.193 z"
         fill="#00bfbf"
         marker-start="none"
         marker-end="none"
         id="path52" />
      <path
         d="m 111.058,118.961 c -0.741,0.436 -0.989,1.393 -0.552,2.134 0.436,0.741 1.393,0.989 2.134,0.552 0.741,-0.436 0.989,-1.393 0.552,-2.134 -0.436,-0.741 -1.393,-0.989 -2.134,-0.552 z"
         fill="#00bfbf"
         marker-start="none"
         marker-end="none"
         id="path54" />
      <path
         d="m 104.406,120.397 c -0.542,0.667 -0.44,1.651 0.229,2.193 0.667,0.542 1.651,0.44 2.193,-0.229 0.542,-0.667 0.44,-1.651 -0.229,-2.193 -0.667,-0.542 -1.651,-0.44 -2.193,0.229 z"
         fill="#00bfbf"
         marker-start="none"
         marker-end="none"
         id="path56" />
      <path
         d="m 98.616,123.862 c -0.314,0.8 0.08,1.706 0.881,2.021 0.8,0.314 1.706,-0.08 2.021,-0.881 0.314,-0.8 -0.08,-1.706 -0.881,-2.021 -0.8,-0.314 -1.706,0.08 -2.021,0.881 z"
         fill="#00bfbf"
         marker-start="none"
         marker-end="none"
         id="path58" />
      <path
         d="m 93.981,128.648 c -0.118,0.852 0.479,1.639 1.331,1.757 0.852,0.118 1.639,-0.479 1.757,-1.331 0.118,-0.852 -0.479,-1.639 -1.331,-1.757 -0.852,-0.118 -1.639,0.479 -1.757,1.331 z"
         fill="#00bfbf"
         marker-start="none"
         marker-end="none"
         id="path60" />
      <path
         d="m 90.427,134.198 c 0.035,0.859 0.762,1.528 1.622,1.492 0.859,-0.035 1.528,-0.762 1.492,-1.622 -0.035,-0.859 -0.762,-1.528 -1.622,-1.492 -0.859,0.035 -1.528,0.762 -1.492,1.622 z"
         fill="#00bfbf"
         marker-start="none"
         marker-end="none"
         id="path62" />
      <path
         d="m 87.779,140.18 c 0.156,0.846 0.97,1.406 1.816,1.25 0.846,-0.156 1.406,-0.97 1.25,-1.816 -0.156,-0.846 -0.97,-1.406 -1.816,-1.25 -0.846,0.156 -1.406,0.97 -1.25,1.816 z"
         fill="#00bfbf"
         marker-start="none"
         marker-end="none"
         id="path64" />
    </g>
  </g>
</svg>
