<?xml version="1.0" standalone="no"?>
<!DOCTYPE svg PUBLIC "-//W3C//DTD SVG 1.1//EN" "http://www.w3.org/Graphics/SVG/1.1/DTD/svg11.dtd">
<!--Generator: Xara Designer (www.xara.com), SVG filter version: 6.3.0.31-->
<svg fill="none" fill-rule="evenodd" stroke="black" stroke-width="0.501" stroke-linejoin="bevel" stroke-miterlimit="10" font-family="Times New Roman" font-size="16" style="font-variant-ligatures:none" xmlns:xlink="http://www.w3.org/1999/xlink" xmlns="http://www.w3.org/2000/svg" version="1.1" overflow="visible" width="223.456pt" height="305.637pt" viewBox="0 -305.637 223.456 305.637">
 <defs>
	</defs>
 <g id="Layer 1" transform="scale(1 -1)">
  <rect x="0.043" y="45.131" width="223.37" height="223.369" stroke="none" fill="#ffffff" stroke-linejoin="miter"/>
  <path d="M 111.728,246.919 C 100.639,246.827 84.755,244.73 81.197,214.558 L 81.197,208.502 C 80.013,210.573 78.511,211.976 76.846,211.44 C 72.274,209.969 71.847,201.853 71.847,197.924 C 71.847,192.187 76.449,184.665 81.618,185.749 C 83.386,166.604 91.181,161.15 99.178,157.891 L 99.179,144.51 C 98.237,144.324 97.295,144.116 96.353,143.888 C 81.272,139.433 71.844,137.225 65.279,131.643 C 78.999,123.878 94.849,119.446 111.728,119.446 C 128.607,119.446 144.457,123.878 158.177,131.643 C 151.612,137.225 142.184,139.433 127.103,143.888 C 126.161,144.116 125.219,144.324 124.277,144.51 L 124.278,157.891 C 132.275,161.15 140.07,166.604 141.838,185.749 C 147.007,184.665 151.609,192.187 151.609,197.924 C 151.609,201.853 151.182,209.969 146.61,211.44 C 144.945,211.976 143.443,210.573 142.259,208.502 L 142.259,214.558 C 138.701,244.73 122.817,246.827 111.728,246.919 Z" stroke="none" stroke-linecap="round" stroke-linejoin="round" stroke-width="0.5" fill="#f1c9a5" marker-start="none" marker-end="none"/>
  <path d="M 111.728,246.919 L 111.728,119.446 C 128.607,119.446 144.457,123.878 158.177,131.643 C 151.612,137.225 142.184,139.433 127.103,143.888 C 126.161,144.116 125.219,144.324 124.277,144.51 L 124.278,157.891 C 132.275,161.15 140.07,166.604 141.838,185.749 C 147.007,184.665 151.609,192.187 151.609,197.924 C 151.609,201.853 151.182,209.969 146.61,211.44 C 144.945,211.976 143.443,210.573 142.259,208.502 L 142.259,214.558 C 138.701,244.73 122.817,246.827 111.728,246.919 Z" fill="#e4b992" stroke="none" stroke-linecap="round" stroke-linejoin="round" stroke-width="0.5" marker-start="none" marker-end="none"/>
  <g id="Group" stroke-linejoin="round" stroke-width="1" stroke="#333333" fill="#ffffff" stroke-linecap="round">
   <path d="M 92.442,125.698 C 91.294,130.698 90.423,135.907 89.743,141.418 L 89.751,141.42 L 97.079,143.67 C 99.537,134.559 104.648,129.267 111.728,121.679 C 106.15,117.203 104.273,115.252 100.827,113.241 C 98.229,115.513 94.984,120.407 92.442,125.698 Z" marker-start="none" marker-end="none"/>
   <path d="M 111.728,121.679 C 118.808,129.267 123.919,134.559 126.377,143.67 L 133.704,141.42 L 133.712,141.418 C 133.032,135.907 132.161,130.698 131.013,125.698 C 128.471,120.407 125.226,115.513 122.629,113.241 C 119.183,115.252 117.306,117.203 111.728,121.679 Z" marker-start="none" marker-end="none"/>
  </g>
  <path d="M 108.852,111.331 L 105.653,114.53 L 111.728,120.605 L 117.804,114.53 L 114.604,111.331 L 108.852,111.331 Z" fill="#666666" stroke-linejoin="miter" stroke-linecap="round" stroke="none" stroke-width="0.5" marker-start="none" marker-end="none"/>
  <path d="M 106.802,92.506 L 106.803,92.51 L 108.929,110.252 L 114.527,110.252 L 116.652,92.511 L 116.653,92.507 C 115.139,90.202 113.501,87.893 111.728,85.568 C 109.954,87.893 108.316,90.202 106.802,92.506 Z" fill="#666666" stroke-linejoin="miter" stroke-linecap="round" stroke="none" stroke-width="0.5" marker-start="none" marker-end="none"/>
  <path d="M 111.728,85.607 C 94.964,117.476 97.5,136.455 96.124,143.82 C 85.976,140.826 78.401,138.844 72.537,136.142 C 58.897,129.855 54.13,119.509 47.607,77.818 C 55.267,72.437 63.632,67.995 72.537,64.655 L 72.537,64.674 C 84.732,60.1 97.94,57.58 111.728,57.58 C 125.516,57.58 138.724,60.1 150.919,64.674 L 150.919,64.655 C 159.824,67.995 168.189,72.437 175.849,77.818 C 169.326,119.509 164.559,129.855 150.919,136.142 C 145.055,138.844 137.48,140.826 127.332,143.82 C 125.956,136.455 128.492,117.476 111.728,85.607 Z" stroke="none" fill="#999999" stroke-linecap="round" stroke-width="0.5" stroke-linejoin="miter" marker-start="none" marker-end="none"/>
  <path d="M 93.441,235.659 C 86.301,234.666 84.716,240.605 81.648,235.826 C 77.906,229.998 77.088,221.452 78.936,210.43 L 81.971,207.454 L 82.121,194.704 L 89.021,213.004 C 89.617,221.604 91.258,229.358 93.441,235.659 Z" stroke="none" fill="#e5e5e5" stroke-linejoin="miter" stroke-width="0.5" marker-start="none" marker-end="none"/>
  <path d="M 130.015,235.659 C 137.155,234.666 138.74,240.605 141.808,235.826 C 145.55,229.998 146.368,221.452 144.52,210.43 L 141.485,207.454 L 141.335,194.704 L 134.435,213.004 C 133.839,221.604 132.198,229.358 130.015,235.659 Z" stroke="none" fill="#e5e5e5" stroke-linejoin="miter" stroke-width="0.5" marker-start="none" marker-end="none"/>
  <path d="M 129.74,90.307 L 129.74,82.208 L 154.639,90.159 L 154.639,98.258 L 129.74,90.307 Z" fill="#666666" stroke-width="0.5" stroke="none" stroke-linecap="round" stroke-linejoin="miter" marker-start="none" marker-end="none"/>
 </g>
 <g id="Layer_1" transform="scale(1 -1)"/>
</svg>
