<svg id="Layer_1" data-name="Layer 1" xmlns="http://www.w3.org/2000/svg" viewBox="0 0 245 220.34"><defs><style>.cls-1{fill:#898989;}.cls-2{fill:#4c4c4c;}</style></defs><path class="cls-1" d="M113.4,197.49a8.47,8.47,0,0,1-4.53-15.63c1.37-.88,31.82-21.22,9.38-66.67-28.5-57.74,1-88.24,2.29-89.51a8.46,8.46,0,1,1,12,12c-.84.89-21.93,23.73.92,70,29.41,59.57-15.11,88.23-15.56,88.51A8.41,8.41,0,0,1,113.4,197.49Z"/><path class="cls-1" d="M162.36,128.37q-1,0-2,0a8.46,8.46,0,1,1,.58-16.92,43.2,43.2,0,0,0,44.56-46.27,8.47,8.47,0,0,1,16.89-1.21,60.1,60.1,0,0,1-60,64.43Z"/><path class="cls-1" d="M198.91,109.48a4.69,4.69,0,0,1-3.33-1.37L159.9,72.42a4.7,4.7,0,0,1,6.65-6.65l35.69,35.69a4.7,4.7,0,0,1-3.33,8Z"/><path class="cls-2" d="M153.53,85.23A18.79,18.79,0,0,1,157,51.39h0a6.39,6.39,0,0,0,2.31-2.75A6.18,6.18,0,0,0,157.17,41v0a10.47,10.47,0,1,1,15.75-2.58,10.27,10.27,0,0,1-2.73,3h0A6,6,0,0,0,168,43.93a6.3,6.3,0,0,0,2,7.67v0A18.48,18.48,0,0,1,172.89,53a18.79,18.79,0,0,1-19.36,32.22Z"/><path class="cls-1" d="M31.09,165a8.47,8.47,0,0,1-8.44-7.85,60.11,60.11,0,0,1,62-64.4,8.46,8.46,0,1,1-.58,16.92,43.18,43.18,0,0,0-44.56,46.26,8.45,8.45,0,0,1-7.84,9.05C31.5,165,31.29,165,31.09,165Z"/><path class="cls-1" d="M81.08,155.94a4.68,4.68,0,0,1-3.33-1.37l-35-35a4.7,4.7,0,1,1,6.65-6.65l35,35a4.7,4.7,0,0,1-3.32,8Z"/><path class="cls-2" d="M71.4,135.11A18.79,18.79,0,0,0,74.85,169h0a6.42,6.42,0,0,1,2.31,2.76A6.18,6.18,0,0,1,75,179.37v0A10.47,10.47,0,1,0,90.79,182a10.68,10.68,0,0,0-2.73-3h0a6,6,0,0,1-2.19-2.54,6.29,6.29,0,0,1,2-7.66v0a19.53,19.53,0,0,0,2.88-1.39A18.79,18.79,0,1,0,71.4,135.11Z"/></svg>