<svg fill="none" fill-rule="evenodd" stroke="black" stroke-width="0.501" stroke-linejoin="bevel" stroke-miterlimit="10" xmlns="http://www.w3.org/2000/svg" version="1.1" overflow="visible" viewBox="0 -305.637 223.456 305.637">
<g id="Layer 1" transform="scale(1 -1)">
<rect x="0.043" y="45.131" width="223.37" height="223.369" stroke="none" fill="#ffffff" stroke-linejoin="miter"/>
<g id="Group" stroke-linejoin="miter" stroke-linecap="round" stroke="none" stroke-width="0.25">
<path d="M 111.728,57.58 C 135.658,57.58 157.838,65.115 176.023,77.94 C 171.279,109.355 167.997,123.432 158.177,131.643 C 152.738,136.268 145.332,138.577 134.373,141.767 C 131.521,142.596 126.711,143.982 124.277,144.51 L 124.278,157.903 C 132.054,162.221 138.002,170.432 140.407,180.443 C 145.044,180.721 147.083,182.158 149.096,185.514 C 150.676,188.148 151.954,192.542 150.754,195.8 C 149.682,198.711 147.022,201.832 143.663,201.832 C 142.799,201.832 141.959,201.638 141.183,201.288 C 138.882,218.286 126.521,231.276 111.728,231.276 C 96.935,231.276 84.574,218.286 82.273,201.288 C 81.497,201.638 80.657,201.832 79.793,201.832 C 76.434,201.832 73.774,198.711 72.702,195.8 C 71.502,192.542 72.78,188.148 74.36,185.514 C 76.373,182.158 78.412,180.721 83.049,180.443 C 85.454,170.432 91.402,162.221 99.178,157.903 L 99.179,144.51 C 96.745,143.982 91.935,142.596 89.083,141.767 C 78.124,138.577 70.718,136.268 65.279,131.643 C 55.459,123.432 52.177,109.355 47.433,77.94 C 65.618,65.115 87.798,57.58 111.728,57.58 Z" fill="#f1c9a5" marker-start="none" marker-end="none"/>
<path d="M 111.728,57.58 C 135.658,57.58 157.838,65.115 176.023,77.94 C 171.279,109.355 167.997,123.432 158.177,131.643 C 152.738,136.268 145.332,138.577 134.373,141.767 C 131.521,142.596 126.711,143.982 124.277,144.51 L 124.278,157.903 C 132.054,162.221 138.002,170.432 140.407,180.443 C 145.044,180.721 147.083,182.158 149.096,185.514 C 150.676,188.148 151.954,192.542 150.754,195.8 C 149.682,198.711 147.022,201.832 143.663,201.832 C 142.799,201.832 141.959,201.638 141.183,201.288 C 138.882,218.286 126.521,231.276 111.728,231.276 L 111.728,57.58 Z" fill="#e4b992" marker-start="none" marker-end="none"/>
</g>
<g id="Group_1">
<path d="M 72.535,64.655 C 63.631,67.995 55.266,72.437 47.607,77.818 C 54.129,119.507 58.896,129.854 72.535,136.141 C 78.399,138.844 85.974,140.826 96.123,143.82 C 97.499,136.455 103.966,130.875 111.728,130.875 C 119.489,130.875 125.956,136.455 127.332,143.82 C 137.48,140.826 145.055,138.844 150.919,136.142 C 164.558,129.855 169.325,119.509 175.848,77.818 C 168.188,72.437 159.823,67.995 150.919,64.655 C 138.723,60.081 125.516,57.58 111.728,57.58 C 97.939,57.58 84.732,60.081 72.535,64.655 Z" fill="#b2b2b2" stroke-linejoin="miter" stroke-linecap="round" stroke="none" stroke-width="0.5" marker-start="none" marker-end="none"/>
<path d="M 89.296,141.829 C 91.433,142.451 93.705,143.107 96.123,143.82 C 97.499,136.455 103.966,130.875 111.728,130.875 C 119.489,130.875 125.956,136.455 127.332,143.82 C 129.75,143.106 132.022,142.451 134.159,141.829 C 131.905,131.516 122.713,123.788 111.728,123.788 C 100.742,123.788 91.55,131.516 89.296,141.829 Z" fill="#e5e5e5" stroke="none" stroke-width="1" stroke-linejoin="miter" stroke-linecap="round" marker-start="none" marker-end="none"/>
<path d="M 111.728,102.614 C 94.964,134.483 97.5,136.455 96.124,143.82 C 85.976,140.826 78.401,138.844 72.537,136.142 C 58.897,129.855 54.13,119.509 47.607,77.818 C 55.267,72.437 63.632,67.995 72.537,64.655 L 72.537,64.674 C 84.732,60.1 97.94,57.58 111.728,57.58 C 125.516,57.58 138.724,60.1 150.919,64.674 L 150.919,64.655 C 159.824,67.995 168.189,72.437 175.849,77.818 C 169.326,119.509 164.559,129.855 150.919,136.142 C 145.055,138.844 137.48,140.826 127.332,143.82 C 125.956,136.455 128.492,134.483 111.728,102.614 Z" fill="#7f007e" stroke-linecap="round" stroke="none" stroke-width="0.5" stroke-linejoin="miter" marker-start="none" marker-end="none"/>
<path d="M 90.563,142.197 C 91.356,130.199 91.452,125.386 111.728,89.657 C 132.004,125.386 132.1,130.199 132.893,142.197" fill="none" stroke-width="1" stroke="#ffffff" stroke-linejoin="round"/>
</g>
<path d="M 94.025,161.563 L 88.987,162.106 C 84.686,162.797 78.469,164.715 77.528,167.984 C 76.464,171.678 78.421,175.314 76.028,178.691 C 74.226,181.235 65.587,182.243 63.878,186.802 C 62.738,189.844 67.357,191.556 66.428,196.211 C 65.725,199.731 63.153,201.168 62.228,203.673 C 60.893,207.291 66.53,210.451 67.134,214.307 C 67.947,219.497 60.374,221.455 65.228,229.953 C 67.652,234.197 71.426,233.948 73.328,236.442 C 75.21,238.909 73.709,243.999 75.958,246.732 C 78.292,249.568 80.83,247.282 85.911,251.462 C 87.584,252.838 88.734,258.253 94.359,259.469 C 98.229,260.306 100.764,257.362 104.014,257.722 C 106.205,257.965 109.525,260.337 111.728,260.251 C 113.931,260.337 117.251,257.965 119.442,257.722 C 122.692,257.362 125.227,260.306 129.097,259.469 C 134.722,258.253 135.872,252.838 137.545,251.462 C 142.626,247.282 145.164,249.568 147.498,246.732 C 149.747,243.999 148.246,238.909 150.128,236.442 C 152.03,233.948 155.804,234.197 158.228,229.953 C 163.082,221.455 155.509,219.497 156.322,214.307 C 156.926,210.451 162.563,207.291 161.228,203.673 C 160.303,201.168 157.731,199.731 157.028,196.211 C 156.099,191.556 160.718,189.844 159.578,186.802 C 157.869,182.243 149.23,181.235 147.428,178.691 C 145.035,175.314 146.992,171.678 145.928,167.984 C 144.987,164.715 138.77,162.797 134.469,162.106 L 129.431,161.563 L 130.317,168.097 C 130.927,169.598 133.985,171.454 139.385,181.054 L 140.282,199.651 L 136.142,212.837 C 126.894,220.901 122.055,220.814 111.728,220.986 L 97.022,216.242 L 101.108,227.206 L 87.314,212.837 L 83.174,199.651 L 84.071,181.054 C 89.471,171.454 92.529,169.598 93.139,168.097 L 94.025,161.563 Z M 80.198,180.835 L 79.418,201.819 C 76.237,201.598 73.733,198.601 72.702,195.8 C 71.502,192.542 72.78,188.148 74.36,185.514 C 75.904,182.939 77.463,181.494 80.198,180.835 Z M 149.096,185.514 C 150.676,188.148 151.954,192.542 150.754,195.8 C 149.723,198.601 147.219,201.598 144.038,201.819 L 143.258,180.835 C 145.993,181.494 147.552,182.939 149.096,185.514 Z" stroke="none" fill="#333333" stroke-linecap="round" stroke-width="0.5" stroke-linejoin="miter" marker-start="none" marker-end="none"/>
</g>
</svg>
