<svg fill="none" fill-rule="evenodd" stroke="black" stroke-width="0.501" stroke-linejoin="bevel" stroke-miterlimit="10" xmlns="http://www.w3.org/2000/svg" version="1.1" overflow="visible" viewBox="0 -305.637 223.456 305.637">
<g id="Layer 1" transform="scale(1 -1)">
<rect x="0.043" y="45.131" width="223.37" height="223.369" stroke="none" fill="#ffffff" stroke-linejoin="miter"/>
<g id="Group" stroke-linejoin="miter" stroke-linecap="round" stroke="none" stroke-width="0.25">
<path d="M 111.728,57.58 C 135.658,57.58 157.838,65.115 176.023,77.94 C 171.279,109.355 167.997,123.432 158.177,131.643 C 152.738,136.268 145.332,138.577 134.373,141.767 C 131.521,142.596 126.711,143.982 124.277,144.51 L 124.278,157.903 C 132.054,162.221 138.002,170.432 140.407,180.443 C 145.044,180.721 147.083,182.158 149.096,185.514 C 150.676,188.148 151.954,192.542 150.754,195.8 C 149.682,198.711 147.022,201.832 143.663,201.832 C 142.799,201.832 141.959,201.638 141.183,201.288 C 138.882,218.286 126.521,231.276 111.728,231.276 C 96.935,231.276 84.574,218.286 82.273,201.288 C 81.497,201.638 80.657,201.832 79.793,201.832 C 76.434,201.832 73.774,198.711 72.702,195.8 C 71.502,192.542 72.78,188.148 74.36,185.514 C 76.373,182.158 78.412,180.721 83.049,180.443 C 85.454,170.432 91.402,162.221 99.178,157.903 L 99.179,144.51 C 96.745,143.982 91.935,142.596 89.083,141.767 C 78.124,138.577 70.718,136.268 65.279,131.643 C 55.459,123.432 52.177,109.355 47.433,77.94 C 65.618,65.115 87.798,57.58 111.728,57.58 Z" fill="#f1c9a5" marker-start="none" marker-end="none"/>
<path d="M 111.728,57.58 C 135.658,57.58 157.838,65.115 176.023,77.94 C 171.279,109.355 167.997,123.432 158.177,131.643 C 152.738,136.268 145.332,138.577 134.373,141.767 C 131.521,142.596 126.711,143.982 124.277,144.51 L 124.278,157.903 C 132.054,162.221 138.002,170.432 140.407,180.443 C 145.044,180.721 147.083,182.158 149.096,185.514 C 150.676,188.148 151.954,192.542 150.754,195.8 C 149.682,198.711 147.022,201.832 143.663,201.832 C 142.799,201.832 141.959,201.638 141.183,201.288 C 138.882,218.286 126.521,231.276 111.728,231.276 L 111.728,57.58 Z" fill="#e4b992" marker-start="none" marker-end="none"/>
</g>
<path d="M 95.964,143.708 L 95.964,153.319 L 127.491,153.319 L 127.49,143.708 C 129.815,143.086 132.511,142.308 134.373,141.767 C 145.332,138.577 152.738,136.268 158.177,131.643 C 167.997,123.432 171.279,109.355 176.023,77.94 C 157.838,65.115 135.658,57.58 111.728,57.58 C 87.798,57.58 65.618,65.115 47.433,77.94 C 52.177,109.355 55.459,123.432 65.279,131.643 C 70.718,136.268 78.124,138.577 89.083,141.767 C 90.944,142.308 93.639,143.086 95.964,143.708 Z" stroke="none" stroke-width="0.25" fill="#00bfbf" stroke-linejoin="miter" stroke-linecap="round" marker-start="none" marker-end="none"/>
<g id="Group_1" stroke="none" stroke-width="0.5">
<ellipse rx="3.543" ry="3.543" transform="translate(145.388 181.294) rotate(-90)" fill="#007f7f" stroke-linejoin="miter" stroke="none" stroke-linecap="round" stroke-width="0.5"/>
<path d="M 136.765,202.473 L 142.582,205.168 L 143.423,203.353 L 137.507,200.61 C 137.827,199.548 138,198.421 138,197.256 C 138,190.835 132.79,185.626 126.37,185.626 C 120.086,185.626 114.964,190.613 114.747,196.843 C 112.794,197.867 110.782,197.851 108.707,196.806 C 108.471,190.593 103.356,185.626 97.086,185.626 C 90.666,185.626 85.456,190.835 85.456,197.256 C 85.456,198.421 85.628,199.548 85.89,200.61 L 80.033,203.353 L 80.874,205.168 L 86.691,202.473 C 88.604,206.275 92.542,208.886 97.086,208.886 C 103.074,208.886 108.008,204.354 108.646,198.536 C 110.824,199.598 112.874,199.555 114.812,198.559 C 115.461,204.366 120.389,208.886 126.37,208.886 C 130.914,208.886 134.852,206.275 136.765,202.473 Z M 106.716,197.256 C 106.716,202.571 102.402,206.886 97.086,206.886 C 91.771,206.886 87.456,202.571 87.456,197.256 C 87.456,191.94 91.771,187.626 97.086,187.626 C 102.402,187.626 106.716,191.94 106.716,197.256 Z M 136,197.256 C 136,202.571 131.685,206.886 126.37,206.886 C 121.054,206.886 116.74,202.571 116.74,197.256 C 116.74,191.94 121.054,187.626 126.37,187.626 C 131.685,187.626 136,191.94 136,197.256 Z" fill="#333333" marker-start="none" marker-end="none"/>
<path d="M 136,197.256 C 136,202.571 131.685,206.886 126.37,206.886 C 121.054,206.886 116.74,202.571 116.74,197.256 C 116.74,191.94 121.054,187.626 126.37,187.626 C 131.685,187.626 136,191.94 136,197.256 Z" fill="#dcaa7d" marker-start="none" marker-end="none"/>
<path d="M 106.716,197.256 C 106.716,202.571 102.402,206.886 97.086,206.886 C 91.771,206.886 87.456,202.571 87.456,197.256 C 87.456,191.94 91.771,187.626 97.086,187.626 C 102.402,187.626 106.716,191.94 106.716,197.256 Z" fill="#dcaa7d" marker-start="none" marker-end="none"/>
</g>
<path d="M 66.752,216.975 C 67.056,234.288 83.087,255.317 113.062,252.637 C 111.105,253.759 108.802,254.85 105.702,255.018 C 109.279,255.814 112.879,256.323 116.669,254.142 C 116.092,255.554 115.593,256.925 113.867,259.013 C 116.042,258.18 117.517,257.311 119.342,254.324 C 121.221,256.662 123.519,258.557 127.667,258.487 C 124.305,257.261 123.096,255.23 122.028,252.961 C 127.767,253.667 135.559,252.531 140.32,249.004 C 151.736,240.543 154.669,226.499 154.367,217.037 C 153.959,204.254 147.429,192.287 141.049,183.918 C 142.94,201.159 138.926,219.312 120.326,228.612 C 116.337,215.184 67.049,221.198 93.922,168.944 C 74.753,175.687 66.354,194.345 66.752,216.975 Z" fill="#ff8200" stroke-linejoin="round" stroke="none" stroke-width="0.652" marker-start="none" marker-end="none"/>
<g id="Group_2" fill="#007f7f" stroke-linejoin="miter" stroke-linecap="round" stroke="none" stroke-width="0.456">
<path d="M 136.044,137.736 C 134.724,136.737 132.841,136.996 131.841,138.315 C 130.842,139.635 131.101,141.518 132.42,142.518 C 133.74,143.517 135.623,143.258 136.623,141.939 C 137.622,140.619 137.363,138.736 136.044,137.736 Z" marker-start="none" marker-end="none"/>
<path d="M 133.087,131.751 C 131.654,130.924 129.817,131.415 128.989,132.849 C 128.162,134.282 128.653,136.119 130.087,136.947 C 131.52,137.774 133.357,137.283 134.185,135.849 C 135.012,134.416 134.521,132.579 133.087,131.751 Z" marker-start="none" marker-end="none"/>
<path d="M 129.111,126.235 C 127.556,125.668 125.832,126.47 125.265,128.025 C 124.698,129.58 125.5,131.304 127.055,131.871 C 128.61,132.438 130.334,131.636 130.901,130.081 C 131.468,128.526 130.666,126.802 129.111,126.235 Z" marker-start="none" marker-end="none"/>
<path d="M 123.912,121.6 C 122.267,121.418 120.782,122.605 120.599,124.251 C 120.417,125.896 121.604,127.381 123.25,127.564 C 124.895,127.746 126.38,126.559 126.563,124.913 C 126.745,123.268 125.558,121.783 123.912,121.6 Z" marker-start="none" marker-end="none"/>
<path d="M 117.432,118.529 C 115.815,118.88 114.786,120.479 115.136,122.097 C 115.487,123.714 117.086,124.743 118.704,124.393 C 120.321,124.042 121.35,122.443 121,120.825 C 120.649,119.208 119.05,118.179 117.432,118.529 Z" marker-start="none" marker-end="none"/>
<path d="M 110.327,117.719 C 108.901,118.559 108.424,120.4 109.264,121.826 C 110.104,123.252 111.945,123.729 113.371,122.889 C 114.797,122.049 115.274,120.208 114.434,118.782 C 113.594,117.356 111.753,116.879 110.327,117.719 Z" marker-start="none" marker-end="none"/>
<path d="M 103.287,119.489 C 102.245,120.774 102.441,122.665 103.727,123.709 C 105.012,124.751 106.903,124.555 107.947,123.269 C 108.989,121.984 108.793,120.093 107.507,119.049 C 106.222,118.007 104.331,118.203 103.287,119.489 Z" marker-start="none" marker-end="none"/>
<path d="M 97.275,123.335 C 96.67,124.875 97.429,126.618 98.97,127.224 C 100.51,127.829 102.253,127.07 102.859,125.529 C 103.464,123.989 102.705,122.246 101.164,121.64 C 99.624,121.035 97.881,121.794 97.275,123.335 Z" marker-start="none" marker-end="none"/>
<path d="M 92.553,128.451 C 92.327,130.091 93.475,131.606 95.115,131.833 C 96.755,132.059 98.27,130.911 98.497,129.271 C 98.723,127.631 97.575,126.116 95.935,125.889 C 94.295,125.663 92.78,126.811 92.553,128.451 Z" marker-start="none" marker-end="none"/>
<path d="M 88.987,134.258 C 89.056,135.911 90.455,137.199 92.109,137.13 C 93.762,137.061 95.05,135.662 94.981,134.008 C 94.912,132.355 93.513,131.067 91.859,131.136 C 90.206,131.205 88.918,132.604 88.987,134.258 Z" marker-start="none" marker-end="none"/>
<path d="M 86.362,140.442 C 86.663,142.069 88.229,143.148 89.857,142.847 C 91.484,142.546 92.563,140.98 92.262,139.352 C 91.961,137.725 90.395,136.646 88.767,136.947 C 87.14,137.248 86.061,138.814 86.362,140.442 Z" marker-start="none" marker-end="none"/>
</g>
</g>
</svg>
