<svg width="1080" height="1920" version="1.1" viewBox="-0 -532 1080 1920" xmlns="http://www.w3.org/2000/svg" xmlns:cc="http://creativecommons.org/ns#" xmlns:dc="http://purl.org/dc/elements/1.1/" xmlns:rdf="http://www.w3.org/1999/02/22-rdf-syntax-ns#" xmlns:xlink="http://www.w3.org/1999/xlink">
 <defs>
  <linearGradient id="linearGradient861" x1="545.34" x2="224.44" y1="594.3" y2="482.48" gradientUnits="userSpaceOnUse">
   <stop stop-color="#5aa02c" offset="0"/>
   <stop stop-color="#5aa02c" offset="1"/>
  </linearGradient>
 </defs>
 <metadata>
  <rdf:RDF>
   <cc:Work rdf:about="">
    <dc:format>image/svg+xml</dc:format>
    <dc:type rdf:resource="http://purl.org/dc/dcmitype/StillImage"/>
    <dc:title/>
   </cc:Work>
  </rdf:RDF>
 </metadata>
 <path d="m10.454 539.9 560.55-323.16 498.71 317.53-528.69 312.33z" fill="#fbfbfb" fill-opacity=".98431" stroke="#000" stroke-dasharray="4.82700039, 4.82700039" stroke-width="4.827"/>
 <g stroke="#fff" stroke-width="2.4135">
  <path d="m544.47 685.34 362.58-210.06v64.221l-361.18 207.41z" fill="#a40"/>
  <path d="m544.47 618.67 362.58-207.61v64.221l-362.58 210.06z" fill="#5aa02c" stroke-width="2.414"/>
  <path d="m183.86 476.16v59.868l362.01 210.88-1.403-61.56z" fill="#d9680d"/>
  <path d="m224.44 482.48v16.963l320.04 185.91v-66.676z" fill="#71c837"/>
 </g>
 <g fill="#fff" stroke-width="1.2872">
  <path d="m456.53 589.5c-1.6701-1.0136-2.9912-1.0835-3.9542-0.20066-0.95911 0.88991-1.439 2.6129-1.439 5.1654 0 2.2045 0.35044 4.131 1.0481 5.7757 0.69588 1.6407 1.8189 3.1992 3.3645 4.6727l1.2558 1.1878c1.0441 0.99974 1.789 2.0224 2.2409 3.0722 0.45793 1.0519 0.68769 2.2747 0.68769 3.6724 0 1.6009-0.3152 2.657-0.94867 3.1641-0.63491 0.50816-1.5388 0.43528-2.7144-0.22535-0.77715-0.43673-1.5722-1.1097-2.3811-2.0138-0.81093-0.90656-1.6404-2.0455-2.4905-3.4152v4.0256c0.88463 1.1001 1.7345 2.0273 2.5523 2.7917 0.82235 0.76599 1.5966 1.3508 2.3193 1.753 1.9071 1.0615 3.3444 1.1516 4.3188 0.27379 0.97795-0.87118 1.4637-2.6823 1.4637-5.4294 0-2.3041-0.36074-4.3446-1.0835-6.1321-0.71778-1.8008-1.8384-3.4225-3.3662-4.8639l-1.2409-1.2038c-1.1321-1.0605-1.9074-2.0347-2.3185-2.9181-0.40499-0.89337-0.60563-1.9752-0.60563-3.247 0-1.5158 0.30362-2.5051 0.91424-2.9608 0.61608-0.45069 1.4867-0.33502 2.6097 0.3405 0.64456 0.38779 1.3124 0.96158 2.0015 1.7194 0.68736 0.75612 1.4158 1.7118 2.1868 2.8714v-3.7487c-0.76444-0.94449-1.513-1.7599-2.2476-2.4468-0.73645-0.68864-1.4602-1.247-2.173-1.6797m6.4239 4.4105 5.2204 17.855v13.356l1.9833 1.1058v-13.31l5.0929-11.555-2.0841-1.263-3.9857 9.1002-4.0712-13.983-2.1558-1.3065m14.184 8.5957v27.613l1.8546 1.034v-23.027l6.1796 26.473 2.4982 1.3929v-27.103l-1.7982-1.0898v22.742l-6.1641-26.479-2.5699-1.5574m12.311 7.4606v3.0778l4.7782 2.8694v23.733l1.8092 1.0087v-23.656l4.6637 2.8007v-3.0156l-11.251-6.8186m14.903 9.0316-4.9538 23.533 1.8616 1.038 1.1813-6.1118 5.7741 3.2912 1.1538 7.3419 1.7694 0.98658-4.8224-28.889-1.9641-1.1903m8.0006 4.8486 3.8593 14.328-4.4292 11.261 1.8211 1.0153 3.4967-8.972 3.4268 12.832 1.7524 0.97712-4.1539-15.637s3.8978-9.9441 3.8978-9.9441l-1.7565-1.0645s-3.0435 7.6977-3.0435 7.6977l-3.0637-11.399-1.8072-1.0952m-7.0205-0.7583 2.3478 14.414-4.7112-2.711 2.3633-11.703" style="font-feature-settings:normal;font-variant-caps:normal;font-variant-ligatures:normal;font-variant-numeric:normal"/>
  <path d="m594.33 611.39c-0.61045 0.34633-1.2645 0.79789-1.958 1.3556-0.68736 0.55414-1.4244 1.2189-2.2159 1.9967v2.7726c0.78455-0.83656 1.5011-1.5284 2.154-2.0845 0.65244-0.55567 1.2655-0.99649 1.8349-1.3203 1.0418-0.59244 1.8376-0.73055 2.3921-0.41113 0.56089 0.30513 0.84328 1.0464 0.84328 2.2232 0 1.1462-0.27209 2.1803-0.81255 3.1032-0.54062 0.91322-1.3213 1.6634-2.3427 2.2477l-1.8717 1.0707v2.5528l1.7917-1.027c1.131-0.64835 2.0088-0.76761 2.6385-0.36089 0.63603 0.39234 0.95381 1.2652 0.95381 2.6158 0 1.4632-0.34078 2.7764-1.0246 3.9384-0.67755 1.1589-1.6663 2.1138-2.9689 2.8661-0.74819 0.43197-1.4669 0.7157-2.1541 0.85597-0.68769 0.14031-1.3199 0.12821-1.8981-0.0413v3.0043c0.72969-0.042 1.4339-0.16857 2.1146-0.37764 0.68721-0.20264 1.3543-0.4928 1.9993-0.8661 1.9192-1.1106 3.3974-2.5835 4.4362-4.4223 1.038-1.8368 1.5544-3.8828 1.5544-6.1419 0-1.4719-0.27868-2.5503-0.83829-3.2313-0.55317-0.68516-1.3243-0.90328-2.3158-0.6527 0.89589-0.85066 1.5851-1.8471 2.07-2.9939 0.48463-1.1564 0.72808-2.369 0.72808-3.6366 0-1.8198-0.45841-3.0007-1.3736-3.5442-0.916-0.55426-2.1602-0.38562-3.7362 0.50849m203.3-115.34c-1.3714 0.77799-2.4519 1.9192-3.2373 3.422-0.78037 1.5009-1.1699 3.1696-1.1699 5.0066 0 1.5865 0.28447 2.6622 0.85164 3.228 0.56686 0.56548 1.4839 0.69345 2.7497 0.38446l1.0322-0.25878c0.86081-0.20697 1.4763-0.13 1.8502 0.22847 0.3794 0.35521 0.5699 1.0392 0.5699 2.0559 0 1.1646-0.2613 2.2132-0.78583 3.1445-0.52486 0.93179-1.2708 1.6784-2.2383 2.2372-0.63813 0.36847-1.2895 0.58113-1.9509 0.63866-0.66178 0.0575-1.3373-0.0362-2.0281-0.27788v2.8972c0.71891 0.0203 1.4113-0.0537 2.0787-0.21731 0.67257-0.16674 1.307-0.42278 1.9004-0.76613 1.5709-0.9091 2.76-2.1134 3.5686-3.6161 0.81351-1.5046 1.2183-3.2587 1.2183-5.2626 0-1.6806-0.30071-2.8443-0.90232-3.4968-0.59645-0.66537-1.5252-0.83743-2.7874-0.51274l-1.0217 0.23884c-0.92919 0.24443-1.564 0.2322-1.9002-0.039-0.33081-0.28362-0.4946-0.88526-0.4946-1.8028 0-1.0937 0.24795-2.0797 0.7469-2.9568 0.50426-0.87975 1.2182-1.5807 2.1412-2.1055 0.53114-0.30194 1.0824-0.49044 1.6517-0.56463 0.56926-0.0741 1.1736-0.0404 1.8144 0.10297v-2.7312c-0.63541 9e-3 -1.2563 0.0989-1.8646 0.26833-0.60868 0.16967-1.2058 0.42192-1.7928 0.755m12.069-6.8474c-1.7411 0.98778-3.1363 2.7498-4.184 5.2896-1.0433 2.5302-1.5638 5.4282-1.5638 8.6939 0 3.2656 0.5205 5.5673 1.5638 6.9017 1.0478 1.3299 2.443 1.4898 4.184 0.48225 1.7323-1.0025 3.1164-2.7675 4.1506-5.2926 1.033-2.5314 1.5473-5.4134 1.5473-8.6501 0-3.2458-0.5144-5.5383-1.5473-6.8767-1.0341-1.349-2.4184-1.531-4.1506-0.5482m-235.48 134.02v23.173l2.0517-1.1869v-19.368l6.9052 15.374 2.8248-1.634v-23.043l-2.0361 1.1555v19.294l-6.8968-15.379-2.8487 1.6167m32.569-18.484-5.3007 28.792 1.7363-1.0068 5.2492-28.549v2.4049l5.3653-3.0517v20.149l2.0454-1.1832v-20.129l5.3272-3.0301v-2.5814l-14.423 8.1854m16.157-9.1694v14.133c0 2.9518 0.48013 4.9037 1.4399 5.8552 0.96555 0.94675 2.387 0.87342 4.2663-0.21412 1.8693-1.0817 3.279-2.6443 4.2309-4.6938 0.95768-2.0514 1.4381-4.5454 1.4381-7.4808v-14.056l-2.012 1.142v13.689c0 2.4152-0.28769 4.3247-0.86322 5.7235-0.5757 1.3894-1.5073 2.4561-2.7937 3.199-1.2944 0.74758-2.2315 0.75891-2.8102 0.033-0.57892-0.73643-0.86854-2.3197-0.86854-4.7435v-13.738l-2.0273 1.1507m15.127-8.5854v22.475l1.9921-1.1524v-9.4918l2.162-1.2407c0.78535-0.45071 1.4036-0.55721 1.8546-0.32585 0.45743 0.22751 0.92775 0.95097 1.4108 2.173l1.8691 4.6644 2.1174-1.2249-2.0002-4.9562c-0.40403-1.0264-0.80998-1.7822-1.2143-2.2696-0.3979-0.49135-0.80901-0.72844-1.2333-0.70512 0.81577-0.82767 1.4376-1.8286 1.8612-3.0006 0.43009-1.1752 0.64505-2.4668 0.64505-3.8752 0-2.1576-0.41029-3.5343-1.2318-4.1364-0.82204-0.60266-2.0714-0.43003-3.7456 0.52019l-4.487 2.5466m10.49-5.9534v2.5474l5.1583-2.934v19.762l1.9707-1.1399v-19.743l5.1254-2.9152v-2.532l-12.254 6.9547m14.141-8.026v22.205l8.9047-5.1511v-2.5187l-6.963 4.0192v-19.657l-1.9417 1.102m10.915-6.1948v22.086l9.1208-5.2762v-2.5048l-7.2 4.156v-7.9934l6.7357-3.8612v-2.5054l-6.7357 3.8528v-6.5304l7.03-3.9986v-2.505l-8.9509 5.0801m18.381-10.432v21.885l1.8888-1.0927v-9.243l2.0503-1.1765c0.74496-0.42744 1.3311-0.52209 1.7588-0.29019 0.43378 0.22825 0.8798 0.93967 1.338 2.1369l1.7727 4.57 2.0082-1.1618-1.8971-4.8561c-0.38311-1.0055-0.76831-1.7475-1.1517-2.2282-0.37732-0.48434-0.76734-0.72121-1.1698-0.70471 0.77378-0.79412 1.3633-1.7597 1.7653-2.8949 0.40788-1.1382 0.61174-2.393 0.61174-3.7647 0-2.1012-0.38921-3.4479-1.1683-4.0462-0.77957-0.5988-1.9644-0.44875-3.5522 0.45238l-4.2548 2.4148m13.229-7.5075v21.741l3.8212-2.2104c2.6438-1.5293 4.5853-3.5301 5.829-5.9974 1.242-2.4642 1.8624-5.5576 1.8624-9.2829 0-3.7058-0.61561-6.0767-1.8515-7.1113-1.2375-1.0456-3.1839-0.8142-5.8399 0.69318l-3.8212 2.1687m14.436-8.193v21.582l1.8371-1.0627v-10.298l5.358-3.0715v-2.4498l-5.358 3.0648v-6.3513l5.9346-3.3756v-2.449l-7.7718 4.4108m25.387-14.409 4.112 7.5765-4.7155 14.077 1.932-1.1176 3.7361-11.2 3.6954 6.9008 1.903-1.1008-4.4962-8.438 4.2174-12.592-1.9061 1.0818s-3.2812 9.7603-3.2812 9.7603-3.2766-6.0385-3.2766-6.0385l-1.9202 1.0898m12.993-7.3736v21.163s1.7113-0.98999 1.7113-0.98999v-18.565l3.3562 12.565 1.7623-1.0158 3.3385-16.36v18.484l1.7014-0.98412v-21.033l-2.6025 1.4769-3.3234 16.243-3.3166-12.475-2.6273 1.4911m15.336-8.7035v20.996l7.9624-4.606v-2.382l-6.2237 3.5926v-18.586l-1.7385 0.98666m15.3-8.6835v19.375c0 1.8041-0.15768 3.1472-0.46758 4.0248-0.31086 0.87788-0.84488 1.5367-1.6028 1.9765l-0.53483 0.31035v2.3718l0.65454-0.3806c1.2833-0.74627 2.2132-1.8514 2.7887-3.32 0.58085-1.4709 0.87031-3.4613 0.87031-5.9699v-19.358l-1.7082 0.96956m29.319-16.64v20.508s1.6069-0.92963 1.6069-0.92963v-17.143l5.4111 14.012 2.2122-1.2797v-20.406l-1.5938 0.90465v17.084l-5.4075-14.014-2.2288 1.265m-8.2978 6.6006c1.214-0.69026 2.173-0.48503 2.878 0.61988 0.70989 1.1009 1.0647 2.9497 1.0647 5.5471 0 2.588-0.35478 4.8402-1.0647 6.7547-0.70491 1.9128-1.6641 3.2213-2.878 3.9225-1.2158 0.702-2.1821 0.50372-2.902-0.59151-0.71472-1.0992-1.0724-2.95-1.0724-5.5491 0-2.6083 0.35768-4.8721 1.0724-6.7905 0.71986-1.9201 1.6862-3.2219 2.902-3.913m-169.64 96.879 2.4948-1.419c0.9551-0.54329 1.6762-0.61522 2.1597-0.22012 0.48978 0.38121 0.73466 1.2237 0.73466 2.5335 0 1.3099-0.24488 2.4477-0.73466 3.408-0.48335 0.94696-1.2045 1.6934-2.1597 2.2405l-2.4948 1.4287v-7.9715m53.826-30.613 2.366-1.3456c0.9057-0.5152 1.5896-0.5748 2.0481-0.18302 0.46453 0.37834 0.6967 1.2023 0.6967 2.4779 0 1.2755-0.23217 2.3802-0.6967 3.3081-0.45856 0.91512-1.1424 1.6316-2.0481 2.1504l-2.366 1.3548v-7.7626m13.2-7.5078 2.2467-1.2778c1.8912-1.0756 3.2703-1.1816 4.143-0.32493 0.87819 0.84274 1.3169 2.7115 1.3169 5.6095 0 2.9174-0.43877 5.3078-1.3169 7.1665-0.87272 1.8569-2.2518 3.327-4.143 4.4187l-2.2467 1.2969v-16.889m25.018-11.644c-0.53886 0.30722-1.0914 0.71938-1.6607 1.2358-0.56991 0.50706-1.1598 1.1202-1.7663 1.8403v2.4475c0.50441-0.72965 1.0315-1.3617 1.5775-1.8941 0.54561-0.53215 1.1051-0.96334 1.6799-1.2917 0.90378-0.51621 1.6033-0.57807 2.0994-0.19185 0.50169 0.37303 0.75254 1.1653 0.75254 2.3798v0.25819l-2.3132 1.3261c-1.5032 0.86177-2.6364 1.9717-3.3988 3.3296-0.75688 1.3556-1.1356 2.9405-1.1356 4.7541 0 1.5546 0.30459 2.62 0.91133 3.2 0.61239 0.56654 1.4337 0.55162 2.4647-0.0451 0.81433-0.47132 1.5034-1.0998 2.0657-1.8845 0.56187-0.7937 1.0299-1.785 1.4061-2.9777v2.4399l1.6453-0.95186v-9.158c0-2.4459-0.35769-4.0694-1.0734-4.8647-0.71633-0.79601-1.8007-0.78036-3.2542 0.0483m1.042 7.7913 1.6402-0.94202v0.58954c0 1.7212-0.27772 3.2616-0.83331 4.6245-0.54979 1.3507-1.2833 2.2911-2.1992 2.82-0.665 0.38406-1.1907 0.41455-1.5804 0.0933-0.38406-0.33445-0.57778-0.97049-0.57778-1.9101 0-1.1793 0.25888-2.1624 0.77473-2.9478 0.51569-0.785 1.4411-1.561 2.7757-2.3274" style="font-feature-settings:normal;font-variant-caps:normal;font-variant-ligatures:normal;font-variant-numeric:normal"/>
  <path d="m769.95 573.94c-2.0414 1.1562-3.6519 3.195-4.8297 6.1106-1.1791 2.9082-1.7693 6.3104-1.7693 10.204 0 3.8831 0.59018 6.6098 1.7693 8.1789 1.1778 1.5565 2.7883 1.7429 4.8297 0.56208 0.79388-0.45913 1.544-1.087 2.2526-1.8845 0.71408-0.80042 1.3888-1.7716 2.024-2.9132v-3.4088c-0.61126 1.3743-1.2631 2.5127-1.9591 3.4202-0.69059 0.90462-1.4275 1.5847-2.2091 2.0358-1.5409 0.88934-2.7232 0.72957-3.5438-0.48203-0.82108-1.2234-1.231-3.4267-1.231-6.6145 0-3.1987 0.40997-5.8761 1.231-8.0288 0.82059-2.1617 2.0029-3.6787 3.5438-4.5535 0.78166-0.44372 1.5186-0.61212 2.2091-0.49798 0.69605 0.1107 1.3478 0.50766 1.9591 1.1823v-3.4378c-0.62333-0.41053-1.2911-0.60572-2.0052-0.57791-0.70844 0.0129-1.4656 0.24852-2.2714 0.70491m12.512-7.0868c-1.874 1.0614-3.3757 3.0476-4.5033 5.9533-1.1229 2.8946-1.6857 6.2463-1.6857 10.052s0.56283 6.5127 1.6857 8.1218c1.1276 1.604 2.6292 1.8626 4.5033 0.77865 1.8645-1.0785 3.3517-3.0622 4.465-5.9514 1.112-2.8967 1.6685-6.2304 1.6685-10.003-1.7e-4 -3.7828-0.55656-6.4795-1.6685-8.0925-1.1133-1.6254-2.6004-1.9151-4.465-0.85905m-185.51 105.54v16.327c0 3.4098 0.50796 5.6918 1.523 6.8453 1.0212 1.1484 2.5278 1.1477 4.5156-1e-3 1.9773-1.1437 3.4685-2.8743 4.4756-5.1882 1.013-2.3158 1.5182-5.1681 1.5182-8.5598v-16.239l-2.1254 1.2044v15.821c0 2.7903-0.30426 4.975-0.9131 6.5583-0.60917 1.5726-1.5947 2.7522-2.9553 3.5375-1.3694 0.79029-2.3606 0.75029-2.9727-0.12113-0.61238-0.88353-0.91858-2.7237-0.91858-5.5235v-15.875l-2.1476 1.2168m16.005-9.0687v25.968l2.1046-1.2169v-10.962l2.291-1.3133c0.83121-0.47649 1.4853-0.56988 1.9627-0.27709 0.48399 0.28871 0.98166 1.1512 1.493 2.5906l1.9752 5.4974 2.2441-1.2975s-2.12-5.8385-2.12-5.8385c-0.4275-1.2088-0.85421-2.107-1.282-2.693-0.42107-0.59023-0.85631-0.88738-1.3054-0.88436 0.86354-0.91041 1.5182-2.025 1.9667-3.3553 0.4552-1.3338 0.68286-2.8143 0.68286-4.4419 0-2.4932-0.43443-4.1124-1.3038-4.8543-0.86999-0.74259-2.1893-0.61506-3.9608 0.38883l-4.7478 2.6901m14.762-8.3637v25.797l2.0769-1.2009v-25.772l-2.0769 1.1768m9.4617-5.3609-5.3208 32.038 1.7436-1.0107 5.3124-32.01s-1.7353 0.98323-1.7353 0.98323m3.8037-2.1552v25.642l2.0524-1.1866v-25.619l-2.0524 1.1629m6.1276-3.4718v25.572l2.041-1.1801v-10.795l2.2217-1.2737c0.80611-0.46211 1.4405-0.54848 1.9035-0.25602 0.46933 0.28847 0.95203 1.1421 1.448 2.5641 0 0 1.9156 5.431 1.9156 5.431l2.1766-1.2585-2.0563-5.7682c-0.41463-1.1942-0.82847-2.0823-1.2434-2.6631-0.40852-0.58486-0.8304-0.88123-1.266-0.8821 0.8375-0.8892 1.4724-1.9813 1.9075-3.2876 0.44134-1.3097 0.66209-2.7658 0.66209-4.3686 0-2.4553-0.42139-4.0536-1.2645-4.7917-0.84376-0.73871-2.1231-0.6243-3.8413 0.34929l-4.6044 2.6089m14.316-8.1116v25.405l2.0146-1.1648v-25.382l-2.0146 1.1415m12.471-7.0661v25.261l1.9946-1.1534v-12.018l7.2086-4.1282v11.978l1.9779-1.1436v-25.131l-1.9779 1.1207v10.31l-7.2086 4.1187v-10.345l-1.9946 1.1302m13.086-7.4142v2.8606l5.1565-2.9285v22.196l1.9702-1.1392v-22.176l9.7747-5.5512v22.075l1.9461-1.1252v-22.056l5.0702-2.8795v-2.829l-23.917 13.552m25.785-14.61v24.811l1.9242-1.1126v-9.9613l2.4107-1.3824c1.5864-0.90977 2.7842-2.2224 3.5913-3.9321 0.81287-1.7122 1.219-3.785 1.219-6.2228 0-2.4157-0.40611-4.0177-1.219-4.8032-0.80707-0.80066-2.0049-0.75124-3.5913 0.14754l-4.3348 2.4561m17.619-9.9833v15.361c0 3.2082 0.44956 5.3716 1.3483 6.4896 0.90409 1.1134 2.2382 1.1611 3.9983 0.14303 1.7511-1.0129 3.0718-2.5937 3.9638-4.7392 0.89734-2.1472 1.3449-4.8157 1.3449-8.0077v-15.284l-1.8855 1.0683v14.889c0 2.6259-0.2695 4.6724-0.80883 6.143-0.53934 1.4604-1.4094 2.5373-2.6143 3.2328-1.2127 0.69981-2.0903 0.63042-2.6322-0.20915-0.54224-0.85095-0.81335-2.5922-0.81335-5.2267v-14.938l-1.9012 1.0772m14.175-8.0316v24.443l1.8095-1.0462v-20.428l6.0926 16.905 2.491-1.4402v-24.322l-1.7949 1.0169v20.361l-6.0886-16.911-2.5098 1.422m14.067-7.9701v24.279l1.8428-1.0654v-24.259l-1.8428 1.0441m32.757-18.559v23.899l3.6634-2.1181c2.5333-1.4648 4.3944-3.5012 5.5863-6.1126 1.1907-2.6085 1.7855-5.9649 1.7855-10.062 0-4.0759-0.59276-6.727-1.7776-7.9652-1.1862-1.2502-3.0491-1.1598-5.5942 0.28223l-3.6634 2.0756m13.839-7.8407v23.74l8.3534-4.8297v-2.6935l-6.5942 3.8039v-8.5927l6.171-3.534v-2.6941l-6.171 3.5258v-7.02l6.4384-3.6564v-2.6937l-8.1977 4.6447m20.143-11.413-4.8852 26.331 1.8283-1.0571 1.1673-6.7118 5.7479-3.3062 1.1569 5.3509 1.7851-1.0321-4.8423-20.684-1.9578 1.1093m8.4472-4.7861v14.614c0 3.052 0.40692 5.122 1.2203 6.2094 0.81819 1.0834 2.0255 1.1645 3.619 0.2429 1.5852-0.91688 2.7809-2.3857 3.5882-4.4034 0.81254-2.0192 1.2177-4.5464 1.2177-7.5838v-14.544l-1.7071 0.96724v14.167c0 2.4986-0.24392 4.4385-0.73209 5.8236-0.48849 1.3752-1.2759 2.3767-2.3666 3.0063-1.0977 0.63347-1.892 0.54402-2.3825-0.26917-0.49074-0.82401-0.73628-2.4878-0.73628-4.9941v-14.211l-1.7205 0.9749m11.098-6.288v2.6522l4.4331-2.5176v20.582l1.6942-0.9796v-20.564l4.4087-2.5037v-2.6382l-10.536 5.9698m12.16-6.89v23.139l1.6713-0.96633v-11.009l6.0534-3.4666v10.976l1.6584-0.95886v-23.031l-1.6584 0.93965v9.4477l-6.0534 3.4586v-9.4764l-1.6713 0.94695m-74.616 44.482c1.3066-0.74181 2.339-0.44839 3.0978 0.87558 0.76427 1.3196 1.1461 3.4926 1.1461 6.5194 0 3.0162-0.38182 5.6176-1.1461 7.812-0.75881 2.1926-1.7911 3.6679-3.0978 4.422-1.3084 0.75514-2.3515 0.47558-3.1261-0.83796-0.76927-1.318-1.1541-3.4883-1.1541-6.517 0-3.0393 0.38487-5.6589 1.1541-7.8576 0.77472-2.2005 1.8176-3.6739 3.1261-4.4166m-167.4 95.53 2.6433-1.501c1.0108-0.57403 1.7707-0.62005 2.2823-0.13629 0.51825 0.46805 0.7773 1.4604 0.7773 2.9741s-0.25905 2.8094-0.7773 3.8913c-0.51166 1.067-1.2716 1.8872-2.2823 2.4654l-2.6433 1.512v-9.2054m34.09-19.359 2.5635-1.4557c0.9802-0.55671 1.7172-0.59555 2.2135-0.11481 0.50266 0.46534 0.75398 1.4449 0.75398 2.9356 0 1.4906-0.25132 2.7645-0.75398 3.8257-0.49621 1.0464-1.2333 1.8476-2.2135 2.4084l-2.5635 1.4662v-9.0652m65.542-37.221 2.4107-1.3689c0.89139-0.50621 1.5808-0.4962 2.0671 0.034 0.48592 0.52986 0.72969 1.534 0.72969 3.0135 0 1.4906-0.24377 2.7765-0.72969 3.8603-0.48624 1.0844-1.1757 1.8855-2.0671 2.3956l-2.4107 1.3794v-9.3138m78.479-44.567 2.1498-1.2208c1.8122-1.0292 3.1366-1.04 3.9731-0.027 0.84167 0.99812 1.2623 3.0889 1.2623 6.276 0 3.2085-0.42059 5.8014-1.2623 7.7737-0.83652 1.9706-2.161 3.4806-3.9731 4.526l-2.1498 1.2402v-18.568m33.17-18.318 2.3472 10.341-4.6894 2.6913 2.3422-13.033" style="font-feature-settings:normal;font-variant-caps:normal;font-variant-ligatures:normal;font-variant-numeric:normal"/>
 </g>
 <g stroke-width="1.2872">
  <path d="m182.37 565.38c-2.4279-1.4022-5.2152-1.7456-8.361-1.0283-3.1336 0.70899-6.2062 2.3782-9.2153 5.0035-2.9935 2.6117-4.6571 5.0703-4.9958 7.3776-0.32985 2.2965 0.71167 4.138 3.1235 5.5266 0.93899 0.54059 1.9797 0.92402 3.1184 1.1479 1.1459 0.22797 2.3955 0.29965 3.7492 0.21503l2.6386-2.2823c-1.519 0.26762-2.8869 0.3315-4.1042 0.19514-1.21-0.13226-2.2799-0.46431-3.2053-0.99726-1.8227-1.0497-2.5677-2.4162-2.2391-4.1033 0.33732-1.6963 1.7345-3.6184 4.1968-5.7634 2.4755-2.1564 4.8551-3.5218 7.137-4.1001 2.2925-0.58606 4.3561-0.35381 6.1882 0.70386 0.93019 0.53701 1.6084 1.2163 2.0349 2.0344 0.43349 0.82181 0.61689 1.789 0.54573 2.9019l2.6933-2.3296c-0.14465-0.94792-0.49852-1.796-1.0546-2.5436-0.54082-0.75109-1.2909-1.4038-2.2505-1.9578m14.97 8.6452c-2.2517-1.3003-4.9454-1.5726-8.08-0.81495-3.1152 0.75358-6.1589 2.4179-9.1332 4.9862-2.9672 2.5623-4.6592 4.9834-5.0759 7.2675-0.40911 2.2845 0.50529 4.0696 2.7422 5.3576 2.2293 1.2835 4.891 1.5579 7.9841 0.82055 3.1055-0.74545 6.1416-2.3888 9.1153-4.9315 2.9891-2.556 4.7074-4.982 5.1454-7.2787 0.44731-2.3077-0.45398-4.1108-2.698-5.4066m34.034 19.654c-2.413-1.3935-5.203-1.7424-8.3692-1.0447-3.1538 0.68958-6.2616 2.328-9.3206 4.9111-3.0432 2.5698-4.7503 4.9928-5.1262 7.2711-0.36685 2.2677 0.64884 4.0905 3.046 5.4706 0.93324 0.53731 1.9679 0.91784 3.1063 1.1429 1.1456 0.22919 2.3978 0.30431 3.7568 0.22537l2.6821-2.2456c-1.5276 0.25914-2.9006 0.31754-4.1193 0.17862-1.2115-0.13483-2.276-0.46472-3.1959-0.99442-1.8115-1.0432-2.5406-2.3977-2.1845-4.0632 0.36491-1.6746 1.7995-3.5668 4.3027-5.6773 2.5166-2.1218 4.9212-3.4642 7.2189-4.0276 2.3083-0.57106 4.3775-0.33264 6.1984 0.71853 0.92448 0.53372 1.5908 1.2053 2.0057 2.015 0.42188 0.81335 0.59068 1.7694 0.50188 2.8685l2.7377-2.2921c-0.13033-0.93696-0.46864-1.7742-1.0147-2.5147-0.5306-0.74384-1.2727-1.3912-2.2263-1.9419m53.527 30.911c-1.7321-1.0003-3.5922-1.3839-5.575-1.1484-1.9744 0.23944-3.8202 1.0598-5.5387 2.4584-1.4823 1.2064-2.2812 2.3534-2.3996 3.4402-0.11843 1.086 0.4243 2.246 1.6275 3.4802l0.9882 1.0019c0.81629 0.84265 1.1898 1.6158 1.125 2.322-0.0578 0.70989-0.55976 1.449-1.5103 2.2181-1.088 0.88025-2.2554 1.3688-3.5023 1.4628-1.2465 0.094-2.4786-0.20811-3.6945-0.90833-0.80131-0.46148-1.467-1.0556-1.9957-1.7779-0.52878-0.72259-0.92678-1.5749-1.1986-2.5564l-2.6839 2.1841c0.49635 0.84642 1.0611 1.5912 1.6913 2.2402 0.63699 0.6528 1.3299 1.1947 2.0744 1.6233 1.9734 1.1361 3.9492 1.6084 5.9317 1.4148 1.9907-0.18973 3.9218-1.0434 5.7966-2.5579 1.5745-1.272 2.4476-2.5035 2.6232-3.6983 0.19148-1.1987-0.3211-2.4095-1.5409-3.6302l-0.9641-1.0054c-0.90175-0.89314-1.3498-1.6391-1.3396-2.2354 0.0259-0.59941 0.47035-1.2469 1.3296-1.9452 1.0248-0.83283 2.1292-1.2965 3.3145-1.3857 1.1928-0.0852 2.3709 0.20972 3.5366 0.88264 0.67105 0.38741 1.2502 0.88495 1.7351 1.4914 0.48484 0.60622 0.89363 1.3359 1.2259 2.192l2.5793-2.0851c-0.47338-0.73331-1.0112-1.3889-1.6154-1.968-0.60442-0.57916-1.278-1.0814-2.0203-1.51m21.158 12.218c-1.2974-0.74918-2.774-1.0031-4.4251-0.75928-1.6414 0.23667-3.1722 0.92465-4.5891 2.0609-0.52442 0.42054-0.97165 0.90343-1.3459 1.4462-0.36535 0.53551-0.65241 1.1182-0.86433 1.7536-1.8058 0.14835-3.4373 0.4823-4.8919 0.99974-1.4449 0.51011-2.7216 1.2119-3.8328 2.1039-1.864 1.4966-2.8568 3.0338-2.9777 4.6098-0.11212 1.5676 0.67777 2.834 2.3661 3.806 0.91757 0.52827 1.9613 0.8752 3.1321 1.0376 1.1796 0.15542 2.5161 0.13498 4.0167-0.0611l-0.40951 2.3897 2.6456 1.5233 0.78229-4.6429c1.7479-0.49731 3.3654-1.0889 4.8544-1.7735 1.4903-0.68524 2.8567-1.4612 4.0947-2.3305l-1.9594-1.1299c-1.0381 0.76896-2.1177 1.441-3.2391 2.0163-1.1119 0.56795-2.2617 1.0397-3.4502 1.4188l1.4464-8.5125c0.18077-1.0261 0.38895-1.782 0.62349-2.2606 0.25042-0.48177 0.59944-0.899 1.0455-1.2562 0.77007-0.61671 1.6242-0.98819 2.564-1.1096 0.95583-0.12434 1.8012 0.029 2.5409 0.45608 0.47907 0.27659 0.88848 0.66211 1.2256 1.1586 0.34578 0.48937 0.61951 1.0776 0.81965 1.7602l2.3986-1.9137c-0.28244-0.59833-0.63701-1.1296-1.0638-1.5937-0.41979-0.46015-0.92225-0.85919-1.5074-1.1971m52.383 30.25c-1.7161-0.99101-3.5721-1.3755-5.5691-1.1546-1.9887 0.2248-3.862 1.0205-5.6211 2.3847-1.5174 1.1767-2.3499 2.2968-2.4946 3.3631-0.14449 1.0656 0.37307 2.2072 1.5524 3.4251 0 0 0.96885 0.98876 0.96885 0.98876 0.79998 0.83152 1.16 1.5943 1.0782 2.2872-0.0748 0.69664-0.59649 1.4197-1.5694 2.1697-1.1136 0.85852-2.3009 1.3302-3.5555 1.416-1.2542 0.0857-2.4847-0.21721-3.6892-0.91098-0.7939-0.45723-1.4454-1.0421-1.9592-1.7541-0.51402-0.71215-0.8936-1.5511-1.1435-2.516l-2.7474 2.1303c0.4785 0.83356 1.0281 1.5678 1.6457 2.2082 0.62439 0.64419 1.3043 1.178 2.042 1.6027 1.9552 1.1257 3.9288 1.5996 5.9245 1.4198 2.0039-0.17592 3.967-1.0022 5.8859-2.4794 1.6114-1.2406 2.5175-2.445 2.7222-3.6172 0.22063-1.1758-0.26558-2.3672-1.4619-3.5718l-0.9477-0.99381c-0.88459-0.88153-1.3138-1.6144-1.2895-2.1996 0.0402-0.58831 0.49877-1.2235 1.3782-1.9045 1.049-0.81228 2.1723-1.2598 3.3649-1.3413 1.2-0.0774 2.3763 0.21823 3.5312 0.88493 0.66483 0.3838 1.2347 0.87529 1.7075 1.4731 0.47264 0.59767 0.86597 1.316 1.1795 2.1582l2.6399-2.0336c-0.45814-0.72237-0.98277-1.3688-1.576-1.9403-0.59339-0.57172-1.2612-1.0701-1.9966-1.4948m56.953 32.891c-2.3574-1.3613-5.157-1.7304-8.3981-1.1052-3.2282 0.61762-6.4653 2.1416-9.7087 4.5683-3.2266 2.4141-5.0941 4.7054-5.6076 6.8757-0.50368 2.1603 0.41622 3.9136 2.7586 5.2623 0.91189 0.52499 1.9354 0.90164 3.0731 1.1312 1.1446 0.23354 2.406 0.32139 3.7844 0.2635l2.8426-2.1095c-1.5594 0.22777-2.9474 0.26762-4.1713 0.11945-1.2167-0.14433-2.2767-0.4748-3.1753-0.99237-1.77-1.0194-2.4276-2.3218-1.9702-3.9074 0.46695-1.5941 2.028-3.3821 4.6818-5.3648 2.668-1.9932 5.1771-3.2438 7.5326-3.7519 2.3666-0.51537 4.444-0.26111 6.223 0.76585 0.90321 0.52144 1.5405 1.173 1.9125 1.9511 0.37883 0.78191 0.49039 1.695 0.33635 2.7432l2.9012-2.153c-0.077-0.89613-0.36991-1.6996-0.87851-2.4136-0.49279-0.71694-1.205-1.3445-2.1366-1.8825m33.834 19.538c-2.1812-1.2596-4.8921-1.5621-8.1328-0.9063-3.2204 0.6524-6.4442 2.1586-9.6666 4.5165-3.2149 2.3522-5.1213 4.5962-5.7262 6.7322-0.59726 2.1366 0.18841 3.8278 2.3556 5.0756 2.1598 1.2434 4.8358 1.5458 8.0329 0.90803 3.2103-0.6452 6.425-2.1324 9.6445-4.4663 3.2362-2.3459 5.1694-4.594 5.7965-6.7413 0.63732-2.1574-0.13033-3.8632-2.304-5.1183m31.049 17.931c-1.6896-0.97573-3.5439-1.3646-5.5639-1.1677-2.0119 0.20079-3.93 0.95614-5.7553 2.2637-1.5745 1.1278-2.4571 2.2068-2.6447 3.2395-0.18744 1.032 0.28914 2.1434 1.4294 3.3346 0 0 0.93708 0.96714 0.93708 0.96714 0.77313 0.81321 1.1059 1.556 0.99629 2.2272-0.10298 0.67487-0.65647 1.3715-1.6659 2.0904-1.1553 0.82291-2.3697 1.2701-3.637 1.3424-1.2666 0.0723-2.4943-0.23204-3.6804-0.9152-0.78181-0.45022-1.4149-1.023-1.9048-1.7179-0.48978-0.69501-0.83925-1.5117-1.0529-2.4495l-2.8512 2.0421c0.44924 0.81245 0.97409 1.5292 1.571 2.1555 0.6037 0.63009 1.2677 1.1536 1.994 1.5718 1.9254 1.1085 3.8948 1.5851 5.912 1.4279 2.0254-0.15333 4.0352-0.93759 6.026-2.3535 1.6718-1.1891 2.6317-2.3493 2.8838-3.4841 0.26838-1.1383-0.17473-2.2978-1.3324-3.4762 0 0-0.91567-0.97185-0.91567-0.97185-0.85631-0.86242-1.26-1.5767-1.2126-2.144 0.0644-0.57011 0.55044-1.1821 1.4629-1.8348 1.0885-0.77857 2.2374-1.2028 3.4418-1.2715 1.2118-0.0647 2.385 0.23212 3.522 0.88856 0.65454 0.37789 1.2093 0.85937 1.662 1.4432 0.45262 0.58362 0.82059 1.2836 1.1033 2.1029l2.7386-1.9491c-0.43298-0.70438-0.93612-1.3357-1.5113-1.8951-0.57522-0.55948-1.2283-1.0485-1.9524-1.4666m-272.5-156.87-18.912 16.134 2.0837 1.1997 15.813-13.472-8.7752 17.525 2.8874 1.6625 18.987-16.069-2.0943-1.2094-15.89 13.467 8.8082-17.557-2.9092-1.6799m31.668 18.287-19.111 15.965 10.184 5.8638 2.17-1.8005-8.0512-4.6371 6.9067-5.7616 7.5506 4.3534 2.1852-1.8138-7.556-4.3581 5.6803-4.7386 7.899 4.5598 2.1989-1.8247-10.057-5.8077m13.807 7.973-19.197 15.892 2.1353 1.2294 7.6854-6.3528 2.6933 1.5526c1.7731 1.0221 3.5967 1.3928 5.4715 1.115 1.883-0.27374 3.7751-1.1919 5.6802-2.7582 1.8905-1.5544 2.8699-2.9989 2.9335-4.3305 0.0794-1.3359-0.76954-2.5174-2.5494-3.5452l-4.8524-2.802m10.945 6.3205-2.2095 1.8158 5.6256 3.2475-17.088 13.992 2.1436 1.2342 17.1-13.982 5.6231 3.2461 2.2191-1.8076-13.414-7.746m63.984 36.948-25.64 12.055 2.2333 1.2858 6.4418-3.1347 7.0611 4.0686s-3.6022 4.7666-3.6022 4.7666l2.1984 1.2658 13.724-18.912-2.4163-1.3953m10.697 6.1772-19.731 15.439 5.6049 3.227c1.7496 1.0074 3.5788 1.4099 5.4833 1.2118 1.9057-0.19821 3.7409-0.97948 5.502-2.3475 1.3401-1.0409 2.1642-2.0746 2.4762-3.1018 0.32806-1.0308 0.11405-1.9578-0.64491-2.7787 1.0438 0.36246 2.1462 0.39685 3.3104 0.0977 1.1648-0.29925 2.3548-0.92232 3.5698-1.8664 1.5713-1.221 2.3455-2.4171 2.3231-3.5864-0.0224-1.1702-0.84147-2.2222-2.4618-3.1579l-5.4315-3.1364m25.87 14.939-2.2812 1.7548 5.5576 3.2082-17.641 13.522 2.1136 1.2169 17.653-13.512 5.5522 3.2051 2.2904-1.7469-13.244-7.648m15.297 8.8332-19.986 15.222 2.1047 1.2118 8.4182-6.4028 2.2942 1.3226c0.83448 0.48106 1.2702 1.0279 1.3124 1.6362 0.0493 0.61211-0.33699 1.5724-1.1605 2.8823 0 0-3.1249 5.0178-3.1249 5.0178l4.3843 2.5243 6.5396-3.0484 6.999 4.0328s-3.7249 4.6658-3.7249 4.6658l2.1792 1.2547 14.208-18.514-2.395-1.383-25.859 11.645 3.2413-5.2286c0.6939-1.0991 1.1451-2.0177 1.3575-2.7531 0.21942-0.73179 0.20425-1.3047-0.051-1.7143 1.1911 0.25723 2.4309 0.20227 3.7156-0.16744 1.2924-0.36591 2.5712-1.0274 3.8368-1.985 1.941-1.4687 2.9523-2.8195 3.0373-4.056 0.0851-1.2374-0.76617-2.3744-2.5525-3.4059l-4.775-2.7574m41.049 23.704-2.3208 1.721 5.518 3.1853-17.947 13.261 2.0985 1.2082 17.959-13.252 5.5126 3.1822 2.33-1.7131-13.15-7.5934m15.188 8.7701-20.331 14.928 2.0898 1.2032 20.344-14.917-2.1025-1.2142m23.014 13.289-20.472 14.808 2.0188 1.1623 17.117-12.365-10.297 16.292 2.8007 1.6126 20.542-14.747-2.0317-1.1733-17.193 12.359 10.336-16.319-2.8209-1.6291m-264.04-149.97c1.5712 0.90705 2.1216 2.2178 1.6467 3.9355-0.46714 1.7196-1.8958 3.6022-4.2832 5.6466-2.3744 2.0333-4.7086 3.3753-7.0017 4.0262-2.2839 0.65439-4.2076 0.53243-5.7706-0.36775-1.5633-0.90038-2.1186-2.2064-1.6718-3.9199 0.45446-1.7115 1.8645-3.5877 4.2306-5.6279 2.379-2.0513 4.7216-3.4084 7.0258-4.0688 2.3137-0.657 4.2526-0.53113 5.8241 0.3761m251.71 145.31c1.5217 0.87859 1.976 2.1182 1.3575 3.7213-0.61078 1.6053-2.2101 3.3467-4.795 5.2232-2.5708 1.8663-5.046 3.0848-7.4247 3.6555-2.3696 0.57409-4.3119 0.42596-5.826-0.44616-1.5145-0.87229-1.977-2.1093-1.3874-3.7094 0.59758-1.5981 2.1778-3.3338 4.741-5.2067 2.5771-1.883 5.0619-3.1153 7.4522-3.6945 2.3999-0.57587 4.36-0.42197 5.8822 0.45679m-193.72-111.31 2.7016 1.5596c0.99919 0.57681 1.4514 1.2835 1.3664 2.1178-0.085 0.83392-0.70462 1.7274-1.8603 2.6789-1.1632 0.95778-2.3305 1.5364-3.503 1.7397-1.172 0.20318-2.2527 0.0175-3.2495-0.55725l-2.6953-1.5542 7.2399-5.9846m85.543 49.382 3.1458 1.816c1.0375 0.59891 1.5574 1.2381 1.5647 1.9164 0.0144 0.68214-0.47955 1.4116-1.4816 2.1913-1.0102 0.78608-2.0186 1.2261-3.0249 1.3173-0.99023 0.0882-2.0006-0.16664-3.036-0.76388l-3.1399-1.811 5.972-4.6661m41.13 23.744 2.6555 1.5329c1.0182 0.58775 1.4834 1.2622 1.3969 2.0168-0.0705 0.75134-0.69142 1.5706-1.8675 2.4618-1.175 0.89035-2.3305 1.4176-3.4614 1.5782-1.1146 0.15785-2.1804-0.0584-3.1964-0.64432l-2.6497-1.528 7.1226-5.4174m-53.179-30.102s-6.9197 9.3868-6.9197 9.3868l-5.765-3.3229 12.685-6.064m69.843 40.316s-7.1603 9.1891-7.1603 9.1891l-5.7143-3.2937 12.875-5.8954m-102.13-50.081-1.5078 8.8804c-1.0674 0.14868-2.0307 0.16631-2.8899 0.0529-0.85052-0.12023-1.6063-0.37262-2.2722-0.7561-1.1216-0.64593-1.6364-1.5189-1.5395-2.6202 0.097-1.1021 0.77962-2.1604 2.0466-3.1764 0.7643-0.61282 1.6418-1.1131 2.6327-1.5006 1.007-0.39066 2.1844-0.68363 3.5299-0.88004m36.191 22.487 3.3988 1.9598c1.1396 0.65708 1.6865 1.3714 1.6404 2.1459-0.0303 0.77131-0.66193 1.6391-1.8955 2.5989-1.2237 0.9519-2.4118 1.5001-3.5606 1.6477-1.1327 0.14481-2.265-0.1107-3.4019-0.76557l-3.3911-1.9532 7.21-5.6334" style="font-feature-settings:normal;font-variant-caps:normal;font-variant-ligatures:normal;font-variant-numeric:normal"/>
  <path d="m421.18 634.4c-1.6798-1.0274-3.0265-0.62575-4.0383 1.2122-1.008 1.8323-1.5132 4.8116-1.5132 8.9364 0 4.125 0.50533 7.7123 1.5132 10.758 1.0118 3.044 2.3587 5.0623 4.0383 6.0565 1.6703 0.98853 3.0018 0.56066 3.9979-1.2788 0.99462-1.8484 1.4922-4.811 1.4922-8.8912 0-4.0916-0.49766-7.6532-1.4922-10.687-0.99615-3.0499-2.3275-5.0841-3.9979-6.1057m-151.09-91.888v3.2893l5.208 3.1722v25.496l1.9829 1.1743v-25.462l5.1587 3.1422v-3.2625l-12.35-7.549m14.247 8.7089v28.602l1.9534 1.1569v-13.602l7.0468 4.2372v13.537l1.9302 1.143v-28.393l-1.9302-1.1798v11.653l-7.0468-4.2524v-11.708l-1.9534-1.1941m14.753 9.0181v28.32l9.0664 5.3692v-3.2067l-7.154-4.2521v-10.246l6.6956 4.026v-3.2076l-6.6956-4.0405v-8.3708l6.9854 4.2547v-3.2069l-8.8978-5.4389m17.017 10.402 3.4563 30.042 2.3403 1.3859 2.9182-22.427 2.8792 25.861 2.3144 1.3706 3.4021-25.65-1.8596-1.1368-2.8448 21.722-2.867-25.214-2.0772-1.2697-2.8783 21.827-2.8952-25.357-1.8883-1.1543m19.722 12.056v27.619l8.6246 5.1075v-3.1278l-6.8056-4.045v-9.9929l6.3696 3.8299v-3.1287l-6.3696-3.8438v-8.1639l6.645 4.0476v-3.1282l-8.4641-5.1739m11.597 7.0892v27.398l4.7406 2.8074c1.4741 0.87298 2.6085 0.87779 3.4046 0.0238 0.79531-0.85302 1.1944-2.4936 1.1944-4.9242 0-1.8474-0.24333-3.529-0.72849-5.0481-0.47961-1.5288-1.1558-2.7528-2.0289-3.6684 0.72674 0.19443 1.278-0.0841 1.6525-0.84339 0.37431-0.75895 0.56052-1.9734 0.56052-3.6392 0-2.1521-0.36634-4.0349-1.0978-5.6485-0.73221-1.6154-1.7744-2.8367-3.1315-3.6663l-4.566-2.791m18.021 11.016v27.054l1.7454 1.0336v-10.858l2.1906 1.3141c1.4388 0.86315 2.5224 0.83193 3.2539-0.087 0.73647-0.91453 1.1044-2.6967 1.1044-5.3506 0-2.63-0.36795-4.8494-1.1044-6.6558-0.73153-1.8169-1.8151-3.1647-3.2539-4.0442l-3.936-2.406m10.618 6.4907v26.852l7.8777 4.6652v-3.0419l-6.1584-3.6603v-23.764l-1.7194-1.051m13.285 8.1207-4.7852 23.764 1.792 1.0612 1.1434-6.1566 5.622 3.3569 1.13 7.4753 1.7424 1.0319-4.7297-29.362-1.915-1.1705m5.4004 3.3012v3.0185l4.3869 2.6721v23.403l1.6734 0.99099v-23.374l4.3462 2.6473v-2.9958l-10.406-6.3614m12.009 7.3409v26.267l1.6453 0.97434v-12.53l4.8009 2.8868v-2.9783l-4.8009-2.8972v-7.7276l5.3196 3.2401v-2.9773l-6.9649-4.2574m22.408 13.697v25.839l1.5946 0.94432v-10.91l1.73 1.0384c0.62816 0.37711 1.1226 0.95903 1.4834 1.7388 0.36572 0.78247 0.74175 2.1492 1.1279 4.1033l1.4939 7.4855 1.6916 1.0018-1.598-7.9678c-0.32277-1.6389-0.6473-2.9694-0.97039-3.9897-0.3181-1.0177-0.64666-1.7583-0.98599-2.215 0.65229-0.0214 1.1492-0.46296 1.4879-1.3265 0.34369-0.85992 0.51553-2.0985 0.51553-3.7162 0-2.4781-0.32807-4.5272-0.98454-6.1555-0.65712-1.6298-1.656-2.8567-2.9951-3.6752l-3.5908-2.1949m11.151 6.8166v25.627l1.5197 0.89995v-22.476l2.9781 19.329 1.5627 0.93111 2.958-15.692v22.35l1.5062 0.89198v-25.426l-2.3042-1.4086-2.9454 15.57-2.942-19.169-2.3327-1.426m-19.141-9.3134c1.1707 0.71356 2.0952 2.2238 2.7744 4.5367 0.6839 2.3139 1.0256 5.1075 1.0256 8.3825 0 3.2636-0.34172 5.6418-1.0256 7.1326-0.67927 1.4955-1.6037 1.8982-2.7744 1.203-1.1727-0.69651-2.1078-2.2068-2.8026-4.5271-0.69022-2.3195-1.0356-5.1228-1.0356-8.4046 0-3.2934 0.34537-5.6853 1.0356-7.1741 0.69488-1.4841 1.63-1.8637 2.8026-1.1489m-71.962-43.335 2.6436 1.6104c0.86994 0.52992 1.5149 1.2658 1.9374 2.205 0.42806 0.94226 0.64112 2.0986 0.64112 3.4742 0 1.3877-0.21306 2.2956-0.64112 2.7188-0.42246 0.41482-1.0674 0.35882-1.9374-0.16612l-2.6436-1.5952v-8.2471m17.977 10.951 2.1906 1.3344c0.80867 0.4926 1.4341 1.3164 1.8748 2.4629 0.44055 1.1459 0.65902 2.5232 0.65902 4.1345 0 1.6233-0.21847 2.7402-0.65902 3.3525-0.44083 0.6127-1.0662 0.67367-1.8748 0.18685l-2.1906-1.3187v-10.153m63.57 38.724 1.9963 1.216c0.76395 0.4654 1.3406 1.2052 1.7272 2.2105 0.39163 0.99643 0.58728 2.2433 0.58728 3.7481s-0.19565 2.533-0.58728 3.078c-0.38649 0.53697-0.96315 0.573-1.7272 0.11276l-1.9963-1.2025v-9.1629m-40.458-24.058 2.2947 14.603-4.5868-2.7487 2.2922-11.855m-41.087-14.361 2.8632 1.7218c0.95774 0.57591 1.6641 1.4068 2.1214 2.4974 0.46298 1.0813 0.6961 2.4764 0.6961 4.1802 0 1.6915-0.23312 2.8123-0.6961 3.3644-0.45741 0.54377-1.1637 0.53015-2.1214-0.0391l-2.8632-1.7017v-10.023" fill="#fff" style="font-feature-settings:normal;font-variant-caps:normal;font-variant-ligatures:normal;font-variant-numeric:normal"/>
  <path d="m900.83 570.77c-0.9962 0.13838-1.8977 0.32809-2.7026 0.57195-0.80493 0.24386-1.5172 0.54286-2.137 0.89563-1.4459 0.82316-2.095 1.8371-1.9515 3.042 0.14947 1.2018 1.0675 2.441 2.7529 3.7177 1.456 1.1028 2.8911 1.7945 4.3053 2.0741 1.4145 0.27972 2.9797 0.18387 4.6982-0.28597l1.3953-0.38653c1.1739-0.31797 2.2244-0.39153 3.1489-0.21684 0.93041 0.17131 1.8648 0.61304 2.8031 1.323 1.0751 0.81339 1.625 1.5983 1.6499 2.3538 0.025 0.75559-0.47354 1.4226-1.4958 2.005-0.6737 0.38376-1.5086 0.66168-2.5046 0.83279-0.99597 0.17102-2.1508 0.24225-3.4663 0.21055l2.6618 2.0143c1.1577-0.12705 2.1903-0.31381 3.0986-0.55937 0.91416-0.24894 1.6833-0.55129 2.3098-0.90822 1.6608-0.94612 2.4438-2.0252 2.3444-3.2368-0.0934-1.2148-1.0675-2.5212-2.9195-3.922-1.5528-1.1744-3.1079-1.9293-4.6667-2.2626-1.5611-0.34313-3.192-0.27213-4.893 0.21056l-1.4016 0.37395c-1.2444 0.35797-2.2556 0.4758-3.0357 0.35513-0.78277-0.13049-1.5956-0.515-2.4386-1.1533-1.0046-0.76073-1.5174-1.4977-1.5367-2.2092-0.0129-0.71489 0.46536-1.3499 1.4394-1.9044 0.56074-0.31924 1.2579-0.56337 2.0898-0.73222 0.83192-0.1688 1.8227-0.2695 2.9697-0.30168zm-12.108 6.0621-1.7348 0.98991 15.952 12.093-21.815-8.7553-2.4072 1.3702 19.063 14.468 1.7378-0.98991-15.955-12.105 21.826 8.7615 2.4135-1.3733zm-15.172 9.5786c-1.5686-0.0375-2.9294 0.27351-4.0885 0.93335-1.8605 1.0592-2.4539 2.5868-1.7786 4.585 0.67282 1.9892 2.5125 4.1279 5.5216 6.4172 3.0108 2.2904 5.9657 3.7988 8.8652 4.5253 2.9064 0.72332 5.2923 0.55555 7.1557-0.50594 1.8572-1.058 2.447-2.583 1.7693-4.5756-0.68599-1.9984-2.5323-4.1386-5.5373-6.4203-3.0118-2.287-5.9666-3.7926-8.8621-4.5159-1.0887-0.27361-2.1041-0.42059-3.0451-0.44312zm0.26713 1.9233c0.86231-0.0278 1.8319 0.11636 2.9069 0.43054 2.1563 0.62509 4.437 1.8512 6.8446 3.68 2.4001 1.8229 3.9164 3.4824 4.5505 4.9779 0.64006 1.4924 0.31116 2.6089-0.98991 3.3501-1.3011 0.74117-3.0359 0.79984-5.2009 0.17598-2.1588-0.62706-4.4366-1.8525-6.835-3.6768-2.406-1.8299-3.9256-3.4936-4.5567-4.9873-0.62509-1.4966-0.2877-2.6133 1.0119-3.3532 0.64978-0.36994 1.4066-0.5692 2.2689-0.59708zm-12.944 4.3556-1.7913 1.0182 19.035 14.494 1.7944-1.0213zm-3.5291 2.0082-11.194 6.3732 2.1621 1.6498 4.6982-2.6775 16.86 12.853 1.8039-1.0245-16.864-12.853 4.6982-2.6743zm-12.727 7.2468-1.8007 1.0245 11.543 8.8087c2.0385 1.556 3.25 2.8248 3.636 3.8056 0.37747 0.97456-8e-3 1.7908-1.1565 2.4449-1.1543 0.65755-2.4332 0.79041-3.8402 0.40225-1.4154-0.39461-3.1446-1.3689-5.1821-2.9258l-11.536-8.815-1.7976 1.0245 11.851 9.0601c2.4789 1.8945 4.7796 3.082 6.898 3.5638 2.1247 0.47846 4.0251 0.24111 5.7006-0.71337 1.6695-0.95109 2.2969-2.1552 1.8824-3.6076-0.40847-1.4556-1.856-3.1289-4.3368-5.0219zm-17.366 9.8866-1.7913 1.0182 18.987 14.531 8.2524-4.7014-2.1684-1.6561-6.4548 3.68zm-6.9671 4.9055c-1.5672-0.0391-2.9307 0.27246-4.0916 0.93335-1.8635 1.0608-2.4638 2.5923-1.7976 4.5976 0.66394 1.9962 2.4963 4.143 5.4933 6.4423 2.9987 2.3005 5.9427 3.8159 8.8369 4.5473 2.901 0.72827 5.2863 0.56347 7.1525-0.49967 1.8601-1.0597 2.457-2.5918 1.7882-4.5913-0.67706-2.0053-2.5129-4.1537-5.5059-6.4454-2.9998-2.2969-5.9469-3.8096-8.8369-4.5379-1.0866-0.27544-2.0986-0.4228-3.0388-0.44624zm0.2577 1.9295c0.86171-0.0272 1.8278 0.11765 2.9006 0.43368 2.1519 0.62907 4.4277 1.8622 6.8256 3.6988 2.3905 1.8309 3.8982 3.496 4.5253 4.9967 0.6333 1.4978 0.30062 2.6202-1.0025 3.3626-1.3032 0.74234-3.037 0.7975-5.1978 0.1697-2.1544-0.63103-4.4241-1.8635-6.8132-3.6957-2.3964-1.8379-3.9072-3.504-4.5316-5.003-0.61831-1.5019-0.27718-2.6246 1.0245-3.3658 0.65081-0.37052 1.4072-0.56989 2.269-0.59709zm-12.36 4.849c-0.99578 0.13758-1.8939 0.32802-2.6995 0.57196-0.80558 0.24392-1.5188 0.54502-2.1401 0.89877-1.4499 0.82542-2.108 1.8428-1.9735 3.0545 0.14046 1.2086 1.0477 2.4565 2.7215 3.7428 1.4459 1.1112 2.873 1.8095 4.2833 2.093 1.4104 0.28349 2.9756 0.19002 4.6951-0.27967l1.3984-0.38969c1.1745-0.31786 2.2207-0.38765 3.1426-0.21055 0.92785 0.17373 1.8587 0.61705 2.7906 1.3325 1.0677 0.81959 1.6116 1.6098 1.631 2.3695 0.0194 0.75981-0.48331 1.4336-1.5085 2.0176-0.67553 0.38482-1.5119 0.66232-2.5077 0.83279-0.9958 0.17036-2.1498 0.23821-3.4631 0.20425l2.6429 2.0302c1.157-0.12601 2.1898-0.31075 3.0985-0.55623 0.91469-0.24886 1.6847-0.55344 2.313-0.91134 1.6654-0.94872 2.4537-2.031 2.3632-3.2494-0.0844-1.2216-1.0458-2.5389-2.8849-3.9502-1.5419-1.1834-3.0906-1.9438-4.6447-2.2816-1.5565-0.34753-3.1845-0.28152-4.8867 0.20112l-1.4016 0.37396c-1.2453 0.35833-2.2575 0.47772-3.0357 0.35511-0.78073-0.13242-1.5889-0.51955-2.4261-1.1627-0.99761-0.76652-1.5034-1.5094-1.5179-2.2249-8e-3 -0.71885 0.4753-1.3546 1.4518-1.9107 0.56226-0.32013 1.261-0.56694 2.093-0.73538 0.83194-0.16849 1.8176-0.26797 2.9634-0.29854zm-18.748 11.571c-2.0174-3e-3 -3.987 0.54317-5.9143 1.6404l-3.6863 2.0993 18.922 14.588 3.6894-2.1055c2.5616-1.4593 3.6824-3.1217 3.3595-4.9905-0.32297-1.868-2.1182-4.0587-5.3832-6.5712-3.2462-2.4981-6.231-3.9894-8.9532-4.4751-0.68251-0.12293-1.3608-0.1846-2.0333-0.18541zm0.74479 1.9986c0.4948 0.0145 0.99802 0.0784 1.5052 0.18543 2.027 0.41827 4.3086 1.6023 6.8446 3.5542 2.5539 1.9659 3.9961 3.6488 4.3273 5.047 0.33717 1.3951-0.4118 2.6144-2.2438 3.658l-2.1684 1.235-14.717-11.342 2.1684-1.2319c1.3724-0.7814 2.7989-1.1516 4.2833-1.1062zm-13.918 3.7742-1.7411 0.99307 15.82 12.203-21.702-8.8558-2.4166 1.3764 18.903 14.603 1.7442-0.99619-15.82-12.215 21.709 8.8589 2.4198-1.3764zm-17.027 9.6917-2.0333 1.1596 13.812 17.505 1.8981-1.081-3.639-4.4437 5.9866-3.4097 6.0652 3.0608 1.8667-1.0622zm1.4928 2.5266 11.844 5.8766-4.8836 2.7811zm-15.728 6.4109c-0.9955 0.13692-1.8966 0.32798-2.7026 0.57196-0.80601 0.24396-1.5207 0.54438-2.1432 0.89879-1.4526 0.82693-2.1145 1.8475-1.9862 3.064 0.13435 1.2133 1.0338 2.4655 2.6995 3.7585 1.439 1.117 2.8632 1.8195 4.2708 2.1055 1.4077 0.2861 2.9718 0.19308 4.6918-0.27654l1.3984-0.38654c1.175-0.31784 2.2225-0.38618 3.1426-0.2074 0.92611 0.1754 1.8506 0.61966 2.778 1.3387 1.0626 0.82382 1.6023 1.6196 1.6184 2.3821 0.0161 0.76269-0.49084 1.4356-1.5179 2.0206-0.67679 0.38553-1.5121 0.66278-2.5077 0.83278-0.9957 0.17-2.1512 0.23669-3.4631 0.20112l2.6335 2.0427c1.1565-0.12537 2.1863-0.31083 3.0955-0.55625 0.91503-0.2488 1.6898-0.55279 2.3193-0.91134 1.6685-0.95048 2.4601-2.0357 2.3758-3.2588-0.0784-1.2263-1.0326-2.5505-2.8629-3.9691-1.5346-1.1894-3.0781-1.9535-4.629-2.294-1.5533-0.3505-3.1807-0.28464-4.8836 0.19798l-1.4016 0.37396c-1.2458 0.35801-2.2589 0.47587-3.0357 0.35197-0.77931-0.13387-1.5835-0.52568-2.4166-1.1722-0.99287-0.77048-1.494-1.513-1.5052-2.2312-5e-3 -0.72155 0.47974-1.3631 1.4581-1.9201 0.56331-0.32072 1.261-0.564 2.093-0.73221 0.832-0.16818 1.8218-0.26597 2.9666-0.29542zm-12.156 6.0872-1.7409 0.99305 15.763 12.25-21.656-8.8966-2.4198 1.3796 18.839 14.653 1.7472-0.9962-15.767-12.259 21.665 8.8998 2.4229-1.3796zm-15.251 9.6257c-1.5645-0.0421-2.9304 0.26732-4.0948 0.9302-1.869 1.064-2.478 2.6071-1.829 4.6259 0.64677 2.0094 2.4566 4.1709 5.4304 6.4894 2.9754 2.3198 5.9061 3.8535 8.7898 4.5944 2.8905 0.73778 5.2712 0.57296 7.1431-0.4934 1.8659-1.0629 2.4712-2.6004 1.8196-4.6133-0.65982-2.0187-2.4732-4.1847-5.4429-6.4957-2.9765-2.3162-5.9037-3.8441-8.7835-4.5819-1.0827-0.27904-2.094-0.43043-3.0326-0.45567zm0.24199 1.9421c0.86057-0.0259 1.8227 0.12306 2.8912 0.44311 2.1434 0.63668 4.4054 1.8812 6.7848 3.7334 2.3719 1.8464 3.8673 3.5234 4.4812 5.0344 0.6202 1.508 0.2763 2.6337-1.0308 3.3783-1.3072 0.74458-3.0392 0.79883-5.1915 0.16341-2.1459-0.63867-4.4018-1.8794-6.7722-3.7271-2.3778-1.8533-3.8732-3.5346-4.4845-5.0438-0.6052-1.5122-0.25594-2.6412 1.0496-3.3846 0.65278-0.37167 1.4116-0.57123 2.272-0.59709zm-12.97 4.3619-1.7976 1.0245 18.811 14.675 1.8007-1.0245zm-3.5417 2.0176-11.247 6.4015 2.137 1.6718 4.7202-2.6869 16.662 13.016 1.8101-1.0308-16.665-13.016 4.7202-2.6869zm-14.98 8.529-2.0396 1.1596 13.698 17.599 1.9013-1.0842-3.6108-4.4688 6.0023-3.416 6.037 3.0828 1.873-1.0685zm1.4771 2.5393 11.797 5.9143-4.8961 2.7874zm-10.037 3.2337c-0.55298 0.0145-1.0808 0.0644-1.5807 0.15093-1.0022 0.16301-1.9004 0.47075-2.6963 0.92391-2.014 1.1465-2.7309 2.7332-2.1495 4.7579 0.57331 2.0187 2.3684 4.2118 5.3832 6.5775 3.0081 2.3603 5.9639 3.8929 8.8683 4.6007 2.897 0.70147 5.3524 0.4796 7.3693-0.66935 0.7853-0.44737 1.379-0.99108 1.7787-1.6278 0.40559-0.6401 0.62146-1.3765 0.64737-2.2092l-2.6555-2.0804c0.19075 0.97006 0.13821 1.8057-0.1572 2.5077-0.28951 0.69874-0.82314 1.2691-1.5964 1.7095-1.5228 0.86745-3.341 1.018-5.4586 0.45253-2.1256-0.57192-4.4259-1.8288-6.898-3.7679-2.4793-1.9448-3.968-3.6568-4.4656-5.1412-0.5058-1.4906 3e-3 -2.6694 1.5242-3.5354 0.77237-0.43975 1.6951-0.7019 2.7717-0.78252 1.0827-0.0842 2.3254 0.0144 3.7271 0.29226l-2.6743-2.0961c-0.60606-0.0569-1.1849-0.0775-1.7378-0.063zm-13.252 6.6434-1.8007 1.0245 18.754 14.726 1.8007-1.0276zm-4.6698 2.6586-7.6491 4.3556 18.736 14.738 1.8039-1.0276-8.9563-7.0456 5.2827-3.0074-2.137-1.675-5.2796 3.0074-5.5184-4.3399 5.8483-3.3311zm-11.235 6.3951-1.8007 1.0276 18.73 14.745 1.8039-1.0276zm-4.8993 3.6894c-0.55273 0.0145-1.0777 0.0676-1.5776 0.15399-1.0021 0.16274-1.9027 0.47029-2.6995 0.92392-2.0158 1.1476-2.7347 2.7352-2.1589 4.7642 0.5676 2.0231 2.3543 4.221 5.3612 6.5932 3.0002 2.3668 5.9515 3.9055 8.8526 4.6164 2.8936 0.70458 5.3473 0.48074 7.3661-0.66938 0.78608-0.44782 1.3806-0.99001 1.7819-1.6278 0.40709-0.64117 0.6255-1.378 0.65365-2.2124l-2.6492-2.0867c0.18801 0.9721 0.13372 1.8107-0.16341 2.514-0.29121 0.69999-0.8255 1.2686-1.5996 1.7095-1.5243 0.86832-3.3436 1.0204-5.4586 0.45252-2.1228-0.57429-4.4166-1.8361-6.8823-3.7805-2.4728-1.9502-3.9565-3.6693-4.4498-5.157-0.50156-1.4939 8e-3 -2.6748 1.5305-3.5417 0.77314-0.44017 1.6986-0.69907 2.775-0.77935 1.0823-0.0837 2.3238 0.0161 3.724 0.2954l-2.6681-2.1024c-0.60561-0.0574-1.1851-0.0805-1.7378-0.0659zm-12.815 6.3983-8.4222 4.7924 18.695 14.776 8.5949-4.8993-2.1338-1.6844-6.7879 3.8686-6.7817-5.355 6.348-3.6172-2.1275-1.6813-6.348 3.6172-5.531-4.3713 6.6214-3.7679zm-11.841 7.8281c-1.2428-0.0192-2.4246 0.29247-3.5448 0.93022l-4.0696 2.3161 18.68 14.786 1.807-1.0276-7.517-5.9489 2.269-1.2916c1.495-0.85138 2.1513-1.8653 1.9704-3.0451-0.17495-1.183-1.1827-2.5054-3.0263-3.9628-1.8263-1.4437-3.5952-2.3197-5.3047-2.6272-0.42789-0.0793-0.84905-0.12241-1.2633-0.12887zm0.60966 2.0835c0.25245 0.0116 0.5127 0.0456 0.77935 0.10053 1.0668 0.22026 2.1603 0.77256 3.2777 1.6561 1.1259 0.89034 1.7632 1.7054 1.9138 2.448 0.1506 0.7428-0.19428 1.354-1.0339 1.8321l-2.2689 1.2916-7.0142-5.5498 2.2657-1.2916c0.62938-0.3584 1.323-0.52144 2.0804-0.48712zm-11.228 3.7051c-0.9949 0.1358-1.8957 0.32788-2.7026 0.57196-0.80694 0.24405-1.5214 0.54295-2.1464 0.89876-1.4584 0.83028-2.1326 1.8594-2.0176 3.0861 0.121 1.2235 1.0071 2.4888 2.6555 3.7962 1.424 1.1294 2.8379 1.839 4.2393 2.1307 1.4016 0.29171 2.961 0.20231 4.6824-0.2671l1.4016-0.38655c1.176-0.31767 2.22-0.38663 3.1363-0.20426 0.92227 0.17897 1.8446 0.63362 2.7623 1.3607 1.0515 0.833 1.579 1.6322 1.587 2.4009 8e-3 0.76891-0.50552 1.449-1.5367 2.0364-0.67951 0.38707-1.5154 0.66372-2.5109 0.83279-0.99543 0.16901-2.1481 0.23378-3.4569 0.19485l2.6021 2.0647c1.1554-0.12358 2.1888-0.3078 3.0986-0.5531 0.91579-0.24869 1.6905-0.55135 2.3224-0.91135 1.6752-0.95432 2.4784-2.0506 2.4072-3.284-0.0651-1.2365-1.0045-2.5723-2.8158-4.0068-1.5186-1.2027-3.0504-1.9753-4.5944-2.3224-1.5462-0.35698-3.1727-0.29401-4.8773 0.18856l-1.4016 0.37082c-1.2471 0.3586-2.2586 0.47562-3.0326 0.34883-0.77623-0.13676-1.5764-0.53105-2.4009-1.1848-0.98252-0.77904-1.4738-1.5323-1.4771-2.2563 3e-3 -0.72741 0.49779-1.3702 1.4802-1.9295 0.56557-0.322 1.2641-0.56777 2.0961-0.73537 0.83206-0.16769 1.8177-0.26523 2.9603-0.29226z" style="font-feature-settings:normal;font-variant-caps:normal;font-variant-ligatures:normal;font-variant-numeric:normal"/>
 </g>
 <circle id="circleone" cx="149.28" cy="524.53" r="29.806" fill="#d9680d" stroke="#000" stroke-linecap="round" stroke-linejoin="round" stroke-width="1.5286" style="paint-order:fill markers stroke"/>
 <path id="numone" d="m157.95 540.17h-16.885v-3.1845h6.4947v-20.909h-6.4947v-2.8492q1.3199 0 2.8284-0.2095 1.5085-0.23046 2.2836-0.64946 0.96373-0.52376 1.5085-1.3199 0.56567-0.81708 0.64947-2.1788h3.2474v28.115h6.3689z" fill="#fff" stroke-width="1.2872" style="font-feature-settings:normal;font-variant-caps:normal;font-variant-ligatures:normal;font-variant-numeric:normal"/>
 <circle id="circletwo" cx="543.48" cy="680.61" r="29.806" fill="#a7eea2" stroke="#000" stroke-linecap="round" stroke-linejoin="round" stroke-width="1.5286" style="paint-order:fill markers stroke"/>
 <path id="twonum" d="m554.9 693.84h-21.118v-4.3787q2.1998-1.8855 4.3996-3.7711 2.2207-1.8855 4.1273-3.7501 4.0225-3.8969 5.51-6.1804 1.4875-2.3046 1.4875-4.9652 0-2.4302-1.6132-3.7921-1.5923-1.3827-4.4625-1.3827-1.9065 0-4.1273 0.67043-2.2208 0.6704-4.3367 2.0531h-0.2095v-4.3996q1.4875-0.73327 3.9597-1.3409 2.493-0.60755 4.8186-0.60755 4.7976 0 7.5212 2.3254 2.7236 2.3046 2.7236 6.2642 0 1.7808-0.46092 3.3311-0.43996 1.5295-1.3199 2.9122-0.81709 1.2989-1.9275 2.556-1.0894 1.257-2.6608 2.7864-2.2417 2.1998-4.6301 4.2739-2.3884 2.0531-4.4625 3.813h16.781z" stroke-width="1.2872" style="font-feature-settings:normal;font-variant-caps:normal;font-variant-ligatures:normal;font-variant-numeric:normal"/>
 <path d="m907.05 411.06-53.765-31.041-308.96 177.67-294.36-89.74-25.526 14.527 320.03 136.19z" fill="url(#linearGradient861)" stroke="#fff" stroke-width="2.414"/>
</svg>
