<svg id="Layer_1" data-name="Layer 1" xmlns="http://www.w3.org/2000/svg" viewBox="0 0 572 192.94"><defs><style>.cls-1{fill:#424a55;}</style></defs><path class="cls-1" d="M117.34,122.21V103a.52.52,0,0,0-.75-.46l-19.3,9.65a.52.52,0,0,0-.29.47v19.18a.52.52,0,0,0,.75.46l19.31-9.65A.53.53,0,0,0,117.34,122.21Z"/><path class="cls-1" d="M143.08,113.25,123.26,102.6a.51.51,0,0,0-.76.45v19.17a.52.52,0,0,0,.27.45l19.82,10.66a.52.52,0,0,0,.76-.46V113.7A.52.52,0,0,0,143.08,113.25Z"/><path class="cls-1" d="M137.78,137l-17.63-8.78a.53.53,0,0,0-.46,0L102.07,137a.52.52,0,0,0,0,.92l17.63,9a.55.55,0,0,0,.47,0l17.62-9A.51.51,0,0,0,137.78,137Z"/><path class="cls-1" d="M193.1,87.89l-19.31,9.65a.54.54,0,0,0-.29.46v46.11a.52.52,0,0,0,.75.46l19.31-9.65a.53.53,0,0,0,.28-.47V88.35A.51.51,0,0,0,193.1,87.89Z"/><path class="cls-1" d="M168.06,97.54l-19.31-9.65a.52.52,0,0,0-.75.46v46.1a.52.52,0,0,0,.29.47l19.31,9.65a.51.51,0,0,0,.74-.46V98A.53.53,0,0,0,168.06,97.54Z"/><path class="cls-1" d="M193.1,60.62l-19.31,9.66a.51.51,0,0,0-.29.46V89.92a.52.52,0,0,0,.75.46l19.31-9.65a.53.53,0,0,0,.28-.46V61.08A.51.51,0,0,0,193.1,60.62Z"/><path class="cls-1" d="M168.06,70.28l-19.31-9.66a.52.52,0,0,0-.75.46V80.27a.52.52,0,0,0,.29.46l19.31,9.65a.51.51,0,0,0,.74-.46V70.74A.5.5,0,0,0,168.06,70.28Z"/><path class="cls-1" d="M188.78,55l-17.62-9a.49.49,0,0,0-.47,0l-17.63,9a.52.52,0,0,0,0,.92l17.62,8.78a.53.53,0,0,0,.46,0L188.78,56A.51.51,0,0,0,188.78,55Z"/><path class="cls-1" d="M91.09,60.62l-19.3,9.66a.5.5,0,0,0-.29.46v46.45a.52.52,0,0,0,.75.46L91.55,108a.5.5,0,0,0,.29-.46V61.08A.52.52,0,0,0,91.09,60.62Z"/><path class="cls-1" d="M66.05,70.28l-19.3-9.66a.52.52,0,0,0-.75.46v46.45a.5.5,0,0,0,.29.46l19.3,9.66a.52.52,0,0,0,.75-.46V70.74A.5.5,0,0,0,66.05,70.28Z"/><path class="cls-1" d="M86.78,55l-17.63-9a.47.47,0,0,0-.46,0L51.06,55a.51.51,0,0,0,0,.92l17.62,8.78a.53.53,0,0,0,.46,0L86.77,56A.51.51,0,0,0,86.78,55Z"/><path class="cls-1" d="M91.09,114.81l-19.3,9.65a.52.52,0,0,0-.29.46v19.19a.52.52,0,0,0,.75.46l19.3-9.65a.52.52,0,0,0,.29-.47V115.27A.52.52,0,0,0,91.09,114.81Z"/><path class="cls-1" d="M66.05,124.46l-19.3-9.65a.52.52,0,0,0-.75.46v19.18a.52.52,0,0,0,.29.47l19.3,9.65a.52.52,0,0,0,.75-.46V124.92A.52.52,0,0,0,66.05,124.46Z"/><path class="cls-1" d="M292.12,126.22a5.48,5.48,0,0,0,1.76-4.15V66.9A5.63,5.63,0,0,0,288,61.09a5.94,5.94,0,0,0-4.33,1.62A5.6,5.6,0,0,0,282,66.9v38.4l-15.72-24a8.4,8.4,0,0,0-2.19-1.86,4.53,4.53,0,0,0-2.58-.62,4.3,4.3,0,0,0-2.47.62,8.28,8.28,0,0,0-2.2,1.86l-15.72,24.87V66.9a5.9,5.9,0,0,0-1.52-4.19,5.24,5.24,0,0,0-4-1.62,5.06,5.06,0,0,0-3.91,1.67,5.89,5.89,0,0,0-1.53,4.14v55.17a5.5,5.5,0,0,0,1.77,4.1,5.82,5.82,0,0,0,4.24,1.72,6.34,6.34,0,0,0,2.86-.72,5.45,5.45,0,0,0,2.19-1.86L262,93.39l21.34,31.92a5.75,5.75,0,0,0,2.05,1.86,5.31,5.31,0,0,0,2.62.72A5.86,5.86,0,0,0,292.12,126.22Z"/><path class="cls-1" d="M351.15,104.92a6,6,0,0,1-4,1.43H315.7a14.38,14.38,0,0,0,5.24,8.82,14.66,14.66,0,0,0,9.25,3.19,20.3,20.3,0,0,0,6.09-.72,15.69,15.69,0,0,0,3.48-1.52l1.76-1.1a7.32,7.32,0,0,1,3.24-.85,4.67,4.67,0,0,1,3.44,1.43,4.56,4.56,0,0,1,1.42,3.33A6,6,0,0,1,347,123.6a23,23,0,0,1-7.15,3.72,29.6,29.6,0,0,1-23-1.81,23.33,23.33,0,0,1-9.2-9.2,26.84,26.84,0,0,1-3.24-13.2,29.31,29.31,0,0,1,3.43-14.39,24.43,24.43,0,0,1,9.06-9.48,23.35,23.35,0,0,1,12-3.28,22.21,22.21,0,0,1,11.86,3.43,25.48,25.48,0,0,1,8.91,9.24A24.78,24.78,0,0,1,353,101.21,4.92,4.92,0,0,1,351.15,104.92Zm-35.35-8.1h25v-.66a9.85,9.85,0,0,0-3.9-6.86,12.37,12.37,0,0,0-8-2.86Q317.8,86.44,315.8,96.82Z"/><path class="cls-1" d="M407.84,59a5.68,5.68,0,0,1,1.62,4.2v58.88a5.71,5.71,0,0,1-1.62,4.15,5.46,5.46,0,0,1-4.09,1.67,5.37,5.37,0,0,1-4.05-1.62,6,6,0,0,1-1.67-4.1,20.62,20.62,0,0,1-15,6.67,21.81,21.81,0,0,1-11.91-3.38,23.81,23.81,0,0,1-8.44-9.39,29.32,29.32,0,0,1-3.09-13.62,29.89,29.89,0,0,1,3.05-13.68A23.41,23.41,0,0,1,371,79.34,21.21,21.21,0,0,1,382.69,76a22,22,0,0,1,8.57,1.66A22.89,22.89,0,0,1,398,81.86V63.19A5.73,5.73,0,0,1,399.65,59a5.47,5.47,0,0,1,4.1-1.67A5.54,5.54,0,0,1,407.84,59ZM394.6,113.83a16.8,16.8,0,0,0,3.9-11.38A17,17,0,0,0,394.6,91a13.35,13.35,0,0,0-20.11,0,17,17,0,0,0-3.9,11.44,16.92,16.92,0,0,0,3.85,11.38,13.48,13.48,0,0,0,20.16,0Z"/><path class="cls-1" d="M468.16,77.58a5.66,5.66,0,0,1,1.62,4.19v42.4q0,11.62-7.2,17.2t-18.24,5.57a44.13,44.13,0,0,1-7.86-.95,34.5,34.5,0,0,1-7.1-1.9c-3.12-1.34-4.67-3.18-4.67-5.53A4.83,4.83,0,0,1,425,137a5.93,5.93,0,0,1,2-3.2,4.72,4.72,0,0,1,3-1.09,5.71,5.71,0,0,1,1.81.28c.25.07,1.82.65,4.72,1.77a22.15,22.15,0,0,0,7.86,1.66q7.05,0,10.53-2.81a9.66,9.66,0,0,0,3.48-8v-4.58a19.12,19.12,0,0,1-6.34,5.34,18.37,18.37,0,0,1-9.1,2.38,22.7,22.7,0,0,1-12.15-3.38,23.72,23.72,0,0,1-8.62-9.39A28.86,28.86,0,0,1,419,102.45a29.53,29.53,0,0,1,3.1-13.68,23.46,23.46,0,0,1,8.48-9.43,22,22,0,0,1,12-3.38,20.66,20.66,0,0,1,9.05,2,21.3,21.3,0,0,1,6.77,4.86v-1A5.73,5.73,0,0,1,460,77.62a5.48,5.48,0,0,1,4.1-1.66A5.56,5.56,0,0,1,468.16,77.58Zm-13.39,36.25a16.42,16.42,0,0,0,4.05-11.38A16.62,16.62,0,0,0,454.77,91a13.29,13.29,0,0,0-10.43-4.57A13.15,13.15,0,0,0,434,91a16.73,16.73,0,0,0-4,11.44,16.52,16.52,0,0,0,4,11.38,13.22,13.22,0,0,0,10.39,4.53A13.36,13.36,0,0,0,454.77,113.83Z"/><path class="cls-1" d="M524.19,104.92a6,6,0,0,1-4,1.43H488.74a14.38,14.38,0,0,0,5.24,8.82,14.66,14.66,0,0,0,9.25,3.19,20.3,20.3,0,0,0,6.09-.72,15.69,15.69,0,0,0,3.48-1.52l1.76-1.1a7.32,7.32,0,0,1,3.24-.85,4.67,4.67,0,0,1,3.44,1.43,4.56,4.56,0,0,1,1.42,3.33A6,6,0,0,1,520,123.6a23,23,0,0,1-7.15,3.72,29.6,29.6,0,0,1-23-1.81,23.33,23.33,0,0,1-9.2-9.2,26.84,26.84,0,0,1-3.24-13.2,29.31,29.31,0,0,1,3.43-14.39,24.43,24.43,0,0,1,9.06-9.48,23.35,23.35,0,0,1,12-3.28,22.27,22.27,0,0,1,11.87,3.43,25.54,25.54,0,0,1,8.9,9.24A24.78,24.78,0,0,1,526,101.21,4.92,4.92,0,0,1,524.19,104.92Zm-35.35-8.1h25v-.66a9.81,9.81,0,0,0-3.9-6.86,12.37,12.37,0,0,0-8-2.86Q490.84,86.44,488.84,96.82Z"/></svg>