<svg xmlns="http://www.w3.org/2000/svg" viewBox="0 0 330 412" color-interpolation-filters="sRGB" fill="none" fill-rule="evenodd" font-size="12" overflow="visible" stroke-linecap="square" stroke-miterlimit="3"><style>.st1{fill:#bb9155;stroke:none;stroke-linecap:butt;stroke-width:12.24}</style><g id="group10-1" transform="translate(12.24 -12.24)"><g id="shape1-2" transform="translate(60.343 -216.036)"><path class="st1" d="M0 398.779h13.464v13.342H0z"/></g><g id="shape2-4" transform="translate(101.102 -308.57)"><path class="st1" d="M0 398.657h13.464v13.464H0z"/></g><g id="shape3-6" transform="translate(116.525 -197.798)"><path d="M0 358.88l28.4 19.09v34.15L0 392.78v-33.9z" class="st1"/></g><g id="shape4-8" transform="translate(116.525 -142.106)"><path d="M0 356.8l28.4 19.46v35.86L0 392.78V356.8z" class="st1"/></g><g id="shape5-10" transform="translate(146.268 -65.606)"><path class="st1" d="M0 398.657h13.464v13.464H0z"/></g><g id="shape6-12" transform="translate(161.078 -197.798)"><path d="M0 377.97l26.81-17.01v32.92L0 412.12v-34.15z" class="st1"/></g><g id="shape7-14" transform="translate(161.078 -141.617)"><path d="M0 375.77l26.81-18.36v37.33L0 412.12v-36.35z" class="st1"/></g><g id="shape8-16" transform="translate(232.315 -280.786)"><path class="st1" d="M0 398.657h13.464v13.464H0z"/></g><g id="shape9-18"><path d="M289.72 24.48H16.28A16.402 16.402-180 000 40.88v218.24a153 153-180 10306 0V40.88a16.402 16.402-180 00-16.28-16.4zm-27.78 123.13h-14.81v27.79l-42.97 29.38v57.16l-42.96 28.03v26.8h14.81v46.02h-46.02v-46.02h14.81v-26.93l-85.68-58.63v-18.85H44.06v-45.9h45.9v45.9H75.15v10.9l25.1 17.13V120.44H84.82V73.81h46.03v46.02h-14.57v21.66L153 165.97l51.04-32.8v51.65l26.68-18.23v-18.98h-14.68v-46.02h45.9v46.02z" class="st1"/></g></g></svg>