<svg xmlns="http://www.w3.org/2000/svg" viewBox="0 0 536 536" color-interpolation-filters="sRGB" fill="none" fill-rule="evenodd" font-size="12" overflow="visible" stroke-linecap="square" stroke-miterlimit="3"><style>.st1,.st2{fill:#f77f00;stroke:none;stroke-linecap:butt;stroke-width:3.00427}.st2{fill:#035e7b}</style><g id="group21-1" transform="translate(3.004 -3.004)"><g id="shape1-2" transform="translate(178.273 -443.761)"><path d="M10.91 449.77s78.41 9.01 64.14 86.19c.06 0-75.05-3.87-64.14-86.19z" class="st1"/></g><g id="shape2-4" transform="translate(262.483 -443.01)"><path d="M78.44 449.77S0 458.78 14.27 535.96c0 0 75.2-3.87 64.17-86.19z" class="st1"/></g><g id="shape3-6" transform="translate(178.273 -356.787)"><path d="M10.91 449.74s78.41 9.01 64.14 86.22c.06 0-75.05-3.9-64.14-86.22z" class="st1"/></g><g id="shape4-8" transform="translate(262.483 -356.036)"><path d="M78.44 449.77S0 458.78 14.27 535.96c0 0 75.2-3.9 64.17-86.19z" class="st1"/></g><g id="shape5-10" transform="translate(178.273)"><path d="M10.91 535.96s78.41-9.01 64.14-86.22c.06 0-75.05 3.9-64.14 86.22z" class="st1"/></g><g id="shape6-12" transform="translate(262.483 -.781)"><path d="M78.44 535.96S0 526.95 14.27 449.77c0 0 75.2 3.9 64.17 86.19z" class="st1"/></g><g id="shape7-14" transform="translate(178.273 -86.974)"><path d="M10.91 535.96s78.41-9.01 64.14-86.19c.06 0-75.05 3.87-64.14 86.19z" class="st1"/></g><g id="shape8-16" transform="translate(262.483 -87.725)"><path d="M78.44 535.96S0 526.95 14.27 449.77c0 0 75.2 3.87 64.17 86.19z" class="st1"/></g><g id="shape9-18" transform="translate(443.731 -178.093)"><path d="M86.19 524.94S77.18 446.52 0 460.8c0 0 3.88 75.16 86.19 64.14z" class="st1"/></g><g id="shape10-20" transform="translate(442.98 -262.423)"><path d="M86.19 457.52S77.18 535.96 0 521.69c0 .12 3.88-75.17 86.19-64.17z" class="st1"/></g><g id="shape11-22" transform="translate(356.787 -178.093)"><path d="M86.19 524.94S77.18 446.52 0 460.8c0 0 3.88 75.16 86.19 64.14z" class="st1"/></g><g id="shape12-24" transform="translate(356.006 -262.423)"><path d="M86.22 457.52S77.21 535.96 0 521.69c0 .12 3.91-75.17 86.22-64.17z" class="st1"/></g><g id="shape13-26" transform="translate(0 -178.093)"><path d="M0 524.94s9.01-78.42 86.19-64.14c0 0-3.87 75.16-86.19 64.14z" class="st1"/></g><g id="shape14-28" transform="translate(.751 -262.423)"><path d="M0 457.52s9.01 78.44 86.22 64.17c0 .12-3.9-75.17-86.22-64.17z" class="st1"/></g><g id="shape15-30" transform="translate(86.974 -178.093)"><path d="M0 524.94s9.01-78.42 86.19-64.14c0 0-3.9 75.16-86.19 64.14z" class="st1"/></g><g id="shape16-32" transform="translate(87.725 -262.423)"><path d="M0 457.52s9.01 78.44 86.19 64.17c0 .12-3.87-75.17-86.19-64.17z" class="st1"/></g><g id="shape17-34" transform="translate(284.863 -284.751)"><path d="M71.14 384.52v67.42l-31.06 31.15a33.047 33.047-180 00-16.43-4.32 33.498 33.498-180 1033.52 33.49 33.047 33.047-180 00-4.35-16.46l31.06-31.12h67.42v-80.16H71.14zM23.65 527.74a15.502 15.502 0 1115.5-15.48 15.502 15.502 0 01-15.5 15.48zm109.65-81.12H89.17v-44.07h44.13v44.07z" class="st2"/></g><g id="shape18-36" transform="translate(279.47 -93.793)"><path d="M58.21 424.68a33.047 33.047-180 004.36-16.43 33.588 33.588-180 10-17.1 29.17l31.07 31.13v67.41h80.15v-80.12H89.27l-31.06-31.16zm-29.17-.93a15.502 15.502 0 1115.5-15.5 15.502 15.502 0 01-15.5 15.5zm65.52 50.08h44.13v44.14H94.56v-44.14z" class="st2"/></g><g id="shape19-38" transform="translate(93.944 -279.522)"><path d="M127.62 473.54a33.047 33.047-180 00-16.43 4.32l-31.07-31.15v-67.42H0v80.16h67.39l31.06 31.12a33.498 33.498-180 1029.17-17.03zm-65.49-32.09H18v-44.13h44.13v44.13zm65.49 81.12a15.502 15.502 0 1115.5-15.47 15.502 15.502 0 01-15.5 15.41v.06z" class="st2"/></g><g id="shape20-40" transform="translate(93.944 -93.793)"><path d="M127.62 374.75a33.468 33.468-180 00-29.17 49.93l-31.06 31.16H0v80.12h80.12v-67.41l31.07-31.25a33.498 33.498-180 1016.43-62.67v.12zM62.13 517.97H18v-44.14h44.13v44.14zm65.49-94.22a15.502 15.502 0 1115.5-15.5 15.532 15.532 0 01-15.5 15.5z" class="st2"/></g></g></svg>