<svg xmlns="http://www.w3.org/2000/svg" viewBox="0 0 505 443" color-interpolation-filters="sRGB" fill="none" fill-rule="evenodd" font-size="12" overflow="visible" stroke-linecap="square" stroke-miterlimit="3"><style>.st1,.st2{fill:#31e981;stroke:none;stroke-linecap:butt;stroke-width:2.49796}.st2{fill:#35605a}</style><g id="group8-1" transform="translate(2.887 -2.853)"><g id="shape1-2" transform="translate(167.613 -.452)"><path d="M59.08 442.79a21.158 21.158 0 01-11.32-39.04c3.42-2.2 79.49-53.01 23.43-166.54C0 92.98 73.69 16.79 76.91 13.62a21.196 21.196 0 1129.98 29.97c-2.1 2.23-54.78 59.28 2.3 174.86 73.46 148.8-37.75 220.4-38.87 221.1a21.008 21.008 0 01-11.24 3.24z" class="st1"/></g><g id="shape2-4" transform="translate(323.586 -173.036)"><path d="M25.4 442.72h-4.99a21.145 21.145 0 011.45-42.27 107.912 107.912-180 00111.31-115.58 21.158 21.158 0 0142.19-3.02A150.127 150.127 0 0125.48 442.79l-.08-.07z" class="st1"/></g><g id="shape3-6" transform="translate(342.845 -220.297)"><path d="M97.45 442.79a11.715 11.715 0 01-8.32-3.42L0 350.22a11.746 11.746 0 1116.61-16.61l89.15 89.15a11.74 11.74 0 01-8.31 19.98v.05z" class="st1"/></g><g id="shape4-8" transform="translate(304.418 -280.873)"><path d="M22.51 442.79a46.937 46.937 0 018.67-84.53 15.962 15.962-180 005.77-6.87 15.437 15.437-180 00-5.34-19.08 26.154 26.154 0 1139.34-6.45 25.654 25.654 0 01-6.82 7.5 14.988 14.988-180 00-5.47 6.27 15.737 15.737-180 005 19.16 46.162 46.162 0 017.22 3.49 46.948 46.948 0 11-48.37 80.49v.02z" class="st2"/></g><g id="shape5-10" transform="translate(0 -81.61)"><path d="M21.08 442.79A21.158 21.158 0 010 423.18a150.152 150.152 0 01154.87-160.86 21.145 21.145 0 11-1.45 42.26 107.862 107.862-180 00-111.3 115.56 21.108 21.108 0 01-19.59 22.6c-.42.05-.95.05-1.45.05z" class="st1"/></g><g id="shape6-12" transform="translate(50.209 -104.242)"><path d="M95.75 442.79a11.69 11.69 0 01-8.32-3.42L0 351.94a11.746 11.746 0 1116.61-16.61l87.43 87.43a11.74 11.74 0 01-8.29 19.98v.05z" class="st1"/></g><g id="shape7-14" transform="translate(99.107)"><path d="M22.67 286.52a46.937 46.937-180 008.62 84.65 16.037 16.037 0 015.77 6.9 15.437 15.437 0 01-5.4 19.01 26.154 26.154-180 1039.44 6.57 26.678 26.678-180 00-6.82-7.5 14.988 14.988 0 01-5.47-6.34 15.712 15.712 0 015-19.14A48.785 48.785-180 0071 367.2a47.027 47.027-180 00-48.33-80.68z" class="st2"/></g></g></svg>