<svg xmlns="http://www.w3.org/2000/svg" viewBox="0 0 586 109" color-interpolation-filters="sRGB" fill="none" fill-rule="evenodd" font-size="12" overflow="visible" stroke-linecap="square" stroke-miterlimit="3"><style>.st1,.st2,.st3{fill:#31e981;stroke:none;stroke-linecap:butt;stroke-width:.614464}.st2,.st3{fill:#35605a}.st3{fill:#000}</style><g id="group17-1" transform="translate(.71 -.702)"><g id="shape1-2" transform="translate(41.23 -.111)"><path d="M14.53 108.92a5.205 5.205 0 01-2.78-9.6c.84-.54 19.55-13.04 5.76-40.97-17.51-35.48.62-54.22 1.41-55a5.214 5.214 0 017.37 7.37c-.51.55-13.47 14.58.57 43.02 18.07 36.6-9.29 54.21-9.56 54.38a5.168 5.168 0 01-2.77.8z" class="st1"/></g><g id="shape2-4" transform="translate(79.598 -42.564)"><path d="M6.25 108.9H5.02a5.201 5.201 0 11.36-10.39 26.545 26.545-180 0027.38-28.44 5.205 5.205 0 0110.38-.74 36.93 36.93 0 01-36.87 39.59l-.02-.02z" class="st1"/></g><g id="shape3-6" transform="translate(84.335 -54.19)"><path d="M23.97 108.92a2.882 2.882 0 01-2.05-.84L0 86.15a2.89 2.89 0 114.09-4.09l21.93 21.93a2.888 2.888 0 01-2.05 4.92v.01z" class="st1"/></g><g id="shape4-8" transform="translate(74.883 -69.09)"><path d="M5.54 108.92a11.546 11.546 0 012.13-20.79 3.926 3.926-180 001.42-1.69 3.797 3.797-180 00-1.32-4.7 6.433 6.433 0 119.68-1.58A6.31 6.31 0 0115.78 82a3.687 3.687-180 00-1.35 1.54 3.871 3.871-180 001.23 4.72 11.355 11.355 0 011.77.86 11.549 11.549 0 01-11.89 19.79v.01z" class="st2"/></g><g id="shape5-10" transform="translate(0 -20.075)"><path d="M5.19 108.92A5.205 5.205 0 010 104.1a36.935 36.935 0 0138.1-39.57 5.201 5.201 0 11-.36 10.39 26.533 26.533-180 00-27.38 28.43 5.192 5.192 0 01-4.82 5.56c-.1.01-.23.01-.35.01z" class="st1"/></g><g id="shape6-12" transform="translate(12.35 -25.642)"><path d="M23.55 108.92a2.876 2.876 0 01-2.04-.84L0 86.57a2.89 2.89 0 114.09-4.08l21.5 21.5a2.888 2.888 0 01-2.04 4.92v.01z" class="st1"/></g><g id="shape7-14" transform="translate(24.379)"><path d="M5.58 70.48A11.546 11.546-180 007.7 91.3 3.945 3.945 0 019.12 93a3.797 3.797 0 01-1.33 4.68 6.433 6.433-180 109.7 1.61 6.562 6.562-180 00-1.68-1.84 3.687 3.687 0 01-1.34-1.56 3.865 3.865 0 011.23-4.71 12 12-180 001.77-.85A11.568 11.568-180 005.58 70.48z" class="st2"/></g><g id="shape8-16" transform="translate(145.898 -22.533)"><path d="M49.22 52.91c6.14 5.63 9.22 13.45 9.22 23.46 0 10.01-3 17.94-8.99 23.78-5.99 5.85-15.13 8.77-27.42 8.77H0V44.48h22.77c11.49 0 20.3 2.81 26.45 8.43zm-10.56 38.3c3.53-3.32 5.3-8.15 5.29-14.47 0-6.33-1.77-11.2-5.29-14.61-3.54-3.41-8.96-5.11-16.28-5.12h-8v39.17h9.12c6.58 0 11.63-1.66 15.16-4.97z" class="st3"/></g><g id="shape9-18" transform="translate(212.07 -21.765)"><path d="M44.81 108.15h-13v-5.99c-3.57 4.51-7.98 6.75-13.23 6.73-5.25-.02-9.66-1.54-13.22-4.56C1.79 101.29 0 97.24.01 92.16c.01-5.07 1.85-8.86 5.53-11.38C9.23 78.26 14.27 77 20.66 77h10.32v-.28c0-5.28-2.79-7.92-8.39-7.92a22.698 22.698-180 00-7.6 1.43 24.64 24.64-180 00-6.76 3.54l-6.15-8.94a36.96 36.96 0 0122.31-7.09c6.02 0 10.93 1.5 14.75 4.51 3.81 3.01 5.71 7.78 5.71 14.29l-.04 31.61zM30.89 89.26v-2.4h-8.63c-5.53 0-8.3 1.72-8.3 5.16a4.75 4.75-180 001.98 4.11c1.32.95 3.21 1.42 5.67 1.42a10.077 10.077-180 006.5-2.25 7.374 7.374-180 002.78-6.06v.02z" class="st3"/></g><g id="shape10-20" transform="translate(268.3 -22.533)"><path d="M2.35 53a8.228 8.228 0 010-11.52 8.11 8.11 0 0113.87 5.76A8.148 8.148 0 012.35 53zm12.67 55.92H1.2v-49.6h13.82v49.6z" class="st3"/></g><g id="shape11-22" transform="translate(296.387 -22.533)"><path d="M13.85 108.92H0V40.51h13.83l.02 68.41z" class="st3"/></g>

<g id="shape12-24" transform="translate(317.149 -3.011)"><path d="M14.75 108.92c-4.86 0-9.43-1.97-13.74-5.9l6.27-10.23c2.34 2.27 4.73 3.41 7.19 3.41a4.03 4.03-180 003.32-1.88 6.685 6.685-180 001.38-4.02c0-1.41-6.39-18.25-19.17-50.51h14.75l12.07 30.88L38.9 39.79h14.74L30.6 98.23a16.455 16.455 0 01-6.31 7.88 17.027 17.027 0 01-9.54 2.81z" class="st3"/></g>

<g id="shape13-26" transform="translate(375.235 -21.814)"><path d="M33.44 95.46c7.07 0 12.84-2.79 17.33-8.38l9.21 9.49c-7.31 8.23-15.92 12.35-25.85 12.35-9.92 0-18.08-3.13-24.5-9.4C3.21 93.25 0 85.34 0 75.79s3.28-17.53 9.83-23.92c6.56-6.39 14.56-9.59 24.01-9.59 10.57 0 19.42 4.03 26.54 12.08L51.42 64.5c-4.55-5.66-10.2-8.48-16.96-8.48a19.761 19.761-180 00-13.87 5.3c-3.84 3.53-5.76 8.3-5.76 14.28-.01 5.99 1.81 10.8 5.44 14.43a17.948 17.948-180 0013.17 5.43z" class="st3"/></g>

<g id="shape14-28" transform="translate(441.947 -21.765)"><path d="M44.79 108.15H31.8v-5.99c-3.57 4.51-7.97 6.75-13.22 6.73-5.26-.02-9.67-1.54-13.23-4.56C1.78 101.29 0 97.24 0 92.16c0-5.07 1.84-8.86 5.53-11.38C9.22 78.26 14.26 77 20.65 77h10.32v-.28c0-5.28-2.8-7.92-8.39-7.92a22.661 22.661-180 00-7.6 1.43 24.683 24.683-180 00-6.76 3.54l-6.14-8.94a36.985 36.985 0 0122.3-7.09c6.02 0 10.94 1.5 14.75 4.51 3.81 3.01 5.71 7.78 5.71 14.29l-.05 31.61zM30.88 89.26v-2.4h-8.69c-5.53 0-8.3 1.72-8.3 5.16a4.744 4.744-180 001.99 4.11c1.32.95 3.21 1.42 5.66 1.42a10.096 10.096-180 006.5-2.25 7.374 7.374-180 002.84-6.06v.02z" class="st3"/></g><g id="shape15-30" transform="translate(499.369 -22.533)"><path d="M26.08 71.48c-4.09 0-7.16 1.46-9.21 4.38-2.05 2.92-3.07 6.77-3.04 11.55v21.51H0v-49.6h13.83v6.54a23.239 23.239 0 016.68-5.16 18.145 18.145 0 018.16-2.21l.09 12.99h-2.68z" class="st3"/></g><g id="shape16-32" transform="translate(534.504 -21.814)"><path d="M45.7 100.99a27.73 27.73 0 01-19.67 7.93c-7.52 0-13.74-2.32-18.66-6.95C2.46 97.33 0 91.11 0 83.3c0-7.81 2.5-14.01 7.51-18.62a25.34 25.34 0 0117.74-6.91c6.83 0 12.62 2.05 17.38 6.14 4.76 4.1 7.14 9.75 7.14 16.96v7.37H13.64a9.831 9.831-180 004.24 6.64 13.567 13.567-180 008.11 2.58c4.86 0 8.85-1.63 11.98-4.88l7.73 8.41zm-13.27-29.4a10.446 10.446-180 00-6.94-2.39 12.449 12.449-180 00-7.51 2.45 9.518 9.518-180 00-3.96 6.76h21.75c-.33-2.95-1.44-5.22-3.34-6.82z" class="st3"/></g></g></svg>