<svg fill="none" fill-rule="evenodd" stroke="black" stroke-width="0.501" stroke-linejoin="bevel" stroke-miterlimit="10" xmlns="http://www.w3.org/2000/svg" version="1.1" overflow="visible" viewBox="0 -132.6 424.5 132.6">
<!-- note: letter are <g> elements, not text -->
<!-- <style type="text/css"> -->
<!-- @font-face {font-family:RussoOne;font-style: normal;font-weight: 400;src:url('https://s3.amazonaws.com/benetta.net/fonts/russo-one/russo-one-v9-latin-regular.woff2') format('woff2');font-display: swap;} -->
<!-- </style> -->
<g id="Layer 1" transform="scale(1 -1)">
<path d="M 0.226,66.332 C 0.226,102.539 29.612,131.925 65.819,131.925 C 76.437,131.925 86.469,129.397 95.345,124.911 C 104.22,129.397 114.252,131.925 124.872,131.925 C 161.079,131.925 190.465,102.539 190.465,66.332 C 190.465,30.124 161.079,0.738 124.872,0.738 C 114.248,0.738 104.213,3.266 95.335,7.744 C 86.462,3.262 76.434,0.738 65.819,0.738 C 29.612,0.738 0.226,30.124 0.226,66.332 Z M 80.614,17.891 C 73.473,24.399 67.781,32.454 64.084,41.503 C 55.214,41.619 48.881,42.425 47.235,43.292 C 45.723,44.025 44.437,45.217 43.798,46.733 C 43.091,48.111 41.99,55.797 41.992,65.84 C 41.99,75.882 43.091,83.567 43.798,84.946 C 44.437,86.458 45.723,87.654 47.235,88.384 C 49.018,89.322 56.286,90.191 66.322,90.191 C 76.358,90.191 83.624,89.322 85.403,88.384 C 86.918,87.654 88.203,86.458 88.843,84.946 C 89.551,83.567 90.649,75.881 90.647,65.84 C 90.649,55.795 89.551,48.111 88.843,46.733 C 88.203,45.217 86.918,44.025 85.403,43.292 C 84.646,42.893 82.891,42.506 80.35,42.195 C 88.928,26.413 105.655,15.692 124.872,15.692 C 152.824,15.692 175.511,38.378 175.511,66.332 C 175.511,94.285 152.824,116.971 124.872,116.971 C 119.711,116.971 114.734,116.197 110.042,114.76 C 117.412,108.027 123.242,99.635 126.939,90.177 C 135.67,90.046 141.893,89.245 143.521,88.39 C 145.037,87.659 146.319,86.464 146.96,84.95 C 147.667,83.572 148.765,75.886 148.765,65.843 C 148.765,55.801 147.667,48.116 146.96,46.737 C 146.319,45.223 145.037,44.029 143.521,43.296 C 141.741,42.362 134.476,41.492 124.439,41.492 C 114.401,41.492 107.135,42.362 105.353,43.296 C 103.84,44.029 102.555,45.223 101.914,46.737 C 101.207,48.116 100.11,55.801 100.11,65.843 C 100.11,75.886 101.207,83.572 101.914,84.95 C 102.555,86.464 103.84,87.659 105.353,88.39 C 106.153,88.811 108.063,89.218 110.832,89.54 C 102.413,105.827 85.408,116.971 65.819,116.971 C 37.867,116.971 15.18,94.285 15.18,66.332 C 15.18,38.378 37.867,15.692 65.819,15.692 C 70.967,15.692 75.933,16.46 80.614,17.891 Z M 73.522,57.444 C 74.092,57.719 74.58,58.171 74.82,58.742 C 75.085,59.265 75.504,62.163 75.504,65.954 C 75.504,69.742 75.085,72.643 74.82,73.165 C 74.58,73.738 74.092,74.187 73.522,74.462 C 72.851,74.816 70.108,75.144 66.322,75.144 C 62.531,75.144 59.79,74.816 59.116,74.462 C 58.548,74.187 58.059,73.738 57.82,73.165 C 57.554,72.643 57.136,69.742 57.138,65.954 C 57.136,62.163 57.554,59.265 57.82,58.742 C 58.059,58.171 58.548,57.719 59.116,57.444 C 59.79,57.091 62.531,56.762 66.321,56.762 C 70.108,56.762 72.851,57.091 73.522,57.444 Z M 131.641,57.45 C 132.21,57.725 132.696,58.175 132.936,58.746 C 133.202,59.268 133.62,62.167 133.62,65.959 C 133.62,69.748 133.202,72.648 132.936,73.169 C 132.696,73.742 132.21,74.193 131.641,74.466 C 130.969,74.819 128.226,75.15 124.44,75.15 C 120.649,75.15 117.907,74.819 117.233,74.466 C 116.665,74.193 116.177,73.742 115.939,73.169 C 115.673,72.648 115.255,69.748 115.255,65.959 C 115.255,62.167 115.673,59.268 115.939,58.746 C 116.177,58.175 116.665,57.725 117.233,57.45 C 117.907,57.096 120.649,56.768 124.439,56.768 C 128.226,56.768 130.969,57.096 131.641,57.45 Z" stroke-linejoin="miter" stroke="none" fill="#1f64ff" stroke-width="0.549" marker-start="none" marker-end="none"/>
<g id="Group" fill-rule="nonzero" stroke-linejoin="miter" stroke="none" stroke-width="0.619" fill="#7f7f7f">
<path d="M 259.744,92.64 L 228.407,92.64 L 228.407,132.224 L 259.744,132.224 L 259.744,124.33 L 238.538,124.33 L 238.538,116.673 L 255.209,116.673 L 255.209,108.779 L 238.538,108.779 L 238.538,100.534 L 259.744,100.534 L 259.744,92.64 Z" marker-start="none" marker-end="none"/>
<path d="M 286.547,122.622 L 297.561,122.622 L 288.548,107.602 L 297.855,92.64 L 286.841,92.64 L 281.774,101.711 L 276.709,92.64 L 265.635,92.64 L 275,107.602 L 265.929,122.564 L 276.945,122.564 L 281.774,113.493 L 286.547,122.622 Z" marker-start="none" marker-end="none"/>
<path d="M 315.351,92.64 L 315.351,83.038 L 305.454,83.038 L 305.454,122.622 L 314.232,122.622 L 314.821,119.795 C 316.587,120.973 318.413,121.798 320.298,122.387 C 322.182,122.917 323.715,123.211 325.01,123.211 L 327.544,123.211 C 330.135,123.211 332.138,122.445 333.729,120.914 C 335.26,119.382 336.025,117.321 336.025,114.728 L 336.025,101.711 C 336.025,98.884 335.202,96.645 333.611,95.055 C 332.02,93.465 329.782,92.64 326.955,92.64 L 315.351,92.64 Z M 322.124,114.965 C 320.122,114.965 317.883,114.612 315.351,113.846 L 315.351,100.298 L 323.832,100.298 C 325.365,100.298 326.071,101.064 326.071,102.535 L 326.071,113.021 C 326.071,113.61 325.895,114.082 325.481,114.434 C 325.129,114.788 324.657,115.024 324.068,115.024 L 322.124,115.024 Z" marker-start="none" marker-end="none"/>
<path d="M 371.724,101.122 C 371.724,98.295 370.899,96.056 369.308,94.466 C 367.718,92.876 365.48,92.051 362.652,92.051 L 349.634,92.051 C 346.806,92.051 344.568,92.876 342.977,94.466 C 341.387,96.056 340.562,98.295 340.562,101.122 L 340.562,114.14 C 340.562,116.967 341.387,119.206 342.977,120.796 C 344.568,122.387 346.806,123.211 349.634,123.211 L 362.652,123.211 C 365.48,123.211 367.718,122.387 369.308,120.796 C 370.899,119.206 371.724,116.967 371.724,114.14 L 371.724,101.122 Z M 361.827,113.257 C 361.827,114.788 361.062,115.495 359.589,115.495 L 352.814,115.495 C 351.284,115.495 350.576,114.728 350.576,113.257 L 350.576,101.946 C 350.576,100.415 351.343,99.708 352.814,99.708 L 359.589,99.708 C 361.122,99.708 361.827,100.474 361.827,101.946 L 361.827,113.257 Z" marker-start="none" marker-end="none"/>
<path d="M 393.929,114.434 C 391.573,114.434 389.099,113.846 386.565,112.727 L 386.565,92.64 L 376.67,92.64 L 376.67,122.622 L 385.447,122.622 L 386.035,118.971 C 389.276,121.798 392.692,123.211 396.227,123.211 L 398.76,123.211 L 398.76,114.434 L 393.929,114.434 Z" marker-start="none" marker-end="none"/>
<path d="M 423.795,92.64 C 420.142,92.287 416.55,92.051 413.074,92.051 C 410.482,92.051 408.478,92.817 406.888,94.348 C 405.357,95.88 404.591,97.941 404.591,100.534 L 404.591,114.965 L 401.175,114.965 L 401.175,122.622 L 404.591,122.622 L 405.711,129.396 L 414.488,129.396 L 414.488,122.622 L 421.556,122.622 L 421.556,114.965 L 414.488,114.965 L 414.488,101.946 C 414.488,101.358 414.664,100.886 415.076,100.534 C 415.43,100.18 415.901,99.944 416.49,99.944 L 423.854,99.944 L 423.854,92.64 Z" marker-start="none" marker-end="none"/>
</g>
<g id="Group_1" fill-rule="nonzero" stroke-linejoin="miter" stroke="none" stroke-width="0.619" fill="#7f7f7f">
<path d="M 248.729,50.228 L 228.407,50.228 L 228.407,58.122 L 233.473,58.122 L 233.473,81.86 L 228.407,81.86 L 228.407,89.753 L 248.788,89.753 L 248.788,81.86 L 243.722,81.86 L 243.722,58.122 L 248.788,58.122 L 248.788,50.228 Z" marker-start="none" marker-end="none"/>
<path d="M 273.352,80.741 C 276.414,80.741 278.771,79.623 280.42,77.325 C 282.128,78.503 284.013,79.328 286.075,79.917 C 288.077,80.447 289.904,80.741 291.494,80.741 L 292.083,80.741 C 294.675,80.741 296.678,79.975 298.268,78.444 C 299.799,76.912 300.565,74.85 300.565,72.259 L 300.565,50.228 L 290.67,50.228 L 290.67,70.61 C 290.67,71.199 290.492,71.67 290.08,72.023 C 289.726,72.377 289.255,72.612 288.666,72.612 L 288.372,72.612 C 286.664,72.612 284.485,72.259 281.893,71.493 L 281.893,50.287 L 271.938,50.287 L 271.938,70.669 C 271.938,71.257 271.761,71.729 271.349,72.082 C 270.995,72.435 270.524,72.671 269.935,72.671 L 269.7,72.671 C 267.991,72.671 265.812,72.317 263.22,71.551 L 263.22,50.346 L 253.265,50.346 L 253.265,80.328 L 262.041,80.328 L 262.63,77.5 C 264.398,78.679 266.224,79.504 268.108,80.093 C 269.994,80.624 271.525,80.918 272.822,80.918 L 273.352,80.918 Z" marker-start="none" marker-end="none"/>
<path d="M 315.351,50.228 L 315.351,40.627 L 305.454,40.627 L 305.454,80.211 L 314.231,80.211 L 314.821,77.384 C 316.587,78.562 318.413,79.386 320.298,79.975 C 322.183,80.505 323.715,80.799 325.011,80.799 L 327.544,80.799 C 330.136,80.799 332.138,80.034 333.729,78.503 C 335.26,76.97 336.025,74.909 336.025,72.317 L 336.025,59.299 C 336.025,56.472 335.2,54.234 333.61,52.643 C 332.02,51.053 329.781,50.228 326.954,50.228 L 315.351,50.228 Z M 322.125,72.553 C 320.122,72.553 317.883,72.2 315.351,71.434 L 315.351,57.887 L 323.832,57.887 C 325.364,57.887 326.071,58.652 326.071,60.124 L 326.071,70.61 C 326.071,71.199 325.894,71.67 325.482,72.023 C 325.129,72.377 324.657,72.612 324.067,72.612 L 322.125,72.612 Z" marker-start="none" marker-end="none"/>
<path d="M 371.722,58.711 C 371.722,55.883 370.898,53.644 369.307,52.054 C 367.717,50.464 365.478,49.64 362.651,49.64 L 349.634,49.64 C 346.806,49.64 344.567,50.464 342.977,52.054 C 341.386,53.644 340.562,55.883 340.562,58.711 L 340.562,71.729 C 340.562,74.556 341.386,76.795 342.977,78.385 C 344.567,79.975 346.806,80.799 349.634,80.799 L 362.651,80.799 C 365.478,80.799 367.717,79.975 369.307,78.385 C 370.898,76.795 371.722,74.556 371.722,71.729 L 371.722,58.711 Z M 361.827,70.845 C 361.827,72.377 361.061,73.083 359.588,73.083 L 352.814,73.083 C 351.283,73.083 350.575,72.317 350.575,70.845 L 350.575,59.536 C 350.575,58.003 351.342,57.297 352.814,57.297 L 359.588,57.297 C 361.12,57.297 361.827,58.062 361.827,59.536 L 361.827,70.845 Z" marker-start="none" marker-end="none"/>
<path d="M 393.929,72.023 C 391.572,72.023 389.098,71.434 386.565,70.315 L 386.565,50.228 L 376.67,50.228 L 376.67,80.21 L 385.446,80.21 L 386.035,76.559 C 389.275,79.386 392.692,80.799 396.225,80.799 L 398.758,80.799 L 398.758,72.023 L 393.929,72.023 Z" marker-start="none" marker-end="none"/>
<path d="M 423.794,50.228 C 420.142,49.875 416.549,49.64 413.073,49.64 C 410.482,49.64 408.479,50.405 406.889,51.937 C 405.357,53.469 404.592,55.53 404.592,58.122 L 404.592,72.553 L 401.175,72.553 L 401.175,80.21 L 404.592,80.21 L 405.71,86.985 L 414.487,86.985 L 414.487,80.21 L 421.556,80.21 L 421.556,72.553 L 414.487,72.553 L 414.487,59.536 C 414.487,58.947 414.664,58.475 415.077,58.122 C 415.43,57.768 415.901,57.532 416.49,57.532 L 423.854,57.532 L 423.854,50.228 Z" marker-start="none" marker-end="none"/>
</g>
<g id="Group_2" stroke-linejoin="miter" stroke="none" stroke-width="0.619">
<path d="M 251.4,47.333 C 255.819,47.333 259.176,46.038 261.473,43.799 C 263.771,41.56 264.89,38.144 264.89,33.726 L 264.868,15.415 C 264.868,10.997 263.749,7.64 261.451,5.343 C 259.154,3.045 255.797,1.926 251.378,1.926 L 228.407,1.926 L 228.429,47.333 L 251.4,47.333 Z M 254.346,33.667 C 254.346,37.201 252.579,38.968 249.045,38.968 L 239.032,38.968 L 239.01,10.056 L 249.023,10.056 C 252.557,10.056 254.324,11.823 254.324,15.356 L 254.346,33.667 Z" fill="#7f7f7f" marker-start="none" marker-end="none"/>
<path d="M 271.524,31.202 C 278.417,31.967 284.66,32.322 290.197,32.322 C 292.79,32.322 294.791,31.556 296.381,30.024 C 297.914,28.493 298.679,26.43 298.679,23.839 L 298.679,1.809 L 289.902,1.809 L 289.313,4.637 C 287.546,3.458 285.721,2.633 283.836,2.044 C 281.951,1.514 280.419,1.22 279.123,1.22 L 277.12,1.22 C 274.529,1.22 272.525,1.985 270.935,3.517 C 269.404,5.048 268.638,7.11 268.638,9.701 L 268.638,12.235 C 268.638,14.826 269.404,16.83 270.935,18.42 C 272.466,19.951 274.529,20.717 277.12,20.717 L 288.725,20.717 L 288.725,22.956 C 288.725,23.545 288.547,24.016 288.136,24.369 C 287.782,24.722 287.311,24.958 286.722,24.958 C 284.248,24.958 281.538,24.84 278.593,24.605 C 275.648,24.369 273.233,24.192 271.465,24.075 L 271.465,31.202 Z M 282.009,9.171 C 284.013,9.171 286.251,9.526 288.783,10.291 L 288.783,13.707 L 280.596,13.707 C 280.007,13.707 279.535,13.531 279.182,13.118 C 278.829,12.765 278.593,12.293 278.593,11.705 L 278.593,11.116 C 278.593,10.527 278.769,10.056 279.182,9.701 C 279.535,9.348 280.007,9.112 280.596,9.112 L 282.009,9.112 Z" fill-rule="nonzero" fill="#7f7f7f" marker-start="none" marker-end="none"/>
<path d="M 324.656,1.809 C 321.005,1.455 317.411,1.22 313.936,1.22 C 311.343,1.22 309.342,1.985 307.751,3.517 C 306.219,5.048 305.454,7.11 305.454,9.701 L 305.454,24.133 L 302.037,24.133 L 302.037,31.792 L 305.454,31.792 L 306.573,38.565 L 315.35,38.565 L 315.35,31.792 L 322.418,31.792 L 322.418,24.133 L 315.35,24.133 L 315.35,11.116 C 315.35,10.527 315.526,10.056 315.938,9.701 C 316.292,9.348 316.763,9.112 317.352,9.112 L 324.715,9.112 L 324.715,1.809 Z" fill-rule="nonzero" fill="#7f7f7f" marker-start="none" marker-end="none"/>
<path d="M 328.898,31.202 C 335.789,31.967 342.033,32.322 347.57,32.322 C 350.162,32.322 352.165,31.556 353.755,30.024 C 355.287,28.493 356.053,26.43 356.053,23.839 L 356.053,1.809 L 347.276,1.809 L 346.687,4.637 C 344.92,3.458 343.094,2.633 341.209,2.044 C 339.323,1.514 337.793,1.22 336.497,1.22 L 334.494,1.22 C 331.902,1.22 329.899,1.985 328.309,3.517 C 326.778,5.048 326.011,7.11 326.011,9.701 L 326.011,12.235 C 326.011,14.826 326.778,16.83 328.309,18.42 C 329.84,19.951 331.902,20.717 334.494,20.717 L 346.098,20.717 L 346.098,22.956 C 346.098,23.545 345.921,24.016 345.509,24.369 C 345.156,24.722 344.684,24.958 344.095,24.958 C 341.621,24.958 338.912,24.84 335.966,24.605 C 333.021,24.369 330.606,24.192 328.839,24.075 L 328.839,31.202 Z M 339.383,9.171 C 341.385,9.171 343.624,9.526 346.157,10.291 L 346.157,13.707 L 337.968,13.707 C 337.381,13.707 336.908,13.531 336.556,13.118 C 336.202,12.765 335.966,12.293 335.966,11.705 L 335.966,11.116 C 335.966,10.527 336.143,10.056 336.556,9.701 C 336.908,9.348 337.381,9.112 337.968,9.112 L 339.383,9.112 Z" fill-rule="nonzero" fill="#7f7f7f" marker-start="none" marker-end="none"/>
</g>
</g>
<!-- <g id="Layer_1" transform="scale(1 -1)"/> -->
</svg>
