<svg viewBox="0 0 360 57" xmlns="http://www.w3.org/2000/svg" color-interpolation-filters="sRGB" fill-rule="evenodd" fill="none" font-size="12" stroke-linecap="square" stroke-miterlimit="3" overflow="visible"><g transform="translate(11.177 -15.759) scale(1.1979)"><path d="M217.75 17.56c-1.3 0-2.33.45-3.11 1.33-.77.85-1.16 1.92-1.16 3.21 0 1.3.39 2.41 1.16 3.33.78.88 1.79 1.33 3.05 1.33 1.29 0 2.33-.45 3.1-1.33.78-.92 1.16-2.03 1.16-3.33 0-1.29-.38-2.36-1.16-3.21-.77-.88-1.79-1.33-3.04-1.33zM63.9 21.94v23.65c0 1.73.26 3.27.77 4.6.52 1.33 1.24 2.45 2.16 3.38.97.89 2.09 1.57 3.39 2.05 1.32.48 2.78.72 4.37.72.88 0 1.72-.06 2.49-.17.78-.11 1.39-.26 1.83-.44v-6.37c-.52.18-1.05.33-1.6.44-.52.11-1.17.17-1.95.17-1.25 0-2.23-.41-2.93-1.22-.67-.85-1-1.9-1-3.16v-9.92h6.65v-5.81h-6.65v-7.92zm130.58 0v23.65c0 1.73.26 3.27.78 4.6s1.23 2.45 2.16 3.38c.96.89 2.08 1.57 3.38 2.05 1.33.48 2.79.72 4.38.72.88 0 1.71-.06 2.49-.17.77-.11 1.38-.26 1.82-.44v-6.37c-.51.18-1.04.33-1.6.44-.52.11-1.17.17-1.94.17-1.26 0-2.24-.41-2.93-1.22-.67-.85-1-1.9-1-3.16v-9.92h6.64v-5.81h-6.64v-7.92zM13.9 29.2c-1.99 0-3.84.35-5.54 1.05-1.69.66-3.17 1.62-4.43 2.88-1.22 1.22-2.17 2.67-2.88 4.38C.35 39.2 0 41.07 0 43.1s.35 3.9 1.05 5.59c.71 1.7 1.66 3.18 2.88 4.43 1.26 1.23 2.74 2.18 4.43 2.89 1.7.66 3.55.99 5.54.99 2 0 3.84-.33 5.54-.99 1.7-.71 3.16-1.66 4.38-2.89 1.25-1.25 2.23-2.73 2.93-4.43.71-1.69 1.06-3.56 1.06-5.59s-.35-3.9-1.06-5.59c-.7-1.71-1.68-3.16-2.93-4.38-1.22-1.26-2.68-2.22-4.38-2.88-1.7-.7-3.54-1.05-5.54-1.05zm31.68 0c-3.77 0-6.74.79-8.92 2.38-2.18 1.55-3.27 3.98-3.27 7.31v17.45h7.43V39.67c0-1.71.37-2.9 1.1-3.61.74-.74 1.94-1.1 3.61-1.1 1.66 0 2.86.36 3.59 1.1.74.71 1.11 1.9 1.11 3.61v16.67h7.54V38.89c0-3.33-1.09-5.76-3.27-7.31-2.18-1.59-5.15-2.38-8.92-2.38zm81.63 0c-3.73 0-6.67.79-8.81 2.38-2.14 1.55-3.21 3.98-3.21 7.31v17.45h7.37V39.67c0-1.71.35-2.9 1.05-3.61.7-.74 1.88-1.1 3.54-1.1s2.85.36 3.55 1.1c.74.71 1.11 1.9 1.11 3.61v16.67h7.09V39.17c.07-1.52.48-2.59 1.22-3.22.73-.66 1.88-.99 3.43-.99 1.66 0 2.84.36 3.55 1.1.7.71 1.05 1.9 1.05 3.61v16.67h7.47V38.89c0-3.33-1.08-5.76-3.26-7.31-2.14-1.59-5.06-2.38-8.76-2.38-1.77 0-3.32.25-4.65.77s-2.47 1.16-3.43 1.94c-.96-.81-2.13-1.46-3.49-1.94-1.37-.52-2.98-.77-4.82-.77zm46.68 0c-1.88 0-3.6.31-5.15.94-1.51.59-2.83 1.46-3.93 2.6-1.11 1.11-1.98 2.47-2.61 4.1-.59 1.59-.89 3.38-.89 5.37 0 2.11.3 4.06.89 5.87.63 1.81 1.52 3.38 2.66 4.71 1.18 1.3 2.62 2.33 4.32 3.1 1.7.75 3.62 1.11 5.76 1.11 2.03 0 3.86-.27 5.48-.83 1.67-.59 3.07-1.46 4.21-2.6 1.19-1.15 2.09-2.59 2.72-4.32.63-1.74.94-3.77.94-6.1V29.86h-6.64v2.61c-.78-.89-1.8-1.65-3.05-2.28-1.26-.66-2.83-.99-4.71-.99zm70.58 0c-2.44 0-4.69.29-6.76.88-2.03.59-3.78 1.5-5.26 2.71-1.48 1.22-2.64 2.75-3.49 4.6-.81 1.81-1.22 3.95-1.22 6.43 0 2.36.41 4.39 1.22 6.09.81 1.66 1.96 3.03 3.44 4.1 1.51 1.03 3.28 1.79 5.31 2.27 2.07.48 4.36.72 6.87.72 1.07 0 2.09-.05 3.05-.16.99-.08 1.88-.17 2.65-.28v-5.93c-.62.15-1.34.26-2.15.33-.82.08-1.76.12-2.83.12-3.28 0-5.78-.58-7.48-1.72-1.7-1.18-2.55-3.1-2.55-5.76 0-3 .84-5.16 2.5-6.48 1.7-1.33 4.17-2 7.42-2 1.11 0 2.03.04 2.77.11.78.07 1.5.18 2.16.33v-5.92c-.77-.11-1.64-.2-2.61-.28-.95-.11-1.97-.16-3.04-.16zm23 0c-1.88 0-3.6.31-5.15.94-1.51.59-2.83 1.46-3.93 2.6-1.11 1.11-1.98 2.47-2.61 4.1-.59 1.59-.88 3.38-.88 5.37 0 2.11.29 4.06.88 5.87.63 1.81 1.52 3.38 2.66 4.71 1.18 1.3 2.63 2.33 4.32 3.1 1.7.75 3.62 1.11 5.77 1.11 2.03 0 3.85-.27 5.48-.83 1.66-.59 3.06-1.46 4.21-2.6 1.18-1.15 2.09-2.59 2.71-4.32.63-1.74.94-3.77.94-6.1V29.86h-6.64v2.61c-.78-.89-1.79-1.65-3.05-2.28-1.25-.66-2.83-.99-4.71-.99zm-53.6.66v26.48h7.53V29.86zM13.91 35.12c1.95 0 3.5.67 4.65 2 1.14 1.32 1.72 3.32 1.72 5.98s-.58 4.65-1.72 5.98c-1.15 1.33-2.7 2-4.65 2-1.96 0-3.51-.67-4.66-2-1.14-1.33-1.72-3.32-1.72-5.98s.58-4.66 1.72-5.98c1.15-1.33 2.7-2 4.66-2zm161.09 0c1.88 0 3.38.67 4.48 2 1.11 1.32 1.67 3.32 1.67 5.98s-.56 4.65-1.67 5.98c-1.1 1.33-2.6 2-4.48 2-1.89 0-3.38-.67-4.49-2s-1.66-3.32-1.66-5.98.55-4.66 1.66-5.98c1.11-1.33 2.6-2 4.49-2zm93.58 0c1.88 0 3.38.67 4.49 2 1.1 1.32 1.66 3.32 1.66 5.98s-.56 4.65-1.66 5.98c-1.11 1.33-2.61 2-4.49 2-1.89 0-3.38-.67-4.49-2s-1.66-3.32-1.66-5.98.55-4.66 1.66-5.98c1.11-1.33 2.6-2 4.49-2z" fill="#000"/></g><g transform="translate(109.01 -16.555) scale(1.1979)"><path d="M14.13 17.56c-2.03 0-3.92.37-5.66 1.11-1.73.7-3.23 1.7-4.48 2.99-1.26 1.26-2.23 2.75-2.94 4.49C.35 27.89 0 29.79 0 31.85c0 2.07.35 3.97 1.05 5.71.71 1.74 1.68 3.25 2.94 4.54 1.25 1.26 2.75 2.26 4.48 2.99 1.74.7 3.63 1.06 5.66 1.06s3.91-.36 5.64-1.06c1.74-.73 3.24-1.73 4.49-2.99 1.26-1.29 2.24-2.8 2.94-4.54s1.05-3.64 1.05-5.71c0-2.06-.35-3.96-1.05-5.7s-1.68-3.23-2.94-4.49c-1.25-1.29-2.75-2.29-4.49-2.99-1.73-.74-3.61-1.11-5.64-1.11zm0 6.32c.95 0 1.82.2 2.6.61.77.4 1.42.96 1.94 1.66.55.7.97 1.55 1.27 2.55.3.96.44 2.01.44 3.15 0 1.15-.14 2.22-.44 3.22-.3.96-.72 1.79-1.27 2.49-.52.7-1.17 1.25-1.94 1.66-.78.41-1.65.61-2.6.61-.97 0-1.84-.2-2.61-.61s-1.44-.96-1.99-1.66c-.52-.7-.93-1.53-1.22-2.49-.3-1-.45-2.07-.45-3.22 0-1.14.15-2.19.45-3.15.29-1 .7-1.85 1.22-2.55.55-.7 1.22-1.26 1.99-1.66.77-.41 1.64-.61 2.61-.61zM1.83 50.41V57h24.59v-6.59z" fill="#00a05a"/></g></svg>