<svg fill="none" fill-rule="evenodd" stroke="#000" stroke-width=".501" stroke-linejoin="bevel" stroke-miterlimit="10" style="font-variant-ligatures:none" xmlns="http://www.w3.org/2000/svg" overflow="visible" width="500" height="500" viewBox="0 0 375 375" transform="scale(1 -1)"><g stroke="none" stroke-width=".5"><path d="M.377 323.547c0 27.354 22.206 49.56 49.559 49.56 27.356 0 49.559-22.206 49.559-49.56l-.001-152.325-84.632-84.721C5.405 77.034.577 64.686.375 52.277l.002 271.27z" fill="#a91a1a"/><path d="M99.494 51.449l-.001 119.75-84.63-84.698C5.2 76.827.375 64.146.375 51.465.376 24.092 22.582 1.889 49.935 1.889c27.356 0 49.559 22.203 49.559 49.56z" fill="#2d50b8"/><path d="M84.996 16.443l102.505 102.582-35.058 35.095c-19.339 19.359-19.322 50.771.037 70.11L99.494 171.2l-.001-.001.001-119.75c0-13.665-5.539-26.044-14.498-35.006z" fill="#3f7ee7"/><path d="M187.499 119.025l-35.057 35.095c-19.339 19.359-19.322 50.771.037 70.11a49.314 49.314 0 0025.581 13.588c3.118.607 6.284.906 8.861.901l.578.004.578-.004c2.577.005 5.743-.294 8.861-.901a49.32 49.32 0 0025.582-13.588c19.359-19.339 19.376-50.751.037-70.11l-35.058-35.095z" fill="#2170c3"/><path d="M290.004 16.443L187.499 119.025l35.058 35.095c19.339 19.359 19.322 50.771-.037 70.11l52.986-53.03.001-.001-.001-119.75c0-13.665 5.539-26.044 14.498-35.006z" fill="#6cb350"/><path d="M275.506 51.449l.001 119.75 84.63-84.698c9.663-9.674 14.488-22.355 14.488-35.036-.001-27.373-22.207-49.576-49.56-49.576-27.356 0-49.559 22.203-49.559 49.56z" fill="#6da71d"/><path d="M360.137 86.501l-84.632 84.72v152.326c0 27.354 22.203 49.56 49.559 49.56 27.353 0 49.559-22.206 49.559-49.56l.001-271.322c-.189 12.427-5.018 24.796-14.487 34.276z" fill="#ffc200"/><g fill="#fff"><circle transform="rotate(-120.001 39.824 11.318)" r="20.999"/><circle transform="rotate(-120.001 118.361 147.35)" r="20.999"/><circle transform="rotate(-119.998 177.39 -68.11)" r="20.999"/><circle transform="rotate(-120.001 255.926 67.93)" r="20.999"/><circle transform="rotate(-120.001 148.361 40.466)" r="20.999"/></g></g></svg>