<?xml version="1.0" standalone="no"?>
<!DOCTYPE svg PUBLIC "-//W3C//DTD SVG 1.1//EN" "http://www.w3.org/Graphics/SVG/1.1/DTD/svg11.dtd">
<!--Generator: Xara Designer (www.xara.com), SVG filter version: 6.3.0.31-->
<svg fill="none" fill-rule="evenodd" stroke="black" stroke-width="0.501" stroke-linejoin="bevel" stroke-miterlimit="10" font-family="Times New Roman" font-size="16" style="font-variant-ligatures:none" xmlns:xlink="http://www.w3.org/1999/xlink" xmlns="http://www.w3.org/2000/svg" version="1.1" overflow="visible" width="223.456pt" height="305.637pt" viewBox="0 -305.637 223.456 305.637">
 <defs>
	</defs>
 <g id="Layer 1" transform="scale(1 -1)">
  <rect x="0.043" y="45.131" width="223.37" height="223.369" stroke="none" fill="#ffffff" stroke-linejoin="miter"/>
  <path d="M 111.728,246.919 C 100.639,246.827 84.755,244.73 81.197,214.558 L 81.197,208.502 C 80.013,210.573 78.511,211.976 76.846,211.44 C 72.274,209.969 71.847,201.853 71.847,197.924 C 71.847,192.187 76.449,184.665 81.618,185.749 C 83.386,166.604 91.181,161.15 99.178,157.891 L 99.179,144.51 C 98.237,144.324 97.295,144.116 96.353,143.888 C 81.272,139.433 71.844,137.225 65.279,131.643 C 78.999,123.878 94.849,119.446 111.728,119.446 C 128.607,119.446 144.457,123.878 158.177,131.643 C 151.612,137.225 142.184,139.433 127.103,143.888 C 126.161,144.116 125.219,144.324 124.277,144.51 L 124.278,157.891 C 132.275,161.15 140.07,166.604 141.838,185.749 C 147.007,184.665 151.609,192.187 151.609,197.924 C 151.609,201.853 151.182,209.969 146.61,211.44 C 144.945,211.976 143.443,210.573 142.259,208.502 L 142.259,214.558 C 138.701,244.73 122.817,246.827 111.728,246.919 Z" stroke="none" stroke-linecap="round" stroke-linejoin="round" stroke-width="0.5" fill="#f1c9a5" marker-start="none" marker-end="none"/>
  <path d="M 111.728,246.919 L 111.728,119.446 C 128.607,119.446 144.457,123.878 158.177,131.643 C 151.612,137.225 142.184,139.433 127.103,143.888 C 126.161,144.116 125.219,144.324 124.277,144.51 L 124.278,157.891 C 132.275,161.15 140.07,166.604 141.838,185.749 C 147.007,184.665 151.609,192.187 151.609,197.924 C 151.609,201.853 151.182,209.969 146.61,211.44 C 144.945,211.976 143.443,210.573 142.259,208.502 L 142.259,214.558 C 138.701,244.73 122.817,246.827 111.728,246.919 Z" fill="#e4b992" stroke="none" stroke-linecap="round" stroke-linejoin="round" stroke-width="0.5" marker-start="none" marker-end="none"/>
  <path d="M 93.441,235.659 C 86.301,234.666 84.716,240.605 81.648,235.826 C 77.906,229.998 77.088,221.452 78.936,210.43 L 81.971,207.454 L 82.121,194.704 L 89.021,213.004 C 89.617,221.604 91.258,229.358 93.441,235.659 Z" stroke="none" fill="#e5e5e5" stroke-linejoin="miter" stroke-width="0.5" marker-start="none" marker-end="none"/>
  <path d="M 130.015,235.659 C 137.155,234.666 138.74,240.605 141.808,235.826 C 145.55,229.998 146.368,221.452 144.52,210.43 L 141.485,207.454 L 141.335,194.704 L 134.435,213.004 C 133.839,221.604 132.198,229.358 130.015,235.659 Z" stroke="none" fill="#e5e5e5" stroke-linejoin="miter" stroke-width="0.5" marker-start="none" marker-end="none"/>
  <path d="M 72.535,64.655 C 63.631,67.995 55.266,72.437 47.607,77.818 C 54.129,119.507 58.896,129.854 72.535,136.141 C 78.399,138.844 85.974,140.826 96.123,143.82 C 97.499,136.455 103.966,130.875 111.728,130.875 C 119.489,130.875 125.956,136.455 127.332,143.82 C 137.48,140.826 145.055,138.844 150.919,136.142 C 164.558,129.855 169.325,119.509 175.848,77.818 C 168.188,72.437 159.823,67.995 150.919,64.655 C 138.723,60.081 125.516,57.58 111.728,57.58 C 97.939,57.58 84.732,60.081 72.535,64.655 Z" fill="#bf0000" stroke-linejoin="miter" stroke-linecap="round" stroke="none" stroke-width="0.5" marker-start="none" marker-end="none"/>
  <path d="M 89.296,141.829 C 91.433,142.451 93.705,143.107 96.123,143.82 C 97.499,136.455 103.966,130.875 111.728,130.875 C 119.489,130.875 125.956,136.455 127.332,143.82 C 129.75,143.106 132.022,142.451 134.159,141.829 C 131.905,131.516 122.713,123.788 111.728,123.788 C 100.742,123.788 91.55,131.516 89.296,141.829 Z" fill="#bf0000" stroke="#ffffff" stroke-width="1" stroke-linejoin="miter" stroke-linecap="round" marker-start="none" marker-end="none"/>
  <path d="M 93.427,73.7 L 102.577,87.2 L 93.428,100.7 L 84.278,87.2 L 93.427,73.7 Z" fill="#ffffff" stroke-linecap="round" stroke-width="0.5" stroke="none" stroke-linejoin="miter" marker-start="none" marker-end="none"/>
  <path d="M 111.726,73.7 L 120.876,87.2 L 111.727,100.7 L 102.577,87.2 L 111.726,73.7 Z" fill="#ffffff" stroke-linecap="round" stroke-width="0.5" stroke="none" stroke-linejoin="miter" marker-start="none" marker-end="none"/>
  <path d="M 130.025,73.7 L 139.175,87.2 L 130.026,100.7 L 120.876,87.2 L 130.025,73.7 Z" fill="#ffffff" stroke-linecap="round" stroke-width="0.5" stroke="none" stroke-linejoin="miter" marker-start="none" marker-end="none"/>
 </g>
 <g id="Layer_1" transform="scale(1 -1)"/>
</svg>
