<?xml version="1.0" standalone="no"?>
<!DOCTYPE svg PUBLIC "-//W3C//DTD SVG 1.1//EN" "http://www.w3.org/Graphics/SVG/1.1/DTD/svg11.dtd">
<!--Generator: Xara Designer (www.xara.com), SVG filter version: 6.3.0.31-->
<svg fill="none" fill-rule="evenodd" stroke="black" stroke-width="0.501" stroke-linejoin="bevel" stroke-miterlimit="10" font-family="Times New Roman" font-size="16" style="font-variant-ligatures:none" xmlns:xlink="http://www.w3.org/1999/xlink" xmlns="http://www.w3.org/2000/svg" version="1.1" overflow="visible" width="223.456pt" height="305.637pt" viewBox="0 -305.637 223.456 305.637">
 <defs>
	</defs>
 <g id="Layer 1" transform="scale(1 -1)">
  <rect x="0.043" y="45.131" width="223.37" height="223.369" stroke="none" fill="#ffffff" stroke-linejoin="miter"/>
  <path d="M 111.806,239.076 C 95.377,239.076 81.887,223.053 81.887,203.312 L 81.887,190.368 C 81.887,175.976 88.973,163.561 99.178,157.889 L 99.179,144.51 C 98.237,144.324 97.295,144.116 96.353,143.888 C 81.272,139.433 71.844,137.225 65.279,131.643 C 72.821,105.605 94.849,119.446 111.728,85.323 C 128.607,119.446 150.635,105.605 158.177,131.643 C 151.612,137.225 142.184,139.433 127.103,143.888 C 126.161,144.116 125.219,144.324 124.277,144.51 L 124.278,157.889 C 134.483,163.561 141.569,175.976 141.569,190.368 L 141.569,203.312 C 141.569,223.053 128.235,239.076 111.806,239.076 Z" stroke="none" stroke-width="1.543" stroke-linejoin="miter" fill="#f1c9a5" marker-start="none" marker-end="none"/>
  <path d="M 111.727,85.324 L 111.726,239.075 C 111.752,239.075 111.779,239.076 111.806,239.076 C 128.235,239.076 141.569,223.053 141.569,203.312 L 141.569,190.368 C 141.569,175.976 134.483,163.561 124.278,157.889 L 124.277,144.51 C 125.219,144.324 126.161,144.116 127.103,143.888 C 142.184,139.433 151.612,137.225 158.177,131.643 C 150.635,105.605 128.607,119.446 111.728,85.323 L 111.727,85.324 Z" fill="#e4b992" stroke-linejoin="miter" stroke="none" stroke-width="1.543" marker-start="none" marker-end="none"/>
  <path d="M 56.064,147.685 C 55.121,158.929 63.11,163.141 63.105,171.38 C 63.1,179.94 54.514,184.644 55.756,195.988 C 57.086,208.139 66.112,211.087 70.569,219.067 C 75.896,228.605 73.835,240.114 84.769,248.609 C 92.422,254.555 104.202,257.206 113.271,254.711 C 119.107,256.737 125.515,256.86 130.859,254.449 C 139.128,250.718 145.638,242.862 149.171,234.313 C 151.824,227.892 151.032,220.392 153.458,213.864 C 156.21,206.459 163.038,203.827 164.927,193.122 C 166.708,183.031 160.777,179.432 162.194,172.745 C 164.209,163.239 171.426,158.218 170.679,150.235 C 169.979,142.763 165.54,136.445 159.361,130.863 L 124.226,144.522 L 124.226,157.947 C 131.496,162.029 137.17,169.539 139.804,178.743 C 137.288,180.161 135.381,182.6 134.517,185.26 C 132.149,192.548 139.415,201.513 135.742,208.219 C 130.169,218.394 124.828,212.851 119.027,217.467 C 116.067,219.823 114.275,223.803 114.536,227.943 C 111.803,221.045 106.032,217.453 100.437,213.149 C 96.556,210.163 88.055,207.289 87.243,199.502 C 86.55,192.851 92.312,186.674 90.989,180.283 C 90.367,177.275 88.817,174.413 85.78,172.681 C 88.844,166.225 93.534,161.026 99.178,157.889 L 99.179,144.51 L 63.924,130.863 C 58.95,136.279 56.581,141.516 56.064,147.685 Z" fill="#86572b" stroke="none" stroke-linejoin="miter" stroke-linecap="round" stroke-width="0.5" marker-start="none" marker-end="none"/>
  <path d="M 111.728,93.827 C 94.893,119.446 79.073,105.728 65.388,131.582 C 55.956,123.665 52.258,109.871 47.469,77.915 C 65.646,65.106 87.813,57.58 111.728,57.58 C 135.643,57.58 157.81,65.106 175.987,77.915 C 171.198,109.871 167.5,123.665 158.068,131.582 C 144.383,105.728 128.563,119.446 111.728,93.827 Z" fill="#7f007e" stroke="none" stroke-width="1.543" stroke-linejoin="miter" marker-start="none" marker-end="none"/>
 </g>
 <g id="Layer_1" transform="scale(1 -1)"/>
</svg>
