<?xml version="1.0" standalone="no"?>
<!DOCTYPE svg PUBLIC "-//W3C//DTD SVG 1.1//EN" "http://www.w3.org/Graphics/SVG/1.1/DTD/svg11.dtd">
<!--Generator: Xara Designer (www.xara.com), SVG filter version: 6.3.0.31-->
<svg fill="none" fill-rule="evenodd" stroke="black" stroke-width="0.501" stroke-linejoin="bevel" stroke-miterlimit="10" font-family="Times New Roman" font-size="16" style="font-variant-ligatures:none" xmlns:xlink="http://www.w3.org/1999/xlink" xmlns="http://www.w3.org/2000/svg" version="1.1" overflow="visible" width="223.456pt" height="305.637pt" viewBox="0 -305.637 223.456 305.637">
 <defs>
	</defs>
 <g id="Layer 1" transform="scale(1 -1)">
  <rect x="0.043" y="45.131" width="223.37" height="223.369" stroke="none" fill="#ffffff" stroke-linejoin="miter"/>
  <path d="M 68.061,181.967 L 90.831,148.688 L 131.633,148.688 L 154.44,181.967 L 68.061,181.967 Z" fill="#7a7960" stroke="none" stroke-width="0.652" stroke-linejoin="miter" marker-start="none" marker-end="none"/>
  <path d="M 111.65,239.076 C 128.079,239.076 141.414,223.053 141.414,203.312 L 141.414,190.368 C 141.414,176.025 134.375,163.645 124.226,157.947 L 124.226,144.522 C 125.185,144.332 126.144,144.121 127.103,143.888 C 142.183,139.433 151.611,137.225 158.176,131.643 C 144.456,123.878 128.606,119.446 111.728,119.446 C 94.849,119.446 78.999,123.878 65.279,131.643 C 71.844,137.225 81.272,139.433 96.353,143.888 C 97.295,144.116 98.237,144.324 99.179,144.51 L 99.178,157.889 C 88.973,163.561 81.887,175.976 81.887,190.368 L 81.887,203.312 C 81.887,223.053 95.221,239.076 111.65,239.076 Z" stroke="none" fill="#f1c9a5" stroke-linejoin="miter" stroke-width="0.5" stroke-linecap="round" marker-start="none" marker-end="none"/>
  <path d="M 111.728,119.446 L 111.728,239.075 C 128.122,239.024 141.414,223.021 141.414,203.312 L 141.414,190.368 C 141.414,176.025 134.375,163.645 124.226,157.947 L 124.226,144.522 C 125.185,144.332 126.144,144.121 127.103,143.888 C 142.183,139.433 151.611,137.225 158.176,131.643 C 144.456,123.878 128.606,119.446 111.728,119.446 Z" stroke="none" fill="#e4b992" stroke-linejoin="miter" stroke-linecap="round" stroke-width="0.5" marker-start="none" marker-end="none"/>
  <path d="M 90.833,148.688 C 78.113,176.527 79.073,211.087 98.513,228.847 C 106.433,207.007 158.032,215.407 131.632,148.688 C 154.908,161.792 165.987,183.924 163.94,205.659 C 161.665,229.816 151.94,258.759 116.84,261.159 C 110.514,261.591 103.981,259.861 97.341,256.659 C 94.415,257.958 91.314,258.056 88.341,257.859 C 67.264,256.456 49.338,222.328 50.541,199.059 C 51.651,177.587 65.672,157.792 90.833,148.688 Z" fill="#fefecc" stroke="none" stroke-linejoin="miter" stroke-width="0.652" marker-start="none" marker-end="none"/>
  <path d="M 47.469,77.915 C 52.258,109.871 55.956,123.665 65.388,131.582 C 79.084,123.854 94.893,119.446 111.728,119.446 C 128.561,119.446 144.372,123.854 158.068,131.582 C 167.5,123.665 171.198,109.871 175.986,77.915 C 157.809,65.106 135.642,57.58 111.728,57.58 C 87.813,57.58 65.646,65.106 47.469,77.915 Z" stroke="none" fill="#fe3939" stroke-linejoin="miter" stroke-width="1.543" marker-start="none" marker-end="none"/>
  <g id="Group">
   <path d="M 138.718,142.677 C 140.231,143.677 142.274,143.26 143.273,141.746 C 144.273,140.233 143.856,138.19 142.342,137.191 C 140.829,136.191 138.786,136.608 137.787,138.122 C 136.787,139.635 137.204,141.678 138.718,142.677 Z" stroke-linejoin="miter" fill="#ffffff" stroke-linecap="round" stroke="none" stroke-width="0.5" marker-start="none" marker-end="none"/>
   <path d="M 133.352,139.488 C 134.958,140.33 136.948,139.71 137.791,138.103 C 138.633,136.497 138.013,134.507 136.406,133.664 C 134.8,132.822 132.81,133.442 131.967,135.049 C 131.125,136.655 131.745,138.645 133.352,139.488 Z" stroke-linejoin="miter" fill="#ffffff" stroke-linecap="round" stroke="none" stroke-width="0.5" marker-start="none" marker-end="none"/>
   <path d="M 127.724,136.987 C 129.423,137.622 131.32,136.756 131.954,135.057 C 132.589,133.358 131.723,131.461 130.024,130.827 C 128.325,130.192 126.428,131.058 125.794,132.757 C 125.159,134.456 126.025,136.353 127.724,136.987 Z" stroke-linejoin="miter" fill="#ffffff" stroke-linecap="round" stroke="none" stroke-width="0.5" marker-start="none" marker-end="none"/>
   <path d="M 121.842,135.222 C 123.61,135.629 125.377,134.524 125.784,132.756 C 126.191,130.988 125.086,129.221 123.318,128.814 C 121.55,128.407 119.783,129.512 119.376,131.28 C 118.969,133.048 120.074,134.815 121.842,135.222 Z" stroke-linejoin="miter" fill="#ffffff" stroke-linecap="round" stroke="none" stroke-width="0.5" marker-start="none" marker-end="none"/>
   <path d="M 115.802,134.256 C 117.609,134.416 119.207,133.078 119.367,131.271 C 119.527,129.464 118.189,127.866 116.382,127.706 C 114.575,127.546 112.977,128.884 112.817,130.691 C 112.657,132.498 113.995,134.096 115.802,134.256 Z" stroke-linejoin="miter" fill="#ffffff" stroke-linecap="round" stroke="none" stroke-width="0.5" marker-start="none" marker-end="none"/>
   <path d="M 109.684,134.118 C 111.496,134.029 112.896,132.485 112.807,130.673 C 112.718,128.861 111.174,127.461 109.362,127.55 C 107.55,127.639 106.15,129.183 106.239,130.995 C 106.328,132.807 107.872,134.207 109.684,134.118 Z" stroke-linejoin="miter" fill="#ffffff" stroke-linecap="round" stroke="none" stroke-width="0.5" marker-start="none" marker-end="none"/>
   <path d="M 103.607,134.809 C 105.39,134.471 106.563,132.748 106.224,130.966 C 105.886,129.183 104.163,128.01 102.381,128.349 C 100.598,128.687 99.425,130.41 99.764,132.192 C 100.102,133.975 101.825,135.148 103.607,134.809 Z" stroke-linejoin="miter" fill="#ffffff" stroke-linecap="round" stroke="none" stroke-width="0.5" marker-start="none" marker-end="none"/>
   <path d="M 97.659,136.315 C 99.381,135.745 100.317,133.883 99.746,132.16 C 99.176,130.438 97.314,129.502 95.591,130.073 C 93.869,130.643 92.933,132.505 93.504,134.228 C 94.074,135.95 95.936,136.886 97.659,136.315 Z" stroke-linejoin="miter" fill="#ffffff" stroke-linecap="round" stroke="none" stroke-width="0.5" marker-start="none" marker-end="none"/>
   <path d="M 91.944,138.575 C 93.578,137.787 94.265,135.818 93.476,134.185 C 92.688,132.551 90.719,131.864 89.086,132.653 C 87.452,133.441 86.765,135.41 87.554,137.043 C 88.342,138.677 90.311,139.364 91.944,138.575 Z" stroke-linejoin="miter" fill="#ffffff" stroke-linecap="round" stroke="none" stroke-width="0.5" marker-start="none" marker-end="none"/>
   <path d="M 86.465,141.559 C 88.01,140.609 88.494,138.582 87.544,137.036 C 86.594,135.491 84.567,135.007 83.021,135.957 C 81.476,136.907 80.992,138.934 81.942,140.48 C 82.892,142.025 84.919,142.509 86.465,141.559 Z" stroke-linejoin="miter" fill="#ffffff" stroke-linecap="round" stroke="none" stroke-width="0.5" marker-start="none" marker-end="none"/>
  </g>
 </g>
 <g id="Layer_1" transform="scale(1 -1)"/>
</svg>
