<?xml version="1.0" standalone="no"?>
<!DOCTYPE svg PUBLIC "-//W3C//DTD SVG 1.1//EN" "http://www.w3.org/Graphics/SVG/1.1/DTD/svg11.dtd">
<!--Generator: Xara Designer (www.xara.com), SVG filter version: 6.3.0.31-->
<svg fill="none" fill-rule="evenodd" stroke="black" stroke-width="0.501" stroke-linejoin="bevel" stroke-miterlimit="10" font-family="Times New Roman" font-size="16" style="font-variant-ligatures:none" xmlns:xlink="http://www.w3.org/1999/xlink" xmlns="http://www.w3.org/2000/svg" version="1.1" overflow="visible" width="223.456pt" height="305.637pt" viewBox="0 -305.637 223.456 305.637">
 <defs>
	</defs>
 <g id="Layer 1" transform="scale(1 -1)">
  <rect x="0.043" y="45.131" width="223.37" height="223.369" stroke="none" fill="#ffffff" stroke-linejoin="miter"/>
  <path d="M 68.061,181.967 L 90.831,148.688 L 131.633,148.688 L 154.44,181.967 L 68.061,181.967 Z" fill="#452303" stroke="none" stroke-width="0.652" stroke-linejoin="miter" marker-start="none" marker-end="none"/>
  <path d="M 111.65,239.076 C 128.079,239.076 141.414,223.053 141.414,203.312 L 141.414,190.368 C 141.414,176.025 134.375,163.645 124.226,157.947 L 124.226,144.522 C 125.185,144.332 126.144,144.121 127.103,143.888 C 142.183,139.433 151.611,137.225 158.176,131.643 C 144.456,123.878 128.606,119.446 111.728,119.446 C 94.849,119.446 78.999,123.878 65.279,131.643 C 71.844,137.225 81.272,139.433 96.353,143.888 C 97.295,144.116 98.237,144.324 99.179,144.51 L 99.178,157.889 C 88.973,163.561 81.887,175.976 81.887,190.368 L 81.887,203.312 C 81.887,223.053 95.221,239.076 111.65,239.076 Z" stroke="none" fill="#f1c9a5" stroke-linejoin="miter" stroke-width="0.5" stroke-linecap="round" marker-start="none" marker-end="none"/>
  <path d="M 111.728,119.446 L 111.728,239.075 C 128.122,239.024 141.414,223.021 141.414,203.312 L 141.414,190.368 C 141.414,176.025 134.375,163.645 124.226,157.947 L 124.226,144.522 C 125.185,144.332 126.144,144.121 127.103,143.888 C 142.183,139.433 151.611,137.225 158.176,131.643 C 144.456,123.878 128.606,119.446 111.728,119.446 Z" stroke="none" fill="#e4b992" stroke-linejoin="miter" stroke-linecap="round" stroke-width="0.5" marker-start="none" marker-end="none"/>
  <path d="M 90.833,148.688 C 78.113,176.527 79.073,211.087 98.513,228.847 C 106.433,207.007 158.032,215.407 131.632,148.688 C 154.908,161.792 165.987,183.924 163.94,205.659 C 161.665,229.816 151.94,258.759 116.84,261.159 C 110.514,261.591 103.981,259.861 97.341,256.659 C 94.415,257.958 91.314,258.056 88.341,257.859 C 67.264,256.456 49.338,222.328 50.541,199.059 C 51.651,177.587 65.672,157.792 90.833,148.688 Z" fill="#7d420a" stroke="none" stroke-linejoin="miter" stroke-width="0.652" marker-start="none" marker-end="none"/>
  <path d="M 47.469,77.915 C 52.258,109.871 55.956,123.665 65.388,131.582 C 79.084,123.854 94.893,119.446 111.728,119.446 C 128.561,119.446 144.372,123.854 158.068,131.582 C 167.5,123.665 171.198,109.871 175.986,77.915 C 157.809,65.106 135.642,57.58 111.728,57.58 C 87.813,57.58 65.646,65.106 47.469,77.915 Z" fill="#00bfbf" stroke="none" stroke-linejoin="miter" stroke-width="1.543" marker-start="none" marker-end="none"/>
  <path d="M 81.14,124.511 L 81.141,124.514 L 81.141,139.373 C 82.831,139.915 84.627,140.458 86.54,141.022 L 86.54,122.847 L 86.539,122.844 C 84.717,123.347 82.917,123.903 81.14,124.511 Z" stroke-linejoin="miter" fill="#ffffff" stroke="none" stroke-width="0.665" marker-start="none" marker-end="none"/>
  <path d="M 136.916,122.847 L 136.916,141.022 C 138.828,140.458 140.624,139.914 142.315,139.373 L 142.315,124.514 L 142.315,124.512 C 140.538,123.904 138.738,123.347 136.916,122.844 L 136.916,122.847 Z" stroke-linejoin="miter" fill="#ffffff" stroke="none" stroke-width="0.665" marker-start="none" marker-end="none"/>
 </g>
 <g id="Layer_1" transform="scale(1 -1)"/>
</svg>
