<?xml version="1.0" standalone="no"?>
<!DOCTYPE svg PUBLIC "-//W3C//DTD SVG 1.1//EN" "http://www.w3.org/Graphics/SVG/1.1/DTD/svg11.dtd">
<!--Generator: Xara Designer (www.xara.com), SVG filter version: 6.3.0.31-->
<svg fill="none" fill-rule="evenodd" stroke="black" stroke-width="0.501" stroke-linejoin="bevel" stroke-miterlimit="10" font-family="Times New Roman" font-size="16" style="font-variant-ligatures:none" xmlns:xlink="http://www.w3.org/1999/xlink" xmlns="http://www.w3.org/2000/svg" version="1.1" overflow="visible" width="223.456pt" height="305.637pt" viewBox="0 -305.637 223.456 305.637">
 <defs>
	</defs>
 <g id="Layer 1" transform="scale(1 -1)">
  <rect x="0.043" y="45.131" width="223.37" height="223.369" stroke="none" fill="#ffffff" stroke-linejoin="miter"/>
  <path d="M 65.279,131.643 C 71.844,137.225 81.272,139.433 96.353,143.888 C 97.295,144.116 98.237,144.324 99.179,144.51 L 99.178,157.889 C 90.654,162.626 82.328,172.068 79.816,183.437 C 75.242,186.088 72.516,191.461 72.029,196.291 C 71.49,201.629 72.991,207.039 79.737,210.311 C 82.979,226.705 97.214,239.076 111.65,239.076 C 126.061,239.076 140.273,226.746 143.546,210.393 C 150.438,207.13 151.97,201.673 151.427,196.291 C 150.933,191.398 148.142,185.948 143.46,183.335 C 140.927,172.058 132.671,162.688 124.226,157.947 L 124.226,144.522 C 125.185,144.332 126.144,144.121 127.103,143.888 C 142.183,139.433 151.611,137.225 158.176,131.643 C 144.456,123.878 128.606,119.446 111.728,119.446 C 94.849,119.446 78.999,123.878 65.279,131.643 Z" stroke-linejoin="miter" fill="#f1c9a5" stroke-linecap="round" stroke="none" stroke-width="0.5" marker-start="none" marker-end="none"/>
  <path d="M 111.726,119.446 L 111.727,239.075 C 126.111,239.032 140.278,226.717 143.546,210.393 C 150.438,207.13 151.97,201.673 151.427,196.291 C 150.933,191.398 148.142,185.948 143.46,183.335 C 140.927,172.058 132.671,162.688 124.226,157.947 L 124.226,144.522 C 125.185,144.332 126.144,144.121 127.103,143.888 C 142.183,139.433 151.611,137.225 158.176,131.643 C 144.456,123.878 128.606,119.446 111.728,119.446 L 111.726,119.446 Z" fill="#e4b992" stroke-linejoin="miter" stroke-linecap="round" stroke="none" stroke-width="0.5" marker-start="none" marker-end="none"/>
  <path d="M 47.433,77.94 C 52.231,109.707 55.735,123.631 65.81,131.805 C 79.407,124.226 95.065,119.908 111.727,119.908 C 128.387,119.908 144.046,124.226 157.643,131.806 C 167.718,123.632 171.223,109.708 176.022,77.94 C 157.837,65.115 135.657,57.58 111.728,57.58 C 87.798,57.58 65.618,65.115 47.433,77.94 Z" fill="#7f007e" stroke-linejoin="miter" stroke-linecap="round" stroke="none" stroke-width="0.5" marker-start="none" marker-end="none"/>
  <path d="M 143.46,183.335 C 148.142,185.948 150.933,191.398 151.427,196.291 C 151.91,201.085 150.747,205.939 145.615,209.249 L 145.615,204.236 L 77.014,204.236 L 77.013,208.678 C 72.581,205.396 71.571,200.817 72.029,196.291 C 72.516,191.461 75.242,186.088 79.816,183.437 C 80.624,179.775 82.037,176.314 83.864,173.144 C 74.637,181.512 68.784,193.956 68.784,207.843 C 68.784,224.621 77.328,239.293 90.045,247.214 C 90.043,247.334 90.043,247.454 90.043,247.574 C 90.043,259.543 99.759,269.259 111.728,269.259 C 123.697,269.259 133.413,259.543 133.413,247.574 C 133.413,247.454 133.412,247.334 133.41,247.214 C 146.127,239.293 154.672,224.621 154.672,207.843 C 154.672,193.785 148.674,181.207 139.25,172.839 C 141.148,176.061 142.619,179.593 143.46,183.335 Z" fill="#bead57" stroke-linejoin="miter" stroke-linecap="round" stroke="none" stroke-width="0.5" marker-start="none" marker-end="none"/>
  <path d="M 93.839,136.976 C 99.277,132.131 105.087,128.274 111.728,126.636 C 118.369,128.274 124.179,132.131 129.617,136.976" fill="none" stroke-width="2" stroke="#000000" stroke-linejoin="miter" stroke-linecap="round"/>
  <path d="M 116.367,57.697 L 127.103,143.888 C 162.82,134.09 167.817,132.44 175.987,77.915 C 158.989,65.937 138.503,58.579 116.364,57.674 L 116.367,57.697 Z" fill="#bf00bd" stroke="none" stroke-linecap="round" stroke-width="0.5" stroke-linejoin="round" marker-start="none" marker-end="none"/>
  <path d="M 47.468,77.915 C 55.638,132.44 60.635,134.09 96.353,143.888 L 107.088,57.697 L 107.091,57.674 C 84.952,58.579 64.466,65.937 47.468,77.915 Z" fill="#bf00bd" stroke="none" stroke-linecap="round" stroke-width="0.5" stroke-linejoin="round" marker-start="none" marker-end="none"/>
  <ellipse cx="111.727" cy="119.908" rx="5.025" ry="5.025" fill="#ffffff" stroke-linejoin="miter" stroke-width="0.5" stroke-linecap="round" stroke="none"/>
 </g>
 <g id="Layer_1" transform="scale(1 -1)"/>
</svg>
