<?xml version="1.0" standalone="no"?>
<!DOCTYPE svg PUBLIC "-//W3C//DTD SVG 1.1//EN" "http://www.w3.org/Graphics/SVG/1.1/DTD/svg11.dtd">
<!--Generator: Xara Designer (www.xara.com), SVG filter version: 6.3.0.31-->
<svg fill="none" fill-rule="evenodd" stroke="black" stroke-width="0.501" stroke-linejoin="bevel" stroke-miterlimit="10" font-family="Times New Roman" font-size="16" style="font-variant-ligatures:none" xmlns:xlink="http://www.w3.org/1999/xlink" xmlns="http://www.w3.org/2000/svg" version="1.1" overflow="visible" width="223.456pt" height="305.637pt" viewBox="0 -305.637 223.456 305.637">
 <defs>
	</defs>
 <g id="Layer 1" transform="scale(1 -1)">
  <rect x="0.043" y="45.131" width="223.37" height="223.369" stroke="none" fill="#ffffff" stroke-linejoin="miter"/>
  <path d="M 111.806,239.076 C 97.37,239.076 82.979,229.54 79.737,213.146 C 72.991,209.874 70.05,203.549 70.589,198.211 C 71.076,193.381 75.242,186.088 79.816,183.437 C 84.336,172.351 90.654,162.626 99.178,157.889 L 99.179,144.51 C 98.237,144.324 97.295,144.116 96.353,143.888 C 81.272,139.433 71.844,137.225 65.279,131.643 C 78.999,123.878 94.849,119.446 111.728,113.67 C 128.607,119.446 144.457,123.878 158.177,131.643 C 151.612,137.225 142.184,139.433 127.103,143.888 C 126.161,144.116 125.219,144.324 124.277,144.51 L 124.278,157.889 C 132.802,162.626 139.12,172.351 143.64,183.437 C 148.214,186.088 152.38,193.381 152.867,198.211 C 153.406,203.549 150.465,209.874 143.719,213.146 C 140.477,229.54 126.242,239.076 111.806,239.076 Z" stroke="none" fill="#f1c9a5" stroke-width="0.5" stroke-linecap="round" stroke-linejoin="miter" marker-start="none" marker-end="none"/>
  <path d="M 111.726,239.075 C 111.753,239.075 111.779,239.076 111.806,239.076 C 126.242,239.076 140.477,229.54 143.719,213.146 C 150.465,209.874 153.406,203.549 152.867,198.211 C 152.38,193.381 148.214,186.088 143.64,183.437 C 139.12,172.351 132.802,162.626 124.278,157.889 L 124.277,144.51 C 125.219,144.324 126.161,144.116 127.103,143.888 C 142.184,139.433 151.612,137.225 158.177,131.643 C 144.457,123.878 128.607,119.446 111.728,113.67 L 111.726,239.075 Z" stroke="none" fill="#e4b992" stroke-linejoin="miter" stroke-linecap="round" stroke-width="0.5" marker-start="none" marker-end="none"/>
  <path d="M 67.54,207.461 C 67.54,193.171 76.535,176.514 86.135,171.564 C 84.255,174.825 82.801,178.387 81.97,182.155 C 77.263,184.882 72.416,190.815 71.593,196.718 C 70.901,201.685 72.078,207.517 76.639,210.894 C 86.6,213.663 92.96,215.943 98.68,225.194 C 106.453,214.813 124.859,211.646 146.817,210.894 C 151.378,207.517 152.555,201.685 151.863,196.718 C 151.04,190.815 146.193,184.882 141.486,182.155 C 140.655,178.387 139.201,174.825 137.321,171.564 C 146.921,176.514 155.916,193.171 155.916,207.461 C 155.916,224.343 147.508,240.071 134.899,248.38 C 134.952,249.019 134.978,249.666 134.978,250.319 C 134.978,263.153 124.562,273.569 111.728,273.569 C 98.894,273.569 88.478,263.153 88.478,250.319 C 88.478,249.666 88.505,249.019 88.558,248.379 C 75.95,240.07 67.54,224.343 67.54,207.461 Z" fill="#ea9134" stroke="none" stroke-width="0.5" stroke-linejoin="miter" stroke-linecap="round" marker-start="none" marker-end="none"/>
  <path d="M 47.433,77.94 C 52.177,109.355 55.459,123.432 65.279,131.643 C 70.718,136.268 78.124,138.577 89.083,141.767 C 93.538,134.261 102.013,129.188 111.728,129.188 C 121.442,129.188 129.917,134.261 134.372,141.767 C 145.331,138.577 152.737,136.268 158.177,131.643 C 167.996,123.432 171.276,109.354 176.022,77.94 C 157.837,65.115 135.657,57.58 111.728,57.58 C 87.798,57.58 65.618,65.115 47.433,77.94 Z" stroke-linejoin="miter" fill="#7f4100" stroke-linecap="round" stroke="none" stroke-width="0.5" marker-start="none" marker-end="none"/>
  <ellipse rx="3.6" ry="3.6" transform="translate(78.428 169.444) rotate(-90)" fill="#bf6200" stroke-linejoin="miter" stroke="none" stroke-linecap="round" stroke-width="0.5"/>
  <ellipse rx="3.6" ry="3.6" transform="translate(145.028 169.444) rotate(-90)" fill="#bf6200" stroke-linejoin="miter" stroke="none" stroke-linecap="round" stroke-width="0.5"/>
  <path d="M 78.428,186.881 L 78.428,169.444" fill="none" stroke="#7f4100" stroke-linejoin="miter" stroke-linecap="round" stroke-width="2"/>
  <path d="M 145.028,186.881 L 145.028,169.444" fill="none" stroke="#7f4100" stroke-linejoin="miter" stroke-linecap="round" stroke-width="2"/>
 </g>
 <g id="Layer_1" transform="scale(1 -1)"/>
</svg>
