<?xml version="1.0" standalone="no"?>
<!DOCTYPE svg PUBLIC "-//W3C//DTD SVG 1.1//EN" "http://www.w3.org/Graphics/SVG/1.1/DTD/svg11.dtd">
<!--Generator: Xara Designer (www.xara.com), SVG filter version: 6.3.0.31-->
<svg fill="none" fill-rule="evenodd" stroke="black" stroke-width="0.501" stroke-linejoin="bevel" stroke-miterlimit="10" font-family="Times New Roman" font-size="16" style="font-variant-ligatures:none" xmlns:xlink="http://www.w3.org/1999/xlink" xmlns="http://www.w3.org/2000/svg" version="1.1" overflow="visible" width="223.456pt" height="305.637pt" viewBox="0 -305.637 223.456 305.637">
 <defs>
	</defs>
 <g id="Layer 1" transform="scale(1 -1)">
  <rect x="0.043" y="45.131" width="223.37" height="223.369" stroke="none" fill="#ffffff" stroke-linejoin="miter"/>
  <path d="M 65.279,131.643 C 71.844,137.225 81.272,139.433 96.353,143.888 C 97.295,144.116 98.237,144.324 99.179,144.51 L 99.178,155.056 C 91.181,158.315 84.076,161.028 82.308,180.173 C 77.139,179.089 72.537,186.611 72.537,192.348 C 72.537,196.277 73.618,202.785 77.536,203.029 C 79.311,203.139 80.703,202.162 81.887,200.091 L 81.887,203.312 C 81.887,223.053 95.377,239.076 111.806,239.076 C 128.235,239.076 141.569,223.053 141.569,203.312 L 141.568,200.091 C 142.752,202.162 144.144,203.139 145.92,203.029 C 149.838,202.785 150.919,196.277 150.919,192.348 C 150.919,186.611 146.316,179.089 141.147,180.173 C 139.379,161.028 132.274,158.315 124.278,155.056 L 124.277,144.51 C 125.219,144.324 126.161,144.116 127.103,143.888 C 142.184,139.433 151.612,137.225 158.177,131.643 C 144.457,123.878 128.607,119.446 111.728,119.446 C 94.849,119.446 78.999,123.878 65.279,131.643 Z" stroke="none" fill="#f1c9a5" stroke-linejoin="round" stroke-linecap="round" stroke-width="0.5" marker-start="none" marker-end="none"/>
  <path d="M 111.728,119.446 L 111.806,239.076 C 128.235,239.076 141.569,223.053 141.569,203.312 L 141.568,200.091 C 142.752,202.162 144.144,203.139 145.92,203.029 C 149.838,202.785 150.919,196.277 150.919,192.348 C 150.919,186.611 146.316,179.089 141.147,180.173 C 139.379,161.028 132.274,158.315 124.278,155.056 L 124.277,144.51 C 125.219,144.324 126.161,144.116 127.103,143.888 C 142.184,139.433 151.612,137.225 158.177,131.643 C 144.457,123.878 128.607,119.446 111.728,119.446 Z" stroke="none" fill="#e4b992" stroke-linejoin="round" stroke-linecap="round" stroke-width="0.5" marker-start="none" marker-end="none"/>
  <path d="M 111.729,243.43 C 92.856,243.43 77.536,228.02 77.536,209.034 L 77.536,203.029 C 79.311,203.139 80.703,202.162 81.887,200.091 L 81.887,203.312 C 81.887,216.776 87.431,226.077 94.349,226.321 C 100.217,226.528 106.504,222.421 111.728,222.421 C 116.952,222.421 123.239,226.528 129.107,226.321 C 136.025,226.077 141.569,216.776 141.569,203.312 L 141.569,200.091 C 142.753,202.162 144.145,203.139 145.92,203.029 L 145.92,209.034 C 145.92,228.02 130.602,243.43 111.729,243.43 Z" fill="#bf6200" stroke="none" stroke-linejoin="miter" stroke-linecap="round" stroke-width="0.5" marker-start="none" marker-end="none"/>
  <path d="M 111.728,174.663 C 104.886,170.671 99.69,162.518 96.32,164.522 L 95.96,163.202 C 101.143,161.124 106.545,169.23 111.728,170.223 C 116.911,169.23 122.313,161.124 127.496,163.202 L 127.136,164.522 C 123.766,162.518 118.57,170.671 111.728,174.663 Z" fill="#bf6200" stroke="none" stroke-width="0.5" stroke-linecap="round" stroke-linejoin="miter" marker-start="none" marker-end="none"/>
  <path d="M 150.919,64.674 L 150.919,136.142 C 164.558,129.855 169.325,119.509 175.848,77.818 C 168.188,72.437 159.823,67.995 150.919,64.655 L 150.919,64.674 Z" fill="#bf0020" stroke-linejoin="miter" stroke-linecap="round" stroke="none" stroke-width="0.5" marker-start="none" marker-end="none"/>
  <path d="M 47.607,77.818 C 54.13,119.509 58.897,129.855 72.537,136.142 L 72.537,64.674 L 72.537,64.655 C 63.632,67.995 55.267,72.437 47.607,77.818 Z" fill="#bf0020" stroke-linejoin="miter" stroke-linecap="round" stroke="none" stroke-width="0.5" marker-start="none" marker-end="none"/>
  <path d="M 72.536,64.655 L 72.536,64.674 L 72.536,136.142 C 78.399,138.844 85.974,140.826 96.123,143.82 C 97.499,136.455 103.966,130.875 111.728,130.875 C 119.489,130.875 125.956,136.455 127.332,143.82 C 137.48,140.826 145.055,138.844 150.919,136.142 L 150.919,64.674 L 150.919,64.655 C 138.723,60.081 125.516,57.58 111.728,57.58 C 97.939,57.58 84.732,60.081 72.536,64.655 Z" fill="#ffffff" stroke-linejoin="miter" stroke-linecap="round" stroke="none" stroke-width="0.5" marker-start="none" marker-end="none"/>
  <path d="M 89.296,141.829 C 91.433,142.451 93.705,143.107 96.123,143.82 C 97.499,136.455 103.966,130.875 111.728,130.875 C 119.489,130.875 125.956,136.455 127.332,143.82 C 129.75,143.106 132.022,142.451 134.159,141.829 C 131.905,131.516 122.713,123.788 111.728,123.788 C 100.742,123.788 91.55,131.516 89.296,141.829 Z" fill="#bf0020" stroke-linejoin="miter" stroke="none" stroke-linecap="round" stroke-width="0.5" marker-start="none" marker-end="none"/>
  <path d="M 116.137,131.496 C 119.332,132.419 122.114,134.32 124.137,136.853 L 124.137,58.262 C 121.497,57.97 118.829,57.77 116.137,57.665 L 116.137,131.496 Z M 98.937,58.304 L 98.937,137.348 C 100.909,134.672 103.699,132.636 106.937,131.611 L 106.937,57.68 C 104.245,57.794 101.577,58.003 98.937,58.304 Z M 132.955,142.178 C 135.852,141.337 138.51,140.563 140.955,139.802 L 140.955,61.446 C 138.325,60.734 135.657,60.116 132.955,59.596 L 132.955,142.178 Z M 82.119,61.549 L 82.119,139.683 C 84.563,140.449 87.22,141.226 90.119,142.068 L 90.119,59.67 C 87.417,60.2 84.749,60.828 82.119,61.549 Z" fill="#bf0020" stroke="none" stroke-width="0.5" fill-rule="evenodd" marker-start="none" marker-end="none"/>
 </g>
 <g id="Layer_1" transform="scale(1 -1)"/>
</svg>
