<?xml version="1.0" standalone="no"?>
<!DOCTYPE svg PUBLIC "-//W3C//DTD SVG 1.1//EN" "http://www.w3.org/Graphics/SVG/1.1/DTD/svg11.dtd">
<!--Generator: Xara Designer (www.xara.com), SVG filter version: 6.3.0.31-->
<svg fill="none" fill-rule="evenodd" stroke="black" stroke-width="0.501" stroke-linejoin="bevel" stroke-miterlimit="10" font-family="Times New Roman" font-size="16" style="font-variant-ligatures:none" xmlns:xlink="http://www.w3.org/1999/xlink" xmlns="http://www.w3.org/2000/svg" version="1.1" overflow="visible" width="223.456pt" height="305.637pt" viewBox="0 -305.637 223.456 305.637">
 <defs>
	</defs>
 <g id="Layer 1" transform="scale(1 -1)">
  <rect x="0.043" y="45.131" width="223.37" height="223.369" stroke="none" fill="#ffffff" stroke-linejoin="miter"/>
  <path d="M 111.728,228.939 C 100.639,228.847 82.61,241.989 79.052,211.817 L 79.052,208.596 C 77.868,210.667 76.366,212.07 74.701,211.534 C 70.129,210.063 69.702,201.947 69.702,198.018 C 69.702,192.281 74.304,184.759 79.473,185.843 C 81.241,166.698 91.181,158.315 99.178,155.056 L 99.179,144.51 C 98.237,144.324 97.295,144.116 96.353,143.888 C 81.272,139.433 71.844,137.225 65.279,131.643 C 78.999,123.878 94.849,119.446 111.728,119.446 C 128.607,119.446 144.457,123.878 158.177,131.643 C 151.612,137.225 142.184,139.433 127.103,143.888 C 126.161,144.116 125.219,144.324 124.277,144.51 L 124.278,155.056 C 132.275,158.315 142.215,166.698 143.983,185.843 C 149.152,184.759 153.754,192.281 153.754,198.018 C 153.754,201.947 153.327,210.063 148.755,211.534 C 147.09,212.07 145.588,210.667 144.404,208.596 L 144.404,211.817 C 140.846,241.989 122.817,228.847 111.728,228.939 Z" stroke="none" fill="#f1c9a5" stroke-linejoin="round" stroke-width="0.5" stroke-linecap="round" marker-start="none" marker-end="none"/>
  <path d="M 111.728,228.939 L 111.728,119.446 C 128.607,119.446 144.457,123.878 158.177,131.643 C 151.612,137.225 142.184,139.433 127.103,143.888 C 126.161,144.116 125.219,144.324 124.277,144.51 L 124.278,155.056 C 132.275,158.315 142.215,166.698 143.983,185.843 C 149.152,184.759 153.754,192.281 153.754,198.018 C 153.754,201.947 153.327,210.063 148.755,211.534 C 147.09,212.07 145.588,210.667 144.404,208.596 L 144.404,211.817 C 140.846,241.989 122.817,228.847 111.728,228.939 Z" fill="#e4b992" stroke="none" stroke-linejoin="round" stroke-width="0.5" stroke-linecap="round" marker-start="none" marker-end="none"/>
  <path d="M 72.535,64.655 C 63.631,67.995 55.266,72.437 47.607,77.818 C 54.129,119.507 58.896,129.854 72.535,136.141 C 78.399,138.844 85.974,140.826 96.123,143.82 C 97.499,136.455 103.966,130.875 111.728,130.875 C 119.489,130.875 125.956,136.455 127.332,143.82 C 137.48,140.826 145.055,138.844 150.919,136.142 C 164.558,129.855 169.325,119.509 175.848,77.818 C 168.188,72.437 159.823,67.995 150.919,64.655 C 138.723,60.081 125.516,57.58 111.728,57.58 C 97.939,57.58 84.732,60.081 72.535,64.655 Z" fill="#00bf02" stroke-linejoin="miter" stroke-linecap="round" stroke="none" stroke-width="0.5" marker-start="none" marker-end="none"/>
  <path d="M 114.369,206.279 C 114.368,204.758 114.648,203.235 115.208,201.88 C 115.604,200.924 116.449,200.079 117.406,199.683 C 123.583,197.125 131.289,197.125 137.466,199.683 C 138.422,200.079 139.267,200.924 139.663,201.88 C 140.396,203.648 140.649,205.702 140.401,207.668 L 140.668,208.595 C 140.925,209.227 143.525,209.421 145.738,209.482 L 146.902,212.607 C 143.723,212.834 138.084,213.085 136.407,213.262 C 130.425,215.404 123.235,215.267 117.406,212.854 C 116.665,212.546 115.99,211.97 115.54,211.281 C 114.381,210.887 112.811,210.695 111.728,210.684 C 110.645,210.695 109.075,210.887 107.916,211.281 C 107.466,211.97 106.791,212.546 106.05,212.854 C 100.221,215.267 93.031,215.404 87.049,213.262 C 85.372,213.085 79.733,212.834 76.554,212.607 L 77.718,209.482 C 79.931,209.421 82.531,209.227 82.788,208.595 L 83.055,207.668 C 82.807,205.702 83.06,203.648 83.793,201.88 C 84.189,200.924 85.034,200.079 85.99,199.683 C 92.167,197.125 99.873,197.125 106.05,199.683 C 107.007,200.079 107.852,200.924 108.248,201.88 C 108.808,203.235 109.088,204.758 109.087,206.279 C 109.875,209.171 113.743,209.101 114.369,206.279 Z" stroke="none" stroke-linejoin="miter" fill="#000000" marker-start="none" marker-end="none"/>
  <path d="M 97.079,144.386 C 99.537,135.275 102.942,136.277 111.728,130.601 C 106.31,125.328 103.606,119.86 100.055,118.37 C 94.76,123.003 87.547,134.115 88.31,141.694 L 97.079,144.386 Z" fill="#007f01" stroke-linejoin="miter" stroke-linecap="round" stroke="none" stroke-width="0.5" marker-start="none" marker-end="none"/>
  <path d="M 126.377,144.386 C 123.919,135.275 120.514,136.277 111.728,130.601 C 117.146,125.328 119.85,119.86 123.401,118.37 C 128.696,123.003 135.909,134.115 135.146,141.694 L 126.377,144.386 Z" fill="#007f01" stroke-linejoin="miter" stroke-linecap="round" stroke="none" stroke-width="0.5" marker-start="none" marker-end="none"/>
  <rect x="123.466" y="87.011" width="24.202" height="9.899" fill="#007f01" stroke="none" stroke-linecap="round" stroke-width="0.5" stroke-linejoin="miter"/>
  <path d="M 91.628,161.82 L 89.04,162.056 C 84.399,167.009 80.525,174.539 79.477,185.792 C 79.479,185.793 79.481,185.793 79.483,185.794 L 79.523,185.802 L 79.199,205.769 L 70.121,228.979 C 68.253,235.097 81.695,255.423 86.541,259.809 C 88.961,261.999 101.232,262.529 111.728,262.429 C 122.224,262.529 134.495,261.999 136.915,259.809 C 141.761,255.423 155.203,235.097 153.335,228.979 L 144.257,205.769 L 143.933,185.802 L 143.973,185.794 C 143.975,185.793 143.977,185.793 143.979,185.792 C 142.931,174.539 139.057,167.009 134.416,162.056 L 131.828,161.82 L 130.317,168.097 C 131.353,170.647 137.501,189.863 141.319,201.96 L 141.764,214.76 C 132.516,222.824 122.103,222.737 111.728,222.909 L 94.235,218.165 L 98.321,229.129 L 81.692,214.76 L 82.137,201.96 C 85.955,189.863 92.103,170.647 93.139,168.097 L 91.628,161.82 Z" stroke-linejoin="round" fill="#7f4100" stroke-linecap="round" stroke="none" stroke-width="0.5" marker-start="none" marker-end="none"/>
 </g>
 <g id="Layer_1" transform="scale(1 -1)"/>
</svg>
