<?xml version="1.0" standalone="no"?>
<!DOCTYPE svg PUBLIC "-//W3C//DTD SVG 1.1//EN" "http://www.w3.org/Graphics/SVG/1.1/DTD/svg11.dtd">
<!--Generator: Xara Designer (www.xara.com), SVG filter version: 6.3.0.31-->
<svg fill="none" fill-rule="evenodd" stroke="black" stroke-width="0.501" stroke-linejoin="bevel" stroke-miterlimit="10" font-family="Times New Roman" font-size="16" style="font-variant-ligatures:none" xmlns:xlink="http://www.w3.org/1999/xlink" xmlns="http://www.w3.org/2000/svg" version="1.1" overflow="visible" width="223.456pt" height="305.637pt" viewBox="0 -305.637 223.456 305.637">
 <defs>
	</defs>
 <g id="Layer 1" transform="scale(1 -1)">
  <rect x="0.043" y="45.131" width="223.37" height="223.369" stroke="none" fill="#ffffff" stroke-linejoin="miter"/>
  <path d="M 111.728,228.939 C 100.639,228.847 84.755,241.895 81.197,211.723 L 81.197,208.502 C 80.013,210.573 78.511,211.976 76.846,211.44 C 72.274,209.969 71.847,201.853 71.847,197.924 C 71.847,192.187 76.449,184.665 81.618,185.749 C 83.386,166.604 91.181,161.15 99.178,157.891 L 99.179,144.51 C 98.237,144.324 97.295,144.116 96.353,143.888 C 81.272,139.433 71.844,137.225 65.279,131.643 C 78.999,123.878 94.849,119.446 111.728,119.446 C 128.607,119.446 144.457,123.878 158.177,131.643 C 151.612,137.225 142.184,139.433 127.103,143.888 C 126.161,144.116 125.219,144.324 124.277,144.51 L 124.278,157.891 C 132.275,161.15 140.07,166.604 141.838,185.749 C 147.007,184.665 151.609,192.187 151.609,197.924 C 151.609,201.853 151.182,209.969 146.61,211.44 C 144.945,211.976 143.443,210.573 142.259,208.502 L 142.259,211.723 C 138.701,241.895 122.817,228.847 111.728,228.939 Z" stroke="none" stroke-linecap="round" stroke-linejoin="round" stroke-width="0.5" fill="#f1c9a5" marker-start="none" marker-end="none"/>
  <path d="M 111.728,228.939 L 111.728,119.446 C 128.607,119.446 144.457,123.878 158.177,131.643 C 151.612,137.225 142.184,139.433 127.103,143.888 C 126.161,144.116 125.219,144.324 124.277,144.51 L 124.278,157.891 C 132.275,161.15 140.07,166.604 141.838,185.749 C 147.007,184.665 151.609,192.187 151.609,197.924 C 151.609,201.853 151.182,209.969 146.61,211.44 C 144.945,211.976 143.443,210.573 142.259,208.502 L 142.259,211.723 C 138.701,241.895 122.817,228.847 111.728,228.939 Z" fill="#e4b992" stroke="none" stroke-linecap="round" stroke-linejoin="round" stroke-width="0.5" marker-start="none" marker-end="none"/>
  <path d="M 72.537,64.674 L 72.537,64.655 C 63.632,67.995 55.267,72.437 47.607,77.818 C 54.13,119.509 58.897,129.855 72.537,136.142 C 78.401,138.844 85.976,140.826 96.124,143.82 C 97.5,136.455 103.967,130.875 111.728,122.457 C 119.489,130.875 125.956,136.455 127.332,143.82 C 137.48,140.826 145.055,138.844 150.919,136.142 C 164.558,129.855 169.325,119.509 175.848,77.818 C 168.188,72.437 159.823,67.995 150.919,64.655 L 150.919,64.674 C 138.724,60.1 125.518,57.58 111.728,57.58 C 97.94,57.58 84.732,60.1 72.537,64.674 Z" fill="#333333" stroke-linejoin="miter" stroke-linecap="round" stroke="none" stroke-width="0.5" marker-start="none" marker-end="none"/>
  <path d="M 83.697,191.463 C 72.537,218.537 84.464,248.725 111.728,248.725 C 119.327,248.725 127.595,247.041 131.901,238.037 C 142.77,234.939 144.932,222.67 143.576,206.703 C 139.582,214.95 134.892,221.226 129.419,225.284 C 119.336,208.023 79.758,207.271 83.697,191.463 Z" stroke="none" fill="#303030" stroke-linecap="round" stroke-linejoin="round" stroke-width="0.5" marker-start="none" marker-end="none"/>
  <path d="M 111.728,175.009 C 104.759,175.009 99.843,169.729 92.375,169.729 C 85.412,169.972 82.464,179.915 81.417,189.663 C 81.16,181.802 81.293,172.65 86.697,163.383 C 94.689,158.145 98.306,156.405 106.235,152.814 L 117.221,152.814 C 125.15,156.405 128.767,158.145 136.759,163.383 C 142.163,172.65 142.296,181.802 142.039,189.663 C 140.992,179.915 138.044,169.972 131.081,169.729 C 123.613,169.729 118.697,175.009 111.728,175.009 Z" stroke="none" fill="#303030" stroke-linecap="round" stroke-linejoin="round" stroke-width="0.5" marker-start="none" marker-end="none"/>
  <path d="M 89.764,141.964 C 91.765,142.546 93.881,143.158 96.124,143.82 C 97.5,136.455 103.967,130.875 111.728,122.457 C 119.489,130.875 125.956,136.455 127.332,143.82 C 129.574,143.158 131.69,142.546 133.691,141.964 C 131.016,120.418 125.383,103.474 111.728,85.568 C 98.072,103.474 92.439,120.418 89.764,141.964 Z" stroke="none" fill="#ffffff" stroke-linejoin="miter" stroke-width="0.5" marker-start="none" marker-end="none"/>
  <g id="Group" stroke-linejoin="round" stroke-width="1" stroke="#333333" fill="#ffffff" stroke-linecap="round">
   <path d="M 92.442,125.698 C 91.294,130.698 90.423,135.907 89.743,141.418 L 89.751,141.42 L 97.079,143.67 C 99.537,134.559 104.648,129.267 111.728,121.679 C 106.15,117.203 104.273,115.252 100.827,113.241 C 98.229,115.513 94.984,120.407 92.442,125.698 Z" marker-start="none" marker-end="none"/>
   <path d="M 111.728,121.679 C 118.808,129.267 123.919,134.559 126.377,143.67 L 133.704,141.42 L 133.712,141.418 C 133.032,135.907 132.161,130.698 131.013,125.698 C 128.471,120.407 125.226,115.513 122.629,113.241 C 119.183,115.252 117.306,117.203 111.728,121.679 Z" marker-start="none" marker-end="none"/>
  </g>
  <path d="M 108.852,111.331 L 105.653,114.53 L 111.728,120.605 L 117.804,114.53 L 114.604,111.331 L 108.852,111.331 Z" stroke-linejoin="miter" fill="#bf0000" stroke-linecap="round" stroke="none" stroke-width="0.5" marker-start="none" marker-end="none"/>
  <path d="M 106.802,92.506 L 106.803,92.51 L 108.929,110.252 L 114.527,110.252 L 116.652,92.511 L 116.653,92.507 C 115.139,90.202 113.501,87.893 111.728,85.568 C 109.954,87.893 108.316,90.202 106.802,92.506 Z" stroke-linejoin="miter" fill="#bf0000" stroke-linecap="round" stroke="none" stroke-width="0.5" marker-start="none" marker-end="none"/>
 </g>
 <g id="Layer_1" transform="scale(1 -1)"/>
</svg>
