<?xml version="1.0" standalone="no"?>
<!DOCTYPE svg PUBLIC "-//W3C//DTD SVG 1.1//EN" "http://www.w3.org/Graphics/SVG/1.1/DTD/svg11.dtd">
<!--Generator: Xara Designer (www.xara.com), SVG filter version: 6.3.0.31-->
<svg fill="none" fill-rule="evenodd" stroke="black" stroke-width="0.501" stroke-linejoin="bevel" stroke-miterlimit="10" font-family="Times New Roman" font-size="16" style="font-variant-ligatures:none" xmlns:xlink="http://www.w3.org/1999/xlink" xmlns="http://www.w3.org/2000/svg" version="1.1" overflow="visible" width="223.456pt" height="305.637pt" viewBox="0 -305.637 223.456 305.637">
 <defs>
	</defs>
 <g id="Layer 1" transform="scale(1 -1)">
  <rect x="0.043" y="45.131" width="223.37" height="223.369" stroke="none" fill="#ffffff" stroke-linejoin="miter"/>
  <path d="M 96.889,244.55 C 79.715,242.162 74.731,228.44 79.964,205.225 L 98.697,226.023 L 96.889,244.55 Z" fill="#303030" stroke="none" stroke-linejoin="miter" stroke-width="0.5" marker-start="none" marker-end="none"/>
  <path d="M 126.567,244.55 C 143.741,242.162 148.725,228.44 143.492,205.225 L 124.759,226.023 L 126.567,244.55 Z" fill="#303030" stroke="none" stroke-linejoin="miter" stroke-width="0.5" marker-start="none" marker-end="none"/>
  <path d="M 111.728,246.919 C 100.639,246.827 84.755,244.73 81.197,214.558 L 81.197,208.502 C 80.013,210.573 78.511,211.976 76.846,211.44 C 72.274,209.969 71.847,201.853 71.847,197.924 C 71.847,192.187 76.449,184.665 81.618,185.749 C 83.386,166.604 91.181,161.15 99.178,157.891 L 99.179,144.51 C 98.237,144.324 97.295,144.116 96.353,143.888 C 81.272,139.433 71.844,137.225 65.279,131.643 C 78.999,123.878 94.849,119.446 111.728,119.446 C 128.607,119.446 144.457,123.878 158.177,131.643 C 151.612,137.225 142.184,139.433 127.103,143.888 C 126.161,144.116 125.219,144.324 124.277,144.51 L 124.278,157.891 C 132.275,161.15 140.07,166.604 141.838,185.749 C 147.007,184.665 151.609,192.187 151.609,197.924 C 151.609,201.853 151.182,209.969 146.61,211.44 C 144.945,211.976 143.443,210.573 142.259,208.502 L 142.259,214.558 C 138.701,244.73 122.817,246.827 111.728,246.919 Z" stroke="none" stroke-linecap="round" stroke-linejoin="round" stroke-width="0.5" fill="#f1c9a5" marker-start="none" marker-end="none"/>
  <path d="M 111.728,246.919 L 111.728,119.446 C 128.607,119.446 144.457,123.878 158.177,131.643 C 151.612,137.225 142.184,139.433 127.103,143.888 C 126.161,144.116 125.219,144.324 124.277,144.51 L 124.278,157.891 C 132.275,161.15 140.07,166.604 141.838,185.749 C 147.007,184.665 151.609,192.187 151.609,197.924 C 151.609,201.853 151.182,209.969 146.61,211.44 C 144.945,211.976 143.443,210.573 142.259,208.502 L 142.259,214.558 C 138.701,244.73 122.817,246.827 111.728,246.919 Z" fill="#e4b992" stroke="none" stroke-linecap="round" stroke-linejoin="round" stroke-width="0.5" marker-start="none" marker-end="none"/>
  <path d="M 88.827,162.894 C 83.809,170.674 81.16,181.802 81.417,189.663 C 82.8,186.411 85.388,182.021 88.651,177.741 C 95.561,189.666 103.363,191.134 111.728,189.391 C 120.093,191.134 127.895,189.666 134.805,177.741 C 138.068,182.021 140.656,186.411 142.039,189.663 C 142.296,181.802 139.647,170.674 134.629,162.894 C 130.578,156.613 125.439,149.557 117.407,148.532 L 106.049,148.532 C 98.017,149.557 92.878,156.613 88.827,162.894 Z M 111.728,168.783 C 114.952,160.611 122.469,165.416 126.146,168.489 C 128.65,170.581 131.051,173.1 133.219,175.738 C 129.958,178.963 124.655,179.161 120.051,178.706 C 117.324,178.436 113.121,180.321 111.728,182.551 C 110.335,180.321 106.132,178.436 103.405,178.706 C 98.801,179.161 93.498,178.963 90.237,175.738 C 92.405,173.1 94.806,170.581 97.31,168.489 C 100.987,165.416 108.504,160.611 111.728,168.783 Z" fill="#303030" stroke="none" stroke-linejoin="miter" stroke-width="0.5" marker-start="none" marker-end="none"/>
  <path d="M 72.535,64.655 C 63.631,67.995 55.266,72.437 47.607,77.818 C 54.129,119.507 58.896,129.854 72.535,136.141 C 78.399,138.844 85.974,140.826 96.123,143.82 C 97.499,136.455 103.966,130.875 111.728,130.875 C 119.489,130.875 125.956,136.455 127.332,143.82 C 137.48,140.826 145.055,138.844 150.919,136.142 C 164.558,129.855 169.325,119.509 175.848,77.818 C 168.188,72.437 159.823,67.995 150.919,64.655 C 138.723,60.081 125.516,57.58 111.728,57.58 C 97.939,57.58 84.732,60.081 72.535,64.655 Z" fill="#0003ff" stroke-linejoin="miter" stroke-linecap="round" stroke="none" stroke-width="0.5" marker-start="none" marker-end="none"/>
  <path d="M 89.296,141.829 C 91.433,142.451 93.705,143.107 96.123,143.82 C 97.499,136.455 103.966,130.875 111.728,130.875 C 119.489,130.875 125.956,136.455 127.332,143.82 C 129.75,143.106 132.022,142.451 134.159,141.829 C 131.905,131.516 122.713,123.788 111.728,123.788 C 100.742,123.788 91.55,131.516 89.296,141.829 Z" stroke="#ffffff" fill="#ffffff" stroke-width="1" stroke-linejoin="miter" stroke-linecap="round" marker-start="none" marker-end="none"/>
 </g>
 <g id="Layer_1" transform="scale(1 -1)"/>
</svg>
