<svg id="Layer_1" data-name="Layer 1" xmlns="http://www.w3.org/2000/svg" viewBox="0 0 114 114"><defs><style>.cls-1{fill:#bb9155;}</style></defs><rect class="cls-1" x="29.74" y="46.52" width="3.95" height="3.94"/><rect class="cls-1" x="41.75" y="19.29" width="3.95" height="3.95"/><polygon class="cls-1" points="46.29 40.16 54.6 45.76 54.6 55.84 46.29 50.14 46.29 40.16"/><polygon class="cls-1" points="46.29 55.95 54.6 61.64 54.6 72.22 46.29 66.53 46.29 55.95"/><rect class="cls-1" x="55.03" y="90.76" width="3.95" height="3.95"/><polygon class="cls-1" points="59.4 45.8 67.25 40.76 67.25 50.47 59.4 55.84 59.4 45.8"/><polygon class="cls-1" points="59.4 61.65 67.25 56.28 67.25 67.24 59.4 72.35 59.4 61.65"/><rect class="cls-1" x="80.32" y="27.47" width="3.95" height="3.95"/><path class="cls-1" d="M97.22,0H16.78A4.8,4.8,0,0,0,12,4.79V69a45,45,0,0,0,90,0V4.79A4.8,4.8,0,0,0,97.22,0ZM89.05,36.2H84.69v8.16L72,53V69.83L59.39,78.07V86h4.37V99.5H50.24V86h4.37V78L29.31,60.8V55.25H25V41.73H38.47V55.25H34.1v3l7.4,5V28H37V14.5H50.49V28h-4.2v6.36L57,41.62,72,32V47.2l7.85-5.37V36.2H75.53V22.68H89.05Z"/></svg>