<svg id="Layer_1" data-name="Layer 1" xmlns="http://www.w3.org/2000/svg" viewBox="0 0 144 144"><defs><style>.cls-1{fill:#bb9155;}</style></defs><rect class="cls-1" x="37.56" y="58.76" width="4.99" height="4.98"/><rect class="cls-1" x="52.74" y="24.37" width="4.99" height="4.99"/><polygon class="cls-1" points="58.47 50.73 68.97 57.81 68.97 70.53 58.47 63.34 58.47 50.73"/><polygon class="cls-1" points="58.47 70.67 68.97 77.86 68.97 91.23 58.47 84.03 58.47 70.67"/><rect class="cls-1" x="69.51" y="114.64" width="4.99" height="4.99"/><polygon class="cls-1" points="75.03 57.85 84.95 51.49 84.95 63.75 75.03 70.54 75.03 57.85"/><polygon class="cls-1" points="75.03 77.87 84.95 71.09 84.95 84.93 75.03 91.39 75.03 77.87"/><rect class="cls-1" x="101.45" y="34.69" width="4.99" height="4.99"/><path class="cls-1" d="M122.8,0H21.2a6.05,6.05,0,0,0-6,6.05v81.1a56.85,56.85,0,0,0,113.7,0V6.05A6.05,6.05,0,0,0,122.8,0ZM112.49,45.73H107V56L91,67V88.21L75,98.61v10h5.51v17.09H63.46V108.59H69v-10L37,76.8v-7H31.51V52.71H48.6V69.79H43.08v3.82L52.42,80V35.41H46.69V18.32H63.77V35.41h-5.3v8L72,52.58,91,40.42v19.2l9.91-6.78V45.73H95.4V28.64h17.09Z"/></svg>