<svg id="Layer_1" data-name="Layer 1" xmlns="http://www.w3.org/2000/svg" viewBox="0 0 16 16"><defs><style>.cls-1{fill:#bb9155;}</style></defs><rect class="cls-1" x="4.22" y="6.63" width="0.55" height="0.55"/><rect class="cls-1" x="5.88" y="2.85" width="0.55" height="0.55"/><polygon class="cls-1" points="6.51 5.75 7.67 6.53 7.67 7.93 6.51 7.14 6.51 5.75"/><polygon class="cls-1" points="6.51 7.94 7.67 8.73 7.67 10.2 6.51 9.41 6.51 7.94"/><rect class="cls-1" x="7.73" y="12.77" width="0.55" height="0.55"/><polygon class="cls-1" points="8.33 6.53 9.42 5.83 9.42 7.18 8.33 7.93 8.33 6.53"/><polygon class="cls-1" points="8.33 8.73 9.42 7.99 9.42 9.51 8.33 10.22 8.33 8.73"/><rect class="cls-1" x="11.24" y="3.99" width="0.55" height="0.55"/><path class="cls-1" d="M13.58.18H2.42a.66.66,0,0,0-.67.66V9.75a6.25,6.25,0,0,0,12.5,0V.84A.66.66,0,0,0,13.58.18Zm-1.13,5h-.61V6.33l-1.75,1.2V9.87L8.33,11v1.1h.61V14H7.06V12.11h.61V11L4.16,8.62V7.85H3.55V6H5.43V7.85H4.82v.42l1,.69V4.07H5.22V2.19H7.1V4.07H6.51V5L8,6l2.09-1.33V6.73L11.18,6V5.2h-.61V3.32h1.88Z"/></svg>