<svg id="Layer_1" data-name="Layer 1" xmlns="http://www.w3.org/2000/svg" viewBox="0 0 192 192"><defs><style>.cls-1{fill:#bb9155;}</style></defs><rect class="cls-1" x="50.08" y="78.35" width="6.65" height="6.64"/><rect class="cls-1" x="70.31" y="32.49" width="6.65" height="6.65"/><polygon class="cls-1" points="77.96 67.64 91.97 77.07 91.97 94.04 77.96 84.45 77.96 67.64"/><polygon class="cls-1" points="77.96 94.22 91.97 103.82 91.97 121.64 77.96 112.05 77.96 94.22"/><rect class="cls-1" x="92.68" y="152.86" width="6.65" height="6.65"/><polygon class="cls-1" points="100.03 77.13 113.26 68.65 113.26 85 100.03 94.05 100.03 77.13"/><polygon class="cls-1" points="100.03 103.83 113.26 94.78 113.26 113.24 100.03 121.85 100.03 103.83"/><rect class="cls-1" x="135.27" y="46.26" width="6.65" height="6.65"/><path class="cls-1" d="M163.73,0H28.27A8.07,8.07,0,0,0,20.2,8.07V116.2a75.8,75.8,0,0,0,151.6,0V8.07A8.07,8.07,0,0,0,163.73,0ZM150,61h-7.36V74.71L121.33,89.26v28.35L100,131.48v13.31h7.36v22.78H84.61V144.79H92V131.42l-42.6-29V93.06H42V70.28H64.8V93.06H57.44v5.09l12.45,8.47V47.21H62.25V24.43H85V47.21H78v10.7L96.06,70.1l25.27-16.2V79.49l13.22-9V61H127.2V38.19H150Z"/></svg>