<svg id="Layer_1" data-name="Layer 1" xmlns="http://www.w3.org/2000/svg" viewBox="0 0 32 32"><defs><style>.cls-1{fill:#bb9155;}</style></defs><rect class="cls-1" x="8.43" y="13.09" width="1.1" height="1.09"/><rect class="cls-1" x="11.76" y="5.53" width="1.1" height="1.1"/><polygon class="cls-1" points="13.03 11.32 15.34 12.88 15.34 15.68 13.03 14.1 13.03 11.32"/><polygon class="cls-1" points="13.03 15.71 15.34 17.29 15.34 20.23 13.03 18.65 13.03 15.71"/><rect class="cls-1" x="15.45" y="25.38" width="1.1" height="1.1"/><polygon class="cls-1" points="16.66 12.89 18.85 11.49 18.85 14.19 16.66 15.68 16.66 12.89"/><polygon class="cls-1" points="16.66 17.29 18.85 15.8 18.85 18.84 16.66 20.26 16.66 17.29"/><rect class="cls-1" x="22.48" y="7.8" width="1.1" height="1.1"/><path class="cls-1" d="M27.17.17H4.83A1.33,1.33,0,0,0,3.5,1.5V19.33a12.5,12.5,0,0,0,25,0V1.5A1.33,1.33,0,0,0,27.17.17ZM24.9,10.22H23.69v2.27l-3.51,2.4v4.67l-3.51,2.29v2.2h1.21V27.8H14.12V24.05h1.21V21.84l-7-4.78V15.51H7.1V11.76h3.75v3.75H9.64v.84l2,1.4V8H10.43V4.2h3.76V8H13V9.72l3,2,4.17-2.67v4.22l2.18-1.49V10.22H21.15V6.47H24.9Z"/></svg>