<svg id="Layer_1" data-name="Layer 1" xmlns="http://www.w3.org/2000/svg" viewBox="0 0 57 57"><defs><style>.cls-1{fill:#bb9155;}</style></defs><rect class="cls-1" x="14.87" y="23.26" width="1.97" height="1.97"/><rect class="cls-1" x="20.87" y="9.65" width="1.97" height="1.97"/><polygon class="cls-1" points="23.14 20.08 27.3 22.88 27.3 27.92 23.14 25.07 23.14 20.08"/><polygon class="cls-1" points="23.14 27.97 27.3 30.82 27.3 36.11 23.14 33.26 23.14 27.97"/><rect class="cls-1" x="27.51" y="45.38" width="1.97" height="1.97"/><polygon class="cls-1" points="29.7 22.9 33.63 20.38 33.63 25.24 29.7 27.92 29.7 22.9"/><polygon class="cls-1" points="29.7 30.82 33.63 28.14 33.63 33.62 29.7 36.17 29.7 30.82"/><rect class="cls-1" x="40.16" y="13.73" width="1.97" height="1.97"/><path class="cls-1" d="M48.61,0H8.39A2.39,2.39,0,0,0,6,2.39V34.5a22.5,22.5,0,0,0,45,0V2.39A2.39,2.39,0,0,0,48.61,0ZM44.53,18.1H42.34v4.08L36,26.5v8.42L29.7,39V43h2.18v6.77H25.12V43H27.3V39L14.66,30.4V27.63H12.47V20.86h6.77v6.77H17.05v1.51l3.7,2.51V14H18.48V7.25h6.76V14h-2.1v3.17l5.38,3.62L36,16v7.6L40,20.92V18.1H37.76V11.34h6.77Z"/></svg>