<svg id="Layer_1" data-name="Layer 1" xmlns="http://www.w3.org/2000/svg" viewBox="0 0 72 72"><defs><style>.cls-1{fill:#bb9155;}</style></defs><rect class="cls-1" x="18.78" y="29.38" width="2.49" height="2.49"/><rect class="cls-1" x="26.37" y="12.19" width="2.49" height="2.49"/><polygon class="cls-1" points="29.24 25.36 34.49 28.9 34.49 35.27 29.24 31.67 29.24 25.36"/><polygon class="cls-1" points="29.24 35.33 34.49 38.93 34.49 45.61 29.24 42.02 29.24 35.33"/><rect class="cls-1" x="34.75" y="57.32" width="2.49" height="2.49"/><polygon class="cls-1" points="37.51 28.92 42.47 25.75 42.47 31.88 37.51 35.27 37.51 28.92"/><polygon class="cls-1" points="37.51 38.93 42.47 35.54 42.47 42.47 37.51 45.69 37.51 38.93"/><rect class="cls-1" x="50.73" y="17.35" width="2.49" height="2.49"/><path class="cls-1" d="M61.4,0H10.6a3,3,0,0,0-3,3V43.58a28.42,28.42,0,0,0,56.84,0V3A3,3,0,0,0,61.4,0ZM56.24,22.86H53.49V28l-8,5.45V44.1l-8,5.2v5h2.76v8.54H31.73V54.3h2.76v-5l-16-10.88V34.9H15.76V26.36H24.3V34.9H21.54v1.9L26.21,40V17.7H23.34V9.16h8.55V17.7H29.24v4L36,26.29l9.48-6.08v9.6l5-3.39V22.86H47.7V14.32h8.54Z"/></svg>