<svg id="Layer_1" data-name="Layer 1" xmlns="http://www.w3.org/2000/svg" viewBox="0 0 76 76"><defs><style>.cls-1{fill:#bb9155;}</style></defs><rect class="cls-1" x="19.82" y="31.01" width="2.63" height="2.63"/><rect class="cls-1" x="27.83" y="12.86" width="2.63" height="2.63"/><polygon class="cls-1" points="30.86 26.77 36.4 30.51 36.4 37.22 30.86 33.43 30.86 26.77"/><polygon class="cls-1" points="30.86 37.3 36.4 41.09 36.4 48.15 30.86 44.35 30.86 37.3"/><rect class="cls-1" x="36.68" y="60.51" width="2.63" height="2.63"/><polygon class="cls-1" points="39.6 30.53 44.83 27.18 44.83 33.65 39.6 37.23 39.6 30.53"/><polygon class="cls-1" points="39.6 41.1 44.83 37.52 44.83 44.82 39.6 48.23 39.6 41.1"/><rect class="cls-1" x="53.54" y="18.31" width="2.63" height="2.63"/><path class="cls-1" d="M64.81,0H11.19A3.19,3.19,0,0,0,8,3.19V46a30,30,0,0,0,60,0V3.19A3.19,3.19,0,0,0,64.81,0ZM59.37,24.13H56.46v5.44L48,35.33V46.55L39.6,52v5.27h2.91v9h-9v-9H36.4V52L19.54,40.54V36.83H16.63v-9h9v9H22.74v2l4.93,3.36V18.69h-3v-9h9v9h-2.8v4.23L38,27.75l10-6.42V31.47l5.23-3.58V24.13H50.35v-9h9Z"/></svg>