<svg id="Layer_1" data-name="Layer 1" xmlns="http://www.w3.org/2000/svg" viewBox="0 0 96 96"><defs><style>.cls-1{fill:#bb9155;}</style></defs><rect class="cls-1" x="25.06" y="39.14" width="3.32" height="3.32"/><rect class="cls-1" x="35.17" y="16.23" width="3.32" height="3.32"/><polygon class="cls-1" points="38.99 33.79 45.98 38.51 45.98 46.98 38.99 42.19 38.99 33.79"/><polygon class="cls-1" points="38.99 47.08 45.98 51.87 45.98 60.77 38.99 55.98 38.99 47.08"/><rect class="cls-1" x="46.34" y="76.37" width="3.32" height="3.32"/><polygon class="cls-1" points="50.02 38.54 56.63 34.3 56.63 42.47 50.02 46.99 50.02 38.54"/><polygon class="cls-1" points="50.02 51.87 56.63 47.35 56.63 56.58 50.02 60.88 50.02 51.87"/><rect class="cls-1" x="67.62" y="23.11" width="3.32" height="3.32"/><path class="cls-1" d="M81.84,0H14.16a4,4,0,0,0-4,4v54a37.87,37.87,0,0,0,75.74,0V4A4,4,0,0,0,81.84,0ZM75,30.46H71.3v6.87L60.66,44.6V58.76L50,65.69v6.65h3.67V83.72H42.31V72.34H46V65.66L24.7,51.16V46.49H21V35.11H32.41V46.49H28.73V49L35,53.27V23.59H31.14V12.2H42.52V23.59H39v5.35L48,35l12.63-8.1V39.72l6.6-4.52V30.46H63.59V19.08H75Z"/></svg>