<svg xmlns="http://www.w3.org/2000/svg" viewBox="0 0 604 577" color-interpolation-filters="sRGB" fill="none" fill-rule="evenodd" font-size="12" overflow="visible" stroke-linecap="square" stroke-miterlimit="3"><style>.st2{fill:#fff;stroke:none;stroke-linecap:butt;stroke-width:4.87416}</style><g id="group6-1" transform="translate(.36 -.36)"><g id="shape1-2"><path fill="#000" stroke="#000" stroke-linecap="round" stroke-linejoin="round" stroke-width=".72" d="M0 .72h603v576H0z"/></g><g id="shape2-4" transform="translate(107.887 -19.026)"><path d="M174.04 513.97l-59.56-59.57 74.81-74.77-19.64-53.96L0 495.32l19.64 53.97 58.06-58.06 77.91 77.87a25.842 25.842-180 0036.65 0l176.59-176.59-53.71-19.64-141.1 141.1z" class="st2"/></g><g id="shape3-6" transform="translate(18 -113.046)"><path d="M242.78 373.6l-7.4-20.5-113.15 113.1-59.69-59.52 140.97-140.92-2.93-8.06-1.3-3.62-15.41-42.38L14.21 381.44l-6.63 6.85-.43.47a26.057 26.057-180 00.43 36.31l77.87 78.09-19.77 19.77 19.43 53.53.25.26L255.02 407.2l-12.24-33.6z" class="st2"/></g><g id="shape4-8" transform="translate(226.932 -228.344)"><path d="M305.06 247.06H65.68l-9.13 1.77a25.842 25.842-180 00-9.17 5.86L0 302.06l19.64 53.93 56.85-56.85h201.4v201.17l-56.81 56.77 53.96 19.64 47.38-47.38a25.583 25.583-180 005.99-9.21 26.531 26.531-180 001.63-9.13V271.61a25.842 25.842-180 00-24.68-24.55h-.3z" class="st2"/></g><g id="shape5-10" transform="translate(373.886 -374.092)"><circle cx="27.306" cy="549.414" class="st2" r="27.306"/></g></g></svg>