<svg version="1.0" xmlns="http://www.w3.org/2000/svg" viewBox="0 0 234 183" preserveAspectRatio="xMidYMid meet">
<g transform="translate(0.000000,183.000000) scale(0.100000,-0.100000)"
fill="#1F64FF" stroke="#1F64FF">
<path d="M759 1495 c-240 -48 -431 -218 -505 -450 -22 -68 -26 -97 -25 -198 1
-127 17 -200 65 -295 88 -173 263 -305 453 -342 98 -19 262 -8 353 24 l75 26
75 -27 c68 -25 87 -28 210 -28 111 0 147 4 205 22 277 87 472 373 452 663 -24
334 -277 586 -617 617 -74 6 -193 -14 -277 -48 l-53 -21 -52 21 c-120 48 -238
60 -359 36z m214 -149 c89 -17 153 -48 230 -111 48 -39 117 -121 117 -139 0
-3 -12 -6 -27 -6 -63 -1 -73 -32 -73 -228 0 -163 9 -229 32 -243 7 -5 101 -9
209 -9 175 0 199 2 219 18 22 18 22 22 21 222 -2 248 3 240 -127 240 l-84 0
-26 53 c-30 58 -63 106 -108 154 -16 18 -27 35 -25 38 14 13 121 25 179 19
212 -21 391 -175 445 -381 67 -255 -79 -517 -337 -604 -80 -26 -223 -26 -311
1 -109 34 -228 127 -273 213 -14 26 -14 27 14 27 15 0 37 6 48 14 18 13 19 30
22 219 4 269 25 247 -238 247 -161 0 -199 -3 -218 -16 -22 -15 -22 -20 -22
-220 0 -253 -5 -244 130 -244 63 0 90 -4 90 -12 0 -21 80 -147 121 -190 21
-23 36 -44 33 -47 -3 -3 -54 -7 -113 -9 -150 -6 -222 17 -338 104 -115 86
-193 245 -193 394 0 217 160 430 365 484 116 30 136 31 238 12z m-9 -422 c9
-23 7 -137 -3 -152 -5 -9 -30 -12 -87 -10 l-79 3 -3 74 c-2 41 -1 80 2 88 8
21 162 18 170 -3z m584 -76 l3 -88 -86 0 c-47 0 -86 3 -86 8 -7 34 -4 150 4
160 7 9 33 12 86 10 l76 -3 3 -87z"/>
</g>
</svg>
