<svg id="Layer_1" data-name="Layer 1" xmlns="http://www.w3.org/2000/svg" viewBox="0 0 152 152"><defs><style>.cls-1{fill:#0e1c2a;}.cls-2{fill:#1f64ff;}.cls-3{fill:#ff1036;}</style></defs><path class="cls-1" d="M152,82.42a76.87,76.87,0,0,1-34,52.42,76.52,76.52,0,0,1-41.89,12.42A76.87,76.87,0,0,1,.19,82.68a16.41,16.41,0,0,0,11,4.22h0A16.47,16.47,0,0,0,22.9,82.06a54.2,54.2,0,0,0,10.39,22q.45.57.93,1.14a54.65,54.65,0,0,0,9,8.57,52.66,52.66,0,0,0,4.9,3.32,54.51,54.51,0,0,0,56,0,55.61,55.61,0,0,0,5-3.42,54.64,54.64,0,0,0,8.83-8.5c.35-.41.69-.83,1-1.25a54.24,54.24,0,0,0,10.22-21.64,16.43,16.43,0,0,0,11.46,4.65h0A16.43,16.43,0,0,0,152,82.42Z"/><path class="cls-2" d="M151.91,70.39A11.23,11.23,0,0,1,140.7,81.61h0a11.2,11.2,0,0,1-8.8-4.29,10.74,10.74,0,0,1-1.54-2.62h0a11.21,11.21,0,0,1,0-8.61h0a10.81,10.81,0,0,1,1.54-2.63,11.22,11.22,0,0,1,20,6.93Z"/><path class="cls-2" d="M22.43,70.39a11.06,11.06,0,0,1-.66,3.79h0A10.94,10.94,0,0,1,20,77.32a11.19,11.19,0,0,1-8.81,4.29h0a11.22,11.22,0,1,1,10.57-15h0A11,11,0,0,1,22.43,70.39Z"/><path class="cls-3" d="M31.72,22l-.1-.14h0A.8.8,0,0,0,31.72,22Z"/><path class="cls-1" d="M113.93,32.22l-21.84,34A16.53,16.53,0,0,0,78.94,54.12h0a16.23,16.23,0,0,0-2.81-.24,16.93,16.93,0,0,0-2.48.19l-.36.06A16.53,16.53,0,0,0,60.1,66.25l-21.84-34a17.69,17.69,0,0,0,1.8.21c.35,0,.7,0,1.06,0h0c.48,0,1,0,1.42-.06A16.54,16.54,0,0,0,57.13,20.14l19,29.55,19-29.52a16.52,16.52,0,0,0,14.89,12.27c.35,0,.7,0,1,0h0c.48,0,1,0,1.43-.06A14.62,14.62,0,0,0,113.93,32.22Z"/><path class="cls-2" d="M122.24,16a11.79,11.79,0,0,1-.13,1.69,11.13,11.13,0,0,1-1.56,4.23,10.18,10.18,0,0,1-.71,1A11.2,11.2,0,0,1,112,27.13c-.32,0-.64,0-1,0h0c-.24,0-.48,0-.71,0A11.23,11.23,0,0,1,100,17.86a10.75,10.75,0,0,1-.16-1.9c0-.33,0-.65,0-1a11.32,11.32,0,0,1,1.24-4.25A11,11,0,0,1,102.21,9a11.23,11.23,0,0,1,7.12-4.16A11.91,11.91,0,0,1,111,4.74a10.94,10.94,0,0,1,1.91.17,11.2,11.2,0,0,1,9.28,10.31C122.23,15.47,122.24,15.71,122.24,16Z"/><path class="cls-2" d="M52.36,16a11.8,11.8,0,0,1-.12,1.69,11.24,11.24,0,0,1-10.12,9.48c-.32,0-.64,0-1,0h0c-.24,0-.48,0-.72,0a11.19,11.19,0,0,1-8.08-4.26,9.6,9.6,0,0,1-.59-.83l0,0a.8.8,0,0,1-.09-.14,10.88,10.88,0,0,1-1.53-4,10.74,10.74,0,0,1-.17-1.9c0-.33,0-.65,0-1A11.23,11.23,0,0,1,39.46,4.87a11.68,11.68,0,0,1,1.69-.13,10.83,10.83,0,0,1,1.9.17A11.15,11.15,0,0,1,50,9,10.19,10.19,0,0,1,51,10.68a11.1,11.1,0,0,1,1.3,4.54C52.35,15.47,52.36,15.71,52.36,16Z"/><path class="cls-3" d="M31.72,22l-.1-.14h0A.8.8,0,0,0,31.72,22Z"/><path class="cls-2" d="M87.31,70.39a10.42,10.42,0,0,1-.13,1.69,11,11,0,0,1-1.69,4.43,9.19,9.19,0,0,1-.58.81,11.25,11.25,0,0,1-7.85,4.25c-.32,0-.64,0-1,0h0q-.36,0-.72,0a11.17,11.17,0,0,1-8.08-4.26c-.21-.26-.4-.53-.59-.81A11.21,11.21,0,0,1,65,72.3a12,12,0,0,1-.16-1.91c0-.32,0-.65,0-1a11.16,11.16,0,0,1,1.18-4.11c0-.09.09-.18.14-.27h0l.86-1.34h0l.18-.23a11.17,11.17,0,0,1,7.13-4.15,10.39,10.39,0,0,1,1.68-.13,10.94,10.94,0,0,1,1.91.16,11.24,11.24,0,0,1,6.91,4.12l.18.24L85.94,65l.15.29a11.18,11.18,0,0,1,1.2,4.35C87.3,69.9,87.31,70.15,87.31,70.39Z"/><path class="cls-1" d="M37.44,32.05h0c-1.12,1.13-2.2,2.31-3.21,3.54-.48.57-.94,1.14-1.39,1.73a54.06,54.06,0,0,0-9.93,21.4A16.51,16.51,0,0,0,.19,58.1,76.57,76.57,0,0,1,16.87,21.37a78.58,78.58,0,0,1,8-8.31h0A16.58,16.58,0,0,0,34.22,31,16.75,16.75,0,0,0,37.44,32.05Z"/><path class="cls-1" d="M152,58.36a16.51,16.51,0,0,0-22.79.17,54.28,54.28,0,0,0-9.76-21c-.48-.63-1-1.25-1.48-1.86q-1.55-1.86-3.25-3.58h0a16.23,16.23,0,0,0,2.86-.94l.35-.15c.23-.11.46-.22.68-.34a3.65,3.65,0,0,0,.34-.18c.25-.13.49-.27.73-.42l.08-.05.27-.17.35-.23A16.51,16.51,0,0,0,127.55,16a16,16,0,0,0-.25-2.87,77.88,77.88,0,0,1,8.11,8.44A76.55,76.55,0,0,1,152,58.36Z"/></svg>