<svg id="Layer_1" data-name="Layer 1" xmlns="http://www.w3.org/2000/svg" viewBox="0 0 16 16"><defs><style>.cls-1{fill:#0e1c2a;}.cls-2{fill:#1f64ff;}.cls-3{fill:#ff1036;}</style></defs><path class="cls-1" d="M16,8.68a8.05,8.05,0,0,1-3.58,5.51A8.79,8.79,0,0,1,11,15a8.19,8.19,0,0,1-5.9,0A8.75,8.75,0,0,1,3.6,14.2,8.12,8.12,0,0,1,0,8.7a1.71,1.71,0,0,0,1.16.45h0a1.75,1.75,0,0,0,1.23-.51A5.8,5.8,0,0,0,3.5,11l.1.12a5.85,5.85,0,0,0,.95.91,4.52,4.52,0,0,0,.51.34,5.72,5.72,0,0,0,5.9,0,6.18,6.18,0,0,0,.53-.36,6,6,0,0,0,.93-.89,1.47,1.47,0,0,1,.1-.13A5.72,5.72,0,0,0,13.6,8.66a1.74,1.74,0,0,0,1.21.49h0A1.74,1.74,0,0,0,16,8.68Z"/><path class="cls-2" d="M16,7.41a1.15,1.15,0,0,1-.25.73,1.2,1.2,0,0,1-.93.45h0a1.2,1.2,0,0,1-.93-.45,1.28,1.28,0,0,1-.16-.28h0a1.17,1.17,0,0,1,0-.9h0a1.28,1.28,0,0,1,.16-.28,1.19,1.19,0,0,1,1.86,0A1.15,1.15,0,0,1,16,7.41Z"/><path class="cls-2" d="M2.36,7.41a1.09,1.09,0,0,1-.07.4h0a1.06,1.06,0,0,1-.18.33,1.2,1.2,0,0,1-.93.45h0a1.2,1.2,0,0,1-.93-.45,1.19,1.19,0,0,1,0-1.46,1.19,1.19,0,0,1,1.86,0A1.06,1.06,0,0,1,2.29,7h0A1.09,1.09,0,0,1,2.36,7.41Z"/><path class="cls-3" d="M3.34,2.32v0h0Z"/><path class="cls-1" d="M12,3.39,9.69,7a1.9,1.9,0,0,0-.31-.64A1.76,1.76,0,0,0,8.31,5.7h0a1.53,1.53,0,0,0-.3,0l-.26,0h0a1.71,1.71,0,0,0-1.07.63A1.9,1.9,0,0,0,6.33,7L4,3.39l.19,0h.26A1.74,1.74,0,0,0,5.7,2.75,1.77,1.77,0,0,0,6,2.12L8,5.23l2-3.11a1.71,1.71,0,0,0,.32.63,1.76,1.76,0,0,0,1.25.67h.27Z"/><path class="cls-2" d="M12.87,1.68a1.1,1.1,0,0,1,0,.18,1.11,1.11,0,0,1-.16.44.44.44,0,0,1-.08.11,1.17,1.17,0,0,1-.82.45h-.18a1.14,1.14,0,0,1-.85-.45,1.22,1.22,0,0,1-.24-.53,1.27,1.27,0,0,1,0-.2v-.1a1.17,1.17,0,0,1,.13-.45A1.88,1.88,0,0,1,10.76,1a1.21,1.21,0,0,1,.75-.44h.18l.2,0a1.17,1.17,0,0,1,.72.43,1.09,1.09,0,0,1,.25.65A.22.22,0,0,1,12.87,1.68Z"/><path class="cls-2" d="M5.51,1.68a1.09,1.09,0,0,1,0,.18,1.24,1.24,0,0,1-.24.55,1.19,1.19,0,0,1-.83.45H4.25a1.16,1.16,0,0,1-.85-.45l-.06-.09h0v0a1,1,0,0,1-.16-.42,1.23,1.23,0,0,1,0-.2.34.34,0,0,1,0-.1A1.24,1.24,0,0,1,3.4,1,1.21,1.21,0,0,1,4.15.51h.18l.2,0A1.19,1.19,0,0,1,5.26,1a1,1,0,0,1,.11.17,1.16,1.16,0,0,1,.14.48Z"/><path class="cls-3" d="M3.34,2.32v0h0Z"/><path class="cls-2" d="M9.19,7.41a1.09,1.09,0,0,1,0,.18A1.17,1.17,0,0,1,9,8.05l-.06.09a1.19,1.19,0,0,1-.83.45H7.93a1.16,1.16,0,0,1-.85-.45L7,8.05a1,1,0,0,1-.17-.44,1.23,1.23,0,0,1,0-.2v-.1A1.32,1.32,0,0,1,7,6.87v0H7l.09-.15h0l0,0a1.21,1.21,0,0,1,.75-.44H8l.2,0a1.22,1.22,0,0,1,.73.43l0,0,.09.13v0a1.22,1.22,0,0,1,.13.46Z"/><path class="cls-1" d="M3.94,3.37h0c-.12.12-.23.25-.34.38l-.14.18a5.55,5.55,0,0,0-1,2.25,1.75,1.75,0,0,0-1.23-.51A1.71,1.71,0,0,0,0,6.12,8,8,0,0,1,1.78,2.25a7.75,7.75,0,0,1,.84-.88h0a1.63,1.63,0,0,0,0,.31,1.76,1.76,0,0,0,1,1.58A1.35,1.35,0,0,0,3.94,3.37Z"/><path class="cls-1" d="M16,6.14a1.74,1.74,0,0,0-2.4,0,5.62,5.62,0,0,0-1-2.21l-.15-.2-.34-.38h0l.3-.09,0,0,.08,0h0l.08,0h0l0,0,0,0a1.71,1.71,0,0,0,.76-1.43,1.53,1.53,0,0,0,0-.3,7.16,7.16,0,0,1,.85.89A8.07,8.07,0,0,1,16,6.14Z"/></svg>