<svg id="Layer_1" data-name="Layer 1" xmlns="http://www.w3.org/2000/svg" viewBox="0 0 192 192"><defs><style>.cls-1{fill:#0e1c2a;}.cls-2{fill:#1f64ff;}.cls-3{fill:#ff1036;}</style></defs><path class="cls-1" d="M191.48,104a96.12,96.12,0,0,1-42.55,65.55,95.94,95.94,0,0,1-104.74,0A96.14,96.14,0,0,1,1.64,104.36a20.61,20.61,0,0,0,13.75,5.28h0A20.57,20.57,0,0,0,30,103.58a67.74,67.74,0,0,0,13,27.49c.38.49.77,1,1.16,1.43A67.71,67.71,0,0,0,55.4,143.22a65.11,65.11,0,0,0,6.12,4.15,68.13,68.13,0,0,0,76.36-4.3,68.62,68.62,0,0,0,11.05-10.63c.43-.51.85-1,1.27-1.57A67.84,67.84,0,0,0,163,103.82a20.6,20.6,0,0,0,14.33,5.82h0A20.55,20.55,0,0,0,191.48,104Z"/><path class="cls-2" d="M191.37,89a14,14,0,0,1-14,14h0a14,14,0,0,1-11-5.35,13.73,13.73,0,0,1-1.93-3.29h0a14.06,14.06,0,0,1,0-10.76h0a13.67,13.67,0,0,1,1.93-3.28A14,14,0,0,1,191.37,89Z"/><path class="cls-2" d="M29.45,89a14,14,0,0,1-.82,4.73h0A14,14,0,0,1,15.43,103h0A14,14,0,1,1,28.63,84.25h0A14.05,14.05,0,0,1,29.45,89Z"/><path class="cls-3" d="M41.06,28.51,41,28.33h0A1.74,1.74,0,0,0,41.06,28.51Z"/><path class="cls-1" d="M143.87,41.25,116.56,83.8a20.67,20.67,0,0,0-16.44-15.16h-.05a20.28,20.28,0,0,0-3.51-.3,21.28,21.28,0,0,0-3.11.23l-.45.08A20.67,20.67,0,0,0,76.56,83.8L49.25,41.26a20.94,20.94,0,0,0,2.25.27c.44,0,.88,0,1.32,0h0c.6,0,1.19,0,1.78-.08a20.63,20.63,0,0,0,14.45-7.81,20.4,20.4,0,0,0,3.75-7.54L96.56,63.09l23.7-36.91A20.4,20.4,0,0,0,124,33.69a20.62,20.62,0,0,0,14.88,7.84c.44,0,.88,0,1.32,0h0c.6,0,1.19,0,1.78-.08A15.84,15.84,0,0,0,143.87,41.25Z"/><path class="cls-2" d="M154.26,20.92A13.44,13.44,0,0,1,154.1,23a14,14,0,0,1-12.65,11.86c-.4,0-.8,0-1.21,0h0c-.3,0-.6,0-.89,0a14,14,0,0,1-12.9-11.61,13.33,13.33,0,0,1-.21-2.38c0-.41,0-.82.05-1.21a14,14,0,0,1,1.56-5.32,14.53,14.53,0,0,1,1.39-2.14,14.07,14.07,0,0,1,8.92-5.2,14.65,14.65,0,0,1,2.11-.16,13.42,13.42,0,0,1,2.38.21A14,14,0,0,1,154.23,20C154.25,20.3,154.26,20.61,154.26,20.92Z"/><path class="cls-2" d="M66.88,20.92A13.44,13.44,0,0,1,66.72,23,14,14,0,0,1,54.07,34.89c-.4,0-.8,0-1.21,0h0c-.3,0-.6,0-.89,0a14,14,0,0,1-10.11-5.32c-.26-.34-.51-.68-.74-1l0,0a1.74,1.74,0,0,1-.11-.18,14.14,14.14,0,0,1-1.92-5,14.33,14.33,0,0,1-.2-2.38c0-.41,0-.82.05-1.21A14,14,0,0,1,50.74,7.05a14.9,14.9,0,0,1,2.12-.16,13.42,13.42,0,0,1,2.38.21,14,14,0,0,1,8.64,5.15,13.54,13.54,0,0,1,1.35,2.06A13.88,13.88,0,0,1,66.85,20C66.87,20.3,66.88,20.61,66.88,20.92Z"/><path class="cls-3" d="M41.06,28.51,41,28.33h0A1.74,1.74,0,0,0,41.06,28.51Z"/><path class="cls-2" d="M110.58,89a13.35,13.35,0,0,1-.16,2.11,13.86,13.86,0,0,1-2.11,5.54c-.23.35-.47.69-.73,1a14,14,0,0,1-9.81,5.3c-.4,0-.8.05-1.21.05h0c-.3,0-.6,0-.89,0a14,14,0,0,1-10.11-5.32c-.25-.33-.5-.67-.73-1a13.84,13.84,0,0,1-2.06-5.27A13.33,13.33,0,0,1,82.53,89a12.1,12.1,0,0,1,.06-1.21,13.8,13.8,0,0,1,1.47-5.15c0-.11.11-.22.17-.34h0l1.07-1.68h0l.21-.29a14.07,14.07,0,0,1,8.92-5.2A14.65,14.65,0,0,1,96.56,75a13.33,13.33,0,0,1,2.38.21,14,14,0,0,1,8.64,5.15l.23.3,1.06,1.65c.07.12.13.24.19.36a13.85,13.85,0,0,1,1.49,5.44C110.57,88.37,110.58,88.68,110.58,89Z"/><path class="cls-1" d="M48.22,41h0q-2.12,2.13-4,4.42c-.59.72-1.17,1.44-1.74,2.17A67.8,67.8,0,0,0,30,74.4a20.63,20.63,0,0,0-28.39-.78A96.18,96.18,0,0,1,32.52,17.29h0A20.67,20.67,0,0,0,44.19,39.66,20.16,20.16,0,0,0,48.22,41Z"/><path class="cls-1" d="M191.48,73.94a20.64,20.64,0,0,0-28.5.22,67.76,67.76,0,0,0-12.21-26.31c-.6-.79-1.21-1.56-1.84-2.32q-1.94-2.33-4.07-4.48h0a20.54,20.54,0,0,0,3.58-1.17l.44-.2c.29-.13.57-.26.85-.41l.43-.23c.3-.16.6-.34.9-.52l.11-.07.33-.22.44-.28a20.64,20.64,0,0,0,9-17,21.21,21.21,0,0,0-.31-3.59,96.34,96.34,0,0,1,30.88,56.61Z"/></svg>