<svg id="Layer_1" data-name="Layer 1" xmlns="http://www.w3.org/2000/svg" viewBox="0 0 32 32"><defs><style>.cls-1{fill:#0e1c2a;}.cls-2{fill:#1f64ff;}.cls-3{fill:#ff1036;}</style></defs><path class="cls-1" d="M32,17.35a16.2,16.2,0,0,1-7.16,11,16.42,16.42,0,0,1-2.92,1.5,16.24,16.24,0,0,1-11.8,0,15.79,15.79,0,0,1-2.92-1.5A16.19,16.19,0,0,1,0,17.41a3.52,3.52,0,0,0,2.32.89h0a3.47,3.47,0,0,0,2.46-1A11.49,11.49,0,0,0,7,21.9c.06.09.13.17.19.25A11.92,11.92,0,0,0,9.09,24a12.41,12.41,0,0,0,1,.7,11.46,11.46,0,0,0,11.8,0A12.36,12.36,0,0,0,23,23.92a11.6,11.6,0,0,0,1.86-1.78l.21-.27a11.32,11.32,0,0,0,2.15-4.55,3.54,3.54,0,0,0,2.41,1h0A3.44,3.44,0,0,0,32,17.35Z"/><path class="cls-2" d="M32,14.82a2.35,2.35,0,0,1-2.36,2.36h0a2.36,2.36,0,0,1-1.86-.9,2.33,2.33,0,0,1-.32-.55h0a2.39,2.39,0,0,1,0-1.82h0a2.33,2.33,0,0,1,.32-.55A2.36,2.36,0,0,1,32,14.82Z"/><path class="cls-2" d="M4.72,14.82a2.36,2.36,0,0,1-.14.8h0a2.35,2.35,0,0,1-.36.66,2.38,2.38,0,0,1-1.86.9h0a2.36,2.36,0,1,1,1.86-3.82,2.35,2.35,0,0,1,.36.66h0A2.36,2.36,0,0,1,4.72,14.82Z"/><path class="cls-3" d="M6.68,4.64l0,0h0Z"/><path class="cls-1" d="M24,6.78,19.39,14a3.29,3.29,0,0,0-.64-1.28,3.48,3.48,0,0,0-2.13-1.28h0a3.81,3.81,0,0,0-.59-.05,4.38,4.38,0,0,0-.52,0h-.08a3.48,3.48,0,0,0-2.13,1.28A3.29,3.29,0,0,0,12.65,14L8.05,6.78a2.65,2.65,0,0,0,.38,0H9A3.53,3.53,0,0,0,11.4,5.51,3.44,3.44,0,0,0,12,4.24l4,6.22,4-6.21a3.48,3.48,0,0,0,3.14,2.58h.52Z"/><path class="cls-2" d="M25.73,3.36a2.17,2.17,0,0,1,0,.36,2.51,2.51,0,0,1-.33.89l-.15.21a2.35,2.35,0,0,1-1.65.89h-.36a2.38,2.38,0,0,1-1.7-.9,2.22,2.22,0,0,1-.47-1.06,1.75,1.75,0,0,1,0-.4,1.27,1.27,0,0,1,0-.2,2.47,2.47,0,0,1,.26-.9,2.25,2.25,0,0,1,.24-.36A2.33,2.33,0,0,1,23,1a2,2,0,0,1,.35,0,2.6,2.6,0,0,1,.4,0,2.35,2.35,0,0,1,1.46.87,2.29,2.29,0,0,1,.5,1.31Z"/><path class="cls-2" d="M11,3.36c0,.12,0,.24,0,.36a2.38,2.38,0,0,1-.48,1.1,2.35,2.35,0,0,1-1.65.89H8.51a2.38,2.38,0,0,1-1.7-.9l-.13-.18h0l0,0a2.3,2.3,0,0,1-.32-.85,1.75,1.75,0,0,1,0-.4,1.27,1.27,0,0,1,0-.2A2.36,2.36,0,0,1,8.31,1a2,2,0,0,1,.35,0,2.6,2.6,0,0,1,.4,0,2.38,2.38,0,0,1,1.46.87,3,3,0,0,1,.23.35,2.37,2.37,0,0,1,.27,1Z"/><path class="cls-3" d="M6.68,4.64l0,0h0Z"/><path class="cls-2" d="M18.38,14.82a2,2,0,0,1,0,.35,2.32,2.32,0,0,1-.35.94l-.12.17a2.39,2.39,0,0,1-1.66.89h-.35a2.42,2.42,0,0,1-1.71-.9L14,16.11a2.55,2.55,0,0,1-.35-.89,2.6,2.6,0,0,1,0-.4,1.27,1.27,0,0,1,0-.2,2.14,2.14,0,0,1,.25-.87.09.09,0,0,1,0-.06h0l.18-.28h0l0-.05a2.38,2.38,0,0,1,1.5-.87l.36,0a2.6,2.6,0,0,1,.4,0,2.38,2.38,0,0,1,1.46.87l0,.05.18.28,0,.06a2.39,2.39,0,0,1,.26.91Z"/><path class="cls-1" d="M7.88,6.75h0c-.24.24-.46.49-.68.74l-.29.37a11.41,11.41,0,0,0-2.09,4.5A3.47,3.47,0,0,0,0,12.23,16.12,16.12,0,0,1,3.55,4.5,15.53,15.53,0,0,1,5.24,2.75h0a4.07,4.07,0,0,0,0,.61,3.49,3.49,0,0,0,2,3.16A5.44,5.44,0,0,0,7.88,6.75Z"/><path class="cls-1" d="M32,12.29a3.44,3.44,0,0,0-2.38-.95,3.5,3.5,0,0,0-2.42,1,11.39,11.39,0,0,0-2.05-4.43l-.31-.39q-.33-.39-.69-.75h0a3,3,0,0,0,.6-.2l.08,0L25,6.45l.07,0,.16-.09h0l.06,0,.07,0a3.49,3.49,0,0,0,1.51-2.87,2.92,2.92,0,0,0-.05-.6,16.84,16.84,0,0,1,1.71,1.77A16.2,16.2,0,0,1,32,12.29Z"/></svg>