<svg id="Layer_1" data-name="Layer 1" xmlns="http://www.w3.org/2000/svg" viewBox="0 0 57 57"><defs><style>.cls-1{fill:#0e1c2a;}.cls-2{fill:#1f64ff;}.cls-3{fill:#ff1036;}</style></defs><path class="cls-1" d="M57,30.91A28.8,28.8,0,0,1,44.24,50.56,27.79,27.79,0,0,1,39,53.24a28.93,28.93,0,0,1-21,0A28.92,28.92,0,0,1,.07,31,6.18,6.18,0,0,0,4.2,32.59h0a6.18,6.18,0,0,0,4.38-1.82A20.29,20.29,0,0,0,12.48,39l.35.43a20.83,20.83,0,0,0,3.36,3.21A19.1,19.1,0,0,0,18,43.9a20.42,20.42,0,0,0,21,0,21.73,21.73,0,0,0,1.89-1.29,20.33,20.33,0,0,0,3.31-3.18c.13-.16.26-.31.38-.47a20.3,20.3,0,0,0,3.83-8.12,6.17,6.17,0,0,0,4.3,1.75h0A6.18,6.18,0,0,0,57,30.91Z"/><path class="cls-2" d="M57,26.4a4.2,4.2,0,0,1-4.21,4.2h0A4.19,4.19,0,0,1,49.46,29a3.79,3.79,0,0,1-.58-1h0a4.13,4.13,0,0,1-.32-1.61,4.18,4.18,0,0,1,.32-1.62h0a3.9,3.9,0,0,1,.58-1A4.21,4.21,0,0,1,57,26.4Z"/><path class="cls-2" d="M8.41,26.4a4.45,4.45,0,0,1-.24,1.42h0A4.26,4.26,0,0,1,7.51,29a4.21,4.21,0,0,1-3.3,1.6h0a4.21,4.21,0,1,1,3.31-6.8A4.26,4.26,0,0,1,8.17,25h0A4.41,4.41,0,0,1,8.41,26.4Z"/><path class="cls-3" d="M11.89,8.26l0,0h0Z"/><path class="cls-1" d="M42.72,12.08,34.53,24.84a6,6,0,0,0-1.12-2.27,6.21,6.21,0,0,0-3.81-2.28h0a6.12,6.12,0,0,0-1.05-.09,7.3,7.3,0,0,0-.94.07l-.13,0a6.16,6.16,0,0,0-3.8,2.28,6.06,6.06,0,0,0-1.13,2.27L14.35,12.08c.22,0,.45.07.67.09h.41l.54,0A6.19,6.19,0,0,0,20.3,9.81a5.92,5.92,0,0,0,1.12-2.26l7.12,11.08,7.1-11.07a6.26,6.26,0,0,0,1.12,2.25,6.19,6.19,0,0,0,4.47,2.36h.4l.54,0A4.85,4.85,0,0,0,42.72,12.08Z"/><path class="cls-2" d="M45.84,6a4.48,4.48,0,0,1-.05.64,4.29,4.29,0,0,1-.58,1.58,3.67,3.67,0,0,1-.27.38A4.19,4.19,0,0,1,42,10.17a2.23,2.23,0,0,1-.37,0h-.27a4.19,4.19,0,0,1-3-1.6,4.08,4.08,0,0,1-.84-1.88A4.2,4.2,0,0,1,37.43,6c0-.12,0-.24,0-.36A4.26,4.26,0,0,1,37.91,4a3.92,3.92,0,0,1,.42-.64A4.13,4.13,0,0,1,41,1.83a4.46,4.46,0,0,1,.63-.05,4.21,4.21,0,0,1,4.2,3.93A2.44,2.44,0,0,1,45.84,6Z"/><path class="cls-2" d="M19.64,6a4.48,4.48,0,0,1-.05.64,4.13,4.13,0,0,1-.85,2,4.21,4.21,0,0,1-2.95,1.59,2.17,2.17,0,0,1-.36,0h-.28a4.23,4.23,0,0,1-3-1.6c-.07-.1-.15-.2-.22-.31h0l0,0a4.25,4.25,0,0,1-.57-1.51A3.38,3.38,0,0,1,11.22,6c0-.12,0-.24,0-.36A4.2,4.2,0,0,1,14.8,1.83a4.34,4.34,0,0,1,.63-.05,4.2,4.2,0,0,1,3.31,1.61,4.93,4.93,0,0,1,.4.61,4.18,4.18,0,0,1,.49,1.71C19.63,5.8,19.64,5.89,19.64,6Z"/><path class="cls-3" d="M11.89,8.26l0,0h0Z"/><path class="cls-2" d="M32.74,26.4a4.46,4.46,0,0,1-.05.63,4.13,4.13,0,0,1-.63,1.66,3.46,3.46,0,0,1-.22.31,4.22,4.22,0,0,1-2.94,1.59h-.64a4.2,4.2,0,0,1-3-1.59,3.46,3.46,0,0,1-.22-.31,4.12,4.12,0,0,1-.62-1.58,4.17,4.17,0,0,1-.06-.71c0-.13,0-.25,0-.37a4,4,0,0,1,.44-1.54l.05-.1h0l.32-.51h0a.27.27,0,0,0,.07-.08,4.2,4.2,0,0,1,2.67-1.56,4.48,4.48,0,0,1,.64,0,4.18,4.18,0,0,1,3.3,1.61l.07.09.32.49a.54.54,0,0,1,.05.11,4.13,4.13,0,0,1,.45,1.63A2.53,2.53,0,0,1,32.74,26.4Z"/><path class="cls-1" d="M14,12h0c-.42.43-.83.87-1.21,1.33-.18.21-.35.43-.52.65a20.29,20.29,0,0,0-3.72,8,6.21,6.21,0,0,0-8.52-.23A28.8,28.8,0,0,1,9.33,4.9h0A6.62,6.62,0,0,0,9.24,6a6.2,6.2,0,0,0,3.59,5.62A6.89,6.89,0,0,0,14,12Z"/><path class="cls-1" d="M57,21.89a6.2,6.2,0,0,0-8.55.06,20.19,20.19,0,0,0-3.66-7.89c-.18-.23-.36-.47-.55-.69-.39-.47-.79-.92-1.22-1.35h0a5.58,5.58,0,0,0,1.07-.35l.14-.06.25-.12.13-.07.27-.16,0,0,.1-.06.13-.09A6.16,6.16,0,0,0,47.83,6a6.38,6.38,0,0,0-.09-1.08,29.27,29.27,0,0,1,3,3.16A28.78,28.78,0,0,1,57,21.89Z"/></svg>