<svg id="Layer_1" data-name="Layer 1" xmlns="http://www.w3.org/2000/svg" viewBox="0 0 72 72"><defs><style>.cls-1{fill:#0e1c2a;}.cls-2{fill:#1f64ff;}.cls-3{fill:#ff1036;}</style></defs><path class="cls-1" d="M72,39A36.41,36.41,0,0,1,55.88,63.87a35.67,35.67,0,0,1-6.56,3.38,36.56,36.56,0,0,1-26.55,0,35.67,35.67,0,0,1-6.56-3.38A36.37,36.37,0,0,1,.09,39.17a7.77,7.77,0,0,0,5.21,2h0a7.81,7.81,0,0,0,5.54-2.29,25.61,25.61,0,0,0,4.92,10.42l.44.54a25.87,25.87,0,0,0,4.24,4.06,27.76,27.76,0,0,0,2.32,1.57,25.81,25.81,0,0,0,26.55,0c.82-.5,1.61-1,2.38-1.62a25.7,25.7,0,0,0,4.18-4c.17-.19.33-.39.48-.59A25.71,25.71,0,0,0,61.21,39a7.75,7.75,0,0,0,5.42,2.2h0A7.76,7.76,0,0,0,72,39Z"/><path class="cls-2" d="M72,33.34a5.32,5.32,0,0,1-5.31,5.32h0a5.31,5.31,0,0,1-4.9-3.28h0a5.26,5.26,0,0,1,0-4.07h0a5.32,5.32,0,0,1,10.22,2Z"/><path class="cls-2" d="M10.63,33.34a5.13,5.13,0,0,1-.32,1.8h0a5.29,5.29,0,0,1-5,3.52h0A5.32,5.32,0,0,1,0,33.34a5.22,5.22,0,0,1,1.14-3.28,5.31,5.31,0,0,1,8.35,0,5.15,5.15,0,0,1,.82,1.49h0A5.07,5.07,0,0,1,10.63,33.34Z"/><path class="cls-3" d="M15,10.43l0-.06h0Z"/><path class="cls-1" d="M54,15.26,43.62,31.38a7.65,7.65,0,0,0-1.42-2.87,7.84,7.84,0,0,0-4.81-2.88h0A8.23,8.23,0,0,0,36,25.52a7.59,7.59,0,0,0-1.17.09l-.17,0a7.84,7.84,0,0,0-4.81,2.88,7.65,7.65,0,0,0-1.42,2.87L18.12,15.26a8.08,8.08,0,0,0,.86.11l.5,0h0c.23,0,.45,0,.68,0a7.83,7.83,0,0,0,5.47-3,7.68,7.68,0,0,0,1.42-2.86l9,14,9-14a8,8,0,0,0,1.42,2.85,7.82,7.82,0,0,0,5.64,3l.5,0h0c.23,0,.45,0,.68,0S53.74,15.3,54,15.26Z"/><path class="cls-2" d="M57.9,7.56a5.29,5.29,0,0,1-.06.8,5.14,5.14,0,0,1-.74,2,4.07,4.07,0,0,1-.33.48,5.31,5.31,0,0,1-3.72,2,3.46,3.46,0,0,1-.46,0h-.35a5.32,5.32,0,0,1-3.83-2,5.42,5.42,0,0,1-1.06-2.38,5.29,5.29,0,0,1-.07-.9,3.46,3.46,0,0,1,0-.46,5.27,5.27,0,0,1,.59-2,4.86,4.86,0,0,1,.52-.81,5.31,5.31,0,0,1,9.48,2.93C57.9,7.33,57.9,7.44,57.9,7.56Z"/><path class="cls-2" d="M24.8,7.56A5.3,5.3,0,0,1,20,12.85a3.46,3.46,0,0,1-.46,0h-.35a5.32,5.32,0,0,1-3.83-2c-.09-.12-.19-.25-.28-.39v0l0-.06a5.08,5.08,0,0,1-.72-1.91,4.43,4.43,0,0,1-.08-.9,3.46,3.46,0,0,1,0-.46,5.31,5.31,0,0,1,10.59.11C24.8,7.33,24.8,7.44,24.8,7.56Z"/><path class="cls-3" d="M15,10.43l0-.06h0Z"/><path class="cls-2" d="M41.36,33.34a5.19,5.19,0,0,1-.06.8,5.4,5.4,0,0,1-.8,2.1l-.28.39a5.31,5.31,0,0,1-3.72,2l-.46,0h0l-.34,0a5.27,5.27,0,0,1-3.83-2l-.28-.39a5.15,5.15,0,0,1-.78-2,5.5,5.5,0,0,1-.08-.91c0-.15,0-.3,0-.45a5.3,5.3,0,0,1,.56-1.95.54.54,0,0,1,.07-.13h0l.41-.64h0a.76.76,0,0,1,.08-.11,5.32,5.32,0,0,1,3.38-2A5.16,5.16,0,0,1,36,28a5.5,5.5,0,0,1,.91.08,5.29,5.29,0,0,1,3.27,1.95l.09.11.4.63.07.14A5.26,5.26,0,0,1,41.35,33C41.35,33.11,41.36,33.23,41.36,33.34Z"/><path class="cls-1" d="M17.73,15.18h0c-.53.53-1,1.09-1.52,1.67-.23.27-.45.54-.66.82a25.65,25.65,0,0,0-4.7,10.14,7.82,7.82,0,0,0-10.76-.3A36.29,36.29,0,0,1,8,10.12a37.13,37.13,0,0,1,3.8-3.93h0a7.84,7.84,0,0,0,4.42,8.48A7.78,7.78,0,0,0,17.73,15.18Z"/><path class="cls-1" d="M72,27.64a7.81,7.81,0,0,0-10.79.09,25.79,25.79,0,0,0-4.63-10c-.23-.3-.46-.59-.7-.88-.49-.58-1-1.15-1.54-1.69h0a8,8,0,0,0,1.36-.45l.16-.07.32-.16.17-.09.34-.19,0,0,.13-.08L57,14a7.82,7.82,0,0,0,3.4-6.45A7.64,7.64,0,0,0,60.3,6.2,36.46,36.46,0,0,1,72,27.64Z"/></svg>