<svg id="Layer_1" data-name="Layer 1" xmlns="http://www.w3.org/2000/svg" viewBox="0 0 76 76"><defs><style>.cls-1{fill:#0e1c2a;}.cls-2{fill:#1f64ff;}.cls-3{fill:#ff1036;}</style></defs><path class="cls-1" d="M76,41.21a38.43,38.43,0,0,1-75.9.13,8.17,8.17,0,0,0,5.49,2.11h0A8.2,8.2,0,0,0,11.45,41a27.06,27.06,0,0,0,5.2,11c.15.2.3.39.46.57a26.75,26.75,0,0,0,4.48,4.29A25.68,25.68,0,0,0,24,58.54a27.24,27.24,0,0,0,30.53-1.72A27.35,27.35,0,0,0,59,52.57c.17-.21.34-.41.5-.63a27.16,27.16,0,0,0,5.12-10.81,8.22,8.22,0,0,0,5.72,2.32h0A8.21,8.21,0,0,0,76,41.21Z"/><path class="cls-2" d="M76,35.2a5.61,5.61,0,0,1-5.61,5.6h0a5.59,5.59,0,0,1-4.4-2.14,5.71,5.71,0,0,1-.77-1.31h0a5.62,5.62,0,0,1,0-4.31h0a5.93,5.93,0,0,1,.77-1.31A5.61,5.61,0,0,1,76,35.2Z"/><path class="cls-2" d="M11.22,35.2a5.65,5.65,0,0,1-.33,1.89h0A5.73,5.73,0,0,1,10,38.66,5.58,5.58,0,0,1,5.61,40.8h0A5.61,5.61,0,1,1,10,31.73a5.73,5.73,0,0,1,.87,1.57h0A5.66,5.66,0,0,1,11.22,35.2Z"/><path class="cls-3" d="M15.86,11l0-.07h0Z"/><path class="cls-1" d="M57,16.11,46,33.12a8,8,0,0,0-1.5-3,8.24,8.24,0,0,0-5.07-3h0a8.1,8.1,0,0,0-1.4-.12A8.66,8.66,0,0,0,36.8,27l-.18,0a8.25,8.25,0,0,0-6.57,6.06l-10.92-17a6.91,6.91,0,0,0,.9.11l.53,0h0q.36,0,.72,0a8.26,8.26,0,0,0,7.28-6.14l9.48,14.77,9.47-14.76A8.26,8.26,0,0,0,55,16.22l.53,0h0q.36,0,.72,0A6.55,6.55,0,0,0,57,16.11Z"/><path class="cls-2" d="M61.12,8a4.61,4.61,0,0,1-.07.84,5.51,5.51,0,0,1-.77,2.12q-.16.26-.36.51A5.64,5.64,0,0,1,56,13.57l-.49,0h0l-.36,0a5.6,5.6,0,0,1-4-2.12A5.53,5.53,0,0,1,50,8.93,5,5,0,0,1,49.9,8c0-.16,0-.33,0-.48a5.61,5.61,0,0,1,.63-2.13,6,6,0,0,1,.55-.86,5.62,5.62,0,0,1,3.57-2.07,4.68,4.68,0,0,1,.84-.07,5.89,5.89,0,0,1,1,.08,5.61,5.61,0,0,1,4.65,5.16C61.11,7.73,61.12,7.86,61.12,8Z"/><path class="cls-2" d="M26.18,8a5.73,5.73,0,0,1-.06.84,5.62,5.62,0,0,1-5.06,4.75l-.49,0h0l-.35,0a5.57,5.57,0,0,1-4-2.12q-.17-.21-.3-.42v0l0-.07a5.55,5.55,0,0,1-.76-2A5,5,0,0,1,15,8a3.77,3.77,0,0,1,0-.48,5.59,5.59,0,0,1,4.74-5.06,4.76,4.76,0,0,1,.84-.07,6,6,0,0,1,1,.08,5.6,5.6,0,0,1,4,2.89,5.43,5.43,0,0,1,.65,2.27C26.18,7.73,26.18,7.86,26.18,8Z"/><path class="cls-3" d="M15.86,11l0-.07h0Z"/><path class="cls-2" d="M43.65,35.2a5.83,5.83,0,0,1-.06.84,5.69,5.69,0,0,1-.84,2.22c-.09.14-.19.27-.29.4a5.59,5.59,0,0,1-3.93,2.12,3.85,3.85,0,0,1-.48,0h-.37a5.56,5.56,0,0,1-4-2.13c-.1-.13-.2-.26-.29-.4a5.55,5.55,0,0,1-.83-2.11,6,6,0,0,1-.08-.95c0-.17,0-.33,0-.49a5.46,5.46,0,0,1,.59-2.05.61.61,0,0,1,.07-.14h0l.43-.67h0l.09-.12a5.58,5.58,0,0,1,3.56-2.08,5.85,5.85,0,0,1,1.8,0,5.65,5.65,0,0,1,3.46,2.06l.09.12.42.66.08.15a5.59,5.59,0,0,1,.59,2.17C43.65,35,43.65,35.07,43.65,35.2Z"/><path class="cls-1" d="M18.72,16h0c-.57.57-1.1,1.15-1.61,1.77-.24.28-.47.57-.7.87a27.12,27.12,0,0,0-5,10.69A8.25,8.25,0,0,0,.1,29.05,38.22,38.22,0,0,1,8.44,10.69a37.44,37.44,0,0,1,4-4.16h0A7.85,7.85,0,0,0,12.32,8a8.25,8.25,0,0,0,4.79,7.49A8.07,8.07,0,0,0,18.72,16Z"/><path class="cls-1" d="M76,29.18a8.24,8.24,0,0,0-11.39.09,27.11,27.11,0,0,0-4.89-10.52c-.24-.32-.48-.62-.73-.93-.52-.62-1.06-1.22-1.63-1.79h0a7.73,7.73,0,0,0,1.43-.47l.18-.08.34-.16.17-.09.36-.21,0,0L60,14.9l.17-.11A8.24,8.24,0,0,0,63.78,8a8.57,8.57,0,0,0-.13-1.44,39.57,39.57,0,0,1,4.06,4.23A38.28,38.28,0,0,1,76,29.18Z"/></svg>