<svg id="Layer_1" data-name="Layer 1" xmlns="http://www.w3.org/2000/svg" viewBox="0 0 96 96"><defs><style>.cls-1{fill:#0e1c2a;}.cls-2{fill:#1f64ff;}.cls-3{fill:#ff1036;}</style></defs><path class="cls-1" d="M96,52.06a48.54,48.54,0,0,1-21.49,33.1,48.48,48.48,0,0,1-52.9,0,48.58,48.58,0,0,1-21.49-33,10.44,10.44,0,0,0,7,2.67h0a10.39,10.39,0,0,0,7.38-3.06A34.22,34.22,0,0,0,21,65.71c.19.25.38.49.58.73a34.51,34.51,0,0,0,5.66,5.41,34.39,34.39,0,0,0,41.66-.08,34.51,34.51,0,0,0,5.58-5.36l.64-.8A34.24,34.24,0,0,0,81.61,52a10.42,10.42,0,0,0,7.23,2.94h0A10.4,10.4,0,0,0,96,52.06Z"/><path class="cls-2" d="M95.94,44.46a7.07,7.07,0,0,1-7.08,7.08h0a7.07,7.07,0,0,1-5.56-2.7,7.22,7.22,0,0,1-1-1.66h0a7.12,7.12,0,0,1,0-5.44h0a7.22,7.22,0,0,1,1-1.66,7.08,7.08,0,0,1,12.65,4.38Z"/><path class="cls-2" d="M14.17,44.46a7,7,0,0,1-.42,2.39h0a7.07,7.07,0,0,1-6.67,4.69h0a7.08,7.08,0,1,1,5.58-11.46,6.9,6.9,0,0,1,1.1,2h0A7,7,0,0,1,14.17,44.46Z"/><path class="cls-3" d="M20,13.91,20,13.82h0Z"/><path class="cls-1" d="M72,20.35,58.16,41.84A10.21,10.21,0,0,0,56.26,38a10.44,10.44,0,0,0-6.4-3.83h0A10.31,10.31,0,0,0,48.06,34a11.6,11.6,0,0,0-1.57.11l-.23,0A10.44,10.44,0,0,0,39.86,38,10.21,10.21,0,0,0,38,41.84L24.16,20.35a8.87,8.87,0,0,0,1.14.14c.22,0,.45,0,.67,0h0q.45,0,.9,0a10.47,10.47,0,0,0,7.3-3.95,10.33,10.33,0,0,0,1.89-3.81l12,18.66L60,12.74a10.44,10.44,0,0,0,9.41,7.75c.22,0,.44,0,.66,0h0q.45,0,.9,0C71.34,20.45,71.65,20.41,72,20.35Z"/><path class="cls-2" d="M77.2,10.08a6.35,6.35,0,0,1-.08,1.07,7.1,7.1,0,0,1-1,2.67c-.14.22-.29.43-.45.64a7.14,7.14,0,0,1-5,2.68l-.61,0h-.46a7.07,7.07,0,0,1-6.52-5.87,6.78,6.78,0,0,1-.1-1.2c0-.21,0-.41,0-.61a7.13,7.13,0,0,1,.79-2.68,7.23,7.23,0,0,1,.7-1.09,7.09,7.09,0,0,1,4.5-2.62A6.35,6.35,0,0,1,70.12,3a6.78,6.78,0,0,1,1.2.1,7.08,7.08,0,0,1,5.87,6.52C77.2,9.77,77.2,9.92,77.2,10.08Z"/><path class="cls-2" d="M33.07,10.08A7.59,7.59,0,0,1,33,11.15a7.07,7.07,0,0,1-6.39,6l-.61,0h-.47a7.1,7.1,0,0,1-5.1-2.69c-.13-.17-.26-.35-.38-.53v0L20,13.82a7,7,0,0,1-1-2.54,6.78,6.78,0,0,1-.11-1.2,6.08,6.08,0,0,1,0-.61,7.08,7.08,0,0,1,6-6.39A6.35,6.35,0,0,1,26,3a6.78,6.78,0,0,1,1.2.1,7.1,7.1,0,0,1,4.37,2.6,8.09,8.09,0,0,1,.68,1,7,7,0,0,1,.81,2.88C33.06,9.77,33.07,9.92,33.07,10.08Z"/><path class="cls-3" d="M20,13.91,20,13.82h0Z"/><path class="cls-2" d="M55.14,44.46a6.15,6.15,0,0,1-.08,1.06A6.94,6.94,0,0,1,54,48.32c-.12.18-.24.35-.37.52a7.14,7.14,0,0,1-5,2.68l-.61,0H47.6a7.12,7.12,0,0,1-5.11-2.69c-.13-.17-.25-.34-.37-.52a7,7,0,0,1-1-2.66,6.78,6.78,0,0,1-.1-1.2c0-.21,0-.41,0-.61a6.92,6.92,0,0,1,.75-2.6.56.56,0,0,1,.09-.17h0l.54-.84h0l.11-.15A7.06,7.06,0,0,1,47,37.46a6.35,6.35,0,0,1,1.07-.08,6.78,6.78,0,0,1,1.2.1,7.07,7.07,0,0,1,4.37,2.6l.11.15.54.83.09.19A7,7,0,0,1,55.13,44C55.14,44.15,55.14,44.3,55.14,44.46Z"/><path class="cls-1" d="M23.65,20.24h0c-.71.71-1.39,1.46-2,2.23-.3.36-.59.73-.88,1.1a34.22,34.22,0,0,0-6.27,13.51A10.42,10.42,0,0,0,.12,36.7,48.7,48.7,0,0,1,15.71,8.25h0a11.14,11.14,0,0,0-.16,1.84,10.44,10.44,0,0,0,6,9.47A10.65,10.65,0,0,0,23.65,20.24Z"/><path class="cls-1" d="M96,36.86A10.42,10.42,0,0,0,81.61,37a34.22,34.22,0,0,0-6.17-13.29c-.3-.4-.61-.78-.93-1.17-.65-.78-1.34-1.54-2.05-2.26h0a9.83,9.83,0,0,0,1.81-.59l.22-.1.43-.21.22-.12.46-.26,0,0,.17-.1.22-.15a10.43,10.43,0,0,0,4.53-8.6,9.83,9.83,0,0,0-.16-1.81,47.77,47.77,0,0,1,5.12,5.33A48.29,48.29,0,0,1,96,36.86Z"/></svg>