<svg version="1.1" viewBox="0 0 700 700" xmlns="http://www.w3.org/2000/svg" xmlns:xlink="http://www.w3.org/1999/xlink">
<g>
  <path d="m595.36 237.93c-7.6367-14.168-19.59-27.25-35.531-38.902-25.586-18.688-52.93-34.113-81.273-45.852-17.902-7.3984-36.539-12.941-54.57-18.301l-8.7969-2.6211c-24.062-7.2227-46.133-10.734-67.441-10.734h-0.95703c-6.9609 0.035156-13.629 0.86719-20.082 1.6641-3.3477 0.41406-6.7031 0.83594-10.059 1.1211-22.73 1.9414-46.391 8.5391-74.469 20.766-18.91 8.2266-37.223 18.031-54.926 27.512-5.543 2.9688-11.09 5.9375-16.656 8.8594-19.562 10.281-41.895 23.547-59.246 44.062-16.09 19.023-17.887 49.117-4 67.082 7.6875 9.9531 17.242 19.863 28.391 29.469 8.2148 7.0859 17.008 13.531 25.543 19.762-0.042968 1.1914 0.066407 2.4062 0.35938 3.6289 0.34766 1.4688 0.93359 2.8125 1.6953 4.0156-3.5664 8.7695-7.0547 17.297-10.711 25.762-0.94141 2.1797-3.8125 8.8086-0.54687 15.691 3.2773 6.9102 10.113 8.8555 13.031 9.6836 6.9336 1.9766 13.719 4.2578 20.906 6.668 6.5625 2.207 13.352 4.4805 20.227 6.4961 15.328 4.4844 31.18 9.1289 47.461 12.441l7.207 1.4883c20.52 4.2461 41.562 8.6797 63.926 8.5508 2.6758-0.011719 5.3555-0.042969 8.0352-0.089843 6.2891-0.085938 12.242-0.17188 18.148 0.089843 3.3086 0.15234 6.7656 0.56641 10.422 1.0039 5.1133 0.60937 10.383 1.2422 15.961 1.2422 0.41406 0 0.83594-0.003906 1.2539-0.011719 18.082-0.32031 33.059-1.2266 47.129-2.8555 12.98-1.5 30.039-3.793 46.871-8.1875 12.684-3.3047 25.109-7.5039 37.129-11.559 5.7852-1.9531 11.57-3.9102 17.375-5.7617 7.1797-2.2852 12.652-7.0352 15.406-13.355 2.7539-6.3281 2.4961-13.574-0.72656-20.406-1.1094-2.3516-2.1953-4.7109-3.2891-7.0664-2.625-5.668-5.3086-11.473-8.3086-17.336 9.4922-7.5039 18.816-14.941 28.074-22.645 19.414-16.156 31.645-31.254 39.672-48.957 6.1094-13.555 5.2344-27.824-2.6328-42.418zm-94.074 152.81c-12.113 4.0938-23.559 7.957-35.332 11.027-15.242 3.9805-31.109 6.0977-43.227 7.5039-13.199 1.5273-27.352 2.3789-44.547 2.6758-4.2266 0.0625-8.7734-0.46484-13.59-1.0469-3.9766-0.47656-8.082-0.96875-12.383-1.1602-3.4336-0.15625-6.8359-0.20703-10.207-0.20703-3.2148 0-6.3906 0.042968-9.5156 0.09375-2.5859 0.035156-5.1758 0.074218-7.7578 0.085937h-0.53906c-19.227 0-38.023-3.8867-57.91-8.0039l-7.2852-1.4961c-15.188-3.0977-30.496-7.582-45.305-11.918-6.3789-1.8633-12.617-3.9648-19.23-6.1836-4.5742-1.5391-9.2461-3.1094-13.984-4.6016 2.8398-6.7578 5.6211-13.613 8.4727-20.613l1.6133-3.9531c9.7734-1.3906 21.926-2.6484 33.102-3.8125 13.625-1.418 26.492-2.7539 34.883-4.25 12.734-2.2734 25.723-3.375 36.742-4.1602l2.0117-0.14453c18.234-1.293 37.082-2.6367 55.402-2.6992 8.7422-0.13281 17.832 0.84375 27.312 1.7695 5.125 0.5 10.242 0.99609 15.371 1.3477 29.766 2.0625 67.809 12.203 98.387 20.355l11.672 3.0977c0.51953 0.13281 1.043 0.24219 1.5664 0.3125 2.5586 5.0391 4.9609 10.238 7.4688 15.656 0.77734 1.6797 1.5586 3.3672 2.3789 5.1406-5.2148 1.6875-10.391 3.4414-15.57 5.1836zm72.52-121.34c-6.2812 13.867-16.297 26.047-32.48 39.512-10.684 8.8984-21.57 17.512-32.715 26.305-0.82812 0.65625-1.5898 1.332-2.2852 2.0312l-5.7344-1.5234c-31.668-8.4375-71.082-18.949-103.38-21.184-4.8828-0.33984-9.7656-0.8125-14.645-1.2891-9.5703-0.93359-19.453-1.8945-29.512-1.8945h-0.44922c-19.219 0.066407-38.523 1.4375-57.191 2.7656l-2.0117 0.14062c-11.715 0.83594-25.57 2.0234-39.52 4.5117-7.4297 1.3203-19.836 2.6094-32.969 3.9805-12.266 1.2773-24.801 2.5742-35.191 4.0938-2.7109-2.0117-5.4219-3.9883-8.1133-5.9531-8.7031-6.3555-16.922-12.359-24.555-18.938-9.8047-8.4375-18.121-17.047-24.719-25.586-6.3125-8.1758-4.7539-24.254 3.2656-33.742 14.371-16.984 33.164-28.164 51.328-37.711 5.6211-2.9531 11.234-5.9531 16.84-8.9531 17.238-9.2344 35.066-18.777 52.988-26.582 25.352-11.039 46.375-16.957 66.141-18.648 3.6914-0.3125 7.3789-0.77344 11.066-1.2266 5.9453-0.73438 11.562-1.4297 16.953-1.4609 19.027-0.039063 38.77 3.0469 60.637 9.6133l8.8711 2.6445c17.383 5.1641 35.359 10.504 51.984 17.383 26.395 10.926 51.883 25.312 75.77 42.758 12.902 9.4297 22.008 19.266 27.832 30.07 4.9805 9.2461 3.5742 14.949 1.7969 18.883z"/>
  <path d="m372.39 167.48c-5.3555-6.418-9.9805-11.961-18.07-12.242-7.9688-0.26953-12.836 4.8047-18.367 10.551-5.8906 6.1133-11.84 12.18-17.785 18.246-7.8789 8.0312-15.766 16.062-23.508 24.227-4.8008 5.0586-7.2734 13.137-6.0078 19.672 1.4336 7.3867 3.2383 14.645 4.9844 21.66 0.80469 3.2539 1.6172 6.5078 2.3906 9.7734 5.7695 24.371 31.73 36.656 54.102 40.027 0.65625 0.10547 1.3164 0.15234 1.9766 0.15234 1.9102 0 3.8125-0.41406 5.5625-1.2227 0.42969-0.19531 0.96484-0.41016 1.5508-0.64844 2.375-0.97266 5.6289-2.3008 8.8828-4.3438 21.965-13.77 36.32-35.102 43.902-65.211 1.1094-4.4062 0.85156-10.902-3.168-15.898-12.875-16.02-24.504-30.441-36.445-44.742zm-18.414 103.37c-0.95312 0.59766-2.1914 1.1602-3.4219 1.6797-13.145-2.6836-26.383-9.3867-28.723-19.281-0.79688-3.3594-1.6289-6.7148-2.4648-10.07-1.5391-6.1875-3.0078-12.074-4.2227-17.988 7.2422-7.5977 14.594-15.094 21.945-22.586 5.332-5.4375 10.668-10.871 16.199-16.598 10.473 12.57 20.781 25.328 31.992 39.273-6.0273 21.465-16.027 36-31.305 45.57z"/>
 </g>
</svg>
