<svg version="1.1" viewBox="0 0 700 700" xmlns="http://www.w3.org/2000/svg" xmlns:xlink="http://www.w3.org/1999/xlink">
 <g>
  <path d="m548.45 539.38c-14.125-63.77-91.262-85.012-154.63-91.508l0.023437-0.59375c80.488-29.305 83.055-66.309 79.633-126.04 18.602-24.742 21.113-77.477-3.0352-71.289-5.8711-90.633-50.887-146.03-120.47-146.03-69.59 0-114.61 55.418-120.47 146.07-24.348-6.1719-21.543 46.266-3.1484 71.062-3.7305 64.82 3.0352 98.414 79.789 126.27l0.015625 0.53906c-63.359 6.4922-140.5 27.738-154.62 91.516-0.85547 3.8633 4.6523 4.8672 5.4727 1.2148 13.586-61.383 90.328-81.414 152.31-87.41 1.4727-0.14062 2.5742-1.4062 2.5273-2.8828l-0.035156-1.0586c28.66 9.2773 49.812 8.5625 76.355-0.0625l-0.039063 1.1133c-0.050781 1.4844 1.0586 2.7422 2.5352 2.8906 61.977 5.9961 138.72 26.027 152.3 87.41 0.79688 3.5 6.2969 2.4961 5.4805-1.2227zm-256.47-154.52c9.6602-22.496 20.344-41.652 30.879-41.652 9.9844 0 21.668 9.5547 27.031 5.2578h0.050781c5.3633 4.2969 17.047-5.2578 27.031-5.2578 10.527 0 21.211 19.164 30.879 41.652 2.1406 4.7305-47.938 21.262-48.586 2.25-0.12891-3.668-0.97266-9.6328-9.3477-9.6328-8.3711 0-9.2188 5.957-9.3477 9.6328-0.66016 19.012-50.734 2.4766-48.59-2.25zm180.95-73.043c-0.86719-15.094-2.1406-55.176-2.1836-56.156 15.938-5.7578 14.809 33.008 2.1836 56.156zm-122.95-202.29c69.203 0 111.7 55.113 115.27 148.16-4.1953 2.3984-8.8047 6.7383-10.109 8.707-1.2812 1.9258-3.2461 44.066-4.6484 50.004-1.875 7.957-12.242 27.883-24.535 45.953-10.891-46.316-63.469-48.367-76.047-33.305-12.578-15.059-65.152-13.008-76.047 33.305-12.293-18.078-22.652-37.996-24.535-45.953-1.3984-5.9375-3.3672-48.074-4.6406-50.004-1.293-1.9492-5.8242-6.2148-9.9805-8.6289 3.5508-93.094 46.055-148.24 115.27-148.24zm-120.77 146.18c-0.039062 0.875-1.4336 40.84-2.3008 55.871-12.438-23.156-13.48-61.527 2.3008-55.871z"/>
 </g>
</svg>
