<svg version="1.1" viewBox="0 0 700 700" xmlns="http://www.w3.org/2000/svg" xmlns:xlink="http://www.w3.org/1999/xlink">
 <g>
  <path d="m616.79 322.79c-8.793-116.48-101.53-214.31-215.66-236.71 0-5.3164-2.1133-10.414-5.8711-14.176-3.7617-3.7578-8.8594-5.8711-14.18-5.8711h-62.156c-5.3203 0-10.418 2.1133-14.18 5.8711-3.7578 3.7617-5.8711 8.8594-5.8711 14.176v0.28125c-112 22.961-194.99 119.95-203.79 236.49h-11.871c-6.957 0-12.598 5.6406-12.598 12.602v74.59c0 6.9609 5.6406 12.602 12.598 12.602h71.402c25.871 44.215 73.258 71.395 124.49 71.398h153.27c51.219 0.007812 98.602-27.148 124.49-71.344h59.922c6.957 0 12.598-5.6406 12.598-12.598v-74.648c0-6.9609-5.6406-12.602-12.598-12.602zm-365.46-7.1133c-7.8867 0-14.281-6.3945-14.281-14.281v-130.76c0-7.8867 6.3945-14.281 14.281-14.281 3.7891 0 7.418 1.5039 10.098 4.1836 2.6758 2.6758 4.1836 6.3086 4.1836 10.098v130.76c0 7.8867-6.3945 14.281-14.281 14.281zm107.02 0h-14.281c-7.8867 0-14.277-6.3945-14.277-14.281v-174.94c-0.097656-7.7617 6.0195-14.176 13.773-14.449h15.176c7.6914 0.33203 13.734 6.6953 13.664 14.391v175c0.003906 7.8008-6.2539 14.16-14.055 14.281zm92.734 0c-7.8828 0-14.277-6.3945-14.277-14.281v-130.76c-0.003906-7.7812 6.2227-14.129 14-14.281 3.7852 0 7.418 1.5039 10.098 4.1836 2.6758 2.6758 4.1797 6.3086 4.1797 10.098v130.76c0 7.8867-6.3906 14.281-14.277 14.281z"/>
 </g>
</svg>
