<svg version="1.1" viewBox="0 0 700 700" xmlns="http://www.w3.org/2000/svg" xmlns:xlink="http://www.w3.org/1999/xlink">
 <g>
  <path d="m589.87 218.75c-3.3867-3.3633-7.9961-5.207-12.77-5.1016-4.7734 0.10547-9.3008 2.1484-12.535 5.6602-20.121-25.336-48.5-42.805-80.184-49.355-88.785-16.961-179.98-16.961-268.77 0-31.691 6.5391-60.078 23.996-80.219 49.32-3.2383-3.4961-7.7578-5.5273-12.523-5.6289-4.7656-0.097656-9.3672 1.7461-12.746 5.1055l-14.938 14.938c-4.9414 4.9102-7.7109 11.594-7.6914 18.559v89.004c-0.003906 14.285 6.9531 27.672 18.645 35.875 42.309 29.441 92.844 44.758 144.38 43.75 7.8008-0.10156 15.426-2.293 22.086-6.3477 6.6602-4.0547 12.109-9.8281 15.777-16.707 0 0 32.953-60.418 43.504-80.797v-0.003907c2.4219-4.293 6.293-7.5859 10.918-9.2852 4.6289-1.7031 9.7109-1.7031 14.336 0 4.6289 1.6992 8.4961 4.9922 10.918 9.2852 10.562 20.379 43.516 80.816 43.516 80.816 3.8594 7.2148 9.668 13.199 16.766 17.273 7.0977 4.0703 15.195 6.0703 23.371 5.7656 50.785 0.60938 100.49-14.688 142.14-43.75 11.699-8.1953 18.66-21.59 18.645-35.875v-89.004c0.019531-6.9648-2.75-13.648-7.6914-18.559zm-449.87 44.398 7.2617-7.2617c3.1602-3.1836 4.9766-7.4609 5.0781-11.945 0.097656-4.4844-1.5273-8.8359-4.543-12.152 17.648-22.992 42.984-38.859 71.375-44.695 86.434-16.426 175.19-16.426 261.62 0 28.387 5.8398 53.723 21.707 71.371 44.695-3.0156 3.3164-4.6406 7.668-4.543 12.152 0.10156 4.4844 1.918 8.7617 5.0781 11.945l7.2617 7.2617v58.852c0.066406 4.5391-1.0742 9.0156-3.3086 12.973-2.2305 3.9531-5.4766 7.2422-9.3945 9.5312-22.645 12.73-47.723 20.531-73.59 22.898-5.2266 0.59375-10.516-0.39453-15.18-2.8281-4.6641-2.4375-8.4961-6.2109-11-10.84 0 0-25.023-46.121-33.188-61.582-8.5273-15.383-22.285-27.203-38.777-33.312-16.492-6.1133-34.633-6.1133-51.125 0-16.492 6.1094-30.25 17.93-38.777 33.312-8.1641 15.461-33.188 61.582-33.188 61.582-2.5156 4.6211-6.3438 8.3867-11.004 10.82-4.6602 2.4336-9.9414 3.4258-15.168 2.8477-25.887-2.3633-50.984-10.176-73.641-22.922-3.8984-2.2891-7.1211-5.5703-9.3398-9.5078-2.2188-3.9414-3.3516-8.3984-3.2852-12.922zm455 78.102c0.019531 8.5781-4.1445 16.629-11.156 21.57-38.73 26.98-84.926 41.172-132.12 40.59-5.0117 0.29688-10.008-0.84766-14.391-3.3047-4.3789-2.4531-7.9648-6.1133-10.328-10.547 0 0-32.961-60.438-43.516-80.805-4.4961-7.9414-11.664-14.023-20.23-17.168-8.5664-3.1445-17.969-3.1445-26.535 0-8.5625 3.1445-15.734 9.2266-20.23 17.168-10.551 20.371-43.496 80.797-43.496 80.797-2.1875 4.1133-5.4336 7.5625-9.4062 9.9961-3.9727 2.4297-8.5234 3.7539-13.18 3.8281-47.926 1.1328-94.965-13.07-134.25-40.547-7.0117-4.9453-11.176-12.996-11.156-21.578v-89.004c0-2.3203 0.92188-4.5469 2.5625-6.1875l14.938-14.938 12.391 12.391-9.8281 9.8281c-1.6406 1.6406-2.5625 3.8633-2.5625 6.1836v62.527c-0.0625 7.6367 1.9023 15.148 5.6992 21.773s9.2852 12.121 15.906 15.922c24.797 13.871 52.211 22.41 80.5 25.078 8.6523 0.89844 17.379-0.78516 25.082-4.832 7.6992-4.0469 14.031-10.281 18.203-17.918 0 0 25.078-46.094 33.188-61.582 6.5195-11.664 16.984-20.613 29.52-25.242 12.531-4.6289 26.309-4.6289 38.84 0 12.535 4.6289 23 13.578 29.52 25.242 8.1094 15.488 33.18 61.582 33.18 61.582 4.1602 7.6484 10.492 13.895 18.199 17.945 7.7109 4.0469 16.445 5.7227 25.105 4.8047 28.258-2.6758 55.648-11.207 80.43-25.051 6.6289-3.8125 12.129-9.3203 15.93-15.957 3.8008-6.6367 5.7695-14.168 5.6992-21.816v-62.477c0-2.3203-0.92188-4.543-2.5625-6.1836l-9.8281-9.8281 12.391-12.391 14.938 14.938c1.6406 1.6406 2.5625 3.8672 2.5625 6.1875z"/>
  <path d="m212.47 225.43c17.434-5.2773 35.336-8.8555 53.461-10.672 4.793-0.61719 8.1836-5 7.5703-9.793s-5-8.1836-9.793-7.5703c-19.531 1.9492-38.816 5.8789-57.559 11.727-4.5078 1.7461-6.7461 6.8125-5.0039 11.324 1.7461 4.5078 6.8125 6.7461 11.324 5.0039z"/>
  <path d="m188.12 236.25c0 4.832-3.918 8.75-8.75 8.75s-8.75-3.918-8.75-8.75 3.918-8.75 8.75-8.75 8.75 3.918 8.75 8.75"/>
 </g>
</svg>
