<svg fill="none" fill-rule="evenodd" stroke="black" stroke-width="0.501" stroke-linejoin="bevel" stroke-miterlimit="10" font-family="Times New Roman" font-size="16" style="font-variant-ligatures:none" xmlns:xlink="http://www.w3.org/1999/xlink" xmlns="http://www.w3.org/2000/svg" version="1.1" overflow="visible" width="223.456pt" height="305.637pt" viewBox="0 -305.637 223.456 305.637">

<g id="Layer 1" transform="scale(1 -1)">
<rect x="0.043" y="45.131" width="223.37" height="223.369" stroke="none" fill="#ffffff" stroke-linejoin="miter"/>
<g id="Group" stroke-linejoin="miter" stroke-linecap="round" stroke="none" stroke-width="0.25">
<path d="M 111.728,57.58 C 135.658,57.58 157.838,65.115 176.023,77.94 C 171.279,109.355 167.997,123.432 158.177,131.643 C 152.738,136.268 145.332,138.577 134.373,141.767 C 131.521,142.596 126.711,143.982 124.277,144.51 L 124.278,157.903 C 132.054,162.221 138.002,170.432 140.407,180.443 C 145.044,180.721 147.083,182.158 149.096,185.514 C 150.676,188.148 151.954,192.542 150.754,195.8 C 149.682,198.711 147.022,201.832 143.663,201.832 C 142.799,201.832 141.959,201.638 141.183,201.288 C 138.882,218.286 126.521,231.276 111.728,231.276 C 96.935,231.276 84.574,218.286 82.273,201.288 C 81.497,201.638 80.657,201.832 79.793,201.832 C 76.434,201.832 73.774,198.711 72.702,195.8 C 71.502,192.542 72.78,188.148 74.36,185.514 C 76.373,182.158 78.412,180.721 83.049,180.443 C 85.454,170.432 91.402,162.221 99.178,157.903 L 99.179,144.51 C 96.745,143.982 91.935,142.596 89.083,141.767 C 78.124,138.577 70.718,136.268 65.279,131.643 C 55.459,123.432 52.177,109.355 47.433,77.94 C 65.618,65.115 87.798,57.58 111.728,57.58 Z" fill="#f1c9a5" marker-start="none" marker-end="none"/>
<path d="M 111.728,57.58 C 135.658,57.58 157.838,65.115 176.023,77.94 C 171.279,109.355 167.997,123.432 158.177,131.643 C 152.738,136.268 145.332,138.577 134.373,141.767 C 131.521,142.596 126.711,143.982 124.277,144.51 L 124.278,157.903 C 132.054,162.221 138.002,170.432 140.407,180.443 C 145.044,180.721 147.083,182.158 149.096,185.514 C 150.676,188.148 151.954,192.542 150.754,195.8 C 149.682,198.711 147.022,201.832 143.663,201.832 C 142.799,201.832 141.959,201.638 141.183,201.288 C 138.882,218.286 126.521,231.276 111.728,231.276 L 111.728,57.58 Z" fill="#e4b992" marker-start="none" marker-end="none"/>
</g>
<path d="M 68.784,207.843 C 68.784,224.621 77.328,239.293 90.045,247.214 C 90.043,247.334 90.043,247.454 90.043,247.574 C 90.043,259.543 99.759,269.259 111.728,269.259 C 123.697,269.259 133.413,259.543 133.413,247.574 C 133.413,247.454 133.413,247.334 133.411,247.214 C 136.826,245.086 139.941,242.472 142.67,239.443 L 142.67,239.432 L 142.67,239.46 C 150.101,231.259 154.672,220.114 154.672,207.843 C 154.672,194.126 152.532,182.394 136.284,170.028 C 138.098,173.171 139.502,176.68 140.407,180.443 C 145.044,180.721 147.083,182.158 149.096,185.514 C 150.676,188.148 151.954,192.542 150.754,195.8 C 149.682,198.711 147.022,201.832 143.663,201.832 C 143.327,201.832 142.995,201.802 142.669,201.746 L 142.67,196.694 L 80.797,196.694 L 80.797,201.744 C 80.467,201.802 80.132,201.832 79.793,201.832 C 76.434,201.832 73.774,198.711 72.702,195.8 C 71.502,192.542 72.78,188.148 74.36,185.514 C 76.373,182.158 78.412,180.721 83.049,180.443 C 83.953,176.68 85.357,173.171 87.171,170.028 C 70.923,182.394 68.784,194.126 68.784,207.843 Z" fill="#bead57" stroke-linecap="round" stroke="none" stroke-width="0.5" stroke-linejoin="miter" marker-start="none" marker-end="none"/>
<g id="Group_1" stroke-linejoin="miter" stroke-linecap="round">
<path d="M 93.839,142.037 C 99.277,137.192 105.087,133.335 111.728,131.697 C 118.369,133.335 124.179,137.192 129.617,142.037" fill="none" stroke-width="2" stroke="#000000"/>
<ellipse cx="111.727" cy="124.969" rx="5.025" ry="5.025" fill="#ffffff" stroke-width="0.5" stroke="none"/>
</g>
<g id="Group_2" stroke-linecap="round" stroke="none" stroke-width="0.5">
<path d="M 47.433,77.94 C 52.231,109.707 55.735,123.631 65.81,131.805 C 79.407,124.226 95.065,119.908 111.727,119.908 C 128.387,119.908 144.046,124.226 157.643,131.806 C 167.718,123.632 171.223,109.708 176.022,77.94 C 157.837,65.115 135.657,57.58 111.728,57.58 C 87.798,57.58 65.618,65.115 47.433,77.94 Z" fill="#7f007e" stroke-linejoin="miter" marker-start="none" marker-end="none"/>
<path d="M 116.367,57.697 L 127.103,143.888 C 162.82,134.09 167.817,132.44 175.987,77.915 C 158.989,65.937 138.503,58.579 116.364,57.674 L 116.367,57.697 Z" fill="#bf00bd" stroke-linejoin="round" marker-start="none" marker-end="none"/>
<path d="M 47.468,77.915 C 55.638,132.44 60.635,134.09 96.353,143.888 L 107.088,57.697 L 107.091,57.674 C 84.952,58.579 64.466,65.937 47.468,77.915 Z" fill="#bf00bd" stroke-linejoin="round" marker-start="none" marker-end="none"/>
</g>
</g>
</svg>
