<svg xmlns="http://www.w3.org/2000/svg" viewBox="0 0 577 487" color-interpolation-filters="sRGB" fill="none" fill-rule="evenodd" font-size="12" overflow="visible" stroke-linecap="square" stroke-miterlimit="3"><style>.st2{fill:#fff;stroke:none;stroke-linecap:butt;stroke-width:2.49796}</style><g id="group10-1" transform="translate(.36 -.36)"><g id="shape2-2"><path fill="#31e981" stroke="#000" stroke-linecap="round" stroke-linejoin="round" stroke-width=".72" d="M0 .72h576v486H0z"/></g><g id="shape3-4" transform="translate(199.671 -22.354)"><path d="M59.08 486.72a21.158 21.158 0 01-11.32-39.04c3.42-2.2 79.49-53.01 23.43-166.54C0 136.91 73.69 60.72 76.91 57.55a21.196 21.196 0 1129.98 29.97c-2.1 2.22-54.78 59.28 2.3 174.86 73.46 148.8-37.75 220.39-38.87 221.09a21.008 21.008 0 01-11.24 3.25z" class="st2"/></g><g id="shape4-6" transform="translate(355.643 -194.938)"><path d="M25.4 486.65h-4.99a21.145 21.145 0 011.45-42.27A107.912 107.912-180 00133.17 328.8a21.158 21.158 0 0142.19-3.02A150.127 150.127 0 0125.48 486.72l-.08-.07z" class="st2"/></g><g id="shape5-8" transform="translate(374.903 -242.199)"><path d="M97.45 486.72a11.715 11.715 0 01-8.32-3.42L0 394.15a11.746 11.746 0 1116.61-16.62l89.15 89.16a11.74 11.74 0 01-8.31 19.98v.05z" class="st2"/></g><g id="shape6-10" transform="translate(336.476 -302.775)"><path d="M22.51 486.72a46.937 46.937 0 018.67-84.53 15.962 15.962-180 005.77-6.87 15.437 15.437-180 00-5.34-19.08 26.154 26.154 0 1139.34-6.45 25.654 25.654 0 01-6.82 7.49 14.988 14.988-180 00-5.47 6.27 15.737 15.737-180 005 19.16 46.162 46.162 0 017.22 3.5 46.948 46.948 0 11-48.37 80.48v.03z" class="st2"/></g><g id="shape7-12" transform="translate(32.058 -103.513)"><path d="M21.08 486.72A21.158 21.158 0 010 467.11a150.152 150.152 0 01154.87-160.87 21.145 21.145 0 11-1.45 42.27 107.862 107.862-180 00-111.3 115.55 21.108 21.108 0 01-19.59 22.61c-.42.05-.95.05-1.45.05z" class="st2"/></g><g id="shape8-14" transform="translate(82.267 -126.144)"><path d="M95.75 486.72a11.69 11.69 0 01-8.32-3.42L0 395.87a11.746 11.746 0 1116.61-16.61l87.43 87.43a11.74 11.74 0 01-8.29 19.98v.05z" class="st2"/></g><g id="shape9-16" transform="translate(131.165 -21.902)"><path d="M22.67 330.45a46.937 46.937-180 008.62 84.65 16.037 16.037 0 015.77 6.9 15.437 15.437 0 01-5.4 19.01 26.154 26.154-180 1039.44 6.56 26.678 26.678-180 00-6.82-7.49 14.988 14.988 0 01-5.47-6.34 15.712 15.712 0 015-19.14 48.785 48.785-180 007.19-3.47 47.027 47.027-180 00-48.33-80.68z" class="st2"/></g></g></svg>