<svg fill="none" fill-rule="evenodd" stroke="#000" stroke-width=".501" stroke-linejoin="bevel" stroke-miterlimit="10" font-family="Times New Roman" font-size="16" style="font-variant-ligatures:none" xmlns="http://www.w3.org/2000/svg" overflow="visible" width="274" height="300" viewBox="0 0 205.5 225" transform="scale(1 -1)"><defs><linearGradient id="a" gradientUnits="userSpaceOnUse" x1="0" y1="0" x2="0" y2="-60.46" gradientTransform="translate(102.776 61.326)"><stop offset="0" stop-color="#89d63d"/><stop offset=".23" stop-color="#7ec736"/><stop offset=".7" stop-color="#46a124"/><stop offset=".72" stop-color="#459e24"/><stop offset="1" stop-color="#459e24"/></linearGradient><linearGradient id="b" gradientUnits="userSpaceOnUse" x1="0" y1="0" x2="59.08" y2="0" gradientTransform="rotate(44.993 -78.901 243.58)"><stop offset="0" stop-color="#89d63d"/><stop offset=".28" stop-color="#7dc436"/><stop offset=".8" stop-color="#459e24"/><stop offset="1" stop-color="#459e24"/></linearGradient><linearGradient id="c" gradientUnits="userSpaceOnUse" x1="0" y1="0" x2="-41.781" y2="41.771" gradientTransform="translate(56.419 127.107)"><stop offset="0" stop-color="#89d63d"/><stop offset=".28" stop-color="#7dc436"/><stop offset=".8" stop-color="#459e24"/><stop offset="1" stop-color="#459e24"/></linearGradient></defs><g stroke-linejoin="miter" stroke="none" stroke-width="1.012"><path d="M102.776 92.559c-9.19-.006-16.643 7.441-16.647 16.631-.004 9.19 7.444 16.642 16.634 16.644 9.19.002 16.641-7.447 16.641-16.637-.006-9.183-7.446-16.627-16.628-16.638z" fill="#1c2640"/><path d="M97.655 1.593L28.387 41.516A21.398 21.398 0 0138.61 59.235l64.166-36.973 64.167 37.044a21.404 21.404 0 0110.201-17.729L107.898 1.593a10.242 10.242 0 00-10.243 0zm0 98.744c-4.891 2.827-6.564 9.081-3.738 13.971 2.826 4.891 9.081 6.564 13.971 3.738l69.246-39.982a21.355 21.355 0 01-10.202-17.728zM6.98 78.619v79.945c0 3.653 1.948 7.032 5.113 8.86l69.278 39.972a21.409 21.409 0 0110.233-17.719l-64.157-37.042V78.599a21.4 21.4 0 01-20.467 0zm175.783 71.325l-68.825 39.733a21.426 21.426 0 0110.233 17.719l68.816-39.733a10.236 10.236 0 00.191-17.933 10.234 10.234 0 00-10.415.214z" fill="#459e24"/><path d="M92.543 11.089v40.003a10.235 10.235 0 0015.437 9.131 10.236 10.236 0 005.019-9.131V11.089a10.234 10.234 0 00-20.456 0z" fill="url(#a)"/><path d="M157.8 129.139l34.629 19.991a10.234 10.234 0 01.193 17.933 10.237 10.237 0 01-10.415-.215l-34.629-19.991a10.232 10.232 0 01-3.475-13.814 10.23 10.23 0 0113.697-3.904z" fill="url(#b)"/><path d="M47.732 129.139L13.103 149.13a10.234 10.234 0 00-.193 17.933 10.237 10.237 0 0010.415-.215l34.629-19.991a10.232 10.232 0 003.475-13.814 10.23 10.23 0 00-13.697-3.904z" fill="url(#c)"/><circle transform="translate(17.214 59.82)" fill="#1c2640" fill-rule="nonzero" r="16.626"/><ellipse rx="16.626" ry="16.627" transform="translate(102.887 208.154)" fill="#1c2640" fill-rule="nonzero"/><ellipse rx="16.627" ry="16.626" transform="translate(188.287 59.82)" fill="#1c2640" fill-rule="nonzero"/><ellipse rx="6.06" ry="6.061" transform="translate(102.776 109.197)" fill="#fff" fill-rule="nonzero"/><circle transform="translate(153.042 137.664)" fill="#fff" fill-rule="nonzero" r="6.06"/><circle transform="translate(52.5 138.048)" fill="#fff" fill-rule="nonzero" r="6.06"/><path d="M97.372 54.254a6.06 6.06 0 008.278 2.227 6.061 6.061 0 10-8.278-2.227z" fill="#fff"/></g></svg>