<?xml version="1.0" standalone="no"?>
<!DOCTYPE svg PUBLIC "-//W3C//DTD SVG 1.1//EN" "http://www.w3.org/Graphics/SVG/1.1/DTD/svg11.dtd">
<!--Generator: Xara Designer (www.xara.com), SVG filter version: 6.3.0.31-->
<svg fill="none" fill-rule="evenodd" stroke="black" stroke-width="0.501" stroke-linejoin="bevel" stroke-miterlimit="10" font-family="Times New Roman" font-size="16" style="font-variant-ligatures:none" xmlns:xlink="http://www.w3.org/1999/xlink" xmlns="http://www.w3.org/2000/svg" version="1.1" overflow="visible" width="223.456pt" height="305.637pt" viewBox="0 -305.637 223.456 305.637">
 <defs>
	</defs>
 <g id="Layer 1" transform="scale(1 -1)">
  <rect x="0.043" y="45.131" width="223.37" height="223.369" stroke="none" fill="#ffffff" stroke-linejoin="miter"/>
  <path d="M 111.65,239.076 C 128.079,239.076 144.249,223.053 144.249,203.312 L 144.249,190.368 C 144.249,176.025 134.375,163.645 124.226,157.947 L 124.226,144.522 C 125.185,144.332 126.144,144.121 127.103,143.888 C 142.183,139.433 151.611,137.225 158.176,131.643 C 144.456,123.878 128.606,91.099 111.728,91.099 C 94.849,91.099 78.999,123.878 65.279,131.643 C 71.844,137.225 81.272,139.433 96.353,143.888 C 97.295,144.116 98.237,144.324 99.179,144.51 L 99.178,157.889 C 88.973,163.561 79.052,175.976 79.052,190.368 L 79.052,203.312 C 79.052,223.053 95.221,239.076 111.65,239.076 Z" stroke="none" fill="#f1c9a5" stroke-linejoin="miter" stroke-width="0.5" stroke-linecap="round" marker-start="none" marker-end="none"/>
  <path d="M 111.728,91.099 L 111.728,239.075 C 128.122,239.024 144.249,223.021 144.249,203.312 L 144.249,190.368 C 144.249,176.025 134.375,163.645 124.226,157.947 L 124.226,144.522 C 125.185,144.332 126.144,144.121 127.103,143.888 C 142.183,139.433 151.611,137.225 158.176,131.643 C 144.456,123.878 128.606,91.099 111.728,91.099 Z" stroke="none" fill="#e4b992" stroke-linejoin="miter" stroke-linecap="round" stroke-width="0.5" marker-start="none" marker-end="none"/>
  <path d="M 63.464,184.787 C 62.567,187.799 65.259,191.012 64.964,194.162 C 64.81,195.815 63.541,197.211 63.277,198.85 C 62.878,201.318 63.549,203.851 63.464,206.35 C 63.144,215.76 56.952,227.019 60.839,234.475 C 65.517,243.449 72.139,241.081 80.152,245.35 C 88.994,250.061 97.875,257.111 107.902,256.975 C 113.523,256.899 118.793,254.754 123.276,250.037 C 128.134,252.527 135.054,253.205 140.096,250.743 C 145.352,248.177 146.426,240.848 150.296,236.463 C 153.536,232.792 158.902,230.881 161.096,226.503 C 164.031,220.646 164.458,210.734 160.27,206.854 C 164.106,198.012 162.354,191.686 158.17,186.454 C 161.362,170.251 145.163,164.462 127.064,159.694 C 133.17,165.198 137.321,171.326 140.239,178.503 C 141.851,182.468 142.946,185.131 142.946,190.502 C 142.946,194.497 141.111,197.321 140.611,199.755 C 138.761,208.753 136.47,209.424 130.076,211.644 C 121.436,214.644 116.592,222.303 116.629,228.05 C 116.592,232.831 115.487,237.031 111.728,239.703 C 107.969,237.031 106.864,232.831 106.827,228.05 C 106.864,222.303 104.995,217.688 96.355,214.688 C 89.961,212.468 84.695,208.753 82.845,199.755 C 82.345,197.321 80.51,194.497 80.51,190.502 C 80.51,185.131 83.554,180.694 87.509,176.371 C 86.066,176.857 84.635,177.594 83.217,178.503 C 85.553,171.887 90.126,165.339 96.43,159.664 C 81.29,165 66.571,174.352 63.464,184.787 Z" fill="#bf6200" stroke="none" stroke-linejoin="miter" stroke-linecap="round" stroke-width="0.5" marker-start="none" marker-end="none"/>
  <path d="M 47.433,77.94 C 55.243,129.649 59.626,134.081 94.497,143.395 C 97.685,131.328 103.629,109.764 111.728,104.821 C 119.827,109.764 125.771,131.328 128.959,143.395 C 163.829,134.081 168.212,129.649 176.022,77.94 C 157.837,65.115 135.657,57.58 111.728,57.58 C 87.798,57.58 65.618,65.115 47.433,77.94 Z" fill="#4445bc" stroke-linejoin="miter" stroke-linecap="round" stroke="none" stroke-width="0.5" marker-start="none" marker-end="none"/>
 </g>
 <g id="Layer_1" transform="scale(1 -1)"/>
</svg>
