<svg xmlns="http://www.w3.org/2000/svg" viewBox="0 0 531.512 198.849" color-interpolation-filters="sRGB" fill="none" fill-rule="evenodd" font-size="12" overflow="visible" stroke-linecap="square" stroke-miterlimit="3"><style>.st2{fill:none;stroke:none;stroke-linecap:round;stroke-linejoin:round;stroke-width:.72}.st4{font-size:1em;letter-spacing:0}</style><g id="shape11-1" transform="matrix(1 0 0 -1 .152 207.798)"><path d="M67.59 195.79c-30.55-6.11-54.86-27.75-64.28-57.28-2.8-8.65-3.31-12.34-3.18-25.2.12-16.17 2.16-25.46 8.27-37.55 11.2-22.02 33.48-38.83 57.66-43.54 12.48-2.41 33.35-1.01 44.94 3.06l9.55 3.31 9.54-3.44c8.66-3.18 11.08-3.56 26.73-3.56 14.13 0 18.72.51 26.1 2.8 35.26 11.07 60.08 47.48 57.53 84.39-3.05 42.52-35.26 74.6-78.53 78.54-9.42.77-24.57-1.78-35.26-6.11l-6.75-2.67-6.62 2.67c-15.28 6.11-30.3 7.64-45.7 4.58zm27.24-18.96c11.33-2.17 19.48-6.11 29.28-14.13 6.11-4.97 14.89-15.4 14.89-17.7 0-.38-1.52-.76-3.43-.76-8.02-.13-9.3-4.07-9.3-29.02 0-20.75 1.15-29.15 4.08-30.93.89-.64 12.85-1.15 26.6-1.15 22.28 0 25.33.26 27.88 2.29 2.8 2.29 2.8 2.8 2.67 28.26-.25 31.57.38 30.55-16.17 30.55h-10.69l-3.31 6.75c-3.82 7.38-8.02 13.49-13.74 19.6-2.04 2.29-3.44 4.46-3.19 4.84 1.78 1.65 15.41 3.18 22.79 2.42 26.98-2.68 49.77-22.28 56.64-48.5 8.53-32.46-10.05-65.81-42.89-76.89-10.19-3.31-28.39-3.31-39.59.13-13.88 4.33-29.02 16.17-34.75 27.11-1.78 3.31-1.78 3.44 1.78 3.44 1.91 0 4.71.76 6.11 1.78 2.29 1.66 2.42 3.82 2.8 27.88.51 34.24 3.18 31.44-30.3 31.44-20.49 0-25.33-.38-27.75-2.04-2.8-1.91-2.8-2.54-2.8-28 0-32.21-.63-31.06 16.55-31.06 8.02 0 11.46-.51 11.46-1.53 0-2.67 10.18-18.71 15.4-24.18 2.67-2.93 4.58-5.6 4.2-5.99-.38-.38-6.87-.89-14.38-1.14-19.1-.76-28.26 2.16-43.03 13.24C28 74.48 18.08 94.72 18.08 113.69c0 27.62 20.36 54.74 46.46 61.61 14.76 3.82 17.31 3.95 30.29 1.53zm-1.14-53.72c1.14-2.93.89-17.44-.39-19.35-.63-1.14-3.81-1.53-11.07-1.27l-10.06.38-.38 9.42c-.25 5.22-.12 10.18.26 11.2 1.02 2.68 20.62 2.29 21.64-.38zm74.34-9.67l.38-11.21h-10.95c-5.98 0-10.95.39-10.95 1.02-.89 4.33-.51 19.1.51 20.37.89 1.15 4.2 1.53 10.95 1.27l9.67-.38.39-11.07z" fill="#1f64ff" stroke="#1f64ff" stroke-linecap="butt" stroke-width=".262"/></g><g id="group16-3" transform="translate(261.152 -6.075)"><g id="shape12-4" transform="translate(0 -114.325)"><path class="st2" d="M0 124.849h270v74H0z"/><text x="4" y="178.05" fill="#7f7f7f" font-family="Raleway ExtraBold" font-size="6em" letter-spacing=".083em">Ex<tspan class="st4">port</tspan></text></g><g id="shape13-8" transform="translate(0 -57.825)"><path class="st2" d="M0 126.849h270v72H0z"/><text x="4" y="179.05" fill="#7f7f7f" font-family="Raleway ExtraBold" font-size="6em" letter-spacing=".014em">I<tspan font-size="1em" letter-spacing=".061em">m</tspan><tspan class="st4">port</tspan></text></g><g id="shape14-13"><path class="st2" d="M0 137.199h243v61.65H0z"/><text x="4" y="186.47" fill="#7f7f7f" font-family="Raleway ExtraBold" font-size="6.833em" letter-spacing="-.018em">D<tspan font-size=".793em" letter-spacing="-.031em">a</tspan><tspan font-size=".793em" letter-spacing="0">ta</tspan></text></g></g></svg>