<?xml version="1.0" encoding="UTF-8" standalone="no"?>
<!DOCTYPE svg PUBLIC "-//W3C//DTD SVG 1.1//EN" "http://www.w3.org/Graphics/SVG/1.1/DTD/svg11.dtd">
<!-- Generated by Microsoft Visio, SVG Export export-import-data-logo_-_21-05-15.svg Page-1 -->
<svg xmlns="http://www.w3.org/2000/svg" xmlns:xlink="http://www.w3.org/1999/xlink" xmlns:ev="http://www.w3.org/2001/xml-events"
		xmlns:v="http://schemas.microsoft.com/visio/2003/SVGExtensions/" width="7.25705in" height="2.76179in"
		viewBox="0 0 522.508 198.849" xml:space="preserve" color-interpolation-filters="sRGB" class="st10">
	<v:documentProperties v:langID="1033" v:viewMarkup="false">
		<v:userDefs>
			<v:ud v:nameU="msvConvertTheme"/>
		</v:userDefs>
	</v:documentProperties>

	<style type="text/css">
	<![CDATA[
		.st1 {fill:#1f64ff;stroke:#1f64ff;stroke-linecap:butt;stroke-width:0.261538}
		.st2 {fill:none;stroke:none;stroke-linecap:round;stroke-linejoin:round;stroke-width:0.72}
		.st3 {fill:#7f7f7f;font-family:Raleway ExtraBold;font-size:6em;letter-spacing:0.0833333em}
		.st4 {font-size:1em;letter-spacing:0em}
		.st5 {fill:#7f7f7f;font-family:Raleway ExtraBold;font-size:6em;letter-spacing:0.0138889em}
		.st6 {font-size:1em;letter-spacing:0.0611111em}
		.st7 {fill:#7f7f7f;font-family:Raleway ExtraBold;font-size:6.83334em;letter-spacing:-0.0182927em}
		.st8 {font-size:0.792683em;letter-spacing:-0.0307692em}
		.st9 {font-size:0.792683em;letter-spacing:0em}
		.st10 {fill:none;fill-rule:evenodd;font-size:12px;overflow:visible;stroke-linecap:square;stroke-miterlimit:3}
	]]>
	</style>

	<g v:mID="0" v:index="1" v:groupContext="foregroundPage">
		<title>Page-1</title>
		<v:pageProperties v:drawingScale="1" v:pageScale="1" v:drawingUnits="19" v:shadowOffsetX="9" v:shadowOffsetY="-9"/>
		<g id="shape11-1" v:mID="11" v:groupContext="shape" transform="translate(0.147885,203.493) scale(1,-1)">
			<title>Sheet.11</title>
			<path d="M70.1 195.68 C38.41 189.34 13.2 166.9 3.43 136.28 C0.53 127.3 0 123.47 0.13 110.14 C0.26 93.38 2.38 83.74 8.71
						 71.2 C20.33 48.36 43.43 30.94 68.51 26.05 C81.45 23.54 103.1 25 115.11 29.22 L125.01 32.65 L134.91 29.09
						 C143.89 25.79 146.39 25.39 162.63 25.39 C177.28 25.39 182.04 25.92 189.69 28.3 C226.26 39.78 252 77.54 249.36
						 115.82 C246.19 159.91 212.79 193.17 167.91 197.26 C158.14 198.06 142.43 195.42 131.35 190.93 L124.35 188.16
						 L117.49 190.93 C101.64 197.26 86.07 198.85 70.1 195.68 ZM98.34 176.01 C110.09 173.77 118.54 169.68 128.71
						 161.36 C135.04 156.21 144.15 145.39 144.15 143.01 C144.15 142.61 142.57 142.22 140.59 142.22 C132.27 142.09
						 130.95 137.99 130.95 112.12 C130.95 90.6 132.14 81.89 135.17 80.04 C136.1 79.38 148.51 78.86 162.76 78.86
						 C185.86 78.86 189.03 79.12 191.67 81.23 C194.58 83.61 194.58 84.14 194.45 110.54 C194.18 143.27 194.84 142.22
						 177.68 142.22 L166.59 142.22 L163.16 149.21 C159.2 156.87 154.84 163.21 148.9 169.54 C146.79 171.92 145.34
						 174.16 145.6 174.56 C147.45 176.28 161.58 177.86 169.23 177.07 C197.22 174.3 220.85 153.97 227.97 126.77
						 C236.82 93.11 217.55 58.53 183.49 47.04 C172.93 43.61 154.05 43.61 142.43 47.17 C128.05 51.66 112.34 63.94
						 106.4 75.29 C104.55 78.72 104.55 78.86 108.25 78.86 C110.23 78.86 113.13 79.65 114.58 80.7 C116.96 82.42
						 117.09 84.66 117.49 109.61 C118.01 145.12 120.79 142.22 86.07 142.22 C64.82 142.22 59.8 141.82 57.29 140.11
						 C54.39 138.13 54.39 137.47 54.39 111.06 C54.39 77.67 53.73 78.86 71.55 78.86 C79.86 78.86 83.43 78.33 83.43
						 77.27 C83.43 74.5 93.99 57.87 99.4 52.19 C102.17 49.15 104.15 46.38 103.76 45.99 C103.36 45.59 96.63 45.06
						 88.84 44.8 C69.04 44.01 59.53 47.04 44.22 58.53 C29.04 69.88 18.74 90.87 18.74 110.54 C18.74 139.18 39.87
						 167.3 66.93 174.43 C82.24 178.39 84.88 178.52 98.34 176.01 ZM97.16 120.31 C98.34 117.27 98.08 102.22 96.76
						 100.24 C96.1 99.05 92.8 98.66 85.28 98.92 L74.85 99.32 L74.45 109.08 C74.19 114.5 74.32 119.65 74.72 120.7
						 C75.77 123.47 96.1 123.08 97.16 120.31 ZM174.25 110.27 L174.64 98.66 L163.29 98.66 C157.09 98.66 151.94
						 99.05 151.94 99.71 C151.02 104.2 151.41 119.51 152.47 120.83 C153.39 122.02 156.82 122.42 163.82 122.15
						 L173.85 121.76 L174.25 110.27 Z" class="st1"/>
		</g>
		<g id="group16-3" transform="translate(252.148,-6.07495)" v:mID="16" v:groupContext="group">
			<title>Sheet.16</title>
			<g id="shape12-4" v:mID="12" v:groupContext="shape" transform="translate(1.43885E-13,-114.325)">
				<title>Sheet.12</title>
				<desc>Export</desc>
				<v:textBlock v:margins="rect(4,4,4,4)"/>
				<v:textRect cx="135" cy="161.849" width="270" height="74"/>
				<rect x="0" y="124.849" width="270" height="74" class="st2"/>
				<text x="4" y="178.05" class="st3" v:langID="1033"><v:paragraph v:spLine="-0.9"/><v:tabList/>Ex<tspan class="st4">port</tspan></text>			</g>
			<g id="shape13-8" v:mID="13" v:groupContext="shape" transform="translate(0,-57.825)">
				<title>Sheet.13</title>
				<desc>Import</desc>
				<v:textBlock v:margins="rect(4,4,4,4)"/>
				<v:textRect cx="135" cy="162.849" width="270" height="72"/>
				<rect x="0" y="126.849" width="270" height="72" class="st2"/>
				<text x="4" y="179.05" class="st5" v:langID="1033"><v:paragraph v:spLine="-0.9"/><v:tabList/>I<tspan class="st6">m</tspan><tspan
							class="st4">port</tspan></text>			</g>
			<g id="shape14-13" v:mID="14" v:groupContext="shape" transform="translate(2.22075E-05,0)">
				<title>Sheet.14</title>
				<desc>Data</desc>
				<v:textBlock v:margins="rect(4,4,4,4)"/>
				<v:textRect cx="121.5" cy="168.024" width="243.01" height="61.65"/>
				<rect x="0" y="137.199" width="243" height="61.65" class="st2"/>
				<text x="4" y="186.47" class="st7" v:langID="1033"><v:paragraph v:spLine="-0.9"/><v:tabList/>D<tspan class="st8">a</tspan><tspan
							class="st9">ta</tspan></text>			</g>
		</g>
	</g>
</svg>
