<svg xmlns="http://www.w3.org/2000/svg" viewBox="0 0 574 207" color-interpolation-filters="sRGB" fill="none" fill-rule="evenodd" font-size="12" overflow="visible" stroke-linecap="square" stroke-miterlimit="3"><style>.st3{font-size:1em}</style><g id="group12-1" transform="translate(.133 -.36)"><g id="shape10-2" transform="translate(303.638)"><path stroke-linecap="round" stroke-linejoin="round" stroke-width=".72" d="M0 9.36h270v198H0z"/><text x="4" y="59.76" fill="#7f7f7f" font-family="Raleway ExtraBold" font-size="6em">Export<tspan x="4" dy=".9em" class="st3">Import</tspan><tspan x="4" dy=".9em" class="st3">Data</tspan></text></g><g id="shape11-7" transform="matrix(1 0 0 -1 0 207.72)"><path d="M79.45 203.77c-35.91-7.18-64.49-32.62-75.56-67.33C.6 126.26 0 121.92.15 106.81c.15-19 2.54-29.92 9.73-44.14C23.04 36.78 49.23 17.03 77.66 11.5c14.66-2.85 39.2-1.2 52.81 3.59l11.23 3.89 11.22-4.04c10.17-3.74 13.02-4.19 31.42-4.19 16.61 0 22 .6 30.67 3.29 41.45 13.02 70.63 55.81 67.64 99.2-3.6 49.98-41.45 87.69-92.32 92.32-11.08.9-28.88-2.09-41.45-7.18l-7.93-3.14-7.78 3.14c-17.96 7.18-35.61 8.98-53.72 5.39zm32.02-22.3c13.32-2.54 22.9-7.18 34.42-16.6 7.18-5.84 17.5-18.11 17.5-20.8 0-.45-1.79-.9-4.04-.9-9.42-.15-10.92-4.79-10.92-34.12 0-24.38 1.35-34.26 4.79-36.35 1.05-.75 15.11-1.35 31.27-1.35 26.19 0 29.78.3 32.77 2.69 3.29 2.7 3.29 3.29 3.14 33.22-.3 37.11.45 35.91-19 35.91h-12.57l-3.89 7.93c-4.49 8.68-9.43 15.86-16.16 23.04-2.39 2.7-4.04 5.24-3.74 5.69 2.09 1.94 18.1 3.74 26.78 2.84 31.72-3.14 58.51-26.18 66.59-57.01 10.02-38.15-11.82-77.35-50.43-90.37-11.97-3.89-33.36-3.89-46.53.15-16.31 5.09-34.12 19-40.85 31.87-2.1 3.89-2.1 4.04 2.09 4.04 2.25 0 5.54.9 7.19 2.09 2.69 1.95 2.84 4.49 3.29 32.77.6 40.25 3.74 36.96-35.61 36.96-24.09 0-29.78-.45-32.62-2.39-3.29-2.25-3.29-3-3.29-32.92 0-37.86-.75-36.51 19.45-36.51 9.42 0 13.46-.6 13.46-1.8 0-3.14 11.97-21.99 18.11-28.43 3.14-3.44 5.39-6.58 4.94-7.03-.45-.45-8.08-1.05-16.91-1.35-22.44-.89-33.22 2.55-50.57 15.57-17.21 12.86-28.88 36.65-28.88 58.95 0 32.47 23.94 64.34 54.61 72.42 17.36 4.49 20.35 4.64 35.61 1.79zm-1.34-63.14c1.34-3.44 1.04-20.5-.45-22.74-.75-1.35-4.49-1.8-13.02-1.5l-11.82.45-.45 11.07c-.3 6.14-.15 11.97.3 13.17 1.2 3.14 24.24 2.69 25.44-.45zm87.38-11.37l.45-13.17h-12.87c-7.03 0-12.87.45-12.87 1.2-1.05 5.09-.6 22.44.6 23.94 1.05 1.35 4.94 1.8 12.87 1.5l11.37-.45.45-13.02z" fill="#1f64ff" stroke="#1f64ff" stroke-linecap="butt" stroke-width=".262"/></g></g></svg>