<svg id="Layer_1" data-name="Layer 1" xmlns="http://www.w3.org/2000/svg" viewBox="0 0 144 144"><defs><style>.cls-1{fill:#f77f00;}.cls-2{fill:#035e7b;}</style></defs><path class="cls-1" d="M51.4,0S72.71,2.47,68.84,23.42C68.84,23.42,48.41,22.37,51.4,0Z"/><path class="cls-1" d="M92.64.21S71.33,2.67,75.2,23.63C75.2,23.63,95.63,22.57,92.64.21Z"/><path class="cls-1" d="M51.4,23.63s21.31,2.46,17.44,23.42C68.84,47.05,48.41,46,51.4,23.63Z"/><path class="cls-1" d="M92.64,23.83S71.33,26.3,75.2,47.26C75.2,47.26,95.63,46.2,92.64,23.83Z"/><path class="cls-1" d="M51.4,144s21.31-2.47,17.44-23.42C68.84,120.58,48.41,121.63,51.4,144Z"/><path class="cls-1" d="M92.64,143.79s-21.31-2.46-17.44-23.42C75.2,120.37,95.63,121.43,92.64,143.79Z"/><path class="cls-1" d="M51.4,120.37S72.71,117.91,68.84,97C68.84,97,48.41,98,51.4,120.37Z"/><path class="cls-1" d="M92.64,120.17S71.33,117.7,75.2,96.74C75.2,96.74,95.63,97.8,92.64,120.17Z"/><path class="cls-1" d="M144,92.62s-2.47-21.31-23.43-17.44C120.57,75.18,121.63,95.61,144,92.62Z"/><path class="cls-1" d="M143.79,51.38s-2.46,21.31-23.42,17.44C120.37,68.82,121.43,48.39,143.79,51.38Z"/><path class="cls-1" d="M120.37,92.62S117.9,71.31,97,75.18C97,75.18,98,95.61,120.37,92.62Z"/><path class="cls-1" d="M120.16,51.38S117.7,72.69,96.74,68.82C96.74,68.82,97.8,48.39,120.16,51.38Z"/><path class="cls-1" d="M0,92.62S2.47,71.31,23.43,75.18C23.43,75.18,22.37,95.61,0,92.62Z"/><path class="cls-1" d="M.21,51.38S2.67,72.69,23.63,68.82C23.63,68.82,22.57,48.39.21,51.38Z"/><path class="cls-1" d="M23.63,92.62S26.1,71.31,47.05,75.18C47.05,75.18,46,95.61,23.63,92.62Z"/><path class="cls-1" d="M23.84,51.38S26.3,72.69,47.26,68.82C47.26,68.82,46.2,48.39,23.84,51.38Z"/><path class="cls-2" d="M96.74,25.48V43.8L88.3,52.26a9,9,0,0,0-4.47-1.18,9.11,9.11,0,1,0,9.11,9.11,9,9,0,0,0-1.18-4.47l8.44-8.46h18.32V25.48ZM83.83,64.4a4.21,4.21,0,1,1,4.22-4.21A4.22,4.22,0,0,1,83.83,64.4Zm29.79-22h-12v-12h12Z"/><path class="cls-2" d="M91.76,88.28a9,9,0,0,0,1.18-4.47,9.11,9.11,0,1,0-9.11,9.11,9,9,0,0,0,4.47-1.18l8.44,8.46v18.32h21.78V96.74H100.2ZM83.83,88a4.21,4.21,0,1,1,4.22-4.21A4.21,4.21,0,0,1,83.83,88Zm17.8,13.62h12v12h-12Z"/><path class="cls-2" d="M60.21,51.08a9,9,0,0,0-4.47,1.18L47.3,43.8V25.48H25.53V47.26H43.84l8.44,8.46a9.1,9.1,0,1,0,7.93-4.64Zm-17.8-8.72h-12v-12h12Zm17.8,22a4.21,4.21,0,1,1,4.21-4.21A4.21,4.21,0,0,1,60.21,64.4Z"/><path class="cls-2" d="M60.21,74.71a9.09,9.09,0,0,0-7.93,13.57l-8.44,8.46H25.53v21.78H47.3V100.2l8.44-8.46a9,9,0,0,0,4.47,1.18,9.11,9.11,0,0,0,0-18.21Zm-17.8,38.92h-12v-12h12ZM60.21,88a4.21,4.21,0,1,1,4.21-4.21A4.2,4.2,0,0,1,60.21,88Z"/></svg>