<svg width="200" height="114" version="1.1" viewBox="0 0 200 114" xmlns="http://www.w3.org/2000/svg" xmlns:cc="http://creativecommons.org/ns#" xmlns:dc="http://purl.org/dc/elements/1.1/" xmlns:rdf="http://www.w3.org/1999/02/22-rdf-syntax-ns#">
 <metadata>
  <rdf:RDF>
   <cc:Work rdf:about="">
    <dc:format>image/svg+xml</dc:format>
    <dc:type rdf:resource="http://purl.org/dc/dcmitype/StillImage"/>
    <dc:title/>
   </cc:Work>
  </rdf:RDF>
 </metadata>
 <desc>Created with Sketch.</desc>
 <g transform="matrix(1.1646 0 0 1.1646 -16.464 -11.376)" fill-rule="evenodd">
  <polygon transform="matrix(.3612 0 0 .3612 34.469 22.293)" points="211.64 138.2 221.77 137.82 243.16 96.548 188 94.294 187.62 99.922" fill="#0cf"/>
  <g transform="matrix(.68691 0 0 .68691 25.372 17.846)" fill="#08a">
   <path d="m111.55 105.89c0 0.6904-0.42381 1.0327-1.2736 1.0327h-1.7847c-2.3804 0-4.408-0.70145-6.0791-2.1049-1.6711-1.404-2.5066-3.1408-2.5066-5.2125v-39.393c0-1.6742 0.53792-3.166 1.6174-4.4722 1.0737-1.3056 2.5187-2.1806 4.3339-2.6239 1.6995-0.44327 3.3842-0.36913 5.0553 0.22085 1.6716 0.59103 2.9893 1.5528 3.9537 2.8847l11.813 22.097 11.815-22.097c0.96121-1.3319 2.2942-2.2937 3.9952-2.8847 1.6979-0.58998 3.3989-0.66412 5.0989-0.22085 1.812 0.44327 3.2302 1.3067 4.2497 2.5865 1.0201 1.2814 1.5291 2.7848 1.5291 4.5095v39.393c0 2.0718-0.82134 3.8086-2.4646 5.2125-1.6453 1.4034-3.6534 2.1049-6.036 2.1049h-1.7826c-0.79558 0-1.1915-0.34232-1.1915-1.0327v-40.664l-15.213 25.556-15.13-25.556z"/>
   <path d="m24.903 82.209c0 0.01052-5.26e-4 0.02103-5.26e-4 0.02892v-0.02892zm27.793-29.387h-30.853c-2.3247 0-4.3228 0.71512-5.9923 2.1448-1.6732 1.4287-2.5082 3.1271-2.5082 5.0989v39.542c0 2.0223 0.82187 3.7586 2.4656 5.212 1.6422 1.4539 3.654 2.1811 6.0349 2.1811h1.8688c0.79452 0 1.191-0.34441 1.191-1.0354v-21.064h15.299c2.3788 0 4.4038-0.71565 6.077-2.1438 1.67-1.4297 2.5066-3.1786 2.5066-5.2467v-1.5538c0-0.73984-0.42434-1.1084-1.2746-1.1084h-22.608v-12.048h20.483c2.3815 0 4.4054-0.70145 6.077-2.1075 1.6706-1.4034 2.5077-3.1413 2.5077-5.2094v-1.6264c0-0.69041-0.42592-1.0354-1.2741-1.0354z"/>
   <path d="m89.07 62.8c2.3815 0 4.4064-0.71355 6.0796-2.1448 1.669-1.4281 2.5061-3.1765 2.5061-5.2472v-1.6269c0-0.68778-0.42434-1.0332-1.2736-1.0332h-32.639c-2.2674 0-4.2355 0.71407-5.9061 2.1422-1.6721 1.4308-2.5082 3.1308-2.5082 5.0995v39.544c0 2.0702 0.81976 3.8317 2.4646 5.2851 1.6437 1.4534 3.625 2.1811 5.9497 2.1811h32.639c0.84921 0 1.2736-0.34441 1.2736-1.0354v-1.6995c0-2.0702-0.83712-3.8207-2.5061-5.2493-1.6732-1.4276-3.6981-2.1433-6.0796-2.1433h-22.181v-11.973h16.998c2.3809 0 4.4064-0.72827 6.0775-2.1801 1.6716-1.4544 2.5071-3.217 2.5071-5.2867v-1.5528c0-0.73721-0.39595-1.1079-1.1905-1.1079l-24.392 0.0047v-11.977z"/>
   <path d="m173.18 83.719 5.5328-14.268 5.4744 14.266zm30.717 21.155-16.828-46.567c-0.62416-1.873-1.7-3.2275-3.2307-4.0667-3.5136-1.9708-6.9977-1.9708-10.453 0-1.528 0.83922-2.6076 2.1937-3.2307 4.0667l-16.827 46.55c-0.17194 0.63993 0.112 1.059 0.84869 1.2562l1.7852 0.44275c2.097 0.54055 4.2508 0.29552 6.4598-0.73827 1.8698-0.93807 3.1723-2.4409 3.9095-4.5111l2.891-7.5382h18.821l2.8942 7.5425c0.78979 2.0791 2.0896 3.5867 3.898 4.5226 2.2022 1.0354 4.347 1.2788 6.4372 0.73668l1.7778-0.4417c0.73405-0.19613 1.017-0.61469 0.84658-1.2546z"/>
  </g>
  <path d="m112.71 82.003c0.49665 2.0967 2.9849 3.9728 2.9849 6.0862 0 2.113-1.5142 3.125-2.99 3.125-1.4755 0-2.9766-0.96078-2.9766-3.125 0-2.1653 2.541-4.0234 2.9817-6.0862" fill="#faaf33" stroke-width=".68691"/>
 </g>
 <g transform="matrix(.8 0 0 .8 13.085 9.4077)" fill="#fefefe">
  <path d="m126.88 46.524c5.2357-0.03312 10.508-3.3816 11.594-9.8172l0.0274-0.05942c6.7358 0.85026 12.642 8.5037 19.161 9.8945-7.0177 1.6648-13.294 9.9933-20.368 9.9933-7.0729 0-10.46-5.07-10.46-10.008z" fill-rule="evenodd"/>
  <path d="m128.44 47.936c-0.50876 0.05845-1.0256 0.0898-1.5486 0.09311l-0.01-1.5046 0.11931 1.4999-0.16558-1.4962h1.5046c0 0.48154 0.0337 0.95165 0.0998 1.4078 0.59638 4.1145 3.8347 7.095 8.8553 7.095 2.6944 0 5.1571-1.2053 9.7182-4.3595 0.20069-0.13878 0.32412-0.22442 0.73857-0.51222 2.4098-1.6734 4.1423-2.8056 5.6594-3.6014-1.3561-0.7043-2.847-1.6576-4.6865-2.9371-0.28233-0.19638-0.44888-0.31299-1.0351-0.72415-3.8362-2.6905-5.963-3.9581-8.0479-4.5021-0.43907-0.11456-0.87628-0.19704-1.3272-0.25396l0.18843-1.4928 1.3669 0.629-0.0274 0.05942-1.3669-0.629 1.4837 0.25033c-0.0831 0.49232-0.18936 0.97156-0.31757 1.437-1.4847 5.3909-5.907 8.9331-11.202 9.5413zm8.5521-11.479 0.0332-0.19709 0.57197-1.2429 1.0942 0.13813c3.2625 0.41182 5.6637 1.7273 10.726 5.2779 0.58264 0.40865 0.74766 0.52418 1.0255 0.71744 3.3914 2.3589 5.4204 3.4693 7.5344 3.9204l6.5323 1.3938-6.499 1.5417c-2.3513 0.55778-4.2888 1.6709-8.5425 4.6248-0.41622 0.28903-0.54046 0.37522-0.74337 0.51554-5.0592 3.4986-7.9096 4.8937-11.43 4.8937-7.2992 0-11.964-5.0799-11.964-11.512v-1.3897l1.4316-0.11388c5.1354-0.0365 9.3446-3.3221 10.23-8.5676z"/>
  <path d="m124.96 46.676c-4.2834 0.74036-8.1713 4.1078-8.1713 10.302 0 7.0745 7.7486 12.805 9.9413 19.999 3.5314-8.5436 8.9427-11.938 9.9187-18.59l-0.0184-0.0037c-7.5898-0.31444-11.588-6.0212-11.657-11.707z" fill-rule="evenodd"/>
  <path d="m124.71 45.193 0.12719-0.02198h1.6286l0.0182 1.4863c0.0677 5.549 4.0387 9.9661 10.215 10.222l0.11749 0.0049 1.5347 0.30695-0.20739 1.4136c-0.37622 2.5644-1.3201 4.7556-2.9883 7.3503-0.60058 0.93415-3.0957 4.4841-3.6751 5.3654-1.3874 2.1105-2.4518 4.0492-3.3535 6.2307l-1.6048 3.8826-1.225-4.0186c-0.7071-2.3197-1.8345-4.2419-4.479-8.0281-0.95098-1.3616-1.0315-1.4773-1.3985-2.0175-2.8339-4.1706-4.1291-7.0671-4.1291-10.392 0-6.4216 3.8878-10.828 9.4197-11.785zm0.51254 2.9653c-0.55911 0.09664-1.094 0.23882-1.6011 0.42472-3.2264 1.183-5.3219 4.1365-5.3219 8.3946 0 2.5565 1.0894 4.9927 3.6089 8.7005 0.35638 0.52445 0.43568 0.6385 1.3766 1.9857 1.6392 2.347 2.7438 4.0423 3.5443 5.5842 0.63248-1.1926 1.3363-2.3638 2.1363-3.5806 0.6169-0.93836 3.1001-4.4714 3.6584-5.3397 1.0845-1.6869 1.7947-3.1237 2.2126-4.6081 0.14294-0.50769 0.2517-1.0209 0.32956-1.5516l1.4701 0.21568-0.27649 1.4782 0.27668-1.4791-0.0623 1.5034c-0.59481-0.02466-1.1744-0.08073-1.7376-0.16644-6.1785-0.94028-10.391-5.4466-11.215-11.137-0.0893-0.61678-0.13875-1.2475-0.14659-1.889l1.4914-0.0182 0.0131 1.5045-0.0131-1.5047z"/>
  <path d="m114.94 56.469c0.21769-6.8789 4.8355-10.845 9.905-11.656l-0.01-0.04049c-0.71092-4.3149-4.0825-8.2544-10.317-8.2544-7.0713 0-13.345 8.328-20.365 9.9912 6.9036 1.4744 13.123 9.9744 20.366 9.9744 0.12621 0 0.25136-0.0016 0.3765-0.0053z" fill-rule="evenodd"/>
  <path d="m126.7 46.04-1.615 0.25831c-4.9201 0.78693-8.4608 4.5957-8.6387 10.218l-0.0374 1.1799-1.3318 0.28204-0.13519 4e-3c-0.13641 4e-3 -0.27558 0.0059-0.42072 0.0059-3.7379 0-6.4448-1.3872-12.12-5.3684-0.58435-0.4099-0.7501-0.52596-1.0288-0.71988-3.3891-2.3575-5.4182-3.468-7.5313-3.9193l-6.5334-1.3954 6.5008-1.5402c2.3524-0.55734 4.2914-1.6711 8.5438-4.6239 0.43524-0.30224 0.56501-0.39227 0.77717-0.53892 5.0274-3.4753 7.8813-4.8689 11.391-4.8689 6.4383 0 10.851 3.9105 11.792 9.4543zm-3.6709-2.3682c-1.0983-3.4082-4.1078-5.6495-8.509-5.6495-2.6856 0-5.1494 1.2032-9.68 4.3351-0.20972 0.14497-0.33861 0.23439-0.77193 0.53528-2.4097 1.6733-4.1428 2.8056-5.6606 3.6015 1.3553 0.70411 2.8452 1.6569 4.6828 2.9352 0.28328 0.19706 0.45058 0.3142 1.0385 0.72664 4.5629 3.2007 6.9383 4.5161 9.4246 4.7739 0.70966-5.721 4.4137-9.8455 9.4757-11.258zm-9.5907 12.749 1.5039 0.04759-0.31172-1.472-0.0447 0.0095 0.31172 1.472-0.0442-1.504c-0.10577 0.0031-0.21562 0.0046-0.33226 0.0046-0.32764 0-0.64858-0.01567-0.96771-0.04876-0.0603 0.48575-0.0989 0.98301-0.115 1.4911z"/>
  <path d="m116.89 34.84c5.7799 0.9202 9.1115 5.202 9.8146 9.8372h0.1067c4.9391 0 10.008-3.3874 10.008-10.461 0-7.0745-8.3291-13.348-9.9928-20.366-1.4728 6.9036-9.9718 13.124-9.9718 20.366 0 0.1935 4e-3 0.3849 9e-3 0.57262z" fill-rule="evenodd"/>
  <path d="m116.65 36.326-0.74835-0.11914-0.53628-1.0305-0.01-0.3457c-6e-3 -0.21122-9e-3 -0.41508-9e-3 -0.61476 0-3.7373 1.3867-6.4439 5.3667-12.119 0.40964-0.58413 0.52571-0.74993 0.71955-1.0286 2.3574-3.3898 3.4677-5.4191 3.9186-7.5325l1.3942-6.5352 1.5414 6.5021c0.55745 2.3516 1.6707 4.2892 4.6246 8.5424 0.29072 0.41857 0.37722 0.54324 0.51828 0.74718 3.4957 5.0544 4.8905 7.9048 4.8905 11.424 0 7.3005-5.0793 11.966-11.513 11.966h-1.4004l-0.19399-1.279c-0.67136-4.4261-3.8352-7.8241-8.5635-8.5769zm11.269 6.785c4.2679-0.48097 7.392-3.7532 7.392-8.8951 0-2.6933-1.2049-5.1556-4.3563-9.7121-0.13949-0.20168-0.22543-0.32555-0.5149-0.74233-1.6734-2.4095-2.8057-4.142-3.6015-5.6591-0.704 1.3556-1.6567 2.8459-2.935 4.6839-0.19696 0.28322-0.31412 0.45058-0.7263 1.0383-3.3541 4.7827-4.6372 7.1618-4.8025 9.7844 4.9144 1.2271 8.3734 4.8532 9.5445 9.502zm-11.033-8.2709 1.3347-0.6946-0.0268-0.05154-1.3347 0.6946 1.5041-0.04213c-5e-3 -0.18418-8e-3 -0.36014-8e-3 -0.5305 0-0.2045 6e-3 -0.4064 0.0188-0.60688-0.40736-0.10171-0.82472-0.18694-1.2516-0.25491z"/>
 </g>
 <g transform="matrix(.8 0 0 .8 13.085 9.4077)" fill-rule="evenodd">
  <path d="m126.88 46.524c5.2357-0.03312 10.508-3.3816 11.594-9.8172l0.0274-0.05942c6.7358 0.85026 12.642 8.5037 19.161 9.8945-7.0177 1.6648-13.294 9.9933-20.368 9.9933-7.0729 0-10.46-5.07-10.46-10.008z" fill="#f3eb48"/>
  <path d="m124.96 46.676c-4.2834 0.74036-8.1713 4.1078-8.1713 10.302 0 7.0745 8.3296 13.35 9.9928 20.367 1.3766-6.4519 8.8912-12.306 9.8671-18.959l-0.0184-0.0037c-7.5898-0.31444-11.588-6.0212-11.657-11.707z" fill="#f69333"/>
  <path d="m114.94 56.469c0.21769-6.8789 4.8355-10.845 9.905-11.656l-0.01-0.04049c-0.71092-4.3149-4.0825-8.2544-10.317-8.2544-7.0713 0-13.345 8.328-20.365 9.9912 6.9036 1.4744 13.123 9.9744 20.366 9.9744 0.12621 0 0.25136-0.0016 0.3765-0.0053z" fill="#02b4aa"/>
  <path d="m116.89 34.84c5.7799 0.9202 9.1115 5.202 9.8146 9.8372h0.1067c4.9391 0 10.008-3.3874 10.008-10.461 0-7.0745-8.3291-13.348-9.9928-20.366-1.4728 6.9036-9.9718 13.124-9.9718 20.366 0 0.1935 4e-3 0.3849 9e-3 0.57262z" fill="#82be46"/>
 </g>
</svg>
