<svg width="200" height="114" version="1.1" viewBox="0 0 200 114" xml:space="preserve" xmlns="http://www.w3.org/2000/svg" xmlns:cc="http://creativecommons.org/ns#" xmlns:dc="http://purl.org/dc/elements/1.1/" xmlns:rdf="http://www.w3.org/1999/02/22-rdf-syntax-ns#"><metadata><rdf:RDF><cc:Work rdf:about=""><dc:format>image/svg+xml</dc:format><dc:type rdf:resource="http://purl.org/dc/dcmitype/StillImage"/><dc:title/></cc:Work></rdf:RDF></metadata><path d="m62.525 25.919c-9.0369 0-16.522 6.9181-17.689 15.857h35.376c-1.1674-8.9385-8.6512-15.857-17.69-15.857m-12.071 11.677c2.3013-4.4562 6.8455-7.4995 12.071-7.4995 5.2243 0 9.7689 3.0433 12.07 7.4995zm92.113 19.828v-39.864h-4.1793v44.042h25.859v-4.1784zm-8.9193-39.864h-4.1802v11.049c-4.9289-7.0133-13.077-11.61-22.285-11.61-9.3521 0-17.615 4.7391-22.519 11.937-4.8207-7.1985-12.94-11.937-22.135-11.937-14.763 0-26.772 12.207-26.772 27.211 0 15.005 12.011 27.213 26.772 27.213 9.1957 0 17.314-4.7409 22.135-11.94 4.9034 7.2016 13.168 11.94 22.52 11.94 9.2086 0 17.356-4.5976 22.285-11.612v10.714h34.78v-4.1795h-30.6zm-26.466 49.683c-8.8552 0-16.54-5.0284-20.396-12.369h-4.2627c-3.7805 7.34-11.315 12.369-19.996 12.369-12.458 0-22.592-10.333-22.592-23.033 0-12.699 10.135-23.032 22.592-23.032 10.859 0 19.95 7.8515 22.106 18.278 2.1987-10.426 11.472-18.278 22.549-18.278 12.707 0 23.045 10.332 23.045 23.032 1.6e-4 12.699-10.337 23.033-23.045 23.033m0-41.324c-10.093 0-18.305 8.2049-18.305 18.292 0 0.78153 0.05475 1.5506 0.1505 2.3064h-44.205c1.111 9.001 8.6241 15.985 17.705 15.985 5.9559 0 11.219-3.0176 14.457-7.6276h-5.5322c-2.3958 2.1441-5.5118 3.4491-8.9248 3.4491-5.2736 0-9.8503-3.1033-12.13-7.6283h39.673c2.6261 6.8942 9.3045 11.807 17.114 11.807 10.093 0 18.305-8.2057 18.305-18.292 1.8e-4 -10.086-8.2105-18.292-18.305-18.292m0 32.405c-7.7883 0-14.125-6.3317-14.125-14.114 0-7.7814 6.3369-14.113 14.125-14.113 7.7884 0 14.125 6.3317 14.125 14.113 0 7.7821-6.3363 14.114-14.125 14.114" fill="#c1d72c" stroke-width=".16797"/><path d="m137.64 82.95c-0.82233 0-1.9218 0.50267-1.9218 2.161v2.1047h-1.3391v0.75156h1.3391v5.6875h0.8344v-5.6875h1.5063v-0.75156h-1.5063v-1.8c0-1.1561 0.36313-1.7125 1.1297-1.7125 0.32097 0 0.55796 0.04165 0.75312 0.13907l0.1672-0.72501c-0.25127-0.11137-0.55855-0.16718-0.96245-0.16718zm18.622 0c-0.82281 0-1.9234 0.50267-1.9234 2.161v2.1047h-1.3391v0.75156h1.3391v5.6875h0.83593v-5.6875h1.5048v-0.75156h-1.5048v-1.8c0-1.1561 0.36156-1.7125 1.1282-1.7125 0.32098 0 0.55846 0.04165 0.75312 0.13907l0.1672-0.72501c-0.2506-0.11137-0.5575-0.16718-0.96098-0.16718zm-81.025 0.16719v10.54h0.83592v-10.54zm33.938 0v5.2267h-0.0265c-0.51564-0.89057-1.6182-1.2953-2.5798-1.2953-1.9797 0-3.3876 1.4218-3.3876 3.3876 0 1.9651 1.4077 3.3859 3.3876 3.3859 0.96144 0 2.0642-0.40328 2.5798-1.2953h0.0265v1.1282h0.83753v-10.538zm-70.414 0.66876v9.8685h6.2579v-0.83592h-5.339v-3.847h4.7953v-0.83752h-4.7953v-3.511h5.1156v-0.83752zm104.75 0v9.8685h5.5188v-0.83592h-4.5984v-9.0329h-0.92031zm-30.748 0.25156c-0.34868 0-0.62813 0.27788-0.62813 0.62657 0 0.3482 0.27945 0.62813 0.62813 0.62813 0.3487 0 0.62658-0.27995 0.62658-0.62813 0-0.34869-0.27788-0.62657-0.62658-0.62657zm38.175 0c-0.34819 0-0.62658 0.27788-0.62658 0.62657 0 0.3482 0.27839 0.62813 0.62658 0.62813 0.34768 0 0.62813-0.27995 0.62813-0.62813 0-0.34869-0.28045-0.62657-0.62813-0.62657zm-93.091 3.0094c-1.979 0-3.389 1.422-3.389 3.3876 0 1.9648 1.41 3.3876 3.389 3.3876 0.91957 0 1.7413-0.3611 2.3687-1.1141l-0.64063-0.53127c-0.43149 0.5301-1.0317 0.89216-1.7282 0.89216-1.5749 0-2.5517-1.1853-2.5517-2.6344 0-1.45 0.97643-2.6344 2.5517-2.6344 0.66848 0 1.2404 0.33516 1.7282 0.86409l0.66876-0.5c-0.627-0.71065-1.4634-1.1172-2.3969-1.1172zm13.434 0c-1.9785 0-3.3859 1.422-3.3859 3.3876 0 1.9648 1.4074 3.3876 3.3859 3.3876 0.9204 0 1.7433-0.3611 2.3704-1.1141l-0.64063-0.53127c-0.4325 0.5301-1.0323 0.89216-1.7297 0.89216-1.5746 0-2.5501-1.1853-2.5501-2.6344 0-1.45 0.97533-2.6344 2.5501-2.6344 0.66898 0 1.2419 0.33516 1.7297 0.86409l0.66876-0.5c-0.628-0.71065-1.4644-1.1172-2.3984-1.1172zm-21.283 0.0016c-1.0456 0-1.8668 0.5845-2.2017 1.2953h-0.04219c-0.02788-0.1248-0.04282-0.65483-0.05625-1.1282h-0.83592c0 0.33374 0.07031 1.3378 0.07031 1.811v4.6283h0.83592v-3.2188c0-1.7709 0.98878-2.6344 2.2296-2.6344 1.3242 0 1.6172 1.0165 1.6172 2.0625v3.7907h0.83593v-3.8329c0-1.4083-0.44667-2.7734-2.4531-2.7734zm31.612 0c-1.9793 0-3.3859 1.4205-3.3859 3.3859 0 1.9651 1.4068 3.3876 3.3859 3.3876 1.9796 0 3.3876-1.4224 3.3876-3.3876 0-1.9655-1.4079-3.3859-3.3876-3.3859zm8.6561 0c-0.96163 0-2.0627 0.40411-2.5781 1.2953h-0.02813v-1.1282h-0.83592v9.6172h0.83592v-4.3063h0.02813c0.51564 0.89138 1.6165 1.2953 2.5781 1.2953 1.9796 0 3.3859-1.4224 3.3859-3.3876 0-1.9655-1.4064-3.3859-3.3859-3.3859zm8.2497 0c-1.8821 0-3.2188 1.4502-3.2188 3.3735 0 1.9932 1.2953 3.4 3.2609 3.4 1.1433 0 2.132-0.40401 2.7875-1.3797l-0.61251-0.51563c-0.41789 0.69737-1.3114 1.1422-2.161 1.1422-1.9516 0-2.439-1.7274-2.439-2.4235h5.4079v-0.58594c0-1.4921-1.0455-3.011-3.025-3.011zm19.611 0c-0.83648 0-1.84 0.32125-2.4531 0.90625l0.48752 0.57032c0.57191-0.48777 1.2134-0.72344 1.9656-0.72344 1.0319 0 1.8125 0.44536 1.8125 1.5609v0.38907h-0.97506c-1.2682 0-3.5688 0.19564-3.5688 2.161 0 1.3657 1.17 1.9093 2.2718 1.9093 1.0864 0 1.7847-0.39101 2.2578-1.2124h0.0282c0 0.36179 0.0265 0.72417 0.0829 1.0453h0.78126c-0.0977-0.7392-0.12501-1.449-0.12501-2.7031v-1.5766c0-1.6302-1.0044-2.3266-2.5657-2.3266zm11.722 0c-1.9793 0-3.3876 1.4205-3.3876 3.3859 0 1.9651 1.4084 3.3876 3.3876 3.3876 1.9796 0 3.3859-1.4224 3.3859-3.3876 0-1.9655-1.4064-3.3859-3.3859-3.3859zm31.136 0c-1.881 0-3.2188 1.4502-3.2188 3.3735 0 1.9932 1.2955 3.4 3.2609 3.4 1.1429 0 2.132-0.40401 2.7875-1.3797l-0.6125-0.51563c-0.41789 0.69737-1.3116 1.1422-2.161 1.1422-1.9508 0-2.4376-1.7274-2.4376-2.4235h5.4063v-0.58594c0-1.4921-1.0455-3.011-3.025-3.011zm-100.22 0.1672 2.6218 6.4656-0.58594 1.4938c-0.19483 0.50153-0.46023 1.0734-1.0734 1.0734-0.25095 0-0.51597-0.08413-0.75313-0.15468l-0.08282 0.7797c0.26555 0.06948 0.54357 0.12657 0.82185 0.12657 0.91975 0 1.4495-0.52906 1.7703-1.3515l3.3172-8.4328h-0.89216l-2.0766 5.4219-2.1328-5.4219h-0.93438zm51.584 0v6.4391h0.83592v-6.4391zm38.177 0v6.4391h0.83593v-6.4391zm-52.044 0.58438c1.2397 0 2.2296 0.94773 2.2296 2.0906h-4.5719c0-0.33492 0.51595-2.0906 2.3422-2.0906zm62.47 0c1.2407 0 2.2314 0.94773 2.2314 2.0906h-4.5719c0-0.33492 0.51541-2.0906 2.3407-2.0906zm-79.335 0.0016c1.5751 0 2.5517 1.1835 2.5517 2.6328s-0.97643 2.6344-2.5517 2.6344c-1.5749 0-2.5517-1.1853-2.5517-2.6344 0-1.4495 0.97644-2.6328 2.5517-2.6328zm8.6561 0c1.5751 0 2.5517 1.1835 2.5517 2.6328s-0.97643 2.6344-2.5517 2.6344c-1.519 0-2.6907-1.1853-2.6907-2.6344 0-1.4495 1.1718-2.6328 2.6907-2.6328zm16.306 0c1.5189 0 2.6907 1.1848 2.6907 2.6344 0 1.449-1.1718 2.6328-2.6907 2.6328-1.5753 0-2.5517-1.1838-2.5517-2.6328 0-1.4497 0.97625-2.6344 2.5517-2.6344zm23.277 0c1.5752 0 2.5516 1.1835 2.5516 2.6328s-0.97643 2.6344-2.5516 2.6344c-1.5761 0-2.5502-1.1853-2.55-2.6344 0-1.4495 0.97388-2.6328 2.55-2.6328zm-10.83 2.6187h0.9203v0.43273c0 1.073-0.45952 2.2156-2.2437 2.2156-0.69756 0-1.4641-0.40367-1.4641-1.1983 0-1.1007 1.3931-1.45 2.7875-1.45z" fill="#8ec1ec" stroke-width=".16797"/></svg>
