<?xml version="1.0" encoding="UTF-8" standalone="no"?>
<svg
   xmlns:dc="http://purl.org/dc/elements/1.1/"
   xmlns:cc="http://creativecommons.org/ns#"
   xmlns:rdf="http://www.w3.org/1999/02/22-rdf-syntax-ns#"
   xmlns:svg="http://www.w3.org/2000/svg"
   xmlns="http://www.w3.org/2000/svg"
   xmlns:xlink="http://www.w3.org/1999/xlink"
   viewBox="0 0 200 114"
   height="114"
   width="200"
   id="svg2"
   version="1.1">
  <metadata
     id="metadata8">
    <rdf:RDF>
      <cc:Work
         rdf:about="">
        <dc:format>image/svg+xml</dc:format>
        <dc:type
           rdf:resource="http://purl.org/dc/dcmitype/StillImage" />
        <dc:title></dc:title>
      </cc:Work>
    </rdf:RDF>
  </metadata>
  <defs
     id="defs6">
    <linearGradient
       id="linearGradient872">
      <stop
         id="stop868"
         offset="0"
         style="stop-color:#b7ee59;stop-opacity:1" />
      <stop
         style="stop-color:#9ad558;stop-opacity:1"
         offset="0.57575381"
         id="stop878" />
      <stop
         id="stop870"
         offset="1"
         style="stop-color:#8fd760;stop-opacity:1" />
    </linearGradient>
    <radialGradient
       gradientUnits="userSpaceOnUse"
       gradientTransform="matrix(1,0,0,1.168841,0,21.242401)"
       r="4.9129567"
       fy="-6.2589498"
       fx="102.42887"
       cy="-6.2589498"
       cx="102.42887"
       id="radialGradient876"
       xlink:href="#linearGradient872" />
    <radialGradient
       r="4.9129567"
       fy="-6.2589498"
       fx="102.42887"
       cy="-6.2589498"
       cx="102.42887"
       gradientTransform="matrix(1,0,0,1.168841,0,21.242401)"
       gradientUnits="userSpaceOnUse"
       id="radialGradient1034"
       xlink:href="#linearGradient872" />
    <radialGradient
       r="4.9129567"
       fy="-6.2589498"
       fx="102.42887"
       cy="-6.2589498"
       cx="102.42887"
       gradientTransform="matrix(1,0,0,1.168841,0,21.242401)"
       gradientUnits="userSpaceOnUse"
       id="radialGradient1072"
       xlink:href="#linearGradient872" />
  </defs>
  <rect
     y="32.451775"
     x="10.712379"
     height="39.116482"
     width="178.57524"
     id="rect854"
     style="opacity:1;fill:none;fill-opacity:1;stroke:#000000;stroke-width:0.91477937;stroke-miterlimit:4;stroke-dasharray:none;stroke-opacity:1" />
  <rect
     style="opacity:1;fill:#008000;fill-opacity:1;stroke:#000000;stroke-width:0.91477937;stroke-miterlimit:4;stroke-dasharray:none;stroke-opacity:1"
     id="rect856"
     width="179.08522"
     height="7.6376185"
     x="10.45739"
     y="73.910606" />
  <path
     d="m 39.461482,56.718782 q 0,1.774625 -0.722996,3.171321 -0.706565,1.396697 -1.955376,2.316874 -1.445991,1.084493 -3.187755,1.544582 -1.725329,0.460088 -4.387269,0.460088 H 18.527466 V 39.744813 h 9.497536 q 2.957709,0 4.321543,0.197181 1.380264,0.19718 2.727667,0.870881 1.396696,0.706565 2.070397,1.906081 0.690132,1.183081 0.690132,2.71123 0,1.774627 -0.936608,3.138459 -0.936609,1.347401 -2.645509,2.103262 v 0.13145 q 2.399032,0.47652 3.795729,1.971806 1.413129,1.495288 1.413129,3.943615 z M 31.377073,46.662566 q 0,-0.607975 -0.312203,-1.215948 -0.295771,-0.607972 -1.068062,-0.903743 -0.690132,-0.262907 -1.72533,-0.279339 -1.018768,-0.03286 -2.875553,-0.03286 h -0.591541 v 5.175992 h 0.985903 q 1.495287,0 2.546918,-0.0493 1.051629,-0.0493 1.659603,-0.328634 0.85445,-0.37793 1.117357,-0.969471 0.262908,-0.607975 0.262908,-1.396697 z m 1.544582,9.957624 q 0,-1.166651 -0.460089,-1.791058 -0.443655,-0.640836 -1.528148,-0.953039 -0.73943,-0.213612 -2.037535,-0.230045 -1.298107,-0.01644 -2.711235,-0.01644 h -1.380264 v 6.096171 h 0.460087 q 2.66194,0 3.812162,-0.01644 1.15022,-0.01644 2.119691,-0.427224 0.985903,-0.410793 1.347402,-1.084494 0.377929,-0.690133 0.377929,-1.577446 z"
     style="font-style:normal;font-variant:normal;font-weight:bold;font-stretch:normal;font-size:20.06066513px;line-height:1.25;font-family:sans-serif;-inkscape-font-specification:'sans-serif, Bold';font-variant-ligatures:normal;font-variant-caps:normal;font-variant-numeric:normal;font-feature-settings:normal;text-align:start;letter-spacing:0px;word-spacing:0px;writing-mode:lr-tb;text-anchor:start;fill:#000000;fill-opacity:1;stroke:none;stroke-width:0.84130478"
     id="path821" />
  <path
     d="m 66.470195,47.467721 c 0,1.095447 -0.191704,2.168986 -0.575111,3.220617 -0.383407,1.040675 -0.931131,1.917033 -1.643173,2.629075 -0.974948,0.963996 -2.064918,1.692469 -3.269913,2.18542 -1.194039,0.492951 -2.683848,0.739427 -4.469429,0.739427 h -3.927182 v 7.969387 H 46.275606 V 39.744813 h 10.38485 c 1.555536,0 2.864597,0.136936 3.927181,0.410793 1.07354,0.262907 2.021103,0.662746 2.842688,1.199516 0.985904,0.646315 1.736286,1.473377 2.251147,2.481189 0.525815,1.007812 0.788723,2.218282 0.788723,3.63141 z m -6.523395,0.14789 c 0,-0.690134 -0.186226,-1.281676 -0.558679,-1.774627 -0.372452,-0.503905 -0.805155,-0.854448 -1.298106,-1.051629 -0.657269,-0.262906 -1.298107,-0.405314 -1.922512,-0.427224 -0.624404,-0.03286 -1.456946,-0.0493 -2.497621,-0.0493 h -1.084495 v 6.701636 c 3.786113,0 5.493495,0.29342 7.082074,-1.607803 0.186227,-0.492951 0.279339,-1.08997 0.279339,-1.791058 z"
     style="font-style:normal;font-variant:normal;font-weight:bold;font-stretch:normal;font-size:20.06066513px;line-height:1.25;font-family:sans-serif;-inkscape-font-specification:'sans-serif, Bold';font-variant-ligatures:normal;font-variant-caps:normal;font-variant-numeric:normal;font-feature-settings:normal;text-align:start;letter-spacing:0px;word-spacing:0px;writing-mode:lr-tb;text-anchor:start;fill:#000000;fill-opacity:1;stroke:none;stroke-width:0.84130478"
     id="path823" />
  <path
     d="m 93.337043,52.002876 q 0,3.417799 -1.561015,6.129034 -1.561013,2.694802 -3.943613,4.140794 -1.791058,1.084493 -3.927182,1.511719 -2.136124,0.427224 -5.060971,0.427224 H 70.217607 V 39.744813 h 8.873131 q 2.990574,0 5.159561,0.509384 2.168988,0.492951 3.647843,1.413128 2.530485,1.544582 3.976478,4.173654 1.462423,2.612644 1.462423,6.161897 z m -6.523394,-0.0493 q 0,-2.415463 -0.887313,-4.124363 Q 85.055455,46.10388 83.149374,45.134409 82.179902,44.657889 81.161135,44.493573 80.1588,44.312824 78.121266,44.312824 H 76.52739 v 15.314365 h 1.593876 q 2.251146,0 3.302777,-0.197181 1.051631,-0.213612 2.053966,-0.755858 1.725331,-0.985904 2.530485,-2.629077 0.805155,-1.659605 0.805155,-4.091499 z"
     style="font-style:normal;font-variant:normal;font-weight:bold;font-stretch:normal;font-size:20.06066513px;line-height:1.25;font-family:sans-serif;-inkscape-font-specification:'sans-serif, Bold';font-variant-ligatures:normal;font-variant-caps:normal;font-variant-numeric:normal;font-feature-settings:normal;text-align:start;letter-spacing:0px;word-spacing:0px;writing-mode:lr-tb;text-anchor:start;fill:#000000;fill-opacity:1;stroke:none;stroke-width:0.84130478"
     id="path825" />
  <path
     d="m 118.84413,56.718782 q 0,1.774625 -0.723,3.171321 -0.70656,1.396697 -1.95538,2.316874 -1.44599,1.084493 -3.18775,1.544582 -1.72533,0.460088 -4.38727,0.460088 H 97.910109 V 39.744813 h 9.497541 q 2.95771,0 4.32154,0.197181 1.38026,0.19718 2.72767,0.870881 1.39669,0.706565 2.07039,1.906081 0.69014,1.183081 0.69014,2.71123 0,1.774627 -0.93661,3.138459 -0.93661,1.347401 -2.64551,2.103262 v 0.13145 q 2.39903,0.47652 3.79573,1.971806 1.41313,1.495288 1.41313,3.943615 z m -8.08441,-10.056216 q 0,-0.607975 -0.31221,-1.215948 -0.29577,-0.607972 -1.06806,-0.903743 -0.69013,-0.262907 -1.72533,-0.279339 -1.01877,-0.03286 -2.87555,-0.03286 h -0.59154 v 5.175992 h 0.9859 q 1.49529,0 2.54692,-0.0493 1.05163,-0.0493 1.6596,-0.328634 0.85445,-0.37793 1.11736,-0.969471 0.26291,-0.607975 0.26291,-1.396697 z m 1.54458,9.957624 q 0,-1.166651 -0.46009,-1.791058 -0.44365,-0.640836 -1.52815,-0.953039 -0.73943,-0.213612 -2.03753,-0.230045 -1.29811,-0.01644 -2.71124,-0.01644 h -1.38026 v 6.096171 h 0.46009 q 2.66194,0 3.81216,-0.01644 1.15022,-0.01644 2.11969,-0.427224 0.9859,-0.410793 1.3474,-1.084494 0.37793,-0.690133 0.37793,-1.577446 z"
     style="font-style:normal;font-variant:normal;font-weight:bold;font-stretch:normal;font-size:20.06066513px;line-height:1.25;font-family:sans-serif;-inkscape-font-specification:'sans-serif, Bold';font-variant-ligatures:normal;font-variant-caps:normal;font-variant-numeric:normal;font-feature-settings:normal;text-align:start;letter-spacing:0px;word-spacing:0px;writing-mode:lr-tb;text-anchor:start;fill:#000000;fill-opacity:1;stroke:none;stroke-width:0.84130478"
     id="path827" />
  <path
     id="path839"
     d="m 152.9908,63.283737 c 0.8358,0.910981 0.61431,2.474322 -0.49471,3.491818 -0.86411,0.498897 -3.54156,-2.407184 -3.0267,-3.298955 1.10902,-1.017497 2.68561,-1.103844 3.52141,-0.192863 z"
     style="opacity:1;fill:#004900;fill-opacity:1;stroke:none;stroke-width:2.63881063;stroke-linecap:butt;stroke-linejoin:round;stroke-miterlimit:4;stroke-dasharray:none;stroke-opacity:1;paint-order:markers fill stroke" />
  <path
     style="opacity:1;fill:#004900;fill-opacity:1;stroke:none;stroke-width:2.63881063;stroke-linecap:butt;stroke-linejoin:round;stroke-miterlimit:4;stroke-dasharray:none;stroke-opacity:1;paint-order:markers fill stroke"
     d="m 159.16985,63.283737 c -0.8358,0.910981 -0.61431,2.474322 0.49471,3.491818 0.86411,0.498897 3.54157,-2.407184 3.0267,-3.298955 -1.10902,-1.017497 -2.68561,-1.103844 -3.52141,-0.192863 z"
     id="path842" />
  <circle
     r="1.0008416"
     cy="60.68306"
     cx="153.74503"
     id="path848"
     style="opacity:1;fill:#004900;fill-opacity:1;stroke:none;stroke-width:1.75068176;stroke-linecap:butt;stroke-linejoin:round;stroke-miterlimit:4;stroke-dasharray:none;stroke-opacity:1;paint-order:markers fill stroke" />
  <circle
     style="opacity:1;fill:#004900;fill-opacity:1;stroke:none;stroke-width:1.75068176;stroke-linecap:butt;stroke-linejoin:round;stroke-miterlimit:4;stroke-dasharray:none;stroke-opacity:1;paint-order:markers fill stroke"
     id="circle850"
     cx="158.41562"
     cy="60.68306"
     r="1.0008416" />
  <circle
     style="opacity:1;fill:#004900;fill-opacity:1;stroke:none;stroke-width:1.75068176;stroke-linecap:butt;stroke-linejoin:round;stroke-miterlimit:4;stroke-dasharray:none;stroke-opacity:1;paint-order:markers fill stroke"
     id="circle852"
     cx="151.45078"
     cy="57.203522"
     r="1.0008416" />
  <circle
     r="1.0008416"
     cy="57.144547"
     cx="160.70988"
     id="circle854"
     style="opacity:1;fill:#004900;fill-opacity:1;stroke:none;stroke-width:1.75068176;stroke-linecap:butt;stroke-linejoin:round;stroke-miterlimit:4;stroke-dasharray:none;stroke-opacity:1;paint-order:markers fill stroke" />
  <g
     transform="matrix(1.6775202,0,0,1.6775202,5.3766043,26.081049)"
     id="g996">
    <path
       style="color:#000000;font-style:normal;font-variant:normal;font-weight:normal;font-stretch:normal;font-size:medium;line-height:normal;font-family:sans-serif;font-variant-ligatures:normal;font-variant-position:normal;font-variant-caps:normal;font-variant-numeric:normal;font-variant-alternates:normal;font-feature-settings:normal;text-indent:0;text-align:start;text-decoration:none;text-decoration-line:none;text-decoration-style:solid;text-decoration-color:#000000;letter-spacing:normal;word-spacing:normal;text-transform:none;writing-mode:lr-tb;direction:ltr;text-orientation:mixed;dominant-baseline:auto;baseline-shift:baseline;text-anchor:start;white-space:normal;shape-padding:0;clip-rule:nonzero;display:inline;overflow:visible;visibility:visible;opacity:1;isolation:auto;mix-blend-mode:normal;color-interpolation:sRGB;color-interpolation-filters:linearRGB;solid-color:#000000;solid-opacity:1;vector-effect:none;fill:#1a1a1a;fill-opacity:1;fill-rule:nonzero;stroke:none;stroke-width:0.80000001;stroke-linecap:round;stroke-linejoin:miter;stroke-miterlimit:4;stroke-dasharray:none;stroke-dashoffset:0;stroke-opacity:1;color-rendering:auto;image-rendering:auto;shape-rendering:auto;text-rendering:auto;enable-background:accumulate"
       d="m 96.984375,11.400391 c -0.424926,-0.01024 -0.668054,0.48074 -0.402344,0.8125 l 0.492188,0.632812 c 0.403874,0.562877 1.234842,-0.08297 0.789062,-0.613281 l -0.492187,-0.632813 c -0.09176,-0.121935 -0.234168,-0.195299 -0.386719,-0.199218 z m 10.888675,0 c -0.15255,0.0039 -0.29496,0.07728 -0.38672,0.199218 l -0.49219,0.632813 c -0.44582,0.53031 0.38519,1.176198 0.78906,0.613281 l 0.49219,-0.632812 c 0.26571,-0.331759 0.0226,-0.822734 -0.40234,-0.8125 z m -10.910159,3.798828 c -0.520184,0.03838 -0.480364,0.813927 0.04102,0.798828 h 1.119141 c 0.563214,0.03155 0.563214,-0.830374 0,-0.798828 h -1.119141 c -0.01366,-7.01e-4 -0.02735,-7.01e-4 -0.04102,0 z m 9.720699,0 c -0.52019,0.03838 -0.48037,0.813938 0.041,0.798828 h 1.11914 c 0.56321,0.03155 0.56321,-0.830374 0,-0.798828 h -1.11914 c -0.0137,-7.01e-4 -0.0274,-7.01e-4 -0.041,0 z m -7.906246,2.636719 -0.621094,0.583984 c -0.125836,0.217954 -0.06765,0.605357 0.123047,0.982422 1.441122,-0.900148 2.934493,0.656458 0.498047,-1.566406 z m 7.304686,0 c -2.59786,2.410323 -0.84823,0.443884 0.49609,1.566406 0.19071,-0.377065 0.25084,-0.764468 0.125,-0.982422 z"
       id="path950" />
    <path
       style="opacity:1;fill:url(#radialGradient876);fill-opacity:1;stroke:none;stroke-width:1.67295766;stroke-linecap:butt;stroke-linejoin:round;stroke-miterlimit:4;stroke-dasharray:none;stroke-opacity:1;paint-order:markers fill stroke"
       d="m 107.34183,13.926684 a 4.9129539,5.742465 0 0 1 -4.91296,5.742465 4.9129539,5.742465 0 0 1 -4.912953,-5.742465 4.9129539,5.742465 0 0 1 4.912953,-5.7424653 4.9129539,5.742465 0 0 1 4.91296,5.7424653 z"
       id="path834" />
    <path
       id="path884"
       d="m 97.961466,11.534403 c 0.767126,-2.0031133 2.487354,-3.3501843 4.486454,-3.3501843 1.96666,-5e-6 3.66343,1.399177 4.44836,3.3501843 -2.8347,0.07178 -5.83534,0.0606 -8.934814,0 z"
       style="opacity:1;fill:#1a1a1a;fill-opacity:1;stroke:none;stroke-width:0.1;stroke-linecap:butt;stroke-linejoin:round;stroke-miterlimit:4;stroke-dasharray:none;stroke-opacity:1;paint-order:markers fill stroke" />
    <path
       style="opacity:1;fill:#e6e6e6;fill-opacity:1;stroke:none;stroke-width:0.1;stroke-linecap:butt;stroke-linejoin:round;stroke-miterlimit:4;stroke-dasharray:none;stroke-opacity:1;paint-order:markers fill stroke"
       d="m 102.18028,9.0852112 a 0.59661973,0.59661973 0 0 1 -0.59662,0.59662 0.59661973,0.59661973 0 0 1 -0.59662,-0.59662 0.59661973,0.59661973 0 0 1 0.59662,-0.59662 0.59661973,0.59661973 0 0 1 0.59662,0.59662 z"
       id="path888" />
    <path
       style="opacity:1;fill:#e6e6e6;fill-opacity:1;stroke:none;stroke-width:0.1;stroke-linecap:butt;stroke-linejoin:round;stroke-miterlimit:4;stroke-dasharray:none;stroke-opacity:1;paint-order:markers fill stroke"
       d="m 103.8707,9.0852112 a 0.59661973,0.59661973 0 0 1 -0.59662,0.59662 0.59661973,0.59661973 0 0 1 -0.59662,-0.59662 0.59661973,0.59661973 0 0 1 0.59662,-0.59662 0.59661973,0.59661973 0 0 1 0.59662,0.59662 z"
       id="circle890" />
    <path
       id="path900"
       d="m 100.58715,16.7801 c 0.49823,0.543052 0.3662,1.474988 -0.29491,2.081536 -0.515106,0.297401 -2.111185,-1.434966 -1.804265,-1.966567 0.661109,-0.606548 1.600935,-0.658021 2.099175,-0.114969 z"
       style="opacity:1;fill:#004900;fill-opacity:1;stroke:none;stroke-width:1.57304251;stroke-linecap:butt;stroke-linejoin:round;stroke-miterlimit:4;stroke-dasharray:none;stroke-opacity:1;paint-order:markers fill stroke" />
    <path
       style="opacity:1;fill:#004900;fill-opacity:1;stroke:none;stroke-width:1.57304251;stroke-linecap:butt;stroke-linejoin:round;stroke-miterlimit:4;stroke-dasharray:none;stroke-opacity:1;paint-order:markers fill stroke"
       d="m 104.27059,16.7801 c -0.49824,0.543052 -0.3662,1.474988 0.2949,2.081536 0.51512,0.297401 2.1112,-1.434966 1.80428,-1.966567 -0.66111,-0.606548 -1.60095,-0.658021 -2.09918,-0.114969 z"
       id="path902" />
    <circle
       r="0.59661973"
       cy="15.229789"
       cx="101.03677"
       id="circle904"
       style="opacity:1;fill:#004900;fill-opacity:1;stroke:none;stroke-width:1.04361296;stroke-linecap:butt;stroke-linejoin:round;stroke-miterlimit:4;stroke-dasharray:none;stroke-opacity:1;paint-order:markers fill stroke" />
    <circle
       style="opacity:1;fill:#004900;fill-opacity:1;stroke:none;stroke-width:1.04361296;stroke-linecap:butt;stroke-linejoin:round;stroke-miterlimit:4;stroke-dasharray:none;stroke-opacity:1;paint-order:markers fill stroke"
       id="circle906"
       cx="103.82098"
       cy="15.229789"
       r="0.59661973" />
    <g
       id="g977"
       transform="translate(-0.08307032,-0.07031231)">
      <circle
         r="0.75"
         cy="13.002195"
         cx="99.822495"
         id="circle908"
         style="opacity:1;fill:#004900;fill-opacity:1;stroke:none;stroke-width:1.31190717;stroke-linecap:butt;stroke-linejoin:round;stroke-miterlimit:4;stroke-dasharray:none;stroke-opacity:1;paint-order:markers fill stroke" />
      <circle
         style="opacity:1;fill:#004900;fill-opacity:1;stroke:none;stroke-width:1.31190717;stroke-linecap:butt;stroke-linejoin:round;stroke-miterlimit:4;stroke-dasharray:none;stroke-opacity:1;paint-order:markers fill stroke"
         id="circle910"
         cx="105.20139"
         cy="13.107665"
         r="0.75" />
    </g>
    <g
       id="g928"
       transform="translate(0.056808)">
      <path
         id="path920"
         d="m 100.77148,5.828125 -0.38671,0.1035156 0.24023,0.8945313 0.45117,0.453125 v 1.1601562 h 0.40039 V 7.1132812 l -0.49414,-0.4941406 z"
         style="color:#000000;font-style:normal;font-variant:normal;font-weight:normal;font-stretch:normal;font-size:medium;line-height:normal;font-family:sans-serif;font-variant-ligatures:normal;font-variant-position:normal;font-variant-caps:normal;font-variant-numeric:normal;font-variant-alternates:normal;font-feature-settings:normal;text-indent:0;text-align:start;text-decoration:none;text-decoration-line:none;text-decoration-style:solid;text-decoration-color:#000000;letter-spacing:normal;word-spacing:normal;text-transform:none;writing-mode:lr-tb;direction:ltr;text-orientation:mixed;dominant-baseline:auto;baseline-shift:baseline;text-anchor:start;white-space:normal;shape-padding:0;clip-rule:nonzero;display:inline;overflow:visible;visibility:visible;opacity:1;isolation:auto;mix-blend-mode:normal;color-interpolation:sRGB;color-interpolation-filters:linearRGB;solid-color:#000000;solid-opacity:1;vector-effect:none;fill:#000000;fill-opacity:1;fill-rule:nonzero;stroke:none;stroke-width:0.40000001;stroke-linecap:butt;stroke-linejoin:miter;stroke-miterlimit:4;stroke-dasharray:none;stroke-dashoffset:0;stroke-opacity:1;color-rendering:auto;image-rendering:auto;shape-rendering:auto;text-rendering:auto;enable-background:accumulate" />
      <path
         style="color:#000000;font-style:normal;font-variant:normal;font-weight:normal;font-stretch:normal;font-size:medium;line-height:normal;font-family:sans-serif;font-variant-ligatures:normal;font-variant-position:normal;font-variant-caps:normal;font-variant-numeric:normal;font-variant-alternates:normal;font-feature-settings:normal;text-indent:0;text-align:start;text-decoration:none;text-decoration-line:none;text-decoration-style:solid;text-decoration-color:#000000;letter-spacing:normal;word-spacing:normal;text-transform:none;writing-mode:lr-tb;direction:ltr;text-orientation:mixed;dominant-baseline:auto;baseline-shift:baseline;text-anchor:start;white-space:normal;shape-padding:0;clip-rule:nonzero;display:inline;overflow:visible;visibility:visible;opacity:1;isolation:auto;mix-blend-mode:normal;color-interpolation:sRGB;color-interpolation-filters:linearRGB;solid-color:#000000;solid-opacity:1;vector-effect:none;fill:#000000;fill-opacity:1;fill-rule:nonzero;stroke:none;stroke-width:0.40000001;stroke-linecap:butt;stroke-linejoin:miter;stroke-miterlimit:4;stroke-dasharray:none;stroke-dashoffset:0;stroke-opacity:1;color-rendering:auto;image-rendering:auto;shape-rendering:auto;text-rendering:auto;enable-background:accumulate"
         d="m 103.97265,5.828125 0.38671,0.1035156 -0.24023,0.8945313 -0.45117,0.453125 v 1.1601562 h -0.40039 V 7.1132812 l 0.49414,-0.4941406 z"
         id="path924" />
    </g>
    <path
       style="color:#000000;font-style:normal;font-variant:normal;font-weight:normal;font-stretch:normal;font-size:medium;line-height:normal;font-family:sans-serif;font-variant-ligatures:normal;font-variant-position:normal;font-variant-caps:normal;font-variant-numeric:normal;font-variant-alternates:normal;font-feature-settings:normal;text-indent:0;text-align:start;text-decoration:none;text-decoration-line:none;text-decoration-style:solid;text-decoration-color:#000000;letter-spacing:normal;word-spacing:normal;text-transform:none;writing-mode:lr-tb;direction:ltr;text-orientation:mixed;dominant-baseline:auto;baseline-shift:baseline;text-anchor:start;white-space:normal;shape-padding:0;clip-rule:nonzero;display:inline;overflow:visible;visibility:visible;opacity:1;isolation:auto;mix-blend-mode:normal;color-interpolation:sRGB;color-interpolation-filters:linearRGB;solid-color:#000000;solid-opacity:1;vector-effect:none;fill:#62a110;fill-opacity:1;fill-rule:nonzero;stroke:none;stroke-width:0.29862499;stroke-linecap:butt;stroke-linejoin:miter;stroke-miterlimit:4;stroke-dasharray:none;stroke-dashoffset:0;stroke-opacity:1;color-rendering:auto;image-rendering:auto;shape-rendering:auto;text-rendering:auto;enable-background:accumulate"
       d="m 102.27848,11.570312 v 8.07972 h 0.30078 v -8.07972 z"
       id="path930" />
    <path
       id="path934"
       d="m 103.43591,12.153514 h -2.01408 v 0.549372 h 2.01408 z"
       style="color:#000000;font-style:normal;font-variant:normal;font-weight:normal;font-stretch:normal;font-size:medium;line-height:normal;font-family:sans-serif;font-variant-ligatures:normal;font-variant-position:normal;font-variant-caps:normal;font-variant-numeric:normal;font-variant-alternates:normal;font-feature-settings:normal;text-indent:0;text-align:start;text-decoration:none;text-decoration-line:none;text-decoration-style:solid;text-decoration-color:#000000;letter-spacing:normal;word-spacing:normal;text-transform:none;writing-mode:lr-tb;direction:ltr;text-orientation:mixed;dominant-baseline:auto;baseline-shift:baseline;text-anchor:start;white-space:normal;shape-padding:0;clip-rule:nonzero;display:inline;overflow:visible;visibility:visible;opacity:1;isolation:auto;mix-blend-mode:normal;color-interpolation:sRGB;color-interpolation-filters:linearRGB;solid-color:#000000;solid-opacity:1;vector-effect:none;fill:#62a110;fill-opacity:1;fill-rule:nonzero;stroke:none;stroke-width:0.20150027;stroke-linecap:butt;stroke-linejoin:miter;stroke-miterlimit:4;stroke-dasharray:none;stroke-dashoffset:0;stroke-opacity:1;color-rendering:auto;image-rendering:auto;shape-rendering:auto;text-rendering:auto;enable-background:accumulate" />
  </g>
  <g
     transform="matrix(1.6775202,0,0,1.6775202,-36.37782,26.081049)"
     id="g1032">
    <path
       id="path998"
       d="m 96.984375,11.400391 c -0.424926,-0.01024 -0.668054,0.48074 -0.402344,0.8125 l 0.492188,0.632812 c 0.403874,0.562877 1.234842,-0.08297 0.789062,-0.613281 l -0.492187,-0.632813 c -0.09176,-0.121935 -0.234168,-0.195299 -0.386719,-0.199218 z m 10.888675,0 c -0.15255,0.0039 -0.29496,0.07728 -0.38672,0.199218 l -0.49219,0.632813 c -0.44582,0.53031 0.38519,1.176198 0.78906,0.613281 l 0.49219,-0.632812 c 0.26571,-0.331759 0.0226,-0.822734 -0.40234,-0.8125 z m -10.910159,3.798828 c -0.520184,0.03838 -0.480364,0.813927 0.04102,0.798828 h 1.119141 c 0.563214,0.03155 0.563214,-0.830374 0,-0.798828 h -1.119141 c -0.01366,-7.01e-4 -0.02735,-7.01e-4 -0.04102,0 z m 9.720699,0 c -0.52019,0.03838 -0.48037,0.813938 0.041,0.798828 h 1.11914 c 0.56321,0.03155 0.56321,-0.830374 0,-0.798828 h -1.11914 c -0.0137,-7.01e-4 -0.0274,-7.01e-4 -0.041,0 z m -7.906246,2.636719 -0.621094,0.583984 c -0.125836,0.217954 -0.06765,0.605357 0.123047,0.982422 1.441122,-0.900148 2.934493,0.656458 0.498047,-1.566406 z m 7.304686,0 c -2.59786,2.410323 -0.84823,0.443884 0.49609,1.566406 0.19071,-0.377065 0.25084,-0.764468 0.125,-0.982422 z"
       style="color:#000000;font-style:normal;font-variant:normal;font-weight:normal;font-stretch:normal;font-size:medium;line-height:normal;font-family:sans-serif;font-variant-ligatures:normal;font-variant-position:normal;font-variant-caps:normal;font-variant-numeric:normal;font-variant-alternates:normal;font-feature-settings:normal;text-indent:0;text-align:start;text-decoration:none;text-decoration-line:none;text-decoration-style:solid;text-decoration-color:#000000;letter-spacing:normal;word-spacing:normal;text-transform:none;writing-mode:lr-tb;direction:ltr;text-orientation:mixed;dominant-baseline:auto;baseline-shift:baseline;text-anchor:start;white-space:normal;shape-padding:0;clip-rule:nonzero;display:inline;overflow:visible;visibility:visible;opacity:1;isolation:auto;mix-blend-mode:normal;color-interpolation:sRGB;color-interpolation-filters:linearRGB;solid-color:#000000;solid-opacity:1;vector-effect:none;fill:#1a1a1a;fill-opacity:1;fill-rule:nonzero;stroke:none;stroke-width:0.80000001;stroke-linecap:round;stroke-linejoin:miter;stroke-miterlimit:4;stroke-dasharray:none;stroke-dashoffset:0;stroke-opacity:1;color-rendering:auto;image-rendering:auto;shape-rendering:auto;text-rendering:auto;enable-background:accumulate" />
    <path
       id="path1000"
       d="m 107.34183,13.926684 a 4.9129539,5.742465 0 0 1 -4.91296,5.742465 4.9129539,5.742465 0 0 1 -4.912953,-5.742465 4.9129539,5.742465 0 0 1 4.912953,-5.7424653 4.9129539,5.742465 0 0 1 4.91296,5.7424653 z"
       style="opacity:1;fill:url(#radialGradient1034);fill-opacity:1;stroke:none;stroke-width:1.67295766;stroke-linecap:butt;stroke-linejoin:round;stroke-miterlimit:4;stroke-dasharray:none;stroke-opacity:1;paint-order:markers fill stroke" />
    <path
       style="opacity:1;fill:#1a1a1a;fill-opacity:1;stroke:none;stroke-width:0.1;stroke-linecap:butt;stroke-linejoin:round;stroke-miterlimit:4;stroke-dasharray:none;stroke-opacity:1;paint-order:markers fill stroke"
       d="m 97.961466,11.534403 c 0.767126,-2.0031133 2.487354,-3.3501843 4.486454,-3.3501843 1.96666,-5e-6 3.66343,1.399177 4.44836,3.3501843 -2.8347,0.07178 -5.83534,0.0606 -8.934814,0 z"
       id="path1002" />
    <path
       id="path1004"
       d="m 102.18028,9.0852112 a 0.59661973,0.59661973 0 0 1 -0.59662,0.59662 0.59661973,0.59661973 0 0 1 -0.59662,-0.59662 0.59661973,0.59661973 0 0 1 0.59662,-0.59662 0.59661973,0.59661973 0 0 1 0.59662,0.59662 z"
       style="opacity:1;fill:#e6e6e6;fill-opacity:1;stroke:none;stroke-width:0.1;stroke-linecap:butt;stroke-linejoin:round;stroke-miterlimit:4;stroke-dasharray:none;stroke-opacity:1;paint-order:markers fill stroke" />
    <path
       id="path1006"
       d="m 103.8707,9.0852112 a 0.59661973,0.59661973 0 0 1 -0.59662,0.59662 0.59661973,0.59661973 0 0 1 -0.59662,-0.59662 0.59661973,0.59661973 0 0 1 0.59662,-0.59662 0.59661973,0.59661973 0 0 1 0.59662,0.59662 z"
       style="opacity:1;fill:#e6e6e6;fill-opacity:1;stroke:none;stroke-width:0.1;stroke-linecap:butt;stroke-linejoin:round;stroke-miterlimit:4;stroke-dasharray:none;stroke-opacity:1;paint-order:markers fill stroke" />
    <path
       style="opacity:1;fill:#004900;fill-opacity:1;stroke:none;stroke-width:1.57304251;stroke-linecap:butt;stroke-linejoin:round;stroke-miterlimit:4;stroke-dasharray:none;stroke-opacity:1;paint-order:markers fill stroke"
       d="m 100.58715,16.7801 c 0.49823,0.543052 0.3662,1.474988 -0.29491,2.081536 -0.515106,0.297401 -2.111185,-1.434966 -1.804265,-1.966567 0.661109,-0.606548 1.600935,-0.658021 2.099175,-0.114969 z"
       id="path1008" />
    <path
       id="path1010"
       d="m 104.27059,16.7801 c -0.49824,0.543052 -0.3662,1.474988 0.2949,2.081536 0.51512,0.297401 2.1112,-1.434966 1.80428,-1.966567 -0.66111,-0.606548 -1.60095,-0.658021 -2.09918,-0.114969 z"
       style="opacity:1;fill:#004900;fill-opacity:1;stroke:none;stroke-width:1.57304251;stroke-linecap:butt;stroke-linejoin:round;stroke-miterlimit:4;stroke-dasharray:none;stroke-opacity:1;paint-order:markers fill stroke" />
    <circle
       style="opacity:1;fill:#004900;fill-opacity:1;stroke:none;stroke-width:1.04361296;stroke-linecap:butt;stroke-linejoin:round;stroke-miterlimit:4;stroke-dasharray:none;stroke-opacity:1;paint-order:markers fill stroke"
       id="circle1012"
       cx="101.03677"
       cy="15.229789"
       r="0.59661973" />
    <circle
       r="0.59661973"
       cy="15.229789"
       cx="103.82098"
       id="circle1014"
       style="opacity:1;fill:#004900;fill-opacity:1;stroke:none;stroke-width:1.04361296;stroke-linecap:butt;stroke-linejoin:round;stroke-miterlimit:4;stroke-dasharray:none;stroke-opacity:1;paint-order:markers fill stroke" />
    <g
       transform="translate(-0.08307032,-0.07031231)"
       id="g1020">
      <circle
         style="opacity:1;fill:#004900;fill-opacity:1;stroke:none;stroke-width:1.31190717;stroke-linecap:butt;stroke-linejoin:round;stroke-miterlimit:4;stroke-dasharray:none;stroke-opacity:1;paint-order:markers fill stroke"
         id="circle1016"
         cx="99.822495"
         cy="13.002195"
         r="0.75" />
      <circle
         r="0.75"
         cy="13.107665"
         cx="105.20139"
         id="circle1018"
         style="opacity:1;fill:#004900;fill-opacity:1;stroke:none;stroke-width:1.31190717;stroke-linecap:butt;stroke-linejoin:round;stroke-miterlimit:4;stroke-dasharray:none;stroke-opacity:1;paint-order:markers fill stroke" />
    </g>
    <g
       transform="translate(0.056808)"
       id="g1026">
      <path
         style="color:#000000;font-style:normal;font-variant:normal;font-weight:normal;font-stretch:normal;font-size:medium;line-height:normal;font-family:sans-serif;font-variant-ligatures:normal;font-variant-position:normal;font-variant-caps:normal;font-variant-numeric:normal;font-variant-alternates:normal;font-feature-settings:normal;text-indent:0;text-align:start;text-decoration:none;text-decoration-line:none;text-decoration-style:solid;text-decoration-color:#000000;letter-spacing:normal;word-spacing:normal;text-transform:none;writing-mode:lr-tb;direction:ltr;text-orientation:mixed;dominant-baseline:auto;baseline-shift:baseline;text-anchor:start;white-space:normal;shape-padding:0;clip-rule:nonzero;display:inline;overflow:visible;visibility:visible;opacity:1;isolation:auto;mix-blend-mode:normal;color-interpolation:sRGB;color-interpolation-filters:linearRGB;solid-color:#000000;solid-opacity:1;vector-effect:none;fill:#000000;fill-opacity:1;fill-rule:nonzero;stroke:none;stroke-width:0.40000001;stroke-linecap:butt;stroke-linejoin:miter;stroke-miterlimit:4;stroke-dasharray:none;stroke-dashoffset:0;stroke-opacity:1;color-rendering:auto;image-rendering:auto;shape-rendering:auto;text-rendering:auto;enable-background:accumulate"
         d="m 100.77148,5.828125 -0.38671,0.1035156 0.24023,0.8945313 0.45117,0.453125 v 1.1601562 h 0.40039 V 7.1132812 l -0.49414,-0.4941406 z"
         id="path1022" />
      <path
         id="path1024"
         d="m 103.97265,5.828125 0.38671,0.1035156 -0.24023,0.8945313 -0.45117,0.453125 v 1.1601562 h -0.40039 V 7.1132812 l 0.49414,-0.4941406 z"
         style="color:#000000;font-style:normal;font-variant:normal;font-weight:normal;font-stretch:normal;font-size:medium;line-height:normal;font-family:sans-serif;font-variant-ligatures:normal;font-variant-position:normal;font-variant-caps:normal;font-variant-numeric:normal;font-variant-alternates:normal;font-feature-settings:normal;text-indent:0;text-align:start;text-decoration:none;text-decoration-line:none;text-decoration-style:solid;text-decoration-color:#000000;letter-spacing:normal;word-spacing:normal;text-transform:none;writing-mode:lr-tb;direction:ltr;text-orientation:mixed;dominant-baseline:auto;baseline-shift:baseline;text-anchor:start;white-space:normal;shape-padding:0;clip-rule:nonzero;display:inline;overflow:visible;visibility:visible;opacity:1;isolation:auto;mix-blend-mode:normal;color-interpolation:sRGB;color-interpolation-filters:linearRGB;solid-color:#000000;solid-opacity:1;vector-effect:none;fill:#000000;fill-opacity:1;fill-rule:nonzero;stroke:none;stroke-width:0.40000001;stroke-linecap:butt;stroke-linejoin:miter;stroke-miterlimit:4;stroke-dasharray:none;stroke-dashoffset:0;stroke-opacity:1;color-rendering:auto;image-rendering:auto;shape-rendering:auto;text-rendering:auto;enable-background:accumulate" />
    </g>
    <path
       id="path1028"
       d="m 102.27848,11.570312 v 8.07972 h 0.30078 v -8.07972 z"
       style="color:#000000;font-style:normal;font-variant:normal;font-weight:normal;font-stretch:normal;font-size:medium;line-height:normal;font-family:sans-serif;font-variant-ligatures:normal;font-variant-position:normal;font-variant-caps:normal;font-variant-numeric:normal;font-variant-alternates:normal;font-feature-settings:normal;text-indent:0;text-align:start;text-decoration:none;text-decoration-line:none;text-decoration-style:solid;text-decoration-color:#000000;letter-spacing:normal;word-spacing:normal;text-transform:none;writing-mode:lr-tb;direction:ltr;text-orientation:mixed;dominant-baseline:auto;baseline-shift:baseline;text-anchor:start;white-space:normal;shape-padding:0;clip-rule:nonzero;display:inline;overflow:visible;visibility:visible;opacity:1;isolation:auto;mix-blend-mode:normal;color-interpolation:sRGB;color-interpolation-filters:linearRGB;solid-color:#000000;solid-opacity:1;vector-effect:none;fill:#62a110;fill-opacity:1;fill-rule:nonzero;stroke:none;stroke-width:0.29862499;stroke-linecap:butt;stroke-linejoin:miter;stroke-miterlimit:4;stroke-dasharray:none;stroke-dashoffset:0;stroke-opacity:1;color-rendering:auto;image-rendering:auto;shape-rendering:auto;text-rendering:auto;enable-background:accumulate" />
    <path
       style="color:#000000;font-style:normal;font-variant:normal;font-weight:normal;font-stretch:normal;font-size:medium;line-height:normal;font-family:sans-serif;font-variant-ligatures:normal;font-variant-position:normal;font-variant-caps:normal;font-variant-numeric:normal;font-variant-alternates:normal;font-feature-settings:normal;text-indent:0;text-align:start;text-decoration:none;text-decoration-line:none;text-decoration-style:solid;text-decoration-color:#000000;letter-spacing:normal;word-spacing:normal;text-transform:none;writing-mode:lr-tb;direction:ltr;text-orientation:mixed;dominant-baseline:auto;baseline-shift:baseline;text-anchor:start;white-space:normal;shape-padding:0;clip-rule:nonzero;display:inline;overflow:visible;visibility:visible;opacity:1;isolation:auto;mix-blend-mode:normal;color-interpolation:sRGB;color-interpolation-filters:linearRGB;solid-color:#000000;solid-opacity:1;vector-effect:none;fill:#62a110;fill-opacity:1;fill-rule:nonzero;stroke:none;stroke-width:0.20150027;stroke-linecap:butt;stroke-linejoin:miter;stroke-miterlimit:4;stroke-dasharray:none;stroke-dashoffset:0;stroke-opacity:1;color-rendering:auto;image-rendering:auto;shape-rendering:auto;text-rendering:auto;enable-background:accumulate"
       d="m 103.43591,12.153514 h -2.01408 v 0.549372 h 2.01408 z"
       id="path1030" />
  </g>
  <g
     id="g1070"
     transform="matrix(1.6775202,0,0,1.6775202,-15.500608,34.872788)">
    <path
       style="color:#000000;font-style:normal;font-variant:normal;font-weight:normal;font-stretch:normal;font-size:medium;line-height:normal;font-family:sans-serif;font-variant-ligatures:normal;font-variant-position:normal;font-variant-caps:normal;font-variant-numeric:normal;font-variant-alternates:normal;font-feature-settings:normal;text-indent:0;text-align:start;text-decoration:none;text-decoration-line:none;text-decoration-style:solid;text-decoration-color:#000000;letter-spacing:normal;word-spacing:normal;text-transform:none;writing-mode:lr-tb;direction:ltr;text-orientation:mixed;dominant-baseline:auto;baseline-shift:baseline;text-anchor:start;white-space:normal;shape-padding:0;clip-rule:nonzero;display:inline;overflow:visible;visibility:visible;opacity:1;isolation:auto;mix-blend-mode:normal;color-interpolation:sRGB;color-interpolation-filters:linearRGB;solid-color:#000000;solid-opacity:1;vector-effect:none;fill:#1a1a1a;fill-opacity:1;fill-rule:nonzero;stroke:none;stroke-width:0.80000001;stroke-linecap:round;stroke-linejoin:miter;stroke-miterlimit:4;stroke-dasharray:none;stroke-dashoffset:0;stroke-opacity:1;color-rendering:auto;image-rendering:auto;shape-rendering:auto;text-rendering:auto;enable-background:accumulate"
       d="m 96.984375,11.400391 c -0.424926,-0.01024 -0.668054,0.48074 -0.402344,0.8125 l 0.492188,0.632812 c 0.403874,0.562877 1.234842,-0.08297 0.789062,-0.613281 l -0.492187,-0.632813 c -0.09176,-0.121935 -0.234168,-0.195299 -0.386719,-0.199218 z m 10.888675,0 c -0.15255,0.0039 -0.29496,0.07728 -0.38672,0.199218 l -0.49219,0.632813 c -0.44582,0.53031 0.38519,1.176198 0.78906,0.613281 l 0.49219,-0.632812 c 0.26571,-0.331759 0.0226,-0.822734 -0.40234,-0.8125 z m -10.910159,3.798828 c -0.520184,0.03838 -0.480364,0.813927 0.04102,0.798828 h 1.119141 c 0.563214,0.03155 0.563214,-0.830374 0,-0.798828 h -1.119141 c -0.01366,-7.01e-4 -0.02735,-7.01e-4 -0.04102,0 z m 9.720699,0 c -0.52019,0.03838 -0.48037,0.813938 0.041,0.798828 h 1.11914 c 0.56321,0.03155 0.56321,-0.830374 0,-0.798828 h -1.11914 c -0.0137,-7.01e-4 -0.0274,-7.01e-4 -0.041,0 z m -7.906246,2.636719 -0.621094,0.583984 c -0.125836,0.217954 -0.06765,0.605357 0.123047,0.982422 1.441122,-0.900148 2.934493,0.656458 0.498047,-1.566406 z m 7.304686,0 c -2.59786,2.410323 -0.84823,0.443884 0.49609,1.566406 0.19071,-0.377065 0.25084,-0.764468 0.125,-0.982422 z"
       id="path1036" />
    <path
       style="opacity:1;fill:url(#radialGradient1072);fill-opacity:1;stroke:none;stroke-width:1.67295766;stroke-linecap:butt;stroke-linejoin:round;stroke-miterlimit:4;stroke-dasharray:none;stroke-opacity:1;paint-order:markers fill stroke"
       d="m 107.34183,13.926684 a 4.9129539,5.742465 0 0 1 -4.91296,5.742465 4.9129539,5.742465 0 0 1 -4.912953,-5.742465 4.9129539,5.742465 0 0 1 4.912953,-5.7424653 4.9129539,5.742465 0 0 1 4.91296,5.7424653 z"
       id="path1038" />
    <path
       id="path1040"
       d="m 97.961466,11.534403 c 0.767126,-2.0031133 2.487354,-3.3501843 4.486454,-3.3501843 1.96666,-5e-6 3.66343,1.399177 4.44836,3.3501843 -2.8347,0.07178 -5.83534,0.0606 -8.934814,0 z"
       style="opacity:1;fill:#1a1a1a;fill-opacity:1;stroke:none;stroke-width:0.1;stroke-linecap:butt;stroke-linejoin:round;stroke-miterlimit:4;stroke-dasharray:none;stroke-opacity:1;paint-order:markers fill stroke" />
    <path
       style="opacity:1;fill:#e6e6e6;fill-opacity:1;stroke:none;stroke-width:0.1;stroke-linecap:butt;stroke-linejoin:round;stroke-miterlimit:4;stroke-dasharray:none;stroke-opacity:1;paint-order:markers fill stroke"
       d="m 102.18028,9.0852112 a 0.59661973,0.59661973 0 0 1 -0.59662,0.59662 0.59661973,0.59661973 0 0 1 -0.59662,-0.59662 0.59661973,0.59661973 0 0 1 0.59662,-0.59662 0.59661973,0.59661973 0 0 1 0.59662,0.59662 z"
       id="path1042" />
    <path
       style="opacity:1;fill:#e6e6e6;fill-opacity:1;stroke:none;stroke-width:0.1;stroke-linecap:butt;stroke-linejoin:round;stroke-miterlimit:4;stroke-dasharray:none;stroke-opacity:1;paint-order:markers fill stroke"
       d="m 103.8707,9.0852112 a 0.59661973,0.59661973 0 0 1 -0.59662,0.59662 0.59661973,0.59661973 0 0 1 -0.59662,-0.59662 0.59661973,0.59661973 0 0 1 0.59662,-0.59662 0.59661973,0.59661973 0 0 1 0.59662,0.59662 z"
       id="path1044" />
    <path
       id="path1046"
       d="m 100.58715,16.7801 c 0.49823,0.543052 0.3662,1.474988 -0.29491,2.081536 -0.515106,0.297401 -2.111185,-1.434966 -1.804265,-1.966567 0.661109,-0.606548 1.600935,-0.658021 2.099175,-0.114969 z"
       style="opacity:1;fill:#004900;fill-opacity:1;stroke:none;stroke-width:1.57304251;stroke-linecap:butt;stroke-linejoin:round;stroke-miterlimit:4;stroke-dasharray:none;stroke-opacity:1;paint-order:markers fill stroke" />
    <path
       style="opacity:1;fill:#004900;fill-opacity:1;stroke:none;stroke-width:1.57304251;stroke-linecap:butt;stroke-linejoin:round;stroke-miterlimit:4;stroke-dasharray:none;stroke-opacity:1;paint-order:markers fill stroke"
       d="m 104.27059,16.7801 c -0.49824,0.543052 -0.3662,1.474988 0.2949,2.081536 0.51512,0.297401 2.1112,-1.434966 1.80428,-1.966567 -0.66111,-0.606548 -1.60095,-0.658021 -2.09918,-0.114969 z"
       id="path1048" />
    <circle
       r="0.59661973"
       cy="15.229789"
       cx="101.03677"
       id="circle1050"
       style="opacity:1;fill:#004900;fill-opacity:1;stroke:none;stroke-width:1.04361296;stroke-linecap:butt;stroke-linejoin:round;stroke-miterlimit:4;stroke-dasharray:none;stroke-opacity:1;paint-order:markers fill stroke" />
    <circle
       style="opacity:1;fill:#004900;fill-opacity:1;stroke:none;stroke-width:1.04361296;stroke-linecap:butt;stroke-linejoin:round;stroke-miterlimit:4;stroke-dasharray:none;stroke-opacity:1;paint-order:markers fill stroke"
       id="circle1052"
       cx="103.82098"
       cy="15.229789"
       r="0.59661973" />
    <g
       id="g1058"
       transform="translate(-0.08307032,-0.07031231)">
      <circle
         r="0.75"
         cy="13.002195"
         cx="99.822495"
         id="circle1054"
         style="opacity:1;fill:#004900;fill-opacity:1;stroke:none;stroke-width:1.31190717;stroke-linecap:butt;stroke-linejoin:round;stroke-miterlimit:4;stroke-dasharray:none;stroke-opacity:1;paint-order:markers fill stroke" />
      <circle
         style="opacity:1;fill:#004900;fill-opacity:1;stroke:none;stroke-width:1.31190717;stroke-linecap:butt;stroke-linejoin:round;stroke-miterlimit:4;stroke-dasharray:none;stroke-opacity:1;paint-order:markers fill stroke"
         id="circle1056"
         cx="105.20139"
         cy="13.107665"
         r="0.75" />
    </g>
    <g
       id="g1064"
       transform="translate(0.056808)">
      <path
         id="path1060"
         d="m 100.77148,5.828125 -0.38671,0.1035156 0.24023,0.8945313 0.45117,0.453125 v 1.1601562 h 0.40039 V 7.1132812 l -0.49414,-0.4941406 z"
         style="color:#000000;font-style:normal;font-variant:normal;font-weight:normal;font-stretch:normal;font-size:medium;line-height:normal;font-family:sans-serif;font-variant-ligatures:normal;font-variant-position:normal;font-variant-caps:normal;font-variant-numeric:normal;font-variant-alternates:normal;font-feature-settings:normal;text-indent:0;text-align:start;text-decoration:none;text-decoration-line:none;text-decoration-style:solid;text-decoration-color:#000000;letter-spacing:normal;word-spacing:normal;text-transform:none;writing-mode:lr-tb;direction:ltr;text-orientation:mixed;dominant-baseline:auto;baseline-shift:baseline;text-anchor:start;white-space:normal;shape-padding:0;clip-rule:nonzero;display:inline;overflow:visible;visibility:visible;opacity:1;isolation:auto;mix-blend-mode:normal;color-interpolation:sRGB;color-interpolation-filters:linearRGB;solid-color:#000000;solid-opacity:1;vector-effect:none;fill:#000000;fill-opacity:1;fill-rule:nonzero;stroke:none;stroke-width:0.40000001;stroke-linecap:butt;stroke-linejoin:miter;stroke-miterlimit:4;stroke-dasharray:none;stroke-dashoffset:0;stroke-opacity:1;color-rendering:auto;image-rendering:auto;shape-rendering:auto;text-rendering:auto;enable-background:accumulate" />
      <path
         style="color:#000000;font-style:normal;font-variant:normal;font-weight:normal;font-stretch:normal;font-size:medium;line-height:normal;font-family:sans-serif;font-variant-ligatures:normal;font-variant-position:normal;font-variant-caps:normal;font-variant-numeric:normal;font-variant-alternates:normal;font-feature-settings:normal;text-indent:0;text-align:start;text-decoration:none;text-decoration-line:none;text-decoration-style:solid;text-decoration-color:#000000;letter-spacing:normal;word-spacing:normal;text-transform:none;writing-mode:lr-tb;direction:ltr;text-orientation:mixed;dominant-baseline:auto;baseline-shift:baseline;text-anchor:start;white-space:normal;shape-padding:0;clip-rule:nonzero;display:inline;overflow:visible;visibility:visible;opacity:1;isolation:auto;mix-blend-mode:normal;color-interpolation:sRGB;color-interpolation-filters:linearRGB;solid-color:#000000;solid-opacity:1;vector-effect:none;fill:#000000;fill-opacity:1;fill-rule:nonzero;stroke:none;stroke-width:0.40000001;stroke-linecap:butt;stroke-linejoin:miter;stroke-miterlimit:4;stroke-dasharray:none;stroke-dashoffset:0;stroke-opacity:1;color-rendering:auto;image-rendering:auto;shape-rendering:auto;text-rendering:auto;enable-background:accumulate"
         d="m 103.97265,5.828125 0.38671,0.1035156 -0.24023,0.8945313 -0.45117,0.453125 v 1.1601562 h -0.40039 V 7.1132812 l 0.49414,-0.4941406 z"
         id="path1062" />
    </g>
    <path
       style="color:#000000;font-style:normal;font-variant:normal;font-weight:normal;font-stretch:normal;font-size:medium;line-height:normal;font-family:sans-serif;font-variant-ligatures:normal;font-variant-position:normal;font-variant-caps:normal;font-variant-numeric:normal;font-variant-alternates:normal;font-feature-settings:normal;text-indent:0;text-align:start;text-decoration:none;text-decoration-line:none;text-decoration-style:solid;text-decoration-color:#000000;letter-spacing:normal;word-spacing:normal;text-transform:none;writing-mode:lr-tb;direction:ltr;text-orientation:mixed;dominant-baseline:auto;baseline-shift:baseline;text-anchor:start;white-space:normal;shape-padding:0;clip-rule:nonzero;display:inline;overflow:visible;visibility:visible;opacity:1;isolation:auto;mix-blend-mode:normal;color-interpolation:sRGB;color-interpolation-filters:linearRGB;solid-color:#000000;solid-opacity:1;vector-effect:none;fill:#62a110;fill-opacity:1;fill-rule:nonzero;stroke:none;stroke-width:0.29862499;stroke-linecap:butt;stroke-linejoin:miter;stroke-miterlimit:4;stroke-dasharray:none;stroke-dashoffset:0;stroke-opacity:1;color-rendering:auto;image-rendering:auto;shape-rendering:auto;text-rendering:auto;enable-background:accumulate"
       d="m 102.27848,11.570312 v 8.07972 h 0.30078 v -8.07972 z"
       id="path1066" />
    <path
       id="path1068"
       d="m 103.43591,12.153514 h -2.01408 v 0.549372 h 2.01408 z"
       style="color:#000000;font-style:normal;font-variant:normal;font-weight:normal;font-stretch:normal;font-size:medium;line-height:normal;font-family:sans-serif;font-variant-ligatures:normal;font-variant-position:normal;font-variant-caps:normal;font-variant-numeric:normal;font-variant-alternates:normal;font-feature-settings:normal;text-indent:0;text-align:start;text-decoration:none;text-decoration-line:none;text-decoration-style:solid;text-decoration-color:#000000;letter-spacing:normal;word-spacing:normal;text-transform:none;writing-mode:lr-tb;direction:ltr;text-orientation:mixed;dominant-baseline:auto;baseline-shift:baseline;text-anchor:start;white-space:normal;shape-padding:0;clip-rule:nonzero;display:inline;overflow:visible;visibility:visible;opacity:1;isolation:auto;mix-blend-mode:normal;color-interpolation:sRGB;color-interpolation-filters:linearRGB;solid-color:#000000;solid-opacity:1;vector-effect:none;fill:#62a110;fill-opacity:1;fill-rule:nonzero;stroke:none;stroke-width:0.20150027;stroke-linecap:butt;stroke-linejoin:miter;stroke-miterlimit:4;stroke-dasharray:none;stroke-dashoffset:0;stroke-opacity:1;color-rendering:auto;image-rendering:auto;shape-rendering:auto;text-rendering:auto;enable-background:accumulate" />
  </g>
</svg>
