<svg width="200" height="114" version="1.1" viewBox="0 0 52.916 30.162" xmlns="http://www.w3.org/2000/svg" xmlns:cc="http://creativecommons.org/ns#" xmlns:dc="http://purl.org/dc/elements/1.1/" xmlns:rdf="http://www.w3.org/1999/02/22-rdf-syntax-ns#">
 <metadata>
  <rdf:RDF>
   <cc:Work rdf:about="">
    <dc:format>image/svg+xml</dc:format>
    <dc:type rdf:resource="http://purl.org/dc/dcmitype/StillImage"/>
    <dc:title/>
   </cc:Work>
  </rdf:RDF>
 </metadata>
 <path d="m8.2052 8.6462c-1.0391 0-1.9925 0.23839-2.86 0.71507-0.86232 0.47135-1.529 1.1649-2.0003 2.0807-0.46597 0.9105-0.69912 1.9791-0.69912 3.2057 0 1.1248 0.20631 2.1772 0.61872 3.1574 0.41776 0.98015 1.0231 1.7299 1.8158 2.2495 0.79804 0.51418 1.8317 0.7712 3.101 0.7712 1.2264 0 2.2628-0.33459 3.109-1.0041 0.8516-0.67484 1.4407-1.6523 1.7675-2.9323l-1.5586-0.39368c-0.21425 0.99072-0.62394 1.7378-1.2291 2.2413-0.60523 0.50347-1.3442 0.75527-2.2172 0.75527-0.71768 0-1.3847-0.18471-2.0006-0.55426-0.61595-0.36958-1.071-0.92664-1.3656-1.6712-0.28922-0.7498-0.43389-1.6256-0.43389-2.6271 0-0.7766 0.12305-1.529 0.36943-2.2574 0.24637-0.73376 0.67219-1.3177 1.2773-1.7515 0.61058-0.43384 1.3685-0.6506 2.2736-0.6506 0.78734 0 1.4408 0.19541 1.9604 0.58638 0.51953 0.39099 0.91577 1.0149 1.1889 1.8718l1.5346-0.36158c-0.316-1.0873-0.8758-1.9307-1.6792-2.5305-0.8034-0.59987-1.7942-0.8999-2.9726-0.8999zm37.212 0c-1.039 0-1.9923 0.23839-2.86 0.71507-0.86232 0.47135-1.529 1.1649-2.0003 2.0807-0.46597 0.9105-0.69912 1.9791-0.69912 3.2057 0 1.1248 0.20631 2.1772 0.61872 3.1574 0.41776 0.98015 1.0231 1.7299 1.8158 2.2495 0.79804 0.51418 1.8317 0.7712 3.101 0.7712 1.2264 0 2.2628-0.33459 3.109-1.0041 0.85159-0.67484 1.4409-1.6523 1.7677-2.9323l-1.5586-0.39368-2.44e-4 -2.44e-4c-0.21424 0.99084-0.62389 1.7382-1.2291 2.2415-0.60524 0.50347-1.3442 0.75527-2.2172 0.75527-0.71768 0-1.3847-0.18471-2.0006-0.55426-0.61595-0.36958-1.071-0.92664-1.3656-1.6712-0.28923-0.7498-0.4339-1.6256-0.4339-2.6271 0-0.7766 0.12329-1.529 0.36967-2.2574 0.24637-0.73376 0.67194-1.3177 1.2771-1.7515 0.61058-0.43384 1.3685-0.6506 2.2736-0.6506 0.78734 0 1.4408 0.19541 1.9604 0.58638 0.51953 0.39099 0.91577 1.0149 1.1889 1.8718l1.5346-0.36158c-0.316-1.0873-0.87557-1.9307-1.6789-2.5305-0.8034-0.59987-1.7946-0.8999-2.9728-0.8999zm-30.166 0.20053v11.778h1.5586v-11.778zm4.2984 0v11.778l1.5586-2.43e-4v-4.7882h3.0209c1.6657 0 2.8171-0.34552 3.4545-1.0364 0.63736-0.69626 0.95603-1.5452 0.95603-2.5467 0-0.58378-0.12056-1.1193-0.36158-1.6066-0.23568-0.48739-0.5489-0.86498-0.93986-1.1328-0.39099-0.27314-0.87572-0.45785-1.4541-0.55426-0.41242-0.074984-1.0097-0.11252-1.7917-0.11252h-4.4427zm12.997 0-4.5233 11.778h1.6552l1.2933-3.567h4.9251l1.3737 3.567h1.7755l-4.8207-11.778zm0.80332 1.2372c0.18211 0.63734 0.46051 1.4514 0.83543 2.4423l1.2294 3.2615h-3.993l1.2936-3.4545c0.27316-0.74451 0.4847-1.4941 0.63466-2.2495zm-12.241 0.15272h3.0127c0.70697 0 1.1917 0.0348 1.4541 0.10443 0.40705 0.11247 0.73368 0.34563 0.98006 0.69912 0.25172 0.34812 0.37752 0.76848 0.37752 1.2612 0 0.68021-0.21154 1.2077-0.63466 1.5826-0.42312 0.37491-1.138 0.56258-2.1449 0.56258h-3.0449v-4.2099z" fill="#69c" stroke-width=".46032" style="font-feature-settings:normal;font-variant-caps:normal;font-variant-ligatures:normal;font-variant-numeric:normal"/>
</svg>
