<svg width="200" height="114" version="1.2" viewBox="0 0 200 114" xmlns="http://www.w3.org/2000/svg" xmlns:cc="http://creativecommons.org/ns#" xmlns:dc="http://purl.org/dc/elements/1.1/" xmlns:rdf="http://www.w3.org/1999/02/22-rdf-syntax-ns#" xmlns:xlink="http://www.w3.org/1999/xlink">
 <defs>
  <linearGradient id="linearGradient5288">
   <stop stop-color="#369" offset="0"/>
  </linearGradient>
  <linearGradient id="linearGradient840" x1="104.62" x2="494.87" y1="342.45" y2="342.45" gradientTransform="matrix(.3181 0 0 .34568 -9.1839 -48.575)" gradientUnits="userSpaceOnUse" xlink:href="#linearGradient5288"/>
 </defs>
 <metadata>
  <rdf:RDF>
   <cc:Work rdf:about="">
    <dc:format>image/svg+xml</dc:format>
    <dc:type rdf:resource="https://purl.org/dc/dcmitype/StillImage"/>
    <dc:title/>
   </cc:Work>
  </rdf:RDF>
 </metadata>
 <g transform="matrix(1.2663 0 0 1.2663 -26.629 -15.18)" fill="url(#linearGradient840)" stroke-width=".33159">
  <path d="m28.926 65.268v-21.276h6.3443c2.4041 2.4e-5 3.9714 0.10645 4.7014 0.3193 1.1219 0.3193 2.0613 1.016 2.8182 2.0899 0.75686 1.0643 1.1353 2.4431 1.1353 4.1362-1.9e-5 1.3062-0.21817 2.4044-0.65445 3.2945-0.43632 0.89016-0.99282 1.5916-1.6695 2.1045-0.66782 0.50314-1.349 0.83693-2.0435 1.0014-0.94385 0.20319-2.3107 0.30479-4.1006 0.30479h-2.5778v8.0257h-3.9534m3.9534-17.677v6.0374h2.1637c1.5582 1.4e-5 2.6-0.11125 3.1253-0.33379 0.52533-0.22252 0.93494-0.57083 1.2288-1.045 0.30274-0.47408 0.45412-1.0256 0.45412-1.6545-1.3e-5 -0.77402-0.20926-1.4126-0.62774-1.9157-0.41852-0.50314-0.94828-0.8176-1.5894-0.94337-0.47191-0.09674-1.4202-0.14511-2.8449-0.14513h-1.91"/>
  <path d="m56.507 65.268v-2.3076c-0.51645 0.82242-1.1976 1.4707-2.0435 1.9448-0.83702 0.47408-1.723 0.71115-2.6579 0.71115-0.95274 0-1.8076-0.22738-2.5644-0.68212-0.75686-0.45478-1.3044-1.0933-1.6428-1.9158-0.33834-0.82241-0.50754-1.9593-0.50754-3.4108v-9.7532h3.7531v7.0826c-9e-6 2.1673 0.06677 3.4978 0.20034 3.991 0.14246 0.48378 0.39624 0.8708 0.76132 1.1611 0.36508 0.28059 0.82808 0.4209 1.389 0.4209 0.64108 4e-6 1.2154-0.18867 1.723-0.56601 0.5075-0.38703 0.85482-0.86114 1.0418-1.4223 0.18698-0.57083 0.28047-1.9593 0.28049-4.1654v-6.502h3.7531v15.413h-3.4857"/>
  <path d="m63.734 65.268v-21.276h3.7531v7.6632c1.1576-1.432 2.5288-2.148 4.1139-2.148 1.7274 1.3e-5 3.1566 0.68215 4.2873 2.0464 1.1308 1.3546 1.6963 3.3042 1.6963 5.8486-1.8e-5 2.6318-0.57878 4.6586-1.7363 6.0811-1.1486 1.4223-2.5466 2.1335-4.194 2.1335-0.81031 0-1.6116-0.2177-2.4041-0.65312-0.78357-0.44508-1.4603-1.0982-2.0302-1.9593v2.2641h-3.4857m3.7263-8.0405c-5e-6 1.5965 0.2315 2.7769 0.69453 3.5414 0.64999 1.0837 1.5137 1.6255 2.5911 1.6255 0.82807 2e-6 1.5315-0.38218 2.1103-1.1466 0.58766-0.77402 0.88149-1.9883 0.88152-3.6426-1.5e-5 -1.7609-0.29385-3.0283-0.88152-3.8025-0.58769-0.78372-1.3401-1.1756-2.2572-1.1756-0.89935 1.5e-5 -1.6473 0.38221-2.2438 1.1466-0.59658 0.75469-0.89489 1.9061-0.89489 3.4541"/>
  <path d="m122.29 43.992v7.8224c1.211-1.5384 2.6579-2.3076 4.3406-2.3076 0.86369 1.5e-5 1.6428 0.17417 2.3373 0.52247 0.69451 0.34833 1.2154 0.79342 1.5627 1.3352 0.35617 0.54183 0.59656 1.1417 0.72124 1.7996 0.13356 0.65794 0.20034 1.6787 0.20036 3.0624v9.0417h-3.7531v-8.1419c-2e-5 -1.6158-0.0712-2.6414-0.2137-3.0768-0.14248-0.43542-0.39625-0.77887-0.76132-1.0305-0.35617-0.26123-0.80586-0.39184-1.349-0.39184-0.62331 1.4e-5 -1.1798 0.1645-1.6695 0.49344-0.48974 0.32897-0.85036 0.82726-1.0819 1.4949-0.22261 0.65794-0.33394 1.6352-0.33388 2.9317v7.7213h-3.7531v-21.276h3.7531"/>
  <path d="m143.48 60.363 3.7399 0.68212c-0.48083 1.4901-1.2421 2.6269-2.2839 3.4108-1.0329 0.77402-2.3285 1.1611-3.8868 1.1611-2.4665 0-4.2915-0.87565-5.4761-2.6269-0.93494-1.4029-1.4024-3.1735-1.4024-5.312 0-2.5543 0.6144-4.5526 1.8432-5.9941 1.2288-1.4513 2.7825-2.177 4.6613-2.177 2.1103 1.3e-5 3.7754 0.75954 4.9953 2.2786 1.2199 1.5094 1.8031 3.8266 1.7497 6.9519h-9.4027c0.0267 1.2094 0.32942 2.1528 0.9082 2.8301 0.57878 0.66764 1.3 1.0014 2.1637 1.0014 0.58769 3e-6 1.0818-0.17415 1.4825-0.52247 0.40071-0.3483 0.70342-0.9095 0.90822-1.6836m0.21369-4.1217c-0.0267-1.1804-0.3072-2.0754-0.84144-2.685-0.53428-0.61925-1.1843-0.92886-1.95-0.92886-0.81918 1.3e-5 -1.4959 0.32415-2.0302 0.9724-0.53425 0.64828-0.79694 1.5288-0.78804 2.6414h5.6095"/>
  <path d="m150.21 49.855h3.4592v2.1045c1.2377-1.6352 2.7113-2.4528 4.4207-2.4528 0.90821 1.4e-5 1.6962 0.2032 2.364 0.60955 0.66779 0.40636 1.2154 1.0208 1.6428 1.8432 0.62328-0.82241 1.2956-1.4368 2.0168-1.8432s1.4914-0.60955 2.3107-0.60955c1.0418 1.4e-5 1.9233 0.23223 2.6445 0.69664 0.72124 0.45478 1.2599 1.1272 1.6161 2.0173 0.25819 0.65794 0.38729 1.7223 0.38732 3.1931v9.8544h-3.7531v-8.8095c-3e-5 -1.5287-0.12913-2.5156-0.38733-2.9607-0.34728-0.58053-0.88152-0.87077-1.6028-0.8708-0.52536 1.4e-5 -1.0196 0.17417-1.4825 0.52247-0.46306 0.34833-0.79694 0.86114-1.0017 1.5384-0.20481 0.66764-0.30719 1.7271-0.30719 3.1783v7.4018h-3.7531v-8.447c-1e-5 -1.4997-0.0667-2.4673-0.20035-2.9027-0.13357-0.43539-0.34281-0.75951-0.62774-0.9724-0.27603-0.21285-0.65445-0.31928-1.1353-0.31931-0.57879 1.4e-5 -1.0997 0.16934-1.5627 0.50796-0.463 0.33867-0.79694 0.82726-1.0017 1.4658-0.1959 0.63858-0.29384 1.6981-0.29384 3.1783v7.4891h-3.7531v-15.413"/>
 </g>
 <path d="m97.286 39.399 19.371 8.8002v17.602l-19.371 8.8002-19.369-8.8002v-17.602z" fill="none" stroke="#369" stroke-linecap="round" stroke-linejoin="round" stroke-width="3.2453"/>
 <path d="m106.86 63.775a12.5 10.709 0 1 1-0.0201-13.416" fill="none" stroke="#369" stroke-linecap="round" stroke-linejoin="round" stroke-width="2.4045"/>
</svg>
