<svg width="200" height="114" version="1.1" viewBox="0 0 200 114" xmlns="http://www.w3.org/2000/svg" xmlns:cc="http://creativecommons.org/ns#" xmlns:dc="http://purl.org/dc/elements/1.1/" xmlns:rdf="http://www.w3.org/1999/02/22-rdf-syntax-ns#">
 <metadata>
  <rdf:RDF>
   <cc:Work rdf:about="">
    <dc:format>image/svg+xml</dc:format>
    <dc:type rdf:resource="http://purl.org/dc/dcmitype/StillImage"/>
    <dc:title/>
   </cc:Work>
  </rdf:RDF>
 </metadata>
 <g transform="matrix(.94182 0 0 .94182 5.8162 3.3163)" fill="#01539c">
  <path d="m137.94 59.109c-7.9656 0-12.957 5.9823-12.957 12.361 0 6.1991 5.8173 11.507 12.791 11.507 2.4789 0 5.1233-1.0771 8.0319-2.7297v-6.374c-0.95447 3.5621-4.4645 6.0797-7.569 6.0797-4.2438 0-8.8234-3.2603-8.8234-9.3089 0-4.9281 4.8901-8.3832 8.3606-8.3832 4.333 0 6.215 2.8684 7.5996 4.4913v-5.3122c-2.2004-1.3355-4.8231-2.3311-7.4342-2.3311zm-74.867 0.16506c-0.23137 0-0.33053 0.03315-0.42969 0.16536-0.06611 0.06611-10.441 18.84-10.441 18.84-0.95456 2.2786-1.9436 2.8501-2.7699 2.8501h-1.2776v1.3146h8.6434v-1.2347s-2.7998 0.34656-2.5241-0.68227l2.6677-5.264h10.104s2.48 4.779 2.48 5.3078c0 0.46273-0.62566 0.66204-0.85703 0.66318h-1.9834v1.2101h11.132v-1.2101s-1.4219 0.10828-2.3532-0.82296c-0.59582-0.59582-11.796-20.872-11.796-20.872-0.06611-0.23137-0.26445-0.26463-0.36361-0.26463zm49.881 0c-0.23136 0-0.33053 0.03315-0.42969 0.16536-0.0661 0.06611-10.441 18.84-10.441 18.84-0.95457 2.2786-1.9436 2.8501-2.7699 2.8501h-1.2776v1.3146h8.6434v-1.2347s-2.7998 0.34656-2.5241-0.68227l2.6677-5.264h10.104s2.48 4.779 2.48 5.3078c0 0.46273-0.62566 0.66204-0.85702 0.66318h-1.9834v1.2101h11.132v-1.2101s-1.4219 0.10828-2.3532-0.82296c-0.59582-0.59582-11.796-20.872-11.796-20.872-0.0661-0.23137-0.26445-0.26463-0.36361-0.26463zm-24.116 0.05228c-8.4757 0-13.288 5.7408-13.288 12.27v0.03319c0 7.2259 6.8136 11.541 12.644 11.541 7.254 0 12.61-5.5642 12.61-12.333v-0.06579c-0.0339-5.8038-5.3494-11.446-11.966-11.446zm-1.1866 2.9679h0.06785c4.5761 0 8.6387 3.3996 8.6387 9.3683 0 4.155-4.1231 8.3333-7.9708 8.3333-5.3776 0-8.4713-3.9466-8.4713-9.3885 0-3.7686 3.5662-8.28 7.7356-8.313zm-25.635 2.6419c0.02074 0.0024 0.04076 0.02725 0.06403 0.06755l3.9709 8.3001-0.09927 0.09898h-8.0871c-0.14675 0-0.15898-0.02824-0.09898-0.13217l4.1823-8.2669c0.02598-0.0498 0.0474-0.06993 0.06814-0.06755zm49.881 0c0.0207 0.0024 0.0408 0.02725 0.064 0.06755l3.9709 8.3001-0.0993 0.09898h-8.0871c-0.14675 0-0.15899-0.02824-0.099-0.13217l4.1823-8.2669c0.026-0.0498 0.0474-0.06993 0.0681-0.06755z"/>
  <path d="m61.213 85.297v1.7807h0.16154c0.03363-0.12107 0.07718-0.20329 0.13099-0.247 0.05381-0.04708 0.13114-0.07078 0.23203-0.07078h2.139v5.2212c0 0.10425-0.0237 0.18321-0.07078 0.23702s-0.13122 0.09766-0.25229 0.13129v0.16124h2.149v-0.16124c-0.12107-0.03363-0.20521-0.07748-0.25229-0.13129s-0.07049-0.13277-0.07049-0.23702v-5.2212h2.1338c0.10425 0 0.18321 0.0237 0.23702 0.07078 0.05381 0.04372 0.09766 0.12594 0.13128 0.247h0.16154v-1.7807h-0.16154c-0.03363 0.12443-0.07748 0.2102-0.13128 0.25728-0.05381 0.04708-0.13277 0.07078-0.23702 0.07078h-5.776c-0.10089 0-0.17822-0.0237-0.23203-0.07078-0.05044-0.04708-0.094-0.13285-0.13099-0.25728zm14.84 0c-0.03363 0.12107-0.07718 0.20684-0.13099 0.25728-0.05381 0.04708-0.13114 0.07078-0.23203 0.07078h-5.8335v0.16124c0.12107 0.03363 0.20521 0.07748 0.25229 0.13129s0.07049 0.13276 0.07049 0.23702v5.8265c0 0.10425-0.02341 0.18321-0.07049 0.23702s-0.13122 0.09766-0.25229 0.13129v0.16124h5.9545c0.10089 0 0.17822 0.0237 0.23203 0.07078s0.09736 0.13093 0.13099 0.252h0.16154v-1.7807h-0.16154c-0.03363 0.12107-0.07718 0.20521-0.13099 0.25229s-0.13114 0.07078-0.23203 0.07078h-4.429v-1.8868h2.1931c0.10089 0 0.17822 0.02533 0.23203 0.07577 0.05381 0.04708 0.09765 0.1293 0.13128 0.247h0.16124v-1.7402h-0.16124c-0.03363 0.12107-0.07748 0.20521-0.13128 0.25229-0.05381 0.04708-0.13114 0.07049-0.23203 0.07049h-2.1931v-1.6345h4.308c0.10089 0 0.17822 0.0237 0.23203 0.07078s0.09736 0.1293 0.13099 0.247h0.16154v-1.7807zm25.381 0v1.7807h0.16154c0.0336-0.12107 0.0772-0.20329 0.13099-0.247 0.0538-0.04708 0.13114-0.07078 0.23203-0.07078h2.139v5.2212c0 0.10425-0.0237 0.18321-0.0708 0.23702s-0.13123 0.09766-0.25229 0.13129v0.16124h2.149v-0.16124c-0.12106-0.03363-0.2052-0.07748-0.25229-0.13129-0.0471-0.05381-0.0705-0.13277-0.0705-0.23702v-5.2212h2.1338c0.10425 0 0.18321 0.0237 0.23702 0.07078 0.0538 0.04372 0.0977 0.12594 0.13129 0.247h0.16124v-1.7807h-0.16124c-0.0336 0.12443-0.0775 0.2102-0.13129 0.25728-0.0538 0.04708-0.13277 0.07078-0.23702 0.07078h-5.776c-0.10089 0-0.17822-0.0237-0.23203-0.07078-0.0504-0.04708-0.094-0.13285-0.13099-0.25728zm14.371 0.20677c-1.6008 0.02018-2.7392 0.57703-3.4152 1.67-0.35312 0.57171-0.52985 1.202-0.52985 1.8915 0 0.47082 0.0858 0.91982 0.25729 1.3469 0.19505 0.48427 0.48096 0.8995 0.85761 1.2459 0.70287 0.64906 1.6496 0.97363 2.8401 0.97363 1.5873 0 2.729-0.55818 3.4252-1.6747 0.35647-0.57171 0.53483-1.1871 0.53483-1.8462 0-1.0762-0.37168-1.954-1.1149-2.6333-0.70286-0.64906-1.6545-0.97363-2.8551-0.97363zm-66.702 0.1213v0.16124c0.12107 0.03363 0.20521 0.07748 0.25229 0.13129s0.07049 0.13114 0.07049 0.23202v5.8315c0 0.10425-0.02341 0.18321-0.07049 0.23702s-0.13122 0.09766-0.25229 0.13129v0.16124h2.149v-0.16124c-0.1177-0.03027-0.20185-0.07248-0.25229-0.12629-0.04708-0.05717-0.07049-0.13776-0.07049-0.24201v-5.8315c0-0.10089 0.02341-0.17822 0.07049-0.23202 0.04708-0.05717 0.13122-0.10102 0.25229-0.13129v-0.16124zm3.5958 0v0.16124c0.12107 0.03363 0.20521 0.07748 0.25229 0.13129s0.07049 0.13114 0.07049 0.23202v5.8315c0 0.10425-0.02341 0.18321-0.07049 0.23702s-0.13122 0.09766-0.25229 0.13129v0.16124h2.0227v-0.16124c-0.12107-0.03363-0.20521-0.07748-0.25229-0.13129s-0.07049-0.13277-0.07049-0.23702v-4.187l3.2575 3.9853c0.16479 0.16815 0.2473 0.28577 0.2473 0.35303 0 0.11434-0.07081 0.18678-0.21205 0.21705v0.16124h2.1693v-0.16124c-0.12107-0.03363-0.20521-0.07748-0.25229-0.13129s-0.07049-0.13277-0.07049-0.23702v-5.8315c0-0.10089 0.02341-0.17822 0.07049-0.23202 0.04708-0.05381 0.13122-0.09766 0.25229-0.13129v-0.16124h-2.0227v0.16124c0.12107 0.03363 0.20492 0.07748 0.252 0.13129s0.07078 0.13114 0.07078 0.23202v4.086l-3.197-3.9497c-0.09416-0.09753-0.14127-0.18685-0.14127-0.26756 0-0.1177 0.07214-0.19503 0.21675-0.23203v-0.16124zm24.651 0v0.16124c0.12107 0.03363 0.20492 0.07748 0.252 0.13129s0.07078 0.13276 0.07078 0.23702v5.8315c0 0.10089-0.0237 0.17822-0.07078 0.23203s-0.13093 0.09766-0.252 0.13129v0.16124h2.1487v-0.16124c-0.1177-0.03027-0.20155-0.07248-0.252-0.12629-0.04708-0.05717-0.07078-0.13613-0.07078-0.23702v-2.2853h2.1596l1.0688 2.028c0.15806 0.23204 0.23731 0.37826 0.23731 0.43879 0 0.09416-0.08577 0.1549-0.25728 0.1818v0.16124h2.411v-0.16124c-0.15806-0.01009-0.29257-0.06238-0.40355-0.15654-0.10762-0.09753-0.27916-0.31262-0.51457-0.64556l-1.2559-1.902c1.0212-0.07847 1.7096-0.84898 1.7096-1.9722 0-0.32957-0.06207-0.63889-0.1865-0.9281-0.13116-0.29931-0.32966-0.53647-0.59534-0.71135-0.22868-0.15133-0.4977-0.25725-0.8071-0.31779-0.30603-0.06053-0.55973-0.09076-1.0844-0.09076zm8.5153 0v0.16124c0.12107 0.03363 0.20521 0.07748 0.25229 0.13129s0.07049 0.13114 0.07049 0.23202v5.8315c0 0.10425-0.02341 0.18321-0.07049 0.23702s-0.13122 0.09766-0.25229 0.13129v0.16124h2.0227v-0.16124c-0.12107-0.03363-0.20521-0.07748-0.25229-0.13129s-0.07049-0.13277-0.07049-0.23702v-4.187l3.2575 3.9853c0.16479 0.16815 0.2473 0.28577 0.2473 0.35303 2e-6 0.11434-0.07081 0.18678-0.21205 0.21705v0.16124h2.1693v-0.16124c-0.12107-0.03363-0.20521-0.07748-0.25229-0.13129s-0.07049-0.13277-0.07049-0.23702v-5.8315c0-0.10089 0.02341-0.17822 0.07049-0.23202 0.04708-0.05381 0.13122-0.09766 0.25229-0.13129v-0.16124h-2.023v0.16124c0.12107 0.03363 0.20521 0.07748 0.25229 0.13129s0.07078 0.13114 0.07078 0.23202v4.086l-3.197-3.9497c-0.09416-0.09753-0.14127-0.18685-0.14127-0.26756 0-0.1177 0.07215-0.19503 0.21675-0.23203v-0.16124zm10.961 0v0.16124c0.19505 0.06726 0.29253 0.17836 0.29253 0.33306 0 0.10089-0.04029 0.2354-0.12101 0.40355l-2.5323 5.2917c-0.0908 0.19505-0.17168 0.3263-0.24231 0.39356-0.07062 0.06726-0.17299 0.11437-0.30751 0.14127v0.16124h2.28v-0.16124c-0.22532-0.05717-0.33805-0.15983-0.33805-0.3078 0-0.07735 0.03185-0.18327 0.09575-0.31779l0.46434-0.96863h3.1274l0.47433 0.96863c0.0673 0.13788 0.10074 0.24217 0.10074 0.31279 0 0.17151-0.11081 0.2758-0.33276 0.3128v0.16124h2.5323v-0.16124c-0.14125-0.0269-0.25398-0.08083-0.33806-0.16154-0.0841-0.08407-0.18155-0.23873-0.29253-0.46405l-2.6231-5.3069c-0.0639-0.12443-0.09604-0.23524-0.09604-0.33277 0-0.14124 0.0994-0.24064 0.29782-0.29782v-0.16124zm12.324 0v0.16124c0.12107 0.03363 0.20521 0.07748 0.25229 0.13129 0.0471 0.05381 0.0708 0.13114 0.0708 0.23202v5.8315c0 0.10425-0.0237 0.18321-0.0708 0.23702s-0.13122 0.09766-0.25229 0.13129v0.16124h2.149v-0.16124c-0.1177-0.03027-0.20185-0.07248-0.25229-0.12629-0.0471-0.05717-0.0705-0.13776-0.0705-0.24201v-5.8315c0-0.10089 0.0234-0.17822 0.0705-0.23202 0.0471-0.05717 0.13122-0.10102 0.25229-0.13129v-0.16124zm11.916 0v0.16124c0.12107 0.03363 0.20521 0.07748 0.2523 0.13129 0.0471 0.05381 0.0705 0.13114 0.0705 0.23202v5.8315c0 0.10425-0.0234 0.18321-0.0705 0.23702s-0.13123 0.09766-0.2523 0.13129v0.16124h2.0227v-0.16124c-0.12107-0.03363-0.20492-0.07748-0.252-0.13129-0.0471-0.05381-0.0708-0.13277-0.0708-0.23702v-4.187l3.2575 3.9853c0.16478 0.16815 0.24729 0.28577 0.24729 0.35303 0 0.11434-0.0705 0.18678-0.21176 0.21705v0.16124h2.169v-0.16124c-0.12106-0.03363-0.20521-0.07748-0.25229-0.13129-0.0471-0.05381-0.0705-0.13277-0.0705-0.23702v-5.8315c0-0.10089 0.0234-0.17822 0.0705-0.23202 0.0471-0.05381 0.13123-0.09766 0.25229-0.13129v-0.16124h-2.0227v0.16124c0.12107 0.03363 0.20491 0.07748 0.25199 0.13129 0.0471 0.05381 0.0708 0.13114 0.0708 0.23202v4.086l-3.197-3.9497c-0.0942-0.09753-0.14127-0.18685-0.14127-0.26756 0-0.1177 0.0721-0.19503 0.21676-0.23203v-0.16124zm10.95 0v0.16124c0.19505 0.06726 0.29252 0.17836 0.29252 0.33306 0 0.10089-0.0403 0.2354-0.121 0.40355l-2.5323 5.2917c-0.0908 0.19505-0.17139 0.3263-0.24202 0.39356-0.0706 0.06726-0.17328 0.11437-0.3078 0.14127v0.16124h2.28v-0.16124c-0.22532-0.05717-0.33805-0.15983-0.33805-0.3078 0-0.07735 0.0321-0.18327 0.096-0.31779l0.46405-0.96863h3.1276l0.47404 0.96863c0.0673 0.13788 0.10103 0.24217 0.10103 0.31279 0 0.17151-0.1111 0.2758-0.33306 0.3128v0.16124h2.5323v-0.16124c-0.14124-0.0269-0.25397-0.08083-0.33805-0.16154-0.0841-0.08407-0.18155-0.23873-0.29253-0.46405l-2.6231-5.3069c-0.0639-0.12443-0.0958-0.23524-0.0958-0.33277 0-0.14124 0.0991-0.24064 0.29752-0.29782v-0.16124zm6.2506 0v0.16124c0.12107 0.03363 0.20492 0.07748 0.252 0.13129 0.0471 0.05381 0.0708 0.13276 0.0708 0.23702v5.8265c0 0.10425-0.0237 0.18321-0.0708 0.23702s-0.13093 0.09766-0.252 0.13129v0.16124h6.0582c0.10425 0 0.18321 0.0237 0.23701 0.07078s0.0977 0.13093 0.13129 0.252h0.16154v-1.7807h-0.16154c-0.0336 0.12107-0.0775 0.20521-0.13129 0.25229-0.0538 0.04708-0.13276 0.07078-0.23701 0.07078h-4.2323v-5.2212c0-0.10425 0.0237-0.18321 0.0708-0.23702 0.0471-0.05717 0.13093-0.10102 0.252-0.13129v-0.16124zm-22.455 1.0441c0.66251 0.0067 1.2139 0.20168 1.6544 0.58506 0.5179 0.44728 0.77684 1.061 0.77684 1.8412 0 0.31948-0.0604 0.62909-0.18151 0.9284-0.13788 0.3363-0.33638 0.62028-0.59533 0.85233-0.43383 0.39011-0.98194 0.58535-1.6444 0.58535s-1.2122-0.19524-1.6494-0.58535c-0.5179-0.46073-0.77685-1.0644-0.77685-1.811 0-0.74658 0.25895-1.3502 0.77685-1.811 0.43719-0.39011 0.98367-0.58506 1.6394-0.58506zm-36.635 0.09076h2.3206c0.34975 0 0.59181 0.01008 0.72633 0.03025 0.13788 0.01682 0.2675 0.05903 0.38857 0.12629 0.25559 0.13788 0.38328 0.38676 0.38328 0.7466s-0.1277 0.60842-0.38328 0.7463c-0.1177 0.0639-0.24732 0.10611-0.38857 0.12629s-0.3833 0.03025-0.72633 0.03025h-2.3206zm18.82 0.60033 1.1149 2.4515h-2.2448zm35.189 0 1.1149 2.4515h-2.2451z" style="font-feature-settings:normal;font-variant-caps:normal;font-variant-ligatures:normal;font-variant-numeric:normal"/>
  <path d="m48.562 14.529h96.832v42.112h-96.832z"/>
 </g>
 <g stroke-width=".94182">
  <path d="m108.63 19.987v26.56l15.655 6.7942 15.231-6.8742v-26.197l-15.705 7.1953c-1.9763-4.3718-5.6203-7.0758-11.978-7.0662v22.879c6.2189-0.09938 10.282 2.2844 12.711 6.5491l14.306-6.1614v2.4696l-14.522 6.4709-14.941-6.2728 0.0609-23.978h0.70094v-1.4929zm-19.763 0.35849v1.0055h1.2492l0.0437 11.328-9.9145 17.023c-0.94175 1.6311 0.88567 3.882 3.8823 3.882h18.495c2.6044 0.03717 4.2274-1.7214 3.6068-4.0378l-9.7007-16.802v-11.409h0.71616v-0.99032zm-18.009 0.57093-9.7912 16.308c1.0571 0.6103 1.434 1.1744 0.82708 2.1496l1.9003 1.2378c0.39815-0.86214 1.4341-1.0714 2.1753-0.66277l2.3484-3.9431c4.3528 0 8.9141 7.7466 2.0107 12.857h-9.3228v2.9249h-6.2114v1.8533h22.763v-1.8309h-4.7179v-0.6517c6.122-2.6363 7.5173-15.626-2.6069-18.328l5.3644-9.2423zm21.63 0.08631h2.8436v11.547l2.2406 4.6964-2.2326-0.04287-2.8948-4.524zm-19.142 2.1457 1.4625 0.88351-8.8677 14.661-1.9787-1.4696 8.1651-13.893zm-16.914 17.328-0.72584 1.257 9.1841 5.2399 0.69874-1.21z" fill="#fff"/>
  <path d="m146.83 18.667a1.9958 1.9958 0 0 0-1.9958 1.9958 1.9958 1.9958 0 0 0 1.9958 1.9958 1.9958 1.9958 0 0 0 1.9958-1.9958 1.9958 1.9958 0 0 0-1.9958-1.9958zm0 0.43955a1.5563 1.5563 0 0 1 1.5563 1.5563 1.5563 1.5563 0 0 1-1.5563 1.5563 1.5563 1.5563 0 0 1-1.5563-1.5563 1.5563 1.5563 0 0 1 1.5563-1.5563zm-0.92224 0.36845v2.26h0.61022v-0.73607h0.15822c0.19148-7e-3 0.46035 0.03274 0.45199 0.20968v0.5264h0.59528s0.11957-0.85498-0.36845-1.0028c0.32452-0.08279 0.35767-0.39567 0.35767-0.66941 0-0.17881-0.0756-0.3214-0.22683-0.42737-0.15122-0.10707-0.3533-0.16044-0.60606-0.16044zm0.61022 0.54244h0.17814c0.24835 0 0.37232-0.0022 0.37232 0.25725 0 0.23247-0.12397 0.25698-0.37232 0.25698h-0.17814z" fill="#01539c" style="font-feature-settings:normal;font-variant-caps:normal;font-variant-ligatures:normal;font-variant-numeric:normal"/>
  <path d="m51.553 93.343h91.198v3.6571h-91.198z" fill="#01539c"/>
 </g>
</svg>
