<svg width="200" height="114" version="1.0" xmlns="http://www.w3.org/2000/svg" xmlns:cc="http://creativecommons.org/ns#" xmlns:dc="http://purl.org/dc/elements/1.1/" xmlns:rdf="http://www.w3.org/1999/02/22-rdf-syntax-ns#" xmlns:xlink="http://www.w3.org/1999/xlink">
 <metadata>
  <rdf:RDF>
   <cc:Work rdf:about="">
    <dc:format>image/svg+xml</dc:format>
    <dc:type rdf:resource="http://purl.org/dc/dcmitype/StillImage"/>
    <dc:title/>
   </cc:Work>
  </rdf:RDF>
 </metadata>
 <defs>
  <g id="s">
   <g id="c">
    <path id="t" transform="rotate(18 3.1569 -.5)" d="m0 0v1h0.5z"/>
    <use transform="scale(-1,1)" width="1280" height="580" xlink:href="#t"/>
   </g>
   <g id="a">
    <use transform="rotate(72)" width="1280" height="580" xlink:href="#c"/>
    <use transform="rotate(144)" width="1280" height="580" xlink:href="#c"/>
   </g>
   <use transform="scale(-1,1)" width="1280" height="580" xlink:href="#a"/>
  </g>
 </defs>
 <g fill-rule="evenodd" stroke-width="1.2871">
  <path d="m15.725 25.97 6.4739-1.2632-1.4211-5.6844 5.5264 4.7369 6.6318-0.94739-3.0001 3.7896 5.6844 4.7369-7.2634-2.0527-3.4738 3.9474-1.7369-5.3685z" fill="#ef8104"/>
  <path d="m35.915 21.758 4.4332-0.86501-0.97314-3.8926 3.7845 3.2438 4.5413-0.64877-2.0545 2.5951 3.8926 3.2438-4.9739-1.4056-2.3788 2.7032-1.1894-3.6764z" fill="#f1902b"/>
  <path d="m16.966 40.39 4.4332-0.86501-0.97314-3.8926 3.7845 3.2438 4.5413-0.64877-2.0545 2.5951 3.8926 3.2438-4.9739-1.4056-2.3788 2.7032-1.1894-3.6764z" fill="#ef8104"/>
  <path d="m27.057 52.091 3.6932-0.72606-0.94188-3.2672 3.2807 2.7227 3.7909-0.54454-1.6409 2.1782 3.3714 2.7227-4.2199-1.1798-1.9098 2.2689-1.1164-3.0857z" fill="#f08617"/>
  <path d="m51.058 23.512 3.6932-0.72604-0.94188-3.2672 3.2807 2.7227 3.7909-0.54454-1.6409 2.1782 3.3714 2.7227-4.2199-1.1798-1.9098 2.2689-1.1164-3.0857z" fill="#f4a04a"/>
  <path d="m64.681 30.48 2.783-0.55929-1.0044-2.5168 2.7596 2.0973 2.8737-0.41947-1.0782 1.6779 2.8294 2.0973-3.3514-0.90885-1.2775 1.7478-1.1234-2.377z" fill="#f7b169"/>
  <path d="m73.161 39.05 2.2298-0.44812-0.80476-2.0165 2.211 1.6804 2.3025-0.33609-0.86385 1.3444 2.2671 1.6804-2.6853-0.72819-1.0236 1.4004-0.90009-1.9045z" fill="#f8b978"/>
  <path d="m56.495 60.528 2.0915-0.42032-0.75485-1.8914 2.0739 1.5762 2.1596-0.31524-0.81027 1.261 2.1264 1.5762-2.5187-0.68303-0.96007 1.3135-0.84426-1.7864z" fill="#f4a14d"/>
  <path d="m40.68 59.533 2.783-0.55929-1.0044-2.5168 2.7596 2.0973 2.8737-0.41947-1.0782 1.6779 2.8294 2.0973-3.3514-0.90885-1.2775 1.7478-1.1234-2.377z" fill="#f1902c"/>
 </g>
 <rect x="159.59" y="58.243" width="24.684" height="16.456" fill="#004494" stroke-width=".030475"/>
 <g fill="#ffec00">
  <use transform="matrix(.91423 0 0 .91423 171.92 66.472)" y="-6" width="1280" height="580" xlink:href="#s"/>
  <use transform="matrix(.91423 0 0 .91423 171.92 66.472)" y="6" width="1280" height="580" xlink:href="#s"/>
  <use transform="matrix(.91423 0 0 .91423 171.92 66.472)" x="-6" width="1280" height="580" xlink:href="#s"/>
  <use transform="matrix(-.73962 -.53737 .53737 -.73962 169.18 61.721)" width="1280" height="580" xlink:href="#s"/>
  <use transform="matrix(-.73962 .53737 -.53737 -.73962 167.17 63.729)" width="1280" height="580" xlink:href="#s"/>
  <use transform="matrix(.28251 .86948 -.86948 .28251 167.17 69.214)" width="1280" height="580" xlink:href="#s"/>
  <use transform="matrix(.28251 .86948 -.86948 .28251 169.18 71.222)" width="1280" height="580" xlink:href="#s"/>
  <use transform="matrix(-.91423 0 0 .91423 171.92 66.472)" x="-6" width="1280" height="580" xlink:href="#s"/>
  <use transform="matrix(.73962 -.53737 -.53737 -.73962 174.68 61.721)" width="1280" height="580" xlink:href="#s"/>
  <use transform="matrix(.73962 .53737 .53737 -.73962 176.68 63.729)" width="1280" height="580" xlink:href="#s"/>
  <use transform="matrix(-.28251 .86948 .86948 .28251 176.68 69.214)" width="1280" height="580" xlink:href="#s"/>
  <use transform="matrix(-.28251 .86948 .86948 .28251 174.68 71.222)" width="1280" height="580" xlink:href="#s"/>
 </g>
 <path d="m80.503 52.826c-0.90042 2.1e-5 -1.7371 0.18179-2.5101 0.54533-0.77301 0.36357-1.4483 0.85697-2.0259 1.4802-0.57763 0.62326-1.0448 1.3547-1.4015 2.1943-0.35677 0.83966-0.57763 1.7355-0.66258 2.6877h12.232c-1.7e-5 -0.96946-0.12319-1.874-0.3695-2.7136-0.24635-0.83962-0.60737-1.571-1.083-2.1943-0.47571-0.62322-1.0618-1.1123-1.7583-1.4672-0.69657-0.35488-1.5036-0.53232-2.4209-0.53235zm2.1661 19.008c1.3081 3e-6 2.5016-0.1082 3.5805-0.3246 1.0788-0.2164 2.1533-0.52368 3.2237-0.92186v3.3498c-0.86646 0.4328-1.9367 0.77471-3.2109 1.0257-1.2742 0.25102-2.6418 0.37653-4.1028 0.37653-1.7328-1e-6 -3.3596-0.22506-4.8801-0.67516-1.5205-0.45011-2.8499-1.1772-3.9881-2.1813-1.1383-1.0041-2.0344-2.3155-2.6885-3.9342-0.65408-1.6187-0.98111-3.5706-0.98111-5.8558-1e-6 -2.2505 0.3058-4.2025 0.9174-5.8558 0.61159-1.6533 1.427-3.034 2.4464-4.1419 1.0193-1.1079 2.1916-1.9389 3.5168-2.493 1.3251-0.55396 2.7097-0.83096 4.1537-0.83098 1.3591 2.4e-5 2.629 0.22941 3.8098 0.68815 1.1807 0.45879 2.2043 1.1816 3.0708 2.1684 0.86642 0.98681 1.5502 2.2593 2.0514 3.8173 0.50115 1.558 0.75175 3.4278 0.75177 5.6091-2.4e-5 0.20776-2.4e-5 0.3852 0 0.53235-2.4e-5 0.14717-0.0082 0.48042-0.02543 0.99977h-16.615c-7e-6 1.5754 0.23358 2.9127 0.70079 4.012 0.46719 1.0993 1.1043 1.9909 1.9112 2.6747 0.80696 0.68383 1.7541 1.1816 2.8414 1.4932 1.0873 0.31162 2.2595 0.46742 3.5168 0.46742zm28.388-31.577c-0.5097-0.10384-1.0703-0.18174-1.6819-0.23371-0.61161-0.0519-1.1383-0.07787-1.5799-0.07791-0.88344 3.5e-5 -1.6776 0.11256-2.3827 0.33758-0.70505 0.22509-1.2955 0.58432-1.7711 1.0777-0.47571 0.49342-0.84095 1.1426-1.0958 1.9476-0.25485 0.80503-0.38227 1.7788-0.38226 2.9213v3.7913h7.2118v3.4537h-7.2118v21.215h-3.9499v-21.215h-4.2557v-3.4537h4.2557v-3.7654c0-1.7832 0.2336-3.285 0.7008-4.5055 0.46719-1.2205 1.1085-2.2245 1.924-3.0123 0.81547-0.78766 1.7753-1.3676 2.8796-1.7399 1.1043-0.37217 2.2935-0.55827 3.5677-0.55831 0.81545 3.7e-5 1.5672 0.04331 2.2553 0.12984 0.68805 0.0866 1.1935 0.18182 1.5163 0.28565zm5.1222 16.333c-2e-5 0.67519 0.14438 1.2292 0.43321 1.6619 0.2888 0.43282 0.67531 0.78338 1.1595 1.0517 0.48416 0.26835 1.0448 0.48907 1.6819 0.66219 0.6371 0.17313 1.2954 0.32895 1.9749 0.46742 0.93439 0.20776 1.8178 0.43714 2.6503 0.68815 0.83245 0.25104 1.6012 0.62758 2.3062 1.1296 0.70502 0.50206 1.2741 1.1816 1.7073 2.0385s0.64981 1.9693 0.64982 3.337c-1e-5 1.2465-0.23787 2.3501-0.71354 3.311-0.4757 0.96082-1.1468 1.7658-2.0132 2.415-0.86646 0.6492-1.9027 1.1426-3.109 1.4802-1.2062 0.33758-2.5314 0.50637-3.9754 0.50637-0.88344-2e-6 -1.6861-0.04761-2.4082-0.14282-0.72204-0.09522-1.3592-0.2164-1.9112-0.36356-0.55214-0.14716-1.0236-0.29863-1.4143-0.45444-0.39075-0.1558-0.71353-0.30296-0.96838-0.44145v-3.3758c1.0193 0.41549 2.0302 0.74442 3.0326 0.98679 1.0024 0.24238 2.1066 0.36356 3.3129 0.36356 0.95136 4e-6 1.8093-0.08656 2.5738-0.25969 0.76448-0.17312 1.4228-0.42846 1.9749-0.76606 0.5521-0.33758 0.97683-0.76172 1.2741-1.2724 0.29731-0.5107 0.44596-1.1036 0.44597-1.7788-1e-5 -0.69248-0.13592-1.2638-0.40774-1.7139-0.27184-0.4501-0.63709-0.82231-1.0958-1.1166-0.45871-0.2943-0.98963-0.53666-1.5927-0.7271-0.60312-0.19043-1.236-0.36354-1.8985-0.51936-0.86647-0.19041-1.7456-0.41548-2.6375-0.67516-0.89193-0.25967-1.7031-0.62322-2.4337-1.0907-0.73053-0.46741-1.3208-1.1036-1.7711-1.9086-0.4502-0.805-0.67532-1.8394-0.67532-3.1032 0-1.2984 0.22936-2.4236 0.68805-3.3758 0.45871-0.95214 1.0788-1.7398 1.8604-2.3631 0.78147-0.6232 1.6904-1.0906 2.7267-1.4023 1.0363-0.3116 2.1321-0.4674 3.2874-0.46742 1.3422 2.4e-5 2.5866 0.12987 3.7334 0.38952 1.1467 0.25971 2.1873 0.58863 3.1218 0.98679v3.4278c-1.0194-0.39815-2.0514-0.72276-3.0963-0.9738-1.0448-0.251-2.1194-0.38517-3.2237-0.4025-0.93441 2.4e-5 -1.733 0.09525-2.3954 0.28565-0.66259 0.19045-1.2062 0.45446-1.6309 0.79202-0.42474 0.33761-0.73479 0.73579-0.93014 1.1945-0.19539 0.45879-0.29308 0.96516-0.29306 1.5192zm32.721 15.373h-0.10194c-0.3228 0.41549-0.73054 0.82666-1.2232 1.2335-0.49271 0.40683-1.0618 0.77038-1.7074 1.0907-0.6456 0.32027-1.3507 0.57562-2.1151 0.76606-0.7645 0.19043-1.5799 0.28565-2.4464 0.28565-1.1722-1e-6 -2.2468-0.17744-3.2237-0.53235-0.97687-0.35489-1.8178-0.87425-2.5229-1.558-0.70505-0.68383-1.2529-1.5192-1.6436-2.5059-0.39075-0.98679-0.58612-2.1034-0.58612-3.3498 0-1.2291 0.2166-2.3285 0.64982-3.298 0.43321-0.96946 1.0406-1.7918 1.822-2.467 0.78149-0.67515 1.7201-1.1945 2.8159-1.558 1.0958-0.36353 2.3062-0.54531 3.6314-0.54532 1.2572 0.01731 2.4209 0.12986 3.4913 0.33758 1.0703 0.20775 2.0217 0.46744 2.8542 0.77903h0.10194v-1.7139c0-0.67515-0.0423-1.2724-0.12742-1.7918-0.085-0.51935-0.22939-0.97811-0.43323-1.3763-0.44174-0.83096-1.1468-1.5192-2.1151-2.0645-0.96837-0.54531-2.2765-0.81797-3.9244-0.818-1.2232 2.2e-5 -2.3742 0.11688-3.453 0.35057-1.0788 0.23374-2.1533 0.55833-3.2237 0.9738v-3.3758c0.40773-0.20773 0.88766-0.40248 1.4398-0.58428 0.55213-0.18175 1.134-0.33756 1.7456-0.46742 0.6116-0.12982 1.2572-0.22936 1.9367-0.29863 0.67954-0.06922 1.359-0.10386 2.0386-0.10387 2.4464 2.5e-5 4.4468 0.44148 6.0014 1.3244 1.5544 0.88294 2.6715 2.0515 3.3511 3.5057 0.25482 0.55401 0.43745 1.1643 0.5479 1.8308 0.11043 0.66653 0.16562 1.3979 0.16565 2.1943v16.463h-3.3129zm-0.20387-8.1021c-0.73053-0.20774-1.5969-0.40682-2.5993-0.59727-1.0024-0.19041-2.1066-0.2943-3.3129-0.31162-1.6819 1.1e-5 -2.9986 0.36357-3.9499 1.0907-0.95139 0.72711-1.4272 1.8438-1.427 3.3498-1e-5 0.76174 0.11893 1.4283 0.35676 1.9995 0.23785 0.57131 0.56488 1.0431 0.98113 1.4153 0.41621 0.37222 0.90889 0.6492 1.478 0.83098 0.56912 0.18178 1.1764 0.27266 1.822 0.27266 0.84944 4e-6 1.6394-0.1255 2.37-0.37653 0.73051-0.25102 1.3803-0.54964 1.9494-0.8959 0.56912-0.34623 1.0533-0.69248 1.4525-1.0387 0.39922-0.34623 0.69228-0.61457 0.87917-0.80501z" fill="#004494" stroke="#004494" stroke-width=".32632"/>
 <path d="m16.253 94.325v-8.7859h6.1372v1.0368h-5.0139v2.691h4.6955v1.0308h-4.6955v2.9906h5.2108v1.0368zm11.794 0v-0.93494c-0.47862 0.71918-1.129 1.0788-1.9511 1.0788-0.36282 0-0.70152-0.07192-1.0161-0.21576-0.31458-0.14383-0.5481-0.32462-0.70056-0.54239-0.15247-0.21774-0.25958-0.48444-0.32134-0.80008-0.04245-0.21175-0.06367-0.54737-0.06367-1.0069v-3.9434h1.0422v3.53c-3e-6 0.56335 0.02124 0.94292 0.06369 1.1387 0.06562 0.28366 0.20457 0.50642 0.41687 0.66823 0.2123 0.16182 0.47476 0.24272 0.78741 0.24272 0.31264 0 0.606-0.0829 0.88005-0.24872 0.27405-0.1658 0.468-0.39155 0.58187-0.67722 0.11386-0.28567 0.1708-0.70021 0.1708-1.2436v-3.4101h1.0422v6.3647zm2.559 0v-6.3647h0.93794v0.96489c0.23931-0.45148 0.46028-0.74914 0.66292-0.89298 0.20264-0.14383 0.42554-0.21574 0.66872-0.21576 0.35124 8e-6 0.70828 0.11588 1.0711 0.34761l-0.35896 1.0009c-0.25476-0.15582-0.5095-0.23372-0.76426-0.23374-0.22773 6e-6 -0.4323 0.07092-0.61372 0.21276-0.18142 0.14184-0.31072 0.33862-0.38791 0.59032-0.1158 0.38357-0.1737 0.80308-0.1737 1.2586v3.3322zm3.5838-3.1824c0-1.1787 0.31651-2.0516 0.94952-2.619 0.5288-0.47145 1.1734-0.70719 1.9337-0.70719 0.84531 7e-6 1.5362 0.28668 2.0728 0.86002 0.53652 0.57335 0.80478 1.3655 0.80478 2.3763-5e-6 0.81906-0.1187 1.4633-0.35606 1.9327-0.23739 0.46947-0.58284 0.83406-1.0364 1.0938-0.45354 0.25971-0.94856 0.38956-1.4851 0.38956-0.86075 0-1.5565-0.28567-2.0872-0.85702-0.53072-0.57135-0.7961-1.3945-0.7961-2.4692zm1.0711 0c-1e-6 0.81507 0.17176 1.4253 0.51529 1.8309 0.34353 0.40554 0.77583 0.60831 1.2969 0.60831 0.51721 0 0.94759-0.20376 1.2911-0.6113 0.34352-0.40754 0.51528-1.0288 0.51529-1.8639-6e-6 -0.78709-0.17273-1.3834-0.51819-1.7889-0.34546-0.40553-0.77486-0.6083-1.2883-0.6083-0.52108 7e-6 -0.95338 0.20178-1.2969 0.6053-0.34353 0.40355-0.51529 1.0128-0.51529 1.8279zm5.9172 5.6216v-8.8039h0.94952v0.82706c0.22387-0.32363 0.47669-0.56635 0.75847-0.72817 0.28176-0.1618 0.62336-0.24271 1.0248-0.24272 0.52493 7e-6 0.98811 0.13986 1.3896 0.41952 0.40142 0.27969 0.70442 0.67424 0.90899 1.1836 0.20456 0.50942 0.30685 1.0678 0.30686 1.675-6e-6 0.65125-0.1129 1.2376-0.3387 1.759-0.22581 0.52141-0.55389 0.92095-0.98426 1.1986-0.43038 0.27768-0.88294 0.41652-1.3576 0.41652-0.34739 0-0.65908-0.07593-0.93504-0.22774-0.27598-0.15183-0.50274-0.34361-0.6803-0.57534v3.0984zm0.94373-5.5857c0 0.81906 0.16018 1.4243 0.48055 1.816 0.32036 0.39155 0.70828 0.58733 1.1638 0.58733 0.46318 0 0.85977-0.20277 1.1898-0.60831 0.33001-0.40553 0.49502-1.0338 0.49502-1.8848-7e-6 -0.81107-0.16116-1.4184-0.48345-1.8219-0.3223-0.40353-0.70732-0.6053-1.1551-0.60531-0.44388 7e-6 -0.83662 0.21477-1.1782 0.64426-0.3416 0.42951-0.5124 1.0538-0.5124 1.8729zm9.8658 1.0968 1.0769 0.13784c-0.16983 0.65125-0.48442 1.1567-0.94373 1.5162-0.45933 0.35959-1.046 0.53938-1.7601 0.53938-0.89935 0-1.6125-0.28666-2.1393-0.86002-0.52686-0.57334-0.79031-1.3775-0.79031-2.4123 0-1.0708 0.26633-1.9018 0.79898-2.4931 0.53266-0.59132 1.2236-0.88698 2.0728-0.88698 0.82214 8e-6 1.4938 0.28968 2.0148 0.869 0.52107 0.57934 0.78161 1.3944 0.78162 2.4452-6e-6 0.06394-0.0019 0.15982-0.0059 0.28767h-4.5854c0.0386 0.6992 0.22966 1.2346 0.57319 1.6062 0.34353 0.37157 0.77197 0.55737 1.2853 0.55737 0.38212 0 0.70828-0.10388 0.97847-0.31165s0.4844-0.53938 0.64266-0.99486zm-3.4218-1.744h3.4334c-0.04631-0.53538-0.17756-0.93692-0.3937-1.2046-0.33194-0.41552-0.76233-0.62328-1.2911-0.62329-0.47862 6e-6 -0.88101 0.16582-1.2072 0.49743-0.32615 0.33162-0.5066 0.77512-0.54134 1.3305zm9.8253 3.0086c-0.38599 0.33962-0.7575 0.57934-1.1145 0.71917-0.35704 0.13984-0.74012 0.20976-1.1493 0.20976-0.67547 0-1.1946-0.1708-1.5574-0.51241-0.36282-0.3416-0.54424-0.77811-0.54424-1.3095 0-0.31163 0.06851-0.5963 0.20554-0.85402 0.13702-0.2577 0.31651-0.46446 0.53845-0.6203 0.22194-0.15582 0.47187-0.27369 0.74978-0.35359 0.20457-0.05593 0.51336-0.10987 0.92637-0.16182 0.84145-0.10387 1.461-0.22774 1.8586-0.37158 0.0039-0.14782 0.0059-0.24172 0.0059-0.28168-4e-6 -0.4395-0.09842-0.74913-0.29528-0.92894-0.26633-0.24371-0.66197-0.36558-1.1869-0.36559-0.49021 8e-6 -0.85206 0.0889-1.0856 0.2667-0.23352 0.1778-0.40625 0.49245-0.51819 0.94392l-1.019-0.14384c0.09265-0.45148 0.2451-0.81605 0.45739-1.0937 0.2123-0.27768 0.51914-0.49143 0.92058-0.64126 0.40142-0.14982 0.86653-0.22473 1.3954-0.22474 0.52493 7e-6 0.95146 0.06393 1.2795 0.19178 0.32808 0.12786 0.56933 0.28867 0.72373 0.48245 0.15439 0.19379 0.26247 0.4385 0.32422 0.73416 0.03473 0.1838 0.05209 0.51542 0.0521 0.99486v1.4383c-6e-6 1.0028 0.02219 1.6371 0.06658 1.9029 0.04438 0.2657 0.1322 0.5204 0.26343 0.76413h-1.0885c-0.10808-0.22374-0.17756-0.48544-0.20843-0.78511zm-0.08684-2.4092c-0.37827 0.15982-0.94566 0.29566-1.7022 0.40754-0.42845 0.06392-0.73145 0.13584-0.90899 0.21576-0.17756 0.07992-0.31458 0.19677-0.41108 0.3506-0.09649 0.15382-0.14475 0.32462-0.14475 0.51241-1e-6 0.28767 0.10518 0.5274 0.31555 0.71917 0.21036 0.19178 0.51819 0.28767 0.92347 0.28767 0.40142 0 0.75845-0.0909 1.0711-0.27269 0.31264-0.18179 0.54231-0.43051 0.68899-0.74614 0.11193-0.24373 0.1679-0.6033 0.1679-1.0788zm2.6749 3.1943v-6.3647h0.93794v0.90496c0.45159-0.6992 1.1039-1.0488 1.9569-1.0488 0.37054 7e-6 0.71118 0.06891 1.0219 0.20676 0.31071 0.13785 0.54327 0.31864 0.69766 0.54239 0.15439 0.22375 0.26247 0.48945 0.32422 0.79709 0.03859 0.19977 0.05789 0.54938 0.05789 1.0488v3.9136h-1.0422v-3.8716c-4e-6 -0.4395-0.04053-0.76812-0.12158-0.98587-0.08106-0.21775-0.22484-0.39155-0.43134-0.52141-0.2065-0.12984-0.44871-0.19476-0.72662-0.19478-0.44388 7e-6 -0.82698 0.14584-1.1493 0.4375-0.3223 0.29167-0.48345 0.84504-0.48345 1.6601v3.476zm10.08 0v-8.7859h5.7261v1.0368h-4.6028v2.7209h3.9833v1.0368h-3.9833v3.9914zm6.6698-3.1824c0-1.1787 0.31651-2.0516 0.94952-2.619 0.52879-0.47145 1.1734-0.70719 1.9337-0.70719 0.84531 8e-6 1.5362 0.28668 2.0728 0.86002 0.5365 0.57335 0.80478 1.3655 0.80478 2.3763 0 0.81906-0.1187 1.4633-0.35606 1.9327-0.23739 0.46947-0.58284 0.83406-1.0364 1.0938-0.45354 0.25971-0.94856 0.38956-1.4851 0.38956-0.86075 0-1.5565-0.28567-2.0872-0.85702-0.53072-0.57135-0.7961-1.3945-0.7961-2.4692zm1.0711 0c-1e-6 0.81507 0.17176 1.4253 0.51529 1.8309 0.34353 0.40554 0.77583 0.60831 1.2969 0.60831 0.51721 0 0.94759-0.20376 1.2911-0.6113 0.34353-0.40754 0.51529-1.0288 0.51529-1.8639 0-0.78709-0.17273-1.3834-0.51819-1.7889-0.34546-0.40553-0.77486-0.6083-1.2883-0.6083-0.52108 7e-6 -0.95338 0.20178-1.2969 0.6053-0.34353 0.40355-0.51529 1.0128-0.51529 1.8279zm5.5293 0c0-1.1787 0.31651-2.0516 0.94952-2.619 0.52879-0.47145 1.1734-0.70719 1.9337-0.70719 0.84531 8e-6 1.5363 0.28668 2.0728 0.86002 0.5365 0.57335 0.80476 1.3655 0.80478 2.3763-8e-6 0.81906-0.1187 1.4633-0.35606 1.9327-0.23738 0.46947-0.58284 0.83406-1.0364 1.0938-0.45354 0.25971-0.94856 0.38956-1.4851 0.38956-0.86074 0-1.5565-0.28567-2.0872-0.85702-0.53074-0.57135-0.7961-1.3945-0.7961-2.4692zm1.0711 0c0 0.81507 0.17176 1.4253 0.51531 1.8309 0.34352 0.40554 0.77582 0.60831 1.2969 0.60831 0.51722 0 0.94759-0.20376 1.2911-0.6113 0.34352-0.40754 0.51528-1.0288 0.51529-1.8639-8e-6 -0.78709-0.17274-1.3834-0.5182-1.7889-0.34546-0.40553-0.77486-0.6083-1.2883-0.6083-0.52107 7e-6 -0.95338 0.20178-1.2969 0.6053-0.34354 0.40355-0.51531 1.0128-0.51531 1.8279zm9.9063 3.1824v-0.80309c-0.38985 0.63129-0.96304 0.94692-1.7196 0.94692-0.49021 0-0.94085-0.13983-1.3518-0.41952-0.41109-0.27968-0.72952-0.67024-0.95533-1.1717-0.2258-0.50143-0.33869-1.0778-0.33869-1.729 0-0.63528 0.10227-1.2116 0.30686-1.729 0.20456-0.5174 0.51143-0.91395 0.92056-1.1896 0.40915-0.27567 0.86654-0.41352 1.3722-0.41352 0.37053 8e-6 0.70056 0.08092 0.99004 0.24272 0.2895 0.16183 0.52493 0.37258 0.70636 0.63228v-3.1524h1.0364v8.7859zm-3.2943-3.1763c0 0.81506 0.16597 1.4243 0.49792 1.8279 0.33194 0.40353 0.72373 0.6053 1.1753 0.6053 0.45546 0 0.84241-0.19278 1.1609-0.57834 0.31843-0.38557 0.47766-0.97389 0.47766-1.765 0-0.871-0.16211-1.5103-0.48635-1.9178-0.32424-0.40752-0.72373-0.6113-1.1985-0.6113-0.46319 8e-6 -0.85013 0.19578-1.1608 0.58733-0.31073 0.39155-0.46609 1.0088-0.46609 1.8519zm8.9451 0.35359 1.0595-0.09589c0.0502 0.4395 0.16696 0.80008 0.3503 1.0818 0.18333 0.28167 0.468 0.50942 0.85398 0.68321 0.38599 0.17381 0.82022 0.2607 1.3027 0.2607 0.42844 7e-6 0.8067-0.06593 1.1348-0.19776 0.32809-0.13185 0.57222-0.31265 0.73241-0.54239 0.16018-0.22975 0.24028-0.48045 0.24028-0.75215 0-0.27568-0.0772-0.51641-0.2316-0.72217-0.15439-0.20576-0.40915-0.37856-0.76423-0.51841-0.22776-0.09189-0.73145-0.23473-1.5112-0.4285-0.77967-0.19377-1.3258-0.37657-1.6385-0.54837-0.4053-0.21975-0.70731-0.49242-0.9061-0.81806-0.19878-0.32562-0.29817-0.6902-0.29817-1.0938 0-0.44348 0.12163-0.85801 0.36475-1.2436 0.24318-0.38555 0.59828-0.67822 1.0653-0.878 0.46704-0.19976 0.98618-0.29965 1.5574-0.29966 0.62915 9e-6 1.184 0.10489 1.6646 0.31465 0.48054 0.20977 0.85013 0.51842 1.1087 0.92594 0.25859 0.40754 0.39755 0.86902 0.41685 1.3844l-1.0769 0.08391c-0.058-0.55536-0.2538-0.97488-0.58767-1.2586-0.33388-0.28366-0.82697-0.4255-1.4793-0.42552-0.67933 6e-6 -1.1744 0.12886-1.4851 0.38656-0.31072 0.25772-0.46607 0.56836-0.46607 0.93193 0 0.31565 0.10992 0.57535 0.33002 0.77911 0.21615 0.20377 0.78065 0.41254 1.6936 0.62628 0.91283 0.21376 1.5391 0.40055 1.8788 0.56035 0.49405 0.23573 0.85882 0.53439 1.0943 0.89598 0.23542 0.36159 0.35315 0.77811 0.35317 1.2496-2e-5 0.46746-0.12933 0.90796-0.38791 1.3215-0.25863 0.41352-0.63014 0.73516-1.1145 0.96489-0.48442 0.22974-1.0296 0.34461-1.6357 0.34461-0.76812 0-1.4117-0.11585-1.9309-0.34761-0.51915-0.23173-0.92636-0.58033-1.2216-1.0458-0.29529-0.46547-0.45064-0.99187-0.46609-1.5792zm12.182 2.0376c-0.38599 0.33962-0.75751 0.57934-1.1145 0.71917-0.35704 0.13984-0.74012 0.20976-1.1493 0.20976-0.67547 0-1.1946-0.1708-1.5574-0.51241-0.36282-0.3416-0.54424-0.77811-0.54424-1.3095 0-0.31163 0.0685-0.5963 0.20554-0.85402 0.13703-0.2577 0.3165-0.46446 0.53845-0.6203 0.22194-0.15582 0.47185-0.27369 0.74978-0.35359 0.20457-0.05593 0.51336-0.10987 0.92635-0.16182 0.84146-0.10387 1.461-0.22774 1.8586-0.37158 4e-3 -0.14782 5e-3 -0.24172 5e-3 -0.28168-1e-5 -0.4395-0.0985-0.74914-0.29527-0.92894-0.26634-0.24371-0.66197-0.36558-1.1869-0.36559-0.49022 8e-6 -0.85207 0.0889-1.0856 0.2667-0.23353 0.1778-0.40626 0.49245-0.5182 0.94392l-1.019-0.14383c0.0927-0.45148 0.2451-0.81605 0.45739-1.0937 0.21229-0.27768 0.51914-0.49143 0.92056-0.64126 0.40143-0.14982 0.86654-0.22473 1.3954-0.22474 0.52493 8e-6 0.95146 0.06393 1.2795 0.19178 0.32808 0.12786 0.56932 0.28867 0.72373 0.48245 0.15437 0.19379 0.26245 0.4385 0.32422 0.73417 0.0348 0.1838 0.0521 0.51542 0.0521 0.99486v1.4383c0 1.0028 0.0221 1.6371 0.0665 1.9029s0.13218 0.5204 0.26343 0.76413h-1.0885c-0.10812-0.22374-0.17754-0.48544-0.20843-0.78511zm-0.0869-2.4092c-0.37826 0.15982-0.94566 0.29566-1.7022 0.40754-0.42846 0.06392-0.73144 0.13584-0.90901 0.21576-0.17756 0.07992-0.31457 0.19677-0.41106 0.3506-0.0965 0.15382-0.14475 0.32462-0.14475 0.51241 0 0.28767 0.10528 0.5274 0.31555 0.71917 0.21035 0.19178 0.51818 0.28767 0.92347 0.28767 0.40141 0 0.75845-0.0909 1.0711-0.27269 0.31264-0.18179 0.54231-0.43051 0.68898-0.74614 0.11198-0.24373 0.1679-0.6033 0.1679-1.0788zm2.9238 3.1943v-5.5257h-0.92057v-0.83904h0.92057v-0.67722c0-0.4275 0.0367-0.74513 0.10992-0.95291 0.1004-0.27968 0.27695-0.50641 0.52978-0.68022 0.25281-0.17378 0.60696-0.26069 1.0624-0.2607 0.29335 9e-6 0.61757 0.03596 0.97268 0.10789l-0.15631 0.94093c-0.21616-0.03994-0.42072-0.05993-0.61373-0.05994-0.3165 9e-6 -0.54037 0.06992-0.67161 0.20976-0.13124 0.13984-0.19686 0.40155-0.19686 0.7851v0.58733h1.1985v0.83904h-1.1985v5.5257zm7.2487-2.0496 1.0769 0.13784c-0.16984 0.65125-0.48442 1.1567-0.94375 1.5162-0.45931 0.35959-1.046 0.53937-1.7601 0.53937-0.89935 0-1.6125-0.28666-2.1393-0.86002-0.52687-0.57334-0.79031-1.3775-0.79031-2.4123 0-1.0708 0.26632-1.9018 0.79898-2.4931 0.53267-0.59132 1.2236-0.88698 2.0728-0.88698 0.82212 8e-6 1.4938 0.28968 2.0148 0.869 0.52109 0.57934 0.78164 1.3945 0.78164 2.4452 0 0.06394-1e-3 0.15982-5e-3 0.28767h-4.5854c0.0386 0.6992 0.22967 1.2346 0.57319 1.6062 0.34353 0.37158 0.77197 0.55737 1.2853 0.55737 0.38212 0 0.70827-0.10388 0.97846-0.31165 0.27019-0.20776 0.48442-0.53938 0.64267-0.99486zm-3.4218-1.744h3.4334c-0.0463-0.53538-0.17755-0.93692-0.3937-1.2046-0.33197-0.41552-0.76233-0.62328-1.2911-0.62329-0.47863 7e-6 -0.881 0.16582-1.2072 0.49743-0.32616 0.33162-0.50662 0.77512-0.54134 1.3305zm8.0883 2.8288 0.15053 0.95291c-0.29335 0.06392-0.55583 0.09589-0.7874 0.09589-0.37827 0-0.67163-0.06192-0.88005-0.18579-0.20843-0.12384-0.35511-0.28666-0.44002-0.48843-0.0849-0.20177-0.12743-0.62628-0.12743-1.2735v-3.6618h-0.76424v-0.83904h0.76424v-1.5762l1.0364-0.64726v2.2235h1.048v0.83904h-1.048v3.7218c0 0.30764 0.0184 0.50542 0.055 0.59333 0.0367 0.0879 0.0965 0.15781 0.1795 0.20975 0.083 0.05192 0.20167 0.07792 0.35607 0.07792 0.11584 8e-6 0.26824-0.01399 0.45738-0.042zm0.96689 3.4161-0.11584-1.0128c0.22771 0.06392 0.42651 0.09589 0.59634 0.09589 0.23159 0 0.41687-0.03993 0.55581-0.11987 0.13896-0.07992 0.25283-0.19178 0.3416-0.33561 0.0656-0.10788 0.17176-0.37558 0.31844-0.80309 0.0192-0.05991 0.0501-0.14782 0.0927-0.2637l-2.3333-6.3767h1.1232l1.2795 3.6858c0.16598 0.46746 0.31459 0.95891 0.44582 1.4743 0.1197-0.49542 0.26245-0.97887 0.42844-1.4503l1.3143-3.7098h1.0422l-2.3391 6.4726c-0.25089 0.6992-0.44581 1.1806-0.58475 1.4444-0.1853 0.35559-0.39758 0.61629-0.63689 0.7821-0.23932 0.1658-0.52495 0.24871-0.85689 0.24872-0.20071-9e-6 -0.42458-0.04393-0.67161-0.13185zm8.4646-2.4512 3.2596-8.7859h1.21l3.4739 8.7859h-1.2795l-0.99001-2.661h-3.5491l-0.93215 2.661zm2.4491-3.6079h2.8776l-0.88585-2.4333c-0.2702-0.73915-0.4709-1.3464-0.60215-1.8219-0.10812 0.56337-0.26055 1.1227-0.4574 1.6781zm10.3 3.6079v-0.93494c-0.47862 0.71918-1.129 1.0788-1.9511 1.0788-0.36282 0-0.70152-0.07192-1.0161-0.21576-0.31457-0.14383-0.5481-0.32462-0.70056-0.54239-0.15247-0.21774-0.25957-0.48444-0.32132-0.80008-0.0423-0.21176-0.0637-0.54737-0.0637-1.0069v-3.9434h1.0422v3.53c-1e-5 0.56335 0.0212 0.94292 0.0637 1.1387 0.0656 0.28367 0.20456 0.50642 0.41686 0.66823 0.21229 0.16182 0.47477 0.24272 0.78742 0.24272 0.31262 0 0.60598-0.0829 0.88003-0.24872 0.27404-0.1658 0.468-0.39155 0.58187-0.67722 0.11378-0.28567 0.17079-0.70021 0.1708-1.2436v-3.4101h1.0422v6.3647zm4.8461-0.96489 0.15052 0.95291c-0.29334 0.06392-0.55581 0.09589-0.78741 0.09589-0.37827 0-0.67161-0.06192-0.88005-0.18579-0.20842-0.12384-0.35509-0.28666-0.44002-0.48843-0.0849-0.20177-0.12742-0.62628-0.12742-1.2735v-3.6618h-0.76429v-0.83904h0.76425v-1.5762l1.0364-0.64726v2.2235h1.048v0.83904h-1.048v3.7218c0 0.30764 0.0184 0.50542 0.0551 0.59333 0.0367 0.0879 0.0965 0.15781 0.17947 0.20975 0.083 0.05192 0.20168 0.07792 0.35607 0.07792 0.11584 7e-6 0.26827-0.01399 0.45741-0.042zm1.0132 0.96489v-8.7859h1.0421v3.1524c0.48635-0.58333 1.1001-0.87499 1.8412-0.875 0.45546 7e-6 0.85108 0.0929 1.1869 0.27868 0.33582 0.18579 0.57611 0.44251 0.72084 0.77013 0.14475 0.32763 0.21711 0.80309 0.21712 1.4264v4.0334h-1.0422v-4.0334c0-0.53938-0.11288-0.93193-0.3387-1.1777-0.22581-0.24571-0.5452-0.36858-0.9582-0.36858-0.30879 6e-6 -0.59924 0.0829-0.87137 0.24872-0.27212 0.16582-0.46607 0.39056-0.58187 0.67422-0.11584 0.28368-0.1737 0.67523-0.1737 1.1747v3.482zm6.2125-3.1824c0-1.1787 0.31649-2.0516 0.94951-2.619 0.52881-0.47145 1.1734-0.70719 1.9338-0.70719 0.84531 8e-6 1.5362 0.28668 2.0728 0.86002 0.53653 0.57336 0.80477 1.3655 0.8048 2.3763-3e-5 0.81906-0.11867 1.4633-0.35609 1.9327-0.23738 0.46947-0.58283 0.83406-1.0364 1.0938-0.45352 0.25971-0.94856 0.38956-1.4851 0.38956-0.86075 0-1.5565-0.28567-2.0872-0.85702-0.53073-0.57135-0.79609-1.3945-0.79609-2.4692zm1.0711 0c0 0.81507 0.17174 1.4253 0.51527 1.8309 0.34354 0.40554 0.77584 0.60831 1.2969 0.60831 0.51723 0 0.9476-0.20376 1.2911-0.6113 0.34352-0.40754 0.51529-1.0288 0.51529-1.8639 0-0.78709-0.17273-1.3834-0.51817-1.7889-0.34548-0.40553-0.77489-0.6083-1.2883-0.6083-0.52107 8e-6 -0.95337 0.20178-1.2969 0.6053-0.34352 0.40355-0.51526 1.0128-0.51526 1.8279zm5.9055 3.1824v-6.3647h0.93795v0.96489c0.23931-0.45148 0.46028-0.74913 0.66293-0.89298 0.20265-0.14383 0.42555-0.21574 0.66872-0.21576 0.35123 8e-6 0.70827 0.11588 1.0711 0.34761l-0.35898 1.0009c-0.25473-0.15582-0.50948-0.23373-0.76424-0.23374-0.22774 7e-6 -0.4323 0.07092-0.61373 0.21276-0.18139 0.14184-0.31071 0.33862-0.38791 0.59032-0.11584 0.38357-0.17368 0.80308-0.17368 1.2586v3.3322zm3.9775-7.5454v-1.2406h1.0422v1.2406zm0 7.5454v-6.3647h1.0422v6.3647zm4.9098-0.96489 0.15054 0.95291c-0.29336 0.06392-0.55583 0.09589-0.7874 0.09589-0.37828 0-0.67163-0.06192-0.88006-0.18579-0.20844-0.12384-0.3551-0.28666-0.44002-0.48843-0.0849-0.20177-0.12743-0.62628-0.12743-1.2735v-3.6618h-0.76424v-0.83904h0.76424v-1.5762l1.0364-0.64726v2.2235h1.048v0.83904h-1.048v3.7218c0 0.30764 0.0183 0.50542 0.055 0.59333 0.0367 0.0879 0.0965 0.15781 0.17948 0.20975 0.083 0.05192 0.20168 0.07792 0.35606 0.07792 0.11584 7e-6 0.26827-0.01399 0.45739-0.042zm0.9669 3.4161-0.11584-1.0128c0.22773 0.06392 0.42651 0.09589 0.59633 0.09589 0.2316 0 0.41688-0.03993 0.55582-0.11987 0.13897-0.07992 0.25283-0.19178 0.34161-0.33561 0.0656-0.10788 0.17177-0.37558 0.31843-0.80309 0.0193-0.05992 0.0501-0.14782 0.0925-0.2637l-2.3333-6.3767h1.1232l1.2795 3.6858c0.16597 0.46746 0.31457 0.95891 0.4458 1.4743 0.1197-0.49542 0.26247-0.97887 0.42845-1.4503l1.3143-3.7098h1.0422l-2.339 6.4726c-0.25093 0.6992-0.44583 1.1806-0.58479 1.4444-0.18526 0.35559-0.39756 0.61629-0.63687 0.7821s-0.52493 0.24871-0.85688 0.24872c-0.20071-9e-6 -0.42459-0.04393-0.67161-0.13185z" fill="#004494" stroke="#004494" stroke-width=".18444"/>
</svg>
