<svg width="200" height="114" version="1.1" viewBox="0 0 200 114" xmlns="http://www.w3.org/2000/svg" xmlns:cc="http://creativecommons.org/ns#" xmlns:dc="http://purl.org/dc/elements/1.1/" xmlns:rdf="http://www.w3.org/1999/02/22-rdf-syntax-ns#">
 <metadata>
  <rdf:RDF>
   <cc:Work rdf:about="">
    <dc:format>image/svg+xml</dc:format>
    <dc:type rdf:resource="http://purl.org/dc/dcmitype/StillImage"/>
    <dc:title/>
   </cc:Work>
  </rdf:RDF>
 </metadata>
 <path d="m1.05e-6 0h200v114h-200z" fill="#217a7a"/>
 <path d="m24.978 46.659v20.35h2.4987v-8.0652c0-1.1568 0.13883-2.0633 0.41645-2.7204 0.27762-0.65705 0.74018-1.1753 1.388-1.5547 0.65704-0.38868 1.356-0.58316 2.0963-0.58316 0.9902 0 1.7531 0.28663 2.2899 0.86038 0.546 0.5645 0.81948 1.4717 0.81948 2.721v9.3421h2.4981v-9.3421c0-1.4437-0.17532-2.5453-0.52698-3.3041-0.3424-0.75884-0.91626-1.3506-1.7214-1.7763-0.80511-0.43495-1.7536-0.65277-2.8456-0.65277-1.7768 0-3.2482 0.67558-4.4143 2.0267v-7.3013zm16.2 0v20.35h15.186v-2.4016h-12.493v-6.9264h11.258v-2.3876h-11.258v-6.2327h12.021v-2.4016zm18.851 0v20.35h2.5958v-17.324l5.8853 17.324h2.4291l5.9134-17.032v17.032h2.5958v-20.35h-3.6229l-4.8722 14.159c-0.49048 1.4344-0.85131 2.5217-1.0827 3.262-0.20358-0.6663-0.52731-1.6704-0.97151-3.0123l-4.8173-14.409zm23.681 0v20.35h7.7599c1.2956 0 2.3876-0.1113 3.2761-0.33341 0.89765-0.23136 1.6426-0.56884 2.2349-1.013 0.59227-0.4442 1.0871-1.0737 1.4851-1.8881 0.40718-0.82362 0.61063-1.7122 0.61063-2.6654 0-1.1845-0.3327-2.2114-0.99899-3.0813-0.65706-0.86989-1.6013-1.4856-2.8321-1.8466 0.95319-0.47196 1.6659-1.0919 2.1378-1.86 0.47196-0.76809 0.70772-1.5867 0.70772-2.4566 0-0.93467-0.26807-1.8281-0.80481-2.6795-0.52749-0.86064-1.2635-1.4943-2.2074-1.9015-0.93467-0.41643-2.1793-0.62467-3.734-0.62467zm18.989 0v20.35h12.715v-2.4016h-10.022v-17.948zm-16.297 2.4016h4.0674c1.4622 0 2.4938 0.09693 3.0953 0.29127 0.60152 0.18508 1.0647 0.53694 1.3886 1.0552 0.3239 0.50898 0.48546 1.1008 0.48546 1.7763 0 0.71257-0.17593 1.305-0.52759 1.7769-0.3424 0.47196-0.85582 0.81006-1.5406 1.0137-0.51823 0.15732-1.3739 0.23571-2.5677 0.23571h-4.4008zm-69.684 2.873c-1.2678 0-2.4431 0.301-3.5258 0.90252-1.0735 0.59227-1.8741 1.4851-2.4016 2.6788-0.52749 1.1938-0.79138 2.5868-0.79138 4.1786 0 2.4616 0.61096 4.3537 1.8325 5.6771 1.2308 1.3141 2.8548 1.9711 4.8722 1.9711 1.6102 0 2.9662-0.47631 4.0674-1.4295 1.1105-0.96244 1.7998-2.2903 2.0682-3.9838l-2.4572-0.31936c-0.17583 1.2493-0.59231 2.1744-1.2494 2.7759-0.65704 0.60152-1.4756 0.90252-2.4566 0.90252-1.2216 0-2.2119-0.44879-2.9707-1.3464-0.75884-0.89766-1.1382-2.3368-1.1382-4.3172 0-1.9526 0.39314-3.378 1.1797-4.2757 0.7866-0.90691 1.8093-1.3599 3.0678-1.3599 0.83287 0 1.5408 0.24952 2.1238 0.74924 0.59227 0.49973 1.004 1.2447 1.2353 2.2349l2.4297-0.37493c-0.28688-1.4899-0.93973-2.637-1.9577-3.4421-1.018-0.81437-2.3272-1.2219-3.9282-1.2219zm69.684 5.6777h4.7062c1.2956 0 2.2859 0.11549 2.9707 0.34684 0.69406 0.2221 1.235 0.61524 1.6237 1.1797 0.38867 0.55525 0.58315 1.2123 0.58315 1.9711 0 0.64779-0.13404 1.2216-0.4024 1.7214-0.26837 0.49047-0.61065 0.86567-1.0271 1.1248-0.41644 0.25912-0.93464 0.44402-1.5547 0.55507-0.35166 0.06478-0.96261 0.09709-1.8325 0.09709h-5.067z" fill="#fff" style="font-feature-settings:normal;font-variant-caps:normal;font-variant-ligatures:normal;font-variant-numeric:normal"/>
 <g fill="#72b360">
  <path d="m129.19 48.219a3.176 3.176 0 0 1-3.176 3.176 3.176 3.176 0 0 1-3.176-3.176 3.176 3.176 0 0 1 3.176-3.176 3.176 3.176 0 0 1 3.176 3.176z"/>
  <path d="m129.19 57a3.176 3.176 0 0 1-3.176 3.176 3.176 3.176 0 0 1-3.176-3.176 3.176 3.176 0 0 1 3.176-3.176 3.176 3.176 0 0 1 3.176 3.176z"/>
  <path d="m129.19 65.781a3.176 3.176 0 0 1-3.176 3.176 3.176 3.176 0 0 1-3.176-3.176 3.176 3.176 0 0 1 3.176-3.176 3.176 3.176 0 0 1 3.176 3.176z"/>
 </g>
 <path d="m127.6 42.195a3.176 3.176 0 0 1-4.3385-1.1625 3.176 3.176 0 0 1 1.1625-4.3385 3.176 3.176 0 0 1 4.3385 1.1625 3.176 3.176 0 0 1-1.1625 4.3385z" fill="#f00"/>
 <g fill="#72b360">
  <path d="m150.41 29.024a3.176 3.176 0 0 1-4.3385-1.1625 3.176 3.176 0 0 1 1.1625-4.3385 3.176 3.176 0 0 1 4.3385 1.1625 3.176 3.176 0 0 1-1.1625 4.3385z"/>
  <path d="m142.81 33.415a3.176 3.176 0 0 1-4.3385-1.1625 3.176 3.176 0 0 1 1.1625-4.3385 3.176 3.176 0 0 1 4.3385 1.1625 3.176 3.176 0 0 1-1.1625 4.3385z"/>
  <path d="m135.2 37.805a3.176 3.176 0 0 1-4.3385-1.1625 3.176 3.176 0 0 1 1.1625-4.3385 3.176 3.176 0 0 1 4.3385 1.1625 3.176 3.176 0 0 1-1.1625 4.3385z"/>
 </g>
 <path d="m154.82 24.634a3.176 3.176 0 0 1-1.1625-4.3385 3.176 3.176 0 0 1 4.3385-1.1625 3.176 3.176 0 0 1 1.1625 4.3385 3.176 3.176 0 0 1-4.3385 1.1625z" fill="#f00"/>
 <g fill="#72b360">
  <path d="m177.64 37.805a3.176 3.176 0 0 1-1.1625-4.3385 3.176 3.176 0 0 1 4.3385-1.1625 3.176 3.176 0 0 1 1.1625 4.3385 3.176 3.176 0 0 1-4.3385 1.1625z"/>
  <path d="m170.03 33.415a3.176 3.176 0 0 1-1.1625-4.3385 3.176 3.176 0 0 1 4.3385-1.1625 3.176 3.176 0 0 1 1.1625 4.3385 3.176 3.176 0 0 1-4.3385 1.1625z"/>
  <path d="m162.43 29.024a3.176 3.176 0 0 1-1.1625-4.3385 3.176 3.176 0 0 1 4.3385-1.1625 3.176 3.176 0 0 1 1.1625 4.3385 3.176 3.176 0 0 1-4.3385 1.1625z"/>
 </g>
 <path d="m183.65 39.442a3.176 3.176 0 0 1 3.176-3.176 3.176 3.176 0 0 1 3.176 3.176 3.176 3.176 0 0 1-3.176 3.176 3.176 3.176 0 0 1-3.176-3.176z" fill="#f00"/>
 <g fill="#72b360">
  <path d="m183.65 65.784a3.176 3.176 0 0 1 3.176-3.176 3.176 3.176 0 0 1 3.176 3.176 3.176 3.176 0 0 1-3.176 3.176 3.176 3.176 0 0 1-3.176-3.176z"/>
  <path d="m183.65 57.003a3.176 3.176 0 0 1 3.176-3.176 3.176 3.176 0 0 1 3.176 3.176 3.176 3.176 0 0 1-3.176 3.176 3.176 3.176 0 0 1-3.176-3.176z"/>
  <path d="m183.65 48.222a3.176 3.176 0 0 1 3.176-3.176 3.176 3.176 0 0 1 3.176 3.176 3.176 3.176 0 0 1-3.176 3.176 3.176 3.176 0 0 1-3.176-3.176z"/>
 </g>
 <path d="m185.24 71.808a3.176 3.176 0 0 1 4.3385 1.1625 3.176 3.176 0 0 1-1.1625 4.3385 3.176 3.176 0 0 1-4.3385-1.1625 3.176 3.176 0 0 1 1.1625-4.3385z" fill="#f00"/>
 <g fill="#72b360">
  <path d="m162.42 84.979a3.176 3.176 0 0 1 4.3385 1.1625 3.176 3.176 0 0 1-1.1625 4.3385 3.176 3.176 0 0 1-4.3385-1.1625 3.176 3.176 0 0 1 1.1625-4.3385z"/>
  <path d="m170.03 80.588a3.176 3.176 0 0 1 4.3385 1.1625 3.176 3.176 0 0 1-1.1625 4.3385 3.176 3.176 0 0 1-4.3385-1.1625 3.176 3.176 0 0 1 1.1625-4.3385z"/>
  <path d="m177.63 76.198a3.176 3.176 0 0 1 4.3385 1.1625 3.176 3.176 0 0 1-1.1625 4.3385 3.176 3.176 0 0 1-4.3385-1.1625 3.176 3.176 0 0 1 1.1625-4.3385z"/>
 </g>
 <path d="m158 89.366a3.176 3.176 0 0 1 1.1625 4.3385 3.176 3.176 0 0 1-4.3385 1.1625 3.176 3.176 0 0 1-1.1625-4.3385 3.176 3.176 0 0 1 4.3385-1.1625z" fill="#f00"/>
 <path d="m127.6 71.808a3.176 3.176 0 0 0-4.3385 1.1625 3.176 3.176 0 0 0 1.1625 4.3385 3.176 3.176 0 0 0 4.3385-1.1625 3.176 3.176 0 0 0-1.1625-4.3385z" fill="#f00"/>
 <g fill="#72b360">
  <path d="m150.41 84.979a3.176 3.176 0 0 0-4.3385 1.1625 3.176 3.176 0 0 0 1.1625 4.3385 3.176 3.176 0 0 0 4.3385-1.1625 3.176 3.176 0 0 0-1.1625-4.3385z"/>
  <path d="m142.81 80.588a3.176 3.176 0 0 0-4.3385 1.1625 3.176 3.176 0 0 0 1.1625 4.3385 3.176 3.176 0 0 0 4.3385-1.1625 3.176 3.176 0 0 0-1.1625-4.3385z"/>
  <path d="m135.2 76.198a3.176 3.176 0 0 0-4.3385 1.1625 3.176 3.176 0 0 0 1.1625 4.3385 3.176 3.176 0 0 0 4.3385-1.1625 3.176 3.176 0 0 0-1.1625-4.3385z"/>
  <path d="m169.62 42.561a3.176 3.176 0 0 1-1.1625-4.3385 3.176 3.176 0 0 1 4.3385-1.1625 3.176 3.176 0 0 1 1.1625 4.3385 3.176 3.176 0 0 1-4.3385 1.1625z"/>
  <path d="m162.02 38.171a3.176 3.176 0 0 1-1.1625-4.3385 3.176 3.176 0 0 1 4.3385-1.1625 3.176 3.176 0 0 1 1.1625 4.3385 3.176 3.176 0 0 1-4.3385 1.1625z"/>
  <path d="m162.28 76.074a3.176 3.176 0 0 1 4.3385 1.1625 3.176 3.176 0 0 1-1.1625 4.3385 3.176 3.176 0 0 1-4.3385-1.1625 3.176 3.176 0 0 1 1.1625-4.3385z"/>
  <path d="m169.89 71.684a3.176 3.176 0 0 1 4.3385 1.1625 3.176 3.176 0 0 1-1.1625 4.3385 3.176 3.176 0 0 1-4.3385-1.1625 3.176 3.176 0 0 1 1.1625-4.3385z"/>
  <path d="m130.85 61.39a3.176 3.176 0 0 1 3.176-3.176 3.176 3.176 0 0 1 3.176 3.176 3.176 3.176 0 0 1-3.176 3.176 3.176 3.176 0 0 1-3.176-3.176z"/>
  <path d="m130.85 52.61a3.176 3.176 0 0 1 3.176-3.176 3.176 3.176 0 0 1 3.176 3.176 3.176 3.176 0 0 1-3.176 3.176 3.176 3.176 0 0 1-3.176-3.176z"/>
 </g>
</svg>
