<svg width="200" height="114" enable-background="new 0 0 200.988 186.516" overflow="visible" version="1.1" viewBox="0 0 200 114" xml:space="preserve" xmlns="http://www.w3.org/2000/svg" xmlns:cc="http://creativecommons.org/ns#" xmlns:dc="http://purl.org/dc/elements/1.1/" xmlns:rdf="http://www.w3.org/1999/02/22-rdf-syntax-ns#"><metadata><rdf:RDF><cc:Work rdf:about=""><dc:format>image/svg+xml</dc:format><dc:type rdf:resource="http://purl.org/dc/dcmitype/StillImage"/><dc:title/></cc:Work></rdf:RDF></metadata><g clip-rule="evenodd" fill-rule="evenodd"><path d="m133.07 37.275c0-0.36243 0.97192-0.6378 1.5909-0.78449-0.4332-0.72402-1.0856-0.77891-1.2477-0.80296-0.49068-0.0742-0.80168-0.08878-1.6934 0.9316 0.35815-1.8216-0.8304-2.0726-0.93544-2.1253-0.0935-0.04761-0.59019 0.01286-0.84584 0.30367 0.32984 0.3633 0.90584 0.61678 1.0161 1.2366 0.1098 0.62064-0.18229 0.9492-0.47353 1.6432-0.0626 0.04675-0.57132 1.1114-0.86168 1.7182 0.1364-0.54473 0.32598-1.7071 0.27322-1.9121-0.59319-2.3745-3.0865-2.8411-3.0509-4.4642 0.0215-0.92816 0.18143-0.94704 0.27923-1.4763 0.22518-1.1997-0.5932-2.0777-0.5932-2.0777-0.16212 0.02187-0.76904 0.0935-1.3575 0.14926l0.0596-0.14626c0.36158-0.04332 0.68798-0.09522 0.68798-0.09522 2.3985-0.28266 3.1259-1.5982 3.1826-2.2835 0.19902-2.377-1.6612-3.2212-3.0002-3.2212-1.4634 0-1.6239 0.63051-1.7393 1.0397-0.18744 0.66268 0.522 1.2649 1.0457 1.3223 0.26336 0.03131 1.2027 0.2462 1.4189-0.39418 0.11452-0.34142 0.12353-0.18229 0.36287 0.13082 0.26807 0.35257 0.18186 0.77806-0.13125 0.9904-0.40747 0.27022-0.9252 0.32984-1.717 0.32984-0.77891 0-1.7796-0.18315-2.305-0.46881-0.528-0.28094-1.3391-1.0534-1.2979-1.9048 0.0403-0.85224 1.0547-1.2958 1.4202-1.5402-0.36544-0.36544-0.70771-0.39932-1.2979-0.32512-1.0929 0.14111-1.3802 0.9732-1.4206 1.2979-0.0416 0.32512 0.3663 0.97408 0.52757 1.1358 0.16299 0.16299 0.32341 0.24148 0.0811 0.32298-0.0948 0.03389-0.27235 0.1171-0.56445-0.1647-0.7935-0.76519-0.66911-1.726-0.6927-1.9413-0.0386-0.3663-0.0648-1.9035-0.12139-2.1909-0.0652-0.32212-0.36887-0.89904-0.8544-1.1826-0.0352 0.15913-0.28137 1.5488-0.52328 1.6273-0.44693-0.32212-1.1096-1.8263-2.7974-1.9031-0.40704-0.01802-0.48853 0.07892-0.65067 0.2818 0.528 0.2848 1.4605 1.7843 1.4206 2.0283-0.41819-0.4019-1.6814-0.45208-1.6814-0.45208-0.27193 0 0.68927 0.75318 0.89256 0.91528 0.31955 0.25821 1.0542 0.81112 1.4373 1.0362 0.43192 0.25563 1.2567 0.89344 1.2567 0.89344s0.0811 0.24148-0.0403 0.3633c0 0-0.0596-0.06219-0.65024-0.3633-0.64595-0.33241-2.6378-1.415-3.0801-1.6629-0.3753-0.21146-1.1598-0.58676-2.489-0.58676-1.6621 0-2.3144 1.2769-2.3144 2.4542 0 0.05104 2e-3 0.10422 6e-3 0.15913l-0.11796 0.06305-0.15912-0.06519c-0.12996-2.745-0.26893-3.759-3.035-5.047-0.027 0.07334 0.77977 1.8023 0.88744 2.7828l0.0407 0.3753c-0.11581 0.10251-0.3753 0.05318-0.4924-0.1291-0.0986-0.15441-1.6621-2.4294-2.6117-2.5795-0.0742 0.07334 0.4019 0.54944 0.5769 0.9492 0.11709 0.27022 0.20931 0.76262 0.042 0.87968-0.27365 0.19344-0.68112 0.06262-0.98952-0.1098-0.15998-0.08878-1.1937-0.61421-1.1122-2.5374 0.0472-0.15098 0.19215-0.69828 0.902-0.82008-0.13813-0.40104-0.51643-0.55287-0.9492-0.42549-0.47095 0.14111-0.89472 0.59019-1.1379 0.63137l-0.2389-0.5207s-0.3307-1.1242-1.0718-1.5351l-0.12562-0.02788-0.16299 0.036458c-0.7416 0.4139-1.0967 1.5102-1.0967 1.5102l-0.23719 0.52199c-0.2462-0.04118-0.66911-0.49068-1.1405-0.62879-0.43278-0.1291-0.80808 0.02402-0.94704 0.42291 0.70814 0.12267 0.85096 0.66997 0.89904 0.82136 0.08406 1.9237-0.95088 2.4482-1.1114 2.5362-0.30839 0.172-0.71329 0.30325-0.9904 0.1098-0.1677-0.1171-0.0742-0.60949 0.04546-0.87968 0.175-0.39932 0.6481-0.87328 0.57389-0.9492-0.95008 0.15012-2.5134 2.4246-2.6104 2.5795-0.11538 0.18229-0.37874 0.23247-0.49326 0.12996l0.04332-0.3753c0.10509-0.98136 0.91056-2.7094 0.88704-2.7846-2.6447 1.2302-2.8879 2.2132-3.017 4.6894l-0.29638 0.05018c-0.05318-1.1302-0.71973-2.302-2.3102-2.302-1.3275 0-2.1107 0.37787-2.4869 0.58462-0.44478 0.2492-2.4367 1.3318-3.0818 1.665-0.5889 0.3011-0.6481 0.3633-0.6481 0.3633-0.12182-0.12181-0.04032-0.3633-0.04032-0.3633s0.8248-0.63866 1.255-0.89256c0.38517-0.22604 1.1169-0.77891 1.4398-1.0371 0.2003-0.16299 1.1615-0.91616 0.88872-0.91616 0 0-1.2618 0.05018-1.6788 0.45208-0.04032-0.24148 0.89256-1.7427 1.418-2.0275-0.16299-0.20288-0.24448-0.30153-0.6481-0.28137-1.6904 0.07592-2.3534 1.5797-2.797 1.9048-0.24448-0.0815-0.49068-1.4699-0.52628-1.6312-0.48597 0.28566-0.79006 0.86128-0.854 1.1842-0.05747 0.28652-0.0815 1.8242-0.12182 2.1901-0.02187 0.21618 0.09951 1.1766-0.69098 1.9413-0.29381 0.2818-0.47138 0.19859-0.56488 0.1677-0.24406-0.08406-0.08064-0.16299 0.0815-0.32469 0.16042-0.16299 0.5666-0.81112 0.52628-1.1358-0.04118-0.32598-0.3277-1.1568-1.4206-1.2979-0.58847-0.07506-0.92992-0.03946-1.2958 0.32383 0.3663 0.24448 1.3773 0.68927 1.4189 1.5433 0.04032 0.85144-0.77077 1.6209-1.2958 1.9048-0.52928 0.28309-1.5261 0.46666-2.3084 0.46666-0.79093 0-1.3099-0.05962-1.7135-0.3307-0.31697-0.21317-0.40275-0.6378-0.1321-0.98952 0.23977-0.31311 0.24534-0.47353 0.36072-0.13168 0.21789 0.6408 1.155 0.42549 1.4206 0.39418 0.5207-0.05747 1.2314-0.6601 1.0453-1.3219-0.1171-0.40918-0.27537-1.038-1.741-1.038-1.3391 0-3.2002 0.84408-3.0016 3.2182 0.05747 0.68798 0.78706 2.0009 3.1834 2.2835 0 0 0.36243 0.05662 0.74331 0.1008l0.03302 0.14283c-0.59791-0.0549-1.222-0.12739-1.3841-0.15012 0 0-0.82008 0.87672-0.59577 2.0777 0.1008 0.528 0.25906 0.5473 0.28008 1.4772 0.03818 1.6209-2.4586 2.088-3.0518 4.462-0.05104 0.20846 0.13726 1.3674 0.27579 1.9147-0.28909-0.60949-0.8008-1.6732-0.8604-1.7217-0.2921-0.6927-0.58418-1.0204-0.47696-1.6402 0.11066-0.6215 0.68927-0.87496 1.0161-1.2383-0.2552-0.29123-0.75232-0.34871-0.8428-0.30367-0.10809 0.05318-1.2936 0.30367-0.93848 2.1266-0.89168-1.0204-1.2018-1.0071-1.6917-0.93288-0.16299 0.02659-0.81536 0.07892-1.2486 0.80376 0.62064 0.1454 1.59 0.4212 1.59 0.78363-0.25521 0.25606-1.143 0.98568-1.2027 1.4974-0.09608 0.80976 0.2921 1.0406 0.50913 1.1315 0.18186-1.0217 0.6481-1.4682 1.1315-1.5326 0.43578-0.05834 0.95824-0.06562 1.6779 0.32855 0.80376 0.43835 1.533 1.1178 1.533 1.1178s-0.0017-0.0099-0.0064-0.0193c0.27451 0.30839 0.98952 0.82224 1.8113 0.75533 0.97408-0.0815 1.4854-0.94016 1.4854-1.3867 0-0.4465-0.43492-0.76218-0.67898-0.80376-0.24148-0.04032-0.6022-0.03131-0.84112 0.29381-0.16299 0.21789-0.37787 0.33198-0.53614 0.12996-0.25349-0.32512-0.04933-0.75318 0.1291-0.94016 0.20588-0.21574 0.58376-0.40747 1.0954-0.40747 0.3663 0 2.1995 0.52628 3.0106 3.6094 0.81024 3.0792 0.51513 4.4998 0.39632 5.2722-0.12181 0.76948-0.40618 1.581-0.81192 2.0657 0 0-0.0815 0-0.12267-0.3633 0.32512-0.85096 0.40618-1.5012 0.04118-2.6344-0.36458-1.1358-1.5021-2.1356-1.6222-2.6387-0.09822-0.17671 0.13897-1.6038 0.13897-1.6038s-1.6839 0.09779-1.7602 1.7667c-0.04761 1.0453-1.2357-1.6715-3.4103-0.3397-0.92736 0.5696-0.88872 1.3138-0.8072 1.6385 0.52457-0.19302 0.5207-0.2389 1.1358-0.2848 0.40533-0.03088 2.109 0.3663 2.1493 1.2173-0.89256 0.16299-1.3382 0.60778-1.581 1.0534-0.24448 0.44607-0.2033 0.81112 0.11966 1.3374 0.2848-0.5666 0.94488-0.88528 1.9057-0.9732 1.7462 0 2.6589 1.5351 2.6782 2.7185 0.01158 0.89688-0.07163 1.557-0.4375 2.1518-0.2033 0.33241-0.66739 1.1701-2.3414 1.0333-0.4495-0.0815-0.74503-0.3011-0.8368-0.39718-0.53572-0.56402-0.18229-1.4206-0.18229-1.4206 0.0459 0.71029 1.05 0.95176 1.4858 0.79178 0.3174-0.11538 0.87416-0.31311 0.7935-1.2867-0.0815-0.97192-1.2722-1.8765-2.5628-1.2598-1.59 0.88528-1.4974 3.3413-1.2988 4.3303 0.18401 0.91528 1.1697 3.979 1.0882 5.047-0.21961 2.9694-2.281 2.1532-2.4273 2.0575-0.1364-0.0875-0.38259-0.26722-0.47052-0.43921-0.09608-0.22647-0.14626-0.37316-0.12696-0.65882 0.03131-0.42849 0.45036-0.66654 0.37058-0.44307-0.14283 0.41005 0.23719 0.76519 0.36158 0.79822 0.43021 0.12825 1.1718-0.07334 1.1718-0.80168 0-0.73259-0.5859-1.2413-1.4206-1.155-1.4656 0.15012-1.572 1.6934-1.5497 2.136 0.01373 0.26378 0.1364 0.65925 0.25092 0.81624l0.0056-0.0034c0.35514 0.58547 1.0873 1.1786 1.786 1.3035 1.8049 0.31826 2.7781-0.51642 3.0916-0.8608 0.44865-0.40618 0.81448-1.2778 0.81448-1.2778s0.75318 0.24148 1.2558 1.5377c0.35643 1.2082-0.11238 2.1382-0.55717 2.7352-0.92-0.70642-0.80552-1.9923-0.80552-1.9923s-2.1712 2.0395-1.6788 3.8041c0.03774 0.13897 0.34442 1.4026 2.0717 1.7646 0.2848-0.12053 0.52542-0.5563 0.76948-0.57861 0.52542-0.04032 1.7517 2.021 2.0292 2.4422 0.28738 0.4465 0.85824 1.2778 0.85824 1.6839 0 0.40662-1.7071-0.81624-2.3762-1.4862-0.66997-0.66654-0.47138-1.3841-1.0406-1.3841-0.12182 0.52714-0.02659 0.94792-0.14755 0.98864-0.12267 0.04032-1.3116-1.1898-2.1236-1.0255-0.81112 0.16127-1.8581 1.3546-1.7362 2.1678 0.2655 0.19001 1.5351-0.531 1.8598-0.57132 0.28738-0.03646 0.65238 0.0549 0.51427 0.41777-0.32212 0.1647-1.4086 1.4425-1.0873 1.6363 0.31954 0.19001 0.41819-0.48339 2.7708-0.44693 1.4536 0.11023 1.9297 0.79478 1.913 1.3181-0.0099 0.32984-0.06949 0.63351-0.26293 0.6957-0.34957 0.11366-0.82008 0.12438-2.1214-0.1321-1.1139-0.21961-1.1332-0.46109-1.0873 0.0223 0.02359 0.2745 0.96552 0.62236 0.96552 1.065 0 0.44693-2.3861 1.0255-0.59491 3.4635 0.92432 0.99208 2.9068 1.0435 3.3974 0.79478 0.12182-0.24148-1.4133-0.97408-1.2194-1.9477 0.03302-0.1647 0.3633-0.92264 1.2863-0.98864 0.55931-0.04032 0.06691 1.0912 1.2558 1.1864 0-1.5085 0.77462-1.4425 0.77462-1.4425s0.42077-0.07721 1.4536 0.30024c0.76262 0.2745 1.3391 0.40233 1.581 0.93376 0.2432 0.52371 0.04032 0.2818-0.32298 0.2818-0.36544 0-0.78878-0.28566-1.276-0.20546-0.48596 0.08064-0.9668 0.6185-1.0894 1.1898-0.12095 0.56746-0.21231 1.816 0.39546 1.9807 0 0 0.2981-1.1898 1.9799-1.8821 0.49068-0.20159 1.21-0.18701 1.9799 0.09522 0.77162 0.28566 3.5652 1.6333 6.3626 1.6333 2.797 0 4.6679-2.0648 5.0286-2.8373 0.09822-0.21618 0.172-0.4212 0.23719-0.62236 0.03002 0.28523 0.24534 0.75061 0.55931 0.99208 0.3633 0.2818 1.1808 0.1394 0.81752 0.26378-0.3663 0.12053-1.8066 0.69914-1.8066 1.0251 0 0.32212 1.5626-0.21574 1.6852-0.09522 0.12182 0.12438 0.2625 0.15012-0.10337 0.40233-0.356 0.24534-2.6966 0.61893-2.6726 1.1752 0.02402 0.531 0.11281 1.922 0.39718 1.8821 0.88872-1.783 4.3256-2.7935 3.6338-2.3213-0.17671 0.18701-1.5874 1.2598-1.1542 1.919 0.15998 0.24491 1.071 2.0134 1.2336 2.0575 0.16299 0.04032-0.2492-3.2405 2.0704-4.0164 0.8488-0.28909-2.5366 2.3067 1.9302 5.6823 0.06134 0.0223 0 0 0 0l0.06134 0.0223 0.25864-0.0078c4.4646-3.3756 1.0783-5.9714 1.9275-5.6862 2.3213 0.77978 1.9104 4.0606 2.0704 4.0202 0.16299-0.04032 1.074-1.8156 1.234-2.0575 0.43492-0.65925-0.9784-1.7358-1.155-1.922-0.68842-0.47266 2.745 0.54172 3.6372 2.3247 0.2818 0.04032 0.37058-1.3506 0.39374-1.8821 0.0266-0.5563-2.3166-0.92992-2.6726-1.1752-0.36329-0.25263-0.22261-0.2818-0.0999-0.40233 0.1188-0.12095 1.6857 0.41734 1.6857 0.09136 0-0.32212-1.4442-0.90416-1.8079-1.0251-0.3663-0.12053 0.45251 0.02187 0.81712-0.25992 0.31139-0.24148 0.52885-0.70986 0.56016-0.99208 0.0626 0.20116 0.1364 0.41005 0.23634 0.6185 0.35901 0.77248 2.2291 2.8411 5.0274 2.8411 2.797 0 5.5926-1.3477 6.3626-1.6333 0.76948-0.2818 1.4922-0.29638 1.9794-0.09522 1.6843 0.69184 1.9794 1.8782 1.9794 1.8782 0.60821-0.16085 0.51942-1.4094 0.39761-1.9769-0.12182-0.57132-0.6022-1.1092-1.0912-1.1898-0.48511-0.08064-0.91056 0.20546-1.2743 0.20546-0.3663 0-0.56918 0.24148-0.32512-0.2818 0.24362-0.531 0.81752-0.65925 1.581-0.93376 1.0346-0.37745 1.4536-0.30024 1.4536-0.30024s0.77762-0.06562 0.77762 1.4425c1.1881-0.09865 0.6957-1.2302 1.2533-1.1898 0.9252 0.06949 1.255 0.82784 1.2867 0.99208 0.19602 0.97408-1.3421 1.7024-1.2202 1.9438 0.48982 0.25263 2.4753 0.20159 3.3979-0.79093 1.7933-2.4384-0.59363-3.0166-0.59363-3.4635 0-0.44264 0.94016-0.79093 0.9668-1.065 0.0425-0.48339 0.024-0.24148-1.0907-0.0223-1.3009 0.2565-1.7684 0.24534-2.121 0.1321-0.19001-0.06262-0.25349-0.3663-0.2625-0.6957-0.0172-0.52371 0.46109-1.2078 1.9121-1.3181 2.353-0.03646 2.4542 0.63694 2.7746 0.44307 0.31997-0.19001-0.76519-1.4682-1.0903-1.6329-0.1364-0.3663 0.22689-0.45422 0.51598-0.4212 0.32341 0.04418 1.593 0.76519 1.8602 0.57132 0.12138-0.8128-0.92728-2.0065-1.7384-2.1678-0.81024-0.16085-2.0009 1.0693-2.1227 1.029-0.12224-0.04074-0.0266-0.46151-0.1484-0.98864-0.56704 0-0.37144 0.71372-1.0397 1.3841-0.66826 0.66997-2.3741 1.889-2.3741 1.4862 0-0.40618 0.56788-1.2374 0.8544-1.6839 0.28008-0.4212 1.5042-2.4826 2.033-2.4422 0.24062 0.0223 0.48339 0.45766 0.76819 0.57861 1.7277-0.3663 2.0318-1.6256 2.0721-1.7646 0.49068-1.7684-1.681-3.8041-1.681-3.8041s0.11709 1.2854-0.80336 1.9919c-0.44651-0.60006-0.9136-1.5265-0.55931-2.7348 0.5014-1.2958 1.255-1.5377 1.255-1.5377s0.3663 0.86728 0.81536 1.2743c0.31268 0.34786 1.2889 1.1786 3.0921 0.86384 0.69828-0.12438 1.4326-0.71758 1.7856-1.303h5e-3c0.11538-0.15355 0.23977-0.55287 0.25092-0.8132 0.0249-0.44264-0.0832-1.9863-1.5488-2.1369-0.83464-0.08622-1.4206 0.42334-1.4206 1.1525 0 0.73216 0.74375 0.92992 1.1722 0.80552 0.12653-0.03645 0.50355-0.38817 0.36072-0.79822-0.0789-0.2269 0.33971 0.01458 0.37059 0.44307 0.021 0.28566-0.0309 0.42849-0.12439 0.65882-0.0888 0.172-0.33498 0.35171-0.47053 0.43921-0.14754 0.09565-2.2085 0.908-2.4302-2.0575-0.0815-1.0693 0.90584-4.1348 1.0882-5.0479 0.19773-0.98952 0.2921-3.4455-1.2987-4.3303-1.2885-0.6185-2.4796 0.28738-2.561 1.261-0.0806 0.97232 0.47395 1.1705 0.79178 1.2863 0.43492 0.15742 1.4398-0.0815 1.4849-0.79178 0 0 0.353 0.85616-0.18143 1.4197-0.0888 0.09608-0.38688 0.31397-0.83768 0.39718-1.671 0.1364-2.1356-0.70042-2.3402-1.0324-0.3663-0.59791-0.4495-1.255-0.43492-2.1545 0.0163-1.1808 0.932-2.7159 2.6751-2.7159 0.96288 0.08793 1.6209 0.40618 1.9057 0.9728 0.32512-0.52542 0.36629-0.89128 0.12181-1.3361-0.24362-0.44779-0.68841-0.89168-1.5802-1.0556 0.0373-0.85096 1.7401-1.2478 2.1463-1.2164 0.61463 0.04461 0.61249 0.0905 1.1358 0.28394 0.0806-0.32512 0.12182-1.0702-0.80552-1.6367-2.1763-1.3326-3.3618 1.3841-3.4103 0.33885-0.0789-1.6689-1.7616-1.7676-1.7616-1.7676s0.2359 1.4287 0.13896 1.6054c-0.12009 0.50141-1.2558 1.5012-1.6222 2.6344-0.36629 1.1358-0.28351 1.7869 0.0416 2.6378-0.0416 0.3633-0.12181 0.3633-0.12181 0.3633-0.40747-0.48597-0.68884-1.2962-0.81112-2.0686-0.12181-0.7699-0.41691-2.1905 0.39417-5.2722 0.81152-3.0801 2.6447-3.6063 3.011-3.6063 0.51427 0 0.8896 0.19215 1.095 0.40447 0.18014 0.1883 0.38346 0.61678 0.12996 0.9428-0.15655 0.20245-0.37358 0.08793-0.53358-0.13254-0.2389-0.32212-0.59962-0.33241-0.84407-0.29123-0.2432 0.04032-0.67898 0.356-0.67898 0.80296 0 0.44565 0.51127 1.3035 1.4845 1.385 0.82264 0.06991 1.5377-0.44478 1.8147-0.75232-5e-3 9e-3 -0.01 0.01802-0.01 0.01802s0.7296-0.67898 1.5334-1.1182c0.7193-0.39289 1.2434-0.38517 1.6783-0.3277 0.48254 0.06219 0.9492 0.5117 1.1315 1.533 0.21703-0.09136 0.60778-0.32126 0.51084-1.131-0.0605-0.51127-0.9496-1.2409-1.2066-1.4961z" fill="#fff" stroke-width=".42892"/><path d="m99.991 23.596s0.46623 0.82008 1.6158 1.4866c0.80552 0.46838 2.5641 0.88232 2.5641 0.88232 1.1229 0.28909 3.1826 0.44694 4.5693 1.7071 0.94744 0.8604 1.7217 1.2769 3.1006 1.2173 1.3245-0.05318 1.8147-0.67898 1.9962-0.88784 0.71758-0.82656 0.58847-1.599 0.58847-1.599 0.59062 0.19859 2.0155 0.95176 2.2767 1.0766 0.52371 0.24878 4.3334 2.4071 5.1046 2.4916-0.3989 0.53572-0.706 0.60778-0.96592 0.60778-0.55158 0-1.683-0.22346-1.738 0.1647 0 0-0.19387 1.4077 0.60692 2.0155 0 0-1.1838 2.293-0.0523 3.699 1.1332-0.4405 1.2936-0.66268 1.2936-0.66268-0.11023 0.52371 0.0146 1.1379 0.46881 1.0766 0.21489-0.02917 0.47137-0.01458 0.63565 0.08793 0 0-1.2769 0.6837-2.0631 3.2302-0.46881 1.5188-0.49798 3.3674-0.49798 3.3674h-39.078s0.09136-1.5762-0.46323-3.2997c-0.80848-2.5109-2.0283-3.283-2.0283-3.283 0.27794-0.1098 0.43578-0.1291 0.65153-0.10251 0.70514 0.08793 0.46795-0.82736 0.40833-1.068l1.3391 0.66911c1.1049-1.7929-0.09608-3.7062-0.09608-3.7062 0.78449-0.49068 0.65324-2.009 0.65324-2.009-0.22261-0.28008-1.0629-0.1527-1.7869-0.172-0.2432-0.0064-0.58762-0.10551-0.92088-0.60349 1.2147-0.38431 4.7202-2.299 4.9609-2.4602 0.24277-0.15956 2.3754-1.1114 2.3754-1.1114-0.0386 0.25049 0.17199 1.0277 0.57389 1.5917 0.41819 0.58676 1.2769 0.94104 2.2359 0.91616 1.3794-0.0356 1.9769-0.39932 3.1195-1.4077 1.4038-1.2413 4.1374-1.4398 4.4162-1.5998 0 0 1.8272-0.35901 2.5401-0.82736 1.0749-0.70686 1.5969-1.4875 1.5969-1.4875z" fill="#e03a3e" stroke-width=".42892"/><g fill="#eeb310" stroke-width=".42892"><path d="m132.7 59.882c-0.0888 0.17586-0.33456 0.35128-0.46881 0.43921-0.14841 0.09522-2.2094 0.91144-2.432-2.0579-0.0789-1.068 0.90632-4.1305 1.0903-5.047 0.19859-0.99208 0.2921-3.4481-1.2988-4.3303-1.2906-0.61978-2.4813 0.28652-2.5628 1.2598-0.0815 0.97408 0.47395 1.1726 0.79178 1.2867 0.43749 0.15742 1.4394-0.0815 1.4854-0.79178 0 0 0.35342 0.85568-0.18015 1.4206-0.0909 0.09608-0.38731 0.31311-0.83768 0.39632-1.6728 0.1364-2.1369-0.69999-2.3423-1.0346-0.3663-0.59577-0.44908-1.2529-0.43578-2.1527 0.0176-1.1826 0.93288-2.7159 2.6765-2.7159 0.96288 0.08622 1.6226 0.40362 1.9044 0.9732 0.32597-0.528 0.36629-0.89256 0.12267-1.3391-0.24148-0.44522-0.68884-0.89168-1.581-1.0542 0.0403-0.85144 1.7427-1.2486 2.1493-1.2173 0.61549 0.04846 0.61249 0.09136 1.1366 0.2848 0.0806-0.32469 0.11881-1.068-0.80936-1.6385-2.1725-1.3318-3.361 1.385-3.409 0.3397-0.0789-1.6689-1.7594-1.7667-1.7594-1.7667-3e-3 0 0.23419 1.427 0.13511 1.6046-0.11924 0.50226-1.2571 1.5021-1.6213 2.6378-0.365 1.1349-0.28308 1.783 0.0416 2.6344-0.0416 0.3663-0.12267 0.3663-0.12267 0.3663-0.40533-0.48768-0.68798-1.2988-0.81024-2.0686-0.12138-0.7699-0.41648-2.1905 0.39461-5.2748 0.8128-3.0822 2.6473-3.6055 3.011-3.6055 0.51427 0 0.89128 0.1913 1.0946 0.40361 0.18228 0.18915 0.38259 0.61764 0.1321 0.9428-0.15827 0.20245-0.3753 0.08878-0.53572-0.13168-0.2389-0.32298-0.60005-0.33198-0.84408-0.29123-0.24148 0.04032-0.67983 0.356-0.67983 0.80296 0 0.44478 0.51127 1.3035 1.4858 1.385 0.9728 0.08149 1.8027-0.65538 1.9246-0.89984 0.12181-0.24148 0.41648-1.9177 0.35429-2.1686-0.59534-2.3762-3.0899-2.8403-3.0518-4.4642 0.0193-0.92992 0.17972-0.94704 0.27708-1.4781 0.22518-1.2001-0.59319-2.0768-0.59319-2.0768-0.28437 0.04032-1.9413 0.2269-2.4693 0.2269 0 0-0.42549 0.98952-1.8345 1.6038-0.9132 0.40018-1.3142 0.35858-1.8817 0.19687-0.0407 0.28094 0.0836 0.4465 0.3663 0.59491 0.6927 0.3663 0.57174 0.62236 0.57174 0.74418 0 0.11881-1.0186 0.75404-1.0186 2.2973 0.28438-0.0815 1.6303-1.4489 2.6031-1.409 0.24448 0.20417-0.0832 0.46238-0.2106 0.7579-0.12611 0.29466-0.32469 0.81368-0.32469 1.2988 0.44736-0.24362 1.014-0.60778 1.581-0.60778 0.56874 0 1.4206 0.52628 1.4206 0.81112-0.6481 0.5666-3.2859 1.8645-3.9756 4.5028-0.68798 2.6353-0.40533 6.2047 0.20459 7.9075 0.60649 1.7024 1.7431 4.0146 4.1365 4.9059 0.83168 0.28266 1.3802 0.19387 1.5402 0.16299 0.52371-0.10251 1.095-0.44693 1.258-0.52542 0.12181 0.15956-0.15827 0.86216-0.64167 1.7071-0.31268 0.54644-0.86599 1.4373-2.2681 1.5827-0.99208 0.02187-1.4943-1.2284-0.68198-1.4948-6e-3 0.3753 0.0862 0.5117 0.39932 0.67898 0.26507 0.14111 0.59105-0.0356 0.70986-0.2389 0.1231-0.2003 0.11709-0.7579-0.17328-1.0071-0.22991-0.19387-0.38517-0.37702-1.0337-0.3367-0.64981 0.04118-1.5998 1.2889-0.85096 2.4697 0.1677 0.26336 0.58761 0.92816 1.5381 1.0066 0.68798 0.05747 1.843-0.39289 2.2998-0.79607 0.44008-0.38517 0.44008-0.59491 0.94616-0.6125 0.28309 0.32298-0.9376 1.3365-1.1855 1.4918-0.97839 0.60906-1.4013 0.70128-2.411 0.9908-1.1045 0.31654-1.1902 0.84024-1.5128 1.6127 0.4851 0 0.65238 0.04032 1.0547 0.12438 0.36758 0.07334 0.57132 0.28952 0.60648 0.40275 0.33671 1.0946-0.0712 2.537-0.18657 3.3537 0.15613 0.37316 1.7362 0.98096 2.1767 0.20502-0.45808-0.59706-0.9612-1.5454-0.59663-2.7897 0.50269-1.2962 1.255-1.5381 1.255-1.5381s0.3663 0.86768 0.81584 1.2778c0.31354 0.34442 1.2867 1.1791 3.089 0.8604 0.73688-0.12825 1.5137-0.77978 1.8461-1.3949z"/><path d="m133.65 60.574c0.11452-0.15742 0.23634-0.55674 0.25092-0.81624 0.0218-0.44307-0.0832-1.9863-1.5488-2.1364-0.83464-0.08578-1.4206 0.42291-1.4206 1.155 0 0.72873 0.7416 0.92992 1.1714 0.80168 0.12438-0.03646 0.50441-0.38774 0.36072-0.79435-0.079-0.2269 0.3397 0.01458 0.37058 0.44264 0.0193 0.2818-0.0309 0.42463-0.12652 0.65538z"/><path d="m129.43 39.807s0.9732-2.0734 1.059-2.1403c0.2921-0.69356 0.58376-1.0213 0.47567-1.6432-0.1098-0.61978-0.68798-0.87328-1.0157-1.2383 0.2565-0.2921 0.75061-0.34957 0.84408-0.30367 0.10509 0.05233 1.2941 0.30367 0.9372 2.1266 0.89256-1.0186 1.2031-1.005 1.6934-0.93072 0.16299 0.02488 0.81536 0.07678 1.2486 0.8008-0.62236 0.14626-1.59 0.4212-1.59 0.78706 0.25563 0.25521 1.1439 0.9848 1.2057 1.4965 0.0926 0.81024-0.29509 1.041-0.51169 1.1315-0.1823-1.0204-0.64896-1.4707-1.1315-1.5321-0.43579-0.05747-0.95904-0.06606-1.6797 0.32683-0.80296 0.43964-1.5351 1.119-1.5351 1.119z"/></g><path d="m105.23 54.912h17.071c-0.17586 1.774 0.81712 2.6202 1.2336 2.8102 0 0-1.2945 1.065-1.222 3.3134 0 0 1.3884-0.23805 1.6423 0.15742 0.27965 0.43922-0.16771 2.2994-0.37531 2.8854-0.62922 0-18.359 0.01458-18.359 0.01458v10.534c2e-3 0.23033-1.4943 0.4139-2.3981 0.73216-0.59319 0.21231-1.8726 0.85312-2.8558 2.0575-1.0873-1.2117-1.9799-1.801-2.6031-2.0575-0.8184-0.32598-2.7833-0.50526-2.7742-0.73216v-10.552h-18.066c-0.1008-0.28523-0.29938-1.1315-0.37788-1.629-0.10337-0.68842-0.01758-1.1645-0.01758-1.1645-0.02402-0.2565 0.71501-0.45036 1.5522-0.2565 0.13811-2.299-1.2202-3.3022-1.2202-3.3022 0.77248-0.43406 1.3584-1.3824 1.234-2.8082h16.907v-10.15h10.629v10.148z" fill="#0668b3" stroke-width=".42892"/><polygon transform="matrix(.42892 0 0 .42892 56.896 17)" points="109.3 76.603 105.96 74.407 106.82 70.368 102.81 71.174 100.43 67.852 98.301 71.136 94.351 70.32 95.087 74.313 91.727 76.554 95.053 78.844 94.245 82.826 98.208 82.077 100.43 85.468 102.72 82.117 106.67 82.933 105.94 78.844" fill="#fae3b6"/></g><path d="m107.98 56.798h1.4845v0.59404h-1.4845zm0 1.4742h1.4845v0.59533h-1.4845zm0 1.503h1.4845v0.59319h-1.4845zm0 1.4832h1.4845v0.59662h-1.4845z" fill="#fae3b6" stroke-width=".42892"/><g clip-rule="evenodd" fill-rule="evenodd" stroke-width=".42892"><path d="m93.726 63.551h5.88v-0.49754s-0.55202-0.51256-2.8386-0.51256c-1.282 0.13897-2.4822 0.50483-3.0414 1.0101z" fill="#fae3b6"/><path d="m106.21 63.551h-5.8792v-0.49754s0.55201-0.51256 2.8377-0.51256c1.2825 0.13897 2.483 0.50483 3.0414 1.0101z" fill="#fae3b6"/><path d="m93.895 62.547v-7.7406s1.4587-0.34699 2.088-0.34227c0.77419 0.0082 2.8639 0.2299 3.6274 0.842v6.9442s-1.2962-0.36243-2.4084-0.36243c-1.6998 4.29e-4 -3.307 0.65925-3.307 0.65925z" fill="#fff"/><path d="m92.458 63.254v-7.5962s0.39461-0.37788 0.75146-0.51642v7.6146s-0.68412 0.32254-0.75146 0.49798z" fill="#fff"/></g><path d="m95.673 60.241c1.2182-0.43921 2.646 0.01072 2.6498 0.01459l-0.11281 0.34013c-0.0026 0-1.3091-0.41347-2.4144-0.01458zm-8.79e-4 -1.3511c1.2276-0.38088 2.6409 0.08792 2.6442 0.08792l-0.11235 0.34442c-0.0039-0.0039-1.3099-0.43235-2.4255-0.08792zm0.02101-1.2504c1.0831-0.25735 2.6198 0.16299 2.6232 0.16385l-0.11238 0.3427c-0.0039 0-1.4318-0.39117-2.4285-0.15569zm0-1.2914c1.0894-0.25821 2.6262 0.24535 2.6297 0.24535l-0.11281 0.34314c-0.0026-8.8e-4 -1.4433-0.47137-2.4345-0.23719z" fill="#0668b3" stroke-width=".42892"/><g clip-rule="evenodd" fill-rule="evenodd"><path d="m62.737 70.675-4.5838 2.3543c-1.2769-0.25263-1.7886-2.0686-0.53829-3.222 0 0 2.1454-1.3584 4.821-2.4204 3.3769-1.3399 7.0446 6.451 4.7507 8.7248 0 0-0.14841 0.18658-1.1517 0.58547-0.48038 0.19387-0.74589 0.3041-0.74589 0.3041-0.93976-0.61893-1.2778-2.2154-0.87024-2.739-0.23162 0.10637-0.66568 0.31869-0.77548 0.79478-0.6022 2.6327 2.8017 6.327 8.032 6.5466 4.9355 0.20846 8.7824-0.39932 13.008 0.9192 4.2253 1.3219 8.8712 7.6888 15.318 7.6888l0.00216 6.7881c-9.524 0-13.675-6.8361-18.134-8.34-4.1348-1.3949-9.4832 0.1098-14.543-1.2262-6.3724-1.6843-9.772-7.1655-8.996-10.878l5.397-2.8776c1.3014-0.65538 1.5853-0.32212 1.5926 0.21231 0.0073 0.5636 0.02402 1.8855 1.0526 1.6071-0.66439-0.76519 0.05233-2.0065-0.28266-2.6765-0.28823-0.57861-1.092-0.73216-2.1137-0.3144l-3.1191 1.5964c-0.08406-0.47266-0.30667-0.83464-0.64166-1.0435l4.3634-2.329c-0.54258-0.0549-2.4384-0.94448-1.75-2.3393-1.2048 0.77634-0.91104 1.7393-0.09093 2.2844z" fill="#eeb310" stroke-width=".42892"/><path d="m137.26 70.675 4.5813 2.3543c1.2786-0.25263 1.7907-2.0686 0.54044-3.222 0 0-2.1446-1.3584-4.821-2.4204-3.3756-1.3399-7.0446 6.451-4.7502 8.7248 0 0 0.14841 0.18658 1.1525 0.58547 0.48039 0.19387 0.74674 0.3041 0.74674 0.3041 0.93888-0.61893 1.2752-2.2154 0.86944-2.739 0.23248 0.10637 0.6644 0.31869 0.77463 0.79478 0.60306 2.6327-2.8017 6.327-8.0312 6.5466-4.9369 0.20846-8.784-0.39932-13.008 0.9192-4.2262 1.3219-8.8712 7.6888-15.318 7.6888l-0.003041 6.7881c9.524 0 13.675-6.8361 18.134-8.34 4.1348-1.3949 9.4832 0.1098 14.542-1.2262 6.3724-1.6843 9.7728-7.165 8.996-10.878l-5.3966-2.8776c-1.3018-0.65538-1.5853-0.32212-1.593 0.21231-7e-3 0.5636-0.0236 1.8855-1.0526 1.6071 0.66568-0.76519-0.0519-2.0065 0.28309-2.6765 0.28908-0.57861 1.0929-0.73216 2.1133-0.3144l3.1204 1.5964c0.0841-0.47266 0.30668-0.83464 0.64081-1.0435l-4.3634-2.329c0.54259-0.0549 2.4393-0.94448 1.75-2.3393 1.2057 0.77591 0.91056 1.7388 0.0914 2.284z" fill="#eeb310" stroke-width=".42892"/><g fill="#fff" stroke-width=".42892"><path d="m60.038 79.543 0.96376-0.58204 0.0742 0.12438c-0.2492 0.24534-0.39074 0.48725-0.42849 0.72144-0.03818 0.23462 0.0047 0.45422 0.12482 0.65538 0.11881 0.19387 0.24791 0.30754 0.38688 0.33284 0.14111 0.02917 0.26078 0.01115 0.36072-0.04718 0.1171-0.06949 0.18701-0.172 0.20802-0.30024 0.01287-0.08793 0.0056-0.24148-0.02102-0.46109l-0.04289-0.35514c-0.04332-0.35128-0.0386-0.61893 0.01758-0.80552 0.05233-0.18701 0.16942-0.3367 0.34614-0.44307 0.1913-0.11366 0.41348-0.14669 0.66997-0.09522 0.25349 0.05104 0.47482 0.23033 0.66182 0.54172 0.09608 0.15742 0.1677 0.32254 0.21317 0.49798 0.04461 0.172 0.0742 0.27107 0.08878 0.29295 0.02574 0.04418 0.05962 0.06991 0.09522 0.07334 0.0356 0.0038 0.07678 0 0.12438-0.01458l0.07592 0.12825-0.84672 0.50913-0.07163-0.11666c0.16042-0.17586 0.26807-0.37745 0.32298-0.60778 0.0549-0.23076 0.02102-0.45079-0.10551-0.65925-0.08707-0.14283-0.1913-0.23419-0.31568-0.27794-0.12182-0.04032-0.23419-0.03302-0.3367 0.02917-0.12267 0.07678-0.1913 0.172-0.20417 0.28909-0.01373 0.11366 0 0.34442 0.04118 0.68498l0.05061 0.4139c0.02359 0.17929 0.02102 0.3367-0.0073 0.46838-0.05062 0.2492-0.18143 0.43621-0.39203 0.56402-0.19687 0.11666-0.43278 0.14626-0.71029 0.07678-0.27794-0.06219-0.52886-0.28566-0.7579-0.66268-0.05061-0.08793-0.09608-0.17929-0.1364-0.27494-0.0386-0.09865-0.06991-0.20116-0.0905-0.30367l-0.02187-0.10251c-0.0073-0.02187-0.01458-0.04418-0.02102-0.06562-0.0099-0.01844-0.01758-0.03689-0.02488-0.04761-0.02574-0.04718-0.05662-0.06949-0.0905-0.07334-0.03302 0-0.07678 0.0038-0.12739 0.01844z"/><path d="m62.218 82.502 0.07678-0.08793c0.10723 0.09522 0.19302 0.15012 0.25821 0.172 0.10723 0.0326 0.20588 0 0.29638-0.10251l1.4754-1.6294c0.08793-0.10251 0.11538-0.20159 0.0742-0.30024-0.02659-0.05834-0.0905-0.13897-0.19859-0.24491l0.07678-0.08793 1.2996 1.1752-0.07592 0.08793c-0.12182-0.10251-0.20974-0.16127-0.27279-0.17972-0.10251-0.0326-0.20074 0-0.2921 0.10251l-1.4746 1.6294c-0.08622 0.09522-0.11281 0.18315-0.08406 0.27107 0.02917 0.08406 0.10337 0.17542 0.2166 0.2818l-0.07592 0.08406z"/><path d="m66.983 82.545c0.03946-0.08406 0.07506-0.13511 0.11366-0.15355 0.05404-0.0326 0.14283-0.02187 0.26164 0.02917 0.36158 0.15742 0.54558 0.43922 0.55287 0.84584 0.0026 0.25306-0.06262 0.52714-0.18958 0.82008-0.21446 0.49798-0.44607 0.79478-0.69742 0.89344-0.25092 0.09865-0.5117 0.08793-0.78449-0.02917-0.09951-0.04418-0.15827-0.09136-0.172-0.14283-0.01373-0.05104-0.0043-0.12053 0.02831-0.20846zm-0.72959 2.5812c0.52628 0.2269 1.0075 0.2595 1.4407 0.09522 0.38602-0.14283 0.66182-0.40233 0.8248-0.77978 0.181-0.42077 0.1913-0.8128 0.0283-1.1826-0.17929-0.40275-0.55287-0.7283-1.1194-0.97024l-1.406-0.61164-0.04761 0.10594c0.1171 0.06262 0.19602 0.1171 0.23419 0.16127 0.06691 0.08064 0.07978 0.172 0.03131 0.2818l-0.8896 2.0541c-0.04761 0.11366-0.1261 0.172-0.23419 0.172-0.06219 0-0.15012-0.0223-0.26979-0.06262l-0.0459 0.10594z"/><path d="m71.711 86.287-2.9081-0.36973 0.0163-0.11366c0.14111 0.01072 0.24362 0.0073 0.30839-0.01458 0.09822-0.03302 0.1557-0.1171 0.172-0.24534l0.27708-2.1819c0.01758-0.1321-0.0193-0.2269-0.1098-0.28566-0.05147-0.03646-0.14841-0.06562-0.2921-0.09179l0.01458-0.11366 2.8669 0.36286-0.1171 0.908-0.11966-0.01458c-0.02574-0.29638-0.10894-0.50913-0.2462-0.63694-0.13811-0.12482-0.40618-0.21618-0.80808-0.26378-0.15012-0.02187-0.24791-0.01802-0.29381 0.0078-0.04546 0.02187-0.0742 0.07678-0.08321 0.16085l-0.13425 1.044c0.2848 0.03646 0.48038 0.01458 0.59577-0.06949 0.11152-0.08064 0.20974-0.2492 0.29552-0.49454l0.12696 0.01458-0.19387 1.5235-0.12739-0.01844c-8.8e-4 -0.25993-0.05104-0.45037-0.14712-0.56746-0.09607-0.12056-0.28394-0.19391-0.5696-0.2308l-0.13897 1.0912c-0.01115 0.09565 0.0073 0.16514 0.05876 0.20545 0.04933 0.04032 0.15742 0.06949 0.32683 0.09136 0.31568 0.04032 0.58376 0.0223 0.79907-0.06562 0.21531-0.08793 0.41862-0.27494 0.6125-0.56017l0.13811 0.01802z"/><path d="m73.963 83.575c0-0.07334 0.02187-0.12095 0.06477-0.15055 0.04032-0.02917 0.1291-0.04418 0.26293-0.04418 0.2462 0.0038 0.41348 0.09179 0.50698 0.26765 0.05233 0.10208 0.07678 0.23805 0.07678 0.41734-0.0056 0.28566-0.07678 0.46881-0.21875 0.54515-0.14283 0.07721-0.37702 0.1171-0.70514 0.1171zm0.41176 2.7241 0.0017-0.11366c-0.17671-0.0073-0.2951-0.04032-0.35171-0.09522-0.06048-0.05876-0.08578-0.16514-0.08578-0.32598l0.0099-0.8896 0.13082 0.0034 1.026 1.4318 1.0251 0.01072 0.0026-0.1098c-0.04461-0.0038-0.08321-0.01072-0.11452-0.02187-0.03131-0.01072-0.06048-0.03689-0.08878-0.07334l-0.99512-1.3035c0.17286-0.02917 0.33498-0.09522 0.49068-0.19773 0.2003-0.13897 0.30367-0.33284 0.30539-0.58204 0.0047-0.33284-0.19302-0.56746-0.59491-0.69914-0.20588-0.06606-0.47567-0.09865-0.81112-0.10637l-1.6136-0.01458v0.1171c0.16942 0.01458 0.28008 0.04032 0.32941 0.07721 0.07163 0.05104 0.10809 0.1647 0.10551 0.34399l-0.02102 2.0065c0 0.16857-0.03302 0.27837-0.09608 0.32984-0.06262 0.04761-0.17929 0.07334-0.34871 0.08064v0.1171z"/><path d="m79.56 86.401-2.929-0.07721 0.0026-0.11366c0.14626 0 0.2462-0.01458 0.30839-0.04718 0.0935-0.04418 0.14369-0.1321 0.14626-0.25992l0.05404-2.2003c0.0056-0.1321-0.04032-0.22346-0.13554-0.27107-0.0549-0.02917-0.1557-0.05147-0.30196-0.06262l0.0047-0.11366 2.8896 0.07334-0.02488 0.91528-0.12182-0.0034c-0.05747-0.29338-0.16042-0.49798-0.31139-0.60778-0.14841-0.11366-0.42549-0.172-0.82736-0.18314-0.1557-0.0038-0.25049 0.0073-0.29381 0.03646-0.04289 0.02574-0.06391 0.08406-0.06691 0.16857l-0.02659 1.0509c0.2848 0.01072 0.48167-0.03302 0.58376-0.12482 0.10251-0.09522 0.18572-0.27065 0.2462-0.52714l0.1261 0.0034-0.03731 1.5342-0.12996-0.0038c-0.0283-0.2595-0.09521-0.44266-0.2033-0.54902-0.10809-0.1098-0.30582-0.16857-0.59019-0.17542l-0.02574 1.1019c-0.0056 0.09522 0.02102 0.16085 0.07592 0.19773 0.05233 0.03646 0.1647 0.0549 0.33498 0.06219 0.31954 0.0078 0.58033-0.04418 0.78621-0.15012 0.20588-0.10637 0.38989-0.31482 0.55459-0.6185l0.13811 0.0034z"/><path d="m81.827 86.606 0.05062-0.10251c0.172 0.08406 0.29638 0.11366 0.3753 0.08406 0.07592-0.02574 0.14369-0.09522 0.19602-0.20116l0.97104-1.9258c0.05662-0.1098 0.06391-0.20159 0.02402-0.26335-0.04118-0.06606-0.13382-0.1394-0.27751-0.2269l0.05233-0.10251 1.1285 0.57132-0.06391 2.3209 0.0356 0.01844 1.8242-1.4351 1.1268 0.56703-0.05018 0.10251c-0.15742-0.06562-0.27579-0.09136-0.34871-0.08064-0.07678 0.01458-0.15398 0.09865-0.23162 0.2565l-0.90504 1.7942c-0.07592 0.14626-0.09822 0.2595-0.06391 0.33284 0.03088 0.07334 0.12182 0.15355 0.26979 0.23462l-0.05062 0.10208-1.4862-0.74674 0.04933-0.10594c0.13639 0.06562 0.24706 0.09136 0.3307 0.09136 0.08578-0.0034 0.15913-0.06562 0.22261-0.18701l0.99936-1.9842-0.03389-0.01844-2.3003 1.8341-0.11966-0.06219 0.06949-2.8961-0.0193-0.0077-0.9252 1.8341c-0.06862 0.13554-0.0905 0.2492-0.06691 0.33713 0.02359 0.09136 0.1291 0.18658 0.31568 0.28909l-0.05018 0.10251z"/><path d="m88.63 90.67-2.3342-1.7723 0.06949-0.09136c0.1171 0.08406 0.2076 0.12782 0.2745 0.13897 0.10337 0.02187 0.1943-0.0223 0.27279-0.12482l1.3301-1.7534c0.07892-0.10637 0.09608-0.20546 0.04461-0.30024-0.02574-0.0549-0.09522-0.1321-0.20502-0.2269l0.06949-0.08793 2.2994 1.7427-0.55202 0.7283-0.09822-0.07334c0.12696-0.27065 0.16042-0.49754 0.10551-0.6734-0.0579-0.17929-0.2462-0.38774-0.5666-0.63351-0.12267-0.09179-0.20846-0.13897-0.25821-0.13897-0.05318-0.0038-0.10337 0.02917-0.1557 0.09522l-0.63351 0.842c0.22432 0.172 0.40576 0.25306 0.54473 0.23848 0.14111-0.01844 0.30839-0.11366 0.50698-0.28566l0.10337 0.07678-0.92816 1.2233-0.10251-0.07721c0.1291-0.2269 0.17929-0.41734 0.15742-0.56746-0.02659-0.15012-0.15012-0.31139-0.37787-0.48296l-0.66439 0.87496c-0.05962 0.07678-0.07721 0.14626-0.0549 0.20502 0.02402 0.06262 0.10251 0.14283 0.23719 0.2492 0.25563 0.19387 0.49711 0.30367 0.72573 0.3367 0.2299 0.0326 0.50054-0.02574 0.81112-0.17971l0.11281 0.08406z"/><path d="m89.084 91.058 0.06691-0.09136c0.1527 0.10208 0.26807 0.15012 0.34699 0.13511 0.07892-0.01844 0.15355-0.07334 0.22346-0.16857l1.2769-1.7315c-0.03217-0.21618-0.05576-0.34442-0.06777-0.38817-0.01201-0.04761-0.04032-0.08793-0.08622-0.12825l0.06777-0.09522 0.85608 0.62965 0.25349 2.5632 0.0193 0.01456 0.8008-1.0873c0.0905-0.12438 0.1321-0.23076 0.12182-0.32212-0.01201-0.08793-0.08878-0.1943-0.2299-0.31482l0.06691-0.09179 0.87024 0.6408-0.06948 0.09179c-0.13811-0.07334-0.24148-0.11366-0.30839-0.11023-0.06691 0-0.14111 0.05876-0.22432 0.16857l-1.5853 2.1566-0.11238-0.08406-0.3367-3.2619-0.02659-0.0223-1.059 1.4386c-0.0815 0.11023-0.12267 0.20159-0.12267 0.27494-0.0017 0.11366 0.07849 0.23805 0.24148 0.36243l-0.06949 0.09565z"/><path d="m92.516 93.56 0.50741-1.0032 0.1291 0.0656c-0.07892 0.34056-0.07206 0.61893 0.02102 0.83856 0.09436 0.2196 0.24448 0.38087 0.45508 0.48725 0.2033 0.10208 0.37358 0.13168 0.50698 0.0768 0.13082-0.0476 0.22432-0.12825 0.28008-0.23076 0.05876-0.12053 0.06391-0.24491 0.01373-0.3663-0.0356-0.08063-0.12181-0.20502-0.26293-0.37702l-0.22518-0.27794c-0.22261-0.27494-0.36072-0.50913-0.41562-0.69185-0.05318-0.18701-0.03474-0.37358 0.05962-0.56059 0.09994-0.19774 0.27279-0.34399 0.51642-0.43578 0.24148-0.09136 0.52628-0.05876 0.8488 0.10637 0.16556 0.08406 0.31397 0.18658 0.44478 0.30754 0.13168 0.12439 0.20846 0.19002 0.2299 0.20159 0.04761 0.02576 0.08793 0.0292 0.12182 0.01456 0.03217-0.0184 0.06477-0.04416 0.09779-0.08064l0.13296 0.06608-0.44565 0.88576-0.12482-0.0656c0.04332-0.23462 0.02659-0.46151-0.04933-0.68841-0.07678-0.21961-0.22261-0.38774-0.43835-0.49754-0.15012-0.07334-0.28909-0.09865-0.41562-0.06606-0.12482 0.02574-0.21489 0.09522-0.27022 0.20159-0.06391 0.12825-0.06949 0.24534-0.01887 0.35129 0.04761 0.10637 0.18186 0.29294 0.40018 0.56016l0.25992 0.31869c0.1171 0.14669 0.19859 0.27794 0.2462 0.40618 0.08793 0.23805 0.07592 0.46494-0.03389 0.68498-0.10251 0.20502-0.28909 0.35128-0.55845 0.44264-0.27107 0.09179-0.60306 0.04072-0.99592-0.16084-0.0905-0.04416-0.17886-0.09565-0.26293-0.15742-0.08622-0.06264-0.1647-0.1321-0.2389-0.21231l-0.0742-0.07336c-0.01758-0.01456-0.03389-0.0292-0.05062-0.04032-0.0193-0.01456-0.03389-0.02576-0.04761-0.0292-0.0459-0.02576-0.08406-0.0292-0.11281-0.01072-0.03088 0.01072-0.06477 0.04032-0.10037 0.0768z"/><path d="m101.17 95.096-2.9308-0.03304 0.0017-0.11366c0.14369-4e-3 0.2462-0.0184 0.30582-0.05104 0.0935-0.04416 0.14197-0.1321 0.14454-0.26378l0.02359-2.1965c0.0026-0.13554-0.04546-0.2269-0.14197-0.27107-0.05404-0.0292-0.15484-0.0476-0.30024-0.0588l0.0017-0.11366 2.8888 0.0292-0.012 0.9192-0.12267-4e-3c-0.0596-0.29295-0.16385-0.49411-0.3174-0.60391-0.15097-0.10981-0.4272-0.16857-0.82952-0.172-0.15526 0-0.25134 0.01072-0.29466 0.04032-0.04032 0.0292-0.06219 0.08793-0.06391 0.17199l-0.01286 1.0547c0.28738 0.0032 0.48125-0.04072 0.58075-0.1394 0.10294-0.09522 0.18443-0.27065 0.24019-0.52714l0.12953 0.0032-0.0202 1.5342-0.12652-4e-3c-0.033-0.2565-0.10252-0.43922-0.2136-0.54902-0.10894-0.10594-0.30453-0.16127-0.59019-0.1647l-0.01373 1.1019c0 0.09522 0.02659 0.16085 0.0815 0.19773 0.05233 0.03648 0.1647 0.05488 0.33456 0.05488 0.31955 4e-3 0.5829-0.0476 0.78578-0.15741 0.20416-0.10981 0.38516-0.32212 0.54601-0.62622h0.13811z"/><path d="m102.76 92.76 0.0416-0.01072 0.69356 0.926-0.95176 0.20846zm0.12438 2.1416-0.0236-0.1098c-0.11281 0.02576-0.19859 0.03304-0.25563 0.0292-0.10123-0.0072-0.15827-0.04416-0.172-0.1098-0.0129-0.05104-8e-3 -0.13897 9e-3 -0.25993 0.01-0.05832 0.0309-0.18658 0.0639-0.37702l1.101-0.23805 0.18315 0.24148c0.0386 0.05104 0.0712 0.09522 0.0982 0.13511 0.0412 0.06608 0.0648 0.1171 0.0721 0.15054 0.0167 0.0768 2e-3 0.12825-0.0455 0.16085-0.0455 0.0292-0.14841 0.06264-0.30668 0.10637l0.024 0.10981 1.5891-0.34442-0.0245-0.1098c-0.11238 0.02576-0.20674 8e-3 -0.28566-0.05872-0.0755-0.06224-0.20502-0.20846-0.38431-0.44307l-1.5998-2.094-0.13596 0.03-0.55974 2.6653c-0.0455 0.21232-0.0828 0.35129-0.1171 0.41734-0.0519 0.10637-0.13596 0.17199-0.25306 0.20545l0.0245 0.11366z"/><path d="m105.88 91.226c-0.0386-0.08406-0.0523-0.14626-0.0425-0.18658 0.0163-0.06262 0.0824-0.12095 0.20245-0.17199 0.35901-0.16514 0.69098-0.11023 0.99424 0.16085 0.18915 0.172 0.34914 0.39933 0.48125 0.69571 0.2196 0.49068 0.28265 0.86424 0.184 1.1169-0.0952 0.24878-0.27965 0.43578-0.5503 0.55674-0.0995 0.0472-0.17414 0.05488-0.22132 0.03264-0.0485-0.02184-0.0935-0.08064-0.13468-0.16085zm1.4077 2.2814c0.52499-0.23418 0.87071-0.56746 1.0457-0.99592 0.1557-0.38088 0.14927-0.76133-0.0184-1.1349-0.187-0.41777-0.47137-0.69184-0.85439-0.82008-0.41777-0.14283-0.908-0.08406-1.4721 0.16857l-1.3991 0.62579 0.0459 0.10637c0.12653-0.04416 0.21703-0.06562 0.27666-0.06562 0.10509 0.0034 0.17929 0.06219 0.22775 0.16857l0.91528 2.043c0.0506 0.11366 0.0377 0.20845-0.0309 0.29294-0.0407 0.04416-0.1171 0.09565-0.2299 0.15398l0.0476 0.10594z"/><path d="m111.96 90.538-2.3981 1.6844-0.0669-0.09522c0.11452-0.08406 0.1883-0.16127 0.21961-0.22003 0.0502-0.09136 0.0369-0.19001-0.0386-0.29638l-1.2627-1.801c-0.0759-0.11023-0.16642-0.15398-0.27194-0.1394-0.0622 0.01115-0.15269 0.05533-0.27708 0.1321l-0.0669-0.09522 2.3676-1.6586 0.52628 0.75061-0.10037 0.06948c-0.22003-0.20502-0.42548-0.30367-0.61249-0.30367-0.18701-0.0038-0.44479 0.11366-0.77463 0.34399-0.1261 0.08793-0.19687 0.15355-0.21488 0.20546-0.0176 0.04418-2e-3 0.10594 0.0472 0.17542l0.6052 0.8604c0.23419-0.16085 0.3663-0.31139 0.39461-0.4465 0.0262-0.13897-0.012-0.32984-0.11495-0.57132l0.10251-0.07291 0.88272 1.2598-0.10551 0.07292c-0.17672-0.19001-0.34142-0.29982-0.49326-0.32212-0.15012-0.02574-0.34442 0.04761-0.57561 0.20846l0.63179 0.90112c0.0549 0.08064 0.11452 0.11666 0.17929 0.11666 0.0639-0.0073 0.16771-0.0549 0.30582-0.15012 0.26035-0.18701 0.44221-0.38088 0.54515-0.58934 0.0995-0.20888 0.12653-0.48725 0.0772-0.82784l0.11366-0.08064z"/><path d="m112.57 90.069-0.0678-0.09522c0.15098-0.11366 0.23205-0.21231 0.24406-0.29638 9e-3 -0.08064-0.0223-0.16857-0.0935-0.26722l-1.2842-1.732c-0.0738-0.09865-0.15012-0.14626-0.22476-0.13897-0.0772 0.0077-0.18315 0.05876-0.32512 0.14669l-0.0695-0.09179 1.014-0.75404 2.0464 1.1019 0.0339-0.0223-0.46666-2.2775 1.0166-0.75061 0.0669 0.09179c-0.1291 0.1098-0.20417 0.20159-0.22775 0.27494-0.0227 0.07291 0.0176 0.17929 0.12267 0.32212l1.1971 1.6149c0.10166 0.13168 0.18958 0.20116 0.27107 0.20846 0.0811 0.0034 0.19087-0.04418 0.32941-0.13897l0.0695 0.09136-1.3361 0.99208-0.0695-0.09179c0.1171-0.09136 0.19302-0.17929 0.22947-0.25606 0.0369-0.07721 0.012-0.172-0.0695-0.28222l-1.3223-1.7826-0.03 0.02187 0.60392 2.8776-0.1068 0.08064-2.5568-1.3622-0.0193 0.01458 1.2271 1.6514c0.0909 0.12095 0.17843 0.19044 0.27236 0.20888 0.0905 0.01802 0.22217-0.03302 0.39717-0.15055l0.0695 0.08793z"/><path d="m118.34 86.654-9e-3 -0.1171c0.19044-0.01458 0.31054-0.0549 0.36243-0.1171 0.0532-0.06562 0.0755-0.15698 0.0652-0.27794l-0.166-2.1493c-9e-3 -0.12438-0.0467-0.20502-0.11366-0.23805-0.0695-0.03302-0.18658-0.05104-0.35386-0.05104l-0.01-0.11366 1.2602-0.09565 1.1461 2.021 0.0403-0.0034 0.81752-2.1746 1.2602-0.09565 9e-3 0.11366c-0.16985 0.02574-0.2818 0.06606-0.33971 0.11366-0.0596 0.05147-0.0806 0.16514-0.0686 0.3367l0.15484 2.0065c0.0116 0.16514 0.051 0.27107 0.11666 0.31482 0.0669 0.05147 0.18487 0.06949 0.35429 0.06262l7e-3 0.11666-1.6595 0.12482-9e-3 -0.11366c0.14755-0.01844 0.25864-0.04761 0.33027-0.09179 0.0712-0.04718 0.10208-0.13897 0.0931-0.27794l-0.16943-2.2115h-0.0386l-1.0204 2.7571-0.13468 0.01072-1.4369-2.5152-0.024 0.0038 0.15698 2.0502c0.012 0.15012 0.0536 0.2565 0.1201 0.32212 0.0665 0.06606 0.20502 0.09179 0.41862 0.08406l9e-3 0.11366z"/><path d="m123.35 83.296 1.6921-0.0034v0.11366c-0.19301 0.0073-0.32297 0.0326-0.38902 0.08406-0.0656 0.04718-0.0961 0.16085-0.0961 0.3367l5e-3 1.5192c0 0.23076 0.0309 0.41005 0.0914 0.53486 0.11023 0.23419 0.31954 0.34786 0.63094 0.34786 0.38516 0 0.64637-0.1321 0.77891-0.3916 0.0742-0.14283 0.11366-0.34056 0.11066-0.59706l-3e-3 -1.3875c-3e-3 -0.1647-0.0339-0.27494-0.0995-0.3367-0.0669-0.06262-0.19687-0.09865-0.39031-0.1098v-0.1171h1.1023v0.11366c-0.16042 0.02917-0.26551 0.06219-0.31568 0.10251-0.0523 0.04418-0.0772 0.13511-0.0772 0.2818l4e-3 1.4536c8.8e-4 0.38431-0.10079 0.68455-0.30667 0.89344-0.20417 0.21231-0.52671 0.31826-0.9676 0.31826-0.57775 0.0038-0.97232-0.15355-1.1855-0.46494-0.11109-0.1647-0.16942-0.37702-0.16942-0.63694l-5e-3 -1.5231c0-0.172-0.0262-0.27794-0.0742-0.32598-0.0506-0.04032-0.16213-0.07334-0.33671-0.09179v-0.11366z"/><path d="m127.43 84.182-0.0472-0.91576 3.0127-0.17929 0.0571 0.91184-0.14284 0.01072c-0.0669-0.32212-0.21617-0.53443-0.44478-0.6408-0.1291-0.0549-0.31826-0.07678-0.56918-0.06949l0.14369 2.387c9e-3 0.16857 0.0463 0.27494 0.11452 0.32984 0.0695 0.04761 0.20331 0.06949 0.40919 0.05876l5e-3 0.11366-1.7838 0.10594-8e-3 -0.11666c0.19601-0.01115 0.32597-0.04418 0.38516-0.10251 0.0626-0.06262 0.0888-0.172 0.0789-0.34056l-0.14364-2.3869c-0.2432 0.02187-0.42849 0.06562-0.5546 0.13897-0.23419 0.1321-0.356 0.35901-0.36544 0.68455z"/><path d="m131.74 83.684 0.0386-0.01072 0.7772 0.85656-0.92992 0.29295zm0.32126 2.127-0.0369-0.1098c-0.10809 0.03302-0.19387 0.05147-0.25049 0.05147-0.10079 0.0034-0.16299-0.02917-0.18229-0.09179-0.0167-0.05104-0.0223-0.13897-0.0138-0.26336 5e-3 -0.05876 0.0138-0.18701 0.0283-0.38088l1.0736-0.33713 0.20588 0.22346c0.0446 0.05104 0.0811 0.09136 0.1098 0.12825 0.0446 0.06219 0.0742 0.1098 0.0858 0.1424 0.024 0.07334 0.0138 0.12825-0.0279 0.16127-0.0442 0.03646-0.14411 0.08064-0.29767 0.13554l0.0369 0.1098 1.5467-0.49111-0.0356-0.1098c-0.10809 0.03689-0.20373 0.02917-0.2848-0.02574-0.0841-0.0549-0.22518-0.19001-0.42549-0.41005l-1.7869-1.937-0.13382 0.04032-0.31054 2.7094c-0.0266 0.21231-0.051 0.35471-0.0798 0.42463-0.0429 0.10594-0.1188 0.18315-0.23161 0.22647l0.033 0.11023z"/><path d="m133.52 83.091-0.50098-0.76905 2.5238-1.6582 0.50955 0.76133-0.12224 0.08064c-0.22003-0.24534-0.45422-0.35901-0.70428-0.32984-0.13982 0.01458-0.31482 0.08793-0.52714 0.22003l1.313 1.9987c0.0926 0.14283 0.18143 0.21618 0.2655 0.22346 0.0832 0.01458 0.21017-0.04074 0.38002-0.15055l0.0648 0.09522-1.4956 0.98136-0.0614-0.09522c0.16298-0.10637 0.2552-0.20159 0.27879-0.28566 0.0249-0.08064-9e-3 -0.19044-0.0995-0.32984l-1.315-1.9987c-0.20074 0.14283-0.3397 0.2745-0.4139 0.39546-0.13383 0.23419-0.12611 0.49068 0.0266 0.77978z"/><path d="m138.31 81.132c-0.22261-0.06219-0.47568-0.19773-0.76605-0.40233-0.28094-0.20159-0.4924-0.39546-0.62494-0.57861-0.25392-0.35514-0.27107-0.68498-0.0514-0.99208 0.15741-0.22346 0.38302-0.32984 0.67468-0.31482 0.2921 0.01115 0.63566 0.15742 1.0302 0.43922 0.28652 0.20159 0.49798 0.39932 0.63351 0.5859 0.2492 0.34786 0.26379 0.67726 0.0459 0.98096-0.22046 0.30796-0.53314 0.40275-0.94192 0.2818zm-1.9318-0.74289c0.057 0.4465 0.2818 0.80552 0.66911 1.0834 0.35171 0.2492 0.74331 0.33327 1.1735 0.25306 0.46237-0.08793 0.848-0.34828 1.1559-0.7875 0.29209-0.41005 0.41561-0.83808 0.36757-1.285-0.0472-0.45422-0.26507-0.82008-0.65495-1.0985-0.38989-0.27837-0.80848-0.35901-1.255-0.2565-0.43577 0.10251-0.79907 0.35901-1.0903 0.77248-0.30667 0.42506-0.42848 0.86816-0.36586 1.3185z"/></g><g fill="#fae3b6"><path d="m90.506 56.763s-0.31482-0.04847-0.31482-0.4019c0-0.35342 0.31268-0.45937 0.31268-0.45937h1.451l-9e-3 0.86128z" stroke-width=".42892"/><polygon transform="matrix(.42892 0 0 .42892 56.896 17)" points="106.83 116.46 102.82 117.27 100.44 113.95 98.314 117.24 94.362 116.42 95.098 120.41 91.737 122.65 95.066 124.94 94.255 128.92 98.22 128.18 100.44 131.56 102.72 128.21 106.68 129.02 105.94 124.94 109.31 122.7 105.98 120.51"/><polygon transform="matrix(.42892 0 0 .42892 56.896 17)" points="70.476 92.792 66.466 93.607 64.086 90.284 61.963 93.566 58.009 92.753 58.751 96.747 55.382 98.978 58.711 101.28 57.904 105.25 61.867 104.51 64.091 107.9 66.37 104.55 70.322 105.36 69.599 101.28 72.96 99.038 69.622 96.84"/><polygon transform="matrix(.42892 0 0 .42892 56.896 17)" points="143.12 92.738 139.11 93.547 136.73 90.229 134.61 93.507 130.66 92.698 131.4 96.691 128.03 98.927 131.36 101.22 130.55 105.19 134.51 104.46 136.73 107.84 139.02 104.49 142.97 105.3 142.24 101.22 145.6 98.978 142.26 96.776"/></g><path d="m106.05 62.547v-7.7406s-1.4587-0.34699-2.0862-0.34227c-0.77419 0.0082-2.8669 0.2299-3.629 0.842v6.9442s1.2988-0.36243 2.4084-0.36243c1.7015 4.29e-4 3.307 0.65925 3.307 0.65925z" fill="#fff" stroke-width=".42892"/><path d="m107.48 63.254v-7.5962s-0.39374-0.37788-0.7506-0.51642v7.6146s0.68627 0.32254 0.7506 0.49798z" fill="#fff" stroke-width=".42892"/></g><path d="m104.15 60.58c-1.1058-0.3989-2.4101 0.01459-2.4126 0.01459l-0.11282-0.34013c4e-3 -0.0039 1.4296-0.45422 2.6473-0.01458zm0.0176-1.3472c-1.1161-0.34442-2.4195 0.08407-2.4225 0.08793l-0.11324-0.34442c4e-3 0 1.4146-0.4688 2.6416-0.08792zm3e-3 -1.2438c-0.99379-0.23547-2.4216 0.15569-2.4251 0.15569l-0.11323-0.3427c4e-3 -8.8e-4 1.5406-0.41991 2.6207-0.16385zm0-1.2906c-0.98859-0.2342-2.4302 0.23591-2.4328 0.23719l-0.1128-0.34314c4e-3 0 1.5415-0.50355 2.628-0.24535z" fill="#0668b3" stroke-width=".42892"/><g clip-rule="evenodd" fill-rule="evenodd" stroke-width=".42892"><g fill="#eeb310"><path d="m93.39 75.447c-0.2033 0.24491-0.12353 0.51985-0.1647 0.76519-0.04032 0.24491 0.19302 0.83128 0.55931 1.1169 0.3663 0.28523 1.1834 0.14283 0.8184 0.26336-0.36415 0.12053-1.8074 0.69957-1.8074 1.0251 0 0.32254 1.5634-0.21574 1.6861-0.09136 0.12181 0.12053 0.2625 0.15012-0.10337 0.39932-0.35429 0.24491-2.6966 0.6185-2.6709 1.1752 0.02402 0.53443 0.1098 1.922 0.39546 1.8817 0.89088-1.7791 4.3278-2.7935 3.6359-2.3209-0.17671 0.18658-1.59 1.2627-1.1542 1.9186 0.15998 0.24534 1.071 2.0172 1.2336 2.0575 0.15956 0.04032-0.25178-3.2366 2.0704-4.0164 0.8488-0.28909-2.5366 2.3067 1.9302 5.6862v-5.8174c-0.62965-0.92992-1.6694-1.8782-2.1545-2.2441-0.75318-0.56746-1.9658-0.87544-2.5327-0.91184-1.5454-0.09222-1.7414-0.88704-1.7414-0.88704z"/><path d="m81.782 24.739s0.82568-0.63609 1.2576-0.89256c0.38346-0.22604 1.1174-0.77891 1.4369-1.0354 0.2033-0.1617 1.1645-0.91528 0.89168-0.91528 0 0-1.261 0.04761-1.6805 0.45208-0.04032-0.24448 0.89168-1.7457 1.4206-2.0283-0.16299-0.20245-0.2432-0.30367-0.6481-0.28394-1.6895 0.07592-2.3534 1.5797-2.7991 1.9048-0.24234-0.0815-0.48897-1.4699-0.52457-1.6312-0.48811 0.28566-0.79178 0.86128-0.85312 1.1864-0.05834 0.28738-0.08406 1.8225-0.12267 2.1883-0.02402 0.21703 0.09779 1.1782-0.69313 1.9413-0.29295 0.2848-0.47138 0.2003-0.56446 0.1677-0.24362-0.0815-0.0815-0.16299 0.0815-0.32298 0.16299-0.16299 0.5666-0.8128 0.52628-1.1358-0.04118-0.32512-0.32598-1.159-1.4189-1.2979-0.59019-0.07678-0.93248-0.04118-1.2979 0.32512 0.36544 0.24148 1.3794 0.68927 1.4206 1.5402 0.04032 0.85144-0.77248 1.623-1.2988 1.9048-0.528 0.2848-1.5248 0.46966-2.3076 0.46966-0.79093 0-1.3099-0.05962-1.7144-0.33026-0.31482-0.2136-0.40104-0.63909-0.13382-0.9904 0.24148-0.31311 0.24834-0.47353 0.3633-0.13382 0.21489 0.6408 1.155 0.42849 1.4206 0.39718 0.5207-0.05747 1.2314-0.6601 1.0453-1.3245-0.11538-0.40747-0.27537-1.038-1.7418-1.038-1.3382 0-3.1989 0.84408-3.0002 3.2203 0.05747 0.68627 0.78706 2.0018 3.1834 2.2844 0 0 0.90248 0.1454 1.3472 0.1454 0 0 0.58118 0.01673 1.6843-0.28266 1.6951-0.45851 9.7464-6.0018 11.598-4.5573 0.531 0.60606 0.19602 1.0865 0.05062 1.2632-0.06777 0.07892-0.16042-0.53614-0.71114-0.6571-0.41262-0.09307-1.3262 0.2269-1.297 1.1285 0.04203 1.3172 1.4051 1.3546 1.4866 1.3546 1.5587 0.02917 2.1694-1.6346 2.1694-2.812 0-1.1752-0.65538-2.4547-2.3178-2.4547-1.327 0-2.1107 0.37787-2.4869 0.58762-0.44478 0.2492-2.4384 1.3318-3.0835 1.6621-0.58847 0.30367-0.6481 0.3663-0.6481 0.3663-0.12182-0.12138-0.04118-0.36586-0.04118-0.36586z"/><path d="m67.254 59.882c0.08793 0.17586 0.33498 0.35128 0.47052 0.43921 0.14626 0.09522 2.2068 0.91144 2.4302-2.0579 0.07763-1.068-0.9072-4.1305-1.0912-5.047-0.19602-0.99208-0.28823-3.4481 1.3005-4.3303 1.2889-0.61978 2.4804 0.28652 2.5619 1.2598 0.0815 0.97408-0.47395 1.1726-0.79178 1.2867-0.43578 0.15742-1.4407-0.0815-1.4854-0.79178 0 0-0.35429 0.85568 0.18186 1.4206 0.08878 0.09608 0.38731 0.31311 0.8368 0.39632 1.671 0.1364 2.1373-0.69999 2.3414-1.0346 0.3663-0.59577 0.4495-1.2529 0.4375-2.1527-0.0193-1.1826-0.93544-2.7159-2.6782-2.7159-0.96208 0.08622-1.6222 0.40362-1.9057 0.9732-0.32469-0.528-0.3663-0.89256-0.12182-1.3391 0.24362-0.44522 0.68842-0.89168 1.5827-1.0542-0.04032-0.85144-1.7435-1.2486-2.1493-1.2173-0.61507 0.04846-0.6125 0.09136-1.1358 0.2848-0.0815-0.32469-0.12267-1.068 0.80552-1.6385 2.1759-1.3318 3.3618 1.385 3.4125 0.3397 0.07592-1.6689 1.7594-1.7667 1.7594-1.7667s-0.2359 1.427-0.13811 1.6046c0.11881 0.50226 1.2576 1.5021 1.623 2.6378 0.3633 1.1349 0.28309 1.783-0.04032 2.6344 0.04032 0.3663 0.12182 0.3663 0.12182 0.3663 0.40447-0.48768 0.68927-1.2988 0.81112-2.0686 0.12267-0.7699 0.4139-2.1905-0.39718-5.2748-0.81024-3.0822-2.6434-3.6055-3.0097-3.6055-0.51427 0-0.8896 0.1913-1.0954 0.40361-0.17843 0.18915-0.38259 0.61764-0.1291 0.9428 0.15742 0.20245 0.37358 0.08878 0.53529-0.13168 0.24019-0.32298 0.59791-0.33198 0.842-0.29123 0.24362 0.04032 0.67898 0.356 0.67898 0.80296 0 0.44478-0.5117 1.3035-1.4854 1.385-0.9732 0.08149-1.8023-0.65538-1.9242-0.89984-0.12267-0.24148-0.41648-1.9177-0.35214-2.1686 0.59319-2.3762 3.0874-2.8403 3.0518-4.4642-0.02187-0.92992-0.18143-0.94704-0.28008-1.4781-0.22518-1.2001 0.59319-2.0768 0.59319-2.0768 0.2848 0.04032 1.9443 0.2269 2.4706 0.2269 0 0 0.42763 0.98952 1.8345 1.6038 0.91528 0.40018 1.3142 0.35858 1.8838 0.19687 0.04032 0.28094-0.08621 0.4465-0.3663 0.59491-0.6957 0.3663-0.57475 0.62236-0.57475 0.74418 0 0.11881 1.0226 0.75404 1.0226 2.2973-0.2848-0.0815-1.6312-1.4489-2.6039-1.409-0.24448 0.20417 0.08064 0.46238 0.2106 0.7579 0.12653 0.29466 0.32512 0.81368 0.32512 1.2988-0.44693-0.24362-1.0161-0.60778-1.5836-0.60778-0.56574 0-1.4197 0.52628-1.4197 0.81112 0.64981 0.5666 3.2859 1.8645 3.9765 4.5028 0.68798 2.6353 0.40447 6.2047-0.2033 7.9075-0.60949 1.7024-1.7457 4.0146-4.1365 4.9059-0.83464 0.28266-1.382 0.19387-1.5424 0.16299-0.52157-0.10251-1.0954-0.44693-1.255-0.52542-0.12267 0.15956 0.15742 0.86216 0.6378 1.7071 0.31311 0.54644 0.86768 1.4373 2.2694 1.5827 0.99208 0.02187 1.4935-1.2284 0.68198-1.4948 9e-3 0.3753-0.08621 0.5117-0.39932 0.67898-0.26636 0.14111-0.58934-0.0356-0.71114-0.2389-0.12182-0.2003-0.11452-0.7579 0.17757-1.0071 0.2299-0.19387 0.38174-0.37702 1.0324-0.3367 0.6481 0.04118 1.5998 1.2889 0.8488 2.4697-0.16685 0.26336-0.58762 0.92816-1.5368 1.0066-0.6867 0.05747-1.8443-0.39289-2.3011-0.79607-0.43664-0.38517-0.43664-0.59491-0.9436-0.6125-0.2848 0.32298 0.93464 1.3365 1.1864 1.4918 0.97496 0.60906 1.3978 0.70128 2.4075 0.9908 1.1049 0.31654 1.1906 0.84024 1.5166 1.6127-0.48811 0-0.65624 0.04032-1.0556 0.12438-0.37058 0.07334-0.57132 0.28952-0.60949 0.40275-0.33498 1.0946 0.07163 2.537 0.18658 3.3537-0.1557 0.37316-1.7362 0.98096-2.1729 0.20502 0.45379-0.59706 0.95992-1.5454 0.59405-2.7897-0.50141-1.2962-1.255-1.5381-1.255-1.5381s-0.3663 0.86768-0.81448 1.2778c-0.31397 0.34442-1.2889 1.1791-3.0921 0.8604-0.73688-0.12825-1.5128-0.77978-1.8435-1.3949z"/><path d="m66.314 60.574c-0.1171-0.15742-0.2389-0.55674-0.25049-0.81624-0.02402-0.44307 0.08321-1.9863 1.5497-2.1364 0.83384-0.08578 1.4206 0.42291 1.4206 1.155 0 0.72873-0.74418 0.92992-1.1714 0.80168-0.12739-0.03646-0.50741-0.38774-0.36458-0.79435 0.0815-0.2269-0.3367 0.01458-0.36801 0.44264-0.02102 0.2818 0.03131 0.42463 0.12482 0.65538z"/><path d="m70.527 39.807s-0.9728-2.0734-1.059-2.1403c-0.2921-0.69356-0.5829-1.0213-0.47395-1.6432 0.1098-0.61978 0.68755-0.87328 1.0161-1.2383-0.25435-0.2921-0.75232-0.34957-0.84496-0.30367-0.10637 0.05233-1.2945 0.30367-0.93848 2.1266-0.8896-1.0186-1.1997-1.005-1.6934-0.93072-0.15956 0.02488-0.81448 0.07678-1.2447 0.8008 0.61978 0.14626 1.59 0.4212 1.59 0.78706-0.2565 0.25521-1.1461 0.9848-1.2057 1.4965-0.09608 0.81024 0.29466 1.041 0.5117 1.1315 0.181-1.0204 0.6481-1.4707 1.1315-1.5321 0.43492-0.05747 0.95824-0.06606 1.6779 0.32683 0.80376 0.43964 1.533 1.119 1.533 1.119z"/><path d="m98.75 18.547s0.35514-1.0963 1.0967-1.5102c0 0 0.31826 4.4998-0.98952 5.9083-1.2979 1.3987-2.6224 1.5321-3.2997 1.6998-2.8266 0.69098-4.0146 1.1221-4.9978 1.8984 0.22518-3.8735-0.09994-4.9994 3.1066-6.4926 0.02574 0.07678-0.77978 1.8058-0.88704 2.7862l-0.04118 0.37358c0.11452 0.10551 0.3753 0.05233 0.49068-0.12696 0.09822-0.1557 1.6629-2.432 2.6134-2.5804 0.0742 0.0742-0.39932 0.55116-0.57561 0.95008-0.11795 0.26979-0.21146 0.75962-0.04418 0.87672 0.27537 0.19645 0.68198 0.06477 0.9904-0.10723 0.16042-0.08878 1.1928-0.61507 1.1114-2.5388-0.04761-0.14926-0.19044-0.6957-0.9016-0.82136 0.13982-0.3989 0.51727-0.55202 0.95008-0.42291 0.47138 0.13811 0.89432 0.58762 1.1405 0.62879z"/><path d="m106.57 75.461c0.20416 0.24491 0.12309 0.51985 0.1647 0.76519 0.0403 0.24148-0.19558 0.83128-0.56231 1.1169-0.3633 0.28523-1.1834 0.13897-0.81712 0.2595 0.36629 0.12095 1.8079 0.70299 1.8079 1.0255 0 0.32598-1.5642-0.21231-1.6857-0.08793-0.12224 0.1171-0.26293 0.15012 0.10294 0.39932 0.356 0.24491 2.6962 0.6185 2.6722 1.1748-0.0236 0.53486-0.11152 1.9224-0.39632 1.8821-0.8896-1.783-4.3261-2.7935-3.6372-2.3247 0.17929 0.19001 1.59 1.2666 1.155 1.922-0.15998 0.24534-1.0689 2.0172-1.2323 2.0575-0.1617 0.04032 0.2492-3.2366-2.0721-4.0198-0.84928-0.28566 2.537 2.3102-1.9275 5.6896v-5.8174c0.62708-0.92992 1.6668-1.8821 2.1545-2.2479 0.75361-0.5636 1.9649-0.87152 2.5319-0.908 1.5428-0.09565 1.7414-0.88656 1.7414-0.88656z"/><path d="m118.17 24.752s-0.8252-0.63522-1.2585-0.89168c-0.38217-0.2269-1.1143-0.77978-1.4373-1.0354-0.2033-0.16213-1.1615-0.91832-0.89168-0.91832 0 0 1.2632 0.05062 1.681 0.45208 0.0412-0.24234-0.89168-1.7435-1.4197-2.0283 0.16256-0.2003 0.24406-0.30024 0.64981-0.2818 1.689 0.07678 2.3534 1.581 2.7982 1.9057 0.24276-0.0815 0.48682-1.4712 0.52328-1.6303 0.48811 0.28394 0.7922 0.8604 0.85568 1.1826 0.057 0.28738 0.0815 1.825 0.12181 2.1909 0.0223 0.21703-0.0995 1.1782 0.69184 1.9413 0.29381 0.2818 0.47052 0.2003 0.5636 0.1677 0.2432-0.0815 0.0806-0.16299-0.0811-0.32598-0.16042-0.15913-0.56746-0.81112-0.52671-1.1332 0.0403-0.32512 0.32769-1.1598 1.421-1.2988 0.58848-0.07592 0.93248-0.04032 1.2958 0.32598-0.36372 0.24148-1.3777 0.68798-1.418 1.5402-0.0412 0.85144 0.76991 1.6209 1.2962 1.9048 0.52757 0.2848 1.5274 0.46881 2.3063 0.46881 0.79179 0 1.3112-0.05961 1.7174-0.32984 0.31568-0.21317 0.3989-0.63866 0.13168-0.9904-0.23977-0.31311-0.24877-0.47524-0.36457-0.13382-0.21489 0.6408-1.1538 0.42549-1.4167 0.39718-0.52457-0.06048-1.234-0.6601-1.0457-1.3254 0.1158-0.40533 0.27493-1.0371 1.741-1.0371 1.3365 0 3.1976 0.84408 2.999 3.2199-0.0579 0.6867-0.78448 2.0018-3.1826 2.284 0 0-0.902 0.1454-1.3494 0.1454 0 0-0.58033 0.01758-1.683-0.2818-1.6925-0.46151-9.7464-6.0018-11.597-4.5573-0.53271 0.6052-0.19901 1.0865-0.0506 1.2632 0.0652 0.07892 0.15827-0.53572 0.71114-0.65796 0.41047-0.0935 1.3245 0.22775 1.2962 1.1285-0.0416 1.3181-1.4069 1.3554-1.4883 1.3554-1.5591 0.02831-2.1669-1.6354-2.1669-2.812s0.65368-2.456 2.3149-2.456c1.3301 0 2.1146 0.37787 2.4898 0.58847 0.44178 0.2462 2.4362 1.3318 3.0818 1.6616 0.58847 0.3011 0.64809 0.3663 0.64809 0.3663 0.12439-0.1201 0.0425-0.36458 0.0425-0.36458z"/><path d="m128.05 62.031s2.1738 2.0395 1.6814 3.8041c-0.0386 0.14283-0.34442 1.4026-2.0734 1.7646-0.2848-0.12095-0.52628-0.55674-0.76776-0.57475-0.528-0.04074-1.7547 2.021-2.0318 2.4418-0.28737 0.44264-0.85607 1.2778-0.85607 1.6843 0 0.40618 1.7066-0.81664 2.3745-1.4866 0.66912-0.6704 0.47224-1.3875 1.0402-1.3875 0.12139 0.53057 0.0253 0.94832 0.14841 0.99208 0.12138 0.04032 1.3125-1.1898 2.1231-1.0286 0.8132 0.16085 1.859 1.3546 1.7384 2.1674-0.2655 0.19044-1.5377-0.52714-1.8598-0.56746-0.29038-0.04032-0.65367 0.05147-0.51727 0.4212 0.32597 0.15698 1.4103 1.4386 1.0899 1.6329-0.31911 0.19387-0.41819-0.48339-2.7704-0.45037-1.4545 0.11366-1.9327 0.79478-1.916 1.3254 9e-3 0.32212 0.0721 0.62622 0.2625 0.68798 0.35128 0.11366 0.82008 0.12482 2.1214-0.13168 1.1169-0.22003 1.1328-0.45766 1.0903 0.02917-0.0266 0.26722-0.96632 0.61507-0.96632 1.062 0 0.4465 2.3861 1.0286 0.5932 3.467-0.92264 0.98864-2.9068 1.0402-3.3979 0.79093-0.12139-0.24491 1.415-0.97408 1.2202-1.9477-0.0322-0.1647-0.36158-0.926-1.2872-0.98864-0.56017-0.04032-0.0643 1.0873-1.2529 1.1864 0-1.5085-0.77634-1.4425-0.77634-1.4425s-0.42206-0.07334-1.4545 0.30024c-0.76348 0.27494-1.3395 0.40618-1.581 0.92992-0.24363 0.531-0.0416 0.28566 0.32212 0.28566 0.36629 0 0.78964-0.28566 1.2778-0.20545 0.4851 0.08064 0.96848 0.62236 1.0873 1.1868 0.12138 0.57089 0.21274 1.8194-0.39461 1.9803 0 0-0.29853-1.1864-1.9799-1.8782-0.48982-0.20159-1.21-0.18701-1.9799 0.09865-0.77162 0.2818-3.5652 1.6294-6.3651 1.6294-2.797 0-4.667-2.0648-5.029-2.8373-1.2812-2.7532 0.65109-4.3934 1.9872-4.3385 2.3766 0.10208 2.5658 1.8821 2.4753 2.2806-0.1008 0.43578-0.25392 1.3584-1.3807 1.1534-0.72144-0.1321-0.77635-1.1276-0.77635-1.1276-0.66268 0.1098-0.67169 0.77634-0.64037 0.9556 0.15998 0.99552 1.276 1.2778 1.8859 1.373 0.45207 0.07334 1.2503 0.09136 1.8032-0.02574 0 0 3.7749-0.43621 6.1374-1.937 2.9128-1.8495 3.69-3.2366 4.7515-5.5434 1.3922-2.8518 2.0155-6.5208 2.0155-6.5208s1.361 1.1169 1.2885 1.1388c1.7139-0.4568 1.5394-2.3496 1.5394-2.3496z"/><path d="m71.904 62.017s-2.1703 2.0395-1.6805 3.8041c0.0386 0.14283 0.34442 1.4026 2.073 1.7646 0.2848-0.12095 0.52671-0.55674 0.76819-0.57475 0.528-0.04074 1.7547 2.021 2.0322 2.4418 0.28738 0.44264 0.85824 1.2778 0.85824 1.6843 0 0.40618-1.7071-0.81664-2.3762-1.4866-0.6704-0.6704-0.47395-1.3841-1.041-1.3841-0.12267 0.52714-0.02659 0.94832-0.14712 0.98864-0.12267 0.04032-1.3138-1.1898-2.1236-1.0286-0.81112 0.16085-1.8606 1.3584-1.7393 2.1674 0.2655 0.19044 1.5377-0.52371 1.8628-0.56746 0.28738-0.04032 0.6511 0.05533 0.51427 0.4212-0.32469 0.15698-1.4116 1.4386-1.0903 1.6329 0.3204 0.19387 0.41734-0.48339 2.7726-0.4465 1.4527 0.1098 1.9306 0.79093 1.9138 1.3215-0.0099 0.32598-0.06949 0.63008-0.26378 0.69184-0.34871 0.1098-0.82008 0.12095-2.1206-0.13168-1.1139-0.22003-1.1332-0.46151-1.0873 0.02574 0.02274 0.27107 0.96288 0.61506 0.96288 1.062 0 0.4465-2.3861 1.0286-0.59319 3.467 0.92344 0.98864 2.9081 1.0402 3.4013 0.79093 0.11881-0.24148-1.4189-0.97408-1.222-1.9477 0.03302-0.1647 0.3633-0.92264 1.2859-0.98864 0.55931-0.04032 0.06691 1.0873 1.255 1.1898 0-1.5119 0.77548-1.4463 0.77548-1.4463s0.41991-0.07334 1.4536 0.30024c0.76519 0.27494 1.3391 0.40618 1.5827 0.93376 0.24448 0.52714 0.04117 0.2818-0.32512 0.2818-0.36544 0-0.78878-0.28566-1.276-0.20159-0.48597 0.07721-0.9668 0.6185-1.0894 1.1864-0.12182 0.56746-0.21231 1.816 0.39718 1.9807 0 0 0.29638-1.1898 1.9799-1.8821 0.48768-0.20116 1.21-0.18315 1.9799 0.09865 0.7699 0.2818 3.5652 1.6294 6.3622 1.6294 2.7982 0 4.6709-2.0648 5.029-2.8373 1.2816-2.7532-0.6481-4.3934-1.9842-4.3385-2.377 0.10208-2.5683 1.8821-2.4778 2.2806 0.10079 0.43621 0.25349 1.3584 1.3802 1.1534 0.7223-0.1321 0.7772-1.1276 0.7772-1.1276 0.66268 0.1098 0.67169 0.77634 0.64338 0.9556-0.16213 0.99592-1.2794 1.2778-1.8894 1.373-0.45208 0.07334-1.2503 0.09136-1.8023-0.02573 0 0-3.7766-0.43621-6.1382-1.9336-2.9132-1.8525-3.6904-3.2401-4.7515-5.5468-1.3922-2.8518-2.0163-6.517-2.0163-6.517s-1.3584 1.113-1.288 1.1349c-1.7118-0.4568-1.5377-2.3496-1.5377-2.3496z"/><path d="m101.21 18.563s-0.3307-1.1221-1.0718-1.5351c0 0-0.34442 4.5208 0.96376 5.9315 1.3005 1.3987 2.625 1.5321 3.2984 1.6998 2.8296 0.69184 4.0177 1.1221 5.0003 1.8984-0.22475-3.8735 0.1008-4.9986-3.1079-6.4904-0.0232 0.07334 0.78148 1.8023 0.88744 2.7854l0.0425 0.37273c-0.1171 0.10509-0.37702 0.05318-0.4924-0.1291-0.0982-0.15355-1.6612-2.4294-2.6104-2.5795-0.0772 0.07592 0.3989 0.54944 0.57389 0.95088 0.11881 0.26979 0.21231 0.76047 0.0446 0.8776-0.27666 0.19602-0.68198 0.06262-0.98992-0.10723-0.15999-0.09136-1.1962-0.61507-1.1147-2.5401 0.0472-0.15098 0.19215-0.69828 0.902-0.82008-0.13811-0.3989-0.51642-0.55287-0.94744-0.42291-0.47095 0.13811-0.8964 0.58762-1.1396 0.62879z"/></g><g fill="#fae3b6"><path d="m88.408 38.64c0.20502 0.06949 0.76776 0.5769 0.9016 0.7223 0.53358-0.1454 5.2362-2.4393 5.5661-2.8334 0.26807-0.40104 0.27279-0.79393 0.39718-0.72573 0.72402 0.39632 1.0573-0.1321 1.5827-0.66096 0.6867-0.6867 1.2422-1.252 1.3301-1.3626 0.9372 0 10.559-0.0047 10.559-0.0047s2.2402 0.06219 2.4204-0.8128c0.0905-0.84928-1.0213-0.9904-1.916-0.9904-0.89128 0-3.3811 0.3397-4.3256 0.64595-0.8484 0.21703-1.6659 0.63351-2.6936 0.63351-1.0273 0-2.7047-0.30667-2.8841-1.4373-0.17757-1.1315 0.53529-1.569 1.5179-1.825 0.98096-0.25521 0.80424 0 0.62408-0.18401-0.17929-0.181-0.14841-0.17371-0.13425-0.40104 0.0579-0.86424 1.2207-1.3897 1.5758-1.3897 0.35685 0-0.85784 1.0542-0.46066 1.7547 0.0905 0.15742 0.13125-1.095 2.7069-0.96288 0.36372 0.01802-2.205 1.6372-1.9035 1.5844 1.5068-0.26464 1.5514 0.51899 0.356 0.94664-0.20502 0.07506-1.7577 0.28008-1.4883 0.17586 0.32941-0.13425 0.64981-0.39418 0.67598-0.68069 0.0476-0.50741-1.005-0.30968-1.2229-0.26893-0.23162 0.04546-1.1478 0.23247-1.1924 0.96376 0.0326 0.44307 0.5636 0.75318 1.3176 0.81536 1.5059-0.04761 1.8499-0.29466 2.3745-0.4495 0.62622-0.18958 3.0599-0.95904 4.8892-0.9968 1.8439-0.03946 3.0316 0.2981 3.5034 0.9436 0.72616 0.9904 0.51127 1.7766 0.19859 2.1763-0.31396 0.4019-1.6058 0.67383-1.6058 0.67383 0 0.5117 0.26851 0.8776 0.49112 1.0598 0.22518 0.18401 1.3078 0.57861 1.5762 0.57861 0.26721 0 1.2044-0.07892 1.2044 0.06691 0 0.14583-0.39631 0.528-0.98951 0.85784-0.16471 0.09179-0.46409 1.1898-0.46409 1.1898l0.57904 0.8548s-2.5083 1.1221-1.3202 1.3198c0.9852 0.1647 0.95216 0.706 0.93336 0.97408-0.0343 0.2239-0.40061 0.54515-0.66783 0.54515-0.26721 0-0.9016-0.25134-0.99208-0.39803-0.29852 0.34957-0.58118 0.93544-1.0547 0.92648-0.44651-0.0099-1.1049-0.46151-1.1242-0.92648-0.0107-0.34399 0.40447-0.79994 0.72701-0.92264-0.14283-0.14197-1.4922-0.02402-0.79178-1.0573 0.28222-0.41562 0.99248-0.22175 1.2538 0.13168 0.22261 0.30367 0.47781-0.78878 0.47781-0.78878l0.31568-1.1906s-1.9322 0.0742-2.245 0c-0.31182-0.07163-1.0238-0.172-1.7813-1.1212-0.75744-0.9492-0.7416-1.092-1.3198-1.0573-0.58119 0.0386-2.0301 0.34528-3.367 1.5853-0.97192 1.3987-2.839 0.9904-3.6183 0.5503-0.58376-0.32984-0.4019 0.03646-0.53529-0.21961-0.13468-0.2565-0.356-0.9492-0.53572-0.9492s-0.31397 0.25563-0.26807 0.43793c0.04504 0.18401 0.26293 0.4924 0.21961 0.71286-0.04461 0.21703 0.04847 0.6022-0.30839 0.74803-0.35643 0.1454-0.30325 1.2318-0.61678 1.2318-0.31054 0-1.2229-0.69828-1.7144-0.66096-0.49154 0.03646-1.2503 0.25049-1.5188 0.72658-0.75704 0-2.3093-0.13382-2.1785 0.98776-0.92472-0.46022-1.3768-0.57132-1.5561-0.05962-0.17929 0.5117 0.49798 1.1834-0.6215 1.3142-0.30367 0.03646-0.6601-0.27665-0.71758-0.43921-0.11281-0.32298 0.05962-0.70943-0.14111-0.61678-0.87072 0.40918-1.3867 0.2655-1.3867 0.2655-0.40361 0.04118-1.2413-0.98304 0-1.3202 0.53572-0.1454 0.85872-0.1527 0.85872-0.1527s-0.67726-0.29638-0.59319-0.77248c0.1647-0.95904 1.1212-0.46194 1.1212-0.46194z"/><path d="m91.642 35.735 1.1906 0.97024-2.64 1.4519s0.08622-0.21961-0.79093-0.85872c-0.69742-0.50698-2.0858-0.50698-2.0858-0.50698s1.0362-0.44478 0.77548-0.55931c-0.41991-0.18401-0.92088-0.6764-0.93464-0.45122 0.0026-0.05061-1.409 1.623-1.8508-0.17757-0.2269-0.91832 1.0114-0.7313 1.1906-0.8776-0.08878-0.32984-0.59877 0.21789-0.99464-0.57303-0.48082-0.9612 0.528-1.4519 1.056-1.3867 0.72315 0.0905 0.59706 0.95392 0.77548 1.0629 0.17671 0.11066 0.0459-0.49454 0.60949-0.57775 0.356-0.0099 0.49969 0.09779 0.68198 0.2848 0.03389 0.03389 0.06391 0.07163 0.0905 0.11152 0.17929 0.25349 0.13425 0.39932 0.04546 0.76519-0.09136 0.3663-0.35858 0.2921-0.31397 0.4019 0.04546 0.1098 0.49068 0.58376 0.7579 0.72959 0.26807 0.1454 1.3802 0.5207 1.3802 0.5207z"/><path d="m105.04 36.791c0.24405 0 0.85952-0.1321 0.85952-0.1321s0.52713 0.85952 1.1881 1.1898c0.13124 0.06391-0.39547 0.79093 0.2655 1.252 0.13597 0.09522-1.0526-0.12739-1.4536 0.06691-0.56488 0.27107-0.9192 0.97408-1.5836 1.385-0.90584 0.56231 0.15141 1.2816-0.13168 1.3219-0.28394 0.04118-1.1478-0.4924-1.3103-0.4924s-0.81112 0.20159-0.81112 0.48597c0 0.28437 0.531 0.98224-0.40618 1.2164-0.47739 0.1201-0.90072-0.15098-0.93248-0.70471-0.38946-0.06777-0.59834 0.25049-0.59834 0.25049-0.356 0.39932-0.9488 0.31782-1.0916-0.36158-0.03646-0.172-0.13168-0.92264 0.9612-0.9672 0.32512-0.01458 0.32512 0.12181 0.40533 0 0.0798-0.12267-0.76261-0.39718-0.6408-0.68198 0.12267-0.28394 0.26379-0.85872 1.0865-0.4954 0.4465 0.19602 0.53529 0.29853 0.60692 0.3663 0.0918 0.07892 2.5966-1.786 2.5966-1.786s-0.26507-0.15355-0.59319-0.2625c-0.29639-0.09865-0.76648 0.12525-0.72616-0.19945 0.0403-0.32212 2.0686-1.4514 2.3093-1.4514z"/><path d="m93.539 34.523c0.06219 0.14197 0.84672 0.53829 1.2503 0.4212 0.11066-0.03002-0.0935 1.1641-1.3318 1.1139-1.2413-0.04933-1.3957-1.3931-1.2267-1.2623 0.2685 0.20846 1.3082-0.27279 1.3082-0.27279z"/><path d="m91.17 34.293c0.34614 0.3174 0.69828 0.48682 0.69013 0.41562 0.01673 0.17929-0.2492 0.56918-0.49969 0.64895-0.25092 0.08064-0.60048-0.16127-0.60048-0.44478 0-0.28566 0.41005-0.61978 0.41005-0.61978z"/><path d="m95.737 34.379c-0.34957 0.3174-0.69742 0.48682-0.69399 0.41562-0.01373 0.17757 0.25092 0.56746 0.50355 0.64895 0.24791 0.08064 0.59962-0.16299 0.59962-0.44736 0-0.28222-0.40918-0.61722-0.40918-0.61722z"/><path d="m89.714 31.959c-0.02187 0.47138 0.0742 0.8488 0.1261 0.79907-0.1261 0.12396-0.59748 0.172-0.82008 0.03302-0.22261-0.14111-0.26078-0.5636-0.04332-0.74889 0.21832-0.181 0.73731-0.08321 0.73731-0.08321z"/><path d="m97.463 31.959c0.02187 0.47138-0.0742 0.8488-0.12482 0.79907 0.12482 0.12396 0.59619 0.172 0.8184 0.03302 0.22261-0.14111 0.25992-0.5636 0.04203-0.74889-0.21403-0.181-0.73559-0.08321-0.73559-0.08321z"/><path d="m90.5 58.23s-0.31311-0.04761-0.31311-0.40146c0-0.35128 0.31311-0.45937 0.31311-0.45937h1.4489l0.0056 0.86424z"/><path d="m90.506 59.762s-0.31482-0.04761-0.31482-0.40275c0-0.35514 0.31268-0.45766 0.31268-0.45766h1.451l0.0026 0.86424z"/><path d="m90.506 61.237s-0.31482-0.04761-0.31482-0.39932c0-0.35514 0.31268-0.46109 0.31268-0.46109h1.451l0.0026 0.86424z"/><path d="m90.506 62.731s-0.31482-0.04718-0.31482-0.40233c0-0.35128 0.31268-0.45766 0.31268-0.45766h1.451l0.0026 0.86424z"/><path d="m93.477 33.184h0.09523c0.34227-0.01286 0.64423-0.09136 0.72144-0.1677 0.2432-0.2462 0.19602-0.53572 0.18915-0.79178-0.0099-0.29681-0.10809-0.71672-0.10809-0.71672 0.27022-0.11066 1.1817-0.28266 1.4682-0.42077 0.40833-0.19859 0.2432 0.66911 0.2432 0.66911-0.26722 0.1454-1.1735 0.33198-1.1735 0.33198 0.0017 0.14841 0.02831 0.40362 0 1.041-0.0073 0.18744-0.29466 0.39632-0.49497 0.54473-0.17757 0.13168-0.78878 0.09822-0.78878 0.09822s0.18658 0.52371 0.87024 0.44478c0.29638-0.03302 0.88872-0.02659 1.2357-0.3204 0.21574-0.18401 0.32855-0.37058 0.32855-0.37058 0.15913 0.10809 0.20674 0.29466 0.43492 0.44478 0.29853 0.19773 0.3277 0.172 0.69013 0.06949 0.15398-0.04418 0.31397-0.531 0.09865-0.71286-0.21489-0.18401-0.1527-0.16213-0.36887-0.27279-0.21789-0.1098-0.22904-0.1617-0.17757-0.27194 0.05576-0.1098 0.19687-0.28008 0.23076-0.38517 0.09779-0.30839-0.08321-0.85824 0.17929-0.854 0.9968 0.0193 1.0354-1.2618 0.38259-1.3841-1.062-0.2003-0.95648 0.61678-1.1169 0.50612-0.16299-0.10894 0.62579-0.8364-0.24706-1.3738-0.5473-0.33798-1.2155-0.07678-1.2155-0.07678s-0.09608-0.01802-0.47138 0.55759c-0.12996 0.19859-0.04418-0.63179-0.40918-0.842-0.18872-0.11066-0.37358-0.17286-0.54558-0.19859v-0.0017c-8.8e-4 0-0.0017 8.8e-4 -0.0038 8.8e-4 -8.8e-4 0-0.0017-8.8e-4 -0.0034-8.8e-4v0.0017c-0.172 0.02574-0.35729 0.08793-0.54644 0.19859-0.36458 0.2106-0.28008 1.0406-0.41005 0.842-0.37445-0.57561-0.46881-0.55759-0.46881-0.55759s-0.66911-0.26078-1.2194 0.07678c-0.87024 0.53743-0.08106 1.2649-0.2432 1.3738-0.16299 0.11066-0.0549-0.70642-1.1174-0.50612-0.65282 0.12182-0.61421 1.403 0.38259 1.3841 0.26078-0.0043 0.08235 0.54558 0.17757 0.854 0.03302 0.10551 0.17671 0.27579 0.2299 0.38517 0.0549 0.1098 0.04032 0.16213-0.17457 0.27194-0.21532 0.11066-0.15398 0.08878-0.36801 0.27279-0.21789 0.18186-0.0549 0.66911 0.09779 0.71286 0.3633 0.10251 0.38902 0.12825 0.69098-0.06949 0.2269-0.15012 0.27279-0.3367 0.43492-0.44478 0 0 0.1098 0.18701 0.3277 0.37058 0.34699 0.29381 0.93976 0.28738 1.2344 0.3204 0.68455 0.07892 0.87152-0.44478 0.87152-0.44478s-0.6125 0.03389-0.79093-0.09822c-0.20159-0.14841-0.48596-0.35729-0.49497-0.54473-0.02574-0.63694 0-0.89256 0-1.041 0 0-0.90328-0.18658-1.1744-0.33198 0 0-0.1617-0.86768 0.24706-0.66911 0.28394 0.13811 1.1975 0.31054 1.4682 0.42077 0 0-0.10166 0.41991-0.11066 0.71672-0.0073 0.25606-0.05233 0.54515 0.1913 0.79178 0.07592 0.07634 0.3753 0.15655 0.72144 0.1677z"/></g></g></svg>
