<svg width="200" height="114" version="1.1" viewBox="0 0 200 114" xmlns="http://www.w3.org/2000/svg" xmlns:cc="http://creativecommons.org/ns#" xmlns:dc="http://purl.org/dc/elements/1.1/" xmlns:rdf="http://www.w3.org/1999/02/22-rdf-syntax-ns#">
 <metadata>
  <rdf:RDF>
   <cc:Work rdf:about="">
    <dc:format>image/svg+xml</dc:format>
    <dc:type rdf:resource="http://purl.org/dc/dcmitype/StillImage"/>
    <dc:title/>
   </cc:Work>
  </rdf:RDF>
 </metadata>
 <g fill="#f78f1e">
  <path d="m60.763 91.051h-5.8429l-2.3239-6.6301h-10.624l-2.1911 6.6301h-5.7101l10.358-29.189h5.688zm-9.8932-11.548-3.6518-10.831-3.6076 10.831z" style="font-feature-settings:normal;font-variant-caps:normal;font-variant-ligatures:normal;font-variant-numeric:normal"/>
  <path d="m62.335 91.051v-29.189h5.356v29.189z" style="font-feature-settings:normal;font-variant-caps:normal;font-variant-ligatures:normal;font-variant-numeric:normal"/>
  <path d="m70.592 91.051v-28.95h5.356v24.032h13.368v4.9178z" style="font-feature-settings:normal;font-variant-caps:normal;font-variant-ligatures:normal;font-variant-numeric:normal"/>
  <path d="m91.888 91.051v-12.285l-9.7382-16.904h6.2856l6.2635 11.548 6.1528-11.548h6.1749l-9.7825 16.944v12.245z" style="font-feature-settings:normal;font-variant-caps:normal;font-variant-ligatures:normal;font-variant-numeric:normal"/>
 </g>
 <g fill="#bf2c26">
  <path d="m108.46 91.051v-29.189h9.275l5.5701 19.91 5.519-19.91h9.3005v29.189h-5.749v-22.977l-6.1067 22.977h-5.9789l-6.0556-22.977v22.977z" style="font-feature-settings:normal;font-variant-caps:normal;font-variant-ligatures:normal;font-variant-numeric:normal"/>
  <path d="m142.55 91.051v-29.189h19.742v4.9378h-14.386v6.4709h13.368v4.9179h-13.368v7.9442h14.873v4.9178z" style="font-feature-settings:normal;font-variant-caps:normal;font-variant-ligatures:normal;font-variant-numeric:normal"/>
  <path d="m164.55 61.862h11.186q4.2421 0 6.3884 0.75659 2.1716 0.73668 3.9896 2.5087 1.818 1.772 2.8533 4.5993 1.0353 2.8273 1.0353 7.0283 0 3.783-1.0858 6.5903-1.0858 2.7874-2.7523 4.4201-1.6666 1.6327-4.0401 2.4689-2.3483 0.81632-6.0602 0.81632h-11.514zm6.1107 4.9378v19.333h4.5956q2.9543 0 4.2674-0.43803 1.3383-0.43803 2.1716-1.3141 0.85853-0.89596 1.414-2.8074 0.55551-1.9114 0.55551-5.0373 0-3.2454-0.58077-5.117-0.55552-1.8716-1.7676-2.9467-1.1868-1.0752-2.9038-1.4136-1.2878-0.25883-4.9744-0.25883z" style="font-feature-settings:normal;font-variant-caps:normal;font-variant-ligatures:normal;font-variant-numeric:normal"/>
 </g>
 <g>
  <path d="m10 61.862h11.186q4.2421 0 6.3884 0.75659 2.1716 0.73668 3.9896 2.5087 1.818 1.772 2.8533 4.5993 1.0353 2.8273 1.0353 7.0283 0 3.783-1.0858 6.5903-1.0858 2.7874-2.7523 4.4201-1.6665 1.6327-4.0401 2.4689-2.3483 0.81632-6.0602 0.81632h-11.514zm6.1107 4.9378v19.333h4.5956q2.9543 0 4.2674-0.43803 1.3383-0.43803 2.1716-1.3141 0.85853-0.89596 1.414-2.8074 0.55551-1.9114 0.55551-5.0373 0-3.2454-0.58076-5.117-0.55552-1.8716-1.7676-2.9467-1.1868-1.0752-2.9038-1.4136-1.2878-0.25883-4.9744-0.25883z" fill="#f78f1e" style="font-feature-settings:normal;font-variant-caps:normal;font-variant-ligatures:normal;font-variant-numeric:normal"/>
  <path d="m85.874 23.186c-7.6413 0-13.794 6.0254-13.794 13.509v1.7861c0 7.484 6.1524 13.509 13.794 13.509h24.166c7.6413-1e-6 13.792-6.0254 13.792-13.509v-1.7861c0-7.484-6.151-13.509-13.792-13.509h-12.084zm0.58294 4.2586c1.5022-0.03102 3.1328 0.24874 4.8458 0.9103-11.982 0.36742-12 13.485-11.046 15.24-6.3051-6.7779-1.9123-15.982 6.1998-16.15z" fill="#fecd71"/>
  <path d="m97.956 23.187v28.804h12.084c7.6413 0 13.792-6.024 13.792-13.508v-1.7861c0-7.484-6.151-13.509-13.792-13.509zm5.0813 4.8616h7.3384c4.6408 0 8.3765 3.9901 8.3765 8.9479v1.1845c0 4.9578-3.7356 8.9479-8.3765 8.9479h-7.3384z" fill="#f78f1e"/>
 </g>
 <path d="m77.881 22.949c-7.7672 0-14.021 6.1247-14.021 13.732v1.8156c0 7.6074 6.2538 13.732 14.021 13.732h4.196c-7.7672 0-14.021-6.1247-14.021-13.732v-1.8156c0-7.6074 6.2538-13.732 14.021-13.732z" fill="#fcac1e" fill-opacity=".30196"/>
 <path d="m69.983 22.949c-7.7672 0-14.021 6.1247-14.021 13.732v1.8156c0 7.6074 6.2538 13.732 14.021 13.732h4.196c-7.7672 0-14.021-6.1247-14.021-13.732v-1.8156c0-7.6074 6.2538-13.732 14.021-13.732z" fill="#faaf1e" fill-opacity=".2"/>
 <path d="m62.085 22.949c-7.7672 0-14.021 6.1247-14.021 13.732v1.8156c0 7.6074 6.2538 13.732 14.021 13.732h4.196c-7.7672 0-14.021-6.1247-14.021-13.732v-1.8156c0-7.6074 6.2538-13.732 14.021-13.732z" fill="#ffb11d" fill-opacity=".10196"/>
</svg>
