<?xml version="1.0" encoding="UTF-8" standalone="no"?>
<svg
   xmlns:dc="http://purl.org/dc/elements/1.1/"
   xmlns:cc="http://creativecommons.org/ns#"
   xmlns:rdf="http://www.w3.org/1999/02/22-rdf-syntax-ns#"
   xmlns:svg="http://www.w3.org/2000/svg"
   xmlns="http://www.w3.org/2000/svg"
   viewBox="0 0 200 114"
   height="114"
   width="200"
   id="svg2"
   version="1.1">
  <metadata
     id="metadata8">
    <rdf:RDF>
      <cc:Work
         rdf:about="">
        <dc:format>image/svg+xml</dc:format>
        <dc:type
           rdf:resource="http://purl.org/dc/dcmitype/StillImage" />
        <dc:title></dc:title>
      </cc:Work>
    </rdf:RDF>
  </metadata>
  <defs
     id="defs6" />
  <rect
     ry="0"
     rx="0"
     y="74.019363"
     x="10.507395"
     height="7.1834965"
     width="178.98521"
     id="rect1076"
     style="opacity:1;fill:#0e7a12;fill-opacity:1;stroke:#000000;stroke-width:0.92958754;stroke-linecap:round;stroke-linejoin:round;stroke-miterlimit:4;stroke-dasharray:none;stroke-opacity:1;paint-order:markers fill stroke" />
  <rect
     style="opacity:1;fill:#ffffff;fill-opacity:1;stroke:#000000;stroke-width:0.92958754;stroke-linecap:round;stroke-linejoin:round;stroke-miterlimit:4;stroke-dasharray:none;stroke-opacity:1;paint-order:markers fill stroke"
     id="rect1074"
     width="179.07042"
     height="36.939266"
     x="10.464791"
     y="32.797138"
     rx="0"
     ry="0" />
  <path
     id="path825"
     d="m 48.340108,39.258276 c -1.914627,0 -3.552709,0.289667 -4.912208,0.867454 -1.34817,0.577788 -2.383646,1.421498 -3.108712,2.531755 -0.713737,1.098927 -1.071204,2.281643 -1.071204,3.550508 0,1.971273 0.764272,3.642247 2.293708,5.013075 1.087599,0.974308 2.98044,1.796763 5.676779,2.465183 2.095893,0.52114 3.437483,0.883418 4.026599,1.087342 0.861016,0.305887 1.461604,0.668165 1.801479,1.087344 0.351204,0.40785 0.526524,0.905728 0.526524,1.494844 0,0.917662 -0.413631,1.723671 -1.240661,2.414749 -0.815698,0.67975 -2.033322,1.018754 -3.653392,1.018754 -1.529436,0 -2.74706,-0.38555 -3.653391,-1.155932 -0.895004,-0.770383 -1.488766,-1.97637 -1.783324,-3.619098 l -4.894053,0.476091 c 0.328546,2.786972 1.335941,4.911298 3.023984,6.372759 1.688044,1.450132 4.106847,2.174686 7.256351,2.174686 2.163868,0 3.970445,-0.299285 5.420577,-0.899731 1.450132,-0.611774 2.571873,-1.541749 3.364913,-2.787956 0.793042,-1.246207 1.190228,-2.582987 1.190228,-4.01046 0,-1.574753 -0.334195,-2.895087 -1.002615,-3.960027 -0.657092,-1.07627 -1.575429,-1.919981 -2.753662,-2.531755 -1.166903,-0.623103 -2.973479,-1.223692 -5.420577,-1.801479 -2.447097,-0.577787 -3.98728,-1.13183 -4.621712,-1.664301 -0.498483,-0.419179 -0.748431,-0.923885 -0.748431,-1.513 0,-0.645762 0.266394,-1.162104 0.798864,-1.547295 0.827028,-0.600446 1.972042,-0.899732 3.433503,-0.899732 1.416144,0 2.474894,0.282841 3.177302,0.849298 0.713736,0.555129 1.178723,1.473467 1.393977,2.753661 l 5.029215,-0.221906 c -0.0793,-2.28849 -0.911378,-4.118339 -2.49746,-5.489167 -1.574753,-1.370828 -3.925754,-2.055664 -7.052601,-2.055664 z m -34.51457,0.425659 8.904513,24.912059 h 5.370144 l 8.922669,-24.912059 h -5.337867 l -6.100418,18.436416 -6.30417,-18.436416 z m 49.027272,0 v 24.912059 h 9.465333 c 1.857981,0 3.341999,-0.17532 4.452256,-0.526525 1.48412,-0.475824 2.662024,-1.139405 3.53437,-1.989091 1.155573,-1.121586 2.045829,-2.589158 2.668933,-4.401824 0.509811,-1.484119 0.764569,-3.250977 0.764569,-5.301553 0,-2.333806 -0.273221,-4.292431 -0.81702,-5.878512 -0.5438,-1.597411 -1.336155,-2.945827 -2.378438,-4.044755 -1.042282,-1.098929 -2.294815,-1.865219 -3.756275,-2.295726 -1.087599,-0.317216 -2.6675,-0.474074 -4.740736,-0.474073 z m 25.184401,0 v 24.912059 h 8.480872 c 3.206151,-0.02266 5.227767,-0.07882 6.066127,-0.169456 1.33684,-0.14728 2.45858,-0.539655 3.36491,-1.174089 0.91766,-0.645761 1.63741,-1.501108 2.15855,-2.566049 0.53247,-1.076269 0.79685,-2.179547 0.79685,-3.312462 0,-1.438803 -0.40681,-2.691336 -1.22251,-3.756277 -0.8157,-1.06494 -1.98197,-1.817577 -3.50007,-2.259414 1.07626,-0.487153 1.92479,-1.218534 2.54789,-2.192842 0.63443,-0.974307 0.95218,-2.044693 0.95218,-3.211596 0,-1.07627 -0.25476,-2.043945 -0.76457,-2.904961 -0.50981,-0.872345 -1.15012,-1.570835 -1.9205,-2.091976 -0.75905,-0.521142 -1.62604,-0.860146 -2.60035,-1.018754 -0.96297,-0.169937 -2.430545,-0.254183 -4.401818,-0.254183 z m 5.029213,4.14562 h 2.890841 c 2.367793,0 3.800455,0.02808 4.298935,0.08473 0.83836,0.101966 1.46703,0.396438 1.88621,0.883592 0.43051,0.475825 0.64555,1.099686 0.64555,1.870069 0,0.80437 -0.24995,1.456314 -0.74843,1.954796 -0.48716,0.487154 -1.16036,0.781631 -2.02137,0.883593 -0.475826,0.05664 -1.69345,0.08473 -3.653394,0.08473 h -3.298342 z m -25.184399,0.06859 h 2.261431 c 2.050576,0 3.427076,0.07944 4.129483,0.238044 0.940321,0.203925 1.716229,0.594285 2.328004,1.172072 0.611775,0.577787 1.086381,1.381778 1.426255,2.412732 0.339874,1.030952 0.510386,2.51016 0.510386,4.436117 0,1.925957 -0.170512,3.449693 -0.510386,4.57128 -0.339874,1.110257 -0.781588,1.907422 -1.325389,2.394575 -0.53247,0.487155 -1.20567,0.832985 -2.021368,1.03691 -0.623104,0.158608 -1.637325,0.238046 -3.04214,0.238046 h -3.756276 z m 25.184399,9.838538 h 4.062911 c 2.288489,0 3.772505,0.119155 4.452255,0.357068 0.69108,0.237912 1.21704,0.616636 1.57957,1.137777 0.36254,0.521141 0.54469,1.156639 0.54469,1.904363 0,0.883675 -0.23832,1.591784 -0.71414,2.124253 -0.4645,0.521141 -1.0699,0.84851 -1.81762,0.98446 -0.48715,0.101965 -1.636976,0.153317 -3.449641,0.153317 h -4.658025 z"
     style="font-style:normal;font-variant:normal;font-weight:bold;font-stretch:normal;font-size:33.69542313px;line-height:1.25;font-family:Arial;-inkscape-font-specification:'Arial, Bold';font-variant-ligatures:normal;font-variant-caps:normal;font-variant-numeric:normal;font-feature-settings:normal;text-align:start;letter-spacing:0px;word-spacing:0px;writing-mode:lr-tb;text-anchor:start;fill:#000000;fill-opacity:1;stroke:none;stroke-width:0.87007779" />
  <path
     id="path839"
     d="m 127.01614,41.854586 a 3.7472472,2.15126 73.465356 0 0 -0.4196,0.09885 3.7472472,2.15126 73.465356 0 0 -0.78273,4.395771 3.7472472,2.15126 73.465356 0 0 3.18941,2.691124 3.7472472,2.15126 73.465356 0 0 0.78272,-4.395771 3.7472472,2.15126 73.465356 0 0 -2.7698,-2.789974 z m -5.20876,1.389943 a 3.7472472,2.15126 73.465356 0 0 -0.41759,0.09885 3.7472472,2.15126 73.465356 0 0 -0.78272,4.395772 3.7472472,2.15126 73.465356 0 0 3.1894,2.689106 3.7472472,2.15126 73.465356 0 0 0.78274,-4.395771 3.7472472,2.15126 73.465356 0 0 -2.77183,-2.787956 z m 10.89159,2.251345 a 3.0652896,2.1409114 76.095685 0 0 -0.42767,0.04237 3.0652896,2.1409114 76.095685 0 0 -1.34153,3.489988 3.0652896,2.1409114 76.095685 0 0 2.81418,2.461148 3.0652896,2.1409114 76.095685 0 0 1.34153,-3.489988 3.0652896,2.1409114 76.095685 0 0 -2.38651,-2.503512 z m -14.30492,3.340706 a 3.0652896,2.1409114 78.845706 0 0 -0.21383,0.02622 3.0652896,2.1409114 78.845706 0 0 -1.50695,3.421399 3.0652896,2.1409114 78.845706 0 0 2.69314,2.594292 3.0652896,2.1409114 78.845706 0 0 1.50694,-3.421399 3.0652896,2.1409114 78.845706 0 0 -2.4793,-2.620516 z m 8.03101,2.376419 c -0.60067,0.11185 -1.32107,1.092981 -2.28564,3.843022 -2.27039,-0.142099 -2.7226,0.303311 -3.51419,1.674387 -0.94756,1.641217 -0.96996,3.323088 2.28564,5.202705 1.93686,1.118253 4.10342,-1.640486 4.80731,-3.673566 1.9882,0.39672 3.8132,2.823823 6.14681,0.490213 1.58881,-1.58881 1.20988,-3.639921 -0.33689,-4.53295 0,0 -3.03311,-1.485477 -4.52691,-0.46197 -0.90694,-0.496308 -1.57501,-2.728257 -2.57613,-2.541841 z"
     style="opacity:1;fill:#008000;fill-opacity:1;stroke:none;stroke-width:0.33620185;stroke-miterlimit:4;stroke-dasharray:none;stroke-opacity:1" />
  <path
     id="path848"
     d="m 181.01009,36.161668 c -0.37956,-0.01067 -0.89922,0.05579 -1.54931,0.229977 -10.23145,1.852971 -16.93425,7.099453 -15.18246,14.506649 0.54872,2.047873 10.5999,1.783735 9.85871,-0.98244 -1.17185,-5.040427 1.06121,-10.275349 6.21743,-12.338017 0.18547,-0.07245 0.32435,-0.1465 0.47206,-0.21989 -0.007,0.07224 -0.0161,0.141393 -0.0161,0.21989 -0.1761,5.690375 -1.06267,10.50126 -5.50328,12.929095 -2.37097,1.195348 0.76416,7.874202 3.20109,7.221232 10.11276,-3.156754 8.95791,-12.651393 3.40164,-21.191272 -0.0617,-0.06164 -0.12683,-0.105402 -0.19164,-0.135161 -0.0864,-0.139769 -0.32491,-0.229294 -0.70809,-0.240063 z"
     style="fill:#008000;fill-opacity:1;stroke:none;stroke-width:0.10328751;stroke-linecap:butt;stroke-linejoin:miter;stroke-miterlimit:4;stroke-dasharray:none;stroke-opacity:1" />
  <path
     style="opacity:1;fill:#008000;fill-opacity:1;stroke:none;stroke-width:0.36685884;stroke-miterlimit:4;stroke-dasharray:none;stroke-opacity:1"
     d="m 155.83554,48.227495 a 3.7618614,2.5515276 84.955295 0 0 -0.51257,-0.02006 3.7618614,2.5515276 84.955295 0 0 -2.1709,4.019967 3.7618614,2.5515276 84.955295 0 0 2.90315,3.468996 3.7618614,2.5515276 84.955295 0 0 2.1709,-4.019965 3.7618614,2.5515276 84.955295 0 0 -2.39057,-3.448947 z m -6.40987,-0.09199 a 3.7618614,2.5515276 84.955295 0 0 -0.51027,-0.0195 3.7618614,2.5515276 84.955295 0 0 -2.17088,4.019969 3.7618614,2.5515276 84.955295 0 0 2.90372,3.467053 3.7618614,2.5515276 84.955295 0 0 2.17091,-4.019965 3.7618614,2.5515276 84.955295 0 0 -2.39348,-3.447557 z m 11.91543,5.16147 a 3.0714769,2.5440213 86.788066 0 0 -0.5056,-0.07669 3.0714769,2.5440213 86.788066 0 0 -2.55427,2.993778 3.0714769,2.5440213 86.788066 0 0 2.53661,3.14434 3.0714769,2.5440213 86.788066 0 0 2.55428,-2.993778 3.0714769,2.5440213 86.788066 0 0 -2.03104,-3.067652 z m -17.46612,-0.711728 a 2.5484273,3.0661666 2.1380915 0 0 -0.25425,-0.03353 2.5484273,3.0661666 2.1380915 0 0 -2.72533,2.882248 2.5484273,3.0661666 2.1380915 0 0 2.35858,3.239359 2.5484273,3.0661666 2.1380915 0 0 2.72532,-2.882249 2.5484273,3.0661666 2.1380915 0 0 -2.10432,-3.205873 z m 8.57932,4.496029 c -0.72522,-0.05727 -1.83929,0.690047 -3.74527,3.074507 -2.57818,-0.760691 -3.22834,-0.455813 -4.53702,0.647634 -1.56653,1.320857 -2.07747,2.935072 1.13609,5.640422 1.91187,1.609512 5.207,-0.453081 6.60545,-2.218421 2.17922,0.92847 3.5845,3.768232 6.94973,2.161119 2.29117,-1.094184 2.44565,-3.174399 0.91885,-4.459743 0,0 -3.0706,-2.264499 -5.0891,-1.688839 -0.90313,-0.727342 -1.03004,-3.06122 -2.23873,-3.156679 z"
     id="path856" />
</svg>
