<svg width="200" height="144" version="1.1" viewBox="0 0 200 144" xmlns="http://www.w3.org/2000/svg" xmlns:cc="http://creativecommons.org/ns#" xmlns:dc="http://purl.org/dc/elements/1.1/" xmlns:rdf="http://www.w3.org/1999/02/22-rdf-syntax-ns#">
	<rect width="200" height="144" fill="#f37100"/>
	<text x="9.6267157" y="106.94328" fill="#ffffff" font-family="sans-serif" font-size="8px" font-weight="bold" letter-spacing="0px" stroke-width=".15539" word-spacing="0px" style="font-feature-settings:normal;font-variant-caps:normal;font-variant-ligatures:normal;font-variant-numeric:normal;line-height:1.25" xml:space="preserve">
		<tspan x="9.6267157" y="106.94328" stroke-width=".15539">International language for drug utilization research</tspan>
	</text>
	<g stroke-width="1.0528">
		<path d="m36.764 35.774c-0.45806 0.02693-0.93943 0.46122-1.207 1.4599-0.52381 1.2869-0.32776 3.2944-1.6052 3.8277-3.1435-0.63354-4.6311-0.33448-6.1737 0l-2.9632-2.0987c-2.8949-1.6714-3.3136 0.47931-2.5921 1.729l2.5921 2.4684-3.5802 5.0618c-1.2461 1.1507-2.2327 0.4884-3.3328 0.61709-1.0714 0-1.5894 2.4697 0.12369 2.4697l3.5802-0.49341c2.196 2.9322 4.1413 6.3572 9.6302 6.3572l0.24602 4.6296-9.0118 0.12369c-2.5426 0.46824-5.3755 0.81232-7.1605 1.6052l-1.9764-6.05c-0.73467-1.6915-2.0293-1.4768-3.3328-1.2342 2.5336 4.9857 2.7107 10.427 2.2223 16.543 1.3207 0.73933 2.3978 0.4777 2.5921-0.24738l0.24738-6.4197c2.3018-1.3806 6.144-1.6606 9.5065-2.2835l6.7894 0.30855c1.5033 6.4636 5.3662 18.896 4.51 19.391-5.5081 1.0909-9.647 3.2485-13.848 5.4831-1.4444 0.83392-1.4136 4.2518 1.1906 2.6573 3.7985-2.7374 7.7258-4.675 13.209-5.3092 15.232-1.4204 25.112 0.49094 25.556 8.2724 0 1.321 1.4503 2.2358 1.8513-0.61709 0.30666-2.4975-1.2383-6.1852-2.7158-7.0382-6.9106-3.9898-15.882-4.7013-20.741-3.3995-2.9412 0.78808-3.3646-10.257-6.296-19.192 4.5569-0.52267 9.2291 0.11757 13.95 1.2342 1.1355 2.2375 2.2166 4.4673 2.2223 6.5434 0 1.6953 1.3578 2.5946 1.3578-0.37107 0.27967-1.6977-0.4538-4.0273-1.4815-6.5421 1.165-2.5815 2.8642-3.8285 4.321-5.6802 0.70866-1.2274 1.6547-2.5857-1.1105-0.9868-1.9668 1.2445-3.4655 3.0348-4.4447 5.4315-5.8135-1.7736-10.496-1.9307-15.185-2.0987-0.92038-1.4441-0.40708-3.0924-0.24738-4.6908 0.82698-1.9405 1.6044-4.0589 2.747-4.8946 1.4963-0.70597 2.0285-3.3401 2.9333-5.229l3.0855 0.18486c1.4296 0 2.1795-2.7943 0.37108-2.1612l-2.7158-0.12233c-1.6764-0.49924-1.9393-1.7054-2.346-2.8395-0.70964-1.3669-0.0038-3.1393 0.36971-4.8157 0-0.97911-0.54873-1.6182-1.1377-1.5836zm-5.9522 7.3617c1.9621 0.0071 4.4031 0.65856 5.9793 1.5686-0.07911 2.7093-1.5956 5.6581-3.3954 8.6543-0.57522 0.99631-1.642 1.0522-2.5962 1.0045-2.4209-0.12751-4.398-0.54892-5.8611-2.7457-2.3941-4.1467 0.04753-4.8608 3.148-7.7164 0.54272-0.54272 1.5481-0.76955 2.7252-0.76526z"/>
		<path d="m180.98 58.698v18.024l9.0124-9.0124z"/>
		<path d="m100.22 59.709c-2.66 0-3.9894 1.0195-3.9894 3.0583v10.118c0 1.8854 1.3294 2.8273 3.9894 2.8273 0.92074 0 1.7472-0.22299 2.4779-0.66875 0.73076-0.45308 1.0956-1.0515 1.0956-1.797v-3.9907h-3.1453v3.8806c0 0.25576-0.15743 0.3833-0.47166 0.3833-0.32884-1e-6 -0.4934-0.12754-0.4934-0.3833v-10.906c0-0.25576 0.16456-0.3833 0.4934-0.3833 0.31423 0 0.47166 0.12754 0.47166 0.3833v3.1127h3.1453v-2.849c0-1.8561-1.1912-2.785-3.5734-2.785zm-19.325 0.14272-2.5867 15.719h3.4199l0.5804-4.2191h1.5454l0.58039 4.2191h3.4213l-2.588-15.719zm7.3875 0v2.0498h1.9288v13.669h3.4538v-13.669h1.9288v-2.0498zm33.202 0-5.021 15.719h1.8635l5.021-15.719zm6.5 0v15.719h4.3183c1.0158 0 1.8635-0.26934 2.5431-0.81011 0.68692-0.54807 1.0303-1.3125 1.0303-2.2917v-9.5147c0-1.0523-0.36479-1.8296-1.0956-2.3338-0.73077-0.51153-1.5643-0.76798-2.4996-0.76798zm12.583 0v15.719h4.3183c1.0157 0 1.8635-0.26934 2.5431-0.81011 0.68692-0.54807 1.0303-1.3125 1.0303-2.2917v-9.5147c0-1.0523-0.3648-1.8296-1.0956-2.3338-0.73077-0.51153-1.5643-0.76798-2.4996-0.76798zm12.583 0v15.719h4.3183c1.0158 0 1.8635-0.26934 2.5431-0.81011 0.68689-0.54807 1.0303-1.3125 1.0303-2.2917v-9.5147c0-1.0523-0.36477-1.8296-1.0956-2.3338-0.73076-0.51153-1.5643-0.76798-2.4996-0.76798zm-21.716 2.028c0.64307 0 0.96506 0.27427 0.96506 0.82234v10.019c0 0.55538-0.32199 0.83186-0.96506 0.83186zm12.583 0c0.64308 0 0.96506 0.27427 0.96506 0.82234v10.019c0 0.55538-0.32198 0.83186-0.96506 0.83186zm12.583 0c0.64306 0 0.96505 0.27427 0.96505 0.82234v10.019c0 0.55538-0.32199 0.83186-0.96505 0.83186zm-73.53 2.5975 0.4934 4.6921h-0.96371z" style="font-feature-settings:normal;font-variant-caps:normal;font-variant-ligatures:normal;font-variant-numeric:normal"/>
	</g>
</svg>
