<svg width="200" height="114" enable-background="new 0 0 392.164 484.439" version="1.1" viewBox="0 0 134.53 76.703" xml:space="preserve" xmlns="http://www.w3.org/2000/svg" xmlns:cc="http://creativecommons.org/ns#" xmlns:dc="http://purl.org/dc/elements/1.1/" xmlns:rdf="http://www.w3.org/1999/02/22-rdf-syntax-ns#"><metadata><rdf:RDF><cc:Work rdf:about=""><dc:format>image/svg+xml</dc:format><dc:type rdf:resource="http://purl.org/dc/dcmitype/StillImage"/><dc:title/></cc:Work></rdf:RDF></metadata><g transform="matrix(.34314 0 0 .15833 -.018333 6.1412e-7)"><rect width="392.16" height="484.44" fill="#369"/></g><g fill="#231f20" stroke-width=".16877"><path d="m67.776 11.953c-9.2003 1.0331-23.602 5.6742-6.3997 12.895 8.4014 3.6101-20.401-7.2203 6.3997-9.2832"/><path d="m67.376 46.511c9.2003-1.0331 23.604-6.1894 6.4011-13.41-8.4014-3.6114 20.401 7.7358-6.4011 9.2832"/><path d="m67.376 26.912c26.803-1.5474-2.0003-12.895 6.4011-9.284 17.202 7.2203 2.7996 12.379-6.4011 13.41h0.80041c-26.803 1.5474 1.6008 12.379-6.8005 8.7691-16.801-7.2217-2.8008-11.863 6.8005-12.895"/></g><g fill="#fff" stroke-width=".16877"><path d="m67.776 11.438c-9.6003 1.0318-23.602 5.6742-6.7992 12.895 8.8011 3.6101-20.001-7.2203 6.7992-8.7678"/><path d="m66.977 45.994c9.6003-1.0318 23.602-6.1882 6.8005-13.41-8.4014-3.6101 20.001 7.737-6.8005 9.2832"/><path d="m67.376 26.397c26.403-1.5487-2.0003-12.895 6.4011-9.284 16.801 7.2203 2.7996 12.377-6.8005 13.41h0.79906c-26.802 1.5474 2.0017 12.378-6.3997 8.7678-17.202-7.2203-2.8008-11.862 6.3997-12.893"/><path d="m47.264 65.011c0.40813-0.23358 0.48587-0.35012 0.60224-1.0117 0.34977-2.0431 0.56346-6.8685 0.56346-7.9972 0-1.5953-0.01923-1.5759-0.369-1.9845-0.5051-0.62272-0.85488-0.79787-1.1073-0.87574v-0.07786c0.46631 0.05844 1.0102 0.07786 1.3989 0.07786 0.44675 0 1.0102-0.03885 1.2824-0.07786 2.6228 3.9693 5.5956 7.1216 7.8299 9.6899 0.01939-0.25301 0.01939-1.5373 0.01939-2.5296-0.03879-2.6269-0.09714-5.5649-0.369-6.4211-0.1361-0.40856-0.33038-0.60313-0.58302-0.66157v-0.07786c0.52466 0.03885 1.1075 0.07786 1.6709 0.07786 0.5245 0 0.81592-0.03885 1.1073-0.07786v0.07786c-0.27202 0.09728-0.40796 0.23358-0.54406 0.75886-0.2916 1.0701-0.6606 8.9898-0.75774 11.187-0.09714-0.01943-0.19429-0.01943-0.29142-0.01943-0.11654 0-0.21385 0-0.31099 0.01943-2.4286-2.7826-6.3144-7.2188-8.2184-9.7875l-0.03879 0.03885c0.0194 1.3424 0.09714 6.5571 0.36917 8.7558 0.05835 0.50601 0.1361 0.73943 0.48571 0.91461v0.07786c-0.46631-0.05844-0.93266-0.07786-1.3989-0.07786-0.44675 0-0.89371 0.03885-1.3406 0.07786v-0.07752z"/><path d="m70.326 55.945c0-0.35028-0.03879-0.72001-0.40796-1.0703-0.77713-0.72001-2.1373-0.97286-2.8756-0.97286-1.1269 0-1.904 0.11671-2.5063 0.467-1.2435 0.73944-1.5153 2.8409-1.5153 4.2028 0 3.6773 2.1565 5.1174 4.9154 5.1174 1.6708 0 2.6616-0.70042 3.1475-1.0895 0.07775 0.1363 0.19411 0.29185 0.25246 0.35012-0.95204 0.81729-1.3212 1.2647-1.9624 2.121-0.38856 0.09728-0.6606 0.19458-1.6902 0.19458-3.6526 0-6.3144-2.121-6.3144-6.0708 0-4.0081 2.8173-6.3043 6.606-6.3043 1.4571 0 2.5452 0.31145 3.031 0.31145h0.19411c-0.25246 0.50584-0.56346 1.4983-0.56346 2.7436h-0.31082z"/><path d="m77.379 65.263c-0.33038 0-0.83548-0.05844-1.3018-0.1363-0.48587-0.05844-0.95222-0.11671-1.2435-0.11671-0.36917 0-1.3989 0.05844-1.5738 0.07786v-0.07786c0.2916-0.03885 0.54406-0.31145 0.6412-0.83671 0.11654-0.62272 0.21385-1.7512 0.21385-5.0978 0-5.312-0.19429-5.7789-0.85488-5.9347v-0.07786c0.09714 0 0.38873 0.01943 0.71895 0.03885 0.33038 0.01943 0.67999 0.03885 0.85488 0.03885 0.33021 0 0.87427-0.05844 1.4765-0.1363 0.60224-0.05844 1.2824-0.11671 1.8652-0.11671 2.0401 0 3.0697 0.81728 3.0697 2.4713 0 1.3035-0.93248 2.1597-2.1371 3.1325 1.1073 0.1363 3.1475 0.79787 3.1475 2.9576 0 0.97286-0.33038 1.829-1.0104 2.4126-1.0493 0.9147-2.0401 1.4012-3.8664 1.4012zm-1.6904-11.46c-0.11654 0.77827-0.11654 2.4711-0.11654 4.5919 0.62197 0 2.5646 0 2.8173-0.05844 0.34961-0.27242 1.2047-0.99245 1.2047-2.2184 0-1.5953-1.0492-2.4517-2.6617-2.4517-0.42752 1.69e-4 -0.83548 0.05861-1.2436 0.13647zm-0.11654 5.2535c0 1.3424 0 3.5219 0.11654 4.728 0.5245 0.29203 1.3406 0.70042 2.584 0.70042 0.73834 0 1.3406-0.17515 1.6515-0.40856 0.5051-0.36971 0.67982-1.4399 0.67982-1.9068 0-1.9653-1.4376-3.1715-3.4971-3.1715-0.5051 1.7e-4 -1.1851 0.05844-1.5349 0.05844z"/><path d="m87.577 53.141c-0.69939 0.17515-0.85471 0.75886-0.85471 5.9347 0 5.3118 0.19411 5.7594 0.85471 5.9345v0.07786c-0.17489-0.01943-1.2047-0.07786-1.593-0.07786-0.36917 0-1.3989 0.05844-1.5738 0.07786v-0.07786c0.67999-0.15573 0.85488-0.75886 0.85488-5.9345 0-5.2535-0.19429-5.7789-0.85488-5.9347v-0.07786c0.17489 0.01943 1.2047 0.07786 1.5738 0.07786 0.38856 0 1.4182-0.05844 1.593-0.07786z"/></g></svg>
