<svg width="200" height="114" version="1.1" xmlns="http://www.w3.org/2000/svg" xmlns:cc="http://creativecommons.org/ns#" xmlns:dc="http://purl.org/dc/elements/1.1/" xmlns:rdf="http://www.w3.org/1999/02/22-rdf-syntax-ns#">
 <metadata>
  <rdf:RDF>
   <cc:Work rdf:about="">
    <dc:format>image/svg+xml</dc:format>
    <dc:type rdf:resource="http://purl.org/dc/dcmitype/StillImage"/>
    <dc:title/>
   </cc:Work>
  </rdf:RDF>
 </metadata>
 <path d="m78.92 31.862s-8.8973 20.768-9.5422 22.053c-0.33594 0.64186-0.63779 1.0139-1.5839 1.6557h4.6649c-0.91456-0.40631-1.0823-0.87932-0.78014-1.6911 0.07-0.37254 0.88158-2.369 1.8967-4.6671h8.2872c0.94567 2.298 1.8242 4.3637 1.928 4.7024 0.23675 0.70891 0.06371 1.182-0.81336 1.6557h7.24c-1.1198-0.57442-1.3535-0.94676-1.6911-1.6557-0.60724-1.2857-9.6065-22.053-9.6065-22.053zm-40.78 0.33757c-3.0799 0-7.3739 1.827-7.3739 6.4267 0 2.5713 1.3529 4.3959 4.4656 6.1212 3.0727 1.6567 6.0197 2.096 6.0197 5.3444 0 1.658-1.0141 4.0593-4.3638 4.0593-3.5203 0-5.5467-3.1809-6.1909-5.5802l0.17253 5.7163c1.1813 0.57311 3.4152 1.6215 6.4878 1.6215 4.1617 0 7.8853-2.8737 7.8853-7.1005 0-4.7029-3.2788-5.8183-6.4279-7.3064-3.1773-1.4536-4.6327-2.2337-4.6327-4.2963 0-1.4548 1.0134-3.2482 3.5824-3.2482 3.2498 0 5.1784 2.7065 5.6488 4.4987l-0.16719-5.0046c-1.7263-1.0161-3.956-1.2517-5.1054-1.2517zm-28.14 0.37186c0.5407 0.27106 1.0834 0.74397 1.0834 1.5228v14.069c0 5.9889 5.0405 7.7459 9.0004 7.7459 4.5939 0 8.0133-2.2313 8.0133-7.9807l0.0986-13.835c0-0.77884 0.37413-1.2518 0.88414-1.5228h-3.9254c0.5091 0.27104 0.91518 0.74397 0.91518 1.5228l0.06538 13.9c0 3.3497-1.4561 5.9884-5.4825 5.9884-4.3935 0-5.2061-3.3493-5.2061-5.7174v-14.169c0-0.77884 0.50843-1.2518 1.047-1.5228h-6.4932zm37.474 0c0.50572 0.27106 0.88196 0.74397 0.88196 1.5228v19.954c0 0.74436-0.37625 1.2181-0.88196 1.5228h8.69c9.1347 0 13.666-5.9522 13.666-11.839 0-3.2787-2.2313-11.162-13.356-11.162h-8.9997zm8.2872 1.6911c6.9997 0 9.3691 5.4138 9.3691 9.4707 0 4.9377-2.1308 10.08-9.778 10.08h-2.7058v-19.482c0.50876-0.06828 2.2991-0.06859 3.1143-0.06859zm21.874 4.906s1.8613 4.529 3.4496 8.2849h-6.8318c1.0806-2.5354 3.3823-8.2849 3.3823-8.2849z" fill="#006" stroke-width="1.0925"/>
 <path d="m87.03 58.799c-9.82-0.02149-50.695 0.74177-76.203 14.335 0 0 30.896-12.218 78.372-10.997v-3.3167s-0.76832-0.01836-2.1713-0.02144zm-76.203 0.021432v3.1431c5.7601-0.87405 26.879 0.87125 26.879 0.87125-10.296-3.8404-26.879-4.0144-26.879-4.0144zm9.8619 5.2254c-5.2242-0.01689-9.8619 0.18754-9.8619 0.18754v3.139c1.748-0.87141 19.025-2.9643 19.025-2.9643-2.683-0.26216-6.029-0.35208-9.1634-0.36222zm63.796 0.68049c-1.0057 0.0044-2.1568 0.01616-3.4379 0.03966-0.07976-0.0052-0.18671 0.0048-0.25505 0.0064-14.313 0.27444-44.329 2.0003-69.947 11.053v10.907h78.372v-21.965s-1.7099-0.05286-4.7269-0.03966z" fill="#060" stroke-width="1.0925"/>
 <g transform="matrix(1.0974 0 0 1.0974 -9.7398 -3.2541)" fill="#006">
  <path d="m119.61 27.814c-0.263-0.0022-0.40851 0.0042-0.40851 0.0042h-13.102l-0.0423 7.2051h12.677s5.7321-0.16396 7.8824 3.1961c1.5346 2.3985 1.1115 6.7858 1.0096 7.6686h-13.441c-0.58577 0-2.7423 0.4529-4.7138 1.1197-1.9697 0.6645-3.7019 1.8101-4.9 2.7982-1.1982 0.98338-2.4203 2.8486-2.7665 3.3528-0.3507 0.50775-1.1247 2.3707-1.5473 4.047-0.42601 1.6786-0.39907 2.879-0.47837 3.8375-0.0802 0.94245-5e-3 3.713-2e-3 3.8079h-8e-3c0 0.47828 1.9167 17.097 18.108 17.149 16.301 0.05405 17.257-15.5 17.257-15.5l-0.0889-13.473h0.52705v-0.0021c0.79394-0.0064 12.697-0.10206 13.422 0.0021 0.74148 0.10585 2.9802-9.65e-4 2.9802 3.5136 0 3.6212-1.805 3.5718-2.5569 3.6216-1.0024 0.06935-11.824-7.23e-4 -11.824 10.651 0 10.654 9.6922 10.653 9.6922 10.653h23.332c0.74241 0 11.396 6.46e-4 11.396-10.653 0-10.652-11.61-10.651-11.61-10.651s-2.7707-1.56e-4 -2.7707-3.5136c0-3.6223 2.6628-3.6216 2.6628-3.6216h11.718v-7.1395s-9.2695-0.10651-11.612 0c-2.3425 0.10606-10.014 0.85206-10.014 10.761 0 8.5208 4.262 9.6917 7.2453 10.012 2.7155 0.29054 7.3533 3.85e-4 7.3533 4.1529 0 3.4111-4.5847 3.412-4.5847 3.412h-22.157c-1.065 0-3.8354 1.77e-4 -3.8354-3.412 0-4.1525 7.5628-4.1529 7.5628-4.1529s6.604 0.0013 6.604-10.012c0-10.76-9.5842-10.761-9.5842-10.761h-13.934c0.0601-1.2676 0.25891-8.0716-2.4765-12.249-3.5433-5.4071-11.13-5.8094-12.971-5.825zm8.092 25.214h0.0295l-0.0529 12.247s0.31817 9.4805-10.867 9.4805c-8.0605 0-9.8545-8.5608-9.9483-9.87-0.30156-10.702 9.0466-11.819 9.0466-11.819z" stroke-width=".57881"/>
  <g stroke-width=".5341">
   <path d="m118.56 48.678"/>
   <path d="m125.44 48.678"/>
   <path d="m125.44 55.265"/>
  </g>
 </g>
</svg>
