<?xml version="1.0" encoding="UTF-8" standalone="no"?>
<svg
   xmlns:dc="http://purl.org/dc/elements/1.1/"
   xmlns:cc="http://creativecommons.org/ns#"
   xmlns:rdf="http://www.w3.org/1999/02/22-rdf-syntax-ns#"
   xmlns:svg="http://www.w3.org/2000/svg"
   xmlns="http://www.w3.org/2000/svg"
   xmlns:xlink="http://www.w3.org/1999/xlink"
   width="200"
   height="114"
   enable-background="new 0 0 707.728 722.361"
   version="1.1"
   viewBox="0 0 199.92 113.9"
   xml:space="preserve"
   id="svg25"><metadata
     id="metadata2"><rdf:RDF><cc:Work
         rdf:about=""><dc:format>image/svg+xml</dc:format><dc:type
           rdf:resource="http://purl.org/dc/dcmitype/StillImage" /><dc:title></dc:title></cc:Work></rdf:RDF></metadata><defs
     id="defs7"><clipPath
       id="SVGID_2_"><use
         width="100%"
         height="100%"
         overflow="visible"
         xlink:href="#SVGID_1_"
         id="use4" /></clipPath><defs
       id="defs5"><polyline
         points="20.172,25.297 20.172,694.797 685.524,694.797 685.524,25.297 520.891,25.297 352.86,139.469     182.055,25.25 20.172,25.297   "
         id="SVGID_1_" /></defs><clipPath
       id="SVGID_2_-3"><use
         id="use7"
         overflow="visible"
         xlink:href="#SVGID_1_" /></clipPath><polyline
       points="20.172,25.297 20.172,694.797 685.524,694.797 685.524,25.297 520.891,25.297 352.86,139.469     182.055,25.25 20.172,25.297   "
       id="polyline873" /></defs><polyline
     style="fill:#004e6d"
     transform="matrix(0.11070371,0,0,0.11070371,60.898474,16.966035)"
     id="polyline2"
     points="20.172,25.297 20.172,694.797 685.524,694.797 685.524,25.297 520.891,25.297 352.86,139.469   182.055,25.25 20.172,25.297 " /><line
     clip-path="url(#SVGID_2_-3)"
     stroke-miterlimit="3.864"
     x1="24.157"
     y1="321.72699"
     x2="687.5"
     y2="321.72699"
     id="line12"
     style="fill:none;stroke:#292526;stroke-width:12.93770027;stroke-miterlimit:3.86400008"
     transform="matrix(0.11070371,0,0,0.11070371,60.785999,16.966035)" /><path
     clip-path="url(#SVGID_2_-3)"
     stroke-miterlimit="3.864"
     d="M 23.165,571.188 H 689.75 M 14.672,447.204 h 675.844"
     id="path14"
     style="fill:none;stroke:#292526;stroke-width:11.3185997;stroke-miterlimit:3.86400008"
     transform="matrix(0.11070371,0,0,0.11070371,60.785999,16.966035)" /><path
     id="path16"
     transform="matrix(0.11066118,0,0,0.11066118,60.779082,16.94604)"
     d="m 186.46875,341.53125 c -10.08187,26.8223 -24.27375,66.53307 -29.50977,77.20117 -1.94574,4.02455 -5.47183,6.08789 -8.74609,6.08789 v 3.15039 h 22.09375 v -3.15039 c -5.32204,0 -7.64325,-4.01613 -6.05664,-8.75195 l 5.58789,-16.25781 h 30.9668 l 5.20508,15.64843 c 1.95375,5.34606 1.21034,9.36133 -6.4336,9.36133 v 3.15039 h 28.28516 v -3.15039 c -5.22101,0 -7.15939,-3.89879 -9.81641,-10.6914 -4.14259,-10.79315 -16.52922,-48.21329 -24.77539,-72.59766 z m 186.12891,0 c -25.25971,0 -45.65039,19.30413 -45.65039,45.5332 0,23.54005 18.08452,42.36719 41.27343,42.36719 26.84632,0 46.01758,-20.89073 46.01758,-46.51758 0,-18.68718 -15.2945,-41.38281 -41.64062,-41.38281 z m 162.81836,0 c -10.06587,26.8223 -24.27547,66.53307 -29.48047,77.20117 -1.96176,4.02455 -5.47984,6.08789 -8.7461,6.08789 v 3.15039 h 22.09571 v -3.15039 c -5.34606,0 -7.64387,-4.01613 -6.07227,-8.75195 l 5.57227,-16.25781 h 30.97265 l 5.21289,15.64843 c 1.93875,5.34606 1.2123,9.36133 -6.43164,9.36133 v 3.15039 h 28.28321 58.30468 l 3.65039,-21.86718 h -3.0332 c -5.57214,13.01299 -4.85998,17.98242 -22.46875,17.98242 -10.79315,0 -15.53711,-0.8594 -15.53711,-9.34766 v -56.5918 c 0,-11.28533 -0.50018,-10.67501 10.45703,-12.01953 v -3.14257 h -32.67773 v 3.14257 c 10.9262,1.34452 10.44336,0.7332 10.44336,12.01953 v 54.63868 c 0,11.1567 0.42378,10.70351 -10.07617,11.99023 0,0 -0.002,0 -0.002,0 -4.51179,-0.45421 -6.38698,-4.27934 -8.89258,-10.64648 -4.12658,-10.79315 -16.51421,-48.21329 -24.77539,-72.59766 z m -470.109379,1.45313 v 3.14257 c 6.916657,0 10.692491,3.89871 14.091797,8.27539 v 57.16993 c 0,2.55598 -0.508098,4.61051 -0.742188,6.57226 -0.602231,4.37668 -4.610357,6.06555 -10.433594,6.67578 v 3.14844 h 29.753906 v -3.14844 c -8.011077,-0.60923 -12.162012,-2.2991 -12.740234,-6.67578 -0.266102,-1.96175 -0.757812,-4.01728 -0.757812,-6.57226 v -53.66211 c 19.812614,23.30595 39.826444,47.22182 59.130864,70.05859 h 4.14257 v -68.5957 c 0,-2.55599 0.46928,-4.61052 0.73438,-6.57227 0.59423,-4.35367 4.72059,-6.04859 10.42578,-6.67383 v -3.14257 h -29.74414 v 3.14257 c 8.01908,0.62524 12.13686,2.32016 12.74609,6.67383 0.2501,1.96175 0.73438,4.01729 0.73438,6.57227 v 49.90234 h -0.25 C 124.30549,387.28994 105.50115,364.96182 87.408203,342.98438 Z m 224.609379,0 v 3.14257 c 10.92619,1.34452 10.44921,0.7332 10.44921,12.01953 v 54.63868 c 0,11.30134 0.47698,10.68363 -10.44921,12.03515 v 3.15039 h 32.66796 v -3.15039 c -10.91819,-1.35252 -10.46484,-0.73381 -10.46484,-12.03515 v -54.63868 c 0,-11.28533 -0.45335,-10.67501 10.46484,-12.01953 v -3.14257 z m 123.62109,0 v 3.14257 c 6.91666,0 10.6671,3.89871 14.06641,8.27539 v 57.16993 c 0,2.55598 -0.46866,4.61051 -0.71875,6.57226 -0.60924,4.37668 -4.61017,6.06555 -10.44141,6.67578 v 3.14844 h 29.74414 v -3.14844 c -8.01108,-0.60923 -12.13686,-2.2991 -12.74609,-6.67578 -0.2501,-1.96175 -0.73438,-4.01728 -0.73438,-6.57226 v -53.66211 c 19.80461,23.30595 39.8284,47.22182 59.13281,70.05859 h 4.13282 v -68.5957 c 0,-2.55599 0.49147,-4.61052 0.72656,-6.57227 0.60923,-4.35367 4.71435,-6.04859 10.43555,-6.67383 v -3.14257 h -29.75391 v 3.14257 c 8.02608,0.62524 12.1673,2.32016 12.76953,6.67383 0.23409,1.96175 0.72852,4.01729 0.72852,6.57227 v 49.90234 h -0.25 C 472.53596,387.28994 453.731,364.96182 435.62305,342.98438 Z m -196.74805,0.002 -3.26758,18.56836 h 3.03125 c 4.00154,-8.00308 6.43199,-14.69336 16.99805,-14.69336 h 10.91211 v 65.92383 c 0,11.30134 0.49865,10.68363 -10.43555,12.03515 v 3.14844 h 32.6543 v -3.14844 c -10.9262,-1.35252 -10.42578,-0.73381 -10.42578,-12.03515 v -65.92383 h 10.92578 c 10.55906,0 12.99784,6.69028 16.98438,14.69336 h 3.04687 l -3.28125,-18.56836 z m 153.13477,2.77929 c 14.81069,0 30.46484,11.78554 30.46484,40.80469 0.001,16.26425 -6.30804,38.60938 -28.88672,38.60938 -15.65401,0 -30.69922,-15.06098 -30.69922,-44.44727 0,-16.50634 8.46516,-34.96679 29.1211,-34.9668 z m -183.84375,9.9668 h 0.27344 l 12.85546,39.46094 h -27.55664 z m 348.97851,0 h 0.24219 l 12.88867,39.46094 H 520.61523 Z M 325.03906,465.50781 c -10.08187,26.83831 -24.2829,66.54832 -29.5039,77.23242 -0.99519,2.03419 -2.39795,3.56303 -3.9668,4.57813 -3.97277,-3.89436 -8.89094,-10.26538 -13.4082,-16.85547 l -11.86328,-18.09375 c 9.32358,-3.62639 16.99804,-12.23895 16.99804,-24.75976 0,-14.20046 -12.2713,-20.64063 -24.54101,-20.64063 h -35.33399 v 3.16602 h 0.002 c 10.92619,1.3205 10.4414,0.73553 10.4414,12.00585 v 54.65235 c 0,11.29334 0.48479,10.68535 -10.4414,12.00586 v 3.17187 h 32.66015 v -3.17187 c -10.9262,-1.32051 -10.4414,-0.71252 -10.44141,-12.00586 v -22.48438 h 11.41016 c 14.68564,24.42339 18.56939,37.66211 25.74414,37.66211 h 3.98633 8.51758 13.58594 v -3.17187 c -5.33806,0 -7.64406,-4.00246 -6.06446,-8.73828 l 5.58008,-16.27149 h 30.94922 l 5.23633,15.67774 c 1.93874,5.33004 1.20996,9.33203 -6.41797,9.33203 v 3.17187 h 24.55664 3.70508 28.94922 v -3.17187 c -10.9262,-1.32051 -10.4336,-0.71252 -10.4336,-12.00586 v -22.48438 h 11.41016 c 14.67764,24.42339 18.56219,37.66211 25.75195,37.66211 h 12.48828 v -1.58593 c -4.24363,-2.55599 -11.0589,-11.05147 -17.11523,-19.92188 l -11.90235,-18.09375 c 9.33959,-3.62639 16.98243,-12.23895 16.98243,-24.75976 0,-14.20046 -12.2371,-20.64063 -24.50782,-20.64063 H 362.7266 v 3.16602 c 10.91593,1.32016 10.4336,0.73628 10.4336,12.00585 v 54.65235 c 0,10.59484 0.30021,10.72844 -8.66211,11.79297 -3.81174,-0.88782 -5.57918,-4.5781 -7.89258,-10.46289 -4.14259,-10.80916 -16.4984,-48.21486 -24.76758,-72.61524 z m 234.8086,0 c -25.2437,0 -45.64258,19.31213 -45.64258,45.53321 0,23.57105 18.07752,42.36914 41.27344,42.36914 26.8303,0 46.01953,-20.87645 46.01953,-46.48828 0,-18.69519 -15.30427,-41.41407 -41.65039,-41.41407 z M 50.394531,466.9707 v 3.16407 c 10.918195,1.3205 10.449219,0.73553 10.449219,12.00585 v 54.65235 c 0,11.29334 0.468976,10.68535 -10.449219,12.00586 v 3.17187 h 59.617189 l 3.64844,-21.85156 h -3.03907 c -5.58814,12.96598 -4.86975,17.96875 -22.478512,17.96875 -10.801149,0 -15.529297,-0.8522 -15.529297,-9.35547 v -56.5918 c 0,-11.27032 -0.490651,-10.68535 10.435547,-12.00585 v -3.16407 z m 64.673829,0 v 3.16407 c 10.9262,1.3205 10.43359,0.73553 10.43359,12.00585 v 54.65235 c 0,11.29334 0.49261,10.68535 -10.43359,12.00586 v 3.17187 h 32.66797 v -3.17187 c -10.94221,-1.32051 -10.44922,-0.71252 -10.44922,-12.00586 v -54.65235 c 0,-11.27032 -0.49199,-10.68535 10.44922,-12.00585 v -3.16407 z m 41.14062,0 v 3.16407 c 10.9262,1.3205 10.44922,0.73553 10.44922,12.00585 v 54.65235 c 0,11.29334 0.47698,10.68535 -10.44922,12.00586 v 3.17187 h 33.61524 c 17.87387,0 30.85547,-7.29053 30.85547,-24.28906 0,-12.7549 -10.30813,-21.13286 -23.16407,-21.5 v -0.24219 c 9.57368,-2.78207 17.4668,-10.3239 17.4668,-20.50781 0,-13.85732 -10.21521,-18.46094 -28.77734,-18.46094 z m 269.19727,0 v 3.16407 c 5.58815,0 8.98612,3.03193 12.97266,10.91796 l 18.70312,37.02344 v 18.7168 c 0,11.29334 0.50061,10.68535 -10.43359,12.00586 v 3.17187 h 32.65429 v -3.17187 c -10.92619,-1.32051 -10.44336,-0.71252 -10.44335,-12.00586 v -13.58985 c 0,-3.04817 0.25923,-6.45616 1.4707,-8.87109 L 490.5957,477.5293 c 3.26726,-5.83024 6.54992,-7.39453 9.94922,-7.39453 v -3.16407 h -25.00976 v 3.16407 c 7.18276,0 11.0506,3.51712 6.91601,10.91796 l -16.73242,30.49024 -14.70898,-30.49024 c -3.01716,-6.29942 -3.87684,-10.91796 5.3457,-10.91796 v -3.16407 z m 178.05273,0 v 3.16407 c 10.9262,1.3205 10.45704,0.73553 10.45704,12.00585 v 54.65235 c 0,11.29334 0.46916,10.68535 -10.45704,12.00586 v 3.17187 h 32.66797 v -3.17187 c -10.9342,-1.32051 -10.44922,-0.71252 -10.44922,-12.00586 v -24.90039 h 11.54493 c 8.13612,0 10.7932,4.3846 11.15234,11.52734 h 3.15625 v -25.9707 H 648.375 c -0.24209,7.51889 -3.50941,10.55859 -11.15234,10.55859 h -11.54493 v -37.13867 h 16.51563 c 8.73736,0 10.80811,6.65803 12.38672,15.64648 h 3.15039 V 466.9707 Z m -46.2832,2.80469 c 14.79469,0 30.48047,11.77773 30.48047,40.79688 -10e-4,16.25624 -6.32367,38.60156 -28.90234,38.60156 -15.66202,0 -30.71485,-15.06836 -30.71485,-44.43164 0,-16.51435 8.50379,-34.9668 29.13672,-34.9668 z m -378.76367,1.09375 h 6.93359 c 11.66048,0 17.49024,4.59543 17.49024,16.62305 0,14.0674 -8.26889,18.10156 -15.18555,18.10156 h -9.23828 z m 67.23047,0 h 9.3457 c 8.87041,0 16.14063,4.59704 16.14063,17.82813 0,13.73227 -4.83024,21.75 -15.4043,21.75 h -10.08203 z m 139.30273,0 h 9.35547 c 8.8554,0 16.13867,4.59704 16.13867,17.82813 0,13.73227 -4.86105,21.75 -15.41211,21.75 h -10.08203 z m -60.28906,8.85547 h 0.25 l 12.88086,39.46094 h -27.57422 z m -146.24414,29.73828 h 7.79297 c 11.41038,0 20.63281,5.22766 20.63281,19.9043 0,12.03562 -5.22048,18.71875 -16.13867,18.71875 -10.08187,0 -12.28711,-3.03231 -12.28711,-13.73242 z m 237.48242,80.10938 c -32.66855,0 -48.55859,24.76832 -48.55859,43.47851 0,32.5435 22.45314,44.43164 47.3457,44.43164 10.57406,0 19.05524,-2.06378 23.66602,-3.65039 3.41531,-1.08642 5.58789,-1.56135 5.58789,-4.23437 l 3.6582,-15.1875 h -3.16406 c -3.87669,9.59709 -11.41294,18.81054 -27.57422,18.81054 -24.75951,0 -35.80259,-16.97534 -35.68555,-41.14062 0.11705,-21.8674 11.04433,-38.24805 33.74805,-38.24805 19.31242,0 25.50119,10.5589 25.86133,20.26563 h 3.1582 v -15.6543 c 0,-1.95375 -1.33016,-3.64291 -4.73047,-4.73633 -5.95529,-1.95375 -11.54198,-4.13476 -23.3125,-4.13476 z M 63.210938,591.0332 v 3.15625 c 5.822236,0 11.778241,4.74341 14.201171,10.4336 v 55.00586 c 0,2.56298 -0.483659,4.61985 -0.71875,6.55859 -0.609234,4.37668 -4.753411,6.0796 -10.474609,6.67383 v 3.16406 h 27.357422 v -3.16406 c -5.705192,-0.59423 -9.847797,-2.29715 -10.457031,-6.67383 -0.23409,-1.93874 -0.601563,-3.99461 -0.601563,-6.55859 v -49.1836 h 0.25 l 32.785152,66.3086 h 1.9375 l 33.01368,-66.89258 h 0.23437 v 50.99609 c 0,11.27733 0.50023,10.6754 -10.41797,12.00391 v 3.16601 h 32.65235 v -3.16601 c -10.94221,-1.32851 -10.44141,-0.72658 -10.44141,-12.00391 v -54.16211 c 0,-7.64393 3.26826,-12.5039 12.13867,-12.5039 V 591.0332 H 154.99805 L 120.04688,658.90234 86.150391,591.0332 Z m 116.529292,0 v 3.15821 c 10.94221,1.33651 10.43555,0.72619 10.43555,12.01953 v 54.64648 c 0,11.27733 0.50666,10.6754 -10.43555,12.00391 v 3.16406 h 59.75 l 3.64258,-21.85937 h -3.16406 c -5.58815,12.98899 -4.74475,17.96875 -22.35352,17.96875 -10.91019,0 -15.63867,-0.85239 -15.63867,-11.15235 v -27.46484 h 10.1836 c 8.14413,0 10.94326,4.26879 11.19336,11.43554 h 3.13281 v -25.86914 h -3.13281 c -0.2501,7.51889 -3.53342,10.5586 -11.19336,10.5586 h -10.1836 v -34.72461 h 16.49805 c 8.74536,0 11.17721,6.67446 12.38867,15.66992 h 3.14844 V 591.0332 Z m 65.05079,0 v 3.15821 c 10.90218,1.33651 10.41796,0.72619 10.41796,12.01953 v 54.64648 c 0,11.27733 0.48422,10.6754 -10.41796,12.00391 v 3.16601 h 36.77929 c 30.10557,0 47.94922,-20.64931 47.94922,-44.93164 0,-25.0016 -15.06097,-40.0625 -44.44726,-40.0625 z m 87.14062,0 v 3.15625 c 10.9342,1.33652 10.44922,0.72815 10.44922,12.02149 v 54.64648 c 0,11.27733 0.48398,10.6754 -10.44922,12.00391 v 3.16406 h 32.68555 v -3.16406 c -10.95721,-1.32851 -10.46485,-0.72658 -10.46485,-12.00391 v -54.64648 c 0,-11.29334 -0.49236,-10.68497 10.46485,-12.02149 v -3.15625 z m 116.97461,0 v 3.15625 c 10.91019,1.33652 10.43359,0.72815 10.43359,12.02149 v 54.64648 c 0,11.27733 0.4776,10.6754 -10.43359,12.00391 v 3.16406 h 32.6543 v -3.16406 c -10.9262,-1.32851 -10.44922,-0.72658 -10.44922,-12.00391 v -54.64648 c 0,-11.29334 -0.47698,-10.68497 10.44922,-12.02149 v -3.15625 z m 36.81055,0 v 3.15821 c 6.91665,0 10.68468,3.89127 14.08398,8.25195 v 57.1875 c 0,2.56298 -0.46903,4.6179 -0.70312,6.55664 -0.62524,4.37668 -4.6348,6.0796 -10.45704,6.67383 v 3.16601 h 29.73047 v -3.16601 c -7.99507,-0.59423 -12.12104,-2.29715 -12.73828,-6.67383 -0.24209,-1.93874 -0.71094,-3.99266 -0.71093,-6.55664 v -53.66211 c 19.78059,23.31396 39.80343,47.22787 59.13085,70.05664 h 4.10352 v -68.60351 c 0,-2.53998 0.50748,-4.6029 0.72656,-6.55665 0.60924,-4.37668 4.74403,-6.06554 10.44922,-6.67578 v -3.15625 h -29.73828 v 3.15625 c 7.99507,0.60924 12.139,2.2991 12.74023,6.67578 0.23409,1.95375 0.72657,4.01667 0.72657,6.55665 v 49.91015 H 562.8418 C 544.72584,635.34658 525.91307,613.00965 507.82812,591.0332 Z m 96.72656,0 v 3.15821 c 10.9342,1.33651 10.43359,0.72619 10.43359,12.01953 v 54.64648 c 0,11.27733 0.50061,10.6754 -10.43359,12.00391 v 3.16406 h 59.73242 l 3.63477,-21.85937 h -3.14844 c -5.57214,12.98899 -4.72817,17.96875 -22.33594,17.96875 -10.90219,0 -15.65429,-0.85239 -15.65429,-11.15235 v -27.46484 h 10.1914 c 8.12812,0 10.93369,4.26879 11.17578,11.43554 h 3.15821 v -25.86914 h -3.15821 c -0.24209,7.51889 -3.53184,10.5586 -11.17578,10.5586 h -10.1914 v -34.72461 h 16.51367 c 8.73735,0 11.15963,6.67446 12.37109,15.66992 h 3.16602 V 591.0332 Z m -315.44922,3.88477 h 12.98828 c 23.31396,0 35.68555,13.34887 35.68555,36.42773 0,30.60576 -14.92825,40.78907 -34.09961,40.78907 -11.53543,0 -14.57422,-0.11753 -14.57422,-13.34961 z"
     clip-path="url(#SVGID_2_-3)"
     style="clip-rule:evenodd;fill:#ffffff;fill-rule:evenodd;stroke-width:1.00038433" /><polygon
     style="clip-rule:evenodd;fill:#292526;fill-rule:evenodd"
     id="polygon68"
     points="353.125,139.438 179.469,32.438 31.352,32.438 31.352,690.11 675.282,690.11 675.282,32.438 528.032,32.438 353.024,139.438 192.305,1.18 1.18,1.18 1.18,721.18 706.547,721.18 706.547,1.18 513.813,1.18 "
     transform="matrix(0.11070371,0,0,0.11070371,60.785999,16.966035)" /><path
     id="polygon70"
     d="M 99.878246,32.402338 80.653883,20.557041 H 64.256782 v 72.80673 H 135.54222 V 20.557041 H 119.2411 L 99.867066,32.402338 82.074876,17.096665 H 60.916629 v 79.70667 h 78.086741 v -79.70667 h -21.33636 z"
     style="fill:none;stroke:#292526;stroke-width:0.26132718;stroke-miterlimit:3.86400008" /><path
     clip-path="url(#SVGID_2_-3)"
     stroke-miterlimit="3.864"
     d="M 351.665,131.461 630.805,15.43 M 351.665,131.461 685.423,50.899 m -333.758,80.562 334.391,-27.766 m -334.391,27.766 333.641,24.758 m -333.641,-24.758 329.219,79.914 m -329.219,-79.914 331.672,136.93 m -331.672,-136.93 310.586,190.5 M 351.665,131.461 573.524,322.422 M 351.563,131.852 515.008,322.422 M 351.665,131.461 469.173,321.078 m -117.508,-189.617 80.773,190.5 m -80.773,-190.5 47.273,190.5 M 351.563,131.852 368.258,321.961 M 351.086,132.844 339.484,321.485 M 351.665,131.461 306.626,321.563 M 351.665,131.461 274.336,320.36 M 351.563,131.852 233.297,321.961 m 118.368,-190.5 -160.82,190.5 m 160.82,-190.5 -223.579,190.024 M 351.665,131.461 90.375,21.891 M 351.665,131.461 24.25,51.446 M 351.665,131.461 21.618,103.196 M 351.665,131.461 20.672,156.688 M 351.665,131.461 21.516,208.5 M 351.665,131.461 25.711,263.805 M 351.665,131.461 39.376,321.961"
     id="path10"
     style="fill:#ffffff;stroke:#ffffff;stroke-width:4.8572998;stroke-miterlimit:3.86400008"
     transform="matrix(0.11070371,0,0,0.11070371,60.785999,16.966035)" /></svg>