<svg width="200" height="114" version="1.1" viewBox="0 0 200 114" xmlns="http://www.w3.org/2000/svg" xmlns:cc="http://creativecommons.org/ns#" xmlns:dc="http://purl.org/dc/elements/1.1/" xmlns:rdf="http://www.w3.org/1999/02/22-rdf-syntax-ns#">
 <metadata>
  <rdf:RDF>
   <cc:Work rdf:about="">
    <dc:format>image/svg+xml</dc:format>
    <dc:type rdf:resource="http://purl.org/dc/dcmitype/StillImage"/>
    <dc:title/>
   </cc:Work>
  </rdf:RDF>
 </metadata>
 <path d="m89.622 17c-3.221 0.03758-5.9876 3.0987-5.0178 6.7181l2.0953 11.973-7.393 5.2817-18.07-6.2506c-4.8933-1.3112-6.3642 11.877-3.5317 12.636l17.052 5.9087 1.8757 8.6753-13.424 10.073c-4.0183 4.0183 1.0586 15.201 7.269 11.616l13.989-11.095 12.212 3.4326 4.3731 17.381c2.0748 7.7434 14.339 1.6611 12.731-4.3377l-3.8346-16.283 6.1071-5.4677 16.304 0.27099c4.3908 0 8.7744-10.086 9.9541-14.488 1.7549-6.5493 2.6931-6.4526-2.2282-10.326l-10.376-8.539-0.40738-12.226c0-3.8217-11.639-7.7002-11.639 2.5912l0.4304 9.7716-6.7253 3.259-12.77-3.9374-3.3972-12.907c-1.5513-2.687-3.6467-3.7527-5.5793-3.7301zm33.201 28.576 7.3363 5.9778-1.6295 3.1244-8.0165-0.54376-2.1732-6.1124zm-28.531 0.40738 11.277 3.3972 2.0369 8.8294-6.4861 5.7404-12.092-4.0755-2.0705-8.4575z" fill="#0f3d66" stroke-width="1.004"/>
 <path d="m91.219 18.851c-1.8623-0.06663-3.9523 1.3133-3.5866 2.6781l3.2607 13.587-10.868 7.7437-17.526-5.7068c-4.0627-1.0886-5.1421 4.133-2.3096 4.892l17.255 6.5888 2.4442 13.111-14.74 11.479c-2.5918 2.5918 1.1278 7.7765 5.7741 5.094l14.265-11.139 14.808 5.1613 4.7556 18.341c0.76807 2.8664 8.0814 2.4405 7.0635-1.3585l-4.8903-18.204 11.004-8.9658 18.137 0.40738 6.7926-15.149-14.909-12.544-0.78212-13.338c0-2.2846-6.043-3.5093-5.7068-0.13461l0.61283 13.721-10.8 4.7539-13.994-5.1613-3.5317-13.858c-0.37488-1.399-1.4102-1.9597-2.5275-1.9997zm34.589 20.884 9.2386 8.0147-3.8045 8.2875-11.955-0.27099-3.3954-11.412zm-30.161 0.02834 13.833 4.9948 3.4574 12.296-10.567 8.8383-14.793-4.6105-2.8817-13.642z" fill="#dbd634" stroke-width="1.004"/>
</svg>
