<svg width="200" height="114" version="1.0" viewBox="0 0 198.07 115.11" xmlns="http://www.w3.org/2000/svg" xmlns:cc="http://creativecommons.org/ns#" xmlns:dc="http://purl.org/dc/elements/1.1/" xmlns:rdf="http://www.w3.org/1999/02/22-rdf-syntax-ns#">
 <metadata>
  <rdf:RDF>
   <cc:Work rdf:about="">
    <dc:format>image/svg+xml</dc:format>
    <dc:type rdf:resource="http://purl.org/dc/dcmitype/StillImage"/>
    <dc:title/>
   </cc:Work>
  </rdf:RDF>
 </metadata>
 <path d="m98.612 32.087c-4.0233 0.04187-7.8112 1.6741-10.631 4.6561-1.8467 1.9528-3.0046 4.1105-3.6326 6.7661-0.28976 1.2251-0.36847 4.2163-0.14442 5.5071 0.34913 2.0112 1.2445 4.2089 2.358 5.7959 0.80846 1.1523 0.76975 1.1101 1.8713 2.2104 2.2132 2.2105 5.0269 3.6099 8.2763 4.1162 1.7107 0.26656 4.0347 0.14423 5.7897-0.3077 5.4118-1.3936 9.509-5.581 10.76-10.992 0.64647-2.7958 0.33309-6.1562-0.82571-8.8324-0.83136-1.9196-1.7551-3.225-3.4317-4.8509-2.0911-2.028-4.6838-3.3419-7.573-3.8399-0.94441-0.16278-1.8879-0.23886-2.8163-0.2292zm0.25118 6.8069c0.46546 0.0038 0.925 0.0574 1.2308 0.16013 0.85702 0.28787 1.7416 1.0228 2.2417 1.8618 0.30115 0.5052 0.53981 1.7014 0.45526 2.2827-0.24818 1.7056-1.4523 3.0458-3.0361 3.3815-1.7733 0.37582-3.3291-0.21075-4.2198-1.5887-0.58787-0.90939-0.76202-1.526-0.69702-2.4741 0.11017-1.6075 1.2308-3.0151 2.7693-3.4819 0.32114-0.09746 0.79042-0.14519 1.2559-0.14129zm-24.839 14.059c-0.16899 0-0.03317 0.96405 0.35165 2.4867 0.75931 3.0043 1.9188 5.6742 3.6107 8.3175 0.96936 1.5143 1.7022 2.4088 3.259 3.978 1.2916 1.3019 2.2948 2.1447 3.394 2.8508 0.34404 0.22104 0.62745 0.43136 0.62794 0.46469 5.02e-4 0.03333-0.64427 0.08702-1.4317 0.1193-2.2948 0.09405-4.6637 0.53444-7.0078 1.3062-1.4453 0.47576-3.1234 1.1949-3.0863 1.3219 0.09799 0.3354 3.0518 2.0411 4.8446 2.7975 2.0303 0.8567 4.6399 1.5473 7.1335 1.887 1.3525 0.18421 4.8869 0.15566 6.2292-0.05024 1.6365-0.25102 3.7871-0.7211 4.8948-1.0707 0.53728-0.16956 1.0233-0.27998 1.08-0.2449 0.06341 0.0392 0.10361 0.66063 0.10361 1.6138v1.551h1.8085v-1.6076c0-1.2725 0.02899-1.6076 0.13501-1.6076 0.07368 0 0.55003 0.13497 1.0581 0.29827 0.97141 0.31223 3.8192 0.9177 5.1962 1.1052 1.2802 0.17429 4.9239 0.15003 6.201-0.04081 2.8751-0.42966 5.0751-1.0563 7.504-2.1382 1.2707-0.56599 2.8671-1.4723 3.7426-2.1257l0.48037-0.35793-0.32966-0.16641c-1.1656-0.59356-3.6537-1.4482-5.3909-1.8525-1.3518-0.31456-3.1273-0.55974-4.5055-0.61852-0.78744-0.03359-1.4302-0.08597-1.4286-0.1193 2e-3 -0.03333 0.25766-0.21694 0.5683-0.40503 1.0989-0.66541 2.7851-2.1207 4.1538-3.5856 2.537-2.7152 4.6547-6.4806 5.7708-10.264 0.36103-1.2236 0.89576-3.7353 0.81321-3.8179-0.0577-0.0578-3.3284 0.63342-4.0252 0.85085-2.7486 0.8579-4.3199 1.4996-6.2983 2.5746-4.46 2.4233-8.0576 5.889-10.704 10.314-0.95351 1.5946-2.076 3.9999-2.6499 5.6766l-0.24175 0.7033-0.10047-10.65h-1.8085l-0.01884 5.2245c-0.0097 2.8735-0.02132 5.2697-0.02827 5.325-7e-3 0.05526-0.18475-0.37426-0.3956-0.95446-0.84894-2.3361-1.8764-4.3706-3.2747-6.4867-3.5586-5.3848-8.5211-9.1256-15.02-11.325-1.4288-0.4835-4.669-1.2779-5.215-1.2779zm47.184 2.5118c0.1267 0-0.0682 0.76982-0.50236 1.9718-2.1564 5.9718-6.0718 10.501-11.288 13.055-1.8729 0.91715-4.1438 1.6841-5.9153 2-0.49735 0.08869-1.006 0.18344-1.1303 0.21037-0.12434 0.02692-0.22606 0.0099-0.22606-0.03768 0-0.30251 1.3673-3.3223 1.9875-4.3894 3.6775-6.3277 8.6534-10.224 15.953-12.497 0.55517-0.17277 1.0582-0.31397 1.1209-0.31397zm-44.744 0.0314c0.02577-0.02578 0.6025 0.1225 1.2841 0.32967 6.545 1.9892 11.451 5.6079 15.062 11.112 0.92753 1.4139 2.4254 4.3944 2.7535 5.482 0.06268 0.20773 0.03532 0.22752-0.3171 0.21977-0.21095-0.0046-0.81258-0.11118-1.3375-0.23547-4.2046-0.9955-7.4273-2.5931-10.242-5.077-2.8472-2.5127-4.8554-5.4133-6.3329-9.1461-0.46538-1.1758-0.933-2.6212-0.8697-2.6844z" fill="#407ec9" stroke-width=".10047"/>
 <path d="m98.029 96.213c0-0.73732-0.02954-1.8902-0.06568-2.5621l-0.06567-1.2215h1.5325c1.7077 0 2.1083 0.10328 2.371 0.61139 0.19414 0.37544 0.18568 0.99566-0.0176 1.2859-0.0901 0.12864-0.3257 0.30155-0.52357 0.38421l-0.35971 0.1503 0.29753 0.12511c0.44078 0.18532 0.51552 0.32393 0.68016 1.2611 0.0826 0.4697 0.18195 0.93316 0.22095 1.0298 0.0624 0.15472 5e-3 0.17583-0.48154 0.17583-0.6252 0-0.61163 0.01942-0.73788-1.0549-0.1013-0.86138-0.34134-1.0741-1.1678-1.0347l-0.62772 0.02993 0.02653 1.0801 0.02653 1.08h-1.108zm2.339-1.6651c0.61773-0.23486 0.77369-0.84205 0.30999-1.2068-0.20943-0.16474-0.40881-0.20823-0.95446-0.20823h-0.68975v1.5071h0.54605c0.30033 0 0.65501-0.04144 0.78818-0.09205zm-7.5191 2.5354c-0.20152-0.03999-0.20374-0.06485-0.08619-0.96588 0.06636-0.50869 0.20254-1.6599 0.30261-2.5582l0.18195-1.6334 0.30613 0.05118c0.16837 0.02812 0.71303 0.09852 1.2103 0.15638 1.0678 0.12425 1.5193 0.31998 1.842 0.79863 0.20021 0.29692 0.22944 0.43959 0.18784 0.9166-0.0902 1.0342-0.60369 1.4333-1.8152 1.4109-0.38368-7e-3 -0.77566-0.03763-0.87105-0.06799-0.14862-0.04717-0.18318 0.04254-0.24122 0.62608-0.12995 1.3066-0.14089 1.3358-0.49495 1.3205-0.17344-0.0079-0.40844-0.03211-0.5222-0.05479zm2.6662-2.7396c0.33959-0.26093 0.35414-0.94615 0.02574-1.2121-0.2124-0.17198-1.1865-0.3763-1.2919-0.27096-0.08168 0.08168-0.24804 1.4089-0.19419 1.5493 0.08177 0.21308 1.1605 0.16415 1.4603-0.06623zm9.3965 2.5932c-0.37433-0.13832-0.92024-0.64159-1.1294-1.0412-0.39735-0.75904-0.54645-2.0769-0.31376-2.7731 0.27783-0.83136 1.2154-1.3939 2.3254-1.3955 0.84917-0.0016 1.2413 0.1588 1.6987 0.69314 0.68745 0.80315 0.9531 2.5457 0.51446 3.375-0.26829 0.50722-0.58145 0.8003-1.0758 1.0069-0.49135 0.20529-1.6243 0.28089-2.0197 0.13477zm1.661-0.84197c0.42641-0.2205 0.63421-0.68974 0.62219-1.4049-0.0113-0.66072-0.20545-1.3096-0.52792-1.7623-0.44781-0.62888-1.5679-0.61134-2.0266 0.03176-0.51865 0.72713-0.16759 2.652 0.56514 3.0987 0.37363 0.22783 0.96675 0.24376 1.3671 0.03675zm-19.595-0.41838c-0.80125-0.24794-1.4922-0.48465-1.5355-0.52606-0.06181-0.05907 1.3689-4.6636 1.4976-4.8197 0.01768-0.02144 0.24082 0.01946 0.49589 0.09086 0.54756 0.15331 0.55608-0.01262-0.10298 2.0078-0.68625 2.1038-0.74448 2.3071-0.67173 2.3468 0.03605 0.01969 0.48376 0.16239 0.99494 0.31713 0.79317 0.24012 0.92833 0.31215 0.9223 0.49157-0.0193 0.57466-0.03607 0.57562-1.6005 0.09156zm24.023-0.96302c-0.17547-0.51025-0.48302-1.4251-0.68346-2.0329-0.20043-0.60784-0.37722-1.1215-0.39284-1.1414-0.0156-0.01996-0.31099 0.05917-0.65637 0.17583-0.34536 0.11663-0.68151 0.21206-0.74696 0.21206-0.11532 0-0.41063-0.57269-0.33273-0.64529 0.0213-0.01981 0.49075-0.18202 1.0433-0.36048 0.5526-0.17846 1.3977-0.45467 1.878-0.61383 0.48026-0.15914 0.91382-0.28937 0.96349-0.28937 0.087 0 0.32347 0.43068 0.32347 0.58924 0 0.04258-0.31649 0.18117-0.7033 0.30799-0.49116 0.16103-0.70331 0.28028-0.70331 0.39535 0 0.09063 0.24955 0.88808 0.55454 1.772 0.79219 2.2961 0.7829 2.2539 0.51883 2.3511-0.74152 0.27289-0.71479 0.29103-1.0626-0.72039zm-27.713-0.2856c-0.38345-0.17632-0.41948-0.22355-0.37676-0.49389 0.15337-0.97086 0.25032-0.82668-0.91422-1.3594l-1.0521-0.48132-0.33801 0.36901c-0.1859 0.20297-0.39584 0.36902-0.46653 0.36902-0.17832 0-0.89933-0.32541-0.89933-0.40589 0-0.05744 1.0205-1.0382 3.3064-3.1775l0.64396-0.60266 0.38726 0.18711c0.21299 0.1029 0.5024 0.23087 0.64311 0.28437 0.14071 0.0535 0.232 0.13585 0.20286 0.183-0.02915 0.04716-0.12383 0.9402-0.21043 1.9845-0.08658 1.0443-0.17679 1.9666-0.20043 2.0495-0.02364 0.08289-0.05244 0.41068-0.06399 0.72842-0.01236 0.33979-0.06565 0.57422-0.1294 0.56924-0.05961-0.0047-0.29919-0.0962-0.53239-0.20343zm-0.03645-3.1791c0.06433-0.53878 0.14132-1.104 0.17109-1.2559 0.02977-0.15196 0.01569-0.2763-0.03129-0.2763s-0.48646 0.40289-0.97657 0.89529l-0.89116 0.89529 0.74255 0.35184c0.40839 0.19351 0.77088 0.35578 0.80553 0.36059 0.03462 0.0047 0.11557-0.43207 0.1799-0.97086zm31.015 0.59929-1.1454-2.2893 1.461-0.69976c0.80355-0.38486 1.4897-0.7115 1.5247-0.72584 0.035-0.01435 0.14714 0.11515 0.2491 0.28778 0.15363 0.26008 0.16176 0.32885 0.0474 0.40131-0.0759 0.0481-0.16685 0.08815-0.20206 0.08897-0.0352 7.92e-4 -0.45159 0.20772-0.9253 0.45971l-0.86131 0.45818 0.26805 0.54653c0.14743 0.30059 0.31514 0.54439 0.37271 0.54177 0.0576-0.0026 0.51156-0.20039 1.0089-0.43949l0.90425-0.43473 0.17516 0.26366c0.0963 0.14501 0.17546 0.29632 0.17582 0.33621 4.2e-4 0.0399-0.42885 0.28434-0.95383 0.54322-0.52496 0.25887-0.95446 0.50867-0.95446 0.5551 0 0.04644 0.12433 0.35793 0.27629 0.6922 0.19145 0.42109 0.32259 0.59435 0.42702 0.56412 0.0829-0.024 0.59121-0.25053 1.1296-0.50339l0.97888-0.45974 0.15881 0.30713c0.0874 0.16892 0.13736 0.3286 0.11111 0.35484-0.0861 0.08611-2.8979 1.4408-2.9905 1.4408-0.0497 0-0.60587-1.0302-1.2358-2.2893zm5.1872-0.69976c-0.53117-0.28751-1.1768-0.98394-1.5346-1.6551-0.73457-1.3781-0.29007-2.646 1.155-3.2946 0.69269-0.31089 1.554-0.24003 1.974 0.1624 0.15991 0.15319 0.29073 0.30696 0.29073 0.34171 0 0.03475-0.17486 0.16145-0.38856 0.28156l-0.38857 0.21838-0.39436-0.216c-0.49667-0.27205-0.84222-0.19958-1.3183 0.27649-0.32604 0.32605-0.34515 0.38132-0.30394 0.87834 0.0319 0.3859 0.14613 0.69584 0.41895 1.1379 0.77847 1.2612 1.7508 1.5471 2.5226 0.74168 0.24737-0.25818 0.27513-0.3496 0.22941-0.75517-0.0483-0.42862-0.029-0.47902 0.27212-0.70866 0.44003-0.33563 0.52819-0.31417 0.67128 0.16338 0.25004 0.8346-0.23435 1.7164-1.2704 2.3126-0.6047 0.34797-1.4162 0.39623-1.9355 0.11514zm-42.589-0.20085-0.40856-0.26266 2.4833-3.6887-0.65272-0.40926c-0.359-0.2251-0.65273-0.44441-0.65273-0.48737 0-0.04295 0.08182-0.17917 0.18183-0.30266 0.17531-0.2165 0.19326-0.21862 0.50109-0.05944 0.301 0.15566 2.6833 1.7062 3.0566 1.9894 0.16154 0.12254 0.15803 0.14914-0.05345 0.40671l-0.22629 0.2756-0.59962-0.39834c-0.32978-0.2191-0.6318-0.39963-0.67114-0.40118-0.03934-0.0016-0.59419 0.78632-1.233 1.7508-0.6388 0.96452-1.1964 1.7753-1.2392 1.8017-0.04273 0.02642-0.26155-0.07017-0.48626-0.21464zm-3.2119-2.2719c-0.0622-0.07111-0.285-0.27098-0.49511-0.44417-0.44036-0.36298-0.44704-0.26572 0.15339-2.232 0.61604-2.0176 0.69547-2.5203 0.32236-2.0402-0.44171 0.56832-2.2906 2.5411-2.3793 2.5388-0.05526-0.0014-0.22808-0.11483-0.38405-0.25202l-0.28357-0.24944 0.38405-0.43483c0.99256-1.1238 2.0399-2.2766 2.5435-2.7992l0.55334-0.57436 1.0767 0.95533-0.31805 1.0512c-0.59553 1.9683-0.70642 2.3571-0.77243 2.7089l-0.066 0.35165 0.24081-0.2579c0.6334-0.67835 1.9988-2.1778 2.1646-2.3771l0.1861-0.22373 0.69171 0.57429-0.29562 0.35466c-0.16258 0.19506-0.65731 0.75481-1.0994 1.2438-0.44207 0.48908-1.0726 1.1938-1.4012 1.5662-0.32855 0.37235-0.62242 0.67529-0.65307 0.67319-0.03065-0.0021-0.10662-0.06199-0.16881-0.1331zm51.198-1.4104c-0.8461-0.99146-2.2365-2.518-2.328-2.5557-0.0451-0.01866-0.34886 0.19721-0.67495 0.47972l-0.59291 0.51365-0.22646-0.31801c-0.21464-0.30144-0.21713-0.32481-0.048-0.44847 0.0981-0.07176 0.34337-0.28016 0.545-0.46312 0.20161-0.18297 0.82975-0.73078 1.3957-1.2173l1.0292-0.88466 0.24806 0.28186c0.23526 0.26733 0.23888 0.28963 0.0703 0.43256-0.0978 0.08289-0.36815 0.3137-0.6008 0.51291l-0.42298 0.36219 1.074 1.1952c0.59071 0.65731 1.2516 1.3915 1.4685 1.6314l0.39456 0.43633-0.33179 0.34233c-0.18248 0.18828-0.35856 0.34232-0.39127 0.34232-0.0327 0-0.30642-0.28937-0.60823-0.64303zm2.9677-2.54c-0.27631-0.2534-1.0328-0.95541-1.6809-1.56-0.64822-0.60459-1.2811-1.1838-1.4066-1.2871l-0.22801-0.1879 0.74083-0.7487 0.68454 0.65538c0.3765 0.36046 1.2158 1.1433 1.865 1.7397 0.64931 0.59637 1.1805 1.1141 1.1805 1.1504 0 0.0364-0.14695 0.20854-0.32653 0.38253l-0.32652 0.31636zm-58.916-0.53133c-0.27449-0.32983-0.65547-0.77065-0.84664-0.97958-0.19117-0.20894-0.45962-0.51554-0.59659-0.68131l-0.24903-0.30142 1.5002-1.2559c2.26-1.892 2.4178-2.018 2.4913-1.9875 0.11892 0.04946 2.111 2.371 2.111 2.4601 0 0.11708-0.39946 0.45041-0.49398 0.4122-0.04198-0.01698-0.40431-0.4039-0.80513-0.85979l-0.72877-0.82898-0.48885 0.37683c-0.26887 0.20726-0.49078 0.41652-0.49314 0.46504-0.0024 0.0485 0.30919 0.46046 0.69232 0.91541l0.6966 0.82724-0.60979 0.45084-0.31464-0.3873c-0.17305-0.21302-0.50285-0.58898-0.73287-0.83547l-0.41824-0.44816-0.56307 0.48106c-0.30968 0.26458-0.56195 0.51145-0.56059 0.54863 0.0014 0.03717 0.23124 0.31626 0.51083 0.62018 0.27959 0.30392 0.6228 0.69935 0.76267 0.87873l0.25431 0.32613-0.23768 0.198c-0.13072 0.10889-0.26994 0.1995-0.30937 0.20134-0.03943 0.0018-0.29627-0.26652-0.57076-0.59636zm59.896-2.0081c-1.1896-0.56279-2.0351-1.6034-2.0351-2.5049 0-0.74588 0.79632-1.9042 1.5574-2.2653 0.18241-0.08656 0.56347-0.15737 0.84681-0.15737 1.0988 0 2.5873 1.1189 2.9645 2.2283 0.17586 0.51733 0.17742 0.58085 0.0255 1.0266-0.3787 1.1114-1.378 1.9697-2.2933 1.9695-0.27704-5e-5 -0.66959-0.10938-1.0659-0.2969zm2.1312-1.0628c0.30892-0.30893 0.35499-0.41835 0.35499-0.84315 0-0.40134-0.0581-0.55956-0.32652-0.88982-0.41015-0.50455-1.1314-0.98774-1.6988-1.1381-0.56309-0.14921-1.0975 0.05577-1.3881 0.53239-0.3825 0.62739-0.19975 1.3164 0.51182 1.9297 0.65393 0.56359 1.073 0.75447 1.6676 0.75952 0.46876 0.0039 0.56163-0.03305 0.87913-0.35056zm-65.195-0.80101c-0.10434-0.19374-0.17114-0.37047-0.14844-0.39274 0.02271-0.02227 0.8777-0.54544 1.8999-1.1626 2.1646-1.3067 2.3361-1.4333 1.6476-1.2152-0.1602 0.05076-0.56256 0.16946-0.89409 0.2638-0.33155 0.09432-0.96452 0.28367-1.4066 0.42075-0.75917 0.23543-1.8232 0.51786-1.9807 0.52571-0.09239 0.0046-0.58224-0.71407-0.57844-0.84862 0.0033-0.11653 0.54993-0.71654 2.1332-2.3415 0.60772-0.62374 1.0776-1.1614 1.0441-1.1949-0.03343-0.03343-0.13451 4e-4 -0.22464 0.0752-0.09011 0.07479-0.24828 0.18297-0.35145 0.24037-0.10318 0.05741-0.90122 0.53648-1.7735 1.0646l-1.5858 0.96017-0.22926-0.34529c-0.1261-0.1899-0.21615-0.38405-0.20011-0.43144 0.01603-0.04739 0.99811-0.67014 2.1824-1.3839 2.4486-1.4757 2.1359-1.4358 2.7891-0.35588l0.3079 0.50907-1.4384 1.4982c-0.79111 0.82399-1.4228 1.5137-1.4039 1.5327 0.01899 0.019 0.50224-0.10933 1.0738-0.28518 1.2896-0.39673 2.7141-0.79602 2.848-0.79824 0.1236-0.0021 0.96523 1.3058 0.90408 1.4049-0.09186 0.14864-4.1708 2.6124-4.325 2.6124-0.05518 0-0.18571-0.15851-0.29005-0.35225zm32.295-1.601c0-0.9532-0.03979-1.576-0.1032-1.6151-0.05676-0.03508-0.54279 0.07494-1.08 0.2445-1.1077 0.34956-3.2589 0.82035-4.8953 1.0714-1.3423 0.2059-4.8766 0.23436-6.2292 0.05014-2.4937-0.33961-5.103-1.0296-7.1335-1.8863-1.7928-0.75644-4.747-2.4624-4.8451-2.7978-0.0371-0.12696 1.6416-0.84554 3.0868-1.3213 2.3441-0.77169 4.7131-1.2138 7.0078-1.3079 0.78744-0.03228 1.4313-0.08595 1.4308-0.11927-5.03e-4 -0.03333-0.28238-0.24144-0.62643-0.46248-1.0991-0.70616-2.1025-1.5489-3.394-2.8508-1.5568-1.5691-2.292-2.4665-3.2613-3.9808-1.6918-2.6429-2.8498-5.3108-3.6092-8.3151-0.38482-1.5226-0.52137-2.4859-0.35238-2.4859 0.54614 0 3.7873 0.79349 5.2161 1.277 6.499 2.1993 11.461 5.9411 15.02 11.326 1.3985 2.1161 2.4254 4.1505 3.2743 6.4867 0.21085 0.58023 0.38933 1.0098 0.3966 0.95446 0.0072-0.05526 0.02087-2.4515 0.0302-5.325l0.01695-5.2245h1.8085l0.10048 10.65 0.24073-0.7033c1.4368-4.198 3.9086-8.1718 6.9932-11.242 4.0444-4.0257 8.8475-6.5515 14.95-7.8617 0.92809-0.19927 1.7085-0.34105 1.7346-0.3151 0.0826 0.0826-0.45303 2.5957-0.81408 3.8193-1.1162 3.7831-3.2336 7.5498-5.7708 10.265-1.3688 1.4649-3.0548 2.9203-4.1536 3.5857-0.3106 0.18809-0.56604 0.36925-0.56761 0.40257-2e-3 0.03333 0.64144 0.08808 1.4288 0.12166 1.3783 0.05878 3.1532 0.3015 4.505 0.61606 1.7372 0.40424 4.2269 1.2601 5.3926 1.8536l0.32773 0.16686-0.47843 0.35696c-0.87555 0.65325-2.4732 1.5609-3.7437 2.1268-2.4288 1.0819-4.6282 1.7088-7.5032 2.1384-1.277 0.19084-4.9229 0.21443-6.2031 0.04013-1.377-0.18747-4.2249-0.79341-5.1963-1.1056-0.50804-0.1633-0.98401-0.29689-1.0577-0.29689-0.10602 0-0.13394 0.3351-0.13394 1.6076v1.6076h-1.8085zm5.4757-6.2395c2.3994-0.42849 5.4727-1.6106 7.6581-2.9456 3.4216-2.0901 6.3276-5.2859 8.1947-9.0114 1.0685-2.1321 2.1416-5.0683 1.8522-5.0683-0.0623 0-0.56739 0.14136-1.1226 0.31412-7.2999 2.2716-12.273 6.1683-15.952 12.496-0.62014 1.067-1.987 4.0858-1.987 4.3882 0 0.0476 0.10174 0.06451 0.22605 0.03759 0.12434-0.02691 0.63297-0.12162 1.1303-0.21043zm-7.942-0.07098c-0.3282-1.0876-1.8243-4.0679-2.7518-5.4818-3.6102-5.5036-8.5156-9.1232-15.061-11.112-0.68165-0.20717-1.2604-0.35559-1.2862-0.32981-0.06326 0.06326 0.40593 1.509 0.87129 2.6848 1.4774 3.7327 3.486 6.6333 6.3332 9.1461 2.8145 2.4839 6.0364 4.0809 10.241 5.0764 0.52497 0.12429 1.1271 0.22978 1.338 0.23441 0.35242 0.0078 0.378-0.0099 0.31532-0.21763zm37.932 5.3061c-2.1165-1.051-4.1193-2.0907-4.1193-2.1383 0-0.03187 0.14681-0.34696 0.32625-0.7002l0.32624-0.64225 0.50264 0.05095c1.1257 0.11409 3.8152 0.17073 3.7178 0.07826-0.0553-0.05237-0.83161-0.47403-1.7252-0.93696l-1.6247-0.84173 0.21151-0.37678c0.11632-0.20722 0.24778-0.37676 0.29208-0.37676 0.17607 0 4.5041 2.2862 4.5041 2.3792 0 0.02985-0.14279 0.32214-0.31728 0.64953l-0.31729 0.59528-0.96373-0.05306c-2.3426-0.12897-3.3248-0.15299-3.3243-0.08126 3e-4 0.04239 0.76321 0.46344 1.6954 0.93569l1.6949 0.85861-0.21345 0.41217-0.21345 0.41218zm-71.369-3.7488c-0.07693-0.15196-0.19567-0.44902-0.26388-0.66013l-0.12403-0.38384 0.73329-0.77158c0.40332-0.42437 1.0695-1.1219 1.4805-1.5502 0.41096-0.42825 0.68359-0.77866 0.60585-0.77866s-0.88531 0.29388-1.7947 0.65307c-0.90931 0.35919-1.6799 0.65307-1.7123 0.65307-0.0652 0-0.39761-0.66207-0.39761-0.79192 0-0.04498 0.21475-0.15329 0.47724-0.24067 0.26248-0.08738 1.3354-0.50116 2.3842-0.91953 1.0488-0.41835 1.9315-0.76062 1.9615-0.76062 0.03002 0 0.16053 0.31122 0.29002 0.69158 0.22996 0.67545 0.23108 0.69608 0.04791 0.88419-0.74605 0.7663-2.6049 2.7816-2.6315 2.8527-0.01798 0.04827 0.18548-3.01e-4 0.45212-0.1079 0.26665-0.10762 1.0274-0.40568 1.6905-0.66239 0.66311-0.25669 1.2562-0.4866 1.3181-0.5109 0.09647-0.03792 0.50039 0.75264 0.41928 0.82066-0.01613 0.01352-0.79792 0.32926-1.7373 0.70164-0.93942 0.37239-1.8437 0.73363-2.0095 0.80275-1.0554 0.44013-1.0082 0.43702-1.1897 0.07858zm75.082-3.8349c-0.14064-0.08742-1.1503-0.7904-2.2438-1.5621-2.2126-1.5618-2.0467-1.3393-1.7689-2.3711l0.0995-0.36932 0.92897-0.06755c0.51093-0.03714 1.5393-0.13143 2.2853-0.20953 2.1563-0.22573 2.2105-0.22701 2.2098-0.05287-3.1e-4 0.08434-0.046 0.31736-0.10175 0.5178-0.0982 0.35374-0.11739 0.36578-0.65237 0.41014-0.30315 0.02514-0.57431 0.06885-0.6026 0.09714-0.0562 0.0562-0.54679 1.8792-0.54957 2.042-8e-4 0.05526 0.20167 0.22896 0.45024 0.38599 0.49645 0.31364 0.50415 0.33563 0.32483 0.92841-0.12334 0.4077-0.12557 0.40918-0.37975 0.25118zm-0.89379-2.737c0.10535-0.4056 0.19231-0.77757 0.19327-0.8266 2e-3 -0.08718-1.6184-0.01254-2.2899 0.10551-0.33108 0.05819-0.32793 0.06149 0.75354 0.78726 0.5973 0.40086 1.1008 0.71588 1.1188 0.70006 0.018-0.01582 0.119-0.36063 0.22433-0.76624zm-75.377 0.86209c-1.1211-0.34498-1.8186-2.0697-1.2994-3.2127 0.41487-0.91335 1.5292-1.4847 2.9044-1.4895 1.0967-0.0037 1.5357 0.25121 2.0554 1.1936 0.17972 0.32597 0.222 0.56612 0.22378 1.2713 0.0021 0.82336-0.0143 0.88998-0.30876 1.2559-0.40212 0.49967-0.93197 0.79515-1.7685 0.98624-0.81417 0.18598-1.1896 0.18493-1.8068-5e-3zm1.5638-0.95755c0.62223-0.16782 0.88316-0.30049 1.2425-0.63162 0.28929-0.26665 0.32652-0.36159 0.32652-0.8323 0-0.43785-0.04859-0.58554-0.2763-0.83975-0.35722-0.39875-0.9559-0.54094-1.6991-0.40356-1.5444 0.2855-2.1786 1.0904-1.6665 2.1154 0.3108 0.62214 1.1121 0.85093 2.073 0.59176zm73.488-2.9917c-1.0735-0.2264-1.9018-1.0382-2.0262-1.986-0.19328-1.472 0.51677-2.647 1.5995-2.647 0.33298 0 0.36253 0.02171 0.30778 0.22606-0.0334 0.12434-0.0613 0.35039-0.0619 0.50235-7.9e-4 0.23332-0.0443 0.27679-0.27767 0.2795-0.5198 0.0061-0.82913 0.42432-0.82849 1.1205 7.9e-4 0.95312 0.72887 1.4953 2.0457 1.5234 0.83016 0.01774 1.293-0.18796 1.598-0.71027 0.18104-0.30996 0.29264-1.3483 0.15931-1.4823-0.0356-0.0358-0.31454-0.09087-0.61979-0.12237l-0.55504-0.05728-0.0698 0.46534c-0.0678 0.45226-0.0797 0.46533-0.42391 0.46533h-0.35411l0.0669-0.67818c0.0368-0.373 0.0942-0.82984 0.12752-1.0153l0.0607-0.3371 0.7655 0.06542c0.42101 0.03598 1.0075 0.11273 1.3032 0.17054l0.53779 0.10513-0.0354 1.1785c-0.0324 1.0758-0.0618 1.23-0.33839 1.7708-0.40968 0.80094-0.93385 1.1291-1.9074 1.1941-0.38682 0.02582-0.87001 0.01179-1.0737-0.03117zm-77.095-1.6491c-0.12041-0.64182-0.06485-0.70664 0.75761-0.88364 1.2472-0.2684 1.3125-0.33865 1.2287-1.323l-0.04929-0.57902-0.8163 0.05779c-0.44899 0.0318-0.91335 0.07728-1.0319 0.10107-0.25494 0.05115-0.33701-0.11122-0.33701-0.66683v-0.39367l0.52747-0.0032c0.29011-0.0017 0.84394-0.04296 1.2308-0.09167 0.38681-0.04873 1.3186-0.12025 2.0706-0.15896l1.3673-0.07039 0.07187 1.3562c0.08592 1.6212-0.0012 2.031-0.50527 2.3764-0.47774 0.32735-1.2141 0.26143-1.5883-0.14216-0.1435-0.15484-0.26092-0.32014-0.26092-0.36733 0-0.04719-0.04521-0.08581-0.10047-0.08581-0.05526 0-0.10047 0.08341-0.10047 0.18537 0 0.30334-0.30518 0.48938-1.1555 0.70437-0.44207 0.11178-0.90258 0.2331-1.0234 0.26962-0.18994 0.0574-0.22855 0.01884-0.2856-0.28527zm4.097-1.2958c0.13352-0.15442 0.17583-0.38343 0.17583-0.95185v-0.74848l-0.72842 0.0693c-0.40063 0.03811-0.7545 0.0839-0.78638 0.10174-0.09933 0.05559 0.09651 1.3637 0.22785 1.522 0.30143 0.36319 0.80054 0.36645 1.1112 0.0072zm34.303-0.17955c-1.9223-0.2435-3.4688-0.69508-5.02-1.4658-1.3436-0.6676-2.2635-1.2987-3.46-2.3743-2.7141-2.4395-4.5009-6.0683-4.7156-9.5771l-0.06339-1.0361 6.8217-0.02009c3.752-0.01105 7.3643-0.02204 8.0275-0.02445 0.66311-0.0024 4.2461 0.0056 7.9625 0.01794l6.7566 0.0223-2e-3 0.47136c-5e-3 1.0479-0.40952 3.0939-0.85972 4.3419-0.13742 0.38095-0.47444 1.1353-0.74893 1.6764-0.44949 0.88602-0.58741 1.1343-0.82233 1.4807-0.21709 0.31999-1.4647 1.8509-1.6829 2.0652-2.0469 2.0092-4.3049 3.3375-6.7541 3.9733-1.6561 0.42988-4.0377 0.62647-5.4389 0.44896zm36.972-3.3172c-0.0363-0.34768-0.0662-1.1229-0.0662-1.7226v-1.0904h0.33799c0.32592 0 0.34027 0.01664 0.40189 0.46614 0.0352 0.25638 0.0637 0.77632 0.0637 1.1555v0.68928h1.3714l-0.0911-2.2104h0.82281l0.0571 2.1602 1.4569 0.01188v-2.4735h0.33849c0.31312 0 0.34319 0.02827 0.40078 0.37677 0.0342 0.20722 0.0627 0.99843 0.0634 1.7583l7.9e-4 1.3814h-1.3406c-0.73733 0-1.8831 0.02917-2.5462 0.06482l-1.2056 0.06484-0.0661-0.63216zm-73.938-0.67786-1.6829-0.03014v-0.99986l1.1805 4.02e-4c0.64929 2.01e-4 1.8248 0.02985 2.6123 0.06587l1.4317 0.06546v0.97348l-0.92935-0.02251c-0.51115-0.01239-1.6866-0.03608-2.6123-0.05268zm2.4365-2.1959c-0.46971-0.25255-1.4184-0.75732-2.1083-1.1217-1.7862-0.94345-1.812-0.95993-1.7636-1.1285 0.02379-0.08288 0.07213-0.31407 0.10745-0.51373 0.0718-0.40599-0.12252-0.33669 2.9105-1.038 0.60785-0.14057 1.414-0.32753 1.7915-0.41545 0.37746-0.08792 0.70031-0.1447 0.71741-0.12613 0.0171 0.01855 0.0081 0.26707-0.02004 0.55228-0.04979 0.50482-0.0608 0.52023-0.41599 0.58257-0.20066 0.03523-0.97522 0.19302-1.7212 0.35065-0.746 0.15763-1.5316 0.31679-1.7456 0.35368-0.35585 0.06131-0.37311 0.07837-0.20095 0.19863 0.10358 0.07236 0.95747 0.51853 1.8976 0.99154l1.7092 0.85995-0.03646 0.45843c-0.02057 0.25858-0.0868 0.45771-0.15194 0.45676-0.0635-9.63e-4 -0.49978-0.20831-0.96952-0.46086zm71.301-1.2097c-0.03-0.1025-0.0818-0.43503-0.11505-0.73895l-0.0607-0.55259 1.1629-0.80379c2.0324-1.4047 2.2732-1.5796 2.232-1.6209-0.0321-0.03213-1.9084 0.25648-3.5011 0.53856-0.24351 0.04312-0.27158 0.01286-0.33474-0.36098-0.0848-0.5019-0.0209-0.61638 0.34454-0.61638 0.15661 0 0.61737-0.06515 1.0239-0.14479 0.89735-0.17578 3.3149-0.55851 3.5277-0.55851 0.16155 0 0.2194 0.16087 0.32734 0.91026l0.066 0.45814-0.68671 0.47319c-2.2296 1.5364-2.8245 1.9653-2.783 2.0067 0.0255 0.02546 0.21367 0.0087 0.41823-0.03723 0.64274-0.14435 3.3368-0.52803 3.383-0.48182 0.0242 0.02426 0.0735 0.2279 0.10941 0.45251l0.0653 0.40839-0.38722 0.06697c-0.21299 0.03683-0.81678 0.13233-1.3417 0.21222-1.3953 0.21232-2.7177 0.43035-3.0794 0.50769-0.25629 0.05481-0.32675 0.03225-0.37079-0.1187zm-69.704-4.0986c-0.02803-0.02803-0.77182-0.25878-1.6529-0.51276-2.7593-0.79546-2.9583-0.86312-2.9583-1.0064 0-0.07531 0.07703-0.38707 0.17117-0.6928 0.1588-0.51567 0.19692-0.55998 0.52747-0.61286 0.19597-0.03136 0.55976-0.0956 0.80846-0.14273 0.24867-0.04716 1.0173-0.16447 1.708-0.26068 0.69074-0.09623 1.2921-0.20636 1.3362-0.24475 0.04417-0.03838-0.36273-0.19362-0.90423-0.34497-1.1265-0.31484-2.6771-0.7792-2.7247-0.8159-0.07622-0.05889 0.225-0.84815 0.32369-0.84815 0.1032 0 2.2338 0.61826 4.0593 1.1779 0.48922 0.14999 0.81726 0.30216 0.79294 0.36784-0.02281 0.06161-0.1029 0.35423-0.178 0.65025-0.09902 0.39038-0.19762 0.56146-0.3589 0.62277-0.20143 0.07659-0.88681 0.19189-3.1672 0.53285-0.42381 0.06337-0.79808 0.14269-0.83159 0.17627-0.03359 0.03359 0.22275 0.13873 0.56962 0.23365 0.34687 0.09492 1.0602 0.29999 1.5851 0.45571 0.52497 0.15572 1.0742 0.3101 1.2205 0.34308 0.26241 0.05916 0.26424 0.06559 0.13977 0.48765-0.11233 0.3809-0.32324 0.57711-0.46644 0.43392zm69.47-1.4062c-0.63369-0.19818-1.0003-0.50985-1.2808-1.0891-0.51148-1.056-0.43353-2.0223 0.20862-2.5861 0.43448-0.38148 0.58927-0.37798 0.72676 0.01639 0.15708 0.45058 0.14093 0.54808-0.1368 0.82581-0.34704 0.34705-0.40963 0.69707-0.21552 1.2053 0.27722 0.72593 0.94994 0.92309 2.0542 0.60209 1.086-0.31572 1.6235-0.80283 1.6235-1.4714 0-0.6986-0.40667-1.1767-1.0009-1.1767-0.35239 0-0.37387-0.02043-0.52799-0.50235l-0.16064-0.50235h0.52828c0.65917 0 1.2154 0.36675 1.6306 1.0751 0.24596 0.41968 0.28191 0.58494 0.28302 1.3009 8e-4 0.76773-0.0186 0.84482-0.30987 1.2064-0.36925 0.4584-1.2473 0.92064-2.0944 1.1025-0.73908 0.1587-0.80102 0.1584-1.328-0.0064zm-67.928-3.7773c-0.12434-0.04998-0.22606-0.1436-0.22606-0.20806 0-0.06446 0.20346-0.5467 0.45212-1.0716 0.24867-0.52494 0.45212-0.96769 0.45212-0.98386 0-0.01617-0.25703-0.14709-0.57118-0.29091-0.68483-0.31353-0.65942-0.33208-1.1808 0.86194l-0.37831 0.86637-0.31633-0.15338c-0.17399-0.08436-0.33028-0.16413-0.34731-0.17727-0.01703-0.01314 0.17541-0.46554 0.42767-1.0053 0.25225-0.5398 0.44704-0.99193 0.43286-1.0047-0.01418-0.0128-0.33382-0.16226-0.7103-0.33214l-0.68453-0.30887-1.0181 2.184-0.28858-0.1006c-0.15872-0.05533-0.3101-0.13542-0.3364-0.17798-0.0263-0.04256 0.07906-0.34328 0.23412-0.66829 0.15507-0.325 0.45652-0.97522 0.6699-1.4449s0.42082-0.89322 0.46099-0.94107c0.06243-0.07444 4.4138 1.8432 4.6414 2.0455 0.04436 0.0394-0.16175 0.58696-0.45801 1.2167-0.29626 0.62978-0.598 1.292-0.67055 1.4717-0.13833 0.3425-0.21479 0.37164-0.58475 0.22293zm65.471-0.63303-0.25511-0.54519 0.73435-0.99178c0.40389-0.54546 0.73525-1.0257 0.73637-1.0671 8.7e-4 -0.04145-0.57972-0.07536-1.2907-0.07536h-1.2928l-0.42069-1.0123 0.32253 0.05262c0.17741 0.02894 0.98901 0.09865 1.8036 0.15492l1.481 0.1023 0.91992-0.45445c0.50597-0.24995 0.9246-0.44228 0.93022-0.4274 6e-3 0.01488 0.1128 0.21816 0.23805 0.45175l0.22774 0.42471-0.62963 0.32672c-0.34629 0.1797-0.76526 0.38679-0.93102 0.46022-0.21425 0.0949-0.5417 0.50225-1.1324 1.4087-0.45703 0.70136-0.91098 1.3791-1.0087 1.5061l-0.17775 0.23082zm-63.227-6.9131c-0.33639-0.08997-0.72404-0.43076-0.92134-0.81004-0.45958-0.88324 0.29531-2.0164 1.3539-2.0321 0.41075-0.0061 0.5614 0.046 0.88166 0.30508 0.73466 0.59431 0.81432 1.4474 0.19799 2.12-0.35708 0.38963-0.97618 0.56038-1.5122 0.41704zm60.165-0.33048c-0.67904-0.29562-1.0196-1.4799-0.60668-2.1102 0.39837-0.60801 1.3241-0.84498 1.9786-0.50655 0.378 0.19548 0.79824 0.85615 0.79824 1.2551 0 0.44118-0.35717 1.0788-0.73247 1.3078-0.37335 0.22765-0.98584 0.25062-1.4377 0.05394zm-5.3768-4.5111c-0.50511-0.18793-0.92349-0.50336-1.3027-0.98211-0.50867-0.64224-0.55509-1.4206-0.11737-1.9676l0.17567-0.21954 0.38018 0.32286c0.37878 0.32168 0.3796 0.32401 0.22232 0.63929-0.20797 0.4169-0.11324 0.75686 0.31587 1.1337 0.2526 0.22179 0.44544 0.3025 0.72282 0.3025 0.75413 0 0.80774-0.41748 0.18535-1.4441-0.7413-1.2228-0.82581-1.6721-0.40797-2.1687 0.36291-0.43129 0.74578-0.60692 1.3231-0.60692 0.41359 0 0.58087 0.06437 1.0612 0.40829 0.33709 0.24138 0.65182 0.56834 0.76989 0.79975 0.25737 0.50447 0.2563 1.1776-2e-3 1.4879l-0.19537 0.23446-0.36553-0.34485c-0.319-0.30095-0.35094-0.3721-0.25095-0.55894 0.16582-0.30986 0.0332-0.69208-0.33867-0.97569-0.3786-0.28878-0.62266-0.31021-0.94686-0.08313-0.32119 0.22497-0.24644 0.58322 0.33199 1.5909 0.56725 0.98821 0.64682 1.3449 0.39576 1.7735-0.39438 0.67345-1.1933 0.94235-1.9563 0.65839zm-49.22-0.2852c-0.34186-0.09618-1.7762-1.4697-2.6906-2.5767l-0.3579-0.43323 0.70315-0.70315 1.0876 1.2157c1.3996 1.5646 1.5754 1.7102 2.0659 1.7102 0.79974 0 1.4186-0.91461 1.0625-1.5702-0.08619-0.15867-0.67794-0.85172-1.315-1.54-0.63708-0.68833-1.155-1.2761-1.1511-1.3062 0.0039-0.03005 0.16734-0.18788 0.36301-0.35074l0.35576-0.29611 0.46588 0.4991c1.9734 2.1141 2.3246 2.6038 2.3246 3.2406 0 0.7355-0.98956 1.8924-1.8231 2.1315-0.40122 0.11508-0.62268 0.11084-1.0906-0.02079zm45.058-2.96c-0.77177-0.53628-1.4192-0.98734-1.4387-1.0023-0.0195-0.01501 0.20981-0.35794 0.50968-0.76205 0.29986-0.40412 0.94393-1.2999 1.4312-1.9906 0.48729-0.69081 0.92333-1.2974 0.96895-1.3479 0.0917-0.10188 2.693 1.6151 2.7781 1.8336 0.0286 0.07368-0.0407 0.22673-0.15402 0.34013l-0.20617 0.20617-0.38551-0.23432c-0.21201-0.12888-0.62092-0.40627-0.90867-0.61641-0.28774-0.21016-0.55903-0.38077-0.60283-0.37914-0.0438 0.0017-0.24788 0.23506-0.45351 0.51874l-0.37386 0.51578 0.90131 0.61007c0.49574 0.33554 0.8998 0.65596 0.89799 0.71204-2e-3 0.05608-0.091 0.20707-0.19803 0.33555l-0.19468 0.23358-0.89118-0.61035c-0.49011-0.33569-0.91721-0.61034-0.94907-0.61034-0.0606 0-0.90289 1.2268-0.85535 1.2457 0.015 6e-3 0.16287 0.10486 0.32864 0.21977 0.16579 0.11492 0.584 0.40131 0.92936 0.63643 0.34537 0.23511 0.62695 0.48003 0.62571 0.54424-8.7e-4 0.06421-0.0819 0.22028-0.17926 0.34679l-0.17702 0.23003zm-42.044-1.7258c-0.74597-1.1253-1.3692-2.1013-1.3851-2.169-0.02364-0.10118 0.43998-0.45428 1.0524-0.80149 0.06583-0.03734 0.93323 0.42572 1.934 1.0324 0.99812 0.60506 1.8148 1.0563 1.8148 1.0027 0-0.05356-0.08629-0.2199-0.19174-0.36961-0.10545-0.14973-0.5596-0.83096-1.0092-1.5137-0.75955-1.1537-0.80466-1.251-0.63715-1.3759 0.27685-0.20625 0.62837-0.38505 0.665-0.33827 0.03792 0.04842 1.2563 1.9129 2.1552 3.2977l0.61321 0.94488-0.21991 0.16692c-0.12095 0.09181-0.38723 0.26799-0.59174 0.39153-0.35829 0.21645-0.38389 0.21845-0.7033 0.05526-0.18231-0.09314-0.45156-0.25375-0.59833-0.35691-0.14677-0.10316-0.53107-0.33925-0.85401-0.52465-0.32294-0.1854-0.89149-0.52444-1.2635-0.75341-0.372-0.22898-0.69826-0.41632-0.72502-0.41632-0.02677 0 0.07906 0.19215 0.23514 0.427 1.0656 1.6034 1.8192 2.7873 1.8185 2.857-5.04e-4 0.04494-0.17003 0.17349-0.37683 0.28568l-0.376 0.20399zm38.602-0.39731-0.43115-0.24498 0.21793-0.36696c0.67426-1.1354 1.9004-3.4502 1.8612-3.5136-0.0253-0.04081-0.32316-0.20673-0.66207-0.36871-0.56259-0.2689-0.61072-0.31671-0.55325-0.54967 0.10817-0.43853 0.22081-0.47055 0.73005-0.20749 0.51412 0.26559 3.1706 1.717 3.2123 1.7551 0.0343 0.03135-0.28079 0.65878-0.33086 0.65878-0.0217 0-0.33802-0.16412-0.70297-0.36473-0.37401-0.20558-0.69985-0.32614-0.74677-0.2763-0.0458 0.04863-0.52038 0.87968-1.0547 1.8467-0.53431 0.96698-1.0023 1.7849-1.04 1.8176-0.0377 0.03266-0.26265-0.05089-0.49977-0.18563zm-33.199-1.3556c-0.79546-1.5092-1.7855-3.4677-1.7855-3.532 0-0.11308 0.83025-0.47522 0.90455-0.39456 0.08079 0.0877 2.3105 4.44 2.3105 4.5099 0 0.04219-0.76178 0.4464-0.84134 0.4464-0.02505 0-0.28978-0.46342-0.5883-1.0298zm31.37 0.35982c-0.7555-0.25721-0.80378-0.31277-0.80378-0.92508v-0.5809l-0.94353-0.36887c-0.51897-0.20288-1.0105-0.36887-1.0922-0.36887-0.0818 0-0.25623 0.15753-0.3877 0.35008-0.30885 0.45237-0.40935 0.48346-0.92015 0.28464-0.51279-0.19959-0.546-0.22438-0.42012-0.31364 0.0541-0.03843 0.68236-0.72546 1.3958-1.5268 0.71353-0.80125 1.4703-1.6334 1.6819-1.8493 0.21152-0.21584 0.3846-0.43059 0.3846-0.47724 0-0.13731 0.31653-0.09799 0.85401 0.10608l0.50234 0.19074 0.0267 2.7731c0.0147 1.5251-8e-3 2.7695-0.0502 2.7652-0.0423-0.0044-0.14476-0.03102-0.22765-0.05924zm-0.65671-3.5573c0.0398-0.66723 0.0484-1.2372 0.0191-1.2665-0.0553-0.05536-0.28232 0.18882-1.1578 1.2457l-0.51757 0.62482 0.30255 0.15645c0.33789 0.17473 0.99582 0.42295 1.1686 0.44092 0.0741 0.0077 0.13743-0.40302 0.18508-1.2014zm-27.907 0.9509c-0.42537-1.0647-0.77339-1.9838-0.77339-2.0424 0-0.14633-0.03188-0.14071-0.82502 0.14538-0.38423 0.1386-0.73565 0.22911-0.78091 0.20113-0.04528-0.02799-0.1263-0.17706-0.18007-0.3313l-0.09775-0.28041 3.9434-1.5175 0.16625 0.31048c0.09143 0.17076 0.14935 0.33784 0.12867 0.37128-0.02067 0.03343-0.32155 0.16279-0.66861 0.28745-0.34708 0.12465-0.66575 0.25862-0.70818 0.2977-0.04242 0.03908 0.26653 0.92705 0.68656 1.9732 0.42003 1.0462 0.77124 1.9622 0.78044 2.0355 0.0091 0.07334-0.18909 0.21252-0.44065 0.30928l-0.45739 0.17593zm3.7888 0.48833c-0.03484-0.15196-0.30698-1.2369-0.60474-2.4109-0.29776-1.174-0.54139-2.18-0.54139-2.2355 0-0.0555 0.07185-0.10091 0.15965-0.10091 0.0878 0 0.81338-0.16361 1.6123-0.36358 0.79895-0.19997 1.4774-0.33885 1.5076-0.30863 0.03022 0.03022 0.06196 0.20026 0.07053 0.37787l0.01559 0.32293-1.08 0.25818c-0.59403 0.142-1.08 0.30822-1.08 0.36938 0 0.28993 0.32308 1.1521 0.43089 1.1498 0.06693-0.0014 0.55122-0.11004 1.0761-0.24145 0.52497-0.1314 0.96175-0.23199 0.97063-0.22353 0.0089 0.0083 0.04632 0.17691 0.08319 0.37433l0.06702 0.35894-1.0376 0.24893c-1.1641 0.27926-1.1033 0.19451-0.87358 1.2184 0.07488 0.33361 0.15707 0.47724 0.27314 0.47724 0.09132 0 0.61712-0.11169 1.1685-0.24822 0.55133-0.13652 1.0313-0.21564 1.0666-0.17583 0.03527 0.03982 0.09 0.21139 0.12162 0.3813l0.05748 0.3089-1.074 0.23526c-0.59072 0.1294-1.2492 0.29557-1.4634 0.36927-0.61976 0.21331-0.85266 0.17752-0.92603-0.14227zm18.195-0.09676c-0.3533-0.08498-0.36996-0.18818-0.16073-0.99542 0.47958-1.8504 0.83721-3.3631 0.80172-3.3911-0.021-0.01657-0.35095-0.10541-0.73326-0.19743-0.38232-0.09201-0.71441-0.18658-0.73798-0.21014-0.0772-0.07715 0.0902-0.66005 0.18956-0.66005 0.0532 0 0.92205 0.20346 1.9306 0.45212 1.0086 0.24867 1.9156 0.45212 2.0158 0.45212 0.12525 0 0.16288 0.04992 0.12063 0.16005-0.0337 0.08803-0.0875 0.264-0.11939 0.39107-0.0576 0.22979-0.0612 0.23026-0.67776 0.08815-0.34087-0.07858-0.691-0.16468-0.77807-0.19134-0.12988-0.03976-0.24417 0.299-0.63651 1.8869-0.263 1.0644-0.49999 2.0143-0.52662 2.1111-0.0477 0.17306-0.26488 0.20596-0.68798 0.10418zm-14.253-3.056c-0.15027-1.3886-0.2527-2.5454-0.2276-2.5703 0.07963-0.07964 1.4923-0.23413 2.2225-0.24308 0.45146-0.0055 0.85702 0.0535 1.1326 0.16484 1.3805 0.55778 1.8911 2.8165 0.90685 4.0107-0.46258 0.56117-1.0824 0.82122-2.3916 1.0032-0.63077 0.08769-1.197 0.15944-1.2582 0.15944-0.07129 0-0.20967-0.90844-0.38458-2.5247zm2.7619 1.3123c0.41157-0.20997 0.7903-0.86312 0.7903-1.363 0-0.51658-0.28421-1.289-0.57535-1.5636-0.36466-0.34401-0.9486-0.49412-1.6167-0.41559l-0.53896 0.06335 0.05668 0.41209c0.03117 0.22665 0.10346 0.88681 0.16063 1.467 0.05716 0.58023 0.12918 1.2067 0.16001 1.3922l0.05606 0.33728 0.57009-0.07122c0.31355-0.03918 0.73534-0.15554 0.93735-0.25858zm6.5842 0.96801c-0.86462-0.2324-1.2684-0.67508-1.2712-1.3937l-2e-3 -0.38227 0.47725 0.03063c0.42428 0.02723 0.48054 0.05849 0.50717 0.2818 0.0583 0.48957 0.3486 0.73094 0.93688 0.7792 0.44484 0.03649 0.58905 0.0058 0.81655-0.1738 0.31635-0.24973 0.35968-0.60457 0.1005-0.82272-0.0967-0.08137-0.56012-0.31757-1.0298-0.52488-0.46972-0.20732-0.95439-0.47088-1.0772-0.58571-0.67593-0.63238-0.43591-1.7682 0.47297-2.2382 0.65673-0.33961 1.9699-0.15658 2.5536 0.35588 0.31642 0.27782 0.55015 0.87611 0.4228 1.0822-0.0269 0.04343-0.2659 0.05396-0.5312 0.02341-0.37916-0.04366-0.49024-0.09857-0.51905-0.2565-0.11433-0.62702-1.0923-0.86843-1.5726-0.38812-0.20568 0.20567-0.19049 0.5727 0.032 0.77408 0.10084 0.09125 0.54081 0.32136 0.97768 0.51134 0.43692 0.18998 0.94021 0.46177 1.1184 0.60396 0.57901 0.46199 0.5671 1.3259-0.0262 1.9022-0.56304 0.54682-1.382 0.6913-2.3871 0.42115z" fill="#407ec9" stroke-width=".10047"/>
 <path d="m98.029 78.725c0-0.9532-0.03979-1.576-0.1032-1.6151-0.05676-0.03508-0.54279 0.07494-1.08 0.2445-1.1077 0.34956-3.2589 0.82035-4.8953 1.0714-1.3423 0.2059-4.8766 0.23436-6.2292 0.05014-2.4937-0.33961-5.103-1.0296-7.1335-1.8863-1.7928-0.75644-4.747-2.4624-4.8451-2.7978-0.0371-0.12696 1.6416-0.84553 3.0868-1.3213 2.3441-0.77169 4.7131-1.2138 7.0079-1.3079 0.78744-0.03228 1.4313-0.08595 1.4308-0.11927-5.03e-4 -0.03333-0.28238-0.24144-0.62643-0.46248-1.0991-0.70616-2.1025-1.5489-3.394-2.8508-1.5568-1.5691-2.292-2.4665-3.2613-3.9808-1.6918-2.6429-2.8498-5.3108-3.6092-8.3151-0.38482-1.5226-0.52137-2.4859-0.35238-2.4859 0.54614 0 3.7873 0.79349 5.2161 1.277 6.499 2.1993 11.461 5.9411 15.02 11.326 1.3985 2.1161 2.4254 4.1505 3.2743 6.4867 0.21085 0.58022 0.38933 1.0098 0.3966 0.95446 0.0072-0.05526 0.02087-2.4515 0.0302-5.325l0.01695-5.2245h1.8085l0.05023 5.325 0.05024 5.325 0.24072-0.7033c1.4368-4.198 3.9086-8.1718 6.9933-11.242 4.0444-4.0257 8.8475-6.5515 14.95-7.8617 0.92809-0.19927 1.7085-0.34106 1.7346-0.3151 0.0827 0.0826-0.45303 2.5957-0.81409 3.8193-1.1162 3.7831-3.2336 7.5498-5.7708 10.265-1.3688 1.4649-3.0548 2.9203-4.1536 3.5857-0.31062 0.18809-0.56604 0.36924-0.56761 0.40257-2e-3 0.03333 0.64142 0.08808 1.4288 0.12166 1.3783 0.05878 3.1532 0.3015 4.505 0.61606 1.7372 0.40424 4.2269 1.2601 5.3926 1.8536l0.3277 0.16687-0.47841 0.35696c-0.87556 0.65325-2.4732 1.5609-3.7437 2.1268-2.4288 1.0819-4.6283 1.7088-7.5032 2.1384-1.277 0.19085-4.9229 0.21443-6.2031 0.04013-1.377-0.18747-4.2249-0.79341-5.1963-1.1056-0.50805-0.1633-0.98402-0.29689-1.0577-0.29689-0.10603 0-0.13395 0.3351-0.13395 1.6076v1.6076h-1.8085zm5.4757-6.2395c2.3994-0.42849 5.4727-1.6106 7.6581-2.9456 3.4216-2.0901 6.3276-5.2859 8.1947-9.0114 1.0686-2.1321 2.1416-5.0683 1.8522-5.0683-0.0623 0-0.56739 0.14136-1.1226 0.31412-7.2999 2.2716-12.273 6.1683-15.952 12.496-0.62015 1.067-1.987 4.0858-1.987 4.3882 0 0.0476 0.10174 0.06451 0.22606 0.0376 0.12433-0.02692 0.63295-0.12162 1.1303-0.21043zm-7.942-0.07098c-0.3282-1.0876-1.8243-4.0679-2.7518-5.4818-3.6102-5.5036-8.5156-9.1232-15.061-11.112-0.68165-0.20717-1.2604-0.35559-1.2862-0.32981-0.06326 0.06326 0.40593 1.509 0.87129 2.6848 1.4774 3.7327 3.486 6.6333 6.3332 9.1461 2.8145 2.4839 6.0364 4.0809 10.241 5.0764 0.52497 0.12429 1.1271 0.22978 1.338 0.23441 0.35242 0.0078 0.378-0.0099 0.31532-0.21763zm-8.2343-20.862c-0.44518-0.08327-0.7694-0.26752-1.5228-0.86534-0.48648-0.38606-1.1398-1.2041-1.1398-1.4272 0-0.16424-0.27291-0.65317-0.41287-0.73968-0.07698-0.04758-0.14179-0.40366-0.16948-0.93133l-0.04484-0.85433 6.8191-0.02008c3.7505-0.01105 7.3617-0.02204 8.0244-0.02446 0.66311-0.0024 4.2461 0.0056 7.9625 0.01794l6.7566 0.02231v0.38126c0 0.68527-0.12882 1.6327-0.20517 1.5091-0.0521-0.08438-0.1093-0.05613-0.18946 0.09371-0.0632 0.11798-0.0897 0.21452-0.059 0.21452 0.0502 0-0.24054 0.57541-0.50182 0.99321-0.15861 0.25362-0.68039 0.7353-1.1646 1.0751-0.85434 0.59954-2.1016 0.81417-2.8686 0.49364-0.19837-0.08288-0.45954-0.15071-0.58038-0.15071-0.21853 0-1.6343-1.2695-1.531-1.3728 0.0279-0.02778-0.0305-0.13153-0.12949-0.23053-0.099-0.099-0.20542-0.24219-0.23649-0.31817-0.0435-0.10667-0.0915-0.09236-0.21007 0.06279-0.0845 0.11052-0.19028 0.24616-0.23509 0.30142-0.0448 0.05526-0.18508 0.24741-0.31169 0.427-0.12659 0.1796-0.29492 0.32652-0.37405 0.32652-0.0792 0-0.14387 0.05943-0.14387 0.13207 0 0.14974-0.63326 0.51218-1.3062 0.74754-0.26864 0.09396-0.7783 0.15738-1.2559 0.15626-0.6949-0.0017-0.88539-0.04336-1.4066-0.30813-0.64285-0.32657-1.4978-1.1212-1.9305-1.7939-0.11814-0.18375-0.12761-0.18282-0.30142 0.02956-0.0987 0.1206-0.31053 0.4085-0.47077 0.63978-0.16586 0.2394-0.60592 0.62589-1.0218 0.89734-0.66499 0.43411-0.80157 0.48305-1.524 0.54607-0.66936 0.05838-0.90258 0.03441-1.49-0.15318-0.38306-0.12232-0.83207-0.32259-0.99788-0.44503-0.47554-0.35125-1.0549-0.92666-1.0549-1.0476 0-0.06071-0.06609-0.13574-0.14688-0.16674-0.08079-0.03101-0.17426-0.14262-0.20772-0.24803-0.08796-0.27712-0.15796-0.24008-0.54552 0.28868-0.57021 0.77795-0.94385 1.1129-1.5907 1.4262-0.66456 0.32192-1.5739 0.4475-2.2816 0.31512z" color="#000000" fill="#509e2f" stroke-width=".79222"/>
</svg>
