<svg width="200" height="114" version="1.1" xmlns="http://www.w3.org/2000/svg" xmlns:cc="http://creativecommons.org/ns#" xmlns:dc="http://purl.org/dc/elements/1.1/" xmlns:rdf="http://www.w3.org/1999/02/22-rdf-syntax-ns#">
 <metadata>
  <rdf:RDF>
   <cc:Work rdf:about="">
    <dc:format>image/svg+xml</dc:format>
    <dc:type rdf:resource="http://purl.org/dc/dcmitype/StillImage"/>
    <dc:title/>
   </cc:Work>
  </rdf:RDF>
 </metadata>
 <g stroke-width=".8">
  <path d="m122.7 17v3.7844s9.7952 13.806 12.178 17.054c2.8625 3.9024 5.4282 4.3671 11.705 5.7406 6.2787 1.3734 11.158 2.3938 11.158 2.3938v-0.575s-3.342-0.75416-11.02-2.35c-7.6783-1.5958-9.8472-3.9463-11.744-6.9156-1.8989-2.9715-12.277-19.133-12.277-19.133zm-23.658 0.10782c-1.4738 2.1823-2.9254 4.0628-4.4187 5.7218-1.9795 2.2041-4.055 4.0062-6.1718 5.3578-2.1845 1.4083-4.6415 2.457-7.3078 3.1218-1.1947 0.30086-2.4736 0.54474-3.9125 0.74531-0.94616 0.1329-1.9216 0.2347-2.8656 0.33282-0.37716 0.04151-32.133 3.4094-32.133 3.4094v2.2218s34.231-4.4289 35.197-4.5859c1.4825-0.24199 2.7976-0.52614 4.025-0.86408 2.7687-0.75868 5.317-1.9161 7.5734-3.4422 2.1649-1.4498 4.177-3.5598 6.1718-5.875 1.2666-1.4738 2.5995-3.3954 3.8422-5.2484zm23.658 4.4875-0.0187 3.4422s9.5592 12.27 12.197 15.597c2.9039 3.6626 7.4541 4.4934 11.786 5.4047 4.3297 0.91128 11.106 2.2172 11.106 2.2172v-0.48594s-8.9176-1.755-11.106-2.2172c-8.476-1.7921-10.392-4.8273-11.816-6.7109-1.4236-1.8836-12.149-17.247-12.149-17.247zm-23.656 0.11718c-1.6024 2.1714-3.1214 3.9966-4.6234 5.5531-2.0471 2.1213-4.16 3.8063-6.2813 5.0141-2.143 1.2318-4.618 2.1346-7.3562 2.6797-1.1686 0.23763-2.4434 0.42897-3.8953 0.58594-0.85464 0.09365-1.7138 0.16798-2.575 0.24218-0.46437 0.03924-0.92936 0.08037-1.3938 0.12187-10.49 0.94184-20.926 1.9429-30.686 2.889v2.2218c9.8368-1.186 20.346-2.4437 30.833-3.6297 0.46654-0.05442 0.93344-0.10758 1.4-0.15781 0.85896-0.09383 1.7201-0.18976 2.5813-0.30313 1.4934-0.19839 2.7981-0.42654 3.9906-0.69687 2.845-0.63659 5.4144-1.6393 7.6359-2.9844 2.2062-1.3234 4.1543-3.1796 6.2516-5.4469 1.3059-1.4106 2.7584-3.4029 4.1187-5.2734zm23.656 4.4984-0.0187 3.2594s9.6296 11.199 12.167 14.049c2.893 3.2462 6.9278 4.0989 11.816 4.9797 4.8878 0.8808 11.075 2.0328 11.075 2.0328v-0.48594s-7.0614-1.2923-11.075-2.0641c-6.9611-1.3364-9.7752-3.492-11.816-6.1016-2.0427-2.6118-12.149-15.669-12.149-15.669zm-23.656 0.19844c-1.6896 2.1016-3.303 3.8506-4.9141 5.3265-2.0886 1.9163-4.2684 3.423-6.4813 4.4781-2.1649 1.0442-4.5858 1.7769-7.4047 2.239-1.162 0.19403-2.4258 0.35045-3.8625 0.48125l-34.15 2.8031v2.2156l30.356-3.2203 3.9266-0.4125c1.4803-0.17214 2.7709-0.36357 3.9438-0.58594 2.9192-0.55157 5.4244-1.3733 7.6547-2.5156 2.2804-1.1533 4.559-3.0713 6.6781-5.1031 1.4214-1.3626 2.7902-3.1228 4.2531-4.9672zm23.636 4.3359 0.0203 3.0562s9.1928 9.612 12.147 12.449c3.8784 3.7258 7.518 4.0085 11.817 4.7672 4.3014 0.75868 11.075 1.9734 11.075 1.9734v-0.51406s-8.18-1.4234-11.075-1.975c-7.2379-1.3757-8.7232-2.5102-11.786-5.8-1.9664-2.1126-12.198-13.956-12.198-13.956zm-23.638 0.3125c-1.8858 1.949-3.4522 3.5064-5.1156 4.8406-2.1583 1.7332-3.8234 2.9654-6.4656 4.0141-2.3 0.91568-4.7705 1.2891-7.5937 1.675-1.816 0.25507-3.7142 0.62947-5.5281 0.75156-0.7456 0.05006-1.491 0.09886-2.2344 0.15782l-29.872 2.1766v2.211l29.992-2.9078 3.889-0.36406c1.441-0.13743 2.7222-0.29503 3.9125-0.48906 2.9061-0.46654 5.4107-1.1759 7.6562-2.1766 2.3283-1.0268 4.6855-2.711 6.8765-4.5531 1.489-1.2514 2.924-2.8252 4.4828-4.5453zm23.658 4.4031v2.8547s9.4888 8.7192 12.149 11.122c2.9693 2.6837 6.5994 3.1686 11.786 4.0406 5.289 0.88728 11.105 1.8203 11.105 1.8203v-0.54531s-6.1929-0.99416-11.105-1.8531c-5.145-0.9004-8.8592-1.9944-11.756-4.9484-2.7317-2.7862-12.178-12.49-12.178-12.49zm-23.658 0.24687c-1.8334 1.7877-2.889 2.7923-4.8969 4.1156-2.4003 1.5806-6.4901 2.4224-8.2736 3.4187-1.9882 1.1118-3.4755 1.7519-6.3141 2.0484-1.7158 0.18531-3.4789 0.27279-5.1859 0.35782-0.82408 0.04134-1.6503 0.08206-2.4766 0.13438-5.1581 0.29431-10.225 0.62207-15.394 0.95784l-14.269 0.96096v2.2156l14.413-1.3218c4.6567-0.41858 10.067-0.8996 15.35-1.3313l3.8422-0.29687c1.4999-0.11546 2.7292-0.23769 3.8672-0.38594 2.9214-0.37716 5.4175-0.96816 7.6281-1.8031 2.3806-0.88952 4.6257-2.2721 6.8734-3.8984 2.0275-1.465 4.8337-4.3536 4.8359-4.3906zm23.658 4.1266v2.6718s8.548 6.901 12.178 9.7872c3.1459 2.5006 6.4978 2.8225 11.756 3.6422 5.2584 0.81976 11.105 1.761 11.105 1.761v-0.57656s-4.6088-0.69755-11.075-1.8203c-6.464-1.1227-8.8472-1.9234-11.786-4.4937-3.1938-2.7949-12.178-10.972-12.178-10.972zm-23.658 1.4782c-1.9032 1.6242-3.7177 1.9865-5.5249 3.0766-2.215 1.343-4.5424 2.3714-6.9187 3.0625-2.1539 0.63223-4.5783 1.0599-7.4125 1.3062-1.1489 0.10029-2.3878 0.17613-3.7875 0.23282l-3.8187 0.16875c-9.4904 0.44038-18.937 0.9328-29.347 1.4844v2.2078c9.9456-0.76957 19.69-1.5161 29.433-2.2094l3.8078-0.25938c1.4716-0.09819 2.6892-0.20262 3.8359-0.33125 2.9039-0.32483 5.389-0.82648 7.5953-1.5328 2.4439-0.77393 4.827-1.897 7.0813-3.3359 1.6634-1.0595 3.3296-2.3248 5.0562-3.8313zm23.638 3.1969 0.0203 2.4703s8.3128 5.7354 12.178 8.2576c3.97 2.5922 7.3609 2.8246 11.784 3.3718 4.4256 0.54502 11.046 1.489 11.046 1.489v-0.60937s-3.7442-0.5135-11.046-1.5469c-7.3622-1.0442-9.8968-2.6729-11.816-4.0703-1.9185-1.3953-12.167-9.3624-12.167-9.3624zm-23.638 0.54218c-1.973 1.4236-3.8639 2.5851-5.7562 3.5313-2.2434 1.1227-4.612 1.9782-7.0406 2.5406-2.1692 0.50797-4.5216 0.83256-7.4016 1.0266-1.1097 0.07413-2.3037 0.1293-3.7578 0.175l-3.7828 0.13438c-9.5312 0.35972-19.196 0.77364-29.072 1.2031v2.2094c9.8128-0.6693 19.438-1.3221 29.146-1.9282l3.775-0.22656c1.4803-0.08511 2.6856-0.16941 3.7953-0.27187 2.9322-0.27034 5.3322-0.66569 7.5516-1.239 2.4897-0.64095 4.9096-1.5832 7.1921-2.7953 1.7659-0.93528 3.5268-2.0596 5.3516-3.4156zm23.638 3.9313 0.0203 2.2875s8.528 4.8793 12.147 6.8218c3.619 1.9446 6.9286 2.6427 11.786 3.1594 4.8573 0.51669 11.075 1.1828 11.075 1.1828v-0.57656s-3.5283-0.426-11.046-1.3656c-7.5149-0.94184-9.8032-2.6726-11.754-3.7344-1.949-1.0639-12.228-7.775-12.228-7.775zm-23.638 0.76406c-2.0667 1.2034-4.0326 2.1667-5.9859 2.9406-2.2695 0.90256-4.6709 1.5874-7.1344 2.0344-2.1779 0.39896-4.5216 0.65393-7.3797 0.8-1.0748 0.05668-2.2254 0.09637-3.7297 0.13125l-32.58 0.88128v2.2078l28.889-1.5078 3.7438-0.19062c1.4606-0.06976 2.6541-0.13998 3.7594-0.225 2.8974-0.22237 5.2806-0.54032 7.5-1.0047 2.5202-0.52322 4.9665-1.2862 7.2687-2.2672 1.8553-0.78702 3.7125-1.7462 5.6484-2.9125zm23.658 3.711-0.0187 2.125s8.5344 3.8929 12.197 5.4844c4.0942 1.7811 6.1154 2.0262 11.786 2.5516 5.7206 0.53194 11.075 1.0938 11.075 1.0938v-0.54687s-5.7904-0.59647-11.075-1.2156c-5.3827-0.62569-8.352-1.437-11.786-3.1266-3.0805-1.5152-12.178-6.3656-12.178-6.3656zm-23.658 0.9156c-2.1038 0.97888-4.1733 1.7942-6.1593 2.4047-2.276 0.70199-4.7019 1.228-7.2156 1.5594-3.9983 0.53413-8.1128 0.59426-12.094 0.65313-0.91128 0.01221-1.8246 0.02716-2.7359 0.04687l-28.605 0.51406v2.2031l28.654-1.2328c0.90696-0.04134 1.8184-0.07918 2.7297-0.11406 4.007-0.16133 8.152-0.32718 12.205-0.97032 2.5638-0.40332 5.0316-1.0026 7.3359-1.7766 1.9076-0.63877 3.883-1.4655 5.8844-2.4422zm23.658 3.6375-0.0187 2.0266s7.8868 2.6966 12.197 4.0984c4.2578 1.3866 6.5275 1.5772 11.786 2.0328 5.2584 0.45564 11.044 0.90936 11.044 0.90936v-0.54375s-9.6824-0.97728-11.013-1.1234c-3.0194-0.33356-6.8153-0.4975-11.786-2.4313-5.0513-1.9642-12.21-4.9687-12.21-4.9687zm-23.656 1.0469c-2.1409 0.7674-4.2739 1.3953-6.3516 1.8531-2.2826 0.50361-4.6544 0.84888-7.2531 1.0625-3.7454 0.30958-7.5776 0.31094-11.286 0.31094-1.1533 0-2.3061-8.8e-4 -3.4594 0.0078-9.4768 0.04151-18.877 0.12037-28.461 0.20313v2.2046c9.128-0.30958 18.81-0.63254 28.494-0.92032 1.1489-0.03924 2.2974-0.06792 3.4484-0.09844 3.728-0.09365 7.5825-0.19014 11.367-0.6 2.6423-0.28342 5.0487-0.69974 7.3531-1.2687 2.0101-0.49489 4.0751-1.1524 6.1484-1.9438zm23.656 3.5687-0.0187 1.9031s8.9856 2.0983 12.197 2.7938c2.8974 0.62787 6.8567 0.99152 11.786 1.3359 6.0956 0.4273 11.044 0.75781 11.044 0.75781v-0.51562s-8.7232-0.69739-11.013-0.85c-2.2891-0.15043-6.8371-0.66838-11.786-1.9438-4.9489-1.2754-12.21-3.4813-12.21-3.4813zm-23.658 1.1359c-2.1823 0.50142-4.3509 0.90472-6.4547 1.1859-2.2957 0.30739-4.6804 0.5063-7.2921 0.61094-1.561 0.06104-3.2509 0.09218-5.1672 0.09218-0.72379 0-1.4502-4e-3 -2.1718-0.01094l-7.3734-0.08906c-5.0295-0.03715-10.042-0.04582-14.744-0.05l-13.606 0.0125v2.2016l13.639-0.35469c4.685-0.11546 9.7104-0.23562 14.726-0.325l7.3672-0.09844c2.021-0.03052 4.6863-0.09216 7.3875-0.26875 2.6466-0.17214 5.0569-0.43625 7.3656-0.80472 2.0777-0.33138 4.2-0.77746 6.3234-1.3203zm23.638 3.4187v1.8234s6.3732 0.78858 12.198 1.3859c2.6009 0.26598 7.1794 0.53835 11.786 0.78906 4.4234 0.23981 11.075 0.57656 11.075 0.57656v-0.54531s-10.395-0.70073-11.075-0.73125c-0.68019-0.02834-7.0537-0.50978-11.756-1.275-6.2721-1.0181-12.228-2.0234-12.228-2.0234zm-23.638 1.1282c-4.2446 0.45782-8.7752 0.69854-13.831 0.73125-2.4439 0.0218-4.8924 0.0037-7.3406-0.01718v0.0016l-7.3469-0.07813c-9.3744-0.13311-18.738-0.30408-28.29-0.48285v2.2047c9.1176-0.05878 18.776-0.1292 28.298-0.23594l7.35-0.10938c2.4766-0.0436 4.9036-0.08956 7.3562-0.17031 5.0513-0.16133 9.5776-0.51627 13.805-1.0766zm-56.809 3.1718v2.2047h56.809v-0.76406zm80.464 0.41562v1.7813l35.039 0.02187v-0.54687s-19.985-0.78896-22.83-0.85c-2.845-0.06104-12.21-0.40625-12.21-0.40625z" fill="#bdbcbc"/>
  <path d="m65.841 94.816h49.763v-22.13h-49.763z" fill="#fff"/>
  <path d="m115.61 40.389h-49.772v33.294h49.772z" fill="#254aa5"/>
  <path d="m90.755 43.441-0.52344 1.6828h-1.7266l1.4078 1.0875-0.55 1.725 1.3922-1.061 1.3906 1.061-0.54375-1.725 1.3953-1.0875h-1.7313zm5.5547 1.5469-0.52344 1.6172h-1.7282l1.411 1.0469-0.54844 1.6594 1.389-1.0234 1.3906 1.0234-0.54218-1.6594 1.3969-1.0469h-1.7344zm-11.154 0.01406-0.52344 1.6172h-1.7266l1.4078 1.0484-0.54844 1.6594 1.3906-1.025 1.3906 1.025-0.54218-1.6594 1.3953-1.0484h-1.7313zm15.231 4.061-0.52344 1.6203h-1.7266l1.4094 1.0438-0.54687 1.661 1.3875-1.0218 1.3906 1.0218-0.54375-1.661 1.3953-1.0438h-1.7313zm-19.194 0.01562-0.52344 1.6172h-1.7297l1.4094 1.0469-0.54531 1.661 1.389-1.0234 1.389 1.0234-0.54062-1.661 1.3969-1.0469h-1.7359zm20.723 5.4781-0.525 1.6172h-1.7282l1.411 1.0469-0.54687 1.661 1.389-1.025 1.3906 1.025-0.54218-1.661 1.3969-1.0469h-1.7359zm-22.195 0.01406-0.52344 1.6172h-1.7266l1.4062 1.0469-0.54687 1.661 1.3906-1.0218 1.389 1.0218-0.54062-1.661 1.3953-1.0469h-1.7344zm20.666 5.6453-0.52344 1.6203h-1.7266l1.4094 1.0484-0.54687 1.661 1.3875-1.025 1.3906 1.025-0.54375-1.661 1.3953-1.0484h-1.7313zm-19.194 0.01718-0.52344 1.6156h-1.7297l1.4094 1.0484-0.54531 1.6625 1.389-1.025 1.389 1.025-0.54062-1.6625 1.3969-1.0484h-1.7359zm15.117 4.0047-0.52344 1.6203h-1.7282l1.411 1.0453-0.54844 1.6594 1.389-1.025 1.3906 1.025-0.54218-1.6594 1.3969-1.0453h-1.7344zm-11.097 0.01406-0.52344 1.6187h-1.7266l1.4078 1.0469-0.54844 1.6594 1.3906-1.0218 1.3859 1.0218-0.5375-1.6594 1.3953-1.0469h-1.7313zm5.6047 1.4578-0.52344 1.6187h-1.7282l1.4094 1.0484-0.54687 1.6562 1.389-1.0203 1.3906 1.0203-0.54219-1.6562 1.3969-1.0484h-1.7344z" fill="#fff200"/>
  <path d="m65.841 97h49.776v-2.8407h-49.776z" fill="#254aa5"/>
  <path d="m68.907 76.81c-0.10901 0-0.15625 0.0537-0.15625 0.15625v4.9141c0 0.09366 0.04725 0.14219 0.15625 0.14219h2.9282c0.11127 0 0.15156-0.03963 0.15156-0.14219v-0.47813c0-0.10255-0.04853-0.15-0.14219-0.15h-2.1984v-1.5453h1.9c0.11773 1e-6 0.15625-0.04835 0.15625-0.14218v-0.48594c0-0.09366-0.05387-0.14218-0.15625-0.14218h-1.9v-1.3484h2.1438c0.11773 0 0.15625-0.04835 0.15625-0.14218v-0.48906c0-0.09383-0.05617-0.14687-0.15-0.14687zm11.694 1.2859c-1.5153 0-1.6782 1.2016-1.6782 1.9406 0 0.89384 0.1019 2.05 1.6782 2.05 1.6264 0 1.7359-1.1562 1.7359-2.05 0-0.92656-0.21204-1.9406-1.7359-1.9406zm7.7172 0.0016c-1.5326 0-1.6734 1.2563-1.6734 2.0172 0 1.0225 0.21883 1.9797 1.7187 1.9797 0.38588-1e-6 0.95824-0.07915 1.2656-0.19687 0.14162-0.06322 0.15688-0.12602 0.13282-0.24375l-0.04687-0.25938c-0.02398-0.14877-0.0707-0.14851-0.2125-0.13282-0.29867 0.03053-0.7369 0.08594-1.0203 0.08594-0.64313 0-0.92752-0.21894-0.9516-1.0125h2.0829c0.31394 0 0.3931-0.19627 0.38438-0.47969-0.02398-0.84592-0.2757-1.7578-1.6797-1.7578zm3.7984 0c-0.37062 0-0.99024 0.05414-1.3282 0.17187-0.17223 0.06976-0.19538 0.13338-0.17969 0.23594l0.07187 0.29062c0.0218 0.10935 0.06022 0.11782 0.21718 0.09375 0.31394-0.03052 0.80928-0.07031 1.0687-0.07031 0.64314 0 0.8172 0.16503 0.8172 0.63594v0.20313h-1.0047c-0.98976 0-1.4853 0.3925-1.4766 1.3125 0 0.65839 0.2422 1.1141 1.075 1.1141 0.52541 0 1.0529-0.2107 1.4453-0.50937l0.01562 0.0078c0.07849 0.36844 0.30438 0.47813 0.675 0.47813 0.11773 0 0.2423-0.015 0.36875-0.03906 0.13307-0.0239 0.1875-0.07895 0.1875-0.16406v-0.33125c0-0.08511-0.03071-0.10846-0.14844-0.11718-0.24418-0.03052-0.28282-0.04046-0.28282-0.36094v-1.5141c0-0.8808-0.16366-1.4375-1.5218-1.4375zm4.3703 0.0078c-0.47962 0-1.0288 0.26756-1.3187 0.47031-0.0066 0-0.01472-0.0062-0.02344-0.0062v-0.2375c0-0.10046-0.03943-0.15469-0.14844-0.15469h-0.55781c-0.10901 0-0.14844 0.0544-0.14844 0.15469v3.5422c0 0.10029 0.03943 0.14844 0.14844 0.14844h0.55781c0.10901 0 0.14844-0.05461 0.14844-0.14844v-2.6218c0.21365-0.10246 0.76262-0.35313 1.0766-0.35313 0.45564 0 0.56406 0.30438 0.56406 0.76875l-0.0078 2.2062c0 0.10029 0.04745 0.14844 0.15 0.14844h0.56406c0.11772 0 0.15156-0.05461 0.15156-0.14844v-2.2782c0-0.79138-0.09672-1.4906-1.1562-1.4906zm-11.598 0.0078c-0.45564 0-0.95936 0.27566-1.2406 0.47187l-0.02344-0.01562v-0.23594c0-0.09593-0.03091-0.15782-0.14219-0.15782h-0.55781c-0.10901 0-0.14844 0.05543-0.14844 0.15782v4.9765c0 0.10255 0.02426 0.15781 0.14844 0.15781h0.55781c0.12645 0 0.14844-0.07287 0.14844-0.15781v-1.3812l0.0078-0.0094c0.3619 0.12645 0.72181 0.175 0.98128 0.175 1.2405 0 1.5641-0.73902 1.5641-2.0187-1e-6 -1.186-0.26848-1.9625-1.2953-1.9625zm-6.4047 0.02344c-0.36844 0.06976-0.92704 0.33824-1.1625 0.55625l-0.01562-0.01562v-0.34375c0-0.09383-0.03853-0.15782-0.15625-0.15782h-0.55937c-0.10901 0-0.14844 0.05526-0.14844 0.15782v3.539c0 0.10238 0.03943 0.14844 0.14844 0.14844h0.56718c0.1083 0 0.14793-0.05417 0.14844-0.14687v-2.5298c0.2747-0.11773 0.83368-0.27426 1.2718-0.35938 0.16604-0.0327 0.15696-0.07779 0.15-0.18906l-0.05469-0.52656c-0.01753-0.1329-0.08651-0.15688-0.18906-0.13282zm-5.9109 0.04062c-0.10901 0-0.14844 0.06103-0.14844 0.15469v2.3078c0 0.82408 0.10141 1.4531 1.161 1.4531 0.47744 0 1.0129-0.25822 1.3203-0.47187l0.01562 0.0094v0.24375c0 0.09383 0.02915 0.14844 0.14687 0.14844h0.55941c0.10748-5.88e-4 0.14687-0.04877 0.14687-0.14844v-3.5422c0-0.10046-0.03943-0.15469-0.14844-0.15469h-0.55781c-0.11773 0-0.14844 0.06103-0.14844 0.15469v2.6218c-0.20493 0.10246-0.72145 0.35313-1.0594 0.35313-0.47971 0-0.57344-0.29566-0.57344-0.76875v-2.2062c0-0.10046-0.03807-0.15469-0.14062-0.15469zm15.746 0.62656c0.64967 0 0.77656 0.46256 0.77656 0.94216h-1.5547c0.03924-0.58863 0.19603-0.94216 0.77813-0.94216zm-7.7078 0.04687c0.71499 0 0.8484 0.40782 0.8484 1.2406-1e-6 0.83936-0.14274 1.2406-0.85784 1.2406-0.65848 1e-6 -0.80784-0.40782-0.80784-1.2406 0-0.81536 0.15007-1.2406 0.8172-1.2406zm4.0734 0.04687c0.4164 0 0.61249 0.17338 0.61249 1.1718 1e-6 0.9876-0.19629 1.2766-0.76093 1.2766-0.26815 0-0.55151-0.03026-0.90472-0.13282v-1.9626c0.23546-0.12645 0.73047-0.35313 1.0531-0.35313zm7.1344 1.3734h0.95624v0.74531c-0.29867 0.17222-0.77614 0.37187-1.1141 0.37187-0.37062 0-0.4875-0.11179-0.4875-0.45625 0-0.51878 0.2529-0.66093 0.64531-0.66093zm-2.6141 4.7203c-0.37707 0-0.4625 0.19773-0.4625 0.44844 0 0.22673 0.05482 0.45625 0.4625 0.45625 0.3925 0 0.46406-0.21426 0.46406-0.45625 0-0.26815-0.07818-0.44844-0.46406-0.44844zm8.2016 0c-0.37707 0-0.4625 0.19773-0.4625 0.44844 0 0.22673 0.05482 0.45625 0.4625 0.45625 0.3925 0 0.46406-0.21426 0.46406-0.45625 0-0.26815-0.07818-0.44844-0.46406-0.44844zm-26.606 0.04687c-1.7898 0-2.1187 1.367-2.1187 2.7078 0 1.3364 0.36812 2.6313 2.1187 2.6313 0.3837 0 1.0678-0.07095 1.4516-0.23438 0.12611-0.0545 0.16699-0.12721 0.13438-0.25156l-0.06094-0.29844c-0.0327-0.10238-0.06354-0.14226-0.21406-0.12656-0.42294 0.05459-0.80904 0.10313-1.2625 0.10313-1.029-1e-6 -1.225-0.80848-1.225-1.8375 0-1.0203 0.15674-1.8844 1.225-1.8844 0.40768 0 0.8788 0.05517 1.2625 0.10313 0.14179 0.01534 0.18062-0.02492 0.20469-0.11875l0.07031-0.32187c0.0239-0.12418-0.02199-0.18707-0.14844-0.24375-0.4164-0.17231-1.0538-0.22813-1.4375-0.22813zm3.3594 1.3422c-1.5153 0-1.6797 1.2016-1.6797 1.9406 0 0.89384 0.10347 2.05 1.6797 2.05 1.6264 0 1.7344-1.1562 1.7344-2.05 0-0.92656-0.21048-1.9406-1.7344-1.9406zm25.922 0c-1.5153 0-1.6782 1.2016-1.6782 1.9406 0 0.89384 0.1019 2.05 1.6782 2.05 1.6264 0 1.7359-1.1562 1.7359-2.05 0-0.92656-0.21204-1.9406-1.7359-1.9406zm-8.4128 0.0016c-0.8808 0-1.475 0.40826-1.475 1.1844 0 0.8568 0.67261 1.02 1.4422 1.1313 0.49489 0.06976 0.63125 0.14904 0.63125 0.51093 0 0.31385-0.20577 0.44687-0.70938 0.44687-0.26598 0-0.76961-0.03934-1.1141-0.09375-0.12644-0.01518-0.18062-0.0093-0.20469 0.11718l-0.05469 0.25938c-0.02398 0.12426 0.0087 0.19624 0.16562 0.25938 0.29867 0.11773 0.8248 0.17187 1.2172 0.17187 0.8088 0 1.5844-0.2978 1.5844-1.2156 0-0.93528-0.67315-1.0842-1.4187-1.1953-0.47962-0.07849-0.66718-0.11666-0.66718-0.42187 0-0.29876 0.11733-0.44062 0.61875-0.44062 0.28995 0 0.73083 0.0467 1.0687 0.08594 0.14171 0.01518 0.18686 3.36e-4 0.21094-0.11094l0.06406-0.28125c0.02398-0.11773-0.03255-0.17996-0.16562-0.23438-0.3292-0.12627-0.87328-0.17344-1.1938-0.17344zm3.289 0c-0.8808 0-1.4766 0.40826-1.4766 1.1844 0 0.8568 0.67417 1.02 1.4438 1.1313 0.49489 0.06976 0.62969 0.14904 0.62969 0.51093 0 0.31385-0.20421 0.44687-0.70781 0.44687-0.26598 0-0.76961-0.03934-1.1141-0.09375-0.12644-0.01518-0.18062-0.0093-0.20469 0.11718l-0.05469 0.25938c-0.02398 0.12426 0.0087 0.19624 0.16562 0.25938 0.29867 0.11773 0.8248 0.17187 1.2172 0.17187 0.8088 0 1.5844-0.2978 1.5844-1.2156 0-0.93528-0.67315-1.0842-1.4187-1.1953-0.47962-0.07849-0.66718-0.11666-0.66718-0.42187 0-0.29876 0.11733-0.44062 0.61875-0.44062 0.28995 0 0.73083 0.0467 1.0687 0.08594 0.14171 0.01518 0.18704 3.36e-4 0.21094-0.11094l0.0625-0.28125c0.02398-0.11773-0.03255-0.17996-0.16562-0.23438-0.3292-0.12627-0.87168-0.17344-1.1922-0.17344zm-16.583 0.0078c-0.43384 0.01526-0.86512 0.25042-1.1703 0.46406l-0.0094-0.0094v-0.22813c0-0.09383-0.03853-0.15469-0.15625-0.15469h-0.55625c-0.10255 0-0.14218 0.0544-0.14218 0.15469v3.5422c0 0.10029 0.03963 0.14844 0.14218 0.14844h0.56562c0.10901 1e-6 0.14687-0.05461 0.14687-0.14844v-2.6218c0.29867-0.15697 0.73937-0.35313 1.0141-0.35313 0.39242 0 0.51875 0.22662 0.51875 0.70625v2.2687c0 0.10029 0.03043 0.14844 0.13282 0.14844h0.57344c0.11773 1e-6 0.14844-0.05461 0.14844-0.14844v-2.2234c0-0.17877-0.0062-0.31995-0.0062-0.39844 0.24199-0.12645 0.71317-0.35313 1.0031-0.35313 0.3946 0 0.53438 0.16322 0.53438 0.74531v2.2297c0 0.10029 0.0389 0.14844 0.15 0.14844h0.56406c0.109 1e-6 0.14218-0.05461 0.14218-0.14844v-2.3094c0-0.78484-0.10195-1.4594-1.1375-1.4594-0.50361 0-0.9904 0.25848-1.3828 0.54844-0.24418-0.45555-0.62154-0.54844-1.075-0.54844zm6.1531 0c-0.43384 0.01526-0.86512 0.25042-1.1703 0.46406l-0.0094-0.0094v-0.22813c0-0.09383-0.03853-0.15469-0.15625-0.15469h-0.55625c-0.10255 0-0.14219 0.0544-0.14219 0.15469v3.5422c0 0.10029 0.03963 0.14844 0.14219 0.14844h0.56562c0.10901 1e-6 0.14687-0.05461 0.14687-0.14844v-2.6218c0.29867-0.15697 0.73937-0.35313 1.0141-0.35313 0.39242 0 0.51875 0.22662 0.51875 0.70625v2.2687c0 0.10029 0.03043 0.14844 0.13282 0.14844h0.57344c0.11773 1e-6 0.14844-0.05461 0.14844-0.14844v-2.2234c0-0.17877-0.0062-0.31995-0.0062-0.39844 0.24199-0.12645 0.71317-0.35313 1.0031-0.35313 0.3946 0 0.53437 0.16322 0.53437 0.74531v2.2297c0 0.10029 0.0389 0.14844 0.15 0.14844h0.56406c0.109 1e-6 0.14219-0.05461 0.14219-0.14844v-2.3094c0-0.78484-0.10194-1.4594-1.1375-1.4594-0.50361 0-0.9904 0.25848-1.3828 0.54844-0.24418-0.45555-0.62153-0.54844-1.075-0.54844zm19.911 0c-0.47744 0-1.0288 0.26756-1.3187 0.47031-8e-3 0-0.0163-0.0062-0.025-0.0062v-0.2375c0-0.10046-0.0394-0.15469-0.14844-0.15469h-0.5578c-0.10901 0-0.14844 0.0544-0.14844 0.15469v3.5422c0 0.10029 0.0394 0.14844 0.14844 0.14844h0.5578c0.10901 1e-6 0.14844-0.05461 0.14844-0.14844v-2.6218c0.21365-0.10246 0.76419-0.35313 1.0782-0.35313 0.45564 0 0.56406 0.30438 0.56406 0.76875l-9e-3 2.2062c0 0.10029 0.049 0.14844 0.15156 0.14844h0.56406c0.11789 0 0.15-0.05461 0.15-0.14844v-2.2782c0-0.79137-0.0952-1.4906-1.1547-1.4906zm-15.518 0.07031c-0.10901 0-0.15625 0.03943-0.15625 0.14844v3.55c0 0.10238 0.04725 0.14687 0.15625 0.14687h0.55782c0.11127 0 0.14218-0.06176 0.14218-0.14687v-3.55c0-0.08511-0.03091-0.14844-0.14218-0.14844zm8.2016 0c-0.10901 0-0.15625 0.03943-0.15625 0.14844v3.55c0 0.10238 0.04725 0.14687 0.15625 0.14687h0.55937c0.11127 0 0.14062-0.06176 0.14062-0.14687v-3.55c1e-6 -0.08511-0.02935-0.14844-0.14062-0.14844zm-22.954 0.675c0.71499 0 0.8484 0.40782 0.8484 1.2406 0 0.83936-0.14118 1.2406-0.85624 1.2406-0.6583 0-0.80936-0.40782-0.80936-1.2406 0-0.81536 0.15007-1.2406 0.8172-1.2406zm25.923 0c0.71499 0 0.8484 0.40782 0.8484 1.2406 0 0.83936-0.14274 1.2406-0.85784 1.2406-0.65839 0-0.80624-0.40782-0.80624-1.2406 0-0.81536 0.14851-1.2406 0.8156-1.2406z" fill="#5a5758"/>
 </g>
</svg>
