<?xml version="1.0" encoding="UTF-8" standalone="no"?>
<svg
   xmlns:dc="http://purl.org/dc/elements/1.1/"
   xmlns:cc="http://creativecommons.org/ns#"
   xmlns:rdf="http://www.w3.org/1999/02/22-rdf-syntax-ns#"
   xmlns:svg="http://www.w3.org/2000/svg"
   xmlns="http://www.w3.org/2000/svg"
   width="200"
   height="114"
   viewBox="0 0 150.00014 85.49987"
   xml:space="preserve"
   class="st3"
   version="1.1"
   id="svg244"
   style="font-size:12px;overflow:visible;color-interpolation-filters:sRGB;fill:none;fill-rule:evenodd;stroke-linecap:square;stroke-miterlimit:3"><metadata
   id="metadata250"><rdf:RDF><cc:Work
       rdf:about=""><dc:format>image/svg+xml</dc:format><dc:type
         rdf:resource="http://purl.org/dc/dcmitype/StillImage" /><dc:title></dc:title></cc:Work></rdf:RDF></metadata><defs
   id="defs248">
		
		
		
		
	
			
			
			
			
			
			
			
			
			
			
			
			
			
			
			
			
			
			
			
			
			
			
			
			
			
			
			
			
			
			
			
			
			
			
			
			
			
			
			
			
			
			
			
			
		
			
			
		
			
			
			
		
				
				
			
				
				
			
				
				
			
				
				
			
				
				
			
				
				
			
				
				
			
				
				
			
				
				
			
				
				
			
				
				
			
				
				
			
				
				
			
				
				
			
				
				
			
				
				
			
				
				
			
				
				
			
				
				
			
				
				
			
				
				
			
				
				
			
				
				
			
				
				
			
				
				
			
				
				
			
				
				
			
				
				
			
				
				
			
				
				
			
				
				
			
				
				
			
				
				
			
				
				
			
				
				
			
				
				
			
				
				
			
				
				
			
				
				
			
				
				
			
				
				
			
				
				
			
				
				
			
				
				
			
				
				
			</defs>
	<style
   type="text/css"
   id="style2">
	<![CDATA[
		.st1 {fill:#022899;stroke:none;stroke-linecap:butt;stroke-width:0.75}
		.st2 {stroke:#022899;stroke-linecap:butt;stroke-width:0.75}
		.st3 {fill:none;fill-rule:evenodd;font-size:12px;overflow:visible;stroke-linecap:square;stroke-miterlimit:3}
	]]>
	</style>

	<g
   id="g1426"
   transform="matrix(1.1027278,0,0,1.1027278,7.5000042,18.423759)"><path
     d="m 38.9647,18.9657 c 0.32,0.49 0.3,1.14 0.36,1.72 -0.02,1.23 0.09,2.69 -0.13,3.94 -0.11,0.51 -0.45,1.05 -0.99,1.25 -0.86,0.38 -2.02,0.28 -2.82,-0.18 -0.67,-0.47 -0.75,-1.27 -0.84,-2.02 -0.06,-1.48 -0.17,-3.06 0.24,-4.41 0.32,-0.84 1.2,-1.06 2,-1.12 0.84,0 1.66,0.13 2.18,0.82 z"
     class="st1"
     id="path10"
     style="fill:#022899;stroke:none;stroke-width:0.75;stroke-linecap:butt" /><path
     d="m 27.66,37.8 c 0.06,0.13 -0.11,0.08 -0.15,0.13 -2.28,0.49 -4.82,0.51 -7.11,-0.05 -0.04,-0.1 0.11,-0.13 0.18,-0.19 2,-1.31 5.12,-1.31 7.08,0.11 z m -7.71,-0.5 c -0.1,0.13 -0.28,0.26 -0.43,0.35 -1.81,-0.48 -3.49,-1.3 -5.03,-2.42 v -0.06 c 0.51,-0.32 1.03,-0.67 1.59,-0.9 1.22,1.22 2.5,2.15 3.87,3.03 z M 33.6,35.17 c -1.21,0.97 -2.6,1.62 -4.02,2.15 l -1.02,0.33 C 28.39,37.56 28.24,37.43 28.09,37.3 l 0.04,-0.06 c 1.38,-0.82 2.63,-1.81 3.81,-2.99 0.58,0.23 1.14,0.56 1.66,0.92 z m -2.3,-1.22 c -0.69,0.79 -1.57,1.48 -2.39,2.06 -0.5,0.3 -0.99,0.63 -1.51,0.88 l -0.93,-0.4 0.07,-0.16 C 27.31,35.28 28,34.2 28.61,33.06 l 0.06,-0.04 c 0.93,0.21 1.81,0.52 2.63,0.93 z M 19.46,33.04 c 0.62,1.18 1.4,2.3 2.17,3.42 -0.3,0.18 -0.67,0.28 -0.97,0.46 -1.42,-0.72 -2.77,-1.71 -3.91,-2.89 v -0.06 c 0.84,-0.41 1.72,-0.71 2.62,-0.95 z m 8.5,-0.19 0.02,0.06 c -0.6,1.16 -1.35,2.28 -2.17,3.34 -0.37,0.04 -0.71,-0.11 -1.08,-0.13 l -0.36,-0.05 c -0.05,-1.26 -0.07,-2.38 0,-3.65 1.22,0.02 2.45,0.15 3.59,0.43 z m -4.24,3.2 c -0.45,0.11 -0.95,0.11 -1.38,0.22 -0.88,-1.06 -1.61,-2.2 -2.24,-3.38 l 0.11,-0.09 c 1.12,-0.21 2.28,-0.38 3.49,-0.38 z M 19.2,31.1 c -0.22,0 -0.45,-0.04 -0.6,0.02 l 0.54,1.27 -0.07,0.07 c -0.97,0.28 -1.91,0.62 -2.84,1.01 l -0.09,-0.04 c -0.6,-0.67 -1.18,-1.4 -1.65,-2.13 -0.11,-0.37 -0.54,-0.15 -0.78,-0.2 0.52,0.95 1.21,1.79 1.9,2.65 -0.59,0.34 -1.17,0.73 -1.77,1.01 -1.29,-0.99 -2.5,-2.28 -3.4,-3.64 -0.26,-0.04 -0.43,-0.02 -0.69,0 1.55,2.46 3.96,4.61 6.48,5.88 l 0.02,-0.02 0.02,0.06 c 1.7,0.84 3.51,1.45 5.42,1.7 6.61,0.89 12.92,-1.98 16.58,-7.62 -0.19,-0.02 -0.47,-0.02 -0.69,0 -0.9,1.32 -2.04,2.59 -3.29,3.58 l -0.22,-0.02 c -0.54,-0.35 -1.12,-0.63 -1.63,-0.97 0.69,-0.84 1.35,-1.68 1.87,-2.61 h -0.67 c -0.54,0.8 -1.1,1.64 -1.81,2.35 -0.94,-0.39 -1.8,-0.73 -2.77,-0.99 l -0.11,-0.09 c 0.15,-0.43 0.43,-0.84 0.52,-1.27 h -0.58 l -0.59,1.17 c -1.26,-0.28 -2.66,-0.43 -3.96,-0.52 -0.06,-0.19 0.03,-0.47 -0.06,-0.64 h -0.56 c -0.04,0.25 0.06,0.45 -0.06,0.66 -1.34,0.07 -2.63,0.22 -3.88,0.48 z M 5.55,14.57 4.22,14.59 c -0.02,1.15 -0.02,2.48 0,3.64 0.73,0.02 1.42,0 2.13,0.07 v 7.31 L 6.33,25.92 4.2,25.96 c -0.05,1.2 -0.05,2.37 0,3.55 h 9.49 v -3.55 c -0.71,-0.04 -1.51,0.02 -2.2,-0.07 l 0.03,-7.55 0.04,-0.06 2.13,-0.03 c 0.02,-1.22 0.04,-2.54 -0.02,-3.66 z m 36.57,1.29 c -2.79,-1.81 -7.06,-1.93 -9.94,-0.3 -1.57,0.82 -2.6,2.44 -2.93,4.09 -0.58,2.74 -0.43,5.99 1.64,8.03 2.41,2.15 5.92,2.63 9.04,1.74 0.15,-0.03 0.62,-0.15 0.94,-0.32 l 0.09,-0.04 c 0.97,-0.41 1.9,-1.08 2.58,-1.98 1.6,-2.37 1.71,-5.92 0.74,-8.59 -0.39,-1.03 -1.19,-1.96 -2.16,-2.63 z M 23.87,15.17 c -2.37,-1.01 -5.68,-1.12 -7.84,0.46 -1.39,1.03 -1.82,2.88 -1.46,4.52 0.28,1.55 1.75,2.69 3.14,3.23 1.92,0.68 3.92,1.18 5.86,1.85 0.19,0.08 0.45,0.28 0.41,0.51 0,0.2 -0.2,0.31 -0.35,0.39 -2.02,0.56 -4.21,0.13 -5.68,-1.42 -0.17,-0.21 -0.28,-0.47 -0.45,-0.69 l -2.91,0.02 c -0.04,1.75 -0.06,3.75 0,5.47 l 3.23,-0.02 0.05,-1.03 c 0.36,0.17 0.73,0.39 1.09,0.58 2.24,0.95 5.13,1.16 7.34,0 1.62,-0.91 2.48,-2.65 2.24,-4.52 -0.24,-1.83 -1.96,-3.49 -3.7,-3.94 l -5.21,-1.53 -0.39,-0.19 c -0.17,-0.15 -0.28,-0.35 -0.23,-0.58 0.41,-0.71 1.35,-0.5 2.06,-0.48 1.51,0.22 3.06,0.73 3.94,2.13 0.95,0 2.05,0.02 3.08,-0.02 0.04,-1.76 -0.02,-3.31 -0.04,-5.1 -0.97,-0.02 -2.16,-0.02 -3.12,0.02 -0.05,0.26 0.04,0.63 -0.07,0.88 z m 1.74,-7.31 c 0.84,1.07 1.66,2.17 2.22,3.35 -1.16,0.28 -2.34,0.44 -3.55,0.44 -0.04,-1.15 -0.02,-2.42 0,-3.6 0.43,-0.06 0.9,-0.13 1.33,-0.19 z m -2.02,0.17 c 0.07,1.12 0.02,2.41 0.02,3.59 -0.6,0.09 -1.14,-0.02 -1.74,-0.06 -0.58,-0.09 -1.31,-0.15 -1.89,-0.35 0.62,-1.18 1.35,-2.32 2.23,-3.37 z M 21.5,7.62 21.44,7.79 c -0.82,1.03 -1.46,2.15 -2.11,3.25 l -0.09,0.02 C 18.36,10.83 17.5,10.55 16.68,10.18 l 0.04,-0.13 c 1.19,-1.14 2.44,-2.09 3.81,-2.82 0.33,0.13 0.65,0.24 0.97,0.39 z m 9.69,2.45 -0.04,0.07 c -0.84,0.36 -1.7,0.71 -2.63,0.9 -0.67,-1.14 -1.4,-2.28 -2.22,-3.38 0.3,-0.17 0.67,-0.3 0.99,-0.47 1.4,0.71 2.76,1.72 3.9,2.88 z M 19.89,6.82 C 18.55,7.66 17.24,8.65 16.03,9.86 15.46,9.64 14.92,9.32 14.4,8.95 V 8.91 C 15.76,7.9 17.26,7.15 18.85,6.63 l 0.2,-0.13 v 0.04 c 0.17,0.05 0.3,-0.15 0.45,-0.02 0.13,0.11 0.28,0.2 0.39,0.3 z M 33.45,8.87 33.41,8.95 31.92,9.79 H 31.81 C 30.67,8.63 29.34,7.62 27.98,6.82 28.03,6.67 28.24,6.57 28.39,6.46 30.2,6.93 31.9,7.75 33.45,8.87 Z M 27.53,6.24 V 6.28 C 25.66,7.66 22.62,7.79 20.64,6.52 20.53,6.44 20.32,6.39 20.3,6.24 c 2.28,-0.54 4.97,-0.58 7.23,0 z M 25.31,5.27 C 24.73,5.21 24.02,5.19 23.4,5.25 c -0.24,-0.02 -0.52,0 -0.8,0.02 -5.17,0.41 -9.92,3.1 -12.89,7.69 0.21,-0.02 0.47,0.06 0.69,-0.02 0.51,-0.74 1.09,-1.45 1.74,-2.13 0.56,-0.54 1.08,-1.06 1.68,-1.45 0.56,0.37 1.18,0.67 1.72,1.02 -0.67,0.83 -1.36,1.67 -1.85,2.58 0.15,0.06 0.43,0.04 0.65,0 0.53,-0.8 1.11,-1.6 1.8,-2.3 0.93,0.34 1.83,0.7 2.78,0.96 l 0.09,0.09 -0.54,1.25 c 0.23,0.04 0.39,0.02 0.62,0 0.2,-0.37 0.35,-0.78 0.56,-1.14 1.25,0.28 2.56,0.43 3.9,0.47 0.17,0.15 0.04,0.47 0.11,0.67 h 0.58 c 0.06,-0.22 -0.02,-0.45 0.06,-0.65 1.25,-0.06 2.56,-0.19 3.77,-0.49 l 0.11,0.02 0.58,1.12 c 0.19,0 0.45,0.04 0.6,-0.04 l -0.54,-1.25 0.04,-0.05 c 0.99,-0.26 1.92,-0.64 2.87,-1.03 0.66,0.71 1.29,1.55 1.85,2.37 0.23,0 0.47,0.02 0.64,-0.04 -0.25,-0.48 -0.58,-0.95 -0.92,-1.36 -0.28,-0.41 -0.58,-0.78 -0.95,-1.16 v -0.11 l 1.51,-0.88 0.21,-0.09 c 1.32,1.01 2.48,2.24 3.4,3.6 0.26,0 0.48,0.08 0.69,-0.03 C 35.28,8.5 30.52,5.68 25.38,5.27 L 25.36,5.32 Z M 48,44.12 H 0 V 0 h 48 z"
     class="st1"
     id="path15"
     style="fill:#022899;stroke:none;stroke-width:0.75;stroke-linecap:butt" /><path
     style="stroke:#022899;stroke-width:0.75;stroke-linecap:butt"
     id="path21"
     class="st2"
     d="m 53.8585,5.37525 v 36" /><path
     d="m 59.091,8.0952 h 0.85 v 6.42 h -0.85 z"
     class="st1"
     id="path28"
     style="fill:#022899;stroke:none;stroke-width:0.75;stroke-linecap:butt" /><path
     d="m 61.25925,9.866 h 0.72 v 0.74 h 0.02 c 0.32,-0.57 0.84,-0.84 1.51,-0.84 1.22,0 1.6,0.7 1.6,1.7 v 3.05 h -0.76 v -3.14 c 0,-0.57 -0.36,-0.94 -0.95,-0.94 -0.93,0 -1.38,0.62 -1.38,1.46 v 2.62 h -0.76 z"
     class="st1"
     id="path33"
     style="fill:#022899;stroke:none;stroke-width:0.75;stroke-linecap:butt" /><path
     d="m 67.32975,9.866 h 0.92 v 0.68 h -0.92 v 2.89 c 0,0.35 0.1,0.41 0.57,0.41 h 0.35 v 0.67 h -0.58 c -0.79,0 -1.11,-0.16 -1.11,-1.01 v -2.96 h -0.79 v -0.68 h 0.79 v -1.39 h 0.77 z"
     class="st1"
     id="path38"
     style="fill:#022899;stroke:none;stroke-width:0.75;stroke-linecap:butt" /><path
     d="m 73.067,13.0433 c -0.21,1.03 -0.95,1.58 -1.99,1.58 -1.48,0 -2.19,-1.02 -2.23,-2.44 0,-1.4 0.92,-2.42 2.19,-2.42 1.64,0 2.15,1.54 2.1,2.66 h -3.48 c -0.03,0.81 0.43,1.53 1.45,1.53 0.63,0 1.07,-0.31 1.2,-0.91 z m -0.74,-1.29 c -0.03,-0.73 -0.58,-1.32 -1.34,-1.32 -0.8,0 -1.28,0.61 -1.33,1.32 z"
     class="st1"
     id="path43"
     style="fill:#022899;stroke:none;stroke-width:0.75;stroke-linecap:butt" /><path
     d="m 73.9035,9.8667 h 0.72 v 0.98 h 0.02 c 0.37,-0.74 0.88,-1.11 1.71,-1.08 v 0.81 c -1.23,0 -1.68,0.7 -1.68,1.88 v 2.06 h -0.77 z"
     class="st1"
     id="path48"
     style="fill:#022899;stroke:none;stroke-width:0.75;stroke-linecap:butt" /><path
     d="m 77.0895,9.866 h 0.72 v 0.74 h 0.02 c 0.32,-0.57 0.84,-0.84 1.51,-0.84 1.22,0 1.6,0.7 1.6,1.7 v 3.05 h -0.76 v -3.14 c 0,-0.57 -0.36,-0.94 -0.95,-0.94 -0.93,0 -1.38,0.62 -1.38,1.46 v 2.62 h -0.76 z"
     class="st1"
     id="path53"
     style="fill:#022899;stroke:none;stroke-width:0.75;stroke-linecap:butt" /><path
     d="m 86.2122,14.5032 c -0.13,0.08 -0.3,0.12 -0.55,0.12 -0.39,0 -0.64,-0.21 -0.64,-0.71 -0.43,0.49 -0.99,0.71 -1.64,0.71 -0.85,0 -1.54,-0.37 -1.54,-1.3 0,-1.05 0.78,-1.28 1.57,-1.43 0.85,-0.16 1.57,-0.11 1.57,-0.68 0,-0.67 -0.55,-0.78 -1.03,-0.78 -0.65,0 -1.13,0.2 -1.17,0.89 h -0.76 c 0.05,-1.16 0.94,-1.56 1.97,-1.56 0.84,0 1.74,0.19 1.74,1.28 v 2.39 c 0,0.36 0,0.52 0.25,0.52 0.06,0 0.13,-0.01 0.23,-0.04 z m -1.24,-2.38 c -0.3,0.21 -0.87,0.22 -1.38,0.31 -0.51,0.09 -0.94,0.27 -0.94,0.84 0,0.5 0.43,0.68 0.9,0.68 1.01,0 1.42,-0.63 1.42,-1.05 z"
     class="st1"
     id="path58"
     style="fill:#022899;stroke:none;stroke-width:0.75;stroke-linecap:butt" /><path
     d="m 87.993,9.866 h 0.92 v 0.68 h -0.92 v 2.89 c 0,0.35 0.09,0.41 0.57,0.41 h 0.35 v 0.67 h -0.58 c -0.79,0 -1.11,-0.16 -1.11,-1.01 v -2.96 h -0.79 v -0.68 h 0.79 v -1.39 h 0.77 z"
     class="st1"
     id="path63"
     style="fill:#022899;stroke:none;stroke-width:0.75;stroke-linecap:butt" /><path
     d="m 90.5672,9.036 h -0.76 v -0.94 h 0.76 z m -0.76,0.83 h 0.76 v 4.65 h -0.76 z"
     class="st1"
     id="path68"
     style="fill:#022899;stroke:none;stroke-width:0.75;stroke-linecap:butt" /><path
     d="m 93.7683,9.7633 c 1.47,0 2.26,1.07 2.26,2.44 0,1.36 -0.79,2.42 -2.26,2.42 -1.48,0 -2.26,-1.07 -2.26,-2.42 0,-1.37 0.78,-2.44 2.26,-2.44 z m 0,4.19 c 0.8,0 1.45,-0.63 1.45,-1.75 0,-1.14 -0.65,-1.77 -1.45,-1.77 -0.8,0 -1.45,0.63 -1.45,1.77 0,1.12 0.65,1.75 1.45,1.75 z"
     class="st1"
     id="path73"
     style="fill:#022899;stroke:none;stroke-width:0.75;stroke-linecap:butt" /><path
     d="m 96.9255,9.866 h 0.72 v 0.74 h 0.02 c 0.32,-0.57 0.84,-0.84 1.51,-0.84 1.22,0 1.6,0.7 1.6,1.7 v 3.05 h -0.76 v -3.14 c 0,-0.57 -0.36,-0.94 -0.95,-0.94 -0.92,0 -1.38,0.62 -1.38,1.46 v 2.62 h -0.76 z"
     class="st1"
     id="path78"
     style="fill:#022899;stroke:none;stroke-width:0.75;stroke-linecap:butt" /><path
     d="m 106.0483,14.5032 c -0.13,0.08 -0.3,0.12 -0.55,0.12 -0.39,0 -0.64,-0.21 -0.64,-0.71 -0.43,0.49 -0.99,0.71 -1.64,0.71 -0.85,0 -1.54,-0.37 -1.54,-1.3 0,-1.05 0.78,-1.28 1.57,-1.43 0.85,-0.16 1.57,-0.11 1.57,-0.68 0,-0.67 -0.55,-0.78 -1.03,-0.78 -0.65,0 -1.13,0.2 -1.17,0.89 h -0.76 c 0.04,-1.16 0.94,-1.56 1.97,-1.56 0.84,0 1.74,0.19 1.74,1.28 v 2.39 c 0,0.36 0,0.52 0.25,0.52 0.06,0 0.13,-0.01 0.23,-0.04 z m -1.24,-2.38 c -0.3,0.21 -0.87,0.22 -1.38,0.31 -0.51,0.09 -0.94,0.27 -0.94,0.84 0,0.5 0.43,0.68 0.9,0.68 1.01,0 1.42,-0.63 1.42,-1.05 z"
     class="st1"
     id="path83"
     style="fill:#022899;stroke:none;stroke-width:0.75;stroke-linecap:butt" /><path
     d="m 106.8075,8.0952 h 0.76 v 6.42 h -0.76 z"
     class="st1"
     id="path88"
     style="fill:#022899;stroke:none;stroke-width:0.75;stroke-linecap:butt" /><path
     d="m 61.775,19.9483 c 2.04,0 3.07,1.62 3.07,3.36 0,1.75 -1.03,3.36 -3.07,3.36 -2.05,0 -3.08,-1.61 -3.08,-3.36 0,-1.74 1.03,-3.36 3.08,-3.36 z m 0,6.01 c 1.56,0 2.22,-1.35 2.22,-2.65 0,-1.29 -0.66,-2.64 -2.22,-2.64 -1.57,0 -2.22,1.35 -2.22,2.64 0,1.3 0.65,2.65 2.22,2.65 z"
     class="st1"
     id="path93"
     style="fill:#022899;stroke:none;stroke-width:0.75;stroke-linecap:butt" /><path
     d="m 65.74125,21.8668 h 0.72 v 0.98 h 0.02 c 0.37,-0.74 0.88,-1.11 1.71,-1.08 v 0.81 c -1.24,0 -1.68,0.7 -1.68,1.88 v 2.06 h -0.77 z"
     class="st1"
     id="path98"
     style="fill:#022899;stroke:none;stroke-width:0.75;stroke-linecap:butt" /><path
     d="m 72.522,26.1245 c 0,1.51 -0.69,2.28 -2.15,2.28 -0.88,0 -1.88,-0.35 -1.93,-1.36 h 0.76 c 0.04,0.56 0.71,0.75 1.21,0.75 1,0 1.39,-0.72 1.39,-1.76 v -0.31 h -0.01 c -0.25,0.57 -0.87,0.85 -1.45,0.85 -1.39,0 -2.08,-1.09 -2.08,-2.36 0,-1.09 0.54,-2.45 2.15,-2.45 0.58,0 1.11,0.26 1.39,0.77 v 0 -0.66 h 0.72 z m -0.75,-2.02 c 0,-0.82 -0.36,-1.67 -1.32,-1.67 -0.98,0 -1.38,0.8 -1.38,1.69 0,0.84 0.31,1.78 1.31,1.78 1.01,0 1.39,-0.93 1.39,-1.8 z"
     class="st1"
     id="path103"
     style="fill:#022899;stroke:none;stroke-width:0.75;stroke-linecap:butt" /><path
     d="m 77.798,26.5033 c -0.13,0.08 -0.3,0.12 -0.55,0.12 -0.39,0 -0.64,-0.21 -0.64,-0.71 -0.43,0.49 -0.99,0.71 -1.64,0.71 -0.85,0 -1.54,-0.37 -1.54,-1.3 0,-1.05 0.78,-1.28 1.57,-1.43 0.85,-0.16 1.57,-0.11 1.57,-0.68 0,-0.67 -0.55,-0.78 -1.03,-0.78 -0.65,0 -1.13,0.2 -1.17,0.89 h -0.76 c 0.05,-1.16 0.94,-1.56 1.97,-1.56 0.84,0 1.74,0.19 1.74,1.28 v 2.39 c 0,0.36 0,0.52 0.25,0.52 0.06,0 0.13,-0.01 0.23,-0.04 z m -1.24,-2.38 c -0.3,0.21 -0.87,0.22 -1.38,0.31 -0.51,0.09 -0.94,0.27 -0.94,0.84 0,0.5 0.43,0.68 0.9,0.68 1.01,0 1.42,-0.63 1.42,-1.05 z"
     class="st1"
     id="path108"
     style="fill:#022899;stroke:none;stroke-width:0.75;stroke-linecap:butt" /><path
     d="m 78.5122,21.866 h 0.72 v 0.74 h 0.02 c 0.32,-0.57 0.84,-0.84 1.51,-0.84 1.22,0 1.6,0.7 1.6,1.7 v 3.05 h -0.76 v -3.14 c 0,-0.57 -0.36,-0.94 -0.95,-0.94 -0.93,0 -1.38,0.62 -1.38,1.46 v 2.62 h -0.76 z"
     class="st1"
     id="path113"
     style="fill:#022899;stroke:none;stroke-width:0.75;stroke-linecap:butt" /><path
     d="m 84.3212,21.036 h -0.76 v -0.94 h 0.76 z m -0.76,0.83 h 0.76 v 4.65 h -0.76 z"
     class="st1"
     id="path118"
     style="fill:#022899;stroke:none;stroke-width:0.75;stroke-linecap:butt" /><path
     d="m 85.137,25.936 2.81,-3.39 h -2.63 v -0.67 h 3.62 v 0.52 l -2.85,3.45 h 2.97 v 0.67 h -3.92 z"
     class="st1"
     id="path123"
     style="fill:#022899;stroke:none;stroke-width:0.75;stroke-linecap:butt" /><path
     d="m 93.9523,26.5033 c -0.13,0.08 -0.3,0.12 -0.55,0.12 -0.39,0 -0.64,-0.21 -0.64,-0.71 -0.43,0.49 -0.99,0.71 -1.64,0.71 -0.85,0 -1.54,-0.37 -1.54,-1.3 0,-1.05 0.78,-1.28 1.57,-1.43 0.85,-0.16 1.57,-0.11 1.57,-0.68 0,-0.67 -0.55,-0.78 -1.03,-0.78 -0.65,0 -1.13,0.2 -1.17,0.89 h -0.76 c 0.05,-1.16 0.94,-1.56 1.97,-1.56 0.84,0 1.74,0.19 1.74,1.28 v 2.39 c 0,0.36 0,0.52 0.25,0.52 0.06,0 0.13,-0.01 0.23,-0.04 z m -1.24,-2.38 c -0.3,0.21 -0.87,0.22 -1.38,0.31 -0.51,0.09 -0.94,0.27 -0.94,0.84 0,0.5 0.43,0.68 0.9,0.68 1.01,0 1.42,-0.63 1.42,-1.05 z"
     class="st1"
     id="path128"
     style="fill:#022899;stroke:none;stroke-width:0.75;stroke-linecap:butt" /><path
     d="m 95.733,21.866 h 0.92 v 0.68 h -0.92 v 2.89 c 0,0.35 0.09,0.41 0.57,0.41 h 0.35 v 0.67 h -0.58 c -0.79,0 -1.11,-0.16 -1.11,-1.01 v -2.96 h -0.79 v -0.68 h 0.79 v -1.39 h 0.77 z"
     class="st1"
     id="path133"
     style="fill:#022899;stroke:none;stroke-width:0.75;stroke-linecap:butt" /><path
     d="m 98.3065,21.036 h -0.76 v -0.94 h 0.76 z m -0.76,0.83 h 0.77 v 4.65 h -0.77 z"
     class="st1"
     id="path138"
     style="fill:#022899;stroke:none;stroke-width:0.75;stroke-linecap:butt" /><path
     d="m 101.5083,21.7632 c 1.47,0 2.26,1.07 2.26,2.44 0,1.36 -0.79,2.42 -2.26,2.42 -1.48,0 -2.26,-1.07 -2.26,-2.42 0,-1.37 0.78,-2.44 2.26,-2.44 z m 0,4.19 c 0.8,0 1.45,-0.63 1.45,-1.75 0,-1.14 -0.65,-1.77 -1.45,-1.77 -0.8,0 -1.45,0.63 -1.45,1.77 0,1.12 0.65,1.75 1.45,1.75 z"
     class="st1"
     id="path143"
     style="fill:#022899;stroke:none;stroke-width:0.75;stroke-linecap:butt" /><path
     d="m 104.6655,21.866 h 0.72 v 0.74 h 0.02 c 0.32,-0.57 0.84,-0.84 1.51,-0.84 1.22,0 1.6,0.7 1.6,1.7 v 3.05 h -0.76 v -3.14 c 0,-0.57 -0.36,-0.94 -0.95,-0.94 -0.92,0 -1.38,0.62 -1.38,1.46 v 2.62 h -0.76 z"
     class="st1"
     id="path148"
     style="fill:#022899;stroke:none;stroke-width:0.75;stroke-linecap:butt" /><path
     d="m 112.4835,22.546 h -0.78 v -0.68 h 0.78 v -0.69 c 0,-0.75 0.45,-1.15 1.29,-1.15 0.14,0 0.35,0.03 0.49,0.07 v 0.67 c -0.13,-0.05 -0.29,-0.06 -0.43,-0.06 -0.37,0 -0.58,0.11 -0.58,0.52 v 0.64 h 0.9 v 0.68 h -0.9 v 3.97 h -0.77 z"
     class="st1"
     id="path153"
     style="fill:#022899;stroke:none;stroke-width:0.75;stroke-linecap:butt" /><path
     d="m 116.8435,21.7632 c 1.47,0 2.26,1.07 2.26,2.44 0,1.36 -0.79,2.42 -2.26,2.42 -1.48,0 -2.26,-1.07 -2.26,-2.42 0,-1.37 0.78,-2.44 2.26,-2.44 z m 0,4.19 c 0.8,0 1.45,-0.63 1.45,-1.75 0,-1.14 -0.65,-1.77 -1.45,-1.77 -0.8,0 -1.45,0.63 -1.45,1.77 0,1.12 0.65,1.75 1.45,1.75 z"
     class="st1"
     id="path158"
     style="fill:#022899;stroke:none;stroke-width:0.75;stroke-linecap:butt" /><path
     d="m 119.9738,21.8668 h 0.72 v 0.98 h 0.02 c 0.37,-0.74 0.88,-1.11 1.71,-1.08 v 0.81 c -1.24,0 -1.68,0.7 -1.68,1.88 v 2.06 h -0.77 z"
     class="st1"
     id="path163"
     style="fill:#022899;stroke:none;stroke-width:0.75;stroke-linecap:butt" /><path
     d="m 62.766,33.979 c -0.1,-0.92 -0.71,-1.31 -1.59,-1.31 -0.72,0 -1.44,0.26 -1.44,1.09 0,0.8 1.03,0.91 2.06,1.15 1.03,0.23 2.05,0.59 2.05,1.85 0,1.37 -1.34,1.91 -2.51,1.91 -1.43,0 -2.65,-0.7 -2.65,-2.26 h 0.81 c 0,1.08 0.9,1.55 1.87,1.55 0.77,0 1.63,-0.25 1.63,-1.17 0,-0.89 -1.03,-1.04 -2.05,-1.26 -1.03,-0.23 -2.06,-0.52 -2.06,-1.7 0,-1.31 1.16,-1.88 2.33,-1.88 1.31,0 2.31,0.62 2.36,2.03 z"
     class="st1"
     id="path168"
     style="fill:#022899;stroke:none;stroke-width:0.75;stroke-linecap:butt" /><path
     d="m 65.82675,33.866 h 0.92 v 0.68 h -0.92 v 2.89 c 0,0.35 0.1,0.41 0.57,0.41 h 0.35 v 0.67 h -0.58 c -0.79,0 -1.11,-0.16 -1.11,-1.01 v -2.96 h -0.79 v -0.68 h 0.79 v -1.39 h 0.77 z"
     class="st1"
     id="path173"
     style="fill:#022899;stroke:none;stroke-width:0.75;stroke-linecap:butt" /><path
     d="m 71.714,38.50325 c -0.13,0.08 -0.3,0.12 -0.55,0.12 -0.39,0 -0.64,-0.21 -0.64,-0.71 -0.43,0.49 -0.99,0.71 -1.64,0.71 -0.85,0 -1.54,-0.37 -1.54,-1.3 0,-1.05 0.78,-1.28 1.57,-1.43 0.85,-0.16 1.57,-0.11 1.57,-0.68 0,-0.67 -0.55,-0.78 -1.03,-0.78 -0.65,0 -1.13,0.2 -1.17,0.89 h -0.76 c 0.05,-1.16 0.94,-1.56 1.97,-1.56 0.84,0 1.74,0.19 1.74,1.28 v 2.39 c 0,0.36 0,0.52 0.25,0.52 0.06,0 0.13,-0.01 0.23,-0.04 z m -1.24,-2.38 c -0.3,0.21 -0.87,0.22 -1.38,0.31 -0.51,0.09 -0.94,0.27 -0.94,0.84 0,0.5 0.43,0.68 0.9,0.68 1.01,0 1.42,-0.63 1.42,-1.05 z"
     class="st1"
     id="path178"
     style="fill:#022899;stroke:none;stroke-width:0.75;stroke-linecap:butt" /><path
     d="m 72.4283,33.866 h 0.72 v 0.74 h 0.02 c 0.32,-0.57 0.84,-0.84 1.51,-0.84 1.22,0 1.6,0.7 1.6,1.7 v 3.05 h -0.76 v -3.14 c 0,-0.57 -0.36,-0.94 -0.95,-0.94 -0.93,0 -1.38,0.62 -1.38,1.46 v 2.62 h -0.76 z"
     class="st1"
     id="path183"
     style="fill:#022899;stroke:none;stroke-width:0.75;stroke-linecap:butt" /><path
     d="m 81.591,38.52325 h -0.77 v -0.63 h -0.02 c -0.25,0.51 -0.84,0.73 -1.48,0.73 -1.43,0 -2.14,-1.13 -2.14,-2.44 0,-1.31 0.7,-2.42 2.12,-2.42 0.48,0 1.16,0.18 1.5,0.73 h 0.02 v -2.4 h 0.77 z m -2.16,-0.57 c 1.02,0 1.42,-0.88 1.42,-1.75 0,-0.92 -0.41,-1.77 -1.47,-1.77 -1.04,0 -1.39,0.89 -1.39,1.8 0,0.88 0.45,1.72 1.44,1.72 z"
     class="st1"
     id="path188"
     style="fill:#022899;stroke:none;stroke-width:0.75;stroke-linecap:butt" /><path
     d="m 86.8887,38.50325 c -0.13,0.08 -0.3,0.12 -0.55,0.12 -0.39,0 -0.64,-0.21 -0.64,-0.71 -0.43,0.49 -0.99,0.71 -1.64,0.71 -0.85,0 -1.54,-0.37 -1.54,-1.3 0,-1.05 0.78,-1.28 1.57,-1.43 0.85,-0.16 1.57,-0.11 1.57,-0.68 0,-0.67 -0.55,-0.78 -1.03,-0.78 -0.65,0 -1.13,0.2 -1.17,0.89 h -0.76 c 0.05,-1.16 0.94,-1.56 1.97,-1.56 0.84,0 1.74,0.19 1.74,1.28 v 2.39 c 0,0.36 0,0.52 0.25,0.52 0.06,0 0.13,-0.01 0.23,-0.04 z m -1.24,-2.38 c -0.3,0.21 -0.87,0.22 -1.39,0.31 -0.5,0.09 -0.93,0.27 -0.93,0.84 0,0.5 0.43,0.68 0.9,0.68 1.01,0 1.42,-0.63 1.42,-1.05 z"
     class="st1"
     id="path193"
     style="fill:#022899;stroke:none;stroke-width:0.75;stroke-linecap:butt" /><path
     d="m 87.576,33.86675 h 0.72 v 0.98 h 0.02 c 0.37,-0.74 0.88,-1.11 1.71,-1.08 v 0.81 c -1.24,0 -1.69,0.7 -1.69,1.88 v 2.06 h -0.76 z"
     class="st1"
     id="path198"
     style="fill:#022899;stroke:none;stroke-width:0.75;stroke-linecap:butt" /><path
     d="m 94.5968,38.52325 h -0.77 v -0.63 h -0.02 c -0.25,0.51 -0.84,0.73 -1.48,0.73 -1.43,0 -2.14,-1.13 -2.14,-2.44 0,-1.31 0.7,-2.42 2.12,-2.42 0.48,0 1.16,0.18 1.5,0.73 h 0.02 v -2.4 h 0.77 z m -2.16,-0.57 c 1.02,0 1.42,-0.88 1.42,-1.75 0,-0.92 -0.41,-1.77 -1.47,-1.77 -1.04,0 -1.39,0.89 -1.39,1.8 0,0.88 0.45,1.72 1.44,1.72 z"
     class="st1"
     id="path203"
     style="fill:#022899;stroke:none;stroke-width:0.75;stroke-linecap:butt" /><path
     d="m 96.58,33.036 h -0.76 v -0.94 h 0.76 z m -0.76,0.83 h 0.77 v 4.65 h -0.77 z"
     class="st1"
     id="path208"
     style="fill:#022899;stroke:none;stroke-width:0.75;stroke-linecap:butt" /><path
     d="m 97.3957,37.936 2.81,-3.39 h -2.63 v -0.67 h 3.62 v 0.52 l -2.85,3.45 h 2.97 v 0.67 h -3.92 z"
     class="st1"
     id="path213"
     style="fill:#022899;stroke:none;stroke-width:0.75;stroke-linecap:butt" /><path
     d="m 106.2117,38.50325 c -0.13,0.08 -0.3,0.12 -0.55,0.12 -0.39,0 -0.64,-0.21 -0.64,-0.71 -0.43,0.49 -0.99,0.71 -1.64,0.71 -0.85,0 -1.54,-0.37 -1.54,-1.3 0,-1.05 0.78,-1.28 1.57,-1.43 0.85,-0.16 1.57,-0.11 1.57,-0.68 0,-0.67 -0.55,-0.78 -1.03,-0.78 -0.65,0 -1.13,0.2 -1.17,0.89 h -0.76 c 0.04,-1.16 0.94,-1.56 1.97,-1.56 0.84,0 1.74,0.19 1.74,1.28 v 2.39 c 0,0.36 0,0.52 0.25,0.52 0.06,0 0.13,-0.01 0.23,-0.04 z m -1.24,-2.38 c -0.3,0.21 -0.87,0.22 -1.38,0.31 -0.51,0.09 -0.94,0.27 -0.94,0.84 0,0.5 0.43,0.68 0.9,0.68 1.01,0 1.42,-0.63 1.42,-1.05 z"
     class="st1"
     id="path218"
     style="fill:#022899;stroke:none;stroke-width:0.75;stroke-linecap:butt" /><path
     d="m 107.9925,33.866 h 0.92 v 0.68 h -0.92 v 2.89 c 0,0.35 0.09,0.41 0.57,0.41 h 0.35 v 0.67 h -0.58 c -0.79,0 -1.11,-0.16 -1.11,-1.01 v -2.96 h -0.79 v -0.68 h 0.79 v -1.39 h 0.77 z"
     class="st1"
     id="path223"
     style="fill:#022899;stroke:none;stroke-width:0.75;stroke-linecap:butt" /><path
     d="m 110.5667,33.036 h -0.76 v -0.94 h 0.76 z m -0.76,0.83 h 0.76 v 4.65 h -0.76 z"
     class="st1"
     id="path228"
     style="fill:#022899;stroke:none;stroke-width:0.75;stroke-linecap:butt" /><path
     d="m 113.7677,33.76325 c 1.47,0 2.26,1.07 2.26,2.44 0,1.36 -0.79,2.42 -2.26,2.42 -1.48,0 -2.26,-1.07 -2.26,-2.42 0,-1.37 0.78,-2.44 2.26,-2.44 z m 0,4.19 c 0.8,0 1.45,-0.63 1.45,-1.75 0,-1.14 -0.65,-1.77 -1.45,-1.77 -0.8,0 -1.45,0.63 -1.45,1.77 0,1.12 0.65,1.75 1.45,1.75 z"
     class="st1"
     id="path233"
     style="fill:#022899;stroke:none;stroke-width:0.75;stroke-linecap:butt" /><path
     d="m 116.925,33.866 h 0.72 v 0.74 h 0.02 c 0.32,-0.57 0.84,-0.84 1.51,-0.84 1.22,0 1.6,0.7 1.6,1.7 v 3.05 h -0.76 v -3.14 c 0,-0.57 -0.36,-0.94 -0.95,-0.94 -0.92,0 -1.38,0.62 -1.38,1.46 v 2.62 h -0.76 z"
     class="st1"
     id="path238"
     style="fill:#022899;stroke:none;stroke-width:0.75;stroke-linecap:butt" /></g>
</svg>