<?xml version="1.0" encoding="UTF-8" standalone="no"?>
<svg
   xmlns:dc="http://purl.org/dc/elements/1.1/"
   xmlns:cc="http://creativecommons.org/ns#"
   xmlns:rdf="http://www.w3.org/1999/02/22-rdf-syntax-ns#"
   xmlns:svg="http://www.w3.org/2000/svg"
   xmlns="http://www.w3.org/2000/svg"
   xmlns:xlink="http://www.w3.org/1999/xlink"
   style="overflow:visible"
   xml:space="preserve"
   enable-background="new 0 0 262.551 162.048"
   overflow="visible"
   viewBox="0 0 200 114"
   height="114"
   width="200"
   id="Layer_1"
   version="1.1"><metadata
   id="metadata164"><rdf:RDF><cc:Work
       rdf:about=""><dc:format>image/svg+xml</dc:format><dc:type
         rdf:resource="http://purl.org/dc/dcmitype/StillImage" /><dc:title></dc:title></cc:Work></rdf:RDF></metadata><defs
   id="defs162"><radialGradient
   r="55.666401"
   cy="59.631302"
   cx="131.353"
   gradientUnits="userSpaceOnUse"
   id="radialGradient971"
   xlink:href="#XMLID_18_" /><radialGradient
   r="55.666401"
   cy="59.631302"
   cx="131.353"
   gradientUnits="userSpaceOnUse"
   id="radialGradient973"
   xlink:href="#XMLID_18_" /><radialGradient
   r="55.666401"
   cy="59.631302"
   cx="131.353"
   gradientUnits="userSpaceOnUse"
   id="radialGradient975"
   xlink:href="#XMLID_18_" /><radialGradient
   r="55.666401"
   cy="59.631302"
   cx="131.353"
   gradientUnits="userSpaceOnUse"
   id="radialGradient977"
   xlink:href="#XMLID_18_" /><radialGradient
   r="55.666401"
   cy="59.631302"
   cx="131.353"
   gradientUnits="userSpaceOnUse"
   id="radialGradient979"
   xlink:href="#XMLID_18_" /><radialGradient
   r="55.666401"
   cy="59.631302"
   cx="131.353"
   gradientUnits="userSpaceOnUse"
   id="radialGradient981"
   xlink:href="#XMLID_18_" /><radialGradient
   r="55.666401"
   cy="59.631302"
   cx="131.353"
   gradientUnits="userSpaceOnUse"
   id="radialGradient983"
   xlink:href="#XMLID_18_" /><radialGradient
   r="55.666401"
   cy="59.631302"
   cx="131.353"
   gradientUnits="userSpaceOnUse"
   id="radialGradient985"
   xlink:href="#XMLID_18_" /><radialGradient
   r="55.666401"
   cy="59.631302"
   cx="131.353"
   gradientUnits="userSpaceOnUse"
   id="radialGradient987"
   xlink:href="#XMLID_18_" />
	
	
	
	
	

		
	
		<radialGradient
   gradientTransform="matrix(0.49368095,0,0,0.49368095,35.191805,17.000212)"
   gradientUnits="userSpaceOnUse"
   r="63.037201"
   cy="61.586399"
   cx="130.28909"
   id="XMLID_17_">
			<stop
   id="stop95"
   style="stop-color:#6D8896"
   offset="0" />
			<stop
   id="stop97"
   style="stop-color:#4B7487"
   offset="0.0435" />
			<stop
   id="stop99"
   style="stop-color:#286379"
   offset="0.0933" />
			<stop
   id="stop101"
   style="stop-color:#00556C"
   offset="0.1494" />
			<stop
   id="stop103"
   style="stop-color:#004962"
   offset="0.2114" />
			<stop
   id="stop105"
   style="stop-color:#004059"
   offset="0.2815" />
			<stop
   id="stop107"
   style="stop-color:#003951"
   offset="0.3633" />
			<stop
   id="stop109"
   style="stop-color:#00344C"
   offset="0.4644" />
			<stop
   id="stop111"
   style="stop-color:#003149"
   offset="0.6062" />
			<stop
   id="stop113"
   style="stop-color:#003048"
   offset="1" />
		</radialGradient>
		
	
		
	
		<linearGradient
   gradientTransform="matrix(0.49368095,0,0,0.49368095,35.191805,17.000212)"
   y2="93.6968"
   x2="215.8887"
   y1="82.426804"
   x1="215.8887"
   gradientUnits="userSpaceOnUse"
   id="XMLID_14_">
			<stop
   id="stop26"
   style="stop-color:#003048"
   offset="0" />
			<stop
   id="stop28"
   style="stop-color:#00324A"
   offset="0.1626" />
			<stop
   id="stop30"
   style="stop-color:#00364F"
   offset="0.3076" />
			<stop
   id="stop32"
   style="stop-color:#003E57"
   offset="0.4458" />
			<stop
   id="stop34"
   style="stop-color:#004962"
   offset="0.5798" />
			<stop
   id="stop36"
   style="stop-color:#00576F"
   offset="0.7109" />
			<stop
   id="stop38"
   style="stop-color:#35697E"
   offset="0.8397" />
			<stop
   id="stop40"
   style="stop-color:#608090"
   offset="0.9645" />
			<stop
   id="stop42"
   style="stop-color:#6D8896"
   offset="1" />
		</linearGradient>
		
		<linearGradient
   gradientTransform="matrix(0.49368095,0,0,0.49368095,35.191805,17.000212)"
   y2="143.5977"
   x2="234.89259"
   y1="99.302696"
   x1="234.89259"
   gradientUnits="userSpaceOnUse"
   id="XMLID_15_">
			<stop
   id="stop47"
   style="stop-color:#003048"
   offset="0" />
			<stop
   id="stop49"
   style="stop-color:#00324A"
   offset="0.1626" />
			<stop
   id="stop51"
   style="stop-color:#00364F"
   offset="0.3076" />
			<stop
   id="stop53"
   style="stop-color:#003E57"
   offset="0.4458" />
			<stop
   id="stop55"
   style="stop-color:#004962"
   offset="0.5798" />
			<stop
   id="stop57"
   style="stop-color:#00576F"
   offset="0.7109" />
			<stop
   id="stop59"
   style="stop-color:#35697E"
   offset="0.8397" />
			<stop
   id="stop61"
   style="stop-color:#608090"
   offset="0.9645" />
			<stop
   id="stop63"
   style="stop-color:#6D8896"
   offset="1" />
		</linearGradient>
		
		<linearGradient
   gradientTransform="matrix(0.49368095,0,0,0.49368095,35.191805,17.000212)"
   y2="159.50591"
   x2="105.1221"
   y1="81.382797"
   x1="105.1221"
   gradientUnits="userSpaceOnUse"
   id="XMLID_16_">
			<stop
   id="stop68"
   style="stop-color:#003048"
   offset="0" />
			<stop
   id="stop70"
   style="stop-color:#00324A"
   offset="0.1626" />
			<stop
   id="stop72"
   style="stop-color:#00364F"
   offset="0.3076" />
			<stop
   id="stop74"
   style="stop-color:#003E57"
   offset="0.4458" />
			<stop
   id="stop76"
   style="stop-color:#004962"
   offset="0.5798" />
			<stop
   id="stop78"
   style="stop-color:#00576F"
   offset="0.7109" />
			<stop
   id="stop80"
   style="stop-color:#35697E"
   offset="0.8397" />
			<stop
   id="stop82"
   style="stop-color:#608090"
   offset="0.9645" />
			<stop
   id="stop84"
   style="stop-color:#6D8896"
   offset="1" />
		</linearGradient>
		
	
		
	
			
			
			
			
			
			
			
			
			
			
		
			
		</defs>
<path
   d="m 36.689633,59.482939 h 7.576522 c 8.489337,0 15.98687,2.855944 15.98687,13.844788 0,10.988845 -7.497533,13.844295 -15.98687,13.844295 h -7.576522 z m 5.55243,23.325437 h 3.095379 c 4.641095,0 9.124212,-3.451323 9.124212,-9.480649 0,-6.030806 -4.483117,-9.480649 -9.124212,-9.480649 h -3.095379 z"
   id="path2"
   style="fill:#ffffff;stroke:#ffffff;stroke-width:2.9952116" /><path
   d="m 60.568981,59.482939 h 9.680096 c 3.569807,0 8.924764,1.030806 8.924764,7.100613 0,3.291864 -2.221564,5.593405 -5.514416,6.189278 v 0.07899 c 3.769254,0.356438 6.347749,2.896426 6.347749,6.306774 0,6.982623 -6.268267,8.012936 -9.758591,8.012936 h -9.679602 z m 5.55391,11.187797 h 2.261553 c 2.339554,0 5.23598,-0.517377 5.23598,-3.373815 0,-3.211888 -2.81645,-3.449843 -5.354957,-3.449843 h -2.143069 v 6.823658 z m 0,12.13764 h 2.618484 c 2.578496,0 5.712876,-0.633886 5.712876,-3.848243 0,-3.609795 -2.936414,-4.165186 -5.712876,-4.165186 h -2.618484 z"
   id="path4"
   style="fill:#ffffff;stroke:#ffffff;stroke-width:2.9952116" /><path
   d="m 91.868353,66.266609 c -3.134381,0 -5.156991,1.388231 -6.346763,3.371347 h -0.07998 v -2.895933 h -5.077508 v 28.760372 h 4.461888 c 0.3594,-0.19846 0.655608,-0.513922 0.854068,-0.980944 v -9.68997 h 0.07849 c 1.864633,2.261059 3.728773,2.817437 5.990819,2.817437 6.386256,0 8.687303,-5.156497 8.687303,-10.75089 0,-5.634381 -2.301047,-10.631419 -8.568326,-10.631419 z m -1.467714,17.256124 c -3.530806,0 -4.68207,-3.729266 -4.68207,-6.625199 0,-2.855944 1.349724,-6.505727 4.761059,-6.505727 3.45083,0 4.403141,3.769254 4.403141,6.505727 0,2.817437 -0.991805,6.625199 -4.48213,6.625199 z"
   id="path6"
   style="fill:#ffffff;stroke:#ffffff;stroke-width:2.9952116" /><path
   d="m 84.826488,95.502395 h 0.854068 v -0.980944 c -0.198954,0.467022 -0.494669,0.78199 -0.854068,0.980944 z"
   id="path8"
   style="fill:#ffffff;stroke:#ffffff;stroke-width:2.9952116" /><path
   d="m 117.01844,86.022239 c -1.94412,1.070301 -4.16568,1.626679 -7.02262,1.626679 -6.74269,0 -10.669923,-3.888231 -10.669923,-10.591925 0,-5.910842 3.133883,-10.789891 9.480653,-10.789891 7.57652,0 9.71909,5.196486 9.71909,12.337581 h -14.12223 c 0.23844,3.290877 2.53949,5.156004 5.83185,5.156004 2.57751,0 4.79957,-0.952311 6.78318,-2.062105 z M 113.44863,74.9549 c -0.15946,-2.578496 -1.34874,-4.801541 -4.32465,-4.801541 -2.97492,0 -4.48213,2.063093 -4.72057,4.801541 z"
   id="path10"
   style="fill:#ffffff;stroke:#ffffff;stroke-width:2.9952116" /><path
   d="m 136.77258,57.419846 h -4.60061 v 11.702707 h -0.079 c -1.58718,-1.944116 -3.45083,-2.855944 -6.10881,-2.855944 -6.26876,0 -8.56931,4.997038 -8.56931,10.630925 0,5.594393 2.30055,10.75089 8.56931,10.75089 2.49852,0 4.68109,-0.793345 6.26728,-2.777942 h 0.0795 v 2.301047 h 5.15699 V 58.232445 c -0.1802,-0.366805 -0.42407,-0.632405 -0.71535,-0.812599 z m -9.32168,26.102887 c -3.48983,0 -4.48262,-3.807762 -4.48262,-6.625199 0,-2.736473 0.9528,-6.505727 4.40413,-6.505727 3.41133,0 4.76056,3.649783 4.76056,6.505727 -4.9e-4,2.895933 -1.15225,6.625199 -4.68207,6.625199 z"
   id="path12"
   style="fill:#ffffff;stroke:#ffffff;stroke-width:2.9952116" /><path
   d="m 136.77258,57.419846 c 0.29128,0.180194 0.53515,0.445794 0.71535,0.812599 v -0.812599 z"
   id="path14"
   style="fill:#ffffff;stroke:#ffffff;stroke-width:2.9952116" /><rect
   x="139.11412"
   y="66.742027"
   width="5.3159561"
   height="20.429998"
   id="rect16"
   style="fill:#ffffff;stroke:#ffffff;stroke-width:2.9952116" /><rect
   x="139.11412"
   y="57.935249"
   width="5.3159561"
   height="5.078496"
   id="rect18"
   style="fill:#ffffff;stroke:#ffffff;stroke-width:2.9952116" /><path
   d="m 146.96858,67.812817 c 2.06161,-0.951323 4.83906,-1.546208 7.10012,-1.546208 6.22778,0 8.80776,2.578002 8.80776,8.608314 v 2.618978 c 0,2.062599 0.04,3.609795 0.078,5.117497 0.0405,1.546208 0.11947,2.97344 0.23894,4.560624 h -4.68108 c -0.19846,-1.070794 -0.19846,-2.418543 -0.23845,-3.053416 h -0.0785 c -1.22927,2.261058 -3.88774,3.529818 -6.30826,3.529818 -3.60979,0 -7.14011,-2.181576 -7.14011,-6.06882 0,-3.054897 1.46772,-4.840541 3.49082,-5.831359 2.02409,-0.992299 4.64159,-1.190265 6.86315,-1.190265 h 2.93543 c 0,-3.294333 -1.46771,-4.404621 -4.6016,-4.404621 -2.26106,0 -4.5231,0.874309 -6.30727,2.223045 z m 6.22778,15.947376 c 1.62668,0 2.89495,-0.713862 3.72877,-1.823164 0.87234,-1.15077 1.11128,-2.620458 1.11128,-4.206161 h -2.30105 c -2.38003,0 -5.91034,0.396919 -5.91034,3.530312 0,1.744669 1.46722,2.499013 3.37134,2.499013 z"
   id="path20"
   style="fill:#ffffff;stroke:#ffffff;stroke-width:2.9952116" /><path
   style="fill:url(#XMLID_14_);stroke-width:0.49368095"
   id="path45"
   d="m 139.11411,63.256636 h 5.31596 c 0.13379,0 0.2424,-0.109104 0.2424,-0.242891 v -5.078496 c 0,-0.133788 -0.10861,-0.242397 -0.2424,-0.242397 h -5.31596 c -0.13378,0 -0.24239,0.108609 -0.24239,0.242397 v 5.078496 c 0,0.134281 0.10811,0.242891 0.24239,0.242891 z" /><path
   style="fill:url(#XMLID_15_);stroke-width:0.49368095"
   id="path66"
   d="m 163.19686,82.60498 -0.002,-0.07603 -0.076,-5.035052 V 74.87492 c 0,-6.203594 -2.70636,-8.850712 -9.05016,-8.850712 -2.30994,0 -5.13675,0.615621 -7.20182,1.568918 -0.0889,0.04048 -0.14416,0.130826 -0.1407,0.228575 l 0.15847,4.563093 c 0.003,0.09034 0.0563,0.171801 0.13823,0.210802 0.0815,0.03851 0.17822,0.02913 0.2503,-0.02567 1.8281,-1.381319 4.07385,-2.173677 6.16114,-2.173677 3.04551,0 4.27577,1.114731 4.34587,3.919333 -0.42703,0 -2.6797,0 -2.6797,0 -3.06477,0 -5.27942,0.386058 -6.96979,1.214949 -1.91054,0.936019 -3.06033,2.420517 -3.45873,4.407583 0,-6.036237 0,-13.195598 0,-13.195598 0,-0.133787 -0.10861,-0.242397 -0.24239,-0.242397 h -5.31596 c -0.13379,0 -0.2424,0.10861 -0.2424,0.242397 v 20.429999 c 0,0.133787 0.10861,0.242397 0.2424,0.242397 h 5.31596 c 0.13378,0 0.24239,-0.10861 0.24239,-0.242397 0,0 0,-2.812007 0,-4.163212 0.76916,3.180787 4.07682,4.882999 7.21416,4.882999 2.48026,0 4.87165,-1.238152 6.17348,-3.122039 0.0272,0.705964 0.0647,1.640996 0.21426,2.44619 0.0212,0.115027 0.12145,0.198459 0.23796,0.198459 h 4.68108 c 0.0676,0 0.1323,-0.02814 0.17772,-0.07751 0.0454,-0.04937 0.0691,-0.115521 0.0637,-0.183155 -0.1254,-1.680984 -0.19945,-3.084025 -0.23746,-4.54927 z m -6.46525,-0.81408 c -0.84962,1.130036 -2.07148,1.726896 -3.53525,1.726896 -0.94046,0 -3.12895,-0.219688 -3.12895,-2.256122 0,-2.212678 1.85377,-3.287915 5.66746,-3.287915 0,0 1.64346,0 2.0468,0 -0.0311,1.678515 -0.35989,2.906793 -1.05006,3.817141 z" /><path
   style="fill:url(#XMLID_16_);stroke-width:0.49368095"
   id="path87"
   d="m 136.18659,57.177449 h -4.01511 c -0.13379,0 -0.2424,0.10861 -0.2424,0.242397 0,0 0,10.265602 0,11.195203 -1.58817,-1.759479 -3.43454,-2.590838 -5.9454,-2.590838 -5.08146,0 -7.22255,3.135862 -8.12994,6.052035 -1.36651,-4.052133 -4.31921,-6.052035 -9.04719,-6.052035 -4.19333,0 -7.35931,2.193919 -8.825538,6.013034 -0.90936,-2.887046 -3.047986,-6.013034 -8.113153,-6.013034 -2.675257,0 -4.793642,1.024882 -6.184341,2.951719 0,-0.788409 0,-2.233907 0,-2.233907 0,-0.133787 -0.10861,-0.242397 -0.242398,-0.242397 h -5.077014 c -0.133788,0 -0.242398,0.10861 -0.242398,0.242397 0,0 0,5.841727 0,11.109303 -0.513428,-2.594787 -2.572571,-4.493484 -5.491707,-5.078002 2.969491,-0.877271 4.786237,-3.169926 4.786237,-6.189772 0,-6.388725 -5.743484,-7.342517 -9.167161,-7.342517 h -9.680096 c -0.133788,0 -0.242398,0.10861 -0.242398,0.241904 0,0 0,5.831359 0,11.273698 C 59.373285,63.12038 53.99315,59.241035 44.266155,59.241035 h -7.576522 c -0.133788,0 -0.242397,0.10861 -0.242397,0.241904 v 27.689083 c 0,0.133788 0.108609,0.242398 0.242397,0.242398 h 7.576522 c 9.726995,0 15.10713,-3.879839 16.060428,-11.515602 0,5.441845 0,11.273204 0,11.273204 0,0.133788 0.10861,0.242398 0.242398,0.242398 h 9.680096 c 2.778436,0 8.949448,-0.699053 9.872631,-6.681972 0,7.379049 0,14.769947 0,14.769947 0,0.133787 0.10861,0.242891 0.242398,0.242891 h 3.720873 c 0.94688,-0.138231 1.674072,-0.765206 1.837974,-2.216628 0,-2.75079 0,-7.481241 0,-8.16104 1.988547,2.18602 3.971663,2.524191 5.826916,2.524191 5.114535,0 7.283275,-3.163507 8.210902,-6.0782 1.522019,3.912422 5.040979,6.0782 10.035549,6.0782 2.81793,0 5.08639,-0.526758 7.13961,-1.657287 0.077,-0.04246 0.1254,-0.123914 0.1254,-0.212283 v -4.323657 c 0,-0.08639 -0.0459,-0.165877 -0.11997,-0.209321 -0.074,-0.04344 -0.16588,-0.04443 -0.24091,-0.003 -1.69037,0.945892 -3.97512,2.031497 -6.6647,2.031497 -3.1793,0 -5.2261,-1.746643 -5.54996,-4.671209 0.5312,0 12.20972,0 12.60318,0 0.59242,5.744965 3.74457,9.044728 8.6952,9.044728 2.57011,0 4.60457,-0.871346 6.10437,-2.520241 0,0.613152 0,1.800455 0,1.800455 0,0.133787 0.10861,0.242397 0.2424,0.242397 h 5.15699 c 0.13379,0 0.2424,-0.10861 0.2424,-0.242397 v -28.21436 c -0.21969,-1.066351 -0.79779,-1.597058 -1.54374,-1.77972 z m -90.849148,25.38853 c 0,0 -2.440758,0 -2.852488,0 0,-0.466035 0,-18.009975 0,-18.476503 0.41173,0 2.852488,0 2.852488,0 4.305885,0 8.881814,3.238053 8.881814,9.238251 0,6.000199 -4.576422,9.238252 -8.881814,9.238252 z M 66.365289,64.089476 c 0.381121,0 1.900671,0 1.900671,0 2.586888,0 5.112066,0.247334 5.112066,3.207445 0,2.077903 -1.679996,3.130924 -4.993582,3.130924 0,0 -1.632603,0 -2.019155,0 0,-0.433945 0,-5.90393 0,-6.338369 z m 2.376086,18.476503 c 0,0 -1.976699,0 -2.376086,0 0,-0.442338 0,-7.086296 0,-7.528141 0.399387,0 2.376086,0 2.376086,0 2.5469,0 5.470479,0.4453 5.470479,3.922295 0,2.392872 -1.840443,3.605846 -5.470479,3.605846 z m 21.659264,0.713863 c -3.277054,0 -4.439672,-3.437995 -4.439672,-6.382308 0,-3.015897 1.413902,-6.262836 4.518661,-6.262836 3.959815,0 4.160743,5.216233 4.160743,6.262836 0,1.065364 -0.204384,6.382308 -4.239732,6.382308 z M 104.6853,74.712009 c 0.33027,-2.740917 1.92832,-4.316253 4.43868,-4.316253 3.15117,0 3.90058,2.593306 4.05609,4.316253 -0.48924,0 -7.98134,0 -8.49477,0 z m 22.7656,8.567833 c -4.03584,0 -4.24022,-5.316944 -4.24022,-6.382308 0,-1.04611 0.20043,-6.262836 4.16173,-6.262836 3.10426,0 4.51767,3.246446 4.51767,6.262836 0,2.944313 -1.16262,6.382308 -4.43918,6.382308 z" /><path
   style="fill:#004563;stroke-width:0.49368095"
   id="path91"
   d="m 126.03256,49.336314 c -0.95182,0.01432 -2.00188,-0.0049 -3.11266,-0.02419 -6.89475,-0.122927 -16.8049,-0.28831 -22.63182,7.340542 -5.827409,-7.628852 -15.737066,-7.462975 -22.632802,-7.340542 -1.110782,0.01925 -2.160348,0.03851 -3.111671,0.02419 -0.22808,-0.0025 -2.396821,0.06714 -6.447473,0.206359 0,0 0.274487,5.086888 3.85318,5.086888 1.285051,0 2.214159,-0.03011 2.557267,-0.03258 0.998717,0.01333 2.088271,-0.0059 3.242003,-0.02567 9.409559,-0.167852 16.873521,0.357425 20.220678,8.572276 l 0.667457,1.638033 h 1.532381 0.235 1.53337 l 0.66795,-1.638033 c 3.34666,-8.214851 10.81013,-8.740621 20.22018,-8.572276 1.15423,0.02024 2.24378,0.03949 3.2425,0.02567 0.34212,0.0025 1.27222,0.03258 2.55677,0.03258 3.57968,0 3.85368,-5.086888 3.85368,-5.086888 -4.04967,-0.139218 -6.2189,-0.208333 -6.44599,-0.206359 z" /><path
   style="fill:url(#XMLID_17_);stroke-width:0.49368095"
   id="path116"
   d="m 102.98753,17.56054 v 0 c -1.44303,0.674862 -2.53851,1.871051 -3.082051,3.367891 -0.240423,0.664989 -0.360387,1.35318 -0.360387,2.03989 0,0.861967 0.188586,1.721465 0.565758,2.526165 0.87925,1.882406 2.67032,3.090443 4.69194,3.337777 0.0523,0.563784 0.11207,1.127568 0.11207,1.698756 0,0.273006 -0.0202,0.546999 -0.0316,0.820992 -0.24387,0.0627 -0.50158,0.06615 -0.73163,0.173776 -0.99082,0.462085 -1.74023,1.282089 -2.11296,2.308945 -0.16538,0.455174 -0.24733,0.927133 -0.24733,1.397611 0,0.59143 0.13033,1.180391 0.38754,1.731833 0.23697,0.505036 0.59982,0.920221 1.01402,1.286039 -0.58649,1.297887 -1.32553,2.573559 -2.2191,3.809736 -0.0839,-0.01925 -0.16637,-0.03752 -0.25177,-0.05134 -0.26955,-1.488448 -0.65462,-2.927034 -1.162622,-4.291569 0.301639,-0.534656 0.503062,-1.110782 0.503062,-1.709123 0,-0.504542 -0.108611,-1.011552 -0.331261,-1.488448 -0.547986,-1.171999 -1.666667,-1.899684 -2.928021,-1.99694 -1.458334,-2.06408 -3.238054,-3.83985 -5.294235,-5.309045 0.05628,-0.295714 0.153535,-0.589455 0.153535,-0.883688 0,-1.933749 -1.197176,-3.7579 -3.112165,-4.456458 -2.451126,-0.889613 -5.169333,0.381615 -6.05944,2.831754 -0.430983,1.187796 -0.37421,2.47186 0.160446,3.616213 0.534657,1.144352 1.483512,2.011256 2.671308,2.442239 1.417358,0.513922 2.956655,0.226106 4.192339,-0.595379 1.565462,1.110782 2.930983,2.455075 4.080766,4.006715 -0.359399,0.56872 -0.61167,1.190264 -0.61167,1.852784 0,0.503061 0.109103,1.010565 0.331753,1.489436 0.573658,1.224328 1.766884,1.97028 3.068227,2.018661 0.347552,1.050553 0.623519,2.156892 0.817042,3.312105 -0.109103,0.08442 -0.222156,0.164396 -0.322373,0.258689 -1.635565,-1.120162 -3.344689,-2.038902 -5.113548,-2.715739 -0.0622,-0.211295 -0.125394,-0.427527 -0.125394,-0.427527 -0.401857,-0.858511 -1.112757,-1.508689 -2.003358,-1.831063 -0.888626,-0.321386 -1.849329,-0.277449 -2.704878,0.12342 -0.37964,0.176244 -0.70152,0.441351 -0.995754,0.744471 -1.962876,-0.192042 -3.931675,-0.09874 -5.878753,0.223144 -1.27814,-1.904621 -3.761355,-2.684143 -5.897019,-1.683946 -2.365225,1.106833 -3.38912,3.930194 -2.283274,6.293939 1.107326,2.364238 3.930687,3.387145 6.293938,2.283274 1.396624,-0.65314 2.315364,-1.918938 2.597749,-3.393069 1.430194,-0.237954 2.881122,-0.329779 4.341924,-0.219688 0.04591,0.148598 0.04789,0.312994 0.113547,0.454186 0.826915,1.768859 2.936908,2.536039 4.704286,1.710605 0.384083,-0.180687 0.7109,-0.439376 1.002666,-0.736078 1.541765,0.645734 3.051935,1.499309 4.503851,2.569609 0.0084,0.647216 0.147611,1.285545 0.424072,1.870063 0.513428,1.102884 1.4297,1.942141 2.578002,2.358808 1.149289,0.417654 2.391392,0.362362 3.498222,-0.155016 1.22384,-0.572176 2.07642,-1.643957 2.43187,-2.920616 2.5785,-0.371742 4.98322,-1.079187 7.16776,-2.120854 0.99822,0.601304 2.21662,0.73361 3.29433,0.229562 1.26975,-0.594886 2.0315,-1.861671 2.0315,-3.202508 0,-0.16094 -0.0558,-0.323855 -0.0785,-0.48677 1.09449,-0.973045 2.09321,-2.059143 2.98973,-3.240028 1.17398,0.288803 2.39831,0.237954 3.51057,-0.283373 1.28653,-0.602291 2.26056,-1.669135 2.74338,-3.002074 0.99971,-2.754246 -0.42752,-5.808156 -3.18374,-6.811809 -2.75474,-0.996742 -5.81112,0.430489 -6.81379,3.184242 -0.21327,0.588961 -0.31694,1.198657 -0.31694,1.804404 0,1.133491 0.37766,2.23983 1.06092,3.163507 -0.66005,0.854562 -1.39514,1.653831 -2.20478,2.386454 -0.88517,-0.337678 -1.8597,-0.335703 -2.73549,0.07504 -1.1947,0.556872 -1.93819,1.73677 -2.00484,3.02034 -1.77922,0.814574 -3.7421,1.375889 -5.8516,1.685921 1.12214,-1.578792 2.04977,-3.216825 2.74635,-4.894847 0.30115,-0.06319 0.61365,-0.09182 0.89307,-0.222156 0.99082,-0.462579 1.74121,-1.284064 2.11394,-2.311908 0.16539,-0.455174 0.24734,-0.926146 0.24734,-1.396624 0,-0.591429 -0.12984,-1.179403 -0.38754,-1.730845 -0.26758,-0.572176 -0.69264,-1.033274 -1.18336,-1.424269 0.0346,-0.509479 0.0696,-1.019945 0.0696,-1.532386 0,-0.779522 -0.076,-1.557564 -0.156,-2.334617 1.30282,-0.694116 2.30351,-1.810822 2.80954,-3.208433 0.24141,-0.664001 0.36088,-1.351698 0.36088,-2.036927 0,-0.862461 -0.18908,-1.720972 -0.56527,-2.524191 -1.39415,-2.979858 -4.95408,-4.272315 -7.93641,-2.879641 z" /><g
   transform="matrix(0.49368095,0,0,0.49368095,35.191805,17.000212)"
   id="g151">
				<radialGradient
   id="XMLID_18_"
   cx="131.353"
   cy="59.631302"
   r="55.666401"
   gradientUnits="userSpaceOnUse">
					<stop
   offset="0"
   style="stop-color:#FFD528"
   id="stop120" />
					<stop
   offset="0.222"
   style="stop-color:#FFD227"
   id="stop122" />
					<stop
   offset="0.4435"
   style="stop-color:#FFC925"
   id="stop124" />
					<stop
   offset="0.6647"
   style="stop-color:#FDBB21"
   id="stop126" />
					<stop
   offset="0.8846"
   style="stop-color:#FAA61D"
   id="stop128" />
					<stop
   offset="1"
   style="stop-color:#F8991D"
   id="stop130" />
				</radialGradient>
				<path
   d="m 128.544,38.833 c 0.172,-2.384 -1.622,-4.455 -4.006,-4.626 -2.385,-0.171 -4.454,1.623 -4.625,4.007 -0.172,2.384 1.623,4.455 4.011,4.624 2.379,0.173 4.45,-1.621 4.62,-4.005 z"
   id="path133"
   style="fill:url(#radialGradient971)" />
				<circle
   cx="131.353"
   cy="59.631001"
   r="6.6900001"
   id="circle135"
   style="fill:url(#radialGradient973)" />
				<circle
   cx="82.981003"
   cy="50.263"
   r="6.493"
   id="circle137"
   style="fill:url(#radialGradient975)" />
				<path
   d="m 111.45,19.487 c 0.257,-3.577 -2.437,-6.684 -6.014,-6.941 -3.575,-0.253 -6.682,2.435 -6.937,6.012 -0.257,3.577 2.433,6.685 6.014,6.941 3.574,0.256 6.68,-2.436 6.937,-6.012 z"
   id="path139"
   style="fill:url(#radialGradient977)" />
				<path
   d="m 108.147,45.254 c -2.372,-0.171 -4.433,1.612 -4.605,3.986 -0.168,2.372 1.614,4.433 3.989,4.604 2.372,0.169 4.434,-1.616 4.605,-3.988 0.167,-2.372 -1.616,-4.434 -3.989,-4.602 z"
   id="path141"
   style="fill:url(#radialGradient979)" />
				<path
   d="m 174.369,26.85 c -3.894,-0.279 -7.277,2.651 -7.555,6.546 -0.279,3.895 2.651,7.277 6.544,7.557 3.897,0.281 7.277,-2.651 7.559,-6.546 0.277,-3.893 -2.653,-7.278 -6.548,-7.557 z"
   id="path143"
   style="fill:url(#radialGradient981)" />
				<circle
   cx="158.276"
   cy="51.766998"
   r="4.3270001"
   id="circle145"
   style="fill:url(#radialGradient983)" />
				<circle
   cx="143.19099"
   cy="36.931999"
   r="5.2259998"
   id="circle147"
   style="fill:url(#radialGradient985)" />
				<path
   d="m 143.05,3.719 c -4.624,-0.333 -8.638,3.146 -8.971,7.768 -0.328,4.625 3.147,8.64 7.77,8.971 4.626,0.33 8.638,-3.149 8.97,-7.771 0.328,-4.623 -3.146,-8.638 -7.769,-8.968 z"
   id="path149"
   style="fill:url(#radialGradient987)" />
			</g>
</svg>