<svg width="200" height="114" version="1.1" viewBox="0 0 .27778 .15833" xmlns="http://www.w3.org/2000/svg" xmlns:cc="http://creativecommons.org/ns#" xmlns:dc="http://purl.org/dc/elements/1.1/" xmlns:rdf="http://www.w3.org/1999/02/22-rdf-syntax-ns#">
 <metadata>
  <rdf:RDF>
   <cc:Work rdf:about="">
    <dc:format>image/svg+xml</dc:format>
    <dc:type rdf:resource="http://purl.org/dc/dcmitype/StillImage"/>
    <dc:title/>
   </cc:Work>
  </rdf:RDF>
 </metadata>
 <path d="m0.19445 0.079165a0.055556 0.055556 0 0 1-0.055556 0.055556 0.055556 0.055556 0 0 1-0.055556-0.055556 0.055556 0.055556 0 0 1 0.055556-0.055556 0.055556 0.055556 0 0 1 0.055556 0.055556z" fill="#009" fill-rule="evenodd" opacity=".99" stroke-width=".19047"/>
 <path d="m0.15792 0.042489-0.001075-5.3713e-4 -0.001087-5.1085e-4 -0.001113-4.8457e-4 -0.001127-4.4534e-4 -0.001153-4.1923e-4 -0.001153-3.7982e-4 -0.001179-3.537e-4 -0.001193-3.1429e-4 -0.001193-2.7522e-4 -0.001217-2.4876e-4 -0.001232-2.0952e-4 -0.001243-1.705e-4 -0.001243-1.3084e-4 -0.00126-9.181e-5 -0.001269-6.551e-5 -0.001283-1.297e-5c-0.022858 0-0.041339 0.018509-0.041339 0.041326 0 0.0016468 9.639e-5 0.0032718 2.8387e-4 0.0048686 0.0024074 0.020514 0.01985 0.036456 0.041055 0.036456 0.022818 0 0.041313-0.018522 0.041313-0.041326 0-0.013256-0.006236-0.02507-0.015954-0.032628" fill="none" stroke="#fefc01" stroke-linecap="square" stroke-miterlimit="10.433" stroke-width=".00025025"/>
 <path d="m0.14012 0.025695-9.9495e-4 0.0010086h0.002003zm-0.003404 3.928e-5 -9.3003e-4 0.0010742 0.001979-1.4417e-4zm0.006525 1.4414e-4 -0.001075 9.3012e-4 0.002005 1.0488e-4zm-0.009602 6.564e-5 -8.9142e-4 0.0011129 0.002005-2.4853e-4zm0.012693 2.8832e-4 -0.001113 8.6444e-4 0.001964 2.0977e-4zm-0.015771 1.0436e-4 -8.2546e-4 0.0011528 0.001979-3.6686e-4zm0.018811 3.9319e-4 -0.00114 8.2515e-4 0.001964 3.276e-4zm-0.02185 1.8342e-4 -7.5955e-4 0.0011785 0.001939-4.583e-4zm0.024862 5.3687e-4 -0.001179 7.4664e-4 0.001926 4.3249e-4zm-0.027876 2.0977e-4 -6.8155e-4 0.0012179 0.0019-5.632e-4zm0.030845 6.8101e-4 -0.001217 6.552e-4 0.0019 5.6319e-4zm-0.03382 2.2269e-4 -6.1541e-4 0.0012835 0.0019-6.8101e-4zm0.016504 6.563e-5 -7.0735e-4 0.0016111 2.4906e-4 1.1782e-4c3.9297e-4 -7.5972e-4 0.001179-0.0014013 0.002082-0.001362 6.0268e-4 0 4.9777e-4 5.3669e-4 4.5832e-4 9.9513e-4l-1.0492e-4 0.0037331c-3.922e-5 9.9557e-4 -1.8346e-4 0.0012054-0.001008 0.0012054v2.8782e-4l0.002764 7.907e-5v-2.8833e-4h-6.562e-5l-7.853e-5 -1.343e-5h-6.512e-5l-6.562e-5 -1.291e-5h-5.27e-5l-6.511e-5 -1.293e-5 -5.271e-5 -1.342e-5 -3.926e-5 -1.293e-5 -5.219e-5 -2.636e-5 -3.926e-5 -1.293e-5 -3.928e-5 -2.635e-5 -3.926e-5 -1.29e-5 -2.636e-5 -2.636e-5 -3.926e-5 -2.634e-5 -2.636e-5 -3.926e-5 -2.634e-5 -2.586e-5 -1.294e-5 -3.926e-5 -2.633e-5 -3.927e-5 -1.291e-5 -3.928e-5 -1.292e-5 -5.27e-5 -1.344e-5 -3.928e-5 -1.29e-5 -5.218e-5 -1.292e-5 -5.271e-5 -1.342e-5 -6.51e-5v-1.3124e-4l-1.291e-5 -6.562e-5v-3.6685e-4l1.291e-5 -5.217e-5 1.4415e-4 -0.0037199c0-4.7154e-4 -7.867e-5 -0.0010086 5.3685e-4 -0.0010086 8.9142e-4 7.859e-5 0.001651 7.6005e-4 0.002005 0.0015461l2.0927e-4 -1.049e-4 -5.6321e-4 -0.0016505zm-0.00461 3.9272e-4 -0.002543 4.3247e-4 2.581e-5 2.8831e-4c7.206e-4 -1.4409e-4 9.0459e-4 1.0438e-4 0.001048 0.0010737l5.7611e-4 0.0034453c1.3086e-4 9.9548e-4 6.528e-5 0.0012442-6.5519e-4 0.0013492l3.926e-5 2.883e-4 0.004584-7.4665e-4 3.276e-4 -0.0017161-2.6197e-4 -7.857e-5c-4.1923e-4 0.0011134-8.2547e-4 0.0015718-0.002005 0.0017945-8.5172e-4 1.4407e-4 -0.001034-7.903e-5 -0.00114-8.6492e-4l-6.1583e-4 -0.0036149c-1.44e-4 -9.6925e-4 -6.545e-5 -0.0012578 6.8102e-4 -0.0013627zm0.012222 5e-7 -7.853e-5 2.8782e-4c7.2037e-4 1.441e-4 7.8607e-4 3.9325e-4 5.7662e-4 0.0013627l-6.8151e-4 0.0034446c-1.8344e-4 9.9548e-4 -3.5382e-4 0.001179-0.001034 0.001035l-7.854e-5 3.2704e-4 0.002515 4.5884e-4 6.51e-5 -2.8829e-4c-6.8416e-4 -1.4406e-4 -7.8878e-4 -3.9322e-4 -5.7914e-4 -0.0013627l3.276e-4 -0.0016111 0.002723 5.3735e-4 -3.2757e-4 0.0016111c-1.705e-4 9.6924e-4 -3.5384e-4 0.0011916-0.001034 0.0010344l-7.854e-5 2.8833e-4 0.002541 5.1101e-4 3.926e-5 -2.8831e-4c-7.1867e-4 -1.4404e-4 -7.8449e-4 -4.0575e-4 -6.0078e-4 -0.001362l6.8101e-4 -0.0034452c2.0972e-4 -9.5618e-4 3.5383e-4 -0.0011785 0.001075-0.0010344l6.563e-5 -3.1467e-4 -0.002501-4.7123e-4 -7.853e-5 2.8779e-4c6.8112e-4 1.4408e-4 7.5954e-4 3.9323e-4 5.7609e-4 0.0013627l-2.883e-4 0.0014276-0.002723-5.3685e-4 2.8779e-4 -0.0014278c1.8344e-4 -9.6934e-4 3.6672e-4 -0.001179 0.001048-0.001035l6.561e-5 -2.8831e-4zm0.012641 3.6636e-4 -0.001298 5.6319e-4 0.0019 6.8154e-4zm-0.039661 2.8835e-4 -4.9758e-4 0.001284 0.001793-7.8585e-4zm0.007887 6.03e-4 -7.4667e-4 4.3246e-4 -2.8826e-4 0.0051478c0 6.4187e-4 -3.926e-5 0.0014408-7.8609e-4 0.0016504l6.561e-5 2.883e-4 0.002227-6.0299e-4 -7.852e-5 -2.8781e-4c-3.5373e-4 6.548e-5 -8.5172e-4 1.308e-4 -9.6951e-4 -2.883e-4 -6.552e-5 -2.4891e-4 -3e-8 -0.0010088 3.924e-5 -0.0012576v-3.5342e-4l0.002227-6.1591e-4 6.4222e-4 9.3011e-4c6.555e-5 1.5712e-4 2.4851e-4 4.0585e-4 2.8782e-4 5.3687e-4 1.442e-4 4.3232e-4 -4.321e-4 5.1112e-4 -7.2029e-4 6.159e-4l6.562e-5 2.8828e-4 0.002552-7.2078e-4 -1.1781e-4 -2.878e-4c-2.0951e-4 3.931e-5 -4.1903e-4 3.914e-5 -6.0247e-4 -6.561e-5 -3.2742e-4 -2.096e-4 -6.8127e-4 -8.9081e-4 -8.9143e-4 -0.0011921zm0.034645 3.2759e-4 -0.001336 4.976e-4 0.001833 7.8593e-4zm-0.045361 3.1415e-4 -4.3194e-4 0.0013227 0.001768-8.9081e-4zm0.010386 4.7173e-4 0.001793 0.0025676-0.001926 5.3686e-4zm0.037725 5.7613e-4 -0.001323 4.5884e-4 0.001754 8.908e-4zm-0.050863 3.534e-4 -3.6686e-4 0.0013492 0.001716-9.9513e-4zm0.007741 5.3e-7 -0.004336 0.0017946 1.0436e-4 2.7488e-4c6.4192e-4 -2.7507e-4 8.5171e-4 -1.0447e-4 0.001244 7.9937e-4l0.001336 0.0032483c3.9295e-4 9.4302e-4 3.5359e-4 0.0011788-2.8833e-4 0.001467l1.049e-4 2.4903e-4 0.00444-0.0018208-2.636e-5 -0.0018336h-2.6195e-4c-3.9297e-4 0.0013622-4.1929e-4 0.0017547-0.001782 0.0023442-7.5963e-4 3.1446e-4 -9.6951e-4 2.1002e-4 -0.001217-4.4485e-4l-8.2547e-4 -0.0019259 3.5342e-4 -1.0489e-4c6.4172e-4 -3.2745e-4 0.001363-5.7601e-4 0.001793 4.9809e-4l2.4853e-4 -1.0489e-4 -0.001008-0.002371-2.0926e-4 7.855e-5c2.88e-4 9.3002e-4 -1.8335e-4 0.0012837-9.3003e-4 0.0016111l-3.536e-4 1.4435e-4 -6.5466e-4 -0.0015454c-3.1427e-4 -8.2522e-4 -3.1412e-4 -9.5652e-4 5.11e-4 -0.0013234 0.001217-4.9774e-4 0.00161-3.2737e-4 0.002751 3.6686e-4l1.4413e-4 -2.227e-4zm0.038491 0.0010903c-5.7308e-4 3.11e-6 -0.001087 3.192e-4 -0.001384 9.1354e-4l-2.633e-5 3.927e-5 -1.292e-5 3.928e-5 -1.292e-5 3.924e-5 -2.633e-5 3.929e-5 -1.291e-5 5.218e-5 -1.345e-5 3.929e-5 -2.582e-5 7.853e-5 -1.342e-5 7.906e-5 -2.636e-5 9.145e-5 -1.291e-5 7.853e-5 -1.291e-5 9.197e-5v7.856e-5l-1.346e-5 9.144e-5v2.6197e-4l-1.289e-5 7.854e-5v1.8395e-4l-4.1905e-4 3.928e-5c-7.9921e-4 6.546e-5 -0.001469 3.9254e-4 -0.002122 0.0010344-0.001533 0.0015324 2.8796e-4 0.0020828 0.001179 0.0025018 5.7618e-4 2.8816e-4 0.001153 3.538e-4 0.001793 3.276e-4 1.8323e-4 4.1924e-4 3.2734e-4 7.4684e-4 7.5954e-4 9.5644e-4 5.6324e-4 2.6203e-4 0.001244 1.8323e-4 0.001822-2.636e-5l-3.926e-5 -2.2268e-4c-3.5371e-4 3.93e-5 -7.4636e-4 1.047e-4 -0.001099-6.564e-5 -2.8819e-4 -1.4411e-4 -5.504e-4 -5.3715e-4 -6.1591e-4 -8.5156e-4 6.1584e-4 -3.013e-4 0.001153-7.5979e-4 0.001611-0.0011921 4.7162e-4 -4.3233e-4 6.1525e-4 -5.7603e-4 0.001256-2.878e-4l1.0486e-4 -2.4904e-4 -0.002043-9.9575e-4 -1.4364e-4 2.0977e-4c4.3222e-4 2.2266e-4 7.5949e-4 4.585e-4 4.9758e-4 9.3012e-4 -2.7507e-4 5.7633e-4 -7.8607e-4 9.953e-4 -0.001349 0.0012835-2.6207e-4 -9.9548e-4 -2.8825e-4 -0.0020432-3.6687e-4 -0.0031171 7.5972e-4 0 0.001939 5.24e-5 0.002331-7.0738e-4 3.2763e-4 -6.4184e-4 -1.4363e-4 -0.0013628-7.461e-4 -0.0016509-2.7021e-4 -1.3099e-4 -5.4296e-4 -1.9414e-4 -8.0352e-4 -1.9269e-4zm0.007315 8.837e-5 -0.001349 3.9319e-4 0.001716 9.6934e-4zm-0.007075 2.4438e-4c1.1153e-4 1.24e-6 2.2741e-4 2.753e-5 3.4204e-4 8.32e-5l3.928e-5 2.636e-5 5.217e-5 2.636e-5 2.636e-5 2.582e-5 7.855e-5 5.27e-5 2.633e-5 3.929e-5 2.587e-5 2.583e-5 2.633e-5 3.926e-5 2.637e-5 3.979e-5 2.581e-5 3.927e-5 2.637e-5 3.875e-5 1.291e-5 3.928e-5 1.342e-5 3.926e-5 1.292e-5 3.927e-5 1.344e-5 3.927e-5 1.29e-5 3.927e-5 1.292e-5 5.219e-5v7.904e-5l1.344e-5 5.22e-5v7.855e-5l-1.344e-5 5.218e-5v3.928e-5l-1.292e-5 5.269e-5v3.925e-5l-1.29e-5 3.93e-5 -1.344e-5 5.217e-5 -1.292e-5 3.928e-5 -1.342e-5 3.979e-5 -2.585e-5 3.927e-5 -1.292e-5 3.925e-5h-5.3e-7c-3.2744e-4 6.1567e-4 -0.001075 6.5522e-4 -0.001691 6.159e-4 -2.607e-5 -4.3227e-4 3.952e-5 -0.0010088 2.4906e-4 -0.0014017 1.3744e-4 -3.2417e-4 4.3677e-4 -5.4518e-4 7.7285e-4 -5.4162e-4zm-0.049159 1.4831e-4 -2.8832e-4 0.0013627 0.001677-0.0010742zm0.058852 0.0013234-0.001388 2.8831e-4 0.001677 0.0010742zm-0.005477 2.0978e-4s7.254e-5 1.5874e-4 1.4312e-4 4.4335e-4c7.057e-5 2.846e-4 1.3894e-4 6.9483e-4 1.3022e-4 0.0011977-1.6e-6 8.381e-5 -5.26e-6 1.7058e-4 -1.138e-5 2.5938e-4 -1.221e-5 1.776e-4 -3.439e-5 3.6491e-4 -6.926e-5 5.606e-4 -1.741e-5 9.787e-5 -3.784e-5 1.9776e-4 -6.198e-5 2.9967e-4 -2.416e-5 1.0195e-4 -5.164e-5 2.0591e-4 -8.319e-5 3.1158e-4 -3.155e-5 1.057e-4 -6.729e-5 2.1276e-4 -1.0697e-4 3.219e-4 -3.967e-5 1.0914e-4 -8.331e-5 2.1993e-4 -1.3174e-4 3.3225e-4 -9.692e-5 2.2458e-4 -2.1208e-4 4.5552e-4 -3.4827e-4 6.9083e-4 -2.0437e-4 3.5295e-4 -4.5613e-4 7.1637e-4 -7.6469e-4 0.0010867-1.0286e-4 1.2341e-4 -2.1231e-4 2.4783e-4 -3.2812e-4 3.7254e-4 -6.9486e-4 7.4831e-4 -0.001629 0.0015173-0.002878 0.002274-2.0817e-4 1.261e-4 -4.2512e-4 2.5135e-4 -6.5103e-4 3.7668e-4 -3.1924e-4 2.518e-4 -6.4187e-4 5.017e-4 -9.6775e-4 7.4971e-4 -3.259e-4 2.4802e-4 -6.5507e-4 4.942e-4 -9.8706e-4 7.3837e-4 -3.3177e-4 2.4439e-4 -6.6647e-4 4.8727e-4 -0.001003 7.2804e-4 -3.3695e-4 2.4077e-4 -6.7656e-4 4.7953e-4 -0.001018 7.1667e-4 -6.8285e-4 4.743e-4 -0.001375 9.4161e-4 -0.00207 0.0014018-0.001391 9.2072e-4 -0.002803 0.0018139-0.004211 0.0026817-0.002113 0.0013016-0.004215 0.0025454-0.00623 0.0037378-6.7105e-4 3.9749e-4 -0.001332 7.8938e-4 -0.00198 0.0011755-6.4801e-4 3.8632e-4 -0.001283 7.6701e-4 -0.001904 0.0011424-6.1906e-4 3.7544e-4 -0.001223 7.4575e-4 -0.001806 0.0011109-8.7566e-4 5.4762e-4 -0.001709 0.0010838-0.002489 0.0016095-2.5999e-4 1.7522e-4 -5.1431e-4 3.4892e-4 -7.6212e-4 5.2186e-4 -0.001488 0.0010373-0.002751 0.002033-0.003704 0.0029931-1.2446e-4 1.3917e-4 -2.6249e-4 2.8843e-4 -4.0973e-4 4.4902e-4 -5.1525e-4 5.625e-4 -0.001141 0.001266-0.001677 0.0021723-7.652e-5 1.2948e-4 -1.5091e-4 2.6305e-4 -2.2321e-4 4.0095e-4 -4.3352e-4 8.2779e-4 -7.799e-4 0.0018113-9.1248e-4 0.0029901l-0.00161 0.0057639v1.0489e-4l-1.291e-5 7.855e-5 -1.292e-5 1.0489e-4 -1.344e-5 1.178e-4 -2.585e-5 1.3074e-4 -2.634e-5 1.3125e-4 -3.926e-5 1.5705e-4 -5.27e-5 1.7051e-4 -6.513e-5 1.7053e-4 -6.559e-5 1.8291e-4 -9.199e-5 1.8342e-4 -9.145e-5 1.8343e-4 -1.1782e-4 1.8343e-4 -1.3124e-4 1.9633e-4 -1.4416e-4 1.8345e-4 -1.6999e-4 1.8342e-4 -9.196e-5 9.146e-5 -9.146e-5 7.854e-5 -1.0489e-4 9.197e-5 -2.0979e-4 1.5707e-4 -1.1781e-4 7.854e-5 -1.178e-4 7.854e-5 -1.3073e-4 7.854e-5 -1.3124e-4 6.563e-5 -1.4416e-4 6.561e-5 -1.4416e-4 6.51e-5 -1.4415e-4 5.27e-5 -1.5709e-4 6.511e-5 -1.7e-4 5.271e-5 -1.7049e-4 3.927e-5 -1.7052e-4 3.925e-5 -1.9635e-4 3.93e-5 -1.834e-4 2.633e-5 -1.9637e-4 2.585e-5 -2.0978e-4 2.635e-5 -2.0925e-4 1.344e-5 -2.227e-4 1.291e-5h-4.7171e-4l-2.3665e-4 -1.291e-5 -2.6144e-4 -1.344e-5 -2.6198e-4 -2.635e-5 -2.6197e-4 -3.927e-5c-0.001459-1.8667e-4 -0.003016-3.5262e-4 -0.004494-4.0406e-4 -5.5411e-4 -1.934e-5 -0.001097-2.249e-5 -0.00162-4.63e-6 -3.4894e-4 1.191e-5 -6.8935e-4 3.296e-5 -0.001018 6.509e-5 -3.2858e-4 3.212e-5 -6.4529e-4 7.494e-5 -9.4845e-4 1.3022e-4 -1.5139e-4 2.762e-5 -2.9951e-4 5.848e-5 -4.4332e-4 9.248e-5 -1.4398e-4 3.396e-5 -2.8425e-4 7.093e-5 -4.2009e-4 1.116e-4 -1.3586e-4 4.07e-5 -2.677e-4 8.505e-5 -3.9474e-4 1.328e-4 -1.271e-4 4.774e-5 -2.4915e-4 9.929e-5 -3.6686e-4 1.5449e-4 -3.5295e-4 1.656e-4 -6.6215e-4 3.653e-4 -9.1863e-4 6.0453e-4 -8.534e-5 7.976e-5 -1.6487e-4 1.6395e-4 -2.3819e-4 2.5268e-4 -7.325e-5 8.864e-5 -1.406e-4 1.8152e-4 -2.0101e-4 2.7953e-4 -6.043e-5 9.794e-5 -1.142e-4 2.0105e-4 -1.612e-4 3.0848e-4 -4.701e-5 1.0757e-4 -8.7e-5 2.1988e-4 -1.1988e-4 3.3739e-4 -9.864e-5 3.5276e-4 -1.3247e-4 7.5179e-4 -9.197e-5 0.0012012 4.051e-5 4.4951e-4 1.5515e-4 9.5003e-4 3.5292e-4 0.001506 3.15e-5 -8.268e-5 6.774e-5 -1.6138e-4 1.0849e-4 -2.3612e-4 4.077e-5 -7.47e-5 8.629e-5 -1.4537e-4 1.3589e-4 -2.1238e-4 4.962e-5 -6.696e-5 1.0368e-4 -1.3005e-4 1.6174e-4 -1.896e-4 5.806e-5 -5.959e-5 1.1989e-4 -1.1547e-4 1.8601e-4 -1.6796e-4 6.611e-5 -5.247e-5 1.3607e-4 -1.0156e-4 2.0976e-4 -1.4724e-4 1.4757e-4 -9.136e-5 3.1041e-4 -1.6956e-4 4.8624e-4 -2.3561e-4 1.7581e-4 -6.606e-5 3.6501e-4 -1.1962e-4 5.6578e-4 -1.6279e-4 1.0046e-4 -2.155e-5 2.0374e-4 -4.051e-5 3.1005e-4 -5.682e-5 1.0613e-4 -1.63e-5 2.1511e-4 -2.999e-5 3.2655e-4 -4.132e-5 3.3429e-4 -3.404e-5 6.9128e-4 -4.65e-5 0.001066-4.135e-5 0.001749 2.408e-5 0.00388 4.2943e-4 0.00585 7.9937e-4 5.6284e-4 1.0569e-4 0.001113 2.0907e-4 0.001635 2.9917e-4 0.002368 0 0.003381 5.867e-5 0.004626-2.5989e-4 2.0799e-4 -5.311e-5 4.2263e-4 -1.166e-4 6.5101e-4 -1.9273e-4 2.2839e-4 -7.61e-5 4.7061e-4 -1.6499e-4 7.3424e-4 -2.6817e-4 4.2969e-4 -2.8647e-4 8.0924e-4 -5.8561e-4 0.001147-8.9651e-4 8.416e-5 -7.771e-5 1.6551e-4 -1.56e-4 2.4438e-4 -2.3509e-4 7.893e-5 -7.918e-5 1.5564e-4 -1.5914e-4 2.2945e-4 -2.3974e-4 7.387e-5 -8.058e-5 1.4486e-4 -1.6206e-4 2.1391e-4 -2.4391e-4 4.8343e-4 -5.735e-4 8.5249e-4 -0.0011804 0.001144-0.0018146 2.5048e-4 -5.4362e-4 4.4476e-4 -0.0011074 6.0765e-4 -0.0016881 5.425e-5 -1.9352e-4 1.0477e-4 -3.8932e-4 1.5294e-4 -5.8643e-4 1.4441e-4 -5.9144e-4 2.6559e-4 -0.0011984 3.8751e-4 -0.0018171 8.122e-5 -4.126e-4 1.6241e-4 -8.3018e-4 2.5163e-4 -0.0012526 1.3385e-4 -6.3332e-4 2.8536e-4 -0.0012768 4.7794e-4 -0.0019259 2.5676e-4 -8.6529e-4 5.8764e-4 -0.0017412 0.00105-0.0026197 2.3103e-4 -4.3923e-4 4.9463e-4 -8.7923e-4 7.9843e-4 -0.0013185 1.521e-4 -2.196e-4 3.141e-4 -4.3935e-4 4.8725e-4 -6.5878e-4 1.7308e-4 -2.1925e-4 3.5739e-4 -4.3806e-4 5.5339e-4 -6.5671e-4 3.9179e-4 -4.3734e-4 8.3086e-4 -8.734e-4 0.001325-0.0013068 2.4686e-4 -2.1656e-4 5.0726e-4 -4.3267e-4 7.8222e-4 -6.4791e-4 4.1257e-4 -3.2287e-4 8.579e-4 -6.4427e-4 0.00134-9.632e-4 1.6037e-4 -1.063e-4 3.2488e-4 -2.1204e-4 4.9342e-4 -3.1777e-4 0.001004-7.3847e-4 0.002018-0.0014595 0.00304-0.002167 0.001023-7.0744e-4 0.002057-0.0014018 0.003099-0.0020876 5.2057e-4 -3.4287e-4 0.001043-6.8385e-4 0.001567-0.001023 5.246e-4 -3.3924e-4 0.00105-6.77e-4 0.001579-0.0010137 0.001056-6.7354e-4 0.002121-0.0013431 0.003192-0.0020137 0.00321-0.0020115 0.006476-0.0040304 0.009767-0.0061823 5.4858e-4 -3.5868e-4 0.001098-7.2097e-4 0.001647-0.0010876 5.4989e-4 -3.6666e-4 0.001099-7.3715e-4 0.001652-0.0011131 2.9427e-4 -2.4723e-4 5.7153e-4 -4.9013e-4 8.3318e-4 -7.2805e-4 2.6173e-4 -2.3788e-4 5.0772e-4 -4.71e-4 7.3837e-4 -6.9959e-4 2.3068e-4 -2.2856e-4 4.4663e-4 -4.5227e-4 6.4794e-4 -6.7172e-4 6.0363e-4 -6.5845e-4 0.001078-0.0012761 0.001443-0.001854 1.217e-4 -1.9265e-4 2.3084e-4 -3.8083e-4 3.2914e-4 -5.6478e-4 5.8914e-4 -0.0011037 7.6904e-4 -0.0020512 7.0218e-4 -0.0028538-1.116e-5 -1.3376e-4 -2.91e-5 -2.633e-4 -5.321e-5 -3.8907e-4 -2.413e-5 -1.2579e-4 -5.431e-5 -2.4795e-4 -8.99e-5 -3.6584e-4 -3.559e-5 -1.1786e-4 -7.692e-5 -2.3192e-4 -1.2246e-4 -3.4207e-4 -9.107e-5 -2.2021e-4 -2.0052e-4 -4.2459e-4 -3.2244e-4 -6.1436e-4 -6.091e-5 -9.486e-5 -1.2476e-4 -1.8592e-4 -1.9117e-4 -2.7331e-4 -1.9906e-4 -2.6224e-4 -4.1923e-4 -4.9128e-4 -6.4019e-4 -6.8825e-4 -7.363e-5 -6.566e-5 -1.4699e-4 -1.2793e-4 -2.2011e-4 -1.8654e-4 -2.1904e-4 -1.7584e-4 -4.3234e-4 -3.2017e-4 -6.1899e-4 -4.3454e-4 -1.245e-4 -7.626e-5 -2.3721e-4 -1.3913e-4 -3.3226e-4 -1.8913e-4 -1.9007e-4 -9.998e-5 -3.0901e-4 -1.483e-4 -3.087e-4 -1.4775e-4zm-0.055958 1.8291e-4 -1.8341e-4 0.0014017 0.001571-0.0011791zm0.006403 3.98e-5 -0.002187 0.0012835 1.4363e-4 2.8828e-4c6.1583e-4 -3.9287e-4 8.2547e-4 -2.4915e-4 0.001323 6.1539e-4l7.5954e-4 0.0012443-0.002369 0.001441-7.4663e-4 -0.0012576c-4.9773e-4 -8.2515e-4 -5.3678e-4 -0.0011132 6.563e-5 -0.0014669l-1.4418e-4 -2.4905e-4 -0.002173 0.0012969 1.4364e-4 2.7486e-4c6.0248e-4 -3.9288e-4 8.1235e-4 -2.4864e-4 0.001363 6.159e-4l0.00178 0.0029997c5.1085e-4 8.646e-4 5.3733e-4 0.0011138-6.511e-5 0.0014674l1.4416e-4 2.4853e-4 0.002173-0.0012835-1.3125e-4 -2.883e-4c-6.1561e-4 3.9296e-4 -8.2546e-4 2.4895e-4 -0.001363-6.0246e-4l-8.2547e-4 -0.0014013 0.002357-0.0014281 8.6408e-4 0.0013889c4.9771e-4 8.6445e-4 5.3713e-4 0.0011132-7.853e-5 0.0014669l1.4414e-4 2.6196e-4 0.0022-0.0013363-1.5707e-4 -2.4855e-4c-6.0266e-4 3.9301e-4 -8.5171e-4 2.4844e-4 -0.001363-6.03e-4l-0.001782-0.0030124c-5.5013e-4 -8.1218e-4 -5.4991e-4 -0.0011138 6.561e-5 -0.0014674zm0.043234 3.0588e-4c7.521e-5 -2.73e-6 1.5144e-4 7e-8 2.2838e-4 8.24e-6 2.608e-5 0.0011527 1.4426e-4 0.0022658 3.9321e-4 0.0033399-3.6686e-4 1.0477e-4 -7.5976e-4 -7e-8 -0.001113-1.4418e-4l-7.852e-5 -3.926e-5 -7.855e-5 -5.219e-5 -6.563e-5 -3.927e-5 -7.853e-5 -6.563e-5 -6.563e-5 -5.27e-5 -6.51e-5 -5.22e-5 -5.271e-5 -6.561e-5 -5.218e-5 -6.563e-5 -5.27e-5 -7.852e-5 -5.219e-5 -6.511e-5 -5.218e-5 -7.906e-5 -3.928e-5 -7.855e-5 -3.978e-5 -7.851e-5 -2.581e-5 -7.857e-5 -3.93e-5 -7.853e-5 -2.633e-5 -7.854e-5 -1.292e-5 -7.855e-5 -2.633e-5 -9.195e-5 -1.293e-5 -7.856e-5 -1.344e-5 -9.145e-5 -1.29e-5 -9.196e-5v-2.4853e-4l1.29e-5 -9.199e-5 1.344e-5 -9.145e-5 1.293e-5 -7.853e-5 2.633e-5 -7.855e-5 2.585e-5 -9.197e-5 2.637e-5 -7.855e-5 7.851e-5 -1.5706e-4c2.407e-4 -5.043e-4 7.1204e-4 -7.8793e-4 0.001238-8.0698e-4zm0.01427 0.0010824-0.001363 2.227e-4 0.001571 0.0011791zm-0.066386 4.4539e-4 -1.0437e-4 0.0014277 0.001506-0.0012969zm0.068783 0.0015718-0.001401 1.049e-4 0.001508 0.0012835zm-0.071154 4.583e-4 -2.634e-5 0.0014013 0.001467-0.001362zm0.068283 0.0012965-1.7053e-4 2.0977e-4c5.3696e-4 4.7154e-4 4.5848e-4 7.4648e-4 -1.8343e-4 0.0014671l-0.002331 0.0026461c-6.8131e-4 7.5983e-4 -9.3003e-4 8.2539e-4 -0.001428 3.6688e-4l-2.2269e-4 2.0978e-4 0.0019 0.0016895 2.098e-4 -2.227e-4c-5.2458e-4 -4.585e-4 -4.5932e-4 -7.0714e-4 1.9576e-4 -0.0014671l0.001099-0.0012184 0.002082 0.0018601-0.001113 0.0012179c-6.4189e-4 7.598e-4 -8.9054e-4 8.253e-4 -0.001427 3.6682e-4l-1.8343e-4 2.0979e-4 0.0019 0.0017161 2.0978e-4 -2.0977e-4c-5.3937e-4 -4.9784e-4 -5.0012e-4 -7.4594e-4 1.8103e-4 -0.0015058l0.002331-0.0026067c6.4172e-4 -7.5983e-4 8.9143e-4 -8.6461e-4 0.001428-3.6687e-4l2.2271e-4 -2.0977e-4 -0.001939-0.0017288-1.8345e-4 2.6195e-4c5.3698e-4 4.5849e-4 4.7138e-4 7.0725e-4 -2.0975e-4 0.0014278l-9.6951e-4 0.0011125-0.002082-0.0018591 9.6951e-4 -0.0010742c6.5464e-4 -7.5986e-4 9.3003e-4 -8.2529e-4 0.00144-3.6683e-4l2.0977e-4 -2.4906e-4zm0.005123 3.5445e-4 -0.001388 3.928e-5 0.001428 0.0013621zm-0.074216 4.3195e-4 -0.0014 6.511e-5 3.926e-5 0.0014018zm0.003144 6.8102e-4v5.2e-7l-0.003431 0.0032612 2.0926e-4 2.0928e-4c5.3715e-4 -4.7162e-4 7.8578e-4 -3.9282e-4 0.001467 3.2759e-4l0.002397 0.0025411c7.2059e-4 7.0742e-4 7.5968e-4 9.5599e-4 2.6197e-4 0.0014671l2.0925e-4 2.0979e-4 0.001964-0.0018602-2.0978e-4 -2.0925e-4 -6.511e-5 5.216e-5 -5.27e-5 3.928e-5 -5.218e-5 5.22e-5 -5.272e-5 3.977e-5 -5.219e-5 2.584e-5 -5.218e-5 3.928e-5 -5.269e-5 2.634e-5 -3.928e-5 2.636e-5 -5.219e-5 2.584e-5 -3.926e-5 1.344e-5 -5.271e-5 1.29e-5 -3.928e-5 1.293e-5 -3.926e-5 1.343e-5h-9.145e-5l-3.927e-5 -1.343e-5h-3.928e-5l-5.269e-5 -1.293e-5 -3.928e-5 -2.634e-5 -3.927e-5 -1.293e-5 -5.218e-5 -2.634e-5 -3.928e-5 -2.583e-5 -5.27e-5 -2.635e-5 -4.472e-5 -3.942e-5 -3.942e-5 -3.915e-5 -5.263e-5 -3.942e-5 -5.212e-5 -5.266e-5 -5.237e-5 -5.209e-5 -6.561e-5 -5.241e-5 -5.213e-5 -5.264e-5 -6.561e-5 -6.56e-5 -5.263e-5 -6.51e-5 -0.001192-0.0012576 2.8837e-4 -2.4946e-4c4.7161e-4 -4.9772e-4 0.001074-9.9504e-4 0.001862-1.7e-4l1.8343e-4 -1.8342e-4 -0.001793-0.0018601-1.7051e-4 1.7054e-4c6.4172e-4 7.598e-4 3.1418e-4 0.0012574-2.8829e-4 0.0018338l-2.508e-4 2.4875e-4 -0.001074-0.0010742c-6.156e-4 -6.419e-4 -7.9905e-4 -9.2994e-4 -2.2269e-4 -0.0014669 0.001009-9.6934e-4 0.001506-9.696e-4 0.002803-7.6005e-4l6.562e-5 -2.4907e-4 -0.001506-7.0685e-4zm0.071832 0.0010742 0.001363 0.0014669 2.585e-5 -0.0014407zm-0.077102 4.3194e-4 -0.001388 1.3125e-4 1.3126e-4 0.0014013zm0.079105 0.0018606 0.001258 0.0015324 1.4366e-4 -0.0013888zm-0.081069 4.5781e-4 -0.0014017 2.232e-4 2.227e-4 0.0013884zm0.079706 9.0423e-4 -2.4906e-4 1.7e-4c3.9317e-4 5.3713e-4 2.4907e-4 7.8616e-4 -5.3684e-4 0.0013627l-0.002436 0.0017552c-0.001113 8.2514e-4 -0.001178 0.0019775-3.534e-4 0.003078 9.3003e-4 0.0012968 0.001964 0.001441 0.003246 5.11e-4l0.002227-0.0016502c8.2545e-4 -5.764e-4 0.001075-6.1564e-4 0.001508-3.929e-5l2.4854e-4 -1.8343e-4 -0.001217-0.0016374-2.4905e-4 1.7051e-4 3.927e-5 5.218e-5 2.635e-5 5.219e-5 2.586e-5 3.979e-5 2.634e-5 5.218e-5 2.635e-5 3.927e-5 2.585e-5 3.926e-5 1.344e-5 5.219e-5 1.29e-5 3.927e-5 1.291e-5 3.98e-5v3.926e-5l1.345e-5 3.928e-5v7.854e-5l-1.345e-5 2.582e-5 -1.291e-5 3.927e-5v3.98e-5l-2.634e-5 3.926e-5 -1.292e-5 3.928e-5 -2.634e-5 3.927e-5 -2.585e-5 3.926e-5 -2.634e-5 3.925e-5 -1.1782e-4 1.1783e-4 -3.928e-5 5.219e-5 -5.268e-5 3.928e-5 -5.218e-5 3.927e-5 -5.219e-5 5.27e-5 -6.564e-5 5.218e-5 -6.562e-5 3.925e-5 -6.562e-5 5.271e-5 -3.927e-5 2.584e-5 -2.584e-5 2.636e-5 -0.001979 0.0014407c-9.9496e-4 7.0743e-4 -0.002005 0.0012444-0.002867 2.633e-5 -8.1233e-4 -0.0011396-1.0484e-4 -0.0019647 8.6408e-4 -0.0026461l0.002043-0.0014668c7.8608e-4 -5.7619e-4 0.001034-6.4172e-4 0.001508-3.927e-5l2.0979e-4 -1.8343e-4zm0.003223 0.001035 0.001179 0.0016111 2.2269e-4 -0.0014018zm-0.019268 1.8238e-4 -5.4e-7 5.3e-7 -5.11e-4 0.0025019c-0.008698 0.010989-0.027939 0.01171-0.028934 0.028462l3.927e-4 5.7612e-4c9.6951e-4 0.0014015-0.001363 0.0034446-0.001939 0.0044142-0.001258 0.001205-0.001217 0.0020699 0.001428 0.0026067 0 5.7638e-4 -6.572e-5 0.0012575-3.1464e-4 0.0017161 3.923e-5 3.9313e-4 6.81e-4 9.3011e-4 6.81e-4 9.3011e-4 2.8798e-4 3.2743e-4 -2.4896e-4 5.7637e-4 -1.4417e-4 9.6934e-4 1.0477e-4 5.7637e-4 7.4681e-4 3.9322e-4 0.001258 0.0014018-0.001481 0.0063792 0.007912-1.0512e-4 0.009563 0.0055142-6.1559e-4 0.0042965-0.006129 0.0039822-0.008566 0.0075187-0.001939 0.004519 0.001034 0.005987 0.001034 0.006026l3.4051e-4 1.4416e-4 3.4051e-4 1.3124e-4 3.2757e-4 1.1779e-4 3.276e-4 1.049e-4 3.2706e-4 9.146e-5 3.2759e-4 9.144e-5 3.2761e-4 6.564e-5 3.1414e-4 5.271e-5 3.1467e-4 3.926e-5 3.1416e-4 2.581e-5 3.1464e-4 1.344e-5h6.0249e-4l3.0071e-4 -2.634e-5 2.8831e-4 -3.927e-5 2.8882e-4 -3.925e-5 2.8831e-4 -5.273e-5 5.4982e-4 -1.5708e-4 2.7539e-4 -9.143e-5 2.7488e-4 -1.0491e-4 2.6145e-4 -1.1778e-4 2.4956e-4 -1.3127e-4 2.6199e-4 -1.3072e-4 2.356e-4 -1.5759e-4 2.4905e-4 -1.5709e-4 2.3561e-4 -1.6998e-4 2.3561e-4 -1.8343e-4 2.227e-4 -1.8343e-4 2.2322e-4 -2.0978e-4 2.0927e-4 -2.0925e-4 2.0977e-4 -2.2272e-4h-5.2e-7c-0.001979-5.1083e-4 -0.003655 2.8817e-4 -0.005554-0.002542-0.001048-0.006091 0.005619-0.004873 0.009024-0.0079903 0.002436-0.0074925-0.008893-0.0035497-0.00939-0.0062349 0-1.8324e-4 -6.0276e-4 -6.0261e-4 -2.4905e-4 -0.0016765-1.8325e-4 -6.5506e-4 7.868e-5 -0.0010479-7.8608e-4 -0.0016111-2.0954e-4 -8.2538e-4 6.564e-5 -5.7667e-4 1.0489e-4 -7.9937e-4 -2.4876e-4 -7.0743e-4 -7.4716e-4 8e-8 -7.4716e-4 -7.4662e-4 -2.2267e-4 -7.467e-4 1.4401e-4 -0.001074-1.8341e-4 -0.0016502-3.537e-4 -3.537e-4 -0.001861-4.5914e-4 -0.001716-0.0010747 0.00114-0.0020042 0.00194-0.003615 0.001861-0.0031171 1.048e-4 -4.5846e-4 1.048e-4 -6.416e-4 0-0.0011393-3.537e-4 -0.0012968-0.001075-0.0026458 6.0249e-4 -0.0044798 0.001939-0.0090248 0.013373-0.010807 0.019059-0.016583 0.003013-0.0024363 0.007035-0.0035767 0.007493-0.0080173-5.3716e-4 -0.0012968-8.2547e-4 -0.0031175-0.002501-0.0034712zm-0.06552 3.152e-4 -0.0013623 2.878e-4 2.8832e-4 0.001362zm0.0041193 3.3488e-4c-8.1048e-4 1.965e-5 -0.0015881 3.5364e-4 -0.0021475 0.0011068-0.0010741 0.0014933-3.5404e-4 0.0033659 0.0010344 0.0043223l1.3124e-4 9.197e-5 1.3071e-4 9.145e-5 1.4419e-4 7.853e-5 1.3123e-4 7.856e-5 2.8833e-4 1.3121e-4 1.4413e-4 6.564e-5 1.4365e-4 5.218e-5 1.5761e-4 3.927e-5 2.8831e-4 7.854e-5 1.5708e-4 2.634e-5 1.4415e-4 1.29e-5 1.5707e-4 1.344e-5 1.4415e-4 1.293e-5h1.5708e-4l1.4419e-4 -1.293e-5 1.4414e-4 -1.344e-5 1.5708e-4 -2.581e-5 2.8833e-4 -7.854e-5 1.3122e-4 -3.977e-5 1.4417e-4 -6.511e-5 1.3072e-4 -5.27e-5 1.3125e-4 -7.856e-5 1.3071e-4 -7.852e-5 1.3124e-4 -9.146e-5 2.3564e-4 -2.0978e-4 1.1778e-4 -1.1781e-4 1.049e-4 -1.3123e-4 1.0489e-4 -1.3073e-4h-5.4e-7c0.001114-0.0015065 4.5851e-4 -0.0032878-9.6933e-4 -0.0042965-6.8114e-4 -5.0426e-4 -0.001522-7.9881e-4 -0.002332-7.7917e-4zm-6.3711e-4 6.5312e-4c8.1048e-4 4.21e-6 0.0017232 4.8627e-4 0.0023286 9.1204e-4 9.5626e-4 6.8112e-4 0.002292 0.0020826 0.001388 0.0033269l-3.926e-5 6.562e-5 -3.926e-5 5.218e-5 -3.926e-5 3.926e-5 -5.273e-5 5.271e-5 -9.145e-5 9.145e-5 -5.217e-5 2.637e-5 -5.272e-5 3.926e-5 -5.219e-5 3.926e-5 -3.926e-5 2.635e-5 -6.564e-5 2.585e-5 -5.216e-5 2.633e-5 -1.0491e-4 3.928e-5 -1.1779e-4 3.929e-5 -1.1834e-4 2.634e-5 -2.3561e-4 2.582e-5h-2.4906e-4l-1.3072e-4 -1.291e-5 -1.3124e-4 -2.633e-5 -1.3071e-4 -2.586e-5 -1.3124e-4 -2.635e-5 -1.1782e-4 -3.929e-5 -1.3071e-4 -3.926e-5 -1.3126e-4 -3.926e-5 -1.1781e-4 -5.271e-5 -1.3123e-4 -5.219e-5 -1.1779e-4 -5.218e-5 -1.1783e-4 -5.27e-5 -1.1779e-4 -6.512e-5 -1.1781e-4 -6.562e-5 -1.0489e-4 -5.271e-5 -1.0491e-4 -6.508e-5 -1.0487e-4 -6.564e-5 -9.146e-5 -6.56e-5 -9.195e-5 -6.565e-5 -9.148e-5 -6.508e-5c-9.3003e-4 -6.4185e-4 -0.0022141-0.0020831-0.0013623-0.0033013 3.2422e-4 -4.5677e-4 7.7343e-4 -6.2619e-4 0.001261-6.2347e-4zm0.083031 0.0010169 0.001113 0.0016497 2.8832e-4 -0.001362zm-0.088195 5.1051e-4 -0.0013623 3.5341e-4 3.6685e-4 0.0013627zm0.089774 0.0021091 9.9496e-4 0.0017161 3.6685e-4 -0.0013627zm-0.091353 4.9708e-4 -0.001336 4.7121e-4 4.7123e-4 0.0013234zm0.089809 5.3733e-4 -2.8829e-4 1.0439e-4c3.276e-4 6.8112e-4 1.4451e-4 8.6476e-4 -7.4611e-4 0.0012969l-0.003197 0.0014671c-8.9055e-4 4.3219e-4 -0.00114 3.9339e-4 -0.001469-2.4853e-4l-2.4903e-4 1.0437e-4 8.6407e-4 0.0018994 2.8832e-4 -1.0488e-4c-3.274e-4 -6.4192e-4 -1.4385e-4 -8.6421e-4 7.4687e-4 -0.0012964l0.003982-0.0018203v3.928e-5l-0.00444 0.0044664 1.4364e-4 2.8832e-4 0.006261-4.3196e-4v3.927e-5l-0.003944 0.0018339c-8.9054e-4 3.9297e-4 -0.00114 3.9231e-4 -0.001469-2.8885e-4l-2.4851e-4 1.4418e-4 0.001075 0.0023186 2.8831e-4 -1.0487e-4 -2.585e-5 -5.218e-5 -2.635e-5 -6.564e-5 -2.635e-5 -5.219e-5 -2.585e-5 -5.27e-5 -1.343e-5 -5.219e-5 -1.292e-5 -3.925e-5 -1.344e-5 -5.219e-5 -1.29e-5 -3.927e-5v-1.3125e-4l1.29e-5 -3.926e-5v-3.928e-5l1.344e-5 -3.925e-5 1.292e-5 -2.636e-5 2.633e-5 -3.927e-5 1.292e-5 -3.929e-5 2.635e-5 -2.634e-5 3.928e-5 -3.925e-5 2.634e-5 -3.928e-5 3.926e-5 -2.584e-5 5.22e-5 -3.927e-5 3.925e-5 -2.637e-5 5.271e-5 -3.927e-5 5.219e-5 -3.924e-5 5.217e-5 -2.635e-5 6.565e-5 -3.928e-5 6.561e-5 -3.928e-5 3.926e-5 -1.292e-5 3.928e-5 -1.341e-5 3.926e-5 -2.584e-5 3.928e-5 -1.344e-5 3.927e-5 -2.634e-5 3.926e-5 -1.291e-5 3.928e-5 -2.635e-5 3.928e-5 -1.291e-5 0.003197-0.0014665c8.9054e-4 -4.3223e-4 0.00114-3.9337e-4 0.001469 2.4852e-4l2.4603e-4 -1.0318e-4 -8.2546e-4 -0.0017946-0.005554 3.9269e-4 0.003903-0.0039424-7.8608e-4 -0.0017552-5.3e-7 -5.1e-7zm0.002974 0.0016505 8.9055e-4 0.0017552 4.7176e-4 -0.0013234zm-0.094178 5.3684e-4 -0.0012969 4.9759e-4 5.3736e-4 0.0013234zm0.0026197 0.0013227-0.0019774 0.004768 0.0012965 0.0012179 1.7051e-4 -1.8292e-4c-5.6323e-4 -6.419e-4 -9.2994e-4 -0.0016115-5.632e-4 -0.0024368 2.4888e-4 -5.7636e-4 6.8091e-4 -2.4835e-4 0.0011001-6.509e-5l0.0034444 0.0014277c9.3003e-4 3.9317e-4 0.0011134 5.7663e-4 7.8592e-4 0.0013234l2.8832e-4 1.4363e-4 0.001035-0.0025411-2.4905e-4 -1.4364e-4 -2.583e-5 7.854e-5 -2.633e-5 6.51e-5 -3.929e-5 6.562e-5 -2.635e-5 5.27e-5 -2.635e-5 5.218e-5 -3.927e-5 5.219e-5 -2.583e-5 3.927e-5 -2.635e-5 3.927e-5 -3.93e-5 3.979e-5 -3.927e-5 3.927e-5 -2.633e-5 2.586e-5 -7.855e-5 5.268e-5 -7.852e-5 2.583e-5 -3.927e-5 1.342e-5 -3.927e-5 1.293e-5h-1.4734e-4l-5.222e-5 -1.293e-5h-5.268e-5l-5.218e-5 -1.342e-5 -5.273e-5 -1.292e-5 -6.509e-5 -2.634e-5 -6.562e-5 -1.292e-5 -6.563e-5 -2.633e-5 -6.56e-5 -2.586e-5 -7.855e-5 -2.636e-5 -6.562e-5 -3.925e-5 -7.853e-5 -2.635e-5 -9.148e-5 -3.928e-5 -0.0034307-0.0014281c-4.3226e-4 -1.8325e-4 -9.6916e-4 -2.8824e-4 -7.5955e-4 -8.2515e-4 3.6678e-4 -8.253e-4 0.0012969-0.0012833 0.002161-0.001362v-2.0993e-4zm0.066019 4.3249e-4 -1.58e-6 1.05e-6 1.58e-6 1.6e-6zm0 2.65e-6c2.9e-7 3.58e-6 2.437e-5 2.577e-4 -2.015e-5 6.8513e-4 -6.164e-5 5.918e-4 -2.544e-4 0.0015116-8.2236e-4 0.0025411-5.165e-5 9.358e-5 -1.0679e-4 1.878e-4 -1.6483e-4 2.8314e-4 -5.805e-5 9.526e-5 -1.1916e-4 1.9124e-4 -1.8395e-4 2.8781e-4 -6.479e-5 9.659e-5 -1.332e-4 1.939e-4 -2.0513e-4 2.9143e-4 -7.192e-5 9.761e-5 -1.4738e-4 1.9623e-4 -2.2683e-4 2.9452e-4 -7.941e-5 9.827e-5 -1.628e-4 1.9687e-4 -2.5009e-4 2.9556e-4 -8.724e-5 9.862e-5 -1.783e-4 1.9738e-4 -2.7384e-4 2.9604e-4 -1.9105e-4 1.9734e-4 -3.9861e-4 3.9414e-4 -6.247e-4 5.8955e-4 -2.261e-4 1.9544e-4 -4.7074e-4 3.8891e-4 -7.3477e-4 5.7975e-4 -1.3203e-4 9.547e-5 -2.692e-4 1.9034e-4 -4.113e-4 2.8418e-4 -2.8418e-4 1.8771e-4 -5.8891e-4 3.7187e-4 -9.1599e-4 5.5132e-4 -6.5334e-4 3.5867e-4 -0.001295 7.2799e-4 -0.001923 0.0011006-3.1353e-4 1.8633e-4 -6.2305e-4 3.7359e-4 -9.2827e-4 5.606e-4 -0.003355 0.0020586-0.006155 0.0041115-0.007517 0.0049587-1.2385e-4 7.702e-5 -2.3593e-4 1.4417e-4 -3.3536e-4 2.0048e-4 -9.941e-5 5.619e-5 -1.863e-4 1.018e-4 -2.599e-4 1.3536e-4 -1.1625e-4 5.238e-5 -2.516e-4 1.3486e-4 -3.9941e-4 2.4233e-4 -7.387e-5 5.376e-5 -1.507e-4 1.1397e-4 -2.2994e-4 1.7931e-4 -2.3791e-4 1.9599e-4 -4.964e-4 4.405e-4 -7.5333e-4 7.146e-4 -8.565e-5 9.132e-5 -1.7125e-4 1.8601e-4 -2.5576e-4 2.8315e-4 -1.6895e-4 1.9409e-4 -3.34e-4 3.984e-4 -4.8828e-4 6.0662e-4 -1.5442e-4 2.0818e-4 -2.9808e-4 4.202e-4 -4.2475e-4 6.3089e-4 -2.5351e-4 4.2133e-4 -4.3841e-4 8.3557e-4 -5.0221e-4 0.001196-1.597e-5 9.013e-5 -2.48e-5 1.7729e-4 -2.48e-5 2.5989e-4 0 0-6.299e-5 2.1698e-4 -1.5346e-4 5.5182e-4 -4.523e-5 1.6742e-4 -9.688e-5 3.6428e-4 -1.5138e-4 5.7817e-4 -1.9067e-4 7.4894e-4 -4.1082e-4 0.0017071-4.6969e-4 0.0023438-8.38e-6 9.096e-5 -1.374e-5 1.7534e-4 -1.497e-5 2.5163e-4 -2.67e-6 1.5259e-4 1.013e-5 2.7247e-4 4.289e-5 3.4771e-4 1.4738e-4 4.0936e-4 3.0506e-4 8.5481e-4 2.8108e-4 0.0012816-1.204e-5 2.1332e-4 -6.948e-5 4.2218e-4 -1.9636e-4 6.1952e-4 -2.537e-5 3.944e-5 -5.362e-5 7.829e-5 -8.472e-5 1.1677e-4l-0.00127 0.0013491s-3.3288e-4 1.5838e-4 -3.7459e-4 4.8519e-4c-4.16e-6 3.268e-5 -5.41e-6 6.727e-5 -3.12e-6 1.0333e-4 1.145e-5 1.8029e-4 1.1164e-4 4.0301e-4 3.7771e-4 6.6914e-4 0 0 7.918e-5 -7e-8 2.0203e-4 5.68e-6 1.8419e-4 8.61e-6 4.6619e-4 2.998e-5 7.2391e-4 8.37e-5 2.1484e-4 4.48e-5 4.1269e-4 1.1206e-4 5.2391e-4 2.1288e-4 2.226e-5 2.016e-5 4.108e-5 4.165e-5 5.583e-5 6.46e-5 3.273e-5 4.912e-5 5.382e-5 1.0276e-4 6.716e-5 1.6017e-4 6.676e-5 2.8704e-4 -6.454e-5 6.6845e-4 4.701e-5 0.0010551 2.231e-5 7.737e-5 5.447e-5 1.5495e-4 9.973e-5 2.3201e-4 2.265e-5 3.854e-5 4.831e-5 7.705e-5 7.801e-5 1.1523e-4 2.972e-5 3.818e-5 6.311e-5 7.603e-5 1.0077e-4 1.1368e-4 7.529e-5 7.203e-5 1.1165e-4 1.2885e-4 1.2556e-4 1.8085e-4 6.95e-6 2.599e-5 8.14e-6 5.081e-5 6.18e-6 7.594e-5 -1.84e-6 2.511e-5 -7.4e-6 5.05e-5 -1.392e-5 7.751e-5 -6.54e-6 2.7e-5 -1.436e-5 5.565e-5 -2.121e-5 8.732e-5 -1.371e-5 6.333e-5 -2.325e-5 1.3864e-4 -1.241e-5 2.3718e-4 5.44e-6 4.927e-5 1.56e-5 1.0415e-4 3.361e-5 1.6636e-4 2.618e-5 1.2443e-4 3.961e-5 2.18e-4 5.578e-5 2.976e-4 8.13e-6 3.983e-5 1.68e-5 7.598e-5 2.843e-5 1.1111e-4 2.327e-5 7.026e-5 5.759e-5 1.3585e-4 1.1934e-4 2.1341e-4 9.264e-5 1.1641e-4 2.4713e-4 2.6051e-4 5.1723e-4 4.9136e-4 1.8668e-4 1.5061e-4 2.9437e-4 2.6344e-4 3.4982e-4 3.5601e-4 1.386e-5 2.31e-5 2.483e-5 4.529e-5 3.255e-5 6.614e-5 1.541e-5 4.166e-5 1.888e-5 7.895e-5 1.446e-5 1.1471e-4 -2.11e-6 1.787e-5 -6.47e-6 3.552e-5 -1.241e-5 5.27e-5 -3.56e-5 1.0316e-4 -1.3071e-4 1.9868e-4 -1.984e-4 3.4515e-4 -2.254e-5 4.882e-5 -4.218e-5 1.0363e-4 -5.527e-5 1.6587e-4 -1.639e-5 6.387e-5 -4.202e-5 1.4441e-4 -6.872e-5 2.382e-4 -2.672e-5 9.371e-5 -5.457e-5 2.0018e-4 -7.544e-5 3.1465e-4 -2.088e-5 1.1451e-4 -3.472e-5 2.3749e-4 -3.36e-5 3.6375e-4 5.4e-7 6.315e-5 4.89e-6 1.2676e-4 1.393e-5 1.9119e-4 9.12e-6 6.438e-5 2.324e-5 1.2934e-4 4.29e-5 1.9375e-4 3.929e-5 1.2894e-4 1.0175e-4 2.5679e-4 1.953e-4 3.7927e-4 4.682e-5 6.129e-5 1.0139e-4 1.213e-4 1.6484e-4 1.7929e-4 6.342e-5 5.8e-5 1.3546e-4 1.1436e-4 2.1754e-4 1.6793e-4 8.208e-5 5.358e-5 1.742e-4 1.0441e-4 2.7694e-4 1.5243e-4 2.0554e-4 9.603e-5 4.542e-4 1.7989e-4 7.544e-4 2.4699e-4 1.5011e-4 3.351e-5 3.1288e-4 6.276e-5 4.8982e-4 8.731e-5 1.7929e-4 2.212e-5 3.574e-4 3.854e-5 5.3376e-4 5.011e-5 5.2918e-4 3.476e-5 0.001043 2.49e-5 0.001535-1.239e-5 1.6362e-4 -1.244e-5 3.2448e-4 -2.757e-5 4.8258e-4 -4.548e-5 7.8995e-4 -8.957e-5 0.001508-2.3982e-4 0.002106-3.7199e-4 5.9905e-4 -1.3222e-4 0.001081-2.4671e-4 0.001405-2.6405e-4 6.464e-5 -3.48e-6 1.2306e-4 -2.84e-6 1.7463e-4 2.12e-6 2.7106e-4 3.111e-5 5.2786e-4 6.304e-5 7.7094e-4 9.611e-5 2.4304e-4 3.303e-5 4.7284e-4 6.73e-5 6.8979e-4 1.0231e-4 6.5124e-4 1.0502e-4 0.001191 2.1887e-4 0.001642 3.4152e-4 3.0114e-4 8.183e-5 5.6357e-4 1.6754e-4 7.9534e-4 2.5731e-4 1.1584e-4 4.49e-5 2.2422e-4 9.06e-5 3.2554e-4 1.3745e-4 1.0134e-4 4.688e-5 1.9543e-4 9.479e-5 2.8418e-4 1.4365e-4 1.7741e-4 9.773e-5 3.3173e-4 1.9965e-4 4.702e-4 3.0537e-4 1.3848e-4 1.0576e-4 2.6129e-4 2.1522e-4 3.7616e-4 3.2913e-4 5.74e-5 5.692e-5 1.1302e-4 1.1517e-4 1.6739e-4 1.7413e-4 1.0877e-4 1.1791e-4 2.134e-4 2.4026e-4 3.2141e-4 3.6636e-4 2.6607e-4 3.1103e-4 0.001047 8.1518e-4 0.002094 0.0012359 2.0953e-4 8.415e-5 4.2952e-4 1.6457e-4 6.5829e-4 2.3975e-4 4.5731e-4 1.5054e-4 9.4933e-4 2.7953e-4 0.001459 3.6789e-4 1.2761e-4 2.21e-5 2.5645e-4 4.205e-5 3.86e-4 5.888e-5 2.594e-4 3.369e-5 5.2185e-4 5.583e-5 7.8607e-4 6.512e-5 5.2913e-4 1.857e-5 0.001065-1.591e-5 0.001591-1.2141e-4 2.6323e-4 -5.275e-5 5.2384e-4 -1.2306e-4 7.799e-4 -2.134e-4 3.8458e-4 -1.3562e-4 7.5983e-4 -3.1598e-4 0.001118-5.4874e-4 2.3886e-4 -1.5518e-4 4.703e-4 -3.339e-4 6.9238e-4 -5.3788e-4 2.221e-4 -2.04e-4 4.3525e-4 -4.3336e-4 6.3657e-4 -6.903e-4 4.0287e-4 -5.1087e-4 7.4103e-4 -9.3503e-4 0.001027-0.0012861 2.8514e-4 -3.5107e-4 5.1709e-4 -6.2874e-4 7.0376e-4 -8.4739e-4 1.5589e-4 -1.8253e-4 2.6433e-4 -3.0296e-4 3.6376e-4 -4.1075e-4l-6.459e-5 1.599e-5 -1.0489e-4 3.928e-5 -1.3071e-4 3.925e-5 -1.3125e-4 3.928e-5 -1.4415e-4 3.929e-5 -1.5709e-4 3.924e-5 -1.5707e-4 3.928e-5 -1.705e-4 3.926e-5 -1.8294e-4 3.928e-5 -1.8342e-4 3.926e-5 -1.8344e-4 3.929e-5 -1.9633e-4 3.924e-5 -1.9687e-4 3.929e-5 -1.9634e-4 2.633e-5 -2.0926e-4 2.635e-5 -1.9634e-4 2.636e-5 -2.098e-4 1.291e-5 -2.0926e-4 1.29e-5h-4.1887e-4l-2.0978e-4 -1.29e-5 -2.0928e-4 -1.291e-5 -1.9633e-4 -2.636e-5 -2.0979e-4 -3.924e-5 -1.9633e-4 -3.928e-5 -1.9634e-4 -5.271e-5 -1.8344e-4 -6.51e-5 -1.8341e-4 -7.905e-5 -1.8344e-4 -7.854e-5c-5.7314e-4 -3.0459e-4 -0.001087-5.6832e-4 -0.00155-7.9727e-4 -9.2651e-4 -4.5793e-4 -0.001648-7.7605e-4 -0.002224-0.0010014-5.7711e-4 -2.2534e-4 -0.00101-3.5775e-4 -0.001358-4.4384e-4 -3.4876e-4 -8.616e-5 -6.1314e-4 -1.2655e-4 -8.5404e-4 -1.6686e-4 -1.205e-4 -2.018e-5 -2.3496e-4 -3.995e-5 -3.5134e-4 -6.617e-5 -1.2606e-4 -3.111e-5 -2.6526e-4 -6.074e-5 -4.1953e-4 -8.629e-5 -6.9371e-4 -1.1491e-4 -0.001687-1.5012e-4 -0.003113 1.044e-4 -1.5865e-4 2.827e-5 -3.2237e-4 6.038e-5 -4.9191e-4 9.61e-5 -1.6956e-4 3.571e-5 -3.4453e-4 7.511e-5 -5.2549e-4 1.1882e-4 -5.4248e-4 1.3119e-4 -0.001136 3.0008e-4 -0.001788 5.1361e-4 -2.1695e-4 6.959e-5 -4.198e-4 1.2865e-4 -6.0971e-4 1.788e-4 -3.798e-4 1.0023e-4 -7.0773e-4 1.6383e-4 -9.8969e-4 1.9839e-4 -1.4123e-4 1.727e-5 -2.7101e-4 2.718e-5 -3.9064e-4 3.102e-5 -3.5868e-4 1.151e-5 -6.2412e-4 -3.299e-5 -8.2083e-4 -1.0594e-4 -6.542e-5 -2.431e-5 -1.2316e-4 -5.195e-5 -1.7414e-4 -8.163e-5 -5.094e-5 -2.969e-5 -9.499e-5 -6.154e-5 -1.333e-4 -9.458e-5 -2.6819e-4 -2.3102e-4 -2.4801e-4 -5.1874e-4 -2.4801e-4 -5.1874e-4 0-8.841e-5 1.156e-5 -2.4048e-4 1.913e-5 -4.1801e-4 1.325e-5 -3.1048e-4 1.427e-5 -7.0068e-4 -7.855e-5 -9.7197e-4 -1.324e-5 -3.874e-5 -2.811e-5 -7.467e-5 -4.546e-5 -1.0797e-4 -3.468e-5 -6.665e-5 -7.839e-5 -1.2122e-4 -1.3227e-4 -1.5915e-4 -2.697e-5 -1.897e-5 -5.639e-5 -3.385e-5 -8.889e-5 -4.393e-5 -3.247e-5 -1.005e-5 -6.796e-5 -1.55e-5 -1.0642e-4 -1.55e-5 -6.715e-5 -2.37e-6 -1.2809e-4 -7.6e-6 -1.8344e-4 -1.55e-5 -5.535e-5 -7.91e-6 -1.0473e-4 -1.838e-5 -1.4933e-4 -3.1e-5 -4.458e-5 -1.262e-5 -8.399e-5 -2.787e-5 -1.1883e-4 -4.445e-5 -6.969e-5 -3.316e-5 -1.2087e-4 -7.327e-5 -1.576e-4 -1.178e-4 -5.509e-5 -6.679e-5 -7.793e-5 -1.4314e-4 -8.162e-5 -2.1856e-4 -4.93e-6 -1.0069e-4 2.383e-5 -1.9957e-4 5.372e-5 -2.7386e-4 2.987e-5 -7.428e-5 6.097e-5 -1.2349e-4 6.097e-5 -1.2349e-4l-6.563e-5 -1.8342e-4c-1.0312e-4 -1.803e-5 -1.8654e-4 -4.492e-5 -2.5266e-4 -7.804e-5 -3.304e-5 -1.656e-5 -6.173e-5 -3.434e-5 -8.681e-5 -5.373e-5 -5.014e-5 -3.884e-5 -8.507e-5 -8.318e-5 -1.0849e-4 -1.2969e-4 -1.2888e-4 -2.5583e-4 9.403e-5 -5.9009e-4 9.403e-5 -5.9009e-4 -1.145e-5 -7.86e-5 -2.435e-5 -1.498e-4 -3.772e-5 -2.1495e-4 -1.338e-5 -6.524e-5 -2.766e-5 -1.2452e-4 -4.288e-5 -1.7775e-4 -3.05e-5 -1.0642e-4 -6.466e-5 -1.9005e-4 -1.0232e-4 -2.5628e-4 -3.765e-5 -6.631e-5 -7.855e-5 -1.1506e-4 -1.2297e-4 -1.519e-4 -8.881e-5 -7.366e-5 -1.9081e-4 -9.921e-5 -3.0432e-4 -1.1885e-4 -5.671e-5 -9.81e-6 -1.1606e-4 -1.818e-5 -1.7827e-4 -3.048e-5 -6.223e-5 -1.225e-5 -1.2741e-4 -2.836e-5 -1.948e-4 -5.372e-5 -6.734e-5 -2.539e-5 -1.3669e-4 -5.992e-5 -2.0876e-4 -1.0904e-4 -7.043e-5 -4.422e-5 -1.3519e-4 -9.337e-5 -1.9321e-4 -1.4623e-4 -2.3183e-4 -2.1142e-4 -3.5933e-4 -4.8563e-4 -3.4466e-4 -7.7405e-4 3.69e-6 -7.207e-5 1.626e-5 -1.449e-4 3.825e-5 -2.1801e-4 4.4e-5 -1.4614e-4 1.2611e-4 -2.9276e-4 2.5062e-4 -4.3354e-4 8.511e-5 -9.416e-5 1.6195e-4 -1.8714e-4 2.3145e-4 -2.7849e-4 6.956e-5 -9.139e-5 1.3171e-4 -1.8152e-4 1.8705e-4 -2.6971e-4 1.1068e-4 -1.7638e-4 1.9438e-4 -3.4574e-4 2.5628e-4 -5.0687e-4 9.303e-5 -2.4171e-4 1.3759e-4 -4.6484e-4 1.5191e-4 -6.6294e-4 3.346e-5 -4.6227e-4 -9.693e-5 -7.9048e-4 -1.5656e-4 -9.1354e-4 -1.704e-5 -3.514e-5 -2.842e-5 -5.372e-5 -2.842e-5 -5.372e-5 -1.4734e-4 -7.5316e-4 -8.185e-5 -0.0014706 1.5399e-4 -0.0021577 5.896e-5 -1.7179e-4 1.2865e-4 -3.4129e-4 2.0823e-4 -5.0948e-4 3.979e-5 -8.406e-5 8.185e-5 -1.68e-4 1.2658e-4 -2.5114e-4 4.472e-5 -8.315e-5 9.21e-5 -1.6567e-4 1.4158e-4 -2.48e-4 1.979e-4 -3.2933e-4 4.3342e-4 -6.5172e-4 7.0063e-4 -9.6828e-4 6.6857e-4 -7.9125e-4 0.001538-0.0015451 0.002524-0.0022729 3.9505e-4 -2.9107e-4 8.0847e-4 -5.7823e-4 0.001236-8.6183e-4 2.139e-4 -1.4181e-4 4.3102e-4 -2.8246e-4 6.5102e-4 -4.2267e-4 8.8002e-4 -5.6076e-4 0.001805-0.0011096 0.002731-0.0016524 9.2652e-4 -5.4267e-4 0.001857-0.0010791 0.002745-0.0016157 4.4417e-4 -2.682e-4 8.7914e-4 -5.3624e-4 0.001298-8.05e-4 4.1905e-4 -2.6892e-4 8.2237e-4 -5.3843e-4 0.001206-8.097e-4 1.9162e-4 -1.3556e-4 3.7848e-4 -2.7181e-4 5.5907e-4 -4.082e-4 5.419e-4 -4.0915e-4 0.001031-8.2215e-4 0.001452-0.0012422 1.3999e-4 -1.3961e-4 2.7078e-4 -2.7857e-4 3.927e-4 -4.1647e-4 1.2181e-4 -1.3798e-4 2.3489e-4 -2.7511e-4 3.3946e-4 -4.1129e-4 1.0452e-4 -1.3622e-4 2.0013e-4 -2.7152e-4 2.8831e-4 -4.0563e-4 8.811e-5 -1.3424e-4 1.6866e-4 -2.6771e-4 2.4131e-4 -3.9992e-4 7.261e-5 -1.3212e-4 1.3738e-4 -2.6278e-4 1.953e-4 -3.9268e-4 5.8e-5 -1.2983e-4 1.0917e-4 -2.5872e-4 1.5345e-4 -3.8596e-4 4.428e-5 -1.2734e-4 8.174e-5 -2.5316e-4 1.1317e-4 -3.7772e-4 3.144e-5 -1.2466e-4 5.699e-5 -2.4825e-4 7.647e-5 -3.6995e-4 3.9e-5 -2.4362e-4 5.46e-5 -4.8131e-4 5.115e-5 -7.1256e-4 -1.86e-6 -1.1556e-4 -8.14e-6 -2.2932e-4 -1.913e-5 -3.4152e-4 -1.1e-5 -1.1219e-4 -2.66e-5 -2.2262e-4 -4.599e-5 -3.3122e-4 -1.938e-5 -1.0862e-4 -4.236e-5 -2.154e-4 -6.921e-5 -3.2032e-4 -2.69e-5 -1.0491e-4 -5.748e-5 -2.0805e-4 -9.097e-5 -3.0902e-4 -1.0041e-4 -3.0285e-4 -2.2821e-4 -5.8764e-4 -3.7198e-4 -8.5201e-4 -4.796e-5 -8.817e-5 -9.785e-5 -1.7424e-4 -1.4883e-4 -2.5786e-4 -1.0194e-4 -1.6706e-4 -2.0902e-4 -3.2484e-4 -3.1778e-4 -4.7226e-4 -2.2083e-4 -2.9525e-4 -4.4503e-4 -5.4986e-4 -6.471e-4 -7.5787e-4 -2.0209e-4 -2.0799e-4 -3.8202e-4 -3.6978e-4 -5.1153e-4 -4.795e-4 -1.2845e-4 -1.0884e-4 -2.0544e-4 -1.6493e-4 -2.0669e-4 -1.6587e-4zm0.026839 4.6914e-4 7.8609e-4 0.0018208 4.9808e-4 -0.0013234zm-0.096697 5.3686e-4 -0.0012965 6.0247e-4 6.1539e-4 0.0012835zm0.097793 0.0022927 6.8102e-4 0.0018597 5.761e-4 -0.0012572zm-0.098872 5.6269e-4 -0.0012576 6.8103e-4 6.8101e-4 0.0012183zm0.099803 0.0023318 5.7665e-4 0.0018994 6.5465e-4 -0.0012572zm-0.008411 5.3736e-4 -2.883e-4 7.855e-5 6.0246e-4 0.0022135 2.883e-4 -6.564e-5c-1.0477e-4 -3.6683e-4 -1.7016e-4 -8.2523e-4 2.883e-4 -9.6933e-4 2.4896e-4 -3.93e-5 9.6951e-4 2.635e-5 0.001258 2.635e-5l3.5341e-4 3.928e-5 6.1589e-4 0.0021876-9.6951e-4 6.4175e-4c-1.0475e-4 1.0475e-4 -3.5391e-4 2.4899e-4 -5.1099e-4 3.2759e-4 -4.5849e-4 1.0476e-4 -4.9769e-4 -4.719e-4 -6.0246e-4 -7.6008e-4l-2.883e-4 7.855e-5 6.8099e-4 0.0025411 2.883e-4 -6.561e-5c-3.927e-5 -2.2267e-4 -3.911e-5 -4.3199e-4 1.0489e-4 -6.5466e-4 1.8343e-4 -2.884e-4 8.2547e-4 -7.0738e-4 0.001153-9.3012e-4l0.004255-0.0028553-4.3196e-4 -7.6004e-4 -0.005162-2.4854e-4c-6.4191e-4 -3.924e-5 -0.001428-7.85e-5 -0.001635-8.2495e-4zm-0.092283 3.876e-5 -0.0012183 7.4663e-4 7.4662e-4 0.0011791zm0.0029979 6.615e-5 -4.1903e-4 0.0020431 2.883e-4 3.926e-5c1.3097e-4 -6.8111e-4 4.1907e-4 -7.595e-4 0.001388-5.3683e-4l0.003262 6.8097e-4 -0.0054748 0.002397-3.276e-4 0.001506 3.276e-4 6.562e-5c1.31e-4 -7.0742e-4 3.7963e-4 -7.8584e-4 0.0013623-5.6321e-4l0.0034308 7.0736e-4c9.6924e-4 2.2266e-4 0.0011791 3.5385e-4 0.001035 0.0010742l2.8831e-4 7.854e-5 4.3195e-4 -0.0020435-3.1417e-4 -7.854e-5c-1.5718e-4 7.2058e-4 -4.0627e-4 7.5935e-4 -0.0013623 5.761e-4l-0.0038377-8.2516e-4 0.0061293-0.0026853 6.509e-5 -2.8779e-4 -0.0049385-0.001035c-9.6986e-4 -1.8362e-4 -0.0011926-3.5349e-4 -0.0010485-0.0010346zm0.092213 0.0012179 0.003183 1.8344e-4 -0.002645 0.0017946zm0.006236 0.0010742 4.7173e-4 0.0019387 7.4666e-4 -0.0011791zm-0.10221 6.154e-4 -0.0011393 7.8592e-4 8.1225e-4 0.0011393zm0.10281 0.0023576 3.6685e-4 0.0019779 7.8607e-4 -0.0011528zm-0.10339 6.154e-4 -0.0010742 8.9081e-4 8.6446e-4 0.0010742zm0.10143 5.3735e-4c6.553e-5 7.0745e-4 -1.4411e-4 8.5141e-4 -0.001113 9.6934e-4l-0.00351 3.4048e-4c-9.9495e-4 7.848e-5 -0.001217-2.621e-5 -0.001283-7.4666e-4l-3.2759e-4 3.931e-5 2.2267e-4 0.0020699 2.7387e-4 -2.637e-5c-5.645e-5 -7.2036e-4 1.9721e-4 -8.2662e-4 0.001154-9.3003e-4l0.003904-4.0612e-4 -0.005056 0.0044142 3.927e-5 2.883e-4 0.005016-4.7175e-4c9.6951e-4 -1.0476e-4 0.001217 5.3e-7 0.001283 7.208e-4l2.8831e-4 -3.926e-5 -1.8341e-4 -0.0020699-2.7491e-4 3.926e-5c6.554e-5 7.0742e-4 -1.8342e-4 8.5165e-4 -0.001153 9.1713e-4l-0.003366 3.2759e-4 0.004545-0.0039038-1.4414e-4 -0.0015324zm-0.005737 0.0026461c8e-7 9.57e-6 1.5e-7 1.655e-5 1.04e-6 2.633e-5zm0.008135-7.8594e-4 2.0979e-4 0.0020042 9.037e-4 -0.0011135zm-0.099487 4.3248e-4 -0.0015718 5.6319e-4 -2.227e-4 0.0046632 3.2758e-4 3.927e-5c3.929e-5 -7.2036e-4 2.4906e-4 -8.2538e-4 0.0012576-7.9936e-4l0.003511 1.4416e-4c0.0010085 7.848e-5 0.0012176 1.8348e-4 0.0011785 8.9081e-4l2.8832e-4 3.925e-5 2.2268e-4 -0.0047939-0.0016508-7.4662e-4 -1.1782e-4 2.0924e-4c0.001087 9.2986e-4 0.0014411 0.0012182 0.0013758 0.0026853-3.934e-5 8.2515e-4 -2.2303e-4 9.0414e-4 -9.4354e-4 8.5156e-4l-0.0020685-1.0489e-4 3.925e-5 -3.5342e-4c-3.929e-5 -7.2038e-4 6.538e-5 -0.001467 0.0012047-0.0013884v-2.6206e-4l-0.0025802-1.3126e-4v2.3622e-4c9.825e-4 1.179e-4 0.0011134 6.9403e-4 0.0010479 0.0015454v3.5342e-4l-0.0016902-6.512e-5c-8.6454e-4 -3.923e-5 -9.9548e-4 -1.048e-4 -9.6933e-4 -0.0010086 7.858e-5 -0.0013232 4.0591e-4 -0.0015982 0.0014656-0.0023186zm-0.0046896 1.6999e-4 -0.0010736 9.6881e-4 9.6933e-4 0.001035zm0.10444 0.0024362 1.049e-4 0.0019651 9.3003e-4 -0.0010344zm-0.10465 6.0245e-4 -0.0010086 0.0010086 0.0010086 0.0010086zm0.10471 0.0024368v0.0019779l9.6951e-4 -9.6933e-4zm-0.10475 6.1589e-4 -9.3011e-4 0.0010731 0.001035 9.3056e-4zm0.0096662 8.2469e-4 -2.749e-4 2.634e-5v1.3072e-4l1.293e-5 6.563e-5v5.271e-5l-1.293e-5 5.22e-5v1.0488e-4l-1.342e-5 3.926e-5 -1.291e-5 3.927e-5 -1.292e-5 3.926e-5 -1.342e-5 3.928e-5 -1.293e-5 3.927e-5 -2.635e-5 2.635e-5 -2.584e-5 3.926e-5 -2.636e-5 2.584e-5 -2.636e-5 2.637e-5 -3.925e-5 2.634e-5 -2.636e-5 2.636e-5 -3.928e-5 1.289e-5 -3.924e-5 2.636e-5 -5.22e-5 1.29e-5 -5.218e-5 2.636e-5 -5.271e-5 1.291e-5 -5.22e-5 1.291e-5 -6.562e-5 1.345e-5 -5.218e-5 1.29e-5 -7.904e-5 1.292e-5 -6.511e-5 1.344e-5 -7.855e-5 1.29e-5 -7.905e-5 1.291e-5 -7.853e-5 1.343e-5h-9.148e-5l-0.0035233 3.932e-4c-9.5617e-4 1.1792e-4 -0.0012049-1.1e-7 -0.0012835-7.0735e-4l-3.2759e-4 2.585e-5 2.227e-4 0.001939 0.0054094 0.0014013-0.0049768 0.0025019 2.0928e-4 0.0019387 2.8829e-4 -3.977e-5c-6.548e-5 -7.2036e-4 1.4416e-4 -8.6461e-4 0.0011526-9.6933e-4l0.0034716-4.0213e-4c0.0010086-1.0475e-4 0.0012176-1e-8 0.0013228 7.2029e-4l2.8831e-4 -3.927e-5 -2.0927e-4 -0.0020828-3.2758e-4 3.927e-5c6.551e-5 7.2038e-4 -1.4415e-4 8.6461e-4 -0.0011135 9.6934e-4l-0.0043616 4.7174e-4v-3.926e-5l0.005619-0.0028294-3.926e-5 -3.2706e-4 -0.0060518-0.0015718v-3.926e-5l0.0042962-4.5883e-4c0.0010086-1.1792e-4 0.0012566 6e-8 0.0013228 7.0735e-4l2.8798e-4 -2.66e-5 -2.8832e-4 -0.0025804zm0.088203 0.0012441-0.001793 4.33e-4c1.0482e-4 1.442e-4 2.0953e-4 3.927e-4 1.8342e-4 5.7611e-4 -3.923e-5 3.5372e-4 -3.6643e-4 8.2561e-4 -4.3196e-4 0.0013627-1.4419e-4 0.0011132 4.9779e-4 0.0020693 0.001651 0.0022136 0.001388 1.8338e-4 0.001822-9.2968e-4 0.002317-0.0020038 2.4877e-4 -5.6325e-4 6.8084e-4 -0.0013632 0.001469-0.0012453 6.5486e-4 6.552e-5 0.001113 6.4209e-4 0.001008 0.0013234-1.0474e-4 8.9063e-4 -9.6951e-4 0.0014674-0.001716 0.0017816l1.049e-4 2.8832e-4 0.00161-3.927e-4c-1.0482e-4 -1.0477e-4 -1.049e-4 -2.8904e-4 -1.049e-4 -4.5934e-4 3.933e-5 -1.8342e-4 6.57e-5 -2.4855e-4 1.7049e-4 -4.712e-4 1.1787e-4 -2.4896e-4 1.8343e-4 -3.9334e-4 2.2271e-4 -6.8154e-4 1.4401e-4 -0.0011134-4.3264e-4 -0.0019646-0.001545-0.0021085-0.002397-2.882e-4 -0.001819 0.0034712-0.003863 0.0032223-7.4667e-4 -1.0476e-4 -0.001113-7.8522e-4 -0.001034-0.0014665 1.0475e-4 -9.2986e-4 0.001075-0.0016112 0.001861-0.0020828zm0.006759 3.6686e-4 -1.0487e-4 0.0019652 0.001048-9.3002e-4zm-0.10449 6.0251e-4 -9.0423e-4 0.0011135 0.0011135 8.6445e-4zm0.018353 0.0010344c-5.3941e-4 3.51e-6 -0.001013 5.236e-5 -0.001427 1.3641e-4 -2.7676e-4 5.602e-5 -5.2798e-4 1.2756e-4 -7.5542e-4 2.1183e-4 -5.6873e-4 2.1088e-4 -9.9074e-4 5.0102e-4 -0.001303 8.2308e-4 -6.256e-5 6.443e-5 -1.2102e-4 1.3015e-4 -1.7517e-4 1.9686e-4 -5.413e-5 6.662e-5 -1.0405e-4 1.339e-4 -1.5033e-4 2.0203e-4 -4.631e-5 6.809e-5 -8.913e-5 1.3681e-4 -1.2816e-4 2.0565e-4 -5.4641e-4 9.6285e-4 -4.1078e-4 0.0019583-4.1078e-4 0.0019583 8.802e-5 -4.317e-5 1.7753e-4 -8.357e-5 2.6869e-4 -1.214e-4 1.8233e-4 -7.564e-5 3.7105e-4 -1.4083e-4 5.6527e-4 -1.9583e-4 1.9423e-4 -5.503e-5 3.9419e-4 -9.988e-5 5.9935e-4 -1.3538e-4 1.0262e-4 -1.776e-5 2.0643e-4 -3.344e-5 3.1157e-4 -4.65e-5 2.1035e-4 -2.613e-5 4.2594e-4 -4.289e-5 6.4588e-4 -5.114e-5 4.398e-4 -1.655e-5 8.9774e-4 1.84e-6 0.001371 5.011e-5 2.3638e-4 2.42e-5 4.7621e-4 5.578e-5 7.1927e-4 9.455e-5 2.4305e-4 3.877e-5 4.8962e-4 8.467e-5 7.3835e-4 1.3692e-4 4.9792e-4 1.0454e-4 0.001006 2.3502e-4 0.001521 3.8703e-4 7.735e-4 2.2779e-4 0.001561 5.0409e-4 0.002354 8.138e-4 2.6419e-4 1.0322e-4 5.2908e-4 2.1024e-4 7.9381e-4 3.2033e-4 2.6437e-4 1.1015e-4 5.2881e-4 2.2296e-4 7.9225e-4 3.3895e-4 7.9149e-4 3.478e-4 0.001578 7.1987e-4 0.002346 0.0011001 0.001538 7.6056e-4 0.003003 0.0015562 0.004297 0.0022688 0.001728 9.503e-4 0.003148 0.0017528 0.004025 0.0021263 4.052e-5 4.175e-5 8.907e-5 8.463e-5 1.4518e-4 1.2918e-4 5.613e-5 4.454e-5 1.197e-4 9.056e-5 1.9017e-4 1.3796e-4 1.4088e-4 9.48e-5 3.0948e-4 1.9559e-4 5.0016e-4 3.0228e-4 3.8151e-4 2.1315e-4 8.5249e-4 4.5031e-4 0.001372 7.1356e-4 7.8068e-4 3.9487e-4 0.001674 8.4784e-4 0.002543 0.0013659 4.337e-4 2.5924e-4 8.6098e-4 5.3466e-4 0.001266 8.2702e-4 5.3963e-4 3.901e-4 0.001037 8.1001e-4 0.001456 0.0012626 1.0437e-4 1.1318e-4 2.0408e-4 2.2834e-4 2.9764e-4 3.4568e-4 6.5522e-4 8.2082e-4 0.001031 0.0017425 9.1248e-4 0.0027743-3.379e-5 2.9486e-4 -1.0769e-4 5.9883e-4 -2.2733e-4 9.116e-4 -5.978e-5 1.5661e-4 -1.3129e-4 3.1506e-4 -2.1445e-4 4.7641e-4 -2.7179e-4 2.9142e-4 -5.5068e-4 5.5506e-4 -8.324e-4 7.9844e-4 -1.4092e-4 1.2163e-4 -2.8229e-4 2.3828e-4 -4.242e-4 3.5084e-4 -8.5171e-4 6.7545e-4 -0.001713 0.001206-0.00248 0.001803-1.2784e-4 9.96e-5 -2.5304e-4 2.0099e-4 -3.7512e-4 3.0539e-4 -2.4422e-4 2.0875e-4 -4.7594e-4 4.2867e-4 -6.9137e-4 6.681e-4 -1.0766e-4 1.1975e-4 -2.1095e-4 2.4463e-4 -3.1002e-4 3.7512e-4 -2.9695e-4 3.9143e-4 -5.5285e-4 8.3549e-4 -7.5438e-4 0.001358-6.55e-5 2.0381e-4 -1.2328e-4 4.0143e-4 -1.7362e-4 5.9265e-4 -2.5163e-4 9.5635e-4 -3.1532e-4 0.001762-2.0255e-4 0.002472 4.508e-5 2.8382e-4 1.1842e-4 5.5206e-4 2.1908e-4 8.0847e-4 5.037e-5 1.2831e-4 1.0758e-4 2.5363e-4 1.7155e-4 3.7667e-4 1.2793e-4 2.4569e-4 2.8267e-4 4.8165e-4 4.6399e-4 7.11e-4 2.7182e-4 3.4397e-4 6.031e-4 6.7379e-4 9.9057e-4 0.001001 2.5829e-4 2.1807e-4 5.4164e-4 4.3469e-4 8.494e-4 6.5413e-4 1.7277e-4 6.959e-5 3.4716e-4 1.3162e-4 5.2238e-4 1.8602e-4 3.503e-4 1.0877e-4 7.0462e-4 1.8765e-4 0.001061 2.387e-4 5.3429e-4 7.669e-5 0.001073 9.051e-5 0.001606 4.909e-5 3.5541e-4 -2.759e-5 7.0846e-4 -7.957e-5 0.001056-1.545e-4 1.7417e-4 -3.742e-5 3.4714e-4 -8.065e-5 5.1875e-4 -1.2916e-4 5.143e-4 -1.4551e-4 0.001014-3.3947e-4 0.001492-5.7508e-4 3.1885e-4 -1.5708e-4 6.2766e-4 -3.3265e-4 9.2389e-4 -5.2442e-4 1.4813e-4 -9.6e-5 2.9303e-4 -1.9641e-4 4.3455e-4 -3.0023e-4 1.4151e-4 -1.0394e-4 2.7961e-4 -2.1169e-4 4.1388e-4 -3.2296e-4 -1.4736e-4 -2.783e-5 -3.2186e-4 -5.424e-5 -5.1668e-4 -8.524e-5 -1.9467e-4 -3.099e-5 -4.0933e-4 -6.637e-5 -6.3657e-4 -1.1263e-4 -1.1358e-4 -2.312e-5 -2.3042e-4 -4.934e-5 -3.493e-4 -7.856e-5 -2.377e-4 -5.84e-5 -4.8434e-4 -1.3049e-4 -7.3217e-4 -2.2218e-4 -1.239e-4 -4.587e-5 -2.4839e-4 -9.644e-5 -3.72e-4 -1.5293e-4 -3.7083e-4 -1.6947e-4 -7.3645e-4 -3.8984e-4 -0.001071-6.8204e-4 -1.1152e-4 -9.735e-5 -2.1911e-4 -2.0265e-4 -3.2291e-4 -3.1675e-4 -3.6324e-4 -3.9905e-4 -6.732e-4 -9.0459e-4 -8.8967e-4 -0.001549-3.093e-5 -9.206e-5 -5.978e-5 -1.8681e-4 -8.68e-5 -2.847e-4 -2.4875e-4 -0.001448-4.815e-4 -0.002403-3.472e-4 -0.003257 6.714e-5 -4.2649e-4 2.2583e-4 -8.2778e-4 5.203e-4 -0.001251 2.2075e-4 -3.1751e-4 5.1779e-4 -6.4805e-4 9.0985e-4 -0.001012 1.3055e-4 -1.2121e-4 2.7201e-4 -2.4579e-4 4.2422e-4 -3.7515e-4 1.8337e-4 -1.5718e-4 3.779e-4 -2.9914e-4 5.8076e-4 -4.3249e-4 4.0572e-4 -2.6666e-4 8.4399e-4 -4.9841e-4 0.001292-7.4663e-4 3.3564e-4 -1.8616e-4 6.7597e-4 -3.817e-4 0.001012-6.0815e-4 2.2362e-4 -1.509e-4 4.4487e-4 -3.1521e-4 6.6083e-4 -5.0015e-4 1.0797e-4 -9.242e-5 2.1439e-4 -1.9015e-4 3.1934e-4 -2.935e-4 1.0488e-4 -1.033e-4 2.0782e-4 -2.123e-4 3.0899e-4 -3.2809e-4 3.0323e-4 -3.4742e-4 5.8783e-4 -7.5443e-4 8.4321e-4 -0.001243 1.556e-5 -1.9486e-4 8.96e-6 -3.915e-4 -1.705e-5 -5.8751e-4 -1.302e-5 -9.797e-5 -3.066e-5 -1.9556e-4 -5.323e-5 -2.9349e-4 -2.26e-5 -9.804e-5 -5e-5 -1.9642e-4 -8.166e-5 -2.9452e-4 -3.162e-5 -9.796e-5 -6.78e-5 -1.9577e-4 -1.0798e-4 -2.9348e-4 -8.033e-5 -1.9545e-4 -1.7704e-4 -3.8985e-4 -2.8832e-4 -5.8338e-4 -2.7808e-4 -4.8379e-4 -6.457e-4 -9.5986e-4 -0.00107-0.0014187-5.0916e-4 -5.5028e-4 -0.001099-0.0010757-0.001713-0.001559-0.001433-0.0011289-0.002994-0.0020325-0.003951-0.0025025l-0.001349-6.5467e-4 -0.001323-6.4223e-4 -0.001298-6.2884e-4 -0.00127-6.2883e-4 -0.00127-6.154e-4 -0.001243-6.0248e-4 -0.002487-0.0011785-0.002487-0.0011528-0.00127-5.6371e-4 -0.001283-5.4976e-4 -0.001311-5.3686e-4 -0.001336-5.3735e-4 -0.001363-5.3634e-4 -0.001401-5.1049e-4v-5.3e-7c-2.6075e-4 -5.854e-5 -5.1249e-4 -1.0993e-4 -7.5592e-4 -1.5501e-4 -9.739e-4 -1.8039e-4 -0.001811-2.5639e-4 -0.002527-2.5273e-4zm0.08586 0.0013636-2.4852e-4 0.0020167 0.001113-9.0423e-4zm-0.10393 6.5414e-4 -7.8592e-4 0.0011393 0.0011398 7.8592e-4zm0.095003 0.0016379-0.001298 0.0046235 0.001469 0.0011129 1.4366e-4 -1.8291e-4c-8.5172e-4 -0.0011788-0.00114-0.0015066-7.4664e-4 -0.0029345 2.0953e-4 -7.8609e-4 4.3235e-4 -8.2515e-4 0.001113-6.4177e-4l0.002005 5.7614e-4 -1.0491e-4 3.5393e-4c-1.4418e-4 6.8115e-4 -3.9334e-4 0.0014012-0.001508 0.0010737l-7.854e-5 2.4957e-4 0.002475 6.805e-4 6.562e-5 -2.0927e-4c-8.9142e-4 -3.2737e-4 -8.9142e-4 -9.3029e-4 -6.6937e-4 -0.0017294l1.0489e-4 -3.529e-4 0.00161 4.3197e-4c8.5171e-4 2.4876e-4 9.6951e-4 3.1403e-4 7.0787e-4 0.0012179-3.1427e-4 0.0012576-7.0742e-4 0.0014671-0.001926 0.0019388l6.561e-5 2.4955e-4 0.00161-1.8344e-4 0.001258-0.004519-2.883e-4 -1.049e-4c-1.8324e-4 6.8116e-4 -4.5825e-4 7.5996e-4 -0.0014 5.1102e-4l-0.003393-9.4354e-4c-9.3178e-4 -2.7483e-4 -0.001154-4.5797e-4 -9.309e-4 -0.001139zm0.00845 7.1977e-4 -3.276e-4 0.0019779 0.001153-7.9882e-4zm-0.10295 6.4174e-4 -7.2077e-4 0.0011921 0.0011791 7.0734e-4zm0.0049372 0.0016902-0.0013492 0.0011135 0.0015718 0.004899 0.0017556 1.0489e-4 3.98e-5 -2.4906e-4c-8.6454e-4 -1.44e-4 -0.0017556-6.416e-4 -0.0020182-0.001506-2.0956e-4 -5.6324e-4 3.6705e-4 -6.4173e-4 7.9937e-4 -7.8593e-4l0.0035505-0.0011398c9.5608e-4 -2.8821e-4 0.0012176-2.4906e-4 0.0014671 5.3684e-4l2.7541e-4 -1.0436e-4 -8.5157e-4 -0.0026201-2.8832e-4 6.561e-5 2.636e-5 7.855e-5 1.293e-5 6.561e-5 1.29e-5 6.563e-5 2.637e-5 6.563e-5v6.51e-5l1.289e-5 5.27e-5 1.345e-5 5.218e-5v1.4415e-4l-1.345e-5 3.929e-5 -1.289e-5 5.217e-5 -1.294e-5 3.928e-5 -1.343e-5 3.978e-5 -1.29e-5 2.585e-5 -2.636e-5 3.926e-5 -2.586e-5 3.928e-5 -2.633e-5 2.637e-5 -3.926e-5 3.925e-5 -3.929e-5 2.634e-5 -3.926e-5 2.586e-5 -3.928e-5 2.635e-5 -5.27e-5 2.635e-5 -5.219e-5 3.926e-5 -5.217e-5 2.635e-5 -6.563e-5 2.583e-5 -5.272e-5 2.634e-5 -7.852e-5 2.634e-5 -6.562e-5 2.586e-5 -7.854e-5 2.635e-5 -7.855e-5 3.927e-5 -9.145e-5 2.636e-5 -0.0035764 0.0011398c-4.3227e-4 1.4395e-4 -9.0389e-4 4.0591e-4 -0.0010742-1.7051e-4 -2.8817e-4 -8.6461e-4 1.4408e-4 -0.0017945 7.4664e-4 -0.002397zm0.076574 3.4838e-4c-1.234e-5 3.71e-6 -3.001e-5 1.349e-5 -5.375e-5 3.149e-5 -5.533e-5 4.198e-5 -1.6089e-4 1.4836e-4 -2.9968e-4 2.9865e-4l4.029e-5 -1.033e-5 9.198e-5 -2.635e-5 7.854e-5 -1.29e-5 6.51e-5 -2.634e-5h5.4e-7s8.323e-5 -1.4325e-4 9.921e-5 -2.1547e-4c3.19e-6 -1.447e-5 3.88e-6 -2.601e-5 5.2e-7 -3.308e-5 -3.38e-6 -7.06e-6 -1.038e-5 -9.43e-6 -2.275e-5 -5.67e-6zm0.020801 2.9346e-4 -4.3196e-4 0.0019779 0.001179-7.6006e-4zm-0.10164 6.154e-4 -6.8101e-4 0.0012443 0.0012572 6.8152e-4zm0.091888 0.0022141-0.001008 0.0023314 2.6197e-4 1.4414e-4c2.8821e-4 -6.4187e-4 5.6309e-4 -6.8127e-4 0.001469-2.883e-4l0.001533 6.8154e-4 -2.4904e-4 5.7611e-4 -0.003655 3.9271e-4 -6.0249e-4 0.0013626 2.4904e-4 1.4418e-4c2.8821e-4 -6.8107e-4 5.7652e-4 -6.5479e-4 0.001258-7.203e-4l0.002436-2.4904e-4c-2.4895e-4 8.2547e-4 4e-8 0.0018206 8.2546e-4 0.0022136 0.001179 5.1081e-4 0.00203-5.7635e-4 0.002462-0.0015328l0.001048-0.0024362-2.6196e-4 -1.0489e-4c-3.5353e-4 8.1234e-4 -8.2547e-4 5.6332e-4 -0.001508 2.4904e-4l-0.003183-0.0014016c-8.8967e-4 -3.9318e-4 -0.001073-6.0252e-4 -7.8455e-4 -0.0012573zm0.00896 1.0489e-4 -5.761e-4 0.0019381 0.001256-6.8103e-4zm-0.10002 6.1541e-4 -5.7612e-4 0.0012835 0.0012572 5.7611e-4zm0.010177 5.7714e-4 -2.6196e-4 1.3073e-4c3.6679e-4 6.5487e-4 1.1772e-4 8.2546e-4 -2.4904e-4 0.0014016l-0.0013492 0.0020432c-4.7156e-4 -7.2047e-4 -0.0014017-0.0011792-0.0022278-7.4664e-4 -0.0011528 5.6324e-4 -8.6408e-4 0.0019259-3.6635e-4 0.0028559l0.0011916 0.002371 2.8781e-4 -1.4416e-4c-3.93e-4 -7.8607e-4 6.546e-5 -9.6951e-4 7.0734e-4 -0.001323l0.0031178-0.001585c9.038e-4 -4.5857e-4 0.0011525-4.5848e-4 0.0014674 1.8341e-4l2.6197e-4 -1.4415e-4 -0.001153-0.0022531-2.883e-4 1.4416e-4c3.2746e-4 6.0249e-4 1.8354e-4 8.2469e-4 -6.8101e-4 0.0012836l-0.0015065 7.6007e-4 -2.883e-4 -5.7613e-4 0.0020182-0.0030787zm0.083425 0.0016756 0.00161 7.2027e-4c6.5493e-4 2.8822e-4 9.0371e-4 4.3236e-4 6.1541e-4 0.0011134-3.2744e-4 7.0743e-4 -0.001073 0.0012441-0.0019 9.3003e-4 -9.3003e-4 -4.3233e-4 -9.3003e-4 -0.0015451-5.3733e-4 -0.0023312zm0.005449 3.977e-5 -6.81e-4 0.0018594 0.001258-6.0246e-4zm-0.098057 5.7561e-4 -4.981e-4 0.001324 0.001297 4.9759e-4zm0.0062056 0.0012047c6.5206e-4 3.682e-5 0.0012047 5.7471e-4 0.0014698 0.0011941l2.0924e-4 4.3249e-4 -0.0016112 8.1233e-4c-6.0251e-4 2.88e-4 -8.5108e-4 4.321e-4 -0.0012176-2.4904e-4 -3.5363e-4 -7.074e-4 -3.2776e-4 -0.0016117 4.7122e-4 -0.0020434 2.325e-4 -1.1461e-4 4.6107e-4 -1.5796e-4 6.7854e-4 -1.4648e-4zm0.090695 0.0010485-7.8608e-4 0.001821 0.001323-5.3735e-4zm-0.095714 5.7612e-4 -4.3246e-4 0.001324 0.0013228 4.3193e-4zm0.010963 6.8153e-4 -2.227e-4 1.7052e-4c1.048e-4 2.2286e-4 1.835e-4 3.9278e-4 1.0492e-4 6.4174e-4 -6.557e-5 3.2763e-4 -5.3762e-4 9.6951e-4 -7.4717e-4 0.001257l-0.0030129 0.004152 6.8099e-4 5.7664e-4 0.0049127-0.001546c6.4191e-4 -1.7031e-4 0.001401-4.1921e-4 0.001822 2.2268e-4l2.6196e-4 -1.8291e-4 -0.001336-0.001861-2.4906e-4 1.8343e-4c2.227e-4 2.882e-4 4.3227e-4 7.0743e-4 7.855e-5 9.6951e-4 -2.2249e-4 1.3085e-4 -9.4337e-4 3.5354e-4 -0.001219 4.1904e-4l-3.2839e-4 1.1796e-4 -0.001323-0.001873 6.8102e-4 -9.3002e-4c6.542e-5 -1.4419e-4 2.4914e-4 -3.9333e-4 3.5394e-4 -4.5883e-4 3.9296e-4 -2.8821e-4 6.4176e-4 2.4931e-4 8.6444e-4 4.5883e-4l2.0814e-4 -1.7016e-4zm0.073653 8.1311e-4 -1.4414e-4 2.6146e-4 0.002974 0.004073c2.4876e-4 2.882e-4 6.811e-4 9.0458e-4 7.0736e-4 0.001298 3.925e-5 2.4894e-4 -1.0504e-4 4.3222e-4 -2.0977e-4 6.4174e-4l2.4853e-4 1.8342e-4 0.001258-0.001873-2.4958e-4 -1.7051e-4c-2.2267e-4 2.4876e-4 -4.322e-4 6.4218e-4 -7.8609e-4 3.9319e-4 -2.2267e-4 -1.4398e-4 -6.1539e-4 -6.8155e-4 -7.9843e-4 -9.0458e-4l-0.002005-0.002711 0.003734 9.9496e-4c1.7029e-4 3.941e-5 5.6318e-4 1.4415e-4 7.4661e-4 2.4904e-4 3.2745e-4 2.2268e-4 6.598e-5 5.7623e-4 -1.0435e-4 8.2547e-4l2.4853e-4 1.8343e-4 0.001545-0.002292-2.6197e-4 -1.4416e-4c-1.3087e-4 2.0954e-4 -3.1399e-4 4.717e-4 -5.3686e-4 5.7665e-4 -2.4894e-4 1.0474e-4 -5.3761e-4 -1e-7 -9.309e-4 -1.0489e-4zm0.009812 6.5412e-4 -9.037e-4 0.001781 0.001336-4.1904e-4zm-0.093108 5.632e-4 -3.6684e-4 0.001363 0.0013758 3.6687e-4zm0.0087765 0.001547 0.001179 0.001649-0.0030388 9.3002e-4zm0.082862 5.7558e-4 -0.001008 0.001716 0.001363-3.5341e-4zm-0.010858 1.4417e-4 -0.001677 0.001964 2.4853e-4 1.8294e-4 3.925e-5 -5.22e-5 3.927e-5 -3.926e-5 5.27e-5 -5.219e-5 3.93e-5 -3.929e-5 3.925e-5 -2.632e-5 3.927e-5 -3.928e-5 2.637e-5 -2.633e-5 3.924e-5 -2.636e-5 3.929e-5 -1.292e-5 3.925e-5 -2.636e-5 3.93e-5 -1.291e-5 3.925e-5 -1.29e-5h3.927e-5l3.926e-5 -1.343e-5h7.88e-5l3.928e-5 1.343e-5 3.926e-5 1.29e-5h3.928e-5l5.27e-5 2.637e-5 3.927e-5 1.29e-5 5.218e-5 2.636e-5 3.927e-5 2.582e-5 5.27e-5 2.634e-5 5.221e-5 3.927e-5 5.217e-5 3.928e-5 6.562e-5 3.926e-5 5.217e-5 3.927e-5 6.564e-5 5.268e-5 2.635e-5 2.588e-5 3.927e-5 2.633e-5 2.636e-5 2.637e-5 3.925e-5 2.633e-5 2.635e-5 2.586e-5 3.927e-5 3.926e-5 -5.3e-7 5.3e-7 0.002685 0.002252c7.4667e-4 6.4191e-4 8.6485e-4 8.9055e-4 3.9318e-4 0.001428l2.2271e-4 2.2269e-4 0.001677-0.001979-2.4905e-4 -2.0926e-4c-4.7143e-4 5.7617e-4 -7.2024e-4 4.9772e-4 -0.001469-1.4416e-4l-0.002703-0.002258c-7.5663e-4 -6.5608e-4 -8.6174e-4 -9.0458e-4 -3.9002e-4 -0.001441l-2.2217e-4 -1.7049e-4zm-0.079286 3.927e-4 -2.7488e-4 0.001388 0.0014004 2.8829e-4zm0.088537 0.002043-0.001075 0.001677 0.001363-3.2759e-4zm-0.08687 5.3684e-4 -2.2268e-4 0.001388 0.0014003 1.8343e-4zm0.012457 4.2008e-4 -1.705e-4 2.2269e-4 3.929e-5 5.221e-5 3.927e-5 3.925e-5 3.925e-5 5.218e-5 3.927e-5 3.93e-5 2.637e-5 5.269e-5 2.634e-5 3.926e-5 2.585e-5 3.929e-5 2.633e-5 3.925e-5 1.293e-5 3.927e-5 1.343e-5 5.218e-5 1.293e-5 3.98e-5v1.5709e-4l-1.293e-5 3.924e-5 -1.343e-5 3.927e-5 -1.293e-5 3.93e-5 -1.289e-5 3.926e-5 -2.636e-5 3.926e-5 -2.634e-5 5.22e-5 -2.585e-5 3.925e-5 -3.927e-5 5.272e-5 -3.98e-5 3.925e-5 -3.926e-5 5.22e-5 -3.927e-5 5.27e-5 -5.218e-5 5.219e-5 -5.219e-5 5.27e-5 -5.27e-5 5.218e-5 -5.22e-5 6.563e-5 -6.562e-5 5.219e-5 -6.561e-5 6.56e-5 -0.001113 0.001075-5.3685e-4 -5.7665e-4c-8.9054e-4 -9.309e-4 -0.00207-0.00161-0.003077-6.4173e-4 -8.6444e-4 8.1232e-4 -5.7626e-4 0.0019 1.4417e-4 0.002645l0.002187 0.002227 2.0979e-4 -1.829e-4c-5.3696e-4 -5.3717e-4 -4.3259e-4 -7.8609e-4 2.878e-4 -0.001469l0.002515-0.002436c7.0741e-4 -7.2058e-4 9.5635e-4 -7.8608e-4 0.001468-2.4903e-4l2.0978e-4 -2.0927e-4 -0.001793-0.001874zm0.062204 8.9143e-4c-6.6267e-4 1.304e-5 -0.00132 2.6501e-4 -0.001871 7.9765e-4 -8.6484e-4 8.2547e-4 -9.6951e-4 0.00203-5.7611e-4 0.003117l2.2219e-4 -3.926e-5c-2.2268e-4 -8.9055e-4 -2.2233e-4 -0.001794 4.5883e-4 -0.002475 0.001113-0.001034 0.002803-2.4858e-4 0.003695 6.8152e-4 8.2546e-4 8.6485e-4 0.001651 0.002331 5.7611e-4 0.003339-6.156e-4 6.0249e-4 -0.001793 6.0236e-4 -0.002581 4.9758e-4l-1.0488e-4 2.0978e-4 0.001571 7.5956e-4c6.554e-5 -2.2265e-4 1.4414e-4 -4.0601e-4 2.883e-4 -5.3685e-4 1.4401e-4 -1.571e-4 3.2731e-4 -2.2282e-4 4.976e-4 -3.2759e-4 2.2266e-4 -7.867e-5 4.3273e-4 -1.831e-4 6.4224e-4 -3.927e-4 6.5487e-4 -6.4192e-4 7.9843e-4 -0.001571 6.1541e-4 -0.002397-1.442e-4 -8.2546e-4 -5.1098e-4 -0.001571-0.001075-0.002187-6.4839e-4 -6.8534e-4 -0.001508-0.001064-0.002359-0.001048zm0.010456 6.1438e-4 -0.001179 0.00161 0.001388-2.0927e-4zm-0.076269 2.868e-4c5.4108e-4 1.245e-5 0.001048 4.1538e-4 0.001539 9.309e-4l2.4853e-4 2.4907e-4 -0.001298 0.001217c-5.3696e-4 5.1098e-4 -8.2515e-4 7.5978e-4 -0.001388 1.4416e-4 -6.4188e-4 -6.4196e-4 -8.2576e-4 -0.001388-1.1831e-4 -0.002082 3.5364e-4 -3.3399e-4 6.9116e-4 -4.6732e-4 0.001017-4.5913e-4zm-0.0070671 2.4957e-4 -1.3074e-4 0.0014 0.001388 1.0488e-4zm0.013975 0.001154-0.001545 9.3003e-4 1.0489e-4 2.0926e-4c0.0014-3.1446e-4 0.001833-4.582e-4 0.002974 4.325e-4 6.5485e-4 4.9774e-4 6.1559e-4 7.2023e-4 1.8341e-4 0.001283l-0.001283 0.001623-2.8781e-4 -2.2272e-4c-5.7957e-4 -3.9349e-4 -0.001156-9.3002e-4 -4.3569e-4 -0.001833l-2.0928e-4 -1.3074e-4 -0.001584 0.002005 1.829e-4 1.834e-4c6.4192e-4 -7.598e-4 0.001179-5.1084e-4 0.001861 0l2.8831e-4 2.3564e-4 -0.001034 0.001336c-5.3713e-4 6.6797e-4 -6.546e-4 7.4629e-4 -0.001363 1.6998e-4 -0.001035-7.8607e-4 -0.001074-0.001217-0.001074-0.002543l-2.4905e-4 -3.926e-5 -4.3196e-4 0.00161 0.00368 0.002867 1.8344e-4 -2.4954e-4c-5.7619e-4 -4.3222e-4 -4.9792e-4 -6.8101e-4 7.853e-5 -0.001469l0.002173-0.002764c6.1559e-4 -7.8608e-4 8.2468e-4 -8.9054e-4 0.0014-4.578e-4l1.8282e-4 -2.1991e-4zm0.06746 7.0632e-4 -0.001298 0.001508 0.001401-1.0489e-4zm-0.079535 5.1101e-4 -2.635e-5 0.001388 0.0014276 3.927e-5zm0.066175 6.563e-5 -0.003879 0.002791 4.7176e-4 0.001793 2.0926e-4 -7.906e-5c7.865e-5 -0.001428 3.993e-5 -0.0019 0.001219-0.002751 6.8115e-4 -4.5845e-4 8.6486e-4 -3.5396e-4 0.001298 2.0926e-4l0.001205 0.001691-3.1417e-4 2.0926e-4c-5.3695e-4 4.322e-4 -0.001179 8.6407e-4 -0.001861-6.561e-5l-2.227e-4 1.4414e-4 0.001545 0.00207 1.829e-4 -1.4414e-4c-5.1084e-4 -8.2545e-4 -1.4425e-4 -0.001283 5.3688e-4 -0.001782l3.2705e-4 -2.2167e-4 9.5635e-4 0.001363c5.1084e-4 7.2037e-4 5.7639e-4 8.6484e-4 -1.8345e-4 0.001401-0.001075 7.8608e-4 -0.001493 6.8048e-4 -0.002751 3.1365e-4l-1.0439e-4 2.2268e-4 0.001427 8.9054e-4 0.003798-0.002751-1.7052e-4 -2.6143e-4c-5.7636e-4 4.4533e-4 -8.2469e-4 2.8832e-4 -0.0014-4.976e-4l-0.002082-0.002831c-5.7638e-4 -8.1233e-4 -6.0268e-4 -0.001075-2.635e-5 -0.001493l-1.8342e-4 -2.2271e-4 -5.4e-7 -5.2e-7zm0.011318 0.001675-0.001363 0.001441 0.0014-3.927e-5zm-0.075416 4.7091e-4 3.915e-5 0.001401 0.001428-3.968e-5zm0.016304 0.001635c-0.001093 1.026e-5 -0.002081 5.8319e-4 -0.002735 0.00177-4.9774e-4 8.9142e-4 -6.4196e-4 0.0019-2.0978e-4 0.002831 4.7163e-4 9.3003e-4 0.001113 0.001323 0.001754 0.001716l0.00215 0.001179 1.4364e-4 -2.4905e-4c-6.0259e-4 -3.5354e-4 -6.0213e-4 -6.4161e-4 -1.4364e-4 -0.001508l0.001728-0.003039c4.979e-4 -8.6484e-4 7.0715e-4 -9.9495e-4 0.001323-6.8101e-4l1.4416e-4 -2.4903e-4 -0.002122-0.001191c-6.8274e-4 -3.8803e-4 -0.001377-5.8433e-4 -0.002032-5.7891e-4zm0.056955 4.083e-5 -0.001441 0.001363 0.001401 3.926e-5zm-0.015299 2.2373e-4c-3.937e-5 1.8332e-4 -1.8377e-4 3.9239e-4 -3.5392e-4 4.9705e-4 -3.2745e-4 1.8323e-4 -8.6408e-4 1.8298e-4 -0.001363 4.3196e-4 -9.6951e-4 5.3716e-4 -0.001401 0.001611-8.6484e-4 0.002621 6.4191e-4 0.001244 0.001833 9.9496e-4 0.002974 7.8608e-4 6.4172e-4 -1.442e-4 0.001545-2.4897e-4 0.0019 4.1904e-4 3.2742e-4 6.1561e-4 1.0435e-4 0.001298-4.9811e-4 0.001624-7.9921e-4 4.1905e-4 -0.001754 2.608e-5 -0.002475-3.6686e-4l-1.8343e-4 2.2219e-4h5.3e-7l0.001258 0.001102c3.924e-5 -1.4418e-4 1.83e-4 -2.879e-4 3.2707e-4 -3.5341e-4 1.7028e-4 -6.551e-5 2.4931e-4 -6.507e-5 4.5884e-4 -1.0437e-4 2.8819e-4 -7.857e-5 4.7132e-4 -7.862e-5 7.2029e-4 -2.2269e-4 9.6951e-4 -5.3698e-4 0.001323-0.001493 8.2544e-4 -0.002501-0.001153-0.002109-0.003865 5.3677e-4 -0.004872-0.001283-3.2762e-4 -6.8115e-4 0-0.001363 6.0245e-4 -0.001691 8.2546e-4 -4.5845e-4 0.001939-6.545e-5 0.002764 2.883e-4l1.8344e-4 -2.0926e-4zm-0.041024 1.5964e-4c3.4753e-4 1.003e-5 7.1848e-4 1.1475e-4 0.001111 3.3741e-4l6.509e-5 3.928e-5 5.271e-5 2.636e-5 5.219e-5 3.924e-5 5.269e-5 2.637e-5 3.927e-5 3.926e-5 3.928e-5 2.585e-5 3.926e-5 3.928e-5 2.585e-5 2.634e-5 3.98e-5 3.927e-5 2.582e-5 3.927e-5 1.345e-5 2.633e-5 2.585e-5 3.93e-5 1.344e-5 3.925e-5 1.29e-5 3.928e-5 1.292e-5 3.925e-5v1.7053e-4l-1.292e-5 5.219e-5v5.268e-5l-1.29e-5 5.222e-5 -2.636e-5 5.217e-5 -1.288e-5 5.271e-5 -2.637e-5 6.562e-5 -2.636e-5 5.219e-5 -2.633e-5 6.561e-5 -2.588e-5 6.51e-5 -3.924e-5 7.907e-5 -3.927e-5 6.51e-5 -3.928e-5 7.852e-5 -3.926e-5 7.906e-5 -0.001754 0.003157c-4.5847e-4 8.1233e-4 -6.5528e-4 9.3003e-4 -0.001323 5.3683e-4 -0.001624-8.6484e-4 -0.001469-0.002292-6.81e-4 -0.003695 5.8943e-4 -0.00105 0.001422-0.001874 0.002464-0.001843zm-0.014752 4.858e-5v5.3e-7l1.4469e-4 0.0014 0.001388-1.0486e-4zm0.068781 0.001585-0.001508 0.001283 0.0014 1.0436e-4zm-0.066449 4.1904e-4 1.705e-4 0.0014 0.0014-2.0926e-4zm0.064053 0.001441-0.001584 0.001179 0.0014 2.0928e-4zm-0.061656 3.932e-4 2.883e-4 0.001388 0.001388-2.7491e-4zm0.020984 2.4852e-4 -6.562e-5 2.8782e-4c6.4172e-4 1.4419e-4 7.2077e-4 4.3242e-4 4.9808e-4 0.001363l-6.0244e-4 0.002974c-2.8822e-4 0.001363 4.5852e-4 0.002252 0.001782 0.002543 0.001545 3.1428e-4 0.002435-2.8858e-4 0.002763-0.001833l5.7661e-4 -0.002711c1.703e-4 -9.6951e-4 3.5384e-4 -0.001191 0.001075-0.001048l3.928e-5 -2.8833e-4 -0.002018-4.1903e-4 -2.637e-5 2.7488e-4 5.219e-5 1.346e-5 5.269e-5 2.585e-5 5.22e-5 1.343e-5 5.271e-5 1.292e-5 5.218e-5 2.633e-5 3.926e-5 1.292e-5 3.929e-5 2.635e-5 3.924e-5 1.289e-5 2.636e-5 2.637e-5 3.928e-5 2.634e-5 2.633e-5 2.587e-5 2.587e-5 3.924e-5 1.342e-5 2.637e-5 2.586e-5 2.633e-5 1.344e-5 3.929e-5 1.293e-5 3.927e-5 1.343e-5 3.925e-5 1.291e-5 5.219e-5 1.291e-5 3.927e-5v2.754e-4l-1.291e-5 6.562e-5v6.51e-5l-1.291e-5 6.561e-5 -1.343e-5 7.858e-5 -1.293e-5 7.852e-5 -1.344e-5 7.854e-5 -2.586e-5 7.904e-5 -1.342e-5 9.147e-5h5.3e-7l-4.9809e-4 0.002369c-2.4895e-4 0.001179-6.4212e-4 0.002252-0.002082 0.001926-0.001401-2.882e-4 -0.0014-0.001363-0.00114-0.002543l5.3684e-4 -0.002436c1.703e-4 -9.6951e-4 3.5384e-4 -0.001178 0.001075-0.001034l6.562e-5 -2.8831e-4zm0.015979 3.927e-4 -7.8608e-4 3.2761e-4 -0.001075 0.005003c-1.0478e-4 6.5487e-4 -2.8806e-4 0.00144-0.001048 0.001508l5.271e-5 3.2758e-4 0.002292-2.883e-4 -3.928e-5 -2.883e-4c-3.9313e-4 3.942e-5 -8.6483e-4 3.964e-5 -8.9142e-4 -4.3196e-4 -3.941e-5 -2.4896e-4 1.3116e-4 -9.5635e-4 2.0977e-4 -0.001243l6.512e-5 -3.2762e-4 0.002265-2.883e-4 4.976e-4 0.001034c6.552e-5 1.4419e-4 1.8359e-4 4.3256e-4 2.0978e-4 5.7667e-4 3.923e-5 4.7149e-4 -5.3699e-4 4.3206e-4 -8.2547e-4 4.9758e-4l3.928e-5 2.883e-4 0.002621-3.1467e-4 -3.926e-5 -2.8779e-4c-2.0953e-4 0-4.3215e-4 -3.932e-5 -6.0249e-4 -1.8342e-4 -2.5864e-4 -2.0958e-4 -5.7292e-4 -9.3091e-4 -7.5626e-4 -0.001283l-0.002187-0.004625v-5.4e-7zm-0.020736 3.5397e-4c-3.9295e-4 0-6.81e-4 3.2731e-4 -6.81e-4 7.2025e-4 0 3.9295e-4 2.8808e-4 6.8153e-4 6.81e-4 6.8153e-4h6.564e-5l3.926e-5 -1.344e-5h3.927e-5l2.635e-5 -1.293e-5h3.926e-5l3.928e-5 -1.341e-5 2.584e-5 -1.292e-5 2.637e-5 -1.291e-5 3.925e-5 -1.343e-5 2.635e-5 -1.291e-5 2.635e-5 -2.636e-5 2.585e-5 -1.291e-5 2.636e-5 -1.291e-5 2.633e-5 -2.633e-5 2.585e-5 -2.637e-5 2.635e-5 -1.291e-5 5.268e-5 -5.269e-5 1.294e-5 -2.586e-5 1.289e-5 -2.633e-5 2.635e-5 -3.929e-5 1.293e-5 -2.634e-5 1.344e-5 -2.581e-5 1.29e-5 -3.93e-5 1.291e-5 -2.633e-5 1.344e-5 -3.927e-5v-2.636e-5l1.291e-5 -3.926e-5v-1.0405e-4c0-3.9296e-4 -3.1442e-4 -7.2026e-4 -7.0735e-4 -7.2115e-4zm0.027876 0c-1.0151e-4 0-1.975e-4 2.047e-5 -2.8416e-4 5.732e-5 -2.164e-4 9.212e-5 -3.7529e-4 2.8652e-4 -4.2215e-4 5.193e-4 -9.39e-6 4.656e-5 -1.447e-5 9.451e-5 -1.447e-5 1.4363e-4 0 4.913e-5 5.08e-6 9.661e-5 1.447e-5 1.421e-4 9.37e-6 4.55e-5 2.343e-5 8.908e-5 4.135e-5 1.302e-4 1.789e-5 4.115e-5 3.952e-5 8.019e-5 6.507e-5 1.1627e-4 2.557e-5 3.606e-5 5.5e-5 6.943e-5 8.734e-5 9.971e-5 3.233e-5 3.031e-5 6.768e-5 5.733e-5 1.0591e-4 8.114e-5 3.826e-5 2.378e-5 7.92e-5 4.386e-5 1.2248e-4 6.043e-5 4.326e-5 1.661e-5 8.894e-5 2.961e-5 1.364e-4 3.824e-5 4.729e-5 8.64e-6 9.67e-5 1.343e-5 1.4725e-4 1.346e-5h6.563e-5l3.927e-5 -1.346e-5h2.635e-5l3.927e-5 -1.289e-5h3.927e-5l2.633e-5 -1.344e-5 3.928e-5 -1.291e-5 2.635e-5 -1.292e-5 3.928e-5 -1.343e-5 2.582e-5 -1.291e-5 2.637e-5 -2.634e-5 2.635e-5 -1.293e-5 2.585e-5 -1.291e-5 5.268e-5 -5.27e-5 2.636e-5 -1.29e-5 2.584e-5 -2.637e-5 1.291e-5 -2.633e-5 2.636e-5 -2.585e-5 1.341e-5 -2.634e-5 2.587e-5 -3.927e-5 1.343e-5 -2.636e-5 1.291e-5 -2.582e-5 1.291e-5 -3.925e-5 1.345e-5 -2.638e-5v-3.925e-5l1.291e-5 -2.635e-5 1.289e-5 -3.928e-5v-1.0479e-4c0-3.9297e-4 -3.1405e-4 -7.1976e-4 -7.0684e-4 -7.2042e-4zm-0.013973 2.6207e-4c-0.001113 2.606e-5 -0.0019 7.4729e-4 -0.001861 0.001861 2.617e-5 0.002397 0.00368 0.001283 0.003719 0.003366 0 7.4651e-4 -6.4162e-4 0.001217-0.001323 0.001217-9.3003e-4 2.609e-5 -0.001756-8.2546e-4 -0.002292-0.001545l-2.8781e-4 1.4415e-4 6.81e-4 0.001716c1.4401e-4 -1.0486e-4 3.5342e-4 -2.4906e-4 5.3685e-4 -2.4906e-4 3.5371e-4 0 8.5096e-4 2.4898e-4 0.001427 2.227e-4 0.001113 0 0.001979-7.992e-4 0.001979-0.001939-3.923e-5 -0.0014-0.001179-0.001691-0.002331-0.002043-6.1582e-4 -1.8343e-4 -0.001469-4.7174e-4 -0.001469-0.001258 0-6.4189e-4 4.9746e-4 -0.001179 0.001179-0.001179 8.9054e-4 -3.925e-5 0.001571 7.6017e-4 0.002043 0.001427l2.4903e-4 -1.0488e-4 -6.1589e-4 -0.001571c-1.0475e-4 1.0474e-4 -2.749e-4 1.8342e-4 -4.5831e-4 1.8342e-4 -1.8343e-4 0-2.4888e-4 -3.921e-5 -4.7174e-4 -1.1781e-4 -2.8799e-4 -6.55e-5 -4.1919e-4 -1.3124e-4 -7.0695e-4 -1.3103e-4zm0.029012 1.0488e-4 -0.001651 0.001075 0.0014 2.8831e-4zm-0.022634 3.1416e-4 0.001323 0.002867-0.002003 2.4907e-4zm-0.033964 3.926e-5 3.5394e-4 0.001363 0.001363-3.5394e-4zm0.054019 0.001219-0.001716 0.001008 0.001363 3.5393e-4zm-0.051412 3.2761e-4 4.3249e-4 0.001363 0.001336-4.7121e-4zm0.048727 0.001099-0.001793 9.0458e-4 0.001363 4.3197e-4zm-0.04603 3.276e-4 5.3736e-4 0.001283 0.001283-5.3685e-4zm0.043265 9.3003e-4 -0.001822 7.8607e-4 0.001283 5.3736e-4zm-0.040476 2.8832e-4 5.7611e-4 0.001283 0.001283-6.0249e-4zm0.037644 8.2545e-4 -0.001861 6.8102e-4 0.001258 6.0248e-4zm-0.034816 2.4908e-4 6.805e-4 0.001256 0.001217-6.8052e-4zm0.031921 7.2027e-4 -0.0019 5.632e-4 0.001217 6.5467e-4zm-0.029012 2.0927e-4 7.4664e-4 0.001179 0.001179-7.4663e-4zm0.026079 5.3734e-4 -0.001939 4.7123e-4 0.001179 7.4663e-4zm-0.023106 1.8344e-4 7.8607e-4 0.00114 0.001179-7.8607e-4zm0.020134 4.3196e-4 -0.001979 3.5393e-4 0.001153 7.861e-4zm-0.017158 1.4416e-4 8.9142e-4 0.001102 0.001073-8.5094e-4zm0.014108 2.7488e-4 -0.001979 2.6198e-4 0.001127 8.5171e-4zm-0.011068 1.1835e-4 9.3002e-4 0.001034 0.001034-9.3003e-4zm0.008057 1.4363e-4 -0.002005 1.0488e-4 0.001075 9.3003e-4zm-0.005042 6.563e-5 9.9495e-4 0.001008 0.001008-0.001008z" fill="#fefc01" stroke-width=".00026456"/>
</svg>
