<svg width="200" height="114" version="1.2" xmlns="http://www.w3.org/2000/svg" xmlns:cc="http://creativecommons.org/ns#" xmlns:dc="http://purl.org/dc/elements/1.1/" xmlns:rdf="http://www.w3.org/1999/02/22-rdf-syntax-ns#">
 <metadata>
  <rdf:RDF>
   <cc:Work rdf:about="">
    <dc:format>image/svg+xml</dc:format>
    <dc:type rdf:resource="http://purl.org/dc/dcmitype/StillImage"/>
    <dc:title/>
   </cc:Work>
  </rdf:RDF>
 </metadata>
 <g transform="matrix(1.0667 0 0 1.0667 -6.6621 -3.7999)" stroke-width=".11362">
  <path d="m54.035 76.308h3.3136v-56.808h-3.3136zm6.8484 0h10.162v-56.808h-10.162zm13.476-56.808v56.806h10.162v-56.806z" fill="#900"/>
  <path d="m135.8 76.313h3.3143v-56.812h-3.3143zm6.8492-56.812v56.812h3.3136v-56.812zm-54.699 56.812h3.3136v-56.812h-3.3136zm6.8492-56.812v56.811h3.3143v-56.811z" fill="#396"/>
  <path d="m101.53 76.313h10.163v-56.812h-10.163zm13.476 0h3.5342v-56.812h-3.5342zm6.8484-56.812v56.811h10.162v-56.811z" fill="#069"/>
 </g>
 <path d="m143.64 84.271 5.577 12.566h-3.3643l-1.0344-2.4827h-5.6221l-0.93549 2.4827h-3.3192l5.0644-12.566h3.634m0.25187 7.8889-2.024-4.8845-1.844 4.8845h3.868m-7.3042-7.8889v2.3028h-4.5516v10.264h-3.1303v-10.264h-4.5516v-2.3028h12.233m-16.192 0 5.577 12.566h-3.3643l-1.0345-2.4827h-5.6221l-0.93551 2.4827h-3.3192l5.0644-12.566h3.634m0.25186 7.8889-2.024-4.8845-1.844 4.8845h3.868m-21.4-7.8889h5.5411c2.1408 1.2e-5 3.832 0.5877 5.0733 1.7631 1.2474 1.1695 1.8709 2.6837 1.8709 4.5427-1e-5 1.949-0.63268 3.4813-1.8981 4.5967-1.2594 1.1094-3.0584 1.6641-5.3972 1.6641h-5.1904v-12.566m3.1303 2.3028v7.9608h2.042c1.3253 0 2.3388-0.3628 3.0404-1.0884 0.70163-0.73161 1.0525-1.6941 1.0525-2.8875-1e-5 -1.2353-0.35682-2.2069-1.0705-2.9146-0.70763-0.71362-1.727-1.0705-3.0584-1.0705h-2.006m-6.0268-2.3028v12.566h-3.1303v-12.566h3.1303m-5.9279 0-4.0929 5.9009 5.5501 6.6655h-3.922l-4.9744-5.8919v5.8919h-3.1303v-12.566h3.1303v5.658l3.9939-5.658h3.4452m-13.466 0v12.566h-3.1303v-12.566h3.1303m-15.418 4.5335-3.8859 8.1951h-1.3492l-5.5231-12.728h3.3192l2.9595 6.9443 3.2293-6.9443h2.5187l3.2293 6.9443 2.9415-6.9443h3.3192l-5.5052 12.728h-1.3492l-3.904-8.1951" fill="#484848" stroke-width=".79999"/>
</svg>
