<svg width="200" height="114" version="1.1" viewBox="0 0 200 114" xmlns="http://www.w3.org/2000/svg" xmlns:cc="http://creativecommons.org/ns#" xmlns:dc="http://purl.org/dc/elements/1.1/" xmlns:rdf="http://www.w3.org/1999/02/22-rdf-syntax-ns#">
 <metadata>
  <rdf:RDF>
   <cc:Work rdf:about="">
    <dc:format>image/svg+xml</dc:format>
    <dc:type rdf:resource="http://purl.org/dc/dcmitype/StillImage"/>
    <dc:title/>
   </cc:Work>
  </rdf:RDF>
 </metadata>
 <style>.a{fill:#73c3c3;}.b{fill:#006f9d;}.c{fill:#0088ad;}</style>
 <path class="a" d="m56.667 60.645v9.7387c0 1.717-1.3792 3.1242-3.1242 3.1242-1.717 0-3.096-1.3792-3.096-3.1242v-9.7387 0.39405c0-2.5613-2.0828-4.6723-4.6723-4.6723s-4.6723 2.0828-4.6723 4.6723v9.3446c0 1.717-1.3792 3.1242-3.1242 3.1242-1.717 0-3.1242-1.3792-3.1242-3.1242v-9.3446c0-6.0233 4.8693-10.893 10.893-10.893s10.893 4.8693 10.893 10.893v-0.3659zm-46.667 2.3361v-17.057c0-1.717 1.4073-3.1242 3.1242-3.1242 1.7169 0 3.1242 1.4073 3.1242 3.1242v17.057-0.39405c0 2.5613 2.0828 4.6723 4.6723 4.6723 2.5613 0 4.6723-2.0828 4.6723-4.6723v-16.663c0-1.717 1.4073-3.1242 3.1242-3.1242 1.7169 0 3.1242 1.4073 3.1242 3.1242v16.663c0 6.0233-4.8693 10.893-10.893 10.893s-10.893-4.8693-10.893-10.893zm56.095 7.4025c0 1.717-1.3792 3.1242-3.1242 3.1242-1.7451 0-3.1242-1.3792-3.1242-3.1242v-17.084c0-1.717 1.4073-3.1242 3.1242-3.1242 1.717 0 3.1242 1.4073 3.1242 3.1242zm0.08443-24.797c0 1.7733-1.4355 3.2086-3.2086 3.2086-1.7733 0-3.2086-1.4355-3.2086-3.2086 0-1.7733 1.4355-3.2086 3.2086-3.2086 1.7733 0 3.2086 1.4355 3.2086 3.2086z" fill="#73c3c3" stroke-width=".28147"/>
 <g fill="#006f9d" stroke-width=".28147">
  <path class="b" d="m92.47 53.694c0-5.9952-4.8693-10.865-10.893-10.865l-1.1821-0.02815h-7.7685c-1.717 0-3.1242 1.4073-3.1242 3.1242v24.432c0 1.717 1.4073 3.1242 3.1242 3.1242 1.7169 0 3.096-1.4073 3.096-3.1242v-21.307h5.8544c2.5895 0 4.6723 2.0828 4.6723 4.6441 0 2.5895-2.0828 4.6723-4.6723 4.6723h0.39405-1.1821c-1.717 0-3.096 1.4073-3.096 3.1242s1.3792 3.096 3.096 3.096h1.1821-0.39405c6.0233 0 10.893-4.8693 10.893-10.893z"/>
  <path class="b" d="m104.12 56.367c-2.5895 0-4.6723 2.0828-4.6723 4.6441v9.3446c0 1.717-1.4073 3.1242-3.1242 3.1242-1.7169 0-3.096-1.4073-3.096-3.1242v-9.3446c0-5.9952 4.8693-10.865 10.893-10.865h1.9421c1.717 0 3.096 1.3792 3.096 3.096 0 1.717-1.3792 3.1242-3.096 3.1242z"/>
  <path class="b" d="m146.14 67.26h-1.1822c-2.5895 0-4.6723-2.1109-4.6723-4.6723v-6.2204h5.4322c1.717 0 3.1242-1.4073 3.1242-3.1242 0-1.717-1.4073-3.1242-3.1242-3.1242h-5.4322v-1.5481c0-1.717-1.4073-3.096-3.1242-3.096-1.717 0-3.096 1.3792-3.096 3.096v14.016c0 6.0233 4.8693 10.893 10.893 10.893h1.1822c1.717 0 3.1242-1.4073 3.1242-3.1242 0-1.7169-1.4073-3.096-3.1242-3.096z"/>
  <circle class="b" cx="129.06" cy="31.091" r="2.0547"/>
 </g>
 <g stroke-width=".28147">
  <circle cx="137.55" cy="23.098" r="2.5895" fill="#0078a3"/>
  <circle class="c" cx="149.02" cy="18.988" r="3.2931" fill="#0088ad"/>
  <circle class="c" cx="162.13" cy="20.283" r="4.0813" fill="#0088ad"/>
  <circle cx="174.35" cy="27.545" r="5.0945" fill="#0092b2"/>
  <circle cx="182.94" cy="41.112" r="5.8826" fill="#009bb5"/>
  <circle cx="183.1" cy="58.815" r="6.8958" fill="#25a5b8"/>
  <circle cx="174.66" cy="76.435" r="7.9372" fill="#46afbc"/>
  <circle cx="156.42" cy="88.566" r="8.7254" fill="#60bac0"/>
  <circle class="a" cx="133.01" cy="88.172" r="10.133" fill="#73c3c3"/>
 </g>
 <circle cx="120.05" cy="61.827" r="9.0912" fill="none" stroke="#006f9d" stroke-width="5.8826"/>
</svg>
