<svg width="200" height="114" version="1.1" viewBox="0 0 200 114" xmlns="http://www.w3.org/2000/svg" xmlns:cc="http://creativecommons.org/ns#" xmlns:dc="http://purl.org/dc/elements/1.1/" xmlns:rdf="http://www.w3.org/1999/02/22-rdf-syntax-ns#">
 <metadata>
  <rdf:RDF>
   <cc:Work rdf:about="">
    <dc:format>image/svg+xml</dc:format>
    <dc:type rdf:resource="http://purl.org/dc/dcmitype/StillImage"/>
    <dc:title/>
   </cc:Work>
  </rdf:RDF>
 </metadata>
 <path d="m140.02 57a40.025 40 0 0 1-40.025 40 40.025 40 0 0 1-40.025-40 40.025 40 0 0 1 40.025-40 40.025 40 0 0 1 40.025 40z" fill="#0d2262"/>
 <g stroke="#fff">
  <path d="m102.01 93.78-1.7521-1.0951-1.724 1.1388 0.5001-2.0047-1.6158-1.2877 2.0612-0.14386 0.72533-1.9347 0.77376 1.9158 2.0641 0.092-1.5829 1.3279z" fill="none" stroke-linecap="round" stroke-linejoin="round" stroke-width=".41793"/>
  <path d="m98.713 18.833-4.2509 0.37376 0.02688 0.30592 1.9558-0.17152 0.43264 4.9293 0.34048-0.02945-0.43392-4.9306 1.9558-0.17152zm1.1277 0.02306-0.34176 0.0012 0.02048 5.257 0.34048-0.0012zm2.9645 0.14208c-0.51674 0.04734-0.98469 0.24421-1.4054 0.59135-0.561 0.46286-0.87688 1.0538-0.94592 1.7741-0.069 0.72032 0.1285 1.3616 0.59136 1.9226 0.46286 0.56099 1.0603 0.87707 1.792 0.9472 0.73164 0.07012 1.3769-0.12722 1.9379-0.59008 0.56099-0.46286 0.87688-1.0537 0.94592-1.7741 0.069-0.72032-0.1285-1.3616-0.59136-1.9226s-1.0604-0.87579-1.792-0.94592c-0.18291-0.01752-0.36023-0.01832-0.53247-0.0025zm0.0435 0.30592c0.14895-0.01414 0.30337-0.01383 0.4608 0.0012 0.62971 0.06038 1.1461 0.33824 1.5514 0.832 0.40778 0.4917 0.58112 1.0575 0.51968 1.6986-0.0615 0.64104-0.33931 1.1656-0.83328 1.5731-0.4915 0.40552-1.0509 0.57876-1.6806 0.5184-0.62971-0.06038-1.1487-0.33646-1.5565-0.82816-0.4053-0.49375-0.57728-1.0614-0.51584-1.7024 0.0614-0.64105 0.33794-1.165 0.82943-1.5706 0.37048-0.30568 0.77813-0.47977 1.225-0.52224zm-11.127 0.5504c-0.13951 0.0066-0.28179 0.02705-0.42624 0.06142-0.57778 0.13751-1.0203 0.45609-1.3274 0.95488-0.30701 0.49879-0.39344 1.0307-0.25856 1.5974l0.72704 3.0554 0.3328-0.07936-0.39552-1.6602 3.4867-0.82944 0.39552 1.6602 0.33152-0.07936-0.72704-3.0554c-0.13488-0.56671-0.45225-1.0024-0.95104-1.3094-0.37409-0.23025-0.76931-0.33595-1.1878-0.31616zm17.056 0.07296c-0.41801-0.02865-0.81662 0.06703-1.1955 0.28928-0.5052 0.29634-0.83102 0.72652-0.97792 1.2902l-0.79231 3.0387 0.33024 0.08704 0.79231-3.0387c0.12681-0.48664 0.40324-0.85646 0.83072-1.1072 0.43025-0.25238 0.88372-0.31594 1.3594-0.192 0.47563 0.12394 0.83782 0.40104 1.088 0.83072 0.25295 0.42805 0.31625 0.88552 0.18945 1.3722l-0.79232 3.0387 0.33152 0.08576 0.79103-3.0387c0.1469-0.56372 0.0723-1.0986-0.224-1.6038-0.29633-0.5052-0.73215-0.832-1.3069-0.98176-0.14368-0.03744-0.28434-0.06087-0.42367-0.0704zm-17.057 0.2368c0.3482-0.01488 0.68018 0.07615 0.99712 0.27264 0.42426 0.25925 0.69508 0.63332 0.81152 1.1226l0.25984 1.0957-3.4867 0.83072-0.25984-1.097c-0.11644-0.48923-0.04474-0.9437 0.21504-1.3658 0.26146-0.42479 0.63032-0.69516 1.1085-0.80896 0.11954-0.02847 0.23849-0.04494 0.35456-0.04993zm-4.7053 1.2454c-0.27244-0.0031-0.54714 0.05017-0.82304 0.16-0.55179 0.2197-0.94346 0.59867-1.175 1.1366-0.23158 0.53797-0.23853 1.0767-0.02304 1.6179l1.161 2.9184 0.31744-0.12672-1.1622-2.9171c-0.18602-0.46722-0.18059-0.92847 0.01537-1.3837 0.19722-0.45816 0.52382-0.77818 0.98048-0.96 0.45666-0.18182 0.91355-0.17375 1.3696 0.02435 0.45732 0.19511 0.77909 0.52605 0.96512 0.99328l1.161 2.9171 0.31744-0.12544-1.1622-2.9184c-0.21548-0.54122-0.59098-0.92682-1.129-1.1584-0.26898-0.11579-0.54036-0.17495-0.8128-0.17792zm26.456 0.09727c-0.27245-0.0025-0.54403 0.05109-0.81536 0.16128-0.54264 0.22041-0.92793 0.59871-1.1546 1.1354l-1.2211 2.8928 0.31488 0.13311 0.66304-1.5731 3.3024 1.3952-0.66432 1.5718 0.31488 0.13312 1.2211-2.8928c0.22661-0.53666 0.22937-1.0766 9e-3 -1.6192-0.22041-0.54264-0.60359-0.92991-1.1507-1.161-0.27357-0.11552-0.54676-0.17398-0.8192-0.17664zm0.0166 0.31488c0.22873 6.15e-4 0.45712 0.04906 0.68352 0.14464 0.4528 0.19122 0.77182 0.51795 0.95744 0.9792 0.18859 0.46004 0.18411 0.92167-0.0115 1.385l-0.43776 1.0381-3.3011-1.3952 0.43776-1.0368c0.19564-0.46328 0.5226-0.78885 0.98176-0.97536 0.23107-0.09386 0.46118-0.14039 0.68992-0.13952zm3.776 1.1648-2.7277 4.4928 3.6467 2.2144 0.15872-0.2624-3.3549-2.0378 2.5677-4.2304zm-34.678 0.66432c-0.41466-0.0297-0.81482 0.06665-1.2006 0.28928l-1.8483 1.0662 2.6278 4.553 0.29568-0.17024-0.512-0.88703 1.5526-0.896c0.23257-0.13421 0.41428-0.27999 0.54656-0.43776l1.481 0.44928 0.40576-0.23296-1.6704-0.51072c0.09452-0.14124 0.173-0.3288 0.23552-0.56192 0.15172-0.56571 0.08252-1.1006-0.20864-1.6051-0.29116-0.50456-0.71941-0.8326-1.2851-0.98431-0.14143-0.03794-0.28162-0.06179-0.41984-0.07168zm-0.04353 0.32c0.11657 0.0091 0.23461 0.03013 0.35456 0.06271 0.48064 0.12724 0.84689 0.40794 1.0982 0.84352 0.25135 0.43558 0.31225 0.89421 0.18304 1.376-0.12838 0.47868-0.40499 0.84105-0.83072 1.0867l-1.5526 0.896-1.8086-3.1334 1.5526-0.896c0.31929-0.18424 0.6538-0.26278 1.0035-0.23552zm-3.8963 1.6845-3.351 2.6419 3.2538 4.128 3.351-2.6419-0.19072-0.24064-3.0822 2.4294-1.8176-2.3053 2.0109-1.5846-0.19072-0.24064-2.0096 1.5846-0.86656-1.0995 3.0822-2.4294zm-4.1421 3.4138-2.935 3.0963 0.22272 0.21248 1.3504-1.4246 3.5917 3.4048 0.23424-0.24832-3.5917-3.4048 1.3504-1.4246zm51.446 0.20352-0.22911 0.20608 1.3158 1.4566-3.6736 3.3178 0.22912 0.25343 3.6736-3.3177 1.3145 1.4566 0.22784-0.20608zm3.5661 4.0141-4.3674 2.9261 0.19071 0.28288 0.84993-0.5696 0.9984 1.4886c0.14942 0.2231 0.30607 0.39567 0.47231 0.51712l-0.34943 1.5078 0.25983 0.38784 0.39807-1.6998c0.14723 0.0849 0.33923 0.15158 0.576 0.1984 0.57457 0.11363 1.1045 8e-3 1.5885-0.31615 0.484-0.32418 0.78237-0.77327 0.89599-1.3478 0.11364-0.57457 5e-3 -1.1091-0.32511-1.6026zm-0.0653 0.4544 0.99712 1.4899c0.27352 0.40838 0.36171 0.85528 0.26368 1.3427-0.0949 0.48807-0.35145 0.87214-0.76928 1.152-0.41783 0.27986-0.87131 0.37197-1.3606 0.2752-0.48617-0.09615-0.86566-0.3481-1.1392-0.75648l-0.99706-1.4899zm-57.981 0.13824c-0.13797-0.0025-0.27942 0.0095-0.42368 0.03455-0.57704 0.10035-1.0368 0.39237-1.3786 0.87807-0.3418 0.48571-0.46259 1.0178-0.36224 1.5949 0.10035 0.57704 0.38888 1.0331 0.86528 1.3683l2.5677 1.8074 0.19712-0.27904-2.569-1.8074c-0.41127-0.28942-0.65877-0.6791-0.74368-1.1674-0.08546-0.49143 0.01281-0.93691 0.29568-1.3389 0.28287-0.40196 0.66956-0.64472 1.1597-0.72832 0.48957-0.08677 0.94041 0.01396 1.3517 0.30336l2.5677 1.8074 0.19712-0.27904-2.569-1.8074c-0.3573-0.25144-0.74193-0.38014-1.1558-0.38655zm-3.3626 3.3677-0.1728 0.2944 4.5363 2.6547 0.1728-0.2944zm63.252 1.2275c-0.26946 0.01402-0.53593 0.0843-0.79871 0.20992l-2.8339 1.3542 0.1472 0.30848 1.5398-0.736 1.5462 3.2333-1.5398 0.736 0.1472 0.3072 2.8326-1.3542c0.52559-0.25124 0.88656-0.65221 1.0816-1.2045 0.19504-0.55227 0.16398-1.0961-0.0922-1.632-0.25614-0.53584-0.65989-0.90192-1.2122-1.097-0.27614-0.09752-0.54846-0.13949-0.81793-0.12544zm0.0346 0.33536c0.23025-0.01297 0.46138 0.02244 0.69503 0.10496 0.47034 0.16611 0.81202 0.47046 1.024 0.91392 0.21198 0.44345 0.23365 0.89875 0.0666 1.367-0.16405 0.46936-0.473 0.81351-0.92672 1.0304l-1.015 0.48511-1.5462-3.2333 1.0163-0.4864c0.22686-0.10845 0.45583-0.1688 0.68609-0.18176zm3.3549 3.8272-5.0202 1.559 0.63231 2.0365c0.17612 0.5672 0.52359 0.98808 1.0419 1.2608 0.51833 0.27272 1.0565 0.32251 1.6128 0.14976l0.97792-0.30336c0.55634-0.17274 0.97016-0.51847 1.2429-1.0368 0.27271-0.51833 0.32075-1.061 0.14463-1.6282zm-0.192 0.41728 0.53119 1.7114c0.14575 0.46941 0.10238 0.92393-0.13055 1.3632-0.23008 0.44076-0.58468 0.73536-1.065 0.88448l-0.97792 0.30336c-0.48028 0.14912-0.94224 0.1081-1.3837-0.12416-0.43858-0.23076-0.72977-0.58147-0.87552-1.0509l-0.53248-1.7114zm-68.747 0.6144c-0.13859 0.0082-0.27006 0.04415-0.39424 0.1088-0.24836 0.12925-0.4155 0.33073-0.50176 0.60416l-0.35968 1.1392c-0.08626 0.27344-0.06524 0.53372 0.06401 0.78208 0.12924 0.24836 0.32621 0.4138 0.5888 0.49664 0.26259 0.08284 0.51708 0.06013 0.76544-0.06912 0.24836-0.12924 0.4155-0.33072 0.50176-0.60416l0.23168-0.73216c0.11912-0.3776 0.35779-0.65851 0.7168-0.84352 0.35752-0.18786 0.73026-0.2211 1.1187-0.09856 0.38845 0.12254 0.67682 0.3635 0.864 0.7232 0.18569 0.35684 0.21896 0.72447 0.09984 1.1021l-0.1024 0.32512c-0.11912 0.3776-0.35799 0.66078-0.71552 0.84864-0.35901 0.185-0.7547 0.20919-1.1866 0.07296l-0.1024 0.32512c0.50781 0.16019 0.98018 0.12744 1.417-0.09984 0.43677-0.22729 0.73071-0.57946 0.88064-1.0547l0.1024-0.32512c0.14992-0.47526 0.11081-0.93154-0.11648-1.3683-0.22729-0.43677-0.57239-0.72773-1.0368-0.87424-0.46441-0.1465-0.9149-0.10696-1.3517 0.12032-0.43677 0.22728-0.73071 0.57946-0.88064 1.0547l-0.2304 0.73215c-0.05545 0.17578-0.1688 0.30827-0.33792 0.39808-0.1706 0.08696-0.3484 0.10111-0.53503 0.04224-0.18663-0.0589-0.32452-0.17205-0.41216-0.34048-0.08913-0.17128-0.10537-0.34518-0.04992-0.52096l0.35968-1.1392c0.05546-0.17578 0.1686-0.30728 0.3392-0.39424 0.16911-0.08982 0.36773-0.09817 0.59776-0.02558l0.10368-0.32512c-0.153-0.04827-0.29917-0.06834-0.43776-0.06013zm70.493 4.1165-5.193 0.8128 0.6592 4.2163 0.30465-0.04863-0.60801-3.8771 2.9005-0.4544 0.39552 2.5293 0.30336-0.04734-0.39552-2.5293 1.3824-0.21632 0.60799 3.8771 0.30336-0.04734zm-72.386 0.0832-0.71168 4.2074 5.1827 0.8768 0.71168-4.2073-0.30336-0.05122-0.65408 3.8707-2.8941-0.49024 0.42624-2.5242-0.30207-0.05122-0.42752 2.5242-1.3798-0.23296 0.65536-3.8707zm-0.78079 5.3094-0.09856 4.2662 0.3072 0.0065 0.04482-1.9622 4.9485 0.1152 0.0077-0.34176-4.9485-0.11392 0.04605-1.9622zm5.2109 4.7309-3.1168 0.384c-0.57815 0.07139-1.0464 0.33822-1.4067 0.8-0.36028 0.46179-0.50414 0.98752-0.43136 1.577 0.07279 0.58944 0.3395 1.0644 0.80128 1.4246 0.46179 0.36027 0.98217 0.50531 1.5603 0.43392l3.1168-0.38528-0.04224-0.3392-1.6934 0.20992-0.43904-3.5571 1.6934-0.20992zm65.64 0.2112c-0.51208 0.02343-0.98646 0.19821-1.4234 0.5248-0.58252 0.43545-0.92657 1.0172-1.0317 1.7446-0.1051 0.72745 0.0599 1.3823 0.49535 1.9648 0.0793 0.10343 0.19302 0.23028 0.33921 0.38016l0.0589-0.4096c-0.061-0.0709-0.11122-0.13149-0.14975-0.18304-0.38343-0.51294-0.5295-1.0827-0.43905-1.7088 0.0905-0.6261 0.39044-1.1318 0.90112-1.5155 0.51261-0.38118 1.0881-0.52473 1.7254-0.43264 0.63736 0.09208 1.1468 0.39332 1.5283 0.90368 0.38342 0.51294 0.5295 1.0814 0.43904 1.7075-0.0905 0.6261-0.39203 1.1321-0.90496 1.5155-0.0515 0.03855-0.11724 0.08239-0.19584 0.13312l-0.0589 0.40831c0.1823-0.10012 0.32474-0.18758 0.42752-0.2624 0.58543-0.43963 0.93169-1.0223 1.0368-1.7498 0.1051-0.72745-0.0612-1.3823-0.49663-1.9648-0.43546-0.58252-1.0105-0.92564-1.7267-1.0291-0.17905-0.02589-0.35411-0.03468-0.5248-0.02687zm-67.597 0.37376 0.44032 3.5571-1.1187 0.13824c-0.4991 0.06163-0.9443-0.05995-1.335-0.3648-0.39328-0.30683-0.61945-0.70386-0.67968-1.1917-0.06026-0.48782 0.06278-0.92738 0.36992-1.3184 0.30458-0.393 0.70666-0.62061 1.2058-0.68224zm66.308 5.033c-0.33396 0.02779-0.66216 0.12563-0.9856 0.29184-0.64688 0.33242-1.0822 0.84771-1.3069 1.5475-0.22472 0.69981-0.17114 1.373 0.16127 2.0198 0.33243 0.64688 0.84318 1.0818 1.5322 1.303 0.68898 0.22123 1.3563 0.16474 2.0032-0.16768 0.64688-0.33242 1.0834-0.84771 1.3082-1.5475 0.22471-0.69981 0.16986-1.373-0.16256-2.0198s-0.84318-1.0818-1.5322-1.303c-0.34449-0.11062-0.68363-0.15196-1.0176-0.12416zm-68.494 0.26112-0.29695 0.08192 1.1328 4.1139 0.29696-0.08192-0.52224-1.8918 4.7718-1.3146-0.0896-0.32896-4.7718 1.3146zm68.504 0.07552c0.29552-0.02343 0.59711 0.0142 0.90368 0.11264 0.61314 0.19689 1.0656 0.57886 1.3568 1.1456 0.2927 0.5696 0.34189 1.1551 0.14848 1.7574-0.19341 0.60231-0.57414 1.0496-1.143 1.3402-0.56742 0.2934-1.1584 0.34152-1.7715 0.14464-0.61315-0.19689-1.0654-0.57984-1.3581-1.1494-0.29124-0.56674-0.34061-1.1513-0.1472-1.7536 0.1934-0.60232 0.57433-1.0506 1.1418-1.344 0.28446-0.14527 0.57361-0.23003 0.86912-0.25344zm-63.394 3.5891c-0.22618 0.0031-0.4511 0.05306-0.67456 0.14976-0.44691 0.1934-0.76083 0.51884-0.94208 0.97664-0.18125 0.4578-0.17232 0.91608 0.0256 1.3734l0.30464 0.704c0.07318 0.16916 0.07539 0.34361 0.0064 0.52224-0.07198 0.17744-0.198 0.30499-0.3776 0.38272-0.1796 0.0777-0.35722 0.0814-0.53376 0.0115-0.17953-0.07108-0.30695-0.1918-0.38016-0.36096l-0.47361-1.0957c-0.07321-0.16916-0.07454-0.34224-0.0026-0.51967 0.06899-0.17862 0.21511-0.31636 0.43648-0.41216l-0.13566-0.3136c-0.29446 0.12743-0.49342 0.32208-0.59648 0.5824-0.10306 0.26032-0.09723 0.52151 0.01664 0.78464l0.4736 1.097c0.11387 0.26314 0.3016 0.44606 0.56192 0.54912 0.26032 0.10306 0.51658 0.09911 0.76928-0.01027 0.2527-0.10936 0.4307-0.29392 0.53376-0.55424 0.10306-0.26031 0.09723-0.52149-0.01664-0.78464l-0.30464-0.70528c-0.15725-0.36338-0.16041-0.73227-0.01024-1.1072 0.14718-0.3761 0.40698-0.64462 0.7808-0.8064 0.37382-0.16177 0.74939-0.16847 1.1264-0.01918 0.37402 0.14808 0.64018 0.40334 0.79744 0.76672l0.1344 0.3136c0.15726 0.36338 0.16254 0.73365 0.01537 1.1098-0.15017 0.37492-0.43305 0.65215-0.84864 0.832l0.13568 0.3136c0.48868-0.21148 0.82355-0.547 1.0048-1.0048 0.18125-0.4578 0.1736-0.9148-0.02432-1.3722l-0.13568-0.3136c-0.19792-0.45735-0.52652-0.77619-0.98432-0.95744-0.2289-0.09062-0.45606-0.13487-0.68224-0.13184zm60.197 0.77696-0.16128 0.3008 3.3715 1.8022c0.27692 0.14808 0.45951 0.36994 0.54912 0.6656 0.0896 0.29566 0.0634 0.57664-0.0794 0.84352-0.14272 0.26688-0.36098 0.44542-0.65663 0.53504-0.29566 0.08962-0.58197 0.06105-0.85889-0.08704l-3.3715-1.8035-0.16127 0.3008 3.3715 1.8035c0.27691 0.14809 0.4595 0.36994 0.54912 0.6656 0.0896 0.29566 0.0634 0.57664-0.0794 0.84352-0.14272 0.26688-0.36226 0.44542-0.65791 0.53504-0.29566 0.08962-0.58197 0.05976-0.85888-0.08832l-3.3702-1.8022-0.16127 0.3008 3.3715 1.8035c0.34715 0.18565 0.71068 0.21923 1.0906 0.1024 0.38082-0.11375 0.66659-0.34938 0.85761-0.70656 0.19101-0.35718 0.22874-0.72455 0.11391-1.1034-0.0635-0.20942-0.1093-0.32939-0.13696-0.35968 0.0406 0.0062 0.16562-0.02226 0.37505-0.08576 0.3788-0.11483 0.66402-0.35066 0.85503-0.70784 0.19101-0.35718 0.2284-0.72658 0.11264-1.1085-0.11482-0.3788-0.34533-0.66171-0.69248-0.84736zm-2.7264 5.1277-0.21249 0.26624 2.985 2.3885c0.24526 0.19612 0.38567 0.44688 0.41984 0.75392 0.0342 0.30704-0.0439 0.579-0.23296 0.81536-0.18902 0.23637-0.43664 0.37158-0.74368 0.40576-0.30704 0.03419-0.58291-0.0471-0.82816-0.2432l-2.9862-2.3872-0.21248 0.26624 2.985 2.3885c0.24526 0.19612 0.38568 0.44688 0.41984 0.75392 0.0342 0.30705-0.0439 0.57899-0.23296 0.81536-0.18901 0.23636-0.43663 0.37158-0.74367 0.40576-0.30705 0.03419-0.58291-0.0471-0.82817-0.2432l-2.9862-2.3872-0.21248 0.26624 2.985 2.3885c0.30746 0.24586 0.65862 0.34508 1.0534 0.29952 0.39518-0.04236 0.71983-0.22126 0.9728-0.5376 0.25297-0.31634 0.35739-0.67156 0.3136-1.065-0.0242-0.21747-0.0474-0.34276-0.0691-0.3776 0.0387 0.01353 0.16651 0.0076 0.384-0.01666 0.3934-0.04378 0.71727-0.22382 0.97024-0.54016s0.35774-0.67221 0.3136-1.0688c-0.0438-0.3934-0.21991-0.71414-0.52736-0.96zm-52.832 2.2144c-0.41213 0.0388-0.78605 0.1975-1.1226 0.47616l-0.78976 0.6528c-0.44868 0.37154-0.70036 0.8492-0.7552 1.4323-0.05483 0.58313 0.1076 1.1029 0.4864 1.5603l1.3606 1.6435 4.0486-3.3523-1.3606-1.6435c-0.3788-0.45744-0.85943-0.71316-1.4426-0.768-0.14578-0.01371-0.28758-0.0142-0.42496-0.0012zm0.05888 0.32768c0.11732-0.01131 0.23808-0.01168 0.36224 0 0.49341 0.04642 0.89611 0.25888 1.2096 0.63744l1.143 1.3798-3.575 2.9606-1.143-1.3798c-0.31349-0.37857-0.44623-0.81585-0.39808-1.3107 0.04495-0.49517 0.26163-0.90293 0.64896-1.2237l0.78848-0.6528c0.2905-0.24056 0.61187-0.37701 0.96384-0.41088zm49.061 1.9059-0.23936 0.2432 3.7491 3.6838 0.23935-0.2432zm-45.626 0.40192-0.20608 0.22912 2.9133 2.6304-1.9674 2.1786-1.8995-1.7152-0.20608 0.22784 1.8995 1.7152-0.93824 1.0381-2.9133-2.6304-0.20608 0.22784 3.1667 2.8595 3.5238-3.9014zm45.152 0.87424c-0.4912-0.03388-0.92468 0.11302-1.3005 0.44032l-0.25857 0.224c-0.37577 0.3273-0.58049 0.73631-0.6144 1.2275-0.0339 0.4912 0.10898 0.92046 0.4288 1.2877 0.31983 0.36722 0.72608 0.56771 1.2173 0.6016 0.4912 0.03388 0.92468-0.11302 1.3005-0.44032l0.57856-0.50432c0.13899-0.12104 0.30422-0.17539 0.49536-0.16384 0.19091 0.01479 0.35147 0.09563 0.47999 0.2432 0.12853 0.14757 0.18587 0.31618 0.1728 0.5056-0.0133 0.19263-0.0901 0.34998-0.22912 0.47104l-0.89983 0.78464c-0.139 0.12108-0.30445 0.17352-0.49536 0.15872-0.19114-0.01157-0.36638-0.10738-0.5248-0.28928l-0.25728 0.224c0.21073 0.24194 0.45669 0.3724 0.736 0.39168 0.27932 0.01927 0.52618-0.06513 0.7424-0.25344l0.90112-0.78464c0.21621-0.18831 0.33401-0.42213 0.35327-0.70144 0.0193-0.27931-0.0611-0.52324-0.24191-0.73088-0.18084-0.20762-0.41189-0.3212-0.6912-0.34048-0.27932-0.01924-0.52619 0.06513-0.7424 0.25344l-0.57984 0.50559c-0.29858 0.26004-0.64935 0.375-1.0522 0.3456-0.40302-0.02619-0.73728-0.19332-1.0048-0.50048-0.26753-0.30716-0.3876-0.663-0.35968-1.0675 0.0277-0.40131 0.19038-0.73196 0.48896-0.992l0.25729-0.224c0.29857-0.26004 0.64912-0.37691 1.0522-0.35072 0.40281 0.02939 0.75347 0.21532 1.0509 0.5568l0.25728-0.22528c-0.34972-0.40153-0.7696-0.61891-1.2608-0.6528zm-3.6672 2.761c-0.34931-0.0042-0.67997 0.09761-0.992 0.30336l-0.28544 0.18688c-0.41603 0.27433-0.67282 0.65304-0.77184 1.1354-0.099 0.48232-0.0146 0.92722 0.25344 1.3338 0.26811 0.40636 0.64284 0.65857 1.1251 0.75776 0.48231 0.099 0.9318 0.0119 1.3478-0.2624l0.64128-0.42368c0.15384-0.1013 0.32407-0.13276 0.512-0.096 0.18724 0.04008 0.33515 0.14126 0.44288 0.30464 0.10773 0.16337 0.14186 0.33881 0.10367 0.5248-0.0388 0.18914-0.13412 0.33373-0.28799 0.4352l-0.9984 0.65791c-0.1539 0.10158-0.3235 0.13236-0.51072 0.0922-0.1879-0.0369-0.3485-0.15574-0.48128-0.35712l-0.28544 0.18688c0.17666 0.2677 0.40289 0.42994 0.67711 0.4864 0.27427 0.0563 0.53121 6e-3 0.77057-0.15232l0.99711-0.65665c0.23937-0.15783 0.38659-0.37469 0.44288-0.64896 0.0563-0.27425 9e-3 -0.52661-0.14208-0.75647-0.1516-0.2297-0.36449-0.37234-0.63871-0.4288-0.27426-0.0563-0.5312-0.0055-0.77057 0.15232l-0.64127 0.4224c-0.33058 0.21809-0.69401 0.28643-1.0893 0.20352-0.39595-0.0796-0.70633-0.28971-0.93056-0.62976-0.22422-0.34005-0.29529-0.70871-0.21375-1.1059 0.0809-0.39405 0.28639-0.6998 0.61695-0.91776l0.28544-0.18816c0.33053-0.21783 0.6933-0.28685 1.0893-0.20736 0.3953 0.08279 0.7184 0.31315 0.96768 0.6912l0.28415-0.18816c-0.29315-0.44436-0.67995-0.71617-1.1622-0.81536-0.12058-0.02475-0.2394-0.03827-0.35584-0.03968zm-36.39 0.49792-2.7494 4.1152-1.632-1.0893-0.17024 0.25472 3.5469 2.3706 0.17152-0.256-1.632-1.0906 2.7482-4.1152zm33.298 1.1149-0.29952 0.16512 2.5459 4.599 0.29824-0.16512zm-31.041 0.25088-2.5434 4.6003 0.29952 0.16512 2.5434-4.6003zm0.57984 0.37248-1.2838 2.8659c-0.23818 0.53163-0.25342 1.0719-0.0448 1.6192 0.20862 0.54728 0.58439 0.94244 1.1264 1.1853 0.54201 0.24283 1.086 0.25982 1.6333 0.0512 0.54728-0.20862 0.9407-0.57941 1.1789-1.111l1.2838-2.8659-0.31232-0.13952-1.2838 2.8659c-0.20562 0.45894-0.53915 0.77707-1.0022 0.95359-0.46609 0.17767-0.9236 0.16641-1.3722-0.0345-0.44856-0.20096-0.76136-0.53451-0.93696-0.99968-0.1786-0.46401-0.16466-0.92601 0.04096-1.385l1.2838-2.8646zm28.508 0.64384c-0.33771 0.0054-0.67493 0.07994-1.0125 0.22528-0.67508 0.29067-1.1467 0.7745-1.4157 1.4502-0.26896 0.67574-0.26057 1.3462 0.0256 2.0109 0.28617 0.66464 0.76683 1.1314 1.4426 1.4003 0.67573 0.26896 1.3512 0.25739 2.0262-0.0333 0.67509-0.29068 1.1467-0.77323 1.4157-1.449s0.26057-1.3462-0.0256-2.0109c-0.28619-0.66463-0.76683-1.1314-1.4426-1.4003-0.33786-0.13448-0.67604-0.19871-1.0138-0.19328zm-0.0141 0.31488c0.29379-4e-3 0.58871 0.0529 0.88577 0.17024 0.59291 0.23773 1.0164 0.6514 1.271 1.2429 0.25469 0.59149 0.2638 1.1834 0.0282 1.7754-0.23683 0.595-0.6452 1.0183-1.2262 1.2685-0.58104 0.25018-1.1684 0.25565-1.7613 0.0179-0.59411-0.23475-1.0176-0.64756-1.2723-1.239-0.2547-0.59148-0.26371-1.1842-0.0269-1.7792 0.23565-0.59201 0.64393-1.0132 1.225-1.2634 0.29052-0.12508 0.58301-0.18942 0.87679-0.19328zm-3.7568 1.0688-0.33152 0.0832 0.76289 3.0464c0.12216 0.48784 0.0564 0.94454-0.19841 1.3696-0.25647 0.42782-0.62272 0.70108-1.0995 0.82047-0.4768 0.1194-0.92863 0.0509-1.3542-0.20607-0.42727-0.25427-0.70216-0.62577-0.82432-1.1136l-0.76288-3.0464-0.33024 0.0832 0.7616 3.0464c0.1415 0.5651 0.46405 0.99805 0.9664 1.2992 0.50235 0.30115 1.0418 0.37979 1.6179 0.23552 0.57612-0.14426 1.0147-0.46789 1.3158-0.97023 0.30115-0.50235 0.38086-1.0362 0.23936-1.6013zm-18.876 0.30208c-0.4173-0.0376-0.81837 0.0495-1.2019 0.26367-0.5114 0.28551-0.84592 0.70931-1.0048 1.2698l-0.85632 3.0208 0.32768 0.0934 0.85632-3.0208c0.13715-0.48383 0.42463-0.8474 0.86016-1.0906 0.43272-0.24158 0.88519-0.29533 1.3581-0.16128 0.47289 0.13405 0.83143 0.41658 1.0752 0.84992 0.24096 0.43491 0.29203 0.89473 0.15488 1.3786l-0.85632 3.0208 0.32896 0.0934 0.85632-3.0208c0.15887-0.56046 0.09478-1.0963-0.19072-1.6077-0.2855-0.51138-0.71372-0.84792-1.2851-1.0099-0.14285-0.0405-0.2833-0.0668-0.4224-0.0794z" fill="#fff" stroke-width=".26381" style="font-feature-settings:normal;font-variant-caps:normal;font-variant-ligatures:normal;font-variant-numeric:normal"/>
  <g transform="matrix(2.3581 0 0 2.3581 57.437 14.016)" fill="none" stroke-width=".2">
   <g>
    <path d="m17.146 23.009c1.0317 0.1709 0.92549 1.1242-0.10627 2.1964 0.03269-0.98274-0.0045-1.6334-0.57-2.1964z"/>
    <path d="m14.704 23.009c-1.0317 0.1709-0.92549 1.1242 0.10627 2.1964-0.03269-0.98274 0.0045-1.6334 0.57-2.1964z"/>
    <path d="m15.38 23.009h1.0898c0 1.7512-0.25135 1.3884-0.46179 2.1357-0.33632-0.74872-0.62797-0.32672-0.62797-2.1357z"/>
    <path d="m8.8495 19.361c2.9201 5.1047 4.1847 7.7812 3.8258 8.0766-2.3372-1.6578-4.3764-3.2205-4.8418-6.678 0.048944-0.51857 0.46057-1.1695 1.0161-1.3986z"/>
   </g>
   <g stroke-linecap="round" stroke-linejoin="round">
    <path d="m11.49 24.156-2.6409-4.7955 0.7964-0.77887c0.73489 1.3504 1.4578 2.7103 1.9401 4.2628 0.31887 0.75366 0.27373 1.1013-0.09564 1.3116z"/>
    <path d="m9.6459 18.582 0.67207-1.5011c0.55434 1.3035 1.1934 2.5901 1.5071 3.9417 0.17087 1.192 0.05312 1.7107-0.23908 1.8222-0.44374-1.4463-1.2178-2.8513-1.9401-4.2628z"/>
    <path d="m7.8334 20.759c-0.26558-1.8172-0.36113-4.0177 0.090963-4.8007 0.49196-0.59226 0.68833-0.59334 0.98372-0.79244l-0.058616 4.1946c-0.60436 0.46621-0.84397 0.93241-1.0161 1.3986z"/>
    <path d="m8.9081 15.166 1.0234-0.98375 0.15458 3.1302-0.44021 1.2693-0.7964 0.77887z"/>
    <path d="m9.9315 14.182 0.93035-1.175 0.25959 3.0468-1.0354 1.2583z"/>
    <path d="m10.862 13.007 0.23227-0.56017c0.19448-0.1311 0.49326-0.23754 0.72412-0.15029l0.20494 2.6506c-0.21262 0.52062-0.5557 0.71949-0.90174 1.1067z"/>
    <path d="m11.121 16.054 1.0901 3.0939c0.22591 1.179 0.20882 1.9783-0.38644 1.8742l-1.5071-3.9417z"/>
    <path d="m12.023 14.948 0.71001 3.3504c0 0.88111-0.25976 1.1478-0.5217 0.85017l-1.0901-3.0939c0.30278-0.35897 0.64471-0.54183 0.90174-1.1067z"/>
    <path d="m11.094 12.447c0.27712-0.21672 0.39503-0.69878 0.57384-1.0794"/>
    <path d="m11.818 12.297c0.6493-0.15099 0.62854-0.54128 0.8061-0.86075l0.30058 3.5113-0.90174-4e-6z"/>
    <path d="m12.925 14.948 1.1801 4.5484c-0.48545-0.14583-0.98538-0.16138-1.3719-1.198l-0.71001-3.3504z"/>
    <path d="m12.925 14.948c0.88139 1.3564 0.80042 1.002 1.093 1.3116l0.84709 3.525c-0.26801-0.0569-0.59111 0.03308-0.75998-0.2882z"/>
    <path d="m14.018 16.259c0.27426 0.47504 0.66261 0.20673 0.85199 0.25748l0.58766 2.1678-0.59256 1.0997z"/>
    <path d="m12.624 11.436 0.30058 3.5113c0.38839 0.64162 0.75611 1.1076 1.093 1.3116-0.60392-1.0916-0.27584-2.1832-0.37662-3.2747-0.72723 0.82118-0.70095-0.95306-1.017-1.5482z"/>
    <path d="m13.68 14.182h0.77288c0.11082 0.77808-0.01433 1.5562 0.41708 2.3342l-0.85199-0.25748c-0.42458-0.62294-0.36192-1.3542-0.33797-2.0768z"/>
    <path d="m7.9244 15.959c0.67892-1.7867 1.1653-4.3657 4.7122-6.4135 2.8402-0.88454 0.33888 3.5308 3.1688 3.4393l-0.03865 0.85017 0.65695-0.50237 0.3478 1.0434 0.54102-1.0434 0.3478 1.198 0.57966-1.0434 0.50237 0.88881 0.3478-0.81152 0.54102 0.42508 0.15458-0.69559 0.3478 0.23186 0.15458-0.54102c2.7805 0.05567-0.48576-6.1406 4.6759-2.4346 1.693 1.693 2.4235 3.3317 3.2461 5.0624"/>
   </g>
   <path d="m27.25 19.361c-2.4703 4.6533-4.2285 6.3039-3.8258 8.0766 2.3348-1.6571 3.735-3.0232 4.8418-6.678-0.04894-0.51857-0.46057-1.1695-1.0161-1.3986z"/>
   <g stroke-linecap="round" stroke-linejoin="round">
    <path d="m24.472 24.129 2.7775-4.7682-0.7964-0.77887c-0.7349 1.3504-1.4578 2.7103-1.9401 4.2628-0.34226 0.63076-0.5429 1.1498-0.04099 1.2843z"/>
    <path d="m26.453 18.582-0.67207-1.5011c-0.55434 1.3035-1.1934 2.5901-1.5071 3.9417-0.17087 1.192-0.05312 1.7107 0.23908 1.8222 0.44374-1.4463 1.2178-2.8513 1.9401-4.2628z"/>
    <path d="m28.266 20.759c0.26558-1.8172 0.36113-4.0177-0.09096-4.8007-0.49196-0.59226-0.68833-0.59334-0.98372-0.79244l0.05862 4.1946c0.60436 0.46621 0.84398 0.93241 1.0161 1.3986z"/>
    <path d="m27.191 15.166-1.0234-0.98375-0.15458 3.1302 0.44021 1.2693 0.7964 0.77887z"/>
    <path d="m26.168 14.182-0.93035-1.175-0.25959 3.0468 1.0354 1.2583z"/>
    <path d="m25.237 13.007-0.23227-0.56017c-0.19448-0.1311-0.49326-0.23754-0.72412-0.15029l-0.20494 2.6506c0.21262 0.52062 0.5557 0.71949 0.90174 1.1067z"/>
    <path d="m24.978 16.054-1.0901 3.0939c-0.22591 1.179-0.20882 1.9783 0.38644 1.8742l1.5071-3.9417z"/>
    <path d="m24.076 14.948-0.71001 3.3504c0 0.88111 0.25976 1.1478 0.5217 0.85017l1.0901-3.0939c-0.30278-0.35897-0.64471-0.54183-0.90174-1.1067z"/>
    <path d="m25.005 12.447c-0.27712-0.21672-0.39503-0.69878-0.57384-1.0794"/>
    <path d="m24.281 12.297c-0.6493-0.15099-0.62854-0.54128-0.8061-0.86075l-0.30058 3.5113 0.90174-4e-6z"/>
    <path d="m23.174 14.948-1.1801 4.5484c0.48545-0.14583 0.98538-0.16138 1.3719-1.198l0.71001-3.3504z"/>
    <path d="m23.174 14.948c-0.88139 1.3564-0.80042 1.002-1.093 1.3116l-0.84709 3.525c0.26801-0.0569 0.59111 0.03308 0.75998-0.2882z"/>
    <path d="m22.081 16.259c-0.27426 0.47504-0.66261 0.20673-0.85199 0.25748l-0.58766 2.1678 0.59256 1.0997z"/>
    <path d="m23.475 11.436-0.30058 3.5113c-0.38839 0.64162-0.75611 1.1076-1.093 1.3116 0.60392-1.0916 0.27584-2.1832 0.37662-3.2747 0.72723 0.82118 0.70095-0.95306 1.017-1.5482z"/>
    <path d="m22.419 14.182h-0.77288c-0.11082 0.77808 0.01433 1.5562-0.41708 2.3342l0.85199-0.25748c0.42458-0.62294 0.36192-1.3542 0.33797-2.0768z"/>
   </g>
   <g>
    <path d="m21.165 23.009c1.0317 0.1709 0.92549 1.1242-0.10627 2.1964 0.03269-0.98274-0.0045-1.6334-0.57-2.1964z"/>
    <path d="m18.723 23.009c-1.0317 0.1709-0.92549 1.1242 0.10627 2.1964-0.03269-0.98274 0.0045-1.6334 0.57-2.1964z"/>
    <path d="m19.399 23.009h1.0898c0 1.7512-0.25135 1.3884-0.46179 2.1357-0.33632-0.74872-0.62797-0.32672-0.62797-2.1357z"/>
   </g>
   <g stroke-linecap="round" stroke-linejoin="round">
    <path d="m14.377 20.713 1.1451-2.0278c0.20162-0.28511 0.24668-0.33234 0.96107-0.85958 0.49947 0.33639 1.0234 0.63228 1.0838 1.1879l0.26583 1.796c-0.52754-0.08629-0.80513-0.52668-1.1247-0.90766-0.14778 0.3937-0.2862 0.63733-0.85883 0.83041v-0.98491c-0.31997 0.96705-0.82526 1.234-1.4723 0.9656z"/>
    <path d="m14.377 21.93 0.6368-1.1276c0.47693-0.16412 0.68211-0.58489 0.83548-1.0546v0.98491c0.31948-0.16704 0.64515-0.31363 0.85883-0.83041 0.28403 0.31025 0.45717 0.69904 0.93889 0.86926l0.18576 1.255c-0.52754-0.08629-0.80513-0.52668-1.1247-0.90766-0.14778 0.3937-0.2862 0.63733-0.85883 0.83041v-0.98491c-0.31997 0.96705-0.82526 1.234-1.4723 0.9656z"/>
    <path d="m14.377 22.919 0.5959-0.88444c0.47693-0.147 0.72301-0.64939 0.87637-1.0701v0.98491c0.31948-0.14961 0.64515-0.38368 0.85883-0.84653 0.28403 0.27788 0.45717 0.6261 0.93889 0.77856l0.18576 1.1241c-0.52754-0.07728-0.80513-0.47172-1.1247-0.81294-0.14778 0.35262-0.2862 0.57082-0.85883 0.74376v-0.88213c-0.31997 0.86614-0.82526 1.1052-1.4723 0.86484z"/>
    <path d="m21.721 20.713-1.1924-2.027c-0.20995-0.285-0.25688-0.33214-1.0008-0.85919-0.52011 0.33626-1.0657 0.63198-1.1285 1.1874l-0.27681 1.7953c0.54934-0.08625 0.8384-0.52647 1.1711-0.90731 0.15388 0.39355 0.29803 0.63708 0.89431 0.83009v-0.98453c0.33319 0.96668 0.85936 1.2335 1.5331 0.96523z"/>
    <path d="m21.721 21.929-0.66311-1.1272c-0.49664-0.16406-0.7103-0.58467-0.87-1.0542v0.98453c-0.33268-0.16697-0.67181-0.31351-0.89431-0.83009-0.29576 0.31013-0.47606 0.69878-0.97769 0.86893l-0.19344 1.2546c0.54934-0.08625 0.8384-0.52647 1.1711-0.90731 0.15388 0.39355 0.29803 0.63708 0.89431 0.83009v-0.98453c0.33319 0.96668 0.85936 1.2335 1.5331 0.96523z"/>
    <path d="m21.721 22.918-0.62052-0.8841c-0.49664-0.14694-0.75288-0.64914-0.91258-1.0697v0.98453c-0.33268-0.14955-0.67181-0.38353-0.89431-0.84621-0.29576 0.27777-0.47606 0.62586-0.97769 0.77826l-0.19344 1.1236c0.54934-0.07725 0.8384-0.47154 1.1711-0.81263 0.15388 0.35249 0.29803 0.5706 0.89431 0.74347v-0.88179c0.33319 0.8658 0.85936 1.1048 1.5331 0.8645z"/>
    <path d="m19.174 16.826 0.40573-0.75449 0.44377 0.75449-0.44377 0.55908z"/>
    <path d="m18.057 16.825 0.52928-0.74596 0.5789 0.74596-0.5789 0.55276z"/>
    <path d="m16.948 16.825 0.52928-0.74596 0.5789 0.74596-0.5789 0.55276z"/>
    <path d="m15.84 16.825 0.52928-0.74596 0.5789 0.74596-0.5789 0.55276z"/>
    <path d="m19.824 16.385 0.67627-0.67627 0.11593 1.2559-0.59308-0.13874z"/>
    <path d="m16.136 16.442-0.77288-0.73424-0.11593 1.2559 0.59308-0.13874z"/>
    <path d="m17.478 17.378 0.5789-0.55276 0.52928 0.55276-0.52928 0.97782z"/>
    <path d="m16.483 17.826-0.1137-0.44803 0.5789-0.55276 0.52928 0.55276-0.33095 0.84892z"/>
    <path d="m19.58 17.826 0.1137-0.44803-0.5789-0.55276-0.52928 0.55276 0.33095 0.84892z"/>
    <path d="m17.657 18.871 0.39892-0.51054 0.36473 0.51054-0.36473 0.90313z"/>
    <path d="m15.247 16.964 0.78048 1.1508 0.45558-0.28872-0.1137-0.44803-0.52928-0.55276z"/>
    <path d="m20.816 16.964-0.78048 1.1508-0.45558-0.28872 0.1137-0.44803 0.32948-0.55165z"/>
    <path d="m14.551 15.111 0.75145-0.01366-0.05512 1.8658-0.23179 0.11527c-0.23112-0.60133-0.48045-1.1897-0.46454-1.9674z"/>
    <path d="m21.313 15.113-0.75145-0.01366 0.05512 1.8658 0.23179 0.11527c0.23112-0.60133 0.48045-1.1897 0.46454-1.9674z"/>
    <path d="m20.009 18.183 0.80781-1.2191 0.27203 0.13576-0.47136 1.7147c-0.0763-0.21121-0.24291-0.36591-0.60847-0.63135z"/>
    <path d="m16.095 18.162-0.80781-1.2191-0.27203 0.13576 0.47136 1.7147c0.0763-0.21121 0.24291-0.36591 0.60847-0.63135z"/>
    <path d="m15.805 12.984c0.6354-0.65028 1.1714-1.4271 1.2457-2.7915-0.4176-0.18578-0.92347-1.1071-1.2023-0.13663-0.3116-0.92614-0.09865-1.5185 1.2843-1.3663 0.39274-0.88206 2.432-0.56992 2.432 1.5576 0 1.2406 0.11778 1.9026 0.72308 2.7369"/>
    <path d="m15.849 10.056c0.10656-0.2696-0.27481-0.70185 1.7343-0.33728-0.33144-0.343-0.36361-0.686-0.44997-1.029-1.4775-0.16187-1.5422 0.50732-1.2843 1.3663z"/>
    <path d="m17.43 8.9461c0.42255-0.39113 0.6223 0.3271 0.88764 0.1739"/>
    <path d="m14.947 27.381c-1.0142-7e-3 -0.95269-1.2433 0-1.175h5.9023c1.0643 0 1.0849 1.1477 0 1.1477"/>
    <path d="m14.018 24.02c-0.59895 0-0.58889 0.29257-0.72925 0.53568-0.3094 1.1547 0.03754 3.6724 2.888 3.6724v-2.0221"/>
    <path d="m21.904 24.02c0.59895 0 0.58889 0.29257 0.72925 0.53568 0.3094 1.1547-0.03754 3.6724-2.888 3.6724v-2.0221"/>
   </g>
  </g>
 </g>
</svg>
