<?xml version="1.0" encoding="UTF-8" standalone="no"?>
<svg
   xmlns:dc="http://purl.org/dc/elements/1.1/"
   xmlns:cc="http://creativecommons.org/ns#"
   xmlns:rdf="http://www.w3.org/1999/02/22-rdf-syntax-ns#"
   xmlns:svg="http://www.w3.org/2000/svg"
   xmlns="http://www.w3.org/2000/svg"
   viewBox="0 0 200 114"
   height="114"
   width="200"
   id="svg2"
   version="1.1">
  <metadata
     id="metadata8">
    <rdf:RDF>
      <cc:Work
         rdf:about="">
        <dc:format>image/svg+xml</dc:format>
        <dc:type
           rdf:resource="http://purl.org/dc/dcmitype/StillImage" />
        <dc:title></dc:title>
      </cc:Work>
    </rdf:RDF>
  </metadata>
  <defs
     id="defs6" />
  <path
     id="path840"
     d="m 21.293221,40.00763 v 24.447716 h 7.587428 v -9.070372 h 4.139138 c 3.046063,0 5.304857,-0.694827 6.783421,-2.084456 1.489682,-1.389629 2.239307,-3.32086 2.239307,-5.78884 0,-2.401274 -0.687289,-4.249921 -2.054683,-5.550613 C 38.631556,40.660374 36.58836,40.00763 33.853571,40.00763 Z m 24.679985,0 v 24.447716 h 7.587427 v -9.070372 h 4.139139 c 3.046062,0 5.30486,-0.694827 6.783421,-2.084456 1.489684,-1.389629 2.233348,-3.32086 2.233348,-5.78884 0,-2.401274 -0.68133,-4.249921 -2.048724,-5.550613 C 63.31154,40.660374 61.268344,40.00763 58.533556,40.00763 Z m 24.816964,0 v 24.447716 h 11.220339 c 1.345158,0 2.845994,-0.222352 4.502431,-0.667026 1.211756,-0.322396 2.344527,-0.968389 3.400643,-1.93557 1.056119,-0.978298 1.882369,-2.18095 2.471572,-3.615046 0.600318,-1.445211 0.899295,-3.474119 0.899295,-6.086619 0,-1.667551 -0.201312,-3.25097 -0.601516,-4.740652 -0.400213,-1.489678 -1.046205,-2.795962 -1.935566,-3.91878 -0.889364,-1.122819 -2.015384,-1.98441 -3.382778,-2.584731 -1.356276,-0.600317 -3.141794,-0.899292 -5.354081,-0.899292 z m 26.460706,0 v 24.447716 h 13.042754 c 0.55585,0 1.68187,-0.111176 3.38278,-0.333513 1.27845,-0.166764 2.23693,-0.43119 2.87059,-0.798051 1.02277,-0.589203 1.82877,-1.394413 2.41797,-2.406061 0.58921,-1.011649 0.88143,-2.151168 0.88143,-3.418509 0,-1.556385 -0.41689,-2.842418 -1.25067,-3.865181 -0.82266,-1.033884 -2.10869,-1.763259 -3.86518,-2.185704 1.15617,-0.400213 2.03205,-0.942579 2.63237,-1.631835 0.90048,-1.033884 1.35192,-2.277032 1.35192,-3.722246 0,-1.723137 -0.6325,-3.168384 -1.89983,-4.335673 -1.25623,-1.167286 -3.06279,-1.750943 -5.4196,-1.750943 z m 7.623164,4.955055 h 3.33513 c 1.14505,0 1.94431,0.201313 2.40011,0.601513 0.46691,0.400213 0.70275,0.956079 0.70275,1.667567 0,0.767076 -0.23583,1.351528 -0.70275,1.762856 -0.4558,0.400216 -1.27531,0.601516 -2.45371,0.601516 h -3.28153 z m -75.993391,0.01799 h 2.155925 c 1.411862,0 2.371125,0.264432 2.882508,0.79805 0.511383,0.533615 0.768272,1.186359 0.768272,1.953435 0,0.789308 -0.298188,1.436097 -0.887384,1.94748 -0.589202,0.500265 -1.610801,0.750403 -3.067131,0.750403 h -1.85219 z m 24.679984,0 h 2.155924 c 1.411865,0 2.371127,0.264432 2.88251,0.79805 0.511383,0.533615 0.768271,1.186359 0.768271,1.953435 0,0.789308 -0.298187,1.436097 -0.887385,1.94748 -0.5892,0.500265 -1.610798,0.750403 -3.06713,0.750403 h -1.85219 z m 24.781229,0.565782 h 1.88197 c 1.956594,0 3.359755,0.479234 4.204649,1.435298 0.844893,0.956063 1.268543,2.728079 1.268543,5.318347 0,1.956594 -0.187805,3.374048 -0.565782,4.252294 -0.377978,0.867128 -0.905254,1.478576 -1.572277,1.834321 -0.667021,0.344628 -1.786296,0.518137 -3.364913,0.518137 h -1.85219 z m 26.532178,8.701122 h 3.8354 c 1.32292,0 2.24685,0.222352 2.76935,0.667026 0.53362,0.433566 0.79805,1.01643 0.79805,1.739035 0,0.778194 -0.26443,1.397189 -0.79805,1.864101 -0.53362,0.455798 -1.45079,0.684895 -2.75148,0.684892 h -3.85327 z"
     style="font-style:normal;font-variant:normal;font-weight:900;font-stretch:normal;font-size:11.19991016px;line-height:1.25;font-family:Arial;-inkscape-font-specification:'Arial, Heavy';font-variant-ligatures:normal;font-variant-caps:normal;font-variant-numeric:normal;font-feature-settings:normal;text-align:start;letter-spacing:0px;word-spacing:0px;writing-mode:lr-tb;text-anchor:start;fill:#000000;fill-opacity:1;stroke:none;stroke-width:0.853791" />
  <path
     id="path825"
     d="m 144.47795,43.459501 a 4.4495767,4.4495767 0 0 1 -4.44957,4.449576 4.4495767,4.4495767 0 0 1 -4.44958,-4.449576 4.4495767,4.4495767 0 0 1 4.44958,-4.449575 4.4495767,4.4495767 0 0 1 4.44957,4.449575 z"
     style="opacity:1;fill:#008000;fill-opacity:1;stroke:none;stroke-width:9.95495224;stroke-miterlimit:4;stroke-dasharray:none;stroke-opacity:1" />
  <path
     id="circle827"
     d="m 172.86485,43.459501 a 4.4495767,4.4495767 0 0 1 -4.44957,4.449576 4.4495767,4.4495767 0 0 1 -4.44958,-4.449576 4.4495767,4.4495767 0 0 1 4.44958,-4.449575 4.4495767,4.4495767 0 0 1 4.44957,4.449575 z"
     style="opacity:1;fill:#008000;fill-opacity:1;stroke:none;stroke-width:9.95495224;stroke-miterlimit:4;stroke-dasharray:none;stroke-opacity:1" />
  <path
     id="circle829"
     d="m 158.74891,61.99731 a 4.4495767,4.4495767 0 0 1 -4.44958,4.449578 4.4495767,4.4495767 0 0 1 -4.44957,-4.449578 4.4495767,4.4495767 0 0 1 4.44957,-4.449575 4.4495767,4.4495767 0 0 1 4.44958,4.449575 z"
     style="opacity:1;fill:#008000;fill-opacity:1;stroke:none;stroke-width:9.95495224;stroke-miterlimit:4;stroke-dasharray:none;stroke-opacity:1" />
  <path
     style="fill:#008000;fill-opacity:1;stroke:none;stroke-width:0.30492646;stroke-linecap:butt;stroke-linejoin:miter;stroke-miterlimit:4;stroke-dasharray:none;stroke-opacity:1"
     d="m 142.46059,62.629178 9.2191,-17.294474 c -8.116,4.206189 -8.89275,12.646984 -9.2191,17.294474 z"
     id="path836" />
  <path
     id="path838"
     d="m 137.58198,62.629178 -9.21909,-17.294474 c 8.116,4.206189 8.89275,12.646984 9.21909,17.294474 z"
     style="fill:#008000;fill-opacity:1;stroke:none;stroke-width:0.30492646;stroke-linecap:butt;stroke-linejoin:miter;stroke-miterlimit:4;stroke-dasharray:none;stroke-opacity:1" />
  <rect
     y="32.451771"
     x="10.712381"
     height="39.116482"
     width="178.57524"
     id="rect854"
     style="opacity:1;fill:none;fill-opacity:1;stroke:#000000;stroke-width:0.91477937;stroke-miterlimit:4;stroke-dasharray:none;stroke-opacity:1" />
  <rect
     style="opacity:1;fill:#008000;fill-opacity:1;stroke:#000000;stroke-width:0.91477937;stroke-miterlimit:4;stroke-dasharray:none;stroke-opacity:1"
     id="rect856"
     width="179.08522"
     height="7.6376185"
     x="10.457389"
     y="73.910606" />
  <path
     id="path858"
     d="m 170.85458,62.629178 9.21909,-17.294474 c -8.11599,4.206189 -8.89275,12.646984 -9.21909,17.294474 z"
     style="fill:#008000;fill-opacity:1;stroke:none;stroke-width:0.30492646;stroke-linecap:butt;stroke-linejoin:miter;stroke-miterlimit:4;stroke-dasharray:none;stroke-opacity:1" />
  <path
     style="fill:#008000;fill-opacity:1;stroke:none;stroke-width:0.30492646;stroke-linecap:butt;stroke-linejoin:miter;stroke-miterlimit:4;stroke-dasharray:none;stroke-opacity:1"
     d="m 165.97597,62.629178 -9.21909,-17.294474 c 8.116,4.206189 8.89275,12.646984 9.21909,17.294474 z"
     id="path860" />
</svg>
