<?xml version="1.0" encoding="UTF-8" standalone="no"?>
<svg
   xmlns:dc="http://purl.org/dc/elements/1.1/"
   xmlns:cc="http://creativecommons.org/ns#"
   xmlns:rdf="http://www.w3.org/1999/02/22-rdf-syntax-ns#"
   xmlns:svg="http://www.w3.org/2000/svg"
   xmlns="http://www.w3.org/2000/svg"
   xmlns:xlink="http://www.w3.org/1999/xlink"
   xml:space="preserve"
   enable-background="new 0 0 591.969 719.996"
   viewBox="0 0 200 144.00001"
   height="144"
   width="200"
   y="0px"
   x="0px"
   id="Layer_1"
   version="1.1"><metadata
   id="metadata43"><rdf:RDF><cc:Work
       rdf:about=""><dc:format>image/svg+xml</dc:format><dc:type
         rdf:resource="http://purl.org/dc/dcmitype/StillImage" /><dc:title></dc:title></cc:Work></rdf:RDF></metadata><defs
   id="defs41" />







<g
   transform="matrix(0.11111173,0,0,0.11111173,67.11265,31.999999)"
   id="g870"><polyline
     style="fill:#ffffff"
     points="591.969,468.5 0,719.996 0,0 591.969,468.5 "
     id="polyline2" /><g
     id="g16">
	<defs
   id="defs5">
		<polyline
   id="SVGID_1_"
   points="543.699,465.508 27.223,681.375 27.223,63.363 543.699,465.508   " />
	</defs>
	<clipPath
   id="SVGID_2_">
		<use
   height="100%"
   width="100%"
   y="0"
   x="0"
   style="overflow:visible"
   xlink:href="#SVGID_1_"
   overflow="visible"
   id="use7" />
	</clipPath>
	<rect
   style="fill:#007f61"
   x="-186.98"
   y="52.300999"
   clip-path="url(#SVGID_2_)"
   width="806.53497"
   height="216.65199"
   id="rect10" />
	<rect
   style="fill:#ef3e33"
   x="-186.98"
   y="258.215"
   clip-path="url(#SVGID_2_)"
   width="806.53497"
   height="216.65601"
   id="rect12" />
	<rect
   style="fill:#004fa3"
   x="-186.98"
   y="474.871"
   clip-path="url(#SVGID_2_)"
   width="806.53497"
   height="216.65601"
   id="rect14" />
</g><g
     id="g26">
	<defs
   id="defs19">
		<polyline
   id="SVGID_3_"
   points="538.531,456.305 32.883,674.188 36.996,61.652 538.531,456.305   " />
	</defs>
	<clipPath
   id="SVGID_4_">
		<use
   height="100%"
   width="100%"
   y="0"
   x="0"
   style="overflow:visible"
   xlink:href="#SVGID_3_"
   overflow="visible"
   id="use21" />
	</clipPath>
	<path
   style="fill:#ffffff"
   clip-path="url(#SVGID_4_)"
   d="m 79.375,325.945 c 0,-98.004 79.449,-177.453 177.465,-177.453 98.012,0 177.461,79.449 177.461,177.453 0,98.012 -79.449,177.461 -177.461,177.461 -98.016,0 -177.465,-79.449 -177.465,-177.461"
   id="path24" />
</g><path
     style="clip-rule:evenodd;fill:#004fa3;fill-rule:evenodd"
     d="m 143.301,342.285 v -92.93 h 0.32 l 40.316,82.895 c 4.371,8.742 7.77,11.008 15.055,11.008 7.938,0 11.66,-4.695 11.66,-10.844 V 228.957 H 195.43 v 90.988 h -0.324 L 158.68,244.66 c -5.668,-11.496 -8.582,-16.676 -17.324,-16.676 -7.449,0 -13.277,3.887 -13.277,13.926 v 100.375 h 15.222"
     id="path28" /><path
     style="clip-rule:evenodd;fill:#004fa3;fill-rule:evenodd"
     d="m 240.625,342.285 v -72.852 c 0,-17.809 9.551,-28.172 23.477,-28.172 13.926,0 23.477,10.363 23.477,28.172 v 7.121 H 246.778 V 290.8 h 40.801 v 51.484 h 15.219 v -71.883 c 0,-26.875 -16.676,-43.391 -38.695,-43.391 -22.019,0 -38.695,16.516 -38.695,43.391 v 71.883 h 15.217"
     id="path30" /><rect
     style="clip-rule:evenodd;fill:#004fa3;fill-rule:evenodd"
     x="319.48401"
     y="228.957"
     width="15.219"
     height="113.328"
     id="rect32" /><path
     style="clip-rule:evenodd;fill:#004fa3;fill-rule:evenodd"
     d="m 421.961,228.957 h -11.98 c -36.75,0 -59.254,29.141 -59.254,56.668 0,32.379 23.477,56.66 55.047,56.66 h 16.188 v -14.242 h -16.188 c -16.676,0 -39.184,-12.953 -39.184,-42.418 0,-24.289 19.105,-42.422 45.008,-42.422 h 10.363 v -14.246"
     id="path34" /><path
     style="clip-rule:evenodd;fill:#004fa3;fill-rule:evenodd"
     d="m 429.898,342.285 h 41.609 c 20.074,0 31.406,-12.141 31.406,-30.273 0,-34.484 -56.988,-34.484 -56.988,-55.375 0,-8.738 5.34,-13.434 13.762,-13.434 h 38.211 v -14.246 h -36.105 c -17.812,0 -31.09,10.039 -31.09,28.492 0,33.68 56.992,32.707 56.992,55.855 0,9.879 -5.504,14.738 -18.941,14.738 h -38.855 v 14.243"
     id="path36" /></g>
</svg>