<?xml version="1.0" encoding="UTF-8" standalone="no"?>
<svg
   xmlns:dc="http://purl.org/dc/elements/1.1/"
   xmlns:cc="http://creativecommons.org/ns#"
   xmlns:rdf="http://www.w3.org/1999/02/22-rdf-syntax-ns#"
   xmlns:svg="http://www.w3.org/2000/svg"
   xmlns="http://www.w3.org/2000/svg"
   height="114"
   width="200"
   version="1.1"
   viewBox="0 0 200 114"
   data-name="Layer 1"
   id="Layer_1">
  <metadata
     id="metadata47">
    <rdf:RDF>
      <cc:Work
         rdf:about="">
        <dc:format>image/svg+xml</dc:format>
        <dc:type
           rdf:resource="http://purl.org/dc/dcmitype/StillImage" />
        <dc:title>Reactome_Imagotype_Positive</dc:title>
      </cc:Work>
    </rdf:RDF>
  </metadata>
  <defs
     id="defs4">
    <style
       id="style2">.cls-1{fill:#2f9ec2;}.cls-2{fill:#d1eaf2;}.cls-3{fill:#9bd1e2;}.cls-4{fill:#80c4da;}.cls-5{fill:#65b7d2;}.cls-6{fill:#4aabca;}</style>
  </defs>
  <title
     id="title6">Reactome_Imagotype_Positive</title>
  <path
     id="path8"
     d="m 61.119608,52.288086 a 0.89999309,0.89999309 0 0 1 -0.304198,0.681295 0.87749326,0.87749326 0 0 1 -0.507596,0.130499 5.1875602,5.1875602 0 0 1 -0.681295,-0.0576 5.4089585,5.4089585 0 0 0 -3.290375,0.550796 4.4873655,4.4873655 0 0 0 -1.768486,1.682087 4.6196645,4.6196645 0 0 0 -0.637195,2.406582 v 8.814532 a 0.8729933,0.8729933 0 0 1 -0.232199,0.622795 0.8333936,0.8333936 0 0 1 -0.638095,0.246598 0.84239353,0.84239353 0 0 1 -0.870293,-0.869393 V 52.375386 a 0.83429359,0.83429359 0 0 1 0.246598,-0.638096 0.87479328,0.87479328 0 0 1 0.623695,-0.232198 0.80279384,0.80279384 0 0 1 0.870294,0.870294 v 1.799986 a 6.1577527,6.1577527 0 0 1 2.145583,-2.087984 5.5799572,5.5799572 0 0 1 2.841278,-0.754194 q 2.202284,-0.0036 2.202284,0.954892 z"
     class="cls-1"
     style="fill:#2f9ec2;stroke-width:0.89999306" />
  <path
     id="path10"
     d="m 73.517912,52.360986 a 6.902947,6.902947 0 0 1 2.59468,2.768378 8.5499344,8.5499344 0 0 1 0.927893,4.030169 0.77579404,0.77579404 0 0 1 -0.232198,0.593996 0.85409344,0.85409344 0 0 1 -0.609295,0.217798 H 64.049085 a 6.4673503,6.4673503 0 0 0 0.899993,3.059977 5.7383559,5.7383559 0 0 0 2.174383,2.101484 6.1766526,6.1766526 0 0 0 3.044677,0.754194 7.0082462,7.0082462 0 0 0 2.276083,-0.391497 4.8599627,4.8599627 0 0 0 1.815286,-1.025992 0.96299261,0.96299261 0 0 1 0.609295,-0.232199 0.76319414,0.76319414 0 0 1 0.579595,1.33379 7.3547435,7.3547435 0 0 1 -2.420981,1.392289 8.2466367,8.2466367 0 0 1 -2.855678,0.550796 7.9955386,7.9955386 0 0 1 -4.074269,-1.029592 7.3250438,7.3250438 0 0 1 -2.797178,-2.870078 8.466235,8.466235 0 0 1 -1.015192,-4.160668 9.0638304,9.0638304 0 0 1 0.942292,-4.189468 7.0199461,7.0199461 0 0 1 2.63788,-2.870078 7.3151438,7.3151438 0 0 1 3.86997,-1.029592 7.2125446,7.2125446 0 0 1 3.782671,0.996293 z m -7.596841,2.131183 a 6.378251,6.378251 0 0 0 -1.841386,3.97167 h 11.279613 a 6.0479536,6.0479536 0 0 0 -1.739686,-3.97167 5.3207591,5.3207591 0 0 0 -3.885271,-1.507488 5.2604596,5.2604596 0 0 0 -3.81237,1.507488 z"
     class="cls-1"
     style="fill:#2f9ec2;stroke-width:0.89999306" />
  <path
     id="path12"
     d="m 91.595174,52.389785 a 7.6769411,7.6769411 0 0 1 2.914177,2.913278 8.2187369,8.2187369 0 0 1 1.058392,4.146268 v 7.045146 a 0.8729933,0.8729933 0 0 1 -0.232198,0.622795 0.8333936,0.8333936 0 0 1 -0.638095,0.246598 0.84329353,0.84329353 0 0 1 -0.870294,-0.869393 v -2.261683 a 6.7427482,6.7427482 0 0 1 -2.623479,2.420982 7.8299399,7.8299399 0 0 1 -3.725972,0.884693 8.2133369,8.2133369 0 0 1 -4.146268,-1.058392 7.6634412,7.6634412 0 0 1 -2.914178,-2.914177 8.592234,8.592234 0 0 1 0,-8.262837 7.6715411,7.6715411 0 0 1 2.914178,-2.914178 8.592234,8.592234 0 0 1 8.262837,0 z M 90.72938,65.074288 a 6.0299537,6.0299537 0 0 0 2.276083,-2.319282 7.0244461,7.0244461 0 0 0 0,-6.610449 6.1433528,6.1433528 0 0 0 -2.276083,-2.334583 6.3683511,6.3683511 0 0 0 -8.785732,2.333683 6.9182469,6.9182469 0 0 0 0,6.610449 6.1334529,6.1334529 0 0 0 2.290482,2.319282 6.6923486,6.6923486 0 0 0 6.49435,0 z"
     class="cls-1"
     style="fill:#2f9ec2;stroke-width:0.89999306" />
  <path
     id="path14"
     d="m 102.90269,66.480077 a 7.5752418,7.5752418 0 0 1 -2.82688,-2.914177 8.336636,8.336636 0 0 1 -1.029594,-4.116569 8.8244322,8.8244322 0 0 1 0.953093,-4.131868 7.289944,7.289944 0 0 1 2.667581,-2.899778 7.1279453,7.1279453 0 0 1 3.82677,-1.058392 7.8578397,7.8578397 0 0 1 3.39207,0.724495 7.4636427,7.4636427 0 0 1 2.66758,2.145583 0.9242929,0.9242929 0 0 1 0.2034,0.493196 0.70919455,0.70919455 0 0 1 -0.4059,0.637196 0.69299468,0.69299468 0 0 1 -0.46349,0.173698 0.79919386,0.79919386 0 0 1 -0.6669,-0.348297 5.9084546,5.9084546 0 0 0 -4.72586,-2.204083 5.3648588,5.3648588 0 0 0 -5.00126,3.131076 7.6031416,7.6031416 0 0 0 -0.7101,3.329974 6.9515466,6.9515466 0 0 0 0.783,3.304775 5.8499551,5.8499551 0 0 0 2.17438,2.319282 6.0434536,6.0434536 0 0 0 3.18958,0.840594 5.7842556,5.7842556 0 0 0 4.08776,-1.420189 0.83519359,0.83519359 0 0 1 0.6093,-0.260998 0.70829456,0.70829456 0 0 1 0.522,0.203398 0.82709365,0.82709365 0 0 1 0.28979,0.638095 0.66149492,0.66149492 0 0 1 -0.23219,0.521996 7.1999447,7.1999447 0 0 1 -2.37779,1.435489 8.2511366,8.2511366 0 0 1 -2.89977,0.507596 7.7867402,7.7867402 0 0 1 -4.02657,-1.052092 z"
     class="cls-1"
     style="fill:#2f9ec2;stroke-width:0.89999306" />
  <path
     id="path16"
     d="m 124.92372,65.842882 a 0.88379321,0.88379321 0 0 1 0.2466,0.652495 0.84509351,0.84509351 0 0 1 -0.2466,0.622795 0.88199323,0.88199323 0 0 1 -0.6525,0.246598 h -0.66689 a 5.5466574,5.5466574 0 0 1 -2.84128,-0.724494 5.1119608,5.1119608 0 0 1 -1.94309,-1.986285 5.8121554,5.8121554 0 0 1 -0.69569,-2.855678 v -8.147637 h -2.26168 a 0.782994,0.782994 0 1 1 0,-1.565988 h 2.26168 v -4.725864 a 0.88289322,0.88289322 0 0 1 0.2466,-0.652495 0.8468935,0.8468935 0 0 1 0.62369,-0.246598 0.8468935,0.8468935 0 0 1 0.9,0.899993 v 4.725864 h 3.82677 a 0.782994,0.782994 0 1 1 0,1.565988 h -3.83217 v 8.147637 a 3.7349713,3.7349713 0 0 0 1.04399,2.739579 3.6224722,3.6224722 0 0 0 2.69998,1.058392 h 0.63809 a 0.88379321,0.88379321 0 0 1 0.6525,0.245698 z"
     class="cls-1"
     style="fill:#2f9ec2;stroke-width:0.89999306" />
  <path
     id="path18"
     d="m 131.89596,66.480077 a 7.6634412,7.6634412 0 0 1 -2.91687,-2.910577 8.592234,8.592234 0 0 1 0,-8.262837 7.6715411,7.6715411 0 0 1 2.91417,-2.914178 8.592234,8.592234 0 0 1 8.26284,0 7.6769411,7.6769411 0 0 1 2.91418,2.914178 8.592234,8.592234 0 0 1 0,8.262837 7.6688411,7.6688411 0 0 1 -2.91418,2.914177 8.592234,8.592234 0 0 1 -8.26284,0 z m 7.39345,-1.405789 a 6.0299537,6.0299537 0 0 0 2.27608,-2.319282 7.0244461,7.0244461 0 0 0 0,-6.610449 6.1433528,6.1433528 0 0 0 -2.27608,-2.333683 6.3683511,6.3683511 0 0 0 -8.78574,2.333683 6.9182469,6.9182469 0 0 0 0,6.610449 6.1334529,6.1334529 0 0 0 2.29049,2.319282 6.6923486,6.6923486 0 0 0 6.49435,0 z"
     class="cls-1"
     style="fill:#2f9ec2;stroke-width:0.89999306" />
  <path
     id="path20"
     d="m 168.30878,52.171987 a 5.8184553,5.8184553 0 0 1 2.11679,2.420981 7.9649388,7.9649388 0 0 1 0.75329,3.522573 v 8.378936 a 0.8720933,0.8720933 0 0 1 -0.2322,0.622795 0.83249361,0.83249361 0 0 1 -0.63719,0.246598 0.84239353,0.84239353 0 0 1 -0.87029,-0.869393 v -8.378936 a 5.5025578,5.5025578 0 0 0 -1.1889,-3.653072 3.7934709,3.7934709 0 0 0 -3.04467,-1.420189 4.2758672,4.2758672 0 0 0 -3.27598,1.33379 4.7753633,4.7753633 0 0 0 -1.18889,3.536973 v 8.582334 a 0.8720933,0.8720933 0 0 1 -0.2322,0.622795 0.83249361,0.83249361 0 0 1 -0.63719,0.246598 0.84239353,0.84239353 0 0 1 -0.87029,-0.869393 v -8.378936 a 5.5025578,5.5025578 0 0 0 -1.18889,-3.653072 3.7934709,3.7934709 0 0 0 -3.04468,-1.420189 4.3712664,4.3712664 0 0 0 -4.55217,4.580965 v 8.872132 a 0.8729933,0.8729933 0 0 1 -0.23219,0.622795 0.8333936,0.8333936 0 0 1 -0.6381,0.246598 0.84239353,0.84239353 0 0 1 -0.87029,-0.869393 V 52.375386 a 0.83429359,0.83429359 0 0 1 0.24659,-0.638096 0.87479328,0.87479328 0 0 1 0.6237,-0.232198 0.80279384,0.80279384 0 0 1 0.87029,0.870294 v 1.130391 a 5.6240568,5.6240568 0 0 1 2.00069,-1.619988 5.7437559,5.7437559 0 0 1 2.55148,-0.579595 5.6087569,5.6087569 0 0 1 3.01498,0.826193 5.9399544,5.9399544 0 0 1 2.11678,2.276083 5.7959555,5.7959555 0 0 1 2.17438,-2.276083 6.0173538,6.0173538 0 0 1 3.13108,-0.826193 5.6420567,5.6420567 0 0 1 3.10407,0.865793 z"
     class="cls-1"
     style="fill:#2f9ec2;stroke-width:0.89999306" />
  <path
     id="path22"
     d="m 186.47605,52.360986 a 6.902947,6.902947 0 0 1 2.59468,2.768378 8.5499344,8.5499344 0 0 1 0.92789,4.030169 0.77579404,0.77579404 0 0 1 -0.2322,0.593996 0.85409344,0.85409344 0 0 1 -0.6093,0.217798 h -12.1499 a 6.4673503,6.4673503 0 0 0 0.89999,3.059977 5.7383559,5.7383559 0 0 0 2.17438,2.101484 6.1766526,6.1766526 0 0 0 3.04468,0.754194 7.0082462,7.0082462 0 0 0 2.27608,-0.391497 4.8599627,4.8599627 0 0 0 1.81169,-1.029592 0.96299261,0.96299261 0 0 1 0.60929,-0.232199 0.76319414,0.76319414 0 0 1 0.5796,1.33379 7.3547435,7.3547435 0 0 1 -2.42098,1.39229 8.2466367,8.2466367 0 0 1 -2.85568,0.550795 7.9955386,7.9955386 0 0 1 -4.07427,-1.029592 7.3250438,7.3250438 0 0 1 -2.79718,-2.870078 8.466235,8.466235 0 0 1 -1.01519,-4.160668 9.0638304,9.0638304 0 0 1 0.94229,-4.189468 7.0199461,7.0199461 0 0 1 2.63788,-2.870078 7.3151438,7.3151438 0 0 1 3.86997,-1.029592 7.2125446,7.2125446 0 0 1 3.78628,0.999893 z m -7.59685,2.131183 a 6.378251,6.378251 0 0 0 -1.84138,3.97167 h 11.27871 a 6.0479536,6.0479536 0 0 0 -1.73969,-3.97167 5.3207591,5.3207591 0 0 0 -3.88527,-1.507488 5.2604596,5.2604596 0 0 0 -3.81237,1.507488 z"
     class="cls-1"
     style="fill:#2f9ec2;stroke-width:0.89999306" />
  <polygon
     transform="matrix(0.89999309,0,0,0.89999309,10,36.11971)"
     id="polygon24"
     points="20.092,0 0,11.6 0,34.801 6.697,30.934 6.697,15.467 20.092,7.733 "
     class="cls-2"
     style="fill:#d1eaf2" />
  <polygon
     transform="matrix(0.89999309,0,0,0.89999309,10,36.11971)"
     id="polygon26"
     points="13.395,27.067 6.697,30.934 6.697,38.667 13.395,34.801 "
     class="cls-3"
     style="fill:#9bd1e2" />
  <polygon
     transform="matrix(0.89999309,0,0,0.89999309,10,36.11971)"
     id="polygon28"
     points="20.092,15.467 26.79,11.6 26.79,3.867 20.092,7.733 "
     class="cls-3"
     style="fill:#9bd1e2" />
  <polygon
     transform="matrix(0.89999309,0,0,0.89999309,10,36.11971)"
     id="polygon30"
     points="20.092,15.467 20.092,7.733 6.697,15.467 6.697,30.934 13.395,27.067 13.395,19.334 "
     class="cls-4"
     style="fill:#80c4da" />
  <polygon
     transform="matrix(0.89999309,0,0,0.89999309,10,36.11971)"
     id="polygon32"
     points="33.487,30.934 33.487,23.2 26.79,27.067 26.79,34.801 "
     class="cls-5"
     style="fill:#65b7d2" />
  <polygon
     transform="matrix(0.89999309,0,0,0.89999309,10,36.11971)"
     id="polygon34"
     points="26.79,19.334 33.487,15.467 33.487,7.733 26.79,11.6 "
     class="cls-5"
     style="fill:#65b7d2" />
  <polygon
     transform="matrix(0.89999309,0,0,0.89999309,10,36.11971)"
     id="polygon36"
     points="20.092,30.934 13.395,34.801 13.395,42.534 20.092,38.667 "
     class="cls-5"
     style="fill:#65b7d2" />
  <polygon
     transform="matrix(0.89999309,0,0,0.89999309,10,36.11971)"
     id="polygon38"
     points="20.092,30.934 20.092,23.2 26.79,19.334 26.79,11.6 20.092,15.467 20.092,23.2 13.395,27.067 13.395,34.801 "
     class="cls-6"
     style="fill:#4aabca" />
  <polygon
     transform="matrix(0.89999309,0,0,0.89999309,10,36.11971)"
     id="polygon40"
     points="20.092,15.467 13.395,19.334 13.395,27.067 20.092,23.2 "
     class="cls-1"
     style="fill:#2f9ec2" />
  <polygon
     transform="matrix(0.89999309,0,0,0.89999309,10,36.11971)"
     id="polygon42"
     points="26.79,34.801 26.79,27.067 26.79,27.067 26.79,27.067 33.487,23.2 40.184,19.334 40.184,11.6 33.487,15.467 26.79,19.334 20.092,23.2 20.092,30.934 20.092,38.667 20.092,46.401 26.79,42.534 "
     class="cls-1"
     style="fill:#2f9ec2" />
</svg>
