<svg width="200" height="114" version="1.1" viewBox="0 0 200 114" xmlns="http://www.w3.org/2000/svg" xmlns:cc="http://creativecommons.org/ns#" xmlns:dc="http://purl.org/dc/elements/1.1/" xmlns:rdf="http://www.w3.org/1999/02/22-rdf-syntax-ns#">
 <metadata>
  <rdf:RDF>
   <cc:Work rdf:about="">
    <dc:format>image/svg+xml</dc:format>
    <dc:type rdf:resource="http://purl.org/dc/dcmitype/StillImage"/>
    <dc:title/>
   </cc:Work>
  </rdf:RDF>
 </metadata>
 <path d="m155.44 24.482c-22.178 0-37.254 4.081-48.086 10.535-10.831 6.4544-17.148 15.178-22.108 23.308-4.9603 8.1306-8.7437 15.614-14.184 20.788-5.4401 5.1735-12.472 8.6024-25.793 8.6024v9.2842c15.045 0 25.163-4.4725 32.19-11.156 7.0274-6.683 11.03-15.006 15.714-22.685 4.6843-7.6781 9.8692-14.766 18.935-20.168 9.0655-5.4021 22.285-9.2262 43.331-9.2262z" color="#000000" color-rendering="auto" dominant-baseline="auto" fill="#a6a6a6" image-rendering="auto" shape-rendering="auto" solid-color="#000000" style="font-feature-settings:normal;font-variant-alternates:normal;font-variant-caps:normal;font-variant-ligatures:normal;font-variant-numeric:normal;font-variant-position:normal;isolation:auto;mix-blend-mode:normal;shape-padding:0;text-decoration-color:#000000;text-decoration-line:none;text-decoration-style:solid;text-indent:0;text-orientation:mixed;text-transform:none;white-space:normal"/>
 <path d="m51.755 17c-1.3236 0-2.5016 0.28682-3.5614 0.80511l1.8278 1.8278c0.53207-0.21269 1.1047-0.33365 1.7335-0.33365 1.3675 0 2.5084 0.52519 3.4235 1.574 0.92538 1.0385 1.389 2.5694 1.389 4.5949 0 2.1489-0.4594 3.7493-1.3745 4.798-0.9151 1.0488-2.0603 1.5703-3.4381 1.5703-1.3881 0-2.5411-0.51734-3.4562-1.5558-0.9151-1.0488-1.3709-2.6243-1.3709-4.7219 0-1.2358 0.17607-2.2653 0.49322-3.1334l-2.0853-2.0889c-0.83466 1.3547-1.2621 3.0891-1.2621 5.2224 0 2.7659 0.70569 4.8872 2.1143 6.3575 1.4189 1.4703 3.274 2.205 5.5669 2.205 1.4292 0 2.7464-0.33625 3.9494-1.0046 1.2133-0.66833 2.1327-1.604 2.7599-2.807 0.63749-1.2133 0.95743-2.8716 0.95743-4.9794 0-2.6014-0.71777-4.6369-2.147-6.1073-1.4292-1.4806-3.268-2.2231-5.5197-2.2231zm18.213 0c-1.0693 0-1.9766 0.2131-2.7272 0.63466-0.75059 0.41128-1.4237 1.0312-2.02 1.8641v-2.1288h-2.5314v22.659h2.778v-7.975c0.47297 0.59636 1.0724 1.089 1.8024 1.4797 0.7403 0.39072 1.5734 0.58752 2.4988 0.58752 1.2647 2e-6 2.4672-0.35677 3.6085-1.0662 1.1516-0.71974 2.0257-1.746 2.6221-3.0826 0.60664-1.3469 0.91029-2.861 0.91029-4.5369 0-1.5629-0.27105-2.9954-0.81599-4.3012-0.54495-1.3161-1.3533-2.3339-2.4226-3.0536-1.0693-0.71974-2.3044-1.0807-3.7028-1.0807zm17.027 0c-2.262 0-4.1008 0.76304-5.5197 2.2848-1.4189 1.5217-2.1288 3.6599-2.1288 6.4155 0 2.663 0.69784 4.7354 2.0962 6.2161 1.4086 1.4703 3.3126 2.205 5.7083 2.205 1.9022 0 3.4657-0.46362 4.6892-1.389 1.2236-0.92538 2.0608-2.2263 2.5133-3.9023l-2.8687-0.35541c-0.42156 1.1722-0.99203 2.0257-1.7118 2.5604-0.71974 0.53466-1.5896 0.80149-2.6076 0.80149-1.3675 0-2.5084-0.47629-3.4235-1.4325-0.9151-0.95623-1.424-2.335-1.5268-4.1344h12.215c0.01021-0.32903 0.0182-0.57532 0.0182-0.73984 0-2.7042-0.69724-4.8013-2.0853-6.2922-1.3881-1.4909-3.1774-2.2376-5.3674-2.2376zm18.572 0c-2.2723 0-4.0121 0.89886-5.2151 2.6982v-2.3283h-2.4987v16.382h2.778v-8.9469c0-2.0975 0.42679-3.5216 1.2802-4.2722 0.86369-0.75059 1.8857-1.1243 3.0681-1.1243 0.74031 0 1.3844 0.16842 1.9294 0.50773 0.55523 0.32902 0.94098 0.77634 1.1569 1.3419 0.21592 0.55523 0.32277 1.3967 0.32277 2.5278v9.966h2.7744v-10.071c0-1.2853-0.0495-2.1877-0.15232-2.7018-0.16451-0.79172-0.45185-1.4733-0.86314-2.0491-0.41128-0.57579-1.0349-1.0394-1.8677-1.389-0.82257-0.35987-1.7256-0.54037-2.7127-0.54037zm-35.86 2.176c1.1927 0 2.2147 0.51734 3.0681 1.5558 0.86369 1.0385 1.2983 2.602 1.2983 4.6892 0 2.1901-0.4431 3.8109-1.3273 4.8597-0.87397 1.0385-1.9286 1.5558-3.1624 1.5558-1.2133 0-2.2474-0.50104-3.1008-1.5087-0.85341-1.0076-1.2802-2.5669-1.2802-4.6747 0-2.1078 0.45517-3.7124 1.36-4.8125 0.9151-1.1105 1.9619-1.6646 3.1443-1.6646zm17.321 0.10879c1.4086 0 2.5538 0.53364 3.4381 1.603 0.5758 0.6889 0.92834 1.723 1.0517 3.1008h-9.1464c0.09255-1.4292 0.56883-2.5701 1.4325-3.4235 0.87397-0.85341 1.9491-1.2802 3.2241-1.2802zm8.7728 38.798c-1.745 0-3.2362 0.26039-4.4753 0.78698-1.2287 0.52659-2.1716 1.2983-2.8324 2.3102-0.65049 1.0016-0.97556 2.0785-0.97556 3.235 0 1.7966 0.69503 3.3202 2.0889 4.5696 0.99122 0.88797 2.7142 1.6357 5.1716 2.2449 1.9102 0.47496 3.1369 0.80784 3.6738 0.9937 0.78472 0.27878 1.3295 0.60804 1.6392 0.99007 0.32008 0.37171 0.48234 0.8267 0.48234 1.3636 0 0.83635-0.37777 1.5679-1.1315 2.1977-0.74342 0.61952-1.8527 0.92842-3.3293 0.92842-1.3939 0-2.5032-0.34961-3.3293-1.0517-0.8157-0.70212-1.3599-1.8031-1.6284-3.3002l-4.4608 0.4352c0.29943 2.54 1.2178 4.4743 2.7562 5.8062 1.5385 1.3216 3.7446 1.9838 6.615 1.9838 1.9721 0 3.6178-0.27238 4.9395-0.81962 1.3216-0.55756 2.3454-1.4065 3.0681-2.5423 0.72277-1.1358 1.0844-2.3547 1.0844-3.6557 0-1.4352-0.30472-2.6379-0.91391-3.6085-0.59887-0.9809-1.4358-1.749-2.5096-2.3065-1.0635-0.56789-2.7092-1.1163-4.9395-1.6429-2.2303-0.52659-3.6359-1.0306-4.2142-1.5159-0.45431-0.38204-0.68181-0.84121-0.68181-1.3781 0-0.58854 0.24367-1.0597 0.72895-1.4108 0.75374-0.54724 1.7942-0.81962 3.1262-0.81962 1.2907 0 2.2575 0.25621 2.8977 0.77248 0.65049 0.50594 1.0731 1.3429 1.2693 2.5096l4.5841-0.19946c-0.0723-2.0857-0.82836-3.7554-2.2739-5.0048-1.4352-1.2494-3.5803-1.8713-6.43-1.8713zm-27.305 0.38442v22.706h4.5841v-9.6505h9.48v-3.8406h-9.48v-5.3747h10.981v-3.8406zm40.488 0v22.706h4.2577v-17.872l4.4898 17.872h4.4172l4.5043-17.872v17.872h4.2613v-22.706h-6.8761l-4.0763 15.489-4.1199-15.489zm26.529 0v22.706h4.5841v-9.48h0.92842c1.0532 0 1.8249 0.08922 2.3102 0.26474 0.48529 0.1652 0.94447 0.48192 1.3781 0.94655 0.43366 0.45431 1.2383 1.5636 2.4153 3.3293l3.3147 4.9395h5.4835l-2.7744-4.4281c-1.0945-1.7656-1.9643-2.9965-2.6148-3.6883-0.64017-0.69179-1.4568-1.3258-2.448-1.904 1.9928-0.28911 3.4882-0.98777 4.4898-2.0926 1.0016-1.1151 1.5051-2.5214 1.5051-4.225 0-1.3423-0.33288-2.5366-0.9937-3.5795-0.66082-1.0429-1.5426-1.766-2.6474-2.1687-1.0945-0.41301-2.854-0.62016-5.2804-0.62016zm4.5841 3.8406h3.5795c1.8585 0 2.972 0.02815 3.3438 0.07979 0.74342 0.12391 1.3163 0.42082 1.719 0.89578 0.41302 0.46464 0.62016 1.0819 0.62016 1.846 0 0.68147-0.15445 1.2466-0.46421 1.7009s-0.74022 0.7752-1.2875 0.96106c-0.54723 0.18586-1.9206 0.27925-4.1199 0.27925h-3.3909z" fill="#054ea2" style="font-feature-settings:normal;font-variant-caps:normal;font-variant-ligatures:normal;font-variant-numeric:normal"/>
</svg>
