<svg width="200" height="114" version="1.1" xmlns="http://www.w3.org/2000/svg" xmlns:cc="http://creativecommons.org/ns#" xmlns:dc="http://purl.org/dc/elements/1.1/" xmlns:rdf="http://www.w3.org/1999/02/22-rdf-syntax-ns#">
 <metadata>
  <rdf:RDF>
   <cc:Work rdf:about="">
    <dc:format>image/svg+xml</dc:format>
    <dc:type rdf:resource="http://purl.org/dc/dcmitype/StillImage"/>
    <dc:title/>
   </cc:Work>
  </rdf:RDF>
 </metadata>
 <path d="m78.599 29.694s-8.856 20.671-9.4976 21.95c-0.33437 0.63886-0.63482 1.0091-1.5765 1.648h4.6432c-0.91028-0.40441-1.0773-0.87523-0.77654-1.6832 0.06968-0.3708 0.87747-2.3579 1.888-4.6453h8.2487c0.94126 2.2873 1.8156 4.3433 1.9189 4.6804 0.23564 0.7056 0.06337 1.1765-0.80958 1.648h7.2062c-1.1145-0.57174-1.3472-0.94234-1.6832-1.648-0.6044-1.2797-9.5615-21.95-9.5615-21.95zm-40.591 0.33599c-3.0655 0-7.3394 1.8185-7.3394 6.3968 0 2.5592 1.3465 4.3754 4.4447 6.0926 3.0583 1.6489 5.9916 2.0861 5.9916 5.3193 0 1.6502-1.0093 4.0405-4.3434 4.0405-3.5039 0-5.5208-3.166-6.162-5.5541l0.17174 5.6896c1.1758 0.57043 3.3992 1.6138 6.4574 1.6138 4.1424 0 7.8484-2.8603 7.8484-7.0675 0-4.6809-3.2635-5.7912-6.3979-7.2723-3.1624-1.4467-4.6111-2.2233-4.6111-4.2762 0-1.448 1.0087-3.233 3.5658-3.233 3.2346 0 5.1542 2.6938 5.6224 4.4777l-0.16641-4.9813c-1.7182-1.0114-3.9376-1.2458-5.0815-1.2458zm-28.009 0.37012c0.53818 0.26979 1.0784 0.7405 1.0784 1.5157v14.003c0 5.961 5.017 7.7097 8.9587 7.7097 4.5725 0 7.9757-2.2209 7.9757-7.9435l0.09813-13.769c0-0.77523 0.37238-1.2459 0.87997-1.5157h-3.9071c0.50673 0.26979 0.91094 0.7405 0.91094 1.5157l0.06506 13.835c0 3.334-1.4493 5.9605-5.4569 5.9605-4.3729 0-5.1818-3.3337-5.1818-5.6907v-14.104c0-0.77523 0.50606-1.2459 1.0421-1.5157h-6.4629zm37.299 0c0.50336 0.26979 0.87785 0.7405 0.87785 1.5157v19.861c0 0.74088-0.37449 1.2124-0.87785 1.5157h8.6496c9.092 0 13.602-5.9244 13.602-11.783 0-3.2633-2.2209-11.109-13.294-11.109h-8.9576zm8.2487 1.6832c6.967 0 9.3256 5.3886 9.3256 9.4262 0 4.9146-2.1207 10.033-9.7319 10.033h-2.6933v-19.391c0.5064-0.06796 2.2884-0.06827 3.0997-0.06827zm21.772 4.8831s1.8526 4.5079 3.4335 8.2466h-6.7999c1.0755-2.5236 3.3663-8.2466 3.3663-8.2466z" fill="#006" stroke-width="1.0874"/>
 <path d="m86.671 56.504c-9.7741-0.02139-50.458 0.73831-75.847 14.267 0 0 30.751-12.161 78.009-10.944v-3.3012s-0.76475-0.01827-2.161-0.02133zm-75.847 0.02133v3.1285c5.7333-0.86993 26.754 0.86719 26.754 0.86719-10.249-3.8225-26.754-3.9957-26.754-3.9957zm9.8155 5.2009c-5.1999-0.01681-9.8155 0.18667-9.8155 0.18667v3.1242c1.7399-0.86731 18.937-2.9503 18.937-2.9503-2.6705-0.26093-6.0009-0.35044-9.1209-0.36053zm63.499 0.67731c-1.001 0.0044-2.1467 0.01608-3.4218 0.03946-0.07936-0.0051-0.18585 0.0048-0.25386 0.0064-14.246 0.27315-44.122 1.9911-69.621 11v10.856h78.004v-21.863s-1.702-0.05261-4.7049-0.03946z" fill="#060" stroke-width="1.0874"/>
 <path d="m151.72 31.701v12.086h1.4602v-12.086zm36.819 0v12.086h1.4602v-12.086zm-59.654 0.44266v1.5146h1.6469v-1.5146zm-24.538 0.07786-4.21 11.566h1.5616l1.1339-3.2234h5.0026l1.1339 3.2234h1.6395l-4.21-11.566zm51.771 0.39572v2.4938h-0.9856v1.2277h0.9856v4.6133c0 1.0512 0.2303 1.8158 0.69117 2.2922 0.46089 0.47641 1.1348 0.71467 2.0202 0.71467 0.25374 0 0.54079-0.02379 0.86185-0.0704 0.32623-0.04661 0.62683-0.1067 0.90132-0.1792v-1.3119h-0.0779c-0.11392 0.04659-0.3 0.10563-0.5589 0.17812-0.25891 0.06733-0.50738 0.10133-0.74558 0.10133-0.40908 0-0.71536-0.04653-0.91732-0.13973-0.19679-0.09839-0.3522-0.25152-0.46613-0.45866-0.12428-0.22267-0.19581-0.46091-0.21652-0.71467-0.0207-0.25892-0.032-0.61631-0.032-1.072v-3.953h3.0143v-1.2277h-3.0143v-2.4938zm-50.785 0.94824 2.0277 5.6776h-4.0629zm10.153 1.3045c-0.47642 0-0.95518 0.10433-1.4368 0.31147-0.48159 0.20196-0.89111 0.48671-1.2277 0.85437-0.36248 0.39356-0.64956 0.86212-0.86183 1.4058-0.20713 0.53856-0.31146 1.1806-0.31146 1.9263 0 1.3619 0.30289 2.4182 0.90879 3.169 0.61107 0.74569 1.4347 1.1178 2.4704 1.1178 0.62137 0 1.1319-0.08511 1.5306-0.25599 0.40391-0.17606 0.82596-0.44039 1.2662-0.79254v0.79254c0 0.35213-0.0387 0.67092-0.11628 0.95573-0.0777 0.28482-0.20808 0.52763-0.38932 0.72958-0.18126 0.21231-0.43428 0.37902-0.76054 0.49812-0.32625 0.1191-0.73803 0.17813-1.2351 0.17813-0.51784 0-1.0363-0.07031-1.5541-0.21013-0.51785-0.13463-0.89565-0.24812-1.1339-0.34133h-0.0779v1.4912c0.42462 0.1191 0.85459 0.20986 1.2895 0.272 0.44018 0.06733 0.89058 0.10134 1.3515 0.10134 1.3878 0 2.4156-0.34485 3.0837-1.0336 0.66801-0.68872 1.0026-1.7687 1.0026-3.2394v-7.6895h-1.3675l-0.0927 0.37332c-0.37803-0.20714-0.73772-0.36027-1.0795-0.45865-0.33663-0.10357-0.75635-0.15574-1.2587-0.15574zm66.437 0.03093c-0.52303 0-1.054 0.04652-1.5925 0.13973-0.53855 0.09321-0.95036 0.17939-1.2351 0.25706v1.4837h0.0779c0.50232-0.1916 0.98905-0.3368 1.4602-0.43519 0.47122-0.10357 0.89892-0.15574 1.2821-0.15574 0.31587 0 0.61877 0.02044 0.90876 0.06187 0.29 0.04144 0.53845 0.12196 0.74557 0.24106 0.2175 0.12428 0.38313 0.29556 0.49705 0.51306 0.11911 0.21749 0.17814 0.49204 0.17814 0.82346v0.22506c-0.84928 0.04143-1.6434 0.10381-2.384 0.18667-0.7405 0.08285-1.3747 0.24056-1.9029 0.47359-0.52302 0.23302-0.92688 0.5541-1.2116 0.96321-0.27964 0.40392-0.42027 0.93487-0.42027 1.5925 0 0.80265 0.27226 1.4629 0.81597 1.9807 0.54371 0.51784 1.2063 0.77654 1.9882 0.77654 0.42462 0 0.79553-0.04088 1.1114-0.12373 0.31588-0.07768 0.595-0.17636 0.83841-0.29546 0.20715-0.09321 0.41929-0.21797 0.6368-0.37333 0.22267-0.16053 0.39851-0.28423 0.52799-0.37226v0.92372h1.4527v-5.8878c0-0.55929-0.0851-1.0278-0.25599-1.4058-0.1709-0.37802-0.41935-0.6855-0.74558-0.92372-0.33141-0.24339-0.72508-0.41467-1.1807-0.51306-0.45052-0.10357-0.98144-0.15573-1.5925-0.15573zm-44.943 0.0084c-1.279 0-2.3102 0.40388-3.0922 1.2116-0.77675 0.80784-1.1648 1.9207-1.1648 3.3397 0 0.76125 0.10322 1.4271 0.3104 1.9968 0.20714 0.56961 0.49983 1.0405 0.87784 1.4133 0.37284 0.37284 0.82093 0.65197 1.3439 0.83835 0.52303 0.18124 1.0982 0.27199 1.7248 0.27199 0.49194 0 0.95484-0.06467 1.3898-0.19413 0.44017-0.12946 0.9041-0.3099 1.3909-0.54292v-1.6085h-0.0779c-0.10879 0.08803-0.25623 0.19464-0.44266 0.31893-0.18642 0.1191-0.38608 0.23258-0.59839 0.34133-0.24339 0.12428-0.51793 0.22525-0.82345 0.30293-0.30553 0.07768-0.60511 0.11626-0.90024 0.11626-0.84923 0-1.5095-0.27912-1.9807-0.83842-0.46607-0.56443-0.69971-1.3699-0.69971-2.416 0-1.0771 0.23824-1.8928 0.71467-2.4469 0.48159-0.55929 1.1373-0.83842 1.9658-0.83842 0.45053 0 0.91117 0.09304 1.3824 0.27947 0.47642 0.18642 0.93705 0.45304 1.3824 0.79997h0.0779v-1.6233c-0.39873-0.20196-0.8389-0.37325-1.3205-0.51306-0.47641-0.13982-0.9631-0.20906-1.4602-0.20906zm-14.821 0.2016v8.6764h1.4602v-6.1597c0.38838-0.31588 0.79226-0.5712 1.2118-0.76797 0.41945-0.20196 0.85507-0.30293 1.3056-0.30293 0.27963-6e-6 0.52016 0.01252 0.72209 0.03839 0.20715 0.0207 0.4193 0.05703 0.63678 0.10879h0.0779v-1.4997c-0.22784-0.03626-0.39912-0.05899-0.51306-0.06933-0.11392-0.01554-0.29772-0.02347-0.55148-0.02347-0.46088 0-0.91355 0.09869-1.3589 0.29547-0.44018 0.1916-0.95065 0.52059-1.5307 0.98664v-1.2821zm6.8201 0v8.6764h1.4602v-8.6764zm12.599 0v5.6317c0 1.0771 0.25412 1.8951 0.76159 2.4543 0.50749 0.5541 1.2166 0.83094 2.1279 0.83094 0.54373 0 1.0407-0.10326 1.4912-0.3104 0.45052-0.20714 0.9224-0.50546 1.4144-0.89384v0.9632h1.4602v-8.6764h-1.4602v6.4776c-0.38839 0.30553-0.8081 0.55732-1.2587 0.7541-0.44532 0.19678-0.85714 0.29546-1.2351 0.29546-0.42465 0-0.74798-0.05217-0.97065-0.15572-0.22266-0.10357-0.40417-0.26921-0.54398-0.49706-0.13464-0.22267-0.22309-0.48928-0.26452-0.79997-0.0415-0.31588-0.0618-0.6937-0.0618-1.1339v-4.9406zm20.723 0v5.6317c0 1.0771 0.2541 1.8951 0.76159 2.4543 0.50747 0.5541 1.2166 0.83094 2.1279 0.83094 0.54372 0 1.0406-0.10326 1.4912-0.3104s0.92239-0.50546 1.4144-0.89384v0.9632h1.4602v-8.6764h-1.4602v6.4776c-0.38838 0.30553-0.80815 0.55732-1.2586 0.7541-0.44534 0.19678-0.85714 0.29546-1.2351 0.29546-0.42465 0-0.748-0.05217-0.97065-0.15572-0.22267-0.10357-0.40418-0.26921-0.54398-0.49706-0.13465-0.22267-0.22311-0.48928-0.26454-0.79997-0.0415-0.31588-0.0618-0.6937-0.0618-1.1339v-4.9406zm10.129 0v8.6764h1.4602v-6.1597c0.38838-0.31588 0.79226-0.5712 1.2116-0.76797 0.41946-0.20196 0.85507-0.30293 1.3056-0.30293 0.27963-6e-6 0.52018 0.01252 0.72215 0.03839 0.20712 0.0207 0.41929 0.05703 0.63678 0.10879h0.0779v-1.4997c-0.22786-0.03626-0.39913-0.05899-0.51306-0.06933-0.11392-0.01554-0.29771-0.02347-0.55148-0.02347-0.46088 0-0.91356 0.09869-1.3589 0.29547-0.44017 0.1916-0.95066 0.52059-1.5306 0.98664v-1.2821zm-56.688 1.072c0.33142 0 0.66267 0.03859 0.99412 0.11626 0.3366 0.0725 0.69958 0.19726 1.088 0.37334v4.7306c-0.35731 0.27445-0.75099 0.49454-1.1807 0.66027-0.42462 0.16053-0.84894 0.23999-1.2736 0.23999-0.79233 0-1.3595-0.25075-1.7013-0.75306-0.34179-0.50231-0.51306-1.2397-0.51306-2.2132 0-1.0253 0.23031-1.808 0.69118-2.3466 0.46088-0.53855 1.0928-0.80744 1.8954-0.80744zm68.501 3.0528v2.416c-0.36249 0.27964-0.75507 0.52017-1.1798 0.72215-0.42463 0.19678-0.89423 0.29546-1.4069 0.29546-0.61626 0-1.0746-0.12476-1.3749-0.37332-0.30036-0.25374-0.45013-0.62925-0.45013-1.1263 0-0.44017 0.12933-0.78397 0.38825-1.0325 0.25891-0.25374 0.59812-0.44089 1.0176-0.56 0.35212-0.09839 0.82857-0.17328 1.4293-0.22506 0.60587-0.05179 1.1311-0.09039 1.5766-0.11627zm-53.014 11.77v12.087h1.4602v-2.8981l0.94823-0.90133 3.4794 3.7994h1.9263l-4.3263-4.6688 4.0309-4.0085h-1.84l-4.2186 4.3423v-7.7522zm24.872 0.44266v1.5146h1.6469v-1.5146zm-54.613 0.07786v11.567h1.4368v-9.9668l3.1925 6.7818h0.91732l3.2159-6.7818v9.9668h1.5381v-11.567h-2.1365l-2.9834 6.4394-3.0837-6.4394zm48.447 0.3968v2.4928h-0.98664v1.2277h0.98664v4.6133c0 1.0512 0.23031 1.8158 0.69119 2.2922 0.46087 0.47641 1.1347 0.71467 2.0202 0.71467 0.25375 0 0.54079-0.02379 0.86185-0.07038 0.32625-0.04661 0.62685-0.10563 0.90133-0.17814v-1.313h-0.0779c-0.11392 0.04661-0.30001 0.10563-0.55891 0.17813-0.25892 0.06733-0.50843 0.10133-0.74665 0.10133-0.40911 0-0.7143-0.04652-0.91626-0.13973-0.19677-0.09839-0.35219-0.25153-0.46612-0.45866-0.12429-0.22267-0.19688-0.46091-0.2176-0.71467-0.0207-0.25893-0.0309-0.61631-0.0309-1.072v-3.953h3.0143v-1.2276h-3.0143v-2.4928zm-5.9037 2.2517c-1.2635 0-2.2835 0.41745-3.0602 1.2512-0.77158 0.83372-1.1572 1.9602-1.1572 3.3791 0 1.4345 0.40387 2.5417 1.2116 3.3236 0.80783 0.77676 1.9321 1.1658 3.3717 1.1658 0.56447 0 1.1022-0.07031 1.6149-0.21013 0.51266-0.13982 1.0153-0.31339 1.5072-0.52053v-1.5925h-0.0779c-0.25374 0.22786-0.68037 0.46151-1.281 0.6997-0.5955 0.23303-1.1888 0.34986-1.7792 0.34986-0.44536 0-0.85381-0.06238-1.2266-0.18667-0.36768-0.12428-0.68643-0.31142-0.95572-0.56-0.27964-0.25374-0.49972-0.5771-0.66026-0.97063-0.16054-0.39874-0.24107-0.86502-0.24107-1.3983h6.3924v-0.79146c0-1.2584-0.3177-2.2294-0.95462-2.9129-0.63178-0.68354-1.5336-1.0261-2.704-1.0261zm20.903 0c-0.51267 0-1.0119 0.10662-1.4986 0.31893-0.48678 0.21231-0.95868 0.50729-1.4144 0.88533v-0.96321h-1.4602v8.6775h1.4602v-6.4787c0.39874-0.30553 0.81619-0.55629 1.2512-0.75306 0.43498-0.19678 0.85135-0.29546 1.2501-0.29546 0.38837 0 0.70481 0.05445 0.94823 0.16319 0.24338 0.10357 0.42946 0.26356 0.55891 0.48105 0.12428 0.19678 0.20939 0.47132 0.25599 0.82346 0.0465 0.34696 0.0703 0.72018 0.0703 1.1189v4.9407h1.4602v-5.6317c0-1.0616-0.24616-1.875-0.73815-2.4395-0.49194-0.56448-1.2066-0.84694-2.144-0.84694zm8.933 0c-0.47642 0-0.95517 0.10432-1.4368 0.31147-0.4816 0.20196-0.89111 0.48671-1.2277 0.85436-0.3625 0.39356-0.64957 0.86212-0.86184 1.4058-0.20714 0.53856-0.31147 1.1806-0.31147 1.9263 0 1.3619 0.3029 2.4182 0.90877 3.169 0.61106 0.74569 1.4347 1.1189 2.4704 1.1189 0.62138 0 1.1319-0.08618 1.5306-0.25706 0.40392-0.17607 0.82596-0.43932 1.266-0.79145v0.79145c0 0.35213-0.0385 0.67092-0.11627 0.95572-0.0777 0.28482-0.207 0.5287-0.38826 0.73067-0.18123 0.21231-0.43533 0.37796-0.76157 0.49707-0.32624 0.1191-0.73803 0.17813-1.2351 0.17813-0.51784 0-1.0352-0.06925-1.553-0.20906-0.51784-0.13464-0.89668-0.24919-1.1349-0.3424h-0.0779v1.4912c0.42464 0.1191 0.85458 0.20986 1.2895 0.272 0.44016 0.06733 0.89056 0.10133 1.3515 0.10133 1.3878 0 2.4167-0.34485 3.0848-1.0336 0.66801-0.68872 1.0016-1.7676 1.0016-3.2383v-7.6906h-1.3675l-0.0927 0.37332c-0.37802-0.20714-0.73765-0.36026-1.0795-0.45866-0.33659-0.10357-0.75634-0.15573-1.2586-0.15573zm-56.104 0.03199c-0.52303 0-1.054 0.04652-1.5925 0.13973-0.53856 0.09321-0.95036 0.17832-1.2351 0.25599v1.4837h0.0779c0.5023-0.1916 0.98898-0.3368 1.4602-0.43519 0.47124-0.10358 0.89783-0.15574 1.281-0.15574 0.31588 0 0.61875 0.02151 0.90875 0.06294 0.28999 0.04143 0.53845 0.12089 0.74556 0.23999 0.2175 0.12428 0.3842 0.29557 0.49814 0.51306 0.1191 0.2175 0.17811 0.49203 0.17811 0.82346v0.22506c-0.84926 0.04144-1.6445 0.10381-2.3851 0.18667-0.7405 0.08285-1.3747 0.24056-1.9029 0.47359-0.52301 0.23302-0.92688 0.5541-1.2116 0.9632-0.27963 0.40392-0.41918 0.93487-0.41918 1.5925 0 0.80265 0.27224 1.4629 0.81596 1.9807 0.54374 0.51784 1.2063 0.77654 1.9882 0.77654 0.42464 0 0.79451-0.04087 1.1104-0.12373 0.31589-0.07768 0.59605-0.17636 0.83946-0.29546 0.20713-0.09321 0.41928-0.21797 0.63678-0.37334 0.22268-0.16053 0.39854-0.28423 0.52799-0.37226v0.92476h1.4527v-5.8889c0-0.55929-0.0851-1.0278-0.25599-1.4058-0.1709-0.37803-0.4204-0.6855-0.74666-0.92372-0.33142-0.24339-0.724-0.41467-1.1796-0.51306-0.45053-0.10358-0.98144-0.15466-1.5925-0.15466zm6.6027 0.20906v8.6775h1.4602v-6.1598c0.38838-0.31589 0.79226-0.57229 1.2116-0.76906 0.41946-0.20196 0.85398-0.30293 1.3045-0.30293 0.27965 0 0.52017 0.01252 0.72216 0.0384 0.20713 0.02071 0.42036 0.05703 0.63787 0.1088h0.0768v-1.4986c-0.22785-0.03627-0.39806-0.06006-0.51198-0.0704-0.11393-0.01554-0.29772-0.02347-0.55149-0.02347-0.46087 0-0.91461 0.09868-1.36 0.29547-0.44016 0.1916-0.94961 0.52059-1.5296 0.98664v-1.2821zm31.832 0v8.6775h1.4602v-8.6775zm-12.242 0.9632c0.77675 0 1.3542 0.20987 1.7322 0.62931 0.38322 0.41945 0.57721 1.0127 0.58239 1.7792h-4.9716c0.0623-0.68359 0.32419-1.2564 0.78506-1.7173 0.46606-0.46089 1.09-0.69118 1.8719-0.69118zm30.169 0.10879c0.33141 0 0.66267 0.03859 0.99411 0.11626 0.33662 0.07249 0.6996 0.19726 1.088 0.37334v4.7306c-0.3573 0.27446-0.75097 0.49455-1.1807 0.66027-0.42463 0.16053-0.84896 0.24106-1.2736 0.24106-0.79231 0-1.3595-0.25181-1.7013-0.75415-0.34177-0.50231-0.51305-1.2397-0.51305-2.2132 0-1.0253 0.2303-1.808 0.69118-2.3466 0.46087-0.53856 1.0927-0.80744 1.8954-0.80744zm-54.04 3.0528v2.416c-0.3625 0.27964-0.75617 0.52016-1.1807 0.72214-0.42463 0.19678-0.89319 0.29546-1.4058 0.29546-0.61623 0-1.0746-0.12476-1.3749-0.37332-0.30035-0.25374-0.45012-0.62925-0.45012-1.1263 0-0.44017 0.12934-0.78397 0.38826-1.0325 0.25892-0.25374 0.59812-0.44088 1.0176-0.56 0.35213-0.09839 0.82858-0.17328 1.4293-0.22506 0.60587-0.05178 1.1312-0.09038 1.5765-0.11627zm-14.696 11.77c-1.2584 0-2.2964 0.31084-3.1147 0.93224-0.8182 0.61625-1.2277 1.4091-1.2277 2.3775 0 0.8441 0.24617 1.5294 0.73814 2.0575 0.49714 0.52303 1.2583 0.89396 2.2837 1.1114 0.50748 0.10357 0.98624 0.18868 1.4368 0.25599 0.45569 0.06733 0.87772 0.1535 1.266 0.25706 0.51268 0.13464 0.89379 0.323 1.1424 0.56639 0.25375 0.24339 0.37972 0.62117 0.37972 1.1339 0 0.59556-0.2666 1.072-0.79996 1.4293-0.5282 0.35731-1.2679 0.53652-2.2208 0.53652-0.67322 0-1.3935-0.13269-2.16-0.39678-0.76642-0.2641-1.4425-0.63963-2.0277-1.1263h-0.10769v1.9263c0.68872 0.30552 1.3638 0.5369 2.0266 0.69228 0.66801 0.15536 1.419 0.23253 2.2528 0.23253 0.77677 0 1.4394-0.09303 1.9882-0.27946 0.55411-0.18643 1.0385-0.44511 1.4527-0.77654 0.37803-0.30553 0.67071-0.67873 0.87785-1.1189 0.21232-0.44017 0.31893-0.88598 0.31893-1.3365 0-0.82853-0.21779-1.4729-0.65279-1.9338-0.43499-0.46088-1.0828-0.80467-1.9424-1.0325-0.42462-0.10875-0.94196-0.21536-1.553-0.31893-0.61108-0.10357-1.083-0.19204-1.4144-0.26452-0.62657-0.145-1.0634-0.3538-1.3119-0.62827-0.24856-0.27446-0.37334-0.65334-0.37334-1.1349 0-0.53856 0.24846-0.97871 0.74559-1.3205 0.50231-0.34178 1.1659-0.51199 1.9893-0.51199 0.75087 0 1.4826 0.1237 2.1973 0.37226 0.71979 0.24339 1.3006 0.55192 1.7407 0.92475h0.10879v-1.8175c-0.52303-0.22786-1.1243-0.41957-1.8027-0.57491-0.6784-0.15535-1.4238-0.23359-2.2367-0.23359zm32.476 0.13226v1.5146h1.6469v-1.5146zm-22.013 2.7263c-1.2635 0-2.2835 0.41745-3.0603 1.2512-0.77156 0.83372-1.1572 1.9602-1.1572 3.3791 0 1.4345 0.40387 2.5417 1.2118 3.3236 0.80782 0.77676 1.931 1.1658 3.3706 1.1658 0.56448 0 1.1033-0.07031 1.616-0.21013 0.51267-0.13982 1.0152-0.31339 1.5071-0.52053v-1.5925h-0.0779c-0.25375 0.22786-0.68036 0.46151-1.281 0.6997-0.59549 0.23302-1.1888 0.34879-1.7792 0.34879-0.44535 0-0.85485-0.06132-1.2277-0.1856-0.36767-0.12428-0.68538-0.31142-0.95464-0.56-0.27962-0.25373-0.49972-0.5771-0.66026-0.97064-0.16052-0.39874-0.24106-0.865-0.24106-1.3983h6.3925v-0.79248c0-1.2584-0.31876-2.2284-0.95573-2.912-0.63175-0.68354-1.5326-1.0261-2.7029-1.0261zm38.372 0c-1.2635 0-2.2835 0.41745-3.0602 1.2512-0.77158 0.83372-1.1572 1.9602-1.1572 3.3791 0 1.4345 0.40388 2.5417 1.2116 3.3236 0.80784 0.77676 1.931 1.1658 3.3706 1.1658 0.56447 0 1.1033-0.07031 1.616-0.21013 0.51266-0.13982 1.0152-0.31339 1.5072-0.52053v-1.5925h-0.0779c-0.25373 0.22786-0.6814 0.46151-1.2821 0.6997-0.59549 0.23302-1.1877 0.34879-1.7781 0.34879-0.44536 0-0.85485-0.06132-1.2277-0.1856-0.36766-0.12428-0.68642-0.31142-0.95572-0.56-0.27963-0.25373-0.49972-0.5771-0.66027-0.97064-0.16052-0.39874-0.23999-0.865-0.23999-1.3983h6.3925v-0.79248c0-1.2584-0.31877-2.2284-0.95573-2.912-0.63176-0.68354-1.5326-1.0261-2.7029-1.0261zm-8.2656 0.03946c-1.279 0-2.3091 0.40387-3.0911 1.2116-0.77675 0.80784-1.1648 1.9207-1.1648 3.3397 0 0.76125 0.10322 1.4271 0.3104 1.9968 0.20715 0.56961 0.49982 1.0405 0.87785 1.4133 0.37283 0.37284 0.82093 0.65301 1.3439 0.83945 0.52301 0.18125 1.0971 0.27094 1.7237 0.27094 0.49197 0 0.95594-0.06466 1.3909-0.19413 0.44017-0.12945 0.90411-0.3099 1.3909-0.54292v-1.6085h-0.0779c-0.10879 0.08803-0.25623 0.19464-0.44266 0.31893-0.18643 0.1191-0.38607 0.23258-0.59839 0.34132-0.24339 0.12428-0.51793 0.22524-0.82345 0.30293-0.30554 0.07768-0.60614 0.11627-0.90133 0.11627-0.84929 0-1.5095-0.27912-1.9807-0.83842-0.46605-0.56448-0.69866-1.3699-0.69866-2.416 0-1.0771 0.23824-1.8928 0.71467-2.4469 0.4816-0.55929 1.1362-0.83835 1.9648-0.83835 0.45053 0 0.91117 0.09304 1.3824 0.27947 0.47642 0.18643 0.93809 0.45303 1.3835 0.79997h0.0779v-1.6233c-0.39874-0.20196-0.8389-0.37325-1.3205-0.51306-0.47641-0.13982-0.96418-0.20906-1.4613-0.20906zm-24.234 0.2016v8.6764h1.4602v-6.1586c0.38837-0.31588 0.79227-0.57229 1.2116-0.76906 0.41946-0.20196 0.854-0.30293 1.3046-0.30293 0.27964 0 0.52017 0.01252 0.72215 0.0384 0.20713 0.0207 0.42035 0.05702 0.63788 0.10879h0.0768v-1.4997c-0.22785-0.03626-0.39805-0.05899-0.51197-0.06933-0.11393-0.01554-0.29772-0.02347-0.55149-0.02347-0.46089 0-0.91465 0.09869-1.36 0.29547-0.44016 0.1916-0.9496 0.52058-1.5296 0.98663v-1.282zm5.8409 0 3.4879 8.6764h1.4678l3.5114-8.6764h-1.5307l-2.6645 6.9053-2.687-6.9053zm10.393 0v8.6764h1.4602v-8.6764zm-22.185 0.9632c0.77675 0 1.3542 0.20987 1.7322 0.62931 0.38322 0.41945 0.57719 1.0127 0.58239 1.7792h-4.9706c0.0623-0.68354 0.3231-1.2564 0.78396-1.7173 0.46606-0.46088 1.09-0.69118 1.8719-0.69118zm38.372 0c0.77675 0 1.3542 0.20987 1.7322 0.62931 0.38321 0.41945 0.5772 1.0127 0.58239 1.7792h-4.9705c0.0623-0.68354 0.3231-1.2564 0.78401-1.7173 0.46606-0.46088 1.09-0.69118 1.8719-0.69118z" fill="#006" stroke-width=".54613"/>
</svg>
