<?xml version="1.0" encoding="UTF-8" standalone="no"?>
<svg
   xmlns:dc="http://purl.org/dc/elements/1.1/"
   xmlns:cc="http://creativecommons.org/ns#"
   xmlns:rdf="http://www.w3.org/1999/02/22-rdf-syntax-ns#"
   xmlns:svg="http://www.w3.org/2000/svg"
   xmlns="http://www.w3.org/2000/svg"
   xmlns:xlink="http://www.w3.org/1999/xlink"
   viewBox="0 0 200 114"
   height="114"
   width="200"
   id="svg2"
   version="1.1">
  <metadata
     id="metadata8">
    <rdf:RDF>
      <cc:Work
         rdf:about="">
        <dc:format>image/svg+xml</dc:format>
        <dc:type
           rdf:resource="http://purl.org/dc/dcmitype/StillImage" />
        <dc:title></dc:title>
      </cc:Work>
    </rdf:RDF>
  </metadata>
  <defs
     id="defs6">
    <linearGradient
       id="linearGradient926">
      <stop
         id="stop922"
         offset="0"
         style="stop-color:#85bf25;stop-opacity:1" />
      <stop
         id="stop924"
         offset="1"
         style="stop-color:#287f21;stop-opacity:1" />
    </linearGradient>
    <linearGradient
       id="linearGradient918">
      <stop
         id="stop914"
         offset="0"
         style="stop-color:#458e37;stop-opacity:1" />
      <stop
         id="stop916"
         offset="1"
         style="stop-color:#78b342;stop-opacity:1" />
    </linearGradient>
    <linearGradient
       id="linearGradient910">
      <stop
         id="stop906"
         offset="0"
         style="stop-color:#6dad4f;stop-opacity:1" />
      <stop
         id="stop908"
         offset="1"
         style="stop-color:#8dc34d;stop-opacity:1" />
    </linearGradient>
    <linearGradient
       id="linearGradient870">
      <stop
         id="stop866"
         offset="0"
         style="stop-color:#7a030c;stop-opacity:1" />
      <stop
         id="stop868"
         offset="1"
         style="stop-color:#b81925;stop-opacity:1" />
    </linearGradient>
    <linearGradient
       gradientTransform="matrix(0.47342196,0,0,0.47342196,31.354372,17.116293)"
       gradientUnits="userSpaceOnUse"
       y2="30.178009"
       x2="150.86221"
       y1="122.29949"
       x1="150.86221"
       id="linearGradient872"
       xlink:href="#linearGradient870" />
    <linearGradient
       gradientTransform="matrix(0.47342196,0,0,0.47342196,31.354372,17.116293)"
       gradientUnits="userSpaceOnUse"
       y2="32.494579"
       x2="69.05793"
       y1="121.45761"
       x1="69.05793"
       id="linearGradient880"
       xlink:href="#linearGradient870" />
    <linearGradient
       gradientTransform="matrix(0.47342196,0,0,0.47342196,31.354372,17.116293)"
       gradientUnits="userSpaceOnUse"
       y2="31.356924"
       x2="9.4095507"
       y1="119.26714"
       x1="9.4095507"
       id="linearGradient888"
       xlink:href="#linearGradient870" />
    <linearGradient
       gradientTransform="matrix(0.47342196,0,0,0.47342196,-44.393142,17.116293)"
       gradientUnits="userSpaceOnUse"
       y2="147.68047"
       x2="353.98151"
       y1="49.329025"
       x1="350.95245"
       id="linearGradient912"
       xlink:href="#linearGradient910" />
    <linearGradient
       gradientTransform="matrix(0.47342196,0,0,0.47342196,-44.393142,17.116293)"
       gradientUnits="userSpaceOnUse"
       y2="109.51585"
       x2="380.56516"
       y1="33.449825"
       x1="395.83099"
       id="linearGradient920"
       xlink:href="#linearGradient918" />
    <linearGradient
       gradientTransform="matrix(0.47342196,0,0,0.47342196,-44.393142,17.116293)"
       gradientUnits="userSpaceOnUse"
       y2="37.134682"
       x2="442.68134"
       y1="164.78873"
       x1="338.97888"
       id="linearGradient928"
       xlink:href="#linearGradient926" />
    <linearGradient
       gradientTransform="matrix(0.47342196,0,0,0.47342196,31.354372,17.116293)"
       gradientUnits="userSpaceOnUse"
       y2="83.372299"
       x2="111.18912"
       y1="100.21737"
       x1="111.18912"
       id="linearGradient946"
       xlink:href="#linearGradient870" />
  </defs>
  <path
     d="m 50.128833,76.761708 h 2.972003 q 2.556126,0 3.448742,0.223152 1.278063,0.314447 2.089531,1.29835 0.811469,0.973763 0.811469,2.454693 0,1.491076 -0.791182,2.464838 -0.791182,0.963618 -2.180822,1.298346 -1.014335,0.243443 -3.793615,0.243443 h -1.065052 v 6.938056 h -1.491074 z m 1.491074,1.450498 v 5.07168 l 2.525696,0.03044 q 1.531646,0 2.241681,-0.27387 0.710035,-0.284015 1.115769,-0.902759 0.405735,-0.628889 0.405735,-1.399785 0,-0.750606 -0.405735,-1.369354 -0.405734,-0.628889 -1.075195,-0.892614 -0.659319,-0.263729 -2.170679,-0.263729 z"
     style="font-style:normal;font-variant:normal;font-weight:normal;font-stretch:normal;font-size:43.87965775px;line-height:1.25;font-family:'Century Gothic';-inkscape-font-specification:'Century Gothic, Normal';font-variant-ligatures:normal;font-variant-caps:normal;font-variant-numeric:normal;font-feature-settings:normal;text-align:start;letter-spacing:0px;word-spacing:0px;writing-mode:lr-tb;text-anchor:start;fill:#666666;fill-opacity:1;stroke:none;stroke-width:0.51934046"
     id="path837" />
  <path
     d="m 61.661829,80.646613 h 1.4505 v 1.612793 q 0.649175,-0.953472 1.369353,-1.420067 0.720179,-0.476741 1.501217,-0.476741 0.588315,0 1.257776,0.375305 l -0.740465,1.196915 q -0.446308,-0.192721 -0.750608,-0.192721 -0.710035,0 -1.369353,0.588312 -0.659319,0.578172 -1.004193,1.805518 -0.263727,0.943331 -0.263727,3.813902 v 3.732757 h -1.4505 z"
     style="font-style:normal;font-variant:normal;font-weight:normal;font-stretch:normal;font-size:43.87965775px;line-height:1.25;font-family:'Century Gothic';-inkscape-font-specification:'Century Gothic, Normal';font-variant-ligatures:normal;font-variant-caps:normal;font-variant-numeric:normal;font-feature-settings:normal;text-align:start;letter-spacing:0px;word-spacing:0px;writing-mode:lr-tb;text-anchor:start;fill:#666666;fill-opacity:1;stroke:none;stroke-width:0.51934046"
     id="path839" />
  <path
     d="m 73.671564,80.362598 q 2.545982,0 4.219636,1.84609 1.521504,1.683801 1.521504,3.986341 0,2.312685 -1.612795,4.047199 -1.60265,1.724373 -4.128345,1.724373 -2.53584,0 -4.148633,-1.724373 -1.602651,-1.734514 -1.602651,-4.047199 0,-2.292399 1.521504,-3.976196 1.673654,-1.856235 4.22978,-1.856235 z m 0,1.38964 q -1.764944,0 -3.032864,1.308496 -1.26792,1.308491 -1.26792,3.164726 0,1.196915 0.578172,2.231536 0.578171,1.034626 1.562077,1.602652 0.983905,0.557885 2.160535,0.557885 1.176629,0 2.160534,-0.557885 0.983906,-0.568026 1.562077,-1.602652 0.578171,-1.034621 0.578171,-2.231536 0,-1.856235 -1.278062,-3.164726 -1.26792,-1.308496 -3.02272,-1.308496 z"
     style="font-style:normal;font-variant:normal;font-weight:normal;font-stretch:normal;font-size:43.87965775px;line-height:1.25;font-family:'Century Gothic';-inkscape-font-specification:'Century Gothic, Normal';font-variant-ligatures:normal;font-variant-caps:normal;font-variant-numeric:normal;font-feature-settings:normal;text-align:start;letter-spacing:0px;word-spacing:0px;writing-mode:lr-tb;text-anchor:start;fill:#666666;fill-opacity:1;stroke:none;stroke-width:0.51934046"
     id="path841" />
  <path
     d="m 81.867392,80.646613 h 1.440358 v 12.699483 c 0,0.926425 -0.169054,1.599271 -0.507168,2.018529 -0.331352,0.426018 -0.787802,0.63903 -1.369354,0.63903 -0.48012,0 -1.0211,-0.114957 -1.622937,-0.344874 v -1.278064 c 0.378685,0.196105 0.720179,0.294156 1.02448,0.294156 0.385446,0 0.672841,-0.158914 0.862187,-0.476736 0.114956,-0.202866 0.172434,-0.625509 0.172434,-1.267919 z"
     style="font-style:normal;font-variant:normal;font-weight:normal;font-stretch:normal;font-size:43.87965775px;line-height:1.25;font-family:'Century Gothic';-inkscape-font-specification:'Century Gothic, Normal';font-variant-ligatures:normal;font-variant-caps:normal;font-variant-numeric:normal;font-feature-settings:normal;text-align:start;letter-spacing:0px;word-spacing:0px;writing-mode:lr-tb;text-anchor:start;fill:#666666;fill-opacity:1;stroke:none;stroke-width:0.51934046"
     id="path843" />
  <path
     d="m 95.550783,88.020833 1.196915,0.628889 q -0.588317,1.156342 -1.359209,1.866376 -0.770897,0.710038 -1.734514,1.085338 -0.963622,0.365165 -2.180823,0.365165 -2.698131,0 -4.219638,-1.764945 -1.521503,-1.775087 -1.521503,-4.006627 0,-2.099674 1.28821,-3.742898 1.633078,-2.089533 4.371782,-2.089533 2.819857,0 4.503653,2.140251 1.196915,1.511357 1.217201,3.773329 h -9.920202 q 0.04057,1.927234 1.227347,3.164726 1.186774,1.227347 2.931429,1.227347 0.8419,0 1.633083,-0.294161 0.801323,-0.294156 1.359208,-0.781037 0.557886,-0.486882 1.207061,-1.57222 z m 0,-2.972002 q -0.284016,-1.136056 -0.831755,-1.815663 -0.537599,-0.679602 -1.430218,-1.095479 -0.892613,-0.415878 -1.876516,-0.415878 -1.622938,0 -2.789426,1.044762 -0.852041,0.760751 -1.288205,2.282258 z"
     style="font-style:normal;font-variant:normal;font-weight:normal;font-stretch:normal;font-size:43.87965775px;line-height:1.25;font-family:'Century Gothic';-inkscape-font-specification:'Century Gothic, Normal';font-variant-ligatures:normal;font-variant-caps:normal;font-variant-numeric:normal;font-feature-settings:normal;text-align:start;letter-spacing:0px;word-spacing:0px;writing-mode:lr-tb;text-anchor:start;fill:#666666;fill-opacity:1;stroke:none;stroke-width:0.51934046"
     id="path845" />
  <path
     d="m 110.4818,82.939012 -1.12591,0.699893 q -1.46064,-1.937385 -3.98634,-1.937385 -2.01853,0 -3.35745,1.298351 -1.32878,1.29835 -1.32878,3.154585 0,1.207061 0.6086,2.272113 0.61875,1.065053 1.6838,1.653365 1.07519,0.588317 2.40397,0.588317 2.43441,0 3.9762,-1.937385 l 1.12591,0.740465 q -0.79118,1.186774 -2.1301,1.846095 -1.32878,0.649175 -3.03287,0.649175 -2.61698,0 -4.34135,-1.66351 -1.724372,-1.663515 -1.724372,-4.047199 0,-1.602652 0.801322,-2.972006 0.81147,-1.379495 2.2214,-2.150391 1.40992,-0.770897 3.15458,-0.770897 1.09548,0 2.10982,0.334733 1.02448,0.334728 1.73451,0.872327 0.71004,0.537599 1.20706,1.369354 z"
     style="font-style:normal;font-variant:normal;font-weight:normal;font-stretch:normal;font-size:43.87965775px;line-height:1.25;font-family:'Century Gothic';-inkscape-font-specification:'Century Gothic, Normal';font-variant-ligatures:normal;font-variant-caps:normal;font-variant-numeric:normal;font-feature-settings:normal;text-align:start;letter-spacing:0px;word-spacing:0px;writing-mode:lr-tb;text-anchor:start;fill:#666666;fill-opacity:1;stroke:none;stroke-width:0.51934046"
     id="path847" />
  <path
     d="m 114.43771,76.548696 h 1.43021 v 4.097917 h 2.25183 v 1.217201 h -2.25183 v 9.818772 h -1.43021 v -9.818772 h -1.93738 v -1.217201 h 1.93738 z"
     style="font-style:normal;font-variant:normal;font-weight:normal;font-stretch:normal;font-size:43.87965775px;line-height:1.25;font-family:'Century Gothic';-inkscape-font-specification:'Century Gothic, Normal';font-variant-ligatures:normal;font-variant-caps:normal;font-variant-numeric:normal;font-feature-settings:normal;text-align:start;letter-spacing:0px;word-spacing:0px;writing-mode:lr-tb;text-anchor:start;fill:#666666;fill-opacity:1;stroke:none;stroke-width:0.51934046"
     id="path849" />
  <path
     d="M 31.036006,18.588524 V 17.32653 h 7.121883 v 1.261994 h -2.894644 v 11.719777 h -1.32377 V 18.588524 Z"
     style="font-style:normal;font-variant:normal;font-weight:normal;font-stretch:normal;font-size:medium;line-height:1.25;font-family:'Century Gothic';-inkscape-font-specification:'Century Gothic, Normal';font-variant-ligatures:normal;font-variant-caps:normal;font-variant-numeric:normal;font-feature-settings:normal;text-align:start;letter-spacing:0px;word-spacing:0px;writing-mode:lr-tb;text-anchor:start;fill:#666666;fill-opacity:1;stroke:none;stroke-width:0.4518438"
     id="path930" />
  <path
     d="m 39.817013,17 h 1.235519 v 5.427457 q 0.750137,-0.988415 1.6503,-1.473798 0.900164,-0.494207 1.950354,-0.494207 1.076667,0 1.906229,0.547158 0.838388,0.547158 1.235519,1.473798 0.397131,0.917813 0.397131,2.885818 v 4.942075 h -1.235519 v -4.580244 q 0,-1.659126 -0.132377,-2.215109 -0.229453,-0.953114 -0.838387,-1.429671 -0.600109,-0.485383 -1.579699,-0.485383 -1.120792,0 -2.012131,0.741311 -0.882513,0.741311 -1.164917,1.835628 -0.176503,0.70601 -0.176503,2.612239 v 3.521229 h -1.235519 z"
     style="font-style:normal;font-variant:normal;font-weight:normal;font-stretch:normal;font-size:medium;line-height:1.25;font-family:'Century Gothic';-inkscape-font-specification:'Century Gothic, Normal';font-variant-ligatures:normal;font-variant-caps:normal;font-variant-numeric:normal;font-feature-settings:normal;text-align:start;letter-spacing:0px;word-spacing:0px;writing-mode:lr-tb;text-anchor:start;fill:#666666;fill-opacity:1;stroke:none;stroke-width:0.4518438"
     id="path932" />
  <path
     d="m 58.914602,27.122427 1.041366,0.547159 q -0.511858,1.006065 -1.182568,1.623824 -0.67071,0.61776 -1.509098,0.94429 -0.838388,0.317704 -1.897404,0.317704 -2.347485,0 -3.671255,-1.535573 -1.32377,-1.544398 -1.32377,-3.485927 0,-1.826803 1.120792,-3.256475 1.420846,-1.817977 3.803632,-1.817977 2.453387,0 3.918359,1.862103 1.041366,1.314945 1.059016,3.282949 h -8.63098 q 0.0353,1.676776 1.067841,2.753442 1.032541,1.067841 2.550463,1.067841 0.732487,0 1.420847,-0.255929 0.697186,-0.255929 1.182568,-0.679535 0.485382,-0.423606 1.050191,-1.367896 z m 0,-2.585764 q -0.247104,-0.988414 -0.723661,-1.579698 -0.467732,-0.591284 -1.244344,-0.953115 -0.776612,-0.36183 -1.63265,-0.36183 -1.412021,0 -2.426911,0.908989 -0.741311,0.661885 -1.120792,1.985654 z"
     style="font-style:normal;font-variant:normal;font-weight:normal;font-stretch:normal;font-size:medium;line-height:1.25;font-family:'Century Gothic';-inkscape-font-specification:'Century Gothic, Normal';font-variant-ligatures:normal;font-variant-caps:normal;font-variant-numeric:normal;font-feature-settings:normal;text-align:start;letter-spacing:0px;word-spacing:0px;writing-mode:lr-tb;text-anchor:start;fill:#666666;fill-opacity:1;stroke:none;stroke-width:0.4518438"
     id="path934" />
  <path
     id="path827"
     d="M 31.32322,32.329141 H 42.195152 V 74.45825 H 31.32322 Z"
     style="fill:url(#linearGradient888);fill-opacity:1;stroke:none;stroke-width:0.47342196px;stroke-linecap:butt;stroke-linejoin:miter;stroke-opacity:1" />
  <path
     id="rect829"
     d="m 80.255542,56.858237 h 7.929922 v 7.929919 h -7.929922 z"
     style="opacity:1;fill:url(#linearGradient946);fill-opacity:1;stroke:none;stroke-width:2.84053183;stroke-miterlimit:4;stroke-dasharray:none;stroke-opacity:1" />
  <path
     id="path832"
     d="m 50.341182,32.315727 v 42.236265 h 9.66539 V 60.886557 L 70.294253,74.551992 H 82.630037 L 70.718668,59.870365 c 5.008016,-0.2822 10.48082,-4.12814 10.759254,-10.857267 0,-10.499378 -3.990112,-16.211391 -15.76902,-16.523537 l -5.70233,-0.150718 v -0.02312 h -0.871947 z m 9.66539,9.299228 h 4.617713 c 7.636295,0 8.981654,10.00072 2.686115,11.687604 -2.465163,0.660539 -4.875535,0.391769 -7.303828,-0.170136 z"
     style="fill:url(#linearGradient880);fill-opacity:1;stroke:none;stroke-width:0.44652018px;stroke-linecap:butt;stroke-linejoin:miter;stroke-opacity:1" />
  <path
     style="opacity:1;fill:#666666;fill-opacity:1;stroke:none;stroke-width:0.7083804;stroke-miterlimit:4;stroke-dasharray:none;stroke-opacity:1"
     d="m 81.813124,76.733 h 1.450375 v 2.696441 h -1.450375 z"
     id="path859" />
  <path
     id="path861"
     d="m 109.41999,31.747066 -17.622023,25.55184 v 7.313076 H 108.75886 V 74.92093 h 9.20805 c -1.79968,-0.971836 -2.26315,-9.98241 0.79299,-13.744957 V 31.747066 Z m 0.35229,12.688078 v 12.379245 h -7.84198 z"
     style="fill:url(#linearGradient872);fill-opacity:1;stroke:none;stroke-width:0.47342196px;stroke-linecap:butt;stroke-linejoin:miter;stroke-opacity:1" />
  <path
     id="path890"
     d="m 123.95224,82.047199 c 0.25567,1.450513 -0.32009,3.184582 -0.76276,4.984267 L 116.0869,95.130897 117.58218,97 c 3.96407,-6.454295 9.41464,-10.360296 15.70044,-12.834489 14.08905,-6.222161 26.96684,-13.608997 32.52234,-28.036498 -4.89531,11.352914 -10.8423,22.420999 -31.40088,29.531778 27.40221,6.201046 41.9463,-21.48422 30.77785,-50.964124 0.69631,9.697931 1.77978,20.473641 -19.43864,30.030205 -9.35656,4.359194 -12.27588,10.957427 -14.08056,17.94336 l -6.97797,3.488987 0.74764,-3.987415 z"
     style="fill:url(#linearGradient928);fill-opacity:1;stroke:none;stroke-width:0.47342196px;stroke-linecap:butt;stroke-linejoin:miter;stroke-opacity:1" />
  <path
     id="path892"
     d="m 133.75967,67.828217 c -2.02398,-14.820886 7.54687,-23.269538 9.24227,-34.876043 1.11521,4.570356 1.19553,8.103319 2.50054,11.855769 3.64704,10.486847 -0.97981,15.984585 -9.72773,24.155558 3.23231,-7.369914 5.16471,-10.639436 4.99939,-18.244188 -1.79467,6.437469 -4.18401,12.720841 -7.01447,17.108904 z"
     style="fill:url(#linearGradient920);fill-opacity:1;stroke:none;stroke-width:0.47342196px;stroke-linecap:butt;stroke-linejoin:miter;stroke-opacity:1" />
  <path
     id="path894"
     d="m 123.95224,82.047199 c -6.55183,-5.101453 -8.19534,-13.902026 -5.54498,-18.492587 3.89611,-6.748254 5.63973,-14.871525 3.34819,-23.084876 3.58059,5.812545 6.56807,11.123985 8.72291,18.591256 1.39272,5.197677 2.30589,16.803354 -3.52441,22.556217 0.68637,-9.007729 1.28127,-18.007833 -0.79299,-26.785508 0.28944,9.024652 0.37493,18.083297 -0.72856,27.340103 z"
     style="fill:url(#linearGradient912);fill-opacity:1;stroke:none;stroke-width:0.47342196px;stroke-linecap:butt;stroke-linejoin:miter;stroke-opacity:1" />
</svg>
