<?xml version="1.0" encoding="UTF-8" standalone="no"?>
<svg
   xmlns:dc="http://purl.org/dc/elements/1.1/"
   xmlns:cc="http://creativecommons.org/ns#"
   xmlns:rdf="http://www.w3.org/1999/02/22-rdf-syntax-ns#"
   xmlns:svg="http://www.w3.org/2000/svg"
   xmlns="http://www.w3.org/2000/svg"
   viewBox="0 0 200 114"
   height="114"
   width="200"
   id="svg2"
   version="1.1">
  <metadata
     id="metadata8">
    <rdf:RDF>
      <cc:Work
         rdf:about="">
        <dc:format>image/svg+xml</dc:format>
        <dc:type
           rdf:resource="http://purl.org/dc/dcmitype/StillImage" />
        <dc:title></dc:title>
      </cc:Work>
    </rdf:RDF>
  </metadata>
  <defs
     id="defs6" />
  <path
     id="rect1035"
     d="M 26.384739,17 H 173.61526 V 97 H 26.384739 Z"
     style="opacity:1;fill:#ffffff;fill-opacity:1;stroke:none;stroke-width:1.50201261;stroke-miterlimit:4;stroke-dasharray:none;stroke-opacity:1" />
  <path
     style="opacity:1;fill:#fe0002;fill-opacity:1;stroke:none;stroke-width:1.50201261;stroke-miterlimit:4;stroke-dasharray:none;stroke-opacity:1"
     d="M 26.384739,17 H 82.508532 L 68.366985,97 H 26.384739 Z"
     id="path1038" />
  <path
     id="path842"
     d="m 30.291141,39.7386 v 0.761124 h 0.926746 c 0.782609,0 1.400403,0.136667 1.853494,0.411267 0.466818,0.26087 0.775717,0.571629 0.926748,0.928608 0.151029,0.356979 0.227034,1.248111 0.227034,2.676028 v 18.371177 c -1e-6,1.400458 -0.07601,2.264627 -0.227034,2.594147 -0.19222,0.466819 -0.467418,0.795937 -0.824396,0.988157 -0.49428,0.288329 -1.145778,0.433599 -1.955846,0.433599 h -0.926746 v 0.761124 h 14.602777 v -0.761124 h -0.926747 c -0.782608,0 -1.407145,-0.131788 -1.873964,-0.392658 -0.453089,-0.2746 -0.763848,-0.590237 -0.928608,-0.947217 -0.15103,-0.356979 -0.225173,-1.248111 -0.225173,-2.676028 V 44.515627 c 0,-1.400458 0.07415,-2.266489 0.225173,-2.596007 0.205949,-0.46682 0.487887,-0.795939 0.844866,-0.988159 0.397188,-0.231693 0.902536,-0.365755 1.503638,-0.411266 0.696858,0.04025 1.210747,0.139593 1.525968,0.307054 0.439359,0.23341 0.748256,0.550909 0.926747,0.949078 0.17849,0.384439 0.267976,1.380398 0.267975,2.986804 v 13.674171 c 0,2.320367 0.371421,4.167013 1.112841,5.540011 0.741418,1.372997 2.010713,2.498883 3.809339,3.377602 1.318078,0.645309 3.184946,0.967687 5.601422,0.967687 2.897025,0 5.182498,-0.611055 6.857556,-1.833023 1.675056,-1.221968 2.724938,-2.560526 3.150567,-4.015904 0.43936,-1.455378 0.660633,-3.823596 0.660633,-7.105059 V 44.763131 c 0,-1.139588 0.08763,-1.929614 0.266114,-2.368973 0.23341,-0.631579 0.611571,-1.105966 1.133311,-1.421756 0.521738,-0.315789 1.175098,-0.472678 1.957707,-0.472678 h 0.57689 V 39.7386 h -9.660128 v 0.761124 c 1.125858,0 1.99863,0.15689 2.616479,0.472678 0.398169,0.205951 0.727289,0.577372 0.988159,1.112841 0.260869,0.535469 0.390796,1.42846 0.390796,2.677888 v 11.38894 c 0,2.965674 -0.266595,5.045215 -0.802064,6.239724 -0.521739,1.194507 -1.320368,2.134681 -2.391305,2.82118 -1.057209,0.672769 -2.339982,1.008629 -3.85028,1.008629 -1.318078,0 -2.4084,-0.266595 -3.273389,-0.802064 -0.864988,-0.535469 -1.489525,-1.209049 -1.873964,-2.019118 -0.37071,-0.810068 -0.558282,-2.464264 -0.558282,-4.96312 V 44.763131 c 0,-1.592677 0.08274,-2.588634 0.247505,-2.986804 0.17849,-0.398169 0.467167,-0.708928 0.865336,-0.928607 0.411899,-0.23341 1.159623,-0.347996 2.244291,-0.347996 h 0.723905 V 39.7386 H 44.893918 42.608687 40.816604 a 3.4018989,3.4018989 0 0 1 -3.0966,2.00237 3.4018989,3.4018989 0 0 1 -3.0966,-2.00237 z"
     style="font-style:normal;font-variant:normal;font-weight:bold;font-stretch:normal;font-size:medium;line-height:1.25;font-family:'Times New Roman';-inkscape-font-specification:'Times New Roman, Bold';font-variant-ligatures:normal;font-variant-caps:normal;font-variant-numeric:normal;font-feature-settings:normal;text-align:start;letter-spacing:0px;word-spacing:0px;writing-mode:lr-tb;text-anchor:start;fill:#ffffff;fill-opacity:1;stroke:none;stroke-width:1.05446231" />
  <path
     id="path829"
     d="m 136.53393,39.680911 -12.20217,21.397061 c -1.40691,2.45165 -2.56334,4.136799 -3.46879,5.056168 -0.49508,0.483297 -1.11715,0.896928 -1.85163,1.25055 -0.53235,-0.0913 -0.95975,-0.192867 -1.20961,-0.310777 -0.48603,-0.236807 -0.74689,-0.66837 -0.77973,-1.295212 -0.0197,-0.376106 0.0116,-0.71706 0.0931,-1.023516 l 4.56302,-20.58197 c 0.0352,-0.12537 0.0636,-0.244001 0.0857,-0.355439 0.2649,-1.058667 0.59167,-1.747117 0.97885,-2.067502 0.34684,-0.292526 1.10657,-0.542871 2.27965,-0.751819 l -0.0354,-0.669937 h -10.57198 l 0.0353,0.669937 c 1.19207,0.153229 1.98846,0.334447 2.38945,0.543394 0.43031,0.236808 0.66129,0.66837 0.69412,1.295212 0.0343,0.654702 -0.072,1.539312 -0.32007,2.653697 l -1.5967,7.019457 h -12.20216 l 1.86094,-8.337 c 0.19519,-0.794001 0.46905,-1.406782 0.82253,-1.838607 0.61382,-0.780069 1.72666,-1.224713 3.33666,-1.336153 l -0.0353,-0.669937 H 97.720448 l 0.03354,0.669937 c 1.288109,0.12537 2.154366,0.298186 2.597862,0.521063 0.49993,0.236807 0.76661,0.676771 0.8002,1.317543 0.0358,0.682562 -0.0771,1.567172 -0.34055,2.653697 l -4.252238,18.929458 c -0.02201,0.111439 -0.05155,0.223531 -0.08747,0.334969 -0.250243,1.072596 -0.569349,1.769447 -0.956526,2.089833 -0.347572,0.278597 -1.10002,0.522401 -2.259179,0.731349 l 0.03536,0.688546 h 10.510573 l -0.0373,-0.688546 c -1.26244,-0.167159 -2.08727,-0.363318 -2.47504,-0.586195 -0.4017,-0.222878 -0.61958,-0.654442 -0.65319,-1.295214 -0.0175,-0.334316 0.008,-0.647247 0.0763,-0.939773 l 2.27407,-10.447304 h 12.20216 l -2.24987,10.112335 c -0.21429,0.961158 -0.53994,1.658009 -0.97699,2.089833 -0.55659,0.543264 -1.6169,0.899159 -3.18221,1.066318 l 0.0373,0.688546 h 9.7904 1.88885 6.0927 v -0.688546 c -1.05866,-0.09751 -1.73404,-0.231084 -2.02655,-0.398241 -0.32039,-0.181089 -0.48199,-0.541663 -0.48199,-1.084927 0,-0.153228 0.009,-0.293342 0.0223,-0.418711 0.0418,-0.459684 0.32015,-1.204179 0.83556,-2.234986 l 2.65369,-4.847743 h 9.15209 l 0.89697,5.599562 c 0.0557,0.529333 0.0838,0.904852 0.0838,1.127728 0,0.710422 -0.1532,1.212972 -0.45965,1.505498 -0.39004,0.362177 -1.35032,0.612521 -2.8826,0.75182 v 0.688546 h 10.53105 10.05092 l -0.0354,-0.688546 c -1.35996,-0.167159 -2.20011,-0.376399 -2.51971,-0.627136 -0.28955,-0.208947 -0.4518,-0.655453 -0.48756,-1.338015 -0.0175,-0.334316 0.11376,-1.162879 0.39266,-2.486212 l 1.91304,-8.941806 2.78955,0.208425 5.99222,13.87329 h 6.3309 l -0.0353,-0.688546 c -0.72655,-0.04179 -1.31176,-0.188445 -1.75673,-0.439182 -0.73159,-0.403965 -1.38355,-1.282033 -1.95584,-2.633227 l -4.52034,-10.488244 c 1.8784,-0.306456 3.47803,-0.878134 4.79936,-1.713924 2.27967,-1.420842 3.35534,-3.356337 3.22685,-5.807986 -0.057,-1.086527 -0.34307,-2.042124 -0.85975,-2.863983 -1.3551,-2.200913 -4.14418,-3.301303 -8.36491,-3.301303 h -10.59245 l 0.0335,0.669937 c 0.76614,0 1.41388,0.11023 1.94095,0.333108 0.75579,0.334316 1.14996,0.821924 1.18356,1.462697 0.027,0.515404 -0.1004,1.414955 -0.38149,2.696498 l -4.25224,18.929458 c -0.022,0.111439 -0.0431,0.223531 -0.0652,0.334969 -0.27737,1.086527 -0.60375,1.789917 -0.97699,2.110303 -0.33162,0.279677 -1.04601,0.507012 -2.12147,0.684825 -0.13717,-0.01321 -0.2906,-0.02894 -0.39824,-0.03722 -0.86366,-0.111439 -1.44842,-0.376726 -1.75487,-0.794621 -0.29253,-0.390035 -0.57089,-1.328829 -0.83556,-2.81932 L 137.6412,39.680913 Z m -58.483686,0.647607 0.0335,0.669937 c 1.079897,0.139299 1.841325,0.305575 2.28337,0.500592 0.528543,0.250737 0.809021,0.6823 0.841144,1.295213 0.03285,0.626842 -0.150168,1.770197 -0.550837,3.427847 l -4.082898,18.198109 c -0.04695,0.167159 -0.08833,0.320353 -0.122822,0.459652 -0.279563,1.044737 -0.604879,1.720105 -0.978853,2.026561 -0.346844,0.292527 -1.094285,0.516709 -2.24243,0.669938 l 0.03536,0.688546 h 10.467769 l -0.03536,-0.688546 -0.253088,-0.0428 C 82.154065,67.35248 81.371082,67.15164 81.094735,66.928762 80.861639,66.733745 80.726686,66.29378 80.690911,65.611218 c -0.02263,-0.431825 0.108655,-1.260387 0.392658,-2.486212 l 4.61699,-20.330746 c 0.0455,-0.195018 0.106092,-0.361294 0.182372,-0.500592 0.240574,-0.459685 0.814067,-0.690408 1.719506,-0.690408 2.228772,0 3.82969,0.515631 4.80308,1.546439 0.722713,0.76614 1.125655,1.9506 1.209609,3.55253 0.03358,0.640772 0.02193,1.21245 -0.03536,1.713924 -0.374686,3.482456 -4.0425,6.256472 -9.085098,6.256472 -0.237087,0 -0.530103,-0.02107 -0.843005,-0.05024 l -0.333107,1.494332 c 0.742974,0.07804 1.596732,0.122822 2.594147,0.122822 4.568983,0 8.729238,-2.182716 10.558965,-4.481138 1.1367,-1.434771 1.65349,-3.119921 1.552016,-5.056167 -0.06279,-1.197965 -0.388875,-2.242311 -0.978849,-3.133819 C 95.608339,41.40929 92.81426,40.328522 88.66317,40.328522 Z m 80.991726,1.274742 c 3.53817,0 5.39144,1.596401 5.55862,4.786332 0.0212,0.403964 0.0137,0.792563 -0.0223,1.168668 -0.28966,3.510317 -2.8651,5.266454 -7.72661,5.266454 -0.61291,0 -1.34093,-0.07753 -2.18474,-0.230757 l 2.26475,-9.799697 c 0.0448,-0.208947 0.11264,-0.381764 0.20285,-0.521063 0.26916,-0.445754 0.90451,-0.669937 1.90746,-0.669937 z m -24.34665,4.32668 1.79767,11.115381 h -8.00389 z"
     style="font-style:italic;font-variant:normal;font-weight:normal;font-stretch:normal;font-size:medium;line-height:1.25;font-family:'Tempora LGC Uni';-inkscape-font-specification:'Tempora LGC Uni, Italic';font-variant-ligatures:normal;font-variant-caps:normal;font-variant-numeric:normal;font-feature-settings:normal;text-align:start;letter-spacing:0px;word-spacing:0px;writing-mode:lr-tb;text-anchor:start;fill:#000000;fill-opacity:1;stroke:none;stroke-width:1.06981075" />
  <path
     id="path882"
     d="m 83.496152,71.654738 c -0.220148,0 -0.392395,0.04976 -0.51553,0.151251 -0.12127,0.09918 -0.204999,0.230519 -0.253506,0.391974 -0.03545,0.11994 -0.05326,0.302819 -0.05326,0.549617 v 0.389844 h -0.445233 v 0.485708 h 0.445233 v 3.189055 h 0.50062 v -3.189055 h 0.57944 v -0.485708 h -0.579442 v -0.338716 c 0,-0.221426 0.03242,-0.370896 0.09587,-0.451623 0.06344,-0.08072 0.170819,-0.121427 0.323806,-0.121427 0.09329,0 0.191634,0.01102 0.29611,0.03408 l 0.07669,-0.543227 c -0.171647,-0.04151 -0.329007,-0.06178 -0.4708,-0.06178 z m 30.857368,0 c -0.36195,0 -0.69475,0.10148 -0.99699,0.306762 -0.30036,0.202975 -0.53243,0.502441 -0.69661,0.896856 -0.16231,0.392108 -0.24498,0.852239 -0.24498,1.380433 0,0.484369 0.0737,0.937036 0.21729,1.359129 0.14553,0.422093 0.35658,0.745554 0.6327,0.969284 0.27799,0.221426 0.63788,0.332328 1.08006,0.332328 0.42724,0 0.78741,-0.144137 1.08219,-0.432452 0.29665,-0.290621 0.50185,-0.712006 0.61565,-1.263265 l -0.54322,-0.170424 c -0.0746,0.426706 -0.21736,0.750342 -0.4282,0.967156 -0.21081,0.216812 -0.46705,0.323804 -0.77115,0.323804 -0.25001,0 -0.48419,-0.07944 -0.69875,-0.238593 -0.21454,-0.15915 -0.37243,-0.399434 -0.47505,-0.72004 -0.10078,-0.322913 -0.15125,-0.699869 -0.15125,-1.131188 0,-0.334446 0.0442,-0.65773 0.12995,-0.971415 0.0859,-0.315994 0.23441,-0.567298 0.44523,-0.754126 0.21269,-0.186829 0.47504,-0.281199 0.79034,-0.281199 0.27425,0 0.50285,0.08513 0.68383,0.253506 0.18097,0.168375 0.31813,0.436208 0.41328,0.805252 l 0.53469,-0.155512 c -0.11006,-0.468223 -0.30383,-0.830253 -0.58369,-1.088582 -0.27986,-0.25833 -0.62489,-0.387714 -1.03532,-0.387714 z m -84.568554,0.08522 v 5.072238 h 0.541095 v -5.072238 z m 19.289843,0 v 0.71578 h 0.502749 v -0.71578 z m 10.832561,0 v 5.072238 h 0.502751 v -5.072238 z m 2.950462,0 v 2.931289 c 0,0.537419 0.05104,0.962538 0.155511,1.273918 0.104479,0.309073 0.279649,0.545626 0.524054,0.709388 0.244403,0.163763 0.559391,0.244985 0.943722,0.244985 0.395525,0 0.713964,-0.09436 0.956504,-0.2812 0.244405,-0.189134 0.413726,-0.432975 0.50701,-0.732821 0.09329,-0.299848 0.13847,-0.70453 0.13847,-1.21427 v -2.931289 h -0.543226 v 2.927029 c 0,0.636599 -0.08374,1.067227 -0.253506,1.290959 -0.169778,0.223733 -0.454992,0.336587 -0.854249,0.336587 -0.23321,0 -0.429909,-0.05741 -0.592223,-0.170424 -0.160447,-0.113019 -0.275812,-0.27386 -0.342977,-0.481446 -0.0653,-0.209899 -0.09799,-0.535138 -0.09799,-0.975682 V 71.73995 Z m 7.262183,0 v 0.71578 h 0.502751 v -0.71578 z m 15.653426,0 v 5.072238 h 1.565768 c 0.261195,0 0.481287,-0.02773 0.660393,-0.08308 0.180971,-0.05766 0.330089,-0.140663 0.449493,-0.251374 0.119404,-0.110714 0.220146,-0.267822 0.300372,-0.470797 0.08208,-0.205279 0.123556,-0.42708 0.123556,-0.664653 0,-0.295234 -0.06805,-0.552224 -0.202378,-0.769036 -0.132463,-0.216814 -0.322784,-0.370191 -0.570919,-0.460145 0.192163,-0.117632 0.335169,-0.270832 0.43032,-0.462274 0.09516,-0.191441 0.14273,-0.396713 0.14273,-0.613526 0,-0.232957 -0.0537,-0.454583 -0.161903,-0.666783 -0.106344,-0.214506 -0.254933,-0.373569 -0.445232,-0.475057 -0.188435,-0.103792 -0.43856,-0.155511 -0.751995,-0.155511 z m 9.846235,0 v 0.71578 h 0.50275 v -0.71578 z m 14.002454,0 v 1.821404 c -0.0877,-0.149923 -0.20093,-0.272019 -0.34085,-0.36428 -0.13993,-0.09456 -0.2981,-0.14273 -0.47719,-0.14273 -0.24441,0 -0.4669,0.08158 -0.66466,0.240723 -0.19776,0.159151 -0.34634,0.388239 -0.44522,0.688087 -0.0989,0.29754 -0.147,0.628112 -0.147,0.994848 0,0.375963 0.0536,0.710618 0.16191,1.00124 0.11007,0.288314 0.26451,0.513847 0.46228,0.675303 0.19962,0.161458 0.41705,0.240724 0.65399,0.240725 0.36568,-1e-6 0.64239,-0.180926 0.83082,-0.545356 v 0.462274 h 0.46865 v -5.072238 z m 7.01719,0 v 5.072238 h 0.50276 v -5.072238 z m 1.28883,0 v 0.71578 h 0.50488 v -0.71578 z m 4.46723,0 v 0.71578 h 0.50489 v -0.71578 z m 7.31757,0 v 5.072238 h 0.50489 v -5.072238 z m 2.94194,0 v 5.072238 h 0.54323 v -2.062127 h 1.05236 c 0.58024,0 0.98161,-0.147691 1.20362,-0.445233 0.22202,-0.299847 0.33234,-0.665784 0.33234,-1.097104 0,-0.251409 -0.0418,-0.482452 -0.1257,-0.692345 -0.0821,-0.209894 -0.19187,-0.372512 -0.32807,-0.487839 -0.13617,-0.117633 -0.30551,-0.197076 -0.507,-0.238593 -0.14367,-0.0323 -0.35179,-0.04899 -0.62417,-0.04899 z m 3.76424,0 v 5.072238 h 0.50274 v -2.008869 c 0,-0.288316 0.0292,-0.515804 0.0853,-0.679566 0.0559,-0.163763 0.14846,-0.293146 0.27906,-0.387714 0.13246,-0.09688 0.27468,-0.14486 0.42393,-0.14486 0.19963,0 0.35195,0.07216 0.46015,0.215159 0.11007,0.140698 0.16617,0.366055 0.16617,0.677435 v 2.328415 h 0.50275 v -2.328415 c 0,-0.359817 -0.0356,-0.633161 -0.10656,-0.822295 -0.0691,-0.189135 -0.18493,-0.337001 -0.34724,-0.443101 -0.16233,-0.108407 -0.35292,-0.164033 -0.57306,-0.164033 -0.35822,0 -0.65538,0.170258 -0.89047,0.50701 v -1.821404 z m 22.3106,0 v 5.072238 h 0.50276 v -5.072238 z m -123.729796,0.115036 -0.50062,0.372803 v 0.909636 h -0.368541 v 0.485709 h 0.368541 v 2.113254 c 0,0.373655 0.02074,0.619451 0.06178,0.737083 0.04105,0.115328 0.112284,0.209699 0.21303,0.281198 0.100749,0.07151 0.243223,0.10652 0.42606,0.10652 0.111942,0 0.237401,-0.01848 0.379193,-0.0554 l -0.07244,-0.549615 c -0.09141,0.01614 -0.165576,0.02343 -0.221551,0.02343 -0.07464,0 -0.131514,-0.01475 -0.172554,-0.04474 -0.03918,-0.02999 -0.06868,-0.07069 -0.08734,-0.121428 -0.0168,-0.05074 -0.02556,-0.165376 -0.02556,-0.342978 v -2.147335 h 0.50701 v -0.485708 h -0.50701 z m 13.075764,0 -0.500619,0.372803 v 0.909636 h -0.370672 v 0.485709 h 0.370672 v 2.113254 c -1e-6,0.373655 0.01861,0.619451 0.05964,0.737083 0.04105,0.115328 0.112282,0.209699 0.213029,0.281198 0.10075,0.07151 0.243223,0.10652 0.426059,0.10652 0.111942,0 0.239532,-0.01848 0.381324,-0.0554 l -0.07244,-0.549615 c -0.09141,0.01614 -0.165574,0.02343 -0.221549,0.02343 -0.07463,0 -0.133645,-0.01475 -0.174686,-0.04474 -0.03918,-0.02999 -0.06655,-0.07069 -0.08522,-0.121428 -0.0168,-0.05074 -0.02556,-0.165376 -0.02556,-0.342978 v -2.147335 h 0.507011 v -0.485708 h -0.507011 z m 38.240969,0.483578 h 0.820165 c 0.294777,0 0.502907,0.02399 0.624177,0.07244 0.12127,0.04613 0.21377,0.134992 0.279068,0.264157 0.0653,0.126859 0.09799,0.274727 0.09799,0.443102 0,0.177602 -0.03562,0.32547 -0.106518,0.443102 -0.06904,0.117632 -0.170833,0.200631 -0.308893,0.251375 -0.104479,0.03921 -0.276988,0.05965 -0.517662,0.05965 H 86.31666 Z m 46.881453,0 h 1.04811 c 0.24626,0 0.4156,0.01476 0.507,0.04474 0.14181,0.04843 0.25717,0.150272 0.34299,0.302503 0.0878,0.149923 0.12995,0.331026 0.12995,0.543226 0,0.292927 -0.072,0.520238 -0.21943,0.681695 -0.14738,0.161455 -0.39698,0.240722 -0.74772,0.240722 h -1.0609 z M 32.616131,73.054349 c -0.412316,0 -0.727567,0.203493 -0.945853,0.607134 V 73.13743 h -0.453752 v 3.674763 h 0.504879 v -2.00674 c 0,-0.47053 0.07736,-0.790258 0.232203,-0.958634 0.156717,-0.168376 0.341454,-0.251375 0.556009,-0.251375 0.134328,0 0.250487,0.03679 0.349368,0.112906 0.100748,0.07381 0.17172,0.175643 0.210899,0.302502 0.03918,0.124553 0.05751,0.312942 0.05751,0.56666 v 2.234681 h 0.504879 v -2.258116 c 0,-0.288314 -0.0091,-0.491808 -0.0277,-0.607134 -0.02985,-0.177602 -0.08301,-0.33098 -0.157642,-0.460144 -0.07463,-0.129166 -0.187596,-0.232602 -0.338717,-0.311024 -0.149254,-0.08072 -0.312994,-0.121426 -0.492098,-0.121426 z m 4.601442,0 c -0.410451,0 -0.745906,0.172036 -1.003371,0.513401 -0.257462,0.341366 -0.385584,0.819803 -0.385584,1.437951 0,0.597388 0.127592,1.063206 0.381324,1.395344 0.255599,0.329833 0.600621,0.49423 1.035324,0.49423 0.345151,-10e-7 0.627974,-0.103432 0.849989,-0.311023 0.222016,-0.207588 0.373794,-0.49959 0.455884,-0.875553 l -0.519792,-0.07882 c -0.07649,0.262944 -0.180427,0.453111 -0.311024,0.57305 -0.130597,0.119939 -0.288223,0.181077 -0.472925,0.181077 -0.248137,0 -0.456004,-0.107174 -0.622047,-0.321676 -0.166046,-0.214507 -0.258281,-0.523039 -0.276939,-0.92668 h 2.217639 c 0.0018,-0.07381 0.0022,-0.129261 0.0022,-0.166164 0,-0.606613 -0.125196,-1.07794 -0.377062,-1.412386 -0.251867,-0.334445 -0.576157,-0.50275 -0.973548,-0.50275 z m 3.061237,0 c -0.117538,0 -0.227053,0.04266 -0.325935,0.125687 -0.09702,0.08304 -0.201743,0.254895 -0.317414,0.515532 V 73.13743 h -0.453754 v 3.674763 h 0.502749 v -1.923659 c 0,-0.262943 0.02924,-0.505005 0.08522,-0.726431 0.03731,-0.14531 0.09978,-0.257988 0.187465,-0.338718 0.08768,-0.08304 0.186036,-0.123556 0.296111,-0.123556 0.123137,0 0.245407,0.04426 0.368543,0.134208 l 0.174684,-0.577311 c -0.175373,-0.133778 -0.347885,-0.202377 -0.517663,-0.202377 z m 2.221901,0 c -0.412316,0 -0.727567,0.203493 -0.945854,0.607134 V 73.13743 h -0.453752 v 3.674763 h 0.504881 v -2.00674 c 0,-0.47053 0.07735,-0.790258 0.232203,-0.958634 0.156716,-0.168376 0.341452,-0.251375 0.556007,-0.251375 0.13433,0 0.250488,0.03679 0.349368,0.112906 0.100749,0.07381 0.17172,0.175643 0.210899,0.302502 0.03918,0.124553 0.05751,0.312942 0.05751,0.56666 v 2.234681 h 0.50488 v -2.258116 c 0,-0.288314 -0.0091,-0.491808 -0.0277,-0.607134 -0.02986,-0.177602 -0.08301,-0.33098 -0.157644,-0.460144 -0.07463,-0.129166 -0.187597,-0.232602 -0.338716,-0.311024 -0.149255,-0.08072 -0.312994,-0.121426 -0.492099,-0.121426 z m 3.048456,0 c -0.255599,0 -0.481275,0.04444 -0.675306,0.132078 -0.19403,0.08533 -0.342618,0.209216 -0.445231,0.370672 -0.102615,0.159149 -0.176766,0.369929 -0.221551,0.630568 l 0.492099,0.08307 c 0.0541,-0.260637 0.137304,-0.44174 0.249244,-0.543227 0.113807,-0.103791 0.289241,-0.157641 0.526182,-0.157641 0.253733,0 0.44645,0.07234 0.575182,0.213029 0.09516,0.103792 0.142728,0.280987 0.142728,0.534704 0,0.02308 -0.0024,0.07869 -0.0042,0.164034 -0.192166,0.08304 -0.490137,0.153062 -0.896855,0.213029 -0.199628,0.02998 -0.350613,0.06145 -0.449493,0.09374 -0.134329,0.04612 -0.253941,0.114554 -0.362151,0.204509 -0.106344,0.08994 -0.19486,0.210096 -0.262027,0.360019 -0.06529,0.147617 -0.09587,0.31006 -0.09587,0.489969 0,0.306767 0.08666,0.560025 0.262026,0.758386 0.175375,0.196054 0.425502,0.293981 0.751996,0.293981 0.197763,-10e-7 0.382235,-0.04069 0.553878,-0.121427 0.173508,-0.08072 0.354526,-0.219354 0.541096,-0.415408 0.01493,0.172989 0.04789,0.324588 0.100127,0.453753 h 0.526183 c -0.06344,-0.140697 -0.105428,-0.286611 -0.127817,-0.43884 -0.02051,-0.154539 -0.03196,-0.522428 -0.03196,-1.101366 v -0.828684 c 0,-0.276783 -0.0067,-0.46908 -0.02343,-0.57518 -0.02985,-0.170683 -0.08301,-0.311087 -0.157644,-0.4218 -0.07463,-0.113019 -0.190784,-0.207389 -0.349368,-0.281198 -0.158582,-0.07381 -0.364053,-0.110776 -0.617786,-0.110776 z m 6.005307,0 c -0.36754,0 -0.679602,0.136847 -0.9352,0.409017 -0.305973,0.327525 -0.460144,0.832088 -0.460144,1.512511 0,0.620453 0.127853,1.095335 0.383453,1.425168 0.257465,0.329833 0.595844,0.49423 1.011891,0.49423 0.259329,-10e-7 0.497495,-0.07376 0.715781,-0.223682 0.22015,-0.149923 0.386813,-0.360704 0.500619,-0.630568 0.115673,-0.272168 0.174684,-0.645569 0.174684,-1.118405 0,-0.58355 -0.130515,-1.039951 -0.389844,-1.369782 -0.25933,-0.332138 -0.592656,-0.498489 -1.00124,-0.498489 z m 3.382913,0 c -0.412317,0 -0.727567,0.203493 -0.945852,0.607134 V 73.13743 H 53.53778 v 3.674763 h 0.504882 v -2.00674 c 0,-0.47053 0.07735,-0.790258 0.232203,-0.958634 0.156718,-0.168376 0.341453,-0.251375 0.556006,-0.251375 0.13433,0 0.250488,0.03679 0.349369,0.112906 0.10075,0.07381 0.171721,0.175643 0.2109,0.302502 0.03918,0.124553 0.05751,0.312942 0.05751,0.56666 v 2.234681 h 0.50488 v -2.258116 c 0,-0.288314 -0.0091,-0.491808 -0.0277,-0.607134 -0.02985,-0.177602 -0.08301,-0.33098 -0.157643,-0.460144 -0.07463,-0.129166 -0.187596,-0.232602 -0.338717,-0.311024 -0.149253,-0.08072 -0.312992,-0.121426 -0.492098,-0.121426 z m 3.046325,0 c -0.255599,0 -0.479144,0.04444 -0.673175,0.132078 -0.194031,0.08533 -0.34262,0.209216 -0.445232,0.370672 -0.102613,0.159149 -0.176774,0.369932 -0.221549,0.630568 l 0.492097,0.08307 c 0.05411,-0.260637 0.137303,-0.44174 0.249245,-0.543227 0.113806,-0.103791 0.289241,-0.157641 0.526184,-0.157641 0.253732,0 0.446448,0.07234 0.57518,0.213029 0.09516,0.103792 0.142729,0.280987 0.142729,0.534704 0,0.02308 -0.0024,0.07869 -0.0042,0.164034 -0.192166,0.08304 -0.490137,0.153062 -0.896857,0.213029 -0.199627,0.02998 -0.350611,0.06145 -0.449492,0.09374 -0.134329,0.04612 -0.253941,0.114554 -0.362151,0.204509 -0.106344,0.08994 -0.19486,0.210096 -0.262026,0.360019 -0.0653,0.147617 -0.09587,0.31006 -0.09587,0.489969 0,0.306767 0.08664,0.560025 0.262025,0.758386 0.175375,0.196054 0.425501,0.293981 0.751996,0.293981 0.197762,-10e-7 0.382235,-0.04069 0.553878,-0.121427 0.173508,-0.08072 0.354527,-0.219354 0.541095,-0.415408 0.01493,0.172989 0.04789,0.324588 0.100127,0.453753 H 59.2939 c -0.06344,-0.140697 -0.105428,-0.286611 -0.127818,-0.43884 -0.02051,-0.154539 -0.03196,-0.522428 -0.03196,-1.101366 v -0.828684 c 0,-0.276783 -0.0067,-0.46908 -0.02343,-0.57518 -0.02986,-0.170683 -0.08302,-0.311087 -0.157642,-0.4218 -0.07463,-0.113019 -0.190785,-0.207389 -0.349368,-0.281198 -0.158582,-0.07381 -0.366185,-0.110776 -0.619918,-0.110776 z m 10.342593,0 c -0.412316,0 -0.729697,0.203493 -0.947982,0.607134 V 73.13743 H 66.9267 v 3.674763 h 0.50275 v -2.00674 c 10e-7,-0.47053 0.07735,-0.790258 0.232202,-0.958634 0.156719,-0.168376 0.343586,-0.251375 0.558139,-0.251375 0.134328,0 0.250487,0.03679 0.349367,0.112906 0.100751,0.07381 0.169592,0.175643 0.208771,0.302502 0.03918,0.124553 0.05965,0.312942 0.05965,0.56666 v 2.234681 h 0.502751 v -2.258116 c 0,-0.288314 -0.0091,-0.491808 -0.0277,-0.607134 -0.02985,-0.177602 -0.08088,-0.33098 -0.155511,-0.460144 -0.07463,-0.129166 -0.187597,-0.232602 -0.338717,-0.311024 -0.149256,-0.08072 -0.312994,-0.121426 -0.492099,-0.121426 z m 4.271246,0 c -0.367538,0 -0.677471,0.136847 -0.93307,0.409017 -0.305972,0.327525 -0.460144,0.832088 -0.460144,1.512511 0,0.620453 0.127856,1.095335 0.383453,1.425168 0.257465,0.329833 0.593715,0.49423 1.009761,0.49423 0.259331,-10e-7 0.499626,-0.07376 0.717911,-0.223682 0.220151,-0.149923 0.386813,-0.360704 0.500619,-0.630568 0.115673,-0.272168 0.172555,-0.645569 0.172555,-1.118405 0,-0.58355 -0.128383,-1.039951 -0.387714,-1.369782 -0.25933,-0.332138 -0.594787,-0.498489 -1.003371,-0.498489 z m 3.385043,0 c -0.412316,0 -0.727567,0.203493 -0.945852,0.607134 V 73.13743 h -0.453753 v 3.674763 h 0.50275 v -2.00674 c 0,-0.47053 0.07735,-0.790258 0.232201,-0.958634 0.156719,-0.168376 0.343586,-0.251375 0.558139,-0.251375 0.134329,0 0.250488,0.03679 0.34937,0.112906 0.100748,0.07381 0.17172,0.175643 0.210898,0.302502 0.03918,0.124553 0.05751,0.312942 0.05751,0.56666 v 2.234681 h 0.504885 v -2.258116 c 0,-0.288314 -0.01117,-0.491808 -0.02982,-0.607134 -0.02986,-0.177602 -0.08088,-0.33098 -0.155511,-0.460144 -0.07463,-0.129166 -0.187598,-0.232602 -0.338718,-0.311024 -0.149255,-0.08072 -0.312993,-0.121426 -0.492099,-0.121426 z m 4.586531,0 c -0.367541,0 -0.679603,0.136847 -0.935201,0.409017 -0.305973,0.327525 -0.458013,0.832088 -0.458013,1.512511 0,0.620453 0.127853,1.095335 0.383452,1.425168 0.257465,0.329833 0.593714,0.49423 1.009762,0.49423 0.259328,-10e-7 0.497495,-0.07376 0.715779,-0.223682 0.220151,-0.149923 0.386814,-0.360704 0.50062,-0.630568 0.115672,-0.272168 0.174684,-0.645569 0.174684,-1.118405 0,-0.58355 -0.130515,-1.039951 -0.389844,-1.369782 -0.25933,-0.332138 -0.592655,-0.498489 -1.001239,-0.498489 z m 10.24886,0 c -0.255599,0 -0.481273,0.04444 -0.675304,0.132078 -0.19403,0.08533 -0.34262,0.209216 -0.445232,0.370672 -0.102615,0.159149 -0.176774,0.369932 -0.221552,0.630568 l 0.49423,0.08307 c 0.0541,-0.260637 0.135172,-0.44174 0.247115,-0.543227 0.113804,-0.103791 0.289242,-0.157641 0.526182,-0.157641 0.253733,0 0.44645,0.07234 0.575181,0.213029 0.09516,0.103792 0.14273,0.280987 0.14273,0.534704 0,0.02308 -0.0024,0.07869 -0.0042,0.164034 -0.192165,0.08304 -0.490137,0.153062 -0.896855,0.213029 -0.199629,0.02998 -0.350612,0.06145 -0.449494,0.09374 -0.134328,0.04612 -0.25394,0.114554 -0.36215,0.204509 -0.106343,0.08994 -0.192729,0.210096 -0.259896,0.360019 -0.0653,0.147617 -0.09799,0.31006 -0.09799,0.489969 0,0.306767 0.08664,0.560025 0.262027,0.758386 0.175374,0.196054 0.425502,0.293981 0.751997,0.293981 0.19776,-10e-7 0.384363,-0.04069 0.556005,-0.121427 0.173509,-0.08072 0.352399,-0.219354 0.538967,-0.415408 0.01493,0.172989 0.04789,0.324588 0.100128,0.453753 h 0.526183 c -0.06344,-0.140697 -0.105429,-0.286611 -0.127819,-0.43884 -0.02051,-0.154539 -0.03197,-0.522428 -0.03197,-1.101366 v -0.828684 c 0,-0.276783 -0.0067,-0.46908 -0.02343,-0.57518 -0.02985,-0.170683 -0.08301,-0.311087 -0.157643,-0.4218 -0.07463,-0.113019 -0.190786,-0.207389 -0.349369,-0.281198 -0.158582,-0.07381 -0.364053,-0.110776 -0.617786,-0.110776 z m 2.909986,0 c -0.154851,0 -0.300515,0.02594 -0.43671,0.07668 -0.13433,0.04844 -0.241186,0.109574 -0.319545,0.181075 -0.10448,0.09226 -0.187678,0.208673 -0.249244,0.34937 -0.05969,0.13839 -0.08947,0.28786 -0.08947,0.451622 0,0.179909 0.03588,0.346436 0.108646,0.496359 0.07463,0.147618 0.184143,0.264028 0.325935,0.349369 0.143658,0.08304 0.399633,0.180787 0.769037,0.296111 0.274259,0.08533 0.446505,0.155542 0.515532,0.2109 0.09888,0.08072 0.146992,0.19163 0.146992,0.332326 0,0.156843 -0.05421,0.295645 -0.166164,0.413277 -0.111942,0.115326 -0.284188,0.172556 -0.515533,0.172556 -0.229478,0 -0.408102,-0.06664 -0.536834,-0.198118 -0.126871,-0.131472 -0.204223,-0.319861 -0.232202,-0.566659 l -0.498492,0.09587 c 0.05598,0.389802 0.184092,0.685712 0.385586,0.884073 0.203358,0.19836 0.497876,0.296112 0.884073,0.296112 0.23321,0 0.441605,-0.04995 0.626308,-0.149121 0.184702,-0.101491 0.32691,-0.241714 0.423929,-0.42393 0.09888,-0.184522 0.14699,-0.382505 0.14699,-0.590093 0,-0.212199 -0.03907,-0.389569 -0.119297,-0.532573 -0.08024,-0.143005 -0.190534,-0.249997 -0.332326,-0.323805 -0.139926,-0.07611 -0.389259,-0.174219 -0.745604,-0.29185 -0.246266,-0.08304 -0.394856,-0.134579 -0.445232,-0.157643 -0.0877,-0.04382 -0.150687,-0.09928 -0.191726,-0.166164 -0.04105,-0.06458 -0.06178,-0.138691 -0.06178,-0.21942 0,-0.126859 0.04812,-0.23776 0.146992,-0.332326 0.09888,-0.09456 0.265014,-0.1406 0.496359,-0.1406 0.195896,0 0.34741,0.05367 0.453753,0.159772 0.108209,0.106106 0.173605,0.251838 0.195987,0.440972 l 0.492099,-0.08307 c -0.03172,-0.237571 -0.09073,-0.42596 -0.174685,-0.566658 -0.08395,-0.143005 -0.214734,-0.255683 -0.391974,-0.338718 -0.175374,-0.08304 -0.378186,-0.125688 -0.611395,-0.125688 z m 4.364974,0 c -0.255588,0 -0.493226,0.07589 -0.711513,0.225812 -0.216419,0.147617 -0.377232,0.369242 -0.483584,0.666782 -0.106342,0.297541 -0.159765,0.644994 -0.159765,1.041715 0,0.613535 0.124397,1.086816 0.370668,1.416648 0.248137,0.327526 0.575348,0.489968 0.98207,0.489969 0.324628,0 0.598148,-0.118187 0.82016,-0.35576 0.223899,-0.239878 0.361331,-0.570626 0.415412,-0.992719 l -0.494227,-0.08095 c -0.03544,0.31138 -0.11891,0.542423 -0.251377,0.692346 -0.132468,0.149925 -0.298598,0.225812 -0.496352,0.225813 -0.24628,-10e-7 -0.445634,-0.112856 -0.598625,-0.336587 -0.152972,-0.223733 -0.230063,-0.582206 -0.230063,-1.0758 0,-0.486677 0.08004,-0.841418 0.23859,-1.06515 0.158575,-0.226038 0.364056,-0.338717 0.617786,-0.338717 0.167903,0 0.310651,0.06291 0.428179,0.187466 0.119434,0.124553 0.202623,0.309214 0.249253,0.556007 l 0.489968,-0.09374 C 99.221685,73.846135 99.090651,73.559641 98.885427,73.358973 98.680194,73.156 98.415706,73.054341 98.092945,73.054341 Z m 4.511975,0 c -0.2556,0 -0.48128,0.04444 -0.67531,0.132078 -0.19402,0.08533 -0.34261,0.209216 -0.44522,0.370672 -0.10259,0.159149 -0.17463,0.369932 -0.21942,0.630568 l 0.49209,0.08307 c 0.0541,-0.260637 0.13731,-0.44174 0.24924,-0.543227 0.11381,-0.103791 0.28925,-0.157641 0.52619,-0.157641 0.25374,0 0.44432,0.07234 0.57305,0.213029 0.0952,0.103792 0.14273,0.280987 0.14273,0.534704 0,0.02308 -1.7e-4,0.07869 -0.002,0.164034 -0.19216,0.08304 -0.49226,0.153062 -0.89898,0.213029 -0.19963,0.02998 -0.34848,0.06145 -0.44736,0.09374 -0.13433,0.04612 -0.25607,0.114554 -0.36427,0.204509 -0.10636,0.08994 -0.19274,0.210096 -0.2599,0.360019 -0.0653,0.147617 -0.098,0.31006 -0.098,0.489969 0,0.306767 0.0867,0.560025 0.26202,0.758386 0.17539,0.196054 0.42764,0.293981 0.75413,0.293981 0.19777,-10e-7 0.38224,-0.04069 0.55389,-0.121427 0.1735,-0.08072 0.35239,-0.219354 0.53896,-0.415408 0.0149,0.172989 0.05,0.324588 0.10224,0.453753 h 0.5262 c -0.0635,-0.140703 -0.10754,-0.286616 -0.12991,-0.438846 -0.0206,-0.154538 -0.0298,-0.522427 -0.0298,-1.101365 v -0.828685 c 0,-0.276783 -0.009,-0.46908 -0.0255,-0.57518 -0.0299,-0.170683 -0.083,-0.311087 -0.15765,-0.4218 -0.0747,-0.113019 -0.19079,-0.207389 -0.34937,-0.281198 -0.15858,-0.07381 -0.36405,-0.110776 -0.61778,-0.110776 z m 3.33179,0 c -0.41232,0 -0.72757,0.203493 -0.94585,0.607134 V 73.13743 h -0.45376 v 3.674763 h 0.50488 v -2.00674 c 0,-0.47053 0.0774,-0.790258 0.2322,-0.958634 0.15672,-0.168376 0.34146,-0.251375 0.55601,-0.251375 0.13432,0 0.25261,0.03679 0.35149,0.112906 0.10079,0.07381 0.16958,0.175643 0.20879,0.302502 0.0391,0.124553 0.0597,0.312942 0.0597,0.56666 v 2.234681 h 0.50275 v -2.258116 c 0,-0.288314 -0.009,-0.491808 -0.0276,-0.607134 -0.0299,-0.177602 -0.083,-0.33098 -0.15764,-0.460144 -0.0746,-0.129166 -0.18547,-0.232602 -0.33659,-0.311024 -0.14925,-0.08072 -0.31513,-0.121426 -0.49422,-0.121426 z m 14.66497,0 c -0.41233,0 -0.72758,0.203493 -0.94587,0.607134 V 73.13743 h -0.45374 v 3.674763 h 0.50488 v -2.00674 c 0,-0.47053 0.0774,-0.790258 0.2322,-0.958634 0.15671,-0.168376 0.34145,-0.251375 0.55601,-0.251375 0.13432,0 0.25047,0.03679 0.34936,0.112906 0.10068,0.07381 0.17171,0.175643 0.21092,0.302502 0.0391,0.124553 0.0574,0.312942 0.0574,0.56666 v 2.234681 h 0.50488 v -2.258116 c 0,-0.288314 -0.009,-0.491808 -0.0276,-0.607134 -0.0299,-0.177602 -0.083,-0.33098 -0.15764,-0.460144 -0.0746,-0.129166 -0.1876,-0.232602 -0.33871,-0.311024 -0.14926,-0.08072 -0.31301,-0.121426 -0.49211,-0.121426 z m 4.26698,0 c -0.2556,0 -0.49111,0.07589 -0.7094,0.225812 -0.21641,0.147617 -0.37936,0.369242 -0.4857,0.666782 -0.10634,0.297541 -0.15764,0.644994 -0.15764,1.041715 0,0.613535 0.12227,1.086816 0.36854,1.416648 0.24814,0.327526 0.57536,0.489968 0.98207,0.489969 0.32463,0 0.59815,-0.118187 0.82016,-0.35576 0.22389,-0.239878 0.36344,-0.570626 0.41754,-0.992719 l -0.49635,-0.08095 c -0.0354,0.31138 -0.11892,0.542423 -0.25138,0.692346 -0.13247,0.149925 -0.2986,0.225813 -0.49636,0.225813 -0.24628,0 -0.44564,-0.112856 -0.59862,-0.336587 -0.153,-0.223733 -0.22794,-0.582206 -0.22794,-1.0758 0,-0.486677 0.0778,-0.841418 0.23646,-1.06515 0.15859,-0.226038 0.36619,-0.338717 0.61992,-0.338717 0.16791,0 0.31064,0.06291 0.42819,0.187466 0.11943,0.124553 0.20051,0.30921 0.24712,0.556007 l 0.48996,-0.09374 c -0.0578,-0.371349 -0.18889,-0.657843 -0.39411,-0.858511 -0.20522,-0.202973 -0.4697,-0.304632 -0.79246,-0.304632 z m 2.92277,0 c -0.25561,0 -0.48128,0.04444 -0.67531,0.132078 -0.19403,0.08533 -0.34049,0.209216 -0.4431,0.370672 -0.10263,0.159149 -0.17676,0.369932 -0.22155,0.630568 l 0.4921,0.08307 c 0.0541,-0.260637 0.13731,-0.44174 0.24924,-0.543227 0.1138,-0.103791 0.28923,-0.157641 0.52618,-0.157641 0.25374,0 0.44433,0.07234 0.57305,0.213029 0.0952,0.103792 0.14273,0.280987 0.14273,0.534704 0,0.02308 6e-5,0.07869 -0.002,0.164034 -0.19217,0.08304 -0.49227,0.153062 -0.89898,0.213029 -0.19964,0.02998 -0.34849,0.06145 -0.44737,0.09374 -0.13433,0.04612 -0.25607,0.114554 -0.36428,0.204509 -0.10634,0.08994 -0.1927,0.210096 -0.25989,0.360019 -0.0654,0.147617 -0.0979,0.31006 -0.0979,0.489969 0,0.306767 0.0866,0.560025 0.26202,0.758386 0.17537,0.196054 0.42763,0.293981 0.75413,0.293981 0.19776,-10e-7 0.38223,-0.04069 0.55387,-0.121427 0.17352,-0.08072 0.3524,-0.219354 0.53898,-0.415408 h 0.002 c 0.0149,0.172989 0.0478,0.324588 0.10012,0.453753 h 0.52619 c -0.0634,-0.140697 -0.10755,-0.286611 -0.12996,-0.43884 -0.0205,-0.154539 -0.0298,-0.522428 -0.0298,-1.101366 v -0.828684 c 0,-0.276783 -0.009,-0.46908 -0.0255,-0.57518 -0.0299,-0.170683 -0.0809,-0.311087 -0.15551,-0.4218 -0.0746,-0.113019 -0.19291,-0.207389 -0.35149,-0.281198 -0.15859,-0.07381 -0.36405,-0.110776 -0.61779,-0.110776 z m 13.07576,0 c -0.2556,0 -0.48127,0.04444 -0.67531,0.132078 -0.19403,0.08533 -0.3426,0.209216 -0.44522,0.370672 -0.10264,0.159149 -0.17676,0.369932 -0.22156,0.630568 l 0.49423,0.08307 c 0.0541,-0.260637 0.13517,-0.44174 0.24712,-0.543227 0.11381,-0.103791 0.28923,-0.157641 0.52618,-0.157641 0.25373,0 0.44645,0.07234 0.57519,0.213029 0.0952,0.103792 0.14272,0.280987 0.14272,0.534704 0,0.02308 -0.002,0.07869 -0.005,0.164034 -0.19218,0.08304 -0.49227,0.153062 -0.89898,0.213029 -0.19963,0.02998 -0.34849,0.06145 -0.44738,0.09374 -0.13432,0.04612 -0.25392,0.114554 -0.36215,0.204509 -0.10634,0.08994 -0.19483,0.210096 -0.26202,0.360019 -0.0654,0.147617 -0.0979,0.31006 -0.0979,0.489969 0,0.306767 0.0888,0.560025 0.26417,0.758386 0.17536,0.196054 0.42548,0.293981 0.75198,0.293981 0.19777,-10e-7 0.38224,-0.04069 0.55389,-0.121427 0.1735,-0.08072 0.35452,-0.219354 0.54108,-0.415408 0.0149,0.172989 0.0478,0.324588 0.10013,0.453753 h 0.52619 c -0.0635,-0.140697 -0.10548,-0.286611 -0.12783,-0.43884 -0.0205,-0.154539 -0.032,-0.522428 -0.032,-1.101366 v -0.828684 c 0,-0.276783 -0.007,-0.46908 -0.0234,-0.57518 -0.0299,-0.170683 -0.083,-0.311087 -0.15765,-0.4218 -0.0746,-0.113019 -0.19077,-0.207389 -0.34936,-0.281198 -0.15858,-0.07381 -0.36405,-0.110776 -0.61779,-0.110776 z m 3.0229,0 c -0.11755,0 -0.22494,0.04266 -0.32381,0.125687 -0.097,0.08304 -0.20387,0.254895 -0.31955,0.515532 V 73.13743 h -0.45374 v 3.674763 h 0.50487 v -1.923659 c 0,-0.262943 0.027,-0.505005 0.0831,-0.726431 0.0373,-0.14531 0.0998,-0.257988 0.18748,-0.338718 0.0877,-0.08304 0.18816,-0.123556 0.29823,-0.123556 0.12313,0 0.24541,0.04426 0.36854,0.134208 l 0.17256,-0.577311 c -0.17538,-0.133778 -0.34788,-0.202377 -0.51766,-0.202377 z m 2.17503,0 c -0.19777,0 -0.37347,0.05544 -0.52831,0.166162 -0.15485,0.108407 -0.27952,0.252543 -0.37282,0.43245 V 73.13743 h -0.44949 v 3.674763 h 0.50276 v -1.906616 c 0,-0.334445 0.0268,-0.589306 0.0809,-0.766907 0.0541,-0.177602 0.14049,-0.312495 0.25989,-0.404757 0.12128,-0.09226 0.25446,-0.138469 0.39624,-0.138469 0.18657,0 0.32054,0.06825 0.40262,0.206639 0.0821,0.138392 0.12356,0.347395 0.12358,0.624177 v 2.385933 h 0.50273 v -2.134559 c 0,-0.378268 0.0686,-0.651612 0.20665,-0.822293 0.13805,-0.17299 0.31295,-0.259897 0.52192,-0.259897 0.11566,0 0.21668,0.03323 0.3025,0.100128 0.0858,0.0669 0.14297,0.155573 0.17468,0.266286 0.0335,0.108407 0.0512,0.287731 0.0512,0.536835 v 2.313503 h 0.50062 v -2.522272 c 0,-0.419786 -0.08,-0.730272 -0.23859,-0.93094 -0.15858,-0.202974 -0.38478,-0.304633 -0.67957,-0.304633 -0.37687,0 -0.68308,0.216468 -0.91815,0.645481 -0.0578,-0.202974 -0.15645,-0.362037 -0.29824,-0.475057 -0.13993,-0.113019 -0.32095,-0.170424 -0.5411,-0.170424 z m 4.68453,0 c -0.2556,0 -0.47914,0.04444 -0.67318,0.132078 -0.19403,0.08533 -0.34263,0.209216 -0.44523,0.370672 -0.10263,0.159149 -0.17677,0.369932 -0.22155,0.630568 l 0.49209,0.08307 c 0.0541,-0.260637 0.1373,-0.44174 0.24925,-0.543227 0.11381,-0.103791 0.28925,-0.157641 0.52618,-0.157641 0.25374,0 0.44645,0.07234 0.5752,0.213029 0.0951,0.103792 0.14271,0.280987 0.14271,0.534704 0,0.02308 -0.002,0.07869 -0.005,0.164034 -0.19216,0.08304 -0.49226,0.153062 -0.89898,0.213029 -0.19963,0.02998 -0.34849,0.06145 -0.44737,0.09374 -0.13434,0.04612 -0.25607,0.114554 -0.36428,0.204509 -0.10634,0.08994 -0.1927,0.210096 -0.25989,0.360019 -0.0654,0.147617 -0.0979,0.31006 -0.0979,0.489969 0,0.306767 0.0888,0.560025 0.26416,0.758386 0.17537,0.196054 0.4255,0.293981 0.75199,0.293981 0.19777,-10e-7 0.38224,-0.04069 0.55389,-0.121427 0.17351,-0.08072 0.35452,-0.219354 0.54109,-0.415408 0.0149,0.172989 0.0478,0.324588 0.10012,0.453753 h 0.52618 c -0.0635,-0.140697 -0.10546,-0.286611 -0.12782,-0.43884 -0.0205,-0.154539 -0.032,-0.522428 -0.032,-1.101366 v -0.828684 c 0,-0.276783 -0.007,-0.46908 -0.0234,-0.57518 -0.0299,-0.170683 -0.083,-0.311087 -0.15763,-0.4218 -0.0746,-0.113019 -0.19079,-0.207389 -0.34936,-0.281198 -0.1586,-0.07381 -0.3662,-0.110776 -0.61992,-0.110776 z m 3.13579,0 c -0.2556,0 -0.49323,0.07589 -0.71152,0.225812 -0.21642,0.147617 -0.37724,0.369242 -0.48359,0.666782 -0.10634,0.297541 -0.15975,0.644994 -0.15975,1.041715 0,0.613535 0.12226,1.086816 0.36853,1.416648 0.24814,0.327526 0.57535,0.489968 0.98206,0.489969 0.32463,0 0.59815,-0.118187 0.82017,-0.35576 0.22389,-0.239878 0.36345,-0.570626 0.41754,-0.992719 l -0.49636,-0.08095 c -0.0354,0.31138 -0.1189,0.542423 -0.25137,0.692346 -0.13247,0.149925 -0.29647,0.225813 -0.49424,0.225813 -0.24626,0 -0.44775,-0.112856 -0.60074,-0.336587 -0.15298,-0.223733 -0.22794,-0.582206 -0.22794,-1.0758 0,-0.486677 0.0779,-0.841418 0.23647,-1.06515 0.15857,-0.226038 0.36618,-0.338717 0.61991,-0.338717 0.16791,0 0.31065,0.06291 0.42819,0.187466 0.11943,0.124553 0.20264,0.30921 0.24924,0.556007 l 0.48997,-0.09374 c -0.0577,-0.371349 -0.19101,-0.657843 -0.39622,-0.858511 -0.20525,-0.202973 -0.4676,-0.304632 -0.79035,-0.304632 z m 2.86951,0 c -0.36753,0 -0.67747,0.136847 -0.93307,0.409017 -0.30596,0.327525 -0.46015,0.832088 -0.46015,1.512511 0,0.620453 0.12786,1.095335 0.38346,1.425168 0.25747,0.329833 0.59372,0.49423 1.00976,0.49423 0.25932,-10e-7 0.49963,-0.07376 0.71792,-0.223682 0.22015,-0.149923 0.38679,-0.360704 0.50061,-0.630568 0.11568,-0.272168 0.17256,-0.645569 0.17256,-1.118405 0,-0.58355 -0.12838,-1.039951 -0.38772,-1.369782 -0.25933,-0.332138 -0.59478,-0.498489 -1.00337,-0.498489 z m 4.46723,0 c -0.36754,0 -0.6796,0.136847 -0.9352,0.409017 -0.30596,0.327525 -0.45801,0.832088 -0.45801,1.512511 0,0.620453 0.12785,1.095335 0.38346,1.425168 0.25745,0.329833 0.5937,0.49423 1.00975,0.49423 0.25932,-10e-7 0.4975,-0.07376 0.71578,-0.223682 0.22016,-0.149923 0.38681,-0.360704 0.50062,-0.630568 0.11567,-0.272168 0.17469,-0.645569 0.17469,-1.118405 0,-0.58355 -0.13052,-1.039951 -0.38985,-1.369782 -0.25932,-0.332138 -0.59265,-0.498489 -1.00124,-0.498489 z m 3.07829,0 c -0.26307,0 -0.4922,0.0814 -0.68808,0.242854 -0.19404,0.161456 -0.34263,0.390544 -0.44525,0.688086 -0.10263,0.295233 -0.15338,0.618695 -0.15338,0.969285 0,0.509739 0.11058,0.947833 0.33446,1.312263 0.22388,0.36443 0.54153,0.545356 0.9501,0.545356 0.32838,0 0.60217,-0.160841 0.82231,-0.481448 0.002,0.405948 -0.01,0.674134 -0.0362,0.800992 -0.0448,0.207586 -0.13089,0.368252 -0.25776,0.483578 -0.12687,0.115326 -0.30576,0.172555 -0.53896,0.172555 -0.21643,0 -0.38841,-0.05723 -0.51342,-0.172555 -0.0932,-0.08533 -0.14992,-0.222189 -0.17042,-0.409016 l -0.48995,-0.08948 c -0.008,0.396722 0.0991,0.694411 0.3174,0.890466 0.21828,0.198359 0.50403,0.296111 0.85852,0.296111 0.29849,0 0.54863,-0.06825 0.75198,-0.20664 0.20524,-0.138389 0.35409,-0.32891 0.44736,-0.568789 0.0952,-0.237571 0.14274,-0.642252 0.14274,-1.21427 v -3.176273 h -0.4644 v 0.443102 c -0.22763,-0.350591 -0.5163,-0.526183 -0.86703,-0.526183 z m -115.225661,0.08307 v 3.674764 h 0.502749 v -3.674764 z m 21.045206,0 v 3.674764 h 0.502751 v -3.674764 z m 25.499661,0 v 3.674764 h 0.50275 v -3.674764 z m 22.308474,0 v 3.674764 h 0.50488 v -3.674764 z m 4.46723,0 v 3.674764 h 0.50489 v -3.674764 z m 43.71584,0 1.12692,3.681155 c -0.0204,0.0669 -0.0353,0.118784 -0.0447,0.153381 -0.0709,0.246795 -0.12169,0.402126 -0.15339,0.464405 -0.0429,0.08304 -0.0969,0.145596 -0.16404,0.191726 -0.0672,0.04613 -0.15646,0.0703 -0.2684,0.0703 -0.0821,0 -0.17965,-0.01848 -0.28972,-0.05539 l 0.0574,0.583702 c 0.11854,0.05012 0.2274,0.07668 0.3238,0.07668 0.16045,0 0.29762,-0.04798 0.41329,-0.14486 0.11568,-0.09456 0.21933,-0.244212 0.30889,-0.449493 0.0672,-0.15223 0.15993,-0.431435 0.28121,-0.835077 l 1.13119,-3.736541 h -0.50276 l -0.63482,2.143079 c -0.0802,0.272169 -0.15097,0.551198 -0.20878,0.837208 -0.0635,-0.297542 -0.13492,-0.582257 -0.21515,-0.85212 l -0.61778,-2.128167 z M 37.221833,73.567744 c 0.255599,0 0.463729,0.120144 0.624178,0.360021 0.10448,0.154538 0.169341,0.385403 0.191727,0.694477 h -1.659503 c 0.01679,-0.320607 0.103182,-0.575465 0.259898,-0.766908 0.158583,-0.19144 0.352355,-0.28759 0.5837,-0.28759 z m 14.332641,0.0022 c 0.248136,0 0.45387,0.118364 0.619917,0.353629 0.167912,0.232958 0.253504,0.576681 0.253504,1.031064 0,0.482063 -0.0832,0.840536 -0.249244,1.075801 -0.166045,0.235265 -0.374176,0.353629 -0.624177,0.353629 -0.251867,0 -0.462392,-0.116412 -0.628438,-0.349369 -0.166046,-0.235266 -0.249244,-0.588228 -0.249244,-1.058757 -10e-7,-0.470531 0.0832,-0.823671 0.249244,-1.056628 0.166046,-0.232959 0.376571,-0.349369 0.628438,-0.349369 z m 21.043077,0 c 0.248135,0 0.456001,0.118364 0.622046,0.353629 0.167912,0.232958 0.251376,0.576681 0.251376,1.031064 0,0.482063 -0.0832,0.840536 -0.249245,1.075801 -0.166046,0.235265 -0.374176,0.353629 -0.624177,0.353629 -0.251866,0 -0.460261,-0.116412 -0.626306,-0.349369 C 71.805198,75.799423 71.722,75.446461 71.722,74.975932 c 0,-0.470531 0.0832,-0.823671 0.249245,-1.056628 0.166045,-0.232959 0.37444,-0.349369 0.626306,-0.349369 z m 7.971574,0 c 0.248135,0 0.45387,0.118364 0.619916,0.353629 0.167912,0.232958 0.253506,0.576681 0.253506,1.031064 0,0.482063 -0.0832,0.840536 -0.249245,1.075801 -0.166045,0.235265 -0.374176,0.353629 -0.624177,0.353629 -0.251868,0 -0.460263,-0.116412 -0.626308,-0.349369 -0.166045,-0.235266 -0.249245,-0.588228 -0.249245,-1.058757 0,-0.470531 0.0832,-0.823671 0.249245,-1.056628 0.166045,-0.232959 0.374441,-0.349369 0.626308,-0.349369 z m 28.281825,0 c 0.22949,0 0.42273,0.118364 0.57943,0.353629 0.15673,0.235265 0.23435,0.604933 0.23435,1.107754 0,0.456692 -0.0774,0.79668 -0.23221,1.020414 -0.15299,0.221425 -0.34011,0.332326 -0.56026,0.332326 -0.21829,-10e-7 -0.40621,-0.116412 -0.56666,-0.349369 -0.16045,-0.232959 -0.24073,-0.586098 -0.24073,-1.056628 0,-0.486676 0.0744,-0.841239 0.22368,-1.067278 0.15112,-0.226039 0.33851,-0.340848 0.5624,-0.340848 z m 47.904,0 c 0.24814,0 0.456,0.118364 0.62204,0.353629 0.16792,0.232958 0.25139,0.576681 0.25139,1.031064 0,0.482063 -0.0833,0.840536 -0.24926,1.075801 -0.16605,0.235265 -0.37417,0.353629 -0.62417,0.353629 -0.25186,0 -0.46027,-0.116412 -0.6263,-0.349369 -0.16605,-0.235266 -0.24926,-0.588228 -0.24926,-1.058757 0,-0.470531 0.0833,-0.823671 0.24926,-1.056628 0.16603,-0.232959 0.37444,-0.349369 0.6263,-0.349369 z m 4.46723,0 c 0.24812,0 0.45599,0.118364 0.62205,0.353629 0.1679,0.232958 0.25137,0.576681 0.25137,1.031064 0,0.482063 -0.0832,0.840536 -0.24924,1.075801 -0.16604,0.235265 -0.37417,0.353629 -0.62418,0.353629 -0.25188,0 -0.46027,-0.116412 -0.6263,-0.349369 -0.16606,-0.235266 -0.24925,-0.588228 -0.24925,-1.058757 0,-0.470531 0.0832,-0.823671 0.24925,-1.056628 0.16603,-0.232959 0.37442,-0.349369 0.6263,-0.349369 z m 3.1145,0 c 0.22761,0 0.42112,0.114632 0.58157,0.342979 0.16231,0.228344 0.24498,0.56851 0.24498,1.01828 0,0.470531 -0.0797,0.816029 -0.23647,1.037456 -0.15671,0.219118 -0.35022,0.328066 -0.58157,0.328066 -0.2332,0 -0.42671,-0.110901 -0.58156,-0.332326 -0.15486,-0.221426 -0.23219,-0.572434 -0.23219,-1.054499 0,-0.442851 0.0777,-0.775377 0.23432,-0.999108 0.15671,-0.226039 0.34704,-0.340848 0.57092,-0.340848 z M 86.316667,74.47105 h 0.947982 c 0.261195,0 0.462682,0.02755 0.600744,0.08522 0.139926,0.05535 0.247577,0.153286 0.325936,0.293983 0.07836,0.138391 0.117167,0.302963 0.117167,0.492097 0,0.161456 -0.02684,0.303638 -0.08095,0.428191 -0.0541,0.122243 -0.122685,0.216614 -0.20664,0.281199 -0.08395,0.0646 -0.188153,0.110794 -0.313154,0.138469 -0.07089,0.01614 -0.193167,0.02343 -0.368541,0.02343 h -1.022542 z m -40.128412,0.498461 v 0.227942 c 0,0.274477 -0.02685,0.48135 -0.08095,0.622046 -0.0709,0.182216 -0.181207,0.326351 -0.332327,0.432451 -0.151118,0.103793 -0.323631,0.155512 -0.517661,0.155512 -0.195897,0 -0.34475,-0.05544 -0.447363,-0.166163 -0.10075,-0.110712 -0.151252,-0.249339 -0.151252,-0.415407 0,-0.108406 0.02366,-0.206334 0.0703,-0.293981 0.04664,-0.08995 0.112298,-0.158379 0.198119,-0.204509 0.08582,-0.04614 0.231751,-0.08666 0.438841,-0.123558 0.365674,-0.06458 0.639457,-0.142071 0.822295,-0.234333 z m 12.436676,0 v 0.227942 c 0,0.274477 -0.02684,0.48135 -0.08095,0.622046 -0.0709,0.182216 -0.181205,0.326351 -0.332326,0.432451 -0.15112,0.103793 -0.323632,0.155512 -0.517664,0.155512 -0.195895,0 -0.344748,-0.05544 -0.447361,-0.166163 -0.10075,-0.110712 -0.151252,-0.249339 -0.151252,-0.415407 0,-0.108406 0.02366,-0.206334 0.0703,-0.293981 0.04664,-0.08995 0.112296,-0.158379 0.198118,-0.204509 0.08582,-0.04614 0.231751,-0.08666 0.438841,-0.123558 0.365674,-0.06458 0.639457,-0.142071 0.822294,-0.234333 z m 32.832143,0 v 0.227942 c 0,0.274477 -0.02685,0.48135 -0.08095,0.622046 -0.07089,0.182216 -0.181206,0.326351 -0.332327,0.432451 -0.151119,0.103793 -0.32363,0.155512 -0.517662,0.155512 -0.195897,0 -0.34475,-0.05544 -0.447362,-0.166163 -0.10075,-0.110712 -0.151252,-0.249339 -0.151252,-0.415407 0,-0.108406 0.02366,-0.206334 0.0703,-0.293981 0.04664,-0.08995 0.112294,-0.158379 0.198116,-0.204509 0.08582,-0.04614 0.23175,-0.08666 0.438841,-0.123558 0.365674,-0.06458 0.63946,-0.142071 0.822295,-0.234333 z m 11.789076,0 v 0.227942 c 0,0.274477 -0.0291,0.48135 -0.0831,0.622046 -0.0709,0.182216 -0.18119,0.326351 -0.33232,0.432451 -0.15111,0.103793 -0.32362,0.155512 -0.51765,0.155512 -0.19591,0 -0.34476,-0.05544 -0.44737,-0.166163 -0.10075,-0.110712 -0.15126,-0.249339 -0.15126,-0.415407 0,-0.108406 0.0236,-0.206334 0.0703,-0.293981 0.0466,-0.08995 0.11229,-0.158379 0.19811,-0.204509 0.0859,-0.04614 0.23176,-0.08666 0.43885,-0.123558 0.36567,-0.06458 0.64157,-0.142071 0.82442,-0.234333 z m 25.1865,0 v 0.227942 c 0,0.274477 -0.0268,0.48135 -0.0809,0.622046 -0.0709,0.182216 -0.18333,0.326351 -0.33445,0.432451 -0.15112,0.103793 -0.32364,0.155512 -0.51766,0.155512 -0.1959,0 -0.34476,-0.05544 -0.44737,-0.166163 -0.10077,-0.110712 -0.15125,-0.249339 -0.15125,-0.415407 0,-0.108406 0.0236,-0.206334 0.0703,-0.293981 0.0467,-0.08995 0.11229,-0.158379 0.19812,-0.204509 0.0858,-0.04614 0.23175,-0.08666 0.43884,-0.123558 0.36567,-0.06458 0.64158,-0.142071 0.82443,-0.234333 z m 13.07363,0 v 0.227942 c 0,0.274477 -0.0268,0.48135 -0.0809,0.622046 -0.0709,0.182216 -0.18122,0.326351 -0.33234,0.432451 -0.15111,0.103793 -0.32363,0.155512 -0.51766,0.155512 -0.19589,0 -0.34476,-0.05544 -0.44736,-0.166163 -0.10078,-0.110712 -0.15126,-0.249339 -0.15126,-0.415407 0,-0.108406 0.0216,-0.206334 0.0681,-0.293981 0.0467,-0.08995 0.11444,-0.158379 0.20026,-0.204509 0.0858,-0.04614 0.23175,-0.08666 0.43884,-0.123558 0.36568,-0.06458 0.63947,-0.142071 0.8223,-0.234333 z m 9.88458,0 v 0.227942 c 0,0.274477 -0.0268,0.48135 -0.0809,0.622046 -0.0709,0.182216 -0.1812,0.326351 -0.33233,0.432451 -0.15111,0.103793 -0.32363,0.155512 -0.51766,0.155512 -0.19589,0 -0.34688,-0.05544 -0.44949,-0.166163 -0.10079,-0.110712 -0.14912,-0.249339 -0.14912,-0.415407 0,-0.108406 0.0216,-0.206334 0.0681,-0.293981 0.0467,-0.08995 0.11442,-0.158379 0.20025,-0.204509 0.0858,-0.04614 0.23175,-0.08666 0.43883,-0.123558 0.36569,-0.06458 0.63945,-0.142071 0.82231,-0.234333 z"
     style="font-style:normal;font-variant:normal;font-weight:normal;font-stretch:normal;font-size:medium;line-height:1.25;font-family:Arial;-inkscape-font-specification:'Arial, Normal';font-variant-ligatures:normal;font-variant-caps:normal;font-variant-numeric:normal;font-feature-settings:normal;text-align:start;letter-spacing:0px;word-spacing:0px;writing-mode:lr-tb;text-anchor:start;fill:#000000;fill-opacity:1;stroke:none;stroke-width:0.15931562" />
  <path
     id="path1029"
     d="m 40.423159,38.400677 a 2.7040735,2.7040735 0 0 1 -2.704074,2.704073 2.7040735,2.7040735 0 0 1 -2.704073,-2.704073 2.7040735,2.7040735 0 0 1 2.704073,-2.704075 2.7040735,2.7040735 0 0 1 2.704074,2.704075 z"
     style="opacity:1;fill:#000000;fill-opacity:1;stroke:none;stroke-width:1.31274676;stroke-miterlimit:4;stroke-dasharray:none;stroke-opacity:1" />
</svg>
