<svg width="200" height="114" version="1.1" viewBox="0 0 200 114" xmlns="http://www.w3.org/2000/svg" xmlns:cc="http://creativecommons.org/ns#" xmlns:dc="http://purl.org/dc/elements/1.1/" xmlns:rdf="http://www.w3.org/1999/02/22-rdf-syntax-ns#">
 <metadata>
  <rdf:RDF>
   <cc:Work rdf:about="">
    <dc:format>image/svg+xml</dc:format>
    <dc:type rdf:resource="http://purl.org/dc/dcmitype/StillImage"/>
    <dc:title/>
   </cc:Work>
  </rdf:RDF>
 </metadata>
 <rect width="200" height="114" rx="0" ry="0" fill="#36a9bb"/>
 <path d="m123.8 17.006c-0.75892-0.04397-1.5461 0.14586-1.3464 0.89132 0.25476 1.3221 3.0831 2.2717 3.0831 3.5499-3.0062-0.15275-5.6968-1.0332-7.9735-2.8637-2.1586-0.19848-1.2011 1.4271 0.0743 2.1635 3.8353 1.5446 9.3955 3.1898 9.9106 5.1121 0.31103 1.1607 0.21771 1.3354-0.23107 1.7803l-7.8179 0.15562c-2.3348-0.41084 2.1496-0.64608-6.6566-0.64609-0.90065 0-0.74073-0.4994-1.173-0.5612l0.0142-0.05422c-8.2278-2.2047-20.221-3.4765-31.459-3.2092-6.7199 0.15986-13.168 0.8714-18.381 2.2613-1.7699-0.12396-3.5463-0.20039-5.3291-0.17567-1.8818 0.02609-3.7706 0.16953-5.6651 0.46924a0.90555 0.90555 0 0 0-0.3832-0.09432 0.90555 0.90555 0 0 0-0.92315 0.8866c-0.31375 9.0508-1.8394 18.924-1.8097 27.947 0.02967 9.0228 1.635 17.308 7.7991 22.89a0.90565 0.90565 0 1 0 1.2156-1.3428c-5.6184-5.0882-7.1746-12.741-7.2037-21.554-0.02837-8.6227 1.4175-18.244 1.779-27.28 3.3887-0.50633 6.8002-0.45593 10.236-0.22282-3.0962 8.5979-5.3687 16.199-6.3795 22.825a0.90555 0.90555 0 0 0-0.07192 0.49164c-0.17394 1.2074-0.30982 2.3861-0.39496 3.5275-0.57849 7.7557 0.96634 14.088 5.4799 18.806a0.75463 0.75463 0 1 0 1.0894-1.0422c-4.1693-4.3576-5.6232-10.151-5.0637-17.652 0.06286-0.84281 0.15515-1.7094 0.26881-2.5938 4.3008 1.5737 13.127 3.053 23.472 3.287 10.395 0.23509 22.225-0.83462 32.108-4.6606 4.1719 6.019 5.4947 10.21 5.5047 13.492 0.0102 3.3541-1.339 5.8906-2.7517 8.6879a0.90558 0.90558 0 1 0 1.6164 0.81704c1.3998-2.7719 2.958-5.6664 2.9463-9.5109-0.0112-3.6953-1.4777-8.1568-5.6002-14.187 0.0426-0.01841 0.0871-0.03455 0.12968-0.05306l0.0354-0.01533 0.0353-0.01886c1.1189-0.60638 2.0619-1.1741 2.8873-1.7166 4.2115 6.0692 5.5616 10.866 5.5719 14.793 0.0105 3.9912-1.3627 7.1424-2.7517 9.8928a0.90558 0.90558 0 0 0 1.6164 0.81704c1.4235-2.8188 2.9578-6.3032 2.9463-10.715-0.0112-4.3429-1.5323-9.5348-5.9021-15.831 2.7588-2.0906 3.87-3.8654 6.0777-6.0729 0.35039-0.3504 0.99875-0.57075 2.029-0.55294 1.0303 0.01782 2.3726 0.27957 3.8788 0.72154 3.0055 0.8819 6.6688 2.4638 10.209 4.025 1.4202 0.80549 3.1473 1.2993 4.8421 1.495 1.7197 0.19854 3.3974 0.10618 4.7337-0.43269 0.6681-0.26943 1.2685-0.66425 1.6765-1.2532 0.40805-0.58902 0.5668-1.3675 0.42089-2.1446-0.29148-1.5524-1.545-3.1589-3.9861-5.1628l-5e-3 -0.0035c-4.053-3.3965-8.5009-5.6716-12.848-7.9829a0.90555 0.90555 0 0 0-0.0413-0.02003c0.25507-5.7563-5.9054-8.4336-10.422-11.899-0.21613-0.12478-0.66116-0.23537-1.1164-0.26174zm-41.33 8.1433c1.9824 8.2455 0.40674 18.266 0.22873 27.826-0.90693 5.72e-4 -1.8082-0.0058-2.6964-0.02594-5.2182-0.11801-10.074-0.59397-14.105-1.2108 1.4275-8.2963 2.393-16.828 2.753-25.663 4.2496-0.61237 8.9856-0.90156 13.82-0.92668zm1.8663 0.0011c4.0878 0.03675 8.2047 0.25866 12.128 0.64254 1.9395 4.1827 3.8602 9.7769 5.3621 15.217-0.86358 0.29232-1.7168 0.56118-2.5573 0.79818-2.8864-1.6664-10.836-3.7233-10.836 1.423 2.0711 6.9147 8.5409 5.1509 10.946 0.98563 1.0136-0.3783 2.0047-0.76858 2.9864-1.1648 0.6973 2.699 1.2846 5.3075 1.6895 7.6174-6.3179 1.5156-13.096 2.1852-19.544 2.2919 0.18561-9.2064 1.7883-19.152-0.17449-27.811zm14.223 0.8701c4.6569 0.53372 8.9679 1.2868 12.507 2.2248 0.16968 0.61751 0.17842 1.4894-0.53291 1.9288l-7.5596 2.2648c-1.5845 0.44926-0.38478 1.3826 0.44566 1.1601 2.7353-0.75952 7.467-0.42562 8.2316-1.8958 0.97852-1.8813 4.1254-1.3438 6.2227-1.7803l9.3093-0.37492c0.31905 3.1513-11.61 4.6336-14.989 6.5846-3.0702 1.8689-5.9285 3.2282-8.6514 4.2632-1.3985-5.0565-3.1498-10.229-4.9824-14.376zm-31.734 0.34312c-0.36808 8.6256-1.3172 16.961-2.714 25.079-3.2403-0.56646-5.8218-1.21-7.3593-1.8109 1.0426-6.4654 3.3026-13.976 6.3937-22.508 1.1653-0.28598 2.3957-0.53824 3.6796-0.75927zm67.318 4.0404a0.90555 0.90555 0 0 0 0.38553 0.38199c4.3648 2.3206 8.6833 4.5409 12.542 7.7755l4e-3 0.0034 4e-3 0.0024c2.2962 1.8835 3.2181 3.3417 3.3613 4.1041 0.0716 0.38121 0.012 0.57364-0.12968 0.77813s-0.42304 0.42642-0.86537 0.60482c-0.8847 0.35679-2.3435 0.48734-3.8482 0.31361-1.5048-0.17372-3.0638-0.63753-4.2078-1.2981l-0.0424-0.02476-0.0447-0.02002c-3.5552-1.5681-7.2641-3.1798-10.454-4.1158-1.595-0.46801-3.0594-0.77102-4.3575-0.79346-1.2982-0.02243-2.5 0.2422-3.34 1.0823-3.277 3.277-3.8292 5.1509-9.9978 8.5005-2.3175 1.0039-4.7836 1.8338-7.3368 2.5218-0.42572-2.4068-1.0346-5.0964-1.7544-7.8686 8.3674-3.4904 15.994-7.3981 26.406-9.7385 0.85126-1.2044 2.0181-2.0148 3.6773-2.2094zm-41.257 11.151a2.4426 1.8924 45.202 0 1 1.7944 0.85123 2.4426 1.8924 45.202 0 1 0.37727 3.0666 2.4426 1.8924 45.202 0 1-3.063-0.39968 2.4426 1.8924 45.202 0 1-0.37846-3.0666 2.4426 1.8924 45.202 0 1 1.2697-0.45155z" color="#000000" color-rendering="auto" dominant-baseline="auto" image-rendering="auto" shape-rendering="auto" solid-color="#000000" stroke-width="1.0124" style="font-feature-settings:normal;font-variant-alternates:normal;font-variant-caps:normal;font-variant-ligatures:normal;font-variant-numeric:normal;font-variant-position:normal;isolation:auto;mix-blend-mode:normal;shape-padding:0;text-decoration-color:#000000;text-decoration-line:none;text-decoration-style:solid;text-indent:0;text-orientation:mixed;text-transform:none;white-space:normal"/>
 <path d="m99.358 82.827c-1.0383 0-1.9974 0.1645-2.877 0.49432-0.87342 0.32982-1.6063 0.79723-2.1988 1.4019-0.61689 0.62911-1.0861 1.3825-1.4098 2.2621-0.32372 0.87953-0.48642 1.8612-0.48642 2.9422 0 1.1605 0.16828 2.1831 0.50422 3.0688 0.34204 0.88564 0.8206 1.6241 1.4375 2.2165 0.61689 0.59246 1.3535 1.0393 2.2086 1.3387 0.86121 0.29929 1.7998 0.44885 2.8137 0.44885 0.68409 0 1.2206-0.03371 1.6115-0.10083 0.39091-0.06722 0.80971-0.16438 1.2556-0.29265 0.34203-0.09769 0.66923-0.21362 0.98074-0.348 0.31149-0.13436 0.63671-0.27835 0.97875-0.43105v-3.2626h-0.3658c-0.16491 0.14659-0.3762 0.32046-0.63274 0.52201-0.25652 0.20156-0.53315 0.39233-0.83243 0.56946-0.35426 0.21988-0.74319 0.39374-1.1646 0.52201-0.41534 0.12826-0.83595 0.1918-1.2634 0.1918-0.44587 0-0.89834-0.07107-1.3564-0.21158-0.45809-0.14659-0.87312-0.38775-1.2457-0.72369-0.36647-0.32982-0.67118-0.78031-0.91549-1.3545-0.2382-0.57414-0.3579-1.2903-0.3579-2.1453 0-0.81846 0.11033-1.5139 0.33021-2.088 0.22599-0.57414 0.51756-1.036 0.87792-1.3841 0.37869-0.36036 0.79191-0.61648 1.2378-0.76917 0.44587-0.1588 0.91705-0.23728 1.4118-0.23728 0.44588 0 0.86271 0.06731 1.2536 0.20169 0.39091 0.13437 0.75554 0.29887 1.0914 0.49432 0.32983 0.19545 0.62338 0.39361 0.8799 0.59517 0.26264 0.20156 0.47754 0.37542 0.64855 0.522h0.40337v-3.308c-0.25042-0.12215-0.54198-0.253-0.87792-0.39348-0.32982-0.14659-0.70003-0.27743-1.1093-0.39348-0.3909-0.10383-0.81908-0.18608-1.2833-0.24716-0.45809-0.06719-0.97408-0.10084-1.5482-0.10084zm-30.031 0.26496-5.0401 13.642h3.5453l0.94515-2.7563h5.0559l0.94515 2.7563h3.6363l-5.0382-13.642zm9.7006 0v2.6397h4.2611v11.002h3.5176v-11.002h4.2611v-2.6397zm50.843 1.566v2.6891h-1.2398v2.0426h1.2398v4.3955c0 1.1499 0.28486 1.9616 0.85419 2.436 0.57491 0.47444 1.4478 0.71183 2.6199 0.71183 0.52468 0 0.96793-0.0249 1.3307-0.07512 0.36282-0.04465 0.70644-0.11006 1.0302-0.19378v-2.0663h-0.25112c-0.10043 0.05588-0.27909 0.11693-0.53584 0.18389-0.25118 0.06692-0.45471 0.10083-0.61099 0.10083-0.37955 0-0.67106-0.05639-0.87199-0.16807-0.19535-0.11721-0.33116-0.27326-0.4093-0.46862-0.0839-0.19536-0.12906-0.4168-0.13446-0.6624-5e-3 -0.24558-8e-3 -0.53277-8e-3 -0.8621v-3.3317h2.8216v-2.0426h-2.8216v-2.6891zm-58.566 1.9258 1.6767 4.8918h-3.3535zm51.657 0.46862c-1.6578 0-2.9626 0.45651-3.917 1.3663-0.94888 0.90422-1.4236 2.132-1.4236 3.6837 0 1.5685 0.50201 2.7759 1.5067 3.6244 1.0047 0.84847 2.4496 1.2734 4.3362 1.2734 0.7312 0 1.3982-0.06105 2.0011-0.18389 0.60281-0.12279 1.2449-0.32166 1.9258-0.59517v-2.4202h-0.33417c-0.34606 0.26234-0.81851 0.50869-1.4157 0.73753-0.59723 0.22886-1.2124 0.34406-1.8488 0.34406-1.0047 0-1.7667-0.19654-2.2858-0.58726-0.51348-0.39072-0.79369-0.95382-0.83838-1.6906h6.8988v-1.0559c0-1.4512-0.38447-2.5615-1.1547-3.3317-0.77026-0.77584-1.921-1.1646-3.4504-1.1646zm-16.979 0.29462 3.6006 9.402h3.4168l3.6244-9.402h-3.1222l-2.1533 6.4638-2.175-6.4638zm16.738 1.5897c0.62514 0 1.0844 0.16035 1.3802 0.47851 0.29583 0.31815 0.45189 0.79095 0.46862 1.4217h-3.9091c0.0447-0.66421 0.25482-1.146 0.62879-1.4474s0.85106-0.45281 1.4316-0.45281z" fill="#fff" stroke-width="1.0124" style="font-feature-settings:normal;font-variant-caps:normal;font-variant-ligatures:normal;font-variant-numeric:normal"/>
</svg>
