<?xml version="1.0" encoding="UTF-8" standalone="no"?>
<svg
   xmlns:dc="http://purl.org/dc/elements/1.1/"
   xmlns:cc="http://creativecommons.org/ns#"
   xmlns:rdf="http://www.w3.org/1999/02/22-rdf-syntax-ns#"
   xmlns:svg="http://www.w3.org/2000/svg"
   xmlns="http://www.w3.org/2000/svg"
   id="svg10"
   version="1.1"
   width="200"
   height="114">
  <metadata
     id="metadata16">
    <rdf:RDF>
      <cc:Work
         rdf:about="">
        <dc:format>image/svg+xml</dc:format>
        <dc:type
           rdf:resource="http://purl.org/dc/dcmitype/StillImage" />
        <dc:title></dc:title>
      </cc:Work>
    </rdf:RDF>
  </metadata>
  <defs
     id="defs14" />
  <path
     id="path2"
     d="M 9.9999987,38.234797 V 75.765475 H 41.352641 V 38.234797 L 9.9999987,38.234514 Z M 135.04315,44.193232 c -0.55326,-0.01262 -1.09942,0.07114 -1.6314,0.282587 -1.43279,0.570706 -1.99314,1.958104 -1.69524,3.307199 0.12768,0.612129 0.46105,1.129921 0.84407,1.613666 0.1064,0.131221 0.2128,0.258896 0.32628,0.390826 -0.0426,0.02695 -0.0709,0.04611 -0.0993,0.06738 -0.45395,0.320606 -0.90081,0.649722 -1.26965,1.076723 -0.38303,0.451117 -0.67384,0.951886 -0.80861,1.532096 -0.12058,0.51992 -0.0993,1.044805 -0.007,1.565434 0.25535,1.428537 1.06395,2.364109 2.47547,2.747133 0.76605,0.207826 1.54628,0.240454 2.32652,0.146826 0.7093,-0.08441 1.36895,-0.322024 1.95767,-0.735548 0.19152,-0.13264 0.37593,-0.274501 0.57454,-0.422745 0.0142,0.02482 0.0284,0.0461 0.0426,0.06526 0.26953,0.321314 0.53907,0.64192 0.8086,0.966071 0.0426,0.05178 0.0851,0.06738 0.14896,0.06738 0.90081,-0.0014 1.80872,0 2.70954,-0.0014 0.0284,0 0.0638,0.0156 0.0851,-0.02057 -0.74476,-0.878828 -1.48953,-1.759783 -2.2343,-2.640738 0.0213,-0.0305 0.0355,-0.05391 0.0567,-0.07589 0.39012,-0.445443 0.67384,-0.950467 0.86535,-1.510108 0.17733,-0.522757 0.28372,-1.061118 0.35465,-1.608701 0.0284,-0.227686 0.0426,-0.45821 0.0638,-0.695117 h -2.17047 c -0.0213,0.389407 -0.0709,0.770303 -0.16314,1.144106 -0.0922,0.375931 -0.23407,0.729165 -0.47523,1.049061 -0.7093,-0.841944 -1.41152,-1.671829 -2.12082,-2.507389 0.0567,-0.04114 0.1064,-0.07448 0.14895,-0.109942 0.40431,-0.305001 0.84408,-0.573117 1.20582,-0.926351 0.26954,-0.258896 0.51779,-0.536943 0.65965,-0.886629 0.23407,-0.556094 0.21279,-1.125665 0.0851,-1.697364 -0.12767,-0.544036 -0.39721,-1.009339 -0.8157,-1.382433 -0.48233,-0.431257 -1.05686,-0.672704 -1.69524,-0.756472 -0.18441,-0.02447 -0.36883,-0.04015 -0.55325,-0.04433 z m -37.351935,0.01936 c -0.971746,0.01156 -1.794538,0.258258 -2.447098,0.726114 -0.659652,0.456083 -1.141979,0.987351 -1.432793,1.556922 -0.198605,0.323442 -0.340466,0.74335 -0.432675,1.254049 -0.07802,0.485873 -0.120582,1.404421 -0.120582,2.806715 0,1.377467 0.04256,2.287504 0.120582,2.781889 0.04256,0.271663 0.106395,0.507152 0.184419,0.71285 0.06384,0.165977 0.14186,0.339756 0.23407,0.531978 0.305,0.597233 0.787327,1.126374 1.439886,1.56827 0.659653,0.472396 1.482445,0.72349 2.447098,0.746897 h 0.01419 0.0071 c 0.971746,-0.0227 1.808725,-0.273791 2.461288,-0.742641 0.65255,-0.448989 1.12779,-0.980258 1.39023,-1.532096 0.22698,-0.329117 0.38302,-0.762501 0.46105,-1.292351 0.0709,-0.493676 0.10639,-1.402294 0.10639,-2.774796 0,-1.395201 -0.0355,-2.308075 -0.10639,-2.797494 -0.078,-0.513536 -0.23407,-0.941246 -0.43268,-1.225677 -0.29081,-0.596524 -0.76605,-1.131339 -1.41151,-1.590259 -0.666746,-0.472396 -1.496632,-0.718808 -2.482564,-0.73037 z m 10.809785,0 c -0.97174,0.01156 -1.79453,0.258258 -2.44709,0.726114 -0.65966,0.456083 -1.14908,0.987351 -1.4328,1.556922 -0.1986,0.323442 -0.34046,0.74335 -0.43267,1.254049 -0.0851,0.485873 -0.12058,1.404421 -0.12058,2.806715 0,1.377467 0.0355,2.287504 0.12058,2.781889 0.0426,0.271663 0.0993,0.507152 0.17732,0.71285 0.0709,0.165977 0.14896,0.339756 0.24117,0.531978 0.305,0.597233 0.78732,1.126374 1.43988,1.56827 0.65966,0.472396 1.48245,0.72349 2.4471,0.746897 h 0.007 0.0142 c 0.97175,-0.0227 1.80163,-0.273791 2.46128,-0.742641 0.65256,-0.448989 1.1278,-0.980258 1.39024,-1.532096 0.22698,-0.329117 0.37593,-0.762501 0.46105,-1.292351 0.0709,-0.493676 0.10639,-1.402294 0.10639,-2.774796 0,-1.395201 -0.0355,-2.308075 -0.10639,-2.797494 -0.0851,-0.513536 -0.23407,-0.941246 -0.43268,-1.225677 -0.29081,-0.596524 -0.76605,-1.131339 -1.41151,-1.590259 -0.66675,-0.472396 -1.49663,-0.718808 -2.48257,-0.73037 z m 77.05166,0 c -0.97174,0.01156 -1.79453,0.258399 -2.44709,0.728952 -0.65966,0.4575 -1.14198,0.990897 -1.4328,1.562596 -0.19151,0.322733 -0.34046,0.74335 -0.43267,1.250502 -0.078,0.486582 -0.12058,1.402293 -0.12058,2.80175 0,1.377467 0.0426,2.287504 0.12058,2.781889 0.0496,0.271663 0.10639,0.507152 0.18442,0.71285 0.0709,0.165977 0.14186,0.339756 0.23407,0.531978 0.305,0.597233 0.79442,1.126374 1.43988,1.56827 0.65966,0.472396 1.48245,0.72349 2.4471,0.746897 h 0.0142 0.007 c 0.80151,-0.0149 1.51791,-0.205698 2.15628,-0.563896 v 0.489419 H 190 v -7.230642 h -0.0142 -4.42605 v 2.4244 h 1.95768 v 0.23407 c -0.0142,0.644048 -0.19861,1.144107 -0.57454,1.534934 -0.36884,0.397919 -0.82279,0.59014 -1.39024,0.59014 -0.33337,0 -0.61709,-0.07022 -0.87953,-0.225558 -0.24117,-0.123419 -0.43977,-0.283012 -0.60291,-0.501478 -0.17733,-0.200024 -0.29791,-0.473815 -0.36175,-0.819955 -0.078,-0.383024 -0.11348,-1.147653 -0.11348,-2.273318 0,-1.127793 0.0355,-1.899516 0.11348,-2.298854 0.0638,-0.331954 0.17733,-0.591559 0.37594,-0.818536 0.14895,-0.197896 0.35465,-0.36671 0.59581,-0.500059 0.24116,-0.126966 0.53907,-0.195059 0.86535,-0.204989 0.46814,0.0099 0.85117,0.141861 1.16326,0.396501 0.31919,0.289396 0.53198,0.629861 0.65256,1.041258 l 0.078,0.270244 H 190 l -0.0851,-0.443314 c -0.19151,-1.056863 -0.67384,-1.956969 -1.41861,-2.674785 -0.75895,-0.724908 -1.74488,-1.099704 -2.94361,-1.111266 z m -116.432198,0.0693 c -2.034283,0 -4.014659,1.105095 -4.014659,3.437286 0,2.349214 1.787445,3.050006 3.382669,3.645821 1.244828,0.456082 2.367656,0.860385 2.367656,1.912283 0,1.086653 -0.964653,1.559758 -1.946329,1.559758 -1.280293,0 -2.051306,-0.579501 -3.050715,-1.543444 l -1.666155,1.632107 c 1.332073,1.332782 2.805296,2.049888 4.699137,2.049888 2.138551,0 4.645939,-1.138432 4.645939,-3.803996 0,-2.577609 -2.086062,-3.383378 -3.821728,-3.979903 -0.94692,-0.332663 -2.103085,-0.596524 -2.103085,-1.543445 0,-0.806478 0.75328,-1.227095 1.594514,-1.227095 0.946921,0 1.858376,0.527013 2.542145,1.105095 l 1.437758,-1.788154 c -1.244828,-0.946921 -2.488946,-1.456201 -4.067147,-1.456201 z m 14.91382,0.02773 v 12.491547 h 2.468377 v -5.017614 h 3.688379 V 49.45633 h -3.688379 v -2.722308 h 5.546754 V 44.3097 h -8.015131 z m 31.223548,0 v 12.491547 h 4.23454 c 0.9221,0 1.72361,-0.214919 2.36198,-0.632699 0.63838,-0.390117 1.14908,-0.892304 1.51082,-1.498049 0.13477,-0.221303 0.24826,-0.435512 0.34756,-0.650431 0.0922,-0.22414 0.16314,-0.47949 0.21279,-0.756828 0.0922,-0.52914 0.13477,-1.413642 0.13477,-2.706702 0,-1.21291 -0.0284,-2.046342 -0.0922,-2.560587 -0.078,-0.531268 -0.26954,-1.046932 -0.56744,-1.520747 -0.83698,-1.424991 -2.11373,-2.153942 -3.78768,-2.165433 h -4.35513 z m 33.15995,0 v 12.491547 h 4.23454 c 0.9221,0 1.72361,-0.214919 2.35489,-0.632699 0.64547,-0.390117 1.15616,-0.892304 1.51791,-1.498049 0.13477,-0.221303 0.24826,-0.435512 0.34756,-0.650431 0.0922,-0.22414 0.16314,-0.47949 0.2057,-0.756828 0.0922,-0.52914 0.14186,-1.413642 0.14186,-2.706702 0,-1.21291 -0.0284,-2.046342 -0.0922,-2.560587 -0.078,-0.531268 -0.26954,-1.046932 -0.56745,-1.520747 -0.83697,-1.424991 -2.11372,-2.153942 -3.78768,-2.165433 h -4.35512 z m 11.13607,0 v 12.491547 h 2.47547 v -5.017614 h 1.58884 l 2.35489,5.017614 h 2.89395 l -2.73082,-5.402766 c 1.34768,-0.668164 2.0428,-1.820783 2.06408,-3.446507 -0.0355,-1.193758 -0.46105,-2.130748 -1.26256,-2.777633 -0.66675,-0.573827 -1.525,-0.86457 -2.56059,-0.86457 h -4.82326 z m 10.60409,0 v 8.145644 c 0.007,1.336328 0.44686,2.415179 1.29802,3.203215 0.82989,0.811444 1.87966,1.227805 3.11385,1.239863 h 0.007 c 1.25547,-0.01206 2.31233,-0.429129 3.13512,-1.239863 0.82279,-0.793001 1.25547,-1.871143 1.27675,-3.209599 v -8.13926 l -2.46838,7.1e-5 v 7.946329 c -0.007,0.695118 -0.19151,1.22213 -0.54616,1.571108 -0.36884,0.370256 -0.82989,0.54971 -1.40442,0.54971 -0.56745,0 -1.0214,-0.178744 -1.38315,-0.556803 -0.36883,-0.348978 -0.55325,-0.861095 -0.56035,-1.55834 V 44.3097 l -2.46837,7.1e-5 z m -120.617097,0.02766 v 8.146353 c 0.01064,1.334909 0.450408,2.41376 1.300153,3.201087 0.831304,0.811444 1.878237,1.228514 3.112425,1.239863 h 0.0014 0.0028 0.0043 c 1.254049,-0.01135 2.310202,-0.429129 3.135122,-1.239863 0.824211,-0.792292 1.254758,-1.870434 1.277456,-3.209599 v -8.137841 l -2.471923,7.1e-5 v 7.946329 c -0.0085,0.695118 -0.190803,1.221421 -0.545455,1.569689 -0.368838,0.370966 -0.826339,0.551129 -1.399456,0.551129 -0.57099,0 -1.022107,-0.178035 -1.389526,-0.556803 -0.365291,-0.348978 -0.546873,-0.861804 -0.555385,-1.559759 v -7.950585 l -2.471923,7.1e-5 z m 85.293767,1.793758 c 0.51779,-0.05816 1.05687,0.262442 1.17035,0.803641 0.078,0.365291 -0.0284,0.678094 -0.29081,0.946211 -0.27663,0.287268 -0.61709,0.482327 -0.94337,0.707885 -0.26245,-0.339047 -0.57454,-0.634117 -0.74477,-1.027781 -0.19152,-0.426291 -0.0426,-0.983095 0.31209,-1.239863 0.15605,-0.109233 0.32628,-0.170233 0.49651,-0.190093 z m 27.19471,0.505733 h 2.33361 c 0.45395,0 0.80151,0.09363 1.04267,0.290106 0.26954,0.20286 0.4114,0.541198 0.41849,1.030618 0,0.418489 -0.12767,0.759664 -0.39012,1.048351 -0.24825,0.294361 -0.63837,0.441187 -1.17035,0.450408 h -2.2343 z m -42.53695,0.09576 c 0.7164,0 1.25547,0.272373 1.66687,0.861804 0.19151,0.219175 0.31209,0.515664 0.36174,0.869607 0.0426,0.426291 0.0638,1.152618 0.0638,2.156283 0,1.0292 -0.0213,1.737085 -0.0638,2.097411 -0.0426,0.320605 -0.14186,0.583048 -0.31209,0.807188 -0.36175,0.573117 -0.95047,0.851873 -1.79454,0.851873 h -1.68105 v -7.642747 z m 33.15995,0 c 0.7164,0 1.25547,0.272373 1.67396,0.861804 0.18442,0.219175 0.305,0.515664 0.35465,0.869607 0.0426,0.426291 0.0638,1.152618 0.0638,2.156283 0,1.0292 -0.0213,1.737085 -0.0638,2.097411 -0.0426,0.320605 -0.14186,0.583048 -0.31209,0.807188 -0.36884,0.573117 -0.95047,0.851873 -1.79454,0.851873 h -1.68105 v -7.642747 z m -54.963942,0.0014 c 0.347559,0.01135 0.652559,0.08086 0.886629,0.202152 0.234071,0.133349 0.425583,0.299326 0.588723,0.526303 0.184419,0.20357 0.305,0.473105 0.375931,0.796548 0.07093,0.393664 0.106395,1.167514 0.106395,2.297435 0,1.129211 -0.03547,1.89455 -0.106395,2.273318 -0.07093,0.340466 -0.198606,0.617094 -0.397211,0.850455 -0.14186,0.19364 -0.326279,0.351815 -0.574536,0.482327 -0.482326,0.283721 -1.234188,0.305 -1.759073,-0.01135 -0.241163,-0.123419 -0.439768,-0.283012 -0.602908,-0.501478 -0.177326,-0.200024 -0.297907,-0.473815 -0.361745,-0.819955 -0.07802,-0.383024 -0.120581,-1.147653 -0.120581,-2.273318 0,-1.127793 0.04256,-1.899516 0.120581,-2.298854 0.06384,-0.331954 0.177326,-0.592268 0.375931,-0.818536 0.148954,-0.197896 0.354652,-0.36671 0.595815,-0.500059 0.234071,-0.125547 0.531978,-0.195059 0.872444,-0.204989 z m 10.809792,0 c 0.34756,0.01135 0.64546,0.08086 0.88663,0.202152 0.23407,0.133349 0.42558,0.299326 0.58872,0.526303 0.17732,0.20357 0.305,0.473105 0.37593,0.796548 0.0709,0.393664 0.10639,1.167514 0.10639,2.297435 0,1.129211 -0.0355,1.89455 -0.10639,2.273318 -0.0709,0.340466 -0.19861,0.617094 -0.4043,0.850455 -0.13477,0.19364 -0.31919,0.351815 -0.56745,0.482327 -0.48232,0.283721 -1.23419,0.305 -1.75907,-0.01135 -0.24116,-0.123419 -0.43977,-0.283012 -0.61,-0.501478 -0.17733,-0.200024 -0.29791,-0.473815 -0.35465,-0.819955 -0.078,-0.383024 -0.12058,-1.147653 -0.12058,-2.273318 0,-1.127793 0.0426,-1.899516 0.12058,-2.298854 0.0567,-0.331954 0.17732,-0.592268 0.37593,-0.818536 0.14895,-0.197896 0.34756,-0.36671 0.59581,-0.500059 0.23407,-0.125547 0.53198,-0.195059 0.87245,-0.204989 z m 25.62005,4.46223 c 0.83697,0.980967 1.66686,1.960515 2.51093,2.945029 -0.2057,0.191512 -0.42558,0.348268 -0.65965,0.468849 -0.60291,0.300745 -1.2271,0.366001 -1.87256,0.177326 -0.75896,-0.22343 -1.24838,-0.889467 -1.24838,-1.676794 0,-0.460338 0.13477,-0.872443 0.46105,-1.2122 0.24826,-0.25393 0.5107,-0.486582 0.80861,-0.70221 z m -74.491079,3.20818 v 2.4244 h 2.376168 v -2.4244 z m 14.996808,0 v 2.4244 h 2.37404 v -2.4244 z m 18.309966,8.742168 c -1.042676,0 -2.007329,0.562478 -2.007329,1.769004 0,1.097293 0.900815,1.513654 1.75198,1.821492 0.659652,0.236198 1.305119,0.463175 1.305119,1.071048 0,0.661781 -0.56035,0.933444 -1.1207,0.933444 -0.65256,0 -1.071049,-0.24471 -1.624306,-0.779525 l -0.766048,0.735548 c 0.695118,0.680222 1.418608,1.015723 2.376168,1.015723 1.056862,0 2.326516,-0.572408 2.326516,-1.969027 0,-1.278875 -1.056863,-1.695236 -1.98605,-2.013004 -0.510699,-0.172361 -1.134886,-0.372384 -1.134886,-0.871025 0,-0.480908 0.418489,-0.74406 0.943374,-0.74406 0.489419,0 0.993025,0.253931 1.326397,0.544036 l 0.659653,-0.805769 c -0.617094,-0.463175 -1.262561,-0.707885 -2.049888,-0.707885 z m 37.820075,0 c -1.87256,0 -3.29117,1.468259 -3.29117,3.283367 0,1.81369 1.41861,3.283367 3.29117,3.283367 1.87965,0 3.29826,-1.469677 3.29826,-3.283367 0,-1.815108 -1.41861,-3.283367 -3.29826,-3.283367 z m -79.505853,0.107814 -2.530796,6.350397 H 49.95153 L 50.404775,68.3528 h 1.744177 l -0.336919,-0.944083 h -1.062537 l 0.889467,-2.439295 h 0.0085 l 1.651259,4.6353 h 1.288805 L 52.183708,63.25435 Z m 5.63329,0 v 6.350397 h 1.703747 c 1.74205,0 3.538716,-0.853293 3.538716,-3.202507 0,-2.294597 -1.823619,-3.14789 -3.447216,-3.14789 z m 7.861922,0 v 6.350397 h 1.124956 v -4.953778 l 1.959096,4.953778 h 0.798676 l 2.005202,-4.934626 v 4.934626 h 1.124956 V 63.25435 H 70.076603 L 68.23596,67.908092 66.440003,63.25435 Z m 9.913228,0 v 6.348978 h 1.124956 V 63.25435 Z m 4.027427,0 v 6.350397 h 1.124956 v -4.290579 l 3.13654,4.290579 h 1.007212 V 63.25435 h -1.1207 v 4.300509 L 79.672064,63.25435 Z m 8.16976,0 v 6.348978 h 1.127793 V 63.25435 Z m 10.256531,0 v 0.961816 h 1.546282 v 5.388581 h 1.1207 v -5.388581 h 1.546283 V 63.25435 Z m 6.468855,0 v 6.350397 h 1.12779 v -2.594633 h 0.39721 l 1.80872,2.594633 h 1.40442 l -1.97186,-2.703866 c 0.74477,-0.208535 1.45407,-0.752571 1.45407,-1.777515 0,-1.351933 -1.25547,-1.869016 -2.26268,-1.869016 z m 9.09327,0 -2.52512,6.350397 h 1.23419 l 0.44686,-1.251922 h 1.74488 l -0.33337,-0.944083 h -1.06395 l 0.88663,-2.439295 h 0.0142 l 1.64559,4.6353 h 1.29093 L 113.6087,63.25435 Z m 4.57501,0 v 0.961816 h 1.53919 v 5.388581 h 1.12779 v -5.388581 h 1.53919 V 63.25435 Z m 6.46885,0 v 6.348978 h 1.1207 V 63.25435 Z m 12.95898,0 v 6.350397 h 1.1207 v -4.290579 l 3.14221,4.290579 h 1.00721 V 63.25435 h -1.12779 v 4.300509 l -3.1564,-4.300509 z m -5.92269,0.879537 c 1.22,0 2.11372,1.007211 2.11372,2.296016 0,1.287386 -0.89372,2.293888 -2.11372,2.293888 -1.22,0 -2.10663,-1.006502 -2.10663,-2.293888 0,-1.288805 0.88663,-2.296016 2.10663,-2.296016 z m -72.746188,0.08228 h 0.517792 c 1.515073,0 2.412342,0.788746 2.412342,2.267644 0,1.605154 -1.106514,2.158411 -2.720889,2.158411 h -0.209245 z m 46.701978,0 h 0.80151 c 0.65965,0 1.09942,0.372385 1.09942,0.934863 0,0.634826 -0.54616,0.897269 -1.27675,0.897269 h -0.62418 z"
     style="fill:#007cba;stroke-width:0.70930368" />
  <path
     id="path4"
     d="M 13.128106,45.516084 V 55.963418 H 15.3073 v -4.308311 h 2.940915 V 49.781836 H 15.3073 v -2.392481 h 8.838633 c 0.434803,0.01702 0.818537,0.0837 1.13063,0.219884 0.355361,0.156047 0.645467,0.375221 0.869607,0.658234 0.224849,0.283012 0.387989,0.631989 0.490128,1.046223 0.102849,0.414942 0.153919,0.87528 0.153919,1.382432 0,0.517083 -0.05745,0.983095 -0.174488,1.398038 -0.117035,0.414943 -0.300036,0.773141 -0.548292,1.074595 -0.248966,0.302873 -0.574536,0.534106 -0.973874,0.694408 -0.400047,0.161012 -0.882374,0.242582 -1.447689,0.242582 H 22.240743 V 49.79815 h -2.180399 v 6.165268 h 3.540844 c 0.848327,0 1.610119,-0.11278 2.283249,-0.33692 0.673129,-0.224139 1.2427,-0.561059 1.71084,-1.010048 0.46814,-0.44828 0.827757,-0.999409 1.076723,-1.652678 0.248256,-0.653268 0.372385,-1.413642 0.372385,-2.28183 0,-1.706584 -0.446153,-2.995389 -1.338457,-3.863577 -0.817827,-0.795839 -1.936399,-1.235607 -3.347913,-1.302281 h -4.297671 -6.93238 z m 19.454782,0 -3.92174,10.447334 h 2.341411 L 31.8367,53.549657 h 2.519447 l -0.517792,-1.799503 h -1.431374 l 1.2732,-3.745833 2.649249,7.959097 h 2.252039 l -3.92174,-10.447334 z"
     style="fill:#ffffff;stroke-width:0.70930368" />
</svg>
