<svg width="200" height="114" enable-background="new 0 0 59.21 36.77" version="1.1" viewBox="0 0 16.447 9.3567" xml:space="preserve" xmlns="http://www.w3.org/2000/svg" xmlns:cc="http://creativecommons.org/ns#" xmlns:dc="http://purl.org/dc/elements/1.1/" xmlns:rdf="http://www.w3.org/1999/02/22-rdf-syntax-ns#"><metadata><rdf:RDF><cc:Work rdf:about=""><dc:format>image/svg+xml</dc:format><dc:type rdf:resource="http://purl.org/dc/dcmitype/StillImage"/><dc:title/></cc:Work></rdf:RDF></metadata><g transform="matrix(1.1342 0 0 1.1342 -1.1035 -.62744)" stroke-width=".15775"><rect x="3.5536" y="6.8628" width="9.3076" height=".71554" fill="#706f5e"/><path d="m6.2285 1.7779c-0.19246 0.41572-0.38635 0.79273-0.57675 1.2081-0.05048-0.00442-0.075357-0.00442-0.12993-0.00362l-2.266e-4 -1.081c-1.58e-4 -0.020662 0.011513-0.042483 0.049847-0.071825 0.019718-0.014671 0.036756-0.027253 0.07556-0.051546h-0.39549c0.04512 0.023508 0.12565 0.087874 0.12801 0.12337-4.733e-4 0.20786-0.00208 1.0453-3.399e-4 1.0938l-0.094256 0.016766-0.082926 0.016313-0.026962 0.00782-0.11001 0.033987c-0.29833-0.31206-0.5739-0.64703-0.86135-0.95797-0.10017-0.10805-0.27239-0.26504-0.19746-0.33397-0.11706 1.577e-4 -0.28873 1.577e-4 -0.36965 0-0.012304 0-0.010667-8.266e-4 0.011102 0.00975 0.025553 0.014198 0.061002 0.044563 0.082926 0.072956 0.012617 0.018457 0.01722 0.028679 0.01722 0.061175l-0.00283 1.7943-0.00793 0.018466-0.019259 0.02379-0.064123 0.068653h0.32604l-0.064802-0.075225-0.014047-0.018919-0.00782-0.023904s0.00163-1.5673 0.00147-1.6451c0.32811 0.3566 0.62881 0.6827 0.98829 1.0985 0 0-0.45975 0.26126-0.46085 0.92886 0.0041 0.19718 0.052534 0.36053 0.16359 0.56213 0.19795 0.34058 0.5017 0.45206 0.81576 0.53109 1.578e-4 0.17767 6.311e-4 0.94738 0 1.0973-0.3295-0.33856-0.62312-0.73478-0.96857-1.1017l-0.029681-0.038404-0.00906-0.01722-0.00261-0.016087 0.00238-0.0145 0.024809-0.040217h-0.25116l0.042936 0.067295 0.00566 0.011215 0.00419 0.012462 0.00363 0.010876 0.00272 0.0145-0.00125 1.3111-0.00317 0.014388-0.00737 0.012575-0.044407 0.050412h0.21524l-0.042823-0.047807-0.00906-0.012008-0.00566-0.015294c4.732e-4 -0.073211 4.732e-4 -1.0977 0-1.2281 0.35463 0.41141 0.7806 0.91672 1.1583 1.3247l-1.151e-4 -1.3956c0.070827 0.00599 0.16607 0.012805 0.23484 0.013595-0.21122 0.39419 0.27919 0.61007 0.49563 0.81169 0.023188 0.021925 0.050679 0.063229 0.057776 0.086893 0.05079 0.13409-1.18e-4 0.30929-0.10944 0.40047-0.078403 0.048586-0.22645 0.064824-0.32015 0.023336-0.099225-0.032974-0.16815-0.10544-0.2046-0.20482l0.020278 0.20482c0.16421 0.022241 0.32571 0.098682 0.51058 0.020278 0.15712-0.058362 0.27559-0.28765 0.2046-0.50787-0.051425-0.13677-0.17745-0.20232-0.28582-0.28277-0.14165-0.10537-0.43555-0.26392-0.32797-0.52531 0.00647-0.016248 0.017164-0.029141 0.019372-0.030248 0.033284-0.00363 0.086462-0.00983 0.12416-0.015973 0.10868-0.018296 0.26057-0.032798 0.35742-0.098105 0.019719-0.038646 0.012204-0.038579 0.031607-0.09584 0.018457-0.049063 0.015015-0.052881 0.034892-0.10683 0 0 0.020971-3.641e-4 0.13628-6.797e-4l-0.052678-0.045882-0.00624-0.00929-4.531e-4 -0.015973 0.00272-0.013821s0.10563-0.28252 0.14444-0.34972c0.2284 1.577e-4 0.53242 1.134e-4 0.7411 1.134e-4 0.058374 0.11516 0.1013 0.18555 0.14705 0.31222 0.00394 0.016878 0.00689 0.020762 0.00737 0.043162 1.551e-4 0.013566 0.00195 0.013583-0.0034 0.032514-0.00883 0.022558-0.042679 0.039014-0.066501 0.046901h0.47003l-0.039991-0.020506-0.010422-0.00714-0.02515-0.030248-0.00544-0.018353-0.00114-1.236 0.04169 0.044522c0.33644 0.41156 0.72782 0.88296 1.0785 1.2902l-0.00158-1.4112c0.00947-0.040222 0.018678-0.066942 0.095505-0.090286h-0.27653c0.015305 0.00947 0.060647 0.019064 0.081796 0.075225l0.00182 0.014048 0.00135 1.1355-0.91534-1.1299-0.013142-0.020958 0.00249-0.026509 0.014048-0.027189 0.021184-0.020278h-0.27438l0.037384 0.029455 0.021524 0.032061 0.00307 0.025829-0.00125 1.3095c-6.347e-4 0.01262-0.00278 0.025262-0.00578 0.033306-0.017354 0.034389-0.055715 0.015658-0.076697-0.030248-0.19656-0.42468-0.43881-0.95384-0.65004-1.4231l-0.66739 1.4112-0.019031 0.031607c-0.025868 0.028396-0.039903 0.044085-0.086436 0.059702h0.064685c0.02808 0 0.052225-2.265e-4 0.052225-2.265e-4 -0.08439 0.14813-0.2969 0.24191-0.65596 0.24617-0.35886 0.00205-0.70021-0.21069-0.88968-0.52792-0.20587-0.37685-0.19456-0.93343 0.11148-1.274 0.29771-0.29783 0.80845-0.32414 1.1874-0.18216 0.058681 0.023981 0.10272 0.052193 0.13979 0.096521 0.00994 0.01546 0.01628 0.02785 0.026849 0.045201 0.023662 0.076668 0.020599 0.09851 0.037951 0.1236 0.012304-0.10505 0.018483-0.14118 0.034099-0.2464l1.137e-4 -1.132e-4c-0.1172-0.073351-0.32168-0.14639-0.5321-0.16359 0.039119-0.076187 0.051611-0.10434 0.084736-0.18432h0.71483c0.045437 0.10901 0.13313 0.31739 0.15396 0.38427 0.00332 0.013724 0.00175 0.024053-0.00283 0.034779-0.00568 0.010411-0.00473 0.00813-0.016087 0.020278-0.013725 0.015301-0.042858 0.026964-0.066048 0.035798 0.29897-1.577e-4 0.55139-1.577e-4 0.70932 0 0 0-0.053179-0.00809-0.10808-0.071825 4.733e-4 6.305e-4 -0.00613-0.00568-0.012914-0.021298-0.011356-0.023031-0.014371-0.046988-0.015634-0.051093l0.00135-1.2741c0.17305-0.045901 0.38347-0.048712 0.53664 0.068654-0.00593-0.028082-0.00605-0.11203-0.043276-0.1296l-1.1263 6.794e-4c-0.034389 0.04543-0.046847 0.085995-0.057889 0.12937 0.14592-0.10537 0.41268-0.10952 0.57878-0.0682-0.00206 0.1472-0.00109 1.1953-4.531e-4 1.2351-6.312e-4 0.032336-0.00202 0.052649-0.010536 0.076471-0.012621 0.027606-0.015205 0.03705-0.0324 0.0503l-0.040217 0.024697-0.031947 0.00465-0.029794-0.00135c-0.043536-0.00663-0.074827-0.052052-0.090286-0.081236-0.21154-0.42567-0.42037-0.95298-0.62307-1.3989zm1.4641 0.028435h0.00657c-0.00253-2.835e-4 -0.00493-0.00103-0.00759-7.93e-4 3.96e-4 1.684e-4 6.316e-4 6.099e-4 0.00102 7.93e-4zm0.00657 0c0.01809 0.00202 0.033124 0.016183 0.045881 0.033194 0.00489 0.00615 0.00875 0.013054 0.015068 0.022205 0.00378 0.0082 0.00833 0.014401 0.011329 0.033646v1.3075l-0.031381 0.05132-0.04169 0.031947 0.06661-7.93e-4 0.06038-7.93e-4 0.073524 0.00102 0.055624 7.93e-4c-0.029815-0.020352-0.050758-0.052942-0.068427-0.084964l-9.042e-4 -1.3063 0.00941-0.027416 0.015068-0.024017 0.048826-0.037498-0.25932 1.133e-4zm3.6748-0.026396s-0.40732 0.91827-0.63386 1.3768c-9.47e-4 -0.020666-6.1e-4 -1.2189-4.53e-4 -1.2274 0.0016-0.00994 0.0028-0.025302 0.0032-0.0324 0.01624-0.063733 0.04402-0.071267 0.07353-0.090518h-0.22512l0.02255 0.022998 0.01982 0.023677 0.0099 0.012689 0.0097 0.030587 0.0044 0.033532 2.27e-4 1.0276-0.94609-1.0871-0.00747-0.019712 0.00747-0.044748h-0.22499l0.043276 0.028209 0.014954 0.019939 0.016881 0.035005c-0.00127 0.27839 0.00364 1.2032-0.00125 1.2891-9.472e-4 0.015617-0.00242 0.032651-0.010309 0.045428l-0.050639 0.060833h0.21207l-0.041463-0.036818-0.022091-0.036479s-0.00916-1.207-0.00238-1.2249l1.063 1.2262-0.01914 0.025716-0.02527 0.025603-0.03036 0.022204c0.09449-0.00268 0.19569 0 0.27472 0l-0.07613-0.056644-0.01031-0.03104 0.01517-0.023904c0 1e-7 0.13379-0.26777 0.16313-0.33182 0.21832-0.00189 0.50148-0.00189 0.69093 0 0 0 0.14712 0.32372 0.15135 0.34643 7.83e-4 0.023347-0.0053 0.026742-0.01099 0.036365-0.02807 0.046378-0.07432 0.060886-0.07546 0.061512 0.32702-7.885e-4 0.7907-7.184e-4 0.98424 0.033987 0.07446 0.00127 0.08808-0.094557 0.1108-0.16665-0.04906 0.077927-0.15722 0.066088-0.33737 0.052679-0.12084-0.00536-0.11442-0.00614-0.20324-0.00645l-0.0213-0.00214-0.01473-0.00906-0.0053-0.00975-0.0027-0.022657v-1.2714l7.93e-4 -0.020052 0.0053-0.012348 8e-3 -0.010536 0.046-0.035686h-0.23099l0.04055 0.034439c0.01012 0.00899 0.0116 0.017879 0.01224 0.030814 3.14e-4 0.00188 3.4e-4 0.00364 3.4e-4 0.014614 0.0019 0.00642 0.0022 1.2712 4.53e-4 1.2933l-7.93e-4 0.016087-4e-3 0.01824-0.0069 0.010196c-0.01231 0.018299-0.03819 0.031621-0.05461 0.029567-0.04385-0.00394-0.07561-0.048778-0.10196-0.094368-0.20175-0.45098-0.60757-1.3797-0.60757-1.3797zm-2.6349 3.392e-4c-0.24018 0.00204-0.48402 0.10419-0.62411 0.31857-0.17353 0.24054-0.16423 0.55245-0.061059 0.78576 0.094497 0.20381 0.35769 0.3855 0.62521 0.40727 0 0 0.42782 0.072469 0.6668-0.27789 0.14166-0.21564 0.17381-0.34313 0.14998-0.56587-0.05158-0.48114-0.51355-0.63467-0.52191-0.63699-0.075282-0.021138-0.1549-0.031495-0.23495-0.030815zm-0.040557 0.04792c0.01605-3.23e-4 0.034023-9e-7 0.055397 9.042e-4 0.68983 0.085131 0.86996 1.1715 0.20505 1.3979-0.71367 0.16519-1.1989-0.8545-0.53053-1.3244 0.058211-0.030288 0.077029-0.036468 0.13855-0.055397 0.052645-0.011595 0.083379-0.018063 0.13153-0.019031zm-2.482 0.16381c0.11389 0.26057 0.21289 0.50626 0.30486 0.73786-0.20082-9.473e-4 -0.44893 0.00158-0.64882 0l0.34394-0.73786zm5.1434 0.02515 0.31279 0.7505c-0.22432-0.0011-0.4294 0.00773-0.64633 0l0.33352-0.7505zm-1.5871 1.3402c-0.75404 0.10897-0.75641 0.79093-0.74557 0.88822 0.014043 0.1254 0.060375 0.26026 0.16891 0.40964 0.23268 0.27211 0.60648 0.32608 1.0352 0.2106 0.05269-0.097339 0.08684-0.20977 0.09256-0.24526-0.11784 0.23189-0.34262 0.28996-0.59169 0.25036-0.82567-0.20511-0.70265-1.3888 0.11226-1.4728 0.18173-0.00283 0.29601 0.042543 0.39129 0.14603 0.02619 0.032501 0.03878 0.093455 0.04463 0.13368l0.03467-0.16109c-0.11184-0.10364-0.33865-0.16724-0.5423-0.15951zm1.7313 0.029115c-0.09174 0.00116-0.18104 0.00877-0.25433 0.011555l0.0614 0.03376 0.02006 0.016993 0.0016 0.018692-3.39e-4 1.3494-0.0153 0.019258-0.05098 0.042709h0.26124l-0.04577-0.035119-0.02866-0.028435-0.0038-0.00975c2.12e-4 -0.2229 6.6e-4 -0.41441 0.0011-0.62423h0.23099c0.22935 0.2453 0.40207 0.69586 0.769 0.71622-0.28562-0.16629-0.46236-0.50205-0.6288-0.75537 0.20666-0.14118 0.21458-0.24923 0.22862-0.34167 7.9e-4 -0.051579-0.0065-0.12077-0.02096-0.16053-0.02067-0.057427-0.05935-0.10574-0.10841-0.1526-0.10392-0.086712-0.26368-0.10277-0.41655-0.10083zm-1.1041 0.013821 0.04384 0.029681 0.01813 0.01824-0.0025 1.3596-0.0029 0.017333-0.01042 0.012801-0.05608 0.039765h0.56304c0.03123-3.156e-4 0.1955 2.43e-5 0.20324 3.397e-4l0.02696-0.12326c-0.12762 0.14387-0.41932 0.077509-0.60486 0.0682 1.57e-4 -0.2169 7.52e-4 -0.45944 0.0012-0.6795 0.03692 0.00174 0.31644-9.645e-4 0.34609 4.531e-4 0.0172 0.00236 0.0437 0.00473 0.05947 0.011669 0.01641 0.00693 0.02309 0.020993 0.03602 0.031721v-0.14806c-0.01278 0.012936-0.01783 0.019694-0.03092 0.029002-0.03896 0.022873-0.08063 0.017652-0.1748 0.018126-0.08391 9.473e-4 -0.16813 9.387e-4 -0.23564-7.93e-4 4.74e-4 -0.057578 0.0021-0.53631 0-0.65085 0.02382-0.00411 0.05232-0.00393 0.07046-0.00487 0.01515 0.00158 0.29913-0.026629 0.39662 0.081112-0.0088-0.035493-0.04577-0.1108-0.04577-0.1108h-0.6012zm1.2042 0.038404c0.04009 0.00284 0.07082 0.010983 0.09788 0.01824 0.04465 0.012937 0.0822 0.04713 0.11816 0.072845 0.02855 0.026815 0.05022 0.055697 0.06616 0.085984 0.04022 0.077614 0.04653 0.18012 0.02334 0.26577-0.01168 0.043067-0.03533 0.082694-0.0571 0.12371-0.09796 0.13613-0.24438 0.12849-0.40228 0.12801v-0.68142c0.06436-0.013565 0.11375-0.015981 0.15384-0.013141zm-4.6688 0.19111c0.10222 0.24533 0.22286 0.48966 0.32366 0.73594h-0.67248c0.11184-0.25338 0.23933-0.48904 0.34881-0.73594zm-3.3092 0.67893c0.050165 0.050318 0.089614 0.077138 0.094032 0.13346 0.00253 0.050431 4.533e-4 2.0015 4.533e-4 2.0015l-0.0034 0.014727-0.024131 0.038065-0.058228 0.061176 0.36875-2.265e-4c-0.039121-0.032654-0.053329-0.048382-0.064685-0.062422-0.012304-0.015617-0.019864-0.025274-0.022544-0.035685 0 0-0.00518-0.011347-0.00691-0.018919l-0.00136-2.0015c0.0063-0.06777 0.051459-0.086402 0.095272-0.13017h-0.37724zm5.936 0.74371-0.2455 3.398e-4 0.043843 0.054265 0.011895 0.018012 0.00249 0.019031c0.00347 0.14134-0.00163 0.2824 1.138e-4 0.39866-0.00458 0.52391-0.011413 0.8288 0.31686 0.97873 0.2341 0.093395 0.49752 0.088865 0.72991-0.12915-0.0038 0.048271-0.0064 0.063026-0.0136 0.091423-0.0021 0.00521-0.0072 0.017769-0.0097 0.022657-0.0098 0.017984-0.01743 0.024458-0.03478 0.051432l0.22794 1.132e-4c-0.01957-0.024134-0.03193-0.03832-0.04123-0.068762-0.0095-0.021296-0.0095-0.030496-0.01156-0.051318-0.0022-0.016151-2.38e-4 -0.99767 6.8e-4 -1.2987l0.0065-0.016541 0.01156-0.016653 0.05426-0.053245h-0.25384l0.03172 0.039197 0.01654 0.020392 0.01439 0.027189 9.47e-4 1.2105c-0.13083 0.098277-0.27565 0.19815-0.54746 0.16597-0.28899-0.088813-0.36348-0.29508-0.37657-0.67823-0.00474-0.13409-7.053e-4 -0.62492-0.00181-0.69389l0.00521-0.020618 0.011215-0.014614 0.049959-0.056078zm-2.0777 6.798e-4 -1.0917 1.132e-4c-0.021296 1.577e-4 -0.037687 2.265e-4 -0.047467 2.265e-4 -0.015459 0.027448-0.025569 0.039906-0.036138 0.070352-0.00599 0.016405-0.00743 0.024265-0.014048 0.045089 0.11989-0.10364 0.39441-0.0782 0.55579-0.055171l0.00125 1.3695-0.00306 0.011669-0.00532 0.011669-0.00793 0.00883-0.059134 0.042257h0.26566c-0.014671-0.010253-0.023948-0.017276-0.04067-0.031947-0.020192-0.017352-0.028698-0.030018-0.030587-0.046107 0.00268-0.35908 0.00121-1.3357 0.00135-1.3641 0 0 0.4247-0.094299 0.55941 0.05619-0.00505-0.043857-0.024007-0.084696-0.047354-0.11861zm1.7232 0-1.0915 1.132e-4c-0.021454 1.577e-4 -0.037913 2.265e-4 -0.047695 2.265e-4 -0.015459 0.027448-0.025728 0.039906-0.036138 0.070352-0.00616 0.016405-0.00738 0.024265-0.014161 0.045089 0.12006-0.10364 0.39452-0.078201 0.5559-0.055171l0.00135 1.3695-0.00307 0.011669-0.00555 0.011669-0.0077 0.00883-0.059251 0.042257h0.26554c-0.014513-0.010254-0.023948-0.017276-0.04067-0.031947-0.020034-0.017352-0.028626-0.030018-0.030361-0.046107 0.00253-0.35908 9.301e-4 -1.3357 0.00125-1.3641 0 0 0.39651-0.082596 0.56451 0.069783-0.00505-0.044012-0.029105-0.098295-0.052452-0.13221zm2.7378 0-1.0915 1.132e-4c-0.02129 1.577e-4 -0.03784 2.265e-4 -0.04747 2.265e-4 -0.01562 0.027448-0.02572 0.039906-0.03613 0.070352-0.0061 0.016405-0.0075 0.024265-0.01427 0.045089 0.12006-0.10364 0.39432-0.0782 0.55601-0.055171l0.0011 1.3695-0.0028 0.011669-0.0054 0.011669-0.0079 0.00883-0.05914 0.042257h0.26566c-0.01468-0.010253-0.02426-0.017276-0.04067-0.031947-0.02004-0.017352-0.02869-0.030018-0.03059-0.046107 0.0028-0.35908 0.0011-1.3357 0.0012-1.3641 0 0 0.39651-0.082596 0.56451 0.069783-0.0049-0.044012-0.02895-0.098295-0.05246-0.13221h-1.13e-4zm-4.2946 4.531e-4 0.047695 0.030927 0.014273 0.011102 0.00906 0.010876 0.00328 0.012575 9.042e-4 1.3754-0.00182 0.00714-0.00668 0.00883-0.011555 0.00975-0.052339 0.037045c0.0844 3.154e-4 0.16817 3.642e-4 0.25603 6.796e-4l-0.054265-0.04101-0.00635-0.00804-0.00204-0.00566-0.00261-0.00804-5.665e-4 -1.3758c-1.577e-4 -0.015459 0.010193-0.02242 0.018239-0.028888 0.00332-0.00189 0.011168-0.00792 0.014954-0.00997 0.018457-0.013251 0.024632-0.016393 0.042142-0.026963h-0.26835zm4.4224 0.00147 0.04373 0.029681 0.01813 0.018465-0.0024 1.3847-0.0032 0.017219-0.0102 0.012914-0.05619 0.039538c0.2095 1.577e-4 0.38431 1.577e-4 0.56304 0 0.0314-3.156e-4 0.19562 1.82e-4 0.20335 3.397e-4l0.02697-0.12326c-0.12777 0.14387-0.41949 0.077509-0.60486 0.0682 1.57e-4 -0.2169 8.61e-4 -0.45948 0.0014-0.67939 0.03676 0.00174 0.31628-0.00102 0.34609 5.663e-4 0.01704 0.00205 0.04354 0.00477 0.05947 0.011555 0.01609 0.0071 0.02302 0.020993 0.03579 0.031721v-0.14817c-0.01294 0.012936-0.01799 0.019739-0.03092 0.028888-0.0388 0.023031-0.08051 0.017652-0.17469 0.018126-0.08408 0.0011-0.16844 0.00117-0.23564-5.664e-4 4.73e-4 -0.057577 0.0018-0.56146 0-0.67596 0.02382-0.00394 0.05232-0.00383 0.07046-0.0051 0.01515 0.00189 0.29911-0.026607 0.39628 0.081454-0.0086-0.035809-0.04554-0.11091-0.04554-0.11091h-0.60108z" fill="#aa0638"/><path d="m12.563 2.1714h0.04559v-0.10158h0.03596c0.02398 0 0.04102 0.00284 0.05048 0.00836 0.01641 0.00947 0.02429 0.029499 0.02429 0.059155v0.020507l9.48e-4 0.00836c1.57e-4 0.00127 4.73e-4 0.0022 6.3e-4 0.00301 3.17e-4 9.473e-4 4.75e-4 0.00174 6.31e-4 0.00253h0.04275l-0.0018-0.00315c-0.0013-0.0022-0.0019-0.00662-0.0024-0.013408-4.73e-4 -0.00679-6.31e-4 -0.013251-6.31e-4 -0.019246v-0.01893c0-0.012936-0.0047-0.026344-0.0142-0.040069-0.0093-0.013566-0.02413-0.022242-0.04449-0.02524 0.01625-0.00252 0.02872-0.00679 0.03754-0.012462 0.01672-0.010884 0.0254-0.027921 0.0254-0.050952 0-0.032496-0.01357-0.054266-0.04022-0.065308-0.01483-0.00631-0.03833-0.0093-0.07036-0.0093h-0.0903v0.25776m0.12999-0.1393c-0.0097 0.00394-0.02414 0.00583-0.04322 0.00583h-0.04102v-0.093386h0.03866c0.02523 0 0.04353 0.00315 0.0549 0.00963 0.01152 0.00631 0.0172 0.01893 0.0172 0.037702 0 0.019718-0.0086 0.033128-0.0265 0.040225zm0.13155-0.15507c-0.0459-0.045589-0.10143-0.068464-0.16658-0.068464-0.06467 0-0.11989 0.022873-0.16548 0.068464-0.04575 0.046063-0.06894 0.10143-0.06894 0.16611 0 0.065308 0.02287 0.12099 0.06831 0.1669 0.04575 0.046219 0.10111 0.069252 0.16627 0.069252s0.12068-0.023031 0.16659-0.069252c0.0459-0.046063 0.06909-0.10175 0.06909-0.1669-1.57e-4 -0.064834-0.02335-0.12036-0.06926-0.16611zm-0.02318 0.022715c0.03912 0.039595 0.05884 0.087392 0.05884 0.14324 0 0.056316-0.01972 0.10443-0.05884 0.14418-0.03928 0.039752-0.08724 0.059629-0.14324 0.059629s-0.1038-0.019877-0.14308-0.059629c-0.03912-0.039753-0.05868-0.087866-0.05868-0.14418 0-0.055843 0.01972-0.10364 0.059-0.14324 0.03944-0.039595 0.08707-0.05947 0.14277-0.05947 0.05584 1.578e-4 0.10349 0.020034 0.14323 0.05947z" fill="#706f5e"/></g></svg>
