<svg width="200" height="114" version="1.1" viewBox="0 0 200 114" xmlns="http://www.w3.org/2000/svg" xmlns:cc="http://creativecommons.org/ns#" xmlns:dc="http://purl.org/dc/elements/1.1/" xmlns:rdf="http://www.w3.org/1999/02/22-rdf-syntax-ns#">
 <metadata>
  <rdf:RDF>
   <cc:Work rdf:about="">
    <dc:format>image/svg+xml</dc:format>
    <dc:type rdf:resource="http://purl.org/dc/dcmitype/StillImage"/>
    <dc:title/>
   </cc:Work>
  </rdf:RDF>
 </metadata>
 <defs>
  <radialGradient id="d" cx="0" cy="0" r="1" gradientTransform="matrix(15.702 0 0 15.702 25.7 50.523)" gradientUnits="userSpaceOnUse">
   <stop stop-color="#fbc707" offset="0"/>
   <stop stop-color="#f89c0e" offset="1"/>
  </radialGradient>
  <linearGradient id="e" x2="1" gradientTransform="matrix(18.421 5.9678 -5.9678 18.421 20.743 35.714)" gradientUnits="userSpaceOnUse">
   <stop stop-color="#1e5cb2" offset="0"/>
   <stop stop-color="#0a2447" offset="1"/>
  </linearGradient>
  <linearGradient id="f" x2="1" gradientTransform="matrix(22.623 7.3289 -7.3293 22.623 19.375 64.17)" gradientUnits="userSpaceOnUse">
   <stop stop-color="#1e5cb2" offset="0"/>
   <stop stop-color="#0a2447" offset="1"/>
  </linearGradient>
  <linearGradient id="g" x2="1" gradientTransform="matrix(18.82 6.115 -6.115 18.82 9.2682 51.392)" gradientUnits="userSpaceOnUse">
   <stop stop-color="#1e5cb2" offset="0"/>
   <stop stop-color="#0a2447" offset="1"/>
  </linearGradient>
  <linearGradient id="c" x1="-108.9" x2="-108.9" y1="-10.7" y2="24.6" gradientTransform="matrix(1.2777 0 0 -1.2777 190 66.227)" gradientUnits="userSpaceOnUse">
   <stop stop-color="#0a2448" offset=".1"/>
   <stop stop-color="#1e5cb3" offset="1"/>
  </linearGradient>
 </defs>
 <g stroke-width="1.2777">
  <path d="m14.187 76.437h-2.9823v-1.1615h3.3836v-1.0593h-4.5886v5.6375h4.5886v-1.0605h-3.3836v-1.2969h2.9823zm5.8063 3.5624c1.8489 0 2.6655-0.77691 2.6655-2.0177v-3.7656h-1.2548v3.7656c0 0.68744-0.55965 0.94683-1.4106 0.94683-0.85229 0-1.4119-0.25939-1.4119-0.94683v-3.7656h-1.2535v3.7656c0 1.2408 0.81522 2.0177 2.6655 2.0177m9.31-0.14567h1.4605l-1.4119-2.2553c0.65804-0.30539 0.97368-0.91361 0.97368-1.6011 0-1.0146-0.52263-1.7813-2.093-1.7813h-2.6527v5.6375h1.205v-2.0636h1.3621zm-0.24278-3.8449c0 0.40506-0.13417 0.7322-0.87658 0.7322h-1.3991v-1.4656h1.3991c0.74241 0 0.87658 0.32712 0.87658 0.73344m9.6269 1.0261c0-1.7263-0.71811-2.9657-2.8354-2.9657-2.1058 0-2.8367 1.2395-2.8367 2.9657 0 1.725 0.73091 2.9645 2.8367 2.9645 2.1173 0 2.8354-1.2395 2.8354-2.9645m-1.2165 0c0 1.0707-0.29262 1.8937-1.6189 1.8937-1.3392 0-1.6189-0.82291-1.6189-1.8937 0-1.072 0.27984-1.895 1.6189-1.895 1.3264 0 1.6189 0.82291 1.6189 1.895m6.5359 0.96982c1.5577 0 2.1173-0.8919 2.1173-1.9065 0-1.0146-0.54815-1.8822-2.1173-1.8822h-2.5198v5.6375h1.205v-1.8489zm0.85229-1.895c0 0.41656-0.14695 0.84591-0.87658 0.84591h-1.2905v-1.6803h1.2905c0.72962 0 0.87658 0.41784 0.87658 0.83441m7.948 0.32711h-2.9823v-1.1615h3.3836v-1.0593h-4.5886v5.6375h4.5886v-1.0605h-3.3836v-1.2969h2.9823zm8.6402 3.4168-2.5671-5.7847h-0.85229l-2.5684 5.7847h1.3149l0.51113-1.2637h2.3244l0.52391 1.2637zm-2.9938-4.0825 0.7552 1.8604h-1.5218zm10.637 4.0825v-5.6375h-1.205l0.01279 3.5624-3.1766-3.5624h-0.84079v5.6375h1.205l-0.0115-3.5637 3.1766 3.5637zm6.1462-2.8188c0 1.6228 0.82801 2.9645 2.8968 2.9645 0.57245 0 1.2777-0.02171 1.9116-0.26961v-1.0605c-0.59673 0.18017-1.1691 0.25939-1.9231 0.25939-1.2535 0-1.6433-0.95833-1.6433-1.8937 0-0.93661 0.38972-1.895 1.6433-1.895 0.75391 0 1.3264 0.07922 1.9231 0.25939v-1.0593c-0.63381-0.24789-1.3392-0.27089-1.9116-0.27089-2.0687 0-2.8968 1.3417-2.8968 2.9657m12.816 2.8188v-5.6375h-1.205v2.2208h-2.7996v-2.2208h-1.205v5.6375h1.205v-2.3575h2.7996v2.3575zm7.1697-3.4168h-2.9823v-1.1615h3.3836v-1.0593h-4.5886v5.6375h4.5886v-1.0605h-3.3836v-1.2969h2.9823zm6.8399 2.7511 1.5449-2.9083-0.0358 3.574h1.1806v-5.6375h-1.3264l-1.8387 3.5062-1.8375-3.5062h-1.3264v5.6375h1.1806l-0.03707-3.574 1.5462 2.9083zm7.1324-4.9719h-1.1934v5.6375h1.1934zm3.0667 2.8188c0 1.6228 0.828 2.9645 2.8968 2.9645 0.57245 0 1.2777-0.02171 1.9103-0.26961v-1.0605c-0.59545 0.18017-1.1679 0.25939-1.9231 0.25939-1.2535 0-1.6432-0.95833-1.6432-1.8937 0-0.93661 0.38972-1.895 1.6432-1.895 0.75519 0 1.3277 0.07922 1.9231 0.25939v-1.0593c-0.63252-0.24789-1.3379-0.27089-1.9103-0.27089-2.0687 0-2.8968 1.3417-2.8968 2.9657m13.048 2.8188-2.5684-5.7847h-0.85229l-2.5684 5.7847h1.3149l0.51113-1.2637h2.3256l0.52262 1.2637zm-2.9938-4.0825 0.75391 1.8604h-1.5205zm6.6329-1.5551h-1.205v5.6375h4.5886v-1.0605h-3.3836zm6.8772 1.6343c0-0.47406 0.35267-0.71044 1.3621-0.71044 0.76794 0 1.4363 0.07922 2.0458 0.25939v-1.0376c-0.63252-0.24789-1.4363-0.29262-2.033-0.29262-1.8617 0-2.5556 0.7667-2.5556 1.8375 0 1.0261 0.60823 1.4094 2.3971 1.5564 0.96219 0.07923 1.2663 0.24789 1.2663 0.67594 0 0.49705-0.37822 0.7897-1.4605 0.7897-0.79094 0-1.6918-0.14695-2.0942-0.28111v1.0593c0.36546 0.14695 1.4733 0.29262 2.0815 0.29262 1.9959 0 2.6783-0.86762 2.6783-1.872 0-1.0925-0.60823-1.5436-2.3614-1.6905-0.9494-0.07922-1.3264-0.18017-1.3264-0.58652m15.213 4.0033-2.5684-5.7847h-0.85101l-2.5684 5.7847h1.3149l0.51112-1.2637h2.3244l0.52392 1.2637zm-2.9938-4.0825 0.75519 1.8604h-1.5218zm7.8265 3.1574c-1.2535 0-1.6432-0.95832-1.6432-1.8937 0-0.93661 0.38972-1.895 1.6432-1.895 0.88809 0 1.679 0.14695 2.1544 0.33862v-1.0605c-0.43828-0.23639-1.4605-0.34884-2.1544-0.34884-2.07 0-2.8852 1.3417-2.8852 2.9657 0 1.6228 0.81522 2.9645 2.8852 2.9645 0.74241 0 1.6548-0.10095 2.263-0.40506v-2.8648h-2.4342v1.0605h1.242v1.0593c-0.31689 0.05622-0.66954 0.07922-1.0708 0.07922m9.4328-2.4917h-2.9823v-1.1615h3.3836v-1.0592h-4.5886v5.6375h4.5886v-1.0605h-3.3836v-1.2969h2.9823zm8.4102 3.4168v-5.6375h-1.205l0.0115 3.5624-3.1766-3.5624h-0.83951v5.6375h1.205l-0.0128-3.5637 3.1766 3.5637zm2.7997-2.8188c0 1.6228 0.82672 2.9645 2.8955 2.9645 0.57244 0 1.279-0.02171 1.9116-0.26962v-1.0605c-0.59673 0.18017-1.1691 0.25939-1.9231 0.25939-1.2535 0-1.6432-0.95833-1.6432-1.8937 0-0.93661 0.38972-1.895 1.6432-1.895 0.7539 0 1.3264 0.07922 1.9231 0.25939v-1.0593c-0.63252-0.24789-1.3392-0.27089-1.9116-0.27089-2.0687 0-2.8955 1.3417-2.8955 2.9657m11.989-2.8188-1.7161 2.6271-1.7161-2.6271h-1.4975l2.6169 3.6417v1.9959h1.205v-2.0074l2.6041-3.6302z" fill="#0a2448"/>
  <path d="m190 66.227-14.384-32.225h-4.7714l-14.384 32.225h7.3624l2.8622-7.0354h13.021l2.9313 7.0354zm-12.543-12.375h-8.5216l4.2946-10.365zm-34.618 12.375h6.7479v-31.409h-6.7479v12.375h-15.679v-12.375h-6.7493v31.409h6.7493v-13.13h15.679zm-42.667 0.81651c3.2047 0 7.1582-0.12522 10.702-1.5078v-5.9047c-3.3402 1.0056-6.5437 1.4452-10.771 1.4452-7.0216 0-9.2028-5.3399-9.2028-10.553 0-5.2148 2.1811-10.554 9.2028-10.554 4.2269 0 7.4305 0.44084 10.771 1.4452v-5.9047c-3.5446-1.3825-7.4981-1.5078-10.702-1.5078-11.588 0-16.224 7.4751-16.224 16.522 0 9.0455 4.6357 16.521 16.224 16.521m-49.352-0.81651h25.699v-5.9047h-18.951v-7.2245h16.702v-5.9047h-16.702v-6.4705h18.951v-5.9047h-25.699z" fill="url(#c)"/>
  <path d="m41.391 34.819c-0.28495 0.47663-6.8399 11.412-8.6647 11.957-1.8655 0.55584-14.072-4.6398-14.072-4.6398 2.5646-3.4743 6.1448-6.0082 10.164-7.3165h-18.814v31.402h8.5c-4.9963-6.9245-5.2797-16.52-0.053667-23.832 0 0 8.776 9.9402 8.7373 11.88-0.0396 1.941-8.6826 11.95-8.684 11.952h0.67083c2.3665-0.98008 11.875-4.8404 13.462-4.31 0.70791 0.23639 2.1646 2.1122 3.6801 4.31h5.0897v-31.402z" fill="url(#d)"/>
  <path d="m28.805 34.819c-4.0135 1.3098-7.5874 3.8449-10.149 7.3165 0 0 12.206 5.1955 14.072 4.6384 1.817-0.54052 8.3261-11.39 8.6633-11.955z" fill="url(#e)"/>
  <path d="m19.171 66.227h17.143c-1.5154-2.199-2.9734-4.0736-3.6814-4.31-0.10095-0.03322-0.23512-0.04983-0.39739-0.04983-2.3729-0.0012-10.849 3.4436-13.065 4.3599" fill="url(#f)"/>
  <path d="m18.506 66.227s8.6453-10.01 8.684-11.952c0.03833-1.941-8.7364-11.88-8.7364-11.88-5.2276 7.3114-4.9439 16.908 0.0524 23.832" fill="url(#g)"/>
 </g>
</svg>
