<svg id="Layer_1" data-name="Layer 1" xmlns="http://www.w3.org/2000/svg" viewBox="0 0 627.32 203.72"><defs><style>.cls-1{fill:#898989;}.cls-2{fill:#4c4c4c;}.cls-3{fill:#333;}</style></defs><path class="cls-1" d="M76.63,13.66s26.1,3,21.35,28.69C98,42.35,73,41.06,76.63,13.66Z"/><path class="cls-1" d="M127.14,13.91s-26.11,3-21.36,28.69C105.78,42.6,130.81,41.31,127.14,13.91Z"/><path class="cls-1" d="M76.63,42.6s26.1,3,21.35,28.7C98,71.3,73,70,76.63,42.6Z"/><path class="cls-1" d="M127.14,42.86s-26.11,3-21.36,28.69C105.78,71.55,130.81,70.25,127.14,42.86Z"/><path class="cls-1" d="M76.63,190.06s26.1-3,21.35-28.7C98,161.36,73,162.66,76.63,190.06Z"/><path class="cls-1" d="M127.14,189.8s-26.11-3-21.36-28.69C105.78,161.11,130.81,162.41,127.14,189.8Z"/><path class="cls-1" d="M76.63,161.11s26.1-3,21.35-28.69C98,132.42,73,133.71,76.63,161.11Z"/><path class="cls-1" d="M127.14,160.86s-26.11-3-21.36-28.69C105.78,132.17,130.81,133.46,127.14,160.86Z"/><path class="cls-1" d="M190.05,127.11s-3-26.1-28.69-21.35C161.36,105.76,162.65,130.78,190.05,127.11Z"/><path class="cls-1" d="M189.8,76.6s-3,26.11-28.69,21.36C161.11,98,162.4,72.94,189.8,76.6Z"/><path class="cls-1" d="M161.11,127.11s-3-26.1-28.69-21.35C132.42,105.76,133.71,130.78,161.11,127.11Z"/><path class="cls-1" d="M160.86,76.6s-3,26.11-28.7,21.36C132.16,98,133.46,72.94,160.86,76.6Z"/><path class="cls-1" d="M13.66,127.11s3-26.1,28.69-21.35C42.35,105.76,41.06,130.78,13.66,127.11Z"/><path class="cls-1" d="M13.91,76.6s3,26.11,28.7,21.36C42.61,98,41.31,72.94,13.91,76.6Z"/><path class="cls-1" d="M42.61,127.11s3-26.1,28.69-21.35C71.3,105.76,70,130.78,42.61,127.11Z"/><path class="cls-1" d="M42.86,76.6s3,26.11,28.69,21.36C71.55,98,70.26,72.94,42.86,76.6Z"/><path class="cls-2" d="M132.16,44.87V67.31L121.82,77.68a11,11,0,0,0-5.47-1.44,11.15,11.15,0,1,0,11.16,11.15,11,11,0,0,0-1.45-5.48L136.4,71.55h22.44V44.87ZM116.35,92.54a5.16,5.16,0,1,1,5.16-5.15A5.16,5.16,0,0,1,116.35,92.54Zm36.5-27H138.16V50.87h14.69Z"/><path class="cls-2" d="M126.06,121.8a11,11,0,0,0,1.45-5.47,11.18,11.18,0,1,0-5.69,9.71l10.34,10.36v22.44h26.68V132.17H136.4Zm-9.71-.31a5.16,5.16,0,1,1,5.16-5.16A5.16,5.16,0,0,1,116.35,121.49Zm21.81,16.67h14.69v14.69H138.16Z"/><path class="cls-2" d="M87.41,76.24a11,11,0,0,0-5.47,1.44L71.6,67.31V44.87H44.93V71.55H67.36L77.7,81.91a11.15,11.15,0,1,0,9.71-5.67ZM65.61,65.56H50.92V50.87H65.61Zm21.8,27a5.16,5.16,0,1,1,5.16-5.15A5.16,5.16,0,0,1,87.41,92.54Z"/><path class="cls-2" d="M87.41,105.18A11.14,11.14,0,0,0,77.7,121.8L67.36,132.17H44.93v26.67H71.6V136.4L81.94,126a11.15,11.15,0,1,0,5.47-20.86Zm-21.8,47.67H50.92V138.16H65.61Zm21.8-31.36a5.16,5.16,0,1,1,5.16-5.16A5.17,5.17,0,0,1,87.41,121.49Z"/><path class="cls-3" d="M216.73,76.45h23.8c16.68,0,28.11,9.71,28.11,25.17s-11.43,25.17-28.11,25.17h-23.8Zm23.22,39c8.56,0,14.31-5.11,14.31-13.81S248.51,87.81,240,87.81h-9v27.62Z"/><path class="cls-3" d="M312,105.14v21.65H299.28v-5c-1.94,3.74-5.83,5.68-11.51,5.68-9.35,0-14.52-5.24-14.52-12,0-7.19,5.25-11.65,17.33-11.65h7.76c-.21-4-2.87-6.19-8.27-6.19A18.19,18.19,0,0,0,279.5,101l-4.6-9.27c4.46-3,11.07-4.53,17.19-4.53C304.74,87.17,312,92.78,312,105.14Zm-13.66,9.14V110.9h-5.89c-4.39,0-6,1.58-6,3.95s1.87,4,5.1,4A6.74,6.74,0,0,0,298.34,114.28Z"/><path class="cls-3" d="M319.12,76.24c0-4.1,3.31-7.27,8.35-7.27s8.34,3,8.34,7c0,4.32-3.31,7.48-8.34,7.48S319.12,80.34,319.12,76.24Zm1.51,11.57H334.3v39H320.63Z"/><path class="cls-3" d="M343.14,73.43H356.8v53.36H343.14Z"/><path class="cls-3" d="M406.71,87.81l-16.83,40.56c-4.1,10.07-9.85,13-17.54,13-4.1,0-8.7-1.36-11.29-3.52l4.74-9.56a9.28,9.28,0,0,0,6,2.3,5.27,5.27,0,0,0,5.32-3.31L360.47,87.81h14l9.57,23.8,9.63-23.8Z"/><path class="cls-3" d="M446,87.45V98.53h22.22v11H446v17.26H431.8V76.45h39.48v11Z"/><path class="cls-3" d="M474,107.23c0-11.72,9.27-20.06,22-20.06s22,8.34,22,20.06-9.13,20.2-22,20.2S474,119,474,107.23Zm30.2,0c0-5.9-3.53-9.21-8.2-9.21s-8.2,3.31-8.2,9.21,3.6,9.35,8.2,9.35S504.22,113.2,504.22,107.23Z"/><path class="cls-3" d="M521.91,107.23c0-11.72,9.27-20.06,22-20.06s22,8.34,22,20.06-9.13,20.2-22,20.2S521.91,119,521.91,107.23Zm30.2,0c0-5.9-3.52-9.21-8.2-9.21s-8.2,3.31-8.2,9.21,3.6,9.35,8.2,9.35S552.11,113.2,552.11,107.23Z"/><path class="cls-3" d="M613.66,73.43v53.36h-13V122.9c-2.59,3.1-6.4,4.53-11.44,4.53-10.64,0-19.2-7.76-19.2-20.2s8.56-20.06,19.2-20.06c4.53,0,8.2,1.29,10.79,4V73.43Zm-13.44,33.8c0-5.9-3.53-9.21-8.13-9.21s-8.2,3.31-8.2,9.21,3.53,9.35,8.2,9.35S600.22,113.2,600.22,107.23Z"/></svg>