<svg id="Layer_1" data-name="Layer 1" xmlns="http://www.w3.org/2000/svg" viewBox="0 0 245 220.34"><defs><style>.cls-1{fill:#fff;}</style></defs><path class="cls-1" d="M132.51,37.65a8.46,8.46,0,1,0-12-12c-1.27,1.27-30.79,31.77-2.29,89.51,22.44,45.45-8,65.79-9.38,66.67a8.47,8.47,0,0,0,9,14.34c.45-.28,45-28.94,15.56-88.51C110.58,61.38,131.67,38.54,132.51,37.65Z"/><path class="cls-1" d="M222.35,63.94a8.47,8.47,0,0,0-16.89,1.21,43.23,43.23,0,0,1-9.39,30.14L179.41,78.63A18.79,18.79,0,0,0,172.89,53,18.48,18.48,0,0,0,170,51.62v0a6.3,6.3,0,0,1-2-7.67,6,6,0,0,1,2.18-2.54h0a10.27,10.27,0,0,0,2.73-3A10.47,10.47,0,1,0,157.17,41v0a6.18,6.18,0,0,1,2.13,7.66A6.39,6.39,0,0,1,157,51.38h0A18.79,18.79,0,1,0,172.78,85.3l16.64,16.64a42.73,42.73,0,0,1-28.52,9.48,8.46,8.46,0,1,0-.57,16.92c.67,0,1.35,0,2,0a60.1,60.1,0,0,0,60-64.43Z"/><path class="cls-1" d="M71.53,135l-16-15.94a42.71,42.71,0,0,1,28.52-9.48,8.46,8.46,0,1,0,.58-16.92,60.11,60.11,0,0,0-62,64.4A8.47,8.47,0,0,0,31.09,165c.2,0,.41,0,.61,0a8.45,8.45,0,0,0,7.84-9.05,43.21,43.21,0,0,1,9.39-30.13l15.94,15.94a18.8,18.8,0,0,0,10,27.26h0a6.42,6.42,0,0,1,2.31,2.76A6.18,6.18,0,0,1,75,179.37v0A10.47,10.47,0,1,0,90.79,182a10.68,10.68,0,0,0-2.73-3h0a6,6,0,0,1-2.19-2.54,6.29,6.29,0,0,1,2-7.66v0a19.53,19.53,0,0,0,2.88-1.39A18.79,18.79,0,0,0,71.53,135Z"/></svg>