<svg id="Layer_1" data-name="Layer 1" xmlns="http://www.w3.org/2000/svg" viewBox="0 0 995.99 220.34"><path d="M132.51,37.65a8.46,8.46,0,1,0-12-12c-1.27,1.27-30.79,31.77-2.29,89.51,22.44,45.45-8,65.79-9.38,66.67a8.47,8.47,0,0,0,9,14.34c.45-.28,45-28.94,15.56-88.51C110.58,61.38,131.67,38.54,132.51,37.65Z"/><path d="M213.3,56.1a8.46,8.46,0,0,0-7.84,9.05,43.23,43.23,0,0,1-9.39,30.14L179.41,78.63A18.79,18.79,0,0,0,172.89,53,18.48,18.48,0,0,0,170,51.62v0a6.3,6.3,0,0,1-2-7.67,6,6,0,0,1,2.18-2.54h0a10.27,10.27,0,0,0,2.73-3A10.47,10.47,0,1,0,157.17,41v0a6.18,6.18,0,0,1,2.13,7.66A6.39,6.39,0,0,1,157,51.38h0A18.79,18.79,0,1,0,172.78,85.3l16.64,16.64a42.73,42.73,0,0,1-28.52,9.48,8.46,8.46,0,1,0-.58,16.92q1,0,2,0a60.1,60.1,0,0,0,60-64.43A8.48,8.48,0,0,0,213.3,56.1Z"/><path d="M71.53,135l-16-15.94a42.71,42.71,0,0,1,28.52-9.48,8.46,8.46,0,1,0,.58-16.92,60.11,60.11,0,0,0-62,64.4A8.47,8.47,0,0,0,31.09,165c.2,0,.41,0,.61,0a8.45,8.45,0,0,0,7.84-9.05,43.21,43.21,0,0,1,9.39-30.13l15.94,15.94a18.8,18.8,0,0,0,10,27.26h0a6.42,6.42,0,0,1,2.31,2.76A6.18,6.18,0,0,1,75,179.37v0A10.47,10.47,0,1,0,90.79,182a10.68,10.68,0,0,0-2.73-3h0a6,6,0,0,1-2.19-2.54,6.29,6.29,0,0,1,2-7.66v0a19.53,19.53,0,0,0,2.88-1.39A18.79,18.79,0,0,0,71.53,135Z"/><path d="M340.19,69.85q-15-13.72-43.05-13.73H260.09V161h35.85q30,0,44.63-14.25T355.19,108Q355.19,83.57,340.19,69.85ZM323,132.17q-8.62,8.1-24.68,8.1H283.49V76.52h13.05q17.85,0,26.48,8.33t8.62,23.77Q331.64,124.07,323,132.17Z"/><path d="M431.4,86.27q-9.31-7.35-24-7.35a60.15,60.15,0,0,0-36.3,11.55l10,14.55a40.1,40.1,0,0,1,11-5.77,36.94,36.94,0,0,1,12.38-2.33q13.63,0,13.65,12.9v.45H401.4q-15.61,0-24.6,6.15t-9,18.53q0,12.38,8.7,19.8T398,162.17q12.83,0,21.53-10.95V161H440.7V109.52Q440.7,93.62,431.4,86.27Zm-13.35,44a12,12,0,0,1-4.58,9.83,16.4,16.4,0,0,1-10.57,3.67c-4,0-7.08-.77-9.23-2.32a7.73,7.73,0,0,1-3.22-6.68q0-8.4,13.5-8.4h14.1Z"/><path d="M472.49,47.42a13.08,13.08,0,0,0-13.2,13.2,13.2,13.2,0,1,0,22.58-9.37A12.76,12.76,0,0,0,472.49,47.42Z"/><rect x="461.24" y="80.27" width="22.5" height="80.7"/><rect x="505.04" y="49.67" width="22.5" height="111.3"/><path d="M582.44,130.52,562.79,80.27h-24Q570,159,570,162.47a10.88,10.88,0,0,1-2.25,6.53,6.56,6.56,0,0,1-5.4,3.07q-6,0-11.7-5.55l-10.2,16.65q10.5,9.6,22.35,9.6a27.71,27.71,0,0,0,15.53-4.57,26.78,26.78,0,0,0,10.27-12.83l37.5-95.1h-24Z"/><path d="M666.82,84.7a32.16,32.16,0,0,1,22.57-8.63q16.5,0,27.6,13.8l14.55-16.5q-17.4-19.65-43.2-19.65-23.1,0-39.07,15.6t-16,38.93q0,23.32,15.68,38.62t39.9,15.3q24.21,0,42.07-20.1l-15-15.45q-11,13.65-28.2,13.65a29.21,29.21,0,0,1-21.45-8.85q-8.85-8.85-8.85-23.47T666.82,84.7Z"/><path d="M805.49,86.27q-9.3-7.35-24-7.35a60.19,60.19,0,0,0-36.3,11.55l10,14.55a40.17,40.17,0,0,1,11-5.77,36.88,36.88,0,0,1,12.37-2.33q13.65,0,13.65,12.9v.45h-16.8q-15.6,0-24.6,6.15t-9,18.53q0,12.38,8.7,19.8t21.53,7.42q12.82,0,21.52-10.95V161h21.15V109.52Q814.79,93.62,805.49,86.27Zm-13.35,44a12,12,0,0,1-4.57,9.83A16.43,16.43,0,0,1,777,143.72q-6,0-9.22-2.32a7.72,7.72,0,0,1-3.23-6.68q0-8.4,13.5-8.4h14.1Z"/><path d="M868.72,82.52a37.82,37.82,0,0,0-10.88,8.4V80.27h-22.5V161h22.5V126q0-11.7,4.95-18.82t15-7.13h4.35L882,78.92A29.53,29.53,0,0,0,868.72,82.52Z"/><path d="M961.86,89q-11.62-10.05-28.27-10a41.24,41.24,0,0,0-28.88,11.25q-12.23,11.25-12.22,30.3t12,30.38q12,11.33,30.37,11.32a45.13,45.13,0,0,0,32-12.9l-12.6-13.65q-7.65,7.95-19.5,7.95a22.08,22.08,0,0,1-13.2-4.2,16,16,0,0,1-6.9-10.8h58.8v-12Q973.49,99,961.86,89Zm-46.57,23.55a15.49,15.49,0,0,1,6.45-11,20.26,20.26,0,0,1,12.22-4,17,17,0,0,1,11.33,3.9q4.65,3.9,5.4,11.1Z"/></svg>