<svg id="Layer_1" data-name="Layer 1" xmlns="http://www.w3.org/2000/svg" viewBox="0 0 995.99 220.34"><defs><style>.cls-1{fill:#31e981;}.cls-2{fill:#35605a;}.cls-3{fill:#fff;}</style></defs><path class="cls-1" d="M113.4,197.49a8.47,8.47,0,0,1-4.53-15.63c1.37-.88,31.82-21.22,9.38-66.67-28.5-57.74,1-88.24,2.29-89.51a8.46,8.46,0,1,1,12,12c-.84.89-21.93,23.73.92,70,29.41,59.57-15.11,88.23-15.56,88.51A8.41,8.41,0,0,1,113.4,197.49Z"/><path class="cls-1" d="M162.36,128.37q-1,0-2,0a8.46,8.46,0,1,1,.58-16.92,43.2,43.2,0,0,0,44.56-46.27,8.47,8.47,0,0,1,16.89-1.21,60.1,60.1,0,0,1-60,64.43Z"/><path class="cls-1" d="M198.91,109.48a4.69,4.69,0,0,1-3.33-1.37L159.9,72.42a4.7,4.7,0,0,1,6.65-6.65l35.69,35.69a4.7,4.7,0,0,1-3.33,8Z"/><path class="cls-2" d="M153.53,85.23A18.79,18.79,0,0,1,157,51.39h0a6.39,6.39,0,0,0,2.31-2.75A6.18,6.18,0,0,0,157.17,41v0a10.47,10.47,0,1,1,15.75-2.58,10.27,10.27,0,0,1-2.73,3h0A6,6,0,0,0,168,43.93a6.3,6.3,0,0,0,2,7.67v0A18.48,18.48,0,0,1,172.89,53a18.79,18.79,0,0,1-19.36,32.22Z"/><path class="cls-1" d="M31.09,165a8.47,8.47,0,0,1-8.44-7.85,60.11,60.11,0,0,1,62-64.4,8.46,8.46,0,1,1-.58,16.92,43.18,43.18,0,0,0-44.56,46.26,8.45,8.45,0,0,1-7.84,9.05C31.5,165,31.29,165,31.09,165Z"/><path class="cls-1" d="M81.08,155.94a4.68,4.68,0,0,1-3.33-1.37l-35-35a4.7,4.7,0,1,1,6.65-6.65l35,35a4.7,4.7,0,0,1-3.32,8Z"/><path class="cls-2" d="M71.4,135.11A18.79,18.79,0,0,0,74.85,169h0a6.42,6.42,0,0,1,2.31,2.76A6.18,6.18,0,0,1,75,179.37v0A10.47,10.47,0,1,0,90.79,182a10.68,10.68,0,0,0-2.73-3h0a6,6,0,0,1-2.19-2.54,6.29,6.29,0,0,1,2-7.66v0a19.53,19.53,0,0,0,2.88-1.39A18.79,18.79,0,1,0,71.4,135.11Z"/><path class="cls-3" d="M340.19,69.85q15,13.73,15,38.17t-14.62,38.7Q325.95,161,295.94,161H260.09V56.12h37.05Q325.19,56.12,340.19,69.85ZM323,132.17q8.63-8.1,8.62-23.55T323,84.85q-8.62-8.32-26.48-8.33H283.49v63.75h14.85Q314.39,140.27,323,132.17Z"/><path class="cls-3" d="M440.7,161H419.55v-9.75q-8.71,11-21.53,10.95t-21.52-7.42q-8.72-7.42-8.7-19.8t9-18.53q9-6.15,24.6-6.15h16.8v-.45q0-12.9-13.65-12.9a36.94,36.94,0,0,0-12.38,2.33,40.1,40.1,0,0,0-11,5.77l-10-14.55a60.15,60.15,0,0,1,36.3-11.55q14.69,0,24,7.35t9.3,23.25Zm-22.65-30.75v-3.9H404q-13.5,0-13.5,8.4a7.73,7.73,0,0,0,3.22,6.68c2.15,1.55,5.22,2.32,9.23,2.32a16.4,16.4,0,0,0,10.57-3.67A12,12,0,0,0,418.05,130.22Z"/><path class="cls-3" d="M463.12,70a13.39,13.39,0,0,1,0-18.75,13.2,13.2,0,0,1,22.57,9.37A13.26,13.26,0,0,1,463.12,70Zm20.62,91h-22.5V80.27h22.5Z"/><path class="cls-3" d="M527.54,161H505V49.67h22.5Z"/><path class="cls-3" d="M562.79,192.77q-11.85,0-22.35-9.6l10.2-16.65q5.7,5.55,11.7,5.55a6.56,6.56,0,0,0,5.4-3.07,10.88,10.88,0,0,0,2.25-6.53q0-3.45-31.2-82.2h24l19.65,50.25,19.65-50.25h24l-37.5,95.1a26.78,26.78,0,0,1-10.27,12.83A27.71,27.71,0,0,1,562.79,192.77Z"/><path class="cls-3" d="M687.74,140.27q17.25,0,28.2-13.65l15,15.45q-17.85,20.1-42.07,20.1T649,146.87q-15.68-15.3-15.68-38.62t16-38.93q16-15.6,39.07-15.6,25.8,0,43.2,19.65L717,89.87q-11.1-13.8-27.6-13.8a32.16,32.16,0,0,0-22.57,8.63q-9.37,8.63-9.38,23.25t8.85,23.47A29.21,29.21,0,0,0,687.74,140.27Z"/><path class="cls-3" d="M814.79,161H793.64v-9.75q-8.7,11-21.52,10.95t-21.53-7.42q-8.7-7.42-8.7-19.8t9-18.53q9-6.15,24.6-6.15h16.8v-.45q0-12.9-13.65-12.9a36.88,36.88,0,0,0-12.37,2.33,40.17,40.17,0,0,0-11,5.77l-10-14.55a60.19,60.19,0,0,1,36.3-11.55q14.7,0,24,7.35t9.3,23.25Zm-22.65-30.75v-3.9H778q-13.5,0-13.5,8.4a7.72,7.72,0,0,0,3.23,6.68q3.22,2.32,9.22,2.32a16.43,16.43,0,0,0,10.58-3.67A12,12,0,0,0,792.14,130.22Z"/><path class="cls-3" d="M877.79,100.07q-10,0-15,7.13T857.84,126v35h-22.5V80.27h22.5V90.92a37.82,37.82,0,0,1,10.88-8.4A29.53,29.53,0,0,1,882,78.92l.15,21.15Z"/><path class="cls-3" d="M966.89,149.27a45.13,45.13,0,0,1-32,12.9q-18.37,0-30.37-11.32t-12-30.38q0-19.05,12.22-30.3a41.24,41.24,0,0,1,28.88-11.25q16.65,0,28.27,10t11.63,27.6v12h-58.8a16,16,0,0,0,6.9,10.8,22.08,22.08,0,0,0,13.2,4.2q11.85,0,19.5-7.95Zm-21.6-47.85A17,17,0,0,0,934,97.52a20.26,20.26,0,0,0-12.22,4,15.49,15.49,0,0,0-6.45,11h35.4Q949.94,105.32,945.29,101.42Z"/></svg>