<svg id="Layer_1" data-name="Layer 1" xmlns="http://www.w3.org/2000/svg" viewBox="0 0 677.88 170.07">
<defs>
<style>.cls-1{fill:#041830;}.cls-2{fill:#ffc200;}</style>
</defs>
<path class="cls-1" d="M102.66,61.27a11.46,11.46,0,0,0-3.36-2.48,79.93,79.93,0,0,0-7.2-3.6,69.88,69.88,0,0,0-9.44-3.35A37.72,37.72,0,0,0,72.42,50.4q-6.72,0-10.4,2.3a7.74,7.74,0,0,0-3.68,7.07,7.3,7.3,0,0,0,2.8,6,25.33,25.33,0,0,0,8.08,3.89q5.28,1.67,13,3.89a97,97,0,0,1,18.88,6.91A31.45,31.45,0,0,1,113.3,90.91q4.23,6.36,4.24,16.84,0,9.54-3.52,16.14a29.27,29.27,0,0,1-9.52,10.64,41.33,41.33,0,0,1-13.68,5.88A68.1,68.1,0,0,1,75,142.24a90.74,90.74,0,0,1-17-1.68,95.55,95.55,0,0,1-16.72-4.81,76.77,76.77,0,0,1-14.72-7.59L38,105.27a20.78,20.78,0,0,0,4.16,3,76.23,76.23,0,0,0,8.72,4.47,80.35,80.35,0,0,0,11.6,4.08,48.33,48.33,0,0,0,13,1.77q7,0,10.48-2.2a6.87,6.87,0,0,0,3.44-6.11,7.58,7.58,0,0,0-3.6-6.68A38.91,38.91,0,0,0,76,99.27Q69.85,97.37,61.86,95a81.47,81.47,0,0,1-17.2-7.16,26.74,26.74,0,0,1-10.08-9.71Q31.3,72.38,31.3,63.79q0-11.92,5.68-20.13A35.52,35.52,0,0,1,52.26,31.25a51.54,51.54,0,0,1,21-4.21A61.56,61.56,0,0,1,88.66,29a88.92,88.92,0,0,1,13.92,4.79q6.48,2.89,11.6,5.77Z"/><path class="cls-1" d="M274.16,143a50.91,50.91,0,0,1-19.71-3.59,43.8,43.8,0,0,1-14.66-9.79,42.49,42.49,0,0,1-9.19-14.2,45.88,45.88,0,0,1-3.14-17A44.7,44.7,0,0,1,233,76.63a42.69,42.69,0,0,1,16-16.32q10.44-6.2,25.18-6.2,14.89,0,25.25,6.37a40.75,40.75,0,0,1,15.48,16.65l-25.83,7.78a17.41,17.41,0,0,0-6.38-6.13A17.69,17.69,0,0,0,274,76.63a18.25,18.25,0,0,0-9.85,2.73,19.41,19.41,0,0,0-7,7.56,24.32,24.32,0,0,0-2.57,11.57,24.37,24.37,0,0,0,2.65,11.58,20.79,20.79,0,0,0,7,7.8,18.39,18.39,0,0,0,16,1.73,18.14,18.14,0,0,0,5.3-3.06,15,15,0,0,0,3.72-4.47l25.84,8a37.11,37.11,0,0,1-9,11.84,43.79,43.79,0,0,1-13.82,8.19A51.1,51.1,0,0,1,274.16,143Z"/><path class="cls-1" d="M380.2,77.13a47.1,47.1,0,0,0-17.38,3.06q-7.8,3.06-11.27,9v52.16H325.06V55.43H349.4V72A36.63,36.63,0,0,1,361,58.25a26.72,26.72,0,0,1,14.91-5.13h2.73a6.6,6.6,0,0,1,1.57.16Z"/><path class="cls-1" d="M390.2,115.78A23.9,23.9,0,0,1,395,100.94a32.21,32.21,0,0,1,13.24-10,48.16,48.16,0,0,1,19.38-3.67,59.31,59.31,0,0,1,10.43.91A39.86,39.86,0,0,1,447,90.71v-3.8q0-6.89-4.3-10.57t-13.08-3.68A37.25,37.25,0,0,0,416,75.14a74.84,74.84,0,0,0-13.49,7.12l-7.95-16.89a69.34,69.34,0,0,1,18-8.45,68.5,68.5,0,0,1,19.79-2.81q19.53,0,30.38,9.17T473.5,89.82v22.23q0,3.9,1.24,5.44t4.39,1.86v22q-3.31.66-6.21,1a45.44,45.44,0,0,1-5.05.33q-7.46,0-11.34-3a12.88,12.88,0,0,1-4.89-8.11l-.5-3.81a38.76,38.76,0,0,1-13.82,11.34,38,38,0,0,1-16.81,3.9A33,33,0,0,1,405,139.45a28.07,28.07,0,0,1-10.84-9.79A25.19,25.19,0,0,1,390.2,115.78Zm52.66,3.11a13.53,13.53,0,0,0,3-3.19,6.08,6.08,0,0,0,1.16-3.36v-7.5a40.68,40.68,0,0,0-7.37-2,43.19,43.19,0,0,0-7.53-.72A21.85,21.85,0,0,0,420,105.24q-4.8,3.12-4.8,8.22a9.05,9.05,0,0,0,1.66,5.27,11.67,11.67,0,0,0,4.55,3.82,15.27,15.27,0,0,0,6.87,1.44,23.21,23.21,0,0,0,7.95-1.44A21.23,21.23,0,0,0,442.86,118.89Z"/><path class="cls-1" d="M551.46,136.7c-2.44,1-5.14,2-8.08,3a68.45,68.45,0,0,1-9.25,2.42,51,51,0,0,1-9.5.92,32.84,32.84,0,0,1-12.25-2.22,18.22,18.22,0,0,1-8.83-7.31q-3.26-5.08-3.25-13.47V75H489.13V54.87H500.3V27H527V54.87H544.8V75H527v35.69q0,4.23,2.17,6.11a8.1,8.1,0,0,0,5.5,1.87,20.57,20.57,0,0,0,6.08-1,37,37,0,0,0,5.59-2.16Z"/><path class="cls-1" d="M172.5,78.12a20,20,0,1,1-20,20,20,20,0,0,1,20-20m0-25a45,45,0,1,0,45,45,45,45,0,0,0-45-45Z"/><path class="cls-2" d="M182.43,99.27a10,10,0,0,1-9.92,8.8,9.58,9.58,0,0,1-1.19-.06,10,10,0,0,1-8.75-11.11,10,10,0,0,1,9.91-8.82,11.7,11.7,0,0,1,1.19.07,9.9,9.9,0,0,1,6.26,3.26A10,10,0,0,1,182.43,99.27Z"/><path class="cls-1" d="M606.42,77.29a20,20,0,1,1-20,20,20,20,0,0,1,20-20m0-25a45,45,0,1,0,45,45,45,45,0,0,0-45-45Z"/><path class="cls-2" d="M616.36,98.44a10,10,0,0,1-9.93,8.8c-.38,0-.79,0-1.19,0a10,10,0,0,1,1.16-19.94,11.53,11.53,0,0,1,1.19.07,10,10,0,0,1,8.77,11.12Z"/></svg>