<svg fill="none" fill-rule="evenodd" stroke="black" stroke-width="0.501" stroke-linejoin="bevel" stroke-miterlimit="10" xmlns="http://www.w3.org/2000/svg" version="1.1" overflow="visible" viewBox="0 -305.637 223.456 305.637">
<g id="Layer 1" transform="scale(1 -1)">
<rect x="0.043" y="45.131" width="223.37" height="223.369" stroke="none" fill="#ffffff" stroke-linejoin="miter"/>
<g id="Group" stroke-linejoin="miter" stroke-linecap="round" stroke="none" stroke-width="0.25">
<path d="M 111.728,57.58 C 135.658,57.58 157.838,65.115 176.023,77.94 C 171.279,109.355 167.997,123.432 158.177,131.643 C 152.738,136.268 145.332,138.577 134.373,141.767 C 131.521,142.596 126.711,143.982 124.277,144.51 L 124.278,157.903 C 132.054,162.221 138.002,170.432 140.407,180.443 C 145.044,180.721 147.083,182.158 149.096,185.514 C 150.676,188.148 151.954,192.542 150.754,195.8 C 149.682,198.711 147.022,201.832 143.663,201.832 C 142.799,201.832 141.959,201.638 141.183,201.288 C 138.882,218.286 126.521,231.276 111.728,231.276 C 96.935,231.276 84.574,218.286 82.273,201.288 C 81.497,201.638 80.657,201.832 79.793,201.832 C 76.434,201.832 73.774,198.711 72.702,195.8 C 71.502,192.542 72.78,188.148 74.36,185.514 C 76.373,182.158 78.412,180.721 83.049,180.443 C 85.454,170.432 91.402,162.221 99.178,157.903 L 99.179,144.51 C 96.745,143.982 91.935,142.596 89.083,141.767 C 78.124,138.577 70.718,136.268 65.279,131.643 C 55.459,123.432 52.177,109.355 47.433,77.94 C 65.618,65.115 87.798,57.58 111.728,57.58 Z" fill="#f1c9a5" marker-start="none" marker-end="none"/>
<path d="M 111.728,57.58 C 135.658,57.58 157.838,65.115 176.023,77.94 C 171.279,109.355 167.997,123.432 158.177,131.643 C 152.738,136.268 145.332,138.577 134.373,141.767 C 131.521,142.596 126.711,143.982 124.277,144.51 L 124.278,157.903 C 132.054,162.221 138.002,170.432 140.407,180.443 C 145.044,180.721 147.083,182.158 149.096,185.514 C 150.676,188.148 151.954,192.542 150.754,195.8 C 149.682,198.711 147.022,201.832 143.663,201.832 C 142.799,201.832 141.959,201.638 141.183,201.288 C 138.882,218.286 126.521,231.276 111.728,231.276 L 111.728,57.58 Z" fill="#e4b992" marker-start="none" marker-end="none"/>
</g>

<g id="Group_1" stroke-linejoin="miter" stroke="none">
<ellipse rx="4.961" ry="4.961" transform="translate(78.068 181.294) rotate(-90)" fill="#ff0000" stroke-linejoin="miter" stroke="none" stroke-linecap="round" stroke-width="0.5"/>
<path d="M 111.728,84.977 L 99.179,93.486 L 65.279,131.643 C 55.459,123.432 52.177,109.355 47.433,77.94 C 65.618,65.115 87.798,57.58 111.728,57.58 C 135.658,57.58 157.838,65.115 176.023,77.94 C 171.279,109.355 167.997,123.432 158.177,131.643 L 124.277,93.486 L 111.728,84.977 Z" fill="#7f007e" stroke-linecap="round" stroke-width="1" marker-start="none" marker-end="none"/>
<path d="M 158.177,131.643 L 124.277,93.486 L 111.728,82.208 L 99.179,93.486 L 65.279,131.643 C 67.481,133.516 70.007,135.009 72.96,136.335 L 111.728,85.328 L 150.495,136.335 C 153.448,135.009 155.974,133.516 158.177,131.643 Z" fill="#ffffff" marker-start="none" marker-end="none"/>
<path d="M 111.728,87.544 L 75.821,139.805 L 69.671,135.755 L 111.728,83.957 L 153.785,135.755 L 147.635,139.805 L 111.728,87.544 Z" fill="#7f007e" marker-start="none" marker-end="none"/>
</g>
<path d="M 82.407,183.918 C 81.982,200.682 87.008,216.301 98.483,226.784 C 106.403,204.944 151.57,206.374 125.17,139.655 C 148.57,157.804 158.09,185.661 156.704,216.975 C 155.886,235.456 141.239,260.793 104.721,255.696 C 98.711,254.857 92.759,250.441 89.241,245.409 C 85.703,246.025 81.527,245.305 78.29,242.232 C 71.812,236.083 68.787,226.499 69.089,217.037 C 69.497,204.254 76.027,192.287 82.407,183.918 Z" stroke="none" fill="#191919" stroke-width="0.652" stroke-linejoin="miter" marker-start="none" marker-end="none"/>
<g id="Group_2" stroke-linejoin="miter" stroke="none" stroke-width="0.652" fill="#ff0000">
<path d="M 85.323,246.471 L 87.655,242.294 C 87.907,241.841 88.549,241.715 89.085,242.014 L 93.221,244.322 C 93.756,244.621 93.986,245.233 93.733,245.687 L 91.402,249.863 C 91.149,250.316 90.507,250.443 89.972,250.144 L 85.835,247.835 C 85.3,247.536 85.071,246.924 85.323,246.471 Z" marker-start="none" marker-end="none"/>
<path d="M 85.055,245.685 C 84.408,246.846 83.226,246.966 82.371,246.946 C 78.964,246.869 74.464,247.373 72.477,246.318 C 71.644,245.853 71.493,244.533 72.141,243.372 L 78.098,232.7 C 78.745,231.539 79.948,230.974 80.781,231.439 C 82.722,232.576 84.655,236.672 86.51,239.531 C 86.976,240.248 87.493,241.317 86.846,242.477 L 85.055,245.685 Z" marker-start="none" marker-end="none"/>
<path d="M 92.21,249.679 C 91.563,250.839 92.08,251.908 92.546,252.625 C 94.401,255.484 96.334,259.58 98.275,260.717 C 99.108,261.182 100.311,260.617 100.958,259.456 L 106.915,248.784 C 107.563,247.623 107.412,246.303 106.579,245.838 C 104.592,244.783 100.092,245.287 96.685,245.21 C 95.83,245.19 94.648,245.31 94.001,246.471 L 92.21,249.679 Z" marker-start="none" marker-end="none"/>
</g>
</g>
</svg>
