<svg id="Layer_1" data-name="Layer 1" xmlns="http://www.w3.org/2000/svg" viewBox="0 0 114 114"><defs><style>.cls-1{fill:#f77f00;}.cls-2{fill:#035e7b;}</style></defs><path class="cls-1" d="M40.69,0S57.56,2,54.5,18.54C54.5,18.54,38.32,17.71,40.69,0Z"/><path class="cls-1" d="M73.34.16s-16.87,2-13.8,18.55C59.54,18.71,75.71,17.87,73.34.16Z"/><path class="cls-1" d="M40.69,18.71S57.56,20.66,54.5,37.25C54.5,37.25,38.32,36.41,40.69,18.71Z"/><path class="cls-1" d="M73.34,18.87s-16.87,1.95-13.8,18.54C59.54,37.41,75.71,36.57,73.34,18.87Z"/><path class="cls-1" d="M40.69,114s16.87-2,13.81-18.54C54.5,95.46,38.32,96.29,40.69,114Z"/><path class="cls-1" d="M73.34,113.84s-16.87-2-13.8-18.55C59.54,95.29,75.71,96.13,73.34,113.84Z"/><path class="cls-1" d="M40.69,95.29s16.87-2,13.81-18.54C54.5,76.75,38.32,77.59,40.69,95.29Z"/><path class="cls-1" d="M73.34,95.13s-16.87-1.95-13.8-18.54C59.54,76.59,75.71,77.43,73.34,95.13Z"/><path class="cls-1" d="M114,73.32s-2-16.87-18.55-13.8C95.45,59.52,96.29,75.69,114,73.32Z"/><path class="cls-1" d="M113.84,40.68s-2,16.87-18.55,13.8C95.29,54.48,96.13,38.31,113.84,40.68Z"/><path class="cls-1" d="M95.29,73.32s-2-16.87-18.54-13.8C76.75,59.52,77.59,75.69,95.29,73.32Z"/><path class="cls-1" d="M95.13,40.68s-1.95,16.87-18.54,13.8C76.59,54.48,77.42,38.31,95.13,40.68Z"/><path class="cls-1" d="M0,73.32s2-16.87,18.55-13.8C18.55,59.52,17.71,75.69,0,73.32Z"/><path class="cls-1" d="M.16,40.68s2,16.87,18.55,13.8C18.71,54.48,17.87,38.31.16,40.68Z"/><path class="cls-1" d="M18.71,73.32s1.95-16.87,18.54-13.8C37.25,59.52,36.41,75.69,18.71,73.32Z"/><path class="cls-1" d="M18.87,40.68s1.95,16.87,18.54,13.8C37.41,54.48,36.58,38.31,18.87,40.68Z"/><path class="cls-2" d="M76.59,20.17v14.5l-6.69,6.7a7.25,7.25,0,1,0,2.74,2.74l6.69-6.7H93.82V20.17ZM66.37,51a3.34,3.34,0,1,1,3.33-3.33A3.33,3.33,0,0,1,66.37,51ZM90,33.54H80.46V24.05H90Z"/><path class="cls-2" d="M72.64,69.89a7.21,7.21,0,1,0-2.74,2.74l6.69,6.7v14.5H93.82V76.59H79.33Zm-6.27-.2a3.34,3.34,0,1,1,3.33-3.34A3.34,3.34,0,0,1,66.37,69.69ZM80.46,80.46H90V90H80.46Z"/><path class="cls-2" d="M47.66,40.44a7.15,7.15,0,0,0-3.53.93l-6.68-6.7V20.17H20.21V37.41h14.5l6.68,6.7a7.2,7.2,0,1,0,6.27-3.67Zm-14.09-6.9H24.08V24.05h9.49ZM47.66,51A3.34,3.34,0,1,1,51,47.65,3.34,3.34,0,0,1,47.66,51Z"/><path class="cls-2" d="M47.66,59.15a7.2,7.2,0,0,0-6.27,10.74l-6.68,6.7H20.21V93.83H37.45V79.33l6.68-6.7a7.2,7.2,0,1,0,3.53-13.48ZM33.57,90H24.08V80.46h9.49ZM47.66,69.69A3.34,3.34,0,1,1,51,66.35,3.34,3.34,0,0,1,47.66,69.69Z"/></svg>