<svg id="Layer_1" data-name="Layer 1" xmlns="http://www.w3.org/2000/svg" viewBox="0 0 152 152"><defs><style>.cls-1{fill:#f77f00;}.cls-2{fill:#035e7b;}</style></defs><path class="cls-1" d="M54.26,0s22.49,2.6,18.4,24.72C72.66,24.72,51.1,23.61,54.26,0Z"/><path class="cls-1" d="M97.78.22s-22.49,2.6-18.4,24.72C79.38,24.94,100.94,23.83,97.78.22Z"/><path class="cls-1" d="M54.26,24.94s22.49,2.6,18.4,24.72C72.66,49.66,51.1,48.55,54.26,24.94Z"/><path class="cls-1" d="M97.78,25.16s-22.49,2.6-18.4,24.72C79.38,49.88,100.94,48.77,97.78,25.16Z"/><path class="cls-1" d="M54.26,152s22.49-2.6,18.4-24.72C72.66,127.28,51.1,128.39,54.26,152Z"/><path class="cls-1" d="M97.78,151.78s-22.49-2.6-18.4-24.72C79.38,127.06,100.94,128.17,97.78,151.78Z"/><path class="cls-1" d="M54.26,127.06s22.49-2.6,18.4-24.72C72.66,102.34,51.1,103.45,54.26,127.06Z"/><path class="cls-1" d="M97.78,126.84s-22.49-2.6-18.4-24.72C79.38,102.12,100.94,103.23,97.78,126.84Z"/><path class="cls-1" d="M152,97.76s-2.61-22.49-24.73-18.4C127.27,79.36,128.39,100.92,152,97.76Z"/><path class="cls-1" d="M151.78,54.24s-2.6,22.49-24.72,18.4C127.06,72.64,128.17,51.08,151.78,54.24Z"/><path class="cls-1" d="M127.06,97.76s-2.61-22.49-24.73-18.4C102.33,79.36,103.45,100.92,127.06,97.76Z"/><path class="cls-1" d="M126.84,54.24s-2.6,22.49-24.72,18.4C102.12,72.64,103.23,51.08,126.84,54.24Z"/><path class="cls-1" d="M0,97.76s2.61-22.49,24.73-18.4C24.73,79.36,23.61,100.92,0,97.76Z"/><path class="cls-1" d="M.22,54.24s2.6,22.49,24.72,18.4C24.94,72.64,23.83,51.08.22,54.24Z"/><path class="cls-1" d="M24.94,97.76s2.61-22.49,24.73-18.4C49.67,79.36,48.55,100.92,24.94,97.76Z"/><path class="cls-1" d="M25.16,54.24s2.6,22.49,24.72,18.4C49.88,72.64,48.77,51.08,25.16,54.24Z"/><path class="cls-2" d="M102.12,26.9V46.23l-8.91,8.93a9.61,9.61,0,1,0,4.89,8.37,9.55,9.55,0,0,0-1.24-4.72l8.91-8.93H125.1v-23ZM88.49,68a4.45,4.45,0,1,1,4.45-4.44A4.44,4.44,0,0,1,88.49,68Zm31.45-23.25H107.28V32.06h12.66Z"/><path class="cls-2" d="M96.86,93.19a9.61,9.61,0,1,0-8.37,4.89,9.65,9.65,0,0,0,4.72-1.24l8.91,8.93V125.1h23v-23H105.77Zm-8.37-.27a4.45,4.45,0,1,1,4.45-4.45A4.45,4.45,0,0,1,88.49,92.92Zm18.79,14.36h12.66v12.66H107.28Z"/><path class="cls-2" d="M63.55,53.92a9.62,9.62,0,0,0-4.71,1.24l-8.91-8.93V26.9h-23v23H46.28l8.91,8.93a9.6,9.6,0,1,0,8.36-4.89Zm-18.79-9.2H32.11V32.06H44.76ZM63.55,68A4.45,4.45,0,1,1,68,63.53,4.44,4.44,0,0,1,63.55,68Z"/><path class="cls-2" d="M63.55,78.86a9.59,9.59,0,0,0-8.36,14.33l-8.91,8.93H26.94v23h23V105.77l8.91-8.93a9.61,9.61,0,1,0,4.71-18ZM44.76,119.94H32.11V107.28H44.76Zm18.79-27A4.45,4.45,0,1,1,68,88.47,4.45,4.45,0,0,1,63.55,92.92Z"/></svg>