<svg id="Layer_1" data-name="Layer 1" xmlns="http://www.w3.org/2000/svg" viewBox="0 0 16 16"><defs><style>.cls-1{fill:#f77f00;}.cls-2{fill:#035e7b;}</style></defs><path class="cls-1" d="M5.71,0A2.15,2.15,0,0,1,7.65,2.6,2.09,2.09,0,0,1,5.71,0Z"/><path class="cls-1" d="M10.29,0A2.16,2.16,0,0,0,8.36,2.63,2.1,2.1,0,0,0,10.29,0Z"/><path class="cls-1" d="M5.71,2.63a2.15,2.15,0,0,1,1.94,2.6A2.1,2.1,0,0,1,5.71,2.63Z"/><path class="cls-1" d="M10.29,2.65a2.15,2.15,0,0,0-1.93,2.6A2.09,2.09,0,0,0,10.29,2.65Z"/><path class="cls-1" d="M5.71,16a2.15,2.15,0,0,0,1.94-2.6A2.09,2.09,0,0,0,5.71,16Z"/><path class="cls-1" d="M10.29,16a2.16,2.16,0,0,1-1.93-2.61A2.1,2.1,0,0,1,10.29,16Z"/><path class="cls-1" d="M5.71,13.37a2.15,2.15,0,0,0,1.94-2.6A2.1,2.1,0,0,0,5.71,13.37Z"/><path class="cls-1" d="M10.29,13.35a2.15,2.15,0,0,1-1.93-2.6A2.09,2.09,0,0,1,10.29,13.35Z"/><path class="cls-1" d="M16,10.29a2.15,2.15,0,0,0-2.6-1.94A2.09,2.09,0,0,0,16,10.29Z"/><path class="cls-1" d="M16,5.71a2.16,2.16,0,0,1-2.61,1.94A2.11,2.11,0,0,1,16,5.71Z"/><path class="cls-1" d="M13.37,10.29a2.15,2.15,0,0,0-2.6-1.94A2.1,2.1,0,0,0,13.37,10.29Z"/><path class="cls-1" d="M13.35,5.71a2.15,2.15,0,0,1-2.6,1.94A2.1,2.1,0,0,1,13.35,5.71Z"/><path class="cls-1" d="M0,10.29A2.15,2.15,0,0,1,2.6,8.35,2.09,2.09,0,0,1,0,10.29Z"/><path class="cls-1" d="M0,5.71A2.16,2.16,0,0,0,2.63,7.65,2.11,2.11,0,0,0,0,5.71Z"/><path class="cls-1" d="M2.63,10.29a2.15,2.15,0,0,1,2.6-1.94A2.1,2.1,0,0,1,2.63,10.29Z"/><path class="cls-1" d="M2.65,5.71a2.15,2.15,0,0,0,2.6,1.94A2.1,2.1,0,0,0,2.65,5.71Z"/><path class="cls-2" d="M10.75,2.83v2l-.94.94a.93.93,0,0,0-.5-.13,1,1,0,1,0,1,1,1.06,1.06,0,0,0-.13-.5l.93-.94h2V2.83ZM9.31,7.16a.47.47,0,1,1,.47-.47A.47.47,0,0,1,9.31,7.16Zm3.31-2.45H11.29V3.37h1.33Z"/><path class="cls-2" d="M10.2,9.81a1.06,1.06,0,0,0,.13-.5,1,1,0,1,0-1,1,.93.93,0,0,0,.5-.13l.94.94v2h2.42V10.75h-2Zm-.89,0a.47.47,0,1,1,.47-.47A.47.47,0,0,1,9.31,9.78Zm2,1.51h1.33v1.34H11.29Z"/><path class="cls-2" d="M6.69,5.68a1,1,0,0,0-.5.13l-.93-.94v-2H2.84V5.25h2l.94.94a1.06,1.06,0,0,0-.13.5,1,1,0,1,0,1-1Zm-2-1H3.38V3.37H4.71Zm2,2.45a.47.47,0,1,1,.47-.47A.47.47,0,0,1,6.69,7.16Z"/><path class="cls-2" d="M6.69,8.3a1,1,0,0,0-1,1,1.06,1.06,0,0,0,.13.5l-.94.94h-2v2.42H5.26v-2l.93-.94a1,1,0,0,0,.5.13,1,1,0,0,0,0-2Zm-2,4.33H3.38V11.29H4.71Zm2-2.85a.47.47,0,1,1,.47-.47A.47.47,0,0,1,6.69,9.78Z"/></svg>