<svg id="Layer_1" data-name="Layer 1" xmlns="http://www.w3.org/2000/svg" viewBox="0 0 180 180"><defs><style>.cls-1{fill:#f77f00;}.cls-2{fill:#035e7b;}</style></defs><path class="cls-1" d="M64.25,0s26.64,3.08,21.8,29.28C86.05,29.28,60.51,28,64.25,0Z"/><path class="cls-1" d="M115.8.26S89.16,3.34,94,29.54C94,29.54,119.54,28.21,115.8.26Z"/><path class="cls-1" d="M64.25,29.54s26.64,3.08,21.8,29.27C86.05,58.81,60.51,57.49,64.25,29.54Z"/><path class="cls-1" d="M115.8,29.79S89.16,32.87,94,59.07C94,59.07,119.54,57.75,115.8,29.79Z"/><path class="cls-1" d="M64.25,180s26.64-3.08,21.8-29.28C86.05,150.72,60.51,152,64.25,180Z"/><path class="cls-1" d="M115.8,179.74S89.16,176.66,94,150.46C94,150.46,119.54,151.79,115.8,179.74Z"/><path class="cls-1" d="M64.25,150.46s26.64-3.08,21.8-29.27C86.05,121.19,60.51,122.51,64.25,150.46Z"/><path class="cls-1" d="M115.8,150.21S89.16,147.13,94,120.93C94,120.93,119.54,122.25,115.8,150.21Z"/><path class="cls-1" d="M180,115.77S176.91,89.13,150.72,94C150.72,94,152,119.51,180,115.77Z"/><path class="cls-1" d="M179.74,64.23S176.66,90.87,150.46,86C150.46,86,151.78,60.49,179.74,64.23Z"/><path class="cls-1" d="M150.46,115.77S147.38,89.13,121.18,94C121.18,94,122.5,119.51,150.46,115.77Z"/><path class="cls-1" d="M150.2,64.23S147.12,90.87,120.93,86C120.93,86,122.25,60.49,150.2,64.23Z"/><path class="cls-1" d="M0,115.77S3.09,89.13,29.28,94C29.28,94,28,119.51,0,115.77Z"/><path class="cls-1" d="M.26,64.23S3.34,90.87,29.54,86C29.54,86,28.22,60.49.26,64.23Z"/><path class="cls-1" d="M29.54,115.77S32.62,89.13,58.82,94C58.82,94,57.5,119.51,29.54,115.77Z"/><path class="cls-1" d="M29.8,64.23S32.88,90.87,59.07,86C59.07,86,57.75,60.49,29.8,64.23Z"/><path class="cls-2" d="M120.93,31.85v22.9L110.38,65.32a11.42,11.42,0,1,0,4.32,4.33l10.55-10.58h22.89V31.85ZM104.79,80.5a5.27,5.27,0,1,1,5.27-5.27A5.27,5.27,0,0,1,104.79,80.5ZM142,53H127V38h15Z"/><path class="cls-2" d="M114.7,110.35a11.37,11.37,0,1,0-4.32,4.33l10.55,10.57v22.9h27.21V120.93H125.25Zm-9.91-.32a5.27,5.27,0,1,1,5.27-5.26A5.27,5.27,0,0,1,104.79,110ZM127,127h15v15H127Z"/><path class="cls-2" d="M75.26,63.85a11.33,11.33,0,0,0-5.58,1.47L59.13,54.75V31.85H31.91V59.07H54.8L65.35,69.65a11.37,11.37,0,1,0,9.91-5.8ZM53,53H38V38H53ZM75.26,80.5a5.27,5.27,0,1,1,5.26-5.27A5.28,5.28,0,0,1,75.26,80.5Z"/><path class="cls-2" d="M75.26,93.39a11.37,11.37,0,0,0-9.91,17L54.8,120.93H31.91v27.22H59.13v-22.9l10.55-10.57a11.38,11.38,0,1,0,5.58-21.29ZM53,142H38V127H53Zm22.25-32a5.27,5.27,0,1,1,5.26-5.26A5.27,5.27,0,0,1,75.26,110Z"/></svg>