<svg id="Layer_1" data-name="Layer 1" xmlns="http://www.w3.org/2000/svg" viewBox="0 0 32 32"><defs><style>.cls-1{fill:#f77f00;}.cls-2{fill:#035e7b;}</style></defs><path class="cls-1" d="M11.42,0s4.74.55,3.88,5.21C15.3,5.21,10.76,5,11.42,0Z"/><path class="cls-1" d="M20.59.05s-4.74.54-3.88,5.2C16.71,5.25,21.25,5,20.59.05Z"/><path class="cls-1" d="M11.42,5.25s4.74.55,3.88,5.21C15.3,10.46,10.76,10.22,11.42,5.25Z"/><path class="cls-1" d="M20.59,5.3s-4.74.54-3.88,5.2C16.71,10.5,21.25,10.27,20.59,5.3Z"/><path class="cls-1" d="M11.42,32s4.74-.55,3.88-5.21C15.3,26.79,10.76,27,11.42,32Z"/><path class="cls-1" d="M20.59,32s-4.74-.54-3.88-5.2C16.71,26.75,21.25,27,20.59,32Z"/><path class="cls-1" d="M11.42,26.75s4.74-.55,3.88-5.21C15.3,21.54,10.76,21.78,11.42,26.75Z"/><path class="cls-1" d="M20.59,26.7s-4.74-.54-3.88-5.2C16.71,21.5,21.25,21.73,20.59,26.7Z"/><path class="cls-1" d="M32,20.58s-.55-4.73-5.21-3.87C26.79,16.71,27,21.25,32,20.58Z"/><path class="cls-1" d="M32,11.42s-.54,4.73-5.2,3.87C26.75,15.29,27,10.75,32,11.42Z"/><path class="cls-1" d="M26.75,20.58s-.55-4.73-5.21-3.87C21.54,16.71,21.78,21.25,26.75,20.58Z"/><path class="cls-1" d="M26.7,11.42s-.54,4.73-5.2,3.87C21.5,15.29,21.73,10.75,26.7,11.42Z"/><path class="cls-1" d="M0,20.58s.55-4.73,5.21-3.87C5.21,16.71,5,21.25,0,20.58Z"/><path class="cls-1" d="M.05,11.42s.54,4.73,5.2,3.87C5.25,15.29,5,10.75.05,11.42Z"/><path class="cls-1" d="M5.25,20.58s.55-4.73,5.21-3.87C10.46,16.71,10.22,21.25,5.25,20.58Z"/><path class="cls-1" d="M5.3,11.42s.54,4.73,5.2,3.87C10.5,15.29,10.27,10.75,5.3,11.42Z"/><path class="cls-2" d="M21.5,5.66V9.73l-1.88,1.88a2.06,2.06,0,0,0-1-.26,2,2,0,1,0,2,2,2,2,0,0,0-.26-1l1.88-1.88h4.07V5.66Zm-2.87,8.65a.94.94,0,1,1,.94-.94A.94.94,0,0,1,18.63,14.31Zm6.62-4.9H22.59V6.75h2.66Z"/><path class="cls-2" d="M20.39,19.62a2,2,0,0,0,.26-1,2,2,0,1,0-2,2,2.06,2.06,0,0,0,1-.26l1.88,1.88v4.07h4.84V21.5H22.27Zm-1.76-.06a.94.94,0,1,1,.94-.93A.94.94,0,0,1,18.63,19.56Zm4,3h2.66v2.66H22.59Z"/><path class="cls-2" d="M13.38,11.35a2.06,2.06,0,0,0-1,.26L10.51,9.73V5.66H5.67V10.5H9.74l1.88,1.88a2,2,0,0,0-.26,1,2,2,0,1,0,2-2Zm-4-1.94H6.76V6.75H9.42Zm4,4.9a.94.94,0,1,1,.94-.94A.94.94,0,0,1,13.38,14.31Z"/><path class="cls-2" d="M13.38,16.6a2,2,0,0,0-2,2,2,2,0,0,0,.26,1L9.74,21.5H5.67v4.84h4.84V22.27l1.88-1.88a2.06,2.06,0,0,0,1,.26,2,2,0,0,0,0-4Zm-4,8.65H6.76V22.59H9.42Zm4-5.69a.94.94,0,1,1,.94-.93A.94.94,0,0,1,13.38,19.56Z"/></svg>