<svg id="Layer_1" data-name="Layer 1" xmlns="http://www.w3.org/2000/svg" viewBox="0 0 57 57"><defs><style>.cls-1{fill:#f77f00;}.cls-2{fill:#035e7b;}</style></defs><path class="cls-1" d="M20.35,0s8.43,1,6.9,9.27C27.25,9.27,19.16,8.85,20.35,0Z"/><path class="cls-1" d="M36.67.08s-8.44,1-6.9,9.27C29.77,9.35,37.85,8.93,36.67.08Z"/><path class="cls-1" d="M20.35,9.35s8.43,1,6.9,9.27C27.25,18.62,19.16,18.21,20.35,9.35Z"/><path class="cls-1" d="M36.67,9.43s-8.44,1-6.9,9.28C29.77,18.71,37.85,18.29,36.67,9.43Z"/><path class="cls-1" d="M20.35,57s8.43-1,6.9-9.27C27.25,47.73,19.16,48.15,20.35,57Z"/><path class="cls-1" d="M36.67,56.92s-8.44-1-6.9-9.27C29.77,47.65,37.85,48.07,36.67,56.92Z"/><path class="cls-1" d="M20.35,47.65s8.43-1,6.9-9.27C27.25,38.38,19.16,38.79,20.35,47.65Z"/><path class="cls-1" d="M36.67,47.57s-8.44-1-6.9-9.28C29.77,38.29,37.85,38.71,36.67,47.57Z"/><path class="cls-1" d="M57,36.66s-1-8.43-9.27-6.9C47.73,29.76,48.15,37.85,57,36.66Z"/><path class="cls-1" d="M56.92,20.34s-1,8.43-9.27,6.9C47.65,27.24,48.06,19.15,56.92,20.34Z"/><path class="cls-1" d="M47.65,36.66s-1-8.43-9.28-6.9C38.37,29.76,38.79,37.85,47.65,36.66Z"/><path class="cls-1" d="M47.56,20.34s-1,8.43-9.27,6.9C38.29,27.24,38.71,19.15,47.56,20.34Z"/><path class="cls-1" d="M0,36.66s1-8.43,9.27-6.9C9.27,29.76,8.85,37.85,0,36.66Z"/><path class="cls-1" d="M.08,20.34s1,8.43,9.27,6.9C9.35,27.24,8.94,19.15.08,20.34Z"/><path class="cls-1" d="M9.35,36.66s1-8.43,9.28-6.9C18.63,29.76,18.21,37.85,9.35,36.66Z"/><path class="cls-1" d="M9.44,20.34s1,8.43,9.27,6.9C18.71,27.24,18.29,19.15,9.44,20.34Z"/><path class="cls-2" d="M38.29,10.09v7.25L35,20.69a3.52,3.52,0,0,0-1.77-.47,3.61,3.61,0,1,0,3.14,1.83l3.34-3.34h7.25V10.09Zm-5.11,15.4a1.67,1.67,0,1,1,1.67-1.67A1.67,1.67,0,0,1,33.18,25.49ZM45,16.77H40.23V12H45Z"/><path class="cls-2" d="M36.32,35a3.57,3.57,0,0,0,.47-1.77,3.61,3.61,0,1,0-3.61,3.6A3.52,3.52,0,0,0,35,36.31l3.34,3.35v7.25h8.62V38.29H39.66Zm-3.14-.11a1.67,1.67,0,1,1,1.67-1.66A1.66,1.66,0,0,1,33.18,34.84Zm7,5.39H45V45H40.23Z"/><path class="cls-2" d="M23.83,20.22a3.57,3.57,0,0,0-1.77.47l-3.34-3.35V10.09H10.1v8.62h7.25l3.34,3.34a3.67,3.67,0,0,0-.46,1.77,3.61,3.61,0,1,0,3.6-3.6Zm-7-3.45H12V12h4.75Zm7,8.72a1.67,1.67,0,1,1,1.67-1.67A1.66,1.66,0,0,1,23.83,25.49Z"/><path class="cls-2" d="M23.83,29.57a3.61,3.61,0,0,0-3.6,3.61A3.67,3.67,0,0,0,20.69,35l-3.34,3.34H10.1v8.62h8.62V39.66l3.34-3.35a3.6,3.6,0,0,0,5.38-3.13A3.61,3.61,0,0,0,23.83,29.57ZM16.79,45H12V40.23h4.75Zm7-10.14a1.67,1.67,0,0,1,0-3.33,1.67,1.67,0,1,1,0,3.33Z"/></svg>