<svg id="Layer_1" data-name="Layer 1" xmlns="http://www.w3.org/2000/svg" viewBox="0 0 60 60"><defs><style>.cls-1{fill:#f77f00;}.cls-2{fill:#035e7b;}</style></defs><path class="cls-1" d="M21.42,0s8.88,1,7.26,9.76C28.68,9.76,20.17,9.32,21.42,0Z"/><path class="cls-1" d="M38.6.09s-8.88,1-7.27,9.76C31.33,9.85,39.85,9.4,38.6.09Z"/><path class="cls-1" d="M21.42,9.85s8.88,1,7.26,9.75C28.68,19.6,20.17,19.16,21.42,9.85Z"/><path class="cls-1" d="M38.6,9.93s-8.88,1-7.27,9.76C31.33,19.69,39.85,19.25,38.6,9.93Z"/><path class="cls-1" d="M21.42,60s8.88-1,7.26-9.76C28.68,50.24,20.17,50.68,21.42,60Z"/><path class="cls-1" d="M38.6,59.91s-8.88-1-7.27-9.76C31.33,50.15,39.85,50.6,38.6,59.91Z"/><path class="cls-1" d="M21.42,50.15s8.88-1,7.26-9.75C28.68,40.4,20.17,40.84,21.42,50.15Z"/><path class="cls-1" d="M38.6,50.07s-8.88-1-7.27-9.76C31.33,40.31,39.85,40.75,38.6,50.07Z"/><path class="cls-1" d="M60,38.59s-1-8.88-9.76-7.26C50.24,31.33,50.68,39.84,60,38.59Z"/><path class="cls-1" d="M59.91,21.41s-1,8.88-9.76,7.26C50.15,28.67,50.59,20.16,59.91,21.41Z"/><path class="cls-1" d="M50.15,38.59s-1-8.88-9.76-7.26C40.39,31.33,40.83,39.84,50.15,38.59Z"/><path class="cls-1" d="M50.07,21.41s-1,8.88-9.76,7.26C40.31,28.67,40.75,20.16,50.07,21.41Z"/><path class="cls-1" d="M0,38.59s1-8.88,9.76-7.26C9.76,31.33,9.32,39.84,0,38.59Z"/><path class="cls-1" d="M.09,21.41s1,8.88,9.76,7.26C9.85,28.67,9.41,20.16.09,21.41Z"/><path class="cls-1" d="M9.85,38.59s1-8.88,9.76-7.26C19.61,31.33,19.17,39.84,9.85,38.59Z"/><path class="cls-1" d="M9.93,21.41s1,8.88,9.76,7.26C19.69,28.67,19.25,20.16,9.93,21.41Z"/><path class="cls-2" d="M40.31,10.62v7.63l-3.52,3.52a3.83,3.83,0,1,0,1.44,1.45l3.52-3.53h7.63V10.62ZM34.93,26.83a1.76,1.76,0,1,1,1.76-1.75A1.75,1.75,0,0,1,34.93,26.83Zm12.41-9.18h-5v-5h5Z"/><path class="cls-2" d="M38.23,36.78a3.78,3.78,0,1,0-1.44,1.45l3.52,3.52v7.63h9.07V40.31H41.75Zm-3.3-.1a1.76,1.76,0,1,1,1.76-1.76A1.75,1.75,0,0,1,34.93,36.68Zm7.42,5.67h5v5h-5Z"/><path class="cls-2" d="M25.09,21.28a3.77,3.77,0,0,0-1.86.49l-3.52-3.52V10.62H10.64v9.07h7.63l3.51,3.53a3.79,3.79,0,1,0,3.31-1.94Zm-7.42-3.63h-5v-5h5Zm7.42,9.18a1.76,1.76,0,1,1,1.75-1.75A1.76,1.76,0,0,1,25.09,26.83Z"/><path class="cls-2" d="M25.09,31.13a3.79,3.79,0,0,0-3.31,5.65l-3.51,3.53H10.64v9.07h9.07V41.75l3.52-3.52a3.79,3.79,0,1,0,1.86-7.1ZM17.67,47.34h-5v-5h5Zm7.42-10.66a1.76,1.76,0,1,1,1.75-1.76A1.76,1.76,0,0,1,25.09,36.68Z"/></svg>