<svg id="Layer_1" data-name="Layer 1" xmlns="http://www.w3.org/2000/svg" viewBox="0 0 72 72"><defs><style>.cls-1{fill:#f77f00;}.cls-2{fill:#035e7b;}</style></defs><path class="cls-1" d="M25.7,0s10.66,1.23,8.72,11.71C34.42,11.71,24.2,11.18,25.7,0Z"/><path class="cls-1" d="M46.32.1S35.66,1.34,37.6,11.81C37.6,11.81,47.82,11.29,46.32.1Z"/><path class="cls-1" d="M25.7,11.81s10.66,1.24,8.72,11.72C34.42,23.53,24.2,23,25.7,11.81Z"/><path class="cls-1" d="M46.32,11.92S35.66,13.15,37.6,23.63C37.6,23.63,47.82,23.1,46.32,11.92Z"/><path class="cls-1" d="M25.7,72s10.66-1.23,8.72-11.71C34.42,60.29,24.2,60.82,25.7,72Z"/><path class="cls-1" d="M46.32,71.9S35.66,70.66,37.6,60.19C37.6,60.19,47.82,60.71,46.32,71.9Z"/><path class="cls-1" d="M25.7,60.19S36.36,59,34.42,48.47C34.42,48.47,24.2,49,25.7,60.19Z"/><path class="cls-1" d="M46.32,60.08S35.66,58.85,37.6,48.37C37.6,48.37,47.82,48.9,46.32,60.08Z"/><path class="cls-1" d="M72,46.31s-1.23-10.66-11.71-8.72C60.29,37.59,60.82,47.81,72,46.31Z"/><path class="cls-1" d="M71.9,25.69s-1.24,10.66-11.72,8.72C60.18,34.41,60.71,24.19,71.9,25.69Z"/><path class="cls-1" d="M60.18,46.31S59,35.65,48.47,37.59C48.47,37.59,49,47.81,60.18,46.31Z"/><path class="cls-1" d="M60.08,25.69s-1.23,10.66-11.71,8.72C48.37,34.41,48.9,24.19,60.08,25.69Z"/><path class="cls-1" d="M0,46.31s1.23-10.66,11.71-8.72C11.71,37.59,11.18,47.81,0,46.31Z"/><path class="cls-1" d="M.1,25.69s1.24,10.66,11.72,8.72C11.82,34.41,11.29,24.19.1,25.69Z"/><path class="cls-1" d="M11.82,46.31s1.23-10.66,11.71-8.72C23.53,37.59,23,47.81,11.82,46.31Z"/><path class="cls-1" d="M11.92,25.69s1.23,10.66,11.71,8.72C23.63,34.41,23.1,24.19,11.92,25.69Z"/><path class="cls-2" d="M48.37,12.74V21.9l-4.22,4.23a4.56,4.56,0,1,0,1.73,1.73l4.22-4.23h9.16V12.74ZM41.92,32.2A2.11,2.11,0,1,1,44,30.09,2.12,2.12,0,0,1,41.92,32.2Zm14.89-11h-6v-6h6Z"/><path class="cls-2" d="M45.88,44.14a4.56,4.56,0,1,0-1.73,1.73l4.22,4.23v9.16H59.26V48.37H50.1Zm-4-.13a2.11,2.11,0,1,1,2.1-2.1A2.11,2.11,0,0,1,41.92,44Zm8.9,6.81h6v6h-6Z"/><path class="cls-2" d="M30.1,25.54a4.55,4.55,0,0,0-2.23.59L23.65,21.9V12.74H12.76V23.63h9.16l4.22,4.23a4.55,4.55,0,1,0,4-2.32Zm-8.9-4.36h-6v-6h6Zm8.9,11a2.11,2.11,0,1,1,2.11-2.11A2.11,2.11,0,0,1,30.1,32.2Z"/><path class="cls-2" d="M30.1,37.36a4.54,4.54,0,0,0-4,6.78l-4.22,4.23H12.76V59.26H23.65V50.1l4.22-4.23a4.55,4.55,0,1,0,2.23-8.51ZM21.2,56.81h-6v-6h6ZM30.1,44a2.11,2.11,0,1,1,2.11-2.1A2.1,2.1,0,0,1,30.1,44Z"/></svg>