<svg xmlns="http://www.w3.org/2000/svg" viewBox="0 0 217 199"><defs><clipPath id="a"><path d="M0 792h612V0H0v792z"/></clipPath><clipPath id="b"><path d="M0 792h612V0H0v792z"/></clipPath><clipPath id="c"><path d="M242.188 570.121h112.107V456.875H242.188v113.246z"/></clipPath><clipPath id="d"><path d="M354.295 513.497c0-31.272-25.096-56.622-56.052-56.622-30.958 0-56.055 25.35-56.055 56.622 0 31.274 25.097 56.624 56.055 56.624 30.956 0 56.052-25.35 56.052-56.624"/></clipPath><clipPath id="f"><path d="M246.372 516.347c0-30.113 24.412-54.525 54.525-54.525s54.525 24.412 54.525 54.525-24.412 54.525-54.525 54.525-54.525-24.412-54.525-54.525"/></clipPath><clipPath id="h"><path d="M248.172 516.347c0-29.119 23.605-52.725 52.725-52.725 29.119 0 52.725 23.606 52.725 52.725 0 29.12-23.606 52.726-52.725 52.726-29.12 0-52.725-23.606-52.725-52.726"/></clipPath><clipPath id="j"><path d="M0 792h612V0H0v792z"/></clipPath><clipPath id="k"><path d="M0 792h612V0H0v792z"/></clipPath><clipPath id="l"><path d="M342.711 563.689h40.677V522.6h-40.677v41.089z"/></clipPath><clipPath id="p"><path d="M0 792h612V0H0v792z"/></clipPath><clipPath id="r"><path d="M0 792h612V0H0v792z"/></clipPath><clipPath id="w"><path d="M0 792h612V0H0v792z"/></clipPath><linearGradient x1="0" y1="0" x2="1" y2="0" id="g" gradientUnits="userSpaceOnUse" gradientTransform="matrix(0 -108.00151 -108.00151 0 300.897 570.09)" spreadMethod="pad"><stop offset="0" stop-color="#f4f4f4"/><stop offset="1" stop-color="#d3d2d2"/></linearGradient><linearGradient x1="0" y1="0" x2="1" y2="0" id="i" gradientUnits="userSpaceOnUse" gradientTransform="scale(104.43651) rotate(-90 4.161 1.28)" spreadMethod="pad"><stop offset="0" stop-color="#c8c7c7"/><stop offset=".955" stop-color="#fff"/><stop offset="1" stop-color="#fff"/></linearGradient><linearGradient x1="0" y1="0" x2="1" y2="0" id="n" gradientUnits="userSpaceOnUse" gradientTransform="matrix(0 -41.0082 -41.0082 0 364.043 566.706)" spreadMethod="pad"><stop offset="0" stop-color="#fff"/><stop offset="1" stop-color="#deddde"/></linearGradient><linearGradient x1="0" y1="0" x2="1" y2="0" id="o" gradientUnits="userSpaceOnUse" gradientTransform="matrix(0 35.82709 35.82709 0 364.043 528.283)" spreadMethod="pad"><stop offset="0" stop-color="#fff"/><stop offset="1" stop-color="#c8c7c7"/></linearGradient><linearGradient x1="0" y1="0" x2="1" y2="0" id="q" gradientUnits="userSpaceOnUse" gradientTransform="scale(29.71016 -29.71016) rotate(-52.083 -12.346 -21.03)" spreadMethod="pad"><stop offset="0" stop-color="#82bae7"/><stop offset="1" stop-color="#4c83cc"/></linearGradient><linearGradient x1="0" y1="0" x2="1" y2="0" id="s" gradientUnits="userSpaceOnUse" gradientTransform="scale(-38.74702 38.74702) rotate(-47.353 11.351 15.39)" spreadMethod="pad"><stop offset="0" stop-color="#b3db18"/><stop offset="1" stop-color="#28ab43"/></linearGradient><linearGradient x1="0" y1="0" x2="1" y2="0" id="t" gradientUnits="userSpaceOnUse" gradientTransform="scale(-32.40073 32.40073) rotate(41.81 -25.806 -3.884)" spreadMethod="pad"><stop offset="0" stop-color="#f35b9d"/><stop offset=".712" stop-color="#e41d25"/><stop offset=".995" stop-color="#d01a21"/><stop offset="1" stop-color="#d01a21"/></linearGradient><linearGradient x1="0" y1="0" x2="1" y2="0" id="u" gradientUnits="userSpaceOnUse" gradientTransform="matrix(22.4004 -21.40028 -21.40028 -22.40038 306.749 507.769)" spreadMethod="pad"><stop offset="0" stop-color="#9d79c3"/><stop offset="1" stop-color="#503685"/></linearGradient><linearGradient x1="0" y1="0" x2="1" y2="0" id="v" gradientUnits="userSpaceOnUse" gradientTransform="scale(37.79749 -37.79749) rotate(-50.583 -10.39 -15.426)" spreadMethod="pad"><stop offset="0" stop-color="#e1a374"/><stop offset=".755" stop-color="#d45914"/><stop offset="1" stop-color="#d45914"/></linearGradient><radialGradient cx="0" cy="0" r="1" fx="0" fy="0" id="e" gradientUnits="userSpaceOnUse" gradientTransform="matrix(56.04887 0 0 -56.62582 298.24 513.498)" spreadMethod="pad"><stop offset="0" stop-color="#868484"/><stop offset=".926" stop-color="#bdbcbc"/><stop offset=".926" stop-color="#bdbcbc"/><stop offset="1" stop-color="#fff"/></radialGradient><radialGradient cx="0" cy="0" r="1" fx="0" fy="0" id="m" gradientUnits="userSpaceOnUse" gradientTransform="matrix(20.33672 0 0 -20.54607 363.05 543.145)" spreadMethod="pad"><stop offset="0" stop-color="#868484"/><stop offset=".926" stop-color="#bdbcbc"/><stop offset=".926" stop-color="#bdbcbc"/><stop offset="1" stop-color="#fff"/></radialGradient></defs><g clip-path="url(#a)" transform="matrix(1.25 0 0 -1.25 -273.778 728.107)"><path d="M368.492 427.58H242.753c-10.603 0-19.23 8.628-19.23 19.233v111.943c0 10.603 8.627 19.23 19.23 19.23h125.74c10.603 0 19.23-8.627 19.23-19.23V446.813c0-10.605-8.627-19.232-19.23-19.232" fill="#b3db18"/><path d="M368.492 578.485H242.753c-10.88 0-19.73-8.85-19.73-19.73V446.812c0-10.879 8.85-19.73 19.73-19.73h125.74c10.88 0 19.73 8.851 19.73 19.73v111.943c0 10.88-8.85 19.73-19.73 19.73m0-1c10.301 0 18.73-8.429 18.73-18.73V446.812c0-10.302-8.429-18.73-18.73-18.73h-125.74c-10.302 0-18.73 8.428-18.73 18.73v111.943c0 10.301 8.428 18.73 18.73 18.73h125.74" fill="#fff"/></g><g clip-path="url(#b)" transform="matrix(1.25 0 0 -1.25 -273.778 728.107)"><g clip-path="url(#c)"><g clip-path="url(#d)"><path d="M354.295 513.497c0-31.272-25.096-56.622-56.052-56.622-30.958 0-56.055 25.35-56.055 56.622 0 31.274 25.097 56.624 56.055 56.624 30.956 0 56.052-25.35 56.052-56.624" fill="url(#e)"/></g></g></g><g clip-path="url(#f)" transform="matrix(1.25 0 0 -1.25 -273.778 728.107)"><path d="M246.372 516.347c0-30.113 24.412-54.525 54.525-54.525s54.525 24.412 54.525 54.525-24.412 54.525-54.525 54.525-54.525-24.412-54.525-54.525" fill="url(#g)"/></g><g clip-path="url(#h)" transform="matrix(1.25 0 0 -1.25 -273.778 728.107)"><path d="M248.172 516.347c0-29.119 23.605-52.725 52.725-52.725 29.119 0 52.725 23.606 52.725 52.725 0 29.12-23.606 52.726-52.725 52.726-29.12 0-52.725-23.606-52.725-52.726" fill="url(#i)"/></g><g clip-path="url(#j)" transform="matrix(1.25 0 0 -1.25 -273.778 728.107)"><path d="M239.448 527.078s3.01 2.94 3.058 6.22c.045 3.19-1.553 19.557-1.553 19.56 0 .24-.164.435-.364.435-.202 0-.365-.195-.365-.435l-.197-16.562c0-.267-.191-.482-.427-.484h-.297c-.235.002-.426.217-.426.484l-.202 16.599a.423.423 0 01-.411.409.423.423 0 01-.411-.41h-.001l-.202-16.598c0-.267-.19-.482-.425-.484h-.298c-.235.002-.426.217-.426.484l-.2 16.599a.424.424 0 01-.412.409.423.423 0 01-.412-.41h-.001l-.001-.02v-.005-.005l-.2-16.568c0-.267-.19-.482-.426-.484h-.298c-.235.002-.425.217-.425.484l-.203 16.599c-.012.227-.167.409-.358.409-.192 0-.347-.182-.36-.41h-.001s-1.604-16.316-1.557-19.596c.048-3.28 3.058-6.22 3.058-6.22 1.25-1.085.856-4.511.856-6.996 0-2.542-1.664-35.18-1.625-35.728.15-3.243 1.49-4.315 3.129-4.45v-.002h.023v.003c1.639.134 2.979 1.206 3.129 4.449.039.548-1.626 33.186-1.626 35.728 0 2.485-.393 5.91.857 6.996" fill="#fff"/></g><g clip-path="url(#k)" transform="matrix(1.25 0 0 -1.25 -273.778 728.107)"><g clip-path="url(#l)"><path d="M383.388 543.144c0-11.347-9.108-20.544-20.339-20.544-11.233 0-20.338 9.197-20.338 20.544 0 11.346 9.105 20.545 20.338 20.545 11.231 0 20.339-9.198 20.339-20.545" fill="url(#m)"/></g></g><path d="M343.236 546.317c0-11.493 9.316-20.809 20.808-20.809 11.493 0 20.808 9.316 20.808 20.809 0 11.491-9.315 20.807-20.808 20.807-11.492 0-20.808-9.316-20.808-20.807" fill="url(#n)" transform="matrix(1.25 0 0 -1.25 -273.778 728.107)"/><path d="M345.259 546.317c0-10.376 8.409-18.785 18.784-18.785 10.376 0 18.785 8.409 18.785 18.785 0 10.373-8.409 18.783-18.785 18.783-10.375 0-18.784-8.41-18.784-18.783" fill="url(#o)" transform="matrix(1.25 0 0 -1.25 -273.778 728.107)"/><g clip-path="url(#p)" transform="matrix(1.25 0 0 -1.25 -273.778 728.107)"><path d="M380.992 546.318c0-9.36-7.588-16.95-16.947-16.95-9.36 0-16.95 7.59-16.95 16.95s7.59 16.947 16.95 16.947 16.947-7.587 16.947-16.947" fill="#3e6ba7"/><path d="M379.527 546.318c0-8.552-6.93-15.484-15.482-15.484-8.55 0-15.484 6.932-15.484 15.484 0 8.55 6.933 15.482 15.484 15.482s15.482-6.931 15.482-15.482" fill="#82bae7"/></g><path d="M350.456 546.318c0-7.504 6.083-13.59 13.589-13.59 7.502 0 13.586 6.086 13.586 13.59 0 7.505-6.084 13.587-13.586 13.587-7.506 0-13.589-6.082-13.589-13.587" fill="url(#q)" transform="matrix(1.25 0 0 -1.25 -273.778 728.107)"/><g clip-path="url(#r)" transform="matrix(1.25 0 0 -1.25 -273.778 728.107)"><path d="M255.166 519.706a44.606 44.606 0 01-.094-1.8 45.26 45.26 0 01-.03-1.567c0-.078.003-.155.003-.233.119-23.86 18.446-43.407 41.797-45.475a46.367 46.367 0 013.6-.186v49.261h-45.276z" fill="#168235"/><path d="M298.643 562.176a46.185 46.185 0 01-1.8-.125c-20.358-1.803-36.894-16.893-40.88-36.543a46.38 46.38 0 01-.583-3.6h45.063v40.325a46.582 46.582 0 01-1.8-.057" fill="#a9151a"/><path d="M302.642 511.24V470.472a46.498 46.498 0 013.6.277c19.966 2.296 36.03 17.4 39.771 36.89a48.268 48.268 0 01.546 3.6h-43.917z" fill="#3f2a66"/><path d="M346.834 517.04c-.348 23.238-17.967 42.284-40.592 44.886a46.07 46.07 0 01-3.6.28v-48.767h44.106c.038.597.061 1.198.076 1.8.009.366.018.732.018 1.1 0 .234-.004.467-.008.7" fill="#a9460f"/><path d="M256.45 517.905a42.933 42.933 0 01-.03-1.567l.002-.233c.118-23.1 17.83-42.03 40.42-44.094a46.453 46.453 0 011.8-.13v46.024H256.45z" fill="#b3db18"/><path d="M296.842 560.668c-19.596-1.79-35.52-16.273-39.474-35.161a44.292 44.292 0 01-.339-1.8h41.613v37.09a44.553 44.553 0 01-1.8-.129" fill="#f35b9d"/><path d="M304.442 509.438v-37.48c.604.045 1.203.106 1.8.177 19.204 2.278 34.657 16.776 38.367 35.503.12.596.226 1.196.32 1.8h-40.487z" fill="#9d79c3"/><path d="M345.457 517.038c-.347 22.48-17.352 40.907-39.215 43.501-.597.071-1.196.133-1.8.18v-45.48h41.004c.01.365.019.731.019 1.1 0 .233-.004.466-.008.7" fill="#e1a374"/></g><path d="M258.719 516.104c.119-21.832 16.805-39.734 38.126-41.79v41.79h-38.126z" fill="url(#s)" transform="matrix(1.25 0 0 -1.25 -273.778 728.107)"/><path d="M259.718 525.505h37.127v32.859c-18.326-1.767-33.226-15.243-37.127-32.859" fill="url(#t)" transform="matrix(1.25 0 0 -1.25 -273.778 728.107)"/><path d="M306.245 507.637v-33.193c17.935 2.245 32.371 15.737 36.028 33.193h-36.028z" fill="url(#u)" transform="matrix(1.25 0 0 -1.25 -273.778 728.107)"/><path d="M306.245 517.037h36.92c-.345 21.21-16.327 38.611-36.92 41.191v-41.191z" fill="url(#v)" transform="matrix(1.25 0 0 -1.25 -273.778 728.107)"/><g clip-path="url(#w)" transform="matrix(1.25 0 0 -1.25 -273.778 728.107)"><path d="M232.46 447.411v.031c0 3.047 2.277 5.571 5.447 5.571 1.955 0 3.124-.693 4.201-1.708l-.83-.893c-.908.862-1.924 1.477-3.386 1.477-2.386 0-4.17-1.939-4.17-4.416v-.03c0-2.494 1.8-4.449 4.17-4.449 1.477 0 2.446.57 3.478 1.555l.8-.785c-1.122-1.139-2.354-1.893-4.308-1.893-3.11 0-5.402 2.446-5.402 5.54M243.324 453.29h1.185v-4.663c.523.861 1.354 1.554 2.724 1.554 1.924 0 3.047-1.292 3.047-3.186v-4.939h-1.185v4.647c0 1.477-.8 2.4-2.2 2.4-1.37 0-2.386-1-2.386-2.493v-4.554h-1.185v11.234zM258.236 445.995v.03c0 1.71-1.277 3.11-2.955 3.11-1.724 0-2.908-1.4-2.908-3.078v-.032c0-1.708 1.261-3.093 2.94-3.093 1.723 0 2.923 1.385 2.923 3.063m-7.079 0v.03c0 2.247 1.754 4.156 4.155 4.156 2.385 0 4.14-1.877 4.14-4.124v-.032c0-2.247-1.77-4.154-4.17-4.154-2.386 0-4.125 1.877-4.125 4.124M267.023 445.995v.03c0 1.71-1.277 3.11-2.955 3.11-1.724 0-2.908-1.4-2.908-3.078v-.032c0-1.708 1.261-3.093 2.94-3.093 1.723 0 2.923 1.385 2.923 3.063m-7.079 0v.03c0 2.247 1.754 4.156 4.155 4.156 2.385 0 4.14-1.877 4.14-4.124v-.032c0-2.247-1.77-4.154-4.17-4.154-2.386 0-4.125 1.877-4.125 4.124M268.562 443.07l.6.848c.862-.646 1.816-1.016 2.755-1.016.954 0 1.646.493 1.646 1.262v.03c0 .8-.938 1.109-1.984 1.4-1.247.355-2.632.786-2.632 2.248v.03c0 1.37 1.138 2.279 2.708 2.279.97 0 2.047-.34 2.863-.878l-.54-.892c-.738.477-1.584.769-2.353.769-.94 0-1.54-.492-1.54-1.154v-.031c0-.754.985-1.046 2.047-1.37 1.232-.37 2.555-.846 2.555-2.277v-.031c0-1.508-1.247-2.385-2.832-2.385-1.14 0-2.4.446-3.293 1.169M281.565 446.503c-.139 1.446-.97 2.678-2.54 2.678-1.369 0-2.416-1.14-2.585-2.678h5.125zm-2.324-3.602c1.093 0 1.862.447 2.51 1.124l.737-.662c-.8-.892-1.77-1.492-3.278-1.492-2.186 0-3.97 1.677-3.97 4.154 0 2.309 1.615 4.156 3.816 4.156 2.355 0 3.71-1.877 3.71-4.217 0-.107 0-.231-.016-.415h-6.31c.17-1.678 1.4-2.648 2.801-2.648" fill="#fff"/><path d="M283.827 452.828h3.755l2.308-3.786 2.31 3.786h3.754v-10.772h-3.586v5.34l-2.478-3.833h-.06l-2.479 3.832v-5.339h-3.524v10.772zM296.784 440.424l1.016 2.386c.63-.354 1.215-.555 1.54-.555.2 0 .383.03.568.123l-3.293 8.08h3.616l1.462-4.432 1.34 4.432h3.555l-2.909-7.818c-.816-2.2-1.708-3.093-3.648-3.093-1.216 0-2.309.354-3.247.877M311.788 447.55c.924 0 1.54.415 1.54 1.185v.03c0 .785-.57 1.185-1.524 1.185h-.986v-2.4h.97zm-4.57 5.278h4.847c2.863 0 4.818-1.277 4.818-3.832v-.03c0-2.602-1.987-3.986-4.895-3.986h-1.17v-2.924h-3.6v10.772zM317.59 453.29h3.493v-11.234h-3.493v11.234zM327.054 445.164v.354c-.2.077-.508.138-.8.138-.693 0-1.078-.415-1.078-.938v-.032c0-.492.355-.815.8-.815.616 0 1.078.493 1.078 1.293m-5.217-.724v.031c0 1.677 1.246 2.617 3.2 2.617.709 0 1.617-.154 1.987-.308v.14c0 .768-.478 1.215-1.555 1.215-.861 0-1.585-.186-2.324-.478l-.615 2.324c.968.37 2.078.616 3.539.616 1.709 0 2.816-.354 3.555-1.093.63-.63.877-1.447.877-2.663v-4.785h-3.493v.845c-.585-.63-1.37-1.046-2.416-1.046-1.616 0-2.755.923-2.755 2.585M332.057 444.871v2.894h-.985v2.693h.985v2.108h3.494v-2.108h1.939v-2.693h-1.94v-2.123c0-.632.293-.863.847-.863.323 0 .692.092 1.062.262v-2.693c-.554-.292-1.385-.477-2.232-.477-2.062 0-3.17.954-3.17 3M343.292 446.98c-.077.8-.554 1.262-1.169 1.262-.585 0-1.001-.493-1.108-1.262h2.277zm-5.509-.77v.032c0 2.508 1.8 4.416 4.324 4.416 2.986 0 4.372-2.078 4.372-4.633 0-.185 0-.4-.016-.585h-5.402c.246-.738.831-1.123 1.585-1.123.631 0 1.155.293 1.709.862l1.877-1.492c-.832-1.077-2.016-1.831-3.833-1.831-2.754 0-4.616 1.738-4.616 4.354" fill="#231f20"/><path d="M347.908 443.671h1.416v-1.616h-1.416v1.616zM356.941 446.41v.032c0 1.632-1.416 2.693-2.924 2.693s-2.755-1.047-2.755-2.678v-.031c0-1.6 1.278-2.71 2.755-2.71 1.508 0 2.924 1.094 2.924 2.695m-6.525-5.741l.54.924c.907-.662 1.922-1.016 3.061-1.016 1.754 0 2.894.97 2.894 2.832v.938c-.693-.923-1.662-1.677-3.124-1.677-1.909 0-3.74 1.43-3.74 3.725v.03c0 2.324 1.847 3.756 3.74 3.756 1.492 0 2.462-.74 3.108-1.602v1.432h1.185v-6.571c0-1.232-.369-2.17-1.016-2.817-.707-.708-1.769-1.061-3.03-1.061-1.324 0-2.556.369-3.618 1.107M366.16 445.995v.03c0 1.71-1.277 3.11-2.955 3.11-1.724 0-2.909-1.4-2.909-3.078v-.032c0-1.708 1.261-3.093 2.94-3.093 1.723 0 2.924 1.385 2.924 3.063m-7.08 0v.03c0 2.247 1.754 4.156 4.155 4.156 2.386 0 4.14-1.877 4.14-4.124v-.032c0-2.247-1.77-4.154-4.17-4.154-2.386 0-4.125 1.877-4.125 4.124M367.112 450.012h1.31l2.676-6.603 2.694 6.603h1.277l-3.463-8.018h-1.046l-3.448 8.018zM313.303 534.856c1.305 0 1.942-.675 1.942-.675l-.554-.705s-.555.473-1.365.473c-.922 0-1.71-.728-1.71-1.808 0-1.162.795-1.874 1.748-1.874.847 0 1.349.555 1.349.555v.397c0 .113-.06.165-.165.165h-.322v.832h.862c.36 0 .51-.149.51-.502v-2.272h-.84v.255c0 .113.008.225.008.225h-.016s-.57-.57-1.566-.57c-1.395 0-2.588 1.065-2.588 2.782 0 1.53 1.163 2.722 2.707 2.722M316.62 532.292c0 .112-.062.165-.167.165h-.3v.81h.87c.338 0 .51-.143.51-.465v-.225c0-.142-.015-.24-.015-.24h.015c.173.547.63.982 1.215.982.082 0 .173-.015.173-.015v-.937s-.098.015-.234.015c-.404 0-.869-.233-1.04-.802a2.335 2.335 0 01-.084-.623v-1.515h-.944v2.85zM320.646 530.095c.51 0 .87.54.87 1.005v.09h-.165c-.495 0-1.282-.068-1.282-.6 0-.255.187-.495.577-.495m.735 1.747h.119v.03c0 .548-.216.75-.704.75-.172 0-.51-.045-.51-.255v-.202h-.884v.405c0 .712 1.005.787 1.4.787 1.277 0 1.652-.667 1.652-1.522v-1.425c0-.105.059-.165.164-.165h.3v-.802h-.855c-.352 0-.486.195-.486.42 0 .097.007.165.007.165h-.015s-.293-.675-1.155-.675c-.683 0-1.304.428-1.304 1.192 0 1.2 1.648 1.297 2.27 1.297M323.759 534.767h.825v-.877h-.825v.877zm-.045-2.475c0 .112-.061.165-.165.165h-.3v.81h.907c.353 0 .502-.158.502-.51v-2.347c0-.105.061-.165.165-.165h.3v-.803h-.907c-.353 0-.502.151-.502.511v2.339zM325.926 532.292c0 .112-.06.165-.165.165h-.3v.81h.877c.338 0 .503-.158.503-.428v-.112c0-.082-.015-.165-.015-.165h.015a1.47 1.47 0 001.35.794c.847 0 1.335-.442 1.335-1.454v-1.492c0-.105.059-.165.164-.165h.3v-.803h-.908c-.36 0-.51.151-.51.511v1.754c0 .465-.12.78-.6.78-.51 0-.891-.322-1.026-.78a1.626 1.626 0 01-.075-.51v-1.755h-.945v2.85zM330.764 530.657s.487-.563 1.14-.563c.292 0 .517.121.517.375 0 .541-2.017.533-2.017 1.77 0 .765.69 1.117 1.485 1.117.518 0 1.342-.172 1.342-.794v-.398h-.84v.188c0 .18-.27.27-.481.27-.336 0-.57-.12-.57-.345 0-.6 2.033-.48 2.033-1.755 0-.719-.637-1.17-1.47-1.17-1.05 0-1.59.683-1.59.683l.45.622zM356.133 545.107h.48c1.065 0 1.748.637 1.748 1.837 0 1.185-.698 1.822-1.748 1.822h-.644v-3.494c0-.105.06-.165.164-.165m-1.146 3.659h-.49v.833h2.169c1.642 0 2.714-.975 2.714-2.655 0-1.68-1.072-2.67-2.714-2.67h-1.17c-.36 0-.51.15-.51.51v3.982zM361.428 544.927c.51 0 .87.54.87 1.005v.09h-.165c-.494 0-1.281-.068-1.281-.6 0-.255.186-.495.576-.495m.735 1.747h.12v.03c0 .548-.217.75-.705.75-.171 0-.51-.045-.51-.255v-.202h-.884v.405c0 .712 1.005.787 1.402.787 1.275 0 1.65-.667 1.65-1.522v-1.425c0-.105.059-.165.165-.165h.299v-.802h-.854c-.353 0-.488.195-.488.42 0 .097.008.165.008.165h-.015s-.292-.675-1.155-.675c-.682 0-1.305.428-1.305 1.192 0 1.2 1.65 1.297 2.272 1.297M364.541 549.599h.825v-.878h-.825v.878zm-.045-2.475c0 .112-.06.165-.165.165h-.3v.81h.907c.353 0 .502-.158.502-.51v-2.347c0-.105.061-.165.165-.165h.3v-.803h-.907c-.352 0-.502.151-.502.511v2.339zM366.708 547.124c0 .112-.06.165-.165.165h-.3v.81h.87c.338 0 .51-.143.51-.465v-.225c0-.142-.015-.24-.015-.24h.015c.172.547.63.982 1.215.982.082 0 .173-.015.173-.015v-.937s-.098.015-.234.015c-.404 0-.869-.233-1.041-.802a2.341 2.341 0 01-.083-.623v-1.515h-.945v2.85zM370.195 543.502c.263 0 .495.158.63.487l.128.293-1.276 2.872c-.045.112-.097.135-.202.135h-.112v.81h.63c.27 0 .405-.098.503-.36l.75-1.912c.074-.196.135-.51.135-.51h.014s.06.314.127.51l.652 1.911c.091.263.248.36.51.36h.646v-.809h-.114c-.112 0-.17-.023-.216-.135l-1.373-3.457c-.27-.69-.809-.997-1.379-.997-.6 0-.967.39-.967.39l.367.674s.233-.262.547-.262M270.959 538.724h-.488v.832h3.037c.36 0 .51-.157.51-.51v-.81h-.885v.323c0 .105-.06.165-.165.165h-1.028v-1.507h1.702v-.833h-1.702v-2.151h-.982v4.49zM274.783 537.081c0 .113-.06.165-.165.165h-.3v.81h.87c.337 0 .51-.142.51-.465v-.225c0-.142-.015-.24-.015-.24h.015c.172.548.63.982 1.215.982.082 0 .172-.014.172-.014v-.938s-.097.015-.233.015c-.404 0-.869-.232-1.042-.802a2.329 2.329 0 01-.082-.622v-1.515h-.945v2.85zM277.903 537.081c0 .113-.06.165-.165.165h-.3v.81h.907c.353 0 .503-.158.503-.502v-1.762c0-.465.12-.78.592-.78.69 0 1.072.607 1.072 1.29v1.754h.953V535.2c0-.104.06-.165.165-.165h.3v-.802h-.878c-.33 0-.502.158-.502.428v.105c0 .09.007.172.007.172h-.014c-.18-.398-.66-.795-1.32-.795-.818 0-1.32.413-1.32 1.455v1.484zM282.778 539.556h.825v-.877h-.825v.877zm-.045-2.475c0 .113-.06.165-.165.165h-.299v.81h.907c.352 0 .502-.158.502-.51v-2.347c0-.104.06-.165.165-.165h.3v-.802h-.908c-.352 0-.502.15-.502.51v2.339zM284.96 537.299h-.495v.757h.517v1.043h.931v-1.043h.87v-.757h-.87v-1.545c0-.63.494-.72.756-.72.105 0 .173.015.173.015v-.832s-.12-.022-.293-.022c-.532 0-1.589.157-1.589 1.439v1.665zM287.735 535.447s.487-.562 1.14-.562c.293 0 .517.12.517.375 0 .54-2.017.532-2.017 1.77 0 .764.69 1.117 1.485 1.117.517 0 1.342-.173 1.342-.795v-.398h-.84v.188c0 .18-.27.269-.48.269-.337 0-.57-.12-.57-.344 0-.6 2.032-.48 2.032-1.755 0-.72-.637-1.17-1.469-1.17-1.05 0-1.59.682-1.59.682l.45.623zM260.8 506.968c-.045.128-.105.165-.232.165h-.135v.833h.622c.375 0 .51-.098.63-.435l1.019-2.97c.106-.3.202-.78.202-.78h.016s.097.48.202.78l1.02 2.97c.12.337.248.435.623.435h.63v-.833h-.143c-.128 0-.188-.037-.232-.165l-1.59-4.326h-1.035l-1.597 4.326zM267.834 505.049c-.015.457-.33.772-.72.772-.487 0-.832-.293-.937-.772h1.657zm-.72 1.507c1.095 0 1.695-.802 1.695-1.815 0-.112-.023-.352-.023-.352h-2.639c.075-.675.57-1.028 1.147-1.028.615 0 1.073.428 1.073.428l.397-.66s-.585-.577-1.537-.577c-1.268 0-2.055.915-2.055 2.002 0 1.177.795 2.002 1.942 2.002M272.012 504.644c0 .87-.435 1.103-.952 1.103-.577 0-.893-.42-.893-1.065 0-.668.338-1.163.952-1.163.458 0 .893.263.893 1.125m-1.117 1.912c.885 0 1.177-.54 1.177-.54h.015v.098c0 .172.12.352.42.352h.885v-.81h-.293c-.097 0-.165-.052-.165-.15v-2.632c0-1.312-1.02-1.806-2.017-1.806-.48 0-.99.135-1.357.329l.293.75s.47-.255 1.056-.255c.578 0 1.08.248 1.08.938v.179c0 .09.008.203.008.203h-.015c-.225-.323-.555-.495-1.065-.495-1.094 0-1.717.885-1.717 1.935s.592 1.904 1.695 1.904M276.302 505.049c-.015.457-.33.772-.72.772-.488 0-.832-.293-.937-.772h1.657zm-.72 1.507c1.095 0 1.695-.802 1.695-1.815 0-.112-.023-.352-.023-.352h-2.64c.076-.675.57-1.028 1.148-1.028.615 0 1.072.428 1.072.428l.398-.66s-.585-.577-1.537-.577c-1.268 0-2.055.915-2.055 2.002 0 1.177.795 2.002 1.942 2.002M278.065 505.709h-.495v.757h.517v1.042h.93v-1.042h.87v-.757h-.87v-1.544c0-.63.495-.721.758-.721a.88.88 0 01.172.015v-.832s-.12-.022-.292-.022c-.532 0-1.59.157-1.59 1.439v1.665zM281.815 503.294c.51 0 .87.54.87 1.005v.09h-.165c-.495 0-1.282-.068-1.282-.6 0-.255.187-.495.577-.495m.734 1.747h.12v.03c0 .547-.217.75-.705.75-.171 0-.51-.045-.51-.255v-.203h-.885v.406c0 .712 1.005.787 1.402.787 1.275 0 1.65-.668 1.65-1.523v-1.424c0-.105.06-.165.165-.165h.3v-.802h-.855c-.353 0-.487.195-.487.42 0 .097.008.165.008.165h-.016s-.292-.675-1.154-.675c-.683 0-1.305.427-1.305 1.192 0 1.199 1.65 1.297 2.271 1.297M286.546 503.354c.518 0 .96.427.96 1.185 0 .727-.39 1.199-.952 1.199-.495 0-.96-.36-.96-1.207 0-.593.315-1.177.952-1.177m-1.875 3.636c0 .113-.059.165-.165.165h-.299v.81h.907c.352 0 .51-.157.51-.51v-1.109a3.24 3.24 0 00-.015-.323h.015s.338.533 1.147.533c1.035 0 1.694-.818 1.694-2.002 0-1.215-.742-2.002-1.754-2.002-.795 0-1.14.54-1.14.54h-.015s.015-.106.015-.255v-.195h-.9v4.348zM289.104 506.99c0 .113-.06.165-.165.165h-.3v.81h.907c.353 0 .51-.158.51-.51v-3.846c0-.105.061-.165.165-.165h.293v-.803h-.9c-.36 0-.51.15-.51.51v3.84zM293.439 505.049c-.015.457-.33.772-.72.772-.488 0-.832-.293-.937-.772h1.657zm-.72 1.507c1.095 0 1.695-.802 1.695-1.815 0-.112-.023-.352-.023-.352h-2.639c.075-.675.569-1.028 1.147-1.028.615 0 1.072.428 1.072.428l.397-.66s-.584-.577-1.536-.577c-1.268 0-2.055.915-2.055 2.002 0 1.177.795 2.002 1.942 2.002M295.202 503.856s.488-.563 1.14-.563c.292 0 .517.121.517.375 0 .541-2.017.533-2.017 1.77 0 .765.69 1.117 1.485 1.117.517 0 1.342-.172 1.342-.795v-.397h-.84v.187c0 .18-.27.27-.48.27-.337 0-.57-.119-.57-.345 0-.599 2.032-.479 2.032-1.754 0-.72-.637-1.17-1.47-1.17-1.05 0-1.59.682-1.59.682l.45.623zM311.654 498.66c.555 0 .87.36.87.915 0 .547-.315.9-.854.9h-.803v-1.815h.787zm-1.77 1.814h-.487v.832h2.437c.998 0 1.695-.697 1.695-1.73 0-1.036-.697-1.756-1.695-1.756h-.967v-1.837h-.983v4.491zM314.303 498.832c0 .113-.061.165-.165.165h-.3v.81h.869c.338 0 .51-.142.51-.465v-.225c0-.142-.015-.24-.015-.24h.015c.173.548.63.982 1.215.982.082 0 .173-.014.173-.014v-.938s-.098.015-.233.015c-.405 0-.87-.232-1.042-.802a2.328 2.328 0 01-.083-.622v-1.515h-.944v2.849zM318.959 496.703c.623 0 1.141.48 1.141 1.192 0 .704-.518 1.192-1.141 1.192-.614 0-1.132-.488-1.132-1.192 0-.713.518-1.192 1.132-1.192m0 3.194c1.17 0 2.1-.833 2.1-2.002 0-1.177-.93-2.002-2.1-2.002-1.162 0-2.092.825-2.092 2.002 0 1.17.93 2.002 2.092 2.002M321.938 499.05h-.495v.757h.517v1.043h.93v-1.043h.87v-.757h-.87v-1.545c0-.63.495-.72.757-.72.105 0 .173.015.173.015v-.832s-.12-.022-.292-.022c-.533 0-1.59.157-1.59 1.439v1.665zM326.917 498.39c-.015.458-.33.772-.72.772-.488 0-.833-.292-.937-.772h1.657zm-.72 1.507c1.094 0 1.695-.802 1.695-1.814 0-.113-.023-.352-.023-.352h-2.64c.076-.675.57-1.028 1.148-1.028.615 0 1.072.428 1.072.428l.397-.66s-.584-.578-1.536-.578c-1.268 0-2.055.915-2.055 2.002 0 1.178.795 2.002 1.942 2.002M328.89 501.307h.825v-.877h-.825v.877zm-.045-2.475c0 .113-.06.165-.165.165h-.3v.81h.907c.353 0 .502-.158.502-.51v-2.347c0-.104.061-.165.166-.165h.299v-.802h-.907c-.353 0-.502.15-.502.51v2.339zM331.057 498.832c0 .113-.06.165-.164.165h-.301v.81h.878c.337 0 .502-.158.502-.427v-.113c0-.082-.015-.164-.015-.164h.015a1.47 1.47 0 001.35.794c.847 0 1.335-.442 1.335-1.455v-1.492c0-.104.059-.165.165-.165h.299v-.802h-.907c-.36 0-.51.15-.51.51v1.755c0 .464-.12.779-.6.779-.51 0-.892-.322-1.027-.779a1.637 1.637 0 01-.075-.511v-1.754h-.945v2.849z" fill="#fff"/></g></svg>