<svg xmlns="http://www.w3.org/2000/svg" viewBox="0 0 222 199"><defs><linearGradient x1="0" y1="0" x2="1" y2="0" gradientUnits="userSpaceOnUse" gradientTransform="scale(1110.12) rotate(-90 .978 .286)" spreadMethod="pad" id="b"><stop offset="0" stop-color="#f5f6f5"/><stop offset=".018" stop-color="#f5f6f5"/><stop offset="1" stop-color="#f0eff0"/></linearGradient><linearGradient x1="0" y1="0" x2="1" y2="0" gradientUnits="userSpaceOnUse" gradientTransform="matrix(0 -1073.48 -1073.48 0 768.22 1384.82)" spreadMethod="pad" id="d"><stop offset="0" stop-color="#ebebea"/><stop offset=".955" stop-color="#fff"/><stop offset="1" stop-color="#fff"/></linearGradient><linearGradient x1="0" y1="0" x2="1" y2="0" gradientUnits="userSpaceOnUse" gradientTransform="matrix(0 -421.513 -421.513 0 1417.29 1368.26)" spreadMethod="pad" id="f"><stop offset="0" stop-color="#fff"/><stop offset="1" stop-color="#e8e9e9"/></linearGradient><linearGradient x1="0" y1="0" x2="1" y2="0" gradientUnits="userSpaceOnUse" gradientTransform="matrix(0 368.258 368.258 0 1417.29 973.318)" spreadMethod="pad" id="h"><stop offset="0" stop-color="#fff"/><stop offset="1" stop-color="#f0eff0"/></linearGradient><clipPath clipPathUnits="userSpaceOnUse" id="a"><path d="M1328.66 850.633c0-309.524-250.91-560.453-560.441-560.453-309.52 0-560.446 250.929-560.446 560.453 0 309.527 250.926 560.447 560.446 560.447 309.531 0 560.441-250.92 560.441-560.447z"/></clipPath><clipPath clipPathUnits="userSpaceOnUse" id="c"><path d="M1310.17 850.633c0-299.309-242.65-541.942-541.951-541.942-299.313 0-541.949 242.633-541.949 541.942 0 299.317 242.636 541.947 541.949 541.947 299.301 0 541.951-242.63 541.951-541.947z"/></clipPath><clipPath clipPathUnits="userSpaceOnUse" id="e"><path d="M1631.17 1158.68c0-118.13-95.74-213.887-213.87-213.887-118.13 0-213.89 95.757-213.89 213.887 0 118.12 95.76 213.87 213.89 213.87 118.13 0 213.87-95.75 213.87-213.87z"/></clipPath><clipPath clipPathUnits="userSpaceOnUse" id="g"><path d="M1610.37 1158.68c0-106.64-86.43-193.078-193.08-193.078s-193.09 86.438-193.09 193.078 86.44 193.07 193.09 193.07 193.08-86.43 193.08-193.07z"/></clipPath></defs><path d="M222.223 174.227c0 13.735-11.239 24.973-24.974 24.973H24.974C11.239 199.2 0 187.962 0 174.227V24.969C0 11.235 11.239-.004 24.974-.004h172.275c13.735 0 24.974 11.239 24.974 24.973v149.258" fill="#2b668e"/><g clip-path="url(#a)" transform="matrix(.13333 0 0 -.13333 0 199.2)"><path d="M1328.66 850.633c0-309.524-250.91-560.453-560.441-560.453-309.52 0-560.446 250.929-560.446 560.453 0 309.527 250.926 560.447 560.446 560.447 309.531 0 560.441-250.92 560.441-560.447" fill="url(#b)"/></g><g clip-path="url(#c)" transform="matrix(.13333 0 0 -.13333 0 199.2)"><path d="M1310.17 850.633c0-299.309-242.65-541.942-541.951-541.942-299.313 0-541.949 242.633-541.949 541.942 0 299.317 242.636 541.947 541.949 541.947 299.301 0 541.951-242.63 541.951-541.947" fill="url(#d)"/></g><path d="M17.29 76.383s4.015-3.922 4.077-8.294c.06-4.253-2.07-26.076-2.07-26.08 0-.32-.219-.581-.487-.581s-.485.261-.485.581l-.264 22.083c0 .356-.254.643-.568.645h-.397c-.313-.002-.567-.289-.567-.645l-.27-22.132c-.017-.303-.255-.545-.547-.545-.294 0-.53.242-.548.545h-.003l-.268 22.132c0 .356-.253.643-.568.645h-.396c-.314-.002-.568-.289-.568-.645l-.266-22.132c-.018-.303-.255-.545-.55-.545-.293 0-.532.242-.55.545h-.001v.025l-.002.01.001.006-.267 22.091c0 .356-.254.643-.568.645h-.398c-.313-.002-.566-.289-.566-.645L9.923 41.96c-.015-.303-.223-.545-.478-.545s-.462.242-.477.545h-.003s-2.14 21.756-2.077 26.13c.064 4.371 4.078 8.293 4.078 8.293 1.667 1.447 1.142 6.014 1.142 9.328 0 3.388-2.22 46.906-2.167 47.637.2 4.324 1.986 5.752 4.171 5.932v.004l.016-.001h.015v-.003c2.185-.18 3.972-1.608 4.172-5.932.052-.731-2.168-44.249-2.168-47.637 0-3.314-.525-7.881 1.143-9.328" fill="#fff"/><g clip-path="url(#e)" transform="matrix(.13333 0 0 -.13333 0 199.2)"><path d="M1631.17 1158.68c0-118.13-95.74-213.887-213.87-213.887-118.13 0-213.89 95.757-213.89 213.887 0 118.12 95.76 213.87 213.89 213.87 118.13 0 213.87-95.75 213.87-213.87" fill="url(#f)"/></g><g clip-path="url(#g)" transform="matrix(.13333 0 0 -.13333 0 199.2)"><path d="M1610.37 1158.68c0-106.64-86.43-193.078-193.08-193.078s-193.09 86.438-193.09 193.078 86.44 193.07 193.09 193.07 193.08-86.43 193.08-193.07" fill="url(#h)"/></g><path d="M212.2 44.707c0 12.828-10.399 23.232-23.225 23.232-12.83 0-23.231-10.404-23.231-23.232s10.401-23.226 23.23-23.226c12.827 0 23.226 10.398 23.226 23.226" fill="#4c82cb"/><path d="M39.755 81.179a62.26 62.26 0 00-.129 2.467c-.025.713-.04 1.428-.04 2.147 0 .107.004.213.004.32.162 32.7 25.28 59.49 57.282 62.323a62.44 62.44 0 004.934.255V81.179H39.755" fill="#66bd30"/><path d="M99.34 22.975c-.827.04-1.65.098-2.468.172-27.9 2.469-50.563 23.15-56.024 50.08a62.984 62.984 0 00-.8 4.935h61.758V22.896a62.87 62.87 0 00-2.466.079" fill="#d91e25"/><path d="M104.82 92.782v55.87a60.4 60.4 0 002.469-.142 62.08 62.08 0 002.466-.237c27.364-3.146 49.38-23.846 54.505-50.556.157-.818.299-1.64.425-2.467.123-.818.234-1.64.323-2.468h-60.187" fill="#573e99"/><path d="M165.385 84.834c-.476-31.849-24.624-57.953-55.63-61.518a65.232 65.232 0 00-4.934-.381v66.833h60.447c.052-.818.084-1.641.104-2.467.012-.502.025-1.003.025-1.508 0-.32-.006-.639-.012-.96" fill="#e7621a"/><path d="M119.431 60.415c1.788 0 2.663.925 2.663.925l-.76.967s-.761-.648-1.87-.648c-1.265 0-2.344.997-2.344 2.477 0 1.593 1.09 2.568 2.395 2.568 1.161 0 1.849-.76 1.849-.76V65.4c0-.155-.081-.227-.226-.227h-.441v-1.14h1.18c.493 0 .7.204.7.688v3.114h-1.151v-.349c0-.155.01-.309.01-.309h-.02s-.782.782-2.148.782c-1.911 0-3.547-1.46-3.547-3.814 0-2.096 1.594-3.73 3.71-3.73M123.977 63.93c0-.154-.084-.226-.228-.226h-.41v-1.11h1.191c.464 0 .7.195.7.637v.308c0 .196-.02.329-.02.329h.02c.236-.75.863-1.347 1.665-1.347.112 0 .237.022.237.022v1.284s-.135-.02-.32-.02c-.555 0-1.192.318-1.428 1.098a3.183 3.183 0 00-.113.855v2.075h-1.294V63.93M129.495 66.941c.7 0 1.192-.74 1.192-1.377v-.124h-.226c-.678 0-1.758.093-1.758.823 0 .349.258.678.792.678zm1.008-2.394h.163v-.042c0-.75-.297-1.028-.965-1.028-.237 0-.698.062-.698.35v.278h-1.214v-.556c0-.976 1.378-1.077 1.92-1.077 1.75 0 2.262.913 2.262 2.084v1.953c0 .145.083.226.226.226h.412v1.1h-1.173c-.481 0-.666-.267-.666-.576 0-.133.01-.226.01-.226h-.02s-.402.926-1.584.926c-.935 0-1.786-.587-1.786-1.635 0-1.644 2.258-1.777 3.113-1.777M133.761 60.539h1.131v1.201h-1.13zm-.061 3.392c0-.155-.083-.227-.225-.227h-.412v-1.11h1.244c.482 0 .686.215.686.7v3.215c0 .145.084.226.227.226h.412v1.1h-1.244c-.483 0-.688-.206-.688-.699v-3.205M136.732 63.93c0-.154-.083-.226-.227-.226h-.412v-1.11h1.203c.463 0 .69.215.69.586v.155c0 .112-.02.225-.02.225h.02c.225-.441.79-1.088 1.849-1.088 1.161 0 1.829.605 1.829 1.992v2.045c0 .145.083.226.225.226h.414v1.1h-1.246c-.493 0-.698-.206-.698-.699v-2.404c0-.637-.163-1.07-.823-1.07-.699 0-1.221.443-1.407 1.07a2.203 2.203 0 00-.101.699v2.404h-1.296V63.93M143.363 66.17s.668.771 1.561.771c.399 0 .71-.164.71-.513 0-.74-2.766-.73-2.766-2.425 0-1.05.945-1.531 2.036-1.531.71 0 1.839.235 1.839 1.088v.545h-1.152v-.257c0-.248-.37-.37-.659-.37-.46 0-.78.165-.78.471 0 .823 2.785.659 2.785 2.406 0 .987-.873 1.604-2.013 1.604-1.44 0-2.179-.937-2.179-.937l.618-.852M178.13 46.367h.658c1.46 0 2.395-.874 2.395-2.518 0-1.624-.956-2.497-2.395-2.497h-.883v4.79c0 .143.082.225.226.225zm-1.571-5.015h-.67v-1.14h2.972c2.25 0 3.719 1.336 3.719 3.637 0 2.302-1.47 3.659-3.719 3.659h-1.604c-.494 0-.698-.205-.698-.7v-5.456M185.387 46.613c.7 0 1.193-.74 1.193-1.376v-.124h-.227c-.677 0-1.757.094-1.757.823 0 .35.257.677.79.677zm1.008-2.393h.164v-.041c0-.751-.299-1.03-.967-1.03-.235 0-.697.063-.697.351v.277h-1.214v-.554c0-.978 1.378-1.079 1.922-1.079 1.748 0 2.262.913 2.262 2.085v1.952c0 .146.08.227.226.227h.41v1.1h-1.172c-.482 0-.669-.268-.669-.575 0-.134.012-.226.012-.226h-.021s-.399.924-1.583.924c-.933 0-1.788-.586-1.788-1.634 0-1.645 2.261-1.777 3.115-1.777M189.653 40.212h1.131v1.203h-1.13zm-.062 3.39c0-.153-.082-.226-.224-.226h-.412v-1.11h1.244c.482 0 .686.217.686.7v3.215c0 .146.084.227.227.227h.412v1.1h-1.244c-.481 0-.69-.205-.69-.7v-3.205M192.624 43.603c0-.154-.083-.227-.227-.227h-.412v-1.11h1.194c.464 0 .698.195.698.638v.308c0 .195-.02.328-.02.328h.02c.236-.75.864-1.345 1.664-1.345.114 0 .238.02.238.02V43.5s-.134-.02-.319-.02c-.555 0-1.192.317-1.427 1.099a3.123 3.123 0 00-.113.853v2.076h-1.296v-3.905M197.403 48.567c.36 0 .678-.218.862-.668l.176-.402-1.748-3.936c-.061-.154-.133-.185-.276-.185h-.156v-1.11h.864c.37 0 .556.135.69.494l1.026 2.62c.103.268.187.699.187.699h.019s.082-.431.174-.699l.895-2.62c.124-.359.339-.493.697-.493h.887v1.109h-.157c-.154 0-.235.03-.296.185l-1.882 4.738c-.37.945-1.108 1.366-1.889 1.366-.823 0-1.327-.534-1.327-.534l.504-.924s.319.36.75.36M61.398 55.116h-.668v-1.141h4.163c.492 0 .698.216.698.698v1.11H64.38v-.442c0-.144-.083-.225-.226-.225h-1.408v2.064h2.332v1.141h-2.332v2.95h-1.347v-6.155M66.64 57.367c0-.155-.081-.227-.226-.227h-.41v-1.11h1.191c.463 0 .7.195.7.637v.309c0 .195-.021.33-.021.33h.02c.236-.753.864-1.347 1.665-1.347.113 0 .237.02.237.02v1.285s-.135-.021-.32-.021c-.554 0-1.191.318-1.428 1.1a3.15 3.15 0 00-.113.852v2.076H66.64v-3.904M70.916 57.367c0-.155-.082-.227-.226-.227h-.41v-1.11h1.243c.483 0 .688.217.688.689v2.414c0 .636.164 1.07.812 1.07.945 0 1.47-.832 1.47-1.768v-2.406h1.305v3.916c0 .144.082.227.225.227h.411v1.099h-1.202c-.451 0-.688-.216-.688-.586v-.144c0-.124.01-.236.01-.236h-.02c-.247.544-.904 1.09-1.809 1.09-1.12 0-1.809-.567-1.809-1.994v-2.034M77.598 53.975h1.13v1.202h-1.13zm-.062 3.392c0-.155-.083-.227-.226-.227h-.411v-1.11h1.244c.483 0 .687.217.687.7v3.215c0 .144.083.227.227.227h.41v1.099h-1.243c-.482 0-.688-.206-.688-.699v-3.205M80.588 57.068h-.678v-1.039h.71v-1.428h1.274v1.428h1.191v1.039h-1.191v2.117c0 .863.678.987 1.037.987.144 0 .237-.021.237-.021v1.141s-.164.03-.402.03c-.729 0-2.178-.215-2.178-1.973v-2.281M84.392 59.607s.667.769 1.561.769c.402 0 .71-.164.71-.513 0-.74-2.765-.73-2.765-2.426 0-1.048.946-1.532 2.035-1.532.709 0 1.84.238 1.84 1.091v.544H86.62v-.257c0-.246-.37-.368-.657-.368-.462 0-.782.162-.782.472 0 .821 2.786.656 2.786 2.405 0 .985-.874 1.603-2.015 1.603-1.438 0-2.178-.935-2.178-.935l.617-.853M47.476 98.636c-.06-.175-.144-.226-.318-.226h-.185v-1.14h.852c.515 0 .7.133.864.596l1.397 4.069c.145.411.277 1.069.277 1.069h.021s.134-.658.277-1.07l1.398-4.068c.164-.463.34-.597.854-.597h.863v1.141h-.196c-.175 0-.257.051-.318.226l-2.18 5.93h-1.418l-2.188-5.93M57.117 101.267c-.02-.626-.452-1.059-.987-1.059-.667 0-1.14.401-1.284 1.059zm-.987-2.065c1.5 0 2.323 1.099 2.323 2.487 0 .153-.032.483-.032.483h-3.617c.104.924.781 1.407 1.573 1.407.843 0 1.47-.586 1.47-.586l.544.905s-.801.79-2.106.79c-1.737 0-2.816-1.253-2.816-2.743 0-1.613 1.09-2.743 2.661-2.743M62.842 101.821c0-1.19-.596-1.51-1.305-1.51-.79 0-1.223.575-1.223 1.46 0 .914.462 1.594 1.305 1.594.627 0 1.223-.361 1.223-1.544zm-1.532-2.62c1.213 0 1.614.74 1.614.74h.02v-.133c0-.237.165-.483.576-.483h1.213v1.11h-.401c-.133 0-.226.071-.226.206v3.606c0 1.8-1.398 2.477-2.764 2.477a4.18 4.18 0 01-1.86-.452l.4-1.028s.648.35 1.449.35c.791 0 1.48-.34 1.48-1.286v-.245c0-.123.01-.278.01-.278h-.02c-.308.443-.76.679-1.459.679-1.5 0-2.353-1.214-2.353-2.653s.81-2.61 2.321-2.61M68.721 101.267c-.02-.626-.452-1.059-.986-1.059-.668 0-1.141.401-1.285 1.059zm-.986-2.065c1.5 0 2.322 1.099 2.322 2.487 0 .153-.031.483-.031.483h-3.617c.103.924.781 1.407 1.572 1.407.844 0 1.47-.586 1.47-.586l.545.905s-.802.79-2.107.79c-1.737 0-2.816-1.253-2.816-2.743 0-1.613 1.09-2.743 2.662-2.743M71.137 100.363h-.679v-1.038h.71v-1.428h1.274v1.428h1.193v1.038h-1.193v2.116c0 .863.679.987 1.039.987.143 0 .236-.02.236-.02v1.14s-.165.03-.401.03c-.73 0-2.179-.215-2.179-1.972v-2.28M76.277 103.672c.698 0 1.191-.74 1.191-1.378v-.122h-.226c-.677 0-1.756.092-1.756.821 0 .35.256.679.79.679zm1.006-2.395h.164v-.042c0-.748-.297-1.027-.966-1.027-.235 0-.698.063-.698.35v.278H74.57v-.556c0-.975 1.377-1.078 1.922-1.078 1.748 0 2.26.914 2.26 2.085v1.954c0 .143.083.225.227.225h.41v1.1h-1.17c-.483 0-.668-.268-.668-.575 0-.134.01-.227.01-.227h-.02s-.4.925-1.583.925c-.935 0-1.788-.585-1.788-1.634 0-1.644 2.26-1.778 3.113-1.778M82.762 103.59c.71 0 1.316-.586 1.316-1.624 0-.997-.535-1.645-1.306-1.645-.677 0-1.315.494-1.315 1.656 0 .812.432 1.613 1.305 1.613zm-2.57-4.984c0-.154-.08-.226-.226-.226h-.41v-1.11h1.243c.483 0 .698.215.698.7v1.52c0 .256-.019.44-.019.44h.02s.463-.728 1.572-.728c1.419 0 2.322 1.12 2.322 2.743 0 1.665-1.017 2.744-2.405 2.744-1.089 0-1.561-.74-1.561-.74h-.02s.02.145.02.349v.268h-1.233v-5.96M86.268 98.606c0-.154-.082-.226-.226-.226h-.412v-1.11h1.244c.483 0 .698.215.698.7v5.27c0 .144.084.226.227.226h.401v1.1h-1.234c-.493 0-.698-.206-.698-.7v-5.26M92.208 101.267c-.02-.626-.452-1.059-.987-1.059-.668 0-1.14.401-1.284 1.059zm-.987-2.065c1.5 0 2.323 1.099 2.323 2.487 0 .153-.03.483-.03.483h-3.618c.102.924.78 1.407 1.572 1.407.842 0 1.47-.586 1.47-.586l.544.905s-.801.79-2.106.79c-1.736 0-2.816-1.253-2.816-2.743 0-1.613 1.089-2.743 2.66-2.743M94.624 102.901s.669.77 1.562.77c.4 0 .71-.163.71-.514 0-.74-2.765-.729-2.765-2.424 0-1.048.946-1.531 2.035-1.531.709 0 1.84.236 1.84 1.09v.544h-1.152v-.257c0-.247-.37-.37-.659-.37-.461 0-.78.163-.78.473 0 .822 2.785.657 2.785 2.404 0 .987-.873 1.603-2.014 1.603-1.439 0-2.178-.935-2.178-.935l.616-.853M117.172 110.022c.76 0 1.193-.492 1.193-1.253 0-.75-.433-1.233-1.17-1.233h-1.101v2.486zm-2.425-2.486h-.667v-1.14h3.338c1.368 0 2.324.956 2.324 2.373 0 1.418-.956 2.404-2.324 2.404h-1.324v2.518h-1.347v-6.155M120.802 109.786c0-.153-.083-.225-.227-.225h-.411v-1.111h1.192c.463 0 .699.196.699.637v.309c0 .195-.021.329-.021.329h.02c.238-.751.865-1.346 1.665-1.346.113 0 .237.02.237.02v1.284s-.133-.019-.318-.019c-.556 0-1.193.318-1.428 1.1a3.167 3.167 0 00-.114.852v2.075h-1.294v-3.905M127.184 112.704c.852 0 1.562-.656 1.562-1.633 0-.966-.71-1.634-1.562-1.634-.843 0-1.552.668-1.552 1.634 0 .977.71 1.633 1.552 1.633zm0-4.377c1.602 0 2.877 1.142 2.877 2.744 0 1.614-1.275 2.744-2.877 2.744-1.593 0-2.867-1.13-2.867-2.744 0-1.602 1.274-2.744 2.867-2.744M131.266 109.488h-.679v-1.038h.709v-1.428h1.274v1.428h1.193v1.038h-1.193v2.117c0 .864.679.987 1.037.987.146 0 .237-.02.237-.02v1.14s-.164.031-.4.031c-.73 0-2.178-.216-2.178-1.974v-2.281M138.09 110.393c-.02-.627-.453-1.059-.987-1.059-.67 0-1.14.4-1.284 1.06zm-.987-2.066c1.498 0 2.322 1.1 2.322 2.487 0 .155-.03.483-.03.483h-3.618c.103.925.78 1.407 1.572 1.407.844 0 1.47-.586 1.47-.586l.544.905s-.8.792-2.106.792c-1.737 0-2.816-1.254-2.816-2.744 0-1.613 1.091-2.744 2.662-2.744M140.793 106.396h1.131v1.201h-1.13zm-.061 3.39c0-.153-.083-.225-.227-.225h-.41v-1.111h1.242c.483 0 .69.217.69.7v3.216c0 .143.082.226.228.226h.408v1.1h-1.243c-.484 0-.688-.207-.688-.7v-3.206M143.763 109.786c0-.153-.082-.225-.226-.225h-.41v-1.111h1.202c.462 0 .688.217.688.586v.154c0 .113-.02.227-.02.227h.02c.227-.443.792-1.09 1.851-1.09 1.161 0 1.83.606 1.83 1.994v2.045c0 .143.08.226.225.226h.41v1.1h-1.242c-.495 0-.699-.207-.699-.7v-2.403c0-.639-.165-1.07-.824-1.07-.699 0-1.221.442-1.408 1.07-.07.216-.101.451-.101.698v2.404h-1.296v-3.905M45.065 169.314h5.207l3.202 5.25 3.2-5.25h5.208v14.938h-4.973v-7.404l-3.435 5.313h-.086l-3.436-5.313v7.404h-4.887v-14.938M71.692 172.6h4.93l-4.035 10.841c-1.13 3.052-2.368 4.29-5.057 4.29-1.686 0-3.202-.49-4.504-1.215l1.409-3.31c.875.491 1.686.769 2.134.769.277 0 .534-.043.79-.17L62.792 172.6h5.015l2.028 6.145 1.857-6.145M83.83 176.633c1.28 0 2.134-.576 2.134-1.642v-.043c0-1.09-.79-1.644-2.113-1.644h-1.367v3.33zm-6.339-7.32h6.723c3.968 0 6.68 1.77 6.68 5.315v.043c0 3.606-2.753 5.526-6.787 5.526h-1.623v4.055h-4.993v-14.938M91.869 168.673h4.845v15.58h-4.845v-15.58M104.992 179.941v-.49a3.34 3.34 0 00-1.11-.192c-.96 0-1.494.576-1.494 1.302v.042c0 .683.491 1.132 1.11 1.132.854 0 1.494-.683 1.494-1.794zm-7.235 1.004v-.042c0-2.328 1.729-3.628 4.438-3.628.982 0 2.241.211 2.754.425v-.19c0-1.069-.661-1.688-2.156-1.688-1.195 0-2.198.257-3.223.662l-.852-3.223c1.343-.512 2.88-.853 4.907-.853 2.37 0 3.906.49 4.931 1.515.875.874 1.216 2.006 1.216 3.693v6.636h-4.845v-1.173c-.81.876-1.898 1.45-3.35 1.45-2.241 0-3.82-1.28-3.82-3.584M111.922 180.348v-4.013h-1.366V172.6h1.366v-2.924h4.844v2.924h2.69v3.735h-2.69v2.945c0 .875.406 1.195 1.174 1.195.448 0 .96-.127 1.473-.363v3.736c-.768.404-1.92.661-3.095.661-2.86 0-4.396-1.323-4.396-4.161M127.497 177.423c-.105-1.11-.768-1.75-1.62-1.75-.812 0-1.388.683-1.537 1.75zm-7.639 1.068v-.043c0-3.48 2.496-6.126 5.996-6.126 4.14 0 6.062 2.882 6.062 6.423 0 .258 0 .557-.021.812h-7.491c.34 1.024 1.152 1.56 2.198 1.56.875 0 1.6-.408 2.368-1.197l2.605 2.07c-1.153 1.494-2.796 2.54-5.315 2.54-3.82 0-6.402-2.411-6.402-6.04M133.704 181.307h2.839v2.945h-2.839v-2.945M147.936 178.064v-.044c0-1.834-1.515-3.093-3.308-3.093-1.792 0-3.201 1.237-3.201 3.093v.044c0 1.836 1.43 3.095 3.201 3.095 1.793 0 3.308-1.259 3.308-3.095zm-8.559 8.301l.962-1.942c1.216.748 2.474 1.196 4.012 1.196 2.305 0 3.565-1.196 3.565-3.458v-.875c-.94 1.217-2.113 2.07-3.97 2.07-2.647 0-5.123-1.963-5.123-5.272v-.041c0-3.33 2.497-5.294 5.122-5.294 1.9 0 3.074.876 3.948 1.922v-1.687h2.583v8.964c0 1.9-.492 3.308-1.43 4.247-1.025 1.025-2.603 1.515-4.631 1.515-1.858 0-3.586-.469-5.038-1.345M162.528 178.683v-.043c0-1.985-1.43-3.628-3.457-3.628-2.071 0-3.394 1.621-3.394 3.585v.043c0 1.963 1.43 3.607 3.436 3.607 2.091 0 3.415-1.622 3.415-3.564zm-9.435 0v-.043c0-3.223 2.562-5.89 6.02-5.89 3.458 0 5.996 2.625 5.996 5.847v.043c0 3.201-2.561 5.87-6.038 5.87-3.436 0-5.978-2.626-5.978-5.827M166.023 172.984h2.774l3.03 8.281 3.052-8.281h2.712l-4.612 11.355h-2.326l-4.63-11.355" fill="#fff"/></svg>