<svg xmlns="http://www.w3.org/2000/svg" viewBox="0 0 285 197" color-interpolation-filters="sRGB" fill="none" fill-rule="evenodd" font-size="12" overflow="visible" stroke-linecap="square" stroke-miterlimit="3"><style>.st2,.st4{fill:#c45814;stroke:none;stroke-linecap:butt;stroke-width:.75}.st4{fill:#3a2d72}.st5{fill:#fff}.st10,.st14,.st5,.st7,.st8{stroke:none;stroke-linecap:butt;stroke-width:.75}.st10,.st14,.st8{fill:#ebeaf1}.st10,.st14{fill:#d8d5e3}.st14{fill:#e7bca1}</style><g id="group210-1" transform="translate(.75 -.75)"><g id="shape1-2" transform="rotate(-31.408 -135.41 -36.81)"><path d="M0 196.5h76.75" stroke="#c45814" stroke-linecap="round" stroke-linejoin="round" stroke-width=".938"/></g><g id="shape2-5" transform="translate(96 -101.25)"><path d="M9.34 196.27L0 196.5l4.47-8.21 4.87 7.98z" class="st2"/></g><g id="shape3-7" transform="rotate(31.229 212.359 333.408)"><path d="M0 196.5h76.6" stroke="#3a2d72" stroke-linecap="round" stroke-linejoin="round" stroke-width=".938"/></g><g id="shape4-10" transform="translate(96 -85.552)"><path d="M4.5 196.5L0 188.3l9.34.2-4.84 8z" class="st4"/></g><g id="group42-12" transform="translate(0 -60)"><g id="shape43-13"><path d="M75 144v-22.5H52.5c0 8.29-6.71 15-15 15s-15-6.71-15-15H0v75h75V174c8.29 0 15-6.71 15-15s-6.71-15-15-15z" class="st4"/></g><g id="shape44-15" transform="translate(18.938 -30.78)"><path d="M5.92 189.76l-.78 1.2c-.56-.36-1.15-.56-1.77-.56-.58 0-.87.22-.87.54 0 .38.19.54 1.47.92 1.42.4 2.22.99 2.22 2.28 0 1.48-1.41 2.36-3.19 2.36-1.24 0-2.3-.44-3-1.07l1.04-1.16c.54.42 1.2.71 1.91.71.64 0 1.04-.24 1.04-.68 0-.49-.22-.64-1.52-1-1.41-.4-2.12-1.13-2.12-2.24 0-1.23 1.12-2.19 2.93-2.19 1.04.01 1.97.35 2.64.89z" class="st5"/></g><g id="shape45-17" transform="translate(26.348 -30.997)"><path d="M6.19 191.26v5.24H4.06v-4.88c0-.75-.27-.96-.68-.96-.47 0-.86.34-1.24.92v4.91H0v-10.02l2.14-.22v3.83c.58-.65 1.23-.98 2.06-.98 1.25 0 1.99.79 1.99 2.16z" class="st5"/></g><g id="shape46-19" transform="translate(33.795 -30.78)"><path d="M6.66 195.07l-.44 1.39c-.84-.07-1.39-.32-1.73-1.03-.51.78-1.31 1.07-2.16 1.07-1.43 0-2.33-.93-2.33-2.24 0-1.57 1.19-2.42 3.36-2.42h.73v-.31c0-.85-.34-1.11-1.22-1.11-.46 0-1.16.13-1.87.37l-.49-1.4c.91-.34 1.89-.53 2.7-.53 2.08 0 2.97.88 2.97 2.55v2.78c0 .56.14.76.48.88zm-2.57-.76v-1.28h-.53c-.97 0-1.44.33-1.44 1.05 0 .57.3.9.84.9.48 0 .87-.25 1.13-.67z" class="st5"/></g><g id="shape47-21" transform="translate(41.805 -28.005)"><path d="M6.73 189.9c0 2.21-1.08 3.83-2.85 3.83-.71 0-1.3-.24-1.74-.76v3.3L0 196.5v-10.17h1.87l.11.79c.59-.74 1.36-1.02 2.02-1.02 1.9 0 2.73 1.47 2.73 3.8zm-2.22.02c0-1.78-.43-2.26-1.17-2.26-.46 0-.9.31-1.2.84v3.03c.3.43.64.63 1.09.63.8 0 1.28-.63 1.28-2.24z" class="st5"/></g><g id="shape48-23" transform="translate(49.59 -30.78)"><path d="M6.62 193.32H2.19c.13 1.28.74 1.63 1.62 1.63.58 0 1.1-.2 1.72-.63l.87 1.18c-.71.57-1.63 1-2.79 1-2.4 0-3.61-1.54-3.61-3.78 0-2.15 1.18-3.85 3.35-3.85 2.06 0 3.31 1.35 3.31 3.68 0 .23-.01.55-.04.77zm-2.05-1.37c-.02-.98-.31-1.65-1.16-1.65-.72 0-1.12.44-1.23 1.74h2.39v-.09z" class="st5"/></g></g><g id="group49-25" transform="translate(77.07 -158.1)"><g id="shape50-26" transform="translate(0 -.015)"><path d="M5.52 184.74l-.04.36h1.59l-.6 1.93H5.22l-.68 4.98c-.4 2.96-2.11 3.86-3.91 4.49L0 194.46c1.03-.41 1.55-.92 1.74-2.3l.69-5.13h-.84l.25-1.93h.84l.08-.53c.23-1.65 1.35-2.92 3.34-2.92.96 0 1.73.33 2.2.69l-.98 1.63c-.32-.19-.62-.27-.92-.27-.49 0-.77.29-.88 1.04z" class="st2"/></g><g id="shape51-28" transform="translate(6.577 -3.098)"><path d="M0 193.21c0-2.76 1.31-5.32 4.23-5.32 1.89 0 3.1 1.11 3.1 3.3-.01 2.76-1.31 5.31-4.23 5.31-1.9 0-3.1-1.08-3.1-3.29zm4.52-2.4c0-.65-.16-.87-.51-.87-.91 0-1.18 2.35-1.18 3.63 0 .66.16.88.49.88.92.01 1.2-2.36 1.2-3.64z" class="st2"/></g><g id="shape52-30" transform="translate(14.34 -3.405)"><path d="M6.16 188.37l-.84 2.73c-.18-.05-.37-.09-.58-.09-.76 0-1.16.94-1.47 2.05l-.48 3.44H0l1.11-8.01h2.4v1.32c.45-.92 1.13-1.58 1.98-1.58.28 0 .45.05.67.14z" class="st2"/></g><g id="shape53-32" transform="translate(22.433)"><path d="M1.59 185.07h2.49v.82c.6-.76 1.37-1.11 2.07-1.11 1.32 0 2.02.99 2.02 2.78 0 3.13-1.12 5.83-3.85 5.83-.43 0-.8-.06-1.08-.15l-.42 2.97-2.82.29 1.59-11.43zm3.76 2.63c0-.72-.2-.85-.45-.85s-.55.21-.84.64l-.54 3.78c.17.08.33.11.51.11.98 0 1.32-2.39 1.32-3.68z" class="st2"/></g><g id="shape54-34" transform="translate(31.245 -3.09)"><path d="M7.23 190.14c-.06 2.23-2.4 2.95-4.45 3.18v.1c0 .69.33 1.02.93 1.02.58 0 1.06-.25 1.7-.7l.94 1.6c-.79.65-1.82 1.14-3.08 1.14-2.06.02-3.27-1.09-3.24-3.28.04-2.84 1.4-5.33 4.41-5.33 1.79 0 2.84.96 2.79 2.27zm-2.71.04c0-.29-.12-.47-.42-.47-.61 0-.99.96-1.17 2 1.31-.11 1.59-1.01 1.59-1.53z" class="st2"/></g><g id="shape55-36" transform="translate(38.932 -3.098)"><path d="M0 193.21c0-2.76 1.3-5.32 4.23-5.32 1.89 0 3.1 1.11 3.1 3.3-.01 2.76-1.32 5.31-4.23 5.31-1.9 0-3.1-1.08-3.1-3.29zm4.51-2.4c0-.65-.16-.87-.51-.87-.91 0-1.18 2.35-1.18 3.63 0 .66.17.88.49.88.92.01 1.2-2.36 1.2-3.64z" class="st2"/></g><g id="shape56-38" transform="translate(46.208)"><path d="M1.59 185.07h2.49v.82c.6-.76 1.37-1.11 2.07-1.11 1.32 0 2.02.99 2.02 2.78 0 3.13-1.12 5.83-3.85 5.83-.43 0-.8-.06-1.08-.15l-.42 2.97-2.82.29 1.59-11.43zm3.76 2.63c0-.72-.2-.85-.45-.85s-.55.21-.84.64l-.54 3.78c.17.08.33.11.51.11.98 0 1.32-2.39 1.32-3.68z" class="st2"/></g><g id="shape57-40" transform="translate(54.773 -3.112)"><path d="M3.04 193.84c-.04.32.05.42.23.42.09 0 .15-.01.22-.03l.2 1.97c-.41.16-.99.3-1.56.3-1.46 0-2.13-.92-1.91-2.42l1.25-9.03 2.82-.28-1.25 9.07z" class="st2"/></g><g id="shape58-42" transform="translate(59.16 -3.09)"><path d="M7.23 190.14c-.06 2.23-2.4 2.95-4.45 3.18v.1c0 .69.33 1.02.93 1.02.58 0 1.06-.25 1.71-.7l.93 1.6c-.78.65-1.82 1.14-3.08 1.14-2.05.02-3.27-1.09-3.24-3.28.05-2.84 1.4-5.33 4.41-5.33 1.78 0 2.83.96 2.79 2.27zm-2.71.04c0-.29-.12-.47-.42-.47-.61 0-.99.96-1.17 2 1.31-.11 1.59-1.01 1.59-1.53z" class="st2"/></g></g><g id="group92-44" transform="translate(142.995)"><g id="shape93-45" transform="translate(0 -24.773)"><path d="M83.87 155.26c-8.96-2.68-20.26-4.07-32.48-3.62C22.81 152.69 0 163.35.44 175.45c.44 12.09 23.97 21.05 52.55 20.01 4.95-.18 9.72-.66 14.22-1.38l16.66-38.82z" fill="#ebeaf1"/><path d="M83.87 155.26c-8.96-2.68-20.26-4.07-32.48-3.62C22.81 152.69 0 163.35.44 175.45c.44 12.09 23.97 21.05 52.55 20.01 4.95-.18 9.72-.66 14.22-1.38" class="st7"/></g><g id="shape94-48" transform="translate(54.352 -15.367)"><circle cx="25.47" cy="171.03" class="st8" r="25.47"/></g><g id="shape95-50" transform="translate(100.605 -13.297)"><ellipse cx="12.307" cy="189.63" rx="12.307" ry="6.87" class="st8"/></g><g id="shape96-52" transform="translate(96.953 -59.745)"><ellipse cx="7.612" cy="192.247" rx="7.612" ry="4.253" class="st8"/></g><g id="shape97-54" transform="translate(105.352 -50.55)"><ellipse cx="7.612" cy="192.247" rx="7.612" ry="4.253" class="st8"/></g><g id="shape98-56" transform="translate(108.495 -39.96)"><ellipse cx="7.612" cy="192.247" rx="7.612" ry="4.253" class="st8"/></g><g id="shape99-58" transform="translate(107.453 -29.363)"><ellipse cx="7.612" cy="192.247" rx="7.612" ry="4.253" class="st8"/></g><g id="shape100-60" transform="translate(7.125 -17.497)"><path d="M83.87 155.26c-8.96-2.68-20.25-4.07-32.48-3.62C22.81 152.69 0 163.35.44 175.45c.44 12.09 23.97 21.05 52.55 20.01 4.95-.18 9.72-.66 14.22-1.38l16.66-38.82z" fill="#d8d5e3"/><path d="M83.87 155.26c-8.96-2.68-20.25-4.07-32.48-3.62C22.81 152.69 0 163.35.44 175.45c.44 12.09 23.97 21.05 52.55 20.01 4.95-.18 9.72-.66 14.22-1.38" class="st7"/></g><g id="shape101-63" transform="translate(61.477 -8.085)"><circle cx="25.47" cy="171.03" class="st10" r="25.47"/></g><g id="shape102-65" transform="translate(107.73 -6.022)"><ellipse cx="12.307" cy="189.63" rx="12.307" ry="6.87" class="st10"/></g><g id="shape103-67" transform="translate(104.078 -52.47)"><ellipse cx="7.612" cy="192.247" rx="7.612" ry="4.253" class="st10"/></g><g id="shape104-69" transform="translate(112.477 -43.275)"><ellipse cx="7.612" cy="192.247" rx="7.612" ry="4.253" class="st10"/></g><g id="shape105-71" transform="translate(115.62 -32.678)"><ellipse cx="7.612" cy="192.247" rx="7.612" ry="4.253" class="st10"/></g><g id="shape106-73" transform="translate(114.578 -22.087)"><ellipse cx="7.612" cy="192.247" rx="7.612" ry="4.253" class="st10"/></g><g id="shape107-75" transform="translate(14.88 -11.482)"><path d="M83.87 155.26c-8.96-2.68-20.25-4.07-32.48-3.62C22.81 152.69 0 163.35.44 175.45c.44 12.09 23.97 21.05 52.55 20.01 4.95-.18 9.72-.66 14.22-1.38l16.66-38.82z" fill="#3a2d72"/><path d="M83.87 155.26c-8.96-2.68-20.25-4.07-32.48-3.62C22.81 152.69 0 163.35.44 175.45c.44 12.09 23.97 21.05 52.55 20.01 4.95-.18 9.72-.66 14.22-1.38" class="st7"/></g><g id="shape108-78" transform="translate(69.233 -2.07)"><circle cx="25.47" cy="171.03" class="st4" r="25.47"/></g><g id="shape109-80" transform="translate(115.485)"><ellipse cx="12.307" cy="189.63" rx="12.307" ry="6.87" class="st4"/></g><g id="shape110-82" transform="translate(111.832 -46.447)"><ellipse cx="7.612" cy="192.247" rx="7.612" ry="4.253" class="st4"/></g><g id="shape111-84" transform="translate(120.233 -37.252)"><ellipse cx="7.612" cy="192.247" rx="7.612" ry="4.253" class="st4"/></g><g id="shape112-86" transform="translate(123.375 -26.663)"><ellipse cx="7.612" cy="192.247" rx="7.612" ry="4.253" class="st4"/></g><g id="shape113-88" transform="translate(122.332 -16.065)"><ellipse cx="7.612" cy="192.247" rx="7.612" ry="4.253" class="st4"/></g><g id="shape114-90" transform="translate(41.483 -28.718)"><path d="M3.22 188.77v.56H4.9l-.23 1.48H3.21v5.69H1.08v-5.69H0v-1.48h1.08v-.64c0-1.38.91-2.44 2.74-2.44.75 0 1.44.18 1.96.45l-.57 1.39c-.41-.2-.81-.27-1.13-.27-.62.01-.86.28-.86.95z" class="st5"/></g><g id="shape115-92" transform="translate(46.688 -28.485)"><path d="M7.02 192.69c0 2.29-1.32 3.81-3.51 3.81-2.17 0-3.51-1.4-3.51-3.83 0-2.29 1.32-3.81 3.51-3.81 2.19 0 3.51 1.41 3.51 3.83zm-4.81-.02c0 1.59.44 2.26 1.3 2.26.86 0 1.3-.69 1.3-2.24 0-1.59-.44-2.26-1.3-2.26-.86 0-1.3.69-1.3 2.24z" class="st5"/></g><g id="shape116-94" transform="translate(54.705 -28.485)"><path d="M7.02 192.69c0 2.29-1.32 3.81-3.51 3.81-2.17 0-3.51-1.4-3.51-3.83 0-2.29 1.32-3.81 3.51-3.81 2.19 0 3.51 1.41 3.51 3.83zm-4.81-.02c0 1.59.44 2.26 1.3 2.26.86 0 1.3-.69 1.3-2.24 0-1.59-.44-2.26-1.3-2.26-.86 0-1.3.69-1.3 2.24z" class="st5"/></g><g id="shape117-96" transform="translate(62.325 -28.485)"><path d="M5.3 195.93c-.54.37-1.3.57-1.94.57-1.58-.02-2.35-.91-2.35-2.6v-3.32H0v-1.48h1.01v-1.56l2.13-.24v1.8h1.65l-.23 1.48H3.14v3.29c0 .69.23.93.68.93.24 0 .48-.06.77-.24l.71 1.37z" class="st5"/></g><g id="shape118-98" transform="translate(68.483 -25.725)"><path d="M6.72 189.9c0 2.21-1.08 3.83-2.85 3.83-.71 0-1.3-.24-1.74-.76v3.3L0 196.5v-10.17h1.87l.11.79c.59-.74 1.36-1.02 2.02-1.02 1.89 0 2.72 1.47 2.72 3.8zm-2.22.03c0-1.79-.44-2.26-1.18-2.26-.46 0-.89.31-1.2.84v3.02c.3.44.65.64 1.1.64.8-.01 1.28-.64 1.28-2.24z" class="st5"/></g><g id="shape119-100" transform="translate(76.68 -28.725)"><path d="M4.6 189.22l-.34 2.07c-.23-.05-.41-.09-.65-.09-.87 0-1.25.65-1.48 1.72v3.58H0v-7.17h1.87l.17 1.38c.32-.98 1.03-1.58 1.85-1.58.26 0 .47.03.71.09z" class="st5"/></g><g id="shape120-102" transform="translate(82.02 -28.718)"><path d="M2.52 186.76c0 .69-.53 1.22-1.27 1.22S0 187.45 0 186.76s.51-1.21 1.25-1.21 1.27.52 1.27 1.21zm-.19 9.74H.2v-7.17h2.13v7.17z" class="st5"/></g><g id="shape121-104" transform="translate(86.168 -28.718)"><path d="M6.18 191.26v5.24H4.05v-4.88c0-.75-.26-.96-.68-.96-.47 0-.86.34-1.24.93v4.91H0v-7.17h1.86l.15.85c.61-.71 1.3-1.08 2.19-1.08 1.24 0 1.98.79 1.98 2.16z" class="st5"/></g><g id="shape122-106" transform="translate(93.278 -28.485)"><path d="M5.3 195.93c-.54.37-1.3.57-1.94.57-1.58-.02-2.35-.91-2.35-2.6v-3.32H0v-1.48h1.01v-1.56l2.13-.24v1.8h1.65l-.23 1.48H3.14v3.29c0 .69.23.93.68.93.24 0 .48-.06.77-.24l.71 1.37z" class="st5"/></g></g><g id="group124-109" transform="translate(46.778 -33.54)"><g id="shape125-110"><path d="M5.82 184.74l-.05.36h1.68l-.63 1.93H5.51l-.71 4.98c-.43 2.96-2.23 3.86-4.13 4.49L0 194.46c1.09-.41 1.64-.92 1.84-2.3l.73-5.13h-.89l.27-1.93h.89l.08-.53c.24-1.65 1.42-2.92 3.53-2.92 1.01 0 1.82.33 2.31.69l-1.03 1.63c-.33-.19-.65-.27-.96-.27-.54 0-.84.28-.95 1.04z" class="st4"/></g><g id="shape126-112" transform="translate(6.945 -3.09)"><path d="M0 193.21c0-2.76 1.38-5.32 4.47-5.32 2 0 3.28 1.11 3.28 3.3-.02 2.76-1.4 5.31-4.47 5.31-2.01 0-3.28-1.08-3.28-3.29zm4.77-2.4c0-.64-.17-.87-.54-.87-.97 0-1.25 2.36-1.25 3.63 0 .66.17.89.52.89.97 0 1.27-2.37 1.27-3.65z" class="st4"/></g><g id="shape127-114" transform="translate(15.135 -3.39)"><path d="M6.51 188.37l-.89 2.73c-.18-.05-.39-.09-.61-.09-.81 0-1.22.94-1.55 2.05l-.51 3.44H0l1.17-8.01h2.54v1.32c.47-.92 1.18-1.58 2.09-1.58.3 0 .47.05.71.14z" class="st4"/></g><g id="shape128-116" transform="translate(24.18 -3.39)"><path d="M11.27 190.59l-.88 5.91H7.44l.77-5.33c.06-.42 0-.52-.11-.52-.19 0-.4.36-.76 1.36l-.68 4.49H3.71l.78-5.33c.06-.42 0-.52-.12-.52-.17 0-.41.37-.77 1.44l-.65 4.41H0l1.17-8h2.56v1.11c.56-.82 1.29-1.42 2.21-1.42.88 0 1.44.49 1.6 1.32.52-.77 1.25-1.32 2.12-1.32 1.22 0 1.83.91 1.61 2.4z" class="st4"/></g><g id="shape129-118" transform="translate(36.083 -3.09)"><path d="M7.92 188.74l-.74 4.94c-.06.52-.06.78.28.93l-.88 1.83c-.9-.08-1.74-.42-2.07-1.16-.55.75-1.2 1.22-2.2 1.22-1.52 0-2.31-1.16-2.31-2.97 0-2.76 1.22-5.64 4.7-5.64 1.13 0 2.25.31 3.22.85zm-4.94 4.85c0 .7.17.85.42.85.3 0 .59-.31.86-.76l.57-3.77c-.13-.03-.26-.06-.38-.06-1.03 0-1.47 2.01-1.47 3.74z" class="st4"/></g><g id="shape130-120" transform="translate(44.505 -3.09)"><path d="M7.09 188.97l-1.41 1.51c-.38-.31-.72-.45-1.11-.45-1.17 0-1.52 1.74-1.52 3.12 0 .98.35 1.16.84 1.16.37 0 .71-.14 1.21-.44l1.01 1.67c-.74.58-1.63.96-2.75.96-2.11 0-3.36-1.28-3.36-3.39 0-2.82 1.6-5.22 4.49-5.22 1.15 0 1.97.4 2.6 1.08z" class="st4"/></g><g id="shape131-122" transform="translate(51.157 -3.39)"><path d="M7.74 190.59l-.88 5.91H3.91l.77-5.33c.04-.36 0-.48-.13-.48-.22 0-.46.44-.95 1.44l-.65 4.37H0l1.65-11.16 2.98-.29-.63 4.53c.41-.67 1.15-1.39 2.15-1.39 1.19 0 1.82.91 1.59 2.4z" class="st4"/></g><g id="shape132-124" transform="translate(59.273 -3.39)"><path d="M2.95 196.5H0l1.17-8.01h2.95l-1.17 8.01zm-1.49-10.63c0-1 .81-1.74 1.81-1.74.9 0 1.43.54 1.43 1.31 0 1-.81 1.74-1.81 1.74-.91 0-1.43-.54-1.43-1.31z" class="st4"/></g><g id="shape133-126" transform="translate(63.54 -3.39)"><path d="M7.74 190.59l-.88 5.91H3.91l.77-5.33c.05-.36 0-.48-.13-.48-.22 0-.46.44-.95 1.44l-.65 4.37H0l1.17-8.01h2.57l.01 1.2c.57-.84 1.38-1.5 2.39-1.5 1.2 0 1.82.91 1.6 2.4z" class="st4"/></g><g id="shape134-128" transform="translate(71.918 -3.075)"><path d="M7.63 190.14c-.06 2.23-2.54 2.95-4.71 3.18v.1c0 .69.35 1.02.99 1.02.61 0 1.12-.25 1.81-.7l.98 1.6c-.83.65-1.92 1.14-3.25 1.14-2.17.02-3.45-1.09-3.42-3.28.05-2.84 1.47-5.33 4.66-5.33 1.88 0 2.98.96 2.94 2.27zm-2.85.03c0-.29-.13-.47-.45-.47-.65 0-1.04.96-1.23 2 1.38-.11 1.68-1.01 1.68-1.53z" class="st4"/></g><g id="shape135-130" transform="translate(79.282 -3.09)"><path d="M7.39 188.92l-1.24 1.49c-.5-.33-1.01-.54-1.52-.54-.46 0-.71.21-.71.49 0 .3.24.48 1.32.93 1.08.45 1.73 1.07 1.73 2.24 0 1.72-1.49 2.97-3.69 2.97-1.41 0-2.51-.51-3.28-1.29l1.51-1.43c.47.41 1.02.75 1.69.75.5 0 .83-.21.83-.6s-.29-.58-1.26-.99c-1.15-.46-1.73-1.05-1.73-2.19 0-1.66 1.41-2.86 3.45-2.86 1.17 0 2.21.42 2.9 1.03z" class="st4"/></g></g><g id="group166-132" transform="translate(152.948 -102)"><g id="shape167-133"><path d="M45 121.5H7.5c-4.14 0-7.5 3.36-7.5 7.5v67.5h105v-63.75H52.5V129c0-4.14-3.36-7.5-7.5-7.5z" fill="#f9eee7" stroke-linecap="butt" stroke-width=".75"/></g><g id="shape168-135" transform="translate(9.053 -8.625)"><path d="M46.5 120H9c-4.14 0-7.5 3.36-9 9v67.5l106.5-1.5v-63.75H54v-3.75c0-4.14-3.36-7.5-7.5-7.5z" fill="#f3ded0" stroke-linecap="butt" stroke-width=".75"/></g><g id="shape169-137" transform="translate(18.052 -18)"><path d="M45 121.5H7.5c-4.14 0-7.5 3.36-7.5 7.5v67.5h105v-63.75H52.5V129c0-4.14-3.36-7.5-7.5-7.5z" class="st2"/></g><g id="shape170-139" transform="translate(63.053 -61.5)"><path class="st14" d="M0 192h45v4.5H0z"/></g><g id="shape171-141" transform="translate(45.352 -60.72)"><path d="M0 195.57h3.75v.93H0v-.93z" class="st14"/></g><g id="shape172-143" transform="translate(48.877 -60.72)"><path d="M0 195.57h3.75v.93H0v-.93z" class="st14"/></g><g id="shape173-145" transform="translate(52.403 -60.72)"><path d="M0 195.57h3.75v.93H0v-.93z" class="st14"/></g><g id="shape174-147" transform="translate(57.472 -61.875)"><path d="M1.36 193.24c0 .36-.3.67-.68.67-.38 0-.68-.31-.68-.67a.68.68 0 011.36 0zm0 2.58a.68.68 0 11-1.361-.001.68.68 0 011.361.001z" class="st14"/></g><g id="shape175-149" transform="translate(63.053 -30)"><path class="st14" d="M0 192h45v4.5H0z"/></g><g id="shape176-151" transform="translate(38.303 -29.22)"><path d="M0 195.57h3.75v.93H0v-.93z" class="st14"/></g><g id="shape177-153" transform="translate(41.828 -29.22)"><path d="M0 195.57h3.75v.93H0v-.93z" class="st14"/></g><g id="shape178-155" transform="translate(45.352 -29.22)"><path d="M0 195.57h3.75v.93H0v-.93z" class="st14"/></g><g id="shape179-157" transform="translate(48.877 -29.22)"><path d="M0 195.57h3.75v.93H0v-.93z" class="st14"/></g><g id="shape180-159" transform="translate(52.403 -29.22)"><path d="M0 195.57h3.75v.93H0v-.93z" class="st14"/></g><g id="shape181-161" transform="translate(57.472 -30.375)"><path d="M1.36 193.24c0 .36-.3.67-.68.67-.38 0-.68-.31-.68-.67a.68.68 0 011.36 0zm0 2.58a.68.68 0 11-1.361-.001.68.68 0 011.361.001z" class="st14"/></g><g id="shape182-163" transform="translate(63.053 -51)"><path class="st14" d="M0 192h30v4.5H0z"/></g><g id="shape183-165" transform="translate(98.677 -51)"><path class="st14" d="M0 192h9.375v4.5H0z"/></g><g id="shape184-167" transform="translate(34.778 -50.22)"><path d="M0 195.57h3.75v.93H0v-.93z" class="st14"/></g><g id="shape185-169" transform="translate(38.303 -50.22)"><path d="M0 195.57h3.75v.93H0v-.93z" class="st14"/></g><g id="shape186-171" transform="translate(41.828 -50.22)"><path d="M0 195.57h3.75v.93H0v-.93z" class="st14"/></g><g id="shape187-173" transform="translate(45.352 -50.22)"><path d="M0 195.57h3.75v.93H0v-.93z" class="st14"/></g><g id="shape188-175" transform="translate(48.877 -50.22)"><path d="M0 195.57h3.75v.93H0v-.93z" class="st14"/></g><g id="shape189-177" transform="translate(52.403 -50.22)"><path d="M0 195.57h3.75v.93H0v-.93z" class="st14"/></g><g id="shape190-179" transform="translate(57.472 -51.375)"><path d="M1.36 193.24c0 .36-.3.67-.68.67-.38 0-.68-.31-.68-.67a.68.68 0 011.36 0zm0 2.58a.68.68 0 11-1.361-.001.68.68 0 011.361.001z" class="st14"/></g><g id="shape191-181" transform="translate(45.352 -39.72)"><path d="M0 195.57h3.75v.93H0v-.93z" class="st14"/></g><g id="shape192-183" transform="translate(48.877 -39.72)"><path d="M0 195.57h3.75v.93H0v-.93z" class="st14"/></g><g id="shape193-185" transform="translate(52.403 -39.72)"><path d="M0 195.57h3.75v.93H0v-.93z" class="st14"/></g><g id="shape194-187" transform="translate(57.472 -40.875)"><path d="M1.36 193.24c0 .36-.3.67-.68.67-.38 0-.68-.31-.68-.67a.68.68 0 011.36 0zm0 2.58a.68.68 0 11-1.361-.001.68.68 0 011.361.001z" class="st14"/></g><g id="shape195-189" transform="translate(93.728 -39.72)"><path d="M0 195.57h3.75v.93H0v-.93z" class="st14"/></g><g id="shape196-191" transform="translate(97.252 -39.72)"><path d="M0 195.57h3.75v.93H0v-.93z" class="st14"/></g><g id="shape197-193" transform="translate(100.777 -39.72)"><path d="M0 195.57h3.75v.93H0v-.93z" class="st14"/></g><g id="shape198-195" transform="translate(104.303 -39.72)"><path d="M0 195.57h3.75v.93H0v-.93z" class="st14"/></g><g id="shape199-197" transform="translate(87.938 -40.5)"><circle cx="2.25" cy="194.25" class="st14" r="2.25"/></g><g id="shape200-199" transform="translate(68.843 -39.72)"><path d="M0 195.57h3.75v.93H0v-.93z" class="st14"/></g><g id="shape201-201" transform="translate(72.368 -39.72)"><path d="M0 195.57h3.75v.93H0v-.93z" class="st14"/></g><g id="shape202-203" transform="translate(75.892 -39.72)"><path d="M0 195.57h3.75v.93H0v-.93z" class="st14"/></g><g id="shape203-205" transform="translate(79.418 -39.72)"><path d="M0 195.57h3.75v.93H0v-.93z" class="st14"/></g><g id="shape204-207" transform="translate(63.053 -40.5)"><path d="M2.25 192C1 192 0 193 0 194.25c0 1.24 1 2.25 2.25 2.25s2.25-1.01 2.25-2.25c0-1.25-1-2.25-2.25-2.25zm0 3.75c-.83 0-1.5-.68-1.5-1.5 0-.83.67-1.5 1.5-1.5s1.5.67 1.5 1.5c0 .82-.67 1.5-1.5 1.5z" class="st14"/></g><g id="shape205-209" transform="translate(29.58 -77.25)"><path d="M3.21 188.77v.56H4.9l-.24 1.48H3.21v5.69H1.08v-5.69H0v-1.48h1.08v-.64c0-1.38.91-2.44 2.74-2.44.74 0 1.43.18 1.95.45l-.57 1.4c-.41-.2-.81-.27-1.12-.27-.62 0-.87.27-.87.94z" class="st5"/></g><g id="shape206-211" transform="translate(34.778 -77.017)"><path d="M7.02 192.69c0 2.29-1.32 3.81-3.51 3.81-2.17 0-3.51-1.4-3.51-3.82 0-2.29 1.32-3.81 3.51-3.81 2.19 0 3.51 1.4 3.51 3.82zm-4.81-.02c0 1.59.44 2.26 1.3 2.26.86 0 1.3-.69 1.3-2.24 0-1.59-.44-2.26-1.3-2.26-.86 0-1.3.69-1.3 2.24z" class="st5"/></g><g id="shape207-213" transform="translate(43.208 -77.25)"><path d="M4.6 189.22l-.34 2.06c-.23-.05-.41-.1-.65-.1-.87 0-1.25.65-1.48 1.73v3.59H0v-7.17h1.86l.17 1.38c.33-.98 1.03-1.58 1.86-1.58.26 0 .47.02.71.09z" class="st5"/></g><g id="shape208-215" transform="translate(48.75 -77.25)"><path d="M9.8 191.26v5.24H7.67v-4.88c0-.75-.28-.96-.61-.96-.45 0-.78.34-1.09.93v4.91H3.84v-4.88c0-.75-.28-.96-.61-.96-.44 0-.78.34-1.09.93v4.91H0v-7.17h1.87l.15.84c.55-.71 1.2-1.07 2.07-1.07.8 0 1.41.41 1.69 1.14.57-.75 1.23-1.14 2.15-1.14 1.1 0 1.87.79 1.87 2.16z" class="st5"/></g></g></g></svg>