<svg xmlns="http://www.w3.org/2000/svg" viewBox="0 0 291 95" color-interpolation-filters="sRGB" fill="none" fill-rule="evenodd" font-size="12" overflow="visible" stroke-linecap="square" stroke-miterlimit="3"><style>.st1,.st4,.st5{fill:#c45814;stroke:none;stroke-linecap:butt;stroke-width:.75}.st4,.st5{fill:#e7bca1}.st5{fill:#fff}</style><g id="group84-1" transform="translate(.75 -.75)"><g id="group1-2" transform="translate(0 -56.1)"><g id="shape2-3" transform="translate(0 -.015)"><path d="M5.52 82.74l-.04.36h1.59l-.6 1.94H5.22l-.68 4.97c-.4 2.96-2.11 3.86-3.91 4.49L0 92.46c1.03-.41 1.55-.92 1.74-2.3l.69-5.12h-.84l.25-1.94h.84l.08-.52c.23-1.65 1.35-2.93 3.34-2.93.96 0 1.73.33 2.2.69l-.98 1.63c-.32-.19-.62-.27-.92-.27-.49 0-.77.29-.88 1.04z" class="st1"/></g><g id="shape3-5" transform="translate(6.577 -3.098)"><path d="M0 91.21c0-2.76 1.31-5.32 4.23-5.32 1.89 0 3.1 1.11 3.1 3.3-.01 2.76-1.31 5.31-4.23 5.31-1.9 0-3.1-1.08-3.1-3.29zm4.52-2.4c0-.65-.16-.87-.51-.87-.91 0-1.18 2.35-1.18 3.63 0 .66.16.88.49.88.92.01 1.2-2.36 1.2-3.64z" class="st1"/></g><g id="shape4-7" transform="translate(14.34 -3.405)"><path d="M6.16 86.37l-.84 2.73c-.18-.05-.37-.09-.58-.09-.76 0-1.16.94-1.47 2.05l-.48 3.44H0l1.11-8.01h2.4v1.32c.45-.91 1.13-1.57 1.98-1.57.28 0 .45.04.67.13z" class="st1"/></g><g id="shape5-9" transform="translate(22.433)"><path d="M1.59 83.07h2.49v.82c.6-.76 1.37-1.1 2.07-1.1 1.32 0 2.02.99 2.02 2.77 0 3.13-1.12 5.83-3.85 5.83-.43 0-.8-.06-1.08-.15l-.42 2.97L0 94.5l1.59-11.43zm3.76 2.63c0-.72-.2-.85-.45-.85s-.55.21-.84.64l-.54 3.78c.17.08.33.11.51.11.98 0 1.32-2.39 1.32-3.68z" class="st1"/></g><g id="shape6-11" transform="translate(31.245 -3.09)"><path d="M7.23 88.14c-.06 2.23-2.4 2.95-4.45 3.18v.1c0 .69.33 1.02.93 1.02.58 0 1.06-.25 1.7-.7l.94 1.6c-.79.65-1.82 1.14-3.08 1.14C1.21 94.5 0 93.39.03 91.2c.04-2.84 1.4-5.33 4.41-5.33 1.79 0 2.84.96 2.79 2.27zm-2.71.04c0-.29-.12-.47-.42-.47-.61 0-.99.96-1.17 2 1.31-.11 1.59-1.01 1.59-1.53z" class="st1"/></g><g id="shape7-13" transform="translate(38.932 -3.098)"><path d="M0 91.21c0-2.76 1.3-5.32 4.23-5.32 1.89 0 3.1 1.11 3.1 3.3-.01 2.76-1.32 5.31-4.23 5.31-1.9 0-3.1-1.08-3.1-3.29zm4.51-2.4c0-.65-.16-.87-.51-.87-.91 0-1.18 2.35-1.18 3.63 0 .66.17.88.49.88.92.01 1.2-2.36 1.2-3.64z" class="st1"/></g><g id="shape8-15" transform="translate(46.208)"><path d="M1.59 83.07h2.49v.82c.6-.76 1.37-1.1 2.07-1.1 1.32 0 2.02.99 2.02 2.77 0 3.13-1.12 5.83-3.85 5.83-.43 0-.8-.06-1.08-.15l-.42 2.97L0 94.5l1.59-11.43zm3.76 2.63c0-.72-.2-.85-.45-.85s-.55.21-.84.64l-.54 3.78c.17.08.33.11.51.11.98 0 1.32-2.39 1.32-3.68z" class="st1"/></g><g id="shape9-17" transform="translate(54.773 -3.112)"><path d="M3.04 91.84c-.04.32.05.42.23.42.09 0 .15-.01.22-.02l.2 1.96c-.41.16-.99.3-1.56.3-1.46 0-2.13-.92-1.91-2.42l1.25-9.03 2.82-.28-1.25 9.07z" class="st1"/></g><g id="shape10-19" transform="translate(59.16 -3.09)"><path d="M7.23 88.14c-.06 2.23-2.4 2.95-4.45 3.18v.1c0 .69.33 1.02.93 1.02.58 0 1.06-.25 1.71-.7l.93 1.6c-.78.65-1.82 1.14-3.08 1.14C1.22 94.5 0 93.39.03 91.2c.05-2.84 1.4-5.33 4.41-5.33 1.78 0 2.83.96 2.79 2.27zm-2.71.04c0-.29-.12-.47-.42-.47-.61 0-.99.96-1.17 2 1.31-.11 1.59-1.01 1.59-1.53z" class="st1"/></g></g><g id="group11-21" transform="translate(75.877)"><g id="shape12-22"><path d="M45 19.5H7.5C3.36 19.5 0 22.86 0 27v67.5h105V30.75H52.5V27c0-4.14-3.36-7.5-7.5-7.5z" fill="#f9eee7" stroke-linecap="butt" stroke-width=".75"/></g><g id="shape13-24" transform="translate(9.053 -8.625)"><path d="M46.5 18H9c-4.14 0-7.5 3.36-9 9v67.5L106.5 93V29.25H54V25.5c0-4.14-3.36-7.5-7.5-7.5z" fill="#f3ded0" stroke-linecap="butt" stroke-width=".75"/></g><g id="shape14-26" transform="translate(18.052 -18)"><path d="M45 19.5H7.5C3.36 19.5 0 22.86 0 27v67.5h105V30.75H52.5V27c0-4.14-3.36-7.5-7.5-7.5z" class="st1"/></g><g id="shape15-28" transform="translate(63.053 -61.5)"><path class="st4" d="M0 90h45v4.5H0z"/></g><g id="shape16-30" transform="translate(45.352 -60.72)"><path d="M0 93.57h3.75v.93H0v-.93z" class="st4"/></g><g id="shape17-32" transform="translate(48.877 -60.72)"><path d="M0 93.57h3.75v.93H0v-.93z" class="st4"/></g><g id="shape18-34" transform="translate(52.403 -60.72)"><path d="M0 93.57h3.75v.93H0v-.93z" class="st4"/></g><g id="shape19-36" transform="translate(57.472 -61.875)"><path d="M1.36 91.24c0 .37-.3.67-.68.67-.38 0-.68-.3-.68-.67a.68.68 0 011.36 0zm0 2.58a.68.68 0 11-1.361-.001.68.68 0 011.361.001z" class="st4"/></g><g id="shape20-38" transform="translate(63.053 -30)"><path class="st4" d="M0 90h45v4.5H0z"/></g><g id="shape21-40" transform="translate(38.303 -29.22)"><path d="M0 93.57h3.75v.93H0v-.93z" class="st4"/></g><g id="shape22-42" transform="translate(41.828 -29.22)"><path d="M0 93.57h3.75v.93H0v-.93z" class="st4"/></g><g id="shape23-44" transform="translate(45.352 -29.22)"><path d="M0 93.57h3.75v.93H0v-.93z" class="st4"/></g><g id="shape24-46" transform="translate(48.877 -29.22)"><path d="M0 93.57h3.75v.93H0v-.93z" class="st4"/></g><g id="shape25-48" transform="translate(52.403 -29.22)"><path d="M0 93.57h3.75v.93H0v-.93z" class="st4"/></g><g id="shape26-50" transform="translate(57.472 -30.375)"><path d="M1.36 91.24c0 .37-.3.67-.68.67-.38 0-.68-.3-.68-.67a.68.68 0 011.36 0zm0 2.58a.68.68 0 11-1.361-.001.68.68 0 011.361.001z" class="st4"/></g><g id="shape27-52" transform="translate(63.053 -51)"><path class="st4" d="M0 90h30v4.5H0z"/></g><g id="shape28-54" transform="translate(98.677 -51)"><path class="st4" d="M0 90h9.375v4.5H0z"/></g><g id="shape29-56" transform="translate(34.778 -50.22)"><path d="M0 93.57h3.75v.93H0v-.93z" class="st4"/></g><g id="shape30-58" transform="translate(38.303 -50.22)"><path d="M0 93.57h3.75v.93H0v-.93z" class="st4"/></g><g id="shape31-60" transform="translate(41.828 -50.22)"><path d="M0 93.57h3.75v.93H0v-.93z" class="st4"/></g><g id="shape32-62" transform="translate(45.352 -50.22)"><path d="M0 93.57h3.75v.93H0v-.93z" class="st4"/></g><g id="shape33-64" transform="translate(48.877 -50.22)"><path d="M0 93.57h3.75v.93H0v-.93z" class="st4"/></g><g id="shape34-66" transform="translate(52.403 -50.22)"><path d="M0 93.57h3.75v.93H0v-.93z" class="st4"/></g><g id="shape35-68" transform="translate(57.472 -51.375)"><path d="M1.36 91.24c0 .36-.3.67-.68.67-.38 0-.68-.31-.68-.67a.68.68 0 011.36 0zm0 2.58a.68.68 0 11-1.361-.001.68.68 0 011.361.001z" class="st4"/></g><g id="shape36-70" transform="translate(45.352 -39.72)"><path d="M0 93.57h3.75v.93H0v-.93z" class="st4"/></g><g id="shape37-72" transform="translate(48.877 -39.72)"><path d="M0 93.57h3.75v.93H0v-.93z" class="st4"/></g><g id="shape38-74" transform="translate(52.403 -39.72)"><path d="M0 93.57h3.75v.93H0v-.93z" class="st4"/></g><g id="shape39-76" transform="translate(57.472 -40.875)"><path d="M1.36 91.24c0 .36-.3.67-.68.67-.38 0-.68-.3-.68-.67a.68.68 0 011.36 0zm0 2.58a.68.68 0 11-1.361-.001.68.68 0 011.361.001z" class="st4"/></g><g id="shape40-78" transform="translate(93.728 -39.72)"><path d="M0 93.57h3.75v.93H0v-.93z" class="st4"/></g><g id="shape41-80" transform="translate(97.252 -39.72)"><path d="M0 93.57h3.75v.93H0v-.93z" class="st4"/></g><g id="shape42-82" transform="translate(100.777 -39.72)"><path d="M0 93.57h3.75v.93H0v-.93z" class="st4"/></g><g id="shape43-84" transform="translate(104.303 -39.72)"><path d="M0 93.57h3.75v.93H0v-.93z" class="st4"/></g><g id="shape44-86" transform="translate(87.938 -40.5)"><circle cx="2.25" cy="92.25" class="st4" r="2.25"/></g><g id="shape45-88" transform="translate(68.843 -39.72)"><path d="M0 93.57h3.75v.93H0v-.93z" class="st4"/></g><g id="shape46-90" transform="translate(72.368 -39.72)"><path d="M0 93.57h3.75v.93H0v-.93z" class="st4"/></g><g id="shape47-92" transform="translate(75.892 -39.72)"><path d="M0 93.57h3.75v.93H0v-.93z" class="st4"/></g><g id="shape48-94" transform="translate(79.418 -39.72)"><path d="M0 93.57h3.75v.93H0v-.93z" class="st4"/></g><g id="shape49-96" transform="translate(63.053 -40.5)"><path d="M2.25 90C1 90 0 91.01 0 92.25s1 2.25 2.25 2.25 2.25-1.01 2.25-2.25S3.5 90 2.25 90zm0 3.75c-.83 0-1.5-.68-1.5-1.5s.67-1.5 1.5-1.5 1.5.68 1.5 1.5-.67 1.5-1.5 1.5z" class="st4"/></g><g id="shape50-98" transform="translate(29.58 -77.25)"><path d="M3.21 86.77v.56H4.9l-.24 1.48H3.21v5.69H1.08v-5.69H0v-1.48h1.08v-.64c0-1.38.91-2.44 2.74-2.44.74 0 1.43.18 1.95.45l-.57 1.4c-.41-.2-.81-.27-1.12-.27-.62 0-.87.27-.87.94z" class="st5"/></g><g id="shape51-100" transform="translate(34.778 -77.017)"><path d="M7.02 90.69c0 2.29-1.32 3.81-3.51 3.81C1.34 94.5 0 93.1 0 90.68c0-2.29 1.32-3.81 3.51-3.81 2.19 0 3.51 1.4 3.51 3.82zm-4.81-.02c0 1.59.44 2.26 1.3 2.26.86 0 1.3-.69 1.3-2.24 0-1.59-.44-2.26-1.3-2.26-.86 0-1.3.69-1.3 2.24z" class="st5"/></g><g id="shape52-102" transform="translate(43.208 -77.25)"><path d="M4.6 87.22l-.34 2.06c-.23-.05-.41-.1-.65-.1-.87 0-1.25.65-1.48 1.73v3.59H0v-7.17h1.86l.17 1.38c.33-.98 1.03-1.58 1.86-1.58.26 0 .47.02.71.09z" class="st5"/></g><g id="shape53-104" transform="translate(48.75 -77.25)"><path d="M9.8 89.26v5.24H7.67v-4.88c0-.75-.28-.96-.61-.96-.45 0-.78.34-1.09.94v4.9H3.84v-4.88c0-.75-.28-.96-.61-.96-.44 0-.78.34-1.09.94v4.9H0v-7.17h1.87l.15.84c.55-.71 1.2-1.07 2.07-1.07.8 0 1.41.41 1.69 1.14.57-.75 1.23-1.14 2.15-1.14 1.1 0 1.87.79 1.87 2.16z" class="st5"/></g><g id="shape54-106" transform="translate(135.345 -61.5)"><path d="M1.3 85.19h1.22l-.55 3.92h3.2l.55-3.92h1.22L5.63 94.5H4.41l.61-4.37H1.83l-.62 4.37H0l1.3-9.31z" class="st1"/></g><g id="shape55-108" transform="translate(142.777 -61.335)"><path d="M0 91.79c0-1.95.89-4.72 3.37-4.72 1.49 0 2.3 1.05 2.3 2.7 0 1.91-.85 4.73-3.36 4.73C.83 94.5 0 93.44 0 91.79zm4.46-2.13c0-1.11-.39-1.63-1.11-1.63-1.66 0-2.11 2.44-2.11 3.88 0 1.11.39 1.63 1.13 1.63 1.63 0 2.09-2.46 2.09-3.88z" class="st1"/></g><g id="shape56-110" transform="translate(149.325 -61.5)"><path d="M5.55 94.5H4.03l-.21-6.05L1.9 94.5H.4L0 87.38h1.15l.15 6.28 2.04-6.28h1.31l.23 6.28 1.91-6.28H7.9L5.55 94.5z" class="st1"/></g><g id="shape57-112" transform="translate(159.81 -61.343)"><path d="M5.17 87.85l-.64.71c-.38-.34-.71-.51-1.16-.51-1.64 0-2.13 2.27-2.13 3.83 0 1.14.43 1.61 1.14 1.61.53 0 .91-.23 1.39-.54l.44.81c-.62.5-1.28.74-1.95.74-1.41 0-2.26-1-2.26-2.68 0-2.08.96-4.74 3.35-4.74.74 0 1.29.23 1.82.77z" class="st1"/></g><g id="shape58-114" transform="translate(164.76 -61.343)"><path d="M5.67 87.62l-.74 5.11c-.07.47-.1.77.31.95l-.38.82c-.61-.1-1-.4-1.06-1.12-.49.66-1.05 1.12-1.84 1.12C.74 94.5 0 93.52 0 91.99c0-2.12 1-4.92 3.58-4.92.77 0 1.43.22 2.09.55zm-4.45 4.39c0 1.08.35 1.55.99 1.55.65 0 1.14-.57 1.61-1.25l.58-4.12c-.26-.1-.51-.16-.84-.16-1.65-.01-2.34 2.2-2.34 3.98z" class="st1"/></g><g id="shape59-116" transform="translate(171.18 -61.5)"><path d="M5.44 89.39l-.72 5.11H3.54l.71-5.09c.11-.88-.15-1.19-.59-1.19-.7 0-1.38.98-1.87 1.92l-.61 4.36H0l1-7.12h1.01l-.1 1.32c.57-.88 1.2-1.48 2.07-1.48 1.02 0 1.65.85 1.46 2.17z" class="st1"/></g><g id="shape60-118" transform="translate(179.782 -58.597)"><path d="M1.4 84.48h1.03l-.05.89c.64-.74 1.27-1.04 1.9-1.04 1.15 0 1.89.89 1.89 2.51 0 2.18-.9 4.91-3.44 4.91-.44 0-.78-.08-1.15-.24l-.4 2.83L0 94.5l1.4-10.02zm3.56 2.33c0-1.12-.37-1.53-.98-1.53-.6 0-1.2.49-1.66 1.05l-.58 4.29c.35.15.64.21 1.01.21 1.6-.01 2.21-2.3 2.21-4.02z" class="st1"/></g><g id="shape61-120" transform="translate(186.705 -61.35)"><path d="M1.23 91.69v.13c0 1.27.49 1.69 1.19 1.69.57 0 1.08-.22 1.63-.64l.5.78c-.69.54-1.42.85-2.26.85C.82 94.5 0 93.49 0 91.83c0-2.09.96-4.75 3.39-4.75 1.31 0 1.97.82 1.97 1.76 0 2-1.92 2.58-4.13 2.85zm.07-.9c1.86-.24 2.86-.66 2.86-1.91 0-.48-.24-.85-.84-.85-1.25 0-1.83 1.41-2.02 2.76z" class="st1"/></g><g id="shape62-122" transform="translate(192.54 -61.335)"><path d="M0 91.79c0-1.95.89-4.72 3.37-4.72 1.49 0 2.3 1.05 2.3 2.7 0 1.91-.85 4.73-3.36 4.73C.83 94.5 0 93.44 0 91.79zm4.46-2.13c0-1.11-.39-1.63-1.12-1.63-1.66 0-2.11 2.44-2.11 3.88 0 1.11.39 1.63 1.13 1.63 1.64 0 2.1-2.46 2.1-3.88z" class="st1"/></g><g id="shape63-124" transform="translate(198.562 -58.597)"><path d="M1.4 84.48h1.03l-.05.89c.64-.74 1.27-1.04 1.9-1.04 1.15 0 1.89.89 1.89 2.51 0 2.18-.9 4.91-3.44 4.91-.44 0-.78-.08-1.15-.24l-.4 2.83L0 94.5l1.4-10.02zm3.56 2.33c0-1.12-.37-1.53-.98-1.53-.6 0-1.2.49-1.66 1.05l-.58 4.29c.35.15.64.21 1.01.21 1.6-.01 2.21-2.3 2.21-4.02z" class="st1"/></g><g id="shape64-126" transform="translate(205.47 -61.328)"><path d="M1.3 93.01c-.04.35.03.5.28.5.12 0 .24-.03.39-.08l.21.84c-.31.16-.63.23-.91.23-.81 0-1.27-.58-1.13-1.57l1.19-8.57 1.18-.13-1.21 8.78z" class="st1"/></g><g id="shape65-128" transform="translate(208.44 -61.35)"><path d="M1.23 91.69v.13c0 1.27.49 1.69 1.18 1.69.58 0 1.09-.22 1.64-.64l.5.78c-.69.54-1.42.85-2.26.85C.82 94.5 0 93.49 0 91.83c0-2.09.96-4.75 3.39-4.75 1.31 0 1.97.82 1.97 1.76 0 2-1.93 2.58-4.13 2.85zm.07-.9c1.86-.24 2.86-.66 2.86-1.91 0-.48-.24-.85-.84-.85-1.25 0-1.83 1.41-2.02 2.76z" class="st1"/></g><g id="shape66-130" transform="translate(135.285 -45.3)"><path d="M4.35 87.33l-.37 1.13c-.17-.04-.3-.07-.49-.07-.8 0-1.35.85-1.79 2.3l-.52 3.81H0l1-7.12h1.02l-.1 1.34c.47-.96 1.01-1.49 1.82-1.49.22 0 .42.05.61.1z" class="st1"/></g><g id="shape67-132" transform="translate(139.335 -45.15)"><path d="M1.23 91.69v.13c0 1.27.49 1.69 1.19 1.69.57 0 1.08-.22 1.63-.64l.5.78c-.69.54-1.42.85-2.26.85C.82 94.5 0 93.49 0 91.82c0-2.09.96-4.75 3.39-4.75 1.31 0 1.97.82 1.97 1.77 0 2-1.93 2.58-4.13 2.85zm.07-.9c1.86-.23 2.86-.66 2.86-1.91 0-.48-.24-.84-.84-.84-1.25-.01-1.84 1.4-2.02 2.75z" class="st1"/></g><g id="shape68-134" transform="translate(145.147 -45.142)"><path d="M5.67 87.61l-.74 5.12c-.07.47-.1.77.31.95l-.38.82c-.61-.1-1-.4-1.06-1.12-.49.66-1.05 1.12-1.84 1.12C.74 94.5 0 93.52 0 91.99c0-2.13 1-4.91 3.58-4.91.76 0 1.42.21 2.09.53zm-4.46 4.4c0 1.08.35 1.55 1 1.55.64 0 1.13-.57 1.6-1.25l.58-4.12c-.26-.1-.5-.16-.84-.16-1.65-.01-2.34 2.19-2.34 3.98z" class="st1"/></g><g id="shape69-136" transform="translate(151.56 -45.135)"><path d="M6.22 84.37l-1.41 9.96H3.77l.04-1.11c-.46.79-1.07 1.28-1.89 1.28C.68 94.5 0 93.49 0 91.93c0-2.01.91-4.87 3.08-4.87.73 0 1.19.37 1.47.85l.51-3.66 1.16.12zm-5 7.62c0 1.06.37 1.56.98 1.56.71 0 1.23-.69 1.79-1.68l.42-2.97c-.27-.57-.61-.9-1.19-.9-1.47 0-2 2.45-2 3.99z" class="st1"/></g><g id="shape70-138" transform="translate(160.71 -45.142)"><path d="M5.67 87.61l-.74 5.12c-.07.47-.1.77.3.95l-.37.82c-.61-.1-1-.4-1.07-1.12-.48.66-1.04 1.12-1.83 1.12C.74 94.5 0 93.52 0 91.99c0-2.13 1-4.91 3.58-4.91.76 0 1.43.21 2.09.53zm-4.45 4.4c0 1.08.35 1.55.99 1.55.65 0 1.14-.57 1.61-1.25l.58-4.12c-.26-.1-.51-.16-.84-.16-1.65-.01-2.34 2.19-2.34 3.98z" class="st1"/></g><g id="shape71-140" transform="translate(167.13 -45.292)"><path d="M5.44 89.38l-.72 5.11H3.54l.71-5.09c.11-.88-.15-1.19-.59-1.19-.71 0-1.38.99-1.88 1.92l-.6 4.37H0l1-7.12h1.01l-.1 1.32c.57-.88 1.2-1.48 2.07-1.48 1.02 0 1.65.85 1.46 2.16z" class="st1"/></g><g id="shape72-142" transform="translate(173.528 -45.135)"><path d="M6.22 84.37l-1.41 9.96H3.77l.04-1.11c-.46.79-1.07 1.28-1.89 1.28C.67 94.5 0 93.49 0 91.93c0-2.01.91-4.87 3.08-4.87.72 0 1.18.37 1.45.85l.51-3.66 1.18.12zm-5 7.62c0 1.06.37 1.56.98 1.56.71 0 1.23-.69 1.79-1.68l.42-2.97c-.27-.57-.61-.9-1.19-.9-1.47 0-2 2.45-2 3.99z" class="st1"/></g><g id="shape73-144" transform="translate(182.91 -45.3)"><path d="M5.56 94.5H4.04l-.22-6.05L1.9 94.5H.41L0 87.38h1.15l.15 6.28 2.04-6.28h1.31l.23 6.28 1.91-6.28H7.9L5.56 94.5z" class="st1"/></g><g id="shape74-146" transform="translate(190.785 -45.3)"><path d="M4.35 87.33l-.37 1.13c-.17-.04-.3-.07-.49-.07-.8 0-1.35.85-1.79 2.3l-.52 3.81H0l1-7.12h1.01l-.1 1.34c.48-.96 1.02-1.49 1.83-1.49.22 0 .42.05.61.1z" class="st1"/></g><g id="shape75-148" transform="translate(194.925 -45.3)"><path d="M1.18 94.5H0l1-7.12h1.18l-1 7.12zm-.02-9.59c0-.54.39-.89.85-.89.44 0 .71.3.71.71 0 .54-.39.89-.85.89-.44-.01-.71-.29-.71-.71z" class="st1"/></g><g id="shape76-150" transform="translate(197.805 -45.142)"><path d="M1.55 92.71c-.08.54.1.81.54.81.3 0 .56-.11.86-.29l.36.8c-.45.32-.93.47-1.42.47-1.05 0-1.66-.71-1.49-1.86l.63-4.49H0l.13-.93H1.2l.4-1.65.98-.1-.26 1.75h1.44l-.26.93H2.2l-.65 4.56z" class="st1"/></g><g id="shape77-152" transform="translate(201.675 -45.15)"><path d="M1.23 91.69v.13c0 1.27.49 1.69 1.18 1.69.58 0 1.09-.22 1.64-.64l.5.78c-.69.54-1.42.85-2.26.85C.82 94.5 0 93.49 0 91.82c0-2.09.96-4.75 3.39-4.75 1.31 0 1.97.82 1.97 1.77 0 2-1.93 2.58-4.13 2.85zm.07-.9c1.86-.23 2.86-.66 2.86-1.91 0-.48-.24-.84-.84-.84-1.25-.01-1.83 1.4-2.02 2.75z" class="st1"/></g><g id="shape78-154" transform="translate(135.285 -28.935)"><path d="M6.22 84.37l-1.41 9.96H3.77l.04-1.11c-.46.79-1.07 1.28-1.89 1.28C.67 94.5 0 93.49 0 91.94c0-2.01.91-4.88 3.08-4.88.72 0 1.18.37 1.45.85l.51-3.66 1.18.12zm-5.01 7.62c0 1.06.37 1.56.99 1.56.7 0 1.23-.68 1.78-1.68l.42-2.97c-.27-.57-.61-.89-1.18-.89-1.47 0-2.01 2.44-2.01 3.98z" class="st1"/></g><g id="shape79-156" transform="translate(141.825 -28.942)"><path d="M5.67 87.61l-.74 5.12c-.07.47-.1.77.3.94l-.37.83c-.61-.1-1-.41-1.07-1.12-.48.66-1.04 1.12-1.83 1.12C.74 94.5 0 93.52 0 91.99c0-2.13 1-4.92 3.58-4.92.76 0 1.43.22 2.09.54zm-4.46 4.4c0 1.08.36 1.55 1 1.55.65 0 1.14-.57 1.61-1.25l.57-4.12c-.25-.1-.5-.16-.84-.16-1.65-.01-2.34 2.19-2.34 3.98z" class="st1"/></g><g id="shape80-158" transform="translate(148.208 -28.942)"><path d="M1.55 92.71c-.08.54.1.81.54.81.3 0 .56-.11.86-.29l.36.8c-.45.32-.93.47-1.42.47-1.05 0-1.66-.71-1.49-1.86l.63-4.49H0l.13-.93H1.2l.4-1.65.98-.1-.26 1.75h1.44l-.26.93H2.2l-.65 4.56z" class="st1"/></g><g id="shape81-160" transform="translate(152.055 -28.942)"><path d="M5.67 87.61l-.74 5.12c-.07.47-.1.77.31.94l-.38.83c-.61-.1-1-.41-1.06-1.12-.49.66-1.05 1.12-1.84 1.12C.74 94.5 0 93.52 0 91.99c0-2.13 1-4.92 3.58-4.92.77 0 1.43.22 2.09.54zm-4.46 4.4c0 1.08.36 1.55 1 1.55.65 0 1.14-.57 1.61-1.25l.58-4.12c-.26-.1-.51-.16-.84-.16-1.65-.01-2.35 2.19-2.35 3.98z" class="st1"/></g><g id="shape82-162" transform="translate(158.97 -28.935)"><path d="M4.57 86.76c0 2.47-2.86 2.12-2.86 4.05 0 .1.01.24.03.39l-1.04.17c-.07-.18-.11-.44-.11-.67 0-2.3 2.77-1.98 2.77-3.93 0-.65-.37-.92-.95-.92-.57 0-1.13.34-1.72.96L0 86.18c.77-.91 1.61-1.3 2.51-1.3 1.4 0 2.06.87 2.06 1.88zM.27 93.7c0-.53.39-.99.94-.99.51 0 .8.36.8.8 0 .53-.39.98-.95.98-.5.01-.79-.34-.79-.79z" class="st1"/></g></g></g></svg>