<svg xmlns="http://www.w3.org/2000/svg" viewBox="0 0 203 77" color-interpolation-filters="sRGB" fill="none" fill-rule="evenodd" font-size="12" overflow="visible" stroke-linecap="square" stroke-miterlimit="3"><style>.st1,.st2{fill:#3a2d72;stroke:none;stroke-linecap:butt;stroke-width:.75}.st2{fill:#fff}</style><g id="group45-1" transform="translate(.75 -.75)"><g id="group1-2" transform="translate(0 -12.172)"><g id="shape2-3" transform="translate(39.788 -35.265)"><path d="M6.13 76.5H4.58l-.31-7.88-2.48 7.88H.25L0 67.19h1.15l.07 8.21 2.6-8.21h1.33l.32 8.21 2.41-8.21H9L6.13 76.5z" class="st1"/></g><g id="shape3-5" transform="translate(48.825 -35.258)"><path d="M5.43 71.38l-.73 5.11H3.52l.72-5.09c.12-.88-.14-1.19-.58-1.19-.71 0-1.39.99-1.89 1.93l-.59 4.36H0l1.4-9.97 1.19-.12-.6 4.22c.49-.8 1.1-1.4 1.96-1.4 1.04-.02 1.67.84 1.48 2.15z" class="st1"/></g><g id="shape4-7" transform="translate(55.553 -35.108)"><path d="M5.67 69.61l-.74 5.12c-.07.47-.1.77.31.94l-.38.83c-.61-.1-1-.41-1.06-1.12-.49.66-1.05 1.12-1.84 1.12C.74 76.5 0 75.52 0 73.99c0-2.13 1-4.92 3.58-4.92.76 0 1.43.22 2.09.54zm-4.45 4.4c0 1.08.35 1.55.99 1.55.65 0 1.14-.57 1.61-1.25l.57-4.12c-.25-.1-.5-.16-.84-.16-1.65-.01-2.33 2.19-2.33 3.98z" class="st1"/></g><g id="shape5-9" transform="translate(62.273 -35.108)"><path d="M1.55 74.71c-.08.54.1.81.54.81.3 0 .56-.11.87-.29l.35.8c-.44.32-.93.47-1.42.47-1.05 0-1.66-.71-1.48-1.86l.62-4.49H0l.14-.93H1.2l.41-1.65.97-.1-.25 1.75h1.43l-.26.93H2.21l-.66 4.56z" class="st1"/></g><g id="shape6-11" transform="translate(69.517 -35.265)"><path d="M1.18 76.5H0l1-7.12h1.17l-.99 7.12zm-.02-9.58c0-.55.39-.9.85-.9.43 0 .7.3.7.71 0 .54-.39.89-.84.89-.44-.01-.71-.29-.71-.7z" class="st1"/></g><g id="shape7-13" transform="translate(72.09 -35.093)"><path d="M5.42 69.93l-.57.69c-.45-.39-.91-.61-1.5-.61-.71 0-1.2.39-1.2 1.04 0 .54.38.79 1.2 1.11 1.05.41 1.59.96 1.59 2.01 0 1.45-1.17 2.33-2.64 2.33-1.1 0-1.84-.49-2.3-1.01l.68-.69c.44.44.96.74 1.65.74 1.03 0 1.39-.71 1.39-1.28 0-.66-.3-.92-1.23-1.28-1.06-.41-1.54-.92-1.54-1.86 0-1.05.93-2.05 2.38-2.05.91-.01 1.57.32 2.09.86z" class="st1"/></g><g id="shape8-15" transform="translate(81.172 -35.108)"><path d="M1.55 74.71c-.08.54.1.81.54.81.3 0 .56-.11.86-.29l.36.8c-.45.32-.93.47-1.42.47-1.05 0-1.66-.71-1.49-1.86l.63-4.49H0l.14-.93H1.2l.41-1.65.97-.1-.26 1.75h1.44l-.26.93H2.2l-.65 4.56z" class="st1"/></g><g id="shape9-17" transform="translate(85.478 -35.258)"><path d="M5.43 71.38l-.73 5.11H3.52l.72-5.09c.12-.88-.14-1.19-.58-1.19-.71 0-1.39.99-1.89 1.93l-.59 4.36H0l1.4-9.97 1.19-.12-.6 4.22c.49-.8 1.1-1.4 1.96-1.4 1.04-.02 1.67.84 1.48 2.15z" class="st1"/></g><g id="shape10-19" transform="translate(92.228 -35.115)"><path d="M1.23 73.69v.13c0 1.27.49 1.69 1.19 1.69.57 0 1.08-.22 1.63-.64l.5.78c-.69.54-1.41.85-2.25.85-1.47 0-2.3-1.01-2.3-2.67 0-2.09.96-4.76 3.39-4.76 1.31 0 1.97.83 1.97 1.77 0 2-1.93 2.58-4.13 2.85zm.07-.9c1.86-.24 2.86-.66 2.86-1.91 0-.49-.24-.85-.84-.85-1.25 0-1.83 1.41-2.02 2.76z" class="st1"/></g><g id="shape11-21" transform="translate(0 -18.915)"><path d="M1.23 73.69v.13c0 1.27.49 1.69 1.18 1.69.58 0 1.08-.22 1.64-.64l.5.78c-.69.54-1.41.85-2.26.85C.83 76.5 0 75.49 0 73.82c0-2.09.96-4.75 3.39-4.75 1.31 0 1.97.82 1.97 1.77 0 2-1.93 2.58-4.13 2.85zm.07-.9c1.86-.24 2.86-.66 2.86-1.91 0-.49-.24-.85-.84-.85-1.26 0-1.84 1.41-2.02 2.76z" class="st1"/></g><g id="shape12-23" transform="translate(5.077 -19.065)"><path d="M4 72.79l1.54 3.71H4.29l-1.1-3.05-1.93 3.05H0l2.6-3.82-1.36-3.3h1.25l.91 2.67 1.63-2.67h1.26L4 72.79z" class="st1"/></g><g id="shape13-25" transform="translate(11.325 -16.163)"><path d="M1.4 66.48h1.03l-.05.89c.64-.74 1.27-1.04 1.9-1.04 1.15 0 1.89.89 1.89 2.51 0 2.18-.91 4.92-3.44 4.92-.44 0-.78-.09-1.15-.24l-.4 2.82L0 76.5l1.4-10.02zm3.56 2.32c0-1.1-.37-1.52-.99-1.52-.59 0-1.2.49-1.65 1.04l-.58 4.3c.35.15.64.2 1.01.2 1.6 0 2.21-2.29 2.21-4.02z" class="st1"/></g><g id="shape14-27" transform="translate(18.585 -18.915)"><path d="M1.23 73.69v.13c0 1.27.49 1.69 1.18 1.69.58 0 1.08-.22 1.64-.64l.5.78c-.69.54-1.42.85-2.26.85C.82 76.5 0 75.49 0 73.82c0-2.09.96-4.75 3.39-4.75 1.31 0 1.97.82 1.97 1.77 0 2-1.93 2.58-4.13 2.85zm.07-.9c1.86-.24 2.86-.66 2.86-1.91 0-.49-.24-.85-.84-.85-1.25 0-1.84 1.41-2.02 2.76z" class="st1"/></g><g id="shape15-29" transform="translate(24.75 -18.907)"><path d="M5.17 69.85l-.64.71c-.38-.34-.71-.51-1.16-.51-1.64 0-2.13 2.26-2.13 3.83 0 1.13.43 1.61 1.14 1.61.53 0 .91-.24 1.39-.54l.44.81c-.62.5-1.28.74-1.95.74-1.4 0-2.26-1-2.26-2.69 0-2.07.96-4.74 3.35-4.74.74 0 1.29.24 1.82.78z" class="st1"/></g><g id="shape16-31" transform="translate(30.24 -18.907)"><path d="M1.55 74.71c-.08.54.1.81.54.81.3 0 .56-.11.86-.29l.36.8c-.45.32-.93.47-1.42.47-1.05 0-1.66-.71-1.49-1.86l.63-4.48H0l.14-.93H1.2l.41-1.65.97-.11-.26 1.76h1.44l-.26.93H2.2l-.65 4.55z" class="st1"/></g><g id="shape17-33" transform="translate(34.447 -18.915)"><path d="M1.23 73.69v.13c0 1.27.49 1.69 1.18 1.69.58 0 1.08-.22 1.64-.64l.5.78c-.69.54-1.42.85-2.26.85C.83 76.5 0 75.49 0 73.82c0-2.09.96-4.75 3.39-4.75 1.31 0 1.97.82 1.97 1.77 0 2-1.93 2.58-4.13 2.85zm.07-.9c1.86-.24 2.86-.66 2.86-1.91 0-.49-.24-.85-.84-.85-1.25 0-1.84 1.41-2.02 2.76z" class="st1"/></g><g id="shape18-35" transform="translate(40.597 -18.907)"><path d="M6.22 66.37l-1.4 9.97H3.77l.04-1.12c-.46.79-1.06 1.28-1.89 1.28C.68 76.5 0 75.49 0 73.93c0-2.01.91-4.87 3.08-4.87.72 0 1.18.37 1.45.85l.51-3.66 1.18.12zm-5 7.62c0 1.07.37 1.57.99 1.57.7 0 1.23-.69 1.78-1.69l.42-2.97c-.27-.57-.61-.89-1.18-.89-1.48 0-2.01 2.45-2.01 3.98z" class="st1"/></g><g id="shape19-37" transform="translate(49.748 -18.892)"><path d="M5.42 69.93l-.57.69c-.46-.39-.91-.61-1.5-.61-.71 0-1.2.39-1.2 1.05 0 .54.38.78 1.2 1.11 1.04.4 1.59.95 1.59 1.99 0 1.46-1.17 2.34-2.65 2.34-1.09 0-1.83-.49-2.29-1.01l.68-.69c.44.44.95.74 1.65.74 1.03 0 1.39-.71 1.39-1.28 0-.66-.3-.92-1.23-1.28-1.07-.41-1.54-.92-1.54-1.86 0-1.05.93-2.05 2.38-2.05.91-.01 1.57.32 2.09.86z" class="st1"/></g><g id="shape20-39" transform="translate(55.89 -18.907)"><path d="M1.55 74.71c-.08.54.1.81.54.81.3 0 .56-.11.87-.29l.35.8c-.44.32-.93.47-1.42.47-1.05 0-1.66-.71-1.48-1.86l.62-4.48H0l.14-.93H1.2l.41-1.65.97-.11-.25 1.76h1.43l-.26.93H2.21l-.66 4.55z" class="st1"/></g><g id="shape21-41" transform="translate(60.195 -19.065)"><path d="M4.34 69.33l-.37 1.13c-.17-.04-.3-.07-.49-.07-.8 0-1.35.85-1.78 2.3l-.53 3.81H0l1-7.12h1.01l-.1 1.34c.47-.96 1.01-1.49 1.83-1.49.21 0 .42.05.6.1z" class="st1"/></g><g id="shape22-43" transform="translate(64.718 -18.892)"><path d="M.17 74.45l.73-5.24h1.18l-.74 5.31c-.13.76.11 1.04.55 1.04.77 0 1.4-.96 1.82-1.63l.69-4.71h1.16l-.99 7.11h-1l.1-1.28c-.54.85-1.1 1.45-2 1.45-1.05-.01-1.67-.79-1.5-2.05z" class="st1"/></g><g id="shape23-45" transform="translate(71.362 -18.907)"><path d="M5.17 69.85l-.64.71c-.38-.34-.7-.51-1.16-.51-1.64 0-2.13 2.26-2.13 3.83 0 1.13.43 1.61 1.15 1.61.52 0 .9-.24 1.38-.54l.45.81c-.63.5-1.29.74-1.96.74-1.41 0-2.26-1-2.26-2.69 0-2.07.96-4.74 3.34-4.74.75 0 1.3.24 1.83.78z" class="st1"/></g><g id="shape24-47" transform="translate(76.853 -18.907)"><path d="M1.55 74.71c-.08.54.1.81.54.81.3 0 .56-.11.86-.29l.36.8c-.45.32-.93.47-1.42.47-1.05 0-1.66-.71-1.49-1.86l.63-4.48H0l.14-.93H1.2l.41-1.65.97-.11-.26 1.76h1.44l-.26.93H2.2l-.65 4.55z" class="st1"/></g><g id="shape25-49" transform="translate(81.195 -18.892)"><path d="M.18 74.45l.73-5.24h1.17l-.74 5.31c-.12.76.12 1.04.56 1.04.77 0 1.4-.96 1.82-1.63l.69-4.71h1.16l-.99 7.11h-1l.1-1.28c-.55.85-1.1 1.45-2 1.45-1.06-.01-1.68-.79-1.5-2.05z" class="st1"/></g><g id="shape26-51" transform="translate(87.84 -19.065)"><path d="M4.35 69.33l-.38 1.13c-.16-.04-.3-.07-.48-.07-.8 0-1.35.85-1.79 2.3l-.52 3.81H0l1-7.12h1.01l-.1 1.34c.47-.96 1.01-1.49 1.83-1.49.22 0 .42.05.61.1z" class="st1"/></g><g id="shape27-53" transform="translate(92.228 -18.915)"><path d="M1.23 73.69v.13c0 1.27.49 1.69 1.19 1.69.57 0 1.08-.22 1.63-.64l.5.78c-.69.54-1.41.85-2.25.85-1.47 0-2.3-1.01-2.3-2.68 0-2.09.96-4.75 3.39-4.75 1.31 0 1.97.82 1.97 1.77 0 2-1.93 2.58-4.13 2.85zm.07-.9c1.86-.24 2.86-.66 2.86-1.91 0-.49-.24-.85-.84-.85-1.25 0-1.83 1.41-2.02 2.76z" class="st1"/></g><g id="shape28-55" transform="translate(37.703 -2.7)"><path d="M0 73.78c0-1.94.89-4.71 3.37-4.71 1.49 0 2.3 1.05 2.3 2.7 0 1.91-.85 4.73-3.36 4.73C.83 76.5 0 75.44 0 73.78zm4.45-2.12c0-1.12-.39-1.63-1.11-1.63-1.66 0-2.11 2.44-2.11 3.87 0 1.11.39 1.64 1.13 1.64 1.64 0 2.09-2.46 2.09-3.88z" class="st1"/></g><g id="shape29-57" transform="translate(43.133)"><path d="M3.82 65.56l-.14.96h1.49l-.27.93H3.55l-.83 5.91c-.28 2.01-1.04 2.5-2.41 3.14L0 75.61c.86-.42 1.37-.78 1.58-2.35l.81-5.81H1.34l.14-.93h1.04l.15-1.02c.17-1.19.92-1.99 2.16-1.99.62 0 1.07.2 1.5.51l-.44.76c-.34-.22-.68-.31-1.01-.31-.66-.01-.95.36-1.06 1.09z" class="st1"/></g><g id="shape30-59" transform="translate(51.172 -2.708)"><path d="M1.55 74.71c-.08.54.1.81.54.81.3 0 .56-.11.87-.29l.35.8c-.44.32-.93.47-1.42.47-1.05 0-1.66-.71-1.48-1.86l.62-4.48H0l.14-.93H1.2l.41-1.65.97-.11-.25 1.76h1.43l-.26.93H2.21l-.66 4.55z" class="st1"/></g><g id="shape31-61" transform="translate(55.477 -2.857)"><path d="M5.43 71.38l-.73 5.11H3.52l.72-5.09c.12-.88-.14-1.19-.58-1.19-.71 0-1.39.99-1.89 1.93l-.59 4.36H0l1.4-9.97 1.19-.12-.6 4.22c.49-.8 1.1-1.4 1.96-1.4 1.05-.01 1.67.84 1.48 2.15z" class="st1"/></g><g id="shape32-63" transform="translate(62.227 -2.715)"><path d="M1.23 73.69v.13c0 1.27.49 1.69 1.18 1.69.58 0 1.08-.22 1.64-.64l.5.78c-.69.54-1.41.85-2.25.85-1.47 0-2.3-1.01-2.3-2.67 0-2.09.96-4.76 3.39-4.76 1.31 0 1.97.83 1.97 1.78 0 1.99-1.92 2.57-4.13 2.84zm.07-.9c1.86-.24 2.86-.66 2.86-1.91 0-.49-.24-.85-.84-.85-1.25 0-1.83 1.41-2.02 2.76z" class="st1"/></g><g id="shape33-65" transform="translate(71.325 -2.7)"><path d="M6.22 66.37l-1.4 9.97H3.77l.04-1.12c-.46.79-1.07 1.28-1.89 1.28C.68 76.5 0 75.49 0 73.94c0-2.02.91-4.88 3.08-4.88.72 0 1.18.37 1.45.85l.51-3.66 1.18.12zm-5 7.62c0 1.06.37 1.57.99 1.57.7 0 1.23-.69 1.78-1.69l.42-2.97c-.27-.57-.61-.9-1.18-.9-1.48 0-2.01 2.44-2.01 3.99z" class="st1"/></g><g id="shape34-67" transform="translate(78.203 -2.708)"><path d="M5.67 69.62l-.74 5.11c-.07.47-.1.77.31.94l-.38.83c-.61-.1-1-.41-1.06-1.12-.49.66-1.05 1.12-1.84 1.12C.74 76.5 0 75.52 0 73.99c0-2.13 1-4.92 3.58-4.92.77.01 1.43.22 2.09.55zM1.22 74c0 1.08.35 1.56.99 1.56.65 0 1.14-.57 1.61-1.26l.58-4.11c-.26-.11-.51-.17-.85-.17-1.64 0-2.33 2.21-2.33 3.98z" class="st1"/></g><g id="shape35-69" transform="translate(84.922 -2.708)"><path d="M1.55 74.71c-.08.54.1.81.54.81.3 0 .56-.11.87-.29l.35.8c-.45.32-.93.47-1.42.47-1.05 0-1.66-.71-1.49-1.86l.63-4.48H0l.14-.93H1.2l.41-1.65.97-.11-.25 1.76h1.43l-.26.93H2.2l-.65 4.55z" class="st1"/></g><g id="shape36-71" transform="translate(89.115 -2.708)"><path d="M5.67 69.62l-.74 5.11c-.07.47-.1.77.31.94l-.38.83c-.61-.1-1-.41-1.06-1.12-.49.66-1.05 1.12-1.84 1.12C.74 76.5 0 75.52 0 73.99c0-2.13 1-4.92 3.58-4.92.76.01 1.42.22 2.09.55zM1.21 74c0 1.08.35 1.56.99 1.56.65 0 1.14-.57 1.61-1.26l.58-4.11c-.26-.11-.51-.17-.84-.17-1.65 0-2.34 2.21-2.34 3.98z" class="st1"/></g><g id="shape37-73" transform="translate(96.36 -2.7)"><path d="M4.57 68.76c0 2.47-2.86 2.12-2.86 4.05 0 .1.01.24.03.39l-1.04.17c-.07-.19-.11-.44-.11-.67 0-2.3 2.77-1.97 2.77-3.93 0-.65-.37-.92-.95-.92-.56 0-1.13.34-1.72.96L0 68.18c.77-.91 1.6-1.3 2.51-1.3 1.4 0 2.06.87 2.06 1.88zM.27 75.7c0-.53.39-.99.94-.99.51 0 .8.36.8.8 0 .52-.39.98-.95.98-.49.01-.79-.34-.79-.79z" class="st1"/></g></g><g id="group38-75" transform="translate(111.195)"><g id="shape39-76"><path d="M75 24V1.5H52.5c0 8.29-6.71 15-15 15s-15-6.71-15-15H0v75h75V54c8.29 0 15-6.71 15-15s-6.71-15-15-15z" class="st1"/></g><g id="shape40-78" transform="translate(18.938 -30.78)"><path d="M5.92 69.76l-.78 1.2c-.56-.35-1.15-.56-1.77-.56-.58 0-.87.22-.87.54 0 .38.19.54 1.47.92 1.42.4 2.22 1 2.22 2.28 0 1.48-1.41 2.36-3.19 2.36-1.24 0-2.3-.44-3-1.06l1.04-1.17c.54.42 1.2.71 1.91.71.64 0 1.04-.24 1.04-.68 0-.49-.22-.64-1.52-1-1.41-.4-2.12-1.13-2.12-2.24 0-1.23 1.12-2.19 2.93-2.19 1.04.01 1.97.35 2.64.89z" class="st2"/></g><g id="shape41-80" transform="translate(26.348 -30.997)"><path d="M6.19 71.26v5.24H4.06v-4.88c0-.75-.27-.96-.68-.96-.47 0-.86.34-1.24.92v4.91H0V66.47l2.14-.22v3.83c.58-.65 1.23-.98 2.06-.98 1.25 0 1.99.79 1.99 2.16z" class="st2"/></g><g id="shape42-82" transform="translate(33.795 -30.78)"><path d="M6.66 75.08l-.44 1.38c-.84-.06-1.39-.32-1.73-1.02-.51.78-1.31 1.06-2.16 1.06C.9 76.5 0 75.57 0 74.26c0-1.57 1.19-2.42 3.36-2.42h.73v-.31c0-.85-.34-1.11-1.22-1.11-.46 0-1.16.13-1.87.37l-.49-1.4c.91-.34 1.89-.52 2.7-.52 2.08 0 2.97.87 2.97 2.54v2.78c0 .56.14.77.48.89zm-2.57-.77v-1.28h-.53c-.97 0-1.44.34-1.44 1.05 0 .57.3.91.84.91.48 0 .87-.26 1.13-.68z" class="st2"/></g><g id="shape43-84" transform="translate(41.805 -28.005)"><path d="M6.73 69.9c0 2.21-1.08 3.83-2.85 3.83-.71 0-1.3-.24-1.74-.75v3.29L0 76.5V66.33h1.87l.11.79c.59-.74 1.36-1.02 2.02-1.02 1.9 0 2.73 1.47 2.73 3.8zm-2.22.02c0-1.78-.43-2.26-1.17-2.26-.46 0-.9.31-1.2.84v3.03c.3.43.64.63 1.09.63.8 0 1.28-.63 1.28-2.24z" class="st2"/></g><g id="shape44-86" transform="translate(49.59 -30.78)"><path d="M6.62 73.32H2.19c.13 1.28.74 1.63 1.62 1.63.58 0 1.1-.2 1.72-.63l.87 1.18c-.71.57-1.63 1-2.79 1-2.4 0-3.61-1.54-3.61-3.78 0-2.15 1.18-3.85 3.35-3.85 2.06 0 3.31 1.35 3.31 3.68 0 .23-.01.55-.04.77zm-2.05-1.37c-.02-.98-.31-1.65-1.16-1.65-.72 0-1.12.44-1.23 1.74h2.39v-.09z" class="st2"/></g></g></g></svg>