<svg xmlns="http://www.w3.org/2000/svg" viewBox="0 0 321 71" color-interpolation-filters="sRGB" fill="none" fill-rule="evenodd" font-size="12" overflow="visible" stroke-linecap="square" stroke-miterlimit="3"><style>.st1{fill:#3a2d72}.st1,.st3,.st4,.st6,.st8{stroke:none;stroke-linecap:butt;stroke-width:.75}.st4,.st6,.st8{fill:#ebeaf1}.st6,.st8{fill:#d8d5e3}.st8{fill:#fff}</style><g id="group143-1" transform="translate(.75 -.75)"><g id="group66-2" transform="translate(243.69 -11.19)"><g id="shape67-3" transform="translate(.593 -32.565)"><path d="M6.13 71.21H4.57l-.3-7.87-2.48 7.87H.26L0 61.91h1.15l.06 8.21 2.61-8.21h1.33l.32 8.21 2.41-8.21H9l-2.87 9.3z" class="st1"/></g><g id="shape68-5" transform="translate(9.293 -32.565)"><path d="M5.43 66.09l-.73 5.12H3.52l.72-5.1c.12-.87-.14-1.18-.58-1.18-.71 0-1.39.98-1.89 1.92l-.59 4.36H0l1.4-9.96 1.19-.12L2 65.34c.48-.79 1.09-1.4 1.95-1.4 1.05-.01 1.67.85 1.48 2.15z" class="st1"/></g><g id="shape69-7" transform="translate(15.705 -32.415)"><path d="M1.23 68.4v.14c0 1.26.49 1.68 1.19 1.68.57 0 1.08-.21 1.63-.63l.5.78c-.69.54-1.42.84-2.26.84C.82 71.21 0 70.2 0 68.54c0-2.09.96-4.75 3.39-4.75 1.31 0 1.97.82 1.97 1.77 0 1.99-1.93 2.57-4.13 2.84zm.07-.9c1.86-.23 2.86-.66 2.86-1.9 0-.49-.24-.85-.84-.85-1.25-.01-1.83 1.39-2.02 2.75z" class="st1"/></g><g id="shape70-9" transform="translate(21.525 -32.565)"><path d="M4.35 64.04l-.37 1.14c-.17-.04-.3-.07-.49-.07-.8 0-1.35.85-1.79 2.29l-.52 3.81H0l1-7.11h1.01l-.1 1.33c.48-.96 1.02-1.48 1.83-1.48.22 0 .42.04.61.09z" class="st1"/></g><g id="shape71-11" transform="translate(25.575 -32.415)"><path d="M1.23 68.4v.14c0 1.26.49 1.68 1.19 1.68.57 0 1.08-.21 1.63-.63l.5.78c-.69.54-1.42.84-2.26.84C.82 71.21 0 70.2 0 68.54c0-2.09.96-4.75 3.39-4.75 1.31 0 1.97.82 1.97 1.77 0 1.99-1.92 2.57-4.13 2.84zm.07-.9c1.86-.23 2.86-.66 2.86-1.9 0-.49-.24-.85-.84-.85-1.25-.01-1.83 1.39-2.02 2.75z" class="st1"/></g><g id="shape72-13" transform="translate(33.96 -32.407)"><path d="M1.55 69.42c-.08.54.1.81.54.81.3 0 .56-.1.87-.28l.35.79c-.45.32-.93.47-1.42.47-1.05 0-1.66-.71-1.48-1.86l.62-4.48H0l.14-.93H1.2l.4-1.65.98-.11-.26 1.76h1.44l-.26.93H2.2l-.65 4.55z" class="st1"/></g><g id="shape73-15" transform="translate(37.837 -32.4)"><path d="M0 68.5c0-1.94.89-4.71 3.37-4.71 1.49 0 2.3 1.04 2.3 2.7 0 1.9-.85 4.72-3.36 4.72C.82 71.21 0 70.16 0 68.5zm4.45-2.12c0-1.12-.39-1.64-1.11-1.64-1.66 0-2.11 2.45-2.11 3.88 0 1.11.39 1.63 1.13 1.63 1.63 0 2.09-2.46 2.09-3.87z" class="st1"/></g><g id="shape74-17" transform="translate(46.185 -32.4)"><path d="M5.42 64.64l-.57.69c-.46-.39-.91-.6-1.5-.6-.71 0-1.2.39-1.2 1.04 0 .54.38.78 1.2 1.11 1.04.4 1.59.96 1.59 2 0 1.46-1.18 2.33-2.65 2.33-1.09 0-1.83-.48-2.29-1.01l.67-.69c.45.44.96.74 1.66.74 1.03 0 1.39-.71 1.39-1.28 0-.66-.3-.91-1.23-1.28-1.06-.41-1.54-.92-1.54-1.85 0-1.05.93-2.06 2.38-2.06.9 0 1.57.32 2.09.86z" class="st1"/></g><g id="shape75-19" transform="translate(51.983 -32.407)"><path d="M1.55 69.42c-.08.54.1.81.54.81.3 0 .56-.1.87-.28l.35.79c-.45.32-.93.47-1.42.47-1.05 0-1.66-.71-1.48-1.86l.62-4.48H0l.14-.93H1.2l.4-1.65.98-.11-.26 1.76h1.44l-.26.93H2.2l-.65 4.55z" class="st1"/></g><g id="shape76-21" transform="translate(55.86 -32.4)"><path d="M0 68.5c0-1.94.89-4.71 3.37-4.71 1.49 0 2.3 1.04 2.3 2.7 0 1.9-.85 4.72-3.36 4.72C.82 71.21 0 70.16 0 68.5zm4.46-2.12c0-1.12-.39-1.64-1.12-1.64-1.66 0-2.11 2.45-2.11 3.88 0 1.11.39 1.63 1.13 1.63 1.63 0 2.1-2.46 2.1-3.87z" class="st1"/></g><g id="shape77-23" transform="translate(62.28 -32.565)"><path d="M4.35 64.04l-.37 1.14c-.17-.04-.3-.07-.49-.07-.8 0-1.35.85-1.79 2.29l-.52 3.81H0l1-7.11h1.01l-.1 1.33c.48-.96 1.02-1.48 1.83-1.48.22 0 .42.04.61.09z" class="st1"/></g><g id="shape78-25" transform="translate(66.33 -32.415)"><path d="M1.23 68.4v.14c0 1.26.49 1.68 1.19 1.68.57 0 1.08-.21 1.63-.63l.5.78c-.69.54-1.42.84-2.26.84C.82 71.21 0 70.2 0 68.54c0-2.09.96-4.75 3.39-4.75 1.31 0 1.97.82 1.97 1.77 0 1.99-1.93 2.57-4.13 2.84zm.07-.9c1.86-.23 2.86-.66 2.86-1.9 0-.49-.24-.85-.84-.85-1.25-.01-1.83 1.39-2.02 2.75z" class="st1"/></g><g id="shape79-27" transform="translate(0 -16.207)"><path d="M5.67 64.33l-.74 5.11c-.07.48-.1.78.31.95l-.38.82c-.61-.09-1-.4-1.06-1.11-.49.66-1.05 1.11-1.84 1.11C.74 71.21 0 70.23 0 68.7c0-2.12 1-4.91 3.58-4.91.76 0 1.42.22 2.09.54zm-4.46 4.39c0 1.08.35 1.55 1 1.55.64 0 1.13-.57 1.6-1.25l.58-4.12c-.26-.11-.5-.17-.84-.17-1.65 0-2.34 2.21-2.34 3.99z" class="st1"/></g><g id="shape80-29" transform="translate(6.42 -16.358)"><path d="M5.45 66.1l-.73 5.11H3.54l.71-5.1c.11-.87-.15-1.18-.59-1.18-.71 0-1.38.98-1.87 1.92l-.61 4.36H0l1-7.11h1.01l-.1 1.32c.57-.88 1.2-1.49 2.07-1.49 1.01-.01 1.65.85 1.47 2.17z" class="st1"/></g><g id="shape81-31" transform="translate(12.818 -16.207)"><path d="M6.22 61.09l-1.41 9.97H3.77l.04-1.13c-.46.8-1.07 1.28-1.89 1.28C.67 71.21 0 70.2 0 68.65c0-2.01.91-4.88 3.08-4.88.73 0 1.19.37 1.47.85l.51-3.66 1.16.13zm-5.01 7.62c0 1.06.37 1.57.99 1.57.7 0 1.23-.69 1.78-1.69l.42-2.97c-.27-.57-.61-.89-1.18-.89-1.47-.01-2.01 2.43-2.01 3.98z" class="st1"/></g><g id="shape82-33" transform="translate(21.975 -16.365)"><path d="M5.43 66.09l-.73 5.12H3.52l.72-5.1c.12-.87-.14-1.18-.58-1.18-.71 0-1.39.98-1.89 1.92l-.59 4.36H0l1.4-9.96 1.19-.12L2 65.34c.48-.79 1.09-1.4 1.95-1.4 1.04-.01 1.67.85 1.48 2.15z" class="st1"/></g><g id="shape83-35" transform="translate(28.387 -16.2)"><path d="M0 68.5c0-1.94.89-4.71 3.37-4.71 1.49 0 2.3 1.04 2.3 2.7 0 1.9-.85 4.72-3.36 4.72C.83 71.21 0 70.16 0 68.5zm4.46-2.12c0-1.12-.39-1.64-1.12-1.64-1.66 0-2.11 2.45-2.11 3.88 0 1.11.39 1.63 1.13 1.63 1.64 0 2.1-2.46 2.1-3.87z" class="st1"/></g><g id="shape84-37" transform="translate(34.928 -16.365)"><path d="M5.56 71.21H4.04l-.22-6.05-1.92 6.05H.4L0 64.1h1.15l.15 6.27 2.04-6.27h1.31l.23 6.27 1.91-6.27H7.9l-2.34 7.11z" class="st1"/></g><g id="shape85-39" transform="translate(45.367 -16.207)"><path d="M1.55 69.42c-.08.54.1.81.54.81.3 0 .56-.1.86-.28l.36.79c-.45.32-.93.47-1.42.47-1.05 0-1.66-.71-1.49-1.86l.63-4.48H0l.13-.93H1.2l.4-1.65.98-.11-.26 1.76h1.44l-.26.93H2.2l-.65 4.55z" class="st1"/></g><g id="shape86-41" transform="translate(49.245 -16.2)"><path d="M0 68.5c0-1.94.89-4.71 3.37-4.71 1.49 0 2.3 1.04 2.3 2.7 0 1.9-.85 4.72-3.36 4.72C.82 71.21 0 70.16 0 68.5zm4.45-2.12c0-1.12-.39-1.64-1.11-1.64-1.66 0-2.11 2.45-2.11 3.88 0 1.11.39 1.63 1.13 1.63 1.64 0 2.09-2.46 2.09-3.87z" class="st1"/></g><g id="shape87-43" transform="translate(58.275 -16.2)"><path d="M1.3 69.72c-.04.35.03.5.28.5.12 0 .24-.03.39-.08l.21.84c-.31.17-.63.23-.91.23-.81 0-1.27-.57-1.13-1.56l1.19-8.58 1.18-.13-1.21 8.78z" class="st1"/></g><g id="shape88-45" transform="translate(61.335 -16.365)"><path d="M1.18 71.21H0l1-7.11h1.18l-1 7.11zm-.02-9.59c0-.54.39-.89.85-.89.44 0 .71.3.71.7 0 .54-.39.9-.85.9-.44 0-.71-.29-.71-.71z" class="st1"/></g><g id="shape89-47" transform="translate(64.252 -16.358)"><path d="M5.44 66.1l-.72 5.11H3.54l.71-5.1c.11-.87-.15-1.18-.59-1.18-.71 0-1.38.98-1.88 1.92l-.6 4.36H0l1-7.11h1.01l-.1 1.32c.57-.88 1.2-1.49 2.07-1.49 1.01-.01 1.65.85 1.46 2.17z" class="st1"/></g><g id="shape90-49" transform="translate(70.65 -16.365)"><path d="M2 65.35c.58-.95 1.27-1.4 2.07-1.4.93 0 1.56.62 1.56 1.55 0 1.11-.66 1.94-1.98 2.53l1.32 3.18H3.7l-1.37-3.47c1.5-.44 2.08-1.09 2.08-2.13 0-.49-.24-.73-.64-.73-.64 0-1.4.68-2.01 2.08l-.58 4.25H0l1.4-9.98 1.19-.13L2 65.35z" class="st1"/></g><g id="shape91-51" transform="translate(.007 -.158)"><path d="M5.45 66.1l-.73 5.11H3.54l.71-5.1c.11-.87-.15-1.18-.59-1.18-.71 0-1.38.98-1.87 1.92l-.61 4.36H0l1-7.11h1.01l-.1 1.32c.57-.88 1.2-1.49 2.07-1.49 1.02-.01 1.65.85 1.47 2.17z" class="st1"/></g><g id="shape92-53" transform="translate(6.42 -.015)"><path d="M1.23 68.4v.14c0 1.26.49 1.68 1.19 1.68.57 0 1.08-.21 1.63-.63l.5.78c-.69.54-1.42.84-2.26.84C.82 71.21 0 70.2 0 68.54c0-2.09.96-4.75 3.39-4.75 1.31 0 1.97.82 1.97 1.77 0 1.99-1.93 2.57-4.13 2.84zm.07-.9c1.86-.23 2.86-.66 2.86-1.9 0-.49-.24-.85-.84-.85-1.25-.01-1.83 1.39-2.02 2.75z" class="st1"/></g><g id="shape93-55" transform="translate(12.465 -.165)"><path d="M5.56 71.21H4.04l-.22-6.05-1.92 6.05H.41L0 64.1h1.15l.15 6.27 2.04-6.27h1.31l.23 6.27 1.91-6.27H7.9l-2.34 7.11z" class="st1"/></g><g id="shape94-57" transform="translate(22.942)"><path d="M6.22 61.08l-1.41 9.97H3.77l.04-1.12c-.46.8-1.07 1.28-1.89 1.28C.67 71.21 0 70.2 0 68.65c0-2.01.91-4.88 3.08-4.88.73 0 1.19.37 1.47.85l.51-3.66 1.16.12zM1.21 68.7c0 1.07.37 1.57.99 1.57.7 0 1.23-.69 1.78-1.69l.42-2.97c-.27-.57-.61-.89-1.18-.89-1.47-.01-2.01 2.44-2.01 3.98z" class="st1"/></g><g id="shape95-59" transform="translate(29.483 -.007)"><path d="M5.67 64.33l-.74 5.11c-.07.48-.1.78.31.95l-.38.82c-.61-.09-1-.4-1.06-1.11-.49.66-1.05 1.11-1.84 1.11C.74 71.21 0 70.23 0 68.7c0-2.12 1-4.91 3.58-4.91.76 0 1.42.22 2.09.54zm-4.46 4.39c0 1.08.35 1.55 1 1.55.64 0 1.13-.57 1.6-1.25l.58-4.12c-.26-.11-.5-.17-.84-.17-1.65 0-2.34 2.21-2.34 3.99z" class="st1"/></g><g id="shape96-61" transform="translate(35.865 -.007)"><path d="M1.55 69.42c-.08.54.1.81.54.81.3 0 .56-.1.86-.28l.36.79c-.45.32-.93.47-1.42.47-1.05 0-1.66-.71-1.49-1.86l.63-4.48H0l.13-.93H1.2l.4-1.65.98-.11-.26 1.76h1.44l-.26.93H2.2l-.65 4.55z" class="st1"/></g><g id="shape97-63" transform="translate(39.712 -.007)"><path d="M5.67 64.33l-.74 5.11c-.07.48-.1.78.31.95l-.38.82c-.61-.09-1-.4-1.06-1.11-.49.66-1.05 1.11-1.84 1.11C.74 71.21 0 70.23 0 68.7c0-2.12 1-4.91 3.58-4.91.77 0 1.43.22 2.09.54zm-4.45 4.39c0 1.08.35 1.55.99 1.55.65 0 1.14-.57 1.61-1.25l.58-4.12c-.26-.11-.51-.17-.84-.17-1.65 0-2.34 2.21-2.34 3.99z" class="st1"/></g><g id="shape98-65" transform="translate(46.627 -.007)"><path d="M4.57 63.48c0 2.47-2.86 2.12-2.86 4.05 0 .1.01.24.03.39l-1.04.17c-.07-.18-.11-.44-.11-.67 0-2.3 2.77-1.97 2.77-3.93 0-.65-.37-.92-.95-.92-.57 0-1.13.34-1.72.96L0 62.9c.77-.91 1.61-1.3 2.51-1.3 1.4 0 2.06.87 2.06 1.88zm-4.3 6.94c0-.53.39-.98.95-.98.5 0 .79.35.79.79 0 .53-.39.98-.95.98-.5 0-.79-.34-.79-.79z" class="st1"/></g></g><g id="group99-67" transform="translate(96.218)"><g id="shape100-68" transform="translate(0 -24.773)"><path d="M83.87 29.97c-8.96-2.68-20.26-4.06-32.48-3.61C22.81 27.41 0 38.06.44 50.16c.44 12.1 23.97 21.05 52.55 20.01 4.95-.18 9.72-.66 14.22-1.37l16.66-38.83z" fill="#ebeaf1"/><path d="M83.87 29.97c-8.96-2.68-20.26-4.06-32.48-3.61C22.81 27.41 0 38.06.44 50.16c.44 12.1 23.97 21.05 52.55 20.01 4.95-.18 9.72-.66 14.22-1.37" class="st3"/></g><g id="shape101-71" transform="translate(54.352 -15.367)"><circle cx="25.47" cy="45.744" class="st4" r="25.47"/></g><g id="shape102-73" transform="translate(100.605 -13.297)"><ellipse cx="12.307" cy="64.344" rx="12.307" ry="6.87" class="st4"/></g><g id="shape103-75" transform="translate(96.953 -59.745)"><ellipse cx="7.612" cy="66.961" rx="7.612" ry="4.253" class="st4"/></g><g id="shape104-77" transform="translate(105.352 -50.55)"><ellipse cx="7.612" cy="66.961" rx="7.612" ry="4.253" class="st4"/></g><g id="shape105-79" transform="translate(108.495 -39.96)"><ellipse cx="7.612" cy="66.961" rx="7.612" ry="4.253" class="st4"/></g><g id="shape106-81" transform="translate(107.453 -29.363)"><ellipse cx="7.612" cy="66.961" rx="7.612" ry="4.253" class="st4"/></g><g id="shape107-83" transform="translate(7.125 -17.497)"><path d="M83.87 29.97c-8.96-2.68-20.25-4.06-32.48-3.61C22.81 27.41 0 38.06.44 50.16c.44 12.1 23.97 21.05 52.55 20.01 4.95-.18 9.72-.66 14.22-1.37l16.66-38.83z" fill="#d8d5e3"/><path d="M83.87 29.97c-8.96-2.68-20.25-4.06-32.48-3.61C22.81 27.41 0 38.06.44 50.16c.44 12.1 23.97 21.05 52.55 20.01 4.95-.18 9.72-.66 14.22-1.37" class="st3"/></g><g id="shape108-86" transform="translate(61.477 -8.085)"><circle cx="25.47" cy="45.744" class="st6" r="25.47"/></g><g id="shape109-88" transform="translate(107.73 -6.022)"><ellipse cx="12.307" cy="64.344" rx="12.307" ry="6.87" class="st6"/></g><g id="shape110-90" transform="translate(104.078 -52.47)"><ellipse cx="7.612" cy="66.961" rx="7.612" ry="4.253" class="st6"/></g><g id="shape111-92" transform="translate(112.477 -43.275)"><ellipse cx="7.612" cy="66.961" rx="7.612" ry="4.253" class="st6"/></g><g id="shape112-94" transform="translate(115.62 -32.678)"><ellipse cx="7.612" cy="66.961" rx="7.612" ry="4.253" class="st6"/></g><g id="shape113-96" transform="translate(114.578 -22.087)"><ellipse cx="7.612" cy="66.961" rx="7.612" ry="4.253" class="st6"/></g><g id="shape114-98" transform="translate(14.88 -11.482)"><path d="M83.87 29.97c-8.96-2.68-20.25-4.06-32.48-3.61C22.81 27.41 0 38.06.44 50.16c.44 12.1 23.97 21.05 52.55 20.01 4.95-.18 9.72-.66 14.22-1.37l16.66-38.83z" fill="#3a2d72"/><path d="M83.87 29.97c-8.96-2.68-20.25-4.06-32.48-3.61C22.81 27.41 0 38.06.44 50.16c.44 12.1 23.97 21.05 52.55 20.01 4.95-.18 9.72-.66 14.22-1.37" class="st3"/></g><g id="shape115-101" transform="translate(69.233 -2.07)"><circle cx="25.47" cy="45.744" class="st1" r="25.47"/></g><g id="shape116-103" transform="translate(115.485)"><ellipse cx="12.307" cy="64.344" rx="12.307" ry="6.87" class="st1"/></g><g id="shape117-105" transform="translate(111.832 -46.447)"><ellipse cx="7.612" cy="66.961" rx="7.612" ry="4.253" class="st1"/></g><g id="shape118-107" transform="translate(120.233 -37.252)"><ellipse cx="7.612" cy="66.961" rx="7.612" ry="4.253" class="st1"/></g><g id="shape119-109" transform="translate(123.375 -26.663)"><ellipse cx="7.612" cy="66.961" rx="7.612" ry="4.253" class="st1"/></g><g id="shape120-111" transform="translate(122.332 -16.065)"><ellipse cx="7.612" cy="66.961" rx="7.612" ry="4.253" class="st1"/></g><g id="shape121-113" transform="translate(41.483 -28.718)"><path d="M3.22 63.49v.55H4.9l-.23 1.49H3.21v5.68H1.08v-5.68H0v-1.49h1.08v-.63c0-1.38.91-2.45 2.74-2.45.75 0 1.44.19 1.96.46l-.57 1.39a2.47 2.47 0 00-1.13-.27c-.62 0-.86.27-.86.95z" class="st8"/></g><g id="shape122-115" transform="translate(46.688 -28.485)"><path d="M7.02 67.4c0 2.3-1.32 3.81-3.51 3.81-2.17 0-3.51-1.4-3.51-3.82 0-2.3 1.32-3.81 3.51-3.81 2.19 0 3.51 1.4 3.51 3.82zm-4.81-.01c0 1.59.44 2.26 1.3 2.26.86 0 1.3-.69 1.3-2.25 0-1.59-.44-2.25-1.3-2.25-.86 0-1.3.69-1.3 2.24z" class="st8"/></g><g id="shape123-117" transform="translate(54.705 -28.485)"><path d="M7.02 67.4c0 2.3-1.32 3.81-3.51 3.81-2.17 0-3.51-1.4-3.51-3.82 0-2.3 1.32-3.81 3.51-3.81 2.19 0 3.51 1.4 3.51 3.82zm-4.81-.01c0 1.59.44 2.26 1.3 2.26.86 0 1.3-.69 1.3-2.25 0-1.59-.44-2.25-1.3-2.25-.86 0-1.3.69-1.3 2.24z" class="st8"/></g><g id="shape124-119" transform="translate(62.325 -28.485)"><path d="M5.3 70.64c-.54.38-1.3.57-1.94.57-1.58-.01-2.35-.9-2.35-2.59V65.3H0v-1.49h1.01v-1.55l2.13-.24v1.79h1.65l-.23 1.49H3.14v3.29c0 .69.23.93.68.93.24 0 .48-.07.77-.24l.71 1.36z" class="st8"/></g><g id="shape125-121" transform="translate(68.483 -25.725)"><path d="M6.72 64.61c0 2.22-1.08 3.84-2.85 3.84-.71 0-1.3-.24-1.74-.76v3.29L0 71.21V61.04h1.87l.11.8c.59-.74 1.36-1.03 2.02-1.03 1.89.01 2.72 1.48 2.72 3.8zm-2.22.03c0-1.78-.44-2.25-1.18-2.25-.46 0-.89.3-1.2.84v3.02c.3.43.65.64 1.1.64.8-.01 1.28-.64 1.28-2.25z" class="st8"/></g><g id="shape126-123" transform="translate(76.68 -28.725)"><path d="M4.6 63.94l-.34 2.07c-.23-.05-.41-.1-.65-.1-.87 0-1.25.65-1.48 1.73v3.57H0v-7.17h1.87l.17 1.38c.32-.98 1.03-1.58 1.85-1.58.26.01.47.03.71.1z" class="st8"/></g><g id="shape127-125" transform="translate(82.02 -28.718)"><path d="M2.52 61.48c0 .69-.53 1.21-1.27 1.21S0 62.17 0 61.48s.51-1.22 1.25-1.22 1.27.53 1.27 1.22zm-.19 9.73H.2v-7.17h2.13v7.17z" class="st8"/></g><g id="shape128-127" transform="translate(86.168 -28.718)"><path d="M6.18 65.97v5.24H4.05v-4.87c0-.76-.26-.96-.68-.96-.47 0-.86.34-1.24.93v4.9H0v-7.17h1.86l.15.85c.61-.7 1.3-1.08 2.19-1.08 1.24 0 1.98.8 1.98 2.16z" class="st8"/></g><g id="shape129-129" transform="translate(93.278 -28.485)"><path d="M5.3 70.64c-.54.38-1.3.57-1.94.57-1.58-.01-2.35-.9-2.35-2.59V65.3H0v-1.49h1.01v-1.55l2.13-.24v1.79h1.65l-.23 1.49H3.14v3.29c0 .69.23.93.68.93.24 0 .48-.07.77-.24l.71 1.36z" class="st8"/></g></g><g id="group131-132" transform="translate(0 -33.54)"><g id="shape132-133"><path d="M5.82 59.45l-.05.36h1.68l-.63 1.94H5.51l-.71 4.98c-.43 2.95-2.23 3.85-4.13 4.48L0 69.17c1.09-.4 1.64-.91 1.84-2.29l.73-5.13h-.89l.27-1.94h.89l.08-.52c.24-1.65 1.42-2.93 3.53-2.93 1.01 0 1.82.33 2.31.69l-1.03 1.64c-.33-.2-.65-.27-.96-.27-.54-.01-.84.28-.95 1.03z" class="st1"/></g><g id="shape133-135" transform="translate(6.945 -3.09)"><path d="M0 67.93c0-2.76 1.38-5.33 4.47-5.33 2 0 3.28 1.11 3.28 3.3-.02 2.76-1.4 5.31-4.47 5.31-2.01 0-3.28-1.08-3.28-3.28zm4.77-2.4c0-.65-.17-.87-.54-.87-.97 0-1.25 2.35-1.25 3.63 0 .66.17.88.52.88.97 0 1.27-2.37 1.27-3.64z" class="st1"/></g><g id="shape134-137" transform="translate(15.135 -3.39)"><path d="M6.51 63.08l-.89 2.73c-.18-.04-.39-.09-.61-.09-.81 0-1.22.95-1.55 2.06l-.51 3.43H0l1.17-8.01h2.54v1.32c.47-.91 1.18-1.57 2.09-1.57.3 0 .47.04.71.13z" class="st1"/></g><g id="shape135-139" transform="translate(24.18 -3.39)"><path d="M11.27 65.3l-.88 5.91H7.44l.77-5.32c.06-.42 0-.53-.11-.53-.19 0-.4.36-.76 1.37l-.68 4.48H3.71l.78-5.32c.06-.42 0-.53-.12-.53-.17 0-.41.38-.77 1.44l-.65 4.41H0l1.17-7.99h2.56v1.11c.56-.83 1.29-1.43 2.21-1.43.88 0 1.44.5 1.6 1.32.52-.76 1.25-1.32 2.12-1.32 1.22 0 1.83.92 1.61 2.4z" class="st1"/></g><g id="shape136-141" transform="translate(36.083 -3.09)"><path d="M7.92 63.46l-.74 4.93c-.06.53-.06.78.28.93l-.88 1.83c-.9-.07-1.74-.42-2.07-1.15-.55.75-1.2 1.21-2.2 1.21C.79 71.21 0 70.06 0 68.24c0-2.76 1.22-5.64 4.7-5.64 1.13 0 2.25.32 3.22.86zM2.98 68.3c0 .71.17.86.42.86.3 0 .59-.32.86-.77l.57-3.76c-.13-.03-.26-.06-.38-.06-1.03 0-1.47 2.01-1.47 3.73z" class="st1"/></g><g id="shape137-143" transform="translate(44.505 -3.09)"><path d="M7.09 63.68L5.68 65.2c-.38-.32-.72-.45-1.11-.45-1.17 0-1.52 1.74-1.52 3.12 0 .97.35 1.15.84 1.15.37 0 .71-.13 1.21-.43l1.01 1.66c-.74.59-1.63.96-2.75.96-2.11 0-3.36-1.27-3.36-3.39C0 65 1.6 62.6 4.49 62.6c1.15 0 1.97.41 2.6 1.08z" class="st1"/></g><g id="shape138-145" transform="translate(51.157 -3.39)"><path d="M7.74 65.3l-.88 5.91H3.91l.77-5.32c.04-.36 0-.48-.13-.48-.22 0-.46.43-.95 1.44l-.65 4.36H0l1.65-11.16 2.98-.28L4 64.3c.41-.68 1.15-1.4 2.15-1.4 1.19 0 1.82.92 1.59 2.4z" class="st1"/></g><g id="shape139-147" transform="translate(59.273 -3.39)"><path d="M2.95 71.21H0l1.17-8.01h2.95l-1.17 8.01zM1.46 60.59c0-1.01.81-1.74 1.81-1.74.9 0 1.43.54 1.43 1.3 0 1.01-.81 1.74-1.81 1.74-.91 0-1.43-.53-1.43-1.3z" class="st1"/></g><g id="shape140-149" transform="translate(63.54 -3.39)"><path d="M7.74 65.3l-.88 5.91H3.91l.77-5.32c.05-.36 0-.48-.13-.48-.22 0-.46.43-.95 1.44l-.65 4.36H0l1.17-8.01h2.57l.01 1.2c.57-.84 1.38-1.5 2.39-1.5 1.2 0 1.82.92 1.6 2.4z" class="st1"/></g><g id="shape141-151" transform="translate(71.918 -3.075)"><path d="M7.63 64.85c-.06 2.24-2.54 2.96-4.71 3.18v.11c0 .69.35 1.02.99 1.02.61 0 1.12-.26 1.81-.71l.98 1.61c-.83.64-1.92 1.14-3.25 1.14-2.17.01-3.45-1.1-3.42-3.29.05-2.83 1.47-5.32 4.66-5.32 1.88 0 2.98.96 2.94 2.26zm-2.85.03c0-.28-.13-.46-.45-.46-.65 0-1.04.96-1.23 1.99 1.38-.1 1.68-1 1.68-1.53z" class="st1"/></g><g id="shape142-153" transform="translate(79.282 -3.09)"><path d="M7.39 63.64l-1.24 1.48c-.5-.33-1.01-.54-1.52-.54-.46 0-.71.21-.71.5 0 .3.24.48 1.32.93 1.08.45 1.73 1.06 1.73 2.23 0 1.73-1.49 2.97-3.69 2.97-1.41 0-2.51-.51-3.28-1.29l1.51-1.42c.47.4 1.02.75 1.69.75.5 0 .83-.21.83-.6s-.29-.59-1.26-.99c-1.15-.47-1.73-1.05-1.73-2.19 0-1.67 1.41-2.87 3.45-2.87 1.17 0 2.21.42 2.9 1.04z" class="st1"/></g></g></g></svg>