<?xml version="1.0" encoding="UTF-8" standalone="no"?>
<svg
   viewBox="0 0 538 315"
   color-interpolation-filters="sRGB"
   fill="none"
   fill-rule="evenodd"
   font-size="12px"
   overflow="visible"
   stroke-linecap="square"
   stroke-miterlimit="3"
   version="1.1"
   id="svg140"
   sodipodi:docname="2-item-personal-data-w792-h612.svg"
   width="538"
   height="315"
   inkscape:version="1.1.2 (b8e25be833, 2022-02-05)"
   xmlns:inkscape="http://www.inkscape.org/namespaces/inkscape"
   xmlns:sodipodi="http://sodipodi.sourceforge.net/DTD/sodipodi-0.dtd"
   xmlns="http://www.w3.org/2000/svg"
   xmlns:svg="http://www.w3.org/2000/svg">
  <defs
     id="defs144" />
  <sodipodi:namedview
     id="namedview142"
     pagecolor="#ffffff"
     bordercolor="#666666"
     borderopacity="1.0"
     inkscape:pageshadow="2"
     inkscape:pageopacity="0.0"
     inkscape:pagecheckerboard="0"
     showgrid="false"
     fit-margin-top="10"
     fit-margin-left="10"
     fit-margin-right="10"
     fit-margin-bottom="10"
     inkscape:zoom="1.1748366"
     inkscape:cx="365.58275"
     inkscape:cy="273.22949"
     inkscape:window-width="2560"
     inkscape:window-height="1400"
     inkscape:window-x="-12"
     inkscape:window-y="-12"
     inkscape:window-maximized="1"
     inkscape:current-layer="svg140" />
  <style
     id="style2">.st2{fill:#f9eee7;stroke:#c45814;stroke-linecap:butt;stroke-width:.95625}.st7{fill:none}.st10,.st11,.st8,.st9{stroke:#8b80a9;stroke-linecap:butt;stroke-width:1.43437}.st10,.st11,.st9{fill:#8b80a9;stroke:none;stroke-width:.95625}.st10,.st11{fill:#3d2c70}.st11{fill:none;stroke-linecap:round;stroke-linejoin:round;stroke-width:.75}.st12{fill:#fff;font-family:Calibri;font-size:1.33333em;font-style:italic;font-weight:700}.st13{font-size:1em}.st14{fill:#c45814;font-family:Calibri;font-size:1.5em;font-style:italic;font-weight:700}</style>
  <g
     id="group119-1"
     transform="translate(11.9125,-308.593)">
    <g
       id="shape74-2">
      <ellipse
         cx="257.547"
         cy="520.67798"
         rx="257.547"
         ry="91.321999"
         fill="#f3ded0"
         stroke="#c45814"
         stroke-linecap="butt"
         stroke-width="3.825"
         id="ellipse4" />
    </g>
    <g
       id="shape77-4"
       transform="translate(309.318,-62.759)">
      <path
         class="st2"
         d="M 0,572.478 H 83.509 V 612 H 0 Z"
         id="path7" />
    </g>
    <g
       id="shape78-6"
       transform="translate(315.056,-56.38)">
      <path
         class="st2"
         d="M 0,572.478 H 83.509 V 612 H 0 Z"
         id="path10" />
    </g>
    <g
       id="shape79-8"
       transform="translate(320.793,-50.002)">
      <path
         class="st2"
         d="M 0,572.478 H 83.509 V 612 H 0 Z"
         id="path13" />
    </g>
    <g
       id="shape80-10"
       transform="translate(219.938,-109.883)">
      <path
         d="M 0,554.62 H 86.06 V 612 H 0 Z M 68.85,612 v -57.38 z m -17.2,0 v -57.38 z m -17.23,0 v -57.38 z m -17.21,0 v -57.38 z"
         fill="#f9eee7"
         id="path16" />
      <path
         d="M 0,554.62 H 86.06 V 612 H 0 V 554.62 M 68.85,612 V 554.62 M 51.65,612 V 554.62 M 34.42,612 V 554.62 M 17.21,612 v -57.38"
         stroke="#dc9b72"
         stroke-linecap="butt"
         stroke-width="0.956"
         id="path18" />
    </g>
    <g
       id="shape81-13"
       transform="translate(219.938,-119.971)">
      <path
         d="m 0,574.63 h 17.21 v 7.89 H 0 Z m 68.85,-3.94 h 17.21 v 7.89 H 68.85 Z m -34.42,3.94 h 17.21 v 5.57 H 34.43 Z m 0,31.8 H 51.64 V 612 H 34.43 Z m 34.42,-5.58 h 17.21 v 5.58 H 68.85 Z M 17.7,588.14 h 17.21 v 11.51 H 17.7 Z m 33.94,0 h 17.21 v 11.51 H 51.64 Z"
         fill="#dc9b72"
         stroke-linecap="butt"
         stroke-width="0.956"
         id="path21" />
    </g>
    <g
       id="shape82-15"
       transform="translate(219.938,-109.883)">
      <path
         stroke="#c45814"
         stroke-linecap="butt"
         stroke-width="0.956"
         d="M 0,554.625 H 86.063 V 612 H 0 Z"
         id="path24" />
    </g>
    <g
       id="group83-17"
       transform="translate(162.61,-103.954)">
      <g
         id="shape84-18"
         transform="translate(0.344,-5.135)">
        <path
           d="M 0,522.35 3.24,612 Z"
           class="st7"
           id="path27" />
        <path
           d="M 0,522.35 3.24,612"
           class="st8"
           id="path29" />
      </g>
      <g
         id="shape85-21">
        <path
           d="M 0,605.95 3.8,612 7.14,605.69 Z"
           class="st9"
           id="path32" />
      </g>
    </g>
    <g
       id="group86-23"
       transform="translate(179.976,-103.944)">
      <g
         id="shape87-24"
         transform="translate(2.697,-4.59)">
        <path
           d="M 62.92,488.17 0,612 Z"
           class="st7"
           id="path36" />
        <path
           d="M 62.92,488.17 0,612"
           class="st8"
           id="path38" />
      </g>
      <g
         id="shape88-27">
        <path
           d="M 0,604.87 0.38,612 6.37,608.1 Z"
           class="st9"
           id="path41" />
      </g>
    </g>
    <g
       id="group89-29"
       transform="translate(261.056,-167.984)">
      <g
         id="shape90-30"
         transform="translate(0,-5.125)">
        <path
           d="M 0,554.65 4.61,612 Z"
           class="st7"
           id="path45" />
        <path
           d="M 0,554.65 4.61,612"
           class="st8"
           id="path47" />
      </g>
      <g
         id="shape91-33"
         transform="translate(0.975)">
        <path
           d="M 0,606.12 4.06,612 7.13,605.55 Z"
           class="st9"
           id="path50" />
      </g>
    </g>
    <g
       id="group92-35"
       transform="translate(276.672,-102.845)">
      <g
         id="shape93-36"
         transform="translate(0,-4.408)">
        <path
           d="M 0,486.88 74.64,612 Z"
           class="st7"
           id="path54" />
        <path
           d="M 0,486.88 74.64,612"
           class="st8"
           id="path56" />
      </g>
      <g
         id="shape94-39"
         transform="translate(71.04)">
        <path
           d="M 0,608.51 6.24,612 6.15,604.85 Z"
           class="st9"
           id="path59" />
      </g>
    </g>
    <g
       id="group95-41"
       transform="translate(306.784,-148.879)">
      <g
         id="shape96-42"
         transform="translate(4.246,-2.907)">
        <path
           d="m 61.31,552.98 c 0,0 -46.03,46.68 -61.31,59.02 z"
           class="st7"
           id="path63" />
        <path
           d="m 61.31,552.98 c 0,0 -46.03,46.68 -61.31,59.02"
           class="st8"
           id="path65" />
      </g>
      <g
         id="shape97-45">
        <path
           d="M 3.02,605.53 0,612 7.12,611.38 Z"
           class="st9"
           id="path68" />
      </g>
    </g>
    <g
       id="group98-47"
       transform="translate(362.983,-102.835)">
      <g
         id="shape99-48"
         transform="translate(3.318,-5.068)">
        <path
           d="M 17.63,511.13 0,612 Z"
           class="st7"
           id="path72" />
        <path
           d="M 17.63,511.13 0,612"
           class="st8"
           id="path74" />
      </g>
      <g
         id="shape100-51">
        <path
           d="M 0,605.29 2.45,612 7.04,606.52 Z"
           class="st9"
           id="path77" />
      </g>
    </g>
    <g
       id="shape101-53"
       transform="translate(122.668,-198.737)">
      <path
         d="M 0,592.87 C 0,603.44 8.56,612 19.12,612 H 61.43 C 72,612 80.55,603.44 80.55,592.87 V 567.06 C 80.55,556.49 72,547.93 61.43,547.93 H 19.12 C 8.56,547.93 0,556.49 0,567.06 Z"
         class="st10"
         id="path81" />
    </g>
    <g
       id="shape103-55"
       transform="translate(223.533,-229.337)">
      <path
         d="M 0,592.87 C 0,603.44 8.56,612 19.12,612 H 61.43 C 72,612 80.55,603.44 80.55,592.87 V 567.06 C 80.55,556.49 72,547.93 61.43,547.93 H 19.12 C 8.56,547.93 0,556.49 0,567.06 Z"
         class="st10"
         id="path84" />
    </g>
    <g
       id="shape104-57"
       transform="translate(326.091,-208.778)">
      <path
         d="M 0,592.87 C 0,603.44 8.56,612 19.12,612 H 61.43 C 72,612 80.55,603.44 80.55,592.87 V 567.06 C 80.55,556.49 72,547.93 61.43,547.93 H 19.12 C 8.56,547.93 0,556.49 0,567.06 Z"
         class="st10"
         id="path87" />
    </g>
    <g
       id="group107-59"
       transform="translate(122.668,-47.373)">
      <g
         id="shape108-60"
         transform="translate(0,-8.96)">
        <path
           class="st2"
           d="M 0,573.205 H 57.662 V 612 H 0 Z"
           id="path90" />
      </g>
      <g
         id="shape109-62"
         transform="translate(46.292,-3.92)">
        <path
           class="st2"
           d="M 0,573.205 H 57.662 V 612 H 0 Z"
           id="path93" />
      </g>
      <g
         id="shape110-64"
         transform="translate(26.173,-17.05)">
        <path
           class="st2"
           d="M 0,573.205 H 57.671 V 612 H 0 Z"
           id="path96" />
      </g>
      <g
         id="shape111-66"
         transform="translate(17.461)">
        <path
           class="st2"
           d="M 0,573.205 H 57.662 V 612 H 0 Z"
           id="path99" />
      </g>
    </g>
    <g
       id="shape112-68"
       transform="translate(118.393,-200.653)">
      <path
         class="st11"
         d="M 0,556.155 H 86.063 V 612 H 0 Z"
         id="path103" />
      <text
         x="23.379999"
         y="579.28003"
         class="st12"
         id="text107">photo <tspan
   x="20.15"
   dy="1.2em"
   class="st13"
   id="tspan105">gallery</tspan></text>
    </g>
    <g
       id="shape113-72"
       transform="translate(219.362,-234.808)">
      <path
         class="st11"
         d="M 0,556.155 H 86.063 V 612 H 0 Z"
         id="path110" />
      <text
         x="24.209999"
         y="579.28003"
         class="st12"
         id="text114">social<tspan
   x="25.27"
   dy="1.2em"
   class="st13"
   id="tspan112">feeds</tspan></text>
    </g>
    <g
       id="shape114-76"
       transform="translate(325.393,-216.808)">
      <path
         class="st11"
         d="M 0,556.155 H 86.063 V 612 H 0 Z"
         id="path117" />
      <text
         x="15.56"
         y="579.28003"
         class="st12"
         id="text121">meeting<tspan
   x="11.29"
   dy="1.2em"
   class="st13"
   id="tspan119">scheduler</tspan></text>
    </g>
    <g
       id="shape115-80"
       transform="translate(122.439,-20.653)">
      <path
         class="st11"
         d="m 0,576 h 103.954 v 36 H 0 Z"
         id="path124" />
      <text
         x="8.8100004"
         y="599.40002"
         class="st14"
         id="text126">my pictures</text>
    </g>
    <g
       id="shape117-83"
       transform="translate(212.439,-83.653)">
      <path
         class="st11"
         d="m 0,576 h 103.954 v 36 H 0 Z"
         id="path129" />
      <text
         x="10.31"
         y="599.40002"
         class="st14"
         id="text131">my agenda</text>
    </g>
    <g
       id="shape118-86"
       transform="translate(298.393,-20.653)">
      <path
         class="st11"
         d="m 0,576 h 126.454 v 36 H 0 Z"
         id="path134" />
      <text
         x="8.71"
         y="599.40002"
         class="st14"
         id="text136">my contact list</text>
    </g>
  </g>
</svg>
