<svg xmlns="http://www.w3.org/2000/svg" xmlns:xlink="http://www.w3.org/1999/xlink" width="100%" height="100%" viewBox="0 0 838 382" color-interpolation-filters="sRGB" fill="none" fill-rule="evenodd" font-size="12" overflow="visible" stroke-linecap="square" stroke-miterlimit="3">
<style>
.st1,.st10,.st3,.st4,.st5,.st6,.st8,.st9{fill:#000;stroke:none;stroke-linecap:butt;stroke-width:4.78125}
.st10,.st3,.st4,.st5,.st6,.st8,.st9{stroke-width:6.51249}
.st10,.st4,.st5,.st6,.st8,.st9{stroke-width:9.27273}
.st10,.st5,.st6,.st8,.st9{stroke-width:6.13466}
.st10,.st6,.st8,.st9{stroke-width:3.904}
.st10,.st8,.st9{fill:#0c479c;stroke-width:.75}
.st10,.st9{fill:#fff}
.st10{fill:none;stroke-linecap:round;stroke-linejoin:round}
.st11{fill:#000;font-family:Calibri;font-size:10em}
.st13{fill:#000;fill-opacity:1;stroke:#000;stroke-opacity:1;stroke-width:.50251256281407}
.st14{marker-end:url(#mrkr5-70);stroke:#000;stroke-linecap:round;stroke-linejoin:round;stroke-width:4}
.st18{fill:#000;stroke:none;stroke-linecap:butt;stroke-width:1.224}
.st19,.st23{fill:#000;font-family:Consolas;font-size:1.99999em}
.st23{font-family:Calibri;font-size:1.83334em}
.st24{font-size:1em}
</style>
<defs id="Markers"><marker id="mrkr5-64" class="st13" refX="3.393" orient="auto" markerUnits="strokeWidth" overflow="visible"><use xlink:href="#lend5" transform="scale(1.99)"/></marker><marker id="mrkr5-70" refX="-3.167" orient="auto" markerUnits="strokeWidth" overflow="visible" fill="#000" fill-opacity="1" stroke="#000" stroke-opacity="1" stroke-width=".552"><use xlink:href="#lend5" transform="scale(-1.81)"/></marker><marker id="mrkr5-99" class="st13" refX="-3.482" orient="auto" markerUnits="strokeWidth" overflow="visible"><use xlink:href="#lend5" transform="scale(-1.99)"/></marker><path d="M2 1L0 0l1.981-.993A2.25 2.25 0 001.985 1" id="lend5"/></defs><g id="group278-1" transform="translate(.375 -.375)"><g id="group269-2" transform="translate(0 -90)"><g id="shape32-3" transform="translate(58.501 -176.991)"><path d="M62.15 363.19c-.07.05-.13.1-.2.15-.24.18-.49.35-.75.52-.02.02-.05.03-.08.05-.24.15-.48.3-.73.45-.08.05-.17.1-.26.15-.21.12-.42.23-.63.35-.09.04-.18.09-.27.14-.3.15-.6.3-.9.44-.01 0-.02.01-.03.01-.32.15-.64.29-.98.43-.1.05-.2.09-.31.13-.24.1-.49.2-.74.3l-.33.12c-.31.12-.62.23-.93.34-.05.02-.1.03-.15.05-.37.13-.74.25-1.11.36-.12.04-.23.07-.34.11-.28.08-.56.16-.85.25-.12.03-.25.07-.38.1-.32.09-.64.18-.96.26a220.328 220.328 0 01-1.47.36c-.11.02-.23.05-.34.07-.31.07-.62.14-.94.21-.14.02-.28.05-.42.08-.33.07-.66.13-.99.19l-.32.06c-.43.08-.87.16-1.31.23-.1.01-.21.03-.32.05l-1.03.15c-.15.02-.29.04-.44.07-.33.04-.67.09-1.01.13-.13.01-.25.03-.37.05l-1.37.15-.27.03c-.37.04-.75.07-1.13.11l-.44.03c-.35.03-.69.06-1.03.08l-.41.03-1.4.09c-.05 0-.11 0-.16.01-.42.02-.83.03-1.25.05-.15 0-.29.01-.44.01l-1.03.03c-.14 0-.28.01-.42.01-.47 0-.94.01-1.41.01s-.94-.01-1.41-.01c-.14 0-.28-.01-.42-.01l-1.03-.03c-.15 0-.3-.01-.44-.01l-1.25-.06h-.17l-1.4-.09-.4-.03c-.35-.02-.69-.05-1.03-.08-.15-.01-.3-.02-.45-.04-.37-.03-.75-.06-1.12-.1l-.28-.03-1.36-.15c-.13-.02-.25-.04-.37-.05-.34-.04-.68-.09-1.01-.14l-.44-.06-1.03-.15c-.11-.02-.22-.04-.33-.05-.44-.08-.87-.15-1.31-.23l-.31-.06c-.34-.06-.67-.12-.99-.19-.14-.03-.28-.06-.42-.08l-.95-.21c-.11-.02-.22-.05-.33-.07l-1.23-.3-.24-.06c-.33-.08-.65-.17-.96-.26-.13-.03-.26-.07-.39-.1-.28-.09-.56-.17-.84-.25-.11-.04-.23-.07-.34-.11-.37-.11-.75-.23-1.11-.36-.05-.02-.1-.03-.15-.05-.31-.11-.63-.22-.93-.34l-.33-.12-.75-.3c-.1-.04-.2-.08-.3-.13-.34-.14-.67-.28-.98-.43-.01 0-.02 0-.02-.01-.31-.14-.62-.29-.91-.44-.09-.05-.18-.1-.27-.14-.21-.12-.43-.23-.63-.35-.09-.05-.18-.1-.26-.15-.25-.15-.5-.3-.74-.45-.02-.02-.05-.03-.08-.05-.26-.17-.5-.34-.74-.52-.07-.05-.14-.1-.2-.15-.18-.13-.35-.27-.51-.4-.07-.06-.13-.12-.2-.18a.755.755 0 01-.14-.11v9.57c0 4.9 12.94 10.36 31.5 10.36 18.56 0 31.5-5.46 31.5-10.36v-9.57c-.05.04-.1.08-.14.11-.07.06-.13.12-.2.18-.17.13-.34.27-.51.4z" class="st1"/></g><g id="shape33-5" transform="translate(58.5 -192.04)"><path d="M36.02 369.27c-.51.02-1.02.05-1.52.06-.26.01-.52.02-.79.02a80.878 80.878 0 01-4.43 0c-.26 0-.52-.01-.78-.02-.51-.01-1.01-.04-1.52-.06-4.72-.23-9.11-.8-12.99-1.66-5.98-1.29-11.03-3.28-13.99-5.93v10.39c0 4.9 12.94 10.36 31.5 10.36 18.56 0 31.5-5.46 31.5-10.36v-10.39c-2.96 2.65-8.02 4.64-13.99 5.93-3.88.86-8.27 1.43-12.99 1.66z" class="st1"/></g><g id="shape34-7" transform="translate(58.5 -162)"><path d="M62.15 363.25c-.07.05-.13.1-.2.15-.24.17-.49.35-.74.52-.03.01-.06.03-.09.05-.24.15-.48.3-.73.45-.08.05-.17.1-.26.15-.21.12-.42.23-.63.34l-.27.15c-.3.15-.59.29-.9.44-.01 0-.02.01-.03.01-.32.15-.64.29-.97.43-.11.04-.21.09-.32.13-.24.1-.49.2-.74.29-.11.05-.22.09-.33.13-.31.12-.61.23-.93.34-.05.01-.1.03-.15.05l-1.11.36c-.12.04-.23.07-.34.11l-.84.24c-.13.04-.26.08-.39.11-.32.09-.64.17-.96.26l-.24.06c-.41.1-.82.2-1.23.29-.11.03-.22.05-.34.08-.31.07-.62.14-.94.2l-.42.09c-.33.06-.66.13-.99.19a50.265 50.265 0 01-1.62.28c-.11.02-.22.04-.32.05-.35.06-.69.11-1.04.16l-.44.06c-.33.05-.67.09-1.01.14-.12.01-.25.03-.37.04-.45.06-.91.11-1.37.16l-.27.03c-.37.03-.75.07-1.13.1-.14.02-.29.03-.44.04-.34.03-.69.06-1.03.08l-.4.03-1.41.09h-.16l-1.25.06c-.15 0-.29.01-.44.01l-1.03.03c-.14 0-.28 0-.42.01-.47 0-.94.01-1.41.01s-.94-.01-1.41-.01c-.14-.01-.28-.01-.42-.01l-1.03-.03c-.15 0-.3-.01-.44-.01l-1.25-.06h-.17l-1.4-.09-.4-.03c-.35-.02-.69-.05-1.03-.08-.15-.01-.3-.02-.45-.04-.37-.03-.75-.06-1.12-.1l-.28-.03-1.36-.15c-.13-.02-.25-.04-.37-.05-.34-.04-.68-.09-1.01-.14l-.44-.06-1.03-.15c-.11-.02-.22-.04-.33-.05-.44-.08-.87-.15-1.31-.23l-.31-.06c-.34-.06-.67-.12-.99-.19-.14-.03-.28-.06-.42-.08l-.95-.21c-.11-.02-.22-.05-.33-.07l-1.23-.3-.24-.06c-.33-.08-.65-.17-.96-.26-.13-.03-.26-.07-.39-.11l-.84-.24c-.11-.04-.23-.07-.34-.11-.37-.11-.75-.23-1.11-.36-.05-.02-.1-.03-.15-.05-.31-.11-.63-.22-.93-.34l-.33-.12-.75-.3c-.1-.04-.2-.08-.3-.13-.34-.14-.67-.28-.98-.43-.01 0-.02 0-.02-.01-.31-.14-.62-.29-.91-.44-.09-.05-.18-.1-.27-.14-.21-.12-.43-.23-.63-.35-.09-.05-.18-.1-.26-.15-.25-.15-.5-.3-.74-.45-.02-.02-.05-.03-.08-.05-.26-.17-.5-.34-.74-.52-.07-.05-.14-.1-.2-.15-.18-.13-.35-.27-.51-.41-.07-.05-.13-.11-.2-.17-.05-.04-.1-.07-.14-.11v9.51c0 4.9 12.94 10.36 31.5 10.36 18.56 0 31.5-5.46 31.5-10.36v-9.52c-.05.04-.09.08-.14.12-.07.06-.13.12-.2.17-.17.14-.33.27-.51.41z" class="st1"/></g><g id="shape35-9" transform="translate(58.5 -207.895)"><path d="M0 372.07c0 .11.01.22.03.33.01.13.04.26.07.39.01.02.01.05.02.08.03.11.07.22.11.33.02.05.04.11.06.16.04.08.09.17.13.25.04.08.08.16.13.24l.11.17c.07.11.15.23.24.34.01.02.03.04.05.07 3.05 3.82 13.21 7.41 27.06 7.94h.08c.47.02.95.03 1.42.04.09 0 .18.01.28.01.56.01 1.13.01 1.71.01.57 0 1.15 0 1.71-.01.09-.01.18-.01.28-.01.47-.01.95-.02 1.42-.04h.08c13.84-.53 24-4.11 27.05-7.94.02-.03.04-.05.06-.07.09-.11.16-.23.24-.34.03-.05.07-.11.11-.17.04-.08.08-.15.13-.23.04-.09.09-.18.12-.26.03-.05.04-.1.06-.15.05-.11.09-.23.12-.34.01-.03.01-.05.02-.08.03-.13.06-.26.07-.4.01-.1.03-.21.03-.32v-9.29c-.05.04-.1.08-.14.12-.07.06-.14.12-.21.17-.16.14-.33.27-.5.41-.07.05-.13.1-.2.15-.24.17-.49.35-.75.52-.02.01-.06.03-.08.05-.24.15-.48.3-.73.45-.09.05-.17.1-.26.15-.21.12-.42.23-.64.34-.09.05-.17.1-.27.15-.29.15-.59.29-.9.44 0 0-.01.01-.02.01-.32.15-.65.29-.98.43-.1.04-.2.09-.31.13-.24.1-.49.2-.74.29-.11.05-.22.09-.33.13-.31.12-.62.23-.93.34a.88.88 0 00-.15.05c-.37.12-.74.24-1.12.36-.11.04-.22.07-.33.11-.28.08-.56.16-.85.24-.12.04-.25.08-.38.11-.32.09-.64.17-.96.26-.08.02-.16.04-.25.06-.4.1-.81.2-1.22.29-.11.03-.23.05-.34.08-.31.07-.63.14-.94.2l-.42.09c-.33.06-.66.13-.99.19l-.32.06c-.43.08-.87.15-1.31.22-.1.02-.21.04-.32.05-.34.06-.69.11-1.03.16l-.44.06c-.34.05-.67.09-1.01.14-.13.01-.25.03-.37.04-.46.06-.91.11-1.37.16l-.27.03c-.38.03-.75.07-1.13.1-.15.02-.3.03-.45.04-.34.03-.68.06-1.02.08l-.41.03c-.46.03-.93.06-1.4.08-.05.01-.11.01-.16.01l-1.25.06c-.15 0-.29.01-.44.01l-1.03.03c-.14 0-.28 0-.42.01-.47 0-.94.01-1.41.01s-.94-.01-1.41-.01c-.14-.01-.28-.01-.42-.01l-1.03-.03c-.15 0-.3-.01-.44-.01l-1.25-.06c-.05 0-.11 0-.17-.01-.46-.02-.93-.05-1.4-.08l-.4-.03c-.35-.02-.69-.05-1.03-.08-.15-.01-.3-.02-.45-.04-.37-.03-.75-.07-1.12-.1l-.27-.03c-.46-.05-.92-.1-1.37-.16-.12-.01-.25-.03-.37-.04-.34-.05-.68-.09-1.01-.14l-.44-.06c-.35-.05-.69-.1-1.03-.16-.11-.01-.22-.03-.33-.05-.44-.07-.87-.14-1.3-.22-.11-.02-.22-.04-.32-.06-.34-.06-.66-.13-.99-.19l-.42-.09c-.32-.06-.63-.13-.95-.2-.11-.03-.22-.05-.33-.08-.41-.09-.82-.19-1.23-.29l-.24-.06c-.32-.09-.65-.17-.96-.26-.13-.03-.26-.07-.38-.11-.29-.08-.57-.16-.85-.25-.11-.03-.23-.06-.34-.1-.37-.12-.75-.24-1.11-.36a.88.88 0 00-.15-.05 34.8 34.8 0 01-.93-.34l-.33-.12-.75-.3c-.1-.04-.2-.09-.3-.13-.34-.14-.67-.28-.98-.43-.01 0-.02-.01-.02-.01-.31-.14-.61-.29-.91-.44-.09-.05-.18-.1-.27-.14-.21-.12-.42-.23-.63-.35-.09-.05-.18-.1-.26-.15-.25-.15-.5-.3-.73-.45a.922.922 0 00-.08-.05c-.26-.17-.51-.35-.75-.52-.07-.05-.13-.1-.2-.15-.17-.14-.34-.27-.51-.41-.07-.05-.13-.11-.2-.17-.05-.04-.09-.08-.14-.12v9.29z" class="st1"/></g><g id="shape36-11" transform="translate(58.5 -222.655)"><path d="M31.5 361.71c-18.56 0-31.5 5.46-31.5 10.36 0 4.9 12.94 10.36 31.5 10.36 18.56 0 31.5-5.46 31.5-10.36 0-4.9-12.94-10.36-31.5-10.36z" class="st1"/></g><g id="shape150-13" transform="rotate(-45 67.242 -142.01)"><path d="M11.18 373.85v2.04c0 .76.47 1.8 1.04 2.31l4.22 3.72c.57.51 1.5.51 2.07 0l4.22-3.72c.57-.51 1.04-1.54 1.04-2.31v-33.14c6.54-2.51 11.18-8.83 11.18-16.22 0-9.6-7.82-17.38-17.47-17.38-9.66 0-17.48 7.78-17.48 17.38 0 7.39 4.64 13.71 11.18 16.22v11.61l-3.89 3.9c-.55.54-.54 1.42 0 1.97l3.88 3.88-3.88 3.88c-.55.55-.54 1.42 0 1.97l3.89 3.89zm6.3-52.19c1.93 0 3.49-1.56 3.49-3.48s-1.56-3.47-3.49-3.47c-1.93 0-3.5 1.55-3.5 3.47 0 1.92 1.57 3.48 3.5 3.48z" fill="#000" stroke-linecap="butt" stroke-width="8.5"/></g><g id="shape152-15" transform="translate(342 -188.547)"><path d="M7.29 377.81a17.514 17.514-180 0011.92 4.62 17.776 17.776-180 006.57-1.24 17.318 17.318-180 009.28-8.81 17.318 17.318-180 00.38-12.82 1.073 1.073 0 01.72-1.36 2.687 2.687-180 001.12-.72 3.508 3.508-180 00.79-2.58c0-.73.04-1.2.41-1.63.37-.43.88-.52 1.68-.56.79-.04 1.87-.13 2.66-1.08.91-1.09.76-2.43.63-3.51-.1-.92-.14-1.49.15-1.78.29-.28.94-.21 1.86-.03 1.01.19 2.27.44 3.08-.51s.48-2.44.16-3.73a6.106 6.106 0 01-.28-1.76h.12a7.1 7.1-180 001.57-.16 5.525 5.525-180 002.49-.94c1.4-1.15 1.36-3.14 1.32-5.45h-1.68c.03 1.87.07 3.48-.7 4.11a4.246 4.246 0 01-1.77.59 5.346 5.346 0 01-1.22.12 1.637 1.637-180 00-1.19.35c-.95.8-.61 2.17-.29 3.49.19.76.48 1.92.2 2.24-.18.2-.91.06-1.49-.05-1.06-.21-2.39-.47-3.35.48s-.76 2.1-.64 3.16c.1.88.2 1.71-.25 2.24-.32.38-.76.43-1.5.48-.87.07-1.95.14-2.83 1.15a3.838 3.838-180 00-.81 2.78c0 .7-.04 1.12-.36 1.45a1.028 1.028 0 01-.43.28 2.743 2.743-180 00-1.76 3.49 15.643 15.643 0 01-.32 11.59 15.598 15.598 0 01-8.38 7.94 16.201 16.201 0 01-16.7-3.05c-5.49-5.09-6.61-13.58-2.68-20.2 2.75-4.64 8.15-7.41 13.63-7.41a15.643 15.643 0 015.26.91 2.793 2.793-180 002.9-.59l.05-.06c3.71-3.64 8.47-9.09 14.93-17.15a1.162 1.162 0 01.23-.22 11.827 11.827 0 014.18-1.75 10.436 10.436 0 013.5-.31 401.603 401.603 0 00-21.41 23.56.838.838-180 00.648 1.38.838.838-180 00.643-.302A394.644 394.644 0 0151.92 330.73c.26.56.29 1.47.32 3.08h1.68c-.05-2.24-.08-3.44-.88-4.38-1.61-1.9-4.61-1.31-6.41-.94a13.525 13.525-180 00-4.76 2 2.872 2.872-180 00-.61.56c-6.44 8.01-11.18 13.4-14.81 16.98l-.06.06a1.117 1.117 0 01-1.12.24c-7.82-2.8-16.82.28-20.93 7.21-4.34 7.31-3.09 16.68 2.95 22.27z" class="st3"/></g><g id="shape153-17" transform="translate(351.196 -198.76)"><path d="M3.41 371.74c-2.15 1.73-3.41 5.03-1.12 8.18a5.978 5.978-180 004.92 2.51 7.106 7.106-180 00.91-.06 6.508 6.508-180 005.16-3.95c.74-1.96.22-4.08-1.45-5.97-2.66-3-6.23-2.48-8.42-.71zm7.59 6.89l-.1.14a3.503 3.503 0 01-.45.52 3.821 3.821 0 01-2.7 1.02h-.16a3.43 3.43 0 01-3.06-1.03 3.251 3.251 0 01-.9-2.62 1.117 1.117-180 000-.14v-.07a3.542 3.542 0 012.68-3.64 3.24 3.24 0 01.78-.09 3.117 3.117 0 01.39 0 .955.955-180 00.179 0 3.47 3.47 0 011.431.15 3.184 3.184 0 011.43.83 3.352 3.352 0 011.12 2.84 4.626 4.626 0 01-.64 2.09z" class="st3"/></g><g id="shape155-19" transform="translate(468 -48.094)"><path class="st4" d="M0 377.51h63v4.922H0z"/></g><g id="shape156-21" transform="translate(468 -54.984)"><path class="st4" d="M0 377.51h63v4.922H0z"/></g><g id="shape157-23" transform="translate(487.688 -61.875)"><path d="M7.87 358.81v11.81H0l11.81 11.81 11.81-11.81h-7.87v-11.81H7.87z" class="st4"/></g><g id="shape158-25" transform="translate(487.688 -22.5)"><path d="M15.75 382.43v-11.81h7.87l-11.81-12.01L0 370.62h7.87v11.81h7.88z" class="st4"/></g><g id="shape160-27" transform="matrix(-1 0 0 1 658.374 -48.97)"><path d="M11.13 376.87a5.563 5.563 0 01-11.13 0 5.563 5.563 0 1111.13 0z" class="st5"/></g><g id="shape161-29" transform="matrix(-1 0 0 1 643.464 -48.97)"><path d="M11.13 376.87a5.563 5.563 0 01-11.13 0 5.563 5.563 0 1111.13 0z" class="st5"/></g><g id="shape162-31" transform="matrix(-1 0 0 1 628.554 -48.97)"><path d="M11.13 376.87a5.563 5.563 0 01-11.13 0 5.563 5.563 0 1111.13 0z" class="st5"/></g><g id="shape163-33" transform="translate(600.732 -22.533)"><path d="M11.89 376.33H5.58v-50.91l6.31-.01v-6.1H.04c.04 30.76-.04 32.36 0 63.12h11.85v-6.1z" class="st6"/></g><g id="shape164-35" transform="matrix(-1 0 0 1 677.268 -22.342)"><path d="M11.89 376.33H5.58v-50.91l6.31-.01v-6.1H.04c.04 30.76-.04 32.36 0 63.12h11.85v-6.1z" class="st6"/></g><g id="shape165-37" transform="translate(747 -9.404)"><path d="M5.39 293.24h43.23c2.95 0 5.38 2.43 5.38 5.39v78.41c0 2.97-2.43 5.39-5.38 5.39H5.39c-2.96 0-5.39-2.42-5.39-5.39v-78.41c0-2.96 2.43-5.39 5.39-5.39zm21.62 80.08c1.66 0 3.02 1.37 3.02 3.04 0 1.66-1.36 3.03-3.02 3.03-1.68 0-3.04-1.37-3.04-3.03 0-1.67 1.36-3.04 3.04-3.04zm-5.16-74.91h10.3c1.45 0 1.45 2.19 0 2.19h-10.3c-1.45 0-1.45-2.19 0-2.19zm-16.58 7.37h43.46v64.11H5.27v-64.11z" fill="#000" stroke-linecap="butt" stroke-width=".09"/></g><g id="shape23-39" transform="translate(36 -12.44)"><path d="M72.94 353.34c-.53-.26-1.08-.48-1.62-.68l.39-.02s-3.48-1.42-3.78-11.72c-.3-10.3 3.31-12.06 3.31-12.06l-.52.03c2.73-1.3 5.08-3.34 6.63-6.03 4.04-7 1.15-15.7-6.45-19.42-7.6-3.72-17.04-1.06-21.07 5.95a13.296 13.296 0 00-1.61 9.01l-.18-.25s.92 3.74-8.59 9.18c-9.5 5.44-13.79 2.73-13.79 2.73l.27.37c-.27-.16-.53-.31-.82-.45-7.6-3.72-17.03-1.06-21.07 5.94-4.04 7.01-1.15 15.7 6.45 19.43 5.66 2.77 12.35 2 17.05-1.48l-.1.18s3.46-2.62 13.44 2.31c7.87 3.9 9.04 7.71 9.19 9.14-.21 5.32 2.8 10.54 8.24 13.21 7.6 3.72 17.04 1.06 21.08-5.94 4.04-7.01 1.15-15.71-6.45-19.43zm-17.57 1.89c-1.26.41-4.86.87-12.44-2.88-8.2-4.06-9.42-7.45-9.6-8.47.12-1.23.04-2.47-.19-3.67l.05.07s-.66-3.3 8.72-8.67c8.41-4.81 12.23-3.85 12.94-3.6.45.29.93.55 1.43.8.94.46 1.92.83 2.9 1.09 1.16 1.02 3.29 3.9 3.51 11.47.22 7.62-2.21 10.57-3.53 11.61-1.37.57-2.65 1.33-3.79 2.25z" class="st8"/></g><g id="shape24-41" transform="translate(85.706 -71.761)"><path d="M4.63 367.33c-4.53 4.57-4.63 11.3-.26 15.1-2.16-1.91-2.11-5.9.07-9.72.28-.34 1.09-1.15 2.28-.78.12.04.2.05.25.04.26.05.54.08.82.07 1.81-.07 3.21-1.48 3.12-3.14-.03-.75-.37-1.41-.89-1.92 4.19-2.53 9-2.82 10.97-1.16l.07.01c-4.5-3.79-11.85-3.11-16.43 1.5z" class="st9"/></g><g id="group25-43" transform="translate(40.12 -44.61)"><g id="shape26-44" transform="translate(4.368)"><path d="M.12 382.43c-.04-.03-.08-.08-.12-.11.03.02.05.05.08.08l.04.03z" class="st9"/></g><g id="shape27-46" transform="translate(0 -.115)"><path d="M4.63 367.33c-4.54 4.57-4.63 11.3-.26 15.1-2.16-1.91-2.11-5.9.07-9.72.28-.34 1.09-1.15 2.28-.78.12.04.2.04.25.04.26.05.54.08.82.07 1.81-.07 3.2-1.48 3.12-3.14-.03-.75-.37-1.41-.89-1.92 4.19-2.53 9-2.82 10.97-1.16l.07.01c-4.5-3.79-11.85-3.12-16.43 1.5z" class="st9"/></g></g><g id="group28-48" transform="translate(88.378 -21.72)"><g id="shape29-49" transform="translate(4.369)"><path d="M.12 382.43c-.04-.03-.08-.08-.12-.11l.08.08.04.03z" class="st9"/></g><g id="shape30-51" transform="translate(0 -.115)"><path d="M4.63 367.33c-4.54 4.57-4.63 11.3-.26 15.1-2.16-1.91-2.11-5.9.07-9.72.28-.34 1.09-1.15 2.28-.78.12.03.2.04.25.04.26.05.54.08.82.07 1.81-.07 3.2-1.48 3.12-3.15-.03-.74-.37-1.4-.89-1.91 4.19-2.53 9-2.82 10.97-1.16h.07c-4.5-3.78-11.85-3.11-16.43 1.51z" class="st9"/></g></g><g id="shape37-53"><path class="st10" d="M0 266.317h54v116.115H0z"/><text x="8.13" y="360.38" class="st11">{</text></g><g id="shape38-56" transform="translate(108)"><path class="st10" d="M0 266.317h54v116.115H0z"/><text x="8.13" y="360.38" class="st11">}</text></g><g id="shape180-59" transform="translate(693 -54)"><path d="M13.57 382.43H36" marker-start="url(#mrkr5-64)" stroke="#000" stroke-linecap="round" stroke-linejoin="round" stroke-width="4"/></g><g id="shape181-65" transform="translate(405 -216)"><path d="M0 382.43h86.33" class="st14"/></g><g id="shape182-71" transform="translate(162 -54)"><path d="M0 382.43h23.33" class="st14"/></g><g id="shape183-76" transform="translate(297 -54)"><path d="M0 382.43h23.33" class="st14"/></g><g id="shape184-81" transform="translate(423 -54)"><path d="M0 382.43h23.33" class="st14"/></g><g id="shape186-86" transform="translate(549 -54)"><path d="M0 382.43h23.33" class="st14"/></g><g id="shape187-91" transform="translate(675 -216)"><path d="M0 382.43h99" stroke="#000" stroke-linecap="round" stroke-linejoin="round" stroke-width="4"/></g><g id="shape188-94" transform="rotate(90 494.999 661.431)"><path d="M0 382.43h76.07" marker-end="url(#mrkr5-99)" stroke="#000" stroke-linecap="round" stroke-linejoin="round" stroke-width="4"/></g><g id="shape191-100" transform="translate(540 -174.441)"><path d="M72.94 353.34c-.53-.26-1.08-.48-1.62-.68l.39-.02s-3.48-1.42-3.78-11.72c-.3-10.3 3.31-12.06 3.31-12.06l-.52.03c2.73-1.3 5.08-3.34 6.63-6.03 4.04-7 1.15-15.7-6.45-19.42-7.6-3.72-17.04-1.06-21.07 5.95a13.296 13.296 0 00-1.61 9.01l-.18-.25s.92 3.74-8.59 9.18c-9.5 5.44-13.79 2.73-13.79 2.73l.27.37c-.27-.16-.53-.31-.82-.45-7.6-3.72-17.03-1.06-21.07 5.94-4.04 7.01-1.15 15.7 6.45 19.43 5.66 2.77 12.35 2 17.05-1.48l-.1.18s3.46-2.62 13.44 2.31c7.87 3.9 9.04 7.71 9.19 9.14-.21 5.32 2.8 10.54 8.24 13.21 7.6 3.72 17.04 1.06 21.08-5.94 4.04-7.01 1.15-15.71-6.45-19.43zm-17.57 1.89c-1.26.41-4.86.87-12.44-2.88-8.2-4.06-9.42-7.45-9.6-8.47.12-1.23.04-2.47-.19-3.67l.05.07s-.66-3.3 8.72-8.67c8.41-4.81 12.23-3.85 12.94-3.6.45.29.93.55 1.43.8.94.46 1.92.83 2.9 1.09 1.16 1.02 3.29 3.9 3.51 11.47.22 7.62-2.21 10.57-3.53 11.61-1.37.57-2.65 1.33-3.79 2.25z" class="st8"/></g><g id="shape192-102" transform="translate(589.706 -233.761)"><path d="M4.63 367.33c-4.53 4.57-4.63 11.3-.26 15.1-2.16-1.91-2.11-5.9.07-9.72.28-.34 1.09-1.15 2.28-.78.12.04.2.05.25.04.26.05.54.08.82.07 1.81-.07 3.21-1.48 3.12-3.14-.03-.75-.37-1.41-.89-1.92 4.19-2.53 9-2.82 10.97-1.16l.07.01c-4.5-3.79-11.85-3.11-16.43 1.5z" class="st9"/></g><g id="group193-104" transform="translate(544.119 -206.61)"><g id="shape194-105" transform="translate(4.368)"><path d="M.12 382.43c-.04-.03-.08-.08-.12-.11.03.02.05.05.08.08l.04.03z" class="st9"/></g><g id="shape195-107" transform="translate(0 -.115)"><path d="M4.63 367.33c-4.54 4.57-4.63 11.3-.26 15.1-2.16-1.91-2.11-5.9.07-9.72.28-.34 1.09-1.15 2.28-.78.12.04.2.04.25.04.26.05.54.08.82.07 1.81-.07 3.2-1.48 3.12-3.14-.03-.75-.37-1.41-.89-1.92 4.19-2.53 9-2.82 10.97-1.16l.07.01c-4.5-3.79-11.85-3.12-16.43 1.5z" class="st9"/></g></g><g id="group196-109" transform="translate(592.378 -183.72)"><g id="shape197-110" transform="translate(4.369)"><path d="M.12 382.43c-.04-.03-.08-.08-.12-.11l.08.08.04.03z" class="st9"/></g><g id="shape198-112" transform="translate(0 -.115)"><path d="M4.63 367.33c-4.54 4.57-4.63 11.3-.26 15.1-2.16-1.91-2.11-5.9.07-9.72.28-.34 1.09-1.15 2.28-.78.12.03.2.04.25.04.26.05.54.08.82.07 1.81-.07 3.2-1.48 3.12-3.15-.03-.74-.37-1.4-.89-1.91 4.19-2.53 9-2.82 10.97-1.16h.07c-4.5-3.78-11.85-3.11-16.43 1.51z" class="st9"/></g></g><g id="shape199-114" transform="translate(504 -162)"><path class="st10" d="M0 266.317h54v116.115H0z"/><text x="8.13" y="360.38" class="st11">{</text></g><g id="shape200-117" transform="translate(612 -162)"><path class="st10" d="M0 266.317h54v116.115H0z"/><text x="8.13" y="360.38" class="st11">}</text></g><g id="shape205-120" transform="translate(216 -16.773)"><path d="M40.09 330.89h15.75l-15.75-15.75v15.75zm17.18 5.72H34.36V313.7H5.73v31.5L0 350.93v-42.95h41.52L63 329.45v52.98H31.5l5.73-5.72 20.04-.01v-40.09z" class="st18"/></g><g id="shape206-122" transform="translate(217.853 -21.177)"><path class="st10" d="M0 352.785h37.733v29.647H0z"/><text x="4" y="374.81" class="st19">01</text></g><g id="shape265-125" transform="translate(351 -18.146)"><path d="M38.69 332.69h15.2l-15.2-15.2v15.2zm16.58 5.52H33.16v-22.1H5.53v30.4L0 352.03v-41.45h40.07l20.73 20.73v51.12H30.4l5.53-5.52 19.34-.01v-38.69z" class="st18"/></g><g id="shape266-127" transform="translate(351.975 -20.747)"><path class="st10" d="M0 353.821h46.819v28.611H0z"/><text x="4" y="375.33" class="st19">01</text></g><g id="shape267-130" transform="translate(400.5 -18.146)"><path fill="#fff" stroke-linecap="round" stroke-linejoin="round" stroke-width=".75" d="M0 369.427h12.6v13.005H0z"/></g><g id="shape268-132" transform="translate(403.996 -13.588)"><path d="M10.18 371.38a6.58 6.58 0 01-4.11-1.89l-.28-.3a.613.613 0 00-.85 0l-.28.3a6.58 6.58 0 01-4.11 1.89c-.31.03-.55.28-.55.59v1.71a9.99 9.99 0 005.07 8.68c.08.06.2.07.29.07.1 0 .2-.03.3-.07a9.99 9.99 0 005.07-8.68v-1.71c0-.31-.24-.56-.55-.59zm-2.23 3.2l-2.64 2.87a.75.75 0 01-.43.2h-.01c-.15 0-.31-.06-.42-.17l-1.49-1.51a.617.617 0 010-.84c.23-.22.61-.22.84 0l1.06 1.06 2.21-2.41c.23-.24.6-.26.84-.04s.25.6.04.84z" fill="#000" stroke-linecap="butt" stroke-width="6.12"/></g></g><g id="shape270-134" transform="translate(9)"><path class="st10" d="M0 310.432h144v72H0z"/><text x="20.58" y="355.43" fill="#000" font-family="Calibri" font-size="2.5em">JSON-LD</text></g><g id="shape271-137" transform="translate(180)"><path class="st10" d="M0 292.432h126v90H0z"/><text x="37.9" y="330.83" class="st23">CBOR<tspan x="14.92" dy="1.2em" class="st24">Binary Doc</tspan></text></g><g id="shape273-141" transform="translate(315)"><path class="st10" d="M0 292.432h126v90H0z"/><text x="39.43" y="330.83" class="st23">COSE<tspan x="13.51" dy="1.2em" class="st24">Signed Doc</tspan></text></g><g id="shape274-145" transform="translate(441)"><path class="st10" d="M0 292.432h126v90H0z"/><text x="47.02" y="330.83" class="st23">Zlib <tspan x="4.75" dy="1.2em" class="st24">Compression</tspan></text></g><g id="shape275-149" transform="translate(576)"><path class="st10" d="M0 292.432h126v90H0z"/><text x="22.86" y="330.83" class="st23">Base45 +<tspan x="24.22" dy="1.2em" class="st24">QR Code</tspan></text></g><g id="shape276-153" transform="translate(711)"><path class="st10" d="M0 292.432h126v90H0z"/><text x="22.85" y="330.83" class="st23">Biograph <tspan x="45.08" dy="1.2em" class="st24">App</tspan></text></g><g id="shape277-157" transform="translate(144 -252)"><path class="st10" d="M0 292.432h126v90H0z"/><text x="4" y="330.83" class="st23">Specification <tspan x="4" dy="1.2em" class="st24">Triplestore</tspan></text></g></g></svg>