<?xml version="1.0" standalone="no"?>
<!DOCTYPE svg PUBLIC "-//W3C//DTD SVG 1.1//EN" "http://www.w3.org/Graphics/SVG/1.1/DTD/svg11.dtd">
<!--Generator: Xara Designer (www.xara.com), SVG filter version: 6.3.0.31-->
<svg fill="none" fill-rule="evenodd" stroke="black" stroke-width="0.501" stroke-linejoin="bevel" stroke-miterlimit="10" font-family="Times New Roman" font-size="16" style="font-variant-ligatures:none" xmlns:xlink="http://www.w3.org/1999/xlink" xmlns="http://www.w3.org/2000/svg" version="1.1" overflow="visible" width="223.456pt" height="305.637pt" viewBox="0 -305.637 223.456 305.637">
 <defs>
	</defs>
 <g id="Layer 1" transform="scale(1 -1)">
  <rect x="0.043" y="45.131" width="223.37" height="223.369" stroke="none" fill="#ffffff" stroke-linejoin="miter"/>
  <path d="M 65.279,131.643 C 71.844,137.225 81.272,139.433 96.353,143.888 C 97.295,144.116 98.237,144.324 99.179,144.51 L 99.178,155.056 C 91.181,158.315 84.076,161.028 82.308,180.173 C 77.139,179.089 72.537,186.611 72.537,192.348 C 72.537,196.277 73.618,202.785 77.536,203.029 C 79.311,203.139 80.703,202.162 81.887,200.091 L 81.887,203.312 C 81.887,223.053 95.377,239.076 111.806,239.076 C 128.235,239.076 141.569,223.053 141.569,203.312 L 141.568,200.091 C 142.752,202.162 144.144,203.139 145.92,203.029 C 149.838,202.785 150.919,196.277 150.919,192.348 C 150.919,186.611 146.316,179.089 141.147,180.173 C 139.379,161.028 132.274,158.315 124.278,155.056 L 124.277,144.51 C 125.219,144.324 126.161,144.116 127.103,143.888 C 142.184,139.433 151.612,137.225 158.177,131.643 C 144.457,123.878 128.607,119.446 111.728,119.446 C 94.849,119.446 78.999,123.878 65.279,131.643 Z" stroke="none" fill="#f1c9a5" stroke-linejoin="round" stroke-linecap="round" stroke-width="0.5" marker-start="none" marker-end="none"/>
  <path d="M 111.728,119.446 L 111.806,239.076 C 128.235,239.076 141.569,223.053 141.569,203.312 L 141.568,200.091 C 142.752,202.162 144.144,203.139 145.92,203.029 C 149.838,202.785 150.919,196.277 150.919,192.348 C 150.919,186.611 146.316,179.089 141.147,180.173 C 139.379,161.028 132.274,158.315 124.278,155.056 L 124.277,144.51 C 125.219,144.324 126.161,144.116 127.103,143.888 C 142.184,139.433 151.612,137.225 158.177,131.643 C 144.457,123.878 128.607,119.446 111.728,119.446 Z" stroke="none" fill="#e4b992" stroke-linejoin="round" stroke-linecap="round" stroke-width="0.5" marker-start="none" marker-end="none"/>
  <path d="M 111.729,243.43 C 92.856,243.43 77.536,228.02 77.536,209.034 L 77.536,203.029 C 79.311,203.139 80.703,202.162 81.887,200.091 L 81.887,203.312 C 81.887,216.776 87.431,226.077 94.349,226.321 C 100.217,226.528 106.504,222.421 111.728,222.421 C 116.952,222.421 123.239,226.528 129.107,226.321 C 136.025,226.077 141.569,216.776 141.569,203.312 L 141.569,200.091 C 142.753,202.162 144.145,203.139 145.92,203.029 L 145.92,209.034 C 145.92,228.02 130.602,243.43 111.729,243.43 Z" fill="#10303f" stroke="none" stroke-linejoin="miter" stroke-linecap="round" stroke-width="0.5" marker-start="none" marker-end="none"/>
  <path d="M 111.728,174.663 C 104.886,170.671 99.907,169.899 96.537,171.903 L 96.177,170.583 C 101.36,168.505 106.545,169.23 111.728,170.223 C 116.911,169.23 122.096,168.505 127.279,170.583 L 126.919,171.903 C 123.549,169.899 118.57,170.671 111.728,174.663 Z" stroke="none" stroke-width="0.5" stroke-linecap="round" stroke-linejoin="miter" fill="#10303f" marker-start="none" marker-end="none"/>
  <g id="Group" stroke-linejoin="miter" stroke-linecap="round" stroke="none" stroke-width="0.5">
   <path d="M 72.535,64.655 C 63.631,67.995 55.266,72.437 47.607,77.818 C 54.129,119.507 58.896,129.854 72.535,136.141 C 78.399,138.844 85.974,140.826 96.123,143.82 C 97.499,136.455 103.966,130.875 111.728,130.875 C 119.489,130.875 125.956,136.455 127.332,143.82 C 137.48,140.826 145.055,138.844 150.919,136.142 C 164.558,129.855 169.325,119.509 175.848,77.818 C 168.188,72.437 159.823,67.995 150.919,64.655 C 138.723,60.081 125.516,57.58 111.728,57.58 C 97.939,57.58 84.732,60.081 72.535,64.655 Z" fill="#cccccc" marker-start="none" marker-end="none"/>
   <path d="M 97.079,144.386 C 99.537,135.275 102.942,136.277 111.728,130.601 C 106.31,125.328 103.606,119.86 100.055,118.37 C 94.76,123.003 87.547,134.115 88.31,141.694 L 97.079,144.386 Z" fill="#999999" marker-start="none" marker-end="none"/>
   <path d="M 126.377,144.386 C 123.919,135.275 120.514,136.277 111.728,130.601 C 117.146,125.328 119.85,119.86 123.401,118.37 C 128.696,123.003 135.909,134.115 135.146,141.694 L 126.377,144.386 Z" fill="#999999" marker-start="none" marker-end="none"/>
  </g>
  <path d="M 127.296,105.945 L 127.296,85.208 L 138.656,79.624 L 150.545,85.208 L 150.545,105.945 L 127.296,105.945 Z" fill="#999999" stroke="none" stroke-width="0.5" stroke-linecap="round" stroke-linejoin="miter" marker-start="none" marker-end="none"/>
 </g>
 <g id="Layer_1" transform="scale(1 -1)"/>
</svg>
