<svg id="Layer_1" data-name="Layer 1" xmlns="http://www.w3.org/2000/svg" viewBox="0 0 50 45.19"><defs><style>.cls-1{fill:#bb9155;}</style></defs><rect class="cls-1" x="17.43" y="19.69" width="1.1" height="1.09"/><rect class="cls-1" x="20.76" y="12.12" width="1.1" height="1.1"/><polygon class="cls-1" points="22.02 17.92 24.34 19.48 24.34 22.27 22.02 20.69 22.02 17.92"/><polygon class="cls-1" points="22.02 22.3 24.34 23.89 24.34 26.82 22.02 25.24 22.02 22.3"/><rect class="cls-1" x="24.45" y="31.97" width="1.1" height="1.1"/><polygon class="cls-1" points="25.66 19.48 27.85 18.09 27.85 20.78 25.66 22.27 25.66 19.48"/><polygon class="cls-1" points="25.66 23.89 27.85 22.39 27.85 25.44 25.66 26.86 25.66 23.89"/><rect class="cls-1" x="31.48" y="14.39" width="1.1" height="1.1"/><path class="cls-1" d="M36.17,6.76H13.83A1.34,1.34,0,0,0,12.5,8.1V25.93a12.5,12.5,0,0,0,25,0V8.1A1.34,1.34,0,0,0,36.17,6.76ZM33.9,16.82H32.69v2.27l-3.51,2.4v4.67l-3.51,2.29v2.19h1.21V34.4H23.12V30.64h1.21v-2.2l-7-4.79V22.11H16.1V18.36h3.75v3.75H18.64V23l2.05,1.4v-9.8H19.43V10.79h3.76v3.76H22v1.77l3,2,4.17-2.68v4.22l2.18-1.49V16.82H30.15V13.06H33.9Z"/></svg>