<svg id="Layer_1" data-name="Layer 1" xmlns="http://www.w3.org/2000/svg" viewBox="0 0 137.08 43.02"><defs><style>.cls-1{fill:#f2f2f2;}</style></defs><rect class="cls-1" x="15.58" y="18.12" width="1.28" height="1.27"/><rect class="cls-1" x="19.46" y="9.33" width="1.28" height="1.28"/><polygon class="cls-1" points="20.93 16.07 23.62 17.88 23.62 21.13 20.93 19.29 20.93 16.07"/><polygon class="cls-1" points="20.93 21.17 23.62 23.01 23.62 26.43 20.93 24.59 20.93 21.17"/><rect class="cls-1" x="23.75" y="32.42" width="1.28" height="1.28"/><polygon class="cls-1" points="25.16 17.89 27.7 16.26 27.7 19.4 25.16 21.14 25.16 17.89"/><polygon class="cls-1" points="25.16 23.01 27.7 21.28 27.7 24.82 25.16 26.47 25.16 23.01"/><rect class="cls-1" x="31.93" y="11.97" width="1.28" height="1.28"/><path class="cls-1" d="M37.39,3.09h-26A1.54,1.54,0,0,0,9.85,4.64V25.39a14.54,14.54,0,0,0,29.08,0V4.64A1.54,1.54,0,0,0,37.39,3.09Zm-2.64,11.7H33.34v2.64l-4.09,2.79v5.44l-4.09,2.66v2.55h1.42v4.37H22.2V30.87h1.42V28.31l-8.18-5.57V21H14V16.58H18.4V21H17v1l2.39,1.63V12.15H17.91V7.78h4.38v4.37H20.93v2l3.47,2.34,4.85-3.11v4.91l2.54-1.73V14.79H30.38V10.42h4.37Z"/><path class="cls-1" d="M58.62,23.54,56.67,19.1H49.85l-2,4.44h-3L53.25,5.63l8.33,17.91Zm-7.74-6.77h4.8l-1.76-3.93c-.1-.25-.21-.54-.32-.86s-.22-.69-.33-1.09q-.14.55-.3,1c-.11.33-.21.63-.32.9Z"/><path class="cls-1" d="M67.34,23.54V5.63h10V8.1H70.25v4.46h7.09v2.56H70.25v8.42Z"/><path class="cls-1" d="M84.21,23.54V5.63h3.93A26.27,26.27,0,0,1,93.53,6,7.34,7.34,0,0,1,96.26,7.3a7.52,7.52,0,0,1,2.36,3.05,10.69,10.69,0,0,1,.8,4.24,10.6,10.6,0,0,1-.8,4.23,7.62,7.62,0,0,1-2.36,3,7.37,7.37,0,0,1-2.67,1.29,20.27,20.27,0,0,1-4.67.39H84.21Zm2.91-2.63h2.45a12.63,12.63,0,0,0,3-.27,4.31,4.31,0,0,0,1.75-.91,5.4,5.4,0,0,0,1.53-2.16,8.34,8.34,0,0,0,.5-3,8.34,8.34,0,0,0-.5-3,5.4,5.4,0,0,0-1.53-2.16,4.42,4.42,0,0,0-1.81-.91,14.68,14.68,0,0,0-3.31-.27H87.12Z"/><path class="cls-1" d="M105.72,19.67l2.22-1a3,3,0,0,0,1.15,1.74,3.62,3.62,0,0,0,2.15.6,2.73,2.73,0,0,0,2-.69,2.38,2.38,0,0,0,.73-1.84c0-1-.83-1.89-2.49-2.68l-.54-.26A12,12,0,0,1,107.14,13a4.08,4.08,0,0,1-.94-2.73,4.34,4.34,0,0,1,1.42-3.38,5.29,5.29,0,0,1,3.71-1.29,6.23,6.23,0,0,1,3.16.73,3.77,3.77,0,0,1,1.76,2.09l-2.17,1.12A3.55,3.55,0,0,0,113,8.39,2.65,2.65,0,0,0,111.55,8a2.55,2.55,0,0,0-1.77.58,2,2,0,0,0-.66,1.56c0,1,1,2,2.89,2.87.15.07.26.13.35.16a10.41,10.41,0,0,1,3.47,2.28,4.17,4.17,0,0,1,1,2.78,5,5,0,0,1-1.53,3.86,5.81,5.81,0,0,1-4.13,1.43,6,6,0,0,1-3.57-1A4.67,4.67,0,0,1,105.72,19.67Z"/><path class="cls-1" d="M124.33,23.54V5.63h2.91V23.54Z"/></svg>