<svg id="Layer_1" data-name="Layer 1" xmlns="http://www.w3.org/2000/svg" viewBox="0 0 136.51 42.84"><defs><style>.cls-1{fill:#1a1a1a;}</style></defs><rect class="cls-1" x="15.29" y="18.03" width="1.28" height="1.27"/><rect class="cls-1" x="19.18" y="9.24" width="1.28" height="1.28"/><polygon class="cls-1" points="20.64 15.98 23.33 17.79 23.33 21.04 20.64 19.2 20.64 15.98"/><polygon class="cls-1" points="20.64 21.08 23.33 22.92 23.33 26.34 20.64 24.5 20.64 21.08"/><rect class="cls-1" x="23.47" y="32.33" width="1.28" height="1.28"/><polygon class="cls-1" points="24.88 17.8 27.42 16.17 27.42 19.31 24.88 21.05 24.88 17.8"/><polygon class="cls-1" points="24.88 22.92 27.42 21.19 27.42 24.73 24.88 26.38 24.88 22.92"/><rect class="cls-1" x="31.64" y="11.88" width="1.28" height="1.28"/><path class="cls-1" d="M37.1,3h-26A1.54,1.54,0,0,0,9.56,4.55V25.3a14.55,14.55,0,0,0,29.09,0V4.55A1.55,1.55,0,0,0,37.1,3ZM34.46,14.7H33.05v2.64L29,20.13v5.44l-4.08,2.66v2.55h1.41v4.37H21.92V30.78h1.41V28.22l-8.17-5.57V20.86H13.74V16.49h4.38v4.37H16.7v1l2.39,1.63V12.06H17.63V7.69H22v4.37H20.64v2l3.47,2.34L29,13.34v4.91l2.54-1.73V14.7H30.09V10.33h4.37Z"/><path class="cls-1" d="M58.34,23.45l-2-4.44H49.56l-2,4.44H44.62L53,5.54l8.33,17.91ZM50.6,16.68h4.8l-1.77-3.93c-.1-.25-.21-.54-.32-.86s-.22-.69-.33-1.09q-.13.55-.3,1c-.1.33-.21.63-.32.9Z"/><path class="cls-1" d="M67.05,23.45V5.54h10V8H70v4.46h7.08V15H70v8.42Z"/><path class="cls-1" d="M83.93,23.45V5.54h3.92a26.27,26.27,0,0,1,5.39.38A7.34,7.34,0,0,1,96,7.21a7.52,7.52,0,0,1,2.36,3.05,10.69,10.69,0,0,1,.8,4.24,10.6,10.6,0,0,1-.8,4.23,7.62,7.62,0,0,1-2.36,3,7.37,7.37,0,0,1-2.67,1.29,20.21,20.21,0,0,1-4.67.39h-4.7Zm2.91-2.63h2.44a12.58,12.58,0,0,0,3-.27,4.42,4.42,0,0,0,1.76-.91,5.48,5.48,0,0,0,1.52-2.16,8.13,8.13,0,0,0,.51-3,8.13,8.13,0,0,0-.51-3,5.48,5.48,0,0,0-1.52-2.16,4.53,4.53,0,0,0-1.82-.91,14.68,14.68,0,0,0-3.31-.27h-2.1Z"/><path class="cls-1" d="M105.44,19.58l2.21-1a3.06,3.06,0,0,0,1.16,1.74,3.59,3.59,0,0,0,2.14.6,2.75,2.75,0,0,0,2-.69,2.42,2.42,0,0,0,.73-1.84c0-1-.84-1.89-2.5-2.68l-.54-.26a12,12,0,0,1-3.76-2.48,4.13,4.13,0,0,1-.94-2.73,4.38,4.38,0,0,1,1.42-3.38,5.31,5.31,0,0,1,3.72-1.29,6.2,6.2,0,0,1,3.15.73A3.83,3.83,0,0,1,116,8.36L113.8,9.48a3.67,3.67,0,0,0-1.13-1.18,2.62,2.62,0,0,0-1.4-.37,2.58,2.58,0,0,0-1.78.58,2,2,0,0,0-.66,1.56c0,1,1,2,2.89,2.87l.35.16a10.36,10.36,0,0,1,3.48,2.28,4.16,4.16,0,0,1,.94,2.78A5,5,0,0,1,115,22a5.8,5.8,0,0,1-4.12,1.43,6,6,0,0,1-3.58-1A4.61,4.61,0,0,1,105.44,19.58Z"/><path class="cls-1" d="M124,23.45V5.54H127V23.45Z"/></svg>