<svg id="Layer_1" data-name="Layer 1" xmlns="http://www.w3.org/2000/svg" viewBox="0 0 50 45.19"><defs><style>.cls-1{fill:#1a1a1a;}</style></defs><rect class="cls-1" x="20.18" y="15" width="0.7" height="0.7"/><rect class="cls-1" x="22.31" y="10.19" width="0.7" height="0.7"/><polygon class="cls-1" points="23.11 13.87 24.58 14.86 24.58 16.64 23.11 15.64 23.11 13.87"/><polygon class="cls-1" points="23.11 16.66 24.58 17.67 24.58 19.54 23.11 18.53 23.11 16.66"/><rect class="cls-1" x="24.65" y="22.81" width="0.7" height="0.7"/><polygon class="cls-1" points="25.42 14.87 26.81 13.98 26.81 15.7 25.42 16.64 25.42 14.87"/><polygon class="cls-1" points="25.42 17.67 26.81 16.72 26.81 18.66 25.42 19.56 25.42 17.67"/><rect class="cls-1" x="29.12" y="11.63" width="0.7" height="0.7"/><path class="cls-1" d="M32.1,6.78H17.9a.85.85,0,0,0-.85.85V19A7.95,7.95,0,0,0,33,19V7.63A.85.85,0,0,0,32.1,6.78Zm-1.44,6.39h-.77v1.45l-2.23,1.52v3l-2.24,1.45V22h.77v2.39H23.81V22h.77V20.56l-4.47-3v-1h-.77V14.15h2.39v2.39H21v.53l1.3.89V11.73h-.8V9.34h2.39v2.39h-.74v1.12L25,14.13l2.65-1.7v2.69L29,14.17v-1h-.77V10.78h2.39Z"/><path class="cls-1" d="M13.33,38.41l-.83-1.88H9.6l-.85,1.88H7.5l3.55-7.61,3.54,7.61ZM10,35.54h2l-.75-1.67c0-.11-.09-.23-.13-.37a4.21,4.21,0,0,1-.14-.46c0,.16-.09.31-.13.44s-.09.27-.14.39Z"/><path class="cls-1" d="M17,38.41V30.8h4.25v1.05h-3v1.9h3v1.09h-3v3.57Z"/><path class="cls-1" d="M24.21,38.41V30.8h1.67a11.68,11.68,0,0,1,2.29.16,3.19,3.19,0,0,1,1.16.55,3.14,3.14,0,0,1,1,1.3,4.93,4.93,0,0,1,0,3.6,3.18,3.18,0,0,1-1,1.29,3.05,3.05,0,0,1-1.13.55,8.78,8.78,0,0,1-2,.16h-2Zm1.24-1.11h1a5,5,0,0,0,1.28-.12,1.9,1.9,0,0,0,.75-.38,2.41,2.41,0,0,0,.65-.92,3.58,3.58,0,0,0,.21-1.28,3.52,3.52,0,0,0-.21-1.27,2.27,2.27,0,0,0-.65-.92,1.93,1.93,0,0,0-.77-.39,6.73,6.73,0,0,0-1.41-.11h-.89Z"/><path class="cls-1" d="M33.35,36.77l.95-.44a1.27,1.27,0,0,0,.49.74,1.51,1.51,0,0,0,.91.26,1.16,1.16,0,0,0,.83-.29,1,1,0,0,0,.31-.79c0-.42-.35-.8-1.06-1.14L35.56,35A5.17,5.17,0,0,1,34,34a1.74,1.74,0,0,1-.4-1.16,1.87,1.87,0,0,1,.6-1.44,2.24,2.24,0,0,1,1.58-.55,2.63,2.63,0,0,1,1.34.31,1.64,1.64,0,0,1,.75.89l-.92.48a1.54,1.54,0,0,0-.48-.5,1.08,1.08,0,0,0-.6-.16,1.11,1.11,0,0,0-.75.24.85.85,0,0,0-.28.67c0,.43.41.84,1.23,1.22l.14.07a4.31,4.31,0,0,1,1.48,1,1.74,1.74,0,0,1,.4,1.18,2.12,2.12,0,0,1-.65,1.64,2.46,2.46,0,0,1-1.75.6A2.57,2.57,0,0,1,34.13,38,2.07,2.07,0,0,1,33.35,36.77Z"/><path class="cls-1" d="M41.26,38.41V30.8H42.5v7.61Z"/></svg>