<svg xmlns="http://www.w3.org/2000/svg" viewBox="0 0 313 840" xml:space="preserve" color-interpolation-filters="sRGB" style="fill:none;fill-rule:evenodd;font-size:12px;overflow:visible;stroke-linecap:square;stroke-miterlimit:3">
<style>.st1,.st2,.st3,.st4,.st5,.st6,.st7,.st8{fill:#a9c937;stroke:none;stroke-linecap:butt;stroke-width:2.25279}.st2,.st3,.st4,.st5,.st6,.st7,.st8{fill:#1b88cd}.st3,.st4,.st5,.st6,.st7,.st8{fill:#efd520}.st4,.st5,.st6,.st7,.st8{fill:#1275ac}.st5,.st6,.st7,.st8{fill:#a71520}.st6,.st7,.st8{fill:#c52433}.st7,.st8{fill:#3ba7e5}.st8{fill:#c41622}</style>
<g id="group241-1" transform="translate(0 -2.253)">
<g id="shape191-2" transform="translate(149.865 -561.342)"><path d="M15.81 817.98h118c6.49 0 11.71 4.97 11.71 11.13 0 6.17-5.22 11.13-11.71 11.13H0c0-4.57.56-11.13 7.56-11.13 6.86 0 8.25-6.45 8.25-11.13Z" class="st1"/></g><g id="shape192-4" transform="translate(15.702 -599.891)"><path d="M134.16 840.24H11.71C5.22 840.24 0 835.28 0 829.11c0-6.16 5.22-11.13 11.71-11.13h138.26c0 4.58-.56 11.13-7.56 11.13-6.87 0-8.25 6.45-8.25 11.13Z" class="st2"/></g><g id="shape193-6" transform="translate(64.647 -638.436)"><path d="M85.21 840.24h-73.5C5.22 840.24 0 835.28 0 829.11c0-6.16 5.22-11.13 11.71-11.13h89.31c0 4.58-.56 11.13-7.56 11.13-6.86 0-8.25 6.45-8.25 11.13Z" class="st3"/></g><g id="shape194-8" transform="translate(149.865 -522.797)"><path d="M15.81 817.98h73.51c6.48 0 11.7 4.97 11.7 11.13 0 6.17-5.22 11.13-11.7 11.13H0c0-4.57.56-11.13 7.56-11.13 6.86 0 8.25-6.45 8.25-11.13Z" class="st3"/></g><g id="shape195-10" transform="translate(149.865 -369.022)"><path d="M15.81 817.98h118c6.49 0 11.71 4.97 11.71 11.13 0 6.17-5.22 11.13-11.71 11.13H0c0-4.57.56-11.13 7.56-11.13 6.86 0 8.25-6.45 8.25-11.13Z" class="st1"/></g><g id="shape196-12" transform="translate(15.702 -407.57)"><path d="M134.16 840.24H11.71C5.22 840.24 0 835.28 0 829.11c0-6.16 5.22-11.13 11.71-11.13h138.26c0 4.58-.56 11.13-7.56 11.13-6.87 0-8.25 6.45-8.25 11.13Z" class="st2"/></g><g id="shape197-14" transform="translate(64.647 -446.115)"><path d="M85.21 840.24h-73.5C5.22 840.24 0 835.28 0 829.11c0-6.16 5.22-11.13 11.71-11.13h89.31c0 4.58-.56 11.13-7.56 11.13-6.86 0-8.25 6.45-8.25 11.13Z" class="st3"/></g><g id="shape198-16" transform="translate(149.865 -330.476)"><path d="M15.81 817.98h73.51c6.48 0 11.7 4.97 11.7 11.13 0 6.17-5.22 11.13-11.7 11.13H0c0-4.57.56-11.13 7.56-11.13 6.86 0 8.25-6.45 8.25-11.13Z" class="st3"/></g><g id="shape199-18" transform="translate(149.865 -176.701)"><path d="M15.81 817.98h118c6.49 0 11.71 4.97 11.71 11.13 0 6.17-5.22 11.13-11.71 11.13H0c0-4.57.56-11.13 7.56-11.13 6.86 0 8.25-6.45 8.25-11.13Z" class="st1"/></g><g id="shape200-20" transform="translate(15.702 -215.249)"><path d="M134.16 840.24H11.71C5.22 840.24 0 835.28 0 829.11c0-6.16 5.22-11.13 11.71-11.13h138.26c0 4.58-.56 11.13-7.56 11.13-6.87 0-8.25 6.45-8.25 11.13Z" class="st2"/></g><g id="shape201-22" transform="translate(64.647 -253.795)"><path d="M85.21 840.24h-73.5C5.22 840.24 0 835.28 0 829.11c0-6.16 5.22-11.13 11.71-11.13h89.31c0 4.58-.56 11.13-7.56 11.13-6.86 0-8.25 6.45-8.25 11.13Z" class="st3"/></g><g id="shape202-24" transform="translate(149.865 -138.156)"><path d="M15.81 817.98h73.51c6.48 0 11.7 4.97 11.7 11.13 0 6.17-5.22 11.13-11.7 11.13H0c0-4.57.56-11.13 7.56-11.13 6.86 0 8.25-6.45 8.25-11.13Z" class="st3"/></g><g id="shape204-26" transform="translate(15.702 -22.929)"><path d="M134.16 840.24H11.71C5.22 840.24 0 835.28 0 829.11c0-6.16 5.22-11.13 11.71-11.13h138.26c0 4.58-.56 11.13-7.56 11.13-6.87 0-8.25 6.45-8.25 11.13Z" class="st2"/></g><g id="shape205-28" transform="translate(64.647 -61.474)"><path d="M85.21 840.24h-73.5C5.22 840.24 0 835.28 0 829.11c0-6.16 5.22-11.13 11.71-11.13h89.31c0 4.58-.56 11.13-7.56 11.13-6.86 0-8.25 6.45-8.25 11.13Z" class="st3"/></g><g id="shape206-30" transform="translate(149.865 -752.874)"><path d="M15.81 817.98h118c6.49 0 11.71 4.97 11.71 11.13 0 6.17-5.22 11.13-11.71 11.13H0c0-4.57.56-11.13 7.56-11.13 6.86 0 8.25-6.45 8.25-11.13Z" class="st1"/></g><g id="shape207-32" transform="translate(15.702 -791.423)"><path d="M134.16 840.24H11.71C5.22 840.24 0 835.28 0 829.11c0-6.16 5.22-11.13 11.71-11.13h138.26c0 4.58-.56 11.13-7.56 11.13-6.87 0-8.25 6.45-8.25 11.13Z" class="st2"/></g><g id="shape208-34" transform="translate(20.152 -752.878)"><path d="M129.71 840.24h-118C5.22 840.24 0 835.28 0 829.11c0-6.16 5.22-11.13 11.71-11.13h133.81c0 4.58-.56 11.13-7.56 11.13-6.87 0-8.25 6.45-8.25 11.13Z" class="st3"/></g><g id="shape209-36" transform="translate(64.647 -714.332)"><path d="M85.21 840.24h-73.5C5.22 840.24 0 835.28 0 829.11c0-6.16 5.22-11.13 11.71-11.13h89.31c0 4.58-.56 11.13-7.56 11.13-6.86 0-8.25 6.45-8.25 11.13Z" class="st1"/></g><g id="shape211-38" transform="translate(149.865 -714.329)"><path d="M15.81 817.98h73.51c6.48 0 11.7 4.97 11.7 11.13 0 6.17-5.22 11.13-11.7 11.13H0c0-4.57.56-11.13 7.56-11.13 6.86 0 8.25-6.45 8.25-11.13Z" class="st3"/></g><g id="shape212-40" transform="translate(0 -21.737)"><path d="M309.2 815.62c0-55.78-205.01-96.49-286.67-168.55C8.64 656.6 0 670.26 8.23 684.52c36.57 62.35 176.91 71.09 283.42 155.72 10.58-8.3 17.54-18.55 17.54-24.62h.01Z" class="st4"/></g><g id="shape213-42" transform="translate(.653 -391.623)"><path d="M309.2 815.62c0-55.78-205.01-96.49-286.67-168.55C8.64 656.6 0 670.26 8.23 684.52c36.57 62.35 176.91 71.09 283.42 155.72 10.58-8.3 17.54-18.55 17.54-24.62h.01Z" class="st4"/></g><g id="shape214-44" transform="translate(0 -202.501)"><path d="M309.2 815.62c0-55.78-205.01-96.49-286.67-168.55C8.64 656.6 0 670.26 8.23 684.52c36.57 62.35 176.91 71.09 283.42 155.72 10.58-8.3 17.54-18.55 17.54-24.62h.01Z" class="st5"/></g><g id="shape215-46" transform="translate(3.496)"><path d="M59.14 840.07c-15.29-8.95-29.07-18.39-40.45-28.44C7.7 819.17 0 829.29 1.33 840.24l57.81-.17Z" class="st5"/></g><g id="shape216-48" transform="translate(4.578 -2.586)"><path d="M0 840.24v-55.03c66.83-83.36 250.31-98.06 305.28-177.84v52.76C253.22 740.64 55.19 760.02 0 840.24Z" class="st6"/></g><g id="shape217-50" transform="translate(1.104 -578.672)"><path d="M309.2 815.62c0-55.78-205.01-96.49-286.67-168.55C8.64 656.6 0 670.26 8.23 684.52c36.57 62.35 176.91 71.09 283.42 155.72 10.58-8.3 17.55-18.55 17.55-24.62Z" class="st5"/></g><g id="shape218-52" transform="translate(168.252 -766.195)"><path d="M142.41 815.62c0-15.83-16.52-30.45-42.04-44.92L0 771.03C41.62 788.1 85.55 809 124.87 840.24c10.58-8.3 17.54-18.55 17.54-24.62Z" class="st4"/></g><g id="shape219-54" transform="translate(5.682 -559.521)"><path d="M0 840.24v-55.03c66.83-83.36 250.31-98.06 305.28-177.84v52.76C253.22 740.64 55.19 760.02 0 840.24Z" class="st7"/></g><g id="shape220-56" transform="translate(5.208 -372.494)"><path d="M0 840.24v-55.03c66.83-83.36 250.31-98.06 305.28-177.84v52.76C253.22 740.64 55.19 760.02 0 840.24Z" class="st6"/></g><g id="shape221-58" transform="translate(4.578 -183.373)"><path d="M0 840.24v-55.03c66.83-83.36 250.31-98.06 305.28-177.84v52.76C253.22 740.64 55.19 760.02 0 840.24Z" class="st7"/></g><g id="shape222-60" transform="translate(249.095 -.086)"><path d="M0 840.22c25.44-13.74 46.75-29.44 60.28-49.07v49.09L0 840.22Z" class="st7"/></g><g id="shape223-62" transform="translate(6.04 -747.043)"><path d="M0 840.24v-55.03c10.04-12.51 22.7-23.48 37.16-33.35l112.93-.09C88.41 776.22 27.05 800.92 0 840.24Z" class="st6"/></g><g id="shape224-64" transform="translate(20.152 -561.345)"><path d="M129.71 840.24h-118C5.22 840.24 0 835.28 0 829.11c0-6.16 5.22-11.13 11.71-11.13h133.81c0 4.58-.56 11.13-7.56 11.13-6.87 0-8.25 6.45-8.25 11.13Z" class="st3"/></g><g id="shape225-66" transform="translate(64.647 -522.8)"><path d="M85.21 840.24h-73.5C5.22 840.24 0 835.28 0 829.11c0-6.16 5.22-11.13 11.71-11.13h89.31c0 4.58-.56 11.13-7.56 11.13-6.86 0-8.25 6.45-8.25 11.13Z" class="st1"/></g><g id="shape226-68" transform="translate(20.152 -369.025)"><path d="M129.71 840.24h-118C5.22 840.24 0 835.28 0 829.11c0-6.16 5.22-11.13 11.71-11.13h133.81c0 4.58-.56 11.13-7.56 11.13-6.87 0-8.25 6.45-8.25 11.13Z" class="st3"/></g><g id="shape227-70" transform="translate(64.647 -330.48)"><path d="M85.21 840.24h-73.5C5.22 840.24 0 835.28 0 829.11c0-6.16 5.22-11.13 11.71-11.13h89.31c0 4.58-.56 11.13-7.56 11.13-6.86 0-8.25 6.45-8.25 11.13Z" class="st1"/></g><g id="shape228-72" transform="translate(20.152 -176.704)"><path d="M129.71 840.24h-118C5.22 840.24 0 835.28 0 829.11c0-6.16 5.22-11.13 11.71-11.13h133.81c0 4.58-.56 11.13-7.56 11.13-6.87 0-8.25 6.45-8.25 11.13Z" class="st3"/></g><g id="shape229-74" transform="translate(64.647 -138.159)"><path d="M85.21 840.24h-73.5C5.22 840.24 0 835.28 0 829.11c0-6.16 5.22-11.13 11.71-11.13h89.31c0 4.58-.56 11.13-7.56 11.13-6.86 0-8.25 6.45-8.25 11.13Z" class="st1"/></g><g id="shape231-76" transform="translate(149.865 -61.471)"><path d="M15.81 817.98h73.51c6.48 0 11.7 4.97 11.7 11.13 0 6.17-5.22 11.13-11.7 11.13H0c0-4.57.56-11.13 7.56-11.13 6.86 0 8.25-6.45 8.25-11.13Z" class="st2"/></g><g id="shape232-78" transform="translate(149.865 -253.792)"><path d="M15.81 817.98h73.51c6.48 0 11.7 4.97 11.7 11.13 0 6.17-5.22 11.13-11.7 11.13H0c0-4.57.56-11.13 7.56-11.13 6.86 0 8.25-6.45 8.25-11.13Z" class="st2"/></g><g id="shape233-80" transform="translate(149.865 -446.112)"><path d="M15.81 817.98h73.51c6.48 0 11.7 4.97 11.7 11.13 0 6.17-5.22 11.13-11.7 11.13H0c0-4.57.56-11.13 7.56-11.13 6.86 0 8.25-6.45 8.25-11.13Z" class="st2"/></g><g id="shape234-82" transform="translate(149.865 -638.433)"><path d="M15.81 817.98h73.51c6.48 0 11.7 4.97 11.7 11.13 0 6.17-5.22 11.13-11.7 11.13H0c0-4.57.56-11.13 7.56-11.13 6.86 0 8.25-6.45 8.25-11.13Z" class="st2"/></g><g id="shape236-84" transform="translate(149.865 -791.42)"><path d="M15.81 817.98h122.45c6.49 0 11.71 4.97 11.71 11.13 0 6.17-5.22 11.13-11.71 11.13H0c0-4.57.56-11.13 7.56-11.13 6.86 0 8.25-6.45 8.25-11.13Z" class="st8"/></g><g id="shape237-86" transform="translate(149.865 -599.887)"><path d="M15.81 817.98h122.45c6.49 0 11.71 4.97 11.71 11.13 0 6.17-5.22 11.13-11.71 11.13H0c0-4.57.56-11.13 7.56-11.13 6.86 0 8.25-6.45 8.25-11.13Z" class="st8"/></g><g id="shape238-88" transform="translate(149.865 -407.567)"><path d="M15.81 817.98h122.45c6.49 0 11.71 4.97 11.71 11.13 0 6.17-5.22 11.13-11.71 11.13H0c0-4.57.56-11.13 7.56-11.13 6.86 0 8.25-6.45 8.25-11.13Z" class="st8"/></g><g id="shape239-90" transform="translate(149.865 -215.246)"><path d="M15.81 817.98h122.45c6.49 0 11.71 4.97 11.71 11.13 0 6.17-5.22 11.13-11.71 11.13H0c0-4.57.56-11.13 7.56-11.13 6.86 0 8.25-6.45 8.25-11.13Z" class="st8"/></g><g id="shape240-92" transform="translate(149.865 -22.926)"><path d="M15.81 817.98h122.45c6.49 0 11.71 4.97 11.71 11.13 0 6.17-5.22 11.13-11.71 11.13H0c0-4.57.56-11.13 7.56-11.13 6.86 0 8.25-6.45 8.25-11.13Z" class="st8"/></g>
</g>
</svg>