<svg xmlns="http://www.w3.org/2000/svg" width="100%" height="100%" viewBox="0 0 698 486" xml:space="preserve" color-interpolation-filters="sRGB" style="fill:none;fill-rule:evenodd;font-size:12px;overflow:visible;stroke-linecap:square;stroke-miterlimit:3"><style>.st1,.st2,.st3,.st4,.st5{fill:#b51d34;stroke:none;stroke-linecap:round;stroke-linejoin:round;stroke-width:.75}.st2,.st3,.st4,.st5{fill:#7f142e}.st3,.st4,.st5{fill:#550a1e}.st4,.st5{fill:#971328}.st5{fill:#8e1421}.st6{fill:#edeef0}.st6,.st7{stroke:none;stroke-linecap:round;stroke-linejoin:round;stroke-width:.75}.st8{fill:#fff;font-family:Roboto;font-size:4.96273em}.st10,.st11,.st12,.st13,.st9{fill:#dedede;stroke:none;stroke-linecap:round;stroke-linejoin:round;stroke-width:.75}.st10,.st11,.st12,.st13{fill:#e6e7e9}.st11,.st12,.st13{fill:#07a1e1}.st12,.st13{fill:#0b87a3}.st13{fill:#007fb2}</style><g id="group172-1"><g id="shape7-2" transform="translate(166.456 -171.008)"><path d="M0 171.01v315.34h224.63V171.01H0Z" class="st1"/></g><g id="shape8-4" transform="translate(390.882 -202.645)"><path d="m0 202.65 32.71 283.7H0v-283.7Z" class="st2"/></g><g id="shape9-6" transform="translate(390.882 -171.008)"><path d="M0 454.71v31.64l14.08-20.68 18.63-10.96H0Z" class="st3"/></g><g id="shape10-8" transform="translate(166.456 -457.399)"><path d="M0 457.4v28.95h224.63V457.4H0Z" class="st4"/></g><g id="shape11-10" transform="translate(189.023 -461.121)"><path d="M0 465.26v21.09h4.35v-21.09H0Z" class="st1"/></g><g id="shape12-12" transform="translate(200.824 -461.121)"><path d="M0 465.26v21.09h4.35v-21.09H0Z" class="st1"/></g><g id="shape13-14" transform="translate(212.625 -461.121)"><path d="M0 465.26v21.09h4.35v-21.09H0Z" class="st1"/></g><g id="shape14-16" transform="translate(224.633 -461.121)"><path d="M0 465.26v21.09h4.35v-21.09H0Z" class="st1"/></g><g id="shape15-18" transform="translate(236.227 -461.121)"><path d="M0 465.26v21.09h4.55v-21.09H0Z" class="st1"/></g><g id="shape16-20" transform="translate(248.235 -461.121)"><path d="M0 465.26v21.09h4.35v-21.09H0Z" class="st1"/></g><g id="shape17-22" transform="translate(260.243 -461.121)"><path d="M0 465.26v21.09h4.35v-21.09H0Z" class="st1"/></g><g id="shape18-24" transform="translate(272.044 -461.121)"><path d="M0 465.26v21.09h4.35v-21.09H0Z" class="st1"/></g><g id="shape19-26" transform="translate(177.222 -461.121)"><path d="M0 465.26v21.09h4.35v-21.09H0Z" class="st1"/></g><g id="shape20-28" transform="translate(283.845 -461.121)"><path d="M0 465.26v21.09h4.35v-21.09H0Z" class="st1"/></g><g id="shape21-30" transform="translate(295.853 -461.121)"><path d="M0 465.26v21.09h4.35v-21.09H0Z" class="st1"/></g><g id="shape22-32" transform="translate(307.654 -461.121)"><path d="M0 465.26v21.09h4.35v-21.09H0Z" class="st1"/></g><g id="shape23-34" transform="translate(319.662 -461.121)"><path d="M0 465.26v21.09h4.35v-21.09H0Z" class="st1"/></g><g id="shape24-36" transform="translate(331.256 -461.121)"><path d="M0 465.26v21.09h4.35v-21.09H0Z" class="st1"/></g><g id="shape25-38" transform="translate(343.264 -461.121)"><path d="M0 465.26v21.09h4.35v-21.09H0Z" class="st1"/></g><g id="shape26-40" transform="translate(355.272 -461.121)"><path d="M0 465.26v21.09h4.35v-21.09H0Z" class="st1"/></g><g id="shape27-42" transform="translate(366.866 -461.121)"><path d="M0 465.26v21.09h4.35v-21.09H0Z" class="st1"/></g><g id="shape28-44" transform="translate(378.874 -461.121)"><path d="M0 465.26v21.09h4.35v-21.09H0Z" class="st1"/></g><g id="shape29-46" transform="translate(127.119 -134.408)"><path d="M0 171.01v315.34h224.63V171.01H0Z" class="st1"/></g><g id="shape30-48" transform="translate(351.545 -166.045)"><path d="m0 202.65 32.71 283.7H0v-283.7Z" class="st2"/></g><g id="shape31-50" transform="translate(351.545 -134.408)"><path d="M0 454.71v31.64l14.08-20.47 18.63-11.17H0Z" class="st3"/></g><g id="shape32-52" transform="translate(127.119 -420.799)"><path d="M0 457.4v28.95h224.63V457.4H0Z" class="st4"/></g><g id="shape33-54" transform="translate(149.686 -424.521)"><path d="M0 465.46v20.89h4.35v-20.89H0Z" class="st1"/></g><g id="shape34-56" transform="translate(161.28 -424.521)"><path d="M0 465.46v20.89h4.55v-20.89H0Z" class="st1"/></g><g id="shape35-58" transform="translate(173.288 -424.521)"><path d="M0 465.46v20.89h4.35v-20.89H0Z" class="st1"/></g><g id="shape36-60" transform="translate(185.296 -424.521)"><path d="M0 465.46v20.89h4.35v-20.89H0Z" class="st1"/></g><g id="shape37-62" transform="translate(196.89 -424.521)"><path d="M0 465.46v20.89h4.35v-20.89H0Z" class="st1"/></g><g id="shape38-64" transform="translate(208.898 -424.521)"><path d="M0 465.46v20.89h4.35v-20.89H0Z" class="st1"/></g><g id="shape39-66" transform="translate(220.699 -424.521)"><path d="M0 465.46v20.89h4.55v-20.89H0Z" class="st1"/></g><g id="shape40-68" transform="translate(232.707 -424.521)"><path d="M0 465.46v20.89h4.35v-20.89H0Z" class="st1"/></g><g id="shape41-70" transform="translate(137.678 -424.521)"><path d="M0 465.46v20.89h4.35v-20.89H0Z" class="st1"/></g><g id="shape42-72" transform="translate(244.508 -424.521)"><path d="M0 465.46v20.89h4.35v-20.89H0Z" class="st1"/></g><g id="shape43-74" transform="translate(256.309 -424.521)"><path d="M0 465.46v20.89h4.35v-20.89H0Z" class="st1"/></g><g id="shape44-76" transform="translate(268.317 -424.521)"><path d="M0 465.46v20.89h4.35v-20.89H0Z" class="st1"/></g><g id="shape45-78" transform="translate(280.325 -424.521)"><path d="M0 465.46v20.89h4.35v-20.89H0Z" class="st1"/></g><g id="shape46-80" transform="translate(291.919 -424.521)"><path d="M0 465.46v20.89h4.35v-20.89H0Z" class="st1"/></g><g id="shape47-82" transform="translate(303.927 -424.521)"><path d="M0 465.46v20.89h4.35v-20.89H0Z" class="st1"/></g><g id="shape48-84" transform="translate(315.728 -424.521)"><path d="M0 465.46v20.89h4.35v-20.89H0Z" class="st1"/></g><g id="shape49-86" transform="translate(327.529 -424.521)"><path d="M0 465.46v20.89h4.35v-20.89H0Z" class="st1"/></g><g id="shape50-88" transform="translate(339.33 -424.521)"><path d="M0 465.46v20.89h4.55v-20.89H0Z" class="st1"/></g><g id="shape51-90" transform="translate(83.85 -92.638)"><path d="M0 170.8v315.55h224.63V170.8H0Z" class="st1"/></g><g id="shape52-92" transform="translate(308.689 -124.275)"><path d="m0 202.44 32.5 283.91H0V202.44Z" class="st2"/></g><g id="shape53-94" transform="translate(308.689 -92.845)"><path d="M0 454.92v31.43l13.87-20.47 18.63-10.96H0Z" class="st3"/></g><g id="shape54-96" transform="translate(83.85 -379.029)"><path d="M0 457.19v29.16h224.63v-29.16H0Z" class="st4"/></g><g id="shape55-98" transform="translate(106.416 -382.751)"><path d="M0 465.26v21.09h4.35v-21.09H0Z" class="st1"/></g><g id="shape56-100" transform="translate(118.424 -382.751)"><path d="M0 465.26v21.09h4.35v-21.09H0Z" class="st1"/></g><g id="shape57-102" transform="translate(130.225 -382.751)"><path d="M0 465.26v21.09h4.35v-21.09H0Z" class="st1"/></g><g id="shape58-104" transform="translate(142.026 -382.751)"><path d="M0 465.26v21.09h4.35v-21.09H0Z" class="st1"/></g><g id="shape59-106" transform="translate(154.034 -382.751)"><path d="M0 465.26v21.09h4.35v-21.09H0Z" class="st1"/></g><g id="shape60-108" transform="translate(165.835 -382.751)"><path d="M0 465.26v21.09h4.35v-21.09H0Z" class="st1"/></g><g id="shape61-110" transform="translate(177.636 -382.751)"><path d="M0 465.26v21.09h4.35v-21.09H0Z" class="st1"/></g><g id="shape62-112" transform="translate(189.437 -382.751)"><path d="M0 465.26v21.09h4.35v-21.09H0Z" class="st1"/></g><g id="shape63-114" transform="translate(94.408 -382.751)"><path d="M0 465.26v21.09h4.55v-21.09H0Z" class="st1"/></g><g id="shape64-116" transform="translate(201.445 -382.751)"><path d="M0 465.26v21.09h4.35v-21.09H0Z" class="st1"/></g><g id="shape65-118" transform="translate(213.453 -382.751)"><path d="M0 465.26v21.09h4.35v-21.09H0Z" class="st1"/></g><g id="shape66-120" transform="translate(225.047 -382.751)"><path d="M0 465.26v21.09h4.35v-21.09H0Z" class="st1"/></g><g id="shape67-122" transform="translate(248.856 -382.751)"><path d="M0 465.26v21.09h4.35v-21.09H0Z" class="st1"/></g><g id="shape68-124" transform="translate(260.864 -382.751)"><path d="M0 465.26v21.09h4.35v-21.09H0Z" class="st1"/></g><g id="shape69-126" transform="translate(272.665 -382.751)"><path d="M0 465.26v21.09h4.35v-21.09H0Z" class="st1"/></g><g id="shape70-128" transform="translate(284.466 -382.751)"><path d="M0 465.26v21.09h4.35v-21.09H0Z" class="st1"/></g><g id="shape71-130" transform="translate(296.474 -382.751)"><path d="M0 465.26v21.09h4.35v-21.09H0Z" class="st1"/></g><g id="shape72-132" transform="translate(41.2 -48.593)"><path d="M0 171.01v315.34h224.43V171.01H0Z" class="st1"/></g><g id="shape73-134" transform="translate(265.626 -80.231)"><path d="m0 202.65 32.5 283.7H0v-283.7Z" class="st2"/></g><g id="shape74-136" transform="translate(265.626 -48.593)"><path d="M0 454.71v31.64l13.87-20.68 18.63-10.96H0Z" class="st3"/></g><g id="shape75-138" transform="translate(41.2 -334.985)"><path d="M0 457.4v28.95h224.43V457.4H0Z" class="st4"/></g><g id="shape76-140" transform="translate(63.767 -338.707)"><path d="M0 465.26v21.09h4.35v-21.09H0Z" class="st1"/></g><g id="shape77-142" transform="translate(75.36 -338.707)"><path d="M0 465.26v21.09h4.35v-21.09H0Z" class="st1"/></g><g id="shape78-144" transform="translate(87.369 -338.707)"><path d="M0 465.26v21.09h4.35v-21.09H0Z" class="st1"/></g><g id="shape79-146" transform="translate(99.17 -338.707)"><path d="M0 465.26v21.09h4.35v-21.09H0Z" class="st1"/></g><g id="shape80-148" transform="translate(111.178 -338.707)"><path d="M0 465.26v21.09h4.35v-21.09H0Z" class="st1"/></g><g id="shape81-150" transform="translate(122.772 -338.707)"><path d="M0 465.26v21.09h4.55v-21.09H0Z" class="st1"/></g><g id="shape82-152" transform="translate(134.78 -338.707)"><path d="M0 465.26v21.09h4.35v-21.09H0Z" class="st1"/></g><g id="shape83-154" transform="translate(146.788 -338.707)"><path d="M0 465.26v21.09h4.35v-21.09H0Z" class="st1"/></g><g id="shape84-156" transform="translate(51.759 -338.707)"><path d="M0 465.26v21.09h4.35v-21.09H0Z" class="st1"/></g><g id="shape85-158" transform="translate(158.382 -338.707)"><path d="M0 465.26v21.09h4.35v-21.09H0Z" class="st1"/></g><g id="shape86-160" transform="translate(170.39 -338.707)"><path d="M0 465.26v21.09h4.35v-21.09H0Z" class="st1"/></g><g id="shape87-162" transform="translate(182.398 -338.707)"><path d="M0 465.26v21.09h4.35v-21.09H0Z" class="st1"/></g><g id="shape88-164" transform="translate(194.199 -338.707)"><path d="M0 465.26v21.09h4.35v-21.09H0Z" class="st1"/></g><g id="shape89-166" transform="translate(206 -338.707)"><path d="M0 465.26v21.09h4.35v-21.09H0Z" class="st1"/></g><g id="shape90-168" transform="translate(217.801 -338.707)"><path d="M0 465.26v21.09h4.35v-21.09H0Z" class="st1"/></g><g id="shape91-170" transform="translate(229.809 -338.707)"><path d="M0 465.26v21.09h4.35v-21.09H0Z" class="st1"/></g><g id="shape92-172" transform="translate(241.817 -338.707)"><path d="M0 465.26v21.09h4.35v-21.09H0Z" class="st1"/></g><g id="shape93-174" transform="translate(253.411 -338.707)"><path d="M0 465.26v21.09h4.35v-21.09H0Z" class="st1"/></g><g id="shape94-176"><path d="M0 171.01v315.34h224.43V171.01H0Z" class="st1"/></g><g id="shape95-178" transform="translate(224.633 -31.637)"><path d="m0 202.65 32.5 283.7H0v-283.7Z" class="st2"/></g><g id="shape96-180" transform="translate(224.633)"><path d="M0 454.71v31.64l14.08-20.68 18.42-10.96H0Z" class="st3"/></g><g id="shape97-182" transform="translate(0 -286.391)"><path d="M0 457.4v28.95h224.43V457.4H0Z" class="st4"/></g><g id="shape98-184" transform="translate(22.567 -290.114)"><path d="M0 465.26v21.09h4.35v-21.09H0Z" class="st1"/></g><g id="shape99-186" transform="translate(34.368 -290.114)"><path d="M0 465.26v21.09h4.35v-21.09H0Z" class="st1"/></g><g id="shape100-188" transform="translate(46.376 -290.114)"><path d="M0 465.26v21.09h4.35v-21.09H0Z" class="st1"/></g><g id="shape101-190" transform="translate(57.97 -290.114)"><path d="M0 465.26v21.09h4.35v-21.09H0Z" class="st1"/></g><g id="shape102-192" transform="translate(69.978 -290.114)"><path d="M0 465.26v21.09h4.35v-21.09H0Z" class="st1"/></g><g id="shape103-194" transform="translate(81.986 -290.114)"><path d="M0 465.26v21.09h4.35v-21.09H0Z" class="st1"/></g><g id="shape104-196" transform="translate(93.58 -290.114)"><path d="M0 465.26v21.09h4.35v-21.09H0Z" class="st1"/></g><g id="shape105-198" transform="translate(105.588 -290.114)"><path d="M0 465.26v21.09h4.35v-21.09H0Z" class="st1"/></g><g id="shape106-200" transform="translate(10.559 -290.114)"><path d="M0 465.26v21.09h4.35v-21.09H0Z" class="st1"/></g><g id="shape107-202" transform="translate(117.389 -290.114)"><path d="M0 465.26v21.09h4.35v-21.09H0Z" class="st1"/></g><g id="shape108-204" transform="translate(129.397 -290.114)"><path d="M0 465.26v21.09h4.35v-21.09H0Z" class="st1"/></g><g id="shape109-206" transform="translate(141.198 -290.114)"><path d="M0 465.26v21.09h4.35v-21.09H0Z" class="st1"/></g><g id="shape110-208" transform="translate(152.999 -290.114)"><path d="M0 465.26v21.09h4.35v-21.09H0Z" class="st1"/></g><g id="shape111-210" transform="translate(165.007 -290.114)"><path d="M0 465.26v21.09h4.35v-21.09H0Z" class="st1"/></g><g id="shape112-212" transform="translate(176.808 -290.114)"><path d="M0 465.26v21.09h4.55v-21.09H0Z" class="st1"/></g><g id="shape113-214" transform="translate(188.609 -290.114)"><path d="M0 465.26v21.09h4.35v-21.09H0Z" class="st1"/></g><g id="shape114-216" transform="translate(200.617 -290.114)"><path d="M0 465.26v21.09h4.35v-21.09H0Z" class="st1"/></g><g id="shape115-218" transform="translate(212.418 -290.114)"><path d="M0 465.26v21.09h4.35v-21.09H0Z" class="st1"/></g><g id="shape116-220" transform="translate(183.019 -10.753)"><path d="M0 459.88v26.47h26.5v-26.47H0Z" class="st5"/></g><g id="shape117-222" transform="translate(15.32 -30.397)"><path d="M0 481.18v5.17h48.86v-5.17H0Z" class="st5"/></g><g id="shape118-224" transform="translate(15.32 -21.505)"><path d="M0 481.18v5.17h85.92v-5.17H0Z" class="st5"/></g><g id="shape119-226" transform="translate(15.32 -12.82)"><path d="M0 481.18v5.17h61.7v-5.17H0Z" class="st5"/></g><g id="shape120-228" transform="translate(38.094 -57.899)"><path d="M148.44 411.91c0 41.15-33.12 74.44-74.32 74.44C33.13 486.35 0 453.06 0 411.91c0-40.95 33.13-74.24 74.12-74.24 41.2 0 74.32 33.29 74.32 74.24Z" class="st6"/></g><g id="shape121-230" transform="translate(46.169 -203.802)"><path d="M164.06 414.88H0v71.47h164.06v-71.47" class="st7"/><text x="19.29" y="468.48" class="st8">RICE</text></g><g id="shape122-234" transform="translate(58.937 -154.297)"><path d="M18.49 474.6c9.32 3.72 16.15 8.69 15.32 10.75-1.03 2.07-9.1.83-18.42-2.89-9.32-3.72-16.15-8.48-15.32-10.75.83-2.07 9.11-.83 18.42 2.89Z" class="st9"/></g><g id="shape123-236" transform="translate(71.315 -122.987)"><path d="M16.67 470.79c7.46 6.62 12.43 13.44 10.77 15.1-1.45 1.86-8.69-2.07-16.36-8.89-7.45-6.62-12.42-13.24-10.76-15.1 1.45-1.65 8.9 2.28 16.35 8.89Z" class="st9"/></g><g id="shape124-238" transform="translate(49.258 -147.771)"><path d="M18.65 476.76c9.94 2.07 17.39 5.58 16.98 7.86-.62 2.27-8.91 2.27-18.64.2-9.93-2.06-17.39-5.58-16.97-7.85.62-2.28 8.9-2.28 18.63-.21Z" class="st10"/></g><g id="shape125-240" transform="translate(59.421 -117.413)"><path d="M13.45 468.53c5.18 8.68 7.67 16.75 5.59 17.78-2.07 1.24-7.66-4.76-12.83-13.44-4.97-8.69-7.45-16.54-5.59-17.78 2.07-1.24 7.87 4.75 12.83 13.44Z" class="st9"/></g><g id="shape126-242" transform="translate(96.415 -150.769)"><path d="M18.49 475.83c9.73 2.89 16.98 6.82 16.35 9.1-.62 2.27-8.9 1.86-18.63-1.04-9.52-2.69-16.98-6.82-16.15-9.1.62-2.27 8.91-1.65 18.43 1.04Z" class="st9"/></g><g id="shape127-244" transform="translate(126.026 -141.438)"><path d="M12.48 468.15c4.14 9.1 5.8 17.16 3.73 18.2-2.07 1.03-7.25-5.58-11.39-14.68-4.35-9.1-6-17.37-3.93-18.2 2.07-1.03 7.24 5.58 11.59 14.68Z" class="st9"/></g><g id="shape128-246" transform="translate(147.509 -158.134)"><path d="M18.33 474.3c9.31 3.93 15.94 8.89 14.9 11.17-.83 2.07-9.11.41-18.22-3.52-9.31-4.13-15.94-9.1-14.9-11.16.82-2.28 9.11-.62 18.22 3.51Z" class="st9"/></g><g id="shape129-248" transform="translate(167.889 -88.502)"><path d="M8.3 468.36c.2 9.92-1.66 17.99-3.94 17.99-2.27.21-4.34-7.86-4.34-17.99-.21-10.13 1.65-18.2 3.93-18.2 2.28 0 4.35 8.07 4.35 18.2Z" class="st9"/></g><g id="shape130-250" transform="translate(70.897 -87.424)"><path d="M17.92 473.07c8.7 4.96 14.91 10.55 13.67 12.61-1.04 2.07-9.11-.41-17.81-5.37S-.92 469.56.12 467.69c1.24-2.06 9.11.42 17.8 5.38Z" class="st9"/></g><g id="shape131-252" transform="translate(113.909 -120.526)"><path d="M13.21 472.67c8.49-5.37 16.36-8.06 17.6-6.2 1.24 2.07-4.56 7.86-13.04 13.23-8.7 5.38-16.57 8.07-17.6 6-1.24-1.86 4.55-7.86 13.04-13.03Z" class="st10"/></g><g id="shape132-254" transform="translate(147.392 -127.093)"><path d="M18.65 476.76c9.94 2.07 17.39 5.58 16.98 7.86-.62 2.27-8.91 2.27-18.64.2-9.93-2.06-17.39-5.58-16.97-7.85.62-2.28 8.9-2.28 18.63-.21Z" class="st10"/></g><g id="shape133-256" transform="translate(94.282 -161.082)"><path d="M10.89 470.22c-3.1 9.51-7.24 16.75-9.52 16.13-2.28-.83-1.66-9.1 1.45-18.61 2.9-9.72 7.24-16.75 9.31-16.13 2.28.62 1.66 8.89-1.24 18.61Z" class="st10"/></g><g id="shape134-258" transform="translate(127.832 -68.607)"><path d="M17.92 480.31c-8.69 4.96-16.56 7.44-17.8 5.37-1.04-2.06 4.96-7.65 13.66-12.61 8.7-4.96 16.77-7.44 17.81-5.38 1.24 2.07-4.77 7.66-13.67 12.62Z" class="st10"/></g><g id="shape135-260" transform="translate(102.142 -78.854)"><path d="M16.28 470.29c7.25 7.03 11.8 13.85 10.15 15.72-1.66 1.65-8.7-2.69-15.95-9.72-7.24-6.83-11.8-13.86-10.14-15.51 1.45-1.66 8.7 2.48 15.94 9.51Z" class="st10"/></g><g id="shape136-262" transform="translate(58.115 -73.478)"><path d="M16.42 470.29c7.24 7.03 11.8 14.06 10.14 15.72-1.65 1.65-8.69-2.69-15.94-9.72-7.25-6.83-11.8-13.86-10.35-15.51 1.65-1.66 8.9 2.69 16.15 9.51Z" class="st10"/></g><g id="shape137-264" transform="translate(41.48 -103.874)"><path d="M16.28 470.29c7.25 7.03 11.8 14.06 10.15 15.71-1.45 1.66-8.7-2.68-15.95-9.51-7.24-7.03-11.8-14.06-10.14-15.71 1.66-1.66 8.7 2.69 15.94 9.51Z" class="st10"/></g><g id="shape138-266" transform="translate(441.191 -139.37)"><path d="M0 171.01v315.34h224.43V171.01H0Z" class="st11"/></g><g id="shape139-268" transform="translate(441.191 -454.711)"><path d="M32.09 458.85h224.63l-32.29 27.5H0l32.09-27.5Z" class="st12"/></g><g id="shape140-270" transform="translate(665.824 -139.37)"><path d="m0 171.01 32.3-27.5v313.06L0 486.35V171.01Z" class="st12"/></g><g id="shape141-272" transform="translate(396.472 -95.946)"><path d="M0 171.01v315.34h224.43V171.01H0Z" class="st11"/></g><g id="shape142-274" transform="translate(396.472 -411.287)"><path d="M32.3 458.85h224.63l-32.3 27.5H0l32.3-27.5Z" class="st12"/></g><g id="shape143-276" transform="translate(621.104 -95.946)"><path d="m0 171.01 32.3-27.5v313.06L0 486.35V171.01Z" class="st12"/></g><g id="shape144-278" transform="translate(342.229 -49.834)"><path d="M0 171.01v315.34h224.43V171.01H0Z" class="st11"/></g><g id="shape145-280" transform="translate(342.229 -365.175)"><path d="M32.3 458.85h224.63l-32.3 27.5H0l32.3-27.5Z" class="st12"/></g><g id="shape146-282" transform="translate(566.861 -49.834)"><path d="m0 171.01 32.09-27.5v313.06L0 486.35V171.01Z" class="st12"/></g><g id="shape147-284" transform="translate(292.747 -4.342)"><path d="M0 171.01v315.34h224.63V171.01H0Z" class="st11"/></g><g id="shape148-286" transform="translate(292.747 -319.683)"><path d="M32.3 458.85h224.42l-32.09 27.5H0l32.3-27.5Z" class="st12"/></g><g id="shape149-288" transform="translate(517.173 -4.342)"><path d="m0 171.01 32.3-27.5v313.06L0 486.35V171.01Z" class="st12"/></g><g id="shape150-290" transform="translate(391.917 -11.58)"><path d="M0 459.88v26.47h26.5v-26.47H0Z" class="st13"/></g><g id="shape151-292" transform="translate(330.842 -58.726)"><path d="M0 337.88v148.47h148.65V337.88H0Z" class="st6"/></g><g id="shape152-294" transform="translate(380.53 -236.144)"><path d="M0 481.18v5.17h48.86v-5.17H0Z" class="st13"/></g><g id="shape153-296" transform="translate(362.104 -227.459)"><path d="M0 481.18v5.17h86.13v-5.17H0Z" class="st13"/></g><g id="shape154-298" transform="translate(374.319 -218.567)"><path d="M0 481.18v5.17h61.7v-5.17H0Z" class="st13"/></g><g id="shape155-300" transform="translate(340.986 -236.887)"><path d="M161.25 414.88H0v71.47h161.25v-71.47" class="st7"/><text x="17.89" y="468.48" class="st8">RICE</text></g><g id="shape156-304" transform="translate(388.96 -163.357)"><path d="M12.27 468.15c4.35 9.1 6.01 17.16 3.94 18.2-2.07 1.03-7.25-5.58-11.39-14.68-4.35-9.1-6-17.17-3.93-18.2 2.07-1.03 7.24 5.58 11.38 14.68Z" class="st9"/></g><g id="shape157-306" transform="translate(381.577 -135.648)"><path d="M8.68 467.95c1.04 9.92 0 18.19-2.27 18.4-2.28.21-4.97-7.65-6.01-17.58-1.03-9.92 0-18.19 2.28-18.4 2.28-.21 4.97 7.65 6 17.58Z" class="st9"/></g><g id="shape158-308" transform="translate(373.986 -164.113)"><path d="M14.41 468.91c5.8 8.27 9.11 15.92 7.04 17.37-1.86 1.24-8.07-4.34-13.87-12.62-5.8-8.06-8.9-15.71-7.04-17.16 2.07-1.24 8.28 4.14 13.87 12.41Z" class="st10"/></g><g id="shape159-310" transform="translate(367.201 -145.16)"><path d="M9.81 469.6c-2.07 9.72-5.8 17.37-8.08 16.75-2.27-.42-2.27-8.89-.2-18.61 2.28-9.72 5.79-17.37 8.07-16.75 2.28.41 2.49 8.68.21 18.61Z" class="st9"/></g><g id="shape160-312" transform="translate(412.004 -134.576)"><path d="M13.66 468.73c5.18 8.48 7.66 16.34 5.8 17.58-2.07 1.24-7.87-4.76-13.05-13.44-5.17-8.48-7.66-16.34-5.79-17.58 2.07-1.24 7.86 4.76 13.04 13.44Z" class="st9"/></g><g id="shape161-314" transform="translate(430.785 -119.313)"><path d="M10.82 470.43c-3.11 9.72-7.45 16.75-9.52 15.92-2.28-.62-1.45-8.89 1.65-18.4 3.11-9.52 7.25-16.75 9.53-15.93 2.27.62 1.45 8.89-1.66 18.41Z" class="st9"/></g><g id="shape162-316" transform="translate(457.093 -106.079)"><path d="M12.05 468.15c3.93 9.1 5.38 17.37 3.31 18.2-2.28 1.03-7.04-5.79-10.97-14.89-4.14-9.3-5.59-17.58-3.31-18.4 2.07-1.04 7.03 5.79 10.97 15.09Z" class="st9"/></g><g id="shape163-318" transform="translate(417.626 -59.95)"><path d="M15.7 475.58C8.87 482.82 2.03 487.57.38 486.12c-1.66-1.65 2.27-8.89 9.11-16.33 6.83-7.45 13.66-12.2 15.32-10.55 1.65 1.66-2.28 8.89-9.11 16.34Z" class="st9"/></g><g id="shape164-320" transform="translate(354.525 -107.319)"><path d="M10.68 467.74c3.11 9.51 3.73 17.78 1.45 18.61-2.27.62-6.41-6.62-9.31-16.13-3.11-9.51-3.73-17.99-1.45-18.61 2.28-.62 6.42 6.62 9.31 16.13Z" class="st9"/></g><g id="shape165-322" transform="translate(397.491 -114.893)"><path d="M18.65 476.97c9.94 1.86 17.6 5.17 16.98 7.44-.42 2.27-8.7 2.69-18.43.62-9.94-1.86-17.6-5.17-17.18-7.44.41-2.28 8.9-2.69 18.63-.62Z" class="st10"/></g><g id="shape166-324" transform="translate(431.956 -82.227)"><path d="M14.41 468.91c5.8 8.27 8.9 15.92 7.04 17.37-1.86 1.24-8.07-4.35-13.87-12.41-5.8-8.27-8.9-15.92-7.04-17.37 1.86-1.24 8.07 4.14 13.87 12.41Z" class="st10"/></g><g id="shape167-326" transform="translate(411.469 -164.746)"><path d="M17.92 480.29c-8.69 5.17-16.56 7.45-17.8 5.38-1.04-1.86 4.96-7.65 13.66-12.61 8.7-4.97 16.77-7.45 17.81-5.38 1.24 2.07-4.77 7.65-13.67 12.61Z" class="st10"/></g><g id="shape168-328" transform="translate(372.419 -66.118)"><path d="M16.81 484.64c-9.94-2.27-17.39-5.99-16.77-8.27.41-2.27 8.9-2.27 18.63 0 9.73 2.28 17.18 6 16.77 8.27-.62 2.28-8.9 2.28-18.63 0Z" class="st10"/></g><g id="shape169-330" transform="translate(374.382 -83.126)"><path d="M8.43 468.15c.62 9.93-.83 18.2-3.11 18.2-2.28.21-4.55-7.86-5.18-17.78-.62-10.14.83-18.2 3.11-18.41 2.28-.2 4.76 7.86 5.18 17.99Z" class="st10"/></g><g id="shape170-332" transform="translate(338.358 -108.974)"><path d="M8.43 467.95c.62 10.13-.83 18.4-3.11 18.4-2.28.21-4.55-7.86-5.18-17.78-.62-10.14.83-18.2 3.11-18.41 2.28-.2 4.76 7.86 5.18 17.79Z" class="st10"/></g><g id="shape171-334" transform="translate(347.119 -142.472)"><path d="M8.57 467.95c.41 10.13-.83 18.19-3.32 18.4-2.27.21-4.55-7.86-5.17-17.78-.42-10.14.83-18.41 3.31-18.41 2.28-.2 4.56 7.86 5.18 17.79Z" class="st10"/></g></g></svg>