<svg xmlns="http://www.w3.org/2000/svg" width="100%" height="100%" viewBox="0 0 425 401" xml:space="preserve" color-interpolation-filters="sRGB" style="fill:none;fill-rule:evenodd;font-size:12px;overflow:visible;stroke-linecap:square;stroke-miterlimit:3"><style>.st2{fill:#fff;stroke:none;stroke-linecap:butt;stroke-width:2.25279}.st3{fill:none}.st4,.st5{stroke:#fff;stroke-linecap:butt;stroke-width:5.63197}.st5{fill:none;stroke:none;stroke-width:.75}.st6{fill:#fff;font-family:Roboto;font-size:2.25279em}</style><g id="shape1-1" transform="translate(2.253 -2.253)"><path style="fill:#848693;stroke:none;stroke-linecap:butt;stroke-width:2.25279" d="M0 4.506h420.75v396H0z"/></g><g id="shape10-3" transform="translate(110.487 -201.009)"><path d="M16.09 392.46a8.044 8.044 0 0 1-8.05 8.05A8.044 8.044 0 0 1 0 392.46a8.044 8.044 0 0 1 8.04-8.04 8.044 8.044 0 0 1 8.05 8.04Z" class="st2"/></g><g id="shape11-5" transform="translate(168.789 -305.336)"><path d="M16.09 392.46a8.044 8.044 0 0 1-8.05 8.05A8.044 8.044 0 0 1 0 392.46a8.044 8.044 0 0 1 8.04-8.04 8.044 8.044 0 0 1 8.05 8.04Z" class="st2"/></g><g id="shape12-7" transform="translate(168.789 -201.009)"><path d="M16.09 392.46a8.044 8.044 0 0 1-8.05 8.05A8.044 8.044 0 0 1 0 392.46a8.044 8.044 0 0 1 8.04-8.04 8.044 8.044 0 0 1 8.05 8.04Z" class="st2"/></g><g id="shape13-9" transform="translate(168.789 -94.046)"><path d="M16.09 392.46a8.044 8.044 0 0 1-8.05 8.05A8.044 8.044 0 0 1 0 392.46a8.044 8.044 0 0 1 8.04-8.04 8.044 8.044 0 0 1 8.05 8.04Z" class="st2"/></g><g id="shape14-11" transform="translate(147.482 -101.401)"><path d="M22.12 188.19H0v212.32h24.47l-2.35-212.32Z" class="st3"/><path d="M22.12 188.19H0v212.32h24.47" class="st4"/></g><g id="shape15-14" transform="translate(117.135 -209.3)"><path d="M0 400.51h60.43H0Z" class="st3"/><path d="M0 400.51h60.43" class="st4"/></g><g id="shape16-17" transform="translate(110.487 -201.009)"><path d="M16.09 392.46a8.044 8.044 0 0 1-8.05 8.05A8.044 8.044 0 0 1 0 392.46a8.044 8.044 0 0 1 8.04-8.04 8.044 8.044 0 0 1 8.05 8.04Z" class="st2"/></g><g id="shape17-19" transform="translate(34.953 -190.724)"><path class="st5" d="M0 368.065h108.184v32.44H0z"/><text y="392.4" class="st6">rice</text></g><g id="shape18-22" transform="translate(193.479 -296.631)"><path class="st5" d="M0 368.065h157.524v32.44H0z"/><text y="392.4" class="st6">rice (crop)</text></g><g id="shape19-25" transform="translate(193.479 -190.461)"><path class="st5" d="M0 368.065h168.774v32.44H0z"/><text y="392.4" class="st6">rice (plant)</text></g><g id="shape20-28" transform="translate(193.479 -81.447)"><path class="st5" d="M0 368.065h168.774v32.44H0z"/><text y="392.4" class="st6">rice (food)</text></g></svg>