<svg xmlns="http://www.w3.org/2000/svg" width="100%" height="100%" viewBox="0 0 502 368" xml:space="preserve" color-interpolation-filters="sRGB" style="fill:none;fill-rule:evenodd;font-size:12px;overflow:visible;stroke-linecap:square;stroke-miterlimit:3"><style>.st1{fill:#fff;stroke:none;stroke-linecap:butt;stroke-width:2.25279}.st3{fill:none}.st4{stroke:#a4a4a4;stroke-linecap:butt;stroke-width:4.50558}.st10,.st5,.st6,.st7,.st8,.st9{fill:#c51431;stroke:none;stroke-linecap:butt;stroke-width:2.25279}.st10,.st6,.st7,.st8,.st9{fill:#4151a6}.st10,.st7,.st8,.st9{fill:#f5e43c}.st10,.st8,.st9{fill:#8abc43}.st10,.st9{fill:#b9b9b9}.st10{fill:none;stroke-width:.75}.st11{fill:#b9b9b9;font-family:Roboto;font-size:3.4845em}</style><g id="group56-1" transform="translate(4.506 -4.506)"><g id="shape4-2" transform="translate(0 -269.744)"><path class="st1" d="M0 278.756h98.145v89.17H0z"/></g><g id="shape5-4" transform="translate(.36 -.63)"><path style="fill:#dedede;stroke:none;stroke-linecap:butt;stroke-width:2.25279" d="M0 9.191h491.221v358.734H0z"/></g><g id="shape6-6" transform="translate(98.672 -.761)"><path class="st1" d="M0 278.756h98.145v89.17H0z"/></g><g id="shape7-8" transform="translate(197.344 -.761)"><path d="M0 278.76h98.15v89.17H0v-89.17Z" class="st1"/></g><g id="shape8-10" transform="translate(296.039 -.761)"><path class="st1" d="M0 278.756h98.147v89.17H0z"/></g><g id="shape9-12" transform="translate(394.711 -.761)"><path class="st1" d="M0 278.756h98.147v89.17H0z"/></g><g id="shape10-14" transform="translate(98.672 -180.083)"><path class="st1" d="M0 278.756h98.145v89.17H0z"/></g><g id="shape11-16" transform="translate(197.344 -180.083)"><path d="M0 278.76h98.15v89.17H0v-89.17Z" class="st1"/></g><g id="shape12-18" transform="translate(296.039 -180.083)"><path class="st1" d="M0 278.756h98.147v89.17H0z"/></g><g id="shape13-20" transform="translate(394.711 -180.083)"><path class="st1" d="M0 278.756h98.147v89.17H0z"/></g><g id="shape14-22" transform="translate(98.672 -90.422)"><path class="st1" d="M0 278.756h98.145v89.17H0z"/></g><g id="shape15-24" transform="translate(197.344 -90.422)"><path d="M0 278.76h98.15v89.17H0v-89.17Z" class="st1"/></g><g id="shape16-26" transform="translate(296.039 -90.422)"><path class="st1" d="M0 278.756h98.147v89.17H0z"/></g><g id="shape17-28" transform="translate(394.711 -90.422)"><path class="st1" d="M0 278.756h98.147v89.17H0z"/></g><g id="shape18-30" transform="translate(98.807 -.676)"><path d="M0 9.69v358.24V9.69Z" class="st3"/><path d="M0 9.69v358.24" class="st4"/></g><g id="shape19-33" transform="translate(197.322 -.676)"><path d="M0 9.69v358.24V9.69Z" class="st3"/><path d="M0 9.69v358.24" class="st4"/></g><g id="shape20-36" transform="translate(295.836 -.676)"><path d="M0 9.69v358.24V9.69Z" class="st3"/><path d="M0 9.69v358.24" class="st4"/></g><g id="shape21-39" transform="translate(394.351)"><path d="M0 9.69v358.24V9.69Z" class="st3"/><path d="M0 9.69v358.24" class="st4"/></g><g id="shape22-42" transform="translate(0 -90.832)"><path d="M492.87 367.93H0h492.87Z" class="st3"/><path d="M492.87 367.93H0" class="st4"/></g><g id="shape23-45" transform="translate(0 -269.479)"><path d="M492.87 367.93H0h492.87Z" class="st3"/><path d="M492.87 367.93H0" class="st4"/></g><g id="shape24-48" transform="translate(0 -180.268)"><path d="M492.87 367.93H0h492.87Z" class="st3"/><path d="M492.87 367.93H0" class="st4"/></g><g id="shape25-51" transform="translate(116.379 -323.945)"><path class="st5" d="M0 353.682h65.187v14.244H0z"/></g><g id="shape26-53" transform="translate(116.379 -304.571)"><path class="st5" d="M0 353.682h32.51v14.244H0z"/></g><g id="shape27-55" transform="translate(116.379 -284.971)"><path class="st5" d="M0 353.682h46.419v14.244H0z"/></g><g id="shape28-57" transform="translate(215.997 -323.945)"><path class="st6" d="M0 353.682h48.124v14.244H0z"/></g><g id="shape29-59" transform="translate(215.997 -304.571)"><path class="st6" d="M0 353.682h63.317v14.244H0z"/></g><g id="shape30-61" transform="translate(215.997 -284.971)"><path class="st6" d="M0 353.682h42.627v14.244H0z"/></g><g id="shape31-63" transform="translate(315.616 -323.945)"><path class="st7" d="M0 353.682h40.066v14.244H0z"/></g><g id="shape32-65" transform="translate(315.616 -304.571)"><path class="st7" d="M0 353.682h64.502v14.244H0z"/></g><g id="shape33-67" transform="translate(415.211 -323.945)"><path class="st8" d="M0 353.682h65.187v14.244H0z"/></g><g id="shape34-69" transform="translate(415.211 -304.571)"><path class="st8" d="M0 353.682h32.51v14.244H0z"/></g><g id="shape35-71" transform="translate(415.211 -284.971)"><path d="M0 353.68h46.42v14.25H0v-14.25Z" class="st8"/></g><g id="shape36-73" transform="translate(16.828 -238.564)"><path d="M0 353.68h65.19v14.25H0v-14.25Z" class="st9"/></g><g id="shape37-75" transform="translate(16.828 -219.19)"><path d="M0 353.68h32.51v14.25H0v-14.25Z" class="st9"/></g><g id="shape38-77" transform="translate(16.828 -199.816)"><path class="st9" d="M0 353.682h46.419v14.244H0z"/></g><g id="shape39-79" transform="translate(16.828 -147.101)"><path d="M0 353.68h63.19v14.25H0v-14.25Z" class="st9"/></g><g id="shape40-81" transform="translate(16.828 -127.727)"><path class="st9" d="M0 353.682h31.323v14.244H0z"/></g><g id="shape41-83" transform="translate(16.828 -55.412)"><path d="M0 353.68h45.92v14.25H0v-14.25Z" class="st9"/></g><g id="shape42-85" transform="translate(16.828 -36.038)"><path class="st9" d="M0 353.682h31.001v14.244H0z"/></g><g id="shape43-87" transform="translate(16.828 -16.439)"><path class="st9" d="M0 353.681h45.245v14.244H0z"/></g><g id="shape44-89" transform="translate(117.461 -195.975)"><path class="st10" d="M0 317.749h125.492v50.177H0z"/><text y="355.38" class="st11">0.2</text></g><g id="shape45-92" transform="translate(117.87 -108.165)"><path class="st10" d="M0 317.749h125.492v50.177H0z"/><text y="355.38" class="st11">4.2</text></g><g id="shape46-95" transform="translate(135.735 -15.664)"><path class="st10" d="M0 317.749h41.864v50.177H0z"/><text y="355.38" class="st11">0</text></g><g id="shape47-98" transform="translate(234.66 -195.975)"><path class="st10" d="M0 317.749h41.864v50.177H0z"/><text y="355.38" class="st11">7</text></g><g id="shape48-101" transform="translate(215.917 -108.165)"><path class="st10" d="M0 317.749h125.492v50.177H0z"/><text y="355.38" class="st11">0.4</text></g><g id="shape49-104" transform="translate(207.158 -15.664)"><path class="st10" d="M0 317.749h167.306v50.177H0z"/><text y="355.38" class="st11">0.11</text></g><g id="shape50-107" transform="translate(333.094 -195.975)"><path class="st10" d="M0 317.749h41.864v50.177H0z"/><text y="355.38" class="st11">0</text></g><g id="shape51-110" transform="translate(314.759 -108.165)"><path class="st10" d="M0 317.749h125.492v50.177H0z"/><text y="355.38" class="st11">0.6</text></g><g id="shape52-113" transform="translate(333.166 -15.664)"><path class="st10" d="M0 317.749h41.864v50.177H0z"/><text y="355.38" class="st11">2</text></g><g id="shape53-116" transform="translate(416.522 -195.975)"><path class="st10" d="M0 317.749h76.228v50.177H0z"/><text y="355.38" class="st11">0.1</text></g><g id="shape54-119" transform="translate(413.99 -108.165)"><path class="st10" d="M0 317.749h72.01v50.177H0z"/><text y="355.38" class="st11">4.7</text></g><g id="shape55-122" transform="translate(413.755 -15.664)"><path class="st10" d="M0 317.749h78.995v50.177H0z"/><text y="355.38" class="st11">2.2</text></g></g></svg>