<?xml version="1.0" encoding="UTF-8" standalone="no"?>
<!DOCTYPE svg PUBLIC "-//W3C//DTD SVG 1.1//EN" "http://www.w3.org/Graphics/SVG/1.1/DTD/svg11.dtd">
<!-- Generated by Microsoft Visio, SVG Export sociologist.svg Page-1 -->
<svg xmlns="http://www.w3.org/2000/svg" xmlns:xlink="http://www.w3.org/1999/xlink" xmlns:ev="http://www.w3.org/2001/xml-events"
		xmlns:v="http://schemas.microsoft.com/visio/2003/SVGExtensions/" width="16.6048in" height="8.84713in"
		viewBox="0 0 1195.54 636.993" xml:space="preserve" color-interpolation-filters="sRGB" class="st3">
	<v:documentProperties v:langID="1033" v:viewMarkup="false"/>

	<style type="text/css">
	<![CDATA[
		.st1 {fill:#f3f4a8;stroke:none;stroke-linecap:butt;stroke-width:0.895561}
		.st2 {fill:#c41622;stroke:none;stroke-linecap:butt;stroke-width:2.25264}
		.st3 {fill:none;fill-rule:evenodd;font-size:12px;overflow:visible;stroke-linecap:square;stroke-miterlimit:3}
	]]>
	</style>

	<g v:mID="0" v:index="1" v:groupContext="foregroundPage">
		<title>Page-1</title>
		<v:pageProperties v:drawingScale="1" v:pageScale="1" v:drawingUnits="19" v:shadowOffsetX="9" v:shadowOffsetY="-9"/>
		<g id="shape3-1" v:mID="3" v:groupContext="shape" transform="translate(-1.27898E-13,-0.725442)">
			<title>path384</title>
			<path d="M425.49 1.62 L420.33 2.26 C417.48 2.62 408.68 3.32 400.76 3.82 C385.49 4.78 362.24 6.93 361.74 7.43 C361.05
						 8.12 377.46 9.1 379.83 8.5 C383.25 7.65 384.42 9.69 381.43 11.29 C379.87 12.12 376.04 12.34 369.96 11.95
						 C360.13 11.31 357.09 12.02 359.85 14.32 C362.44 16.47 360.6 17.74 355.84 17.08 C352.2 16.58 351.89 16.66
						 354.01 17.57 C358.49 19.48 354.86 21.25 346.6 21.18 C339.99 21.13 339.46 21.27 341.63 22.51 C343.2 23.4
						 346.1 23.71 349.87 23.36 C353.9 22.99 356.5 23.3 358.33 24.38 C359.78 25.23 360.97 25.94 360.97 25.95 C360.97
						 25.97 363.78 24.56 367.2 22.82 C370.63 21.08 374.09 19.66 374.89 19.66 C375.69 19.66 379.03 18.23 382.3
						 16.48 C385.57 14.74 389.31 13.31 390.61 13.31 C395.95 13.31 408.96 9.56 416.96 5.72 L425.49 1.62 ZM519.63
						 2.16 C517.32 2.16 515.3 2.33 513.86 2.72 C511.38 3.39 506.97 3.63 503.93 3.26 C500.35 2.83 493.73 3.4 484.72
						 4.92 C475.05 6.55 467.52 7.16 459.33 6.96 C433.42 6.35 432.59 6.45 421.73 11.08 C414.71 14.07 409.07 15.66
						 402.77 16.44 C397.84 17.04 393.56 17.54 393.25 17.54 C392.95 17.54 392.63 18.72 392.54 20.15 C392.35 23.61
						 394.59 24.27 406.63 24.35 C415.47 24.41 416.58 24.65 419.16 27.06 C422.67 30.34 426.19 37.02 425.44 38.97
						 C425.11 39.83 425.92 40.91 427.41 41.59 C430.36 42.93 431.87 48.36 430.17 51.52 C429.56 52.67 426.79 55
						 424.02 56.71 C418.17 60.3 415.88 64.14 417.64 67.41 C418.48 68.98 418.45 70.38 417.53 72.59 C415.59 77.27
						 418.79 82.88 425.49 86.53 C428.39 88.12 431.49 89.41 432.36 89.4 C435.58 89.38 438.7 86.63 443.87 79.27
						 C450.3 70.11 453.91 67.75 464.59 65.7 C469.7 64.73 474.07 63.18 476.12 61.62 C482.42 56.83 486.71 55.12
						 492.65 55.03 C495.85 54.99 502.63 54.07 507.72 53 C515.42 51.38 516.76 50.81 515.73 49.58 C514.87 48.54
						 513.32 48.29 510.56 48.76 C506.23 49.49 503.44 47.46 507.37 46.43 C509.13 45.97 509.36 45.53 508.42 44.39
						 C506.01 41.49 510.52 41.51 514.72 44.42 C517.81 46.56 519.33 47 521.19 46.32 L523.61 45.42 L520.93 43.38
						 C519.45 42.26 516.7 40.49 514.82 39.46 C510.84 37.26 511.38 36.17 516.53 35.99 C521.17 35.83 530.52 31.51
						 531.25 29.19 C531.56 28.22 533.21 26.09 534.93 24.45 C537.28 22.19 537.81 21.03 537.08 19.66 C535.39 16.5
						 541.77 11.55 548.71 10.64 C551.91 10.22 555.48 9.18 556.64 8.32 C558.55 6.92 558.07 6.84 551.72 7.47 C545.84
						 8.05 543.99 7.82 540.51 6.04 C536.09 3.79 526.55 2.17 519.63 2.16 L519.63 2.16 ZM345.49 8.43 C342.91 8.47
						 339.59 9.42 336.16 11.2 C332.39 13.15 332.58 13.58 337.7 14.71 C341.91 15.64 343.47 15.39 347.29 13.13 C350.97
						 10.96 351.08 10.75 349.21 9.37 C348.32 8.71 347.04 8.41 345.49 8.43 L345.49 8.43 ZM852.78 10.95 C850.58
						 10.93 848.66 11.48 847.55 12.59 C845.02 15.11 846.74 15.49 867.77 17.13 C875.48 17.73 876.37 18.02 876.03
						 19.79 C875.63 21.89 877.06 22.51 878.17 20.72 C878.98 19.42 888.22 19.3 888.22 20.59 C888.22 21.11 886.55
						 22.8 884.51 24.36 C881.33 26.78 880.14 27.09 876.28 26.51 C872.27 25.91 854.86 28.35 853.5 29.7 C853.24
						 29.97 853.58 30.87 854.28 31.7 C856.04 33.83 854.05 34.86 847.91 35 C844.89 35.07 841.89 35.91 840.11 37.17
						 C832.35 42.71 829.51 43.95 826.08 43.33 C823.79 42.91 822.64 43.12 822.64 43.94 C822.64 46.37 824.86 49.28
						 827.93 50.86 C831.84 52.88 833.47 55.85 832.59 59.34 C831.85 62.32 826.54 65.65 824.06 64.7 C822.75 64.19
						 822.87 63.57 824.75 60.93 C827.3 57.35 827.49 57.87 819.7 47.47 C813.69 39.45 811.81 38.19 807.47 39.28
						 C799.99 41.16 800.51 47.35 808.46 51.21 C811.03 52.46 813.12 53.95 813.12 54.51 C813.12 56.2 809.36 57.78
						 808.18 56.6 C806.41 54.84 776.98 47.98 775.88 49.08 C774.79 50.16 779.8 51.85 781.32 50.91 C782.58 50.13
						 784.88 53.19 784.05 54.54 C783.67 55.15 782.9 55.37 782.33 55.02 C781.77 54.67 777.98 54.95 773.91 55.63
						 C768.16 56.6 766.17 56.6 764.97 55.6 C762.82 53.82 757.06 55.08 749.66 58.96 C744.61 61.61 743.16 61.96
						 741.33 60.98 C740.1 60.33 739.22 59.21 739.36 58.5 C739.5 57.78 738.26 57.05 736.56 56.86 C733.37 56.5 733.4
						 56.34 735.59 61.69 C736.17 63.11 735.66 63.37 728.68 65.16 C725.42 65.99 724.26 66.76 724.68 67.83 C725.55
						 70.12 721.78 71.69 718.46 70.43 C714.29 68.84 712.76 69.24 716.08 71.04 C719.66 72.98 719.69 73.39 716.29
						 74.68 C712.75 76.03 705.89 72.65 703.75 68.51 C702.91 66.89 700.92 64.96 699.34 64.24 C697.2 63.27 696.76
						 62.62 697.64 61.74 C698.52 60.86 700.42 60.88 704.94 61.85 C708.3 62.57 712.85 63.42 715.05 63.74 C719.86
						 64.43 725.44 62.42 724.62 60.3 C723.81 58.19 704.35 52.15 700.7 52.88 C698.66 53.29 696.52 52.71 693.82
						 51.02 C688.43 47.65 681.9 46.33 671.92 46.59 C666.2 46.73 661.74 47.51 658.17 48.98 C655.26 50.18 650.62
						 51.97 647.85 52.95 C645.09 53.94 642.83 55.21 642.83 55.79 C642.83 56.36 640.88 58.59 638.49 60.72 C636.11
						 62.86 633.53 65.81 632.78 67.28 C631.07 70.57 621.05 77.59 616.11 78.96 C611.19 80.32 606.45 84.76 607.4
						 87.13 C607.79 88.13 608.22 90.3 608.35 91.96 C608.61 95.31 612.5 98.93 615.86 98.96 C617.02 98.96 619.63
						 97.98 621.64 96.75 L625.31 94.51 L628.21 97.98 C629.8 99.88 631.39 102.75 631.74 104.34 C632.09 105.93 633.34
						 108.11 634.52 109.17 C636.6 111.06 636.77 111.05 640.54 108.87 C643.21 107.33 644.92 105.28 646.05 102.27
						 C646.95 99.87 648.86 97.11 650.28 96.13 C654.92 92.95 655.57 91.02 652.32 89.99 C651.14 89.62 649.45 88.19
						 648.55 86.83 C647.09 84.6 647.09 84.02 648.53 81.24 C649.41 79.53 651.55 77.55 653.27 76.84 C655 76.12 658.53
						 73.2 661.12 70.34 C666.03 64.93 668.14 64.09 670.28 66.68 C671.73 68.42 670.8 70.68 665.71 77.78 C661.76
						 83.29 662.43 86.33 668.2 88.94 C671.91 90.61 673.19 90.7 678.03 89.61 C683.5 88.39 689.94 88.89 691.01 90.62
						 C692.23 92.59 685.23 94.79 679.61 94.19 C676.54 93.87 673.33 94.08 672.47 94.65 C671.15 95.55 671.3 96.12
						 673.47 98.43 C675.72 100.83 675.84 101.34 674.47 102.71 C673.17 104.01 672.33 104.05 669.46 102.97 C665.23
						 101.37 663.63 103.02 664.5 108.07 C665.09 111.47 663.78 113.32 659.02 115.78 C657.35 116.65 656.01 116.66
						 654.2 115.84 C652.24 114.95 650.5 115.16 646.07 116.85 C641.01 118.77 640.12 118.83 637.49 117.47 C635.16
						 116.27 633.85 116.2 631.11 117.16 C627.92 118.27 627.49 118.14 625.24 115.33 C623.91 113.66 623.07 112.05
						 623.37 111.75 C623.66 111.46 624.3 111.85 624.78 112.62 C625.41 113.65 625.84 113.7 626.39 112.8 C626.93
						 111.93 627.54 111.91 628.5 112.7 C630.24 114.15 632.76 111.37 631.86 109.01 C631.33 107.63 630.84 107.58
						 628.83 108.68 C627.51 109.4 625.59 110.13 624.57 110.31 C622.95 110.58 622.8 110.04 623.41 106.26 L624.1
						 101.91 L621.39 103.69 C619.9 104.66 618.4 106.19 618.06 107.07 C617.35 108.94 618.42 114.06 619.7 114.91
						 C621.77 116.28 617.37 119.88 612.99 120.4 C609.45 120.82 607.29 122.03 603.16 125.87 C600.26 128.58 596.83
						 131.06 595.55 131.39 C594.28 131.71 592.49 133.12 591.58 134.5 C589.7 137.37 584.04 140.64 582.54 139.71
						 C581.99 139.37 580.27 139.93 578.71 140.95 C577.15 141.98 574.2 142.83 572.16 142.85 C566.79 142.9 566.91
						 144.93 572.4 147.02 C576.13 148.45 577.37 149.57 578.28 152.33 C579.68 156.55 578.65 164.08 576.36 166.36
						 C574.7 168.02 567.61 167.92 555.49 166.06 C550.24 165.25 547.1 167.61 548.11 171.6 C548.45 172.98 548.03
						 177.14 547.17 180.86 C545.15 189.55 545.61 195.66 548.3 196.08 C553.44 196.87 554.9 197.51 557.44 200.05
						 C560.15 202.76 560.19 202.77 561.35 200.6 C562.23 198.95 563.55 198.41 566.78 198.41 C569.12 198.41 572.09
						 197.88 573.36 197.23 C577.35 195.18 581.48 190.7 581.49 188.43 C581.49 186.06 585.18 179.38 586.49 179.37
						 C586.94 179.37 588.68 178.18 590.37 176.73 C592.06 175.28 594.1 174.09 594.89 174.09 C595.89 174.09 596.13
						 173.3 595.69 171.53 C594.84 168.14 598.19 166.28 603.53 167.18 C607.54 167.86 611.38 166.69 616.5 163.22
						 C619.9 160.91 622.3 161.72 624.46 165.89 C626.47 169.79 634.17 177.26 636.18 177.26 C641.65 177.26 648.24
						 184.45 647.36 189.45 L646.81 192.6 L649.24 190.26 C651.33 188.25 651.5 187.56 650.46 185.28 C648.98 182.03
						 650.16 181.08 654.49 182.03 C659.35 183.09 658.25 181.83 651.27 178.31 C644.68 174.98 631.2 162.56 631.2
						 159.81 C631.2 158.98 632.12 157.8 633.25 157.2 C634.87 156.33 635.6 156.52 636.7 158.1 C637.48 159.2 639.82
						 160.82 641.92 161.7 C644.01 162.57 646.39 164.24 647.21 165.4 C648.02 166.56 650.71 168.11 653.18 168.85
						 C657.94 170.28 661.87 174.95 661.87 179.19 C661.87 184.61 665.36 188.07 671.92 189.11 C674.79 189.57 674.6
						 191.46 671.64 191.88 C669.29 192.21 669.28 192.28 671.05 195.28 C673.59 199.59 675.27 199.86 677.07 196.25
						 C678.51 193.37 678.44 192.77 676.13 188.44 C674.01 184.44 673.86 183.57 675.15 182.5 C675.97 181.82 677.37
						 181.53 678.25 181.87 C679.13 182.21 679.85 182.04 679.85 181.5 C679.85 179.65 683.77 178.38 686.86 179.22
						 C688.53 179.68 692.01 179.61 694.6 179.08 L699.3 178.11 L696.74 176.18 C694.27 174.32 694.23 174.06 695.54
						 169.14 C698.33 158.67 707.95 148.04 710.98 152.08 C711.6 152.91 713 153.92 714.08 154.33 C715.65 154.92
						 715.8 155.38 714.8 156.58 C713.8 157.78 714.08 158.42 716.19 159.81 C718.65 161.42 719.08 161.4 722.87 159.39
						 C725.99 157.75 726.4 157.25 724.67 157.21 C723.43 157.18 721.84 156.46 721.13 155.61 C720.04 154.3 720.77
						 153.64 725.65 151.48 C734.06 147.76 735.77 147.32 735.53 148.92 C735.41 149.67 734.93 150.91 734.45 151.68
						 C733.97 152.45 733.85 153.34 734.18 153.67 C734.5 153.99 734.1 155.55 733.28 157.12 L731.8 159.99 L739.71
						 164.49 C744.06 166.96 748.35 170.1 749.24 171.46 C750.71 173.7 750.7 174.19 749.15 176.55 C746.19 181.08
						 738.81 181.32 730.51 177.17 C724.35 174.09 716.42 173.45 712.92 175.75 C711.31 176.81 708.29 177.77 706.2
						 177.88 C703.69 178.01 701.45 179.03 699.61 180.87 C697.65 182.83 696.1 183.49 694.42 183.09 C693.1 182.78
						 691.3 182.99 690.43 183.57 C689.08 184.45 689.19 184.86 691.22 186.28 C692.53 187.21 693.6 188.86 693.6
						 189.96 C693.6 192.84 695.57 196.76 697.68 198.07 C700.61 199.9 706.02 200.77 706.78 199.53 C707.81 197.87
						 711.38 198.18 714.86 200.23 C717.54 201.82 718.37 201.87 721.37 200.64 C727.68 198.05 730.32 198 731.62
						 200.42 C732.4 201.88 732.43 202.64 731.72 202.64 C731.12 202.64 730.61 204.43 730.58 206.61 C730.48 213.33
						 730.12 216.4 729.44 216.4 C729.08 216.4 728.51 218.07 728.18 220.11 C727.18 226.26 723.44 228.02 716.13
						 225.77 C713.89 225.08 711.44 225.09 708.88 225.8 C703.57 227.26 688.58 224.44 680.67 220.48 C673.42 216.85
						 668.78 216.55 667.14 219.61 C666.51 220.79 666.25 222.61 666.58 223.65 C666.95 224.83 666.23 226.42 664.63
						 227.92 C662.25 230.15 661.88 230.21 659.03 228.73 C657.35 227.86 654.21 226.82 652.04 226.41 C649.25 225.89
						 647.57 224.78 646.28 222.6 C644.52 219.63 642.11 218.53 633.61 216.83 C631.8 216.46 629.07 214.87 627.55
						 213.28 C625.14 210.76 624.92 210 625.89 207.44 C626.67 205.41 626.67 204.09 625.92 203.18 C625.31 202.45
						 625.1 201.12 625.45 200.22 C626.6 197.22 622.35 196.05 617.43 198.02 C614.09 199.36 610.98 199.63 604.09
						 199.2 C593.64 198.55 588 199.77 578.86 204.65 C573.55 207.49 571.85 207.92 568.29 207.32 C565.95 206.93
						 563.1 205.96 561.95 205.16 C559.03 203.12 558.67 203.25 556.16 207.31 C554.93 209.3 551.6 212.42 548.76
						 214.24 C543.48 217.63 540.24 223.04 540.24 228.46 C540.24 230.86 533.03 238.61 530.79 238.61 C528.77 238.61
						 521.32 247.4 517.97 253.72 C516.06 257.33 513.37 261.79 511.99 263.62 C508.32 268.48 507.22 273.16 508.94
						 276.55 C512.53 283.64 511.49 294.9 506.76 300.13 C505.21 301.84 505.25 302.3 507.28 305.73 C508.72 308.18
						 509.05 309.48 508.21 309.49 C507.39 309.49 507.51 309.89 508.51 310.53 C509.86 311.41 509.82 311.56 508.24
						 311.58 C505.66 311.6 505.92 313.78 508.59 314.48 C510.28 314.92 510.46 315.27 509.39 315.97 C508.32 316.66
						 508.53 317.03 510.28 317.51 C513.04 318.27 521.13 328.76 522.43 333.26 C524.11 339.07 535.93 349.73 542.81
						 351.63 C546.11 352.54 548.32 352.36 554.42 350.69 C560.32 349.07 562.76 348.85 565.64 349.68 C568.69 350.57
						 570.79 350.27 577.79 347.96 C582.44 346.43 587.2 344.79 588.36 344.32 C593.48 342.23 595.27 342.24 599.45
						 344.37 C602.66 346.01 603.93 347.39 604.4 349.75 C605.02 352.82 605.18 352.9 609.54 352.25 C620.71 350.58
						 625.29 359.07 621.06 373.64 C618.98 380.8 619.85 383.39 626.55 389.97 C630.03 393.39 631.73 396.17 632.95
						 400.44 C633.86 403.64 635.53 407.77 636.65 409.62 C637.98 411.82 638.45 413.9 638.01 415.65 C637.64 417.14
						 638.12 420.66 639.11 423.63 L640.87 428.94 L637.73 435.05 C633.01 444.23 630.94 451.81 631.77 456.9 C632.16
						 459.3 634.3 464.59 636.53 468.67 C641.07 476.97 644.44 488.41 645.47 498.98 C646.05 504.97 646.78 506.86
						 650.31 511.6 C652.6 514.66 654.47 517.69 654.47 518.32 C654.47 518.95 655.64 521.19 657.07 523.29 C659.08
						 526.26 659.53 527.96 659.06 530.86 C658.56 533.95 658.93 535.09 661.17 537.33 C664.39 540.55 663.51 540.47
						 671.82 538.38 C676.95 537.09 679.42 536.96 682.48 537.8 C685.95 538.76 687.16 538.55 691.88 536.16 C697.55
						 533.31 710.01 521.26 714.35 514.45 C715.72 512.29 717.77 510.04 718.91 509.43 C720.55 508.55 720.85 507.58
						 720.38 504.68 C719.48 499.14 720.68 496.07 724.31 494.56 C732.93 490.99 735.34 485.88 731.75 478.84 C730.55
						 476.49 729.57 474.08 729.57 473.5 C729.57 472.91 731.71 470.02 734.33 467.07 C736.94 464.13 739.09 461.26
						 739.09 460.71 C739.09 460.15 741.59 458.45 744.64 456.92 C751.63 453.42 753.62 451.66 756.12 446.76 C757.86
						 443.36 757.97 442.11 756.97 437.45 C756.33 434.48 756.1 430.89 756.46 429.47 C756.89 427.76 756.18 425.06
						 754.37 421.49 C747.25 407.43 748.71 396.95 759.45 385.02 C763.13 380.94 767.17 376.14 768.44 374.37 C769.7
						 372.59 774.45 368.21 778.98 364.64 C787.03 358.28 787.4 357.77 795.5 342.24 C803.03 327.8 803.72 325.96
						 803.08 322.16 L802.37 317.97 L799.39 319.51 C797.75 320.36 791.86 322.04 786.3 323.25 C776.98 325.26 775.94
						 325.31 772.99 323.78 C771.05 322.78 769.53 320.99 769.13 319.24 C768.05 314.58 763.73 309 757.06 303.65
						 C752.67 300.13 750.63 297.68 750.13 295.34 C749.74 293.52 747.88 290.11 746.01 287.79 C741.33 282 740.15
						 279.52 740.15 275.53 C740.15 273.6 739.08 270.7 737.68 268.85 C736.32 267.05 733.31 261.77 730.99 257.12
						 C728.66 252.46 724.76 245.36 722.31 241.34 C717.13 232.84 717.83 229.68 723.34 236.64 L726.92 241.16 L727.45
						 238.09 C728.2 233.77 729.82 234.72 731.74 240.6 C733.19 245.04 736.06 249.29 745.77 261.35 C747.17 263.09
						 749.09 267.2 750.04 270.46 C751.22 274.54 753.09 277.78 756 280.78 C758.33 283.18 760.24 285.61 760.24 286.17
						 C760.24 286.73 761.61 288.75 763.29 290.66 C765.46 293.15 766.55 295.79 767.11 299.95 C767.55 303.15 768.81
						 307.58 769.93 309.78 C771.86 313.59 772.15 313.75 775.8 313.07 C779.2 312.43 791.31 307.34 801.36 302.32
						 C803.32 301.34 805.65 299.43 806.54 298.08 C808.41 295.22 813.11 292.55 816.28 292.55 C819.01 292.55 827.09
						 284.6 829.88 279.17 C831.02 276.93 833.2 273.94 834.71 272.53 C836.22 271.12 837.45 269.42 837.45 268.74
						 C837.45 267.28 830.88 261.85 826.16 259.41 C823.11 257.83 821.26 255.08 821.68 252.73 C822.3 249.25 821.03
						 249.53 817.37 253.68 C815.05 256.31 811.98 258.77 810.54 259.13 C807.69 259.84 801.59 256.83 802.18 255
						 C802.36 254.42 802.06 253.23 801.52 252.36 C800.66 251 800.31 251.06 799.04 252.8 C796.94 255.68 794.4 254.26
						 793.11 249.48 C792.51 247.26 790.54 243.43 788.74 240.97 C786.15 237.44 785.6 235.86 786.14 233.41 C786.51
						 231.71 787.53 230.05 788.4 229.71 C791.18 228.65 795.74 231.95 797.8 236.5 C799.41 240.07 800.97 241.5 806.18
						 244.13 C812.22 247.18 812.87 247.29 817.36 246.08 C822.09 244.81 822.14 244.82 825.29 248.43 C827.03 250.43
						 829.6 252.42 830.98 252.86 C834.83 254.06 857.78 254.3 860.31 253.16 C863.13 251.89 868.74 254.56 869.71
						 257.63 C870.08 258.8 870.8 259.76 871.29 259.76 C871.79 259.76 873.64 260.98 875.41 262.46 C877.17 263.95
						 879.42 265.02 880.4 264.84 C883.17 264.34 883.41 267.06 880.7 268.06 L878.29 268.95 L881.09 271.76 C885.33
						 276 890.75 275.26 890.84 270.43 C890.86 269.61 891.46 268.74 892.18 268.49 C893.99 267.89 895.86 273.24
						 895.08 276.78 C893.93 282.03 895.93 287.57 909.45 316.62 C911.69 321.42 913.82 326.95 914.18 328.92 C914.63
						 331.31 915.72 332.89 917.48 333.69 C920.69 335.15 920.96 335 924.74 329.53 C928.63 323.92 930.22 314.49
						 929.18 303.21 C929 301.28 930.12 299.75 933.69 297 C936.3 295 939.24 292.03 940.23 290.41 C941.21 288.78
						 942.93 287.16 944.05 286.81 C945.17 286.45 946.62 284.98 947.28 283.54 C947.94 282.09 950.18 280.09 952.26
						 279.1 C954.83 277.87 955.9 276.73 955.59 275.55 C954.76 272.35 956.95 270.5 963.07 269.24 C966.41 268.56
						 969.84 267.61 970.7 267.14 C973.06 265.85 975.43 267.64 977.54 272.32 C978.75 275.01 980.57 277 982.55 277.82
						 C986.18 279.32 992.37 290.39 991.37 293.57 C990.81 295.31 993.13 298.9 994.81 298.9 C995.17 298.9 996.72
						 297.69 998.26 296.22 C1001.98 292.66 1004.08 293.68 1005.57 299.77 C1006.24 302.49 1008.01 307.26 1009.5
						 310.36 C1011.61 314.74 1012.07 316.88 1011.52 319.88 C1011.13 322.01 1010.65 326.14 1010.46 329.04 C1010.12
						 334.16 1010.25 334.43 1014.45 337.53 C1017.88 340.05 1019.09 341.84 1020.19 345.99 C1022.73 355.57 1025.78
						 360.98 1030.54 364.41 C1035.15 367.72 1037.36 368.44 1037.36 366.65 C1037.36 366.1 1036.18 361.89 1034.73
						 357.3 C1032.28 349.53 1031.66 348.61 1025.83 343.93 C1022.33 341.12 1019.27 337.74 1018.9 336.25 C1018.53
						 334.79 1017.24 332.25 1016.04 330.62 C1014.07 327.96 1013.96 327.12 1015 322.53 C1015.64 319.71 1016.06
						 315.74 1015.93 313.71 C1015.76 311.18 1016.14 310.01 1017.11 310.01 C1019.89 310.01 1029.89 318.05 1033.34
						 323.05 C1034.75 325.09 1035.42 325.32 1037.16 324.39 C1038.83 323.5 1039.41 323.63 1039.93 324.98 C1040.29
						 325.93 1040.31 327.58 1039.96 328.65 C1039.62 329.73 1039.64 331.08 1040 331.67 C1040.86 333.06 1045.56
						 329.98 1046.34 327.51 C1046.67 326.48 1048.79 324.8 1051.06 323.78 C1056.05 321.53 1057.91 317.75 1056.86
						 311.99 C1055.65 305.37 1050.52 296.27 1045.94 292.64 C1040.36 288.22 1036.99 282.73 1037.94 279.61 C1039.01
						 276.12 1041.64 273.43 1045.64 271.73 C1050 269.89 1053.05 270.76 1054.37 274.25 L1055.39 276.92 L1057.57
						 274.15 C1060.31 270.66 1063.45 268.95 1067.51 268.72 C1069.26 268.63 1073.62 267.48 1077.21 266.16 C1086.32
						 262.83 1089.8 258.25 1093.65 244.51 C1096.84 233.17 1096.82 231.21 1093.52 231.21 C1090.77 231.21 1089.77
						 229.46 1091.86 228.3 C1094.09 227.04 1092.97 224.61 1089.1 222.33 C1087.34 221.29 1084.9 218.38 1083.68
						 215.87 C1082.46 213.35 1080.3 210.77 1078.87 210.12 C1076.74 209.15 1076.4 208.43 1076.97 206.06 C1077.65
						 203.16 1079.17 201.48 1083.96 198.27 L1086.55 196.54 L1081.91 195.28 C1078.05 194.24 1077.01 194.29 1075.73
						 195.56 C1074.38 196.91 1073.62 196.78 1069.63 194.55 C1067.12 193.15 1064.43 191.23 1063.65 190.3 C1062.44
						 188.84 1062.54 188.42 1064.29 187.42 C1065.42 186.78 1067.98 184.48 1069.98 182.32 C1072.95 179.11 1073.97
						 178.59 1075.58 179.45 C1076.67 180.03 1077.56 181.24 1077.56 182.13 C1077.56 183.02 1078.06 184.69 1078.68
						 185.84 C1079.79 187.92 1079.83 187.91 1083.45 185.68 C1087.06 183.45 1087.13 183.44 1090.53 185.43 C1092.86
						 186.8 1093.95 188.24 1093.95 189.94 C1093.95 191.79 1094.74 192.65 1096.98 193.25 C1101.43 194.45 1103.96
						 197.17 1106.9 203.93 L1109.53 209.97 L1113.91 207.76 C1116.31 206.55 1118.48 205.39 1118.71 205.17 C1118.95
						 204.96 1118.33 202.99 1117.34 200.79 C1116.08 197.99 1113.33 195.27 1108.18 191.73 C1104.14 188.95 1100.83
						 186.21 1100.83 185.64 C1100.83 185.08 1101.99 184.09 1103.41 183.44 C1106.5 182.04 1107.64 179.62 1106.1
						 177.76 C1105.29 176.79 1105.61 175.22 1107.24 172.08 C1108.49 169.7 1109.67 167.74 1109.86 167.74 C1110.05
						 167.74 1111.5 168.23 1113.07 168.83 C1117.18 170.39 1119.98 168.15 1122.48 161.28 C1126.09 151.36 1125.21
						 136.19 1120.89 133.88 C1119.75 133.27 1117.9 130.97 1116.78 128.78 C1114.05 123.43 1105.3 116.6 1102.43
						 117.59 C1098.71 118.87 1093.81 118.27 1089.31 115.97 C1085.16 113.86 1085.03 113.63 1086.48 111.4 C1087.31
						 110.1 1088.55 106.82 1089.23 104.1 C1089.9 101.39 1091.64 98.05 1093.09 96.7 C1095.38 94.55 1096.82 94.22
						 1104.35 94.15 C1109.1 94.1 1114.23 93.71 1115.75 93.28 C1117.52 92.77 1119.97 93.1 1122.58 94.19 C1124.95
						 95.18 1127.86 95.62 1129.56 95.25 C1132.06 94.7 1132.4 94.2 1131.91 91.77 C1131.6 90.22 1131.87 87.57 1132.51
						 85.9 C1133.6 83.03 1133.91 82.9 1138.14 83.57 C1140.6 83.97 1143.72 85.01 1145.08 85.9 C1148.2 87.95 1150.92
						 87.04 1150.03 84.25 C1149.07 81.22 1152.89 79.38 1155.03 81.84 C1158.3 85.58 1158.89 87.78 1157.36 90.54
						 C1156.56 91.99 1155.89 94.27 1155.87 95.61 C1155.84 96.95 1155.13 99.41 1154.26 101.08 C1152.74 104.02 1152.83
						 104.3 1157.42 110.41 C1160.02 113.87 1163.95 118.01 1166.13 119.6 C1168.32 121.19 1171.83 124.39 1173.94
						 126.72 C1176.99 130.09 1178.24 130.8 1180.1 130.21 C1181.76 129.68 1182.21 128.97 1181.67 127.72 C1181.26
						 126.75 1180.79 124.77 1180.63 123.32 C1180.48 121.87 1180.02 119.84 1179.62 118.83 C1179.14 117.62 1179.46
						 116.77 1180.57 116.34 C1182.09 115.76 1182.1 115.4 1180.69 112.89 C1179.82 111.35 1178.67 108.84 1178.13
						 107.32 C1177.51 105.58 1175.42 103.71 1172.54 102.32 C1167.26 99.76 1163.51 94.62 1165.63 92.85 C1166.36
						 92.25 1168.37 91.41 1170.12 91 C1171.86 90.58 1174.59 89.57 1176.19 88.77 C1178.69 87.51 1179.53 87.52 1182.13
						 88.86 C1184.91 90.3 1185.34 90.26 1187.42 88.32 C1188.66 87.16 1189.68 85.77 1189.68 85.22 C1189.68 84.22
						 1192.11 82.78 1194.59 81.92 L1194.59 75.88 C1194.15 75.7 1193.84 75.57 1193.38 75.39 C1183.75 71.63 1181.95
						 69.7 1188.51 70.15 C1192.01 70.4 1192.05 70.36 1190.21 68.32 C1187.76 65.62 1189.76 64.77 1194.59 66.17
						 L1194.59 61.3 C1191.78 59.98 1187.13 58.64 1183.84 58.24 C1180.36 57.81 1175.37 56.63 1172.75 55.62 C1167.73
						 53.68 1152.88 50.97 1140.5 49.74 C1133.11 49 1133.09 49 1135.01 51.15 C1137.67 54.13 1135.72 54.9 1130.83
						 52.8 C1127.8 51.5 1123.21 51.01 1112.99 50.91 C1101.89 50.81 1098.55 50.41 1095.62 48.84 C1092.73 47.31
						 1088.92 46.83 1076.96 46.5 C1064.35 46.15 1061.1 45.71 1056.79 43.77 C1053.96 42.5 1049.98 41.34 1047.94
						 41.19 C1045.91 41.05 1041.21 40.38 1037.5 39.72 C1029.41 38.27 1022.82 39.11 1024.67 41.34 C1025.63 42.5
						 1025.23 43.14 1022.71 44.44 C1020.14 45.77 1018.48 45.87 1013.91 45 C1009.31 44.12 1007.58 44.24 1004.47
						 45.64 C1000.74 47.3 1000.51 47.27 995.14 44.35 C992.11 42.69 987.66 40.27 985.25 38.96 C980.39 36.33 972.02
						 35.8 965.22 37.69 C962.24 38.52 959.8 38.39 955.09 37.17 C950.58 36 947.93 35.84 945.34 36.59 C942.75 37.33
						 940.36 37.18 936.53 36.05 C931.87 34.66 930.58 34.67 924.95 36.13 C916.26 38.38 914.74 36.66 921.92 32.69
						 C924.9 31.05 927.34 29.41 927.35 29.04 C927.35 28.67 926.06 27.48 924.46 26.4 C922.15 24.84 919.49 24.44
						 911.5 24.4 C904.07 24.38 900.57 23.89 898.07 22.54 C896.21 21.54 893.44 20.72 891.92 20.72 C890.41 20.72
						 889.41 20.31 889.73 19.8 C890.37 18.77 880.17 16.49 874.89 16.49 C872.99 16.49 871.13 16.01 870.77 15.43
						 C870.42 14.85 868.56 14.37 866.64 14.37 C864.73 14.37 861.64 13.61 859.77 12.68 C857.5 11.55 855 10.97 852.79
						 10.95 L852.78 10.95 ZM654.76 12.36 C654.57 12.36 654.5 12.61 654.5 13.1 C654.5 13.8 653.82 14.37 652.98
						 14.37 C652.15 14.37 651.26 15.44 651 16.75 L650.53 19.13 L649.75 16.75 C648.97 14.39 646.03 13.37 646.03
						 15.45 C646.03 16.16 642.58 16.28 635.99 15.82 C627.34 15.21 625.94 15.34 625.94 16.74 C625.94 18.4 627.18
						 19.14 632.76 20.81 C634.95 21.47 636.12 21.36 636.68 20.45 C637.29 19.46 637.78 19.44 638.71 20.38 C639.39
						 21.05 640.72 21.36 641.67 21.06 C643.16 20.59 643.17 20.67 641.8 21.66 C640.93 22.29 638.91 22.8 637.31
						 22.81 C633.23 22.84 633.73 24.04 638.92 26.7 L643.39 28.99 L646.83 25.19 C648.72 23.1 650.27 21 650.27 20.52
						 C650.27 19.06 654.16 19.56 655.52 21.2 C656.22 22.05 656.47 23.26 656.07 23.91 C655.56 24.73 656.49 24.87
						 659.15 24.37 C661.62 23.91 662.96 24.06 662.96 24.8 C662.96 25.42 663.66 25.67 664.52 25.34 C665.86 24.82
						 665.87 24.53 664.59 23.26 C663.78 22.44 662.64 21.77 662.06 21.77 C660.46 21.77 654.51 18.18 654.5 17.2
						 C654.5 16.73 655.33 16.58 656.35 16.88 C661.34 18.35 665.9 18.63 668.52 17.64 C673.57 15.72 671.79 14.37
						 664.23 14.37 C660.05 14.37 656.51 13.84 655.77 13.1 C655.27 12.61 654.95 12.36 654.76 12.36 L654.76 12.36
						 ZM327.92 24.31 C327.18 24.35 326.43 24.57 325.49 24.96 C322.95 26.01 320.59 28.87 321.54 29.75 C321.7 29.9
						 327.54 30.47 334.52 31.03 C341.5 31.58 347.93 32.08 348.8 32.15 C349.67 32.21 352.06 31.37 354.09 30.28
						 L357.79 28.3 L354.8 27.55 C353.15 27.13 348.39 27.03 344.22 27.33 C338.04 27.78 335.89 27.5 332.56 25.81
						 C330.42 24.72 329.17 24.26 327.92 24.31 L327.92 24.31 ZM792.37 26.31 C791.81 26.35 791.2 26.41 790.56 26.51
						 C788.15 26.88 783.08 27.43 779.3 27.73 C775.52 28.03 771 28.93 769.26 29.72 C766.21 31.11 761.91 35.23 761.87
						 36.8 C761.87 37.21 760.9 38.26 759.73 39.14 C758.57 40.02 758.04 40.76 758.54 40.78 C759.05 40.8 758.86
						 41.53 758.13 42.42 C756.56 44.32 756.44 44.2 761.85 46.34 C764.18 47.26 767.51 48.03 769.26 48.06 L772.43
						 48.11 L770.05 46.44 C766.93 44.27 767.04 41.72 770.44 37.68 C773.66 33.85 778.56 31.57 786.71 30.1 C794.92
						 28.63 796.35 28.11 795.6 26.9 C795.31 26.43 794.06 26.22 792.37 26.31 L792.37 26.31 ZM229.21 31.91 C224.86
						 31.93 220.73 33.43 214.74 36.72 C206.55 41.2 206.17 41.56 207.87 43.27 C208.87 44.27 210.4 44.78 211.29
						 44.41 C219.97 40.8 230.97 37.12 236.16 36.09 L242.51 34.83 L237.74 33.39 C234.52 32.4 231.82 31.89 229.21
						 31.91 L229.21 31.91 ZM297.27 33.41 C294.59 33.43 287.85 35.98 287.12 37.26 C286.51 38.33 285.13 38.59 282.36
						 38.15 L278.47 37.54 L281.38 39.21 C282.98 40.13 284.29 41.34 284.29 41.9 C284.29 45.08 294.33 40.68 296.45
						 36.58 C297.35 34.83 297.72 33.41 297.27 33.41 L297.27 33.41 ZM312.09 33.67 C307.19 33.49 299.43 36.67 300.75
						 38.82 C301.12 39.41 302.21 39.56 303.17 39.15 C304.13 38.74 306.96 38.07 309.46 37.66 C315.05 36.73 317.19
						 34.98 313.99 33.96 C313.44 33.79 312.79 33.69 312.09 33.67 L312.09 33.67 ZM332.41 34.19 L328.18 34.95 C322.86
						 35.89 313.9 42.27 313.9 45.12 C313.9 46.66 320.14 48.33 323.55 47.69 C325.51 47.33 329.4 47.54 332.18 48.16
						 C336.31 49.09 337.81 48.99 340.42 47.64 C343.41 46.1 343.85 46.13 347.19 48.2 C349.15 49.41 352.01 52.53
						 353.53 55.13 C355.05 57.73 356.66 59.85 357.1 59.85 C357.55 59.85 358.84 60.53 359.97 61.36 C361.94 62.81
						 361.9 62.91 358.88 64.06 C356.63 64.92 355.03 64.94 353.28 64.14 C350.42 62.84 345.28 64.94 344.16 67.86
						 C343.6 69.32 342.53 69.49 337.74 68.89 C331.44 68.1 325.78 69.83 328.92 71.58 C329.82 72.09 332.08 72.03
						 334.1 71.45 C340.06 69.74 342.1 70.19 344.31 73.67 C345.44 75.46 348.22 78.06 350.49 79.46 C354.59 81.98
						 359.82 82.86 360.85 81.2 C361.14 80.72 359.97 79.5 358.25 78.48 C352.74 75.23 356.72 73.23 362.61 76.28
						 C365.61 77.83 365.79 77.79 366.89 75.37 C367.79 73.4 367.67 72.11 366.35 69.55 C364.74 66.45 364.76 66.22
						 366.76 65.15 C368.39 64.27 369.81 64.5 373.05 66.15 C377.72 68.53 379.38 68.29 381.48 64.92 C383.02 62.46
						 383.17 62.67 376.07 57.59 C374.38 56.38 373.66 54.8 373.66 52.3 C373.66 48.97 373.33 48.64 368.49 47.11
						 C365.46 46.15 362.36 44.25 360.96 42.5 C358.95 39.98 358.27 39.71 356.41 40.7 C353.34 42.35 352.91 42.25
						 347.46 38.63 C343.35 35.92 341.96 35.52 338.69 36.13 C336.55 36.53 333.23 38.24 331.31 39.93 C326.78 43.91
						 325.21 41.86 329.38 37.41 L332.41 34.19 ZM267.02 36.52 C265.63 36.65 263.51 37.69 262.05 39.24 C259.54 41.92
						 257.42 42.22 257.18 39.93 C257.11 39.25 256.99 38.16 256.92 37.52 C256.83 36.76 255.86 36.94 254.23 38.01
						 C251.91 39.53 251.14 39.53 246.23 38.08 C240.26 36.3 233.52 36.83 227.18 39.55 C223.53 41.13 223.51 41.17
						 226.11 41.83 C229.71 42.74 229.43 44.41 225.58 45 C223.27 45.36 224.14 45.65 228.75 46.06 C232.24 46.37
						 235.1 47.1 235.1 47.68 C235.1 48.27 231.79 48.98 227.76 49.27 L220.41 49.8 L225.64 52.15 C228.51 53.44 232.06
						 54.68 233.51 54.91 C238.68 55.73 239.74 55.59 244.74 53.45 C249.17 51.55 250.43 51.43 254.82 52.49 C259.36
						 53.57 260.4 53.44 265.45 51.13 L271.05 48.57 L264.23 45.01 L266.32 41.59 C267.46 39.71 268.4 37.81 268.41
						 37.37 C268.41 36.7 267.85 36.45 267.02 36.52 L267.02 36.52 ZM299.35 43.27 C298.24 43.15 296.33 43.82 293.09
						 45.41 C287.28 48.26 287.19 48.38 289.39 49.93 C292.52 52.11 290.75 55.2 285.56 56.65 C283.38 57.25 280.43
						 58.66 279 59.77 C276.43 61.76 276.35 61.76 273.46 59.7 C271.16 58.06 269.53 57.75 266.01 58.25 C263.25 58.65
						 259.57 58.31 256.49 57.37 C252.12 56.03 250.8 56.03 246.46 57.33 C243.58 58.2 240.49 60.04 239.19 61.67
						 L236.93 64.51 L235.19 61.14 C233.45 57.79 233.4 57.77 227.19 58.42 C223.75 58.78 220.07 58.74 219.01 58.33
						 C217.17 57.62 217.18 57.52 219.14 56.07 C221.14 54.6 221.13 54.56 218.84 54.56 C217.55 54.56 213.53 53.56
						 209.91 52.34 C205.16 50.73 201.91 50.28 198.19 50.72 C194.67 51.13 192.08 50.82 189.98 49.73 C187.66 48.53
						 186.4 48.43 184.78 49.3 C183.6 49.93 181.73 50.16 180.64 49.82 C179.54 49.47 174.84 50.15 170.19 51.34 C159.65
						 54.03 153.51 54.07 144.08 51.48 C140.02 50.37 133.84 49.14 130.35 48.75 C126.86 48.36 119.84 47.35 114.74
						 46.51 C106.47 45.14 104.13 45.16 93.11 46.69 C86.31 47.63 77.69 49.55 73.96 50.95 C70.22 52.36 65.86 53.51
						 64.28 53.51 C61.09 53.51 54.73 55.47 54.73 56.45 C54.73 56.79 55.73 58.14 56.95 59.44 L59.17 61.8 L55.8
						 63.55 C53.46 64.76 51.18 65.09 48.4 64.62 C44.01 63.88 37.33 65.3 34.1 67.66 C32.16 69.07 32.32 69.24 36.63
						 70.4 C40.19 71.36 41.94 71.35 44.34 70.36 C49.4 68.26 50.21 70.67 45.51 73.87 C42.85 75.69 38.88 77 33.68
						 77.78 C23.98 79.24 19.48 81.63 20.3 84.88 C21.14 88.24 19.99 90.39 16.32 92.28 L13.07 93.96 L16.06 95.52
						 C18.38 96.74 19.62 96.83 21.62 95.91 C24.35 94.67 26.63 95.28 25.58 96.97 C24.73 98.34 15.54 102.96 6.6
						 106.51 C1.34 108.59 0 109.46 1.98 109.51 C5.04 109.57 16.12 105.64 23.86 101.75 C26.58 100.37 30.48 98.89
						 32.51 98.45 C34.55 98.01 39.84 95.76 44.26 93.44 C50.82 90.01 52.7 89.44 54.43 90.37 C56.72 91.6 62.36 90.48
						 67.68 87.74 C70.24 86.42 71.55 86.5 78.96 88.39 C83.57 89.56 88.17 90.53 89.18 90.53 C90.19 90.53 92.52
						 91.67 94.36 93.07 C96.2 94.48 99.43 96.35 101.56 97.24 C105.5 98.88 106.66 101.1 106.35 106.39 C106.16 109.71
						 106.78 111.99 108.14 112.99 C108.75 113.44 108.46 113.77 107.47 113.78 C105.08 113.8 102.87 119.41 104.27
						 121.92 C105.06 123.34 104.92 124.31 103.73 125.63 C102.25 127.26 102.54 127.84 106.98 132.15 C109.65 134.75
						 111.84 137.6 111.84 138.47 C111.84 139.35 112.29 140.22 112.83 140.42 C113.37 140.61 112.51 142.68 110.92
						 145 C108.23 148.95 105.84 149.88 106.17 146.85 C106.26 146.13 105.3 145.54 104.06 145.55 C102.33 145.57
						 101.19 146.95 99.26 151.43 C97.86 154.65 94.64 159.6 92.1 162.42 C89.56 165.25 86.73 169.38 85.81 171.62
						 C84.9 173.85 82.95 176.94 81.49 178.49 C80.02 180.05 79.12 181.8 79.48 182.38 C79.84 182.97 79.59 184.66
						 78.92 186.13 C77.93 188.3 78.02 189.31 79.42 191.44 C80.37 192.89 80.71 194.34 80.19 194.67 C79.64 195.01
						 79.6 196.73 80.1 198.69 C80.58 200.58 81.27 203.85 81.63 205.97 C82.13 208.96 82.99 210.11 85.48 211.14
						 C89.78 212.92 92.09 217.58 91.22 222.73 C90.69 225.87 91.14 227.93 93.29 232.17 C95.4 236.34 95.78 238.05
						 94.95 239.61 C93.52 242.28 94.34 244.13 98.23 247.01 C100.8 248.9 101.32 249.91 100.79 252 C100.3 253.95
						 100.97 255.65 103.44 258.77 C107.62 264.05 109.33 264.14 106.68 258.95 C105.56 256.75 104.29 252.61 103.86
						 249.75 C103.43 246.89 101.75 241.67 100.11 238.14 C96.1 229.47 95.59 226.85 97.4 224.37 C98.69 222.61 99.32
						 222.48 101.57 223.51 C103.69 224.47 104.37 225.75 104.94 229.94 C105.39 233.2 107.2 237.67 109.76 241.83
						 C112.01 245.5 113.6 248.91 113.29 249.42 C112.97 249.93 114.56 252.34 116.82 254.79 C119.07 257.23 122.02
						 261.52 123.37 264.31 C125.52 268.74 125.68 269.94 124.7 273.82 C123.62 278.06 123.73 278.43 126.96 281.85
						 C129.05 284.06 135.78 288.07 144.46 292.28 L158.57 299.12 L163.17 297.36 C167.34 295.76 168.06 295.75 170.92
						 297.23 C172.66 298.13 175.15 300.36 176.45 302.19 C177.81 304.1 181.22 306.57 184.49 308.02 C190.76 310.79
						 193.34 311.12 195.08 309.38 C195.91 308.54 196.57 309.24 197.45 311.9 C198.11 313.91 199.59 316.41 200.73
						 317.44 C201.87 318.48 202.81 320.42 202.81 321.76 C202.81 323.1 203.4 324.67 204.13 325.25 C204.85 325.82
						 207.41 327.98 209.81 330.05 C212.21 332.11 214.69 333.8 215.33 333.8 C215.97 333.8 218.43 334.81 220.8 336.05
						 C225.22 338.36 226.57 338.13 226.59 335.08 C226.62 332.53 231.7 331.02 235.06 332.55 C237.38 333.6 237.62
						 334.12 236.66 335.91 C236.03 337.08 235.93 338.03 236.44 338.03 C236.94 338.03 237.41 338.63 237.47 339.35
						 C237.53 340.08 238.11 342.81 238.77 345.42 C240.47 352.28 238.67 358.21 232.5 365.99 C223.22 377.71 221.04
						 384.62 226.21 385.97 C228.32 386.52 228.28 386.71 225.17 391.23 C222.29 395.41 222.05 396.34 222.97 399.66
						 C223.54 401.72 225.17 404.17 226.61 405.11 C229.32 406.88 233.29 413.86 235.54 420.81 C236.25 423 238.59
						 427.05 240.75 429.81 C242.9 432.56 245.99 437.54 247.6 440.87 C250.27 446.38 251.23 447.29 258.05 450.88
						 C267.58 455.89 275.29 463.47 276.97 469.47 C277.66 471.93 278.12 476.93 278.01 480.56 C277.49 497.6 278.52
						 516.28 280.55 526.31 C281.92 533.06 282.21 537.9 281.71 545.75 C281.25 552.99 281.42 556.65 282.27 557.67
						 C282.94 558.48 283.58 561.29 283.69 563.92 C283.86 567.98 284.56 569.38 288.34 573.23 C291.33 576.28 292.57
						 578.33 292.12 579.5 C291.74 580.49 292.4 582.56 293.66 584.33 C296.31 588.04 295.72 593.57 292.58 594.57
						 C289.84 595.44 290.1 596.35 293.64 598.37 C295.64 599.5 297.32 601.85 298.57 605.24 C301.05 611.96 305.49
						 619.17 307.62 619.9 C308.54 620.22 309.93 621.67 310.71 623.12 C311.69 624.94 312.71 625.57 314.03 625.15
						 C315.08 624.82 316.77 625.01 317.78 625.58 C320.37 627.03 326.13 623.01 324.42 620.94 C322.53 618.67 322.91
						 613.89 325.34 609.12 C327.77 604.36 327.24 600.18 324.06 598.96 C323.18 598.62 321.66 597.13 320.68 595.64
						 C318.98 593.04 319.02 592.8 321.67 589.31 C323.31 587.17 324.17 585 323.78 583.99 C323.42 583.05 323.93
						 581.4 324.92 580.31 C326.62 578.44 326.59 578.29 324.51 577.63 C323.3 577.24 321.56 575.48 320.64 573.71
						 C318.39 569.36 319.97 567.89 324.42 570.19 C326.29 571.16 327.94 571.79 328.1 571.6 C330.05 569.28 330.73
						 566.25 329.72 564.36 C328.09 561.31 329.26 560.15 333.99 560.15 C339.33 560.15 345.08 557.39 346.58 554.09
						 C347.55 551.96 347.35 550.67 345.49 546.94 C344.24 544.44 342.09 541.87 340.71 541.25 C339.32 540.62 338.2
						 539.62 338.2 539.02 C338.2 537.45 341.22 537.69 346.89 539.72 C353.42 542.06 356.13 540.68 360.64 532.72
						 C362.47 529.49 365.07 525.36 366.42 523.56 C367.77 521.76 368.87 519.13 368.87 517.72 C368.87 516.3 369.62
						 514.07 370.54 512.76 C373.38 508.7 374.27 503.95 372.95 499.93 C371.8 496.45 371.91 496.12 375.33 493.2
						 C377.3 491.52 380.89 489.27 383.3 488.21 C385.7 487.16 388.01 485.74 388.43 485.07 C388.89 484.32 390.66
						 484.08 393.04 484.45 C395.94 484.9 397.5 484.53 399.33 482.99 C404.95 478.24 410.77 456.04 409.52 444.14
						 C408.88 438.04 409.02 437.4 411.59 434.84 C413.1 433.32 415.12 430.56 416.07 428.69 C417.01 426.82 419.34
						 423.37 421.25 421.02 C425.7 415.52 427.35 409.72 425.94 404.5 C424.97 400.9 424.39 400.43 419.05 398.88
						 C415.06 397.72 411.9 395.87 409.08 393.05 C405.29 389.25 404.25 388.82 396.34 387.74 C388.9 386.72 387.38
						 386.79 385.16 388.25 C382.36 390.08 381.41 389.19 381.86 385.15 C382.02 383.7 380.73 382.33 377.51 380.53
						 C372.55 377.76 371.23 377.97 365.65 382.49 C363.5 384.22 362.42 384.45 360.36 383.63 C358.85 383.03 358.46
						 382.56 359.43 382.52 C360.35 382.49 362.16 381.33 363.46 379.95 C365.63 377.63 365.68 377.31 364.09 375.72
						 C361.48 373.1 359.74 373.59 354.53 378.4 C350.94 381.7 349.45 382.5 348.54 381.59 C347.63 380.68 348.4 379.36
						 351.63 376.28 C356.69 371.48 359 367.68 357.45 366.72 C356.87 366.36 355.83 363.92 355.14 361.3 C352.82
						 352.51 342.91 345.27 335.69 347.08 C332.17 347.97 324.18 344.3 321.68 340.67 C316.43 333.03 302.44 324.52
						 297.27 325.82 C293.87 326.68 282.02 323.47 279.79 321.1 C276.77 317.86 274.05 317.6 270.54 320.19 C267.16
						 322.69 266.61 324.2 268.43 326.02 C269.19 326.78 268.91 327.88 267.52 329.6 C265.56 332.02 265.47 332.03
						 264.4 330.02 C263.1 327.61 264.25 319.84 266.26 317.43 C268.64 314.55 263.76 315.51 260.98 318.46 C259.62
						 319.92 257.51 321.12 256.31 321.13 C253.41 321.16 249.97 324.02 247.93 328.09 C247.02 329.89 245.17 332.1
						 243.82 332.99 C241.53 334.48 241.12 334.42 238.21 332.09 C234.57 329.18 231.73 328.95 226.49 331.14 C223.19
						 332.52 222.37 332.52 219.75 331.17 C218.11 330.32 215.73 327.94 214.46 325.88 C212.18 322.21 212.17 321.98
						 213.75 312 C214.63 306.42 215.11 301.22 214.81 300.45 C214.06 298.48 207.57 297.7 200.47 298.72 C192.68
						 299.84 192.36 298.96 196.9 289.11 C203.53 274.77 204.05 273.22 202.57 272.28 C200.78 271.14 198.83 271.19
						 194.16 272.49 C191.05 273.35 190.01 274.31 189.05 277.23 C187.54 281.81 183.42 284.79 176.57 286.26 C167.48
						 288.21 163.12 284.59 159.98 272.48 L158.27 265.89 L161.61 255.69 C163.45 250.07 165.4 244.26 165.95 242.77
						 C166.58 241.06 168.97 239.02 172.45 237.22 C175.48 235.66 179.61 233.43 181.64 232.26 C185.99 229.76 188.15
						 229.63 192.02 231.6 C193.59 232.41 196.34 233.38 198.12 233.76 C200.89 234.35 201.55 234.07 202.55 231.88
						 C203.22 230.4 205.27 228.78 207.34 228.1 C210.39 227.1 211.75 227.25 216.02 229.08 C218.81 230.28 222.01
						 230.96 223.14 230.6 C224.5 230.17 226.1 230.79 227.83 232.41 C229.97 234.43 230.33 235.52 229.79 238.4 C229.01
						 242.55 231.79 251.88 234.06 252.76 C235.02 253.12 236.17 252.21 237.15 250.31 C238.47 247.75 238.53 245.8
						 237.53 238.03 C236.45 229.7 236.53 228.43 238.27 225.19 C240.25 221.52 250.01 213.91 256.87 210.69 C263.55
						 207.54 266.61 203.44 266.72 197.42 C266.84 191.55 268.83 188.18 270.16 191.63 C270.86 193.46 271 193.41
						 271.56 191.02 C271.9 189.57 273.83 187.35 275.84 186.08 C277.85 184.81 280.72 182.52 282.22 181 C283.72
						 179.47 287.06 177.58 289.63 176.8 C297.69 174.34 299.98 172.9 300.65 169.84 C301.2 167.35 302.84 166.26
						 312.23 162.12 C318.24 159.47 324.83 156.99 326.86 156.61 C332.07 155.63 332.84 157.77 328.01 159.8 C322.57
						 162.07 320.8 163.62 322.48 164.66 C323.2 165.11 325.92 164.39 328.61 163.03 C331.27 161.69 334.88 160.28
						 336.63 159.91 C338.39 159.53 341.24 158.24 342.98 157.04 L346.13 154.87 L342.03 155.56 C336.84 156.44 332.51
						 154.68 330.85 151.04 C329.74 148.6 329.84 148 331.61 146.57 C332.73 145.66 334.22 143.86 334.91 142.58 C336.1
						 140.36 335.95 140.24 332.15 140.24 C329.93 140.24 325.25 141.61 321.63 143.33 C315.47 146.24 313.87 146.43
						 313.87 144.24 C313.87 143.73 318.03 141.32 323.12 138.87 C331.8 134.72 332.98 134.43 341.9 134.35 C353.98
						 134.25 358.1 133.39 367.36 129.03 C375.87 125.03 378.53 121.56 375.33 118.66 C373.16 116.7 369.64 116.48
						 366.57 118.12 C363.48 119.78 361.67 117.69 364.49 115.71 C366.63 114.21 366.63 114.21 364.19 109.92 C362.49
						 106.92 362.04 105.1 362.71 103.9 C363.31 102.84 363.25 101.41 362.57 100.14 C361.97 99.01 361.73 97.43 362.04
						 96.62 C362.35 95.81 362.22 94.1 361.74 92.82 L360.88 90.49 L357.21 93.23 C355.19 94.74 351.82 96.87 349.71
						 97.97 L345.88 99.95 L343.54 97.45 C341.58 95.37 341.39 94.58 342.4 92.7 C343.06 91.46 343.34 89.6 343.01
						 88.56 C342.2 86.03 335.56 82.47 329.94 81.55 C323.6 80.51 319.85 82.31 317.51 87.49 C316.47 89.81 314.22
						 92.7 312.53 93.9 C309.85 95.81 309.54 96.55 310.13 99.69 C311.03 104.5 307.65 108.79 299.49 113.14 C293.97
						 116.09 293.09 117.03 291.17 122.08 C289.15 127.38 285.9 130.58 282.43 130.68 C281.72 130.71 280.41 129.31
						 279.52 127.59 C278.04 124.73 278.07 124.03 279.99 119.18 C282.23 113.5 282.19 113.39 277.38 112.34 C275.64
						 111.96 271.35 110.24 267.86 108.52 C264.37 106.81 260.19 105.13 258.57 104.81 C256.71 104.44 255.16 103.16
						 254.36 101.34 C253.67 99.76 252.49 98.08 251.75 97.62 C247.81 95.13 258.7 85.66 271.55 80.41 C275.52 78.79
						 277.37 77.44 277.37 76.15 C277.37 74.65 278.34 74.24 282.14 74.12 C284.76 74.03 288.97 73.37 291.51 72.65
						 L296.12 71.34 L293.81 68.88 C291.1 66 292.42 64.57 296.19 66.29 C298.22 67.21 299.47 67.1 302.04 65.77 C303.89
						 64.81 307.87 64.08 311.24 64.08 C318.22 64.08 320.59 63.04 325.24 57.95 C329.14 53.67 329.36 52.94 327.01
						 52.03 C323.36 50.63 319.47 51.45 316.97 54.14 C310.79 60.75 301.67 62.51 305.74 56.3 C307.21 54.06 307.23
						 53.62 305.9 53.11 C305.05 52.78 303.67 52.77 302.84 53.09 C300.54 53.97 298.7 49.8 300.18 47.04 C301.04
						 45.42 301.05 44.5 300.21 43.65 C300 43.44 299.72 43.31 299.35 43.27 L299.35 43.27 ZM570.12 48.28 C569.58
						 48.28 568.78 48.61 567.76 49.27 C566.47 50.1 566.63 50.3 568.55 50.32 C569.86 50.32 570.93 49.86 570.93
						 49.27 C570.93 48.61 570.65 48.28 570.12 48.28 L570.12 48.28 ZM282.18 50.7 C280.85 50.63 279.14 50.89 277.85
						 51.43 C275.39 52.45 274.99 53.01 275.95 54.17 C277.45 55.98 277.67 55.96 282.11 53.59 C285.6 51.74 285.65
						 51.62 283.36 50.9 C283.03 50.79 282.63 50.73 282.18 50.7 L282.18 50.7 ZM537.02 65.39 C536.19 65.45 535.2
						 65.69 533.83 66.1 C531.5 66.8 528.7 67.08 527.61 66.73 C524.47 65.74 515.17 69.21 514.54 71.62 C514.13 73.18
						 514.43 73.55 515.77 73.13 C516.74 72.82 518.96 73.51 520.7 74.66 C522.45 75.81 524.59 76.55 525.46 76.31
						 C535.09 73.69 539.08 72.24 541.23 70.57 L543.78 68.58 L540.92 66.71 C539.38 65.7 538.42 65.28 537.02 65.39
						 L537.02 65.39 ZM306.49 68.78 C304.08 68.61 302.25 69.67 299.83 72.34 C297.31 75.12 299.05 76.12 304.01 74.75
						 C306.93 73.95 308.55 74.04 310.64 75.14 C313.01 76.39 313.52 76.37 314.27 75.04 C315.45 72.95 313.51 70.8
						 309.13 69.36 C308.16 69.04 307.29 68.84 306.49 68.78 L306.49 68.78 ZM569.37 79.95 C568.5 79.95 567.79 80.34
						 567.79 80.83 C567.79 81.31 568.5 81.71 569.37 81.71 C570.24 81.71 570.96 81.31 570.96 80.83 C570.96 80.34
						 570.24 79.95 569.37 79.95 ZM658.57 89.77 C656.35 89.94 656 91.15 657.96 91.94 C660.15 92.82 660.51 92.71
						 660.51 91.13 C660.51 90.3 659.64 89.69 658.57 89.77 L658.57 89.77 ZM573.34 100.06 C570.43 100.12 567.3 105.6
						 568.66 108.24 C569.19 109.26 569.4 110.69 569.14 111.41 C568.68 112.68 569.99 113.18 572.82 112.82 C574.04
						 112.66 576.24 116.76 576.24 119.21 C576.24 119.78 574.82 120.75 573.07 121.36 C571.29 121.98 570.2 122.95
						 570.59 123.58 C570.97 124.19 570.41 125.33 569.34 126.11 C567.56 127.42 567.67 127.58 570.79 128.2 C575.35
						 129.11 575.94 130.49 572.34 131.79 C570.71 132.38 568.42 133.34 567.26 133.91 C565.64 134.71 566.01 134.79
						 568.84 134.27 C570.88 133.89 576.25 133.05 580.77 132.39 C586.93 131.5 588.7 130.9 587.8 130 C586.9 129.1
						 587.29 128.34 589.35 127 C592.38 125.01 592 122.82 588.76 123.67 C587.19 124.08 586.3 123.3 584.95 120.32
						 C582.13 114.1 579.37 110.55 576.5 109.46 L573.82 108.44 L578.57 103.39 L576.08 103.01 C574.72 102.81 573.72
						 102.06 573.86 101.34 C574.01 100.63 573.77 100.05 573.34 100.06 L573.34 100.06 ZM39.15 100.44 C38.72 100.4
						 38.03 100.48 37.17 100.69 C32.62 101.79 29.42 103.09 29.42 103.83 C29.42 104.2 30.25 104.18 31.27 103.78
						 C32.28 103.39 34.43 102.8 36.04 102.48 C37.66 102.15 39.24 101.45 39.57 100.92 C39.74 100.64 39.57 100.48
						 39.15 100.44 L39.15 100.44 ZM99.73 101.53 C99.48 101.59 99.14 101.79 98.71 102.15 C97.84 102.87 97.42 103.93
						 97.78 104.51 C98.17 105.14 98.79 105 99.34 104.12 C100.42 102.41 100.49 101.35 99.73 101.53 L99.73 101.53
						 ZM101.66 108.74 C101.22 108.64 100.57 108.89 99.77 109.56 C98.46 110.63 98.4 111.21 99.43 112.46 C100.55
						 113.81 100.87 113.72 101.73 111.78 C102.51 110.03 102.39 108.9 101.66 108.74 L101.66 108.74 ZM560.86 112.78
						 C558.93 112.87 556.95 113.37 556.24 114.22 C555.57 115.04 553.85 116 552.42 116.36 C549.72 117.03 549.03
						 118.48 550.87 119.61 C551.53 120.02 551.34 121.39 550.35 123.31 C549.48 124.98 549.07 127.13 549.43 128.07
						 C549.85 129.17 550.69 129.52 551.8 129.04 C552.74 128.63 555.54 127.6 558.01 126.74 C561.78 125.43 562.5
						 124.73 562.5 122.37 C562.5 120.82 563.25 118.49 564.15 117.2 C565.06 115.91 565.5 114.37 565.15 113.79 C564.66
						 113 562.78 112.68 560.86 112.78 L560.86 112.78 ZM570.32 116.27 C570.2 116.29 570.06 116.35 569.91 116.44
						 C569.33 116.8 568.85 117.3 568.85 117.56 C568.85 117.82 569.33 118.03 569.91 118.03 C570.49 118.03 570.97
						 117.52 570.97 116.91 C570.97 116.44 570.7 116.21 570.32 116.27 L570.32 116.27 ZM1118.23 121.31 C1118.12
						 121.31 1118.01 121.31 1117.92 121.34 C1117.09 121.62 1119.3 124.83 1123.65 129.69 C1127.55 134.03 1132.17
						 140.44 1133.92 143.94 C1135.66 147.43 1137.82 151.12 1138.72 152.14 C1140.17 153.78 1144.26 154.78 1144.26
						 153.49 C1144.26 153.22 1142.1 150.58 1139.47 147.62 C1134.96 142.54 1134.09 139.36 1137.57 140.69 C1140.6
						 141.85 1138.28 138.66 1133.6 135.21 C1127.94 131.04 1124.36 127.67 1121.45 123.8 C1120.4 122.4 1119.05 121.38
						 1118.23 121.31 L1118.23 121.31 ZM371.26 131.78 C370.6 131.78 366.74 135.08 362.66 139.12 L355.24 146.46
						 L359.18 146.87 C367.08 147.7 371.66 147.61 375.51 146.54 C379.17 145.52 379.36 145.28 378.27 142.89 C377.6
						 141.41 375.84 140.06 374.09 139.68 C370.06 138.79 368.56 136.06 370.77 133.63 C371.74 132.55 371.94 131.78
						 371.26 131.78 L371.26 131.78 ZM100.69 133.33 C100.37 133.33 100.07 133.38 99.8 133.49 C97.37 134.42 97.78
						 135.86 101.44 139.28 C103.25 140.97 105.63 142.35 106.73 142.35 C109.08 142.35 109.11 142.22 107.51 138.72
						 C106.18 135.79 102.94 133.34 100.69 133.33 L100.69 133.33 ZM246.53 142.14 C249.48 141.99 251.29 142.79 252.66
						 144.59 C253.72 145.99 254.33 148.08 254.03 149.27 C253.23 152.51 256.99 155.58 259.87 154.04 C263.9 151.88
						 269.37 156.79 267.22 160.63 C266.51 161.9 265.43 162.27 263.7 161.84 C261.84 161.37 261.05 161.73 260.57
						 163.26 C260.21 164.38 258.76 165.83 257.35 166.47 C255.28 167.41 254.35 167.29 252.53 165.82 L250.28 163.99
						 L252.48 161.21 C255.27 157.66 255.23 157.16 252.18 157.16 C247.95 157.16 242.69 161.56 239.86 167.46 C238.41
						 170.5 236.21 173.7 234.97 174.56 C232.96 175.97 232.55 175.95 231.09 174.32 C229.59 172.66 229.81 171.9
						 233.56 165.62 C238.05 158.11 241.26 155.53 247.45 154.49 C249.73 154.1 251.22 153.34 250.86 152.75 C250.5
						 152.18 249.09 151.98 247.73 152.32 C246.36 152.67 243.65 152.18 241.67 151.24 C238.38 149.67 237.82 149.67
						 234.8 151.22 C232.24 152.54 230.87 152.67 228.56 151.79 L225.61 150.67 L228.24 148.64 C229.69 147.53 231.25
						 146.61 231.73 146.6 C232.2 146.58 232.3 146.13 231.97 145.58 C231.63 145.03 232.2 144.62 233.23 144.66 C234.26
						 144.7 237.24 144.14 239.86 143.41 C242.59 142.65 244.77 142.22 246.53 142.13 L246.53 142.14 ZM365.73 148.7
						 C365.16 148.7 364.7 149.41 364.7 150.29 C364.7 151.16 364.89 151.87 365.12 151.87 C365.35 151.87 365.81
						 151.16 366.14 150.29 C366.48 149.41 366.29 148.7 365.73 148.7 ZM785.31 150.23 C788.72 150 791.69 151.63
						 794.17 155.11 C796.22 157.98 795.49 160.25 793.01 158.71 C791.17 157.58 786.86 159.15 785.66 161.4 C784.06
						 164.38 785.88 167.27 790.98 169.87 C793.29 171.05 795.18 172.5 795.18 173.09 C795.18 173.81 795.86 173.8
						 797.22 173.07 C798.92 172.16 799.64 172.5 801.46 175.04 C802.66 176.73 803.64 178.59 803.64 179.16 C803.64
						 180.62 800.81 181.55 798.77 180.77 C797.23 180.18 797.23 180.41 798.7 183.27 C799.6 184.99 801.08 187.02
						 801.99 187.78 C803.03 188.64 803.65 190.87 803.65 193.75 C803.65 197.78 803.25 198.56 800.52 199.97 C798.8
						 200.86 797.26 201.56 797.09 201.53 C796.91 201.5 793.5 199.8 789.5 197.75 L782.23 194.02 L782.76 188.55
						 C783.42 181.75 782.45 179.13 777.15 173.38 C774.85 170.89 772.97 168.14 772.97 167.27 C772.97 166.41 772.02
						 165.19 770.85 164.57 C767.73 162.89 768.21 161.54 773.74 156.47 C778.02 152.53 781.89 150.45 785.31 150.23
						 L785.31 150.23 ZM1143.81 158.75 C1142.92 158.47 1143.34 159.65 1144.83 162.53 C1146.28 165.33 1146.28 165.93
						 1144.88 167.93 C1143.45 169.97 1143.5 170.47 1145.44 173.19 C1148.02 176.82 1148.73 176.98 1148.29 173.82
						 C1147.94 171.24 1149.52 170.89 1155.1 172.32 C1157.28 172.88 1158.01 172.68 1158.01 171.53 C1158.01 170.69
						 1158.97 169.69 1160.14 169.32 C1163.24 168.34 1161.81 166.95 1155.86 165.18 C1152.98 164.33 1148.95 162.35
						 1146.91 160.8 C1145.36 159.62 1144.35 158.92 1143.81 158.75 L1143.81 158.75 ZM276.19 162.92 C277.14 162.86
						 278 162.97 278.57 163.29 C280.12 164.16 280.04 164.46 277.84 166 C274.74 168.17 269.49 168.32 269.49 166.23
						 C269.49 164.72 273.31 163.1 276.19 162.92 L276.19 162.92 ZM259.76 169.39 C260.68 169.29 261.22 169.6 261.89
						 170.27 C263.21 171.59 262.85 172.07 259.08 173.99 C256.71 175.21 253.79 176.2 252.6 176.2 C248.73 176.2
						 250.34 173.17 255.4 170.93 C257.56 169.98 258.85 169.48 259.76 169.38 L259.76 169.39 ZM620.88 170.39 C620.68
						 170.37 620.44 170.42 620.15 170.53 C618.51 171.16 618.05 173.21 619.27 174.44 C620.71 175.87 621.74 175.07
						 621.74 172.53 C621.74 171.12 621.49 170.45 620.88 170.39 L620.88 170.39 ZM619.43 178.62 C618.97 178.72 618.46
						 179.03 617.92 179.57 C616.73 180.76 616.66 181.76 617.58 184.39 C619.09 188.73 621.74 187.86 621.74 183.03
						 C621.74 179.95 620.8 178.33 619.43 178.62 L619.43 178.62 ZM1151.23 178.69 C1149.61 178.81 1149.88 181.17
						 1152.12 185.61 C1155.53 192.32 1154.77 194.31 1146.41 200.59 C1142.11 203.82 1140.06 204.73 1138.17 204.26
						 C1136.38 203.81 1134.73 204.41 1132.47 206.31 C1130.72 207.78 1128.72 209 1128.04 209.02 C1127.36 209.04
						 1127.63 209.54 1128.64 210.13 C1129.9 210.86 1131.76 210.85 1134.46 210.1 C1141.1 208.26 1144.01 208.69
						 1146.06 211.82 L1147.91 214.66 L1148.88 211.29 C1149.67 208.55 1150.39 207.93 1152.8 207.93 C1157.1 207.93
						 1160.87 206.23 1162.23 203.7 C1163.16 201.97 1163.03 200.44 1161.64 196.81 C1160.66 194.24 1160.14 191.4
						 1160.49 190.5 C1161.46 187.98 1158.13 182.02 1154.61 179.94 C1153.1 179.05 1151.97 178.63 1151.23 178.69
						 L1151.23 178.69 ZM594.96 183.63 C594.15 183.72 593.16 184.29 592.78 185.27 C592.33 186.42 592.67 186.83
						 593.9 186.59 C594.87 186.4 595.86 185.65 596.1 184.92 C596.43 183.95 595.78 183.55 594.96 183.63 ZM639 192.57
						 C638.08 192.57 637.22 192.64 636.56 192.82 C634.35 193.4 634.55 193.67 638.78 195.83 C642.99 197.99 643.5
						 198.05 644.15 196.46 C644.55 195.5 644.9 194.41 644.95 194.05 C645.03 193.25 641.76 192.57 639 192.57 ZM723.32
						 203.73 C722.86 203.64 722.2 203.96 721.7 204.76 C721.35 205.34 720.13 205.81 719 205.81 C716.99 205.81 716.32
						 206.95 717.58 208.21 C718.5 209.13 723.07 206.84 723.73 205.14 C724.04 204.32 723.79 203.82 723.32 203.73
						 L723.32 203.73 ZM682.57 204.86 L678.34 204.93 L681.51 206.38 C685.15 208.05 690.1 208.37 690.96 207 C691.72
						 205.76 687.84 204.77 682.57 204.86 L682.57 204.86 ZM1139.76 212.18 C1137.34 212.21 1135.72 213.9 1136.4
						 215.69 C1137.21 217.78 1138.09 217.9 1139.82 216.18 C1141.47 214.52 1141.44 212.16 1139.76 212.18 L1139.76
						 212.18 ZM1127.32 213.73 C1125.47 213.56 1125.43 215.8 1127.94 218.79 C1129.36 220.47 1130.51 222.52 1130.51
						 223.35 C1130.51 225.38 1132.24 225.27 1133.04 223.19 C1134.09 220.44 1132.6 216.62 1129.75 214.75 C1128.75
						 214.1 1127.94 213.78 1127.32 213.72 L1127.32 213.73 ZM311.19 215.7 C311.06 215.72 310.92 215.78 310.78 215.87
						 C310.2 216.23 309.72 216.73 309.72 216.99 C309.72 217.24 310.2 217.45 310.78 217.45 C311.36 217.45 311.84
						 216.95 311.84 216.33 C311.84 215.87 311.57 215.64 311.19 215.7 L311.19 215.7 ZM245.44 244.95 C244.34 244.95
						 243.43 245.67 243.43 246.54 C243.43 247.41 243.62 248.12 243.86 248.12 C244.1 248.12 245 247.41 245.87 246.54
						 C247.28 245.13 247.24 244.95 245.44 244.95 ZM250.17 245.11 C250.07 245.09 249.98 245.11 249.9 245.18 C249.61
						 245.47 249.68 246.51 250.06 247.49 C250.44 248.47 250.98 249.04 251.27 248.75 C251.56 248.45 251.5 247.41
						 251.12 246.43 C250.84 245.7 250.46 245.2 250.17 245.11 L250.17 245.11 ZM244.35 251.3 C242.47 251.3 242.23
						 253.86 243.92 255.8 C244.81 256.82 245.81 257.35 246.16 256.98 C246.5 256.6 246.24 256.1 245.57 255.86 C244.91
						 255.62 244.6 254.5 244.9 253.36 C245.2 252.23 244.95 251.3 244.35 251.3 ZM1102.13 254.89 C1101.23 254.63
						 1100.01 255.83 1098.46 258.47 C1096.87 261.2 1096.75 262.18 1097.82 264.2 C1098.52 265.54 1099.62 266.98
						 1100.26 267.4 C1101.8 268.42 1104.24 260.26 1103.39 256.91 C1103.09 255.71 1102.68 255.04 1102.13 254.89
						 L1102.13 254.89 ZM227.7 264.15 C222.03 264.34 215.59 266.45 215.59 268.38 C215.59 269.6 215.95 269.54 220.75
						 267.62 C225.88 265.57 230.13 266.53 237.76 271.47 C241.65 273.99 242.78 275.25 241.99 276.2 C241.18 277.18
						 241.97 277.51 245.29 277.55 C247.69 277.59 249.92 277.88 250.25 278.2 C250.99 278.95 253.41 278.81 256.84
						 277.84 C259.86 276.98 259.84 276.97 250.49 271.96 C239.11 265.87 235.86 264.64 230.07 264.2 C229.31 264.14
						 228.51 264.13 227.7 264.15 L227.7 264.15 ZM267.45 265.07 C266.37 265.11 265.2 265.42 264.85 266 C264.52
						 266.52 265.45 266.87 266.9 266.79 C268.35 266.7 269.53 266.28 269.53 265.84 C269.53 265.28 268.54 265.04
						 267.45 265.07 L267.45 265.07 ZM260.25 268.28 C259.71 268.28 258.92 268.62 257.89 269.28 C256.61 270.11 256.76
						 270.31 258.69 270.32 C260 270.32 261.07 269.86 261.07 269.28 C261.07 268.62 260.79 268.28 260.25 268.28
						 L260.25 268.28 ZM268.54 279.86 C263.49 279.86 263.19 280 264.21 281.91 C265.64 284.6 264.14 285.51 258.52
						 285.38 C254.69 285.29 254.49 285.4 256.77 286.31 C258.19 286.88 260.67 287.05 262.29 286.7 C263.9 286.34
						 265.99 286.49 266.94 287.02 C268.84 288.08 282.45 285.31 281.65 284.03 C280.46 282.1 273.42 279.86 268.54
						 279.86 L268.54 279.86 ZM1057.55 279.86 C1052.43 279.86 1049.66 283.21 1052.46 286.01 C1054.25 287.8 1055.6
						 287.1 1057.87 283.21 C1059.82 279.88 1059.82 279.86 1057.55 279.86 L1057.55 279.86 ZM298.16 284.61 C297.97
						 284.63 297.76 284.68 297.54 284.76 C296.67 285.1 295.96 285.56 295.96 285.79 C295.96 286.02 296.67 286.2
						 297.54 286.2 C298.42 286.2 299.13 285.74 299.13 285.18 C299.13 284.76 298.73 284.54 298.16 284.61 L298.16
						 284.61 ZM290.29 285.14 C287.52 285.14 285.96 286.43 287.22 287.69 C288.33 288.8 292.04 287.95 292.52 286.47
						 C292.8 285.65 291.95 285.14 290.29 285.14 L290.29 285.14 ZM240.44 285.18 C239.5 285.25 238.84 285.54 238.84
						 286.12 C238.84 286.65 239.44 287.32 240.16 287.62 C240.89 287.91 242.91 288.18 244.66 288.2 C247.67 288.25
						 247.73 288.17 245.78 286.7 C244.36 285.63 242 285.07 240.44 285.18 L240.44 285.18 ZM1106.33 286.4 C1105.02
						 286.32 1104.05 287.7 1104.05 290.57 C1104.05 292.32 1103.55 294.69 1102.94 295.84 C1101.35 298.8 1102.4
						 301.15 1107.82 306.72 C1111.65 310.67 1113.06 311.49 1115.11 310.98 C1116.51 310.63 1118.51 310.83 1119.57
						 311.43 C1121.96 312.78 1122.79 311.14 1120.89 308.84 C1120.09 307.88 1118.62 307.46 1117.26 307.8 C1115.66
						 308.2 1114.13 307.48 1112.09 305.36 C1109.27 302.42 1109.24 302.25 1110.82 298.47 C1112.29 294.95 1112.28
						 294.25 1110.72 290.97 C1109.31 288.02 1107.64 286.48 1106.33 286.4 L1106.33 286.4 ZM308.58 289.38 C307.96
						 289.38 307.75 289.85 308.11 290.44 C308.47 291.02 308.97 291.49 309.23 291.49 C309.49 291.49 309.7 291.02
						 309.7 290.44 C309.7 289.85 309.19 289.38 308.58 289.38 ZM313.33 289.38 C313.08 289.38 312.87 289.85 312.87
						 290.44 C312.87 291.02 313.37 291.49 313.99 291.49 C314.61 291.49 314.81 291.02 314.45 290.44 C314.1 289.85
						 313.59 289.38 313.33 289.38 ZM472.53 291.49 C471.91 291.49 471.7 291.97 472.06 292.55 C472.42 293.13 472.92
						 293.61 473.18 293.61 C473.44 293.61 473.65 293.13 473.65 292.55 C473.65 291.97 473.14 291.49 472.53 291.49
						 ZM304.28 291.98 C303.78 291.9 303.61 292.11 303.89 292.56 C304.25 293.14 304.99 293.61 305.53 293.61 C307.05
						 293.61 306.72 292.85 304.89 292.15 C304.65 292.06 304.45 292 304.28 291.98 L304.28 291.98 ZM314.35 295.03
						 C314.22 295.05 314.08 295.11 313.93 295.2 C313.35 295.55 312.88 296.32 312.88 296.91 C312.88 297.49 313.35
						 297.67 313.93 297.31 C314.52 296.95 314.99 296.18 314.99 295.6 C314.99 295.16 314.72 294.95 314.35 295.02
						 L314.35 295.03 ZM483.17 299.95 C482.59 299.95 482.11 300.43 482.11 301.01 C482.11 301.59 482.59 302.07 483.17
						 302.07 C483.75 302.07 484.22 301.59 484.22 301.01 C484.22 300.43 483.75 299.95 483.17 299.95 ZM317.51 303.49
						 C317.39 303.52 317.25 303.57 317.1 303.66 C316.52 304.02 316.05 304.52 316.05 304.78 C316.05 305.03 316.52
						 305.24 317.1 305.24 C317.69 305.24 318.16 304.74 318.16 304.12 C318.16 303.66 317.89 303.43 317.51 303.49
						 L317.51 303.49 ZM322.85 310.53 C322.6 310.53 322.39 311.01 322.39 311.59 C322.39 312.17 322.89 312.65 323.51
						 312.65 C324.13 312.65 324.33 312.17 323.97 311.59 C323.61 311.01 323.11 310.53 322.85 310.53 ZM1107.4 312.05
						 C1107.29 312.07 1107.22 312.17 1107.22 312.34 C1107.22 313.01 1107.99 314.33 1108.94 315.27 C1109.88 316.21
						 1110.92 316.71 1111.26 316.37 C1111.59 316.04 1110.82 314.72 1109.54 313.44 C1108.59 312.48 1107.76 311.97
						 1107.4 312.05 L1107.4 312.05 ZM273.16 312.65 C272.9 312.65 272.69 313.12 272.69 313.71 C272.69 314.29 273.2
						 314.77 273.81 314.77 C274.43 314.77 274.64 314.29 274.28 313.71 C273.92 313.12 273.42 312.65 273.16 312.65
						 ZM278.32 312.87 C278.11 312.84 277.98 312.99 277.98 313.32 C277.98 313.92 278.3 314.73 278.69 315.12 C279.07
						 315.51 279.64 315.58 279.94 315.27 C280.24 314.97 279.92 314.16 279.23 313.48 C278.85 313.1 278.54 312.9
						 278.32 312.87 L278.32 312.87 ZM1124.93 315.97 C1124.77 315.99 1124.63 316.06 1124.52 316.17 C1124.31 316.38
						 1125.12 317.82 1126.34 319.36 C1129.28 323.11 1132.37 323.33 1129.94 319.62 C1128.55 317.5 1126.1 315.79
						 1124.93 315.97 L1124.93 315.97 ZM1115.22 319.1 C1113.48 319.28 1112.53 321.43 1113.83 323 C1114.79 324.16
						 1115.26 323.98 1116.34 321.98 C1117.46 319.91 1117.41 319.47 1116.01 319.16 C1115.73 319.09 1115.47 319.08
						 1115.22 319.1 L1115.22 319.1 ZM1123.97 322.17 C1123.42 322.17 1123.17 322.53 1123.4 322.96 C1123.64 323.4
						 1124.16 324.66 1124.55 325.76 C1124.94 326.86 1125.47 327.55 1125.73 327.3 C1126.51 326.51 1125.03 322.17
						 1123.97 322.17 ZM1103.49 322.9 C1102.88 323.02 1101.62 324.25 1099.25 326.9 C1096.66 329.79 1094.54 332.53
						 1094.54 332.98 C1094.54 334.89 1097.14 333.54 1100.48 329.89 C1102.45 327.74 1104.04 325.01 1104.01 323.81
						 C1103.99 323.16 1103.86 322.83 1103.49 322.9 L1103.49 322.9 ZM309.43 323.23 C308.23 323.23 307.55 323.54
						 307.94 323.92 C308.32 324.3 308.1 325.26 307.45 326.04 C306.53 327.15 306.74 327.46 308.39 327.46 C309.63
						 327.46 310.75 326.57 311.07 325.34 C311.49 323.73 311.1 323.23 309.43 323.23 L309.43 323.23 ZM1118.56 325.75
						 C1118.26 325.78 1118 326.1 1117.62 326.77 C1117.14 327.63 1117.06 329.16 1117.45 330.16 C1118.1 331.87 1118.24
						 331.87 1119.55 330.07 C1120.62 328.61 1120.65 327.81 1119.72 326.68 C1119.2 326.05 1118.86 325.74 1118.56
						 325.75 L1118.56 325.75 ZM1130.69 328.35 C1130.58 328.35 1130.51 328.5 1130.51 328.83 C1130.49 329.88 1129.21
						 331.92 1127.65 333.36 C1125.5 335.36 1124.1 335.85 1121.9 335.36 C1119.63 334.86 1118.74 335.22 1117.78
						 337.01 C1116.62 339.18 1116.72 339.26 1119.82 338.58 C1122.92 337.9 1123.19 338.11 1125.21 342.82 C1126.78
						 346.48 1127.77 347.61 1129 347.14 C1129.91 346.78 1131.16 346.5 1131.76 346.5 C1132.41 346.5 1132.31 345.83
						 1131.51 344.86 C1129.49 342.44 1131.86 340.33 1134.31 342.37 C1135.96 343.73 1136.05 343.54 1135.37 339.9
						 C1134.58 335.71 1131.48 328.34 1130.69 328.35 L1130.69 328.35 ZM932.21 330.25 C931.92 330.39 931.7 330.95
						 931.36 331.86 C930.51 334.15 931.18 342.77 932.36 344.69 C933.01 345.75 937.21 344.48 938.23 342.92 C939.29
						 341.28 938.26 338.22 935.03 333.45 C933.34 330.96 932.69 330.02 932.21 330.25 L932.21 330.25 ZM1170.04 337.34
						 C1169.92 337.36 1169.78 337.42 1169.63 337.51 C1169.05 337.87 1168.58 338.64 1168.58 339.22 C1168.58 339.8
						 1169.05 339.98 1169.63 339.62 C1170.21 339.26 1170.69 338.49 1170.69 337.91 C1170.69 337.48 1170.42 337.27
						 1170.04 337.34 L1170.04 337.34 ZM1093.92 343.32 C1093.23 343.32 1091.42 344.95 1089.91 346.94 C1088.39 348.93
						 1085.53 351.09 1083.54 351.75 C1081.12 352.55 1079.51 353.98 1078.62 356.12 C1077.85 357.97 1075.69 360.13
						 1073.43 361.28 C1071.3 362.36 1068.99 364.5 1068.3 366.02 C1067.19 368.46 1066.76 368.64 1064.74 367.56
						 C1062.82 366.53 1062.19 366.66 1060.98 368.31 C1060.15 369.45 1059.79 371.42 1060.15 372.94 C1061.45 378.46
						 1063.87 386.21 1064.69 387.47 C1065.73 389.05 1076.18 391.18 1078.81 390.35 C1079.85 390.02 1081.99 390.43
						 1083.59 391.27 C1085.62 392.33 1087 392.47 1088.18 391.73 C1089.88 390.67 1096.66 376.71 1096.65 374.29
						 C1096.65 373.57 1097.83 372.21 1099.28 371.26 L1101.91 369.53 L1099.79 366.57 C1096.3 361.66 1096.14 358.1
						 1099.23 353.96 L1101.94 350.31 L1098.55 346.82 C1096.69 344.9 1094.61 343.32 1093.92 343.32 L1093.92 343.32
						 ZM1000.63 348.64 C998.48 348.6 1001.63 353.75 1006.73 358.66 C1009.16 360.99 1011.87 364.32 1012.76 366.06
						 C1013.65 367.81 1016.2 371.62 1018.42 374.53 C1020.63 377.44 1023.45 382.17 1024.68 385.04 C1026.96 390.36
						 1033.97 398.93 1037.86 401.14 C1042.04 403.52 1046.56 398.58 1045.32 392.97 C1044.95 391.26 1043.25 388.31
						 1041.54 386.42 C1039.84 384.53 1037.38 381.8 1036.07 380.34 C1034.77 378.89 1033.67 377.22 1033.64 376.64
						 C1033.46 373.55 1031.63 371.08 1027.78 368.71 C1023.79 366.25 1022.06 364.68 1013.61 355.86 C1010.54 352.66
						 1003.4 348.68 1000.62 348.64 L1000.63 348.64 ZM617.9 357.44 C617.77 357.46 617.64 357.51 617.49 357.6 C616.91
						 357.96 616.43 358.47 616.43 358.72 C616.43 358.98 616.91 359.19 617.49 359.19 C618.07 359.19 618.55 358.69
						 618.55 358.07 C618.55 357.61 618.28 357.37 617.9 357.44 L617.9 357.44 ZM1144.97 363.42 C1143.04 363.42 1140.65
						 367.16 1141.6 368.71 C1141.95 369.27 1141.75 370.61 1141.17 371.7 C1140.44 373.07 1140.49 374.05 1141.33
						 374.9 C1144.04 377.6 1145.87 374.55 1144.19 370.14 C1143.36 367.95 1143.51 366.93 1144.91 365.39 C1146.53
						 363.6 1146.53 363.42 1144.97 363.42 L1144.97 363.42 ZM1129.81 367.81 C1129.4 367.67 1128.31 368.17 1126.28
						 369.22 C1123.86 370.48 1122.1 370.59 1117.65 369.74 C1112.46 368.76 1111.88 368.86 1109.57 371.17 C1107.88
						 372.85 1106.83 375.51 1106.3 379.44 C1105.87 382.62 1104.71 386.36 1103.74 387.75 C1102.13 390.05 1102.12
						 390.52 1103.59 392.77 C1104.48 394.13 1104.92 396.17 1104.56 397.31 C1104.21 398.44 1104.21 399.85 1104.58
						 400.43 C1105.38 401.72 1106.25 401.76 1108.11 400.57 C1109.23 399.87 1109.28 398.8 1108.39 395.58 C1107.41
						 392.01 1107.53 391.21 1109.33 389.41 C1111.38 387.36 1111.41 387.37 1113.02 391.21 C1113.9 393.34 1115.58
						 395.59 1116.75 396.21 C1118.61 397.21 1118.87 397.01 1118.87 394.61 C1118.87 393.1 1118.15 390.5 1117.29
						 388.82 C1115.38 385.13 1116.08 382.9 1119.78 380.89 C1123.06 379.11 1120.98 378.83 1115.71 380.34 C1112.64
						 381.22 1111.72 381.07 1110.06 379.41 C1105.54 374.9 1114.1 369.87 1120.55 373.25 C1124.16 375.15 1127.59
						 373.94 1129.31 370.18 C1129.98 368.7 1130.24 367.94 1129.83 367.81 L1129.81 367.81 ZM611.57 370.13 C611.44
						 370.15 611.3 370.21 611.16 370.3 C610.58 370.66 610.1 371.16 610.1 371.42 C610.1 371.67 610.58 371.89 611.16
						 371.89 C611.74 371.89 612.22 371.38 612.22 370.76 C612.22 370.3 611.95 370.07 611.57 370.13 L611.57 370.13
						 ZM1164.01 378.27 C1162.73 378.29 1160.61 378.9 1159.29 379.63 C1156.96 380.93 1157.03 381.03 1161.91 383.4
						 C1166.51 385.64 1166.77 385.96 1165.01 387.24 C1162.04 389.41 1163.67 393.04 1167.6 393.04 C1169.32 393.04
						 1174.41 394.89 1178.91 397.16 C1185.46 400.45 1187.46 402.03 1188.91 405.08 C1190.72 408.87 1190.72 408.89
						 1188.03 410.65 C1185.7 412.18 1185.56 412.56 1187.01 413.38 C1187.94 413.9 1189.69 414.01 1190.89 413.63
						 C1192.08 413.25 1193.26 413.53 1194.64 414.52 L1194.64 385.73 C1194.46 385.65 1194.23 385.56 1194.06 385.48
						 L1187.3 382.43 L1182.43 385.23 C1179.74 386.76 1176.79 388.96 1175.87 390.12 C1174.21 392.19 1174.16 392.18
						 1171.91 389.31 C1170.65 387.72 1169.62 385.62 1169.62 384.67 C1169.62 381.8 1166.49 378.23 1164.01 378.27
						 L1164.01 378.27 ZM1144.64 388.81 C1142.54 388.81 1142.84 390.68 1145.03 391.25 C1147.74 391.96 1148.77 391.92
						 1151.06 391.02 C1152.81 390.34 1152.59 390.11 1149.61 389.51 C1147.67 389.12 1145.44 388.81 1144.64 388.81
						 ZM825.86 399.38 C825.28 399.38 824.81 399.86 824.81 400.44 C824.81 401.02 825.28 401.5 825.86 401.5 C826.45
						 401.5 826.92 401.02 826.92 400.44 C826.92 399.86 826.45 399.38 825.86 399.38 ZM1049.12 405.11 C1046.12 405.2
						 1043.75 406.11 1043.75 407.8 C1043.75 409.28 1054.06 412.31 1056.48 411.54 C1057.68 411.16 1060.9 411.58
						 1063.64 412.47 C1066.37 413.37 1071.7 414.54 1075.48 415.06 C1079.26 415.59 1082.93 416.08 1083.62 416.16
						 C1084.32 416.24 1085.13 415.91 1085.43 415.42 C1085.96 414.56 1079.61 411.02 1077.52 411.02 C1076.94 411.02
						 1075.14 410.04 1073.53 408.85 C1070.94 406.94 1070.02 406.82 1065.62 407.81 C1061.64 408.7 1060.15 408.61
						 1058.27 407.4 C1055.75 405.78 1052.12 405.03 1049.12 405.11 L1049.12 405.11 ZM1109.27 414.6 C1107.58 414.68
						 1107.16 415.5 1108.36 416.95 C1109.25 418.02 1110.74 418.26 1113.44 417.77 C1118.64 416.83 1118.66 416.62
						 1113.64 415.27 C1111.77 414.77 1110.29 414.55 1109.27 414.6 L1109.27 414.6 ZM1096.13 415.28 C1094.23 415.25
						 1092.34 415.56 1091.93 416.22 C1091.6 416.75 1091.93 417.44 1092.66 417.74 C1093.39 418.05 1094.94 418.1
						 1096.11 417.85 C1097.27 417.6 1098.85 417.39 1099.61 417.38 C1100.37 417.38 1100.7 416.89 1100.34 416.31
						 C1099.93 415.65 1098.03 415.3 1096.13 415.28 L1096.13 415.28 ZM1131.72 415.6 C1128.43 415.72 1125.23 417.52
						 1122.98 420.68 C1120.21 424.56 1121.73 424.52 1128.01 420.54 C1130.76 418.79 1134.23 417.32 1135.71 417.26
						 C1138.22 417.16 1138.18 417.07 1135.01 416.06 C1133.93 415.71 1132.82 415.56 1131.72 415.6 L1131.72 415.6
						 ZM1104.04 420.59 C1103.12 420.61 1103.56 421.23 1105.1 422.08 C1106.55 422.88 1107.96 423.31 1108.24 423.04
						 C1108.95 422.33 1105.93 420.57 1104.04 420.59 L1104.04 420.59 ZM1164.35 431.6 C1162.76 431.53 1161.48 431.98
						 1159.34 433.05 C1157.15 434.15 1154.16 435.34 1152.71 435.7 C1150 436.37 1144.46 443.32 1145.67 444.53 C1146.04
						 444.9 1145.83 445.83 1145.19 446.6 C1143.88 448.18 1141.13 447.15 1137.25 443.63 C1135.15 441.72 1134.77
						 441.7 1130.91 443.25 C1128.59 444.18 1125.71 446.49 1124.31 448.55 C1122.94 450.56 1120.92 452.49 1119.83
						 452.83 C1118.58 453.23 1117.94 454.3 1118.09 455.77 C1118.33 458.06 1117.72 458.3 1114.63 457.11 C1113.53
						 456.68 1112.25 458.01 1110.4 461.5 C1107.42 467.15 1102 471.31 1097.63 471.31 C1096.02 471.31 1089.43 473.54
						 1082.99 476.27 C1071.65 481.08 1071.24 481.36 1069.56 485.76 C1068.61 488.25 1068.1 491.31 1068.42 492.56
						 C1068.75 493.81 1068.52 499.09 1067.9 504.29 C1067.09 511.17 1067.11 515.41 1067.99 519.88 C1069.05 525.29
						 1068.96 526.59 1067.16 530.78 C1066.04 533.39 1064.37 535.82 1063.45 536.17 C1060.91 537.15 1062.55 539.82
						 1066.47 541.11 C1069.4 542.08 1071.04 541.85 1076.82 539.68 C1080.6 538.25 1086.96 536.74 1090.96 536.32
						 C1095.05 535.89 1100.36 534.5 1103.07 533.13 C1109.05 530.12 1118.19 527.79 1127.65 526.85 C1134.11 526.21
						 1135.25 526.39 1138.61 528.6 C1140.85 530.07 1143.34 533.13 1144.78 536.17 C1146.11 538.97 1147.37 540.78
						 1147.57 540.2 C1147.78 539.61 1150.09 537.7 1152.71 535.94 C1158.78 531.88 1160.57 533.3 1155.97 538.53
						 C1154.11 540.66 1152.88 542.71 1153.25 543.08 C1153.62 543.45 1154.39 542.92 1154.96 541.91 C1156.34 539.45
						 1158 539.57 1158 542.13 C1158 543.27 1158.52 545.35 1159.16 546.76 C1160.03 548.67 1160 549.93 1159.04 551.73
						 C1157.91 553.84 1158.06 554.39 1160.25 556.09 C1164.36 559.27 1169.48 560.31 1172.21 558.52 C1174.35 557.12
						 1174.76 557.21 1176.99 559.58 L1179.43 562.18 L1183.14 559.35 C1185.75 557.35 1188.19 556.49 1191.38 556.43
						 C1192.77 556.4 1193.77 556.32 1194.65 556.04 L1194.65 454.06 C1194.52 454.24 1194.44 454.4 1194.31 454.58
						 C1192.34 457.3 1190.15 459.72 1189.47 459.95 C1188.78 460.17 1184.55 457.78 1180.07 454.63 C1170.37 447.8
						 1169.32 445.46 1173.28 439.48 C1176.35 434.84 1176.07 434.48 1167.81 432.25 C1166.37 431.87 1165.3 431.64
						 1164.35 431.6 L1164.35 431.6 ZM794.85 434.27 L793.17 437.9 C790.98 442.65 781.82 450.73 777.58 451.66 C773.09
						 452.65 771.45 456.71 772.41 464.44 C773.08 469.8 772.86 470.75 769.83 475.68 C766.84 480.53 766.58 481.61
						 767.21 486.6 C767.99 492.84 768.41 493.74 771.4 495.43 C774.03 496.93 773.57 496.92 778.32 495.5 C782.77
						 494.16 784.32 491.47 787.04 480.3 C787.89 476.81 790.82 467.77 793.55 460.21 C798.65 446.09 798.95 443.27
						 796.02 436.83 L794.85 434.27 ZM772.92 435.35 C772.3 435.35 772.09 435.82 772.45 436.4 C772.81 436.98 773.31
						 437.46 773.57 437.46 C773.83 437.46 774.04 436.98 774.04 436.4 C774.04 435.82 773.53 435.35 772.92 435.35
						 ZM829.45 470.62 C829.32 470.64 829.18 470.69 829.04 470.78 C828.46 471.14 827.98 471.64 827.98 471.9 C827.98
						 472.16 828.46 472.37 829.04 472.37 C829.62 472.37 830.1 471.86 830.1 471.25 C830.1 470.79 829.83 470.55
						 829.45 470.62 L829.45 470.62 ZM821.64 474.48 C821.06 474.48 820.58 474.96 820.58 475.54 C820.58 476.12 821.06
						 476.6 821.64 476.6 C822.22 476.6 822.7 476.12 822.7 475.54 C822.7 474.96 822.22 474.48 821.64 474.48 ZM1168.62
						 571.08 C1167.65 570.97 1167.52 571.67 1167.52 573.91 C1167.52 575.73 1166.99 578.2 1166.35 579.4 C1165.45
						 581.08 1165.51 581.8 1166.61 582.49 C1168.54 583.72 1168.34 583.77 1173.35 580.83 C1177.56 578.36 1182.25
						 573.03 1180.49 572.7 C1180.04 572.61 1178.01 572.48 1175.97 572.41 C1173.94 572.33 1171.2 571.89 1169.9
						 571.43 C1169.36 571.24 1168.94 571.12 1168.62 571.08 L1168.62 571.08 ZM356.65 618.18 C353.97 618.16 353.08
						 618.55 353.6 619.39 C353.96 619.97 353.63 620.46 352.87 620.48 C352.09 620.5 352.37 621.02 353.51 621.68
						 C355.1 622.61 355.79 622.49 356.79 621.12 C357.49 620.17 358.46 619.39 358.95 619.39 C359.44 619.39 359.27
						 619.96 358.57 620.66 C357.87 621.36 357.3 622.31 357.3 622.77 C357.3 624.24 359.51 623.7 362.19 621.59 C365.07
						 619.32 364.6 618.64 359.94 618.32 C358.64 618.23 357.55 618.19 356.65 618.18 L356.65 618.18 ZM326.97 625.73
						 C326.17 625.73 325.03 627 324.44 628.56 C323.17 631.92 324.67 633.88 330.04 635.89 C331.94 636.61 334.87
						 636.99 336.54 636.75 C338.21 636.51 341.31 636.27 343.42 636.23 L347.25 636.14 L344.13 635.01 C342.42 634.39
						 338.18 632.04 334.72 629.8 C331.25 627.56 327.76 625.73 326.97 625.73 L326.97 625.73 Z" class="st1"/>
		</g>
		<g id="shape5-3" v:mID="5" v:groupContext="shape" transform="translate(214.771,-376.715)">
			<title>path1118</title>
			<path d="M0 573.36 L52.84 528.81 L52.84 552.51 C158.68 550.09 263.47 565.17 344.2 636.99 C286.33 597.57 214.28 567.39
						 52.84 596.59 L52.84 621.71 L0 573.36 Z" class="st2"/>
		</g>
		<g id="shape6-5" v:mID="6" v:groupContext="shape" transform="translate(626.881,-341.285)">
			<title>path1120</title>
			<path d="M0 619.48 L28.06 534.55 L44.89 561.16 C131.68 511.06 199.82 563.33 238.23 634.58 C195.47 575.07 132.49 577.2
						 73.98 609.79 L90.14 636.99 L0 619.48 Z" class="st2"/>
		</g>
		<g id="shape7-7" v:mID="7" v:groupContext="shape" transform="translate(874.604,-320.224)">
			<title>path1122</title>
			<path d="M0 614.64 L25.13 587.89 L26.2 601.24 C65.45 596.88 74.04 574.91 75.34 558.07 C79.02 593.98 65.56 617.59 28.15
						 624.03 L28.96 636.99 L0 614.64 Z" class="st2"/>
		</g>
		<g id="shape8-9" v:mID="8" v:groupContext="shape" transform="translate(948.3,-377.778)">
			<title>path1124</title>
			<path d="M89.67 606.42 L57.19 589.32 L60.53 602.29 C22.01 610.97 6.72 593 0 577.5 C8.23 612.65 28.66 630.59 66.12 624.48
						 L69.58 636.99 L89.67 606.42 Z" class="st2"/>
		</g>
		<g id="shape9-11" v:mID="9" v:groupContext="shape" transform="translate(588.879,-255.022)">
			<title>path1126</title>
			<path d="M0 627.83 L12.58 593.35 L18.82 605.2 C53.18 585.76 52.45 562.18 47.01 546.18 C64.52 577.75 61.44 604.76 29.58
						 625.4 L35.42 636.99 L0 627.83 Z" class="st2"/>
		</g>
		<g id="shape10-13" v:mID="10" v:groupContext="shape" transform="translate(366.746,-146.288)">
			<title>path1128</title>
			<path d="M0 614.16 L27.62 578.59 L30.88 594.46 C139.28 597.06 189.41 567.9 225.7 535.86 C178.35 597.31 83.58 617.66 36.61
						 621.55 L39.48 636.99 L0 614.16 Z" class="st2"/>
		</g>
	</g>
</svg>
