<svg id="Layer_1" data-name="Layer 1" xmlns="http://www.w3.org/2000/svg" viewBox="0 0 114 114"><defs><style>.cls-1{fill:#fd1e43;}</style></defs><path class="cls-1" d="M55,76.84V62.05a.4.4,0,0,0-.58-.35L39.55,69.14a.38.38,0,0,0-.22.35v14.8a.39.39,0,0,0,.57.35L54.79,77.2A.42.42,0,0,0,55,76.84Z"/><path class="cls-1" d="M74.85,69.94,59.58,61.72a.4.4,0,0,0-.59.35V76.85a.39.39,0,0,0,.21.35l15.28,8.22a.4.4,0,0,0,.58-.35V70.29A.39.39,0,0,0,74.85,69.94Z"/><path class="cls-1" d="M70.77,88.24,57.18,81.47a.38.38,0,0,0-.36,0L43.23,88.24a.4.4,0,0,0,0,.71l13.59,6.93a.45.45,0,0,0,.36,0L70.77,89A.4.4,0,0,0,70.77,88.24Z"/><path class="cls-1" d="M113.42,50.38,98.54,57.82a.4.4,0,0,0-.22.36V93.73a.4.4,0,0,0,.57.36l14.89-7.45a.39.39,0,0,0,.22-.35V50.74A.4.4,0,0,0,113.42,50.38Z"/><path class="cls-1" d="M94.12,57.82,79.23,50.38a.4.4,0,0,0-.58.36V86.29a.39.39,0,0,0,.22.35l14.89,7.45a.4.4,0,0,0,.58-.36V58.18A.42.42,0,0,0,94.12,57.82Z"/><path class="cls-1" d="M113.42,29.36,98.54,36.8a.4.4,0,0,0-.22.36V52a.39.39,0,0,0,.57.35l14.89-7.44a.4.4,0,0,0,.22-.35V29.71A.4.4,0,0,0,113.42,29.36Z"/><path class="cls-1" d="M94.12,36.8,79.23,29.36a.4.4,0,0,0-.58.35v14.8a.4.4,0,0,0,.22.35L93.76,52.3a.4.4,0,0,0,.58-.35V37.16A.42.42,0,0,0,94.12,36.8Z"/><path class="cls-1" d="M110.1,25.05,96.51,18.12a.45.45,0,0,0-.36,0L82.56,25.05a.4.4,0,0,0,0,.71l13.59,6.77a.36.36,0,0,0,.35,0l13.59-6.77A.4.4,0,0,0,110.1,25.05Z"/><path class="cls-1" d="M34.77,29.36,19.88,36.8a.42.42,0,0,0-.22.36V73a.4.4,0,0,0,.58.36l14.89-7.45a.39.39,0,0,0,.22-.35V29.71A.4.4,0,0,0,34.77,29.36Z"/><path class="cls-1" d="M15.46,36.8.58,29.36a.4.4,0,0,0-.58.35V65.53a.39.39,0,0,0,.22.35l14.89,7.45a.4.4,0,0,0,.57-.36V37.16A.4.4,0,0,0,15.46,36.8Z"/><path class="cls-1" d="M31.44,25.05,17.85,18.12a.45.45,0,0,0-.36,0L3.9,25.05a.4.4,0,0,0,0,.71L17.5,32.53a.36.36,0,0,0,.35,0l13.59-6.77A.4.4,0,0,0,31.44,25.05Z"/><path class="cls-1" d="M34.77,71.14,19.88,78.58a.42.42,0,0,0-.22.36V93.73a.4.4,0,0,0,.58.36l14.89-7.45a.39.39,0,0,0,.22-.35V71.49A.4.4,0,0,0,34.77,71.14Z"/><path class="cls-1" d="M15.46,78.58.58,71.14a.4.4,0,0,0-.58.35v14.8a.39.39,0,0,0,.22.35l14.89,7.45a.4.4,0,0,0,.57-.36V78.94A.4.4,0,0,0,15.46,78.58Z"/></svg>