<svg fill="none" fill-rule="evenodd" stroke="#000" stroke-width=".501" stroke-linejoin="bevel" stroke-miterlimit="10" font-family="Times New Roman" font-size="16" style="font-variant-ligatures:none" xmlns="http://www.w3.org/2000/svg" overflow="visible" width="1136" height="300" viewBox="0 0 852 225" transform="scale(1 -1)"><defs><linearGradient id="a" gradientUnits="userSpaceOnUse" x1="0" y1="0" x2="0" y2="-60.46" gradientTransform="translate(102.85 61.326)"><stop offset="0" stop-color="#95e345"/><stop offset=".23" stop-color="#8dd93f"/><stop offset=".7" stop-color="#48a325"/><stop offset=".72" stop-color="#47a025"/><stop offset="1" stop-color="#47a025"/></linearGradient><linearGradient id="b" gradientUnits="userSpaceOnUse" x1="0" y1="0" x2="59.08" y2="0" gradientTransform="rotate(44.993 -78.864 243.669)"><stop offset="0" stop-color="#95e345"/><stop offset=".28" stop-color="#8cd73f"/><stop offset=".8" stop-color="#47a025"/><stop offset="1" stop-color="#47a025"/></linearGradient><linearGradient id="c" gradientUnits="userSpaceOnUse" x1="0" y1="0" x2="-41.781" y2="41.771" gradientTransform="translate(56.493 127.107)"><stop offset="0" stop-color="#95e345"/><stop offset=".28" stop-color="#8cd73f"/><stop offset=".8" stop-color="#47a025"/><stop offset="1" stop-color="#47a025"/></linearGradient></defs><g stroke-linejoin="miter" stroke="none"><g fill-rule="nonzero" stroke-width="2.262" fill="#1d2741"><path d="M315.989 71.557c-3.445-4.312-9.483-7.762-16.376-10.349-6.898-2.584-14.656-3.449-23.28-3.449-8.619 0-16.377 1.727-23.277 6.036-6.891 4.31-12.065 9.48-15.513 17.244-3.448 7.758-5.176 16.377-5.176 25.858v6.038c0 10.342 1.728 18.961 5.176 26.721 3.448 7.758 8.622 12.931 14.654 17.241 6.897 4.312 13.791 6.038 23.277 6.038 12.071 0 21.55-2.588 28.45-8.621 6.894-6.036 11.201-14.658 12.065-25.001h-20.686c-.867 6.035-3.448 10.343-6.038 12.931-2.588 2.584-7.758 4.31-12.932 4.31-6.895 0-12.929-2.588-16.377-7.758-3.448-5.171-6.033-13.791-6.033-24.141v-6.894c0-10.345 1.721-18.964 6.033-24.139 4.312-5.173 10.344-8.621 18.103-8.621 7.758 0 13.796 1.726 17.241 5.174v18.103h-18.967v15.517h40.521V71.557zM367.716 115.519c-2.587 0-5.174.86-7.76.86-7.758 0-12.93-2.584-15.516-7.756V58.624h-20.691v75.86h18.965l.863-9.479c4.309 6.891 9.481 10.343 17.24 10.343 2.587 0 4.312 0 6.037-.864l.862-18.965zM416.863 58.624c-.861 1.722-1.726 4.309-1.726 6.893-5.171-5.171-11.205-8.619-18.965-8.619-7.759 0-13.795 2.588-18.965 6.897-5.171 4.31-7.758 9.48-7.758 16.38 0 7.759 2.587 14.653 8.618 18.963 6.036 4.311 14.658 6.898 25.865 6.898h9.482v4.312c0 3.447-.86 6.031-2.586 8.619-1.724 1.726-4.312 3.45-8.62 3.45-3.45 0-6.036-.862-7.76-2.586-1.723-1.724-2.583-4.312-2.583-6.896h-20.691c0 4.31 1.721 8.62 4.309 12.07 2.584 3.445 6.894 6.891 11.208 8.62 4.31 1.723 10.345 3.445 16.375 3.445 9.488 0 17.247-2.586 22.419-6.895 5.172-4.31 8.62-11.208 8.62-19.827V77.587c0-6.898.859-12.93 3.448-16.379v-.862h-20.69zm-17.239 13.791c2.584 0 6.03.86 8.618 1.724 2.586 1.724 4.312 3.448 6.033 5.176v12.931h-7.759c-10.344 0-15.515-3.449-16.378-10.349v-.858c0-2.59.863-4.312 2.587-6.038 1.723-1.726 3.447-2.586 6.899-2.586zM510.832 95.69c0-12.068-2.588-21.551-7.762-28.445-5.174-6.899-12.929-10.347-21.552-10.347-7.755 0-13.795 2.588-18.965 7.759v-36.21h-20.689v106.037h19.828l.861-7.759c5.17 6.033 11.21 8.623 18.965 8.623 9.484 0 16.378-3.452 21.552-10.343 5.174-6.898 7.762-16.382 7.762-28.449v-.866zm-19.83 1.726c0 6.9-.861 12.932-3.448 16.379-2.587 3.45-6.036 6.036-11.209 6.036-6.034 0-11.208-2.586-12.929-7.764V81.039c2.588-5.176 6.895-7.764 12.929-7.764 9.481 0 14.657 8.622 14.657 24.141zM536.692 126.725c5.17 6.9 12.07 9.483 20.691 9.483 16.378 0 24.999-9.483 24.999-28.447V58.624h-20.691v48.273c0 4.31-.859 7.758-2.588 9.482-1.72 1.728-5.17 3.452-9.479 3.452-6.038 0-10.348-2.586-12.932-6.896V58.624h-20.689v107.761h20.689v-39.66z"/></g><g fill-rule="nonzero" stroke-width="2.262" fill="#47a025"><path d="M661.214 100.004l-11.207-12.07v-29.31h-21.553v102.585h21.553v-46.554l9.481 12.934 25.866 33.62h25.858l-36.206-45.69 37.07-56.895h-25.001l-25.861 41.38zM712.94 154.314c0 3.445.86 5.171 3.448 7.755 1.722 1.728 5.17 2.586 8.622 2.586 3.448 0 6.031-.858 8.619-2.586 1.722-1.722 3.45-4.31 3.45-7.755 0-3.448-.862-6.036-3.45-7.76-1.724-1.726-5.171-2.588-8.619-2.588-3.452 0-6.034.862-8.622 2.588-2.588 2.585-3.448 5.172-3.448 7.76zm21.551-95.69H713.8v75.86h20.691v-75.86zM770.539 153.447v-18.963h12.936v-14.653h-12.936V81.897c0-2.582.867-5.17 1.729-6.034.859-.862 3.446-1.724 6.033-1.724 2.586 0 4.308 0 6.037.862V59.486c-4.312-.862-7.761-1.727-12.07-1.727-14.658 0-21.551 6.898-21.551 21.556v41.374h-11.208v14.659h11.208v18.966h19.822zM829.789 79.315c0 2.582-.864 4.307-3.449 6.031-2.586 1.724-6.037 2.588-12.068 3.451-18.107 3.449-27.591 11.207-27.591 23.27 0 6.9 2.588 12.071 8.622 17.246 6.036 4.312 12.931 6.895 22.417 6.895 9.481 0 17.241-2.583 23.275-6.895 6.036-4.308 8.619-10.346 8.619-18.106h-20.689c0 2.588-.864 5.172-2.585 6.9-1.727 1.724-5.174 2.586-8.62 2.586-3.448 0-6.036-.862-7.758-2.586-1.728-1.728-2.59-3.452-2.59-6.04 0-2.581.862-4.306 3.45-5.17 1.72-1.723 6.032-2.581 11.208-3.448 5.171-.863 9.483-2.585 12.931-3.445 10.341-4.314 16.379-11.207 16.379-20.689 0-6.9-2.586-12.934-8.621-17.246-6.036-4.31-13.794-6.033-23.277-6.033-6.032 0-12.07.862-17.239 3.45-5.176 2.583-8.622 5.171-12.07 9.483-2.588 4.306-4.312 8.618-4.312 12.928h18.963c0-3.448 1.726-6.034 4.314-8.622 2.586-1.718 6.032-2.586 10.344-2.586 4.312 0 6.898.868 8.619 2.586.864 1.726 1.728 4.312 1.728 6.04z"/></g><g stroke-width="1.012"><path d="M102.85 92.559c-9.19-.006-16.643 7.441-16.647 16.631-.004 9.19 7.444 16.642 16.634 16.644 9.19.002 16.641-7.447 16.641-16.637-.006-9.183-7.446-16.627-16.628-16.638z" fill="#1d2741"/><path d="M97.729 1.593L28.461 41.516a21.398 21.398 0 0110.223 17.719l64.166-36.973 64.167 37.044a21.404 21.404 0 0110.201-17.729L107.972 1.593a10.242 10.242 0 00-10.243 0zm0 98.744c-4.891 2.827-6.564 9.081-3.738 13.971 2.826 4.891 9.081 6.564 13.971 3.738l69.246-39.982a21.355 21.355 0 01-10.202-17.728zM7.054 78.619v79.945c0 3.653 1.948 7.032 5.113 8.86l69.278 39.972a21.409 21.409 0 0110.233-17.719l-64.157-37.042V78.599a21.4 21.4 0 01-20.467 0zm175.783 71.325l-68.825 39.733a21.426 21.426 0 0110.233 17.719l68.816-39.733a10.236 10.236 0 00.191-17.933 10.234 10.234 0 00-10.415.214z" fill="#47a025"/><path d="M92.617 11.089v40.003a10.235 10.235 0 0015.437 9.131 10.236 10.236 0 005.019-9.131V11.089a10.234 10.234 0 00-20.456 0z" fill="url(#a)"/><path d="M157.874 129.139l34.629 19.991a10.234 10.234 0 01.193 17.933 10.237 10.237 0 01-10.415-.215l-34.629-19.991a10.232 10.232 0 01-3.475-13.814 10.23 10.23 0 0113.697-3.904z" fill="url(#b)"/><path d="M47.806 129.139L13.177 149.13a10.234 10.234 0 00-.193 17.933 10.237 10.237 0 0010.415-.215l34.629-19.991a10.232 10.232 0 003.475-13.814 10.23 10.23 0 00-13.697-3.904z" fill="url(#c)"/><circle transform="translate(17.287 59.819)" fill="#1d2741" fill-rule="nonzero" r="16.626"/><circle transform="translate(102.96 208.154)" fill="#1d2741" fill-rule="nonzero" r="16.626"/><circle transform="translate(188.361 59.819)" fill="#1d2741" fill-rule="nonzero" r="16.626"/><circle transform="translate(102.849 109.197)" fill="#fff" fill-rule="nonzero" r="6.06"/><circle transform="translate(153.115 137.664)" fill="#fff" fill-rule="nonzero" r="6.06"/><circle transform="translate(52.573 138.048)" fill="#fff" fill-rule="nonzero" r="6.06"/><path d="M97.446 54.254a6.06 6.06 0 008.278 2.227 6.061 6.061 0 10-8.278-2.227z" fill="#fff"/></g></g></svg>