<svg xmlns="http://www.w3.org/2000/svg" xmlns:xlink="http://www.w3.org/1999/xlink" viewBox="0 0 1333 1333" id="body_1">
<defs>
<clipPath  id="1">
<path clip-rule="evenodd" d="M0 -1000L1000 -1000L1000 0L0 0z" /></clipPath>
<clipPath  id="2">
<path clip-rule="evenodd" d="M1000 -1000L0 -1000L0 0L1000 0L1000 -1000z" /></clipPath>
<clipPath  id="3">
<path clip-rule="evenodd" d="M1000 -1000L0 -1000L0 0L1000 0L1000 -1000z" /></clipPath>
<clipPath  id="4">
<path clip-rule="evenodd" d="M1000 -1000L0 -1000L0 0L1000 0L1000 -1000z" /></clipPath>
<clipPath  id="5">
<path clip-rule="evenodd" d="M1000 -1000L0 -1000L0 0L1000 0L1000 -1000z" /></clipPath>
<clipPath  id="6">
<path clip-rule="evenodd" d="M1000 -1000L0 -1000L0 0L1000 0L1000 -1000z" /></clipPath>
<clipPath  id="7">
<path clip-rule="evenodd" d="M1000 -1000L0 -1000L0 0L1000 0L1000 -1000z" /></clipPath>
<clipPath  id="8">
<path clip-rule="evenodd" d="M1000 -1000L0 -1000L0 0L1000 0L1000 -1000z" /></clipPath>
<clipPath  id="9">
<path clip-rule="evenodd" d="M1000 -1000L0 -1000L0 0L1000 0L1000 -1000z" /></clipPath>
<clipPath  id="10">
<path clip-rule="evenodd" d="M1000 -1000L0 -1000L0 0L1000 0L1000 -1000z" /></clipPath>
<clipPath  id="11">
<path clip-rule="evenodd" d="M1000 -1000L0 -1000L0 0L1000 0L1000 -1000z" /></clipPath>
<clipPath  id="12">
<path clip-rule="evenodd" d="M1000 -1000L0 -1000L0 0L1000 0L1000 -1000z" /></clipPath>
<clipPath  id="13">
<path clip-rule="evenodd" d="M1000 -1000L0 -1000L0 0L1000 0L1000 -1000z" /></clipPath>
<clipPath  id="14">
<path clip-rule="evenodd" d="M1000 -1000L0 -1000L0 0L1000 0L1000 -1000z" /></clipPath>
<clipPath  id="15">
<path clip-rule="evenodd" d="M1000 -1000L0 -1000L0 0L1000 0L1000 -1000z" /></clipPath>
<clipPath  id="16">
<path clip-rule="evenodd" d="M1000 -1000L0 -1000L0 0L1000 0L1000 -1000z" /></clipPath>
<clipPath  id="17">
<path clip-rule="evenodd" d="M1000 -1000L0 -1000L0 0L1000 0L1000 -1000z" /></clipPath>
<clipPath  id="18">
<path clip-rule="evenodd" d="M1000 -1000L0 -1000L0 0L1000 0L1000 -1000z" /></clipPath>
<clipPath  id="19">
<path clip-rule="evenodd" d="M1000 -1000L0 -1000L0 0L1000 0L1000 -1000z" /></clipPath>
<clipPath  id="20">
<path clip-rule="evenodd" d="M1000 -1000L0 -1000L0 0L1000 0L1000 -1000z" /></clipPath>
<clipPath  id="21">
<path clip-rule="evenodd" d="M1000 -1000L0 -1000L0 0L1000 0L1000 -1000z" /></clipPath>
<clipPath  id="22">
<path clip-rule="evenodd" d="M1000 -1000L0 -1000L0 0L1000 0L1000 -1000z" /></clipPath>
<clipPath  id="23">
<path clip-rule="evenodd" d="M1000 -1000L0 -1000L0 0L1000 0L1000 -1000z" /></clipPath>
<clipPath  id="24">
<path clip-rule="evenodd" d="M1000 -1000L0 -1000L0 0L1000 0L1000 -1000z" /></clipPath>
<clipPath  id="25">
<path clip-rule="evenodd" d="M1000 -1000L0 -1000L0 0L1000 0L1000 -1000z" /></clipPath>
<clipPath  id="26">
<path clip-rule="evenodd" d="M1000 -1000L0 -1000L0 0L1000 0L1000 -1000z" /></clipPath>
<clipPath  id="27">
<path clip-rule="evenodd" d="M1000 -1000L0 -1000L0 0L1000 0L1000 -1000z" /></clipPath>
<clipPath  id="28">
<path clip-rule="evenodd" d="M1000 -1000L0 -1000L0 0L1000 0L1000 -1000z" /></clipPath>
<clipPath  id="29">
<path clip-rule="evenodd" d="M1000 -1000L0 -1000L0 0L1000 0L1000 -1000z" /></clipPath>
<clipPath  id="30">
<path clip-rule="evenodd" d="M1000 -1000L0 -1000L0 0L1000 0L1000 -1000z" /></clipPath>
<clipPath  id="31">
<path clip-rule="evenodd" d="M1000 -1000L0 -1000L0 0L1000 0L1000 -1000z" /></clipPath>
<clipPath  id="32">
<path clip-rule="evenodd" d="M1000 -1000L0 -1000L0 0L1000 0L1000 -1000z" /></clipPath>
<clipPath  id="33">
<path clip-rule="evenodd" d="M1000 -1000L0 -1000L0 0L1000 0L1000 -1000z" /></clipPath>
<clipPath  id="34">
<path clip-rule="evenodd" d="M1000 -1000L0 -1000L0 0L1000 0L1000 -1000z" /></clipPath>
<clipPath  id="35">
<path clip-rule="evenodd" d="M1000 -1000L0 -1000L0 0L1000 0L1000 -1000z" /></clipPath>
<clipPath  id="36">
<path clip-rule="evenodd" d="M1000 -1000L0 -1000L0 0L1000 0L1000 -1000z" /></clipPath>
<clipPath  id="37">
<path clip-rule="evenodd" d="M1000 -1000L0 -1000L0 0L1000 0L1000 -1000z" /></clipPath>
<clipPath  id="38">
<path clip-rule="evenodd" d="M1000 -1000L0 -1000L0 0L1000 0L1000 -1000z" /></clipPath>
<clipPath  id="39">
<path clip-rule="evenodd" d="M1000 -1000L0 -1000L0 0L1000 0L1000 -1000z" /></clipPath>
<clipPath  id="40">
<path clip-rule="evenodd" d="M1000 -1000L0 -1000L0 0L1000 0L1000 -1000z" /></clipPath>
<clipPath  id="41">
<path clip-rule="evenodd" d="M1000 -1000L0 -1000L0 0L1000 0L1000 -1000z" /></clipPath>
<clipPath  id="42">
<path clip-rule="evenodd" d="M1000 -1000L0 -1000L0 0L1000 0L1000 -1000z" /></clipPath>
<clipPath  id="43">
<path clip-rule="evenodd" d="M1000 -1000L0 -1000L0 0L1000 0L1000 -1000z" /></clipPath>
<clipPath  id="44">
<path clip-rule="evenodd" d="M1000 -1000L0 -1000L0 0L1000 0L1000 -1000z" /></clipPath>
<clipPath  id="45">
<path clip-rule="evenodd" d="M1000 -1000L0 -1000L0 0L1000 0L1000 -1000z" /></clipPath>
<clipPath  id="46">
<path clip-rule="evenodd" d="M1000 -1000L0 -1000L0 0L1000 0L1000 -1000z" /></clipPath>
<clipPath  id="47">
<path clip-rule="evenodd" d="M1000 -1000L0 -1000L0 0L1000 0L1000 -1000z" /></clipPath>
<clipPath  id="48">
<path clip-rule="evenodd" d="M1000 -1000L0 -1000L0 0L1000 0L1000 -1000z" /></clipPath>
<clipPath  id="49">
<path clip-rule="evenodd" d="M1000 -1000L0 -1000L0 0L1000 0L1000 -1000z" /></clipPath>
<clipPath  id="50">
<path clip-rule="evenodd" d="M1000 -1000L0 -1000L0 0L1000 0L1000 -1000z" /></clipPath>
<clipPath  id="51">
<path clip-rule="evenodd" d="M1000 -1000L0 -1000L0 0L1000 0L1000 -1000z" /></clipPath>
<clipPath  id="52">
<path clip-rule="evenodd" d="M1000 -1000L0 -1000L0 0L1000 0L1000 -1000z" /></clipPath>
<clipPath  id="53">
<path clip-rule="evenodd" d="M1000 -1000L0 -1000L0 0L1000 0L1000 -1000z" /></clipPath>
<clipPath  id="54">
<path clip-rule="evenodd" d="M1000 -1000L0 -1000L0 0L1000 0L1000 -1000z" /></clipPath>
<clipPath  id="55">
<path clip-rule="evenodd" d="M1000 -1000L0 -1000L0 0L1000 0L1000 -1000z" /></clipPath>
<clipPath  id="56">
<path clip-rule="evenodd" d="M1000 -1000L0 -1000L0 0L1000 0L1000 -1000z" /></clipPath>
<clipPath  id="57">
<path clip-rule="evenodd" d="M1000 -1000L0 -1000L0 0L1000 0L1000 -1000z" /></clipPath>
<clipPath  id="58">
<path clip-rule="evenodd" d="M1000 -1000L0 -1000L0 0L1000 0L1000 -1000z" /></clipPath>
<clipPath  id="59">
<path clip-rule="evenodd" d="M1000 -1000L0 -1000L0 0L1000 0L1000 -1000z" /></clipPath>
<clipPath  id="60">
<path clip-rule="evenodd" d="M1000 -1000L0 -1000L0 0L1000 0L1000 -1000z" /></clipPath>
<clipPath  id="61">
<path clip-rule="evenodd" d="M1000 -1000L0 -1000L0 0L1000 0L1000 -1000z" /></clipPath>
<clipPath  id="62">
<path clip-rule="evenodd" d="M1000 -1000L0 -1000L0 0L1000 0L1000 -1000z" /></clipPath>
<clipPath  id="63">
<path clip-rule="evenodd" d="M1000 -1000L0 -1000L0 0L1000 0L1000 -1000z" /></clipPath>
<clipPath  id="64">
<path clip-rule="evenodd" d="M1000 -1000L0 -1000L0 0L1000 0L1000 -1000z" /></clipPath>
<clipPath  id="65">
<path clip-rule="evenodd" d="M1000 -1000L0 -1000L0 0L1000 0L1000 -1000z" /></clipPath>
<clipPath  id="66">
<path clip-rule="evenodd" d="M1000 -1000L0 -1000L0 0L1000 0L1000 -1000z" /></clipPath>
<clipPath  id="67">
<path clip-rule="evenodd" d="M1000 -1000L0 -1000L0 0L1000 0L1000 -1000z" /></clipPath>
<clipPath  id="68">
<path clip-rule="evenodd" d="M1000 -1000L0 -1000L0 0L1000 0L1000 -1000z" /></clipPath>
<clipPath  id="69">
<path clip-rule="evenodd" d="M1000 -1000L0 -1000L0 0L1000 0L1000 -1000z" /></clipPath>
<clipPath  id="70">
<path clip-rule="evenodd" d="M1000 -1000L0 -1000L0 0L1000 0L1000 -1000z" /></clipPath>
<clipPath  id="71">
<path clip-rule="evenodd" d="M1000 -1000L0 -1000L0 0L1000 0L1000 -1000z" /></clipPath>
<clipPath  id="72">
<path clip-rule="evenodd" d="M1000 -1000L0 -1000L0 0L1000 0L1000 -1000z" /></clipPath>
<clipPath  id="73">
<path clip-rule="evenodd" d="M1000 -1000L0 -1000L0 0L1000 0L1000 -1000z" /></clipPath>
<clipPath  id="74">
<path clip-rule="evenodd" d="M1000 -1000L0 -1000L0 0L1000 0L1000 -1000z" /></clipPath>
<clipPath  id="75">
<path clip-rule="evenodd" d="M1000 -1000L0 -1000L0 0L1000 0L1000 -1000z" /></clipPath>
<clipPath  id="76">
<path clip-rule="evenodd" d="M1000 -1000L0 -1000L0 0L1000 0L1000 -1000z" /></clipPath>
<clipPath  id="77">
<path clip-rule="evenodd" d="M1000 -1000L0 -1000L0 0L1000 0L1000 -1000z" /></clipPath>
<clipPath  id="78">
<path clip-rule="evenodd" d="M1000 -1000L0 -1000L0 0L1000 0L1000 -1000z" /></clipPath>
<clipPath  id="79">
<path clip-rule="evenodd" d="M1000 -1000L0 -1000L0 0L1000 0L1000 -1000z" /></clipPath>
<clipPath  id="80">
<path clip-rule="evenodd" d="M1000 -1000L0 -1000L0 0L1000 0L1000 -1000z" /></clipPath>
<clipPath  id="81">
<path clip-rule="evenodd" d="M1000 -1000L0 -1000L0 0L1000 0L1000 -1000z" /></clipPath>
<clipPath  id="82">
<path clip-rule="evenodd" d="M1000 -1000L0 -1000L0 0L1000 0L1000 -1000z" /></clipPath>
<clipPath  id="83">
<path clip-rule="evenodd" d="M1000 -1000L0 -1000L0 0L1000 0L1000 -1000z" /></clipPath>
<clipPath  id="84">
<path clip-rule="evenodd" d="M1000 -1000L0 -1000L0 0L1000 0L1000 -1000z" /></clipPath>
<clipPath  id="85">
<path clip-rule="evenodd" d="M1000 -1000L0 -1000L0 0L1000 0L1000 -1000z" /></clipPath>
<clipPath  id="86">
<path clip-rule="evenodd" d="M1000 -1000L0 -1000L0 0L1000 0L1000 -1000z" /></clipPath>
<clipPath  id="87">
<path clip-rule="evenodd" d="M1000 -1000L0 -1000L0 0L1000 0L1000 -1000z" /></clipPath>
<clipPath  id="88">
<path clip-rule="evenodd" d="M1000 -1000L0 -1000L0 0L1000 0L1000 -1000z" /></clipPath>
<clipPath  id="89">
<path clip-rule="evenodd" d="M1000 -1000L0 -1000L0 0L1000 0L1000 -1000z" /></clipPath>
<clipPath  id="90">
<path clip-rule="evenodd" d="M1000 -1000L0 -1000L0 0L1000 0L1000 -1000z" /></clipPath>
<clipPath  id="91">
<path clip-rule="evenodd" d="M1000 -1000L0 -1000L0 0L1000 0L1000 -1000z" /></clipPath>
<clipPath  id="92">
<path clip-rule="evenodd" d="M1000 -1000L0 -1000L0 0L1000 0L1000 -1000z" /></clipPath>
<clipPath  id="93">
<path clip-rule="evenodd" d="M1000 -1000L0 -1000L0 0L1000 0L1000 -1000z" /></clipPath>
<clipPath  id="94">
<path clip-rule="evenodd" d="M1000 -1000L0 -1000L0 0L1000 0L1000 -1000z" /></clipPath>
<clipPath  id="95">
<path clip-rule="evenodd" d="M1000 -1000L0 -1000L0 0L1000 0L1000 -1000z" /></clipPath>
<clipPath  id="96">
<path clip-rule="evenodd" d="M1000 -1000L0 -1000L0 0L1000 0L1000 -1000z" /></clipPath>
<clipPath  id="97">
<path clip-rule="evenodd" d="M1000 -1000L0 -1000L0 0L1000 0L1000 -1000z" /></clipPath>
<clipPath  id="98">
<path clip-rule="evenodd" d="M1000 -1000L0 -1000L0 0L1000 0L1000 -1000z" /></clipPath>
<clipPath  id="99">
<path clip-rule="evenodd" d="M1000 -1000L0 -1000L0 0L1000 0L1000 -1000z" /></clipPath>
<clipPath  id="100">
<path clip-rule="evenodd" d="M1000 -1000L0 -1000L0 0L1000 0L1000 -1000z" /></clipPath>
<clipPath  id="101">
<path clip-rule="evenodd" d="M1000 -1000L0 -1000L0 0L1000 0L1000 -1000z" /></clipPath>
<clipPath  id="102">
<path clip-rule="evenodd" d="M1000 -1000L0 -1000L0 0L1000 0L1000 -1000z" /></clipPath>
<clipPath  id="103">
<path clip-rule="evenodd" d="M1000 -1000L0 -1000L0 0L1000 0L1000 -1000z" /></clipPath>
<clipPath  id="104">
<path clip-rule="evenodd" d="M1000 -1000L0 -1000L0 0L1000 0L1000 -1000z" /></clipPath>
<clipPath  id="105">
<path clip-rule="evenodd" d="M1000 -1000L0 -1000L0 0L1000 0L1000 -1000z" /></clipPath>
<clipPath  id="106">
<path clip-rule="evenodd" d="M1000 -1000L0 -1000L0 0L1000 0L1000 -1000z" /></clipPath>
<clipPath  id="107">
<path clip-rule="evenodd" d="M1000 -1000L0 -1000L0 0L1000 0L1000 -1000z" /></clipPath>
<clipPath  id="108">
<path clip-rule="evenodd" d="M1000 -1000L0 -1000L0 0L1000 0L1000 -1000z" /></clipPath>
<clipPath  id="109">
<path clip-rule="evenodd" d="M1000 -1000L0 -1000L0 0L1000 0L1000 -1000z" /></clipPath>
</defs>
<g transform="matrix(1.3333334 0 0 1.3333334 0 0)">
<path d="M0 0L999.75 0L999.75 999.75L0 999.75z" stroke="none" fill="#FFFFFF" fill-rule="evenodd" />
<g transform="matrix(0.99975 0 0 -0.99975 -0 0)" clip-path="url(#1)" >
<path d="M0 -1000L1000 -1000L1000 0L0 0z" stroke="none" fill="none" />
<path d="M0 -1000L1000 -1000L1000 0L0 0z" stroke="none" fill="none" />
<path d="M0 -1000L1000 -1000L1000 0L0 0z" stroke="none" fill="none" />
<path d="M0 -1000L1000 -1000L1000 0L0 0z" stroke="none" fill="none" />
<path d="M0 -1000L1000 -1000L1000 0L0 0z" stroke="none" fill="none" />
<path d="M0 -1000L1000 -1000L1000 0L0 0z" stroke="none" fill="none" />
<path d="M0 -1000L1000 -1000L1000 0L0 0z" stroke="none" fill="none" />
<path d="M0 -1000L1000 -1000L1000 0L0 0z" stroke="none" fill="none" />
<path d="M0 -1000L1000 -1000L1000 0L0 0z" stroke="none" fill="none" />
<path d="" stroke="none" fill="none" />
<path d="" stroke="none" fill="none" />
<path d="" stroke="none" fill="none" />
<path d="" stroke="none" fill="none" />
<path d="" stroke="none" fill="none" />
<path d="" stroke="none" fill="none" />
<path d="" stroke="none" fill="none" />
<path d="" stroke="none" fill="none" />
<path d="" stroke="none" fill="none" />
<path d="" stroke="none" fill="none" />
<path d="M1000 -1000L0 -1000L0 0L1000 0L1000 -1000z" stroke="none" fill="none" />
<path clip-path="url(#2)"  d="M1000 -1000L0 -1000L0 0L1000 0L1000 -1000z" stroke="none" fill="#D8E9F0" fill-rule="nonzero" />
<path clip-path="url(#3)"  d="M85 -1133L37 -1133L37 175L85 175L85 -1133z" stroke="none" fill="#EBF4F7" fill-rule="nonzero" />
<path clip-path="url(#4)"  d="M185 -1133L137 -1133L137 175L185 175L185 -1133z" stroke="none" fill="#EBF4F7" fill-rule="nonzero" />
<path clip-path="url(#5)"  d="M285 -1133L237 -1133L237 175L285 175L285 -1133z" stroke="none" fill="#EBF4F7" fill-rule="nonzero" />
<path clip-path="url(#6)"  d="M385 -1133L337 -1133L337 175L385 175L385 -1133z" stroke="none" fill="#EBF4F7" fill-rule="nonzero" />
<path clip-path="url(#7)"  d="M485 -1133L437 -1133L437 175L485 175L485 -1133z" stroke="none" fill="#EBF4F7" fill-rule="nonzero" />
<path clip-path="url(#8)"  d="M585 -1133L537 -1133L537 175L585 175L585 -1133z" stroke="none" fill="#EBF4F7" fill-rule="nonzero" />
<path clip-path="url(#9)"  d="M685 -1133L637 -1133L637 175L685 175L685 -1133z" stroke="none" fill="#EBF4F7" fill-rule="nonzero" />
<path clip-path="url(#10)"  d="M785 -1133L737 -1133L737 175L785 175L785 -1133z" stroke="none" fill="#EBF4F7" fill-rule="nonzero" />
<path clip-path="url(#11)"  d="M885 -1133L837 -1133L837 175L885 175L885 -1133z" stroke="none" fill="#EBF4F7" fill-rule="nonzero" />
<path clip-path="url(#12)"  d="M985 -1133L937 -1133L937 175L985 175L985 -1133z" stroke="none" fill="#EBF4F7" fill-rule="nonzero" />
<path clip-path="url(#13)"  d="M320.0342 -957.1592C 223.5518 -907.0273 156.5947 -820.2305 114.8867 -721.3779C 114.3076 -720.0068 112.2754 -721.0889 112.8467 -722.4453C 154.6953 -821.6318 222.0107 -908.8105 318.8125 -959.1094C 320.1201 -959.7871 321.3506 -957.8447 320.0342 -957.1592L320.0342 -957.1592L320.0342 -957.1592z" stroke="none" fill="#231F1F" fill-rule="nonzero" />
<path clip-path="url(#14)"  d="M279.7627 -925.6416C 250.4072 -896.7969 272.5596 -883.1201 278.29 -861.0781C 300.9268 -888.3662 279.376 -901.0078 279.5107 -924.1484L279.5107 -924.1484L279.7627 -925.6416z" stroke="none" fill="#C1B59A" fill-rule="nonzero" />
<path clip-path="url(#15)"  d="M280.6104 -924.8643C 270.5371 -914.6924 263.0557 -903.1436 267.7402 -888.6045C 270.7783 -879.1719 276.7197 -871.0225 279.3916 -861.4072C 278.7412 -861.5547 278.0928 -861.7041 277.4414 -861.8555C 286.9912 -873.79 289.4443 -885.1299 284.4424 -899.4795C 281.5674 -907.7158 277.124 -916.9414 278.6416 -925.8984C 278.8896 -927.3633 281.1299 -926.8418 280.8848 -925.3838C 278.957 -914.0107 286.7686 -902.4541 289.1123 -891.6396C 291.6758 -879.8008 286.377 -869.3457 279.1367 -860.2988C 278.5859 -859.6113 277.4111 -859.9385 277.1865 -860.7471C 274.0596 -872.001 266.4932 -881.5479 264.1982 -893.0508C 261.5674 -906.2441 270.1846 -917.6074 278.915 -926.4199C 279.958 -927.4727 281.6543 -925.917 280.6104 -924.8643z" stroke="none" fill="#231F1F" fill-rule="nonzero" />
<path clip-path="url(#16)"  d="M254.1055 -907.625C 224.75 -878.7803 246.9043 -865.1055 252.6318 -843.0625C 275.2725 -870.3516 253.7197 -882.9922 253.8525 -906.1348L253.8525 -906.1348L254.1055 -907.625z" stroke="none" fill="#C1B59A" fill-rule="nonzero" />
<path clip-path="url(#17)"  d="M254.9521 -906.8477C 244.8799 -896.6777 237.3984 -885.1289 242.083 -870.5889C 245.124 -861.1572 251.0625 -853.0088 253.7354 -843.3926C 253.085 -843.541 252.4346 -843.6914 251.7861 -843.8389C 261.334 -855.7734 263.79 -867.1152 258.7832 -881.4619C 255.9092 -889.7041 251.4736 -898.9199 252.9834 -907.8828C 253.2295 -909.3486 255.4717 -908.8262 255.2256 -907.3672C 253.3076 -895.9912 261.1104 -884.4404 263.4541 -873.626C 266.0186 -861.7842 260.7217 -851.333 253.4814 -842.2852C 252.9297 -841.5957 251.7539 -841.9238 251.5293 -842.7324C 248.4033 -853.9863 240.8369 -863.5332 238.54 -875.0361C 235.9072 -888.2266 244.5283 -899.5918 253.2568 -908.4043C 254.2998 -909.4561 255.9971 -907.9014 254.9521 -906.8477z" stroke="none" fill="#231F1F" fill-rule="nonzero" />
<path clip-path="url(#18)"  d="M229.5146 -882.2725C 202.4951 -851.2256 225.6475 -839.3184 233.0771 -817.7891C 253.5205 -846.7588 231.0498 -857.6826 229.3789 -880.7637L229.3789 -880.7637L229.5146 -882.2725z" stroke="none" fill="#C1B59A" fill-rule="nonzero" />
<path clip-path="url(#19)"  d="M230.3623 -881.4941C 221.2783 -870.7578 214.7354 -858.8516 220.2041 -844.8965C 223.8916 -835.4863 230.6963 -827.6807 234.1787 -818.1201C 233.4717 -818.1846 232.7627 -818.2539 232.0566 -818.3203C 240.082 -830.1436 242.5186 -841.3535 237.04 -854.6768C 233.502 -863.2832 227.4961 -872.5488 228.3643 -882.2363C 228.4932 -883.6924 230.7959 -883.7852 230.6641 -882.3066C 229.6855 -871.4014 237.3662 -860.9951 240.8682 -851.1025C 245.1836 -838.9082 241.0713 -827.5293 234.0967 -817.2568C 233.5293 -816.4219 232.3428 -816.4453 231.9746 -817.4561C 228.042 -828.251 220.0205 -837.0352 216.667 -848.0586C 212.6768 -861.1846 220.5264 -873.4316 228.666 -883.0498C 229.6279 -884.1846 231.3164 -882.6211 230.3623 -881.4941z" stroke="none" fill="#231F1F" fill-rule="nonzero" />
<path clip-path="url(#20)"  d="M203.9014 -858.9678C 180.0762 -825.4102 204.2881 -815.8418 213.8018 -795.1484C 231.292 -825.9912 207.8525 -834.6484 203.917 -857.4521L203.917 -857.4521L203.9014 -858.9678z" stroke="none" fill="#C1B59A" fill-rule="nonzero" />
<path clip-path="url(#21)"  d="M204.9219 -858.4326C 196.8105 -846.6592 191.374 -833.877 198.583 -820.3789C 203.2344 -811.6748 210.4658 -804.7158 214.7744 -795.7588C 214.1113 -795.7334 213.4463 -795.708 212.7803 -795.6797C 220.1787 -809.3135 220.5684 -820.833 213.0029 -834.2158C 208.7744 -841.6934 202.8389 -849.9844 202.7529 -858.9326C 202.7373 -860.4111 205.0381 -860.4893 205.0527 -859.002C 205.1611 -847.835 214.2344 -838.0049 218.6299 -828.2354C 223.792 -816.7666 220.5508 -805.1719 214.8213 -794.6162C 214.4424 -793.915 213.2197 -793.7168 212.8262 -794.5381C 207.8896 -804.8008 199.2813 -812.7305 194.6924 -823.166C 189.1025 -835.8672 195.6699 -849.0303 202.8828 -859.498C 203.7148 -860.708 205.7637 -859.6533 204.9219 -858.4326z" stroke="none" fill="#231F1F" fill-rule="nonzero" />
<path clip-path="url(#22)"  d="M182.4736 -830.915C 161.6582 -795.4131 186.6084 -787.9873 197.8877 -768.2021C 212.627 -800.4502 188.5254 -807.0332 182.6182 -829.4102L182.6182 -829.4102L182.4736 -830.915z" stroke="none" fill="#C1B59A" fill-rule="nonzero" />
<path clip-path="url(#23)"  d="M183.4932 -830.3818C 176.5498 -818.1348 172.2324 -805.1992 180.2334 -792.4678C 185.5957 -783.9346 193.6807 -777.5371 198.8633 -768.8135C 198.1982 -768.7871 197.5342 -768.7607 196.8682 -768.7344C 202.9014 -782.6309 202.4619 -794.1299 193.999 -806.6094C 189.0391 -813.9199 182.2061 -821.7119 181.3232 -830.8809C 181.1807 -832.3574 183.4814 -832.4248 183.624 -830.9512C 184.708 -819.6797 194.9854 -810.5996 200.1123 -801.0303C 205.9551 -790.125 203.6152 -778.5117 198.9072 -767.668C 198.5596 -766.8633 197.3389 -766.877 196.915 -767.5898C 191.0322 -777.4932 181.499 -784.6738 176.1748 -794.9199C 169.8613 -807.0723 175.2393 -820.4893 181.4541 -831.4492C 182.1865 -832.7393 184.2236 -831.6719 183.4932 -830.3818z" stroke="none" fill="#231F1F" fill-rule="nonzero" />
<path clip-path="url(#24)"  d="M162.999 -804.585C 144.8643 -767.6426 170.2979 -762.0801 183.0068 -743.1816C 195.3223 -776.4297 170.7998 -781.2148 163.2568 -803.0947L163.2568 -803.0947L162.999 -804.585z" stroke="none" fill="#C1B59A" fill-rule="nonzero" />
<path clip-path="url(#25)"  d="M164.0186 -804.0518C 157.9619 -791.2207 154.7363 -778.0664 163.7158 -765.9238C 169.6865 -757.8535 178.1826 -752.0771 183.9814 -743.793C 183.2822 -743.6748 182.585 -743.5557 181.8877 -743.4375C 186.7832 -757.5049 185.8457 -768.9756 176.6621 -780.7412C 171.166 -787.7803 163.4795 -795.0654 161.8965 -804.2529C 161.6475 -805.6963 163.8486 -806.376 164.1025 -804.9141C 166.0068 -793.8623 176.5352 -785.6211 182.4512 -776.6514C 189.3594 -766.1758 188.0762 -754.2637 184.1279 -742.9238C 183.7998 -741.9805 182.6436 -741.6953 182.0322 -742.5703C 175.4072 -752.0342 165.3467 -758.5039 159.2803 -768.3809C 152.1436 -779.9941 156.6387 -793.8057 161.9775 -805.1172C 162.6143 -806.4629 164.6494 -805.3887 164.0186 -804.0518z" stroke="none" fill="#231F1F" fill-rule="nonzero" />
<path clip-path="url(#26)"  d="M147.2939 -776.2529C 131.6152 -738.2051 157.3574 -734.3174 171.2754 -716.291C 181.3887 -750.2725 156.6064 -753.4443 147.6494 -774.7832L147.6494 -774.7832L147.2939 -776.2529z" stroke="none" fill="#C1B59A" fill-rule="nonzero" />
<path clip-path="url(#27)"  d="M148.3145 -775.7188C 142.9258 -762.0586 140.8545 -748.3721 151.3906 -736.793C 157.8916 -729.6484 166.1553 -724.4951 172.249 -716.9004C 171.5508 -716.7832 170.8525 -716.666 170.1543 -716.5479C 174.2197 -731.2979 172.21 -742.6494 161.9717 -753.915C 156.1182 -760.3525 148.3223 -767.1162 146.1924 -775.9219C 145.8447 -777.3594 148.0469 -778.0283 148.3994 -776.583C 150.9688 -765.9502 161.6152 -758.4902 168.1016 -750.2246C 176.0693 -740.0684 175.6758 -727.9316 172.3955 -716.0342C 172.1094 -714.9951 170.918 -714.9092 170.2979 -715.6797C 163.0674 -724.6934 152.6123 -730.4834 145.9092 -739.9463C 138.0342 -751.0625 141.6982 -765.1826 146.2744 -776.7861C 146.8213 -778.1699 148.8525 -777.084 148.3145 -775.7188z" stroke="none" fill="#231F1F" fill-rule="nonzero" />
<path clip-path="url(#28)"  d="M134.0898 -749.2471C 114.9834 -712.7959 140.2598 -706.5625 152.4639 -687.335C 165.6553 -720.2451 141.2686 -725.6787 134.3076 -747.748L134.3076 -747.748L134.0898 -749.2471z" stroke="none" fill="#C1B59A" fill-rule="nonzero" />
<path clip-path="url(#29)"  d="M135.1104 -748.7119C 128.5732 -735.7783 125.1221 -722.5342 134.1709 -710.0645C 139.9385 -702.1143 147.9834 -696.2002 153.4395 -687.9453C 152.7734 -687.9189 152.1104 -687.8926 151.4443 -687.8672C 156.9736 -702.4883 155.4854 -714.0732 146.126 -726.3438C 140.9404 -733.1416 134.2158 -740.4189 132.9404 -749.21C 132.7256 -750.6758 135.0293 -750.7354 135.2393 -749.2813C 136.9053 -737.792 148.0654 -729.0889 153.5869 -719.418C 159.5283 -709.0068 157.5244 -697.4873 153.4834 -686.8008C 153.1592 -685.9414 151.9229 -686.0693 151.4902 -686.7227C 145.0068 -696.5371 134.8037 -703.3535 129.1152 -713.7188C 122.6982 -725.4092 127.5361 -738.8262 133.0693 -749.7783C 133.7412 -751.1064 135.7783 -750.0352 135.1104 -748.7119z" stroke="none" fill="#231F1F" fill-rule="nonzero" />
<path clip-path="url(#30)"  d="M121.6709 -720.5059C 98.5107 -686.4873 122.9072 -677.3955 132.8252 -656.8936C 149.7051 -688.0771 126.0996 -696.2695 121.7168 -718.9922L121.7168 -718.9922L121.6709 -720.5059z" stroke="none" fill="#C1B59A" fill-rule="nonzero" />
<path clip-path="url(#31)"  d="M122.6904 -719.9707C 114.9814 -708.2861 109.7041 -695.5654 116.8057 -682.3633C 121.583 -673.4873 129.2188 -666.5566 133.7998 -657.5068C 133.1357 -657.4795 132.4707 -657.4561 131.8057 -657.4287C 138.7627 -670.8916 139.1875 -682.3701 131.5732 -695.4102C 127.1299 -703.0156 120.7979 -711.2871 120.5205 -720.4688C 120.4756 -721.9521 122.7764 -722.0264 122.8213 -720.54C 123.1572 -709.4258 132.3262 -700.3984 136.6934 -690.7314C 142.0654 -678.8379 139.6787 -667.6494 133.8447 -656.3633C 133.4717 -655.6387 132.2549 -655.4883 131.8506 -656.2842C 126.8291 -666.2061 117.8857 -673.7529 113.4385 -683.9395C 107.6846 -697.1172 113.2051 -709.752 120.6514 -721.0361C 121.4619 -722.2676 123.5068 -721.208 122.6904 -719.9707z" stroke="none" fill="#231F1F" fill-rule="nonzero" />
<path clip-path="url(#32)"  d="M266.7246 -935.1484C 234.2373 -909.8818 223.624 -933.6533 202.5361 -942.2568C 232.5869 -961.0723 242.2568 -938.0332 265.2119 -935.0957L265.2119 -935.0957L266.7246 -935.1484z" stroke="none" fill="#C1B59A" fill-rule="nonzero" />
<path clip-path="url(#33)"  d="M267.335 -934.1729C 256.7725 -926.1758 244.5938 -919.8184 231.2744 -924.4199C 220.5928 -928.1094 212.3848 -936.8047 202.001 -941.2383C 201.1895 -941.583 201.2197 -942.8066 201.9248 -943.2314C 212.3115 -949.5 223.0879 -952.7871 234.8857 -948.7031C 245.3164 -945.0918 255.1318 -935.9072 266.6904 -936.2969C 268.1709 -936.3467 268.2451 -934.0469 266.7588 -933.9961C 257.8604 -933.6953 249.1982 -939.1982 241.6025 -943.1582C 228.0361 -950.2295 216.2891 -949.2129 203.1465 -941.2832C 203.1201 -941.9463 203.0947 -942.6113 203.0684 -943.2764C 212.2656 -939.3516 219.7266 -932.5967 228.5781 -928.0703C 242.0283 -921.1904 255.0811 -927.7705 266.1143 -936.1211C 267.2959 -937.0176 268.5088 -935.0605 267.335 -934.1729z" stroke="none" fill="#231F1F" fill-rule="nonzero" />
<path clip-path="url(#34)"  d="M242.2988 -915.4502C 209.8115 -890.1836 199.1982 -913.9561 178.1104 -922.5596C 208.1611 -941.374 217.8311 -918.3389 240.7861 -915.3994L240.7861 -915.3994L242.2988 -915.4502z" stroke="none" fill="#C1B59A" fill-rule="nonzero" />
<path clip-path="url(#35)"  d="M242.9092 -914.4746C 232.3477 -906.4775 220.1689 -900.1201 206.8486 -904.7217C 196.1689 -908.415 187.959 -917.1094 177.5752 -921.541C 176.7646 -921.8848 176.793 -923.1094 177.499 -923.5332C 187.8857 -929.8027 198.6621 -933.0889 210.458 -929.0059C 220.8906 -925.3945 230.7061 -916.21 242.2646 -916.5986C 243.7451 -916.6504 243.8213 -914.3516 242.333 -914.2979C 233.4346 -913.998 224.7725 -919.5 217.1777 -923.46C 203.6104 -930.5342 191.8633 -929.5156 178.7217 -921.585C 178.6943 -922.248 178.6709 -922.9141 178.6426 -923.5781C 187.8408 -919.6543 195.3008 -912.9004 204.1514 -908.3721C 217.6025 -901.4932 230.6553 -908.0723 241.6885 -916.4238C 242.8711 -917.3203 244.084 -915.3623 242.9092 -914.4746z" stroke="none" fill="#231F1F" fill-rule="nonzero" />
<path clip-path="url(#36)"  d="M220.4873 -896.6758C 192.7734 -866.251 178.2695 -887.8691 156.0244 -892.7588C 182.4346 -916.4141 195.8838 -895.3574 219.0049 -896.3701L219.0049 -896.3701L220.4873 -896.6758z" stroke="none" fill="#C1B59A" fill-rule="nonzero" />
<path clip-path="url(#37)"  d="M221.334 -895.8984C 213.0146 -887.0039 202.1826 -877.9834 189.126 -879.8076C 177.2979 -881.46 167.3115 -888.8984 155.7666 -891.6377C 155 -891.8203 154.4971 -892.9473 155.1768 -893.5371C 164.0625 -901.2354 173.6709 -906.3213 185.6523 -904.8096C 196.9893 -903.3789 208.4404 -895.3506 220.1572 -897.7793C 221.5967 -898.0771 222.2725 -895.875 220.8164 -895.5742C 212.0479 -893.7578 202.6748 -897.6426 194.4619 -900.2695C 179.9385 -904.915 168.4482 -902.0098 156.8721 -891.9824C 156.6748 -892.6133 156.4795 -893.2471 156.2822 -893.8799C 165.7861 -891.627 174.1113 -886.4707 183.333 -883.4414C 198.0322 -878.6133 209.9004 -887.0449 219.6396 -897.4541C 220.6533 -898.5391 222.3467 -896.9814 221.334 -895.8984z" stroke="none" fill="#231F1F" fill-rule="nonzero" />
<path clip-path="url(#38)"  d="M198.5498 -873.8818C 174.1094 -840.7715 157.46 -860.7842 134.8291 -863.3633C 158.6729 -889.6064 174.2129 -870.043 197.1074 -873.4238L197.1074 -873.4238L198.5498 -873.8818z" stroke="none" fill="#C1B59A" fill-rule="nonzero" />
<path clip-path="url(#39)"  d="M199.3955 -873.1025C 191.3828 -862.5469 181.4248 -853.1699 167.3584 -853.9609C 156.0615 -854.5938 145.7773 -860.7754 134.5732 -862.2422C 133.6973 -862.3574 133.4297 -863.5518 133.9814 -864.1416C 142.4873 -873.1934 152.1611 -879.2256 164.8975 -878.2666C 175.6846 -877.4541 187.4111 -871.5586 198.2188 -874.9844C 199.6328 -875.4316 200.2939 -873.2275 198.8779 -872.7783C 190.21 -870.0313 180.1846 -873.1475 171.626 -874.916C 156.8799 -877.9609 145.9648 -873.5332 135.6787 -862.5859C 135.4814 -863.2188 135.2861 -863.8516 135.0889 -864.4863C 144.9658 -863.1914 153.9463 -858.751 163.6514 -856.7637C 178.4805 -853.7266 189.3154 -863.6152 197.7012 -874.6582C 198.5986 -875.8408 200.2842 -874.2725 199.3955 -873.1025z" stroke="none" fill="#231F1F" fill-rule="nonzero" />
<path clip-path="url(#40)"  d="M178.6113 -848.9697C 154.1689 -815.8613 137.5215 -835.875 114.8936 -838.4541C 138.7334 -864.6973 154.2744 -845.1338 177.1689 -848.5137L177.1689 -848.5137L178.6113 -848.9697z" stroke="none" fill="#C1B59A" fill-rule="nonzero" />
<path clip-path="url(#41)"  d="M179.46 -848.1924C 171.4443 -837.6367 161.4854 -828.2598 147.4209 -829.0498C 136.124 -829.6846 125.8389 -835.8652 114.6367 -837.335C 113.7627 -837.4473 113.4932 -838.6445 114.0459 -839.2334C 122.5498 -848.2852 132.2246 -854.3145 144.96 -853.3564C 155.7461 -852.5449 167.4736 -846.6455 178.2813 -850.0723C 179.6943 -850.5225 180.3584 -848.3184 178.9404 -847.8691C 170.2734 -845.1201 160.2451 -848.2383 151.6875 -850.0049C 136.9434 -853.0488 126.0283 -848.6221 115.7412 -837.6768C 115.5439 -838.3115 115.3467 -838.9434 115.1514 -839.5762C 125.0293 -838.2832 134.0107 -833.8428 143.7119 -831.8555C 158.542 -828.8184 169.3779 -838.707 177.7627 -849.749C 178.6611 -850.9326 180.3467 -849.3643 179.46 -848.1924z" stroke="none" fill="#231F1F" fill-rule="nonzero" />
<path clip-path="url(#42)"  d="M160.4346 -822.5078C 135.9932 -789.3945 119.3467 -809.4102 96.7168 -811.9883C 120.5566 -838.2305 136.1006 -818.6689 158.9951 -822.0508L158.9951 -822.0508L160.4346 -822.5078z" stroke="none" fill="#C1B59A" fill-rule="nonzero" />
<path clip-path="url(#43)"  d="M161.2822 -821.7285C 153.2686 -811.1748 143.3096 -801.7959 129.2441 -802.5859C 117.9492 -803.2207 107.6631 -809.4014 96.46 -810.8691C 95.585 -810.9834 95.3174 -812.1787 95.8682 -812.7686C 104.375 -821.8193 114.0498 -827.8516 126.7842 -826.8916C 137.5713 -826.0781 149.2979 -820.1846 160.1045 -823.6094C 161.5186 -824.0566 162.1787 -821.8535 160.7646 -821.4043C 152.0967 -818.6572 142.0713 -821.7754 133.5107 -823.541C 118.7676 -826.585 107.8506 -822.1572 97.5654 -811.2109C 97.3682 -811.8447 97.1709 -812.4775 96.9746 -813.1104C 106.8525 -811.8154 115.833 -807.3799 125.5361 -805.3896C 140.3662 -802.3545 151.2021 -812.2422 159.5859 -823.2842C 160.4854 -824.4678 162.1709 -822.8994 161.2822 -821.7285z" stroke="none" fill="#231F1F" fill-rule="nonzero" />
<path clip-path="url(#44)"  d="M144.2061 -796.7432C 124.4307 -760.6514 105.2471 -778.25 82.4775 -777.7666C 102.5791 -806.9746 120.6055 -789.6738 142.8389 -796.0957L142.8389 -796.0957L144.2061 -796.7432z" stroke="none" fill="#C1B59A" fill-rule="nonzero" />
<path clip-path="url(#45)"  d="M145.2266 -796.2119C 139.0166 -785.2598 131.1094 -775.0859 118.0146 -773.0078C 106.2559 -771.1406 94.293 -776.6563 82.5117 -776.6182C 81.4346 -776.6152 81.0654 -777.7588 81.6299 -778.5459C 88.5205 -788.1885 96.8057 -795.2783 108.8916 -796.4932C 120.0742 -797.6172 132.9463 -792.6816 143.5967 -797.7188C 144.9189 -798.3447 146.1572 -796.4014 144.8174 -795.7695C 136.624 -791.8936 126.5166 -793.5137 117.8115 -794.1318C 102.5684 -795.2139 92.2002 -789.4072 83.3252 -776.9893C 83.0303 -777.6328 82.7363 -778.2764 82.4424 -778.9189C 92.1084 -778.9512 101.3154 -775.9951 110.8857 -775.1582C 126.4561 -773.7969 136.083 -784.7461 143.1865 -797.2773C 143.9189 -798.5674 145.958 -797.501 145.2266 -796.2119z" stroke="none" fill="#231F1F" fill-rule="nonzero" />
<path clip-path="url(#46)"  d="M125.9463 -767.1436C 106.1719 -731.0537 86.9873 -748.6504 64.2158 -748.1689C 84.3184 -777.3711 102.3467 -760.0752 124.5791 -766.4961L124.5791 -766.4961L125.9463 -767.1436z" stroke="none" fill="#C1B59A" fill-rule="nonzero" />
<path clip-path="url(#47)"  d="M126.9658 -766.6113C 120.7568 -755.6592 112.8486 -745.4873 99.7529 -743.4072C 87.9941 -741.5391 76.0342 -747.0566 64.251 -747.0166C 63.1729 -747.0137 62.8057 -748.1582 63.3701 -748.9463C 70.2598 -758.5879 78.5439 -765.6768 90.6309 -766.8926C 101.8135 -768.0166 114.6855 -763.085 125.335 -768.1191C 126.6592 -768.7441 127.8955 -766.8008 126.5557 -766.1689C 118.3623 -762.2949 108.2568 -763.916 99.5508 -764.5322C 84.3076 -765.6133 73.9385 -759.8066 65.0645 -747.3926C 64.7705 -748.0352 64.4756 -748.6768 64.1807 -749.3193C 73.8477 -749.3496 83.0566 -746.3975 92.626 -745.5605C 108.1963 -744.1973 117.8223 -755.1475 124.9248 -767.6777C 125.6592 -768.9678 127.6963 -767.9004 126.9658 -766.6113z" stroke="none" fill="#231F1F" fill-rule="nonzero" />
<path clip-path="url(#48)"  d="M115.8936 -741.7227C 100.1201 -703.7109 79.1553 -719.1406 56.5674 -716.21C 73.4072 -747.4082 93.1943 -732.1523 114.6045 -740.9336L114.6045 -740.9336L115.8936 -741.7227z" stroke="none" fill="#C1B59A" fill-rule="nonzero" />
<path clip-path="url(#49)"  d="M116.9141 -741.1885C 111.7764 -729.3262 104.6729 -718.0439 91.3057 -715.0596C 79.9912 -712.5313 68.0791 -716.3301 56.6025 -715.0605C 55.7451 -714.9668 55.1455 -716.0283 55.5479 -716.7451C 61.6318 -727.5293 69.4658 -735.6797 82.0107 -737.8682C 92.7139 -739.7402 105.5732 -736.75 115.2842 -742.6973C 116.5498 -743.4717 117.7715 -741.5215 116.5049 -740.7461C 108.9131 -736.0986 98.6846 -736.5869 90.126 -736.2842C 74.8174 -735.748 65.1338 -729.0557 57.5879 -715.6777C 57.2354 -716.2393 56.8848 -716.7979 56.5342 -717.3604C 66.0762 -718.417 75.499 -716.5215 85.042 -716.6797C 100.7451 -716.9395 109.1455 -729.0186 114.874 -742.2539C 115.4658 -743.6211 117.499 -742.541 116.9141 -741.1885z" stroke="none" fill="#231F1F" fill-rule="nonzero" />
<path clip-path="url(#50)"  d="M108.54 -718.4688C 89.8076 -696.916 63.3174 -683.8633 37.5107 -672.752C 36.1523 -672.166 35.5029 -674.375 36.8525 -674.9561C 62.2588 -685.8945 88.3994 -698.8027 106.8428 -720.0244C 107.8193 -721.1484 109.5098 -719.585 108.54 -718.4688L108.54 -718.4688L108.54 -718.4688z" stroke="none" fill="#231F1F" fill-rule="nonzero" />
<path clip-path="url(#51)"  d="M108.5615 -708.3633C 95.6865 -682.3887 100.1045 -653.4551 106.3057 -626.3027C 106.6338 -624.8643 104.4326 -624.1914 104.0996 -625.6396C 97.7627 -653.4033 93.375 -682.9063 106.5215 -709.4287C 107.1826 -710.7617 109.2197 -709.6885 108.5615 -708.3633L108.5615 -708.3633L108.5615 -708.3633z" stroke="none" fill="#231F1F" fill-rule="nonzero" />
<path clip-path="url(#52)"  d="M96.4355 -695.9365C 81.5996 -674.4092 61.3428 -657.6064 44.4131 -637.8555C 43.4443 -636.7266 41.7549 -638.2891 42.7178 -639.4102C 59.5088 -659 79.6855 -675.6543 94.3975 -697.0029C 95.2295 -698.2129 97.2764 -697.1553 96.4355 -695.9365L96.4355 -695.9365L96.4355 -695.9365z" stroke="none" fill="#231F1F" fill-rule="nonzero" />
<path clip-path="url(#53)"  d="M87.957 -671.917C 75.0986 -648.9873 76.3223 -621.1074 79.3994 -595.8398C 79.5771 -594.3652 77.2773 -594.3057 77.0986 -595.7695C 73.9756 -621.4082 72.8721 -649.7178 85.917 -672.9824C 86.6426 -674.2783 88.6826 -673.2109 87.957 -671.917L87.957 -671.917L87.957 -671.917z" stroke="none" fill="#231F1F" fill-rule="nonzero" />
<path clip-path="url(#54)"  d="M679.9658 -957.1592C 776.4482 -907.0273 843.4072 -820.2305 885.1133 -721.3779C 885.6924 -720.0068 887.7246 -721.0889 887.1533 -722.4453C 845.3047 -821.6318 777.9893 -908.8105 681.1875 -959.1094C 679.8818 -959.7871 678.6484 -957.8447 679.9658 -957.1592L679.9658 -957.1592L679.9658 -957.1592z" stroke="none" fill="#231F1F" fill-rule="nonzero" />
<path clip-path="url(#55)"  d="M720.2383 -925.6416C 749.5938 -896.7969 727.4404 -883.1201 721.7119 -861.0781C 699.0723 -888.3662 720.623 -901.0078 720.4902 -924.1484L720.4902 -924.1484L720.2383 -925.6416z" stroke="none" fill="#C1B59A" fill-rule="nonzero" />
<path clip-path="url(#56)"  d="M719.3896 -924.8643C 729.4639 -914.6924 736.9443 -903.1436 732.2607 -888.6045C 729.2227 -879.1719 723.2803 -871.0225 720.6084 -861.4072C 721.2588 -861.5547 721.9092 -861.7041 722.5605 -861.8555C 713.0098 -873.79 710.5557 -885.1299 715.5586 -899.4795C 718.4336 -907.7158 722.875 -916.9414 721.3594 -925.8984C 721.1113 -927.3633 718.8701 -926.8418 719.1162 -925.3838C 721.042 -914.0107 713.2314 -902.4541 710.8887 -891.6396C 708.3242 -879.8008 713.624 -869.3457 720.8643 -860.2988C 721.4141 -859.6113 722.5898 -859.9385 722.8145 -860.7471C 725.9404 -872.001 733.5078 -881.5479 735.8018 -893.0508C 738.4336 -906.2441 729.8154 -917.6074 721.0859 -926.4199C 720.043 -927.4727 718.3457 -925.917 719.3896 -924.8643z" stroke="none" fill="#231F1F" fill-rule="nonzero" />
<path clip-path="url(#57)"  d="M745.8955 -907.625C 775.25 -878.7803 753.0967 -865.1055 747.3682 -843.0625C 724.7295 -870.3516 746.2813 -882.9922 746.1475 -906.1348L746.1475 -906.1348L745.8955 -907.625z" stroke="none" fill="#C1B59A" fill-rule="nonzero" />
<path clip-path="url(#58)"  d="M745.0488 -906.8477C 755.1211 -896.6777 762.6016 -885.1289 757.916 -870.5889C 754.877 -861.1572 748.9375 -853.0088 746.2646 -843.3926C 746.915 -843.541 747.5654 -843.6914 748.2148 -843.8389C 738.667 -855.7734 736.2109 -867.1152 741.2178 -881.4619C 744.0908 -889.7041 748.5264 -898.9199 747.0176 -907.8828C 746.7715 -909.3486 744.5283 -908.8262 744.7744 -907.3672C 746.6934 -895.9912 738.8896 -884.4404 736.5469 -873.626C 733.9805 -861.7842 739.2793 -851.333 746.5186 -842.2852C 747.0703 -841.5957 748.2451 -841.9238 748.4717 -842.7324C 751.5977 -853.9863 759.1631 -863.5332 761.46 -875.0361C 764.0918 -888.2266 755.4717 -899.5918 746.7441 -908.4043C 745.7002 -909.4561 744.0039 -907.9014 745.0488 -906.8477z" stroke="none" fill="#231F1F" fill-rule="nonzero" />
<path clip-path="url(#59)"  d="M770.4863 -882.2725C 797.5039 -851.2256 774.3525 -839.3184 766.9229 -817.7891C 746.4805 -846.7588 768.9512 -857.6826 770.6221 -880.7637L770.6221 -880.7637L770.4863 -882.2725z" stroke="none" fill="#C1B59A" fill-rule="nonzero" />
<path clip-path="url(#60)"  d="M769.6377 -881.4941C 778.7227 -870.7578 785.2656 -858.8516 779.7959 -844.8965C 776.1094 -835.4863 769.3057 -827.6807 765.8203 -818.1201C 766.5293 -818.1846 767.2363 -818.2539 767.9434 -818.3203C 759.918 -830.1436 757.4814 -841.3535 762.9609 -854.6768C 766.498 -863.2832 772.5049 -872.5488 771.6357 -882.2363C 771.5068 -883.6924 769.2051 -883.7852 769.3369 -882.3066C 770.3145 -871.4014 762.6348 -860.9951 759.1309 -851.1025C 754.8164 -838.9082 758.9307 -827.5293 765.9043 -817.2568C 766.4707 -816.4219 767.6572 -816.4453 768.0264 -817.4561C 771.958 -828.251 779.9795 -837.0352 783.335 -848.0586C 787.3232 -861.1846 779.4727 -873.4316 771.333 -883.0498C 770.374 -884.1846 768.6836 -882.6211 769.6377 -881.4941z" stroke="none" fill="#231F1F" fill-rule="nonzero" />
<path clip-path="url(#61)"  d="M796.0986 -858.9678C 819.9248 -825.4102 795.7139 -815.8418 786.2002 -795.1484C 768.71 -825.9912 792.1475 -834.6484 796.085 -857.4521L796.085 -857.4521L796.0986 -858.9678z" stroke="none" fill="#C1B59A" fill-rule="nonzero" />
<path clip-path="url(#62)"  d="M795.0791 -858.4326C 803.1895 -846.6592 808.626 -833.877 801.418 -820.3789C 796.7656 -811.6748 789.5352 -804.7158 785.2256 -795.7588C 785.8887 -795.7334 786.5537 -795.708 787.2197 -795.6797C 779.8213 -809.3135 779.4316 -820.833 786.9971 -834.2158C 791.2266 -841.6934 797.1611 -849.9844 797.249 -858.9326C 797.2627 -860.4111 794.9629 -860.4893 794.9482 -859.002C 794.8398 -847.835 785.7666 -838.0049 781.3701 -828.2354C 776.21 -816.7666 779.4502 -805.1719 785.1797 -794.6162C 785.5596 -793.915 786.7803 -793.7168 787.1748 -794.5381C 792.1113 -804.8008 800.7188 -812.7305 805.3086 -823.166C 810.8975 -835.8672 804.3291 -849.0303 797.1182 -859.498C 796.2852 -860.708 794.2383 -859.6533 795.0791 -858.4326z" stroke="none" fill="#231F1F" fill-rule="nonzero" />
<path clip-path="url(#63)"  d="M817.5264 -830.915C 838.3438 -795.4131 813.3916 -787.9873 802.1143 -768.2021C 787.374 -800.4502 811.4746 -807.0332 817.3818 -829.4102L817.3818 -829.4102L817.5264 -830.915z" stroke="none" fill="#C1B59A" fill-rule="nonzero" />
<path clip-path="url(#64)"  d="M816.5068 -830.3818C 823.4521 -818.1348 827.7676 -805.1992 819.7666 -792.4678C 814.4053 -783.9346 806.3193 -777.5371 801.1377 -768.8135C 801.8018 -768.7871 802.4658 -768.7607 803.1318 -768.7344C 797.0986 -782.6309 797.5371 -794.1299 806.002 -806.6094C 810.96 -813.9199 817.7949 -821.7119 818.6777 -830.8809C 818.8193 -832.3574 816.5176 -832.4248 816.3779 -830.9512C 815.291 -819.6797 805.0146 -810.5996 799.8887 -801.0303C 794.0439 -790.125 796.3867 -778.5117 801.0938 -767.668C 801.4414 -766.8633 802.6621 -766.877 803.0859 -767.5898C 808.9678 -777.4932 818.502 -784.6738 823.8242 -794.9199C 830.1387 -807.0723 824.7598 -820.4893 818.5459 -831.4492C 817.8145 -832.7393 815.7764 -831.6719 816.5068 -830.3818z" stroke="none" fill="#231F1F" fill-rule="nonzero" />
<path clip-path="url(#65)"  d="M837.001 -804.585C 855.1357 -767.6426 829.7021 -762.0801 816.9932 -743.1816C 804.6787 -776.4297 829.1992 -781.2148 836.7441 -803.0947L836.7441 -803.0947L837.001 -804.585z" stroke="none" fill="#C1B59A" fill-rule="nonzero" />
<path clip-path="url(#66)"  d="M835.9805 -804.0518C 842.0391 -791.2207 845.2627 -778.0664 836.2842 -765.9238C 830.3125 -757.8535 821.8184 -752.0771 816.0186 -743.793C 816.7188 -743.6748 817.417 -743.5557 818.1143 -743.4375C 813.2168 -757.5049 814.1553 -768.9756 823.3389 -780.7412C 828.835 -787.7803 836.5195 -795.0654 838.1035 -804.2529C 838.3525 -805.6963 836.1514 -806.376 835.8984 -804.9141C 833.9932 -793.8623 823.4658 -785.6211 817.5488 -776.6514C 810.6416 -766.1758 811.9238 -754.2637 815.8721 -742.9238C 816.2021 -741.9805 817.3574 -741.6953 817.9688 -742.5703C 824.5928 -752.0342 834.6533 -758.5039 840.7197 -768.3809C 847.8574 -779.9941 843.3613 -793.8057 838.0225 -805.1172C 837.3857 -806.4629 835.3506 -805.3887 835.9805 -804.0518z" stroke="none" fill="#231F1F" fill-rule="nonzero" />
<path clip-path="url(#67)"  d="M852.7061 -776.2529C 868.3857 -738.2051 842.6436 -734.3174 828.7256 -716.291C 818.6113 -750.2725 843.3936 -753.4443 852.3506 -774.7832L852.3506 -774.7832L852.7061 -776.2529z" stroke="none" fill="#C1B59A" fill-rule="nonzero" />
<path clip-path="url(#68)"  d="M851.6846 -775.7188C 857.0752 -762.0586 859.1465 -748.3721 848.6104 -736.793C 842.1094 -729.6484 833.8447 -724.4951 827.752 -716.9004C 828.4492 -716.7832 829.1494 -716.666 829.8457 -716.5479C 825.7803 -731.2979 827.79 -742.6494 838.0293 -753.915C 843.8818 -760.3525 851.6787 -767.1162 853.8076 -775.9219C 854.1543 -777.3594 851.9541 -778.0283 851.6025 -776.583C 849.0322 -765.9502 838.3857 -758.4902 831.8994 -750.2246C 823.9307 -740.0684 824.3232 -727.9316 827.6045 -716.0342C 827.8916 -714.9951 829.082 -714.9092 829.7012 -715.6797C 836.9316 -724.6934 847.3887 -730.4834 854.0908 -739.9463C 861.9648 -751.0625 858.3037 -765.1826 853.7256 -776.7861C 853.1797 -778.1699 851.1484 -777.084 851.6846 -775.7188z" stroke="none" fill="#231F1F" fill-rule="nonzero" />
<path clip-path="url(#69)"  d="M865.9102 -749.2471C 885.0166 -712.7959 859.7412 -706.5625 847.5352 -687.335C 834.3447 -720.2451 858.7314 -725.6787 865.6924 -747.748L865.6924 -747.748L865.9102 -749.2471z" stroke="none" fill="#C1B59A" fill-rule="nonzero" />
<path clip-path="url(#70)"  d="M864.8906 -748.7119C 871.4268 -735.7783 874.8779 -722.5342 865.8311 -710.0645C 860.0635 -702.1143 852.0176 -696.2002 846.5615 -687.9453C 847.2266 -687.9189 847.8896 -687.8926 848.5566 -687.8672C 843.0273 -702.4883 844.5156 -714.0732 853.876 -726.3438C 859.0596 -733.1416 865.7852 -740.4189 867.0605 -749.21C 867.2725 -750.6758 864.9707 -750.7354 864.7617 -749.2813C 863.0947 -737.792 851.9355 -729.0889 846.4121 -719.418C 840.4717 -709.0068 842.4756 -697.4873 846.5166 -686.8008C 846.8408 -685.9414 848.0781 -686.0693 848.5107 -686.7227C 854.9951 -696.5371 865.1963 -703.3535 870.8857 -713.7188C 877.3018 -725.4092 872.4658 -738.8262 866.9316 -749.7783C 866.2588 -751.1064 864.2236 -750.0352 864.8906 -748.7119z" stroke="none" fill="#231F1F" fill-rule="nonzero" />
<path clip-path="url(#71)"  d="M878.3291 -720.5059C 901.4893 -686.4873 877.0928 -677.3955 867.1758 -656.8936C 850.2969 -688.0771 873.9014 -696.2695 878.2842 -718.9922L878.2842 -718.9922L878.3291 -720.5059z" stroke="none" fill="#C1B59A" fill-rule="nonzero" />
<path clip-path="url(#72)"  d="M877.3096 -719.9707C 885.0186 -708.2861 890.2959 -695.5654 883.1943 -682.3633C 878.418 -673.4873 870.7803 -666.5566 866.2002 -657.5068C 866.8662 -657.4795 867.5293 -657.4561 868.1953 -657.4287C 861.2363 -670.8916 860.8135 -682.3701 868.4277 -695.4102C 872.8691 -703.0156 879.2021 -711.2871 879.4805 -720.4688C 879.5234 -721.9521 877.2236 -722.0264 877.1787 -720.54C 876.8438 -709.4258 867.6738 -700.3984 863.3076 -690.7314C 857.9336 -678.8379 860.3223 -667.6494 866.1553 -656.3633C 866.5273 -655.6387 867.7461 -655.4883 868.1514 -656.2842C 873.1709 -666.2061 882.1143 -673.7529 886.5625 -683.9395C 892.3154 -697.1172 886.7939 -709.752 879.3486 -721.0361C 878.5381 -722.2676 876.4932 -721.208 877.3096 -719.9707z" stroke="none" fill="#231F1F" fill-rule="nonzero" />
<path clip-path="url(#73)"  d="M733.2773 -935.1484C 765.7637 -909.8818 776.377 -933.6533 797.4639 -942.2568C 767.4121 -961.0723 757.7441 -938.0332 734.7891 -935.0957L734.7891 -935.0957L733.2773 -935.1484z" stroke="none" fill="#C1B59A" fill-rule="nonzero" />
<path clip-path="url(#74)"  d="M732.665 -934.1729C 743.2275 -926.1758 755.4053 -919.8184 768.7266 -924.4199C 779.4063 -928.1094 787.6162 -936.8047 797.998 -941.2383C 798.8115 -941.583 798.7822 -942.8066 798.0752 -943.2314C 787.6904 -949.5 776.9121 -952.7871 765.1162 -948.7031C 754.6836 -945.0918 744.8662 -935.9072 733.3105 -936.2969C 731.8291 -936.3467 731.7549 -934.0469 733.2412 -933.9961C 742.1406 -933.6953 750.8018 -939.1982 758.3975 -943.1582C 771.9639 -950.2295 783.7109 -949.2129 796.8545 -941.2832C 796.8789 -941.9463 796.9043 -942.6113 796.9326 -943.2764C 787.7344 -939.3516 780.2734 -932.5967 771.4209 -928.0703C 757.9717 -921.1904 744.9199 -927.7705 733.8877 -936.1211C 732.7041 -937.0176 731.4912 -935.0605 732.665 -934.1729z" stroke="none" fill="#231F1F" fill-rule="nonzero" />
<path clip-path="url(#75)"  d="M757.7012 -915.4502C 790.1885 -890.1836 800.8027 -913.9561 821.8906 -922.5596C 791.8398 -941.374 782.1699 -918.3389 759.2148 -915.3994L759.2148 -915.3994L757.7012 -915.4502z" stroke="none" fill="#C1B59A" fill-rule="nonzero" />
<path clip-path="url(#76)"  d="M757.0908 -914.4746C 767.6533 -906.4775 779.8311 -900.1201 793.1504 -904.7217C 803.833 -908.415 812.041 -917.1094 822.4229 -921.541C 823.2363 -921.8848 823.208 -923.1094 822.502 -923.5332C 812.1152 -929.8027 801.3398 -933.0889 789.54 -929.0059C 779.1094 -925.3945 769.2939 -916.21 757.7363 -916.5986C 756.2549 -916.6504 756.1787 -914.3516 757.666 -914.2979C 766.5654 -913.998 775.2266 -919.5 782.8232 -923.46C 796.3896 -930.5342 808.1377 -929.5156 821.2803 -921.585C 821.3057 -922.248 821.3311 -922.9141 821.3574 -923.5781C 812.1602 -919.6543 804.7002 -912.9004 795.8477 -908.3721C 782.3965 -901.4932 769.3447 -908.0723 758.3125 -916.4238C 757.1279 -917.3203 755.917 -915.3623 757.0908 -914.4746z" stroke="none" fill="#231F1F" fill-rule="nonzero" />
<path clip-path="url(#77)"  d="M779.5127 -896.6758C 807.2266 -866.251 821.7314 -887.8691 843.9746 -892.7588C 817.5654 -916.4141 804.1172 -895.3574 780.9951 -896.3701L780.9951 -896.3701L779.5127 -896.6758z" stroke="none" fill="#C1B59A" fill-rule="nonzero" />
<path clip-path="url(#78)"  d="M778.666 -895.8984C 786.9854 -887.0039 797.8184 -877.9834 810.875 -879.8076C 822.7021 -881.46 832.6895 -888.8984 844.2344 -891.6377C 844.999 -891.8203 845.5039 -892.9473 844.8232 -893.5371C 835.9385 -901.2354 826.3291 -906.3213 814.3486 -904.8096C 803.0107 -903.3789 791.5596 -895.3506 779.8447 -897.7793C 778.4043 -898.0771 777.7275 -895.875 779.1846 -895.5742C 787.9531 -893.7578 797.3252 -897.6426 805.54 -900.2695C 820.0615 -904.915 831.5527 -902.0098 843.1279 -891.9824C 843.3262 -892.6133 843.5205 -893.2471 843.7188 -893.8799C 834.2129 -891.627 825.8906 -886.4707 816.6689 -883.4414C 801.9678 -878.6133 790.0986 -887.0449 780.3613 -897.4541C 779.3486 -898.5391 777.6533 -896.9814 778.666 -895.8984z" stroke="none" fill="#231F1F" fill-rule="nonzero" />
<path clip-path="url(#79)"  d="M801.4512 -873.8818C 825.8926 -840.7715 842.54 -860.7842 865.1699 -863.3633C 841.3291 -889.6064 825.7881 -870.043 802.8936 -873.4238L802.8936 -873.4238L801.4512 -873.8818z" stroke="none" fill="#C1B59A" fill-rule="nonzero" />
<path clip-path="url(#80)"  d="M800.6045 -873.1025C 808.6191 -862.5469 818.5762 -853.1699 832.6426 -853.9609C 843.9385 -854.5938 854.2236 -860.7754 865.4268 -862.2422C 866.3027 -862.3574 866.5703 -863.5518 866.0195 -864.1416C 857.5127 -873.1934 847.8389 -879.2256 835.1025 -878.2666C 824.3164 -877.4541 812.5908 -871.5586 801.7822 -874.9844C 800.3672 -875.4316 799.7061 -873.2275 801.1221 -872.7783C 809.791 -870.0313 819.8164 -873.1475 828.376 -874.916C 843.1211 -877.9609 854.0371 -873.5332 864.3232 -862.5859C 864.5195 -863.2188 864.7148 -863.8516 864.9121 -864.4863C 855.0361 -863.1914 846.0527 -858.751 836.3496 -856.7637C 821.5195 -853.7266 810.6865 -863.6152 802.2998 -874.6582C 801.4004 -875.8408 799.7158 -874.2725 800.6045 -873.1025z" stroke="none" fill="#231F1F" fill-rule="nonzero" />
<path clip-path="url(#81)"  d="M821.3896 -848.9697C 845.8301 -815.8613 862.4775 -835.875 885.1084 -838.4541C 861.2676 -864.6973 845.7256 -845.1338 822.8311 -848.5137L822.8311 -848.5137L821.3896 -848.9697z" stroke="none" fill="#C1B59A" fill-rule="nonzero" />
<path clip-path="url(#82)"  d="M820.542 -848.1924C 828.5557 -837.6367 838.5127 -828.2598 852.5791 -829.0498C 863.876 -829.6846 874.1621 -835.8652 885.3643 -837.335C 886.2373 -837.4473 886.5078 -838.6445 885.9531 -839.2334C 877.4492 -848.2852 867.7744 -854.3145 855.04 -853.3564C 844.2549 -852.5449 832.5264 -846.6455 821.7178 -850.0723C 820.3057 -850.5225 819.6426 -848.3184 821.0596 -847.8691C 829.7266 -845.1201 839.7549 -848.2383 848.3135 -850.0049C 863.0566 -853.0488 873.9727 -848.6221 884.2588 -837.6768C 884.457 -838.3115 884.6523 -838.9434 884.8486 -839.5762C 874.9717 -838.2832 865.9902 -833.8428 856.2881 -831.8555C 841.457 -828.8184 830.6221 -838.707 822.2373 -849.749C 821.3389 -850.9326 819.6543 -849.3643 820.542 -848.1924z" stroke="none" fill="#231F1F" fill-rule="nonzero" />
<path clip-path="url(#83)"  d="M839.5664 -822.5078C 864.0059 -789.3945 880.6543 -809.4102 903.2842 -811.9883C 879.4424 -838.2305 863.9014 -818.6689 841.0068 -822.0508L841.0068 -822.0508L839.5664 -822.5078z" stroke="none" fill="#C1B59A" fill-rule="nonzero" />
<path clip-path="url(#84)"  d="M838.7168 -821.7285C 846.7324 -811.1748 856.6904 -801.7959 870.7568 -802.5859C 882.0527 -803.2207 892.3379 -809.4014 903.54 -810.8691C 904.415 -810.9834 904.6836 -812.1787 904.1318 -812.7686C 895.626 -821.8193 885.9521 -827.8516 873.2158 -826.8916C 862.4287 -826.0781 850.7041 -820.1846 839.8955 -823.6094C 838.4814 -824.0566 837.8203 -821.8535 839.2354 -821.4043C 847.9043 -818.6572 857.9297 -821.7754 866.4902 -823.541C 881.2334 -826.585 892.1504 -822.1572 902.4355 -811.2109C 902.6328 -811.8447 902.8291 -812.4775 903.0254 -813.1104C 893.1484 -811.8154 884.168 -807.3799 874.4619 -805.3896C 859.6348 -802.3545 848.7988 -812.2422 840.4131 -823.2842C 839.5166 -824.4678 837.8311 -822.8994 838.7168 -821.7285z" stroke="none" fill="#231F1F" fill-rule="nonzero" />
<path clip-path="url(#85)"  d="M855.7949 -796.7432C 875.5684 -760.6514 894.7539 -778.25 917.5225 -777.7666C 897.4199 -806.9746 879.3955 -789.6738 857.1631 -796.0957L857.1631 -796.0957L855.7949 -796.7432z" stroke="none" fill="#C1B59A" fill-rule="nonzero" />
<path clip-path="url(#86)"  d="M854.7734 -796.2119C 860.9834 -785.2598 868.8906 -775.0859 881.9863 -773.0078C 893.7441 -771.1406 905.708 -776.6563 917.4893 -776.6182C 918.5654 -776.6152 918.9355 -777.7588 918.3711 -778.5459C 911.4795 -788.1885 903.1963 -795.2783 891.1084 -796.4932C 879.9248 -797.6172 867.0537 -792.6816 856.4053 -797.7188C 855.0811 -798.3447 853.8428 -796.4014 855.1826 -795.7695C 863.3779 -791.8936 873.4834 -793.5137 882.1875 -794.1318C 897.4316 -795.2139 907.8008 -789.4072 916.6748 -776.9893C 916.9697 -777.6328 917.2637 -778.2764 917.5566 -778.9189C 907.8916 -778.9512 898.6836 -775.9951 889.1152 -775.1582C 873.5439 -773.7969 863.918 -784.7461 856.8135 -797.2773C 856.0811 -798.5674 854.043 -797.501 854.7734 -796.2119z" stroke="none" fill="#231F1F" fill-rule="nonzero" />
<path clip-path="url(#87)"  d="M874.0537 -767.1436C 893.8291 -731.0537 913.0127 -748.6504 935.7832 -748.1689C 915.6826 -777.3711 897.6543 -760.0752 875.4219 -766.4961L875.4219 -766.4961L874.0537 -767.1436z" stroke="none" fill="#C1B59A" fill-rule="nonzero" />
<path clip-path="url(#88)"  d="M873.0342 -766.6113C 879.2451 -755.6592 887.1504 -745.4873 900.2471 -743.4072C 912.0059 -741.5391 923.9668 -747.0566 935.748 -747.0166C 936.8271 -747.0137 937.1943 -748.1582 936.6309 -748.9463C 929.7412 -758.5879 921.4561 -765.6768 909.3691 -766.8926C 898.1875 -768.0166 885.3145 -763.085 874.665 -768.1191C 873.3418 -768.7441 872.1045 -766.8008 873.4443 -766.1689C 881.6377 -762.2949 891.7441 -763.916 900.4492 -764.5322C 915.6934 -765.6133 926.0615 -759.8066 934.9365 -747.3926C 935.2314 -748.0352 935.5254 -748.6768 935.8184 -749.3193C 926.1523 -749.3496 916.9424 -746.3975 907.375 -745.5605C 891.8037 -744.1973 882.1768 -755.1475 875.0742 -767.6777C 874.3418 -768.9678 872.3037 -767.9004 873.0342 -766.6113z" stroke="none" fill="#231F1F" fill-rule="nonzero" />
<path clip-path="url(#89)"  d="M884.1055 -741.7227C 899.8799 -703.7109 920.8447 -719.1406 943.4326 -716.21C 926.5928 -747.4082 906.8066 -732.1523 885.3965 -740.9336L885.3965 -740.9336L884.1055 -741.7227z" stroke="none" fill="#C1B59A" fill-rule="nonzero" />
<path clip-path="url(#90)"  d="M883.0879 -741.1885C 888.2236 -729.3262 895.3281 -718.0439 908.6953 -715.0596C 920.0088 -712.5313 931.9209 -716.3301 943.3975 -715.0605C 944.2559 -714.9668 944.8545 -716.0283 944.4521 -716.7451C 938.3672 -727.5293 930.5332 -735.6797 917.9893 -737.8682C 907.2881 -739.7402 894.4277 -736.75 884.7178 -742.6973C 883.4521 -743.4717 882.2285 -741.5215 883.4961 -740.7461C 891.0869 -736.0986 901.3164 -736.5869 909.875 -736.2842C 925.1826 -735.748 934.8662 -729.0557 942.4131 -715.6777C 942.7637 -716.2393 943.1143 -716.7979 943.4668 -717.3604C 933.9238 -718.417 924.502 -716.5215 914.96 -716.6797C 899.2539 -716.9395 890.8555 -729.0186 885.126 -742.2539C 884.5342 -743.6211 882.5 -742.541 883.0879 -741.1885z" stroke="none" fill="#231F1F" fill-rule="nonzero" />
<path clip-path="url(#91)"  d="M891.4609 -718.4688C 910.1924 -696.916 936.6836 -683.8633 962.4893 -672.752C 963.8486 -672.166 964.4961 -674.375 963.1475 -674.9561C 937.7422 -685.8945 911.6006 -698.8027 893.1572 -720.0244C 892.1816 -721.1484 890.4902 -719.585 891.4609 -718.4688L891.4609 -718.4688L891.4609 -718.4688z" stroke="none" fill="#231F1F" fill-rule="nonzero" />
<path clip-path="url(#92)"  d="M891.4395 -708.3633C 904.3145 -682.3887 899.8955 -653.4551 893.6934 -626.3027C 893.3672 -624.8643 895.5684 -624.1914 895.9014 -625.6396C 902.2373 -653.4033 906.626 -682.9063 893.4785 -709.4287C 892.8174 -710.7617 890.7813 -709.6885 891.4395 -708.3633L891.4395 -708.3633L891.4395 -708.3633z" stroke="none" fill="#231F1F" fill-rule="nonzero" />
<path clip-path="url(#93)"  d="M903.5635 -695.9365C 918.4004 -674.4092 938.6572 -657.6064 955.5879 -637.8555C 956.5557 -636.7266 958.2471 -638.2891 957.2842 -639.4102C 940.4922 -659 920.3154 -675.6543 905.6035 -697.0029C 904.7695 -698.2129 902.7236 -697.1553 903.5635 -695.9365L903.5635 -695.9365L903.5635 -695.9365z" stroke="none" fill="#231F1F" fill-rule="nonzero" />
<path clip-path="url(#94)"  d="M912.043 -671.917C 924.9023 -648.9873 923.6787 -621.1074 920.6016 -595.8398C 920.4238 -594.3652 922.7227 -594.3057 922.9014 -595.7695C 926.0244 -621.4082 927.1279 -649.7178 914.084 -672.9824C 913.3574 -674.2783 911.3193 -673.2109 912.043 -671.917L912.043 -671.917L912.043 -671.917z" stroke="none" fill="#231F1F" fill-rule="nonzero" />
<path clip-path="url(#95)"  d="M481.917 -709.8154C 483.0771 -725.1611 483.8701 -740.8018 486.6768 -755.9854C 487.6221 -761.0986 489.5586 -771.1592 495.9443 -772.3027C 504.5576 -773.8496 506.9355 -759.6914 507.3848 -754.4219C 507.8154 -749.3867 508.0059 -744.3301 508.2002 -739.2832C 508.958 -719.5605 509.2959 -699.8213 509.5127 -680.0889C 510.126 -624.8262 509.8828 -569.4707 507.0195 -514.2617C 505.8408 -491.522 504.5244 -468.6191 500.9033 -446.0864C 500.2217 -441.854 497.8828 -416.9673 490.6592 -416.6631C 483.9033 -416.9077 481.8662 -435.1636 481.1592 -439.2275C 478.1543 -456.5127 477.167 -474.1328 476.4717 -491.6143C 474.5771 -539 475.6494 -586.5176 477.6162 -633.8857C 478.6689 -659.2109 480.0107 -684.5322 481.917 -709.8154z" stroke="none" fill="#FFE24F" fill-rule="nonzero" />
<path clip-path="url(#96)"  d="M622.54 -734.6016C 624.917 -738.6914 636.5459 -759.7031 643.2305 -750.6143C 645.377 -746.9336 643.8066 -740.5439 643.1846 -736.6865C 641.9121 -728.7773 640.1738 -720.9404 638.3584 -713.1289C 633.1416 -690.6611 627.4551 -668.29 622.7148 -645.7246C 612.1318 -595.3467 608.2402 -544.7119 605.4189 -493.5176C 604.416 -475.3428 604.0859 -456.7427 600.7539 -438.7739C 599.8389 -433.8359 595.832 -415.8545 589.7607 -427.7715C 583.3975 -440.2646 581.8623 -455.6094 580.3496 -469.1724C 577.9883 -490.3184 577.1406 -511.6348 577.459 -532.8945C 578.2021 -582.5674 584.8652 -632.1201 599.999 -679.8105C 605.9229 -698.4775 612.5791 -717.4404 622.54 -734.6016z" stroke="none" fill="#FFE24F" fill-rule="nonzero" />
<path clip-path="url(#97)"  d="M379.751 -359.3354C 380.2324 -358.4199 381.125 -358.2363 381.9092 -358.4873C 382.2402 -358.5498 382.5713 -358.6924 382.8789 -358.9565C 404.3623 -377.5322 435.7031 -389.2031 464.8701 -381.5752C 479.1348 -377.8428 491.9775 -370.2397 501.1729 -359.2271C 513.377 -344.6143 517.8271 -328.249 518.7715 -309.9321C 518.791 -309.5381 518.9375 -309.2324 519.1309 -308.9668C 519.6367 -308.1699 520.6768 -307.6885 521.7666 -308.3154C 553.3906 -326.5361 590.2461 -337.3252 627.2998 -329.1274C 659.2246 -322.064 692.0303 -305.249 710.9238 -279.3569C 726.8955 -257.4712 735.3223 -228.8633 724.5996 -203.2109C 718.9355 -189.6641 708.8438 -176.0762 694.7598 -169.2627C 678.7354 -161.5078 662.3281 -163.7988 646.8916 -171.7373C 646.1836 -172.1006 645.501 -172.0327 644.9658 -171.7324C 644.248 -171.4253 643.7393 -170.7705 643.9043 -169.8955C 643.917 -169.6855 643.9678 -169.4814 644.0645 -169.2856C 654.7705 -136.5371 621.4834 -113.4146 590.4805 -110.6069C 565.5762 -108.3501 534.4697 -115.4644 524.6221 -139.7134C 524.5928 -140.3257 524.1309 -140.8423 523.5234 -141.1289C 522.4414 -141.6821 520.9111 -141.249 520.5566 -140.2202C 502.9707 -117.3667 485.4355 -95.8276 457.1377 -84.1616C 431.0215 -73.3945 402.1602 -71.1963 374.4131 -77.353C 350.3447 -82.6943 324.1455 -91.5356 308.4014 -110.4775C 292.0908 -130.0996 289.1221 -154.8296 299.9688 -177.4985C 300.7588 -179.1479 298.9932 -180.6353 297.6289 -180.3184C 276.665 -181.8613 256.1699 -188.7256 239.8232 -201.3823C 184.0303 -244.5894 178.9443 -327.2842 211.3486 -384.7095C 226.0186 -410.7065 250.9014 -432.8838 284.1221 -432.0947C 331.8896 -430.9604 360.2451 -396.4092 379.751 -359.3354z" stroke="none" fill="#FFFFFF" fill-rule="nonzero" />
<path clip-path="url(#98)"  d="M353.708 -626.2627C 351.8389 -653.8945 347.8467 -681.4961 343.6924 -708.8896C 341.291 -724.7344 338.7354 -740.5732 335.5381 -756.2969C 333.4297 -766.6631 331.4658 -777.4033 327.4229 -787.2979C 391.5947 -817.3428 469.1357 -818.6719 539.0303 -811.7842C 569.9805 -808.7354 600.8838 -803.9072 630.9678 -796.3311C 646.7246 -792.3662 665.7705 -788.4355 679.4023 -779.2451C 673.9063 -768.3877 671.3848 -755.7012 668.4229 -744.1582C 663.1367 -723.5635 658.4824 -702.8271 654.0518 -682.0576C 648.5596 -656.3115 643.2256 -630.4951 638.8438 -604.5557C 635.8945 -587.0898 635.3516 -569.3711 634.2295 -551.7334C 632.1104 -518.4688 630.1885 -485.1831 628.9639 -451.8765C 628.001 -425.686 626.3662 -398.9131 628.9033 -372.7354C 623.0117 -373.9463 616.5742 -374.0293 610.708 -374.4658C 597.54 -375.4443 584.3525 -376.1479 571.1592 -376.6899C 542.6621 -377.8599 513.9414 -378.8462 485.4395 -377.2725C 479.4424 -380.8291 472.9023 -383.5635 465.9287 -385.1855C 442.7803 -390.5703 419.251 -385.8965 399.2236 -374.9214C 391.4961 -374.5601 383.6338 -375.1187 375.96 -374.0771C 369.3477 -385.0571 361.7471 -395.5898 352.9199 -404.7549C 353.0342 -404.9248 353.1338 -405.1177 353.1904 -405.3535C 357.1963 -421.7729 355.4951 -440.564 355.6895 -457.2549C 356.0615 -489.2427 355.876 -521.2393 355.459 -553.2275C 355.1396 -577.5264 355.3486 -602 353.708 -626.2627zM578.1035 -456.2866C 578.6357 -452.9629 587.5547 -406.1045 599.5 -422.6484C 605.6035 -431.1011 605.7754 -444.1338 606.7051 -453.9175C 608.6494 -474.3931 609.4287 -494.9551 610.6182 -515.4746C 613.6064 -566.8838 619.9551 -617.2539 631.6367 -667.5908C 636.1465 -687.0205 641.2949 -706.3545 645.2295 -725.8936C 646.6611 -733.0127 650.5967 -744.7363 646.9551 -751.9297C 646.8984 -752.1182 646.8164 -752.3096 646.6729 -752.5029C 646.5723 -752.6777 646.4531 -752.8145 646.3252 -752.9355C 637.6709 -763.8613 625.9971 -747.7588 621.7158 -740.8535C 606.2568 -715.9072 597.1348 -686.9561 589.9111 -659.084C 573.0176 -593.8828 567.4111 -522.877 578.1035 -456.2866zM472.3154 -496.0757C 473.0547 -475.9058 473.8672 -455.3765 477.8291 -435.4912C 479.0654 -429.2852 481.207 -413.2607 490.6592 -412.9175C 492.9941 -413.0166 494.7598 -414.3301 496.0947 -416.0522C 503.6777 -425.8379 504.4053 -441.7183 505.9277 -453.2241C 509.0225 -476.6597 510.4189 -500.3013 511.4658 -523.8828C 513.9063 -578.792 514.166 -633.8076 513.3906 -688.7539C 513.1289 -707.1572 512.8252 -725.5713 511.9873 -743.9629C 511.7646 -748.8555 511.7783 -753.9609 510.8105 -758.791C 509.3535 -766.0508 500.8721 -783.8535 490.4795 -773.4463C 480.3779 -763.335 480.8906 -743.9082 479.6865 -730.8838C 477.6123 -708.4326 476.1924 -685.9268 475.0166 -663.4209C 472.1055 -607.7432 470.2754 -551.8105 472.3154 -496.0757zM359.5957 -699.7676C 366.1201 -663.5713 372.7666 -627.2861 375.3018 -590.6045C 377.832 -553.9951 377.2754 -517.3447 377.3701 -480.6855C 377.4053 -467.5493 377.2842 -454.3013 378.6104 -441.2075C 379.21 -435.2861 379.4189 -427.29 383.2646 -422.2344C 395.4561 -406.2021 405.6338 -450.6587 406.5381 -454.9268C 415.4248 -496.9014 417.6221 -540.7217 415.5381 -583.4014C 413.3076 -629.0635 405.8496 -675.9482 389.2295 -719.0781C 386.6787 -725.6914 369.3623 -771.4922 355.2529 -754.3799C 355.2451 -754.3711 355.2412 -754.3604 355.2334 -754.3516C 355.1279 -754.249 355.0283 -754.1357 354.9404 -754.001C 351.751 -749.1641 353.1982 -741.4736 353.79 -736.2109C 355.167 -723.9951 357.415 -711.873 359.5957 -699.7676z" stroke="none" fill="#FFBC1A" fill-rule="nonzero" />
<path clip-path="url(#99)"  d="M378.4297 -734.2783C 387.6602 -715.2676 393.748 -694.8057 398.5957 -674.4619C 410.6689 -623.8027 414.3379 -571.833 410.9307 -520.0488C 409.5596 -499.2373 407.4424 -478.3389 403.1074 -457.8677C 401.0088 -447.9497 399.1748 -431.5015 390.9922 -423.9409C 384.2803 -417.7383 382.3467 -443.7627 382.1855 -446.2959C 380.9658 -465.5894 381.3506 -484.9624 381.3916 -504.2773C 381.502 -553.9316 379.7158 -603.0752 371.8623 -652.248C 368.4297 -673.7373 364.2598 -695.1123 360.6553 -716.5742C 359.3213 -724.5186 357.8994 -732.5127 357.3779 -740.5459C 357.1553 -743.9678 356.3496 -748.8828 358.3281 -752.0078C 365.9229 -760.4619 376.1641 -738.9424 378.4297 -734.2783z" stroke="none" fill="#FFE24F" fill-rule="nonzero" />
<path clip-path="url(#100)"  d="M631.2451 -332.1006C 592.8252 -340.6006 555.8525 -331.6646 522.5488 -313.127C 521.2344 -330.9702 516.5078 -347.7646 503.9902 -361.8745C 500.082 -366.2837 495.6563 -370.2964 490.8115 -373.7661C 517.54 -374.9546 544.4561 -374.0781 571.1592 -372.9448C 584.3486 -372.3843 597.5439 -371.731 610.708 -370.7212C 616.7139 -370.2607 623.3047 -370.2158 629.2334 -368.7979C 629.9209 -356.1172 632.4082 -343.7197 634.7568 -331.2402C 633.5869 -331.5298 632.4189 -331.8403 631.2451 -332.1006z" stroke="none" fill="#FFF7D1" fill-rule="nonzero" />
<path clip-path="url(#101)"  d="M794.7637 -394.4692C 786.6875 -369.9312 773.2939 -343.0933 749.6172 -328.5073C 718.9697 -309.6274 683.7217 -318.4541 653.9717 -334.2954C 652.3203 -335.1768 650.7979 -333.6411 651.0146 -332.2993C 651.0078 -332.2363 650.9775 -332.1914 650.9775 -332.1255C 650.9746 -330.2124 650.9678 -328.3008 650.7666 -326.4014C 646.8857 -327.814 642.9541 -329.0552 638.9932 -330.1514C 636.5059 -343.4844 633.707 -356.7031 633.125 -370.2676C 628.9141 -409.5234 632.6221 -450.1724 634.6162 -489.4565C 637.001 -536.4023 638.5322 -583.1953 647.4248 -629.4902C 653.0498 -658.7822 659.124 -688.0146 665.9102 -717.0908C 668.9297 -730.0283 672.0313 -742.9658 675.6416 -755.7725C 677.8154 -763.4697 679.7363 -771.7637 683.6113 -778.9092C 684.0078 -779.6426 683.8643 -780.3408 683.4609 -780.8643C 683.3271 -781.085 683.1426 -781.293 682.8945 -781.4727C 668.5596 -791.8574 647.4639 -796.1807 630.373 -800.3535C 599.6982 -807.8428 568.2734 -812.8525 536.7393 -815.7471C 466.0811 -822.2344 388.415 -820.6318 323.8047 -789.793C 322.4922 -789.166 322.5967 -787.8389 323.3564 -787.0225C 323.376 -786.877 323.4131 -786.7285 323.4785 -786.5684C 331.8203 -766.373 334.248 -743.1904 337.6621 -721.9258C 342.4756 -691.96 346.835 -661.7832 349.3252 -631.5527C 351.2061 -608.6846 351.0088 -585.5781 351.3428 -562.6582C 351.8125 -530.4395 352.0684 -498.2124 351.792 -465.9897C 351.6826 -453.104 351.5361 -440.2139 351.0361 -427.3374C 350.79 -421.02 350.9424 -414.2769 349.6895 -407.9893C 344.1318 -413.3628 338.1074 -418.1816 331.5635 -422.2427C 334.834 -441.877 333.6416 -462.5488 333.2979 -482.3184C 332.8447 -508.5176 331.8379 -534.71 330.5693 -560.8877C 327.46 -625.0352 321.79 -689.4189 306.0732 -752.0566C 305.999 -752.3555 305.8701 -752.5986 305.707 -752.793C 303.9668 -763.7988 300.4395 -774.207 297.5713 -785.0146C 294.1768 -797.8027 296.4521 -806.793 308.1084 -814.8535C 308.5098 -815.1318 308.752 -815.4805 308.8721 -815.8516C 332.5811 -833.9434 363.5908 -843.4258 393.0879 -849.1963C 416.708 -853.8174 440.5381 -855.6777 464.6289 -855.6328C 490.3154 -855.584 516.041 -854.5098 541.6309 -852.4111C 563.0635 -850.6484 585.5107 -849.0869 606.1074 -842.8223C 626.9131 -836.7217 647.8896 -830.2227 667.4619 -821.1123C 680.3516 -815.1084 695.3271 -807.8535 703.5693 -796.2656C 712.1318 -784.2266 704.9883 -767.4004 700.0674 -755.1299C 694.7129 -741.7822 687.8242 -728.7549 684.1006 -714.8857C 678.8457 -702.9043 695.833 -694.9561 704.7998 -690.6582C 721.6875 -682.5654 740.917 -674.5723 754.417 -661.7998C 785.999 -631.9121 807.9854 -588.9463 809.167 -546.3359C 809.165 -546.3154 809.1553 -546.3027 809.1553 -546.2803C 809.4102 -495.7783 810.8252 -443.2578 794.7637 -394.4692zM762.4814 -576.9072C 743.3076 -611.8955 710.1787 -636.6182 666.5449 -633.5928C 665.7275 -633.5361 664.7734 -633.0703 664.6221 -632.2188C 658.2422 -595.8291 654.0469 -558.7783 653.9287 -521.8691C 654.4443 -495.2822 653.1064 -468.688 652.2832 -442.1172C 651.6143 -420.6025 650.1563 -398.5186 653.0264 -377.0933C 653.5146 -373.4287 654.0576 -369.1851 656.0732 -365.9224C 658.7686 -361.5708 666.2803 -359.8203 671.041 -358.0762C 688.4531 -351.6963 707.4492 -348.6758 725.1885 -355.6748C 742.6045 -362.5479 754.8252 -380.3452 762.4023 -395.8647C 770.9482 -413.3662 775.9141 -432.1152 778.4893 -451.1846C 784.2695 -493.9927 783.9346 -537.7539 762.4814 -576.9072z" stroke="none" fill="#FFF7D1" fill-rule="nonzero" />
<path clip-path="url(#102)"  d="M382.0771 -363.3037C 380.7686 -365.7451 379.4141 -368.1787 378.0146 -370.5957C 382.8643 -371.147 387.8115 -371.0625 392.7295 -371.0591C 389.0244 -368.6826 385.4619 -366.0918 382.0771 -363.3037z" stroke="none" fill="#FFF7D1" fill-rule="nonzero" />
<path clip-path="url(#103)"  d="M794.9639 -383.1934C 785.5557 -358.4741 769.5811 -334.2041 744.5264 -321.2524C 715.7666 -306.3901 681.9443 -315.7085 654.9209 -329.5225C 654.875 -327.9863 654.7695 -326.4565 654.5557 -324.9307C 681.1465 -314.4561 704.9648 -296.687 719.5791 -273.5781C 735.0098 -249.1875 738.1104 -219.083 724.2861 -193.5029C 717.5869 -181.1069 706.0186 -169.1094 692.0479 -163.9043C 677.3301 -158.4224 662.7129 -160.3818 648.9531 -166.5596C 656.6035 -134.6943 625.7676 -112.2388 594.9902 -107.4194C 568.1631 -103.2178 534.3008 -111.1074 522.0791 -135.8379C 514.1484 -125.5352 506.1553 -115.2974 496.9561 -105.9434C 485.5859 -94.3877 471.5342 -86.0332 456.2695 -79.7407C 428.3389 -68.2271 397.2686 -68.0049 368.0674 -74.9585C 342.7783 -80.9814 318.1152 -91.5815 302.3838 -111.7988C 287.4873 -130.9409 286.1074 -155.3364 295.374 -176.77C 221.0244 -183.5962 182.6826 -254.5981 188.0264 -319.333C 192.2178 -370.1421 221.9463 -437.3164 286.042 -435.7944C 301.9287 -435.4175 315.7705 -431.1978 327.9033 -424.4004C 330.8721 -443.3379 329.6201 -463.2959 329.3135 -482.3184C 328.8926 -508.5176 327.8408 -534.71 326.585 -560.8877C 323.5615 -623.8945 317.9912 -687.124 302.8018 -748.6904C 302.4717 -748.9814 302.2256 -749.3789 302.1602 -749.8945C 300.3096 -764.543 293.9785 -778.1572 291.9424 -792.6924C 290.4814 -803.124 296.2744 -810.8486 304.4932 -816.9385C 304.5801 -817.2393 304.7676 -817.5342 305.1045 -817.7959C 327.6025 -835.3232 356.2432 -844.75 384.2861 -851.167C 408.7119 -856.7529 433.7139 -859.1025 458.8076 -859.3545C 485.6563 -859.625 512.5674 -858.3936 539.3193 -856.3369C 561.7998 -854.6104 585.5732 -853.0029 607.166 -846.4336C 628.3643 -840.2148 649.4307 -833.4053 669.4707 -824.3457C 682.6387 -818.3906 697.2246 -810.7637 706.0303 -799.4131C 714.6426 -788.3164 711.168 -775.1182 707.126 -762.8418C 701.71 -746.3799 692.6514 -731.0615 688.0752 -714.3555C 688.0518 -714.2061 688.0127 -714.0537 687.9434 -713.8906C 682.1318 -700.6465 713.6582 -690.9424 722.6465 -686.3232C 741.6699 -676.5527 756.9434 -665.9434 770.4688 -649.9541C 796.5977 -619.0771 814.1523 -579.6045 813.1787 -539.626C 813.1787 -539.624 813.1777 -539.6191 813.1777 -539.6152C 813.4854 -487.2568 813.9346 -433.0347 794.9639 -383.1934zM284.1221 -432.0947C 250.9014 -432.8838 226.0186 -410.7065 211.3486 -384.7095C 178.9443 -327.2842 184.0303 -244.5894 239.8232 -201.3823C 256.1699 -188.7256 276.665 -181.8613 297.6289 -180.3184C 298.9932 -180.6353 300.7588 -179.1479 299.9688 -177.4985C 289.1221 -154.8296 292.0908 -130.0996 308.4014 -110.4775C 324.1455 -91.5356 350.3447 -82.6943 374.4131 -77.353C 402.1602 -71.1963 431.0215 -73.3945 457.1377 -84.1616C 485.4355 -95.8276 502.9707 -117.3667 520.5566 -140.2202C 520.9111 -141.249 522.4414 -141.6821 523.5234 -141.1289C 524.1309 -140.8423 524.5928 -140.3257 524.6221 -139.7134C 534.4697 -115.4644 565.5762 -108.3501 590.4805 -110.6069C 621.4834 -113.4146 654.7705 -136.5371 644.0645 -169.2856C 643.9678 -169.4814 643.917 -169.6855 643.9043 -169.8955C 643.7393 -170.7705 644.248 -171.4253 644.9658 -171.7324C 645.501 -172.0327 646.1836 -172.1006 646.8916 -171.7373C 662.3281 -163.7988 678.7354 -161.5078 694.7598 -169.2627C 708.8438 -176.0762 718.9355 -189.6641 724.5996 -203.2109C 735.3223 -228.8633 726.8955 -257.4712 710.9238 -279.3569C 692.0303 -305.249 659.2246 -322.064 627.2998 -329.1274C 590.2461 -337.3252 553.3906 -326.5361 521.7666 -308.3154C 520.6768 -307.6885 519.6367 -308.1699 519.1309 -308.9668C 518.9375 -309.2324 518.791 -309.5381 518.7715 -309.9321C 517.8271 -328.249 513.377 -344.6143 501.1729 -359.2271C 491.9775 -370.2397 479.1348 -377.8428 464.8701 -381.5752C 435.7031 -389.2031 404.3623 -377.5322 382.8789 -358.9565C 382.5713 -358.6924 382.2402 -358.5498 381.9092 -358.4873C 381.125 -358.2363 380.2324 -358.4199 379.751 -359.3354C 360.2451 -396.4092 331.8896 -430.9604 284.1221 -432.0947zM355.6895 -457.2549C 355.4951 -440.564 357.1963 -421.7729 353.1904 -405.3535C 353.1338 -405.1177 353.0342 -404.9248 352.9199 -404.7549C 361.7471 -395.5898 369.3477 -385.0571 375.96 -374.0771C 383.6338 -375.1187 391.4961 -374.5601 399.2236 -374.9214C 419.251 -385.8965 442.7803 -390.5703 465.9287 -385.1855C 472.9023 -383.5635 479.4424 -380.8291 485.4395 -377.2725C 513.9414 -378.8462 542.6621 -377.8599 571.1592 -376.6899C 584.3525 -376.1479 597.54 -375.4443 610.708 -374.4658C 616.5742 -374.0293 623.0117 -373.9463 628.9033 -372.7354C 626.3662 -398.9131 628.001 -425.686 628.9639 -451.8765C 630.1885 -485.1831 632.1104 -518.4688 634.2295 -551.7334C 635.3516 -569.3711 635.8945 -587.0898 638.8438 -604.5557C 643.2256 -630.4951 648.5596 -656.3115 654.0518 -682.0576C 658.4824 -702.8271 663.1367 -723.5635 668.4229 -744.1582C 671.3848 -755.7012 673.9063 -768.3877 679.4023 -779.2451C 665.7705 -788.4355 646.7246 -792.3662 630.9678 -796.3311C 600.8838 -803.9072 569.9805 -808.7354 539.0303 -811.7842C 469.1357 -818.6719 391.5947 -817.3428 327.4229 -787.2979C 331.4658 -777.4033 333.4297 -766.6631 335.5381 -756.2969C 338.7354 -740.5732 341.291 -724.7344 343.6924 -708.8896C 347.8467 -681.4961 351.8389 -653.8945 353.708 -626.2627C 355.3486 -602 355.1396 -577.5264 355.459 -553.2275C 355.876 -521.2393 356.0615 -489.2427 355.6895 -457.2549zM378.0146 -370.5957C 379.4141 -368.1787 380.7686 -365.7451 382.0771 -363.3037C 385.4619 -366.0918 389.0244 -368.6826 392.7295 -371.0591C 387.8115 -371.0625 382.8643 -371.147 378.0146 -370.5957zM610.708 -370.7212C 597.5439 -371.731 584.3486 -372.3843 571.1592 -372.9448C 544.4561 -374.0781 517.54 -374.9546 490.8115 -373.7661C 495.6563 -370.2964 500.082 -366.2837 503.9902 -361.8745C 516.5078 -347.7646 521.2344 -330.9702 522.5488 -313.127C 555.8525 -331.6646 592.8252 -340.6006 631.2451 -332.1006C 632.4189 -331.8403 633.5869 -331.5298 634.7568 -331.2402C 632.4082 -343.7197 629.9209 -356.1172 629.2334 -368.7979C 623.3047 -370.2158 616.7139 -370.2607 610.708 -370.7212zM809.167 -546.3359C 807.9854 -588.9463 785.999 -631.9121 754.417 -661.7998C 740.917 -674.5723 721.6875 -682.5654 704.7998 -690.6582C 695.833 -694.9561 678.8457 -702.9043 684.1006 -714.8857C 687.8242 -728.7549 694.7129 -741.7822 700.0674 -755.1299C 704.9883 -767.4004 712.1318 -784.2266 703.5693 -796.2656C 695.3271 -807.8535 680.3516 -815.1084 667.4619 -821.1123C 647.8896 -830.2227 626.9131 -836.7217 606.1074 -842.8223C 585.5107 -849.0869 563.0635 -850.6484 541.6309 -852.4111C 516.041 -854.5098 490.3154 -855.584 464.6289 -855.6328C 440.5381 -855.6777 416.708 -853.8174 393.0879 -849.1963C 363.5908 -843.4258 332.5811 -833.9434 308.8721 -815.8516C 308.752 -815.4805 308.5098 -815.1318 308.1084 -814.8535C 296.4521 -806.793 294.1768 -797.8027 297.5713 -785.0146C 300.4395 -774.207 303.9668 -763.7988 305.707 -752.793C 305.8701 -752.5986 305.999 -752.3555 306.0732 -752.0566C 321.79 -689.4189 327.46 -625.0352 330.5693 -560.8877C 331.8379 -534.71 332.8447 -508.5176 333.2979 -482.3184C 333.6416 -462.5488 334.834 -441.877 331.5635 -422.2427C 338.1074 -418.1816 344.1318 -413.3628 349.6895 -407.9893C 350.9424 -414.2769 350.79 -421.02 351.0361 -427.3374C 351.5361 -440.2139 351.6826 -453.104 351.792 -465.9897C 352.0684 -498.2124 351.8125 -530.4395 351.3428 -562.6582C 351.0088 -585.5781 351.2061 -608.6846 349.3252 -631.5527C 346.835 -661.7832 342.4756 -691.96 337.6621 -721.9258C 334.248 -743.1904 331.8203 -766.373 323.4785 -786.5684C 323.4131 -786.7285 323.376 -786.877 323.3564 -787.0225C 322.5967 -787.8389 322.4922 -789.166 323.8047 -789.793C 388.415 -820.6318 466.0811 -822.2344 536.7393 -815.7471C 568.2734 -812.8525 599.6982 -807.8428 630.373 -800.3535C 647.4639 -796.1807 668.5596 -791.8574 682.8945 -781.4727C 683.1426 -781.293 683.3271 -781.085 683.4609 -780.8643C 683.8643 -780.3408 684.0078 -779.6426 683.6113 -778.9092C 679.7363 -771.7637 677.8154 -763.4697 675.6416 -755.7725C 672.0313 -742.9658 668.9297 -730.0283 665.9102 -717.0908C 659.124 -688.0146 653.0498 -658.7822 647.4248 -629.4902C 638.5322 -583.1953 637.001 -536.4023 634.6162 -489.4565C 632.6221 -450.1724 628.9141 -409.5234 633.125 -370.2676C 633.707 -356.7031 636.5059 -343.4844 638.9932 -330.1514C 642.9541 -329.0552 646.8857 -327.814 650.7666 -326.4014C 650.9678 -328.3008 650.9746 -330.2124 650.9775 -332.1255C 650.9775 -332.1914 651.0078 -332.2363 651.0146 -332.2993C 650.7979 -333.6411 652.3203 -335.1768 653.9717 -334.2954C 683.7217 -318.4541 718.9697 -309.6274 749.6172 -328.5073C 773.2939 -343.0933 786.6875 -369.9312 794.7637 -394.4692C 810.8252 -443.2578 809.4102 -495.7783 809.1553 -546.2803C 809.1553 -546.3027 809.165 -546.3154 809.167 -546.3359z" stroke="none" fill="#231F1F" fill-rule="nonzero" />
<path clip-path="url(#104)"  d="M762.4023 -395.8647C 754.8252 -380.3452 742.6045 -362.5479 725.1885 -355.6748C 707.4492 -348.6758 688.4531 -351.6963 671.041 -358.0762C 666.2803 -359.8203 658.7686 -361.5708 656.0732 -365.9224C 654.0576 -369.1851 653.5146 -373.4287 653.0264 -377.0933C 650.1563 -398.5186 651.6143 -420.6025 652.2832 -442.1172C 653.1064 -468.688 654.4443 -495.2822 653.9287 -521.8691C 654.0469 -558.7783 658.2422 -595.8291 664.6221 -632.2188C 664.7734 -633.0703 665.7275 -633.5361 666.5449 -633.5928C 710.1787 -636.6182 743.3076 -611.8955 762.4814 -576.9072C 783.9346 -537.7539 784.2695 -493.9927 778.4893 -451.1846C 775.9141 -432.1152 770.9482 -413.3662 762.4023 -395.8647zM775.7158 -528.125C 771.9609 -551.877 761.0938 -576.0566 746.0264 -595.4053C 737.0029 -606.9932 724.7979 -616.1836 711.1514 -622.5078C 703.709 -625.9551 695.6377 -628.0137 687.4922 -629.3037C 683.3027 -629.9707 679.043 -630.124 674.8027 -630.1895C 667.8838 -630.2939 667.9746 -628.5137 666.9678 -622.4453C 661.4717 -589.2715 658.0205 -555.4639 657.9131 -521.8691C 658.6416 -484.2236 655.7666 -446.6104 655.5752 -408.9722C 655.5088 -396.3604 654.7842 -382.4941 658.501 -370.2354C 660.4912 -363.6821 672.7734 -361.3213 678.8369 -359.3691C 689.7441 -355.856 701.3916 -354.3242 712.8262 -356.0151C 736.4268 -359.5005 750.8535 -381.146 760.0303 -399.9424C 769.7285 -419.8096 773.8262 -441.9785 775.9473 -463.5898C 778.0176 -484.6909 779.0352 -507.1172 775.7158 -528.125z" stroke="none" fill="#231F1F" fill-rule="nonzero" />
<path clip-path="url(#105)"  d="M621.7158 -740.8535C 625.9971 -747.7588 637.6709 -763.8613 646.3252 -752.9355C 646.4531 -752.8145 646.5723 -752.6777 646.6729 -752.5029C 646.8164 -752.3096 646.8984 -752.1182 646.9551 -751.9297C 650.5967 -744.7363 646.6611 -733.0127 645.2295 -725.8936C 641.2949 -706.3545 636.1465 -687.0205 631.6367 -667.5908C 619.9551 -617.2539 613.6064 -566.8838 610.6182 -515.4746C 609.4287 -494.9551 608.6494 -474.3931 606.7051 -453.9175C 605.7754 -444.1338 605.6035 -431.1011 599.5 -422.6484C 587.5547 -406.1045 578.6357 -452.9629 578.1035 -456.2866C 567.4111 -522.877 573.0176 -593.8828 589.9111 -659.084C 597.1348 -686.9561 606.2568 -715.9072 621.7158 -740.8535zM580.3496 -469.1724C 581.8623 -455.6094 583.3975 -440.2646 589.7607 -427.7715C 595.832 -415.8545 599.8389 -433.8359 600.7539 -438.7739C 604.0859 -456.7427 604.416 -475.3428 605.4189 -493.5176C 608.2402 -544.7119 612.1318 -595.3467 622.7148 -645.7246C 627.4551 -668.29 633.1416 -690.6611 638.3584 -713.1289C 640.1738 -720.9404 641.9121 -728.7773 643.1846 -736.6865C 643.8066 -740.5439 645.377 -746.9336 643.2305 -750.6143C 636.5459 -759.7031 624.917 -738.6914 622.54 -734.6016C 612.5791 -717.4404 605.9229 -698.4775 599.999 -679.8105C 584.8652 -632.1201 578.2021 -582.5674 577.459 -532.8945C 577.1406 -511.6348 577.9883 -490.3184 580.3496 -469.1724z" stroke="none" fill="#231F1F" fill-rule="nonzero" />
<path clip-path="url(#106)"  d="M354.9404 -754.001C 355.0283 -754.1357 355.1279 -754.249 355.2334 -754.3516C 355.2412 -754.3604 355.2451 -754.3711 355.2529 -754.3799C 369.3623 -771.4922 386.6787 -725.6914 389.2295 -719.0781C 405.8496 -675.9482 413.3076 -629.0635 415.5381 -583.4014C 417.6221 -540.7217 415.4248 -496.9014 406.5381 -454.9268C 405.6338 -450.6587 395.4561 -406.2021 383.2646 -422.2344C 379.4189 -427.29 379.21 -435.2861 378.6104 -441.2075C 377.2842 -454.3013 377.4053 -467.5493 377.3701 -480.6855C 377.2754 -517.3447 377.832 -553.9951 375.3018 -590.6045C 372.7666 -627.2861 366.1201 -663.5713 359.5957 -699.7676C 357.415 -711.873 355.167 -723.9951 353.79 -736.2109C 353.1982 -741.4736 351.751 -749.1641 354.9404 -754.001zM357.3779 -740.5459C 357.8994 -732.5127 359.3213 -724.5186 360.6553 -716.5742C 364.2598 -695.1123 368.4297 -673.7373 371.8623 -652.248C 379.7158 -603.0752 381.502 -553.9316 381.3916 -504.2773C 381.3506 -484.9624 380.9658 -465.5894 382.1855 -446.2959C 382.3467 -443.7627 384.2803 -417.7383 390.9922 -423.9409C 399.1748 -431.5015 401.0088 -447.9497 403.1074 -457.8677C 407.4424 -478.3389 409.5596 -499.2373 410.9307 -520.0488C 414.3379 -571.833 410.6689 -623.8027 398.5957 -674.4619C 393.748 -694.8057 387.6602 -715.2676 378.4297 -734.2783C 376.1641 -738.9424 365.9229 -760.4619 358.3281 -752.0078C 356.3496 -748.8828 357.1553 -743.9678 357.3779 -740.5459z" stroke="none" fill="#231F1F" fill-rule="nonzero" />
<path clip-path="url(#107)"  d="M479.6865 -730.8838C 480.8906 -743.9082 480.3779 -763.335 490.4795 -773.4463C 500.8721 -783.8535 509.3535 -766.0508 510.8105 -758.791C 511.7783 -753.9609 511.7646 -748.8555 511.9873 -743.9629C 512.8252 -725.5713 513.1289 -707.1572 513.3906 -688.7539C 514.166 -633.8076 513.9063 -578.792 511.4658 -523.8828C 510.4189 -500.3013 509.0225 -476.6597 505.9277 -453.2241C 504.4053 -441.7183 503.6777 -425.8379 496.0947 -416.0522C 494.7598 -414.3301 492.9941 -413.0166 490.6592 -412.9175C 481.207 -413.2607 479.0654 -429.2852 477.8291 -435.4912C 473.8672 -455.3765 473.0547 -475.9058 472.3154 -496.0757C 470.2754 -551.8105 472.1055 -607.7432 475.0166 -663.4209C 476.1924 -685.9268 477.6123 -708.4326 479.6865 -730.8838zM476.4717 -491.6143C 477.167 -474.1328 478.1543 -456.5127 481.1592 -439.2275C 481.8662 -435.1636 483.9033 -416.9077 490.6592 -416.6631C 497.8828 -416.9673 500.2217 -441.854 500.9033 -446.0864C 504.5244 -468.6191 505.8408 -491.522 507.0195 -514.2617C 509.8828 -569.4707 510.126 -624.8262 509.5127 -680.0889C 509.2959 -699.8213 508.958 -719.5605 508.2002 -739.2832C 508.0059 -744.3301 507.8154 -749.3867 507.3848 -754.4219C 506.9355 -759.6914 504.5576 -773.8496 495.9443 -772.3027C 489.5586 -771.1592 487.6221 -761.0986 486.6768 -755.9854C 483.8701 -740.8018 483.0771 -725.1611 481.917 -709.8154C 480.0107 -684.5322 478.6689 -659.2109 477.6162 -633.8857C 475.6494 -586.5176 474.5771 -539 476.4717 -491.6143z" stroke="none" fill="#231F1F" fill-rule="nonzero" />
<path clip-path="url(#108)"  d="M570.9033 -291.2495C 621.7363 -289.8369 673.2764 -245.3574 674.6895 -191.6987C 705.0479 -209.3496 702.9307 -247.4751 688.1035 -272.8926C 672.5713 -297.604 601.2627 -307.4785 570.9033 -291.2495L570.9033 -291.2495L570.9033 -291.2495z" stroke="none" fill="#F0F2F2" fill-rule="nonzero" />
<path clip-path="url(#109)"  d="M570.9033 -292.7495C 624.0078 -290.873 674.3096 -245.877 676.1895 -191.6987C 675.4375 -192.1304 674.6846 -192.562 673.9326 -192.9941C 691.7754 -203.6836 698.7891 -222.7061 696.668 -242.834C 695.666 -252.3403 692.4502 -261.6406 687.9824 -270.0474C 684.6064 -276.3994 678.9795 -280.6846 672.8174 -284.1655C 657.4258 -292.8599 638.7295 -296.2183 621.3018 -297.3848C 604.917 -298.4819 586.5146 -297.6919 571.6602 -289.9541C 569.9473 -289.062 568.4297 -291.6509 570.1465 -292.5449C 586.2725 -300.9448 606.0693 -301.5342 623.8105 -300.207C 642.2344 -298.8286 661.8965 -294.71 677.7119 -284.7393C 692.4951 -275.4194 698.4463 -257.0425 699.9043 -240.3799C 701.6807 -220.0942 693.0801 -200.9678 675.4463 -190.4033C 674.4414 -189.8013 673.2285 -190.584 673.1895 -191.6987C 671.3672 -244.208 622.3408 -287.9321 570.9033 -289.7495C 568.9746 -289.8179 568.9678 -292.8179 570.9033 -292.7495z" stroke="none" fill="#F0F2F2" fill-rule="nonzero" />
<path d="" stroke="none" fill="none" />
<path d="" stroke="none" fill="none" />
<path d="" stroke="none" fill="none" />
<path d="" stroke="none" fill="none" />
</g>
</g>
</svg>