<svg id="Layer_1" data-name="Layer 1" xmlns="http://www.w3.org/2000/svg" viewBox="0 0 114 114"><defs><style>.cls-1{fill:#ffc200;}.cls-2{fill:#1c1c28;}</style></defs><path class="cls-1" d="M69.44,45.52a7.86,7.86,0,0,1-7.8,6.92,7.5,7.5,0,0,1-.94,0,7.86,7.86,0,0,1,.91-15.66,7.19,7.19,0,0,1,.94.06,7.76,7.76,0,0,1,4.92,2.56A7.87,7.87,0,0,1,69.44,45.52Z"/><path class="cls-2" d="M111.42,44.65A47,47,0,0,1,65.24,91.1H63.48a34.12,34.12,0,0,1-11-66.1A21.63,21.63,0,1,0,63,22.91c.17,0,.1,0-.1,0a45.79,45.79,0,0,0-6.24.61A47.06,47.06,0,0,0,64.36,117H8.43a5.85,5.85,0,0,1-5.85-5.85V2.85A5.85,5.85,0,0,1,8.43-3H63.48C89.69-3,111.74,18.44,111.42,44.65Z"/></svg>