<svg id="Layer_1" data-name="Layer 1" xmlns="http://www.w3.org/2000/svg" viewBox="0 0 144 144"><defs><style>.cls-1{fill:#fd1e43;}</style></defs><path class="cls-1" d="M69.49,97.07V78.38a.51.51,0,0,0-.73-.45L50,87.33a.5.5,0,0,0-.27.45v18.69a.5.5,0,0,0,.72.45l18.81-9.4A.51.51,0,0,0,69.49,97.07Z"/><path class="cls-1" d="M94.55,88.34,75.26,78a.51.51,0,0,0-.75.44V97.08a.52.52,0,0,0,.27.44l19.3,10.38a.51.51,0,0,0,.74-.45V88.78A.5.5,0,0,0,94.55,88.34Z"/><path class="cls-1" d="M89.39,111.46l-17.17-8.55a.49.49,0,0,0-.44,0l-17.17,8.55a.5.5,0,0,0,0,.89l17.16,8.76a.53.53,0,0,0,.46,0l17.16-8.76A.5.5,0,0,0,89.39,111.46Z"/><path class="cls-1" d="M143.27,63.64,124.47,73a.5.5,0,0,0-.28.45V118.4a.51.51,0,0,0,.73.45l18.8-9.41A.49.49,0,0,0,144,109V64.09A.5.5,0,0,0,143.27,63.64Z"/><path class="cls-1" d="M118.88,73l-18.8-9.4a.5.5,0,0,0-.73.45V109a.49.49,0,0,0,.28.45l18.8,9.41a.51.51,0,0,0,.73-.45V73.49A.5.5,0,0,0,118.88,73Z"/><path class="cls-1" d="M143.27,37.08l-18.8,9.4a.51.51,0,0,0-.28.45V65.62a.5.5,0,0,0,.73.45l18.8-9.4a.51.51,0,0,0,.28-.45V37.53A.5.5,0,0,0,143.27,37.08Z"/><path class="cls-1" d="M118.88,46.48l-18.8-9.4a.51.51,0,0,0-.73.45V56.22a.51.51,0,0,0,.28.45l18.8,9.4a.5.5,0,0,0,.73-.45V46.93A.51.51,0,0,0,118.88,46.48Z"/><path class="cls-1" d="M139.07,31.65,121.9,22.89a.51.51,0,0,0-.45,0l-17.17,8.76a.5.5,0,0,0,0,.89l17.16,8.55a.51.51,0,0,0,.45,0l17.17-8.55A.5.5,0,0,0,139.07,31.65Z"/><path class="cls-1" d="M43.92,37.08l-18.8,9.4a.51.51,0,0,0-.28.45V92.17a.5.5,0,0,0,.73.45l18.8-9.4a.5.5,0,0,0,.28-.45V37.53A.51.51,0,0,0,43.92,37.08Z"/><path class="cls-1" d="M19.53,46.48.73,37.08a.5.5,0,0,0-.73.45V82.77a.5.5,0,0,0,.28.45l18.8,9.4a.5.5,0,0,0,.73-.45V46.93A.51.51,0,0,0,19.53,46.48Z"/><path class="cls-1" d="M39.72,31.65,22.55,22.89a.51.51,0,0,0-.45,0L4.93,31.65a.5.5,0,0,0,0,.89L22.1,41.09a.51.51,0,0,0,.45,0l17.16-8.55A.5.5,0,0,0,39.72,31.65Z"/><path class="cls-1" d="M43.92,89.86l-18.8,9.4a.51.51,0,0,0-.28.45V118.4a.51.51,0,0,0,.73.45l18.8-9.41a.49.49,0,0,0,.28-.45V90.31A.51.51,0,0,0,43.92,89.86Z"/><path class="cls-1" d="M19.53,99.26.73,89.86a.5.5,0,0,0-.73.45V109a.49.49,0,0,0,.28.45l18.8,9.41a.51.51,0,0,0,.73-.45V99.71A.51.51,0,0,0,19.53,99.26Z"/></svg>