<svg id="Layer_1" data-name="Layer 1" xmlns="http://www.w3.org/2000/svg" viewBox="0 0 152 152"><defs><style>.cls-1{fill:#fd1e43;}</style></defs><path class="cls-1" d="M73.35,102.46V82.74a.53.53,0,0,0-.77-.48L52.73,92.18a.54.54,0,0,0-.29.48v19.72a.53.53,0,0,0,.76.48l19.85-9.93A.53.53,0,0,0,73.35,102.46Z"/><path class="cls-1" d="M99.81,93.25l-20.37-11a.53.53,0,0,0-.79.46v19.71a.56.56,0,0,0,.28.47l20.37,11a.54.54,0,0,0,.79-.47V93.72A.53.53,0,0,0,99.81,93.25Z"/><path class="cls-1" d="M94.36,117.65l-18.12-9a.57.57,0,0,0-.48,0l-18.12,9a.53.53,0,0,0,0,.95l18.12,9.23a.51.51,0,0,0,.48,0l18.12-9.23A.53.53,0,0,0,94.36,117.65Z"/><path class="cls-1" d="M151.23,67.17,131.38,77.1a.52.52,0,0,0-.29.47V125a.53.53,0,0,0,.77.48l19.85-9.93a.52.52,0,0,0,.29-.47V67.65A.54.54,0,0,0,151.23,67.17Z"/><path class="cls-1" d="M125.49,77.1l-19.85-9.93a.54.54,0,0,0-.77.48v47.4a.53.53,0,0,0,.3.47L125,125.45a.53.53,0,0,0,.77-.48V77.57A.52.52,0,0,0,125.49,77.1Z"/><path class="cls-1" d="M151.23,39.14l-19.85,9.93a.52.52,0,0,0-.29.47V69.26a.53.53,0,0,0,.77.48l19.85-9.92a.54.54,0,0,0,.29-.48V39.62A.54.54,0,0,0,151.23,39.14Z"/><path class="cls-1" d="M125.49,49.07l-19.85-9.93a.54.54,0,0,0-.77.48V59.34a.55.55,0,0,0,.3.48L125,69.74a.53.53,0,0,0,.77-.48V49.54A.52.52,0,0,0,125.49,49.07Z"/><path class="cls-1" d="M146.8,33.4l-18.12-9.23a.53.53,0,0,0-.49,0L110.07,33.4a.54.54,0,0,0,0,1l18.12,9a.55.55,0,0,0,.47,0l18.12-9A.53.53,0,0,0,146.8,33.4Z"/><path class="cls-1" d="M46.36,39.14,26.51,49.07a.52.52,0,0,0-.29.47V97.3a.53.53,0,0,0,.77.47l19.84-9.92a.55.55,0,0,0,.3-.48V39.62A.54.54,0,0,0,46.36,39.14Z"/><path class="cls-1" d="M20.62,49.07.77,39.14a.54.54,0,0,0-.77.48V87.37a.54.54,0,0,0,.29.48l19.85,9.92a.53.53,0,0,0,.77-.47V49.54A.52.52,0,0,0,20.62,49.07Z"/><path class="cls-1" d="M41.93,33.4,23.81,24.17a.53.53,0,0,0-.49,0L5.2,33.4a.53.53,0,0,0,0,1l18.12,9a.55.55,0,0,0,.47,0l18.12-9A.54.54,0,0,0,41.93,33.4Z"/><path class="cls-1" d="M46.36,94.85l-19.85,9.93a.52.52,0,0,0-.29.47V125a.53.53,0,0,0,.77.48l19.84-9.93a.53.53,0,0,0,.3-.47V95.33A.54.54,0,0,0,46.36,94.85Z"/><path class="cls-1" d="M20.62,104.78.77,94.85a.54.54,0,0,0-.77.48v19.72a.52.52,0,0,0,.29.47l19.85,9.93a.53.53,0,0,0,.77-.48V105.25A.52.52,0,0,0,20.62,104.78Z"/></svg>