<svg id="Layer_1" data-name="Layer 1" xmlns="http://www.w3.org/2000/svg" viewBox="0 0 180 180"><defs><style>.cls-1{fill:#fd1e43;}</style></defs><path class="cls-1" d="M86.86,121.33V98a.63.63,0,0,0-.91-.57L62.44,109.17a.61.61,0,0,0-.34.56v23.36a.62.62,0,0,0,.9.56l23.51-11.76A.62.62,0,0,0,86.86,121.33Z"/><path class="cls-1" d="M118.19,110.43l-24.12-13a.63.63,0,0,0-.93.55v23.34a.63.63,0,0,0,.33.55l24.13,13a.63.63,0,0,0,.92-.55V111A.61.61,0,0,0,118.19,110.43Z"/><path class="cls-1" d="M111.74,139.32,90.28,128.63a.61.61,0,0,0-.56,0L68.26,139.32a.63.63,0,0,0,0,1.12l21.45,10.94a.66.66,0,0,0,.58,0l21.45-10.94A.63.63,0,0,0,111.74,139.32Z"/><path class="cls-1" d="M179.09,79.55,155.59,91.3a.62.62,0,0,0-.35.56V148a.63.63,0,0,0,.91.56l23.5-11.75a.63.63,0,0,0,.35-.57V80.11A.63.63,0,0,0,179.09,79.55Z"/><path class="cls-1" d="M148.6,91.3,125.1,79.55a.63.63,0,0,0-.91.56v56.13a.63.63,0,0,0,.35.57L148,148.56A.63.63,0,0,0,149,148V91.86A.62.62,0,0,0,148.6,91.3Z"/><path class="cls-1" d="M179.09,46.35l-23.5,11.76a.61.61,0,0,0-.35.56V82a.63.63,0,0,0,.91.57l23.5-11.76a.61.61,0,0,0,.35-.56V46.91A.63.63,0,0,0,179.09,46.35Z"/><path class="cls-1" d="M148.6,58.11,125.1,46.35a.63.63,0,0,0-.91.56V70.27a.61.61,0,0,0,.35.56L148,82.59A.63.63,0,0,0,149,82V58.67A.61.61,0,0,0,148.6,58.11Z"/><path class="cls-1" d="M173.84,39.56,152.38,28.62a.64.64,0,0,0-.57,0L130.35,39.56a.62.62,0,0,0,0,1.12l21.45,10.69a.64.64,0,0,0,.57,0l21.45-10.69A.62.62,0,0,0,173.84,39.56Z"/><path class="cls-1" d="M54.9,46.35,31.4,58.11a.61.61,0,0,0-.35.56v56.55a.63.63,0,0,0,.91.56L55.46,104a.63.63,0,0,0,.35-.56V46.91A.63.63,0,0,0,54.9,46.35Z"/><path class="cls-1" d="M24.41,58.11.91,46.35a.63.63,0,0,0-.91.56v56.56a.63.63,0,0,0,.35.56l23.5,11.75a.63.63,0,0,0,.91-.56V58.67A.61.61,0,0,0,24.41,58.11Z"/><path class="cls-1" d="M49.65,39.56,28.19,28.62a.64.64,0,0,0-.57,0L6.16,39.56a.62.62,0,0,0,0,1.12L27.62,51.37a.64.64,0,0,0,.57,0L49.64,40.68A.62.62,0,0,0,49.65,39.56Z"/><path class="cls-1" d="M54.9,112.32,31.4,124.08a.61.61,0,0,0-.35.56V148a.63.63,0,0,0,.91.56l23.5-11.75a.63.63,0,0,0,.35-.57V112.89A.63.63,0,0,0,54.9,112.32Z"/><path class="cls-1" d="M24.41,124.08.91,112.32a.63.63,0,0,0-.91.57v23.35a.63.63,0,0,0,.35.57l23.5,11.75a.63.63,0,0,0,.91-.56V124.64A.61.61,0,0,0,24.41,124.08Z"/></svg>