<svg id="Layer_1" data-name="Layer 1" xmlns="http://www.w3.org/2000/svg" viewBox="0 0 192 192"><defs><style>.cls-1{fill:#fd1e43;}</style></defs><path class="cls-1" d="M92.65,129.42V104.51a.67.67,0,0,0-1-.6L66.61,116.44a.69.69,0,0,0-.38.6V142a.68.68,0,0,0,1,.6L92.28,130A.67.67,0,0,0,92.65,129.42Z"/><path class="cls-1" d="M126.07,117.79,100.34,104a.67.67,0,0,0-1,.59v24.9a.68.68,0,0,0,.36.59l25.73,13.83a.66.66,0,0,0,1-.59V118.38A.66.66,0,0,0,126.07,117.79Z"/><path class="cls-1" d="M119.19,148.61,96.3,137.21a.64.64,0,0,0-.6,0l-22.89,11.4a.67.67,0,0,0,0,1.2L95.7,161.47a.64.64,0,0,0,.6,0l22.89-11.66A.67.67,0,0,0,119.19,148.61Z"/><path class="cls-1" d="M191,84.85,166,97.39a.65.65,0,0,0-.37.6v59.87a.67.67,0,0,0,1,.6l25.07-12.53a.68.68,0,0,0,.37-.6V85.45A.67.67,0,0,0,191,84.85Z"/><path class="cls-1" d="M158.51,97.39,133.44,84.85a.67.67,0,0,0-1,.6v59.88a.68.68,0,0,0,.37.6l25.07,12.53a.67.67,0,0,0,1-.6V98A.65.65,0,0,0,158.51,97.39Z"/><path class="cls-1" d="M191,49.44,166,62a.65.65,0,0,0-.37.6V87.49a.67.67,0,0,0,1,.6l25.07-12.53A.68.68,0,0,0,192,75V50A.67.67,0,0,0,191,49.44Z"/><path class="cls-1" d="M158.51,62,133.44,49.44a.67.67,0,0,0-1,.6V75a.68.68,0,0,0,.37.6l25.07,12.53a.67.67,0,0,0,1-.6V62.58A.65.65,0,0,0,158.51,62Z"/><path class="cls-1" d="M185.43,42.19,162.54,30.53a.66.66,0,0,0-.61,0L139,42.19a.67.67,0,0,0,0,1.2l22.89,11.4a.62.62,0,0,0,.59,0l22.89-11.4A.67.67,0,0,0,185.43,42.19Z"/><path class="cls-1" d="M58.56,49.44,33.49,62a.65.65,0,0,0-.37.6V122.9a.67.67,0,0,0,1,.6L59.16,111a.65.65,0,0,0,.37-.6V50A.67.67,0,0,0,58.56,49.44Z"/><path class="cls-1" d="M26,62,1,49.44A.67.67,0,0,0,0,50v60.32a.65.65,0,0,0,.37.6L25.44,123.5a.67.67,0,0,0,1-.6V62.58A.65.65,0,0,0,26,62Z"/><path class="cls-1" d="M53,42.19,30.07,30.53a.66.66,0,0,0-.61,0L6.57,42.19a.67.67,0,0,0,0,1.2l22.89,11.4a.62.62,0,0,0,.59,0L53,43.39A.67.67,0,0,0,53,42.19Z"/><path class="cls-1" d="M58.56,119.81,33.49,132.35a.65.65,0,0,0-.37.6v24.91a.67.67,0,0,0,1,.6l25.07-12.53a.68.68,0,0,0,.37-.6V120.41A.67.67,0,0,0,58.56,119.81Z"/><path class="cls-1" d="M26,132.35,1,119.81a.67.67,0,0,0-1,.6v24.92a.68.68,0,0,0,.37.6l25.07,12.53a.67.67,0,0,0,1-.6V133A.65.65,0,0,0,26,132.35Z"/></svg>