<svg id="Layer_1" data-name="Layer 1" xmlns="http://www.w3.org/2000/svg" viewBox="0 0 32 32"><defs><style>.cls-1{fill:#fd1e43;}</style></defs><path class="cls-1" d="M15.44,21.57V17.42a.11.11,0,0,0-.16-.1L11.1,19.41a.1.1,0,0,0-.06.1v4.15a.11.11,0,0,0,.16.1l4.18-2.09A.11.11,0,0,0,15.44,21.57Z"/><path class="cls-1" d="M21,19.63l-4.29-2.3a.11.11,0,0,0-.16.09v4.15a.11.11,0,0,0,.06.1L20.91,24a.11.11,0,0,0,.16-.1V19.73A.11.11,0,0,0,21,19.63Z"/><path class="cls-1" d="M19.86,24.77l-3.81-1.9a.09.09,0,0,0-.1,0l-3.81,1.9a.11.11,0,0,0,0,.2L16,26.91a.09.09,0,0,0,.1,0L19.87,25A.11.11,0,0,0,19.86,24.77Z"/><path class="cls-1" d="M31.84,14.14l-4.18,2.09a.11.11,0,0,0-.06.1v10a.11.11,0,0,0,.16.1l4.18-2.09a.11.11,0,0,0,.06-.1v-10A.11.11,0,0,0,31.84,14.14Z"/><path class="cls-1" d="M26.42,16.23l-4.18-2.09a.11.11,0,0,0-.16.1v10a.11.11,0,0,0,.06.1l4.18,2.09a.11.11,0,0,0,.16-.1v-10A.11.11,0,0,0,26.42,16.23Z"/><path class="cls-1" d="M31.84,8.24l-4.18,2.09a.11.11,0,0,0-.06.1v4.15a.11.11,0,0,0,.16.1l4.18-2.09a.1.1,0,0,0,.06-.1V8.34A.11.11,0,0,0,31.84,8.24Z"/><path class="cls-1" d="M26.42,10.33,22.24,8.24a.11.11,0,0,0-.16.1v4.15a.1.1,0,0,0,.06.1l4.18,2.09a.11.11,0,0,0,.16-.1V10.43A.11.11,0,0,0,26.42,10.33Z"/><path class="cls-1" d="M30.9,7,27.09,5.09a.09.09,0,0,0-.1,0L23.17,7a.11.11,0,0,0,0,.2L27,9.13a.09.09,0,0,0,.1,0l3.81-1.9A.11.11,0,0,0,30.9,7Z"/><path class="cls-1" d="M9.76,8.24,5.58,10.33a.11.11,0,0,0-.06.1V20.48a.11.11,0,0,0,.16.1l4.18-2.09a.1.1,0,0,0,.06-.1v-10A.11.11,0,0,0,9.76,8.24Z"/><path class="cls-1" d="M4.34,10.33.16,8.24a.11.11,0,0,0-.16.1V18.39a.1.1,0,0,0,.06.1l4.18,2.09a.11.11,0,0,0,.16-.1v-10A.11.11,0,0,0,4.34,10.33Z"/><path class="cls-1" d="M8.83,7,5,5.09a.09.09,0,0,0-.1,0L1.1,7a.11.11,0,0,0,0,.2l3.81,1.9a.09.09,0,0,0,.1,0l3.82-1.9A.11.11,0,0,0,8.83,7Z"/><path class="cls-1" d="M9.76,20,5.58,22.06a.11.11,0,0,0-.06.1v4.15a.11.11,0,0,0,.16.1l4.18-2.09a.11.11,0,0,0,.06-.1V20.07A.11.11,0,0,0,9.76,20Z"/><path class="cls-1" d="M4.34,22.06.16,20a.11.11,0,0,0-.16.1v4.15a.11.11,0,0,0,.06.1l4.18,2.09a.11.11,0,0,0,.16-.1V22.16A.11.11,0,0,0,4.34,22.06Z"/></svg>