<svg id="Layer_1" data-name="Layer 1" xmlns="http://www.w3.org/2000/svg" viewBox="0 0 60 60"><defs><style>.cls-1{fill:#fd1e43;}</style></defs><path class="cls-1" d="M29,40.44V32.66a.21.21,0,0,0-.3-.19l-7.84,3.92a.2.2,0,0,0-.11.19v7.78a.21.21,0,0,0,.3.19l7.84-3.92A.2.2,0,0,0,29,40.44Z"/><path class="cls-1" d="M39.4,36.81l-8-4.32a.21.21,0,0,0-.31.18v7.78a.19.19,0,0,0,.11.18l8,4.33a.21.21,0,0,0,.31-.19V37A.21.21,0,0,0,39.4,36.81Z"/><path class="cls-1" d="M37.25,46.44l-7.16-3.56a.19.19,0,0,0-.18,0l-7.16,3.56a.21.21,0,0,0,0,.37l7.15,3.65a.23.23,0,0,0,.2,0l7.15-3.65A.21.21,0,0,0,37.25,46.44Z"/><path class="cls-1" d="M59.7,26.52l-7.84,3.91a.21.21,0,0,0-.11.19V49.33a.21.21,0,0,0,.3.19l7.83-3.92a.2.2,0,0,0,.12-.19V26.7A.21.21,0,0,0,59.7,26.52Z"/><path class="cls-1" d="M49.53,30.43,41.7,26.52a.21.21,0,0,0-.3.18V45.41a.2.2,0,0,0,.11.19l7.84,3.92a.21.21,0,0,0,.3-.19V30.62A.21.21,0,0,0,49.53,30.43Z"/><path class="cls-1" d="M59.7,15.45l-7.84,3.92a.2.2,0,0,0-.11.19v7.78a.21.21,0,0,0,.3.19l7.83-3.92a.2.2,0,0,0,.12-.19V15.64A.21.21,0,0,0,59.7,15.45Z"/><path class="cls-1" d="M49.53,19.37,41.7,15.45a.21.21,0,0,0-.3.19v7.78a.2.2,0,0,0,.11.19l7.84,3.92a.21.21,0,0,0,.3-.19V19.56A.2.2,0,0,0,49.53,19.37Z"/><path class="cls-1" d="M58,13.19,50.79,9.54a.21.21,0,0,0-.19,0l-7.15,3.65a.21.21,0,0,0,0,.37l7.15,3.56a.21.21,0,0,0,.19,0l7.15-3.56A.21.21,0,0,0,58,13.19Z"/><path class="cls-1" d="M18.3,15.45l-7.83,3.92a.2.2,0,0,0-.12.19V38.41a.21.21,0,0,0,.3.18l7.84-3.91a.21.21,0,0,0,.11-.19V15.64A.21.21,0,0,0,18.3,15.45Z"/><path class="cls-1" d="M8.14,19.37.3,15.45a.21.21,0,0,0-.3.19V34.49a.21.21,0,0,0,.12.19L8,38.59a.21.21,0,0,0,.3-.18V19.56A.2.2,0,0,0,8.14,19.37Z"/><path class="cls-1" d="M16.55,13.19,9.4,9.54a.21.21,0,0,0-.19,0L2.05,13.19a.21.21,0,0,0,0,.37l7.15,3.56a.21.21,0,0,0,.19,0l7.15-3.56A.21.21,0,0,0,16.55,13.19Z"/><path class="cls-1" d="M18.3,37.44l-7.83,3.92a.2.2,0,0,0-.12.19v7.78a.21.21,0,0,0,.3.19l7.84-3.92a.2.2,0,0,0,.11-.19V37.63A.21.21,0,0,0,18.3,37.44Z"/><path class="cls-1" d="M8.14,41.36.3,37.44a.21.21,0,0,0-.3.19v7.78a.2.2,0,0,0,.12.19L8,49.52a.21.21,0,0,0,.3-.19V41.55A.2.2,0,0,0,8.14,41.36Z"/></svg>