<svg id="Layer_1" data-name="Layer 1" xmlns="http://www.w3.org/2000/svg" viewBox="0 0 72 72"><defs><style>.cls-1{fill:#fd1e43;}</style></defs><path class="cls-1" d="M34.74,48.53V39.19a.24.24,0,0,0-.36-.22L25,43.67a.24.24,0,0,0-.14.22v9.34a.25.25,0,0,0,.36.23l9.4-4.7A.24.24,0,0,0,34.74,48.53Z"/><path class="cls-1" d="M47.28,44.17,37.63,39a.25.25,0,0,0-.37.22v9.34a.25.25,0,0,0,.13.22L47,54a.25.25,0,0,0,.37-.22V44.39A.25.25,0,0,0,47.28,44.17Z"/><path class="cls-1" d="M44.7,55.73l-8.59-4.28a.28.28,0,0,0-.22,0L27.3,55.73a.25.25,0,0,0,0,.45l8.59,4.37a.22.22,0,0,0,.22,0l8.59-4.37A.25.25,0,0,0,44.7,55.73Z"/><path class="cls-1" d="M71.64,31.82l-9.41,4.7a.25.25,0,0,0-.13.22V59.2a.24.24,0,0,0,.36.22l9.4-4.7A.24.24,0,0,0,72,54.5V32A.25.25,0,0,0,71.64,31.82Z"/><path class="cls-1" d="M59.44,36.52,50,31.82a.25.25,0,0,0-.36.22V54.5a.24.24,0,0,0,.14.22l9.4,4.7a.24.24,0,0,0,.36-.22V36.74A.24.24,0,0,0,59.44,36.52Z"/><path class="cls-1" d="M71.64,18.54l-9.41,4.7a.25.25,0,0,0-.13.23v9.34a.24.24,0,0,0,.36.22l9.4-4.7a.24.24,0,0,0,.14-.22V18.77A.25.25,0,0,0,71.64,18.54Z"/><path class="cls-1" d="M59.44,23.24,50,18.54a.25.25,0,0,0-.36.23v9.34a.24.24,0,0,0,.14.22l9.4,4.7a.24.24,0,0,0,.36-.22V23.47A.24.24,0,0,0,59.44,23.24Z"/><path class="cls-1" d="M69.54,15.82,61,11.45a.24.24,0,0,0-.23,0l-8.58,4.37a.25.25,0,0,0,0,.45l8.59,4.28a.28.28,0,0,0,.22,0l8.58-4.28A.25.25,0,0,0,69.54,15.82Z"/><path class="cls-1" d="M22,18.54l-9.4,4.7a.24.24,0,0,0-.14.23V46.09a.25.25,0,0,0,.36.22l9.4-4.7a.24.24,0,0,0,.14-.22V18.77A.25.25,0,0,0,22,18.54Z"/><path class="cls-1" d="M9.77,23.24.36,18.54a.25.25,0,0,0-.36.23V41.39a.24.24,0,0,0,.14.22l9.4,4.7a.25.25,0,0,0,.36-.22V23.47A.25.25,0,0,0,9.77,23.24Z"/><path class="cls-1" d="M19.86,15.82l-8.58-4.37a.24.24,0,0,0-.23,0L2.46,15.82a.25.25,0,0,0,0,.45l8.58,4.28a.28.28,0,0,0,.22,0l8.59-4.28A.25.25,0,0,0,19.86,15.82Z"/><path class="cls-1" d="M22,44.93l-9.4,4.7a.24.24,0,0,0-.14.23V59.2a.24.24,0,0,0,.36.22l9.4-4.7a.24.24,0,0,0,.14-.22V45.15A.25.25,0,0,0,22,44.93Z"/><path class="cls-1" d="M9.77,49.63.36,44.93a.25.25,0,0,0-.36.22V54.5a.24.24,0,0,0,.14.22l9.4,4.7a.24.24,0,0,0,.36-.22V49.86A.25.25,0,0,0,9.77,49.63Z"/></svg>