<svg id="Layer_1" data-name="Layer 1" xmlns="http://www.w3.org/2000/svg" viewBox="0 0 76 76"><defs><style>.cls-1{fill:#fd1e43;}</style></defs><path class="cls-1" d="M36.67,51.23V41.37a.26.26,0,0,0-.38-.24l-9.93,5a.27.27,0,0,0-.14.24v9.86a.26.26,0,0,0,.38.24l9.93-5A.27.27,0,0,0,36.67,51.23Z"/><path class="cls-1" d="M49.9,46.62,39.72,41.15a.26.26,0,0,0-.39.23v9.85a.27.27,0,0,0,.14.24l10.18,5.47a.26.26,0,0,0,.39-.23V46.86A.27.27,0,0,0,49.9,46.62Z"/><path class="cls-1" d="M47.18,58.82l-9.06-4.51a.25.25,0,0,0-.24,0l-9.06,4.51a.27.27,0,0,0,0,.48l9.06,4.62a.26.26,0,0,0,.24,0l9.06-4.62A.27.27,0,0,0,47.18,58.82Z"/><path class="cls-1" d="M75.62,33.59l-9.93,5a.27.27,0,0,0-.15.24v23.7a.27.27,0,0,0,.39.23l9.92-5a.25.25,0,0,0,.15-.23V33.82A.26.26,0,0,0,75.62,33.59Z"/><path class="cls-1" d="M62.74,38.55l-9.92-5a.26.26,0,0,0-.38.23V57.53a.24.24,0,0,0,.14.23l9.93,5a.26.26,0,0,0,.38-.23V38.79A.27.27,0,0,0,62.74,38.55Z"/><path class="cls-1" d="M75.62,19.57l-9.93,5a.28.28,0,0,0-.15.24v9.86a.27.27,0,0,0,.39.24l9.92-5a.28.28,0,0,0,.15-.24V19.81A.26.26,0,0,0,75.62,19.57Z"/><path class="cls-1" d="M62.74,24.53l-9.92-5a.26.26,0,0,0-.38.24v9.86a.27.27,0,0,0,.14.24l9.93,5a.26.26,0,0,0,.38-.24V24.77A.28.28,0,0,0,62.74,24.53Z"/><path class="cls-1" d="M73.4,16.7l-9.06-4.62a.25.25,0,0,0-.24,0L55,16.7a.27.27,0,0,0,0,.48l9.06,4.51a.25.25,0,0,0,.24,0l9.06-4.51A.27.27,0,0,0,73.4,16.7Z"/><path class="cls-1" d="M23.18,19.57l-9.92,5a.28.28,0,0,0-.15.24V48.65a.27.27,0,0,0,.38.24l9.93-5a.24.24,0,0,0,.14-.23V19.81A.26.26,0,0,0,23.18,19.57Z"/><path class="cls-1" d="M10.31,24.53l-9.93-5a.26.26,0,0,0-.38.24V43.69a.25.25,0,0,0,.15.23l9.92,5a.27.27,0,0,0,.39-.24V24.77A.28.28,0,0,0,10.31,24.53Z"/><path class="cls-1" d="M21,16.7,11.9,12.08a.25.25,0,0,0-.24,0L2.6,16.7a.27.27,0,0,0,0,.48l9.06,4.51a.25.25,0,0,0,.24,0L21,17.18A.27.27,0,0,0,21,16.7Z"/><path class="cls-1" d="M23.18,47.43l-9.92,5a.26.26,0,0,0-.15.24v9.86a.26.26,0,0,0,.38.23l9.93-5a.24.24,0,0,0,.14-.23V47.66A.26.26,0,0,0,23.18,47.43Z"/><path class="cls-1" d="M10.31,52.39l-9.93-5a.26.26,0,0,0-.38.23v9.87a.25.25,0,0,0,.15.23l9.92,5a.27.27,0,0,0,.39-.23V52.63A.26.26,0,0,0,10.31,52.39Z"/></svg>