<svg fill="none" fill-rule="evenodd" stroke="black" stroke-width="0.501" stroke-linejoin="bevel" stroke-miterlimit="10" xmlns="http://www.w3.org/2000/svg" version="1.1" overflow="visible" viewBox="0 -305.637 223.456 305.637">
<g id="Layer 1" transform="scale(1 -1)">
<rect x="0.043" y="45.131" width="223.37" height="223.369" stroke="none" fill="#ffffff" stroke-linejoin="miter"/>
<g id="Group" stroke-linejoin="miter" stroke-linecap="round" stroke="none" stroke-width="0.25">
<path d="M 111.728,57.58 C 135.658,57.58 157.838,65.115 176.023,77.94 C 171.279,109.355 167.997,123.432 158.177,131.643 C 152.738,136.268 145.332,138.577 134.373,141.767 C 131.521,142.596 126.711,143.982 124.277,144.51 L 124.278,157.903 C 132.054,162.221 138.002,170.432 140.407,180.443 C 145.044,180.721 147.083,182.158 149.096,185.514 C 150.676,188.148 151.954,192.542 150.754,195.8 C 149.682,198.711 147.022,201.832 143.663,201.832 C 142.799,201.832 141.959,201.638 141.183,201.288 C 138.882,218.286 126.521,231.276 111.728,231.276 C 96.935,231.276 84.574,218.286 82.273,201.288 C 81.497,201.638 80.657,201.832 79.793,201.832 C 76.434,201.832 73.774,198.711 72.702,195.8 C 71.502,192.542 72.78,188.148 74.36,185.514 C 76.373,182.158 78.412,180.721 83.049,180.443 C 85.454,170.432 91.402,162.221 99.178,157.903 L 99.179,144.51 C 96.745,143.982 91.935,142.596 89.083,141.767 C 78.124,138.577 70.718,136.268 65.279,131.643 C 55.459,123.432 52.177,109.355 47.433,77.94 C 65.618,65.115 87.798,57.58 111.728,57.58 Z" fill="#f1c9a5" marker-start="none" marker-end="none"/>
<path d="M 111.728,57.58 C 135.658,57.58 157.838,65.115 176.023,77.94 C 171.279,109.355 167.997,123.432 158.177,131.643 C 152.738,136.268 145.332,138.577 134.373,141.767 C 131.521,142.596 126.711,143.982 124.277,144.51 L 124.278,157.903 C 132.054,162.221 138.002,170.432 140.407,180.443 C 145.044,180.721 147.083,182.158 149.096,185.514 C 150.676,188.148 151.954,192.542 150.754,195.8 C 149.682,198.711 147.022,201.832 143.663,201.832 C 142.799,201.832 141.959,201.638 141.183,201.288 C 138.882,218.286 126.521,231.276 111.728,231.276 L 111.728,57.58 Z" fill="#e4b992" marker-start="none" marker-end="none"/>
</g>
<path d="M 144.257,205.769 L 153.335,228.979 C 155.203,235.097 141.761,255.423 136.915,259.809 C 134.495,261.999 122.224,262.529 111.728,262.429 C 101.232,262.529 88.961,261.999 86.541,259.809 C 81.695,255.423 68.253,235.097 70.121,228.979 L 79.199,205.769 L 79.523,185.802 L 79.483,185.794 C 79.481,185.793 79.479,185.793 79.477,185.792 C 80.525,174.539 86.294,167.205 90.935,162.252 L 93.523,162.016 L 93.139,168.097 C 92.103,170.647 86.342,189.779 82.524,201.876 L 86.319,214.261 L 102.948,228.63 L 98.862,217.666 L 111.728,222.909 C 122.103,222.737 127.32,223.389 136.568,215.325 L 140.932,201.876 C 137.114,189.779 131.353,170.647 130.317,168.097 L 129.933,162.016 L 132.521,162.252 C 137.162,167.205 142.931,174.539 143.979,185.792 C 143.977,185.793 143.975,185.793 143.973,185.794 L 143.933,185.802 L 144.257,205.769 Z" stroke-linejoin="round" stroke="none" stroke-width="0.5" stroke-linecap="round" fill="#7f4100" marker-start="none" marker-end="none"/>
<g id="Group_1" stroke-linejoin="miter">
<path d="M 150.919,64.674 L 150.919,136.142 C 164.558,129.855 169.325,119.509 175.848,77.818 C 168.188,72.437 159.823,67.995 150.919,64.655 L 150.919,64.674 Z" fill="#7f007e" stroke-linecap="round" stroke="none" stroke-width="0.5" marker-start="none" marker-end="none"/>
<path d="M 47.607,77.818 C 54.13,119.509 58.897,129.855 72.537,136.142 L 72.537,64.674 L 72.537,64.655 C 63.632,67.995 55.267,72.437 47.607,77.818 Z" fill="#7f007e" stroke-linecap="round" stroke="none" stroke-width="0.5" marker-start="none" marker-end="none"/>
<path d="M 72.536,64.655 L 72.536,64.674 L 72.536,136.142 C 78.399,138.844 85.974,140.826 96.123,143.82 C 97.499,136.455 103.966,130.875 111.728,130.875 C 119.489,130.875 125.956,136.455 127.332,143.82 C 137.48,140.826 145.055,138.844 150.919,136.142 L 150.919,64.674 L 150.919,64.655 C 138.723,60.081 125.516,57.58 111.728,57.58 C 97.939,57.58 84.732,60.081 72.536,64.655 Z" fill="#ffaa00" stroke-linecap="round" stroke="none" stroke-width="0.5" marker-start="none" marker-end="none"/>
<path d="M 89.296,141.829 C 91.433,142.451 93.705,143.107 96.123,143.82 C 97.499,136.455 103.966,130.875 111.728,130.875 C 119.489,130.875 125.956,136.455 127.332,143.82 C 129.75,143.106 132.022,142.451 134.159,141.829 C 131.905,131.516 122.713,123.788 111.728,123.788 C 100.742,123.788 91.55,131.516 89.296,141.829 Z" fill="#7f007e" stroke="none" stroke-linecap="round" stroke-width="0.5" marker-start="none" marker-end="none"/>
<path d="M 85.502,109.174 L 137.952,109.174" fill="none" stroke-width="8" stroke="#ffffff"/>
<path d="M 85.502,92.356 L 137.952,92.356" fill="none" stroke-width="8" stroke="#ffffff"/>
<path d="M 85.502,75.538 L 137.952,75.538" fill="none" stroke-width="8" stroke="#ffffff"/>
</g>
<path d="M 114.369,206.279 C 114.368,204.758 114.648,203.235 115.208,201.88 C 115.604,200.924 116.449,200.079 117.406,199.683 C 123.583,197.125 131.289,197.125 137.466,199.683 C 138.422,200.079 139.267,200.924 139.663,201.88 C 140.396,203.648 140.649,205.702 140.401,207.668 L 140.668,208.595 C 140.925,209.227 143.525,209.421 145.738,209.482 L 146.902,212.607 C 143.723,212.834 138.084,213.085 136.407,213.262 C 130.425,215.404 123.235,215.267 117.406,212.854 C 116.665,212.546 115.99,211.97 115.54,211.281 C 114.381,210.887 112.811,210.695 111.728,210.684 C 110.645,210.695 109.075,210.887 107.916,211.281 C 107.466,211.97 106.791,212.546 106.05,212.854 C 100.221,215.267 93.031,215.404 87.049,213.262 C 85.372,213.085 79.733,212.834 76.554,212.607 L 77.718,209.482 C 79.931,209.421 82.531,209.227 82.788,208.595 L 83.055,207.668 C 82.807,205.702 83.06,203.648 83.793,201.88 C 84.189,200.924 85.034,200.079 85.99,199.683 C 92.167,197.125 99.873,197.125 106.05,199.683 C 107.007,200.079 107.852,200.924 108.248,201.88 C 108.808,203.235 109.088,204.758 109.087,206.279 C 109.875,209.171 113.743,209.101 114.369,206.279 Z" stroke="none" stroke-linejoin="miter" fill="#000000" marker-start="none" marker-end="none"/>
</g>
</svg>
