<?xml version="1.0" encoding="UTF-8" standalone="no"?>
<!DOCTYPE svg PUBLIC "-//W3C//DTD SVG 1.1//EN" "http://www.w3.org/Graphics/SVG/1.1/DTD/svg11.dtd">
<!-- Generated by Microsoft Visio, SVG Export onto_logo_text_blue_background_white_w380_h60.svg svg26 -->
<svg xmlns="http://www.w3.org/2000/svg" xmlns:xlink="http://www.w3.org/1999/xlink" xmlns:ev="http://www.w3.org/2001/xml-events"
		xmlns:v="http://schemas.microsoft.com/visio/2003/SVGExtensions/" width="3.95833in" height="0.625in" viewBox="0 0 285 45"
		xml:space="preserve" color-interpolation-filters="sRGB" class="st3">
	<v:documentProperties v:langID="1033">
		<v:userDefs>
			<v:ud v:nameU="msvConvertTheme"/>
		</v:userDefs>
	</v:documentProperties>

	<style type="text/css">
	<![CDATA[
		.st1 {fill:#ffffff;stroke:none;stroke-width:0.400973}
		.st2 {fill:#0379c4;stroke:#ffffff;stroke-width:1.14}
		.st3 {fill:none;fill-rule:evenodd;font-size:12px;overflow:visible;stroke-linecap:square;stroke-miterlimit:3}
	]]>
	</style>

	<g v:mID="0" v:index="1" v:groupContext="foregroundPage">
		<title>svg26</title>
		<v:pageProperties v:drawingScale="1" v:pageScale="1" v:drawingUnits="19" v:shadowOffsetX="9" v:shadowOffsetY="-9"/>
		<g id="shape1-1" v:mID="1" v:groupContext="shape" transform="translate(0,-0.000391)">
			<title>rect10</title>
			<rect x="0" y="0" width="285" height="45" class="st1"/>
		</g>
		<g id="group2-3" transform="translate(10.959,-3.78576)" v:mID="2" v:groupContext="group">
			<title>g829</title>
			<g id="shape3-4" v:mID="3" v:groupContext="shape">
				<title>path15</title>
				<path d="M203.23 8.19 C202.02 8.19 201.05 8.61 200.33 9.43 C199.61 10.23 199.25 11.22 199.25 12.43 C199.25 13.64
							 199.61 14.67 200.33 15.53 C201.05 16.36 202 16.77 203.18 16.77 C204.38 16.77 205.35 16.36 206.07 15.53
							 C206.8 14.67 207.16 13.64 207.16 12.43 C207.16 11.22 206.8 10.23 206.07 9.43 C205.35 8.61 204.4 8.19
							 203.23 8.19 ZM59.64 12.27 L59.64 34.35 C59.64 35.97 59.88 37.4 60.36 38.64 C60.84 39.88 61.52 40.93
							 62.38 41.8 C63.28 42.62 64.33 43.26 65.53 43.71 C66.77 44.16 68.13 44.38 69.62 44.38 C70.44 44.38 71.22
							 44.33 71.94 44.23 C72.67 44.12 73.24 43.98 73.65 43.81 L73.65 37.87 C73.17 38.04 72.67 38.18 72.15 38.28
							 C71.67 38.39 71.06 38.44 70.34 38.44 C69.17 38.44 68.25 38.06 67.6 37.3 C66.98 36.51 66.67 35.52 66.67
							 34.35 L66.67 25.1 L72.87 25.1 L72.87 19.67 L66.67 19.67 L66.67 12.27 L59.64 12.27 ZM181.52 12.27 L181.52
							 34.35 C181.52 35.97 181.76 37.4 182.24 38.64 C182.72 39.88 183.4 40.93 184.26 41.8 C185.16 42.62 186.2
							 43.26 187.41 43.71 C188.65 44.16 190.01 44.38 191.5 44.38 C192.32 44.38 193.1 44.33 193.82 44.23 C194.54
							 44.12 195.12 43.98 195.53 43.81 L195.53 37.87 C195.05 38.04 194.55 38.18 194.03 38.28 C193.55 38.39
							 192.94 38.44 192.22 38.44 C191.05 38.44 190.13 38.06 189.48 37.3 C188.86 36.51 188.55 35.52 188.55 34.35
							 L188.55 25.1 L194.75 25.1 L194.75 19.67 L188.55 19.67 L188.55 12.27 L181.52 12.27 ZM12.97 19.05 C11.12
							 19.05 9.39 19.38 7.81 20.03 C6.22 20.65 4.84 21.55 3.67 22.72 C2.53 23.86 1.64 25.22 0.98 26.8 C0.33
							 28.39 0 30.13 0 32.03 C0 33.92 0.33 35.66 0.98 37.25 C1.64 38.83 2.53 40.21 3.67 41.38 C4.84 42.52 6.22
							 43.42 7.81 44.07 C9.39 44.69 11.12 45 12.97 45 C14.84 45 16.56 44.69 18.15 44.07 C19.73 43.42 21.09
							 42.52 22.23 41.38 C23.4 40.21 24.31 38.83 24.97 37.25 C25.63 35.66 25.95 33.92 25.95 32.03 C25.95 30.13
							 25.63 28.39 24.97 26.8 C24.31 25.22 23.4 23.86 22.23 22.72 C21.09 21.55 19.73 20.65 18.15 20.03 C16.56
							 19.38 14.84 19.05 12.97 19.05 ZM42.54 19.05 C39.03 19.05 36.25 19.79 34.22 21.27 C32.18 22.72 31.17
							 24.99 31.17 28.09 L31.17 44.38 L38.09 44.38 L38.09 28.82 C38.09 27.23 38.44 26.12 39.13 25.46 C39.82
							 24.77 40.94 24.43 42.49 24.43 C44.04 24.43 45.16 24.77 45.85 25.46 C46.54 26.12 46.88 27.23 46.88 28.82
							 L46.88 44.38 L53.91 44.38 L53.91 28.09 C53.91 24.99 52.9 22.72 50.86 21.27 C48.83 19.79 46.06 19.05
							 42.54 19.05 ZM118.73 19.05 C115.25 19.05 112.51 19.79 110.51 21.27 C108.51 22.72 107.51 24.99 107.51
							 28.09 L107.51 44.38 L114.39 44.38 L114.39 28.82 C114.39 27.23 114.71 26.12 115.37 25.46 C116.02 24.77
							 117.13 24.43 118.68 24.43 C120.23 24.43 121.33 24.77 121.99 25.46 C122.68 26.12 123.02 27.23 123.02
							 28.82 L123.02 44.38 L129.64 44.38 L129.64 28.36 C129.7 26.94 130.09 25.94 130.77 25.36 C131.46 24.74
							 132.53 24.43 133.98 24.43 C135.53 24.43 136.63 24.77 137.29 25.46 C137.94 26.12 138.27 27.23 138.27
							 28.82 L138.27 44.38 L145.25 44.38 L145.25 28.09 C145.25 24.99 144.23 22.72 142.2 21.27 C140.2 19.79
							 137.48 19.05 134.03 19.05 C132.38 19.05 130.93 19.29 129.69 19.77 C128.45 20.26 127.38 20.86 126.49
							 21.58 C125.59 20.83 124.5 20.22 123.23 19.77 C121.95 19.29 120.45 19.05 118.73 19.05 ZM162.3 19.05 C160.54
							 19.05 158.94 19.34 157.49 19.93 C156.08 20.48 154.85 21.29 153.82 22.36 C152.78 23.39 151.97 24.67 151.39
							 26.18 C150.84 27.67 150.56 29.34 150.56 31.2 C150.56 33.16 150.84 34.99 151.39 36.68 C151.97 38.37 152.8
							 39.83 153.87 41.07 C154.97 42.28 156.32 43.24 157.9 43.97 C159.49 44.66 161.28 45 163.28 45 C165.18
							 45 166.88 44.74 168.39 44.23 C169.95 43.67 171.26 42.87 172.33 41.8 C173.43 40.73 174.27 39.38 174.86
							 37.76 C175.45 36.14 175.74 34.25 175.74 32.08 L175.74 19.67 L169.54 19.67 L169.54 22.1 C168.81 21.27
							 167.86 20.56 166.69 19.98 C165.52 19.36 164.05 19.05 162.29 19.05 L162.3 19.05 ZM228.17 19.05 C225.9
							 19.05 223.8 19.33 221.87 19.88 C219.97 20.43 218.33 21.27 216.95 22.41 C215.58 23.54 214.49 24.97 213.69
							 26.7 C212.94 28.39 212.56 30.39 212.56 32.7 C212.56 34.9 212.94 36.8 213.69 38.38 C214.45 39.93 215.52
							 41.21 216.9 42.21 C218.31 43.17 219.97 43.88 221.87 44.33 C223.8 44.78 225.93 45 228.28 45 C229.28 45
							 230.22 44.95 231.12 44.85 C232.05 44.78 232.88 44.69 233.6 44.59 L233.6 39.06 C233.02 39.19 232.34 39.3
							 231.59 39.36 C230.83 39.43 229.95 39.47 228.95 39.47 C225.88 39.47 223.55 38.94 221.97 37.87 C220.38
							 36.77 219.59 34.97 219.59 32.49 C219.59 29.7 220.37 27.68 221.92 26.44 C223.5 25.2 225.81 24.58 228.84
							 24.58 C229.88 24.58 230.74 24.62 231.43 24.69 C232.15 24.75 232.83 24.85 233.44 24.99 L233.44 19.46
							 C232.72 19.36 231.91 19.27 231.01 19.2 C230.12 19.1 229.17 19.05 228.17 19.05 ZM249.64 19.05 C247.88
							 19.05 246.28 19.34 244.83 19.93 C243.42 20.48 242.2 21.29 241.16 22.36 C240.13 23.39 239.32 24.67 238.73
							 26.18 C238.18 27.67 237.91 29.34 237.91 31.2 C237.91 33.16 238.18 34.99 238.73 36.68 C239.32 38.37 240.15
							 39.83 241.21 41.07 C242.32 42.28 243.66 43.24 245.25 43.97 C246.83 44.66 248.62 45 250.62 45 C252.52
							 45 254.22 44.74 255.74 44.23 C257.29 43.67 258.6 42.87 259.67 41.8 C260.77 40.73 261.62 39.38 262.2
							 37.76 C262.79 36.14 263.08 34.25 263.08 32.08 L263.08 19.67 L256.88 19.67 L256.88 22.1 C256.16 21.27
							 255.21 20.56 254.03 19.98 C252.86 19.36 251.4 19.05 249.64 19.05 ZM199.61 19.67 L199.61 44.38 L206.64
							 44.38 L206.64 19.67 L199.61 19.67 ZM12.98 24.58 C14.8 24.58 16.25 25.2 17.32 26.44 C18.39 27.68 18.93
							 29.54 18.93 32.03 C18.93 34.51 18.39 36.37 17.32 37.61 C16.25 38.85 14.8 39.47 12.98 39.47 C11.15 39.47
							 9.71 38.85 8.63 37.61 C7.57 36.37 7.03 34.51 7.03 32.03 C7.03 29.54 7.57 27.68 8.63 26.44 C9.71 25.2
							 11.15 24.58 12.98 24.58 ZM163.33 24.58 C165.09 24.58 166.49 25.2 167.52 26.44 C168.55 27.68 169.07 29.54
							 169.07 32.03 C169.07 34.51 168.55 36.37 167.52 37.61 C166.49 38.85 165.09 39.47 163.33 39.47 C161.57
							 39.47 160.17 38.85 159.14 37.61 C158.11 36.37 157.59 34.51 157.59 32.03 C157.59 29.54 158.11 27.68 159.14
							 26.44 C160.17 25.2 161.57 24.58 163.33 24.58 ZM250.68 24.58 C252.43 24.58 253.83 25.2 254.86 26.44 C255.9
							 27.68 256.41 29.54 256.41 32.03 C256.41 34.51 255.9 36.37 254.86 37.61 C253.83 38.85 252.43 39.47 250.68
							 39.47 C248.92 39.47 247.52 38.85 246.48 37.61 C245.45 36.37 244.93 34.51 244.93 32.03 C244.93 29.54
							 245.45 27.68 246.48 26.44 C247.52 25.2 248.92 24.58 250.68 24.58 Z" class="st2"/>
			</g>
			<g id="shape4-6" v:mID="4" v:groupContext="shape" transform="translate(76.2307,-0.61986)">
				<title>path20</title>
				<path d="M13.18 8.19 C11.29 8.19 9.53 8.54 7.91 9.22 C6.29 9.88 4.89 10.81 3.72 12.02 C2.55 13.19 1.64 14.58 0.98
							 16.21 C0.33 17.83 0 19.6 0 21.53 C0 23.46 0.33 25.24 0.98 26.86 C1.64 28.48 2.55 29.89 3.72 31.09 C4.89
							 32.27 6.29 33.2 7.91 33.89 C9.53 34.54 11.29 34.87 13.18 34.87 C15.08 34.87 16.84 34.54 18.46 33.89
							 C20.08 33.2 21.47 32.27 22.64 31.09 C23.82 29.89 24.73 28.48 25.39 26.86 C26.04 25.24 26.37 23.46 26.37
							 21.53 C26.37 19.6 26.04 17.83 25.39 16.21 C24.73 14.58 23.82 13.19 22.64 12.02 C21.47 10.81 20.08 9.88
							 18.46 9.22 C16.84 8.54 15.08 8.19 13.18 8.19 ZM13.18 14.09 C14.08 14.09 14.89 14.27 15.62 14.65 C16.34
							 15.03 16.94 15.55 17.42 16.21 C17.94 16.86 18.33 17.65 18.61 18.59 C18.89 19.48 19.02 20.46 19.02 21.53
							 C19.02 22.6 18.89 23.6 18.61 24.53 C18.33 25.43 17.94 26.2 17.42 26.86 C16.94 27.51 16.34 28.03 15.62
							 28.41 C14.89 28.78 14.08 28.98 13.18 28.98 C12.29 28.98 11.47 28.78 10.75 28.41 C10.03 28.03 9.41 27.51
							 8.89 26.86 C8.41 26.2 8.03 25.43 7.75 24.53 C7.48 23.6 7.34 22.6 7.34 21.53 C7.34 20.46 7.48 19.48 7.75
							 18.59 C8.03 17.65 8.41 16.86 8.89 16.21 C9.41 15.55 10.03 15.03 10.75 14.65 C11.47 14.27 12.29 14.09
							 13.18 14.09 ZM1.7 38.85 L1.7 45 L24.66 45 L24.66 38.85 L1.7 38.85 Z" class="st2"/>
			</g>
		</g>
	</g>
</svg>
