<svg xmlns="http://www.w3.org/2000/svg" viewBox="0 0 587 174" color-interpolation-filters="sRGB" fill="none" fill-rule="evenodd" font-size="12" overflow="visible" stroke-linecap="square" stroke-miterlimit="3"><style>.st1,.st2,.st3{fill:#f77f00;stroke:none;stroke-linecap:butt;stroke-width:.975579}.st2,.st3{fill:#035e7b}.st3{fill:#000}</style><g id="group30-1" transform="translate(.976 -.976)"><g id="shape1-2" transform="translate(57.89 -144.103)"><path d="M3.54 146.05s25.46 2.93 20.83 27.99c.02 0-24.37-1.26-20.83-27.99z" class="st1"/></g><g id="shape2-4" transform="translate(85.236 -143.859)"><path d="M25.47 146.05S0 148.98 4.63 174.04c0 0 24.42-1.26 20.84-27.99z" class="st1"/></g><g id="shape3-6" transform="translate(57.89 -115.86)"><path d="M3.54 146.04s25.46 2.93 20.83 28c.02 0-24.37-1.27-20.83-28z" class="st1"/></g><g id="shape4-8" transform="translate(85.236 -115.616)"><path d="M25.47 146.05S0 148.98 4.63 174.04c0 0 24.42-1.27 20.84-27.99z" class="st1"/></g><g id="shape5-10" transform="translate(57.89)"><path d="M3.54 174.04s25.46-2.92 20.83-28c.02 0-24.37 1.27-20.83 28z" class="st1"/></g><g id="shape6-12" transform="translate(85.236 -.254)"><path d="M25.47 174.04S0 171.12 4.63 146.05c0 0 24.42 1.27 20.84 27.99z" class="st1"/></g><g id="shape7-14" transform="translate(57.89 -28.243)"><path d="M3.54 174.04s25.46-2.92 20.83-27.99c.02 0-24.37 1.26-20.83 27.99z" class="st1"/></g><g id="shape8-16" transform="translate(85.236 -28.487)"><path d="M25.47 174.04S0 171.12 4.63 146.05c0 0 24.42 1.26 20.84 27.99z" class="st1"/></g><g id="shape9-18" transform="translate(144.093 -57.832)"><path d="M27.99 170.46S25.06 145 0 149.63c0 0 1.26 24.41 27.99 20.83z" class="st1"/></g><g id="shape10-20" transform="translate(143.849 -85.217)"><path d="M27.99 148.57S25.06 174.04 0 169.41c0 .04 1.26-24.41 27.99-20.84z" class="st1"/></g><g id="shape11-22" transform="translate(115.86 -57.832)"><path d="M27.99 170.46S25.06 145 0 149.63c0 0 1.26 24.41 27.99 20.83z" class="st1"/></g><g id="shape12-24" transform="translate(115.606 -85.217)"><path d="M28 148.57s-2.93 25.47-28 20.84c0 .04 1.27-24.41 28-20.84z" class="st1"/></g><g id="shape13-26" transform="translate(0 -57.832)"><path d="M0 170.46S2.93 145 27.99 149.63c0 0-1.26 24.41-27.99 20.83z" class="st1"/></g><g id="shape14-28" transform="translate(.244 -85.217)"><path d="M0 148.57s2.93 25.47 28 20.84c0 .04-1.27-24.41-28-20.84z" class="st1"/></g><g id="shape15-30" transform="translate(28.243 -57.832)"><path d="M0 170.46S2.93 145 27.99 149.63c0 0-1.27 24.41-27.99 20.83z" class="st1"/></g><g id="shape16-32" transform="translate(28.487 -85.217)"><path d="M0 148.57s2.93 25.47 27.99 20.84c0 .04-1.26-24.41-27.99-20.84z" class="st1"/></g><g id="shape17-34" transform="translate(92.504 -92.468)"><path d="M23.1 124.87v21.89l-10.09 10.12a10.731 10.731-180 00-5.33-1.41 10.878 10.878-180 1010.89 10.88 10.731 10.731-180 00-1.42-5.35l10.09-10.11h21.89v-26.02H23.1zm-15.42 46.5a5.034 5.034 0 115.03-5.02 5.034 5.034 0 01-5.03 5.02zm35.61-26.34H28.96v-14.31h14.33v14.31z" class="st2"/></g><g id="shape18-36" transform="translate(90.752 -30.458)"><path d="M18.9 137.91a10.731 10.731-180 001.42-5.34 10.907 10.907-180 10-5.55 9.47l10.08 10.11v21.89h26.03v-26.02H28.99L18.9 137.91zm-9.47-.3a5.034 5.034 0 115.03-5.04 5.034 5.034 0 01-5.03 5.04zm21.28 16.26h14.33v14.33H30.71v-14.33z" class="st2"/></g><g id="shape19-38" transform="translate(30.506 -90.77)"><path d="M41.44 153.77a10.731 10.731-180 00-5.33 1.41l-10.09-10.12v-21.89H0v26.03h21.88l10.09 10.1a10.878 10.878-180 109.47-5.53zm-21.27-10.42H5.84v-14.33h14.33v14.33zm21.27 26.34a5.034 5.034 0 115.04-5.02 5.034 5.034 0 01-5.04 5v.02z" class="st2"/></g><g id="shape20-40" transform="translate(30.506 -30.458)"><path d="M41.44 121.69a10.868 10.868-180 00-9.47 16.22l-10.09 10.11H0v26.02h26.02v-21.89l10.09-10.14a10.878 10.878-180 105.33-20.36v.04zM20.17 168.2H5.84v-14.33h14.33v14.33zm21.27-30.59a5.034 5.034 0 115.04-5.04 5.044 5.044 0 01-5.04 5.04z" class="st2"/></g><g id="shape21-42" transform="translate(198.111 -61.725)"><path d="M0 124.93h23.22c16.27 0 27.42 9.48 27.42 24.56 0 15.08-11.15 24.55-27.42 24.55H0v-49.11zm22.65 38.05c8.35 0 13.96-4.99 13.96-13.47 0-8.49-5.61-13.49-13.91-13.49h-8.78v26.94l8.73.02z" class="st3"/></g><g id="shape22-44" transform="translate(253.25 -61.062)"><path d="M37.8 152.26v21.12H25.39v-4.88c-1.89 3.65-5.68 5.54-11.22 5.54-9.13 0-14.17-5.11-14.17-11.7 0-7.02 5.12-11.37 16.91-11.37h7.57c-.21-3.9-2.8-6.04-8.07-6.04a17.746 17.746-180 00-10.31 3.29l-4.49-9.04c4.35-2.93 10.8-4.42 16.77-4.42 12.34-.03 19.42 5.44 19.42 17.5zm-13.32 8.92v-3.3h-5.75c-4.28 0-5.85 1.54-5.85 3.85s1.82 3.9 4.97 3.9a6.575 6.575-180 006.63-4.45z" class="st3"/></g><g id="shape23-46" transform="translate(298 -61.705)"><path d="M0 124.71c0-4 3.23-7.09 8.15-7.09 4.91 0 8.13 2.92 8.13 6.82 0 4.22-3.23 7.3-8.13 7.3-4.91 0-8.15-3.03-8.15-7.03zM1.47 136h13.34v38.04H1.47V136z" class="st3"/></g><g id="shape24-48" transform="translate(321.434 -61.725)"><path class="st3" d="M0 121.986h13.326v52.057H0z"/></g><g id="shape25-50" transform="translate(338.34 -47.5)"><path d="M45.11 121.79l-16.42 39.57c-4 9.82-9.61 12.68-17.11 12.68-4 0-8.49-1.32-11.01-3.43l4.62-9.33a9.053 9.053-180 005.85 2.25 5.141 5.141-180 005.19-3.23L0 121.79h13.66l9.33 23.22 9.4-23.22h12.72z" class="st3"/></g><g id="shape26-52" transform="translate(407.928 -61.725)"><path d="M13.85 135.66v10.81h21.68v10.73H13.85v16.84H0v-49.11h38.52v10.73H13.85z" class="st3"/></g><g id="shape27-54" transform="translate(449.098 -61.1)"><path d="M0 154.34c0-11.44 9.04-19.57 21.46-19.57 12.42 0 21.47 8.13 21.47 19.57 0 11.43-8.91 19.7-21.47 19.7-12.55 0-21.46-8.22-21.46-19.7zm29.46 0c0-5.76-3.44-8.99-8-8.99-4.55 0-8 3.23-8 8.99 0 5.75 3.52 9.12 8 9.12 4.49 0 8.02-3.3 8.02-9.12h-.02z" class="st3"/></g><g id="shape28-56" transform="translate(495.838 -61.1)"><path d="M0 154.34c0-11.44 9.04-19.57 21.46-19.57 12.42 0 21.47 8.13 21.47 19.57 0 11.43-8.91 19.7-21.47 19.7-12.55 0-21.46-8.22-21.46-19.7zm29.46 0c0-5.76-3.43-8.99-8-8.99-4.56 0-8 3.23-8 8.99 0 5.75 3.52 9.12 8 9.12 4.49 0 8-3.3 8-9.12z" class="st3"/></g><g id="shape29-58" transform="translate(542.773 -61.1)"><path d="M42.57 121.36v52.06H29.89v-3.8c-2.53 3.03-6.24 4.42-11.16 4.42-10.38 0-18.73-7.57-18.73-19.7 0-12.14 8.35-19.57 18.73-19.57 4.42 0 8 1.25 10.53 3.9v-17.31h13.31zm-13.11 32.98c0-5.76-3.44-8.99-7.93-8.99s-8 3.23-8 8.99c0 5.75 3.45 9.12 8 9.12 4.56 0 7.93-3.3 7.93-9.12z" class="st3"/></g></g></svg>