<svg fill="none" fill-rule="evenodd" stroke="black" stroke-width="0.501" stroke-linejoin="bevel" stroke-miterlimit="10" xmlns="http://www.w3.org/2000/svg" version="1.1" overflow="visible" viewBox="0 -305.637 223.456 305.637">
<defs><linearGradient id="LinearGradient" gradientUnits="userSpaceOnUse" x1="0" y1="0" x2="10.222" y2="-9.573" gradientTransform="translate(89.105 200.873)"><stop offset="0" stop-color="#ffffff"/><stop offset="1" stop-color="#cf9b02"/></linearGradient><linearGradient id="LinearGradient_1" gradientUnits="userSpaceOnUse" x1="0" y1="0" x2="9.759" y2="-11.429" gradientTransform="translate(114.37 202.729)"><stop offset="0" stop-color="#ffffff"/><stop offset="1" stop-color="#cf9b02"/></linearGradient></defs>
<g id="Layer 1" transform="scale(1 -1)">
<rect x="0.043" y="45.131" width="223.37" height="223.369" stroke="none" fill="#ffffff" stroke-linejoin="miter"/>
<g id="Group" stroke-linejoin="miter" stroke-linecap="round" stroke="none" stroke-width="0.25">
<path d="M 111.728,57.58 C 135.658,57.58 157.838,65.115 176.023,77.94 C 171.279,109.355 167.997,123.432 158.177,131.643 C 152.738,136.268 145.332,138.577 134.373,141.767 C 131.521,142.596 126.711,143.982 124.277,144.51 L 124.278,157.903 C 132.054,162.221 138.002,170.432 140.407,180.443 C 145.044,180.721 147.083,182.158 149.096,185.514 C 150.676,188.148 151.954,192.542 150.754,195.8 C 149.682,198.711 147.022,201.832 143.663,201.832 C 142.799,201.832 141.959,201.638 141.183,201.288 C 138.882,218.286 126.521,231.276 111.728,231.276 C 96.935,231.276 84.574,218.286 82.273,201.288 C 81.497,201.638 80.657,201.832 79.793,201.832 C 76.434,201.832 73.774,198.711 72.702,195.8 C 71.502,192.542 72.78,188.148 74.36,185.514 C 76.373,182.158 78.412,180.721 83.049,180.443 C 85.454,170.432 91.402,162.221 99.178,157.903 L 99.179,144.51 C 96.745,143.982 91.935,142.596 89.083,141.767 C 78.124,138.577 70.718,136.268 65.279,131.643 C 55.459,123.432 52.177,109.355 47.433,77.94 C 65.618,65.115 87.798,57.58 111.728,57.58 Z" fill="#f1c9a5" marker-start="none" marker-end="none"/>
<path d="M 111.728,57.58 C 135.658,57.58 157.838,65.115 176.023,77.94 C 171.279,109.355 167.997,123.432 158.177,131.643 C 152.738,136.268 145.332,138.577 134.373,141.767 C 131.521,142.596 126.711,143.982 124.277,144.51 L 124.278,157.903 C 132.054,162.221 138.002,170.432 140.407,180.443 C 145.044,180.721 147.083,182.158 149.096,185.514 C 150.676,188.148 151.954,192.542 150.754,195.8 C 149.682,198.711 147.022,201.832 143.663,201.832 C 142.799,201.832 141.959,201.638 141.183,201.288 C 138.882,218.286 126.521,231.276 111.728,231.276 L 111.728,57.58 Z" fill="#e4b992" marker-start="none" marker-end="none"/>
</g>
<g id="Group_1" stroke-linejoin="miter" stroke="none">
<path d="M 86.999,194.761 L 86.295,195.331 L 84.695,195.961 L 82.205,199.748 C 90.316,201.384 95.96,202.539 100.977,201.423 C 104.617,200.614 108.684,198.328 111.728,198.303 C 114.772,198.328 118.839,200.614 122.479,201.423 C 127.496,202.539 133.14,201.384 141.166,199.748 L 138.761,195.961 L 137.161,195.331 L 136.457,194.761 C 136.346,185.964 130.899,181.367 124.973,181.175 C 119.19,180.987 113.349,185.114 112.928,193.677 C 112.928,193.901 112.698,194.011 112.521,194.084 C 112.033,194.286 111.423,194.286 110.935,194.084 C 110.758,194.011 110.528,193.901 110.528,193.677 C 110.107,185.114 104.266,180.987 98.483,181.175 C 92.557,181.367 87.11,185.964 86.999,194.761 Z M 108.71,191.814 C 109.172,193.743 108.215,195.865 106.289,197.251 C 104.257,198.713 101.505,199.746 98.885,199.989 C 96.461,200.213 93.9,200.148 91.686,198.759 C 89.854,197.61 88.808,195.725 88.941,193.786 C 89.309,188.431 93.779,183.827 98.435,183.489 C 102.831,183.17 107.682,187.528 108.71,191.814 Z M 125.021,183.489 C 129.677,183.827 134.147,188.431 134.515,193.786 C 134.648,195.725 133.602,197.61 131.77,198.759 C 129.556,200.148 126.995,200.213 124.571,199.989 C 121.951,199.746 119.199,198.713 117.167,197.251 C 115.241,195.865 114.284,193.743 114.746,191.814 C 115.774,187.528 120.625,183.17 125.021,183.489 Z" fill="#543e01" marker-start="none" marker-end="none"/>
<g id="Group_2">
<path d="M 108.71,191.814 C 109.172,193.743 108.215,195.865 106.289,197.251 C 104.257,198.713 101.505,199.746 98.885,199.989 C 96.461,200.213 93.9,200.148 91.686,198.759 C 89.854,197.61 88.808,195.725 88.941,193.786 C 89.309,188.431 93.779,183.827 98.435,183.489 C 102.831,183.17 107.682,187.528 108.71,191.814 Z" marker-start="none" marker-end="none" fill="url(#LinearGradient)"/>
<ellipse cx="92.903" cy="196.406" rx="1.538" ry="1.538" fill="#ffffff"/>
<ellipse rx="0.84" ry="0.84" transform="translate(96.321 194.867) rotate(-90)" fill="#ffffff"/>
</g>
<g id="Group_3">
<path d="M 114.746,191.814 C 114.284,193.743 115.241,195.865 117.167,197.251 C 119.199,198.713 121.951,199.746 124.571,199.989 C 126.995,200.213 129.556,200.148 131.77,198.759 C 133.602,197.61 134.648,195.725 134.515,193.786 C 134.147,188.431 129.677,183.827 125.021,183.489 C 120.625,183.17 115.774,187.528 114.746,191.814 Z" marker-start="none" marker-end="none" fill="url(#LinearGradient_1)"/>
<ellipse cx="120.32" cy="196.406" rx="1.538" ry="1.538" fill="#ffffff"/>
<ellipse rx="0.84" ry="0.84" transform="translate(123.738 194.867) rotate(-90)" fill="#ffffff"/>
</g>
</g>
<g id="Group_4" stroke-linejoin="miter" stroke="none" fill="#333333">
<path d="M 83.049,180.443 C 84.655,174.178 88.217,171.775 91.949,170.551 C 93.254,165.962 93.925,162.366 97.122,159.165 C 92.283,158.635 80.856,162.732 79.399,181.061 C 80.416,180.727 81.607,180.529 83.049,180.443 Z" stroke-width="0.5" stroke-linecap="round" marker-start="none" marker-end="none"/>
<path d="M 140.407,180.443 C 138.801,174.178 135.239,171.775 131.507,170.551 C 130.202,165.962 129.531,162.366 126.334,159.165 C 131.173,158.635 142.6,162.732 144.057,181.061 C 143.04,180.727 141.849,180.529 140.407,180.443 Z" stroke-width="0.5" stroke-linecap="round" marker-start="none" marker-end="none"/>
<path d="M 111.728,153.516 L 102.68,157.484 C 105.696,157.774 108.712,158.237 111.728,160.115 C 114.744,158.237 117.76,157.774 120.776,157.484 L 111.728,153.516 Z" stroke-linecap="round" stroke-width="0.5" marker-start="none" marker-end="none"/>
<path d="M 128.736,167.045 C 126.334,169.423 121.256,168.093 117.862,167.757 C 115.853,167.558 112.755,168.946 111.728,170.59 C 110.701,168.946 107.603,167.558 105.594,167.757 C 102.2,168.093 97.122,169.423 94.72,167.045 C 99.812,175.835 105.562,176.916 111.728,175.632 C 117.894,176.916 123.644,175.835 128.736,167.045 Z" marker-start="none" marker-end="none"/>
<path d="M 111.728,241.383 C 90.777,241.263 79.708,237.866 76.271,223.279 C 75.556,220.242 74.721,215.096 75.029,210.991 C 75.289,207.52 75.571,204.354 76.809,200.98 C 77.712,201.511 78.717,201.832 79.793,201.832 C 80.657,201.832 81.497,201.638 82.273,201.288 L 82.46,196.24 C 83.496,196.054 84.291,195.977 84.695,195.917 C 85.278,200.914 83.975,215.934 91.121,218.854 L 111.728,227.35 L 132.335,218.854 C 139.481,215.934 138.178,200.914 138.761,195.917 C 139.165,195.977 139.96,196.054 140.996,196.24 L 141.183,201.288 C 141.959,201.638 142.799,201.832 143.663,201.832 C 144.739,201.832 145.744,201.511 146.647,200.98 C 147.885,204.354 148.167,207.52 148.427,210.991 C 148.735,215.096 147.9,220.242 147.185,223.279 C 143.748,237.866 132.679,241.263 111.728,241.383 Z" stroke-width="0.25" stroke-linecap="round" marker-start="none" marker-end="none"/>
</g>
<g id="Group_5" stroke-linejoin="miter" stroke-linecap="round" stroke="none" stroke-width="0.5">
<path d="M 47.433,77.94 C 55.243,129.649 59.626,134.081 94.497,143.395 C 97.685,131.328 103.629,125.335 111.728,120.392 C 119.827,125.335 125.771,131.328 128.959,143.395 C 163.829,134.081 168.212,129.649 176.022,77.94 C 157.837,65.115 135.657,57.58 111.728,57.58 C 87.798,57.58 65.618,65.115 47.433,77.94 Z" fill="#007f01" marker-start="none" marker-end="none"/>
<path d="M 120.776,105.945 L 120.776,85.208 L 132.136,79.624 L 144.025,85.208 L 144.025,105.945 L 120.776,105.945 Z" fill="#005f01" marker-start="none" marker-end="none"/>
<path d="M 137.826,140.751 C 142.984,139.216 147.279,137.817 150.917,136.142 L 150.917,64.654 C 146.669,63.061 142.299,61.719 137.826,60.648 L 137.826,140.751 Z M 72.537,64.653 L 72.537,136.142 C 76.173,137.817 80.467,139.215 85.626,140.751 L 85.626,60.648 C 81.153,61.719 76.784,63.06 72.537,64.653 Z" fill="#bfbd00" marker-start="none" marker-end="none"/>
</g>
</g>
</svg>
