<svg id="Layer_1" data-name="Layer 1" xmlns="http://www.w3.org/2000/svg" viewBox="0 0 203.71 203.72"><defs><style>.cls-1{fill:#f77f00;}.cls-2{fill:#035e7b;}</style></defs><path class="cls-1" d="M76.63,13.66s26.1,3,21.35,28.69C98,42.35,73,41.06,76.63,13.66Z"/><path class="cls-1" d="M127.14,13.91s-26.11,3-21.36,28.69C105.78,42.6,130.81,41.31,127.14,13.91Z"/><path class="cls-1" d="M76.63,42.6s26.1,3,21.35,28.7C98,71.3,73,70,76.63,42.6Z"/><path class="cls-1" d="M127.14,42.86s-26.11,3-21.36,28.69C105.78,71.55,130.81,70.25,127.14,42.86Z"/><path class="cls-1" d="M76.63,190.06s26.1-3,21.35-28.7C98,161.36,73,162.66,76.63,190.06Z"/><path class="cls-1" d="M127.14,189.8s-26.11-3-21.36-28.69C105.78,161.11,130.81,162.41,127.14,189.8Z"/><path class="cls-1" d="M76.63,161.11s26.1-3,21.35-28.69C98,132.42,73,133.71,76.63,161.11Z"/><path class="cls-1" d="M127.14,160.86s-26.11-3-21.36-28.69C105.78,132.17,130.81,133.46,127.14,160.86Z"/><path class="cls-1" d="M190.05,127.11s-3-26.1-28.69-21.35C161.36,105.76,162.65,130.78,190.05,127.11Z"/><path class="cls-1" d="M189.8,76.6s-3,26.11-28.69,21.36C161.11,98,162.4,72.94,189.8,76.6Z"/><path class="cls-1" d="M161.11,127.11s-3-26.1-28.69-21.35C132.42,105.76,133.71,130.78,161.11,127.11Z"/><path class="cls-1" d="M160.86,76.6s-3,26.11-28.7,21.36C132.16,98,133.46,72.94,160.86,76.6Z"/><path class="cls-1" d="M13.66,127.11s3-26.1,28.69-21.35C42.35,105.76,41.06,130.78,13.66,127.11Z"/><path class="cls-1" d="M13.91,76.6s3,26.11,28.7,21.36C42.61,98,41.31,72.94,13.91,76.6Z"/><path class="cls-1" d="M42.61,127.11s3-26.1,28.69-21.35C71.3,105.76,70,130.78,42.61,127.11Z"/><path class="cls-1" d="M42.86,76.6s3,26.11,28.69,21.36C71.55,98,70.26,72.94,42.86,76.6Z"/><path class="cls-2" d="M132.16,44.87V67.31L121.82,77.68a11,11,0,0,0-5.47-1.44,11.15,11.15,0,1,0,11.16,11.15,11,11,0,0,0-1.45-5.48L136.4,71.55h22.44V44.87ZM116.35,92.54a5.16,5.16,0,1,1,5.16-5.15A5.16,5.16,0,0,1,116.35,92.54Zm36.5-27H138.16V50.87h14.69Z"/><path class="cls-2" d="M126.06,121.8a11,11,0,0,0,1.45-5.47,11.18,11.18,0,1,0-5.69,9.71l10.34,10.36v22.44h26.68V132.17H136.4Zm-9.71-.31a5.16,5.16,0,1,1,5.16-5.16A5.16,5.16,0,0,1,116.35,121.49Zm21.81,16.67h14.69v14.69H138.16Z"/><path class="cls-2" d="M87.41,76.24a11,11,0,0,0-5.47,1.44L71.6,67.31V44.87H44.93V71.55H67.36L77.7,81.91a11.15,11.15,0,1,0,9.71-5.67ZM65.61,65.56H50.92V50.87H65.61Zm21.8,27a5.16,5.16,0,1,1,5.16-5.15A5.16,5.16,0,0,1,87.41,92.54Z"/><path class="cls-2" d="M87.41,105.18A11.14,11.14,0,0,0,77.7,121.8L67.36,132.17H44.93v26.67H71.6V136.4L81.94,126a11.15,11.15,0,1,0,5.47-20.86Zm-21.8,47.67H50.92V138.16H65.61Zm21.8-31.36a5.16,5.16,0,1,1,5.16-5.16A5.17,5.17,0,0,1,87.41,121.49Z"/></svg>