<svg id="Layer_1" data-name="Layer 1" xmlns="http://www.w3.org/2000/svg" xmlns:xlink="http://www.w3.org/1999/xlink" viewBox="0 0 114 114"><defs><style>.cls-1{fill:url(#linear-gradient);}.cls-2{fill:url(#linear-gradient-2);}.cls-3{fill:url(#linear-gradient-3);}.cls-4{fill:#fd7213;}</style><linearGradient id="linear-gradient" x1="46.81" y1="116.76" x2="66.1" y2="63.75" gradientUnits="userSpaceOnUse"><stop offset="0.39" stop-color="#0043ec"/><stop offset="0.49" stop-color="#0049ec"/><stop offset="0.61" stop-color="#0059ec"/><stop offset="0.76" stop-color="#0073ec"/><stop offset="0.91" stop-color="#0098ec"/><stop offset="1" stop-color="#00b2ec"/></linearGradient><linearGradient id="linear-gradient-2" x1="14.25" y1="92.69" x2="41.49" y2="17.86" gradientUnits="userSpaceOnUse"><stop offset="0.3" stop-color="#0043ec"/><stop offset="0.71" stop-color="#00acec"/><stop offset="1" stop-color="#00b2ec"/></linearGradient><linearGradient id="linear-gradient-3" x1="79.11" y1="69.72" x2="79.11" y2="0.02" gradientUnits="userSpaceOnUse"><stop offset="0.25" stop-color="#fc4f02"/><stop offset="0.43" stop-color="#fc5203"/><stop offset="0.58" stop-color="#fc5c06"/><stop offset="0.72" stop-color="#fb6d0a"/><stop offset="0.85" stop-color="#fa8511"/><stop offset="0.98" stop-color="#f9a319"/><stop offset="1" stop-color="#f9aa1b"/></linearGradient></defs><path class="cls-1" d="M55.85,100.71,43.26,88.12,59.07,72.31,54.92,60.89,19.05,96.77l4.15,11.4L35.48,95.9,52,112.36a5.45,5.45,0,0,0,6,1.19,5.38,5.38,0,0,0,1.75-1.19L97,75,85.68,70.88Z"/><path class="cls-2" d="M51.38,51.15l-1.57-4.33L25.89,70.76,13.27,58.14,43.08,28.35l-.62-1.7h0l-.28-.77h0l-3.25-9L3.05,52.81h0L1.6,54.26l-.09.1A5.5,5.5,0,0,0,1.6,62L18.12,78.54l-4.18,4.18,4.12,11.33.06,0L54,58.25Z"/><path class="cls-3" d="M108.72,0H58.11L56.18.39a5.37,5.37,0,0,0-1.94,1.24l-10,10,4.15,11.41,12-12H103V53.56l-12,12,11.41,4.15,10-10a5.37,5.37,0,0,0,1.26-2,5.54,5.54,0,0,0,.35-1.93V5.21A5.46,5.46,0,0,0,108.77,0Z"/><circle class="cls-4" cx="81.06" cy="33.13" r="5.77"/></svg>