<svg id="Layer_1" data-name="Layer 1" xmlns="http://www.w3.org/2000/svg" xmlns:xlink="http://www.w3.org/1999/xlink" viewBox="0 0 144 144"><defs><style>.cls-1{fill:url(#linear-gradient);}.cls-2{fill:url(#linear-gradient-2);}.cls-3{fill:url(#linear-gradient-3);}.cls-4{fill:#fd7213;}</style><linearGradient id="linear-gradient" x1="59.12" y1="147.49" x2="83.5" y2="80.53" gradientUnits="userSpaceOnUse"><stop offset="0.39" stop-color="#0043ec"/><stop offset="0.49" stop-color="#0049ec"/><stop offset="0.61" stop-color="#0059ec"/><stop offset="0.76" stop-color="#0073ec"/><stop offset="0.91" stop-color="#0098ec"/><stop offset="1" stop-color="#00b2ec"/></linearGradient><linearGradient id="linear-gradient-2" x1="18" y1="117.09" x2="52.41" y2="22.56" gradientUnits="userSpaceOnUse"><stop offset="0.3" stop-color="#0043ec"/><stop offset="0.71" stop-color="#00acec"/><stop offset="1" stop-color="#00b2ec"/></linearGradient><linearGradient id="linear-gradient-3" x1="99.93" y1="88.07" x2="99.93" y2="0.02" gradientUnits="userSpaceOnUse"><stop offset="0.25" stop-color="#fc4f02"/><stop offset="0.43" stop-color="#fc5203"/><stop offset="0.58" stop-color="#fc5c06"/><stop offset="0.72" stop-color="#fb6d0a"/><stop offset="0.85" stop-color="#fa8511"/><stop offset="0.98" stop-color="#f9a319"/><stop offset="1" stop-color="#f9aa1b"/></linearGradient></defs><path class="cls-1" d="M70.55,127.21l-15.91-15.9,20-20L69.37,76.92l-45.3,45.31,5.24,14.41,15.5-15.5,20.81,20.79a6.92,6.92,0,0,0,7.58,1.51,7,7,0,0,0,2.21-1.51l47.14-47.14-14.32-5.26Z"/><path class="cls-2" d="M64.9,64.61l-2-5.47L32.7,89.38,16.77,73.44,54.41,35.81l-.78-2.15h0l-.34-1h0L49.17,21.38,3.85,66.71h0L2,68.53l-.11.13A7,7,0,0,0,2,78.35L22.88,99.21l-5.27,5.28,5.2,14.3.07.07L68.17,73.58Z"/><path class="cls-3" d="M137.33,0H73.4L71,.5a6.88,6.88,0,0,0-2.45,1.56L55.86,14.71l5.25,14.41L76.28,13.93h53.79V67.66L114.91,82.83l14.41,5.24L142,75.42a6.84,6.84,0,0,0,1.6-2.47,7,7,0,0,0,.44-2.44V6.58A6.91,6.91,0,0,0,137.4,0Z"/><circle class="cls-4" cx="102.4" cy="41.84" r="7.29"/></svg>