<svg id="Layer_1" data-name="Layer 1" xmlns="http://www.w3.org/2000/svg" xmlns:xlink="http://www.w3.org/1999/xlink" viewBox="0 0 180 180"><defs><style>.cls-1{fill:url(#linear-gradient);}.cls-2{fill:url(#linear-gradient-2);}.cls-3{fill:url(#linear-gradient-3);}.cls-4{fill:#fd7213;}</style><linearGradient id="linear-gradient" x1="73.9" y1="184.36" x2="104.37" y2="100.66" gradientUnits="userSpaceOnUse"><stop offset="0.39" stop-color="#0043ec"/><stop offset="0.49" stop-color="#0049ec"/><stop offset="0.61" stop-color="#0059ec"/><stop offset="0.76" stop-color="#0073ec"/><stop offset="0.91" stop-color="#0098ec"/><stop offset="1" stop-color="#00b2ec"/></linearGradient><linearGradient id="linear-gradient-2" x1="22.5" y1="146.36" x2="65.51" y2="28.19" gradientUnits="userSpaceOnUse"><stop offset="0.3" stop-color="#0043ec"/><stop offset="0.71" stop-color="#00acec"/><stop offset="1" stop-color="#00b2ec"/></linearGradient><linearGradient id="linear-gradient-3" x1="124.91" y1="110.09" x2="124.91" y2="0.03" gradientUnits="userSpaceOnUse"><stop offset="0.25" stop-color="#fc4f02"/><stop offset="0.43" stop-color="#fc5203"/><stop offset="0.58" stop-color="#fc5c06"/><stop offset="0.72" stop-color="#fb6d0a"/><stop offset="0.85" stop-color="#fa8511"/><stop offset="0.98" stop-color="#f9a319"/><stop offset="1" stop-color="#f9aa1b"/></linearGradient></defs><path class="cls-1" d="M88.18,159,68.3,139.14l25-25-6.55-18L30.08,152.79l6.56,18L56,151.43l26,26a8.62,8.62,0,0,0,9.47,1.89,8.75,8.75,0,0,0,2.76-1.89l58.93-58.93-17.91-6.57Z"/><path class="cls-2" d="M81.12,80.77l-2.47-6.85L40.88,111.73,21,91.8,68,44.76l-1-2.69h0l-.43-1.21h0L61.46,26.72,4.82,83.38h0L2.53,85.67l-.14.16a8.68,8.68,0,0,0,.14,12.11L28.6,124,22,130.61l6.51,17.88.08.09L85.21,92Z"/><path class="cls-3" d="M171.66,0H91.75l-3,.59a8.65,8.65,0,0,0-3.06,1.95L69.83,18.38l6.55,18,19-19h67.24V84.57l-19,19,18,6.56,15.81-15.81a8.6,8.6,0,0,0,2-3.09,8.84,8.84,0,0,0,.55-3V8.22A8.63,8.63,0,0,0,171.75,0Z"/><circle class="cls-4" cx="128" cy="52.31" r="9.12"/></svg>