<svg id="Layer_1" data-name="Layer 1" xmlns="http://www.w3.org/2000/svg" xmlns:xlink="http://www.w3.org/1999/xlink" viewBox="0 0 32 32"><defs><style>.cls-1{fill:url(#linear-gradient);}.cls-2{fill:url(#linear-gradient-2);}.cls-3{fill:url(#linear-gradient-3);}.cls-4{fill:#fd7213;}</style><linearGradient id="linear-gradient" x1="13.14" y1="32.78" x2="18.55" y2="17.9" gradientUnits="userSpaceOnUse"><stop offset="0.39" stop-color="#0043ec"/><stop offset="0.49" stop-color="#0049ec"/><stop offset="0.61" stop-color="#0059ec"/><stop offset="0.76" stop-color="#0073ec"/><stop offset="0.91" stop-color="#0098ec"/><stop offset="1" stop-color="#00b2ec"/></linearGradient><linearGradient id="linear-gradient-2" x1="4" y1="26.02" x2="11.65" y2="5.01" gradientUnits="userSpaceOnUse"><stop offset="0.3" stop-color="#0043ec"/><stop offset="0.71" stop-color="#00acec"/><stop offset="1" stop-color="#00b2ec"/></linearGradient><linearGradient id="linear-gradient-3" x1="22.21" y1="19.57" x2="22.21" y2="0.01" gradientUnits="userSpaceOnUse"><stop offset="0.25" stop-color="#fc4f02"/><stop offset="0.43" stop-color="#fc5203"/><stop offset="0.58" stop-color="#fc5c06"/><stop offset="0.72" stop-color="#fb6d0a"/><stop offset="0.85" stop-color="#fa8511"/><stop offset="0.98" stop-color="#f9a319"/><stop offset="1" stop-color="#f9aa1b"/></linearGradient></defs><path class="cls-1" d="M15.68,28.27l-3.54-3.53,4.44-4.44-1.16-3.21L5.35,27.16l1.16,3.2L10,26.92l4.62,4.62a1.54,1.54,0,0,0,1.69.33,1.46,1.46,0,0,0,.49-.33L27.23,21.06,24.05,19.9Z"/><path class="cls-2" d="M14.42,14.36,14,13.14,7.27,19.86,3.73,16.32,12.09,8l-.17-.48h0l-.08-.22h0l-.91-2.51L.86,14.82h0l-.41.41,0,0a1.55,1.55,0,0,0,0,2.15l4.64,4.64L3.91,23.22,5.07,26.4h0L15.15,16.35Z"/><path class="cls-3" d="M30.52,0H16.31l-.54.1a1.52,1.52,0,0,0-.55.35L12.41,3.27l1.17,3.2L17,3.09h12V15l-3.37,3.37,3.2,1.16,2.81-2.81a1.52,1.52,0,0,0,.35-.55,1.44,1.44,0,0,0,.1-.54V1.46A1.52,1.52,0,0,0,30.53,0Z"/><circle class="cls-4" cx="22.75" cy="9.3" r="1.62"/></svg>