<svg id="Layer_1" data-name="Layer 1" xmlns="http://www.w3.org/2000/svg" xmlns:xlink="http://www.w3.org/1999/xlink" viewBox="0 0 57 57"><defs><style>.cls-1{fill:url(#linear-gradient);}.cls-2{fill:url(#linear-gradient-2);}.cls-3{fill:url(#linear-gradient-3);}.cls-4{fill:#fd7213;}</style><linearGradient id="linear-gradient" x1="23.4" y1="58.38" x2="33.05" y2="31.88" gradientUnits="userSpaceOnUse"><stop offset="0.39" stop-color="#0043ec"/><stop offset="0.49" stop-color="#0049ec"/><stop offset="0.61" stop-color="#0059ec"/><stop offset="0.76" stop-color="#0073ec"/><stop offset="0.91" stop-color="#0098ec"/><stop offset="1" stop-color="#00b2ec"/></linearGradient><linearGradient id="linear-gradient-2" x1="7.12" y1="46.35" x2="20.74" y2="8.93" gradientUnits="userSpaceOnUse"><stop offset="0.3" stop-color="#0043ec"/><stop offset="0.71" stop-color="#00acec"/><stop offset="1" stop-color="#00b2ec"/></linearGradient><linearGradient id="linear-gradient-3" x1="39.56" y1="34.86" x2="39.56" y2="0.01" gradientUnits="userSpaceOnUse"><stop offset="0.25" stop-color="#fc4f02"/><stop offset="0.43" stop-color="#fc5203"/><stop offset="0.58" stop-color="#fc5c06"/><stop offset="0.72" stop-color="#fb6d0a"/><stop offset="0.85" stop-color="#fa8511"/><stop offset="0.98" stop-color="#f9a319"/><stop offset="1" stop-color="#f9aa1b"/></linearGradient></defs><path class="cls-1" d="M27.92,50.35l-6.29-6.29,7.91-7.91-2.08-5.7L9.53,48.38l2.07,5.71L17.74,48,26,56.18a2.74,2.74,0,0,0,3,.6,2.88,2.88,0,0,0,.87-.6L48.51,37.52l-5.67-2.08Z"/><path class="cls-2" d="M25.69,25.58l-.78-2.17-12,12L6.64,29.07l14.9-14.9-.31-.85h0l-.14-.38h0L19.46,8.46,1.53,26.4h0l-.73.73,0,.05A2.74,2.74,0,0,0,.8,31l8.26,8.26L7,41.36,9,47l0,0L27,29.13Z"/><path class="cls-3" d="M54.36,0H29.05l-1,.19a2.48,2.48,0,0,0-1,.62l-5,5,2.08,5.7,6-6H51.49V26.78l-6,6,5.71,2.07,5-5a2.74,2.74,0,0,0,.64-1,2.91,2.91,0,0,0,.17-1V2.6A2.73,2.73,0,0,0,54.39,0Z"/><circle class="cls-4" cx="40.53" cy="16.56" r="2.89"/></svg>