<svg id="Layer_1" data-name="Layer 1" xmlns="http://www.w3.org/2000/svg" xmlns:xlink="http://www.w3.org/1999/xlink" viewBox="0 0 76 76"><defs><style>.cls-1{fill:url(#linear-gradient);}.cls-2{fill:url(#linear-gradient-2);}.cls-3{fill:url(#linear-gradient-3);}.cls-4{fill:#fd7213;}</style><linearGradient id="linear-gradient" x1="31.2" y1="77.84" x2="44.07" y2="42.5" gradientUnits="userSpaceOnUse"><stop offset="0.39" stop-color="#0043ec"/><stop offset="0.49" stop-color="#0049ec"/><stop offset="0.61" stop-color="#0059ec"/><stop offset="0.76" stop-color="#0073ec"/><stop offset="0.91" stop-color="#0098ec"/><stop offset="1" stop-color="#00b2ec"/></linearGradient><linearGradient id="linear-gradient-2" x1="9.5" y1="61.8" x2="27.66" y2="11.9" gradientUnits="userSpaceOnUse"><stop offset="0.3" stop-color="#0043ec"/><stop offset="0.71" stop-color="#00acec"/><stop offset="1" stop-color="#00b2ec"/></linearGradient><linearGradient id="linear-gradient-3" x1="52.74" y1="46.48" x2="52.74" y2="0.01" gradientUnits="userSpaceOnUse"><stop offset="0.25" stop-color="#fc4f02"/><stop offset="0.43" stop-color="#fc5203"/><stop offset="0.58" stop-color="#fc5c06"/><stop offset="0.72" stop-color="#fb6d0a"/><stop offset="0.85" stop-color="#fa8511"/><stop offset="0.98" stop-color="#f9a319"/><stop offset="1" stop-color="#f9aa1b"/></linearGradient></defs><path class="cls-1" d="M37.23,67.14l-8.39-8.39L39.38,48.2l-2.77-7.61L12.7,64.51l2.77,7.61,8.18-8.18,11,11a3.63,3.63,0,0,0,4,.79,3.46,3.46,0,0,0,1.17-.79L64.68,50l-7.56-2.78Z"/><path class="cls-2" d="M34.25,34.1l-1-2.89-15.95,16L8.85,38.76,28.72,18.9l-.41-1.14h0l-.19-.51h0l-2.17-6L2,35.21H2l-1,1L1,36.24a3.66,3.66,0,0,0,.06,5.11l11,11L9.29,55.15,12,62.7l0,0L36,38.83Z"/><path class="cls-3" d="M72.48,0H38.74L37.45.26a3.62,3.62,0,0,0-1.29.83L29.48,7.76l2.77,7.61,8-8H68.65V35.71l-8,8,7.6,2.77,6.68-6.67a3.63,3.63,0,0,0,.84-1.31A3.77,3.77,0,0,0,76,37.21V3.47A3.64,3.64,0,0,0,72.52,0Z"/><circle class="cls-4" cx="54.04" cy="22.08" r="3.85"/></svg>