<svg id="Layer_1" data-name="Layer 1" xmlns="http://www.w3.org/2000/svg" viewBox="0 0 120 120"><defs><style>.cls-1{fill:#ffc200;}.cls-2{fill:#1c1c28;}</style></defs><path class="cls-1" d="M72.44,48.52a7.86,7.86,0,0,1-7.8,6.92,7.5,7.5,0,0,1-.94,0,7.86,7.86,0,0,1,.91-15.66,7.19,7.19,0,0,1,.94.06,7.76,7.76,0,0,1,4.92,2.56A7.87,7.87,0,0,1,72.44,48.52Z"/><path class="cls-2" d="M114.42,47.65A47,47,0,0,1,68.24,94.1H66.48a34.12,34.12,0,0,1-11-66.1A21.63,21.63,0,1,0,66,25.91c.17,0,.1,0-.1,0a45.79,45.79,0,0,0-6.24.61A47.06,47.06,0,0,0,67.36,120H11.43a5.85,5.85,0,0,1-5.85-5.85V5.85A5.85,5.85,0,0,1,11.43,0H66.48C92.69,0,114.74,21.44,114.42,47.65Z"/></svg>