<svg id="Layer_1" data-name="Layer 1" xmlns="http://www.w3.org/2000/svg" viewBox="0 0 144 144"><defs><style>.cls-1{fill:#ffc200;}.cls-2{fill:#1c1c28;}</style></defs><path class="cls-1" d="M86.92,58.22a9.43,9.43,0,0,1-9.36,8.31,10.79,10.79,0,0,1-1.12-.06A9.43,9.43,0,0,1,68.19,56a9.48,9.48,0,0,1,9.35-8.32,10.36,10.36,0,0,1,1.12.07,9.46,9.46,0,0,1,8.26,10.48Z"/><path class="cls-2" d="M137.3,57.18a56.4,56.4,0,0,1-55.41,55.74l-1.06,0-1,0A40.94,40.94,0,0,1,66.61,33.6a26,26,0,1,0,12.58-2.5c.2,0,.11,0-.12,0a55.89,55.89,0,0,0-7.49.73A56.47,56.47,0,0,0,80.83,144H13.71a7,7,0,0,1-7-7V7a7,7,0,0,1,7-7H79.78C111.23,0,137.69,25.73,137.3,57.18Z"/></svg>