<svg id="Layer_1" data-name="Layer 1" xmlns="http://www.w3.org/2000/svg" viewBox="0 0 192 192"><defs><style>.cls-1{fill:#ffc200;}.cls-2{fill:#1c1c28;}</style></defs><path class="cls-1" d="M115.9,77.63A12.58,12.58,0,0,1,103.42,88.7a12.75,12.75,0,0,1-1.5-.07,12.57,12.57,0,0,1-11-14,12.56,12.56,0,0,1,21.83-6.91A12.56,12.56,0,0,1,115.9,77.63Z"/><path class="cls-2" d="M183.06,76.24a75.16,75.16,0,0,1-73.87,74.32c-.47,0-.94,0-1.41,0s-.94,0-1.41,0A54.59,54.59,0,0,1,88.81,44.81a34.61,34.61,0,1,0,16.78-3.35c.26,0,.15,0-.17,0a74.47,74.47,0,0,0-10,1A75.29,75.29,0,0,0,107.78,192H18.28a9.35,9.35,0,0,1-9.35-9.35V9.35A9.35,9.35,0,0,1,18.28,0h88.09C148.3,0,183.58,34.31,183.06,76.24Z"/></svg>