<svg id="Layer_1" data-name="Layer 1" xmlns="http://www.w3.org/2000/svg" viewBox="0 0 57 57"><defs><style>.cls-1{fill:#ffc200;}.cls-2{fill:#1c1c28;}</style></defs><path class="cls-1" d="M34.41,23.05a3.74,3.74,0,0,1-3.71,3.28,3.31,3.31,0,0,1-.44,0,3.73,3.73,0,0,1,.43-7.44,3.4,3.4,0,0,1,.45,0,3.71,3.71,0,0,1,2.33,1.21A3.77,3.77,0,0,1,34.41,23.05Z"/><path class="cls-2" d="M54.35,22.63A22.35,22.35,0,0,1,32.42,44.7h-.84a16.21,16.21,0,0,1-5.21-31.4,10.28,10.28,0,1,0,5-1H31.3a20.75,20.75,0,0,0-3,.29A22.35,22.35,0,0,0,32,57H5.43a2.77,2.77,0,0,1-2.78-2.78V2.78A2.77,2.77,0,0,1,5.43,0H31.58C44,0,54.5,10.19,54.35,22.63Z"/></svg>