<svg id="Layer_1" data-name="Layer 1" xmlns="http://www.w3.org/2000/svg" viewBox="0 0 60 60"><defs><style>.cls-1{fill:#ffc200;}.cls-2{fill:#1c1c28;}</style></defs><path class="cls-1" d="M36.22,24.26a3.94,3.94,0,0,1-3.9,3.46l-.47,0a3.93,3.93,0,0,1-3.44-4.37,3.94,3.94,0,0,1,3.9-3.47l.46,0a3.94,3.94,0,0,1,3.45,4.37Z"/><path class="cls-2" d="M57.21,23.82A23.5,23.5,0,0,1,34.12,47.05h-.88a17.06,17.06,0,0,1-5.49-33A10.83,10.83,0,1,0,33,13c.08,0,0,0,0,0a22.89,22.89,0,0,0-3.13.3A23.53,23.53,0,0,0,33.68,60h-28a2.92,2.92,0,0,1-2.92-2.92V2.92A2.92,2.92,0,0,1,5.71,0H33.24C46.34,0,57.37,10.72,57.21,23.82Z"/></svg>