<svg id="Layer_1" data-name="Layer 1" xmlns="http://www.w3.org/2000/svg" viewBox="0 0 96 96"><defs><style>.cls-1{fill:#ffc200;}.cls-2{fill:#1c1c28;}</style></defs><path class="cls-1" d="M58,38.82a6.3,6.3,0,0,1-6.24,5.53,6.39,6.39,0,0,1-.75,0,6.28,6.28,0,0,1-5.5-7,6.28,6.28,0,0,1,10.92-3.45A6.28,6.28,0,0,1,58,38.82Z"/><path class="cls-2" d="M91.53,38.12A37.6,37.6,0,0,1,54.6,75.28H53.18A27.3,27.3,0,0,1,44.41,22.4a17.3,17.3,0,1,0,8.39-1.67c.13,0,.07,0-.09,0a35.74,35.74,0,0,0-5,.49A37.64,37.64,0,0,0,53.89,96H9.14a4.67,4.67,0,0,1-4.67-4.68V4.68A4.67,4.67,0,0,1,9.14,0H53.19C74.15,0,91.79,17.15,91.53,38.12Z"/></svg>