<svg fill="none" fill-rule="evenodd" stroke="black" stroke-width="0.501" stroke-linejoin="bevel" stroke-miterlimit="10" xmlns="http://www.w3.org/2000/svg" version="1.1" overflow="visible" viewBox="0 -305.637 223.456 305.637">
<g id="Layer 1" transform="scale(1 -1)">
<rect x="0.043" y="45.131" width="223.37" height="223.369" stroke="none" fill="#ffffff" stroke-linejoin="miter"/>
<g id="Group" stroke-linejoin="miter" stroke-linecap="round" stroke="none" stroke-width="0.25">
<path d="M 111.728,57.58 C 135.658,57.58 157.838,65.115 176.023,77.94 C 171.279,109.355 167.997,123.432 158.177,131.643 C 152.738,136.268 145.332,138.577 134.373,141.767 C 131.521,142.596 126.711,143.982 124.277,144.51 L 124.278,157.903 C 132.054,162.221 138.002,170.432 140.407,180.443 C 145.044,180.721 147.083,182.158 149.096,185.514 C 150.676,188.148 151.954,192.542 150.754,195.8 C 149.682,198.711 147.022,201.832 143.663,201.832 C 142.799,201.832 141.959,201.638 141.183,201.288 C 138.882,218.286 126.521,231.276 111.728,231.276 C 96.935,231.276 84.574,218.286 82.273,201.288 C 81.497,201.638 80.657,201.832 79.793,201.832 C 76.434,201.832 73.774,198.711 72.702,195.8 C 71.502,192.542 72.78,188.148 74.36,185.514 C 76.373,182.158 78.412,180.721 83.049,180.443 C 85.454,170.432 91.402,162.221 99.178,157.903 L 99.179,144.51 C 96.745,143.982 91.935,142.596 89.083,141.767 C 78.124,138.577 70.718,136.268 65.279,131.643 C 55.459,123.432 52.177,109.355 47.433,77.94 C 65.618,65.115 87.798,57.58 111.728,57.58 Z" fill="#f1c9a5" marker-start="none" marker-end="none"/>
<path d="M 111.728,57.58 C 135.658,57.58 157.838,65.115 176.023,77.94 C 171.279,109.355 167.997,123.432 158.177,131.643 C 152.738,136.268 145.332,138.577 134.373,141.767 C 131.521,142.596 126.711,143.982 124.277,144.51 L 124.278,157.903 C 132.054,162.221 138.002,170.432 140.407,180.443 C 145.044,180.721 147.083,182.158 149.096,185.514 C 150.676,188.148 151.954,192.542 150.754,195.8 C 149.682,198.711 147.022,201.832 143.663,201.832 C 142.799,201.832 141.959,201.638 141.183,201.288 C 138.882,218.286 126.521,231.276 111.728,231.276 L 111.728,57.58 Z" fill="#e4b992" marker-start="none" marker-end="none"/>
</g>
<g id="Group_1" stroke-linejoin="round" stroke-linecap="round" stroke="none" stroke-width="0.5" fill="#bf6200">
<path d="M 83.697,191.463 C 72.537,218.537 84.464,248.725 111.728,248.725 C 119.327,248.725 127.595,247.041 131.901,238.037 C 142.77,234.939 141.376,222.884 140.02,206.917 C 136.026,215.164 131.236,221.461 125.763,225.519 C 115.68,208.258 79.758,207.271 83.697,191.463 Z" marker-start="none" marker-end="none"/>
<path d="M 111.728,175.009 C 104.759,175.009 99.843,169.729 92.375,169.729 C 85.412,169.972 82.464,179.915 81.417,189.663 C 81.16,181.802 81.293,172.65 86.697,163.383 C 94.689,158.145 98.306,156.405 106.235,152.814 L 117.221,152.814 C 125.15,156.405 128.767,158.145 136.759,163.383 C 142.163,172.65 142.296,181.802 142.039,189.663 C 140.992,179.915 138.044,169.972 131.081,169.729 C 123.613,169.729 118.697,175.009 111.728,175.009 Z" marker-start="none" marker-end="none"/>
</g>
<g id="Group_2" stroke-linejoin="miter" stroke-linecap="round" stroke="none" stroke-width="0.5">
<path d="M 150.919,64.674 L 150.919,136.142 C 164.558,129.855 169.325,119.509 175.848,77.818 C 168.188,72.437 159.823,67.995 150.919,64.655 L 150.919,64.674 Z" fill="#0002bf" marker-start="none" marker-end="none"/>
<path d="M 47.607,77.818 C 54.13,119.509 58.897,129.855 72.537,136.142 L 72.537,64.674 L 72.537,64.655 C 63.632,67.995 55.267,72.437 47.607,77.818 Z" fill="#0002bf" marker-start="none" marker-end="none"/>
<path d="M 111.728,130.875 C 103.967,130.875 97.5,136.455 96.124,143.82 C 85.976,140.826 78.401,138.844 72.537,136.142 L 67.66,98.258 L 72.537,64.674 C 84.732,60.1 97.94,57.58 111.728,57.58 C 125.518,57.58 138.724,60.1 150.919,64.674 L 155.796,98.258 L 150.919,136.142 C 145.055,138.844 137.48,140.826 127.332,143.82 C 125.956,136.455 119.489,130.875 111.728,130.875 Z" fill="#00bfbf" marker-start="none" marker-end="none"/>
<path d="M 89.296,141.829 C 91.433,142.451 93.705,143.107 96.123,143.82 C 97.499,136.455 103.966,130.875 111.728,130.875 C 119.489,130.875 125.956,136.455 127.332,143.82 C 129.75,143.106 132.022,142.451 134.159,141.829 C 131.905,131.516 122.713,123.788 111.728,123.788 C 100.742,123.788 91.55,131.516 89.296,141.829 Z" fill="#0002bf" marker-start="none" marker-end="none"/>
</g>
</g>
</svg>
