<svg fill="none" fill-rule="evenodd" stroke="black" stroke-width="0.501" stroke-linejoin="bevel" stroke-miterlimit="10" xmlns="http://www.w3.org/2000/svg" version="1.1" overflow="visible" viewBox="0 -305.637 223.456 305.637">
<g id="Layer 1" transform="scale(1 -1)">
<rect x="0.043" y="45.131" width="223.37" height="223.369" stroke="none" fill="#ffffff" stroke-linejoin="miter"/>
<g id="Group" stroke-linejoin="miter" stroke-linecap="round" stroke="none" stroke-width="0.25">
<path d="M 111.728,57.58 C 135.658,57.58 157.838,65.115 176.023,77.94 C 171.279,109.355 167.997,123.432 158.177,131.643 C 152.738,136.268 145.332,138.577 134.373,141.767 C 131.521,142.596 126.711,143.982 124.277,144.51 L 124.278,157.903 C 132.054,162.221 138.002,170.432 140.407,180.443 C 145.044,180.721 147.083,182.158 149.096,185.514 C 150.676,188.148 151.954,192.542 150.754,195.8 C 149.682,198.711 147.022,201.832 143.663,201.832 C 142.799,201.832 141.959,201.638 141.183,201.288 C 138.882,218.286 126.521,231.276 111.728,231.276 C 96.935,231.276 84.574,218.286 82.273,201.288 C 81.497,201.638 80.657,201.832 79.793,201.832 C 76.434,201.832 73.774,198.711 72.702,195.8 C 71.502,192.542 72.78,188.148 74.36,185.514 C 76.373,182.158 78.412,180.721 83.049,180.443 C 85.454,170.432 91.402,162.221 99.178,157.903 L 99.179,144.51 C 96.745,143.982 91.935,142.596 89.083,141.767 C 78.124,138.577 70.718,136.268 65.279,131.643 C 55.459,123.432 52.177,109.355 47.433,77.94 C 65.618,65.115 87.798,57.58 111.728,57.58 Z" fill="#f1c9a5" marker-start="none" marker-end="none"/>
<path d="M 111.728,57.58 C 135.658,57.58 157.838,65.115 176.023,77.94 C 171.279,109.355 167.997,123.432 158.177,131.643 C 152.738,136.268 145.332,138.577 134.373,141.767 C 131.521,142.596 126.711,143.982 124.277,144.51 L 124.278,157.903 C 132.054,162.221 138.002,170.432 140.407,180.443 C 145.044,180.721 147.083,182.158 149.096,185.514 C 150.676,188.148 151.954,192.542 150.754,195.8 C 149.682,198.711 147.022,201.832 143.663,201.832 C 142.799,201.832 141.959,201.638 141.183,201.288 C 138.882,218.286 126.521,231.276 111.728,231.276 L 111.728,57.58 Z" fill="#e4b992" marker-start="none" marker-end="none"/>
</g>
<g id="Group_1" fill="#303030" stroke-linejoin="round" stroke-linecap="round" stroke="none" stroke-width="0.5">
<path d="M 83.697,191.463 C 72.537,218.537 84.464,248.725 111.728,248.725 C 119.327,248.725 127.595,247.041 131.901,238.037 C 142.77,234.939 141.376,222.884 140.02,206.917 C 136.026,215.164 131.236,221.461 125.763,225.519 C 115.68,208.258 79.758,207.271 83.697,191.463 Z" marker-start="none" marker-end="none"/>
<path d="M 111.728,175.009 C 104.759,175.009 99.843,169.729 92.375,169.729 C 85.412,169.972 82.464,179.915 81.417,189.663 C 81.16,181.802 81.293,172.65 86.697,163.383 C 94.689,158.145 98.306,156.405 106.235,152.814 L 117.221,152.814 C 125.15,156.405 128.767,158.145 136.759,163.383 C 142.163,172.65 142.296,181.802 142.039,189.663 C 140.992,179.915 138.044,169.972 131.081,169.729 C 123.613,169.729 118.697,175.009 111.728,175.009 Z" marker-start="none" marker-end="none"/>
</g>
<g id="Group_2">
<path d="M 72.537,64.674 L 72.537,64.655 C 63.632,67.995 55.267,72.437 47.607,77.818 C 54.13,119.509 58.897,129.855 72.537,136.142 C 78.401,138.844 85.976,140.826 96.124,143.82 C 97.5,136.455 103.967,130.875 111.728,122.457 C 119.489,130.875 125.956,136.455 127.332,143.82 C 137.48,140.826 145.055,138.844 150.919,136.142 C 164.558,129.855 169.325,119.509 175.848,77.818 C 168.188,72.437 159.823,67.995 150.919,64.655 L 150.919,64.674 C 138.724,60.1 125.518,57.58 111.728,57.58 C 97.94,57.58 84.732,60.1 72.537,64.674 Z" fill="#333333" stroke-linejoin="miter" stroke-linecap="round" stroke="none" stroke-width="0.5" marker-start="none" marker-end="none"/>
<g id="Group_3" fill="#ffffff">
<path d="M 89.764,141.964 C 91.765,142.546 93.881,143.158 96.124,143.82 C 97.5,136.455 103.967,130.875 111.728,122.457 C 119.489,130.875 125.956,136.455 127.332,143.82 C 129.574,143.158 131.69,142.546 133.691,141.964 C 131.016,120.418 125.383,103.474 111.728,85.568 C 98.072,103.474 92.439,120.418 89.764,141.964 Z" stroke="none" stroke-linejoin="miter" stroke-width="0.5" marker-start="none" marker-end="none"/>
<g id="Group_4" stroke-linejoin="round" stroke-width="1" stroke="#333333" stroke-linecap="round">
<path d="M 92.442,125.698 C 91.294,130.698 90.423,135.907 89.743,141.418 L 89.751,141.42 L 97.079,143.67 C 99.537,134.559 104.648,129.267 111.728,121.679 C 106.15,117.203 104.273,115.252 100.827,113.241 C 98.229,115.513 94.984,120.407 92.442,125.698 Z" marker-start="none" marker-end="none"/>
<path d="M 111.728,121.679 C 118.808,129.267 123.919,134.559 126.377,143.67 L 133.704,141.42 L 133.712,141.418 C 133.032,135.907 132.161,130.698 131.013,125.698 C 128.471,120.407 125.226,115.513 122.629,113.241 C 119.183,115.252 117.306,117.203 111.728,121.679 Z" marker-start="none" marker-end="none"/>
</g>
</g>
<g id="Group_5" stroke-linejoin="miter" stroke-linecap="round" stroke="none" stroke-width="0.5" fill="#bf0000">
<path d="M 108.852,111.331 L 105.653,114.53 L 111.728,120.605 L 117.804,114.53 L 114.604,111.331 L 108.852,111.331 Z" marker-start="none" marker-end="none"/>
<path d="M 106.802,92.506 L 106.803,92.51 L 108.929,110.252 L 114.527,110.252 L 116.652,92.511 L 116.653,92.507 C 115.139,90.202 113.501,87.893 111.728,85.568 C 109.954,87.893 108.316,90.202 106.802,92.506 Z" marker-start="none" marker-end="none"/>
</g>
</g>
</g>
</svg>
