<svg fill="none" fill-rule="evenodd" stroke="black" stroke-width="0.501" stroke-linejoin="bevel" stroke-miterlimit="10" xmlns="http://www.w3.org/2000/svg" version="1.1" overflow="visible" viewBox="0 -305.637 223.456 305.637">
<g id="Layer 1" transform="scale(1 -1)">
<rect x="0.043" y="45.131" width="223.37" height="223.369" stroke="none" fill="#ffffff" stroke-linejoin="miter"/>
<g id="Group" stroke-linejoin="miter" stroke-linecap="round" stroke="none" stroke-width="0.25">
<path d="M 111.728,57.58 C 135.658,57.58 157.838,65.115 176.023,77.94 C 171.279,109.355 167.997,123.432 158.177,131.643 C 152.738,136.268 145.332,138.577 134.373,141.767 C 131.521,142.596 126.711,143.982 124.277,144.51 L 124.278,157.903 C 132.054,162.221 138.002,170.432 140.407,180.443 C 145.044,180.721 147.083,182.158 149.096,185.514 C 150.676,188.148 151.954,192.542 150.754,195.8 C 149.682,198.711 147.022,201.832 143.663,201.832 C 142.799,201.832 141.959,201.638 141.183,201.288 C 138.882,218.286 126.521,231.276 111.728,231.276 C 96.935,231.276 84.574,218.286 82.273,201.288 C 81.497,201.638 80.657,201.832 79.793,201.832 C 76.434,201.832 73.774,198.711 72.702,195.8 C 71.502,192.542 72.78,188.148 74.36,185.514 C 76.373,182.158 78.412,180.721 83.049,180.443 C 85.454,170.432 91.402,162.221 99.178,157.903 L 99.179,144.51 C 96.745,143.982 91.935,142.596 89.083,141.767 C 78.124,138.577 70.718,136.268 65.279,131.643 C 55.459,123.432 52.177,109.355 47.433,77.94 C 65.618,65.115 87.798,57.58 111.728,57.58 Z" fill="#f1c9a5" marker-start="none" marker-end="none"/>
<path d="M 111.728,57.58 C 135.658,57.58 157.838,65.115 176.023,77.94 C 171.279,109.355 167.997,123.432 158.177,131.643 C 152.738,136.268 145.332,138.577 134.373,141.767 C 131.521,142.596 126.711,143.982 124.277,144.51 L 124.278,157.903 C 132.054,162.221 138.002,170.432 140.407,180.443 C 145.044,180.721 147.083,182.158 149.096,185.514 C 150.676,188.148 151.954,192.542 150.754,195.8 C 149.682,198.711 147.022,201.832 143.663,201.832 C 142.799,201.832 141.959,201.638 141.183,201.288 C 138.882,218.286 126.521,231.276 111.728,231.276 L 111.728,57.58 Z" fill="#e4b992" marker-start="none" marker-end="none"/>
</g>
<g id="Group_1" stroke="none" fill="#333333">
<path d="M 111.727,247.604 C 119.586,248.057 128.526,246.688 134.096,244.503 C 145.564,240.004 152.711,229.687 149.823,210.991 C 148.267,204.883 140.091,194.664 140.096,194.664 C 138.043,198.172 137.028,203.118 137.546,210.189 C 125.782,209.233 107.687,212.257 101.409,223.599 C 102.551,219.985 102.294,217.049 105.296,214.359 C 103.367,214.657 101.255,216.049 100.106,220.515 C 99.882,215.823 98.015,213.725 96.023,211.825 C 97.254,215.045 98.394,218.267 98.108,221.487 C 95.85,215.074 91.644,212.314 85.91,210.189 C 86.428,203.118 85.413,198.172 83.36,194.664 C 83.365,194.664 75.189,204.883 73.633,211.028 C 70.402,223.787 77.466,240.413 93.185,242.589 C 92.228,243.388 89.817,243.999 86.577,244.503 C 89.433,245.144 91.949,245.061 94.017,244.023 C 93.877,245.673 94.756,247.017 95.697,248.343 C 95.786,247.079 95.649,245.558 96.657,245.343 C 97.853,246.197 98.752,247.151 101.457,247.503 C 100.889,246.703 99.93,245.903 100.617,245.103 C 103.53,246.579 107.47,247.359 111.727,247.604 Z" stroke-linejoin="miter" marker-start="none" marker-end="none"/>
<path d="M 87.68,159.92 L 87.225,163.167 C 86.065,161.359 84.905,160.745 83.745,160.047 C 85.014,162.653 85.486,165.159 85.485,167.607 C 84.434,165.168 82.965,164.196 81.537,163.08 C 82.539,165.516 83.865,169.347 83.037,173.73 L 81.404,180.606 C 81.914,180.532 82.46,180.478 83.049,180.443 C 84.541,174.231 87.397,168.713 91.207,164.387 C 90.183,162.952 88.229,160.282 87.68,159.92 Z M 132.249,164.387 C 136.059,168.713 138.915,174.231 140.407,180.443 C 140.996,180.478 141.542,180.532 142.052,180.606 L 140.419,173.73 C 139.591,169.347 140.917,165.516 141.919,163.08 C 140.491,164.196 139.022,165.168 137.971,167.607 C 137.97,165.159 138.442,162.653 139.711,160.047 C 138.551,160.745 137.391,161.359 136.231,163.167 L 135.776,159.92 C 135.227,160.282 133.273,162.952 132.249,164.387 Z" stroke-linecap="round" stroke-width="0.5" stroke-linejoin="round" marker-start="none" marker-end="none"/>
</g>
<g id="Group_2" stroke-linejoin="miter" stroke-linecap="round" stroke="none">
<path d="M 72.535,64.655 C 63.631,67.995 55.266,72.437 47.607,77.818 C 54.129,119.507 58.896,129.854 72.535,136.141 C 78.399,138.844 85.974,140.826 96.123,143.82 C 97.499,136.455 103.966,130.875 111.728,130.875 C 119.489,130.875 125.956,136.455 127.332,143.82 C 137.48,140.826 145.055,138.844 150.919,136.142 C 164.558,129.855 169.325,119.509 175.848,77.818 C 168.188,72.437 159.823,67.995 150.919,64.655 C 138.723,60.081 125.516,57.58 111.728,57.58 C 97.939,57.58 84.732,60.081 72.535,64.655 Z" fill="#595434" stroke-width="0.5" marker-start="none" marker-end="none"/>
<path d="M 89.296,141.829 C 91.433,142.451 93.705,143.107 96.123,143.82 C 97.499,136.455 103.966,130.875 111.728,130.875 C 119.489,130.875 125.956,136.455 127.332,143.82 C 129.75,143.106 132.022,142.451 134.159,141.829 C 131.905,131.516 122.713,123.788 111.728,123.788 C 100.742,123.788 91.55,131.516 89.296,141.829 Z" fill="#373421" stroke-width="1" marker-start="none" marker-end="none"/>
</g>
</g>
</svg>
