<svg fill="none" fill-rule="evenodd" stroke="black" stroke-width="0.501" stroke-linejoin="bevel" stroke-miterlimit="10" xmlns="http://www.w3.org/2000/svg" version="1.1" overflow="visible" viewBox="0 -305.637 223.456 305.637">
<g id="Layer 1" transform="scale(1 -1)">
<rect x="0.043" y="45.131" width="223.37" height="223.369" stroke="none" fill="#ffffff" stroke-linejoin="miter"/>
<g id="Group" stroke-linejoin="miter" stroke-linecap="round" stroke="none" stroke-width="0.25">
<path d="M 111.728,57.58 C 135.658,57.58 157.838,65.115 176.023,77.94 C 171.279,109.355 167.997,123.432 158.177,131.643 C 152.738,136.268 145.332,138.577 134.373,141.767 C 131.521,142.596 126.711,143.982 124.277,144.51 L 124.278,157.903 C 132.054,162.221 138.002,170.432 140.407,180.443 C 145.044,180.721 147.083,182.158 149.096,185.514 C 150.676,188.148 151.954,192.542 150.754,195.8 C 149.682,198.711 147.022,201.832 143.663,201.832 C 142.799,201.832 141.959,201.638 141.183,201.288 C 138.882,218.286 126.521,231.276 111.728,231.276 C 96.935,231.276 84.574,218.286 82.273,201.288 C 81.497,201.638 80.657,201.832 79.793,201.832 C 76.434,201.832 73.774,198.711 72.702,195.8 C 71.502,192.542 72.78,188.148 74.36,185.514 C 76.373,182.158 78.412,180.721 83.049,180.443 C 85.454,170.432 91.402,162.221 99.178,157.903 L 99.179,144.51 C 96.745,143.982 91.935,142.596 89.083,141.767 C 78.124,138.577 70.718,136.268 65.279,131.643 C 55.459,123.432 52.177,109.355 47.433,77.94 C 65.618,65.115 87.798,57.58 111.728,57.58 Z" fill="#f1c9a5" marker-start="none" marker-end="none"/>
<path d="M 111.728,57.58 C 135.658,57.58 157.838,65.115 176.023,77.94 C 171.279,109.355 167.997,123.432 158.177,131.643 C 152.738,136.268 145.332,138.577 134.373,141.767 C 131.521,142.596 126.711,143.982 124.277,144.51 L 124.278,157.903 C 132.054,162.221 138.002,170.432 140.407,180.443 C 145.044,180.721 147.083,182.158 149.096,185.514 C 150.676,188.148 151.954,192.542 150.754,195.8 C 149.682,198.711 147.022,201.832 143.663,201.832 C 142.799,201.832 141.959,201.638 141.183,201.288 C 138.882,218.286 126.521,231.276 111.728,231.276 L 111.728,57.58 Z" fill="#e4b992" marker-start="none" marker-end="none"/>
</g>
<g id="Group_1" stroke-linejoin="miter" stroke-linecap="round" stroke="none" stroke-width="0.5">
<path d="M 72.535,64.655 C 63.631,67.995 55.266,72.437 47.607,77.818 C 54.129,119.507 58.896,129.854 72.535,136.141 C 78.399,138.844 85.974,140.826 96.123,143.82 C 97.499,136.455 103.966,130.875 111.728,130.875 C 119.489,130.875 125.956,136.455 127.332,143.82 C 137.48,140.826 145.055,138.844 150.919,136.142 C 164.558,129.855 169.325,119.509 175.848,77.818 C 168.188,72.437 159.823,67.995 150.919,64.655 C 138.723,60.081 125.516,57.58 111.728,57.58 C 97.939,57.58 84.732,60.081 72.535,64.655 Z" fill="#bf6200" marker-start="none" marker-end="none"/>
<g id="Group_2" fill="#7f4100">
<path d="M 97.079,144.386 C 99.537,135.275 102.942,136.277 111.728,130.601 C 106.31,125.328 103.606,119.86 100.055,118.37 C 94.76,123.003 87.547,134.115 88.31,141.694 L 97.079,144.386 Z" marker-start="none" marker-end="none"/>
<path d="M 126.377,144.386 C 123.919,135.275 120.514,136.277 111.728,130.601 C 117.146,125.328 119.85,119.86 123.401,118.37 C 128.696,123.003 135.909,134.115 135.146,141.694 L 126.377,144.386 Z" marker-start="none" marker-end="none"/>
</g>
</g>
<path d="M 111.728,210.684 C 110.645,210.695 109.075,210.887 107.916,211.281 C 107.466,211.97 106.791,212.546 106.05,212.854 C 100.221,215.267 93.031,215.404 87.049,213.262 C 85.763,213.126 82.148,212.947 79.099,212.769 L 79.587,209.394 C 81.191,209.28 82.602,209.052 82.788,208.595 L 83.055,207.668 C 82.807,205.702 83.06,203.648 83.793,201.88 C 84.189,200.924 85.034,200.079 85.99,199.683 C 92.167,197.125 99.873,197.125 106.05,199.683 C 107.007,200.079 107.852,200.924 108.248,201.88 C 108.808,203.235 109.088,204.758 109.087,206.279 C 109.474,207.699 110.604,208.405 111.728,208.422 C 112.852,208.405 113.982,207.699 114.369,206.279 C 114.368,204.758 114.648,203.235 115.208,201.88 C 115.604,200.924 116.449,200.079 117.406,199.683 C 123.583,197.125 131.289,197.125 137.466,199.683 C 138.422,200.079 139.267,200.924 139.663,201.88 C 140.396,203.648 140.649,205.702 140.401,207.668 L 140.668,208.595 C 140.854,209.052 142.265,209.28 143.869,209.394 L 144.357,212.769 C 141.308,212.947 137.693,213.126 136.407,213.262 C 130.425,215.404 123.235,215.267 117.406,212.854 C 116.665,212.546 115.99,211.97 115.54,211.281 C 114.381,210.887 112.811,210.695 111.728,210.684 Z" stroke="none" stroke-linejoin="miter" fill="#333333" marker-start="none" marker-end="none"/>
<path d="M 139.385,181.054 C 133.985,171.454 130.927,169.598 130.317,168.097 L 129.431,161.563 L 134.469,162.106 C 138.77,162.797 144.987,164.715 145.928,167.984 C 146.992,171.678 145.035,175.314 147.428,178.691 C 149.23,181.235 157.869,182.243 159.578,186.802 C 160.718,189.844 156.099,191.556 157.028,196.211 C 157.731,199.731 160.303,201.168 161.228,203.673 C 162.563,207.291 156.926,210.451 156.322,214.307 C 155.509,219.497 163.082,221.455 158.228,229.953 C 155.804,234.197 152.03,233.948 150.128,236.442 C 148.246,238.909 149.747,243.999 147.498,246.732 C 145.164,249.568 142.626,247.282 137.545,251.462 C 135.872,252.838 134.722,258.253 129.097,259.469 C 125.227,260.306 122.692,257.362 119.442,257.722 C 117.251,257.965 113.931,260.337 111.728,260.251 C 109.525,260.337 106.205,257.965 104.014,257.722 C 100.764,257.362 98.229,260.306 94.359,259.469 C 88.734,258.253 87.584,252.838 85.911,251.462 C 80.83,247.282 78.292,249.568 75.958,246.732 C 73.709,243.999 75.21,238.909 73.328,236.442 C 71.426,233.948 67.652,234.197 65.228,229.953 C 60.374,221.455 67.947,219.497 67.134,214.307 C 66.53,210.451 60.893,207.291 62.228,203.673 C 63.153,201.168 65.725,199.731 66.428,196.211 C 67.357,191.556 62.738,189.844 63.878,186.802 C 65.587,182.243 74.226,181.235 76.028,178.691 C 78.421,175.314 76.464,171.678 77.528,167.984 C 78.469,164.715 84.686,162.797 88.987,162.106 L 94.025,161.563 L 93.139,168.097 C 92.529,169.598 89.471,171.454 84.071,181.054 L 80.198,180.835 C 77.463,181.494 75.904,182.939 74.36,185.514 C 72.78,188.148 71.502,192.542 72.702,195.8 C 73.733,198.601 76.237,201.598 79.418,201.819 L 83.174,199.651 L 87.314,212.837 L 101.108,227.206 L 97.022,216.242 L 111.728,220.986 C 122.055,220.814 126.894,220.901 136.142,212.837 L 140.282,199.651 L 144.038,201.819 C 147.219,201.598 149.723,198.601 150.754,195.8 C 151.954,192.542 150.676,188.148 149.096,185.514 C 147.552,182.939 145.993,181.494 143.258,180.835 L 139.385,181.054 Z" fill="#ff8200" stroke="none" stroke-width="0.25" stroke-linejoin="miter" stroke-linecap="round" marker-start="none" marker-end="none"/>
</g>
</svg>
