<svg fill="none" fill-rule="evenodd" stroke="black" stroke-width="0.501" stroke-linejoin="bevel" stroke-miterlimit="10" xmlns="http://www.w3.org/2000/svg" version="1.1" overflow="visible" viewBox="0 -305.637 223.456 305.637">

<g id="Layer 1" transform="scale(1 -1)">
<rect x="0.043" y="45.131" width="223.37" height="223.369" stroke="none" fill="#ffffff" stroke-linejoin="miter"/>
<g id="Group" stroke-linejoin="miter" stroke-linecap="round" stroke="none" stroke-width="0.25">
<path d="M 111.728,57.58 C 135.658,57.58 157.838,65.115 176.023,77.94 C 171.279,109.355 167.997,123.432 158.177,131.643 C 152.738,136.268 145.332,138.577 134.373,141.767 C 131.521,142.596 126.711,143.982 124.277,144.51 L 124.278,157.903 C 132.054,162.221 138.002,170.432 140.407,180.443 C 145.044,180.721 147.083,182.158 149.096,185.514 C 150.676,188.148 151.954,192.542 150.754,195.8 C 149.682,198.711 147.022,201.832 143.663,201.832 C 142.799,201.832 141.959,201.638 141.183,201.288 C 138.882,218.286 126.521,231.276 111.728,231.276 C 96.935,231.276 84.574,218.286 82.273,201.288 C 81.497,201.638 80.657,201.832 79.793,201.832 C 76.434,201.832 73.774,198.711 72.702,195.8 C 71.502,192.542 72.78,188.148 74.36,185.514 C 76.373,182.158 78.412,180.721 83.049,180.443 C 85.454,170.432 91.402,162.221 99.178,157.903 L 99.179,144.51 C 96.745,143.982 91.935,142.596 89.083,141.767 C 78.124,138.577 70.718,136.268 65.279,131.643 C 55.459,123.432 52.177,109.355 47.433,77.94 C 65.618,65.115 87.798,57.58 111.728,57.58 Z" fill="#f1c9a5" marker-start="none" marker-end="none"/>
<path d="M 111.728,57.58 C 135.658,57.58 157.838,65.115 176.023,77.94 C 171.279,109.355 167.997,123.432 158.177,131.643 C 152.738,136.268 145.332,138.577 134.373,141.767 C 131.521,142.596 126.711,143.982 124.277,144.51 L 124.278,157.903 C 132.054,162.221 138.002,170.432 140.407,180.443 C 145.044,180.721 147.083,182.158 149.096,185.514 C 150.676,188.148 151.954,192.542 150.754,195.8 C 149.682,198.711 147.022,201.832 143.663,201.832 C 142.799,201.832 141.959,201.638 141.183,201.288 C 138.882,218.286 126.521,231.276 111.728,231.276 L 111.728,57.58 Z" fill="#e4b992" marker-start="none" marker-end="none"/>
</g>
<path d="M 111.728,107.433 C 102.288,113.168 92.626,117.403 85.229,123.166 L 83.554,140.127 C 78.9,138.705 74.992,137.353 71.657,135.725 C 71.656,135.72 71.656,135.716 71.656,135.712 L 71.656,135.724 C 69.254,134.551 67.15,133.234 65.279,131.643 C 64.212,130.75 63.222,129.789 62.299,128.744 L 70.254,107.664 C 69.028,92.779 67.08,79.624 64.478,68.044 C 78.83,61.331 94.843,57.58 111.728,57.58 C 128.613,57.58 144.626,61.331 158.978,68.044 C 156.376,79.624 154.428,92.779 153.202,107.664 L 161.157,128.744 C 160.234,129.789 159.244,130.75 158.177,131.643 C 156.306,133.234 154.202,134.551 151.8,135.724 L 151.8,135.712 C 151.8,135.716 151.8,135.72 151.799,135.725 C 148.464,137.353 144.556,138.705 139.902,140.127 L 138.227,123.166 C 130.83,117.403 121.168,113.168 111.728,107.433 Z" fill="#000140" stroke="none" stroke-width="0.5" stroke-linecap="round" stroke-linejoin="miter" marker-start="none" marker-end="none"/>

<g id="Group_1" fill="#00017f" stroke-linejoin="miter" stroke-linecap="round" stroke="none" stroke-width="0.456">

<path d="M 136.044,137.736 C 134.724,136.737 132.841,136.996 131.841,138.315 C 130.842,139.635 131.101,141.518 132.42,142.518 C 133.74,143.517 135.623,143.258 136.623,141.939 C 137.622,140.619 137.363,138.736 136.044,137.736 Z" marker-start="none" marker-end="none"/>
<path d="M 133.087,131.751 C 131.654,130.924 129.817,131.415 128.989,132.849 C 128.162,134.282 128.653,136.119 130.087,136.947 C 131.52,137.774 133.357,137.283 134.185,135.849 C 135.012,134.416 134.521,132.579 133.087,131.751 Z" marker-start="none" marker-end="none"/>
<path d="M 129.111,126.235 C 127.556,125.668 125.832,126.47 125.265,128.025 C 124.698,129.58 125.5,131.304 127.055,131.871 C 128.61,132.438 130.334,131.636 130.901,130.081 C 131.468,128.526 130.666,126.802 129.111,126.235 Z" marker-start="none" marker-end="none"/>
<path d="M 123.912,121.6 C 122.267,121.418 120.782,122.605 120.599,124.251 C 120.417,125.896 121.604,127.381 123.25,127.564 C 124.895,127.746 126.38,126.559 126.563,124.913 C 126.745,123.268 125.558,121.783 123.912,121.6 Z" marker-start="none" marker-end="none"/>
<path d="M 117.432,118.529 C 115.815,118.88 114.786,120.479 115.136,122.097 C 115.487,123.714 117.086,124.743 118.704,124.393 C 120.321,124.042 121.35,122.443 121,120.825 C 120.649,119.208 119.05,118.179 117.432,118.529 Z" marker-start="none" marker-end="none"/>
<path d="M 110.327,117.719 C 108.901,118.559 108.424,120.4 109.264,121.826 C 110.104,123.252 111.945,123.729 113.371,122.889 C 114.797,122.049 115.274,120.208 114.434,118.782 C 113.594,117.356 111.753,116.879 110.327,117.719 Z" marker-start="none" marker-end="none"/>
<path d="M 103.287,119.489 C 102.245,120.774 102.441,122.665 103.727,123.709 C 105.012,124.751 106.903,124.555 107.947,123.269 C 108.989,121.984 108.793,120.093 107.507,119.049 C 106.222,118.007 104.331,118.203 103.287,119.489 Z" marker-start="none" marker-end="none"/>
<path d="M 97.275,123.335 C 96.67,124.875 97.429,126.618 98.97,127.224 C 100.51,127.829 102.253,127.07 102.859,125.529 C 103.464,123.989 102.705,122.246 101.164,121.64 C 99.624,121.035 97.881,121.794 97.275,123.335 Z" marker-start="none" marker-end="none"/>
<path d="M 92.553,128.451 C 92.327,130.091 93.475,131.606 95.115,131.833 C 96.755,132.059 98.27,130.911 98.497,129.271 C 98.723,127.631 97.575,126.116 95.935,125.889 C 94.295,125.663 92.78,126.811 92.553,128.451 Z" marker-start="none" marker-end="none"/>
<path d="M 88.987,134.258 C 89.056,135.911 90.455,137.199 92.109,137.13 C 93.762,137.061 95.05,135.662 94.981,134.008 C 94.912,132.355 93.513,131.067 91.859,131.136 C 90.206,131.205 88.918,132.604 88.987,134.258 Z" marker-start="none" marker-end="none"/>
<path d="M 86.362,140.442 C 86.663,142.069 88.229,143.148 89.857,142.847 C 91.484,142.546 92.563,140.98 92.262,139.352 C 91.961,137.725 90.395,136.646 88.767,136.947 C 87.14,137.248 86.061,138.814 86.362,140.442 Z" marker-start="none" marker-end="none"/>
</g>

<path d="M 71.241,65.15 C 71.147,68.325 71.363,72.341 73.016,77.11 C 78.777,93.737 77.539,95.445 77.136,106.13 C 76.899,112.403 80.182,112.936 76.88,122.824 C 73.13,129.379 78.447,133.24 74.977,136.876 C 83.471,146.384 73.086,145.73 75.883,161.775 C 77.287,169.833 73.498,180.636 73.372,190.966 C 73.104,212.767 79.721,237.659 111.728,237.659 C 143.735,237.659 150.352,212.767 150.084,190.966 C 149.958,180.636 146.169,169.833 147.573,161.775 C 150.37,145.73 139.985,146.384 148.479,136.876 C 145.009,133.24 150.326,129.379 146.576,122.824 C 143.274,112.936 146.557,112.403 146.32,106.13 C 145.917,95.445 144.679,93.737 150.44,77.11 C 152.092,72.341 152.308,68.325 152.214,65.15 C 143.799,61.873 134.888,59.588 125.628,58.437 C 128.643,63.82 132.389,71.554 132.44,76.21 C 132.548,86.307 128.982,93.652 127.64,100.81 C 126.047,109.301 132.176,116.521 132.07,124.58 C 132.026,127.93 131.806,131.937 129.969,134.41 C 127.664,137.513 122.904,144.26 122.712,148.967 C 122.61,151.461 123.05,155.167 124.277,157.945 C 126.386,162.721 130.566,164.262 133.87,170.329 C 138.189,178.26 139.212,184.363 139.502,192.67 C 139.735,199.343 140.669,206.886 131.282,214.941 C 124.036,221.159 115.685,214.129 111.728,223.163 C 107.771,214.129 99.42,221.159 92.174,214.941 C 82.787,206.886 83.721,199.343 83.954,192.67 C 84.244,184.363 85.267,178.26 89.586,170.329 C 92.89,164.262 97.07,162.721 99.179,157.945 C 100.406,155.167 100.846,151.461 100.744,148.967 C 100.552,144.26 95.792,137.513 93.487,134.41 C 91.65,131.937 91.43,127.93 91.386,124.58 C 91.28,116.521 97.409,109.301 95.816,100.81 C 94.474,93.652 90.908,86.307 91.016,76.21 C 91.066,71.554 94.812,63.82 97.827,58.437 C 88.567,59.588 79.656,61.873 71.241,65.15 Z" fill="#bf6200" stroke="none" stroke-linejoin="miter" marker-start="none" marker-end="none"/>
</g>
</svg>
