<?xml version="1.0" encoding="UTF-8" standalone="no"?>
<svg
   id="svg-persona-information-manager-version-2"
   version="1.1"
   viewBox="0 0 223 306"
   stroke-width="0.5"
   overflow="visible"
   sodipodi:docname="_harness.svg"
   inkscape:version="1.2.1 (9c6d41e410, 2022-07-14)"
   xmlns:inkscape="http://www.inkscape.org/namespaces/inkscape"
   xmlns:sodipodi="http://sodipodi.sourceforge.net/DTD/sodipodi-0.dtd"
   xmlns="http://www.w3.org/2000/svg"
   xmlns:svg="http://www.w3.org/2000/svg">
  <sodipodi:namedview
     id="namedview48"
     pagecolor="#ffffff"
     bordercolor="#666666"
     borderopacity="1.0"
     inkscape:showpageshadow="2"
     inkscape:pageopacity="0.0"
     inkscape:pagecheckerboard="0"
     inkscape:deskcolor="#d1d1d1"
     showgrid="false"
     inkscape:zoom="0.77215784"
     inkscape:cx="112.02373"
     inkscape:cy="153.46603"
     inkscape:window-width="2560"
     inkscape:window-height="1400"
     inkscape:window-x="-12"
     inkscape:window-y="-12"
     inkscape:window-maximized="1"
     inkscape:current-layer="svg-persona-information-manager-version-2" />
  <defs
     id="defs4">
    <style
       id="style2">
:root{
--on-0bda9b:#0bda9b;
--on-7f4100:#7f4100;
--on-e4b992:#e4b992;
--on-e5e5e5:#e5e5e5;
--on-f1c9a5:#f1c9a5;
--on-fffe7f:#fffe7f;
}
</style>
  </defs>
  <g
     transform="matrix(1,0,0,-1,-34.966944,278.44048)"
     id="g45">
    <svg
       id="face"
       version="1.1"
       width="100%"
       height="100%">
      <svg
         id="face-left"
         version="1.1"
         width="100%"
         height="100%">
        <path
           fill="var(--on-f1c9a5)"
           marker-start="none"
           marker-end="none"
           d="m 111.728,57.58 c 23.93,0 46.11,7.535 64.295,20.36 -4.744,31.415 -8.026,45.492 -17.846,53.703 -5.439,4.625 -12.845,6.934 -23.804,10.124 -2.852,0.829 -7.662,2.215 -10.096,2.743 l 0.001,13.393 c 7.776,4.318 13.724,12.529 16.129,22.54 4.637,0.278 6.676,1.715 8.689,5.071 1.58,2.634 2.858,7.028 1.658,10.286 -1.072,2.911 -3.732,6.032 -7.091,6.032 -0.864,0 -1.704,-0.194 -2.48,-0.544 -2.301,16.998 -14.662,29.988 -29.455,29.988 -14.793,0 -27.154,-12.99 -29.455,-29.988 -0.776,0.35 -1.616,0.544 -2.48,0.544 -3.359,0 -6.019,-3.121 -7.091,-6.032 -1.2,-3.258 0.078,-7.652 1.658,-10.286 2.013,-3.356 4.052,-4.793 8.689,-5.071 2.405,-10.011 8.353,-18.222 16.129,-22.54 L 99.179,144.51 C 96.745,143.982 91.935,142.596 89.083,141.767 78.124,138.577 70.718,136.268 65.279,131.643 55.459,123.432 52.177,109.355 47.433,77.94 65.618,65.115 87.798,57.58 111.728,57.58 Z"
           id="path6" />
      </svg>
      <svg
         id="face-right"
         version="1.1"
         width="100%"
         height="100%">
        <path
           fill="var(--on-e4b992)"
           marker-start="none"
           marker-end="none"
           d="m 111.728,57.58 c 23.93,0 46.11,7.535 64.295,20.36 -4.744,31.415 -8.026,45.492 -17.846,53.703 -5.439,4.625 -12.845,6.934 -23.804,10.124 -2.852,0.829 -7.662,2.215 -10.096,2.743 l 0.001,13.393 c 7.776,4.318 13.724,12.529 16.129,22.54 4.637,0.278 6.676,1.715 8.689,5.071 1.58,2.634 2.858,7.028 1.658,10.286 -1.072,2.911 -3.732,6.032 -7.091,6.032 -0.864,0 -1.704,-0.194 -2.48,-0.544 -2.301,16.998 -14.662,29.988 -29.455,29.988 z"
           id="path9" />
      </svg>
    </svg>
    <svg
       id="female-hair-head-full"
       version="1.1"
       width="100%"
       height="100%">
      <path
         fill="var(--on-7f4100)"
         marker-start="none"
         marker-end="none"
         stroke="none"
         stroke-linejoin="miter"
         stroke-linecap="round"
         stroke-width="0.5"
         d="m 82.273,201.288 c -0.776,0.35 -1.616,0.544 -2.48,0.544 -3.359,0 -6.019,-3.121 -7.091,-6.032 -1.2,-3.258 0.078,-7.652 1.658,-10.286 2.013,-3.356 4.052,-4.793 8.689,-5.071 0.904,-3.764 2.308,-7.273 4.123,-10.415 h -10e-4 c -16.248,12.366 -18.387,24.098 -18.387,37.815 0,16.778 8.544,31.45 21.261,39.371 -0.002,0.12 -0.002,0.24 -0.002,0.36 0,11.969 9.716,21.685 21.685,21.685 11.969,0 21.685,-9.716 21.685,-21.685 0,-0.12 0,-0.24 -0.002,-0.36 3.415,-2.128 6.53,-4.742 9.259,-7.771 v 0.017 c 7.431,-8.201 12.002,-19.346 12.002,-31.617 0,-13.717 -2.14,-25.449 -18.389,-37.815 1.815,3.142 3.219,6.651 4.124,10.415 4.637,0.278 6.676,1.715 8.689,5.071 1.58,2.634 2.858,7.028 1.658,10.286 -1.072,2.911 -3.732,6.032 -7.091,6.032 -0.864,0 -1.704,-0.194 -2.48,-0.544 -24.665,2.135 -36.013,11.673 -42.503,23.906 -2.161,-9.452 -7.057,-17.679 -16.407,-23.906 z"
         id="path13" />
    </svg>
    <svg
       id="female-clothing"
       version="1.1"
       width="100%"
       height="100%">
      <svg
         id="female-clothing-blouse"
         version="1.1"
         width="100%"
         height="100%">
        <path
           fill="var(--on-e5e5e5)"
           marker-start="none"
           marker-end="none"
           stroke-linejoin="miter"
           d="m 92.034,59.312 v 0.036 65.423 c 12.533,-5.545 25.633,-5.813 39.387,0 V 59.348 59.312 c -6.393,-1.138 -12.974,-1.732 -19.693,-1.732 -6.72,0 -13.301,0.594 -19.694,1.732 z"
           id="path16" />
      </svg>
      <svg
         id="female-clothing-accessory-necklace-pearls"
         version="1.1"
         width="100%"
         height="100%">
        <g
           id="tmp-615"
           fill="var(--on-fffe7f)"
           stroke="none"
           stroke-linejoin="miter"
           stroke-linecap="round"
           stroke-width="0.456">
          <path
             marker-start="none"
             marker-end="none"
             d="m 133.087,131.751 c -1.433,-0.827 -3.27,-0.336 -4.098,1.098 -0.827,1.433 -0.336,3.27 1.098,4.098 1.433,0.827 3.27,0.336 4.098,-1.098 0.827,-1.433 0.336,-3.27 -1.098,-4.098 z"
             id="path19" />
          <path
             marker-start="none"
             marker-end="none"
             d="m 129.111,126.235 c -1.555,-0.567 -3.279,0.235 -3.846,1.79 -0.567,1.555 0.235,3.279 1.79,3.846 1.555,0.567 3.279,-0.235 3.846,-1.79 0.567,-1.555 -0.235,-3.279 -1.79,-3.846 z"
             id="path21" />
          <path
             marker-start="none"
             marker-end="none"
             d="m 123.912,121.6 c -1.645,-0.182 -3.13,1.005 -3.313,2.651 -0.182,1.645 1.005,3.13 2.651,3.313 1.645,0.182 3.13,-1.005 3.313,-2.651 0.182,-1.645 -1.005,-3.13 -2.651,-3.313 z"
             id="path23" />
          <path
             marker-start="none"
             marker-end="none"
             d="m 117.432,118.529 c -1.617,0.351 -2.646,1.95 -2.296,3.568 0.351,1.617 1.95,2.646 3.568,2.296 1.617,-0.351 2.646,-1.95 2.296,-3.568 -0.351,-1.617 -1.95,-2.646 -3.568,-2.296 z"
             id="path25" />
          <path
             marker-start="none"
             marker-end="none"
             d="m 110.327,117.719 c -1.426,0.84 -1.903,2.681 -1.063,4.107 0.84,1.426 2.681,1.903 4.107,1.063 1.426,-0.84 1.903,-2.681 1.063,-4.107 -0.84,-1.426 -2.681,-1.903 -4.107,-1.063 z"
             id="path27" />
          <path
             marker-start="none"
             marker-end="none"
             d="m 103.287,119.489 c -1.042,1.285 -0.846,3.176 0.44,4.22 1.285,1.042 3.176,0.846 4.22,-0.44 1.042,-1.285 0.846,-3.176 -0.44,-4.22 -1.285,-1.042 -3.176,-0.846 -4.22,0.44 z"
             id="path29" />
          <path
             marker-start="none"
             marker-end="none"
             d="m 97.275,123.335 c -0.605,1.54 0.154,3.283 1.695,3.889 1.54,0.605 3.283,-0.154 3.889,-1.695 0.605,-1.54 -0.154,-3.283 -1.695,-3.889 -1.54,-0.605 -3.283,0.154 -3.889,1.695 z"
             id="path31" />
          <path
             marker-start="none"
             marker-end="none"
             d="m 92.553,128.451 c -0.226,1.64 0.922,3.155 2.562,3.382 1.64,0.226 3.155,-0.922 3.382,-2.562 0.226,-1.64 -0.922,-3.155 -2.562,-3.382 -1.64,-0.226 -3.155,0.922 -3.382,2.562 z"
             id="path33" />
          <path
             marker-start="none"
             marker-end="none"
             d="m 88.987,134.258 c 0.069,1.653 1.468,2.941 3.122,2.872 1.653,-0.069 2.941,-1.468 2.872,-3.122 -0.069,-1.653 -1.468,-2.941 -3.122,-2.872 -1.653,0.069 -2.941,1.468 -2.872,3.122 z"
             id="path35" />
        </g>
      </svg>
      <svg
         id="female-clothing-jacket"
         version="1.1"
         width="100%"
         height="100%">
        <path
           fill="var(--on-0bda9b)"
           marker-start="none"
           marker-end="none"
           stroke-linejoin="round"
           d="m 116.367,57.697 10.736,86.191 C 162.82,134.09 167.817,132.44 175.987,77.915 158.989,65.937 138.503,58.579 116.364,57.674 Z"
           id="path39" />
        <path
           fill="var(--on-0bda9b)"
           marker-start="none"
           marker-end="none"
           stroke-linejoin="round"
           d="m 47.468,77.915 c 8.17,54.525 13.167,56.175 48.885,65.973 l 10.735,-86.191 0.003,-0.023 C 84.952,58.579 64.466,65.937 47.468,77.915 Z"
           id="path41" />
      </svg>
    </svg>
  </g>
</svg>
