<svg xmlns="http://www.w3.org/2000/svg" viewBox="90 90 487 45" color-interpolation-filters="sRGB" fill="none" fill-rule="evenodd" font-size="12" overflow="visible" stroke-linecap="square" stroke-miterlimit="3"><style>.st1{fill:#1f64ff;stroke:none;stroke-width:1.31131}</style><g id="shape1-1" transform="translate(93.6 -.972)"><path d="M233.77 2.66c-1.38 0-2.5.48-3.33 1.43-.83.92-1.26 2.05-1.26 3.44 0 1.4.43 2.59 1.26 3.57.83.95 1.92 1.43 3.27 1.43 1.39 0 2.5-.48 3.33-1.43.83-.98 1.25-2.17 1.25-3.57 0-1.39-.42-2.52-1.25-3.44-.83-.95-1.92-1.43-3.27-1.43zM68.6 7.35v25.4c0 1.86.28 3.51.83 4.94.56 1.42 1.33 2.63 2.32 3.63 1.04.95 2.24 1.68 3.63 2.19 1.43.52 2.99.78 4.7.78.95 0 1.84-.07 2.67-.18.83-.12 1.49-.28 1.96-.48v-6.84c-.55.2-1.13.36-1.72.48-.55.12-1.25.18-2.08.18-1.35 0-2.4-.44-3.15-1.31-.72-.91-1.07-2.05-1.07-3.39V22.11h7.14v-6.24h-7.14V7.35H68.6zm140.19 0v25.4c0 1.86.29 3.51.83 4.94.56 1.42 1.34 2.63 2.32 3.63 1.04.95 2.24 1.68 3.64 2.19 1.42.52 2.98.78 4.7.78.94 0 1.83-.07 2.66-.18.83-.12 1.5-.28 1.97-.48v-6.84c-.56.2-1.12.36-1.73.48-.55.12-1.24.18-2.07.18-1.36 0-2.41-.44-3.16-1.31-.71-.91-1.07-2.05-1.07-3.39V22.11h7.13v-6.24h-7.13V7.35h-8.09zM14.93 15.16c-2.14 0-4.12.37-5.95 1.11-1.82.72-3.41 1.75-4.76 3.1-1.3 1.31-2.33 2.88-3.09 4.7C.37 25.89 0 27.9 0 30.07c0 2.19.37 4.19 1.13 6.01.76 1.83 1.79 3.41 3.09 4.76 1.35 1.31 2.94 2.34 4.76 3.09 1.83.72 3.81 1.07 5.95 1.07s4.12-.35 5.94-1.07c1.83-.75 3.39-1.78 4.7-3.09 1.34-1.35 2.39-2.93 3.16-4.76.75-1.82 1.12-3.82 1.12-6.01 0-2.17-.37-4.18-1.12-6-.77-1.82-1.82-3.39-3.16-4.7-1.31-1.35-2.87-2.38-4.7-3.1-1.82-.74-3.8-1.11-5.94-1.11zm34 0c-4.04 0-7.23.84-9.57 2.54-2.34 1.67-3.51 4.29-3.51 7.86v18.73h7.97v-17.9c0-1.82.39-3.11 1.19-3.87.79-.8 2.08-1.19 3.87-1.19 1.78 0 3.07.39 3.86 1.19.79.76 1.19 2.05 1.19 3.87v17.9h8.08V25.56c0-3.57-1.17-6.19-3.5-7.86-2.34-1.7-5.53-2.54-9.58-2.54zm87.64 0c-4.01 0-7.15.84-9.46 2.54-2.3 1.67-3.44 4.29-3.44 7.86v18.73h7.91v-17.9c0-1.82.37-3.11 1.12-3.87.76-.8 2.03-1.19 3.81-1.19 1.78 0 3.06.39 3.81 1.19.79.76 1.19 2.05 1.19 3.87v17.9h7.61V25.85c.07-1.62.51-2.77 1.31-3.45.79-.71 2.02-1.07 3.68-1.07 1.78 0 3.05.39 3.82 1.19.74.76 1.12 2.05 1.12 3.87v17.9h8.02V25.56c0-3.57-1.16-6.19-3.51-7.86-2.29-1.7-5.43-2.54-9.39-2.54-1.91 0-3.57.27-4.99.82-1.43.55-2.66 1.25-3.69 2.08-1.03-.87-2.28-1.56-3.75-2.08-1.46-.55-3.19-.82-5.17-.82zm50.12 0c-2.03 0-3.87.32-5.53 1-1.63.64-3.04 1.56-4.23 2.8-1.18 1.18-2.12 2.66-2.8 4.39-.62 1.71-.95 3.63-.95 5.77 0 2.26.33 4.36.95 6.31.68 1.94 1.64 3.63 2.86 5.06 1.27 1.38 2.82 2.49 4.64 3.32 1.82.8 3.89 1.19 6.18 1.19 2.19 0 4.14-.3 5.89-.89 1.78-.64 3.29-1.57 4.51-2.79 1.28-1.24 2.25-2.78 2.92-4.65.68-1.85 1.02-4.04 1.02-6.53V15.87h-7.14v2.79c-.84-.96-1.92-1.77-3.28-2.44-1.34-.71-3.02-1.06-5.04-1.06zm75.77 0c-2.62 0-5.04.3-7.26.94-2.17.64-4.06 1.6-5.65 2.91-1.58 1.32-2.83 2.95-3.75 4.93-.86 1.95-1.31 4.25-1.31 6.91 0 2.53.45 4.72 1.31 6.53.88 1.8 2.11 3.26 3.7 4.41 1.62 1.11 3.53 1.92 5.7 2.43 2.22.52 4.68.78 7.38.78 1.15 0 2.24-.05 3.27-.17 1.07-.09 2.02-.18 2.85-.3v-6.37c-.67.16-1.44.28-2.31.36-.87.08-1.89.12-3.04.12-3.53 0-6.2-.61-8.03-1.85-1.82-1.26-2.73-3.32-2.73-6.18 0-3.21.9-5.53 2.68-6.96 1.81-1.42 4.48-2.14 7.96-2.14 1.2 0 2.18.04 2.98.13.83.07 1.6.18 2.31.35v-6.36c-.83-.12-1.76-.22-2.79-.3-1.03-.12-2.11-.17-3.27-.17zm24.69 0c-2.02 0-3.86.32-5.53 1-1.62.64-3.03 1.56-4.22 2.8-1.18 1.18-2.12 2.66-2.8 4.39-.62 1.71-.94 3.63-.94 5.77 0 2.26.32 4.36.94 6.31.68 1.94 1.64 3.63 2.86 5.06 1.27 1.38 2.82 2.49 4.63 3.32 1.83.8 3.9 1.19 6.2 1.19 2.18 0 4.13-.3 5.88-.89 1.79-.64 3.29-1.57 4.52-2.79 1.27-1.24 2.24-2.78 2.91-4.65.68-1.85 1.02-4.04 1.02-6.53V15.87h-7.14v2.79c-.83-.96-1.92-1.77-3.28-2.44-1.34-.71-3.02-1.06-5.05-1.06zm-57.54.71v28.42h8.09V15.87h-8.09zM14.93 21.51c2.1 0 3.77.72 4.99 2.14 1.24 1.43 1.85 3.57 1.85 6.42 0 2.87-.61 5.01-1.85 6.43-1.22 1.42-2.89 2.14-4.99 2.14s-3.76-.72-5-2.14c-1.22-1.42-1.84-3.56-1.84-6.43 0-2.85.62-4.99 1.84-6.42 1.24-1.42 2.9-2.14 5-2.14zm172.95 0c2.02 0 3.63.72 4.82 2.14 1.18 1.43 1.78 3.57 1.78 6.42 0 2.87-.6 5.01-1.78 6.43-1.19 1.42-2.8 2.14-4.82 2.14-2.02 0-3.63-.72-4.82-2.14-1.19-1.42-1.79-3.56-1.79-6.43 0-2.85.6-4.99 1.79-6.42 1.19-1.42 2.8-2.14 4.82-2.14zm100.47 0c2.02 0 3.62.72 4.81 2.14 1.18 1.43 1.79 3.57 1.79 6.42 0 2.87-.61 5.01-1.79 6.43-1.19 1.42-2.79 2.14-4.81 2.14-2.03 0-3.63-.72-4.82-2.14-1.19-1.42-1.8-3.56-1.8-6.43 0-2.85.61-4.99 1.8-6.42 1.19-1.42 2.79-2.14 4.82-2.14z" class="st1"/></g><g id="shape2-3" transform="translate(181.285 -1.684)"><path d="M15.17 2.66c-2.19 0-4.21.4-6.08 1.19-1.86.75-3.46 1.82-4.81 3.21-1.34 1.34-2.39 2.95-3.15 4.82C.37 13.75 0 15.78 0 18c0 2.23.37 4.27 1.13 6.13C1.89 26 2.94 27.61 4.28 29c1.35 1.36 2.95 2.43 4.81 3.21 1.87.76 3.89 1.14 6.08 1.14 2.17 0 4.19-.38 6.06-1.14 1.86-.78 3.47-1.85 4.81-3.21 1.36-1.39 2.4-3 3.16-4.87.75-1.86 1.13-3.9 1.13-6.13 0-2.22-.38-4.25-1.13-6.12-.76-1.87-1.8-3.48-3.16-4.82-1.34-1.39-2.95-2.46-4.81-3.21-1.87-.79-3.89-1.19-6.06-1.19zm0 6.78c1.02 0 1.95.22 2.79.66.84.42 1.52 1.02 2.08 1.78.59.75 1.05 1.66 1.37 2.73.31 1.04.48 2.16.48 3.39s-.17 2.38-.48 3.45a8.27 8.27 0 01-1.37 2.68 6.06 6.06 0 01-2.08 1.78c-.84.44-1.77.66-2.79.66-1.04 0-1.97-.22-2.8-.66a6.773 6.773 0 01-2.14-1.78c-.56-.76-1-1.64-1.31-2.68-.32-1.07-.47-2.22-.47-3.45s.15-2.35.47-3.39c.31-1.07.75-1.98 1.31-2.73.6-.76 1.31-1.36 2.14-1.78.83-.44 1.76-.66 2.8-.66zM1.96 37.92V45h26.41v-7.08H1.96z" class="st1"/></g></svg>