<svg fill="none" fill-rule="evenodd" stroke="black" stroke-width="0.501" stroke-linejoin="bevel" stroke-miterlimit="10" style="font-variant-ligatures:none" xmlns="http://www.w3.org/2000/svg" version="1.1" overflow="visible" viewBox="0 -305.637 223.456 305.637">
<g id="Layer 1" transform="scale(1 -1)">
<rect x="0.043" y="45.131" width="223.37" height="223.369" stroke="none" fill="#ffffff" stroke-linejoin="miter"/>

<g id="Group" stroke-linejoin="miter" stroke-linecap="round" stroke="none" stroke-width="0.25">
<path d="M 111.728,57.58 C 135.658,57.58 157.838,65.115 176.023,77.94 C 171.279,109.355 167.997,123.432 158.177,131.643 C 152.738,136.268 145.332,138.577 134.373,141.767 C 131.521,142.596 126.711,143.982 124.277,144.51 L 124.278,157.903 C 132.054,162.221 138.002,170.432 140.407,180.443 C 145.044,180.721 147.083,182.158 149.096,185.514 C 150.676,188.148 151.954,192.542 150.754,195.8 C 149.682,198.711 147.022,201.832 143.663,201.832 C 142.799,201.832 141.959,201.638 141.183,201.288 C 138.882,218.286 126.521,231.276 111.728,231.276 C 96.935,231.276 84.574,218.286 82.273,201.288 C 81.497,201.638 80.657,201.832 79.793,201.832 C 76.434,201.832 73.774,198.711 72.702,195.8 C 71.502,192.542 72.78,188.148 74.36,185.514 C 76.373,182.158 78.412,180.721 83.049,180.443 C 85.454,170.432 91.402,162.221 99.178,157.903 L 99.179,144.51 C 96.745,143.982 91.935,142.596 89.083,141.767 C 78.124,138.577 70.718,136.268 65.279,131.643 C 55.459,123.432 52.177,109.355 47.433,77.94 C 65.618,65.115 87.798,57.58 111.728,57.58 Z" fill="#f1c9a5" marker-start="none" marker-end="none"/>
<path d="M 111.728,57.58 C 135.658,57.58 157.838,65.115 176.023,77.94 C 171.279,109.355 167.997,123.432 158.177,131.643 C 152.738,136.268 145.332,138.577 134.373,141.767 C 131.521,142.596 126.711,143.982 124.277,144.51 L 124.278,157.903 C 132.054,162.221 138.002,170.432 140.407,180.443 C 145.044,180.721 147.083,182.158 149.096,185.514 C 150.676,188.148 151.954,192.542 150.754,195.8 C 149.682,198.711 147.022,201.832 143.663,201.832 C 142.799,201.832 141.959,201.638 141.183,201.288 C 138.882,218.286 126.521,231.276 111.728,231.276 L 111.728,57.58 Z" fill="#e4b992" marker-start="none" marker-end="none"/>
</g>
<path d="M 56.064,147.685 C 55.121,158.929 63.11,163.141 63.105,171.38 C 63.1,179.94 54.514,184.644 55.756,195.988 C 57.086,208.139 66.112,211.087 70.569,219.067 C 75.896,228.605 73.835,240.114 84.769,248.609 C 92.422,254.555 104.202,257.206 113.271,254.711 C 119.107,256.737 125.515,256.86 130.859,254.449 C 139.128,250.718 145.638,242.862 149.171,234.313 C 151.824,227.892 151.032,220.392 153.458,213.864 C 156.21,206.459 163.038,203.827 164.927,193.122 C 166.708,183.031 160.777,179.432 162.194,172.745 C 164.209,163.239 171.426,158.218 170.679,150.235 C 169.979,142.763 165.54,136.445 159.361,130.863 L 124.226,144.522 L 124.226,157.947 C 131.496,162.029 137.17,169.539 139.804,178.743 C 137.288,180.161 135.381,182.6 134.517,185.26 C 132.149,192.548 139.415,201.513 135.742,208.219 C 130.169,218.394 124.828,212.851 119.027,217.467 C 116.067,219.823 114.275,223.803 114.536,227.943 C 111.803,221.045 106.032,217.453 100.437,213.149 C 96.556,210.163 88.055,207.289 87.243,199.502 C 86.55,192.851 92.312,186.674 90.989,180.283 C 90.367,177.275 88.817,174.413 85.78,172.681 C 88.844,166.225 93.534,161.026 99.178,157.889 L 99.179,144.51 L 63.924,130.863 C 58.95,136.279 56.581,141.516 56.064,147.685 Z" fill="#86572b" stroke="none" stroke-linejoin="miter" stroke-linecap="round" stroke-width="0.5" marker-start="none" marker-end="none"/>
<path d="M 111.728,93.827 C 94.893,119.446 79.073,105.728 65.388,131.582 C 55.956,123.665 52.258,109.871 47.469,77.915 C 65.646,65.106 87.813,57.58 111.728,57.58 C 135.643,57.58 157.81,65.106 175.987,77.915 C 171.198,109.871 167.5,123.665 158.068,131.582 C 144.383,105.728 128.563,119.446 111.728,93.827 Z" fill="#7f007e" stroke="none" stroke-width="1.543" stroke-linejoin="miter" marker-start="none" marker-end="none"/>

</g>
</svg>
