<svg xmlns="http://www.w3.org/2000/svg" viewBox="0 0 376 469" color-interpolation-filters="sRGB" fill="none" fill-rule="evenodd" font-size="12" overflow="visible" stroke-linecap="square" stroke-miterlimit="3"><style>.st2{fill:#fff;stroke:none;stroke-linecap:butt;stroke-width:12.24}</style><g id="group14-1" transform="translate(.36 -.36)"><g id="shape3-2"><path fill="#bb9155" stroke="#bb9155" stroke-linecap="round" stroke-linejoin="round" stroke-width=".72" d="M0 .72h375.75v468H0z"/></g><g id="shape4-4" transform="translate(96.343 -256.216)"><path class="st2" d="M0 455.378h13.464v13.342H0z"/></g><g id="shape5-6" transform="translate(137.102 -348.75)"><path class="st2" d="M0 455.256h13.464v13.464H0z"/></g><g id="shape6-8" transform="translate(152.525 -237.978)"><path d="M0 415.48l28.4 19.09v34.15L0 449.38v-33.9z" class="st2"/></g><g id="shape7-10" transform="translate(152.525 -182.286)"><path d="M0 413.4l28.4 19.46v35.86L0 449.38V413.4z" class="st2"/></g><g id="shape8-12" transform="translate(182.268 -105.786)"><path class="st2" d="M0 455.256h13.464v13.464H0z"/></g><g id="shape9-14" transform="translate(197.078 -237.978)"><path d="M0 434.57l26.81-17.01v32.92L0 468.72v-34.15z" class="st2"/></g><g id="shape10-16" transform="translate(197.078 -181.796)"><path d="M0 432.37l26.81-18.36v37.33L0 468.72v-36.35z" class="st2"/></g><g id="shape11-18" transform="translate(268.315 -320.965)"><path class="st2" d="M0 455.256h13.464v13.464H0z"/></g><g id="shape12-20" transform="translate(36 -40.18)"><path d="M289.72 81.08H16.28A16.402 16.402-180 000 97.48v218.24a153 153-180 10306 0V97.48a16.402 16.402-180 00-16.28-16.4zm-27.78 123.13h-14.81V232l-42.97 29.37v57.17l-42.96 28.02v26.81h14.81v46.02h-46.02v-46.02h14.81v-26.93l-85.68-58.63v-18.85H44.06v-45.9h45.9v45.9H75.15v10.9l25.1 17.13V177.04H84.82v-46.63h46.03v46.02h-14.57v21.66L153 222.57l51.04-32.8v51.65l26.68-18.23v-18.98h-14.68v-46.02h45.9v46.02z" class="st2"/></g></g></svg>