<svg id="Layer_1" data-name="Layer 1" xmlns="http://www.w3.org/2000/svg" viewBox="0 0 152 152"><defs><style>.cls-1{fill:#ffc200;}.cls-2{fill:#1c1c28;}</style></defs><path class="cls-1" d="M91.75,61.46a10,10,0,0,1-9.88,8.76c-.38,0-.78,0-1.18,0A10,10,0,0,1,72,59.1a10,10,0,0,1,9.86-8.78A9.39,9.39,0,0,1,83,50.4a9.8,9.8,0,0,1,6.23,3.24A10,10,0,0,1,91.75,61.46Z"/><path class="cls-2" d="M144.93,60.35A59.54,59.54,0,0,1,86.44,119.2H84.21a43.22,43.22,0,0,1-13.9-83.73,27.4,27.4,0,1,0,13.28-2.65h-.13a58.87,58.87,0,0,0-7.91.77A59.61,59.61,0,0,0,85.32,152H14.47a7.4,7.4,0,0,1-7.4-7.4V7.4A7.4,7.4,0,0,1,14.47,0H84.21C117.41,0,145.33,27.16,144.93,60.35Z"/></svg>