<svg id="Layer_1" data-name="Layer 1" xmlns="http://www.w3.org/2000/svg" viewBox="0 0 16 16"><defs><style>.cls-1{fill:#ffc200;}.cls-2{fill:#1c1c28;}</style></defs><path class="cls-1" d="M9.66,6.47a1.05,1.05,0,0,1-1,.92H8.49a1,1,0,0,1-.91-1.17,1,1,0,0,1,.26-.57,1,1,0,0,1,.78-.35h.12a1.1,1.1,0,0,1,.66.35A1.07,1.07,0,0,1,9.66,6.47Z"/><path class="cls-2" d="M15.26,6.35A6.38,6.38,0,0,1,15,8,6.29,6.29,0,0,1,9.1,12.55H8.86A4.55,4.55,0,0,1,7.4,3.73a2.9,2.9,0,1,0,1.4-.27s0,0,0,0A5.83,5.83,0,0,0,8,3.54,6.26,6.26,0,0,0,3,8a6.18,6.18,0,0,0-.24,1.73A6.27,6.27,0,0,0,9,16H1.52a.78.78,0,0,1-.78-.78V.78A.78.78,0,0,1,1.52,0H8.86A6.38,6.38,0,0,1,15.26,6.35Z"/></svg>