<svg id="Layer_1" data-name="Layer 1" xmlns="http://www.w3.org/2000/svg" viewBox="0 0 180 180"><defs><style>.cls-1{fill:#ffc200;}.cls-2{fill:#1c1c28;}</style></defs><path class="cls-1" d="M108.65,72.78A11.79,11.79,0,0,1,97,83.16a13.58,13.58,0,0,1-1.41-.07A11.78,11.78,0,0,1,85.24,70a11.81,11.81,0,0,1,11.68-10.4,12.83,12.83,0,0,1,1.4.09,11.81,11.81,0,0,1,10.33,13.1Z"/><path class="cls-2" d="M171.62,71.47a70.46,70.46,0,0,1-69.25,69.68l-1.33,0-1.32,0A51.18,51.18,0,0,1,83.26,42,32.46,32.46,0,1,0,99,38.87c.25,0,.14,0-.15,0a68.68,68.68,0,0,0-9.37.91A70.59,70.59,0,0,0,101,180H17.14a8.77,8.77,0,0,1-8.77-8.77V8.77A8.77,8.77,0,0,1,17.14,0H99.72C139,0,172.11,32.16,171.62,71.47Z"/></svg>