<svg id="Layer_1" data-name="Layer 1" xmlns="http://www.w3.org/2000/svg" viewBox="0 0 32 32"><defs><style>.cls-1{fill:#ffc200;}.cls-2{fill:#1c1c28;}</style></defs><path class="cls-1" d="M19.32,12.94a2.1,2.1,0,0,1-2.08,1.84H17a2.11,2.11,0,0,1-1.84-2.33,2.14,2.14,0,0,1,.52-1.15,2.11,2.11,0,0,1,1.56-.7l.25,0a2,2,0,0,1,1.31.68A2.11,2.11,0,0,1,19.32,12.94Z"/><path class="cls-2" d="M30.51,12.71A12.34,12.34,0,0,1,30,16,12.54,12.54,0,0,1,18.2,25.09h-.47A9.1,9.1,0,0,1,14.8,7.47a5.76,5.76,0,1,0,2.8-.56h0a13,13,0,0,0-1.66.16A12.55,12.55,0,0,0,18,32H3.05a1.56,1.56,0,0,1-1.56-1.56V1.56A1.56,1.56,0,0,1,3.05,0H17.73A12.75,12.75,0,0,1,30.51,12.71Z"/></svg>