<svg id="Layer_1" data-name="Layer 1" xmlns="http://www.w3.org/2000/svg" viewBox="0 0 72 72"><defs><style>.cls-1{fill:#ffc200;}.cls-2{fill:#1c1c28;}</style></defs><path class="cls-1" d="M43.46,29.11a4.72,4.72,0,0,1-4.68,4.15,5.33,5.33,0,0,1-.56,0A4.71,4.71,0,0,1,34.1,28a4.72,4.72,0,0,1,4.67-4.16,5.12,5.12,0,0,1,.56,0,4.63,4.63,0,0,1,3,1.54A4.69,4.69,0,0,1,43.46,29.11Z"/><path class="cls-2" d="M68.65,28.59A28.2,28.2,0,0,1,41,56.46H39.89A20.47,20.47,0,0,1,33.31,16.8a13,13,0,1,0,6.29-1.25c.1,0,0,0-.07,0a27.07,27.07,0,0,0-3.74.36A28.24,28.24,0,0,0,40.42,72H6.86a3.51,3.51,0,0,1-3.51-3.51v-65A3.51,3.51,0,0,1,6.86,0h33C55.61,0,68.84,12.87,68.65,28.59Z"/></svg>