<svg id="Layer_1" data-name="Layer 1" xmlns="http://www.w3.org/2000/svg" viewBox="0 0 76 76"><defs><style>.cls-1{fill:#ffc200;}.cls-2{fill:#1c1c28;}</style></defs><path class="cls-1" d="M45.88,30.73a5,5,0,0,1-4.94,4.38q-.3,0-.6,0a5,5,0,0,1,.58-9.92,5.65,5.65,0,0,1,.59,0,5,5,0,0,1,4.37,5.53Z"/><path class="cls-2" d="M72.46,30.18A29.77,29.77,0,0,1,43.22,59.6H42.1a21.61,21.61,0,0,1-6.94-41.86,13.69,13.69,0,1,0,6.64-1.33c.1,0,.05,0-.07,0a28.57,28.57,0,0,0-3.95.39A29.8,29.8,0,0,0,42.66,76H7.24a3.71,3.71,0,0,1-3.71-3.7V3.7A3.71,3.71,0,0,1,7.24,0H42.11C58.7,0,72.67,13.58,72.46,30.18Z"/></svg>