<svg id="svg-persona-consumer" xmlns="http://www.w3.org/2000/svg" version="1.1" viewBox="0 0 223 305" stroke-width="0.5" overflow="visible">
<defs>
<style>
:root{
--on-005001:#005001;
--on-83c803:#83c803;
--on-bf6200:#bf6200;
--on-e1ffad:#e1ffad;
--on-e4b992:#e4b992;
--on-e5e5e5:#e5e5e5;
--on-f1c9a5:#f1c9a5;
}
</style>
<linearGradient id="LinearGrad" gradientUnits="userSpaceOnUse" x1="0" y1="0" x2="7.389" y2="-22.5" gradientTransform="translate(104.339 207.475)">
<stop offset="0" stop-color="var(--on-e1ffad)"/>
<stop offset="1" stop-color="var(--on-83c803)"/>
</linearGradient>
<linearGradient id="LinearGrad_1" gradientUnits="userSpaceOnUse" x1="0" y1="0" x2="10.05" y2="-24.15" gradientTransform="translate(114.97 206.179)">
<stop offset="0" stop-color="var(--on-e1ffad)"/>
<stop offset="1" stop-color="var(--on-83c803)"/>
</linearGradient>
</defs>
<g transform="matrix(1,0,0,-1,-41.442304,243.47354)">
<svg id="face" stroke-width="0.0">
<svg id="face-left">
<path fill="var(--on-f1c9a5)" marker-start="none" marker-end="none" d="M 111.728,57.58 C 135.658,57.58 157.838,65.115 176.023,77.94 C 171.279,109.355 167.997,123.432 158.177,131.643 C 152.738,136.268 145.332,138.577 134.373,141.767 C 131.521,142.596 126.711,143.982 124.277,144.51 L 124.278,157.903 C 132.054,162.221 138.002,170.432 140.407,180.443 C 145.044,180.721 147.083,182.158 149.096,185.514 C 150.676,188.148 151.954,192.542 150.754,195.8 C 149.682,198.711 147.022,201.832 143.663,201.832 C 142.799,201.832 141.959,201.638 141.183,201.288 C 138.882,218.286 126.521,231.276 111.728,231.276 C 96.935,231.276 84.574,218.286 82.273,201.288 C 81.497,201.638 80.657,201.832 79.793,201.832 C 76.434,201.832 73.774,198.711 72.702,195.8 C 71.502,192.542 72.78,188.148 74.36,185.514 C 76.373,182.158 78.412,180.721 83.049,180.443 C 85.454,170.432 91.402,162.221 99.178,157.903 L 99.179,144.51 C 96.745,143.982 91.935,142.596 89.083,141.767 C 78.124,138.577 70.718,136.268 65.279,131.643 C 55.459,123.432 52.177,109.355 47.433,77.94 C 65.618,65.115 87.798,57.58 111.728,57.58 Z"/>
</svg>
<svg id="face-right">
<path fill="var(--on-e4b992)" marker-start="none" marker-end="none" d="M 111.728,57.58 C 135.658,57.58 157.838,65.115 176.023,77.94 C 171.279,109.355 167.997,123.432 158.177,131.643 C 152.738,136.268 145.332,138.577 134.373,141.767 C 131.521,142.596 126.711,143.982 124.277,144.51 L 124.278,157.903 C 132.054,162.221 138.002,170.432 140.407,180.443 C 145.044,180.721 147.083,182.158 149.096,185.514 C 150.676,188.148 151.954,192.542 150.754,195.8 C 149.682,198.711 147.022,201.832 143.663,201.832 C 142.799,201.832 141.959,201.638 141.183,201.288 C 138.882,218.286 126.521,231.276 111.728,231.276 L 111.728,57.58 Z"/>
</svg>
</svg>
<svg id="female-blouse">
<path fill="var(--on-e5e5e5)" marker-start="none" marker-end="none" stroke="none" stroke-linejoin="miter" stroke-linecap="round" stroke-width="0.5" d="M 111.728,113.168 C 102.288,113.168 92.626,117.403 85.229,123.166 L 83.554,140.127 C 78.9,138.705 74.992,137.353 71.657,135.725 C 71.09,108.78 68.61,86.428 64.478,68.044 C 78.83,61.331 94.843,57.58 111.728,57.58 C 128.613,57.58 144.626,61.331 158.978,68.044 C 154.846,86.428 152.366,108.78 151.799,135.725 C 148.464,137.353 144.556,138.705 139.902,140.127 L 138.227,123.166 C 130.83,117.403 121.168,113.168 111.728,113.168 Z"/>
</svg>
<svg id="female-hair-full">
<path fill="var(--on-bf6200)" marker-start="none" marker-end="none" stroke="none" stroke-linejoin="miter" d="M 71.241,65.15 C 71.147,68.325 71.363,72.341 73.016,77.11 C 78.777,93.737 77.539,95.445 77.136,106.13 C 76.899,112.403 80.182,112.936 76.88,122.824 C 73.13,129.379 78.447,133.24 74.977,136.876 C 83.471,146.384 73.086,145.73 75.883,161.775 C 77.287,169.833 73.498,180.636 73.372,190.966 C 73.104,212.767 79.721,237.659 111.728,237.659 C 143.735,237.659 150.352,212.767 150.084,190.966 C 149.958,180.636 146.169,169.833 147.573,161.775 C 150.37,145.73 139.985,146.384 148.479,136.876 C 145.009,133.24 150.326,129.379 146.576,122.824 C 143.274,112.936 146.557,112.403 146.32,106.13 C 145.917,95.445 144.679,93.737 150.44,77.11 C 152.092,72.341 152.308,68.325 152.214,65.15 C 143.799,61.873 134.888,59.588 125.628,58.437 C 128.643,63.82 132.389,71.554 132.44,76.21 C 132.548,86.307 128.982,93.652 127.64,100.81 C 126.047,109.301 132.176,116.521 132.07,124.58 C 132.026,127.93 131.806,131.937 129.969,134.41 C 127.664,137.513 122.904,144.26 122.712,148.967 C 122.61,151.461 123.05,155.167 124.277,157.945 C 126.386,162.721 130.566,164.262 133.87,170.329 C 138.189,178.26 139.212,184.363 139.502,192.67 C 139.735,199.343 140.669,206.886 131.282,214.941 C 124.036,221.159 115.685,214.129 111.728,223.163 C 107.771,214.129 99.42,221.159 92.174,214.941 C 82.787,206.886 83.721,199.343 83.954,192.67 C 84.244,184.363 85.267,178.26 89.586,170.329 C 92.89,164.262 97.07,162.721 99.179,157.945 C 100.406,155.167 100.846,151.461 100.744,148.967 C 100.552,144.26 95.792,137.513 93.487,134.41 C 91.65,131.937 91.43,127.93 91.386,124.58 C 91.28,116.521 97.409,109.301 95.816,100.81 C 94.474,93.652 90.908,86.307 91.016,76.21 C 91.066,71.554 94.812,63.82 97.827,58.437 C 88.567,59.588 79.656,61.873 71.241,65.15 Z"/>
</svg>
<svg id="female-accessory-glasses">
<svg id="female-accessory-glasses-frames">
<path fill="var(--on-005001)" marker-start="none" marker-end="none" d="M 83.353,200.589 C 83.167,201.461 83.789,202.267 84.474,202.498 C 90.928,204.681 100.592,204.119 108.266,200.912 C 109.525,200.386 110.431,200.182 111.727,200.182 C 113.023,200.182 113.928,200.386 115.188,200.912 C 122.861,204.119 132.526,204.681 138.979,202.498 C 139.665,202.267 140.286,201.461 140.101,200.589 C 138.769,194.334 132.886,184.799 125.813,184.799 C 116.109,184.799 115.193,196.623 111.727,196.623 C 108.261,196.623 107.345,184.799 97.641,184.799 C 90.568,184.799 84.685,194.334 83.353,200.589 Z"/>
</svg>
<svg id="female-accessory-glasses-lenses">
<g id="tmp-580" stroke="none" stroke-linejoin="miter" stroke-linecap="round" stroke-width="0.0">
<g id="tmp-581">
<path marker-start="none" marker-end="none" fill="url(#LinearGrad)" d="M 87.654,196.623 C 87.313,197.873 87.654,199.601 89.244,200.182 C 94.72,202.298 101.899,202.472 106.411,198.929 C 107.483,198.086 108.034,196.349 107.668,195.035 C 106.507,190.868 102.422,186.528 97.868,186.528 C 92.28,186.528 88.82,192.368 87.654,196.623 Z"/>
</g>
<g id="tmp-584">
<path marker-start="none" marker-end="none" fill="url(#LinearGrad_1)" d="M 135.802,196.623 C 136.143,197.873 135.802,199.601 134.212,200.182 C 128.736,202.298 121.557,202.472 117.045,198.929 C 115.973,198.086 115.422,196.349 115.788,195.035 C 116.949,190.868 121.034,186.528 125.588,186.528 C 131.176,186.528 134.636,192.368 135.802,196.623 Z"/>
</g>
</g>
</svg>
</svg>
</g>
</svg>