<svg fill="none" fill-rule="evenodd" stroke="black" stroke-width="0.501" stroke-linejoin="bevel" stroke-miterlimit="10" xmlns="http://www.w3.org/2000/svg" version="1.1" overflow="visible" viewBox="0 -305.637 223.456 305.637">
<g id="Layer 1" transform="scale(1 -1)">
<rect x="0.043" y="45.131" width="223.37" height="223.369" stroke="none" fill="#ffffff" stroke-linejoin="miter"/>
<g id="Group" stroke-linejoin="miter" stroke-linecap="round" stroke="none" stroke-width="0.25">
<path d="M 111.728,57.58 C 135.658,57.58 157.838,65.115 176.023,77.94 C 171.279,109.355 167.997,123.432 158.177,131.643 C 152.738,136.268 145.332,138.577 134.373,141.767 C 131.521,142.596 126.711,143.982 124.277,144.51 L 124.278,157.903 C 132.054,162.221 138.002,170.432 140.407,180.443 C 145.044,180.721 147.083,182.158 149.096,185.514 C 150.676,188.148 151.954,192.542 150.754,195.8 C 149.682,198.711 147.022,201.832 143.663,201.832 C 142.799,201.832 141.959,201.638 141.183,201.288 C 138.882,218.286 126.521,231.276 111.728,231.276 C 96.935,231.276 84.574,218.286 82.273,201.288 C 81.497,201.638 80.657,201.832 79.793,201.832 C 76.434,201.832 73.774,198.711 72.702,195.8 C 71.502,192.542 72.78,188.148 74.36,185.514 C 76.373,182.158 78.412,180.721 83.049,180.443 C 85.454,170.432 91.402,162.221 99.178,157.903 L 99.179,144.51 C 96.745,143.982 91.935,142.596 89.083,141.767 C 78.124,138.577 70.718,136.268 65.279,131.643 C 55.459,123.432 52.177,109.355 47.433,77.94 C 65.618,65.115 87.798,57.58 111.728,57.58 Z" fill="#f1c9a5" marker-start="none" marker-end="none"/>
<path d="M 111.728,57.58 C 135.658,57.58 157.838,65.115 176.023,77.94 C 171.279,109.355 167.997,123.432 158.177,131.643 C 152.738,136.268 145.332,138.577 134.373,141.767 C 131.521,142.596 126.711,143.982 124.277,144.51 L 124.278,157.903 C 132.054,162.221 138.002,170.432 140.407,180.443 C 145.044,180.721 147.083,182.158 149.096,185.514 C 150.676,188.148 151.954,192.542 150.754,195.8 C 149.682,198.711 147.022,201.832 143.663,201.832 C 142.799,201.832 141.959,201.638 141.183,201.288 C 138.882,218.286 126.521,231.276 111.728,231.276 L 111.728,57.58 Z" fill="#e4b992" marker-start="none" marker-end="none"/>
</g>
<path d="M 83.389,184.456 L 82.273,201.288 L 82.46,205.464 C 81.514,214.344 83.577,216.969 85.827,223.531 C 88.895,228.31 92.28,223.494 99.42,224.487 C 96.855,220.15 95.122,213.93 93.796,210.415 C 94.646,210.627 98.269,210.653 99.514,210.987 L 83.389,184.456 Z M 140.067,184.456 L 123.942,210.987 C 125.187,210.653 128.81,210.627 129.66,210.415 C 128.334,213.93 126.601,220.15 124.036,224.487 C 131.176,223.494 134.561,228.31 137.629,223.531 C 139.879,216.969 141.942,214.344 140.996,205.464 L 141.183,201.288 L 140.067,184.456 Z" stroke="none" stroke-width="0.5" stroke-linejoin="miter" fill="#e5e5e5" marker-start="none" marker-end="none"/>
<g id="Group_1">
<path d="M 132.893,142.197 L 111.728,121.507 L 90.563,142.197 C 91.356,130.199 91.452,108.379 111.728,72.65 C 132.004,108.379 132.1,130.199 132.893,142.197 Z" fill="#ffffff" stroke="none" stroke-linejoin="miter" marker-start="none" marker-end="none"/>
<g id="Group_2" stroke-linejoin="round" stroke-width="1" stroke="#333333" fill="#ffffff" stroke-linecap="round">
<path d="M 92.442,125.698 C 91.294,130.698 90.423,135.907 89.743,141.418 L 89.751,141.42 L 97.079,143.67 C 99.537,134.559 104.648,129.267 111.728,121.679 C 106.15,117.203 104.273,115.252 100.827,113.241 C 98.229,115.513 94.984,120.407 92.442,125.698 Z" marker-start="none" marker-end="none"/>
<path d="M 111.728,121.679 C 118.808,129.267 123.919,134.559 126.377,143.67 L 133.704,141.42 L 133.712,141.418 C 133.032,135.907 132.161,130.698 131.013,125.698 C 128.471,120.407 125.226,115.513 122.629,113.241 C 119.183,115.252 117.306,117.203 111.728,121.679 Z" marker-start="none" marker-end="none"/>
</g>
<g id="Group_3" stroke-linejoin="miter" stroke-linecap="round" stroke="none" stroke-width="0.5" fill="#666666">
<path d="M 108.852,111.331 L 105.653,114.53 L 111.728,120.605 L 117.804,114.53 L 114.604,111.331 L 108.852,111.331 Z" marker-start="none" marker-end="none"/>
<path d="M 106.802,92.506 L 106.803,92.51 L 108.929,110.252 L 114.527,110.252 L 116.652,92.511 L 116.653,92.507 C 115.139,90.202 113.501,87.893 111.728,85.568 C 109.954,87.893 108.316,90.202 106.802,92.506 Z" marker-start="none" marker-end="none"/>
</g>
<path d="M 111.728,85.607 C 94.964,117.476 97.5,136.455 96.124,143.82 C 85.976,140.826 78.401,138.844 72.537,136.142 C 58.897,129.855 54.13,119.509 47.607,77.818 C 55.267,72.437 63.632,67.995 72.537,64.655 L 72.537,64.674 C 84.732,60.1 97.94,57.58 111.728,57.58 C 125.516,57.58 138.724,60.1 150.919,64.674 L 150.919,64.655 C 159.824,67.995 168.189,72.437 175.849,77.818 C 169.326,119.509 164.559,129.855 150.919,136.142 C 145.055,138.844 137.48,140.826 127.332,143.82 C 125.956,136.455 128.492,117.476 111.728,85.607 Z" stroke="none" fill="#999999" stroke-linecap="round" stroke-width="0.5" stroke-linejoin="miter" marker-start="none" marker-end="none"/>
<path d="M 129.74,90.307 L 129.74,82.208 L 154.639,90.159 L 154.639,98.258 L 129.74,90.307 Z" fill="#666666" stroke-width="0.5" stroke="none" stroke-linecap="round" stroke-linejoin="miter" marker-start="none" marker-end="none"/>
</g>
</g>
</svg>
