<svg fill="none" fill-rule="evenodd" stroke="black" stroke-width="0.501" stroke-linejoin="bevel" stroke-miterlimit="10" xmlns="http://www.w3.org/2000/svg" version="1.1" overflow="visible" viewBox="0 -305.637 223.456 305.637">
<defs><linearGradient id="LinearGradient" gradientUnits="userSpaceOnUse" x1="0" y1="0" x2="10.222" y2="-9.573" gradientTransform="translate(89.105 200.873)"><stop offset="0" stop-color="#ffffff"/><stop offset="1" stop-color="#3d3d3d"/></linearGradient><linearGradient id="LinearGradient_1" gradientUnits="userSpaceOnUse" x1="0" y1="0" x2="9.759" y2="-11.429" gradientTransform="translate(114.37 202.729)"><stop offset="0" stop-color="#ffffff"/><stop offset="1" stop-color="#3d3d3d"/></linearGradient></defs>
<g id="Layer 1" transform="scale(1 -1)">
<rect x="0.043" y="45.131" width="223.37" height="223.369" stroke="none" fill="#ffffff" stroke-linejoin="miter"/>
<g id="Group" stroke-linejoin="miter" stroke-linecap="round" stroke="none" stroke-width="0.25">
<path d="M 111.728,57.58 C 135.658,57.58 157.838,65.115 176.023,77.94 C 171.279,109.355 167.997,123.432 158.177,131.643 C 152.738,136.268 145.332,138.577 134.373,141.767 C 131.521,142.596 126.711,143.982 124.277,144.51 L 124.278,157.903 C 132.054,162.221 138.002,170.432 140.407,180.443 C 145.044,180.721 147.083,182.158 149.096,185.514 C 150.676,188.148 151.954,192.542 150.754,195.8 C 149.682,198.711 147.022,201.832 143.663,201.832 C 142.799,201.832 141.959,201.638 141.183,201.288 C 138.882,218.286 126.521,231.276 111.728,231.276 C 96.935,231.276 84.574,218.286 82.273,201.288 C 81.497,201.638 80.657,201.832 79.793,201.832 C 76.434,201.832 73.774,198.711 72.702,195.8 C 71.502,192.542 72.78,188.148 74.36,185.514 C 76.373,182.158 78.412,180.721 83.049,180.443 C 85.454,170.432 91.402,162.221 99.178,157.903 L 99.179,144.51 C 96.745,143.982 91.935,142.596 89.083,141.767 C 78.124,138.577 70.718,136.268 65.279,131.643 C 55.459,123.432 52.177,109.355 47.433,77.94 C 65.618,65.115 87.798,57.58 111.728,57.58 Z" fill="#f1c9a5" marker-start="none" marker-end="none"/>
<path d="M 111.728,57.58 C 135.658,57.58 157.838,65.115 176.023,77.94 C 171.279,109.355 167.997,123.432 158.177,131.643 C 152.738,136.268 145.332,138.577 134.373,141.767 C 131.521,142.596 126.711,143.982 124.277,144.51 L 124.278,157.903 C 132.054,162.221 138.002,170.432 140.407,180.443 C 145.044,180.721 147.083,182.158 149.096,185.514 C 150.676,188.148 151.954,192.542 150.754,195.8 C 149.682,198.711 147.022,201.832 143.663,201.832 C 142.799,201.832 141.959,201.638 141.183,201.288 C 138.882,218.286 126.521,231.276 111.728,231.276 L 111.728,57.58 Z" fill="#e4b992" marker-start="none" marker-end="none"/>
</g>
<g id="Group_1" stroke-linejoin="miter" stroke="none">
<path d="M 86.999,194.761 L 86.295,195.331 L 84.695,195.961 L 82.205,199.748 C 90.316,201.384 95.96,202.539 100.977,201.423 C 104.617,200.614 108.684,198.328 111.728,198.303 C 114.772,198.328 118.839,200.614 122.479,201.423 C 127.496,202.539 133.14,201.384 141.166,199.748 L 138.761,195.961 L 137.161,195.331 L 136.457,194.761 C 136.346,185.964 130.899,181.367 124.973,181.175 C 119.19,180.987 113.349,185.114 112.928,193.677 C 112.928,193.901 112.698,194.011 112.521,194.084 C 112.033,194.286 111.423,194.286 110.935,194.084 C 110.758,194.011 110.528,193.901 110.528,193.677 C 110.107,185.114 104.266,180.987 98.483,181.175 C 92.557,181.367 87.11,185.964 86.999,194.761 Z M 108.71,191.814 C 109.172,193.743 108.215,195.865 106.289,197.251 C 104.257,198.713 101.505,199.746 98.885,199.989 C 96.461,200.213 93.9,200.148 91.686,198.759 C 89.854,197.61 88.808,195.725 88.941,193.786 C 89.309,188.431 93.779,183.827 98.435,183.489 C 102.831,183.17 107.682,187.528 108.71,191.814 Z M 125.021,183.489 C 129.677,183.827 134.147,188.431 134.515,193.786 C 134.648,195.725 133.602,197.61 131.77,198.759 C 129.556,200.148 126.995,200.213 124.571,199.989 C 121.951,199.746 119.199,198.713 117.167,197.251 C 115.241,195.865 114.284,193.743 114.746,191.814 C 115.774,187.528 120.625,183.17 125.021,183.489 Z" fill="#191919" marker-start="none" marker-end="none"/>
<g id="Group_2">
<path d="M 108.71,191.814 C 109.172,193.743 108.215,195.865 106.289,197.251 C 104.257,198.713 101.505,199.746 98.885,199.989 C 96.461,200.213 93.9,200.148 91.686,198.759 C 89.854,197.61 88.808,195.725 88.941,193.786 C 89.309,188.431 93.779,183.827 98.435,183.489 C 102.831,183.17 107.682,187.528 108.71,191.814 Z" marker-start="none" marker-end="none" fill="url(#LinearGradient)"/>
<ellipse cx="92.903" cy="196.406" rx="1.538" ry="1.538" fill="#ffffff"/>
<ellipse rx="0.84" ry="0.84" transform="translate(96.321 194.867) rotate(-90)" fill="#ffffff"/>
</g>
<g id="Group_3">
<path d="M 114.746,191.814 C 114.284,193.743 115.241,195.865 117.167,197.251 C 119.199,198.713 121.951,199.746 124.571,199.989 C 126.995,200.213 129.556,200.148 131.77,198.759 C 133.602,197.61 134.648,195.725 134.515,193.786 C 134.147,188.431 129.677,183.827 125.021,183.489 C 120.625,183.17 115.774,187.528 114.746,191.814 Z" marker-start="none" marker-end="none" fill="url(#LinearGradient_1)"/>
<ellipse cx="120.32" cy="196.406" rx="1.538" ry="1.538" fill="#ffffff"/>
<ellipse rx="0.84" ry="0.84" transform="translate(123.738 194.867) rotate(-90)" fill="#ffffff"/>
</g>
</g>
<g id="Group_4" stroke-linejoin="miter" stroke="none" fill="#bf6200">
<path d="M 80.764,221.628 L 88.948,218.596 C 85.526,213.758 83.157,207.818 82.273,201.288 C 81.497,201.638 80.657,201.832 79.793,201.832 C 78.892,201.832 78.042,201.607 77.259,201.223 C 76.87,206.021 78.17,217.706 80.764,221.628 Z" stroke-linecap="round" stroke-width="0.5" marker-start="none" marker-end="none"/>
<path d="M 83.049,180.443 C 84.655,174.178 88.217,171.775 91.949,170.551 C 93.254,165.962 93.925,162.366 97.122,159.165 C 92.283,158.635 80.856,162.732 79.399,181.061 C 80.416,180.727 81.607,180.529 83.049,180.443 Z" stroke-width="0.5" stroke-linecap="round" marker-start="none" marker-end="none"/>
<path d="M 142.692,221.628 L 134.508,218.596 C 137.93,213.758 140.299,207.818 141.183,201.288 C 141.959,201.638 142.799,201.832 143.663,201.832 C 144.564,201.832 145.414,201.607 146.197,201.223 C 146.586,206.021 145.286,217.706 142.692,221.628 Z" stroke-linecap="round" stroke-width="0.5" marker-start="none" marker-end="none"/>
<path d="M 140.407,180.443 C 138.801,174.178 135.239,171.775 131.507,170.551 C 130.202,165.962 129.531,162.366 126.334,159.165 C 131.173,158.635 142.6,162.732 144.057,181.061 C 143.04,180.727 141.849,180.529 140.407,180.443 Z" stroke-width="0.5" stroke-linecap="round" marker-start="none" marker-end="none"/>
<path d="M 111.728,153.516 L 102.68,157.484 C 105.696,157.774 108.712,158.237 111.728,160.115 C 114.744,158.237 117.76,157.774 120.776,157.484 L 111.728,153.516 Z" stroke-linecap="round" stroke-width="0.5" marker-start="none" marker-end="none"/>
<path d="M 128.736,167.045 C 126.334,169.423 121.256,168.093 117.862,167.757 C 115.853,167.558 112.755,168.946 111.728,170.59 C 110.701,168.946 107.603,167.558 105.594,167.757 C 102.2,168.093 97.122,169.423 94.72,167.045 C 99.812,175.835 105.562,176.916 111.728,175.632 C 117.894,176.916 123.644,175.835 128.736,167.045 Z" marker-start="none" marker-end="none"/>
</g>
<g id="Group_5">
<path d="M 132.893,142.197 L 111.728,121.507 L 90.563,142.197 C 91.356,130.199 91.452,108.379 111.728,72.65 C 132.004,108.379 132.1,130.199 132.893,142.197 Z" fill="#ffffff" stroke="none" stroke-linejoin="miter" marker-start="none" marker-end="none"/>
<g id="Group_6" stroke="#262162" stroke-linecap="round" stroke-linejoin="round" stroke-width="1" fill="#ffffff">
<path d="M 92.442,125.698 C 91.294,130.698 90.423,135.907 89.743,141.418 L 89.751,141.42 L 97.079,143.67 C 99.537,134.559 104.648,129.267 111.728,121.679 C 106.15,117.203 104.273,115.252 100.827,113.241 C 98.229,115.513 94.984,120.407 92.442,125.698 Z" marker-start="none" marker-end="none"/>
<path d="M 111.728,121.679 C 118.808,129.267 123.919,134.559 126.377,143.67 L 133.704,141.42 L 133.712,141.418 C 133.032,135.907 132.161,130.698 131.013,125.698 C 128.471,120.407 125.226,115.513 122.629,113.241 C 119.183,115.252 117.306,117.203 111.728,121.679 Z" marker-start="none" marker-end="none"/>
</g>
<g id="Group_7" stroke-linejoin="miter" stroke-linecap="round" stroke="none" stroke-width="0.5" fill="#c70000">
<path d="M 108.852,111.331 L 105.653,114.53 L 111.728,120.605 L 117.804,114.53 L 114.604,111.331 L 108.852,111.331 Z" marker-start="none" marker-end="none"/>
<path d="M 106.802,92.506 L 106.803,92.51 L 108.929,110.252 L 114.527,110.252 L 116.652,92.511 L 116.653,92.507 C 115.139,90.202 113.501,87.893 111.728,85.568 C 109.954,87.893 108.316,90.202 106.802,92.506 Z" marker-start="none" marker-end="none"/>
</g>
<path d="M 111.728,85.607 C 94.964,117.476 97.5,136.455 96.124,143.82 C 85.976,140.826 78.401,138.844 72.537,136.142 C 58.897,129.855 54.13,119.509 47.607,77.818 C 55.267,72.437 63.632,67.995 72.537,64.655 L 72.537,64.674 C 84.732,60.1 97.94,57.58 111.728,57.58 C 125.516,57.58 138.724,60.1 150.919,64.674 L 150.919,64.655 C 159.824,67.995 168.189,72.437 175.849,77.818 C 169.326,119.509 164.559,129.855 150.919,136.142 C 145.055,138.844 137.48,140.826 127.332,143.82 C 125.956,136.455 128.492,117.476 111.728,85.607 Z" fill="#262162" stroke-linecap="round" stroke="none" stroke-width="0.5" stroke-linejoin="miter" marker-start="none" marker-end="none"/>
<g id="Group_8" stroke="none" stroke-width="0.5" fill="#ffffff">
<g id="Group_9" stroke-linejoin="miter" stroke-linecap="round">
<path d="M 149.919,64.348 L 149.919,136.588 C 150.257,136.441 150.591,136.293 150.919,136.142 L 150.919,64.674 C 150.586,64.549 150.252,64.425 149.919,64.304 L 149.919,64.348 Z" marker-start="none" marker-end="none"/>
<path d="M 72.537,64.674 L 72.537,136.142 C 72.864,136.293 73.198,136.441 73.536,136.588 L 73.537,64.348 L 73.536,64.304 C 73.202,64.426 72.869,64.549 72.537,64.674 Z" marker-start="none" marker-end="none"/>
<path d="M 80.745,61.953 L 80.746,62 L 80.745,139.245 C 81.075,139.352 81.408,139.458 81.745,139.565 L 81.746,61.675 L 81.745,61.669 C 81.411,61.762 81.078,61.857 80.745,61.953 Z" marker-start="none" marker-end="none"/>
<path d="M 141.709,61.674 L 141.709,139.565 C 142.046,139.459 142.379,139.352 142.709,139.246 L 142.709,62 L 142.709,61.952 C 142.376,61.856 142.043,61.762 141.709,61.669 L 141.709,61.674 Z" marker-start="none" marker-end="none"/>
<path d="M 89.454,59.813 L 89.455,59.841 L 89.454,141.874 C 89.785,141.97 90.118,142.067 90.454,142.165 L 90.455,59.635 L 90.454,59.615 C 90.121,59.68 89.787,59.746 89.454,59.813 Z" marker-start="none" marker-end="none"/>
<path d="M 133,59.634 L 133,142.165 C 133.336,142.067 133.669,141.971 134,141.875 L 134,59.841 L 134,59.813 C 133.666,59.746 133.333,59.679 133,59.615 L 133,59.634 Z" marker-start="none" marker-end="none"/>
<path d="M 98.163,58.4 L 98.164,58.426 L 98.164,123.847 C 98.439,122.231 98.767,120.529 99.163,118.74 L 99.164,58.312 L 99.163,58.283 C 98.829,58.321 98.496,58.36 98.163,58.4 Z" marker-start="none" marker-end="none"/>
<path d="M 124.291,58.312 L 124.291,118.735 C 124.687,120.525 125.016,122.229 125.291,123.847 L 125.291,58.426 L 125.291,58.4 C 124.958,58.36 124.624,58.321 124.291,58.283 L 124.291,58.312 Z" marker-start="none" marker-end="none"/>
<path d="M 106.872,57.684 L 106.873,57.69 L 106.872,95.64 C 107.195,94.908 107.528,94.169 107.872,93.42 L 107.873,57.667 L 107.872,57.645 C 107.539,57.657 107.205,57.67 106.872,57.684 Z" marker-start="none" marker-end="none"/>
<path d="M 115.582,57.667 L 115.582,93.418 C 115.926,94.167 116.26,94.907 116.582,95.639 L 116.582,57.69 L 116.582,57.684 C 116.248,57.67 115.915,57.657 115.582,57.645 L 115.582,57.667 Z" marker-start="none" marker-end="none"/>
</g>
<g id="Group_10" fill-rule="evenodd">
<path d="M 66.238,67.24 L 66.239,67.244 L 72.537,89.539 L 72.537,85.858 L 67.166,66.845 L 67.163,66.832 C 66.854,66.966 66.545,67.102 66.238,67.24 Z" marker-start="none" marker-end="none"/>
<path d="M 58.771,70.916 L 58.774,70.927 L 72.537,119.66 L 72.537,115.979 L 59.675,70.435 L 59.674,70.434 C 59.372,70.593 59.071,70.754 58.771,70.916 Z" marker-start="none" marker-end="none"/>
<path d="M 51.48,75.215 L 51.484,75.227 L 67.982,133.65 C 68.393,133.92 68.813,134.18 69.243,134.433 L 52.365,74.668 L 52.362,74.655 C 52.067,74.84 51.773,75.027 51.48,75.215 Z" marker-start="none" marker-end="none"/>
</g>
<g id="Group_11" fill-rule="evenodd">
<path d="M 156.288,66.844 L 150.919,85.855 L 150.919,89.535 L 157.215,67.243 L 157.216,67.239 C 156.909,67.102 156.601,66.966 156.292,66.831 L 156.288,66.844 Z" marker-start="none" marker-end="none"/>
<path d="M 163.779,70.435 L 150.919,115.975 L 150.919,119.656 L 164.68,70.926 L 164.683,70.915 C 164.383,70.753 164.082,70.593 163.78,70.433 L 163.779,70.435 Z" marker-start="none" marker-end="none"/>
<path d="M 171.089,74.668 L 154.211,134.433 C 154.642,134.18 155.062,133.92 155.472,133.65 L 171.971,75.227 L 171.974,75.215 C 171.681,75.027 171.387,74.84 171.093,74.655 L 171.089,74.668 Z" marker-start="none" marker-end="none"/>
</g>
</g>
<g id="Group_12" stroke-linejoin="miter" stroke-linecap="round" stroke="none" stroke-width="0.5">
<path d="M 124.015,89.33 L 133.765,102.53 L 142.615,95.18 L 124.015,89.33 Z" fill="#ffffff" marker-start="none" marker-end="none"/>
<path d="M 121.235,90.307 L 121.235,82.208 L 146.134,90.159 L 146.134,98.258 L 121.235,90.307 Z" fill="#3e3898" marker-start="none" marker-end="none"/>
</g>
</g>
<g id="Group_13" stroke-linejoin="miter" stroke-linecap="round" stroke="none" stroke-width="0.5" fill="#191919">
<path d="M 80.753,227.287 L 89.873,246.247 C 92.623,252.306 100.937,253.919 106.709,252.451 C 109.385,251.77 110.282,251.737 111.728,251.703 C 113.174,251.737 114.071,251.77 116.747,252.451 C 122.519,253.919 130.833,252.306 133.583,246.247 L 142.703,227.287 C 121.931,221.357 101.282,221.392 80.753,227.287 Z" marker-start="none" marker-end="none"/>
<path d="M 111.728,225.826 C 103.187,225.826 94.681,226.425 87.089,227.564 C 74.233,229.492 64.402,233.581 64.402,230.564 C 64.402,225.765 77.339,214.111 111.728,214.111 C 146.117,214.111 159.054,225.765 159.054,230.564 C 159.054,233.581 149.223,229.492 136.367,227.564 C 128.775,226.425 120.269,225.826 111.728,225.826 Z" marker-start="none" marker-end="none"/>
</g>
</g>
</svg>
