<svg id="svg-function-biologist" xmlns="http://www.w3.org/2000/svg" viewBox="0 0 313 840">
<style>
:root{
--000000:#000000; --0000ff:#0000ff; --0000FF:#0000FF; --0003ff:#0003ff; --005001:#005001; --007f7f:#007f7f; --007fb2:#007fb2; --00ffff:#00ffff; --07a1e1:#07a1e1; --0b87a3:#0b87a3; --0bda9b:#0bda9b; --1275ac:#1275ac; --191919:#191919; --1b88cd:#1b88cd; --262162:#262162; --2a794a:#2a794a; --2b7a4a:#2b7a4a; --2f9f4b:#2f9f4b; --32935d:#32935d; --333333:#333333; --33945e:#33945e; --3ba7e5:#3ba7e5; --3e3898:#3e3898; --4151a6:#4151a6; --550a1e:#550a1e; --6baf40:#6baf40; --6caf42:#6caf42; --6db5a7:#6db5a7; --6fa08b:#6fa08b; --74b341:#74b341; --763517:#763517; --7d420a:#7d420a; --7eba98:#7eba98; --7f0000:#7f0000; --7f142e:#7f142e; --7f4100:#7f4100; --83c803:#83c803; --87331b:#87331b; --8abc43:#8abc43; --8e1421:#8e1421; --92c4cb:#92c4cb; --971328:#971328; --a4a4a4:#a4a4a4; --a71520:#a71520; --a9c937:#a9c937; --b51d34:#b51d34; --b69d7e:#b69d7e; --b9b9b9:#b9b9b9; --bbc871:#bbc871; --bf6200:#bf6200; --c2dbce:#c2dbce; --c41622:#c41622; --c51431:#c51431; --c52433:#c52433; --c5ae8c:#c5ae8c; --c70000:#c70000; --cb5b2d:#cb5b2d; --ced146:#ced146; --d2b373:#d2b373; --d5bd97:#d5bd97; --dba171:#dba171; --dcaa7d:#dcaa7d; --ddcaa9:#ddcaa9; --dedede:#dedede; --dfe0e2:#dfe0e2; --e1ffad:#e1ffad; --e4b992:#e4b992; --e5e5e5:#E5E5E5; --e6e7e9:#e6e7e9; --e9ebeb:#e9ebeb; --ecf4f7:#ecf4f7; --ededed:#ededed; --edeef0:#edeef0; --efd520:#efd520; --f1c9a5:#f1c9a5; --f3f4a8:#f3f4a8; --f4f044:#f4f044; --f5e43c:#f5e43c; --FF69B4:#FF69B4; --ff69b4:#ff69b4; --ffd700:#ffd700; --fff:#fff; --fffe7f:#fffe7f; --ffffff:#ffffff; --none:none;
}

.bio-st1,.bio-st2,.bio-st3,.bio-st4,.bio-st5,.bio-st6,.bio-st7,.bio-st8{fill:var(--a9c937);stroke:none;stroke-linecap:butt;stroke-width:2.25;}.bio-st2,.bio-st3,.bio-st4,.bio-st5,.bio-st6,.bio-st7,.bio-st8{fill:var(--1b88cd);}.bio-st3,.bio-st4,.bio-st5,.bio-st6,.bio-st7,.bio-st8{fill:var(--efd520);}.bio-st4,.bio-st5,.bio-st6,.bio-st7,.bio-st8{fill:var(--1275ac);}.bio-st5,.bio-st6,.bio-st7,.bio-st8{fill:var(--a71520);}.bio-st6,.bio-st7,.bio-st8{fill:var(--c52433);}.bio-st7,.bio-st8{fill:var(--3ba7e5);}.bio-st8{fill:var(--c41622);}
</style>
<g id="bio-13" transform="translate(0 -2.253)">

<g id="bio-14" transform="translate(149.865 -561.342)"><path class="bio-st1" d="M15.81 817.98h118c6.49 0 11.71 4.97 11.71 11.13 0 6.17-5.22 11.13-11.71 11.13H0c0-4.57.56-11.13 7.56-11.13 6.86 0 8.25-6.45 8.25-11.13Z"/></g>
<g id="bio-15" transform="translate(15.702 -599.891)"><path class="bio-st2" d="M134.16 840.24H11.71C5.22 840.24 0 835.28 0 829.11c0-6.16 5.22-11.13 11.71-11.13h138.26c0 4.58-.56 11.13-7.56 11.13-6.87 0-8.25 6.45-8.25 11.13Z"/></g>
<g id="bio-16" transform="translate(64.647 -638.436)"><path class="bio-st3" d="M85.21 840.24h-73.5C5.22 840.24 0 835.28 0 829.11c0-6.16 5.22-11.13 11.71-11.13h89.31c0 4.58-.56 11.13-7.56 11.13-6.86 0-8.25 6.45-8.25 11.13Z"/></g>
<g id="bio-17" transform="translate(149.865 -522.797)"><path class="bio-st3" d="M15.81 817.98h73.51c6.48 0 11.7 4.97 11.7 11.13 0 6.17-5.22 11.13-11.7 11.13H0c0-4.57.56-11.13 7.56-11.13 6.86 0 8.25-6.45 8.25-11.13Z"/></g>
<g id="bio-18" transform="translate(149.865 -369.022)"><path class="bio-st1" d="M15.81 817.98h118c6.49 0 11.71 4.97 11.71 11.13 0 6.17-5.22 11.13-11.71 11.13H0c0-4.57.56-11.13 7.56-11.13 6.86 0 8.25-6.45 8.25-11.13Z"/></g>
<g id="bio-19" transform="translate(15.702 -407.57)"><path class="bio-st2" d="M134.16 840.24H11.71C5.22 840.24 0 835.28 0 829.11c0-6.16 5.22-11.13 11.71-11.13h138.26c0 4.58-.56 11.13-7.56 11.13-6.87 0-8.25 6.45-8.25 11.13Z"/></g>
<g id="bio-20" transform="translate(64.647 -446.115)"><path class="bio-st3" d="M85.21 840.24h-73.5C5.22 840.24 0 835.28 0 829.11c0-6.16 5.22-11.13 11.71-11.13h89.31c0 4.58-.56 11.13-7.56 11.13-6.86 0-8.25 6.45-8.25 11.13Z"/></g>
<g id="bio-21" transform="translate(149.865 -330.476)"><path class="bio-st3" d="M15.81 817.98h73.51c6.48 0 11.7 4.97 11.7 11.13 0 6.17-5.22 11.13-11.7 11.13H0c0-4.57.56-11.13 7.56-11.13 6.86 0 8.25-6.45 8.25-11.13Z"/></g>
<g id="bio-22" transform="translate(149.865 -176.701)"><path class="bio-st1" d="M15.81 817.98h118c6.49 0 11.71 4.97 11.71 11.13 0 6.17-5.22 11.13-11.71 11.13H0c0-4.57.56-11.13 7.56-11.13 6.86 0 8.25-6.45 8.25-11.13Z"/></g>
<g id="bio-23" transform="translate(15.702 -215.249)"><path class="bio-st2" d="M134.16 840.24H11.71C5.22 840.24 0 835.28 0 829.11c0-6.16 5.22-11.13 11.71-11.13h138.26c0 4.58-.56 11.13-7.56 11.13-6.87 0-8.25 6.45-8.25 11.13Z"/></g>
<g id="bio-24" transform="translate(64.647 -253.795)"><path class="bio-st3" d="M85.21 840.24h-73.5C5.22 840.24 0 835.28 0 829.11c0-6.16 5.22-11.13 11.71-11.13h89.31c0 4.58-.56 11.13-7.56 11.13-6.86 0-8.25 6.45-8.25 11.13Z"/></g>
<g id="bio-25" transform="translate(149.865 -138.156)"><path class="bio-st3" d="M15.81 817.98h73.51c6.48 0 11.7 4.97 11.7 11.13 0 6.17-5.22 11.13-11.7 11.13H0c0-4.57.56-11.13 7.56-11.13 6.86 0 8.25-6.45 8.25-11.13Z"/></g>
<g id="bio-26" transform="translate(15.702 -22.929)"><path class="bio-st2" d="M134.16 840.24H11.71C5.22 840.24 0 835.28 0 829.11c0-6.16 5.22-11.13 11.71-11.13h138.26c0 4.58-.56 11.13-7.56 11.13-6.87 0-8.25 6.45-8.25 11.13Z"/></g>
<g id="bio-27" transform="translate(64.647 -61.474)"><path class="bio-st3" d="M85.21 840.24h-73.5C5.22 840.24 0 835.28 0 829.11c0-6.16 5.22-11.13 11.71-11.13h89.31c0 4.58-.56 11.13-7.56 11.13-6.86 0-8.25 6.45-8.25 11.13Z"/></g>
<g id="bio-28" transform="translate(149.865 -752.874)"><path class="bio-st1" d="M15.81 817.98h118c6.49 0 11.71 4.97 11.71 11.13 0 6.17-5.22 11.13-11.71 11.13H0c0-4.57.56-11.13 7.56-11.13 6.86 0 8.25-6.45 8.25-11.13Z"/></g>
<g id="bio-29" transform="translate(15.702 -791.423)"><path class="bio-st2" d="M134.16 840.24H11.71C5.22 840.24 0 835.28 0 829.11c0-6.16 5.22-11.13 11.71-11.13h138.26c0 4.58-.56 11.13-7.56 11.13-6.87 0-8.25 6.45-8.25 11.13Z"/></g>
<g id="bio-30" transform="translate(20.152 -752.878)"><path class="bio-st3" d="M129.71 840.24h-118C5.22 840.24 0 835.28 0 829.11c0-6.16 5.22-11.13 11.71-11.13h133.81c0 4.58-.56 11.13-7.56 11.13-6.87 0-8.25 6.45-8.25 11.13Z"/></g>
<g id="bio-31" transform="translate(64.647 -714.332)"><path class="bio-st1" d="M85.21 840.24h-73.5C5.22 840.24 0 835.28 0 829.11c0-6.16 5.22-11.13 11.71-11.13h89.31c0 4.58-.56 11.13-7.56 11.13-6.86 0-8.25 6.45-8.25 11.13Z"/></g>
<g id="bio-32" transform="translate(149.865 -714.329)"><path class="bio-st3" d="M15.81 817.98h73.51c6.48 0 11.7 4.97 11.7 11.13 0 6.17-5.22 11.13-11.7 11.13H0c0-4.57.56-11.13 7.56-11.13 6.86 0 8.25-6.45 8.25-11.13Z"/></g>
<g id="bio-33" transform="translate(0 -21.737)"><path class="bio-st4" d="M309.2 815.62c0-55.78-205.01-96.49-286.67-168.55C8.64 656.6 0 670.26 8.23 684.52c36.57 62.35 176.91 71.09 283.42 155.72 10.58-8.3 17.54-18.55 17.54-24.62h.01Z"/></g>
<g id="bio-34" transform="translate(.653 -391.623)"><path class="bio-st4" d="M309.2 815.62c0-55.78-205.01-96.49-286.67-168.55C8.64 656.6 0 670.26 8.23 684.52c36.57 62.35 176.91 71.09 283.42 155.72 10.58-8.3 17.54-18.55 17.54-24.62h.01Z"/></g>
<g id="bio-35" transform="translate(0 -202.501)"><path class="bio-st5" d="M309.2 815.62c0-55.78-205.01-96.49-286.67-168.55C8.64 656.6 0 670.26 8.23 684.52c36.57 62.35 176.91 71.09 283.42 155.72 10.58-8.3 17.54-18.55 17.54-24.62h.01Z"/></g>
<g id="bio-36" transform="translate(3.496)"><path class="bio-st5" d="M59.14 840.07c-15.29-8.95-29.07-18.39-40.45-28.44C7.7 819.17 0 829.29 1.33 840.24l57.81-.17Z"/></g>
<g id="bio-37" transform="translate(4.578 -2.586)"><path class="bio-st6" d="M0 840.24v-55.03c66.83-83.36 250.31-98.06 305.28-177.84v52.76C253.22 740.64 55.19 760.02 0 840.24Z"/></g>
<g id="bio-38" transform="translate(1.104 -578.672)"><path class="bio-st5" d="M309.2 815.62c0-55.78-205.01-96.49-286.67-168.55C8.64 656.6 0 670.26 8.23 684.52c36.57 62.35 176.91 71.09 283.42 155.72 10.58-8.3 17.55-18.55 17.55-24.62Z"/></g>
<g id="bio-39" transform="translate(168.252 -766.195)"><path class="bio-st4" d="M142.41 815.62c0-15.83-16.52-30.45-42.04-44.92L0 771.03C41.62 788.1 85.55 809 124.87 840.24c10.58-8.3 17.54-18.55 17.54-24.62Z"/></g>
<g id="bio-40" transform="translate(5.682 -559.521)"><path class="bio-st7" d="M0 840.24v-55.03c66.83-83.36 250.31-98.06 305.28-177.84v52.76C253.22 740.64 55.19 760.02 0 840.24Z"/></g>
<g id="bio-41" transform="translate(5.208 -372.494)"><path class="bio-st6" d="M0 840.24v-55.03c66.83-83.36 250.31-98.06 305.28-177.84v52.76C253.22 740.64 55.19 760.02 0 840.24Z"/></g>
<g id="bio-42" transform="translate(4.578 -183.373)"><path class="bio-st7" d="M0 840.24v-55.03c66.83-83.36 250.31-98.06 305.28-177.84v52.76C253.22 740.64 55.19 760.02 0 840.24Z"/></g>
<g id="bio-43" transform="translate(249.095 -.086)"><path class="bio-st7" d="M0 840.22c25.44-13.74 46.75-29.44 60.28-49.07v49.09L0 840.22Z"/></g>
<g id="bio-44" transform="translate(6.04 -747.043)"><path class="bio-st6" d="M0 840.24v-55.03c10.04-12.51 22.7-23.48 37.16-33.35l112.93-.09C88.41 776.22 27.05 800.92 0 840.24Z"/></g>
<g id="bio-45" transform="translate(20.152 -561.345)"><path class="bio-st3" d="M129.71 840.24h-118C5.22 840.24 0 835.28 0 829.11c0-6.16 5.22-11.13 11.71-11.13h133.81c0 4.58-.56 11.13-7.56 11.13-6.87 0-8.25 6.45-8.25 11.13Z"/></g>
<g id="bio-46" transform="translate(64.647 -522.8)"><path class="bio-st1" d="M85.21 840.24h-73.5C5.22 840.24 0 835.28 0 829.11c0-6.16 5.22-11.13 11.71-11.13h89.31c0 4.58-.56 11.13-7.56 11.13-6.86 0-8.25 6.45-8.25 11.13Z"/></g>
<g id="bio-47" transform="translate(20.152 -369.025)"><path class="bio-st3" d="M129.71 840.24h-118C5.22 840.24 0 835.28 0 829.11c0-6.16 5.22-11.13 11.71-11.13h133.81c0 4.58-.56 11.13-7.56 11.13-6.87 0-8.25 6.45-8.25 11.13Z"/></g>
<g id="bio-48" transform="translate(64.647 -330.48)"><path class="bio-st1" d="M85.21 840.24h-73.5C5.22 840.24 0 835.28 0 829.11c0-6.16 5.22-11.13 11.71-11.13h89.31c0 4.58-.56 11.13-7.56 11.13-6.86 0-8.25 6.45-8.25 11.13Z"/></g>
<g id="bio-49" transform="translate(20.152 -176.704)"><path class="bio-st3" d="M129.71 840.24h-118C5.22 840.24 0 835.28 0 829.11c0-6.16 5.22-11.13 11.71-11.13h133.81c0 4.58-.56 11.13-7.56 11.13-6.87 0-8.25 6.45-8.25 11.13Z"/></g>
<g id="bio-50" transform="translate(64.647 -138.159)"><path class="bio-st1" d="M85.21 840.24h-73.5C5.22 840.24 0 835.28 0 829.11c0-6.16 5.22-11.13 11.71-11.13h89.31c0 4.58-.56 11.13-7.56 11.13-6.86 0-8.25 6.45-8.25 11.13Z"/></g>
<g id="bio-51" transform="translate(149.865 -61.471)"><path class="bio-st2" d="M15.81 817.98h73.51c6.48 0 11.7 4.97 11.7 11.13 0 6.17-5.22 11.13-11.7 11.13H0c0-4.57.56-11.13 7.56-11.13 6.86 0 8.25-6.45 8.25-11.13Z"/></g>
<g id="bio-52" transform="translate(149.865 -253.792)"><path class="bio-st2" d="M15.81 817.98h73.51c6.48 0 11.7 4.97 11.7 11.13 0 6.17-5.22 11.13-11.7 11.13H0c0-4.57.56-11.13 7.56-11.13 6.86 0 8.25-6.45 8.25-11.13Z"/></g>
<g id="bio-53" transform="translate(149.865 -446.112)"><path class="bio-st2" d="M15.81 817.98h73.51c6.48 0 11.7 4.97 11.7 11.13 0 6.17-5.22 11.13-11.7 11.13H0c0-4.57.56-11.13 7.56-11.13 6.86 0 8.25-6.45 8.25-11.13Z"/></g>
<g id="bio-54" transform="translate(149.865 -638.433)"><path class="bio-st2" d="M15.81 817.98h73.51c6.48 0 11.7 4.97 11.7 11.13 0 6.17-5.22 11.13-11.7 11.13H0c0-4.57.56-11.13 7.56-11.13 6.86 0 8.25-6.45 8.25-11.13Z"/></g>
<g id="bio-55" transform="translate(149.865 -791.42)"><path class="bio-st8" d="M15.81 817.98h122.45c6.49 0 11.71 4.97 11.71 11.13 0 6.17-5.22 11.13-11.71 11.13H0c0-4.57.56-11.13 7.56-11.13 6.86 0 8.25-6.45 8.25-11.13Z"/></g>
<g id="bio-56" transform="translate(149.865 -599.887)"><path class="bio-st8" d="M15.81 817.98h122.45c6.49 0 11.71 4.97 11.71 11.13 0 6.17-5.22 11.13-11.71 11.13H0c0-4.57.56-11.13 7.56-11.13 6.86 0 8.25-6.45 8.25-11.13Z"/></g>
<g id="bio-57" transform="translate(149.865 -407.567)"><path class="bio-st8" d="M15.81 817.98h122.45c6.49 0 11.71 4.97 11.71 11.13 0 6.17-5.22 11.13-11.71 11.13H0c0-4.57.56-11.13 7.56-11.13 6.86 0 8.25-6.45 8.25-11.13Z"/></g>
<g id="bio-58" transform="translate(149.865 -215.246)"><path class="bio-st8" d="M15.81 817.98h122.45c6.49 0 11.71 4.97 11.71 11.13 0 6.17-5.22 11.13-11.71 11.13H0c0-4.57.56-11.13 7.56-11.13 6.86 0 8.25-6.45 8.25-11.13Z"/></g>
<g id="bio-59" transform="translate(149.865 -22.926)"><path class="bio-st8" d="M15.81 817.98h122.45c6.49 0 11.71 4.97 11.71 11.13 0 6.17-5.22 11.13-11.71 11.13H0c0-4.57.56-11.13 7.56-11.13 6.86 0 8.25-6.45 8.25-11.13Z"/></g>
</g>
</svg>