<svg id="svg-persona-biologist" version="1.1" viewBox="0 -305.637 223.456 305.637" stroke-width="0.5" overflow="visible" xmlns="http://www.w3.org/2000/svg" xmlns:svg="http://www.w3.org/2000/svg">
<style>
:root {
	--f1c9a5:#f1c9a5;
	--e4b992:#e4b992;
	--ffffff:#ffffff;
	--000000:#000000;
	--333333:#333333;
	--dcaa7d:#dcaa7d;
	--00ffff:#00ffff;
}
</style>
<g transform="matrix(1.4351613,0,0,-1.4351613,-48.641004,71.82641)" id="g52" ><svg id="face" version="1.1" width="100%" height="100%" ><svg id="face-left" version="1.1" width="100%" height="100%" ><path fill="var(--f1c9a5)" marker-start="none" marker-end="none" d="m 111.728,57.58 c 23.93,0 46.11,7.535 64.295,20.36 -4.744,31.415 -8.026,45.492 -17.846,53.703 -5.439,4.625 -12.845,6.934 -23.804,10.124 -2.852,0.829 -7.662,2.215 -10.096,2.743 l 0.001,13.393 c 7.776,4.318 13.724,12.529 16.129,22.54 4.637,0.278 6.676,1.715 8.689,5.071 1.58,2.634 2.858,7.028 1.658,10.286 -1.072,2.911 -3.732,6.032 -7.091,6.032 -0.864,0 -1.704,-0.194 -2.48,-0.544 -2.301,16.998 -14.662,29.988 -29.455,29.988 -14.793,0 -27.154,-12.99 -29.455,-29.988 -0.776,0.35 -1.616,0.544 -2.48,0.544 -3.359,0 -6.019,-3.121 -7.091,-6.032 -1.2,-3.258 0.078,-7.652 1.658,-10.286 2.013,-3.356 4.052,-4.793 8.689,-5.071 2.405,-10.011 8.353,-18.222 16.129,-22.54 L 99.179,144.51 C 96.745,143.982 91.935,142.596 89.083,141.767 78.124,138.577 70.718,136.268 65.279,131.643 55.459,123.432 52.177,109.355 47.433,77.94 65.618,65.115 87.798,57.58 111.728,57.58 Z" id="path4" /></svg><svg id="face-right" version="1.1" width="100%" height="100%" ><path fill="var(--e4b992)" marker-start="none" marker-end="none" d="m 111.728,57.58 c 23.93,0 46.11,7.535 64.295,20.36 -4.744,31.415 -8.026,45.492 -17.846,53.703 -5.439,4.625 -12.845,6.934 -23.804,10.124 -2.852,0.829 -7.662,2.215 -10.096,2.743 l 0.001,13.393 c 7.776,4.318 13.724,12.529 16.129,22.54 4.637,0.278 6.676,1.715 8.689,5.071 1.58,2.634 2.858,7.028 1.658,10.286 -1.072,2.911 -3.732,6.032 -7.091,6.032 -0.864,0 -1.704,-0.194 -2.48,-0.544 -2.301,16.998 -14.662,29.988 -29.455,29.988 z" id="path7" /></svg></svg><svg id="female-hair-full" version="1.1" width="100%" height="100%" ><path fill="var(--000000)" marker-start="none" marker-end="none" stroke="none" stroke-linejoin="miter" stroke-linecap="round" stroke-width="0.348393" d="m 63.464,184.787 c -0.897,3.012 1.795,6.225 1.5,9.375 -0.154,1.653 -1.423,3.049 -1.687,4.688 -0.399,2.468 0.272,5.001 0.187,7.5 -0.32,9.41 -6.512,20.669 -2.625,28.125 4.678,8.974 11.3,6.606 19.313,10.875 8.842,4.711 17.723,11.761 27.75,11.625 5.621,-0.076 10.891,-2.221 15.374,-6.938 4.858,2.49 11.778,3.168 16.82,0.706 5.256,-2.566 6.33,-9.895 10.2,-14.28 3.24,-3.671 8.606,-5.582 10.8,-9.96 2.935,-5.857 3.362,-15.769 -0.826,-19.649 3.836,-8.842 2.084,-15.168 -2.1,-20.4 3.192,-16.203 -13.007,-21.992 -31.106,-26.76 6.106,5.504 10.257,11.632 13.175,18.809 1.612,3.965 2.707,6.628 2.707,11.999 0,3.995 -1.835,6.819 -2.335,9.253 -1.85,8.998 -4.141,9.669 -10.535,11.889 -8.64,3 -13.484,7.824 -13.447,13.571 -0.037,4.781 -1.142,3.311 -4.901,5.983 -3.759,-2.672 -4.864,-1.202 -4.901,-5.983 0.037,-5.747 -1.832,-7.527 -10.472,-10.527 -6.394,-2.22 -11.66,-5.935 -13.51,-14.933 -0.5,-2.434 -2.335,-5.258 -2.335,-9.253 0,-5.371 3.044,-9.808 6.999,-14.131 -1.443,0.486 -2.874,1.223 -4.292,2.132 2.336,-6.616 6.909,-13.164 13.213,-18.839 C 81.29,165 66.571,174.352 63.464,184.787 Z" id="path11" /></svg><svg id="female-clothing-blouse" version="1.1" width="100%" height="100%" ><path fill="var(--ffffff)" marker-start="none" marker-end="none" stroke-linejoin="miter" stroke-linecap="round" d="m 47.433,77.94 c 7.81,51.709 12.193,56.141 47.064,65.455 3.188,-12.067 9.132,-33.631 17.231,-38.574 8.099,4.943 14.043,26.507 17.231,38.574 34.87,-9.314 39.253,-13.746 47.063,-65.455 -18.185,-12.825 -40.365,-20.36 -64.294,-20.36 -23.93,0 -46.11,7.535 -64.295,20.36 z" stroke="var(--000000)" stroke-width="0.348393" id="path14" /></svg><svg id="female-accessory-glasses" version="1.1" width="100%" height="100%" ><svg id="female-accessory-glasses-frames" version="1.1" width="100%" height="100%" ><path fill="var(--333333)" marker-start="none" marker-end="none" stroke-linejoin="miter" stroke-linecap="round" d="m 136.765,202.473 5.817,2.695 0.841,-1.815 -5.916,-2.743 c 0.32,-1.062 0.493,-2.189 0.493,-3.354 0,-6.421 -5.21,-11.63 -11.63,-11.63 -6.284,0 -11.406,4.987 -11.623,11.217 -1.953,1.024 -3.965,1.008 -6.04,-0.037 -0.236,-6.213 -5.351,-11.18 -11.621,-11.18 -6.42,0 -11.63,5.209 -11.63,11.63 0,1.165 0.172,2.292 0.434,3.354 l -5.857,2.743 0.841,1.815 5.817,-2.695 c 1.913,3.802 5.851,6.413 10.395,6.413 5.988,0 10.922,-4.532 11.56,-10.35 2.178,1.062 4.228,1.019 6.166,0.023 0.649,5.807 5.577,10.327 11.558,10.327 4.544,0 8.482,-2.611 10.395,-6.413 z m -30.049,-5.217 c 0,5.315 -4.314,9.63 -9.63,9.63 -5.315,0 -9.63,-4.315 -9.63,-9.63 0,-5.316 4.315,-9.63 9.63,-9.63 5.316,0 9.63,4.314 9.63,9.63 z m 29.284,0 c 0,5.315 -4.315,9.63 -9.63,9.63 -5.316,0 -9.63,-4.315 -9.63,-9.63 0,-5.316 4.314,-9.63 9.63,-9.63 5.315,0 9.63,4.314 9.63,9.63 z" stroke="var(--000000)" stroke-width="0" id="path17" /></svg><svg id="female-accessory-glasses-lenses" version="1.1" width="100%" height="100%" ><g id="tmp-37" ><path fill="var(--dcaa7d)" marker-start="none" marker-end="none" stroke-width="0" d="m 106.716,197.256 c 0,5.315 -4.314,9.63 -9.63,9.63 -5.315,0 -9.63,-4.315 -9.63,-9.63 0,-5.316 4.315,-9.63 9.63,-9.63 5.316,0 9.63,4.314 9.63,9.63 z" id="path20" /></g><g id="tmp-40" ><path fill="var(--dcaa7d)" marker-start="none" marker-end="none" stroke-width="0" d="m 136,197.256 c 0,5.315 -4.315,9.63 -9.63,9.63 -5.316,0 -9.63,-4.315 -9.63,-9.63 0,-5.316 4.314,-9.63 9.63,-9.63 5.315,0 9.63,4.314 9.63,9.63 z" id="path23" /></g></svg></svg><svg id="female-accessory-necklace-pearls" version="1.1" width="100%" height="100%" ><g id="tmp-46" fill="var(--00ffff)" stroke="none" stroke-linejoin="miter" stroke-linecap="round" stroke-width="0.317734"><path marker-start="none" marker-end="none" d="m 136.044,137.736 c -1.32,-0.999 -3.203,-0.74 -4.203,0.579 -0.999,1.32 -0.74,3.203 0.579,4.203 1.32,0.999 3.203,0.74 4.203,-0.579 0.999,-1.32 0.74,-3.203 -0.579,-4.203 z" id="path28" /><path marker-start="none" marker-end="none" d="m 133.087,131.751 c -1.433,-0.827 -3.27,-0.336 -4.098,1.098 -0.827,1.433 -0.336,3.27 1.098,4.098 1.433,0.827 3.27,0.336 4.098,-1.098 0.827,-1.433 0.336,-3.27 -1.098,-4.098 z" id="path30" /><path marker-start="none" marker-end="none" d="m 129.111,126.235 c -1.555,-0.567 -3.279,0.235 -3.846,1.79 -0.567,1.555 0.235,3.279 1.79,3.846 1.555,0.567 3.279,-0.235 3.846,-1.79 0.567,-1.555 -0.235,-3.279 -1.79,-3.846 z" id="path32" /><path marker-start="none" marker-end="none" d="m 123.912,121.6 c -1.645,-0.182 -3.13,1.005 -3.313,2.651 -0.182,1.645 1.005,3.13 2.651,3.313 1.645,0.182 3.13,-1.005 3.313,-2.651 0.182,-1.645 -1.005,-3.13 -2.651,-3.313 z" id="path34" /><path marker-start="none" marker-end="none" d="m 117.432,118.529 c -1.617,0.351 -2.646,1.95 -2.296,3.568 0.351,1.617 1.95,2.646 3.568,2.296 1.617,-0.351 2.646,-1.95 2.296,-3.568 -0.351,-1.617 -1.95,-2.646 -3.568,-2.296 z" id="path36" /><path marker-start="none" marker-end="none" d="m 110.327,117.719 c -1.426,0.84 -1.903,2.681 -1.063,4.107 0.84,1.426 2.681,1.903 4.107,1.063 1.426,-0.84 1.903,-2.681 1.063,-4.107 -0.84,-1.426 -2.681,-1.903 -4.107,-1.063 z" id="path38" /><path marker-start="none" marker-end="none" d="m 103.287,119.489 c -1.042,1.285 -0.846,3.176 0.44,4.22 1.285,1.042 3.176,0.846 4.22,-0.44 1.042,-1.285 0.846,-3.176 -0.44,-4.22 -1.285,-1.042 -3.176,-0.846 -4.22,0.44 z" id="path40" /><path marker-start="none" marker-end="none" d="m 97.275,123.335 c -0.605,1.54 0.154,3.283 1.695,3.889 1.54,0.605 3.283,-0.154 3.889,-1.695 0.605,-1.54 -0.154,-3.283 -1.695,-3.889 -1.54,-0.605 -3.283,0.154 -3.889,1.695 z" id="path42" /><path marker-start="none" marker-end="none" d="m 92.553,128.451 c -0.226,1.64 0.922,3.155 2.562,3.382 1.64,0.226 3.155,-0.922 3.382,-2.562 0.226,-1.64 -0.922,-3.155 -2.562,-3.382 -1.64,-0.226 -3.155,0.922 -3.382,2.562 z" id="path44" /><path marker-start="none" marker-end="none" d="m 88.987,134.258 c 0.069,1.653 1.468,2.941 3.122,2.872 1.653,-0.069 2.941,-1.468 2.872,-3.122 -0.069,-1.653 -1.468,-2.941 -3.122,-2.872 -1.653,0.069 -2.941,1.468 -2.872,3.122 z" id="path46" /><path marker-start="none" marker-end="none" d="m 86.362,140.442 c 0.301,1.627 1.867,2.706 3.495,2.405 1.627,-0.301 2.706,-1.867 2.405,-3.495 -0.301,-1.627 -1.867,-2.706 -3.495,-2.405 -1.627,0.301 -2.706,1.867 -2.405,3.495 z" id="path48" /></g></svg></g></svg>