<svg xmlns="http://www.w3.org/2000/svg" viewBox="0 0 577 573" color-interpolation-filters="sRGB" fill="none" fill-rule="evenodd" font-size="12" overflow="visible" stroke-linecap="square" stroke-miterlimit="3"><style>.st2{fill:#fff;stroke:none;stroke-linecap:butt;stroke-width:3.00427}</style><g id="group23-1" transform="translate(.36 -.36)"><g id="shape2-2"><path fill="#035e7b" stroke="#000" stroke-linecap="round" stroke-linejoin="round" stroke-width=".72" d="M0 .72h576v572.516H0z"/></g><g id="shape3-4" transform="translate(197.35 -463.3)"><path d="M10.91 487.04s78.41 9.02 64.14 86.2c.06 0-75.05-3.88-64.14-86.2z" class="st2"/></g><g id="shape4-6" transform="translate(281.56 -462.549)"><path d="M78.44 487.04S0 496.06 14.27 573.24c0 0 75.2-3.88 64.17-86.2z" class="st2"/></g><g id="shape5-8" transform="translate(197.35 -376.327)"><path d="M10.91 487.01s78.41 9.02 64.14 86.23c.06 0-75.05-3.91-64.14-86.23z" class="st2"/></g><g id="shape6-10" transform="translate(281.56 -375.576)"><path d="M78.44 487.04S0 496.06 14.27 573.24c0 0 75.2-3.91 64.17-86.2z" class="st2"/></g><g id="shape7-12" transform="translate(197.35 -19.54)"><path d="M10.91 573.24s78.41-9.02 64.14-86.23c.06 0-75.05 3.91-64.14 86.23z" class="st2"/></g><g id="shape8-14" transform="translate(281.56 -20.32)"><path d="M78.44 573.24S0 564.22 14.27 487.04c0 0 75.2 3.91 64.17 86.2z" class="st2"/></g><g id="shape9-16" transform="translate(197.35 -106.513)"><path d="M10.91 573.24s78.41-9.02 64.14-86.2c.06 0-75.05 3.88-64.14 86.2z" class="st2"/></g><g id="shape10-18" transform="translate(281.56 -107.264)"><path d="M78.44 573.24S0 564.22 14.27 487.04c0 0 75.2 3.88 64.17 86.2z" class="st2"/></g><g id="shape11-20" transform="translate(462.807 -197.633)"><path d="M86.19 562.21S77.18 483.8 0 498.07c0 0 3.88 75.17 86.19 64.14z" class="st2"/></g><g id="shape12-22" transform="translate(462.056 -281.962)"><path d="M86.19 494.79S77.18 573.24 0 558.97c0 .12 3.88-75.17 86.19-64.18z" class="st2"/></g><g id="shape13-24" transform="translate(375.864 -197.633)"><path d="M86.19 562.21S77.18 483.8 0 498.07c0 0 3.88 75.17 86.19 64.14z" class="st2"/></g><g id="shape14-26" transform="translate(375.083 -281.962)"><path d="M86.22 494.79S77.21 573.24 0 558.97c0 .12 3.91-75.17 86.22-64.18z" class="st2"/></g><g id="shape15-28" transform="translate(19.077 -197.633)"><path d="M0 562.21s9.01-78.41 86.19-64.14c0 0-3.87 75.17-86.19 64.14z" class="st2"/></g><g id="shape16-30" transform="translate(19.828 -281.962)"><path d="M0 494.79s9.01 78.45 86.22 64.18c0 .12-3.9-75.17-86.22-64.18z" class="st2"/></g><g id="shape17-32" transform="translate(106.05 -197.633)"><path d="M0 562.21s9.01-78.41 86.19-64.14c0 0-3.9 75.17-86.19 64.14z" class="st2"/></g><g id="shape18-34" transform="translate(106.801 -281.962)"><path d="M0 494.79s9.01 78.45 86.19 64.18c0 .12-3.87-75.17-86.19-64.18z" class="st2"/></g><g id="shape19-36" transform="translate(303.939 -304.291)"><path d="M71.14 421.8v67.41l-31.06 31.16a33.047 33.047-180 00-16.43-4.33 33.498 33.498-180 1033.52 33.5 33.047 33.047-180 00-4.35-16.46l31.06-31.13h67.42V421.8H71.14zM23.65 565.01a15.502 15.502 0 1115.5-15.47 15.502 15.502 0 01-15.5 15.47zM133.3 483.9H89.17v-44.08h44.13v44.08z" class="st2"/></g><g id="shape20-38" transform="translate(298.546 -113.333)"><path d="M58.21 461.96a33.047 33.047-180 004.36-16.44 33.588 33.588-180 10-17.1 29.18l31.07 31.12v67.42h80.15v-80.13H89.27l-31.06-31.15zm-29.17-.93a15.502 15.502 0 1115.5-15.51 15.502 15.502 0 01-15.5 15.51zm65.52 50.08h44.13v44.13H94.56v-44.13z" class="st2"/></g><g id="shape21-40" transform="translate(113.02 -299.061)"><path d="M127.62 510.81a33.047 33.047-180 00-16.43 4.33l-31.07-31.16v-67.41H0v80.15h67.39l31.06 31.13a33.498 33.498-180 1029.17-17.04zm-65.49-32.08H18v-44.14h44.13v44.14zm65.49 81.11a15.502 15.502 0 1115.5-15.47 15.502 15.502 0 01-15.5 15.41v.06z" class="st2"/></g><g id="shape22-42" transform="translate(113.02 -113.333)"><path d="M127.62 412.03a33.468 33.468-180 00-29.17 49.93l-31.06 31.15H0v80.13h80.12v-67.42l31.07-31.24a33.498 33.498-180 1016.43-62.67v.12zM62.13 555.24H18v-44.13h44.13v44.13zm65.49-94.21a15.502 15.502 0 1115.5-15.51 15.532 15.532 0 01-15.5 15.51z" class="st2"/></g></g></svg>