<svg xmlns="http://www.w3.org/2000/svg" version="1.0" viewBox="0 0 694 792"><path d="M42.977 11.329c-12.3 3.3-23.7 13-29.4 25.1l-3.2 6.8-.3 309.5c-.2 280.1-.1 310 1.4 315 4 14 13.7 24.4 27.9 30.1 5.9 2.3 6.6 2.4 45.3 2.7l39.2.3v36c0 29.6.3 36.5 1.5 38.8 1.5 3.1 6.9 6.1 10.7 6.1 1.2 0 9-3.4 17.2-7.4l14.8-7.5 15 7.5c8.3 4.1 16.2 7.4 17.7 7.4 1.4 0 4-.9 5.8-2 6.2-3.8 6.3-4.2 6.3-43.4v-35.6l198.9-.2 199-.3 2.8-2.1c1.5-1.1 3.4-3.2 4-4.5 1-1.9 1.3-55.4 1.3-249.7v-247.2h11.9c19.8 0 28.8-2.8 38.7-12.2 6.5-6.2 9.9-11.5 12.5-19.9 1.6-5.2 1.9-9.3 1.9-28.7 0-29.8-1.6-35.7-12.6-47.2-10.1-10.6-19.7-14-39.6-14h-12.8v-57l-3.4-3.8-3.4-3.7-281.9-.2c-244.2-.1-282.5 0-287.2 1.3zm31.9 73.9v50.5l4.6 6c2.5 3.3 4.3 6.4 3.9 7-.3.5 0 .7.8.4 1.8-.7 3.3 1.4 2 2.7-.6.6-2.9-1.4-6.1-5.2l-5.2-6.1v6.4c0 6.2.2 6.5 5.4 12.8 3 3.5 5.2 6.8 4.9 7.3-.2.4-1 .3-1.7-.2-.7-.6-1.5-.8-1.9-.5-.3.3-1.3-1-2.2-3-1-2-2.4-3.6-3.2-3.6-1.2 0-1.4 1.4-1.3 7.2.1 4 .2 120.1.1 258l-.1 250.8h-12.4c-8.5 0-13.4-.4-15.8-1.4-4.8-2-10.2-8.3-11.6-13.6-1-3.5-1.2-71.5-1-308 .3-290.3.4-303.6 2.1-306.8 2.2-4 4.8-6.7 9-9.2 2.7-1.7 5.1-2 16.5-2h13.2v50.5zm520 98c0 98.3-.3 148.5-1 148.5-.5 0-1-.4-1-.8 0-1.9-12.9-18.2-21.3-27-22.7-23.5-53.9-40.6-86.7-47.3-9.6-2-14.6-2.3-30-2.4-10.2 0-21.3.3-24.7.7l-6.1.8-.7-6.8c-.4-3.7-1.7-11.9-3-18.3-8.7-43.2-33.4-81-70.2-107.6-10.1-7.3-33.1-19.1-44.8-22.9-44.9-14.7-92.4-11.4-134 9.4-4.9 2.4-9.2 4.8-9.5 5.2-.3.4-2.3 1.7-4.6 2.8-16.4 8.3-43.5 35-55.5 54.7l-2.4 4-.3-11.9c-.2-10.6-.5-12-2.4-13.5-2.7-2.2-2.6-6.5.1-10.1 1.3-1.9 2.1-4.4 2.1-7 0-3.7-.2-4.1-2-3.5-1.1.3-2 .2-2-.4 0-.5.9-1.3 2-1.6 2-.6 2-1.5 2-47.1v-46.4h496v148.5zm54.6-81c9 5.3 10.4 9.8 10.4 32.7 0 21.7-.8 25.7-6.5 31.4-5.2 5.2-10.9 6.6-24.6 6.2l-9.4-.3-.3-35.9c-.2-28.1.1-36.1 1-36.8.7-.4 6.7-.5 13.2-.3 10.4.4 12.4.8 16.2 3zm-367.6 16.8c29.5 7 52.2 19.7 73.6 41.1 18.1 18.2 28.7 35.2 36.4 58.5 4.1 12.4 6.7 25.3 7.2 36.5l.3 6.9-9 3.7c-25.2 10.4-46.7 25.7-63.7 45.4-6.9 8.1-7.3 8.4-10.7 8-17.3-2.3-28-5.4-41.9-12.1-5-2.5-9.4-4.9-9.7-5.3-.3-.5 3.3-5.5 8.1-11.2 19.2-22.9 33.3-48.6 38.3-69.8 1.8-7.4 1.8-7.5 5.5-8.1 4.2-.7 7.9-3.8 9.7-8.1 1.6-4-.2-9.9-4.2-13.2l-3.1-2.6h-56.8v-11.3c0-9-.4-11.9-1.8-14.7-4.7-8.9-17.3-8.7-21.6.5-1.2 2.4-1.6 6.3-1.6 14.4v11.1h-56.8l-3.1 2.5c-6 5.1-6.2 13.2-.5 18.6l2.6 2.4 54.5.3c42.5.2 54.4.5 54 1.5-.2.6-1.2 3.8-2.1 7-2.2 7.6-7.3 18.6-12.6 27.2-2.3 3.8-4.8 7.9-5.4 9-3.6 6.5-21.7 27.7-24.1 28.3-1.7.4-12.5-11.5-19.1-20.9-6.6-9.4-8.5-10.9-14-10.9-8 0-13.9 8-11.4 15.5 1.5 4.4 10.3 16.8 18.8 26.3 5.3 5.9 6.3 7.5 5.1 8.3-12.9 8.6-24.4 13.3-36.3 14.8-8.7 1-11.8 3-13.6 8.7-1.5 4.5.1 9.5 4.1 12.9 2.5 2.1 4.1 2.5 9 2.5 15.4 0 34.5-7.5 52.8-20.7l5.4-4 6.6 4c14.3 8.7 37.2 17.7 49 19.3 3.2.4 5 1.1 4.7 1.8-.2.6-2.3 5.4-4.6 10.6-2.3 5.2-5.7 14.7-7.5 21-2.9 10.3-4 16.4-6 32.2l-.6 4.7-5.2 1.1c-18.7 4-45.7 3.9-63.7-.3-29.8-7.1-51.2-19-73.1-40.7-30-29.8-44.3-64.1-44.3-106 0-41.9 14.3-76.2 44.3-106 22.3-22.1 45.5-34.8 74.8-40.9 14.2-3 14.1-3 34.3-2.6 15.4.3 20.3.7 29 2.8zm194.1 161.3c51.8 8.8 94.7 45.8 111.2 95.9 4.6 13.7 5.8 21.3 6.3 39 .9 25.7-2.7 43.9-13 65.9-4.7 10-18 30.1-21.1 31.8-.8.5-1.5 1.3-1.5 1.8 0 2-19.5 18.7-29 24.8-13.5 8.7-31.9 16-50 19.9-11.9 2.5-39.8 2.5-52.8 0-53.6-10.4-97.5-51.6-110.7-103.7-13.5-53.7 4.3-109.3 46.2-144.2 21.1-17.7 43.3-27.4 73.3-32.1 7-1.1 32.4-.6 41.1.9zm-371.1 83.6c6.7 10.1 20.1 25.1 30.6 34.2 38.6 33.4 92.7 48.6 142.1 40 4.7-.8 8.7-1.3 8.8-1.2.1.2.8 3.9 1.4 8.3 2.5 15.9 7 30.8 9.2 30.3 1.1-.3 5.5 10.2 6.3 15.3.7 4.9 8.5 19.3 15.4 28.4 67.7 90.5 201.6 89.7 268.8-1.6 2.7-3.7 5.4-7.5 6.1-8.5.9-1.5 1.2 16.8 1.2 82.3l.1 84.3h-496v-160c0-88 .2-160 .3-160 .2 0 2.8 3.7 5.7 8.2zm83 360.7v24l-3.2-1.4c-1.8-.8-5.7-2.5-8.5-3.9-2.9-1.4-6.6-2.6-8.1-2.6s-6.5 1.8-11.1 4c-4.5 2.2-8.4 4-8.7 4-.2 0-.4-10.8-.4-24v-24h40v23.9z"/><path d="M442.877 318.729c-25.9 3.3-42.7 19.7-49.6 48.7-2.5 10-3.3 125.1-1 130.6 2.7 6.6 11.1 9.6 17.5 6.3 5.7-3 6-4.5 6.3-28.3l.3-21.8 36.3-.3 36.2-.2v44.2l3.9 3.9c3.2 3.2 4.6 3.9 7.7 3.9 5.1 0 8.3-1.8 11.1-5.9l2.3-3.4v-57.1c0-56.1-.4-64.6-3.5-77.1-5.2-20.8-20.5-36.9-39.9-41.9-7-1.9-19.8-2.6-27.6-1.6zm23.1 26.6c4.2 1.2 6.6 2.8 11.1 7.4 4.8 4.9 6 6.9 8.4 14.1 2.6 8.1 2.7 9.4 3.2 35.2l.4 26.7-36.3-.2-36.4-.3-.3-17.5c-.4-21.1 1.1-38 3.9-45.6 3.6-9.5 10.9-17.2 19.4-20.2 4.7-1.6 20.4-1.4 26.6.4zM148.177 495.829c-7.2 2.1-10.4 10.9-6.7 18 3.1 6 3.3 6 61 5.8l52.5-.2 3.4-2.6c3.5-2.7 6.1-8.1 5.1-10.7-.6-1.6-3.6-1.5-4.8.1-.5.6-.8.6-.8-.2 0-.6.9-1.8 2-2.6 2.5-1.7 1.8-3.9-1.8-6.4-2.5-1.7-6.4-1.8-54.7-2-30.5-.1-53.3.2-55.2.8zM148.277 560.829c-6.9 2-10.5 11-7.1 17.6 2.6 4.9 6.9 6.3 19.4 6.3 8.9 0 11.3-.3 14-2 4-2.4 5.4-5 5.5-10.2 0-4.8-2.4-8.6-7.3-11-3.7-2-18.7-2.4-24.5-.7zM215.477 560.529c-.3.6.1 1.8 1 2.7 1.5 1.5 1.8 1.5 4.1 0 1.4-.9 2.7-1.4 3.1-1.1.9 1-2 3.4-4.9 4.1-2.1.5-3.2.1-5.2-2.1-2.2-2.4-2.8-2.6-4.2-1.4-6.4 5.3-5.5 16.6 1.7 20.6 3.4 1.9 24 1.8 27.7 0 8.2-4.3 8.5-16 .5-21.2-2.2-1.5-7.6-2.1-13.9-1.6-1.1.1-3.6 0-5.6-.4-2.1-.3-3.9-.2-4.3.4zM278.177 560.829c-4.7 1.4-8.3 6.2-8.3 11.2 0 7.5 5 12.6 12.3 12.7 7.9 0 13.7-5.1 13.7-12.2-.1-8.7-8.6-14.3-17.7-11.7z"/></svg>