<svg id="Layer_1" data-name="Layer 1" xmlns="http://www.w3.org/2000/svg" xmlns:xlink="http://www.w3.org/1999/xlink" viewBox="0 0 114 114"><defs><style>.cls-1{fill:#1d2741;}.cls-2{fill:#47a025;}.cls-3{fill:url(#linear-gradient);}.cls-4{fill:url(#linear-gradient-2);}.cls-5{fill:url(#linear-gradient-3);}</style><linearGradient id="linear-gradient" x1="58.34" y1="418.41" x2="58.34" y2="387" gradientTransform="matrix(1, 0, 0, -1, 0, 501)" gradientUnits="userSpaceOnUse"><stop offset="0" stop-color="#8cd73f"/><stop offset="0.23" stop-color="#7ac838"/><stop offset="0.7" stop-color="#4aa226"/><stop offset="0.72" stop-color="#47a025"/></linearGradient><linearGradient id="linear-gradient-2" x1="81.68" y1="451.58" x2="103.85" y2="472.96" gradientTransform="matrix(1, 0, 0, -1, 0, 501)" gradientUnits="userSpaceOnUse"><stop offset="0" stop-color="#8cd73f"/><stop offset="0.28" stop-color="#77c637"/><stop offset="0.8" stop-color="#47a025"/></linearGradient><linearGradient id="linear-gradient-3" x1="16.14" y1="472.17" x2="35.52" y2="449.05" gradientTransform="matrix(1, 0, 0, -1, 0, 501)" gradientUnits="userSpaceOnUse"><stop offset="0" stop-color="#47a025"/><stop offset="0.19" stop-color="#4aa226"/><stop offset="0.3" stop-color="#52a929"/><stop offset="0.4" stop-color="#60b42f"/><stop offset="0.48" stop-color="#74c436"/><stop offset="0.55" stop-color="#8cd73f"/></linearGradient></defs><path class="cls-1" d="M66.68,57.28A8.55,8.55,0,1,0,58.36,67a8.16,8.16,0,0,0,3.08-.6,8.56,8.56,0,0,0,5.36-7.84A7.17,7.17,0,0,0,66.68,57.28Zm-8.32-1.74a3.05,3.05,0,1,1-3,3.05v0a3,3,0,0,1,3-3Z"/><path class="cls-2" d="M66.68,57.28,61,54a5.28,5.28,0,0,0-5.27,9.15l5.7,3.28L88.34,81.88a10.76,10.76,0,0,1,5.28-9.12Zm-8.32,4.33a3,3,0,1,1,3-3h0A3,3,0,0,1,58.36,61.61Z"/><path class="cls-2" d="M25.47,33.51l-5.28,3.05V74.1a10.86,10.86,0,0,0-10.54,0V33.51a5,5,0,0,1,0-.77v-.51h0a2,2,0,0,1,.17-.52h0a4.53,4.53,0,0,1,.28-.59,3.58,3.58,0,0,1,.38-.55l.25-.34.66-.6a4.11,4.11,0,0,1,.82-.62h0L47.5,8.54a10.86,10.86,0,0,0,5.27,9.15Z"/><path class="cls-2" d="M106.36,36.16l-.2.34-.2.23a2.11,2.11,0,0,1-.49.54,3.11,3.11,0,0,1-.31.32l-.34.25-.4.23a5.19,5.19,0,0,1-5.25,0h0l-8-4.56L63.89,17.75A10.43,10.43,0,0,0,66,16.12a10.82,10.82,0,0,0,3.25-7.58l35.2,20.35.48.32.31.25.18.17.25.26a.5.5,0,0,1,.15.17l.17.2.28.43h0v.14a2.47,2.47,0,0,1,.23.46h0a2.16,2.16,0,0,0,.2.57c.06.2,0,.22,0,.34a1.29,1.29,0,0,1,0,.48v.72a1.7,1.7,0,0,1,0,.45.77.77,0,0,1,0,.37h0v.37h0l-.17.52A4.7,4.7,0,0,1,106.36,36.16Z"/><path class="cls-2" d="M96.67,92.68l-35.6,20.58-.49.26-.37.14a5.1,5.1,0,0,1-1.85.34,4.82,4.82,0,0,1-2-.43,2.53,2.53,0,0,1-.6-.28L20.54,93a10.83,10.83,0,0,0,5.27-9.13L58.36,102.6l5.27-3,25-14.42a10.79,10.79,0,0,0,5,6.32A10.13,10.13,0,0,0,96.67,92.68Z"/><path class="cls-3" d="M58.36,82.65a5.27,5.27,0,0,0-5.27,5.27v20.86a5.24,5.24,0,0,0,2.65,4.56l.6.29h0a1.31,1.31,0,0,0,.48.17h.4a1.29,1.29,0,0,0,.48,0,2.43,2.43,0,0,0,.66,0,4.56,4.56,0,0,0,1.42-.2h.46l.31-.14.52-.26h0a5.22,5.22,0,0,0,2.53-4.5V87.86A5.26,5.26,0,0,0,58.36,82.65Zm0,2.22a3,3,0,1,1-3,3h0a3.06,3.06,0,0,1,3-3.11h.06Z"/><path class="cls-4" d="M107,33v-.14h0v-.2h0a.69.69,0,0,0,0-.35.66.66,0,0,0,0-.28,3.38,3.38,0,0,0-.23-.63,1.68,1.68,0,0,0-.2-.34.49.49,0,0,0,0-.17,1.11,1.11,0,0,0-.22-.34l-.2-.26a1.16,1.16,0,0,0-.26-.28h0a2.23,2.23,0,0,0-.4-.35h0l-.37-.22H105a5.22,5.22,0,0,0-5.16,0l-8.61,4.1L81,39.38a5.27,5.27,0,0,0-1.91,7.21h0A5,5,0,0,0,81,48.5a5.28,5.28,0,0,0,5.3,0l18.07-10.43a1.82,1.82,0,0,0,.48-.34l.29-.2a1.07,1.07,0,0,0,.26-.26h.14a1.64,1.64,0,0,0,.34-.4h0l.17-.25.17-.26h0a3.5,3.5,0,0,0,.2-.4h0a1.13,1.13,0,0,0,0-.26,1.49,1.49,0,0,0,.14-.37v-.14a.9.9,0,0,0,0-.4h0a.53.53,0,0,0,0-.25,3.64,3.64,0,0,0,0-.66h0C107.07,33.28,107,33.14,107,33ZM85.24,46.56a3,3,0,1,1,1.11-4.13,2.85,2.85,0,0,1-.8,4A1.92,1.92,0,0,1,85.24,46.56Z"/><path class="cls-5" d="M35.64,39.38,25.47,33.51,17.57,29a5.24,5.24,0,0,0-5.38,0l-.43.28h0l-.37.49-.26.28-.26.29h0a4,4,0,0,0-.37.54l-.28.57h0v.29h0a.66.66,0,0,0,0,.28h0a1.93,1.93,0,0,0,0,.48,1.71,1.71,0,0,0,0,.32v.45a5.17,5.17,0,0,0,2.62,4.56l7.38,5,10.15,5.7a5.27,5.27,0,1,0,5.68-8.88l-.41-.24Zm0,6.07a3,3,0,0,1-5.27-3,3.08,3.08,0,0,1,5.37,3,.86.86,0,0,1-.1.16Z"/><ellipse class="cls-1" cx="99.03" cy="82.1" rx="8.38" ry="8.47" transform="translate(-29.06 93.99) rotate(-44.96)"/><circle class="cls-1" cx="58.37" cy="8.44" r="8.44"/><ellipse class="cls-1" cx="14.97" cy="83.66" rx="8.38" ry="8.47" transform="translate(-54.81 35.14) rotate(-45.04)"/></svg>