<svg id="Layer_1" data-name="Layer 1" xmlns="http://www.w3.org/2000/svg" xmlns:xlink="http://www.w3.org/1999/xlink" viewBox="0 0 120 120"><defs><style>.cls-1{fill:#1d2741;}.cls-2{fill:#47a025;}.cls-3{fill:url(#linear-gradient);}.cls-4{fill:url(#linear-gradient-2);}.cls-5{fill:url(#linear-gradient-3);}</style><linearGradient id="linear-gradient" x1="61.42" y1="178.98" x2="61.42" y2="145.89" gradientTransform="matrix(1, 0, 0, -1, 0, 266)" gradientUnits="userSpaceOnUse"><stop offset="0" stop-color="#8cd73f"/><stop offset="0.23" stop-color="#7ac838"/><stop offset="0.7" stop-color="#4aa226"/><stop offset="0.72" stop-color="#47a025"/></linearGradient><linearGradient id="linear-gradient-2" x1="86" y1="213.94" x2="109.36" y2="236.46" gradientTransform="matrix(1, 0, 0, -1, 0, 266)" gradientUnits="userSpaceOnUse"><stop offset="0" stop-color="#8cd73f"/><stop offset="0.28" stop-color="#77c637"/><stop offset="0.8" stop-color="#47a025"/></linearGradient><linearGradient id="linear-gradient-3" x1="16.95" y1="235.63" x2="37.37" y2="211.27" gradientTransform="matrix(1, 0, 0, -1, 0, 266)" gradientUnits="userSpaceOnUse"><stop offset="0" stop-color="#47a025"/><stop offset="0.19" stop-color="#4aa226"/><stop offset="0.3" stop-color="#52a929"/><stop offset="0.4" stop-color="#60b42f"/><stop offset="0.48" stop-color="#74c436"/><stop offset="0.55" stop-color="#8cd73f"/></linearGradient></defs><path class="cls-1" d="M70.2,60.35a9,9,0,1,0-8.77,10.27A8.54,8.54,0,0,0,64.67,70a9,9,0,0,0,5.65-8.26A6.38,6.38,0,0,0,70.2,60.35Zm-8.77-1.83a3.21,3.21,0,1,1-3.21,3.21v0a3.18,3.18,0,0,1,3.18-3.18Z"/><path class="cls-2" d="M70.2,60.35l-6-3.45a5.56,5.56,0,0,0-5.55,9.64l6,3.45L93,86.26a11.35,11.35,0,0,1,5.56-9.6Zm-8.77,4.56a3.21,3.21,0,1,1,3.21-3.21h0A3.2,3.2,0,0,1,61.43,64.91Z"/><path class="cls-2" d="M26.78,35.3l-5.56,3.22V78.07a11.43,11.43,0,0,0-11.11,0V35.3q0-.4,0-.81V34h0a2.14,2.14,0,0,1,.18-.54h0a3.64,3.64,0,0,1,.3-.63,4.42,4.42,0,0,1,.39-.57l.27-.36.69-.63a5.54,5.54,0,0,1,.87-.66h0L50,9a11.44,11.44,0,0,0,5.56,9.64Z"/><path class="cls-2" d="M112,38.1l-.21.36-.21.24a2.32,2.32,0,0,1-.51.57,2.57,2.57,0,0,1-.33.33l-.36.27-.42.24a5.43,5.43,0,0,1-5.53,0h0L96,35.3,67.26,18.7A11.52,11.52,0,0,0,69.48,17,11.41,11.41,0,0,0,72.9,9L110,30.44l.51.33.33.27.18.18.27.27a.43.43,0,0,1,.15.18l.18.21.3.45h0v.15a2.16,2.16,0,0,1,.24.48h0c0,.21.15.39.21.6s0,.24,0,.36a1.46,1.46,0,0,1,0,.51v.75a1.35,1.35,0,0,1,0,.49.86.86,0,0,1,0,.39h0v.39h0l-.18.54A4.22,4.22,0,0,1,112,38.1Z"/><path class="cls-2" d="M101.79,97.65,64.28,119.33l-.51.27-.39.15a5.39,5.39,0,0,1-2,.36,5.22,5.22,0,0,1-2.13-.45,3.64,3.64,0,0,1-.63-.3L21.58,98a11.39,11.39,0,0,0,5.56-9.61L61.43,108.1,67,104.88,93.32,89.69a11.39,11.39,0,0,0,5.26,6.66A10.94,10.94,0,0,0,101.79,97.65Z"/><path class="cls-3" d="M61.43,87.08a5.54,5.54,0,0,0-5.55,5.55v22a5.53,5.53,0,0,0,2.79,4.81l.63.3h0a1.55,1.55,0,0,0,.51.18h.42a1.46,1.46,0,0,0,.51,0,2.66,2.66,0,0,0,.69,0,5.38,5.38,0,0,0,1.5-.21h.48l.33-.15.54-.27h0A5.51,5.51,0,0,0,67,114.52v-22A5.56,5.56,0,0,0,61.43,87.08Zm0,2.34a3.21,3.21,0,1,1-3.21,3.21h0a3.21,3.21,0,0,1,3.15-3.27h.06Z"/><path class="cls-4" d="M112.72,34.73v-.15h0v-.21h0a.73.73,0,0,0,0-.36.76.76,0,0,0,0-.3,4.38,4.38,0,0,0-.24-.66,3.35,3.35,0,0,0-.21-.36.54.54,0,0,0,0-.18,1.41,1.41,0,0,0-.24-.36l-.21-.27a1.27,1.27,0,0,0-.27-.3h0a2.05,2.05,0,0,0-.42-.36h0l-.39-.24h-.21a5.5,5.5,0,0,0-5.44,0L96,35.3,85.3,41.49a5.55,5.55,0,0,0-2,7.59h0a5.46,5.46,0,0,0,2,2,5.58,5.58,0,0,0,5.59,0l19-11a1.82,1.82,0,0,0,.51-.36l.3-.21a1.38,1.38,0,0,0,.27-.27h.15a1.61,1.61,0,0,0,.36-.42h0l.18-.27.18-.27h0s.15-.27.21-.42h0a1.22,1.22,0,0,0,0-.27,3.12,3.12,0,0,0,.15-.39v-.15a1,1,0,0,0,0-.42h0a.61.61,0,0,0,0-.27q0-.35,0-.69h0C112.75,35.06,112.72,34.91,112.72,34.73Zm-23,14.33a3.18,3.18,0,1,1,1.17-4.36,3,3,0,0,1-.84,4.17Z"/><path class="cls-5" d="M37.5,41.49,26.78,35.3l-8.32-4.8a5.56,5.56,0,0,0-5.68,0l-.45.3h0l-.39.51-.27.3-.27.3h0a5.72,5.72,0,0,0-.39.57l-.3.6h0v.3h0a.76.76,0,0,0,0,.3h0a4.34,4.34,0,0,0,0,.51,1.82,1.82,0,0,0,0,.33V35a5.47,5.47,0,0,0,2.76,4.81L21.25,45l10.69,6a5.56,5.56,0,1,0,6-9.36l-.43-.25Zm0,6.4a3.22,3.22,0,0,1-5.56-3.19,3.24,3.24,0,0,1,5.66,3.17l-.1.17Z"/><ellipse class="cls-1" cx="104.29" cy="86.5" rx="8.83" ry="8.92" transform="translate(-30.63 98.98) rotate(-44.96)"/><circle class="cls-1" cx="61.44" cy="8.89" r="8.89"/><ellipse class="cls-1" cx="15.71" cy="88.15" rx="8.83" ry="8.92" transform="translate(-57.76 36.98) rotate(-45.04)"/></svg>