<svg id="Layer_1" data-name="Layer 1" xmlns="http://www.w3.org/2000/svg" xmlns:xlink="http://www.w3.org/1999/xlink" viewBox="0 0 144 144"><defs><style>.cls-1{fill:#1d2741;}.cls-2{fill:#47a025;}.cls-3{fill:url(#linear-gradient);}.cls-4{fill:url(#linear-gradient-2);}.cls-5{fill:url(#linear-gradient-3);}</style><linearGradient id="linear-gradient" x1="73.7" y1="153.68" x2="73.7" y2="114" gradientTransform="matrix(1, 0, 0, -1, 0, 258)" gradientUnits="userSpaceOnUse"><stop offset="0" stop-color="#8cd73f"/><stop offset="0.23" stop-color="#7ac838"/><stop offset="0.7" stop-color="#4aa226"/><stop offset="0.72" stop-color="#47a025"/></linearGradient><linearGradient id="linear-gradient-2" x1="103.17" y1="195.58" x2="131.18" y2="222.58" gradientTransform="matrix(1, 0, 0, -1, 0, 258)" gradientUnits="userSpaceOnUse"><stop offset="0" stop-color="#8cd73f"/><stop offset="0.28" stop-color="#77c637"/><stop offset="0.8" stop-color="#47a025"/></linearGradient><linearGradient id="linear-gradient-3" x1="20.39" y1="221.58" x2="44.87" y2="192.38" gradientTransform="matrix(1, 0, 0, -1, 0, 258)" gradientUnits="userSpaceOnUse"><stop offset="0" stop-color="#47a025"/><stop offset="0.19" stop-color="#4aa226"/><stop offset="0.3" stop-color="#52a929"/><stop offset="0.4" stop-color="#60b42f"/><stop offset="0.48" stop-color="#74c436"/><stop offset="0.55" stop-color="#8cd73f"/></linearGradient></defs><path class="cls-1" d="M84.23,72.35A10.8,10.8,0,1,0,73.72,84.67a10.12,10.12,0,0,0,3.88-.76A10.8,10.8,0,0,0,84.37,74,8.4,8.4,0,0,0,84.23,72.35ZM73.72,70.16A3.85,3.85,0,1,1,69.86,74v0a3.82,3.82,0,0,1,3.82-3.81Z"/><path class="cls-2" d="M84.23,72.35,77,68.21a6.67,6.67,0,1,0-6.66,11.56l7.2,4.14,34,19.51a13.62,13.62,0,0,1,6.66-11.52ZM73.72,77.83A3.86,3.86,0,1,1,77.57,74h0A3.86,3.86,0,0,1,73.72,77.83Z"/><path class="cls-2" d="M32.17,42.33l-6.66,3.85V93.6a13.72,13.72,0,0,0-13.32,0V42.33a7.85,7.85,0,0,1,0-1v-.65h0a2.36,2.36,0,0,1,.21-.65h0a5.28,5.28,0,0,1,.36-.76,5.46,5.46,0,0,1,.47-.68l.33-.43.82-.76a5.77,5.77,0,0,1,1-.79h0L60,10.79a13.72,13.72,0,0,0,6.66,11.56Z"/><path class="cls-2" d="M134.35,45.68l-.26.43-.25.29a2.64,2.64,0,0,1-.61.68,5,5,0,0,1-.4.4l-.43.32-.5.29a6.56,6.56,0,0,1-6.63,0h0l-10.08-5.76L80.7,22.42a13.74,13.74,0,0,0,6.77-11.63L131.93,36.5l.62.39.39.33.22.21.32.33a.46.46,0,0,1,.18.21l.22.25.36.54h0v.18a3.92,3.92,0,0,1,.29.58h0c0,.25.18.47.25.72s0,.29,0,.43a2.08,2.08,0,0,1,0,.61v.9a1.88,1.88,0,0,1,0,.58,1.24,1.24,0,0,1,0,.47h0v.47h0l-.22.64A6,6,0,0,1,134.35,45.68Z"/><path class="cls-2" d="M122.1,117.07l-45,26-.62.33-.46.18a6.45,6.45,0,0,1-4.9-.11,3.77,3.77,0,0,1-.76-.36L25.94,117.43a13.64,13.64,0,0,0,6.66-11.52L73.72,129.6l6.66-3.85L112,107.53a13.7,13.7,0,0,0,6.3,8A13.13,13.13,0,0,0,122.1,117.07Z"/><path class="cls-3" d="M73.72,104.4a6.66,6.66,0,0,0-6.66,6.66v26.35a6.6,6.6,0,0,0,3.34,5.76l.76.36h0a1.94,1.94,0,0,0,.61.22h.51a2.08,2.08,0,0,0,.61,0,3.84,3.84,0,0,0,.83,0,6.46,6.46,0,0,0,1.8-.25h.57l.4-.18.65-.33h0a6.58,6.58,0,0,0,3.2-5.69V111A6.66,6.66,0,0,0,73.72,104.4Zm0,2.8a3.86,3.86,0,1,1-3.86,3.86h0a3.86,3.86,0,0,1,3.78-3.93h.08Z"/><path class="cls-4" d="M135.21,41.64v-.18h0v-.25h0a1,1,0,0,0,0-.43.73.73,0,0,0,0-.36,4.4,4.4,0,0,0-.29-.79,2.3,2.3,0,0,0-.25-.43.81.81,0,0,0,0-.22,1.42,1.42,0,0,0-.29-.43l-.25-.33a1.83,1.83,0,0,0-.32-.36h0a2.64,2.64,0,0,0-.51-.43h0l-.47-.29h-.25a6.59,6.59,0,0,0-6.52,0l-10.87,5.19-12.85,7.41a6.68,6.68,0,0,0-2.42,9.11h0a6.44,6.44,0,0,0,2.41,2.42,6.68,6.68,0,0,0,6.7,0l22.82-13.18a2.4,2.4,0,0,0,.61-.43l.36-.26a1.12,1.12,0,0,0,.33-.32.54.54,0,0,0,.18,0,1.87,1.87,0,0,0,.43-.5h0l.22-.33.21-.32h0s.18-.33.25-.51h0a.86.86,0,0,0,0-.32,2.07,2.07,0,0,0,.18-.47v-.18a1.06,1.06,0,0,0,0-.5h0a.92.92,0,0,0,0-.33,5.61,5.61,0,0,0,0-.82h0C135.25,42,135.21,41.86,135.21,41.64ZM107.67,58.82a3.82,3.82,0,1,1,1.4-5.22,3.6,3.6,0,0,1-1,5Z"/><path class="cls-5" d="M45,49.74,32.17,42.33l-10-5.76a6.65,6.65,0,0,0-6.81,0l-.54.36h0l-.47.61-.32.36-.32.36h0a3.93,3.93,0,0,0-.47.68l-.36.72h0V40h0a1.09,1.09,0,0,0,0,.36h0a3.21,3.21,0,0,0,0,.62,1.27,1.27,0,0,0,0,.39V42a6.54,6.54,0,0,0,3.31,5.76L25.54,54l12.82,7.2A6.66,6.66,0,0,0,45.54,50a5.39,5.39,0,0,0-.52-.3Zm0,7.67a2.74,2.74,0,1,1,.12,0,1.32,1.32,0,0,1-.12.2Z"/><ellipse class="cls-1" cx="125.09" cy="103.71" rx="10.58" ry="10.69" transform="translate(-36.7 118.72) rotate(-44.96)"/><circle class="cls-1" cx="73.73" cy="10.66" r="10.66"/><ellipse class="cls-1" cx="18.91" cy="105.68" rx="10.58" ry="10.69" transform="translate(-69.23 44.38) rotate(-45.04)"/></svg>