<svg id="Layer_1" data-name="Layer 1" xmlns="http://www.w3.org/2000/svg" xmlns:xlink="http://www.w3.org/1999/xlink" viewBox="0 0 16 16"><defs><style>.cls-1{fill:#1d2741;}.cls-2{fill:#47a025;}.cls-3{fill:url(#linear-gradient);}.cls-4{fill:url(#linear-gradient-2);}.cls-5{fill:url(#linear-gradient-3);}</style><linearGradient id="linear-gradient" x1="8.19" y1="313.41" x2="8.19" y2="309" gradientTransform="matrix(1, 0, 0, -1, 0, 325)" gradientUnits="userSpaceOnUse"><stop offset="0" stop-color="#8cd73f"/><stop offset="0.23" stop-color="#7ac838"/><stop offset="0.7" stop-color="#4aa226"/><stop offset="0.72" stop-color="#47a025"/></linearGradient><linearGradient id="linear-gradient-2" x1="11.46" y1="318.06" x2="14.58" y2="321.06" gradientTransform="matrix(1, 0, 0, -1, 0, 325)" gradientUnits="userSpaceOnUse"><stop offset="0" stop-color="#8cd73f"/><stop offset="0.28" stop-color="#77c637"/><stop offset="0.8" stop-color="#47a025"/></linearGradient><linearGradient id="linear-gradient-3" x1="2.27" y1="320.95" x2="4.99" y2="317.71" gradientTransform="matrix(1, 0, 0, -1, 0, 325)" gradientUnits="userSpaceOnUse"><stop offset="0" stop-color="#47a025"/><stop offset="0.19" stop-color="#4aa226"/><stop offset="0.3" stop-color="#52a929"/><stop offset="0.4" stop-color="#60b42f"/><stop offset="0.48" stop-color="#74c436"/><stop offset="0.55" stop-color="#8cd73f"/></linearGradient></defs><path class="cls-1" d="M9.36,8A1.2,1.2,0,1,0,8.19,9.41a1,1,0,0,0,.43-.09,1.18,1.18,0,0,0,.75-1.1A.55.55,0,0,0,9.36,8ZM8.19,7.8a.43.43,0,1,1-.43.42h0a.42.42,0,0,1,.43-.42Z"/><path class="cls-2" d="M9.36,8l-.8-.46a.73.73,0,0,0-1,.27.73.73,0,0,0,.27,1l.8.46,3.78,2.17a1.53,1.53,0,0,1,.74-1.28Zm-1.17.61a.43.43,0,1,1,.43-.43h0A.43.43,0,0,1,8.19,8.65Z"/><path class="cls-2" d="M3.57,4.7l-.74.43V10.4a1.5,1.5,0,0,0-1.48,0V4.52h0l0-.07h0a.2.2,0,0,1,0-.08.22.22,0,0,1,.05-.08l0,0,.09-.08.11-.09h0l5-2.87a1.48,1.48,0,0,0,.74,1.28Z"/><path class="cls-2" d="M14.93,5.08l0,0,0,0-.07.07,0,0,0,0-.05,0a.7.7,0,0,1-.74,0h0L12.8,4.7,9,2.49a1.54,1.54,0,0,0,.29-.23A1.52,1.52,0,0,0,9.72,1.2l4.94,2.86.07,0,0,0,0,0,0,0,0,0,0,0,0,.06h0v0l0,.06h0s0,.05,0,.08V4.8h0v.06h0l0,.07A.77.77,0,0,1,14.93,5.08Z"/><path class="cls-2" d="M13.57,13l-5,2.89-.07,0-.05,0a.75.75,0,0,1-.26.05.67.67,0,0,1-.28-.06l-.09,0L2.88,13.05a1.53,1.53,0,0,0,.74-1.28L8.19,14.4,8.93,14l3.51-2a1.55,1.55,0,0,0,.7.89A1.61,1.61,0,0,0,13.57,13Z"/><path class="cls-3" d="M8.19,11.6a.74.74,0,0,0-.74.74v2.93a.74.74,0,0,0,.37.64l.09,0h0L8,16h.22a.64.64,0,0,0,.2,0h.06l.05,0,.07,0h0a.75.75,0,0,0,.36-.63V12.33A.75.75,0,0,0,8.19,11.6Zm0,.31a.43.43,0,1,1-.43.43h0a.44.44,0,0,1,.42-.44h0Z"/><path class="cls-4" d="M15,4.63v0h0v0h0a0,0,0,0,0,0,0,0,0,0,0,0,0,0,.32.32,0,0,0,0-.09l0,0v0s0,0,0,0l0,0,0,0h0l-.06,0h0l-.05,0h0a.71.71,0,0,0-.72,0L12.8,4.7l-1.43.83a.75.75,0,0,0-.27,1h0a.87.87,0,0,0,.27.27.77.77,0,0,0,.75,0l2.53-1.47.07,0,0,0,0,0h0l0-.05h0l0,0,0,0h0l0,0h0V5l0,0V4.88h0V4.76h0C15,4.67,15,4.65,15,4.63ZM12,6.54a.43.43,0,1,1-.42-.74.42.42,0,0,1,.58.16.4.4,0,0,1-.11.55Z"/><path class="cls-5" d="M5,5.53,3.57,4.7l-1.1-.64a.74.74,0,0,0-.76,0l-.06,0h0l0,.07,0,0,0,0h0l-.06.08,0,.08h0v0h0v0h0v.17a.73.73,0,0,0,.37.64l1,.7,1.42.8a.73.73,0,0,0,1-.23.74.74,0,0,0-.22-1L5,5.52Zm0,.85a.43.43,0,1,1-.15-.58A.43.43,0,0,1,5,6.38l0,0Z"/><ellipse class="cls-1" cx="13.9" cy="11.52" rx="1.18" ry="1.19" transform="translate(-4.08 13.19) rotate(-44.96)"/><circle class="cls-1" cx="8.19" cy="1.18" r="1.18"/><ellipse class="cls-1" cx="2.1" cy="11.74" rx="1.18" ry="1.19" transform="translate(-7.69 4.93) rotate(-45.04)"/></svg>