<svg id="Layer_1" data-name="Layer 1" xmlns="http://www.w3.org/2000/svg" xmlns:xlink="http://www.w3.org/1999/xlink" viewBox="0 0 180 180"><defs><style>.cls-1{fill:#1d2741;}.cls-2{fill:#47a025;}.cls-3{fill:url(#linear-gradient);}.cls-4{fill:url(#linear-gradient-2);}.cls-5{fill:url(#linear-gradient-3);}</style><linearGradient id="linear-gradient" x1="92.12" y1="117.19" x2="92.12" y2="67.6" gradientTransform="matrix(1, 0, 0, -1, 0, 247.6)" gradientUnits="userSpaceOnUse"><stop offset="0" stop-color="#8cd73f"/><stop offset="0.23" stop-color="#7ac838"/><stop offset="0.7" stop-color="#4aa226"/><stop offset="0.72" stop-color="#47a025"/></linearGradient><linearGradient id="linear-gradient-2" x1="128.96" y1="169.57" x2="163.98" y2="203.33" gradientTransform="matrix(1, 0, 0, -1, 0, 247.6)" gradientUnits="userSpaceOnUse"><stop offset="0" stop-color="#8cd73f"/><stop offset="0.28" stop-color="#77c637"/><stop offset="0.8" stop-color="#47a025"/></linearGradient><linearGradient id="linear-gradient-3" x1="25.48" y1="202.08" x2="56.09" y2="165.58" gradientTransform="matrix(1, 0, 0, -1, 0, 247.6)" gradientUnits="userSpaceOnUse"><stop offset="0" stop-color="#47a025"/><stop offset="0.19" stop-color="#4aa226"/><stop offset="0.3" stop-color="#52a929"/><stop offset="0.4" stop-color="#60b42f"/><stop offset="0.48" stop-color="#74c436"/><stop offset="0.55" stop-color="#8cd73f"/></linearGradient></defs><path class="cls-1" d="M105.29,90.44a13.5,13.5,0,1,0-13.14,15.39,12.7,12.7,0,0,0,4.86-.94,13.51,13.51,0,0,0,8.46-12.38A10.34,10.34,0,0,0,105.29,90.44ZM92.15,87.7a4.82,4.82,0,1,1-4.82,4.81v0A4.77,4.77,0,0,1,92.1,87.7Z"/><path class="cls-2" d="M105.29,90.44l-9-5.17A8.34,8.34,0,1,0,88,99.71l9,5.18,42.53,24.39a17,17,0,0,1,8.32-14.4ZM92.15,97.28A4.82,4.82,0,1,1,97,92.47h0A4.81,4.81,0,0,1,92.15,97.28Z"/><path class="cls-2" d="M40.21,52.91l-8.32,4.82V117a17.19,17.19,0,0,0-16.66,0V52.91c0-.4,0-.81,0-1.22v-.81h0a3,3,0,0,1,.27-.81h0a8.1,8.1,0,0,1,.45-.94,6.24,6.24,0,0,1,.59-.86l.4-.54,1-.94a7.32,7.32,0,0,1,1.3-1h0L75,13.49a17.15,17.15,0,0,0,8.32,14.44Z"/><path class="cls-2" d="M167.93,57.1l-.31.54-.32.36a3.41,3.41,0,0,1-.76.85,5.9,5.9,0,0,1-.5.5l-.54.4-.63.36a8.13,8.13,0,0,1-8.28,0h0L144,52.91,100.88,28a16.87,16.87,0,0,0,3.33-2.56,17.14,17.14,0,0,0,5.13-12l55.58,32.13.76.49.5.41.27.27.4.4a.74.74,0,0,1,.23.27l.27.32.45.67h0v.23a4.84,4.84,0,0,1,.36.72h0c0,.31.22.58.31.9s0,.36,0,.54a2.42,2.42,0,0,1,0,.76v1.13a2.18,2.18,0,0,1,0,.72,1.42,1.42,0,0,1,0,.58h0v.59h0l-.27.81A6.85,6.85,0,0,1,167.93,57.1Z"/><path class="cls-2" d="M152.63,146.34,96.42,178.83l-.76.4-.59.23a7.88,7.88,0,0,1-2.92.54,7.48,7.48,0,0,1-3.2-.68,4.07,4.07,0,0,1-.94-.45L32.43,146.79a17.07,17.07,0,0,0,8.32-14.4L92.15,162l8.32-4.82,39.47-22.77a17.08,17.08,0,0,0,7.87,10A16.53,16.53,0,0,0,152.63,146.34Z"/><path class="cls-3" d="M92.15,130.5a8.32,8.32,0,0,0-8.33,8.32v32.94A8.28,8.28,0,0,0,88,179l.94.45h0a2.15,2.15,0,0,0,.77.27h.63a1.94,1.94,0,0,0,.76,0,3.62,3.62,0,0,0,1,0,7.46,7.46,0,0,0,2.25-.31h.72l.49-.23.81-.4h0a8.25,8.25,0,0,0,4-7.11v-32.9A8.33,8.33,0,0,0,92.15,130.5Zm0,3.51a4.82,4.82,0,1,1-4.82,4.81h0a4.81,4.81,0,0,1,4.72-4.9h.1Z"/><path class="cls-4" d="M169,52.05v-.22h0v-.32h0a1.23,1.23,0,0,0,0-.54.86.86,0,0,0,0-.45,6.2,6.2,0,0,0-.36-1,4.17,4.17,0,0,0-.31-.54,1.22,1.22,0,0,0,0-.27,2.12,2.12,0,0,0-.36-.54l-.32-.4a1.9,1.9,0,0,0-.4-.45h0a3.22,3.22,0,0,0-.63-.54h0l-.59-.36h-.31a8.23,8.23,0,0,0-8.15,0L144,52.91l-16.07,9.27a8.33,8.33,0,0,0-3,11.38h0a8.2,8.2,0,0,0,3,3,8.3,8.3,0,0,0,8.37,0l28.54-16.47a2.92,2.92,0,0,0,.76-.54l.45-.31a1.77,1.77,0,0,0,.41-.41.41.41,0,0,0,.22,0,2.32,2.32,0,0,0,.54-.63h0l.27-.4.27-.41h0a6.49,6.49,0,0,0,.32-.63h0a1.34,1.34,0,0,0,0-.4,3.23,3.23,0,0,0,.22-.59v-.22a1.34,1.34,0,0,0,0-.63h0a1.41,1.41,0,0,0,0-.41,9,9,0,0,0,0-1h0C169.06,52.55,169,52.32,169,52.05ZM134.58,73.52A4.77,4.77,0,1,1,136.34,67a4.49,4.49,0,0,1-1.26,6.23A3.1,3.1,0,0,1,134.58,73.52Z"/><path class="cls-5" d="M56.28,62.18,40.21,52.91l-12.46-7.2a8.32,8.32,0,0,0-8.51,0l-.68.45h0l-.58.76-.41.45-.4.45h0a6.24,6.24,0,0,0-.59.86l-.45.9h0V50h0a1.69,1.69,0,0,0,0,.45h0a4.82,4.82,0,0,0,0,.76,4.17,4.17,0,0,0,0,.5v.72a8.22,8.22,0,0,0,4.14,7.2l11.66,7.83,16,9a8.33,8.33,0,1,0,9-14l-.64-.37Zm0,9.59a3.4,3.4,0,1,1,.15,0l-.15.26Z"/><ellipse class="cls-1" cx="156.37" cy="129.64" rx="13.23" ry="13.37" transform="translate(-45.88 148.4) rotate(-44.96)"/><circle class="cls-1" cx="92.16" cy="13.32" r="13.32"/><ellipse class="cls-1" cx="23.63" cy="132.1" rx="13.23" ry="13.37" transform="translate(-86.54 55.48) rotate(-45.04)"/></svg>