<svg id="Layer_1" data-name="Layer 1" xmlns="http://www.w3.org/2000/svg" xmlns:xlink="http://www.w3.org/1999/xlink" viewBox="0 0 72 72"><defs><style>.cls-1{fill:#1d2741;}.cls-2{fill:#47a025;}.cls-3{fill:url(#linear-gradient);}.cls-4{fill:url(#linear-gradient-2);}.cls-5{fill:url(#linear-gradient-3);}</style><linearGradient id="linear-gradient" x1="36.85" y1="448.84" x2="36.85" y2="429" gradientTransform="matrix(1, 0, 0, -1, 0, 501)" gradientUnits="userSpaceOnUse"><stop offset="0" stop-color="#8cd73f"/><stop offset="0.23" stop-color="#7ac838"/><stop offset="0.7" stop-color="#4aa226"/><stop offset="0.72" stop-color="#47a025"/></linearGradient><linearGradient id="linear-gradient-2" x1="51.59" y1="469.79" x2="65.59" y2="483.29" gradientTransform="matrix(1, 0, 0, -1, 0, 501)" gradientUnits="userSpaceOnUse"><stop offset="0" stop-color="#8cd73f"/><stop offset="0.28" stop-color="#77c637"/><stop offset="0.8" stop-color="#47a025"/></linearGradient><linearGradient id="linear-gradient-3" x1="10.19" y1="482.79" x2="22.43" y2="468.19" gradientTransform="matrix(1, 0, 0, -1, 0, 501)" gradientUnits="userSpaceOnUse"><stop offset="0" stop-color="#47a025"/><stop offset="0.19" stop-color="#4aa226"/><stop offset="0.3" stop-color="#52a929"/><stop offset="0.4" stop-color="#60b42f"/><stop offset="0.48" stop-color="#74c436"/><stop offset="0.55" stop-color="#8cd73f"/></linearGradient></defs><path class="cls-1" d="M42.11,36.18a5.4,5.4,0,1,0-5.25,6.15A5,5,0,0,0,38.8,42a5.41,5.41,0,0,0,3.39-5A3.83,3.83,0,0,0,42.11,36.18Zm-5.25-1.1A1.93,1.93,0,1,1,34.93,37v0a1.91,1.91,0,0,1,1.91-1.91Z"/><path class="cls-2" d="M42.11,36.18l-3.6-2.07a3.34,3.34,0,0,0-3.33,5.78L38.78,42l17,9.75A6.79,6.79,0,0,1,59.13,46Zm-5.25,2.73A1.93,1.93,0,1,1,38.78,37h0A1.92,1.92,0,0,1,36.86,38.91Z"/><path class="cls-2" d="M16.08,21.16l-3.33,1.93V46.8a6.86,6.86,0,0,0-6.66,0V21.16a3.84,3.84,0,0,1,0-.48v-.33h0A1.21,1.21,0,0,1,6.2,20h0a2.43,2.43,0,0,1,.42-.72l.16-.22.41-.37a2.78,2.78,0,0,1,.52-.4h0L30,5.39a6.87,6.87,0,0,0,3.33,5.78Z"/><path class="cls-2" d="M67.17,22.84l-.12.21-.13.15a1.43,1.43,0,0,1-.31.34,1.8,1.8,0,0,1-.19.2l-.22.16L66,24a3.22,3.22,0,0,1-3.31,0h0l-5-2.88L40.35,11.21a6.67,6.67,0,0,0,1.33-1,6.8,6.8,0,0,0,2-4.79L66,18.25l.3.2.2.16.11.11.16.16a.24.24,0,0,1,.09.11l.11.12.18.27h0v.09a1.11,1.11,0,0,1,.14.29h0c0,.13.09.23.13.36a.53.53,0,0,1,0,.22.76.76,0,0,1,0,.3v.45a.71.71,0,0,1,0,.29.45.45,0,0,1,0,.23h0v.24h0l-.11.32A2.54,2.54,0,0,1,67.17,22.84Z"/><path class="cls-2" d="M61.05,58.53l-22.48,13-.31.16-.23.09a3.19,3.19,0,0,1-2.45,0,2.64,2.64,0,0,1-.38-.18L13,58.71A6.82,6.82,0,0,0,16.3,53L36.86,64.8l3.33-1.93L56,53.76a6.8,6.8,0,0,0,3.15,4A6.29,6.29,0,0,0,61.05,58.53Z"/><path class="cls-3" d="M36.86,52.2a3.33,3.33,0,0,0-3.33,3.33V68.71a3.32,3.32,0,0,0,1.67,2.88l.38.18h0a.81.81,0,0,0,.31.1h.25a.76.76,0,0,0,.3,0,1.48,1.48,0,0,0,.42,0,3.05,3.05,0,0,0,.9-.12h.29l.19-.09.33-.16h0a3.29,3.29,0,0,0,1.6-2.85V55.49A3.32,3.32,0,0,0,36.86,52.2Zm0,1.4a1.93,1.93,0,1,1-1.93,1.93h0a1.93,1.93,0,0,1,1.89-2h0Z"/><path class="cls-4" d="M67.6,20.82v-.09h0v-.12h0a.41.41,0,0,0,0-.22.28.28,0,0,0,0-.18,1.9,1.9,0,0,0-.14-.4,1.2,1.2,0,0,0-.13-.21.21.21,0,0,0,0-.11.74.74,0,0,0-.14-.22l-.13-.16a.55.55,0,0,0-.16-.18h0a1.27,1.27,0,0,0-.25-.21h0l-.23-.15h-.13a3.32,3.32,0,0,0-3.26,0L57.6,21.16l-6.43,3.71A3.33,3.33,0,0,0,50,29.42h0a3.24,3.24,0,0,0,1.21,1.2,3.34,3.34,0,0,0,3.35,0L65.93,24a1.06,1.06,0,0,0,.31-.21l.18-.13a.81.81,0,0,0,.16-.16.14.14,0,0,0,.09,0,1,1,0,0,0,.21-.25h0l.11-.16L67.1,23h0s.09-.16.13-.25h0v-.16l.09-.23v-.09a.57.57,0,0,0,0-.26h0a.43.43,0,0,0,0-.16V21.4h0C67.62,21,67.6,20.93,67.6,20.82ZM53.83,29.41a1.91,1.91,0,1,1,.71-2.61A1.79,1.79,0,0,1,54,29.29,1.32,1.32,0,0,1,53.83,29.41Z"/><path class="cls-5" d="M22.51,24.87l-6.43-3.71-5-2.88a3.34,3.34,0,0,0-3.4,0l-.27.18h0l-.24.31L7,19l-.16.18h0a2.62,2.62,0,0,0-.24.34l-.18.36h0V20h0a.54.54,0,0,0,0,.18h0V21a3.28,3.28,0,0,0,1.66,2.88L12.77,27l6.41,3.6A3.33,3.33,0,0,0,22.77,25a1.35,1.35,0,0,0-.26-.15Zm0,3.84a1.36,1.36,0,1,1,.06,0l-.06.11Z"/><ellipse class="cls-1" cx="62.55" cy="51.85" rx="5.29" ry="5.35" transform="translate(-18.35 59.36) rotate(-44.96)"/><circle class="cls-1" cx="36.86" cy="5.33" r="5.33"/><ellipse class="cls-1" cx="9.45" cy="52.84" rx="5.29" ry="5.35" transform="translate(-34.62 22.19) rotate(-45.04)"/></svg>