<?xml version="1.0" standalone="no"?> <!DOCTYPE svg PUBLIC "-//W3C//DTD SVG 1.0//EN" "http://www.w3.org/TR/2001/REC-SVG-20010904/DTD/svg10.dtd" > <svg xmlns="http://www.w3.org/2000/svg" width="100%" height="100%">
<defs >
<font horiz-adv-x="306" ><font-face
    font-family="Makimango"
    units-per-em="1000"
    panose-1="0 0 4 0 0 0 0 0 0 0"
    ascent="800"
    descent="-200"
    alphabetic="0" />
<missing-glyph horiz-adv-x="500" d="M63 0V800H438V0H63ZM125 63H375V738H125V63Z" />
<glyph unicode=" " glyph-name="space" horiz-adv-x="248" />
<glyph unicode="!" glyph-name="exclam" horiz-adv-x="173" d="M125 125H0V500H125V125ZM100 38Q100 22 89 11T63 0Q47 0 36 11T25 38Q25 53 36 64T63 75Q78 75 89 64T100 38Z" />
<glyph unicode="&quot;" glyph-name="quotedbl" horiz-adv-x="348" d="M300 325H175V500H300V325ZM125 325H0V500H125V325Z" />
<glyph unicode="#" glyph-name="numbersign" horiz-adv-x="498" d="M450 100H375V0H250V100H200V0H75V100H0V200H75V300H0V400H75V500H200V400H250V500H375V400H450V300H375V200H450V100ZM250 200V300H200V200H250Z" />
<glyph unicode="$" glyph-name="dollar" horiz-adv-x="273" d="M225 75Q225 44 203 22T150 0V-100H100V0H0V100H75Q100 100 100 125V175Q100 200 75 200Q44 200 22 222T0 275V425Q0 456 22 478T75 500V600H125V500H225V400H150Q125 400 125 375V325Q125 300 150
300Q181 300 203 278T225 225V75Z" />
<glyph unicode="%" glyph-name="percent" horiz-adv-x="898" d="M850 125Q850 94 828 72T775 50H625Q594 50 572 72T550 125V275Q550 306 572 328T625 350H775Q806 350 828 328T850 275V125ZM525 500L450 0H325L400 500H525ZM300 225Q300 194 278 172T225 150H75Q44
150 22 172T0 225V375Q0 406 22 428T75 450H225Q256 450 278 428T300 375V225ZM725 175V225Q725 250 700 250Q675 250 675 225V175Q675 150 700 150Q725 150 725 175ZM175 275V325Q175 350 150 350Q125 350 125 325V275Q125 250 150 250Q175 250 175 275Z" />
<glyph unicode="&amp;" glyph-name="ampersand" horiz-adv-x="423" d="M375 250H300V0H75Q44 0 22 22T0 75V425Q0 456 22 478T75 500H275V400H150Q125 400 125 375V350H375V250ZM175 100V250H125V125Q125 100 150 100H175Z" />
<glyph unicode="&apos;" glyph-name="quotesingle" horiz-adv-x="173" d="M125 325H0V500H125V325Z" />
<glyph unicode="(" glyph-name="parenleft" horiz-adv-x="248" d="M200 -150H75Q44 -150 22 -128T0 -75V575Q0 606 22 628T75 650H200V550H150Q125 550 125 525V-25Q125 -50 150 -50H200V-150Z" />
<glyph unicode=")" glyph-name="parenright" horiz-adv-x="248" d="M200 -75Q200 -106 178 -128T125 -150H0V-50H50Q75 -50 75 -25V525Q75 550 50 550H0V650H125Q156 650 178 628T200 575V-75Z" />
<glyph unicode="*" glyph-name="asterisk" horiz-adv-x="373" d="M325 200H253L304 149L251 96L200 147V75H125V147L74 96L21 149L72 200H0V275H72L21 326L74 379L125 328V400H200V328L251 379L304 326L253 275H325V200Z" />
<glyph unicode="+" glyph-name="plus" horiz-adv-x="323" d="M275 200H200V100H75V200H0V300H75V400H200V300H275V200Z" />
<glyph unicode="," glyph-name="comma" horiz-adv-x="173" d="M125 0L25 -100L0 -75L50 0H0V100H125V0Z" />
<glyph unicode="-" glyph-name="hyphen" horiz-adv-x="298" d="M250 200H0V300H250V200Z" />
<glyph unicode="." glyph-name="period" horiz-adv-x="123" d="M75 38Q75 22 64 11T38 0Q22 0 11 11T0 38Q0 53 11 64T38 75Q53 75 64 64T75 38Z" />
<glyph unicode="/" glyph-name="slash" horiz-adv-x="248" d="M200 500L125 0H0L75 500H200Z" />
<glyph unicode="0" glyph-name="zero" horiz-adv-x="348" d="M300 75Q300 44 278 22T225 0H75Q44 0 22 22T0 75V425Q0 456 22 478T75 500H225Q256 500 278 478T300 425V75ZM175 125V375Q175 400 150 400Q125 400 125 375V125Q125 100 150 100Q175 100 175 125Z" />
<glyph unicode="1" glyph-name="one" horiz-adv-x="173" d="M125 0H0V500H125V0Z" />
<glyph unicode="2" glyph-name="two" horiz-adv-x="273" d="M225 0H0V225Q0 256 22 278T75 300Q100 300 100 325V375Q100 400 75 400H0V500H150Q181 500 203 478T225 425V275Q225 244 203 222T150 200Q125 200 125 175V100H225V0Z" />
<glyph unicode="3" glyph-name="three" horiz-adv-x="273" d="M225 75Q225 44 203 22T150 0H0V100H75Q100 100 100 125V175Q100 200 75 200H0V300H75Q100 300 100 325V375Q100 400 75 400H0V500H150Q181 500 203 478T225 425V325Q225 294 203 272T150 250Q181
250 203 228T225 175V75Z" />
<glyph unicode="4" glyph-name="four" horiz-adv-x="348" d="M300 0H175V175H75Q44 175 22 197T0 250V500H125V300Q125 275 150 275H175V500H300V0Z" />
<glyph unicode="5" glyph-name="five" horiz-adv-x="273" d="M225 75Q225 44 203 22T150 0H0V100H75Q100 100 100 125V175Q100 200 75 200H0V500H225V400H125V300H150Q181 300 203 278T225 225V75Z" />
<glyph unicode="6" glyph-name="six" horiz-adv-x="348" d="M300 75Q300 44 278 22T225 0H75Q44 0 22 22T0 75V425Q0 456 22 478T75 500H275V400H150Q125 400 125 375V350H225Q256 350 278 328T300 275V75ZM175 125V200Q175 225 150 225H125V125Q125 100 150 100Q175
100 175 125Z" />
<glyph unicode="7" glyph-name="seven" horiz-adv-x="298" d="M250 500L125 0H0L97 400H0V500H250Z" />
<glyph unicode="8" glyph-name="eight" horiz-adv-x="348" d="M300 75Q300 44 278 22T225 0H75Q44 0 22 22T0 75V175Q0 206 22 228T75 250Q44 250 22 272T0 325V425Q0 456 22 478T75 500H225Q256 500 278 478T300 425V325Q300 294 278 272T225 250Q256 250 278
228T300 175V75ZM175 325V375Q175 400 150 400Q125 400 125 375V325Q125 300 150 300Q175 300 175 325ZM175 125V175Q175 200 150 200Q125 200 125 175V125Q125 100 150 100Q175 100 175 125Z" />
<glyph unicode="9" glyph-name="nine" horiz-adv-x="348" d="M300 75Q300 44 278 22T225 0H25V100H150Q175 100 175 125V150H75Q44 150 22 172T0 225V425Q0 456 22 478T75 500H225Q256 500 278 478T300 425V75ZM175 275V375Q175 400 150 400Q125 400 125 375V300Q125
275 150 275H175Z" />
<glyph unicode=":" glyph-name="colon" horiz-adv-x="123" d="M75 288Q75 272 64 261T38 250Q22 250 11 261T0 288Q0 303 11 314T38 325Q53 325 64 314T75 288ZM75 113Q75 97 64 86T38 75Q22 75 11 86T0 113Q0 128 11 139T38 150Q53 150 64 139T75 113Z" />
<glyph unicode=";" glyph-name="semicolon" horiz-adv-x="173" d="M100 175Q100 159 89 149T63 138Q47 138 36 148T25 175Q25 191 36 202T63 213Q78 213 89 202T100 175ZM125 0L25 -100L0 -75L50 0H0V100H125V0Z" />
<glyph unicode="&lt;" glyph-name="less" horiz-adv-x="298" d="M250 50L0 150V250L250 350V250L125 200L250 150V50Z" />
<glyph unicode="=" glyph-name="equal" horiz-adv-x="298" d="M250 275H0V375H250V275ZM250 125H0V225H250V125Z" />
<glyph unicode="&gt;" glyph-name="greater" horiz-adv-x="298" d="M250 150L0 50V150L125 200L0 250V350L250 250V150Z" />
<glyph unicode="?" glyph-name="question" horiz-adv-x="273" d="M225 275Q225 244 203 222T150 200Q125 200 125 175V125H0V225Q0 256 22 278T75 300Q100 300 100 325V375Q100 400 75 400H0V500H150Q181 500 203 478T225 425V275ZM100 38Q100 22 89 11T63 0Q47
0 36 11T25 38Q25 53 36 64T63 75Q78 75 89 64T100 38Z" />
<glyph unicode="@" glyph-name="at" horiz-adv-x="523" d="M475 0H75Q44 0 22 22T0 75V425Q0 456 22 478T75 500H400Q431 500 453 478T475 425V225Q475 194 453 172T400 150H250Q219 150 197 172T175 225V325Q175 356 197 378T250 400H150Q125 400 125 375V125Q125
100 150 100H475V0ZM350 275V375Q350 400 325 400Q300 400 300 375V275Q300 250 325 250Q350 250 350 275Z" />
<glyph unicode="A" glyph-name="A" horiz-adv-x="348" d="M300 0H175V125H125V0H0V425Q0 456 22 478T75 500H225Q256 500 278 478T300 425V0ZM175 225V375Q175 400 150 400Q125 400 125 375V225H175Z" />
<glyph unicode="B" glyph-name="B" horiz-adv-x="348" d="M300 75Q300 44 278 22T225 0H0V500H225Q256 500 278 478T300 425V325Q300 294 278 272T225 250Q256 250 278 228T300 175V75ZM175 325V375Q175 400 150 400H125V300H150Q175 300 175 325ZM175 125V175Q175
200 150 200H125V100H150Q175 100 175 125Z" />
<glyph unicode="C" glyph-name="C" horiz-adv-x="248" d="M200 0H75Q44 0 22 22T0 75V425Q0 456 22 478T75 500H200V400H150Q125 400 125 375V125Q125 100 150 100H200V0Z" />
<glyph unicode="D" glyph-name="D" horiz-adv-x="348" d="M300 75Q300 44 278 22T225 0H0V500H225Q256 500 278 478T300 425V75ZM175 125V375Q175 400 150 400H125V100H150Q175 100 175 125Z" />
<glyph unicode="E" glyph-name="E" horiz-adv-x="273" d="M225 0H75Q44 0 22 22T0 75V425Q0 456 22 478T75 500H225V400H150Q125 400 125 375V300H225V200H125V125Q125 100 150 100H225V0Z" />
<glyph unicode="F" glyph-name="F" horiz-adv-x="273" d="M225 175H125V0H0V500H225V400H125V275H225V175Z" />
<glyph unicode="G" glyph-name="G" horiz-adv-x="348" d="M300 0H75Q44 0 22 22T0 75V425Q0 456 22 478T75 500H275V400H150Q125 400 125 375V125Q125 100 150 100H175V225H150V325H300V0Z" />
<glyph unicode="H" glyph-name="H" horiz-adv-x="348" d="M300 0H175V200H125V0H0V500H125V300H175V500H300V0Z" />
<glyph unicode="I" glyph-name="I" horiz-adv-x="173" d="M125 0H0V500H125V0Z" />
<glyph unicode="J" glyph-name="J" horiz-adv-x="248" d="M200 75Q200 44 178 22T125 0H0V100H50Q75 100 75 125V500H200V75Z" />
<glyph unicode="K" glyph-name="K" horiz-adv-x="348" d="M300 0H175V175Q175 200 150 200H125V0H0V500H125V300H150Q175 300 175 325V500H300V325Q300 294 278 272T225 250Q256 250 278 228T300 175V0Z" />
<glyph unicode="L" glyph-name="L" horiz-adv-x="248" d="M200 0H0V500H125V100H200V0Z" />
<glyph unicode="M" glyph-name="M" horiz-adv-x="523" d="M475 0H350V375Q350 400 325 400Q300 400 300 375V0H175V375Q175 400 150 400Q125 400 125 375V0H0V500H125V450Q125 471 139 485T175 500H200Q240 500 263 466Q285 500 325 500H400Q431 500 453 478T475 425V0Z" />
<glyph unicode="N" glyph-name="N" horiz-adv-x="348" d="M300 0H175V375Q175 400 150 400Q125 400 125 375V0H0V500H125V450Q125 471 139 485T175 500H225Q256 500 278 478T300 425V0Z" />
<glyph unicode="O" glyph-name="O" horiz-adv-x="348" d="M300 75Q300 44 278 22T225 0H75Q44 0 22 22T0 75V425Q0 456 22 478T75 500H225Q256 500 278 478T300 425V75ZM175 125V375Q175 400 150 400Q125 400 125 375V125Q125 100 150 100Q175 100 175 125Z" />
<glyph unicode="P" glyph-name="P" horiz-adv-x="348" d="M300 250Q300 219 278 197T225 175H125V0H0V500H225Q256 500 278 478T300 425V250ZM175 300V375Q175 400 150 400H125V275H150Q175 275 175 300Z" />
<glyph unicode="Q" glyph-name="Q" horiz-adv-x="348" d="M300 75Q300 44 278 22T225 0V-25Q225 -50 250 -50Q275 -50 275 -25V-100Q275 -121 261 -135T225 -150H175Q144 -150 122 -128T100 -75V0H75Q44 0 22 22T0 75V425Q0 456 22 478T75 500H225Q256 500 278
478T300 425V75ZM175 125V375Q175 400 150 400Q125 400 125 375V125Q125 100 150 100Q175 100 175 125Z" />
<glyph unicode="R" glyph-name="R" horiz-adv-x="348" d="M300 0H175V150Q175 175 150 175H125V0H0V500H225Q256 500 278 478T300 425V300Q300 269 278 247T225 225Q256 225 278 203T300 150V0ZM175 300V375Q175 400 150 400H125V275H150Q175 275 175 300Z" />
<glyph unicode="S" glyph-name="S" horiz-adv-x="273" d="M225 75Q225 44 203 22T150 0H0V100H75Q100 100 100 125V175Q100 200 75 200Q44 200 22 222T0 275V425Q0 456 22 478T75 500H225V400H150Q125 400 125 375V325Q125 300 150 300Q181 300 203 278T225 225V75Z" />
<glyph unicode="T" glyph-name="T" horiz-adv-x="273" d="M225 400H175V0H50V400H0V500H225V400Z" />
<glyph unicode="U" glyph-name="U" horiz-adv-x="348" d="M300 75Q300 44 278 22T225 0H75Q44 0 22 22T0 75V500H125V125Q125 100 150 100Q175 100 175 125V500H300V75Z" />
<glyph unicode="V" glyph-name="V" horiz-adv-x="348" d="M300 300Q300 178 263 94Q221 0 150 0Q94 0 47 94T0 300V500H125V300Q125 150 150 125Q175 150 175 300V500H300V300Z" />
<glyph unicode="W" glyph-name="W" horiz-adv-x="523" d="M475 75Q475 44 453 22T400 0H300Q260 0 238 34Q215 0 175 0H75Q44 0 22 22T0 75V500H125V125Q125 100 150 100Q175 100 175 125V500H300V125Q300 100 325 100Q350 100 350 125V500H475V75Z" />
<glyph unicode="X" glyph-name="X" horiz-adv-x="348" d="M300 0H175V175Q175 200 150 200Q125 200 125 175V0H0V175Q0 206 22 228T75 250Q44 250 22 272T0 325V500H125V325Q125 300 150 300Q175 300 175 325V500H300V325Q300 294 278 272T225 250Q256 250 278
228T300 175V0Z" />
<glyph unicode="Y" glyph-name="Y" horiz-adv-x="348" d="M300 250Q300 219 278 197T225 175H213V0H88V175H75Q44 175 22 197T0 250V500H125V300Q125 275 150 275Q175 275 175 300V500H300V250Z" />
<glyph unicode="Z" glyph-name="Z" horiz-adv-x="298" d="M250 0H0L97 400H0V500H250L153 100H250V0Z" />
<glyph unicode="[" glyph-name="bracketleft" horiz-adv-x="248" d="M200 -150H0V650H200V550H125V-50H200V-150Z" />
<glyph unicode="\" glyph-name="backslash" horiz-adv-x="248" d="M200 0H75L0 500H125L200 0Z" />
<glyph unicode="]" glyph-name="bracketright" horiz-adv-x="248" d="M200 -150H0V-50H75V550H0V650H200V-150Z" />
<glyph unicode="^" glyph-name="asciicircum" horiz-adv-x="348" d="M300 375H190L150 425L110 375H0L100 500H200L300 375Z" />
<glyph unicode="_" glyph-name="underscore" horiz-adv-x="298" d="M250 0H0V100H250V0Z" />
<glyph unicode="`" glyph-name="grave" horiz-adv-x="173" d="M125 400H75L0 500H100L125 400Z" />
<glyph unicode="a" glyph-name="a" horiz-adv-x="348" d="M350 50Q350 29 336 15T300 0H250Q219 0 197 22T175 75V50Q175 29 161 15T125 0H75Q44 0 22 22T0 75V175Q0 206 22 228T75 250H175V275Q175 300 150 300H25V400H225Q256 400 278 378T300 325V125Q300 100
325 100Q350 100 350 125V50ZM175 125V150H150Q125 150 125 125Q125 100 150 100Q175 100 175 125Z" />
<glyph unicode="b" glyph-name="b" horiz-adv-x="348" d="M300 75Q300 44 278 22T225 0H175Q154 0 140 14T125 50V75Q125 44 103 22T50 0H0Q-21 0 -35 14T-50 50V125Q-50 100 -25 100Q0 100 0 125V500H125V350Q125 371 139 385T175 400H225Q256 400 278 378T300
325V75ZM175 125V275Q175 300 150 300Q125 300 125 275V125Q125 100 150 100Q175 100 175 125Z" />
<glyph unicode="c" glyph-name="c" horiz-adv-x="248" d="M200 0H75Q44 0 22 22T0 75V325Q0 356 22 378T75 400H200V300H150Q125 300 125 275V125Q125 100 150 100H200V0Z" />
<glyph unicode="d" glyph-name="d" horiz-adv-x="348" d="M350 50Q350 29 336 15T300 0H250Q219 0 197 22T175 75V50Q175 29 161 15T125 0H75Q44 0 22 22T0 75V325Q0 356 22 378T75 400H125Q146 400 160 386T175 350V500H300V125Q300 100 325 100Q350 100 350
125V50ZM175 125V275Q175 300 150 300Q125 300 125 275V125Q125 100 150 100Q175 100 175 125Z" />
<glyph unicode="e" glyph-name="e" horiz-adv-x="348" d="M300 0H75Q44 0 22 22T0 75V325Q0 356 22 378T75 400H225Q256 400 278 378T300 325V150H125V125Q125 100 150 100H300V0ZM175 250V275Q175 300 150 300Q125 300 125 275V250H175Z" />
<glyph unicode="f" glyph-name="f" horiz-adv-x="273" d="M225 150H175V0H50V150H0V250H50V425Q50 456 72 478T125 500H175Q196 500 210 486T225 450V375Q225 400 200 400Q175 400 175 375V250H225V150Z" />
<glyph unicode="g" glyph-name="g" horiz-adv-x="348" d="M350 50Q350 29 336 15T300 0V-75Q300 -106 278 -128T225 -150H175Q154 -150 140 -136T125 -100V-25Q125 -50 150 -50Q175 -50 175 -25V50Q175 29 161 15T125 0H75Q44 0 22 22T0 75V325Q0 356 22 378T75
400H125Q146 400 160 386T175 350V400H300V125Q300 100 325 100Q350 100 350 125V50ZM175 125V275Q175 300 150 300Q125 300 125 275V125Q125 100 150 100Q175 100 175 125Z" />
<glyph unicode="h" glyph-name="h" horiz-adv-x="348" d="M350 50Q350 29 336 15T300 0H250Q219 0 197 22T175 75V275Q175 300 150 300Q125 300 125 275V0H0V500H125V350Q149 400 175 400H225Q256 400 278 378T300 325V125Q300 100 325 100Q350 100 350 125V50Z" />
<glyph unicode="i" glyph-name="i" horiz-adv-x="173" d="M100 475Q100 459 89 449T63 438Q47 438 36 448T25 475Q25 491 36 502T63 513Q78 513 89 502T100 475ZM175 50Q175 29 161 15T125 0H75Q44 0 22 22T0 75V400H125V125Q125 100 150 100Q175 100 175 125V50Z" />
<glyph unicode="j" glyph-name="j" horiz-adv-x="173" d="M100 475Q100 459 89 449T63 438Q47 438 36 448T25 475Q25 491 36 502T63 513Q78 513 89 502T100 475ZM175 50Q175 29 161 15T125 0V-75Q125 -106 103 -128T50 -150H0Q-21 -150 -35 -136T-50 -100V-25Q-50
-50 -25 -50Q0 -50 0 -25V400H125V125Q125 100 150 100Q175 100 175 125V50Z" />
<glyph unicode="k" glyph-name="k" horiz-adv-x="348" d="M350 50Q350 29 336 15T300 0H250Q219 0 197 22T175 75V125Q175 150 150 150H125V0H0V500H125V250H150Q175 250 175 275V400H300V275Q300 244 278 222T225 200Q256 200 278 178T300 125Q300 100 325 100Q350
100 350 125V50Z" />
<glyph unicode="l" glyph-name="l" horiz-adv-x="173" d="M175 50Q175 29 161 15T125 0H75Q44 0 22 22T0 75V500H125V125Q125 100 150 100Q175 100 175 125V50Z" />
<glyph unicode="m" glyph-name="m" horiz-adv-x="523" d="M525 50Q525 29 511 15T475 0H425Q394 0 372 22T350 75V275Q350 300 325 300Q300 300 300 275V0H175V275Q175 300 150 300Q125 300 125 275V0H0V400H125V350Q125 371 139 385T175 400H200Q240 400 263
366Q285 400 325 400H400Q431 400 453 378T475 325V125Q475 100 500 100Q525 100 525 125V50Z" />
<glyph unicode="n" glyph-name="n" horiz-adv-x="348" d="M350 50Q350 29 336 15T300 0H250Q219 0 197 22T175 75V275Q175 300 150 300Q125 300 125 275V0H0V400H125V350Q125 371 139 385T175 400H225Q256 400 278 378T300 325V125Q300 100 325 100Q350 100 350 125V50Z" />
<glyph unicode="o" glyph-name="o" horiz-adv-x="348" d="M300 75Q300 44 278 22T225 0H75Q44 0 22 22T0 75V325Q0 356 22 378T75 400H225Q256 400 278 378T300 325V75ZM175 125V275Q175 300 150 300Q125 300 125 275V125Q125 100 150 100Q175 100 175 125Z" />
<glyph unicode="p" glyph-name="p" horiz-adv-x="348" d="M300 75Q300 44 278 22T225 0H175Q154 0 140 14T125 50V-100H0V400H125V350Q125 371 139 385T175 400H225Q256 400 278 378T300 325V75ZM175 125V275Q175 300 150 300Q125 300 125 275V125Q125 100 150
100Q175 100 175 125Z" />
<glyph unicode="q" glyph-name="q" horiz-adv-x="348" d="M350 50Q350 29 336 15T300 0V-100H175V50Q175 29 161 15T125 0H75Q44 0 22 22T0 75V325Q0 356 22 378T75 400H125Q146 400 160 386T175 350V400H300V125Q300 100 325 100Q350 100 350 125V50ZM175 125V275Q175
300 150 300Q125 300 125 275V125Q125 100 150 100Q175 100 175 125Z" />
<glyph unicode="r" glyph-name="r" horiz-adv-x="348" d="M300 175H175V275Q175 300 150 300Q125 300 125 275V0H0V400H125V350Q125 371 139 385T175 400H225Q256 400 278 378T300 325V175Z" />
<glyph unicode="s" glyph-name="s" horiz-adv-x="273" d="M225 75Q225 44 203 22T150 0H0V125Q0 100 25 100H75Q100 100 100 125Q100 150 75 150Q44 150 22 172T0 225V325Q0 356 22 378T75 400H225V300H150Q125 300 125 275Q125 250 150 250Q181 250 203 228T225 175V75Z" />
<glyph unicode="t" glyph-name="t" horiz-adv-x="273" d="M225 50Q225 29 211 15T175 0H125Q94 0 72 22T50 75V300H0V400H50V500H175V400H225V300H175V125Q175 100 200 100Q225 100 225 125V50Z" />
<glyph unicode="u" glyph-name="u" horiz-adv-x="348" d="M350 50Q350 29 336 15T300 0H250Q219 0 197 22T175 75V50Q175 29 161 15T125 0H75Q44 0 22 22T0 75V400H125V125Q125 100 150 100Q175 100 175 125V400H300V125Q300 100 325 100Q350 100 350 125V50Z" />
<glyph unicode="v" glyph-name="v" horiz-adv-x="348" d="M300 250Q300 134 263 69Q223 0 150 0Q91 0 47 69Q0 142 0 250V400H125V250Q125 150 150 125Q175 150 175 250V400H300V250Z" />
<glyph unicode="w" glyph-name="w" horiz-adv-x="523" d="M525 50Q525 29 511 15T475 0H425Q394 0 372 22T350 75V50Q350 29 336 15T300 0H275Q235 0 213 34Q190 0 150 0H75Q44 0 22 22T0 75V400H125V125Q125 100 150 100Q175 100 175 125V400H300V125Q300 100
325 100Q350 100 350 125V400H475V125Q475 100 500 100Q525 100 525 125V50Z" />
<glyph unicode="x" glyph-name="x" horiz-adv-x="348" d="M350 50Q350 29 336 15T300 0H250Q219 0 197 22T175 75V125Q175 150 150 150Q125 150 125 125V0H0V125Q0 156 22 178T75 200Q44 200 22 222T0 275V400H125V275Q125 250 150 250Q175 250 175 275V400H300V275Q300
244 278 222T225 200Q256 200 278 178T300 125Q300 100 325 100Q350 100 350 125V50Z" />
<glyph unicode="y" glyph-name="y" horiz-adv-x="348" d="M350 50Q350 29 336 15T300 0V-75Q300 -106 278 -128T225 -150H175Q154 -150 140 -136T125 -100V-25Q125 -50 150 -50Q175 -50 175 -25V50Q175 29 161 15T125 0H75Q44 0 22 22T0 75V400H125V125Q125 100
150 100Q175 100 175 125V400H300V125Q300 100 325 100Q350 100 350 125V50Z" />
<glyph unicode="z" glyph-name="z" horiz-adv-x="298" d="M250 0H0L97 300H0V400H250L153 100H250V0Z" />
<glyph unicode="{" glyph-name="braceleft" horiz-adv-x="398" d="M350 -150H225Q194 -150 172 -128T150 -75V5Q82 40 41 105T0 250Q0 329 42 396Q82 460 150 495V575Q150 606 172 628T225 650H350V550H300Q275 550 275 525V400Q213 400 169 356T125 250Q125 188
169 144T275 100V-25Q275 -50 300 -50H350V-150Z" />
<glyph unicode="|" glyph-name="bar" horiz-adv-x="173" d="M125 -150H0V650H125V-150Z" />
<glyph unicode="}" glyph-name="braceright" horiz-adv-x="398" d="M350 250Q350 171 309 106T200 5V-75Q200 -106 178 -128T125 -150H0V-50H50Q75 -50 75 -25V100Q137 100 181 144T225 250Q225 312 181 356T75 400V525Q75 550 50 550H0V650H125Q156 650 178 628T200
575V495Q268 460 308 396Q350 329 350 250Z" />
<glyph unicode="~" glyph-name="asciitilde" horiz-adv-x="348" d="M300 500Q300 437 284 409Q265 375 213 375Q188 375 144 394T75 413Q59 413 44 403Q25 392 25 375H0Q0 438 16 466Q35 500 88 500Q113 500 156 482T225 463Q242 463 258 473T275 500H300Z" />
</font>
</defs>
</svg>
