<?xml version="1.0" encoding="UTF-8" standalone="no"?>
<!DOCTYPE svg PUBLIC "-//W3C//DTD SVG 1.1//EN" "http://www.w3.org/Graphics/SVG/1.1/DTD/svg11.dtd">
<!-- Generated by Microsoft Visio, SVG Export onto_logo_text_blue_outline_white_background_white_w400_h400.svg svg26 -->
<svg xmlns="http://www.w3.org/2000/svg" xmlns:xlink="http://www.w3.org/1999/xlink" xmlns:ev="http://www.w3.org/2001/xml-events"
		xmlns:v="http://schemas.microsoft.com/visio/2003/SVGExtensions/" width="4.16667in" height="4.16667in" viewBox="0 0 300 300"
		xml:space="preserve" color-interpolation-filters="sRGB" class="st3">
	<v:documentProperties v:langID="1033">
		<v:userDefs>
			<v:ud v:nameU="msvConvertTheme"/>
		</v:userDefs>
	</v:documentProperties>

	<style type="text/css">
	<![CDATA[
		.st1 {fill:#ffffff;stroke:none;stroke-width:1.0622}
		.st2 {fill:#0379c4;stroke:#ffffff;stroke-width:1.2}
		.st3 {fill:none;fill-rule:evenodd;font-size:12px;overflow:visible;stroke-linecap:square;stroke-miterlimit:3}
	]]>
	</style>

	<g v:mID="0" v:index="1" v:groupContext="foregroundPage">
		<title>svg26</title>
		<v:pageProperties v:drawingScale="1" v:pageScale="1" v:drawingUnits="19" v:shadowOffsetX="9" v:shadowOffsetY="-9"/>
		<g id="shape1-1" v:mID="1" v:groupContext="shape">
			<title>rect10</title>
			<rect x="0" y="0" width="300" height="300" class="st1"/>
		</g>
		<g id="shape2-3" v:mID="2" v:groupContext="shape" transform="translate(12.2473,-130.303)">
			<title>path15</title>
			<path d="M213.93 261.25 C212.66 261.25 211.64 261.69 210.88 262.56 C210.12 263.4 209.73 264.44 209.73 265.71 C209.73
						 266.99 210.12 268.08 210.88 268.98 C211.64 269.85 212.64 270.29 213.87 270.29 C215.14 270.29 216.16 269.85
						 216.92 268.98 C217.68 268.08 218.06 266.99 218.06 265.71 C218.06 264.44 217.68 263.4 216.92 262.56 C216.16
						 261.69 215.16 261.25 213.93 261.25 ZM62.78 265.55 L62.78 288.79 C62.78 290.49 63.03 292 63.54 293.31 C64.05
						 294.61 64.75 295.72 65.66 296.63 C66.61 297.5 67.71 298.17 68.98 298.64 C70.29 299.11 71.72 299.35 73.28
						 299.35 C74.15 299.35 74.97 299.29 75.73 299.19 C76.49 299.08 77.09 298.93 77.52 298.75 L77.52 292.49 C77.02
						 292.67 76.49 292.82 75.95 292.93 C75.44 293.04 74.8 293.09 74.04 293.09 C72.81 293.09 71.85 292.69 71.16
						 291.89 C70.5 291.06 70.18 290.02 70.18 288.79 L70.18 279.05 L76.71 279.05 L76.71 273.34 L70.18 273.34 L70.18
						 265.55 L62.78 265.55 ZM191.07 265.55 L191.07 288.79 C191.07 290.49 191.33 292 191.83 293.31 C192.34 294.61
						 193.05 295.72 193.95 296.63 C194.9 297.5 196 298.17 197.28 298.64 C198.58 299.11 200.01 299.35 201.58 299.35
						 C202.44 299.35 203.26 299.29 204.02 299.19 C204.78 299.08 205.39 298.93 205.82 298.75 L205.82 292.49 C205.31
						 292.67 204.79 292.82 204.24 292.93 C203.73 293.04 203.1 293.09 202.34 293.09 C201.1 293.09 200.14 292.69
						 199.45 291.89 C198.8 291.06 198.47 290.02 198.47 288.79 L198.47 279.05 L205 279.05 L205 273.34 L198.47 273.34
						 L198.47 265.55 L191.07 265.55 ZM13.66 272.69 C11.7 272.69 9.89 273.03 8.22 273.71 C6.55 274.37 5.1 275.31
						 3.86 276.55 C2.67 277.74 1.73 279.18 1.03 280.85 C0.34 282.51 0 284.35 0 286.34 C0 288.34 0.34 290.17 1.03
						 291.84 C1.73 293.51 2.67 294.96 3.86 296.19 C5.1 297.39 6.55 298.33 8.22 299.02 C9.89 299.68 11.7 300 13.66
						 300 C15.62 300 17.43 299.68 19.1 299.02 C20.77 298.33 22.2 297.39 23.4 296.19 C24.63 294.96 25.59 293.51
						 26.29 291.84 C26.98 290.17 27.32 288.34 27.32 286.34 C27.32 284.35 26.98 282.51 26.29 280.85 C25.59 279.18
						 24.63 277.74 23.4 276.55 C22.2 275.31 20.77 274.37 19.1 273.71 C17.43 273.03 15.62 272.69 13.66 272.69 ZM44.78
						 272.69 C41.08 272.69 38.16 273.46 36.02 275.02 C33.88 276.55 32.81 278.94 32.81 282.21 L32.81 299.35 L40.1
						 299.35 L40.1 282.97 C40.1 281.3 40.46 280.12 41.19 279.43 C41.91 278.7 43.09 278.34 44.73 278.34 C46.36
						 278.34 47.54 278.7 48.26 279.43 C48.99 280.12 49.35 281.3 49.35 282.97 L49.35 299.35 L56.75 299.35 L56.75
						 282.21 C56.75 278.94 55.68 276.55 53.54 275.02 C51.4 273.46 48.48 272.69 44.78 272.69 ZM124.98 272.69 C121.31
						 272.69 118.43 273.46 116.32 275.02 C114.22 276.55 113.17 278.94 113.17 282.21 L113.17 299.35 L120.41 299.35
						 L120.41 282.97 C120.41 281.3 120.75 280.12 121.44 279.43 C122.13 278.7 123.29 278.34 124.92 278.34 C126.55
						 278.34 127.72 278.7 128.41 279.43 C129.13 280.12 129.5 281.3 129.5 282.97 L129.5 299.35 L136.46 299.35 L136.46
						 282.48 C136.53 280.99 136.93 279.94 137.66 279.32 C138.38 278.67 139.51 278.34 141.03 278.34 C142.66 278.34
						 143.82 278.7 144.52 279.43 C145.2 280.12 145.55 281.3 145.55 282.97 L145.55 299.35 L152.89 299.35 L152.89
						 282.21 C152.89 278.94 151.83 276.55 149.68 275.02 C147.58 273.46 144.71 272.69 141.08 272.69 C139.34 272.69
						 137.82 272.94 136.52 273.44 C135.21 273.95 134.08 274.59 133.14 275.35 C132.2 274.55 131.05 273.92 129.71
						 273.44 C128.37 272.94 126.79 272.69 124.98 272.69 ZM170.84 272.69 C168.99 272.69 167.3 272.99 165.78 273.61
						 C164.29 274.19 163 275.04 161.91 276.17 C160.83 277.25 159.97 278.6 159.35 280.19 C158.78 281.75 158.48
						 283.51 158.48 285.47 C158.48 287.54 158.78 289.46 159.35 291.24 C159.97 293.02 160.85 294.56 161.97 295.87
						 C163.13 297.14 164.55 298.15 166.21 298.91 C167.88 299.64 169.77 300 171.87 300 C173.87 300 175.66 299.73
						 177.26 299.19 C178.89 298.6 180.27 297.75 181.39 296.63 C182.56 295.5 183.44 294.09 184.06 292.38 C184.68
						 290.68 184.99 288.68 184.99 286.4 L184.99 273.34 L178.46 273.34 L178.46 275.9 C177.69 275.02 176.7 274.28
						 175.46 273.66 C174.23 273.01 172.69 272.69 170.84 272.69 L170.84 272.69 ZM240.18 272.69 C237.78 272.69 235.57
						 272.97 233.54 273.55 C231.55 274.14 229.82 275.02 228.37 276.22 C226.92 277.42 225.78 278.92 224.94 280.73
						 C224.15 282.51 223.74 284.62 223.74 287.05 C223.74 289.37 224.15 291.37 224.94 293.03 C225.74 294.67 226.87
						 296.01 228.32 297.06 C229.8 298.08 231.55 298.82 233.54 299.29 C235.57 299.76 237.82 300 240.29 300 C241.34
						 300 242.34 299.95 243.28 299.84 C244.26 299.76 245.13 299.68 245.89 299.57 L245.89 293.74 C245.28 293.89
						 244.57 294 243.78 294.07 C242.98 294.14 242.05 294.18 241 294.18 C237.77 294.18 235.32 293.62 233.65 292.49
						 C231.98 291.33 231.15 289.45 231.15 286.83 C231.15 283.89 231.97 281.77 233.6 280.46 C235.26 279.16 237.7
						 278.5 240.89 278.5 C241.98 278.5 242.88 278.54 243.61 278.62 C244.37 278.69 245.08 278.79 245.73 278.94
						 L245.73 273.12 C244.97 273.01 244.12 272.92 243.17 272.85 C242.23 272.74 241.24 272.69 240.18 272.69 ZM262.78
						 272.69 C260.93 272.69 259.24 272.99 257.72 273.61 C256.23 274.19 254.94 275.04 253.85 276.17 C252.77 277.25
						 251.91 278.6 251.29 280.19 C250.72 281.75 250.43 283.51 250.43 285.47 C250.43 287.54 250.72 289.46 251.29
						 291.24 C251.91 293.02 252.79 294.56 253.91 295.87 C255.07 297.14 256.49 298.15 258.15 298.91 C259.82 299.64
						 261.71 300 263.82 300 C265.81 300 267.6 299.73 269.2 299.19 C270.84 298.6 272.21 297.75 273.34 296.63 C274.5
						 295.5 275.39 294.09 276 292.38 C276.62 290.68 276.93 288.68 276.93 286.4 L276.93 273.34 L270.4 273.34 L270.4
						 275.9 C269.64 275.02 268.64 274.28 267.4 273.66 C266.17 273.01 264.63 272.69 262.78 272.69 ZM210.12 273.34
						 L210.12 299.35 L217.52 299.35 L217.52 273.34 L210.12 273.34 ZM13.66 278.5 C15.58 278.5 17.11 279.16 18.23
						 280.46 C19.36 281.77 19.92 283.73 19.92 286.34 C19.92 288.96 19.36 290.92 18.23 292.22 C17.11 293.52 15.58
						 294.18 13.66 294.18 C11.74 294.18 10.22 293.52 9.09 292.22 C7.97 290.92 7.4 288.96 7.4 286.34 C7.4 283.73
						 7.97 281.77 9.09 280.46 C10.22 279.16 11.74 278.5 13.66 278.5 ZM171.93 278.5 C173.78 278.5 175.25 279.16
						 176.34 280.46 C177.42 281.77 177.97 283.73 177.97 286.34 C177.97 288.96 177.42 290.92 176.34 292.22 C175.25
						 293.52 173.78 294.18 171.93 294.18 C170.08 294.18 168.61 293.52 167.52 292.22 C166.43 290.92 165.88 288.96
						 165.88 286.34 C165.88 283.73 166.43 281.77 167.52 280.46 C168.61 279.16 170.08 278.5 171.93 278.5 ZM263.87
						 278.5 C265.72 278.5 267.19 279.16 268.28 280.46 C269.36 281.77 269.91 283.73 269.91 286.34 C269.91 288.96
						 269.36 290.92 268.28 292.22 C267.19 293.52 265.72 294.18 263.87 294.18 C262.02 294.18 260.55 293.52 259.46
						 292.22 C258.37 290.92 257.82 288.96 257.82 286.34 C257.82 283.73 258.37 281.77 259.46 280.46 C260.55 279.16
						 262.02 278.5 263.87 278.5 Z" class="st2"/>
		</g>
		<g id="shape3-5" v:mID="3" v:groupContext="shape" transform="translate(92.4902,-130.955)">
			<title>path20</title>
			<path d="M13.88 261.25 C11.88 261.25 10.03 261.62 8.32 262.34 C6.62 263.03 5.15 264.01 3.92 265.28 C2.69 266.51 1.73
						 267.98 1.03 269.69 C0.34 271.4 0 273.26 0 275.29 C0 277.33 0.34 279.2 1.03 280.9 C1.73 282.61 2.69 284.09
						 3.92 285.36 C5.15 286.6 6.62 287.58 8.32 288.3 C10.03 288.99 11.88 289.34 13.88 289.34 C15.87 289.34 17.72
						 288.99 19.43 288.3 C21.13 287.58 22.6 286.6 23.83 285.36 C25.07 284.09 26.03 282.61 26.72 280.9 C27.41 279.2
						 27.76 277.33 27.76 275.29 C27.76 273.26 27.41 271.4 26.72 269.69 C26.03 267.98 25.07 266.51 23.83 265.28
						 C22.6 264.01 21.13 263.03 19.43 262.34 C17.72 261.62 15.87 261.25 13.88 261.25 ZM13.88 267.46 C14.82 267.46
						 15.67 267.66 16.44 268.06 C17.2 268.45 17.83 269 18.34 269.69 C18.88 270.38 19.3 271.21 19.59 272.19 C19.88
						 273.14 20.03 274.17 20.03 275.29 C20.03 276.42 19.88 277.47 19.59 278.45 C19.3 279.4 18.88 280.21 18.34
						 280.9 C17.83 281.59 17.2 282.13 16.44 282.53 C15.67 282.93 14.82 283.13 13.88 283.13 C12.93 283.13 12.08
						 282.93 11.32 282.53 C10.56 282.13 9.91 281.59 9.36 280.9 C8.85 280.21 8.45 279.4 8.16 278.45 C7.87 277.47
						 7.73 276.42 7.73 275.29 C7.73 274.17 7.87 273.14 8.16 272.19 C8.45 271.21 8.85 270.38 9.36 269.69 C9.91
						 269 10.56 268.45 11.32 268.06 C12.08 267.66 12.93 267.46 13.88 267.46 ZM1.79 293.52 L1.79 300 L25.96 300
						 L25.96 293.52 L1.79 293.52 Z" class="st2"/>
		</g>
	</g>
</svg>
