<svg xmlns="http://www.w3.org/2000/svg" width="305" height="365" viewBox="0 0 228.75 273.75" color-interpolation-filters="sRGB" fill="none" fill-rule="evenodd" font-size="12" overflow="visible" stroke-linecap="square" stroke-miterlimit="3"><g transform="translate(35.153 -26.29)"><path d="M79.22 52.58c-11.41 0-21.97 2.11-31.73 6.22-9.71 3.94-18.1 9.53-25.12 16.78-7.02 7.02-12.5 15.41-16.49 25.17C1.94 110.51 0 121.13 0 132.72c0 11.64 1.94 22.31 5.88 32.01 3.99 9.76 9.47 18.21 16.49 25.46 7.02 7.08 15.41 12.67 25.12 16.78 9.76 3.94 20.32 5.94 31.73 5.94 11.36 0 21.92-2 31.68-5.94 9.7-4.11 18.09-9.7 25.11-16.78 7.08-7.25 12.56-15.7 16.5-25.46 3.94-9.7 5.93-20.37 5.93-32.01 0-11.59-1.99-22.21-5.93-31.97-3.94-9.76-9.42-18.15-16.5-25.17-7.02-7.25-15.41-12.84-25.11-16.78-9.76-4.11-20.32-6.22-31.68-6.22zm0 35.44c5.37 0 10.22 1.15 14.61 3.43 4.34 2.23 7.94 5.36 10.85 9.3 3.08 3.94 5.48 8.68 7.13 14.27 1.66 5.42 2.51 11.3 2.51 17.7 0 6.44-.85 12.44-2.51 18.03-1.65 5.42-4.05 10.05-7.13 13.98a31.508 31.508 0 01-10.85 9.31c-4.39 2.28-9.24 3.42-14.61 3.42-5.42 0-10.27-1.14-14.61-3.42-4.34-2.28-8.05-5.37-11.19-9.31-2.91-3.93-5.19-8.56-6.85-13.98-1.65-5.59-2.45-11.59-2.45-18.03 0-6.4.8-12.28 2.45-17.7 1.66-5.59 3.94-10.33 6.85-14.27 3.14-3.94 6.85-7.07 11.19-9.3 4.34-2.28 9.19-3.43 14.61-3.43zm-69 148.74v36.99h137.95v-36.99H10.22z" fill="#00a05a"/></g></svg>