<svg xmlns="http://www.w3.org/2000/svg" width="441" height="524" viewBox="0 0 330.75 393" color-interpolation-filters="sRGB" fill="none" fill-rule="evenodd" font-size="12" overflow="visible" stroke-linecap="square" stroke-miterlimit="3"><g><path fill="#1f64ff" d="M0 0h330.75v393H0z"/></g><g transform="translate(50.828 -36.605)"><path d="M114.55 73.21c-16.51 0-31.78 3.05-45.89 9-14.03 5.69-26.16 13.78-36.31 24.26-10.15 10.15-18.07 22.28-23.85 36.39C2.81 156.97 0 172.32 0 189.08c0 16.83 2.81 32.27 8.5 46.29 5.78 14.12 13.7 26.33 23.85 36.81 10.15 10.23 22.28 18.32 36.31 24.26 14.11 5.7 29.38 8.59 45.89 8.59 16.42 0 31.69-2.89 45.8-8.59 14.03-5.94 26.16-14.03 36.31-24.26 10.23-10.48 18.16-22.69 23.85-36.81 5.69-14.02 8.58-29.46 8.58-46.29 0-16.76-2.89-32.11-8.58-46.22-5.69-14.11-13.62-26.24-23.85-36.39-10.15-10.48-22.28-18.57-36.31-24.26-14.11-5.95-29.38-9-45.8-9zm0 51.25c7.75 0 14.77 1.65 21.12 4.95 6.28 3.22 11.47 7.76 15.68 13.45 4.46 5.7 7.93 12.55 10.32 20.63 2.39 7.84 3.63 16.34 3.63 25.59 0 9.32-1.24 17.99-3.63 26.08-2.39 7.84-5.86 14.52-10.32 20.21-4.21 5.7-9.4 10.16-15.68 13.46-6.35 3.3-13.37 4.95-21.12 4.95-7.84 0-14.86-1.65-21.13-4.95-6.27-3.3-11.64-7.76-16.18-13.46-4.2-5.69-7.51-12.37-9.9-20.21-2.39-8.09-3.55-16.76-3.55-26.08 0-9.25 1.16-17.75 3.55-25.59 2.39-8.08 5.7-14.93 9.9-20.63 4.54-5.69 9.91-10.23 16.18-13.45 6.27-3.3 13.29-4.95 21.13-4.95zM14.77 339.52V393h199.47v-53.48H14.77z" fill="#fff"/></g></svg>