<svg xmlns="http://www.w3.org/2000/svg" width="541" height="400" viewBox="0 0 405.75 300" color-interpolation-filters="sRGB" fill="none" fill-rule="evenodd" font-size="12" overflow="visible" stroke-linecap="square" stroke-miterlimit="3"><g transform="translate(115.435 -27.943)"><path d="M87.44 55.89c-12.6 0-24.25 2.33-35.03 6.86C41.7 67.1 32.44 73.27 24.69 81.27c-7.74 7.75-13.79 17.01-18.2 27.79C2.14 119.83 0 131.55 0 144.33c0 12.86 2.14 24.64 6.49 35.35 4.41 10.77 10.46 20.09 18.2 28.09 7.75 7.81 17.01 13.99 27.72 18.52 10.78 4.35 22.43 6.55 35.03 6.55 12.54 0 24.19-2.2 34.96-6.55 10.71-4.53 19.97-10.71 27.72-18.52 7.81-8 13.86-17.32 18.21-28.09 4.35-10.71 6.55-22.49 6.55-35.35 0-12.78-2.2-24.5-6.55-35.27-4.35-10.78-10.4-20.04-18.21-27.79-7.75-8-17.01-14.17-27.72-18.52-10.77-4.53-22.42-6.86-34.96-6.86zm0 39.12c5.92 0 11.28 1.26 16.13 3.78 4.79 2.45 8.75 5.92 11.97 10.27 3.4 4.34 6.04 9.57 7.87 15.74 1.83 5.99 2.77 12.48 2.77 19.53 0 7.12-.94 13.74-2.77 19.91-1.83 5.99-4.47 11.09-7.87 15.44-3.22 4.34-7.18 7.74-11.97 10.26-4.85 2.52-10.21 3.78-16.13 3.78-5.98 0-11.34-1.26-16.13-3.78-4.78-2.52-8.88-5.92-12.34-10.26-3.22-4.35-5.74-9.45-7.56-15.44-1.83-6.17-2.71-12.79-2.71-19.91 0-7.05.88-13.54 2.71-19.53 1.82-6.17 4.34-11.4 7.56-15.74 3.46-4.35 7.56-7.82 12.34-10.27 4.79-2.52 10.15-3.78 16.13-3.78zM11.28 259.18V300h152.26v-40.82H11.28z" fill="#00a05a"/></g></svg>