<svg xmlns="http://www.w3.org/2000/svg" width="421" height="421" viewBox="0 0 315.75 315.75" color-interpolation-filters="sRGB" fill="none" fill-rule="evenodd" font-size="12" overflow="visible" stroke-linecap="square" stroke-miterlimit="3"><g><path fill="#1f64ff" d="M0 0h315.75v315.75H0z"/></g><g transform="translate(48.523 -5.232)"><path d="M109.35 10.46c-15.76 0-30.33 2.92-43.8 8.59-13.4 5.44-24.98 13.16-34.67 23.16-9.69 9.69-17.25 21.27-22.77 34.75C2.68 90.43 0 105.08 0 121.08c0 16.07 2.68 30.8 8.11 44.19 5.52 13.48 13.08 25.14 22.77 35.14 9.69 9.77 21.27 17.49 34.67 23.16 13.47 5.44 28.04 8.2 43.8 8.2 15.68 0 30.25-2.76 43.73-8.2 13.39-5.67 24.97-13.39 34.66-23.16 9.77-10 17.33-21.66 22.77-35.14 5.44-13.39 8.19-28.12 8.19-44.19 0-16-2.75-30.65-8.19-44.12-5.44-13.48-13-25.06-22.77-34.75-9.69-10-21.27-17.72-34.66-23.16-13.48-5.67-28.05-8.59-43.73-8.59zm0 48.93c7.41 0 14.1 1.57 20.17 4.72 5.99 3.08 10.95 7.41 14.97 12.85 4.25 5.43 7.56 11.97 9.85 19.69 2.28 7.49 3.46 15.6 3.46 24.43 0 8.9-1.18 17.17-3.46 24.89-2.29 7.49-5.6 13.87-9.85 19.3-4.02 5.44-8.98 9.69-14.97 12.84-6.07 3.16-12.76 4.73-20.17 4.73-7.48 0-14.18-1.57-20.17-4.73-5.98-3.15-11.11-7.4-15.44-12.84-4.02-5.43-7.17-11.81-9.45-19.3-2.29-7.72-3.39-15.99-3.39-24.89 0-8.83 1.1-16.94 3.39-24.43 2.28-7.72 5.43-14.26 9.45-19.69 4.33-5.44 9.46-9.77 15.44-12.85 5.99-3.15 12.69-4.72 20.17-4.72zM14.1 264.7v51.05h190.42V264.7H14.1z" fill="#fff"/></g></svg>