<svg id="Layer_1" data-name="Layer 1" xmlns="http://www.w3.org/2000/svg" viewBox="0 0 120 120"><defs><style>.cls-1{fill:#bb9155;}</style></defs><rect class="cls-1" x="31.3" y="48.97" width="4.15" height="4.15"/><rect class="cls-1" x="43.95" y="20.31" width="4.15" height="4.15"/><polygon class="cls-1" points="48.73 42.27 57.48 48.17 57.48 58.77 48.73 52.78 48.73 42.27"/><polygon class="cls-1" points="48.73 58.89 57.48 64.89 57.48 76.02 48.73 70.03 48.73 58.89"/><rect class="cls-1" x="57.92" y="95.54" width="4.15" height="4.15"/><polygon class="cls-1" points="62.52 48.21 70.79 42.91 70.79 53.13 62.52 58.78 62.52 48.21"/><polygon class="cls-1" points="62.52 64.89 70.79 59.24 70.79 70.78 62.52 76.16 62.52 64.89"/><rect class="cls-1" x="84.54" y="28.91" width="4.15" height="4.15"/><path class="cls-1" d="M102.33,0H17.67a5,5,0,0,0-5,5V72.63a47.37,47.37,0,0,0,94.74,0V5A5,5,0,0,0,102.33,0ZM93.74,38.11h-4.6v8.58l-13.31,9.1V73.51L62.52,82.17v8.32h4.6v14.24H52.88V90.49h4.6V82.14L30.86,64V58.16h-4.6V43.93H40.5V58.16H35.9v3.18l7.78,5.3V29.51H38.9V15.27H53.14V29.51H48.73V36.2L60,43.82,75.83,33.69v16L84.1,44V38.11H79.5V23.87H93.74Z"/></svg>