<svg id="Layer_1" data-name="Layer 1" xmlns="http://www.w3.org/2000/svg" viewBox="0 0 152 152"><defs><style>.cls-1{fill:#bb9155;}</style></defs><rect class="cls-1" x="39.65" y="62.03" width="5.26" height="5.26"/><rect class="cls-1" x="55.67" y="25.73" width="5.26" height="5.26"/><polygon class="cls-1" points="61.72 53.55 72.81 61.02 72.81 74.45 61.72 66.85 61.72 53.55"/><polygon class="cls-1" points="61.72 74.59 72.81 82.19 72.81 96.3 61.72 88.7 61.72 74.59"/><rect class="cls-1" x="73.37" y="121.01" width="5.26" height="5.26"/><polygon class="cls-1" points="79.19 61.06 89.67 54.35 89.67 67.3 79.19 74.45 79.19 61.06"/><polygon class="cls-1" points="79.19 82.19 89.67 75.04 89.67 89.65 79.19 96.46 79.19 82.19"/><rect class="cls-1" x="107.09" y="36.62" width="5.26" height="5.26"/><path class="cls-1" d="M129.62,0H22.38A6.39,6.39,0,0,0,16,6.39V92a60,60,0,1,0,120,0V6.39A6.39,6.39,0,0,0,129.62,0ZM118.74,48.27h-5.83V59.15L96.05,70.67V93.11l-16.86,11v10.54H85v18H67v-18h5.83V104l-33.72-23v-7.4H33.26v-18h18v18H45.47v4l9.86,6.71v-47h-6v-18h18v18H61.72v8.48L76,55.5l20-12.83V62.93l10.47-7.16v-7.5H100.7v-18h18Z"/></svg>