<svg id="Layer_1" data-name="Layer 1" xmlns="http://www.w3.org/2000/svg" viewBox="0 0 180 180"><defs><style>.cls-1{fill:#bb9155;}</style></defs><rect class="cls-1" x="46.95" y="73.45" width="6.23" height="6.22"/><rect class="cls-1" x="65.92" y="30.46" width="6.23" height="6.23"/><polygon class="cls-1" points="73.09 63.41 86.22 72.26 86.22 88.16 73.09 79.17 73.09 63.41"/><polygon class="cls-1" points="73.09 88.34 86.22 97.33 86.22 114.03 73.09 105.04 73.09 88.34"/><rect class="cls-1" x="86.88" y="143.3" width="6.23" height="6.23"/><polygon class="cls-1" points="93.78 72.31 106.19 64.36 106.19 79.69 93.78 88.17 93.78 72.31"/><polygon class="cls-1" points="93.78 97.34 106.19 88.86 106.19 106.16 93.78 114.23 93.78 97.34"/><rect class="cls-1" x="126.82" y="43.37" width="6.23" height="6.23"/><path class="cls-1" d="M153.5,0H26.5a7.57,7.57,0,0,0-7.56,7.56V108.94a71.06,71.06,0,0,0,142.12,0V7.56A7.57,7.57,0,0,0,153.5,0ZM140.61,57.16h-6.9V70l-20,13.64v26.58l-20,13v12.48h6.9V157.1H79.32V135.74h6.9V123.21L46.29,96V87.24h-6.9V65.89H60.75V87.24h-6.9V92L65.53,100V44.26H58.36V22.9H79.71V44.26H73.09v10l17,11.43,23.7-15.19v24l12.39-8.48V57.16h-6.9V35.8h21.36Z"/></svg>