<svg id="Layer_1" data-name="Layer 1" xmlns="http://www.w3.org/2000/svg" viewBox="0 0 60 60"><defs><style>.cls-1{fill:#bb9155;}</style></defs><rect class="cls-1" x="15.65" y="24.48" width="2.08" height="2.07"/><rect class="cls-1" x="21.97" y="10.15" width="2.08" height="2.08"/><polygon class="cls-1" points="24.36 21.14 28.74 24.09 28.74 29.39 24.36 26.39 24.36 21.14"/><polygon class="cls-1" points="24.36 29.45 28.74 32.44 28.74 38.01 24.36 35.01 24.36 29.45"/><rect class="cls-1" x="28.96" y="47.77" width="2.08" height="2.08"/><polygon class="cls-1" points="31.26 24.1 35.4 21.45 35.4 26.56 31.26 29.39 31.26 24.1"/><polygon class="cls-1" points="31.26 32.45 35.4 29.62 35.4 35.39 31.26 38.08 31.26 32.45"/><rect class="cls-1" x="42.27" y="14.46" width="2.08" height="2.08"/><path class="cls-1" d="M51.17,0H8.83A2.52,2.52,0,0,0,6.31,2.52V36.31a23.69,23.69,0,0,0,47.38,0V2.52A2.52,2.52,0,0,0,51.17,0Zm-4.3,19.05h-2.3v4.3l-6.65,4.54v8.86l-6.66,4.34v4.16h2.3v7.12H26.44V45.25h2.3V41.07L15.43,32V29.08h-2.3V22h7.12v7.12H18v1.59l3.89,2.65V14.75H19.45V7.63h7.12v7.12H24.36V18.1L30,21.91l7.9-5.07v8L42.05,22v-3h-2.3V11.93h7.12Z"/></svg>