<svg id="Layer_1" data-name="Layer 1" xmlns="http://www.w3.org/2000/svg" viewBox="0 0 120 120"><defs><style>.cls-1{fill:#fd1e43;}</style></defs><path class="cls-1" d="M57.9,80.89V65.32a.42.42,0,0,0-.6-.38L41.63,72.78a.41.41,0,0,0-.23.37V88.72a.42.42,0,0,0,.6.38l15.67-7.84A.39.39,0,0,0,57.9,80.89Z"/><path class="cls-1" d="M78.79,73.62,62.71,65a.41.41,0,0,0-.61.37V80.9a.42.42,0,0,0,.22.37L78.4,89.91a.41.41,0,0,0,.61-.37V74A.4.4,0,0,0,78.79,73.62Z"/><path class="cls-1" d="M74.49,92.88l-14.3-7.13a.5.5,0,0,0-.38,0l-14.3,7.13a.42.42,0,0,0,0,.75l14.31,7.29a.42.42,0,0,0,.38,0L74.5,93.63A.42.42,0,0,0,74.49,92.88Z"/><path class="cls-1" d="M119.39,53l-15.67,7.84a.41.41,0,0,0-.23.37V98.66a.42.42,0,0,0,.61.38l15.67-7.84a.41.41,0,0,0,.23-.37V53.41A.42.42,0,0,0,119.39,53Z"/><path class="cls-1" d="M99.07,60.87,83.4,53a.42.42,0,0,0-.61.38V90.83a.4.4,0,0,0,.24.37L98.7,99a.42.42,0,0,0,.6-.38V61.24A.41.41,0,0,0,99.07,60.87Z"/><path class="cls-1" d="M119.39,30.9l-15.67,7.84a.41.41,0,0,0-.23.37V54.68a.42.42,0,0,0,.61.38l15.67-7.84a.41.41,0,0,0,.23-.37V31.28A.42.42,0,0,0,119.39,30.9Z"/><path class="cls-1" d="M99.07,38.74,83.4,30.9a.42.42,0,0,0-.61.38V46.85a.4.4,0,0,0,.24.37L98.7,55.06a.42.42,0,0,0,.6-.38V39.11A.41.41,0,0,0,99.07,38.74Z"/><path class="cls-1" d="M115.89,26.37l-14.3-7.29a.42.42,0,0,0-.38,0L86.9,26.37a.42.42,0,0,0,0,.75l14.31,7.13a.47.47,0,0,0,.37,0l14.31-7.13A.42.42,0,0,0,115.89,26.37Z"/><path class="cls-1" d="M36.6,30.9,20.93,38.74a.41.41,0,0,0-.23.37v37.7a.42.42,0,0,0,.6.38L37,69.35a.4.4,0,0,0,.24-.37V31.28A.42.42,0,0,0,36.6,30.9Z"/><path class="cls-1" d="M16.28,38.74.61,30.9a.42.42,0,0,0-.61.38V69a.41.41,0,0,0,.23.37L15.9,77.19a.42.42,0,0,0,.61-.38V39.11A.41.41,0,0,0,16.28,38.74Z"/><path class="cls-1" d="M33.1,26.37,18.79,19.08a.42.42,0,0,0-.38,0L4.11,26.37a.42.42,0,0,0,0,.75l14.31,7.13a.47.47,0,0,0,.37,0L33.1,27.12A.42.42,0,0,0,33.1,26.37Z"/><path class="cls-1" d="M36.6,74.88,20.93,82.72a.41.41,0,0,0-.23.37V98.66a.42.42,0,0,0,.6.38L37,91.2a.4.4,0,0,0,.24-.37V75.26A.42.42,0,0,0,36.6,74.88Z"/><path class="cls-1" d="M16.28,82.72.61,74.88a.42.42,0,0,0-.61.38V90.83a.41.41,0,0,0,.23.37L15.9,99a.42.42,0,0,0,.61-.38V83.09A.41.41,0,0,0,16.28,82.72Z"/></svg>