<svg id="Layer_1" data-name="Layer 1" xmlns="http://www.w3.org/2000/svg" viewBox="0 0 57 57"><defs><style>.cls-1{fill:#fd1e43;}</style></defs><path class="cls-1" d="M27.5,38.42V31a.19.19,0,0,0-.28-.18l-7.45,3.72a.21.21,0,0,0-.11.18v7.39a.2.2,0,0,0,.29.18l7.44-3.72A.19.19,0,0,0,27.5,38.42Z"/><path class="cls-1" d="M37.43,35l-7.64-4.11a.2.2,0,0,0-.29.18v7.39a.19.19,0,0,0,.1.17l7.64,4.11a.2.2,0,0,0,.29-.18V35.14A.19.19,0,0,0,37.43,35Z"/><path class="cls-1" d="M35.38,44.12l-6.79-3.39a.28.28,0,0,0-.18,0l-6.79,3.39a.2.2,0,0,0,0,.35l6.8,3.47a.19.19,0,0,0,.18,0l6.8-3.47A.2.2,0,0,0,35.38,44.12Z"/><path class="cls-1" d="M56.71,25.19l-7.44,3.72a.2.2,0,0,0-.11.18V46.87a.2.2,0,0,0,.29.17l7.44-3.72a.19.19,0,0,0,.11-.18V25.37A.2.2,0,0,0,56.71,25.19Z"/><path class="cls-1" d="M47.06,28.91l-7.45-3.72a.19.19,0,0,0-.28.18V43.14a.19.19,0,0,0,.11.18L46.88,47a.2.2,0,0,0,.29-.17V29.09A.2.2,0,0,0,47.06,28.91Z"/><path class="cls-1" d="M56.71,14.68,49.27,18.4a.19.19,0,0,0-.11.18V26a.2.2,0,0,0,.29.18l7.44-3.72a.19.19,0,0,0,.11-.18V14.86A.2.2,0,0,0,56.71,14.68Z"/><path class="cls-1" d="M47.06,18.4l-7.45-3.72a.19.19,0,0,0-.28.18v7.39a.19.19,0,0,0,.11.18l7.44,3.72a.2.2,0,0,0,.29-.18V18.58A.19.19,0,0,0,47.06,18.4Z"/><path class="cls-1" d="M55.05,12.53l-6.8-3.47a.19.19,0,0,0-.18,0l-6.79,3.47a.19.19,0,0,0,0,.35l6.79,3.39a.28.28,0,0,0,.18,0l6.8-3.39A.2.2,0,0,0,55.05,12.53Z"/><path class="cls-1" d="M17.39,14.68,9.94,18.4a.19.19,0,0,0-.11.18V36.49a.2.2,0,0,0,.29.17l7.44-3.72a.19.19,0,0,0,.11-.18V14.86A.19.19,0,0,0,17.39,14.68Z"/><path class="cls-1" d="M7.73,18.4.29,14.68a.2.2,0,0,0-.29.18v17.9a.19.19,0,0,0,.11.18l7.44,3.72a.2.2,0,0,0,.29-.17V18.58A.19.19,0,0,0,7.73,18.4Z"/><path class="cls-1" d="M15.72,12.53,8.93,9.06a.19.19,0,0,0-.18,0L2,12.53a.2.2,0,0,0,0,.35l6.8,3.39a.28.28,0,0,0,.18,0l6.79-3.39A.19.19,0,0,0,15.72,12.53Z"/><path class="cls-1" d="M17.39,35.57,9.94,39.29a.19.19,0,0,0-.11.18v7.4a.2.2,0,0,0,.29.17l7.44-3.72a.19.19,0,0,0,.11-.18V35.75A.19.19,0,0,0,17.39,35.57Z"/><path class="cls-1" d="M7.73,39.29.29,35.57a.2.2,0,0,0-.29.18v7.39a.19.19,0,0,0,.11.18L7.55,47a.2.2,0,0,0,.29-.17v-7.4A.19.19,0,0,0,7.73,39.29Z"/></svg>