<svg id="Layer_1" data-name="Layer 1" xmlns="http://www.w3.org/2000/svg" viewBox="0 0 96 96"><defs><style>.cls-1{fill:#fd1e43;}</style></defs><path class="cls-1" d="M46.32,64.71V52.25a.33.33,0,0,0-.48-.3L33.3,58.22a.34.34,0,0,0-.18.3V71a.33.33,0,0,0,.48.3L46.14,65A.34.34,0,0,0,46.32,64.71Z"/><path class="cls-1" d="M63,58.89,50.17,52a.33.33,0,0,0-.49.29V64.72a.32.32,0,0,0,.17.29l12.87,6.92a.33.33,0,0,0,.49-.3V59.19A.36.36,0,0,0,63,58.89Z"/><path class="cls-1" d="M59.59,74.3,48.15,68.6a.39.39,0,0,0-.3,0L36.41,74.3a.34.34,0,0,0,0,.6l11.45,5.84a.32.32,0,0,0,.3,0L59.6,74.9A.34.34,0,0,0,59.59,74.3Z"/><path class="cls-1" d="M95.51,42.42,83,48.69a.36.36,0,0,0-.19.3V78.93a.34.34,0,0,0,.49.3L95.81,73a.32.32,0,0,0,.19-.3V42.72A.34.34,0,0,0,95.51,42.42Z"/><path class="cls-1" d="M79.26,48.69,66.72,42.42a.34.34,0,0,0-.49.3V72.66a.34.34,0,0,0,.19.3L79,79.23a.33.33,0,0,0,.48-.3V49A.35.35,0,0,0,79.26,48.69Z"/><path class="cls-1" d="M95.51,24.72,83,31a.35.35,0,0,0-.19.3V43.75a.34.34,0,0,0,.49.3l12.53-6.27a.33.33,0,0,0,.19-.3V25A.34.34,0,0,0,95.51,24.72Z"/><path class="cls-1" d="M79.26,31,66.72,24.72a.34.34,0,0,0-.49.3V37.48a.35.35,0,0,0,.19.3L79,44.05a.33.33,0,0,0,.48-.3V31.29A.34.34,0,0,0,79.26,31Z"/><path class="cls-1" d="M92.71,21.1,81.27,15.26a.32.32,0,0,0-.3,0L69.52,21.1a.34.34,0,0,0,0,.6L81,27.4a.39.39,0,0,0,.3,0l11.44-5.7A.33.33,0,0,0,92.71,21.1Z"/><path class="cls-1" d="M29.28,24.72,16.74,31a.34.34,0,0,0-.18.3V61.45a.33.33,0,0,0,.48.3l12.54-6.27a.35.35,0,0,0,.19-.3V25A.34.34,0,0,0,29.28,24.72Z"/><path class="cls-1" d="M13,31,.49,24.72A.34.34,0,0,0,0,25V55.18a.33.33,0,0,0,.19.3l12.53,6.27a.34.34,0,0,0,.49-.3V31.29A.35.35,0,0,0,13,31Z"/><path class="cls-1" d="M26.48,21.1,15,15.26a.32.32,0,0,0-.3,0L3.29,21.1a.33.33,0,0,0,0,.6l11.44,5.7a.39.39,0,0,0,.3,0l11.45-5.7A.34.34,0,0,0,26.48,21.1Z"/><path class="cls-1" d="M29.28,59.91,16.74,66.17a.35.35,0,0,0-.18.3V78.93a.33.33,0,0,0,.48.3L29.58,73a.34.34,0,0,0,.19-.3V60.21A.34.34,0,0,0,29.28,59.91Z"/><path class="cls-1" d="M13,66.17.49,59.91a.34.34,0,0,0-.49.3V72.66a.32.32,0,0,0,.19.3l12.53,6.27a.34.34,0,0,0,.49-.3V66.47A.36.36,0,0,0,13,66.17Z"/></svg>